<svg xmlns="http://www.w3.org/2000/svg" xmlns:xlink="http://www.w3.org/1999/xlink" width="100%" height="100%" viewBox="0 0 1024 482">
<!-- Vectorization by Rodrigo Polo https://github.com/rodrigopolo/logotipos-politicos -->
<defs>
<g id="l2">
<path fill="#1D1D1B" stroke="none" d="M 981.05 455.9 L 979.2 455.25 Q 978.05 455.25 977 456.95 976.1 457.85 975.85 459.5 975.85 462.35 978.05 462.35 979.75 462.1 980.65 461.2 982.45 459.4 982.2 456.95 982.2 456.55 981.05 455.9 M 981.3 425.35 Q 980.9 431.15 979.75 435.3 978.2 441.4 978.3 447.2 978.85 447.6 980.15 447.85 L 982.2 448.15 982.2 448 Q 982.85 446.45 982.85 445 983 440.5 984.25 435.7 987.5 421.45 987.5 420.55 987.5 419.5 986.75 419.15 986.1 418.5 985.3 418.5 983.65 418.75 982.85 419.9 980.9 422.25 981.3 425.35 M 963.05 433.25 Q 962.15 430.65 959.3 430.4 952.3 430.4 945.3 439.45 938.3 448.65 938.3 456.4 938.3 459.4 940 461.45 941.65 463.4 944 463.4 948.3 463 951.5 460.55 956.15 457.2 959.8 452.15 959.4 456.7 961.1 461.2 962.65 464.3 964.85 464.3 966.55 464.3 967.45 463.4 968.5 462.9 968.75 461.6 968.75 460.45 967.45 459.8 964.7 458.5 964.7 451.1 965.1 444.9 966.25 438.7 966.25 438.55 966.65 436.1 966.65 434.3 964.2 434.3 963.3 434.3 963.05 433.25 M 958 435.3 Q 960.85 435.3 960.85 439.6 960.85 445.15 955 451.75 949.2 458.35 945.95 458.35 943.6 458.35 943.6 455 943.6 449.95 948.8 442.7 954.1 435.3 958 435.3 M 692.3 415.1 Q 692.3 412.4 690.05 412.4 688.5 412.4 686.95 415 685.55 417.7 683.2 432.2 680.9 445.4 680.75 457.05 680.75 460.8 681.4 463.4 682.05 465.35 683.6 465.35 685 465.35 685.8 464.3 686.95 463.15 686.7 461.75 686.85 461.1 686.7 460.3 686.2 456.05 686.2 450.6 686.2 445.95 687.1 439.6 687.85 433.25 689.7 426.75 691.5 420.8 692.3 415.1 M 711.3 420.55 Q 710.55 419.65 709.35 419.65 707.3 419.65 706.5 422.75 L 704.85 429.25 Q 704.45 431.05 703.4 433 703 433.65 702.4 433.65 L 695.75 433.65 Q 694.35 433.9 694.35 435.3 694.35 438.4 698.25 438.4 L 701.35 438.15 Q 702.1 438.15 702.1 438.55 L 700.55 446.3 Q 699.25 451.25 699.15 455.9 699.15 464.3 706.4 464.3 711.2 464.3 714.95 460.95 719.1 457.45 719.1 455.4 719.1 453.95 717.8 453.95 715.95 454.45 715.05 455.5 712.2 458.6 707.95 459.4 706.15 459.65 705.35 458.35 704.3 456.3 704.45 453.95 705.35 446.2 707.8 438.05 709.35 437.4 711.7 437.1 L 719.75 436.5 Q 723.1 436.35 723.1 433.9 723.1 433 722.45 432.35 721 431.7 719.6 431.95 718.15 431.95 715.05 432.2 L 709.25 432.85 710.9 426.5 Q 711.7 424.45 712.1 422.25 711.95 421.35 711.3 420.55 M 749.25 433.25 Q 748.35 430.65 745.5 430.4 738.5 430.4 731.5 439.45 724.5 448.65 724.5 456.4 724.5 459.4 726.2 461.45 727.9 463.4 730.2 463.4 734.5 463 737.75 460.55 742.4 457.2 746 452.15 745.65 456.7 747.3 461.2 748.85 464.3 751.05 464.3 752.75 464.3 753.65 463.4 754.7 462.9 754.95 461.6 754.95 460.45 753.65 459.8 750.95 458.5 750.95 451.1 751.3 444.9 752.5 438.7 752.5 438.55 752.9 436.1 752.9 434.3 750.4 434.3 749.5 434.3 749.25 433.25 M 735 442.7 Q 740.3 435.3 744.2 435.3 747.05 435.3 747.05 439.6 747.05 445.15 741.2 451.75 735.4 458.35 732.15 458.35 729.85 458.35 729.85 455 729.85 449.95 735 442.7 M 813.2 436.1 Q 813.2 434.3 810.9 434.3 810 434.3 809.6 433.25 808.95 430.65 805.95 430.4 798.95 430.4 792 439.45 785 448.65 785 456.4 784.85 459.15 786.65 461.45 788.25 463.4 790.55 463.4 795.1 463 798.05 460.55 803.1 456.95 806.35 452.15 806.1 457.2 807.8 461.2 809.2 464.3 811.55 464.3 813.1 464.3 814.15 463.4 815.3 462.75 815.4 461.6 815.3 460.45 814.15 459.8 811.4 458.5 811.4 451.1 811.65 444.9 812.95 438.7 L 813.2 436.1 M 795.5 442.7 Q 800.8 435.3 804.55 435.3 807.4 435.3 807.5 439.6 807.5 445.15 801.7 451.75 795.85 458.35 792.5 458.35 790.3 458.35 790.3 455 790.15 450.2 795.5 442.7 M 867.45 432.35 Q 866.05 430 863.2 429.75 857.9 429.75 851.8 438.4 846 445.65 845.6 454.85 845.2 458.75 847.9 462.1 850.75 464.95 854.9 464.7 860.75 464.45 865.4 461.2 870.7 457.85 870.7 455.5 870.7 454.35 869.7 454.35 867.85 454.85 866.55 455.9 862.15 459.5 856.2 459.9 850.5 460.15 850.5 454.75 851.15 447.85 854.8 442.3 859.05 434.9 862.05 434.9 863.85 435.3 864.35 438.7 865.15 442.15 866.95 442.15 867.6 442.15 868.4 440.9 869.15 439.6 869.15 437.9 869.15 435.05 867.45 432.35 M 901.25 433.25 Q 900.35 430.65 897.5 430.4 890.5 430.4 883.55 439.45 876.55 448.65 876.55 456.4 876.4 459.15 878.2 461.45 879.8 463.4 882.1 463.4 886.65 463 889.6 460.55 894.55 457.05 898.05 452.15 897.65 457.05 899.35 461.2 900.75 464.3 903.1 464.3 904.65 464.3 905.65 463.4 906.85 462.75 906.95 461.6 906.85 460.45 905.65 459.8 902.95 458.5 902.95 451.1 903.2 444.9 904.5 438.7 L 904.75 436.1 Q 904.75 434.3 902.45 434.3 901.55 434.3 901.25 433.25 M 896.1 435.3 Q 898.95 435.3 899.05 439.6 899.05 445.15 893.25 451.75 887.4 458.35 884.05 458.35 881.85 458.35 881.85 455 881.7 450.2 887.05 442.7 892.35 435.3 896.1 435.3 M 933.9 432.45 Q 934.05 430.9 932.75 429.6 931.2 428.7 929.25 428.85 923.8 429.5 919.55 432.7 913.85 435.85 913.55 442.55 913.55 445.3 915.65 446.7 919.65 449.7 923.95 451.75 928.7 454.1 928.7 456.15 926.8 458.5 923.95 458.9 920.2 459.9 916.8 459.9 L 913.55 459.4 Q 912.3 459.4 911.25 459.9 910.2 460.3 910.2 461.6 910.2 464.85 915 464.85 921.2 464.85 927.05 462.25 933.4 459.8 933.4 455.1 933.4 452.4 931.45 450.85 929 448.8 926 447.35 922.5 445.8 920.2 444 918.6 442.8 918.6 441 918.6 438.3 923.15 436.1 926.25 434.4 929.25 433.9 L 931.85 434.8 Q 932.5 434.65 933 434.15 933.9 433.5 933.9 432.45 M 422.8 443.35 Q 423.05 438.55 419.85 434.55 416.85 430.65 412.05 430.9 408.2 431.05 404.95 433 401.55 435.05 399.65 438.4 394.7 445.15 394.45 453.55 394.2 457.95 397.05 461.35 399.75 464.7 403.75 464.45 411.8 464.05 416.7 457.7 422.8 451.9 422.8 443.35 M 416.1 438.05 Q 418 440.75 417.75 444 417.75 450.05 413.25 454.85 410.1 459.15 404.3 459.8 402.2 459.8 400.95 457.85 399.65 455.65 399.65 452.9 399.9 447.1 403.15 441.65 406.6 435.7 411.4 435.7 414.4 435.7 416.1 438.05 M 447.95 434.8 L 449.1 434.15 Q 449.75 433.65 450 432.45 450 430.8 448.85 429.6 447.3 428.6 445.35 428.85 439.75 429.5 435.5 432.7 432.9 434.15 431.25 436.85 429.65 439.45 429.55 442.55 429.8 445.3 431.75 446.7 435.65 449.7 439.9 451.75 444.8 454.1 444.8 456.15 442.75 458.5 440.05 458.9 436.3 459.9 432.9 459.9 L 429.65 459.4 Q 428.4 459.4 427.45 459.9 426.3 460.3 426.3 461.6 426.3 464.85 431.25 464.85 437.3 464.85 443.25 462.25 449.5 459.8 449.5 455.1 449.5 452.4 447.55 450.85 445.1 448.8 442.1 447.35 438.6 445.8 436.3 444 434.7 442.8 434.7 441 434.7 438.3 439.25 436.1 442.35 434.4 445.35 433.9 L 447.95 434.8 M 509.7 412.8 Q 508.4 413.7 508 415.35 L 503.85 434.9 Q 501.65 432.6 498.05 432.35 491.05 432.35 484.85 440.35 479.15 446.85 478.75 455.9 478.5 459.25 480.45 461.85 482 464.05 484.95 464.05 489.75 463.65 493.25 460.55 498.15 456.55 501.8 450.6 501.4 452.15 501.65 453.85 501.65 463.4 506.6 463.4 509.85 463.15 512.05 461.35 514.6 459.25 514.6 457.85 514.6 456.55 513.7 456.55 512.65 456.8 512.3 457.2 510.6 458.25 508.8 458.25 506.2 458.25 506.2 452.25 506.6 444.4 508.15 436.85 510.2 427.3 512.3 420.7 513.3 418.1 513.7 415.9 513.7 412.15 511.65 412.15 L 509.7 412.8 M 497.8 436.6 Q 499.75 436.6 500.9 438.15 502.05 439.6 502.05 440.75 501.55 445 498.55 448.8 495.7 453.55 491.7 456.55 489.25 458.75 486 459 483.4 459 483.4 455.4 483.8 448.65 488.2 443.2 492.85 436.85 497.8 436.6 M 541.7 431.05 Q 540.15 429.6 538.05 429.75 531.3 429.75 525.5 437.5 519.95 444.5 519.65 453.7 519.55 458.25 522.25 461.6 525.5 464.85 529.75 464.45 536 464.45 540.9 460.15 546.2 456.05 546.2 452.8 546.2 451.5 545.45 451.25 545.05 451.25 544 452.25 537.3 459.4 530.8 459.4 528.35 459.65 526.55 457.85 525.1 456.15 525.1 453.95 525.25 452.4 526.65 451.75 533.25 448.4 538.85 443.45 542.95 440.1 543.25 434.65 L 543.25 434.4 Q 543.1 432.35 541.7 431.05 M 536.65 434.3 Q 538.2 434.3 538.2 436.1 538.2 440.9 525.5 448.15 L 525.5 448 Q 526.65 442.95 530.4 438.3 532.75 434.8 536.65 434.3 M 613.8 433.5 Q 613.4 438.4 612.1 442.45 610.45 448.5 610.3 454.1 609.9 457.85 612.25 461.1 613.8 463.15 616.4 463.4 620.95 463 623.8 459.9 628.3 455.75 631.55 449.95 L 631.7 451 631.7 451.9 Q 631.4 456.8 632.95 461.1 634.15 464.2 636.35 464.2 637.5 464.2 638.55 463.55 639.7 462.65 639.7 462 639.7 461.35 638.55 460.15 636.2 458.1 636.2 451.1 636.45 444.4 638 438.7 638.55 437.4 638.55 436.6 638.55 434 636.6 434 635.15 434 634.4 435.05 632.95 437.65 632.3 439.6 630 446.95 624.55 453.3 620.15 458.25 617.15 458.25 614.95 458.25 614.95 453.45 615.25 446.7 617.7 440.5 619.1 437.5 619.25 434.55 619.25 433.65 618.45 432.6 617.7 431.8 616.5 431.8 614.45 431.55 613.8 433.5 M 608.5 433.65 Q 608.75 432.7 607.85 431.8 607.35 430.9 606.05 430.9 605 430.9 604.1 431.45 602.4 432.45 601.25 434 598.8 436.85 596.05 440.9 591.65 447.6 587.65 454.6 L 586.1 457.2 580.9 439.85 580.8 435.2 Q 580.8 431.45 578.05 431.45 575.2 431.45 575.2 435.55 575.2 440.75 580.15 454.35 581.8 458.1 582.75 463.3 584 465.35 585.6 465.35 587 465.35 589.6 460.45 594.5 451.35 599.3 444.5 602.65 439.6 606.05 436.75 608.5 435.2 608.5 433.65 M 665.2 429.75 Q 658.35 429.75 652.65 437.5 646.85 444.5 646.85 453.7 646.45 457.95 649.4 461.6 652.5 464.85 656.8 464.45 663 464.45 667.95 460.15 673.35 455.9 673.35 452.8 673.35 451.5 672.6 451.25 672.1 451.25 671.05 452.25 664.45 459.4 657.95 459.4 655.5 459.65 653.7 457.85 652 456.15 652.25 453.95 652.25 452.4 653.8 451.75 660.55 448.4 665.85 443.45 670.15 440.25 670.4 434.65 L 670.4 434.4 Q 670.25 432.35 668.85 431.05 667.3 429.6 665.2 429.75 M 663.65 434.3 Q 665.35 434.3 665.35 436.1 665.35 440.75 652.65 448.15 L 652.65 448 Q 653.8 442.7 657.45 438.3 659.75 434.9 663.65 434.3 M 380.6 436.6 Q 378.9 434.15 376.2 434.15 372.55 434.15 370 437.1 365.85 442.05 363.5 447.35 361.7 451.1 359.35 454.45 359.1 454.45 359.1 453.95 L 359.6 450.05 Q 361.05 443.45 361.45 437.65 361.7 435.7 360.8 433.75 359.9 432.7 358.6 432.85 357.7 432.85 356.75 434.15 356 435.05 355.75 436.75 355.75 446.45 354.2 455.75 353.55 458.1 353.55 459.9 353.25 460.45 353.55 460.8 353.8 462.1 354.7 462.75 355.75 463.55 357.05 463.3 358.6 463 359.5 462 363.5 456.55 365.85 451.1 368.05 446.6 371.4 442.05 372.45 440.35 374.9 439.95 377.5 439.95 378.65 448.9 378.65 454.45 380.85 459.65 382.3 461.75 384.75 461.75 387.35 461.75 389 460.15 390.55 459.15 390.85 457.3 390.85 455.9 389.55 455.9 L 389.15 455.9 Q 387.85 456.55 386.8 456.55 385.4 456.55 384.6 454.75 383.3 449.95 383.2 445.55 382.8 440.75 380.6 436.6 M 386.4 420.05 Q 386.4 418.2 384.85 418.2 384.35 418.2 382.95 420.15 381.9 421.7 380.6 422.75 379.95 423.4 379.15 423.4 377.9 423.15 376.6 422 L 375.65 421.35 Q 374.4 420.4 373.45 419.4 372.3 418.2 371.15 417.7 369.7 417.2 368.05 417.2 364.65 417.95 362.6 420.7 360.15 422.6 359.25 426.1 359.25 427.65 360.8 427.65 361.55 427.8 362.45 427.15 L 367.25 422 Q 368.15 421.35 369.05 421.35 370.6 421.45 371.9 422.75 L 372.85 423.8 372.95 424.3 Q 373.75 425.2 375.8 426.5 377.75 427.55 379.7 427.4 382 427.4 384.1 424.3 385.8 422.6 386.4 420.05 M 340.2 436.75 Q 340.05 439.35 339.4 441.9 337.6 449.95 337.2 459.4 337.2 464.7 340.05 464.7 341.25 464.7 342.15 463.8 343.15 463 343.15 462.35 L 343.15 461.45 Q 342.55 458.6 342.55 456.3 342.4 453.7 342.9 448.25 344.2 442.05 345.75 437 346.15 435.85 346.15 434.65 346.15 433.65 345.25 433 344.35 432.2 342.9 432.2 341.35 432.45 340.95 433.65 340.2 435.05 340.2 436.75 M 350.8 414.35 Q 350.05 413.8 348.85 413.55 347.05 413.8 345.75 414.85 344.6 415.65 344.35 417.3 344.35 419.15 345.1 420.7 L 345.5 421.6 Q 345.65 422.9 346.4 422.9 L 346.4 423 Q 347.7 422.9 349 422.1 350.8 421.05 351.2 418.85 351.85 417.3 352 415.65 352 415 350.8 414.35 M 313.15 442.05 Q 314.15 440.35 316.65 439.95 319.35 439.95 320.25 448.9 320.25 454.2 322.45 459.65 323.75 461.85 326.35 461.6 328.8 461.85 330.6 460.15 332.05 459.15 332.3 457.3 332.3 455.9 331 455.9 L 330.75 455.9 Q 329.45 456.55 328.4 456.55 327 456.55 326.2 454.75 325.05 450.35 324.65 445.55 324.55 440.75 322.05 436.6 320.65 434.15 317.8 434.15 314.15 434.15 311.6 437.1 307.55 441.9 304.95 447.35 303.4 451.1 300.85 454.45 300.55 454.45 300.55 453.95 L 301.2 450.05 Q 302.65 443.45 303.05 437.65 303.3 435.7 302.4 433.75 301.5 432.6 300.2 432.85 299.3 432.85 298.35 434.15 297.35 435.45 297.35 436.75 297.35 446.85 295.65 455.75 295.25 457.95 295.25 459.9 295 460.45 295.25 460.8 295.5 462.1 296.45 462.75 297.45 463.55 298.75 463.3 300.45 463 301.1 462 305.1 456.8 307.55 451.1 309.75 446.6 313.15 442.05 M 263.4 445.4 L 264.05 435.2 Q 264.2 433.75 263.55 431.95 263.15 431.15 261.45 431.15 258.9 431.15 258.6 437.1 258.6 440.6 257.95 444.9 257.6 446.6 256.4 448.15 254.75 450.2 252.4 451.75 249.55 453.95 246.95 455 244.9 456.05 242.95 456.05 241.4 456.05 240.9 453.95 L 240.35 450.7 Q 240.6 446.95 241.5 444.5 242.55 441.55 242.55 440.9 L 244.25 437.75 Q 244.75 437.25 245 435.85 245 434.55 244.5 433.65 244.1 432.85 243.1 432.6 241.15 432.6 240.25 433.9 238.05 438.3 237.4 441.8 235.7 447.35 235.45 453.2 235.45 456.3 237 459 238.7 461.6 241.5 461.6 245 461.2 248 459.4 253.2 456.4 257.6 452.4 L 257.45 455 Q 257.05 462.65 254.2 469.25 251.35 476.85 246.95 476.85 243.35 477.15 240.1 475.6 236.75 473.9 234.65 470.9 234.65 470.25 233.9 470.25 233.1 470.25 232.7 471.3 232.2 472.35 232.2 473.25 232.2 475.3 236.75 478.45 241.5 481.65 247.1 481.4 253.45 481.4 256.15 475.85 259.8 469.5 261.2 462 262.75 454.75 263.4 445.4 M 203.2 434.8 L 204.5 434.15 Q 205.25 433.65 205.25 432.45 205.55 430.9 204.25 429.6 202.55 428.7 200.6 428.85 195.15 429.5 190.9 432.7 185.2 435.85 184.95 442.55 185.2 445.3 187.15 446.7 190.5 449.3 195.3 451.75 200.1 454.1 200.1 456.15 198.15 458.5 195.45 458.9 191.65 459.9 188.3 459.9 L 184.95 459.4 Q 183.65 459.4 182.75 459.9 181.55 460.45 181.7 461.6 181.7 464.85 186.5 464.85 192.7 464.85 198.55 462.25 204.9 459.65 204.9 455.1 204.9 452.55 202.8 450.85 200.6 448.8 197.5 447.35 194 445.8 191.65 444 190.25 443.1 190 441 190 438.3 194.65 436.1 197.5 434.4 200.75 433.9 L 203.2 434.8 M 175.75 438.7 Q 176.15 437.5 176.15 436.1 176.15 434.3 173.65 434.3 172.75 434.3 172.5 433.25 171.6 430.65 168.75 430.4 161.9 430.4 154.75 439.45 147.75 448.65 147.75 456.4 147.75 459.4 149.45 461.45 151.15 463.4 153.45 463.4 157.75 463 161 460.55 165.65 457.2 169.25 452.15 168.9 456.7 170.55 461.2 172.1 464.3 174.3 464.3 176 464.3 176.9 463.4 178.2 462.75 178.2 461.6 178.2 460.45 176.9 459.8 174.2 458.5 174.2 451.1 174.6 444.9 175.75 438.7 M 167.45 435.3 Q 170.3 435.3 170.3 439.6 170.3 445.15 164.5 451.75 158.65 458.35 155.4 458.35 153.1 458.35 153.1 455 153.1 449.95 158.25 442.7 163.55 435.3 167.45 435.3 M 130.05 434.3 Q 126.3 434.3 123.8 437.1 119.95 441.8 117.35 447.35 115.55 451.5 113.2 454.45 112.95 454.45 112.95 454.1 113.2 451.5 113.6 450.05 114.9 444.5 115.25 437.65 115.65 435.95 114.75 433.75 113.85 432.7 112.55 432.85 111.65 432.85 110.75 434.15 109.95 435.05 109.7 436.75 109.7 446.45 108.15 455.75 107.5 458.1 107.5 459.9 107.25 460.45 107.5 460.8 107.75 462.1 108.65 462.75 109.7 463.55 111 463.3 112.7 463 113.35 462 117.35 456.8 119.8 451.1 122 446.6 125.35 442.05 126.4 440.35 128.85 439.95 131.6 439.95 132.5 448.9 132.75 454.85 134.7 459.8 136.25 462 138.7 461.75 140.9 461.75 143 460.3 144.4 459.25 144.65 457.45 144.65 455.9 143.35 455.9 L 143 455.9 Q 141.95 456.55 140.65 456.55 139.1 456.55 138.6 454.75 137.4 450.35 137.05 445.55 136.9 441 134.45 436.6 133 434.3 130.05 434.3 M 125.1 417.7 Q 123.7 417.2 122 417.2 118.65 417.95 116.55 420.7 114 422.6 113.35 426.1 113.35 427.65 114.75 427.65 115.55 427.8 116.45 427.15 L 121.25 422 Q 122.15 421.35 123.05 421.35 124.6 421.45 125.9 422.75 L 126.8 423.8 127.3 424.2 Q 128.1 425.1 130.15 426.4 132.1 427.4 134.05 427.3 136.25 427.3 138.05 424.3 139.75 422.6 140.4 420.05 140.4 418.2 138.85 418.2 138.3 418.2 136.9 420.15 L 134.7 422.75 Q 133.8 423.4 133.15 423.4 131.85 423.15 130.55 422 L 129.65 421.35 Q 128.35 420.4 127.45 419.4 126.3 418.2 125.1 417.7 M 99.45 433 Q 98.55 432.2 97.15 432.2 95.6 432.2 95.2 433.5 94.3 434.9 94.3 436.75 L 93.5 441.9 Q 91.6 450.7 91.2 459.4 91.2 464.7 94.05 464.7 95.05 464.7 96.25 463.8 97.15 463 97.15 462.35 L 97.15 461.45 Q 96.5 458.6 96.5 456.3 96.5 452.8 97.15 448.25 98.45 441.9 100 437 100.4 435.85 100.4 434.55 100.4 433.65 99.45 433 M 104.9 414.35 L 102.95 413.55 Q 101.05 413.8 99.75 414.85 98.55 415.65 98.3 417.3 98.55 419.15 99.1 420.7 L 99.45 421.6 Q 99.85 422.9 100.4 422.9 L 100.4 423 Q 101.95 422.75 102.95 422.1 104.8 421.05 105.15 418.85 105.8 417.3 105.95 415.65 105.95 415 104.9 414.35 M 83.15 427.05 Q 83.8 425.1 84.05 422.5 84.2 421.35 83.55 419.65 83.05 418.5 82.1 418.5 81.2 418.5 79.65 419 78.65 419.75 78.25 420.4 77.85 422 78 423.4 77.6 430.25 76.15 437.9 74.35 448.9 72.55 455.4 66.85 448.5 61.9 440.5 57.15 433.75 54.4 424.95 L 53.75 422.35 Q 53.25 421.6 52.75 421.45 52.2 421.05 51.3 421.05 50.25 421.05 49.5 421.45 48.7 421.85 48.35 422.6 47.95 423.4 47.95 424.2 L 47.95 425.85 Q 47.55 432.35 46 438.8 44.45 447.85 42.75 453.85 42 456.8 41.45 460.95 L 41.85 463.55 Q 42.35 465.6 44.2 465.35 45.35 465.2 46 464.3 46.75 463.55 47.15 462.5 47.55 460.8 47.4 459.5 L 47.4 456.4 48.2 451.5 Q 49.25 442.95 51.8 432.35 58.05 444.1 67.35 456.4 68.55 457.6 69.15 459.25 69.55 460.8 70.6 461.85 L 72.15 463.55 Q 72.65 463.8 73.7 463.8 75.5 463.8 76.55 462.9 77.85 462.1 77.6 460.45 L 77.6 456.4 Q 77.6 455.1 79.4 444.65 81.75 432.2 83.15 427.05 M 32.25 443.85 Q 32.55 442.15 32.15 440.75 32 440.35 31.35 440.35 30.35 440.35 29.4 441 28.15 442.95 27.2 446.2 26.45 449.05 26.05 452.25 24.9 459.8 24.75 465.2 L 24.5 466.9 Q 23.85 469.5 23.7 472.1 24 473.25 24.75 474.3 25.65 475.6 26.3 475.6 27.1 475.6 27.75 474.95 28.75 473.4 29.05 470.9 29.7 468.6 29.8 466.15 L 29.8 460.8 Q 30.05 458.1 30.6 455.4 L 31.5 450.2 Q 32.25 447.1 32.25 443.85 M 33.7 425.45 L 31.75 425.1 Q 30.6 425.1 30.05 425.35 L 28.75 426.65 Q 28 427.4 27.85 427.95 27.6 430 28.4 431.7 28.75 432.45 29.7 432.45 31.1 432.45 32.55 431.45 33.8 430.65 33.95 429.1 L 33.95 427.95 34.1 427.55 34.2 426.9 Q 34.2 425.6 33.7 425.45 Z"/>
</g>
<g id="l1">
<path fill="#0065A1" stroke="none" d="M 1024.05 405.15 L 1024.05 390.9 0.05 390.9 0.05 405.15 1024.05 405.15 M 1024.05 386.9 L 1024.05 380.8 0.05 380.8 0.05 386.9 1024.05 386.9 Z"/>
</g>
<g id="l0">
<path fill="#90292A" stroke="none" d="M 896.1 236.45 L 896.1 216.25 856.85 216.25 856.85 236.55 848.45 236.55 848.45 256.9 856.85 256.9 856.85 322.15 Q 856.45 333.8 857.9 346.5 859.05 351.8 863.35 355.7 867.75 359.7 873.45 360.85 883 362.3 892.45 362.05 L 908.4 362.05 908.4 341.3 Q 898.8 341.3 897.4 339.75 896.1 338.45 896.1 325.65 L 896.1 256.9 906.7 256.9 906.7 236.45 896.1 236.45 M 995.4 236.3 Q 987.5 230.75 977.95 231.15 971.85 231 965.35 233.45 959.4 235.8 954.5 240.45 L 954.5 205.1 915.25 205.1 915.25 361.75 954.5 361.75 954.5 269.95 Q 954.1 263.35 955.65 256.9 956.55 254.95 958.5 254.15 960.6 253.25 962.65 254.05 964.6 254.8 965.5 256.9 967.05 264 966.65 271.4 L 966.65 362.05 1005.75 362.05 1005.75 273.35 Q 1006.15 260.8 1004.2 248.35 1002 240.7 995.4 236.3 M 265.85 240.7 Q 262.25 235.8 256.8 233.7 250.05 231 242.8 231.15 236.45 231 229.85 233.85 223.9 236.7 219.1 242.25 L 219.1 205.1 180 205.1 180 361.9 216.55 361.9 219.1 352.2 Q 223.55 358 229.85 361.5 235.7 364.5 242.8 364.5 252 364.75 259.4 359.3 266.15 354.8 268.35 347.25 270.55 336.65 270.15 326.3 L 270.15 268.3 Q 270.55 260 269.6 249.65 268.6 244.6 265.85 240.7 M 219.1 269.85 Q 218.75 263.25 220.15 256.35 221.7 253.4 224.8 253.8 228.45 253.55 229.75 256.9 231.4 263.1 231.05 269.85 L 231.05 323.95 Q 231.4 331.35 229.85 338.45 229.35 339.9 228.05 340.8 226.75 341.7 225.1 341.45 221.85 341.85 220.3 338.6 218.75 332 219.1 325.25 L 219.1 269.85 M 125.65 205.1 L 125.65 362.05 165.9 362.05 165.9 205.1 125.65 205.1 M 61.55 333.8 L 75.9 333.8 78.1 362.05 119.8 362.05 96.5 205.1 37.45 205.1 16.75 362.05 58.95 362.05 61.55 333.8 M 74.85 306.1 L 60.9 306.1 Q 62.45 285.1 68.65 240.2 71.75 279.7 74.85 306.1 M 636.85 282.9 Q 636.85 264.25 632.6 253.9 627.8 242.8 617.55 237.35 604.85 230.5 590.35 231.15 577.95 230.75 566.55 236.3 556.2 240.95 551.4 251.2 546.85 261.05 546.85 277.75 L 546.85 315.15 Q 546.45 325.75 548.95 337.05 551.15 344.95 556.2 350.75 562.25 357.65 571.05 360.6 581.45 364.5 592.95 364.25 603.7 364.6 614.2 360.6 622.6 357.1 628.2 349.75 633.1 343.9 635.3 336 637 326.7 636.75 317.75 L 636.75 308.15 599.7 308.15 599.7 325.4 Q 600.1 331.85 598.15 338.35 597.35 340 595.7 340.9 594 341.85 592.2 341.55 588.95 341.95 587.4 339 585.7 333.65 586.1 327.85 L 586.1 300 636.75 300 636.85 282.9 M 597.6 279.05 L 586.1 279.15 586.1 269.7 Q 585.7 263.25 587.15 256.35 588.15 253.8 592.2 253.8 595.55 253.55 596.45 256.65 597.9 262.35 597.6 269.6 L 597.6 279.05 M 431.1 311.25 L 431.1 284.2 379.7 284.2 379.7 311.25 431.1 311.25 M 355.45 238 Q 345.35 231 325.55 231 309 231 298.65 237.2 289.3 242.15 284.75 251.6 280.9 262.85 281.4 274.5 L 281.4 283.2 318.05 283.2 318.2 269.7 Q 317.8 262.6 319.1 256.35 320 253.8 324.15 253.8 327.65 253.55 329.05 256.75 330.6 259.85 330.6 269.95 331 275.15 329.2 280.6 327.75 283.3 308.45 290.8 290.2 297.95 285.95 303 281.4 308.05 281.4 322.65 L 281.4 333.3 Q 281.4 352.7 289.95 358.55 298.35 364.25 308.75 364.25 316 364.6 322.35 360.85 328.55 357.1 331.5 350.5 L 331.5 361.9 369.6 361.9 369.6 297.4 Q 369.6 265.2 367.5 255.35 365.05 244.2 355.45 238 M 330.5 327.35 Q 330.85 333.4 329.3 339.25 327.9 341.95 324.55 341.55 321.15 341.95 319.35 338.7 317.65 332.5 318.05 325.75 317.9 318.9 319.6 312.3 321.15 307.8 330.5 300.8 L 330.5 327.35 M 483.65 205.1 L 442.75 205.1 442.75 362.05 483.55 362.05 483.55 294.7 500.1 362.05 542.35 362.05 516.7 275.95 540 205.1 501.8 205.1 483.65 266.1 483.65 205.1 M 740.05 271.9 Q 740.3 259.5 738 247.7 736.15 240.45 729.85 235.65 722.05 230.6 713.25 231.15 705.6 230.85 699 234.6 692.65 238.5 688.65 245.25 L 689.45 233.45 649.55 233.45 649.55 362.05 688.8 362.05 688.8 275 Q 688.4 265.45 689.8 257.15 691.1 253.55 695 253.9 699 253.9 699.9 256.75 701.1 264.8 700.7 272.95 L 700.7 362.05 740.05 362.05 740.05 271.9 M 795.5 231.15 Q 782.65 230.85 771.65 236.3 761.7 240.95 756.75 251.2 752.25 260.65 752.25 277.75 L 752.25 315.15 Q 751.85 326.3 754.15 337.05 756.5 345.05 761.55 350.75 767.65 357.65 776.3 360.6 786.65 364.5 798.2 364.25 808.95 364.6 819.55 360.6 828.1 357 833.55 349.75 838.35 343.75 840.55 336 842.35 326.8 841.95 317.75 L 841.95 308.15 804.95 308.15 804.95 325.4 Q 805.3 331.85 803.4 338.35 801.55 342.2 797.4 341.55 794.2 341.95 792.65 339 790.95 333.65 791.35 327.85 L 791.35 300 841.95 300 842.1 282.9 Q 841.95 264 837.7 253.9 833.15 243.15 822.65 237.35 809.85 230.5 795.5 231.15 M 802.75 279.05 L 791.35 279.15 791.35 269.7 Q 790.95 263.6 792.25 256.35 793.4 253.8 797.3 253.8 800.65 253.55 801.7 256.65 803.1 263.35 802.75 269.6 L 802.75 279.05 M 704.7 90.25 Q 704.7 83.25 695.65 83.25 693.95 83.25 692.8 82.25 691.5 81.2 691.1 79.65 686.45 68.75 676.85 68.75 650.6 69 624.15 103.05 597.6 137.15 597.6 167.15 596.95 177.8 603.7 186.05 609.4 193.45 618.75 193.45 631.8 193.45 647.2 182.85 665.85 169.25 678.55 150.85 678.55 173.25 684.25 185.05 689.95 197.05 698.6 197.05 704.05 196.8 708.05 193.6 712.85 190.1 712.85 186.45 712.75 184.25 711.3 182.3 710 180.5 707.8 179.7 697.45 174.3 697.45 146.95 697.45 133.65 703.55 99.85 704.6 95.15 704.7 90.25 M 682.3 103.35 Q 682.3 124.55 660.3 149.45 638.3 174.55 625.85 174.55 617.15 174.55 617.15 161.6 617.15 143.2 637 115.25 656.8 87.3 671.7 87.3 682.3 87.3 682.3 103.35 M 588.05 74.7 Q 580 74.7 571.05 75.75 563.55 76.8 549.05 77.95 L 555.9 54.25 Q 558.4 46.6 559.95 38.05 559.95 34.6 557.35 31.75 554.35 28.1 549.85 28.35 541.8 28.35 539.2 40.3 536.65 52.05 533 64.5 529.5 76.8 527.7 79 526 81.05 523.4 81.05 L 498.55 81.05 Q 496.1 81.3 494.7 83.25 494.4365234375 83.5712890625 494.2 83.9 492.692578125 80.8349609375 489.9 78.2 483.15 72 473.85 72.25 468.65 72.5 463.75 74.2 458.05 76.4 452.05 80.8 444.05 87.15 437.95 94.65 430.85 103.05 423.85 113.8 415.45 127.65 409.6 141.55 408.2 145.15 407 147.1 L 407.15 139.85 Q 407.55 127.05 409.45 114.2 410.25 110.3 410.65 106.2 411.65 99.85 413.35 94 415.3 88.05 415.7 81.6 415.7 78.35 413.5 75.9 410.9 72.9 407.25 73.3 402.85 73.3 399.25 76.25 396 78.75 394.45 82.6 392.65 89.2 392.5 94.65 L 391.35 104.75 Q 388.9 122.35 388.75 139.2 L 388.1 162.5 Q 388.35 181.9 390.7 190.35 393.15 198.65 398.85 198.65 403.75 199 407.65 195.8 410.9 193.05 412.05 184.15 416.6 149.55 437.3 121.35 458.4 92.85 469.95 92.85 475.25 93.25 478.5 97.1 481.85 101.25 487.15 101.25 491.45 101.65 494.05 98.4 495.2185546875 96.7755859375 495.7 94.95 499.1546875 99.2 507.9 99.2 L 519.65 98.15 Q 522.25 98.15 522.25 99.85 522.5 104.9 516.7 129.1 511.1 153.05 511.1 165.1 511.1 197.35 538.45 197.35 555.15 197.35 570.55 184.4 586.1 171.55 586.1 163.3 586.1 158.1 581.15 158.1 577.7 158.1 570.8 164.2 553.6 178.7 543.9 178.7 537.65 179.1 533.9 174.55 530.65 170.25 530.65 157.95 530.65 149.7 536.35 124.45 541.95 98.95 543.25 97.5 544.25 96.45 558.15 94.55 570.7 92.95 588.3 91.7 601.1 90.9 601.1 81.85 601.5 78.45 598.9 76.25 596.6 74.7 588.05 74.7 M 358.05 85.35 L 358.05 84.45 Q 357.8 76.8 352.25 71.5 346.55 66.15 338.9 66.45 312.85 66.45 291.1 95.55 269.35 124.95 269.35 157.05 269.25 176.25 279.2 187.1 289.2 197.85 307.3 197.85 329.05 197.85 349.4 181.55 369.85 165.2 369.85 153.7 369.85 148 366.1 148.15 364.15 148.15 360.5 151.75 335.15 178.7 310.8 178.7 300.3 178.7 294.75 173.1 288.8 166.4 289.45 157.95 289.45 153.05 295.25 149.95 320.1 137.4 340.95 118.6 358.05 102.7 358.05 85.35 M 333.05 83.5 Q 339.15 83.5 339.15 90.25 339.15 107.6 291.25 136.1 296.05 114.85 309.65 98.8 322.6 83.5 333.05 83.5 M 255.75 0.65 Q 250.05 0.65 244.65 10.1 239.2 19.95 230.15 75.5 221.05 132.45 221.05 169.35 220.7 181.65 223.4 193.45 225.75 200.95 231.7 200.95 236.75 200.7 239.85 196.8 243.85 192.8 243.85 187.1 L 243.35 181.9 Q 241 163.55 241 144.75 241.4 124.7 244.35 103.35 247.6 77.8 253.95 55.05 263.8 20.45 263.8 11 263.8 0.65 255.75 0.65 M 206.8 189.7 Q 206.8 186.7 205.4 184.75 201.75 180.25 198.25 177.15 189.2 168.2 178.2 146.7 165.9 121.35 157.35 94.55 152.2 79 148.4 69.8 144 58.9 141.15 47.9 L 139.6 43.1 Q 140.8 39.5 140.65 35.75 140.65 31.2 139.6 30.2 134.95 25.75 128.5 26.15 125.1 26.15 118.5 34.45 111.8 42.85 87.45 89.2 69.95 121.7 49.6 151.35 L 33.05 176.1 Q 29.8 180.35 29.15 185.8 29.4 190.45 33.45 193.05 36.4 196.3 40.8 196.7 45.75 196.3 48.6 192 51.8 187.75 65.7 163.15 74.1 148.4 76.45 148.4 77.35 148.4 77.85 148.8 80.3 151.35 83.7 151.65 88.85 151.1 94.4 149.05 110.35 144.5 127.2 141.25 139.5 138.8 150.5 138.05 152.2 138.05 160.45 156.05 181.05 201.6 195.55 201.6 200.2 201.6 203.45 198.1 207.1 194.5 206.8 189.7 M 124.2 55.8 Q 126.15 60.2 134.85 87 142.45 110.85 146.5 120.15 141.7 120.55 110.75 126.75 104.4 128.2 97.15 128.85 87.05 130 84.6 131.8 L 105.05 92.95 Q 117.2 70.45 124.2 55.8 Z"/>
</g>
</defs>
<g transform="matrix(1,0,0,1,0,0)">
<use xlink:href="#l2"/>
</g>
<g transform="matrix(1,0,0,1,0,0)">
<use xlink:href="#l1"/>
</g>
<g transform="matrix(1,0,0,1,0,0)">
<use xlink:href="#l0"/>
</g>
</svg>
