<svg xmlns="http://www.w3.org/2000/svg" xmlns:xlink="http://www.w3.org/1999/xlink" width="100%" height="100%" viewBox="0 0 1024 1024">
<!-- Vectorization by Rodrigo Polo https://github.com/rodrigopolo/logotipos-politicos -->
<defs>
<g id="l0">
<path fill="#0099CC" stroke="none" d="M 774.45 181.8 L 774.45 0 329.15 0 330.25 143.05 221.6 144.15 221.6 147.35 Q 221.6 151.65 223.75 153.8 228.05 155.95 237.75 158.1 239.9 160.25 239.9 165.65 243.1 167.8 245.25 164.55 248.5 159.2 256.05 161.35 261.4 161.35 261.4 166.7 261.4 180.7 262.5 180.7 271.1 183.95 272.15 185 274.3 188.25 282.9 203.3 L 290.45 204.35 Q 294.75 204.35 295.85 206.5 298 214.05 300.15 215.15 308.75 223.75 308.75 224.8 313.05 232.35 314.1 233.4 L 328.1 239.85 Q 331.3 243.1 331.3 236.65 331.3 233.4 333.45 232.35 335.6 231.25 336.7 233.4 337.8 236.65 336.7 240.95 337.8 243.1 343.15 246.3 345.3 248.45 348.55 252.75 350.7 253.85 357.15 252.75 359.3 253.85 361.45 258.15 364.65 259.25 372.2 259.25 374.35 261.4 378.65 266.75 394.8 272.15 402.3 287.2 408.75 299.05 409.85 307.65 415.2 313 415.2 314.1 415.2 317.3 409.85 323.75 409.85 330.2 416.3 328.05 423.8 328.05 420.6 333.45 416.3 339.9 419.5 339.9 L 434.6 338.8 Q 437.8 338.8 442.1 343.15 445.35 344.2 451.8 343.15 453.95 345.3 450.7 350.65 450.7 354.95 456.1 354.95 470.1 351.75 471.15 354.95 L 471.15 359.25 Q 471.15 361.4 475.45 364.65 480.85 368.95 472.25 374.3 L 464.7 380.75 Q 460.4 385.1 464.7 389.4 466.85 393.7 462.55 398 457.15 403.35 458.25 409.8 458.25 413.05 459.3 413.05 L 462.55 414.1 Q 463.6 415.2 460.4 420.55 457.15 422.7 462.55 425.95 466.85 427.05 460.4 429.2 455 432.4 457.15 434.55 458.25 435.65 464.7 433.5 464.7 434.55 462.55 437.8 460.4 439.95 459.3 439.95 458.25 441 148.45 442.1 L 33.4 645.4 69.95 692.7 61.35 706.7 Q 59.2 708.85 52.75 708.85 47.35 711 47.35 716.35 L 49.5 737.9 43.05 747.55 Q 38.75 749.7 40.9 757.25 43.05 760.45 44.15 773.4 44.15 776.6 48.45 780.9 49.5 782 48.45 795.95 L 40.9 803.5 39.85 816.4 28 827.15 38.75 836.85 71 859.45 74.25 860.5 76.4 863.75 95.75 882 137.7 914.3 Q 148.45 917.5 158.15 926.1 L 191.5 947.65 195.8 947.65 197.95 950.85 208.7 954.1 243.1 970.2 265.7 976.65 300.15 980.95 304.45 980.95 308.75 982.05 Q 366.8 983.15 370.05 982.05 L 381.9 979.9 Q 382.95 979.9 412 979.9 442.1 983.15 460.4 991.75 L 535.7 1024 543.2 1024 Q 546.45 1021.85 544.3 1019.7 544.3 1015.4 541.05 1015.4 538.9 1015.4 538.9 1013.25 541.05 1010 542.15 1007.85 541.05 1006.8 541.05 1004.65 540 1001.4 543.2 1001.4 544.3 1001.4 545.35 998.2 545.35 991.75 548.6 991.75 L 550.75 989.6 557.2 986.35 559.35 982.05 Q 559.35 977.75 563.65 975.6 L 566.9 972.35 574.4 970.2 576.55 967 583 963.75 585.15 959.45 589.45 957.3 Q 590.55 957.3 592.7 951.95 592.7 949.8 598.05 949.8 602.4 949.8 603.45 947.65 603.45 945.5 608.85 945.5 614.2 945.5 615.3 946.55 L 621.75 951.95 627.1 953 Q 631.4 953 631.4 951.95 629.25 946.55 630.35 943.35 L 635.7 931.5 643.25 920.75 651.85 912.15 672.3 908.9 675.5 906.75 678.75 905.7 684.1 905.7 684.1 900.3 676.6 892.75 Q 677.65 890.6 677.65 888.45 677.65 883.1 673.35 883.1 673.35 880.95 668 883.1 L 665.85 883.1 666.9 877.7 669.05 873.4 Q 674.45 873.4 673.35 872.35 L 669.05 866.95 671.2 856.2 678.75 857.3 679.8 862.65 680.9 865.9 Q 684.1 865.9 684.1 864.8 684.1 861.6 685.2 860.5 L 689.5 857.3 695.95 854.05 704.55 858.35 708.85 856.2 713.15 849.75 Q 713.15 846.5 716.4 849.75 716.4 854.05 717.45 854.05 L 718.55 851.9 723.9 856.2 725 852.95 725 843.3 736.85 837.9 735.75 834.7 Q 735.75 833.6 740.05 833.6 L 741.15 829.3 Q 741.15 827.15 744.35 825 747.6 825 748.65 821.8 L 750.8 816.4 756.2 815.35 769.1 818.55 773.4 816.4 774.45 808.85 773.4 806.7 Q 774.45 804.55 774.45 803.5 L 772.3 792.75 774.45 792.75 777.7 783.05 770.15 778.75 769.1 766.9 756.2 752.95 755.1 740.05 Q 759.4 735.75 762.65 735.75 765.85 735.75 765.85 733.6 L 768 727.15 769.1 724.95 Q 770.15 724.95 770.15 720.65 L 771.25 716.35 Q 773.4 714.2 769.1 714.2 L 765.85 711 769.1 704.55 768 702.4 770.15 701.3 772.3 697 773.4 693.8 816.4 677.65 847.6 650.75 887.4 626 905.7 607.75 915.4 603.45 Q 915.4 600.2 917.55 599.15 L 920.75 598.05 964.85 559.35 Q 972.4 553.95 973.45 549.65 L 974.55 544.25 Q 974.55 542.1 976.7 541.05 977.75 539.95 978.85 542.1 L 984.2 542.1 Q 986.35 542.1 983.15 538.9 983.15 535.65 985.3 537.8 L 988.5 539.95 Q 990.65 541.05 992.8 537.8 L 992.8 532.45 Q 990.65 530.3 991.75 530.3 L 996.05 529.2 996.05 528.15 988.5 523.85 974.55 512 954.1 500.15 Q 941.2 493.7 934.75 487.25 922.9 475.45 917.55 472.2 911.1 467.9 904.6 467.9 901.4 467.9 901.4 468.95 902.45 470.05 905.7 475.45 L 912.15 478.65 918.6 485.1 Q 919.7 486.2 919.7 489.4 L 926.15 491.55 928.3 492.65 929.35 494.8 932.6 495.85 Q 934.75 498 932.6 498 L 933.65 500.15 Q 934.75 501.25 933.65 501.25 L 929.35 500.15 921.85 496.95 919.7 498 917.55 495.85 Q 917.55 494.8 916.45 495.85 L 916.45 503.4 918.6 505.55 916.45 512 912.15 517.4 Q 911.1 521.7 910 522.75 910 523.85 906.75 523.85 905.7 524.9 905.7 527.05 L 906.75 531.35 907.85 532.45 901.4 534.6 897.1 534.6 Q 894.95 532.45 897.1 530.3 L 900.3 528.15 901.4 523.85 897.1 519.55 877.75 507.7 875.6 505.55 869.15 507.7 Q 868.05 507.7 869.15 505.55 L 871.3 501.25 851.9 491.55 849.75 492.65 844.4 493.7 Q 842.25 495.85 840.1 493.7 L 833.65 486.2 830.4 486.2 Q 825.05 489.4 820.75 487.25 L 813.2 484.05 Q 812.1 482.95 809.95 484.05 L 805.65 485.1 804.6 480.8 800.3 481.9 Q 799.2 484.05 798.15 482.95 L 798.15 479.75 Q 796 479.75 794.9 481.9 L 792.75 481.9 Q 791.7 482.95 790.6 482.95 L 789.55 481.9 785.25 480.8 Q 783.1 481.9 783.1 484.05 783.1 485.1 779.85 482.95 L 771.25 482.95 Q 768 481.9 766.95 481.9 L 757.25 486.2 756.2 484.05 774.45 181.8 Z"/>
</g>
</defs>
<g transform="matrix(1,0,0,1,0,0)">
<use xlink:href="#l0"/>
</g>
</svg>
