<svg xmlns="http://www.w3.org/2000/svg" xmlns:xlink="http://www.w3.org/1999/xlink" width="100%" height="100%" viewBox="0 0 1920 1080">
<!-- Vectorization by Rodrigo Polo https://github.com/rodrigopolo/logotipos-politicos -->
<defs>
<g id="l0">
<path fill="#248DBF" stroke="none" d="M 366.6 778.5 L 366.6 346.4 257.65 418.75 257.65 850.85 366.6 778.5 M 595.35 227.8 L 460.9 320.25 460.9 851.05 595.35 758.7 595.35 227.8 M 1211.55 648 Q 1207.05 644.05 1199.65 644.05 1192.25 644.05 1187.75 648 1183.15 651.75 1183.15 658.1 1183.15 664.5 1187.75 668.45 1192.25 672.2 1199.65 672.2 1207.15 672.2 1211.75 668.45 1216.25 664.4 1216.15 658.1 1216.15 651.75 1211.55 648 M 1207.45 658.2 Q 1207.45 661.6 1205.4 663.65 1203.25 665.6 1199.75 665.6 1196.2 665.6 1194.05 663.65 1191.9 661.6 1191.9 658.2 1191.9 654.75 1194.05 652.75 1196.2 650.6 1199.75 650.6 1203.25 650.6 1205.4 652.7 1207.45 654.75 1207.45 658.2 M 1163.1 647.35 Q 1159.9 644.8 1154.4 644.8 L 1141.25 644.8 1141.25 671.6 1148.75 671.6 1148.75 663.25 1153.55 663.25 1158.9 671.6 1167.9 671.6 1161.3 661.7 Q 1166.4 659.35 1166.4 654 1166.4 649.75 1163.1 647.35 M 1155.4 650.45 Q 1157.3 650.45 1158.25 651.45 1159.25 652.4 1159.25 654.1 1159.25 655.75 1158.25 656.8 1157.3 657.65 1155.4 657.85 L 1148.75 657.85 1148.75 650.45 1155.4 650.45 M 1280.2 657.75 L 1280.2 664.95 Q 1277.75 665.7 1275.3 665.7 1271.1 665.7 1268.5 663.75 1265.95 661.6 1265.95 658.1 1265.95 654.65 1268.55 652.7 1271.1 650.6 1275.3 650.6 1279.65 650.6 1283.75 652.7 L 1287.05 647.15 Q 1281.4 644.05 1275.15 644.05 1267.25 644.05 1262.4 648 1257.6 651.85 1257.6 658.1 1257.6 664.5 1262.3 668.45 1266.9 672.2 1274.55 672.2 1278.4 672.2 1282.25 671.05 1285.45 670 1287.6 668.6 L 1287.6 657.75 1280.2 657.75 M 996.8 671.6 L 1005.8 671.6 1007.3 667.6 1018.15 667.6 1019.55 671.6 1028.65 671.6 1017.6 644.8 1007.95 644.8 996.8 671.6 M 1012.75 652.6 L 1016.2 662.35 1009.15 662.35 1012.75 652.6 M 1123 658 Q 1123 652.1 1118.5 648.45 1114.05 644.7 1106.75 644.8 L 1093.65 644.8 1093.65 671.6 1106.3 671.6 Q 1113.8 671.6 1118.4 667.85 1123 664 1123 658 M 1106.55 651.2 Q 1110.15 651.2 1112.3 653.05 1114.45 654.95 1114.45 658 1114.45 661.2 1112.2 663.25 1110.05 665.15 1106.55 665.25 L 1102 665.25 1102 651.2 1106.55 651.2 M 1053.3 655.5 L 1067 671.6 1073.65 671.6 1073.65 644.8 1067 644.8 1067 660.35 1053.3 644.8 1046.1 644.8 1046.1 671.6 1053.3 671.6 1053.3 655.5 M 844.05 644.8 L 832.9 671.6 841.9 671.6 843.4 667.6 854.3 667.6 855.7 671.6 864.8 671.6 853.75 644.8 844.05 644.8 M 845.3 662.35 L 848.85 652.6 852.3 662.35 845.3 662.35 M 963.3 644.8 L 963.3 650.5 972.4 650.5 972.4 662.7 Q 972.5 666.2 969.15 666.2 965.95 666.2 963.25 663.55 L 960.05 667.85 Q 964.05 672.1 967.8 672.2 972.9 672.25 976.35 669.75 979.55 667.1 979.55 662.9 L 979.55 644.8 963.3 644.8 M 927.9 665.45 L 927.9 661.2 937 661.2 938.5 661.2 941.85 661.2 941.85 655.3 927.9 655.3 927.9 651 937 651 938.5 651 943.65 651 943.65 644.8 920.4 644.8 920.4 671.7 943.65 671.7 943.65 665.45 938.5 665.45 937 665.45 927.9 665.45 M 902.75 665.45 L 896.95 665.45 889.8 665.45 889.8 644.8 882.3 644.8 882.3 671.6 896.95 671.6 902.75 671.6 902.75 665.45 M 722.65 658 Q 722.65 652.1 718.15 648.45 713.75 644.7 706.45 644.8 L 693.3 644.8 693.3 671.6 706 671.6 Q 713.5 671.6 718.05 667.85 722.65 664 722.65 658 M 714.15 658 Q 714.15 661.2 711.9 663.25 709.75 665.15 706.25 665.25 L 701.65 665.25 701.65 651.2 706.25 651.2 Q 709.8 651.2 712 653.05 714.15 654.95 714.15 658 M 787.15 664.7 Q 785 664.7 783.7 665.7 782.3 666.75 782.3 668.5 782.3 670.1 783.6 671.25 785 672.2 787.15 672.2 789.3 672.2 790.55 671.25 791.85 670.1 791.85 668.5 791.85 666.75 790.55 665.7 789.25 664.7 787.15 664.7 M 765.4 654 Q 765.4 649.75 762.15 647.35 758.95 644.8 753.4 644.8 L 740.3 644.8 740.3 671.6 747.8 671.6 747.8 663.25 752.55 663.25 757.9 671.6 766.9 671.6 760.35 661.7 Q 765.4 659.35 765.4 654 M 757.25 651.45 Q 758.3 652.4 758.3 654.1 758.3 655.75 757.25 656.8 756.3 657.65 754.45 657.85 L 747.8 657.85 747.8 650.45 754.45 650.45 Q 756.3 650.45 757.25 651.45 M 1653.7 644.8 L 1653.7 671.6 1660.9 671.6 1660.9 644.8 1653.7 644.8 M 1495.05 644.8 L 1483.9 671.6 1492.9 671.6 1494.4 667.6 1505.3 667.6 1506.7 671.6 1515.8 671.6 1504.75 644.8 1495.05 644.8 M 1499.85 652.6 L 1503.3 662.35 1496.3 662.35 1499.85 652.6 M 1610.4 644.8 L 1610.4 671.7 1633.65 671.7 1633.65 665.45 1628.5 665.45 1627 665.45 1617.9 665.45 1617.9 661.2 1627 661.2 1628.5 661.2 1631.85 661.2 1631.85 655.3 1617.9 655.3 1617.9 651 1627 651 1628.5 651 1633.65 651 1633.65 644.8 1610.4 644.8 M 1567.45 651 L 1576 651 1576 671.6 1584.3 671.6 1584.3 651 1592.75 651 1592.75 643.5 1567.45 643.5 1567.45 651 M 1544.95 651 L 1553.4 651 1553.4 643.5 1528.05 643.5 1528.05 651 1536.6 651 1536.6 671.6 1544.95 671.6 1544.95 651 M 1341.4 667.6 L 1352.3 667.6 1353.7 671.6 1362.8 671.6 1351.75 644.8 1342.05 644.8 1330.9 671.6 1339.9 671.6 1341.4 667.6 M 1343.3 662.35 L 1346.85 652.6 1350.3 662.35 1343.3 662.35 M 1313.4 644.8 L 1306.25 644.8 1306.25 671.6 1313.4 671.6 1313.4 644.8 M 1441.35 644.8 L 1433.5 644.8 1433.5 671.6 1439.85 671.6 1439.85 656.45 1447.35 667.7 1452.4 667.7 1459.9 656.45 1459.9 671.6 1466.3 671.6 1466.3 644.8 1458.4 644.8 1449.9 659.25 1441.35 644.8 M 1413.25 644.8 L 1405.35 644.8 1396.8 659.25 1388.3 644.8 1380.4 644.8 1380.4 671.6 1386.8 671.6 1386.8 656.45 1394.3 667.7 1399.35 667.7 1406.85 656.45 1406.85 671.6 1413.25 671.6 1413.25 644.8 Z"/>
<path fill="#00345F" stroke="none" d="M 1004.75 503.15 L 1004.75 529 1035.9 529 1035.9 610.1 1063.45 610.1 1063.45 529 1094.65 529 1094.65 503.15 1004.75 503.15 M 1190.5 527.15 L 1190.5 503.15 1105.9 503.15 1105.9 610.1 1190.5 610.1 1190.5 586.1 1135.75 586.1 1135.75 568.85 1183.8 568.85 1183.8 545.35 1135.75 545.35 1135.75 527.15 1190.5 527.15 M 898 610.1 L 926.95 610.1 933.6 591.95 976.9 591.95 983.5 610.1 1013.85 610.1 972.15 503.15 939.7 503.15 898 610.1 M 968.95 570.25 L 941.5 570.25 955.25 532.4 968.95 570.25 M 715.15 505.75 Q 705.05 509.25 697.25 517 680.95 533.45 680.95 556.6 680.95 579.95 696.8 596.15 704.5 604.1 714.6 607.75 723.9 611.15 736.15 611.15 762.15 611.15 779 597 L 779 556.1 754.25 556.1 754.25 580.2 Q 750.05 583.1 746.1 584.25 742.75 585.2 738.05 585.1 726.05 585 718.25 576.75 710.55 568.5 710.55 556.6 710.55 544.75 718.05 536.45 725.75 528.2 736.75 528.2 750.05 528.2 763.45 539.45 L 781.75 518.35 Q 772.9 509.9 761.2 506.05 750.5 502.6 736.35 502.6 724.25 502.6 715.15 505.75 M 830.4 579.25 Q 825.3 573.35 825.3 563.7 L 825.3 503.15 794.55 503.15 794.55 564.35 Q 794.55 586.1 807.9 599.35 821.3 612.65 843.25 612.65 865.45 612.65 878.85 599.35 892.45 586.1 892.45 564.35 L 892.45 503.15 861.8 503.15 861.8 563.9 Q 861.8 573.55 856.8 579.25 851.95 585.1 843.8 585.1 835.45 585.1 830.4 579.25 M 1296.25 610.1 L 1323.6 610.1 1323.6 503.15 1292 503.15 1265.95 561.95 1238.4 503.15 1206.9 503.15 1206.9 610.1 1234.25 610.1 1234.25 545.6 1256.95 598.6 1275.25 598.6 1296.25 545.5 1296.25 610.1 M 1369.55 591.95 L 1412.85 591.95 1419.4 610.1 1449.8 610.1 1408.05 503.15 1375.65 503.15 1333.9 610.1 1362.9 610.1 1369.55 591.95 M 1404.9 570.25 L 1377.4 570.25 1391.2 532.4 1404.9 570.25 M 1572.6 591.95 L 1615.9 591.95 1622.5 610.1 1652.85 610.1 1611.15 503.15 1578.7 503.15 1537 610.1 1565.95 610.1 1572.6 591.95 M 1607.95 570.25 L 1580.5 570.25 1594.25 532.4 1607.95 570.25 M 1490.3 503.15 L 1460.5 503.15 1460.5 610.1 1533.25 610.1 1533.25 584.25 1490.3 584.25 1490.3 503.15 Z"/>
<path fill="#00355A" stroke="none" d="M 749.75 403.85 Q 756.7 405.85 763.75 412.4 L 774.7 399.85 Q 758.4 385.7 737.55 385.7 717.05 385.7 704.2 398.8 690.25 412.95 690.25 432.75 690.25 452.45 703.9 466.6 717.6 480.65 737.55 480.65 756.5 480.65 773.4 468.85 L 773.4 433.2 759.4 433.2 759.4 459.1 Q 752 464.45 738.5 464.45 725 464.45 716 455.35 707.1 446.45 707 433.6 707 420.85 715.8 411.75 724.65 402.75 737.3 402.75 745.65 402.75 749.75 403.85 M 883.05 433.6 Q 883.05 414.25 868.9 400.5 854.75 386.7 834.8 386.7 814.9 386.7 800.75 400.5 786.6 414.25 786.6 433.6 786.6 453 800.75 466.7 814.9 480.45 834.8 480.45 854.75 480.45 868.9 466.7 883.05 453 883.05 433.6 M 856.45 411.45 Q 865.65 420.45 865.65 432.95 865.65 445.6 856.45 454.4 847.25 463.4 834.3 463.4 821.4 463.4 812.2 454.4 803 445.6 803 432.95 803 420.45 812.2 411.45 821.4 402.55 834.3 402.55 847.25 402.55 856.45 411.45 M 961.9 393.95 Q 953.3 386.7 940.15 386.7 L 898 386.7 898 478.6 942.4 478.6 Q 956.75 478.6 965.3 470.8 973.15 463.7 973.15 452.8 973.15 444.55 968.4 438.85 964.05 433.6 956.85 431.45 970.55 425.7 970.55 412.3 970.55 401.15 961.9 393.95 M 948.6 405.55 Q 952.35 408.65 952.35 413.45 952.35 418.2 948.6 421.4 944.75 424.5 938.95 424.5 L 915.5 424.5 915.5 402.45 938.85 402.45 Q 944.75 402.45 948.6 405.55 M 941.75 439.6 Q 947.75 439.6 951.6 443.15 955.55 446.8 955.55 452.35 955.55 458.05 951.5 461.8 947.65 465.45 941.55 465.45 L 915.5 465.45 915.5 439.6 941.75 439.6 M 1287.5 386.7 L 1271.5 386.7 1271.5 449.6 1224.9 386.7 1207.45 386.7 1207.45 478.6 1223.5 478.6 1223.5 416.45 1270.05 478.6 1287.5 478.6 1287.5 386.7 M 1175.55 392.9 Q 1165.25 386.7 1149.25 386.7 L 1114.75 386.7 1114.75 478.6 1130.75 478.6 1130.75 451.2 1152.7 451.2 1171.45 478.6 1192.25 478.6 1170.9 448.4 Q 1180.55 444.85 1184.55 436.95 1188.6 429.2 1188.05 415.7 1187.75 408.95 1184.5 402.75 1181.1 396.25 1175.55 392.9 M 1167.6 407.45 Q 1171.9 412 1171.9 419.5 1171.9 427 1167.6 431.7 1163.4 436.3 1156.25 436.3 L 1136.4 436.3 1130.75 436.3 1130.75 402.95 1156.25 402.95 Q 1163.4 402.95 1167.6 407.45 M 1095.4 386.7 L 1030 386.7 1030 478.6 1095.4 478.6 1095.4 465.35 1046 465.35 1046 440.7 1089.7 440.7 1089.7 425.7 1046 425.7 1046 403.5 1095.4 403.5 1095.4 386.7 M 1007 386.7 L 989.1 386.7 989.1 478.6 1007 478.6 1007 386.7 M 1399.45 433.6 Q 1399.45 414.25 1385.3 400.5 1371.15 386.7 1351.15 386.7 1331.3 386.7 1317.15 400.5 1303 414.25 1303 433.6 1303 453 1317.15 466.7 1331.3 480.45 1351.15 480.45 1371.15 480.45 1385.3 466.7 1399.45 453 1399.45 433.6 M 1350.7 402.55 Q 1363.65 402.55 1372.8 411.45 1382 420.45 1382 432.95 1382 445.6 1372.8 454.4 1363.65 463.4 1350.7 463.4 1337.75 463.4 1328.55 454.4 1319.4 445.6 1319.4 432.95 1319.4 420.45 1328.55 411.45 1337.75 402.55 1350.7 402.55 Z"/>
<path fill="#0C2E4B" stroke="none" d="M 1498.45 379.95 L 1497.9 381.75 1509.4 381.75 1492.35 429.65 1492.15 429.65 Q 1492.15 425.9 1489.35 423.75 1486.65 421.5 1482.7 421.5 1479.3 421.5 1474.9 423.2 1470.6 424.85 1466.1 427.85 1461.6 430.85 1457.2 435 1452.8 439 1449.5 443.8 1446.15 448.6 1444.05 453.75 1442 459 1442 464.15 1442 468.55 1443.05 471.65 1444.15 474.75 1446.15 476.8 1448.1 478.85 1450.65 479.8 1453.15 480.85 1456 480.85 1460.3 480.85 1463.75 479.35 1467.3 477.75 1470.25 475.6 L 1479.8 465.65 1480 465.65 1478.95 469.75 1478.55 472.95 Q 1478.55 480.85 1487.2 480.85 1490.85 480.85 1493.55 479.35 1496.3 477.85 1498.45 475.75 L 1501.8 471.55 1504.25 467.15 Q 1504.35 467.6 1504.45 468 1505.55 471.35 1507.9 474.25 1510.35 477.2 1514.2 478.95 1518.15 480.85 1523.65 480.85 1529.3 480.85 1533.3 478.95 1537.25 477 1540.05 474.55 1542.8 472.1 1544.3 469.75 L 1546.65 466.4 1545.05 465.55 1538.4 473.6 Q 1535.95 475.85 1532.75 477.45 1529.55 479.15 1525.35 479.15 1519.75 479.15 1516.15 475.7 1512.4 472.1 1512.4 465.2 1512.4 460.6 1513.45 456.45 L 1515.9 448.2 1523.85 448.7 1527.9 448.4 1541.1 445.3 Q 1544.65 444 1547.65 442 1550.75 440.25 1552.65 437.5 1554.5 434.8 1554.5 431.25 1554.5 428.7 1553.2 426.85 1551.9 425.05 1549.8 423.85 L 1545.05 422.05 1539.9 421.5 Q 1533.15 421.5 1526.55 425.25 1520 429.1 1514.85 434.9 1509.7 440.7 1506.5 447.65 1503.3 454.7 1503.3 461.15 1503.3 462.75 1503.6 464.35 1501.65 469.1 1498.25 473.45 L 1494.6 476.8 Q 1492.55 478.3 1489.9 478.3 1486.65 478.3 1486.65 474.95 L 1487.55 469.3 1519.15 379.95 1498.45 379.95 M 1544.85 425.15 Q 1546.45 427 1546.45 429.65 1546.45 433 1544.5 436.1 1542.7 439.2 1539.4 441.55 1536.25 444 1532.1 445.4 1527.9 446.8 1523.1 446.8 L 1516.55 446.35 1519.9 438.95 Q 1522.05 435 1525.05 431.45 1528.05 428.05 1531.9 425.6 1535.55 423.25 1539.6 423.25 1543.25 423.25 1544.85 425.15 M 1467.25 432.1 Q 1470.8 428.15 1474.9 425.7 1479.15 423.25 1483.35 423.25 1485.7 423.25 1487.2 424.2 L 1489.45 426.2 1490.65 428.7 1490.95 431.25 1490.55 434.45 1481.55 459.55 1478.55 464.6 1472.95 471.2 Q 1469.65 474.35 1465.75 476.7 1461.8 479.15 1458.05 479.15 1454.2 479.15 1452.6 476.5 1451 473.9 1451 469.7 1451 466 1452.25 461.15 1453.35 456.35 1455.5 451.2 1457.65 446.05 1460.65 441 1463.65 436 1467.25 432.1 Z"/>
</g>
</defs>
<g transform="matrix(1,0,0,1,0,0)">
<use xlink:href="#l0"/>
</g>
</svg>
