<svg xmlns="http://www.w3.org/2000/svg" xmlns:xlink="http://www.w3.org/1999/xlink" width="100%" height="100%" viewBox="0 0 1920 1080">
<!-- Vectorization by Rodrigo Polo https://github.com/rodrigopolo/logotipos-politicos -->
<defs>
<g id="l0">
<path fill="#248DBF" stroke="none" d="M 799.8 970.05 L 796.55 970.05 792.5 970.05 792.5 958.45 788.3 958.45 788.3 973.55 796.55 973.55 799.8 973.55 799.8 970.05 M 765.5 973.55 L 766.35 971.25 772.45 971.25 773.25 973.55 778.4 973.55 772.15 958.45 766.7 958.45 760.4 973.55 765.5 973.55 M 767.4 968.3 L 769.4 962.8 771.35 968.3 767.4 968.3 M 732.6 973.35 Q 733.4 973.85 734.6 973.85 735.85 973.85 736.5 973.35 737.25 972.7 737.25 971.8 737.25 970.8 736.5 970.2 735.8 969.65 734.6 969.65 733.4 969.65 732.65 970.2 731.85 970.8 731.85 971.8 731.85 972.7 732.6 973.35 M 722.35 963.6 Q 722.35 961.25 720.5 959.85 718.7 958.45 715.6 958.45 L 708.2 958.45 708.2 973.55 712.4 973.55 712.4 968.85 715.1 968.85 718.1 973.55 723.2 973.55 719.5 967.95 Q 722.35 966.6 722.35 963.6 M 712.4 961.6 L 716.15 961.6 Q 717.2 961.6 717.75 962.2 718.35 962.7 718.35 963.65 718.35 964.6 717.75 965.2 717.2 965.65 716.15 965.75 L 712.4 965.75 712.4 961.6 M 681.7 958.45 L 681.7 973.55 688.85 973.55 Q 693.05 973.55 695.65 971.45 698.25 969.25 698.25 965.9 698.25 962.55 695.7 960.5 693.2 958.35 689.1 958.45 L 681.7 958.45 M 686.4 969.95 L 686.4 962 689 962 Q 691 962 692.2 963.1 693.45 964.15 693.45 965.9 693.45 967.7 692.15 968.85 690.95 969.9 689 969.95 L 686.4 969.95 M 941.7 958.45 L 934.3 958.45 934.3 973.55 938.55 973.55 938.55 968.85 941.25 968.85 944.25 973.55 949.35 973.55 945.6 967.95 Q 948.5 966.6 948.5 963.6 948.5 961.25 946.65 959.85 944.85 958.45 941.7 958.45 M 942.3 961.6 Q 943.35 961.6 943.9 962.2 944.45 962.7 944.45 963.65 944.45 964.6 943.9 965.2 943.35 965.65 942.3 965.75 L 938.55 965.75 938.55 961.6 942.3 961.6 M 921.45 960.5 Q 919 958.35 914.85 958.45 L 907.45 958.45 907.45 973.55 914.6 973.55 Q 918.8 973.55 921.4 971.45 924 969.25 924 965.9 924 962.55 921.45 960.5 M 912.15 962 L 914.75 962 Q 916.75 962 917.95 963.1 919.2 964.15 919.2 965.9 919.2 967.7 917.9 968.85 916.7 969.9 914.75 969.95 L 912.15 969.95 912.15 962 M 864.55 958.45 L 859.15 958.45 852.85 973.55 857.9 973.55 858.75 971.25 864.9 971.25 865.7 973.55 870.8 973.55 864.55 958.45 M 863.8 968.3 L 859.8 968.3 861.8 962.8 863.8 968.3 M 884.7 958.45 L 880.65 958.45 880.65 973.55 884.7 973.55 884.7 964.45 892.45 973.55 896.2 973.55 896.2 958.45 892.45 958.45 892.45 967.2 884.7 958.45 M 813.95 964.35 L 813.95 961.9 819.1 961.9 819.95 961.9 822.85 961.9 822.85 958.45 809.75 958.45 809.75 973.6 822.85 973.6 822.85 970.05 819.95 970.05 819.1 970.05 813.95 970.05 813.95 967.7 819.1 967.7 819.95 967.7 821.85 967.7 821.85 964.35 813.95 964.35 M 833.95 958.45 L 833.95 961.65 839.1 961.65 839.1 968.5 Q 839.15 970.5 837.25 970.5 835.45 970.5 833.9 969 L 832.1 971.45 Q 834.4 973.8 836.5 973.85 839.35 973.9 841.3 972.5 843.1 971 843.1 968.65 L 843.1 958.45 833.95 958.45 M 1103.55 958.45 L 1099.1 958.45 1099.1 973.55 1102.7 973.55 1102.7 965 1106.95 971.35 1109.8 971.35 1114 965 1114 973.55 1117.6 973.55 1117.6 958.45 1113.2 958.45 1108.35 966.55 1103.55 958.45 M 1087.7 958.45 L 1083.25 958.45 1078.45 966.55 1073.65 958.45 1069.2 958.45 1069.2 973.55 1072.8 973.55 1072.8 965 1077 971.35 1079.85 971.35 1084.1 965 1084.1 973.55 1087.7 973.55 1087.7 958.45 M 1046.35 973.55 L 1047.2 971.25 1053.3 971.25 1054.1 973.55 1059.25 973.55 1053 958.45 1047.55 958.45 1041.25 973.55 1046.35 973.55 M 1052.2 968.3 L 1048.25 968.3 1050.25 962.8 1052.2 968.3 M 1031.4 958.45 L 1027.35 958.45 1027.35 973.55 1031.4 973.55 1031.4 958.45 M 974.05 971.75 Q 976.6 969.5 976.55 965.95 976.55 962.35 973.95 960.2 971.45 958 967.25 958 963.05 958 960.55 960.2 957.95 962.35 957.95 965.95 957.95 969.55 960.55 971.75 963.05 973.85 967.25 973.85 971.5 973.85 974.05 971.75 M 967.3 961.7 Q 969.25 961.7 970.45 962.85 971.65 964.05 971.65 966 971.65 967.9 970.45 969.05 969.25 970.15 967.3 970.15 965.3 970.15 964.1 969.05 962.85 967.9 962.85 966 962.85 964.05 964.1 962.9 965.3 961.7 967.3 961.7 M 1006.1 962.85 Q 1007.55 961.7 1009.9 961.7 1012.35 961.7 1014.7 962.85 L 1016.55 959.75 Q 1013.35 958 1009.8 958 1005.35 958 1002.6 960.2 999.9 962.4 999.9 965.95 999.9 969.55 1002.55 971.75 1005.15 973.85 1009.5 973.85 1011.65 973.85 1013.85 973.25 1015.65 972.65 1016.85 971.85 L 1016.85 965.7 1012.65 965.7 1012.65 969.8 Q 1011.3 970.2 1009.9 970.2 1007.55 970.2 1006.05 969.1 1004.65 967.9 1004.65 965.95 1004.65 964 1006.1 962.85 M 1223.3 973.55 L 1227.4 973.55 1227.4 958.45 1223.3 958.45 1223.3 973.55 M 1174.65 961.9 L 1179.5 961.9 1179.5 973.55 1184.2 973.55 1184.2 961.9 1188.95 961.9 1188.95 957.7 1174.65 957.7 1174.65 961.9 M 1212 961.9 L 1212 958.45 1198.9 958.45 1198.9 973.6 1212 973.6 1212 970.05 1209.1 970.05 1208.25 970.05 1203.1 970.05 1203.1 967.7 1208.25 967.7 1209.1 967.7 1211 967.7 1211 964.35 1203.1 964.35 1203.1 961.9 1208.25 961.9 1209.1 961.9 1212 961.9 M 1139.6 971.25 L 1140.4 973.55 1145.55 973.55 1139.3 958.45 1133.85 958.45 1127.55 973.55 1132.65 973.55 1133.5 971.25 1139.6 971.25 M 1138.5 968.3 L 1134.55 968.3 1136.55 962.8 1138.5 968.3 M 1162 961.9 L 1166.75 961.9 1166.75 957.7 1152.45 957.7 1152.45 961.9 1157.25 961.9 1157.25 973.55 1162 973.55 1162 961.9 M 899.75 222.1 L 792.25 293.55 792.25 719.95 899.75 648.55 899.75 222.1 M 1125.5 105.05 L 992.8 196.3 992.8 720.15 1125.5 629 1125.5 105.05 Z"/>
<path fill="#00345F" stroke="none" d="M 701.35 858.15 L 678.15 858.15 678.15 904.4 Q 678.15 920.85 688.2 930.8 698.3 940.85 714.9 940.85 731.65 940.85 741.8 930.8 752.05 920.85 752.05 904.4 L 752.05 858.15 728.9 858.15 728.9 904.05 Q 728.9 911.35 725.15 915.65 721.45 920.05 715.3 920.05 709 920.05 705.2 915.65 701.35 911.2 701.35 903.9 L 701.35 858.15 M 815.85 925.2 L 820.8 938.95 843.75 938.95 812.25 858.15 787.75 858.15 756.25 938.95 778.1 938.95 783.15 925.2 815.85 925.2 M 809.85 908.85 L 789.1 908.85 799.5 880.25 809.85 908.85 M 904.8 877.7 L 904.8 858.15 836.9 858.15 836.9 877.7 860.4 877.7 860.4 938.95 881.2 938.95 881.2 877.7 904.8 877.7 M 977.15 876.3 L 977.15 858.15 913.3 858.15 913.3 938.95 977.15 938.95 977.15 920.85 935.8 920.85 935.8 907.8 972.1 907.8 972.1 890.05 935.8 890.05 935.8 876.3 977.15 876.3 M 1077.7 858.15 L 1053.8 858.15 1034.15 902.55 1013.3 858.15 989.55 858.15 989.55 938.95 1010.2 938.95 1010.2 890.25 1027.35 930.25 1041.15 930.25 1057 890.15 1057 938.95 1077.7 938.95 1077.7 858.15 M 1150.05 938.95 L 1173 938.95 1141.45 858.15 1116.95 858.15 1085.45 938.95 1107.35 938.95 1112.35 925.2 1145.1 925.2 1150.05 938.95 M 1118.3 908.85 L 1128.75 880.25 1139.05 908.85 1118.3 908.85 M 1203.55 858.15 L 1181.05 858.15 1181.05 938.95 1236 938.95 1236 919.4 1203.55 919.4 1203.55 858.15 M 634.15 857.75 Q 625.05 857.75 618.15 860.15 610.55 862.75 604.65 868.65 592.35 881.05 592.35 898.55 592.35 916.15 604.3 928.4 610.1 934.4 617.75 937.2 624.75 939.75 634.05 939.75 653.65 939.75 666.4 929.05 L 666.4 898.15 647.7 898.15 647.7 916.35 Q 644.5 918.55 641.55 919.4 639 920.1 635.45 920.05 626.4 920 620.5 913.75 614.7 907.5 614.7 898.55 614.7 889.6 620.35 883.3 626.15 877.05 634.45 877.05 644.5 877.05 654.65 885.55 L 668.45 869.65 Q 661.8 863.25 652.95 860.35 644.85 857.75 634.15 857.75 M 1303.4 938.95 L 1326.35 938.95 1294.85 858.15 1270.35 858.15 1238.85 938.95 1260.7 938.95 1265.75 925.2 1298.45 925.2 1303.4 938.95 M 1292.4 908.85 L 1271.7 908.85 1282.1 880.25 1292.4 908.85 Z"/>
<path fill="#0C2E4B" stroke="none" d="M 1243 765.8 L 1251.65 765.8 1238.8 801.8 1238.7 801.8 Q 1238.7 799 1236.55 797.35 1234.5 795.7 1231.55 795.7 1229 795.7 1225.7 796.95 1222.45 798.2 1219.05 800.45 1215.7 802.75 1212.35 805.85 1209.05 808.85 1206.6 812.45 1204.05 816.05 1202.5 819.95 1200.95 823.9 1200.95 827.75 1200.95 831.1 1201.75 833.4 1202.55 835.75 1204.05 837.3 1205.55 838.85 1207.45 839.55 1209.35 840.3 1211.45 840.3 1214.7 840.3 1217.3 839.2 1220 838 1222.2 836.35 L 1229.35 828.9 1229.5 828.9 1228.75 832 1228.45 834.4 Q 1228.45 840.3 1234.95 840.3 1237.7 840.3 1239.75 839.2 1241.8 838.05 1243.4 836.5 L 1245.95 833.35 1247.75 830 Q 1247.85 830.35 1247.9 830.65 1248.75 833.2 1250.5 835.4 1252.35 837.55 1255.25 838.9 1258.2 840.3 1262.35 840.3 1266.6 840.3 1269.65 838.9 1272.6 837.4 1274.7 835.6 1276.75 833.75 1277.9 832 L 1279.65 829.45 1278.45 828.8 1273.45 834.9 Q 1271.6 836.6 1269.2 837.8 1266.8 839.05 1263.65 839.05 1259.4 839.05 1256.75 836.45 1253.9 833.75 1253.9 828.55 1253.9 825.1 1254.7 822 L 1256.5 815.8 1262.5 816.15 1265.55 815.9 1275.5 813.6 Q 1278.15 812.6 1280.4 811.1 1282.75 809.8 1284.15 807.75 1285.55 805.7 1285.55 803 1285.55 801.1 1284.6 799.7 1283.6 798.35 1282.05 797.45 L 1278.45 796.1 1274.55 795.7 Q 1269.5 795.7 1264.55 798.5 1259.6 801.4 1255.75 805.75 1251.85 810.15 1249.45 815.35 1247.05 820.65 1247.05 825.5 1247.05 826.7 1247.3 827.9 1245.8 831.5 1243.25 834.75 L 1240.5 837.3 Q 1238.95 838.4 1237 838.4 1234.5 838.4 1234.5 835.85 L 1235.2 831.65 1259 764.45 1243.4 764.45 1243 765.8 M 1279.5 801.8 Q 1279.5 804.35 1278.05 806.7 1276.7 809 1274.2 810.75 1271.8 812.6 1268.7 813.65 1265.55 814.7 1261.95 814.7 L 1257 814.35 1259.55 808.8 Q 1261.15 805.85 1263.45 803.15 1265.7 800.6 1268.6 798.8 1271.35 797 1274.35 797 1277.1 797 1278.3 798.45 1279.5 799.85 1279.5 801.8 M 1237.55 801.1 L 1237.75 803 1237.5 805.4 1230.7 824.3 1228.45 828.1 1224.2 833.05 Q 1221.75 835.45 1218.8 837.2 1215.85 839.05 1213 839.05 1210.1 839.05 1208.9 837.05 1207.7 835.1 1207.7 831.9 1207.7 829.15 1208.65 825.5 1209.5 821.9 1211.1 818.05 1212.75 814.15 1215 810.35 1217.25 806.6 1219.9 803.65 1222.6 800.7 1225.7 798.85 1228.9 797 1232.05 797 1233.8 797 1234.95 797.7 L 1236.65 799.2 1237.55 801.1 Z"/>
<path fill="#00355A" stroke="none" d="M 1132.6 769.5 Q 1117.65 769.5 1107 779.9 1096.35 790.25 1096.35 804.75 1096.35 819.35 1107 829.65 1117.65 840.05 1132.6 840.05 1147.65 840.05 1158.3 829.65 1168.95 819.35 1168.95 804.75 1168.95 790.25 1158.3 779.9 1147.65 769.5 1132.6 769.5 M 1115.6 788.15 Q 1122.55 781.45 1132.25 781.45 1142 781.45 1148.9 788.15 1155.8 794.9 1155.8 804.3 1155.8 813.8 1148.9 820.45 1142 827.2 1132.25 827.2 1122.55 827.2 1115.6 820.45 1108.7 813.8 1108.7 804.3 1108.7 794.9 1115.6 788.15 M 1037.65 769.5 L 1024.5 769.5 1024.5 838.6 1036.55 838.6 1036.55 791.85 1071.6 838.6 1084.75 838.6 1084.75 769.5 1072.7 769.5 1072.7 816.85 1037.65 769.5 M 1009.9 791.3 Q 1009.7 786.25 1007.25 781.55 1004.7 776.7 1000.55 774.15 992.8 769.5 980.7 769.5 L 954.75 769.5 954.75 838.6 966.85 838.6 966.85 818.05 983.35 818.05 997.45 838.6 1013.1 838.6 997 815.9 Q 1004.3 813.25 1007.3 807.3 1010.35 801.45 1009.9 791.3 M 986 781.7 Q 991.35 781.7 994.55 785.1 997.8 788.55 997.8 794.2 997.8 799.85 994.55 803.35 991.35 806.8 986 806.8 L 971.05 806.8 966.85 806.8 966.85 781.7 986 781.7 M 940.25 782.15 L 940.25 769.5 891.05 769.5 891.05 838.6 940.25 838.6 940.25 828.7 903.1 828.7 903.1 810.15 935.95 810.15 935.95 798.85 903.1 798.85 903.1 782.15 940.25 782.15 M 873.75 769.5 L 860.3 769.5 860.3 838.6 873.75 838.6 873.75 769.5 M 846.3 788.75 Q 846.3 780.4 839.85 774.95 833.35 769.5 823.45 769.5 L 791.75 769.5 791.75 838.6 825.15 838.6 Q 835.95 838.6 842.35 832.75 848.3 827.4 848.3 819.25 848.3 813.05 844.7 808.7 841.45 804.75 836 803.15 846.3 798.85 846.3 788.75 M 822.5 781.35 Q 826.9 781.35 829.8 783.7 832.65 786 832.65 789.6 832.65 793.2 829.8 795.6 826.9 797.95 822.55 797.95 L 804.9 797.95 804.9 781.35 822.5 781.35 M 835.05 818.9 Q 835.05 823.2 832 826 829.1 828.75 824.55 828.75 L 804.9 828.75 804.9 809.3 824.65 809.3 Q 829.2 809.3 832.05 811.95 835.05 814.7 835.05 818.9 M 769.9 779.9 Q 759.25 769.5 744.2 769.5 729.25 769.5 718.6 779.9 707.95 790.25 707.95 804.75 707.95 819.35 718.6 829.65 729.25 840.05 744.2 840.05 759.25 840.05 769.9 829.65 780.5 819.35 780.5 804.75 780.5 790.25 769.9 779.9 M 743.85 781.45 Q 753.6 781.45 760.5 788.15 767.4 794.9 767.4 804.3 767.4 813.8 760.5 820.45 753.6 827.2 743.85 827.2 734.1 827.2 727.2 820.45 720.3 813.8 720.3 804.3 720.3 794.9 727.2 788.15 734.1 781.45 743.85 781.45 M 654.7 788.35 Q 661.35 781.55 670.85 781.55 677.15 781.55 680.25 782.4 685.45 783.9 690.75 788.85 L 699 779.4 Q 686.75 768.75 671.1 768.75 655.65 768.75 646 778.6 635.45 789.25 635.45 804.15 635.45 818.95 645.75 829.6 656.05 840.15 671.1 840.15 685.3 840.15 698 831.3 L 698 804.5 687.5 804.5 687.5 823.95 Q 681.95 828 671.8 828 661.65 828 654.85 821.15 648.15 814.45 648.1 804.75 648.1 795.2 654.7 788.35 Z"/>
</g>
</defs>
<g transform="matrix(1,0,0,1,0,0)">
<use xlink:href="#l0"/>
</g>
</svg>
