<svg xmlns="http://www.w3.org/2000/svg" xmlns:xlink="http://www.w3.org/1999/xlink" width="100%" height="100%" viewBox="0 0 1920 1080">
<!-- Vectorization by Rodrigo Polo https://github.com/rodrigopolo/logotipos-politicos -->
<defs/>
<g id="l1">
<g>
<g>
<g>
<path fill="#248DBF" stroke="none" d="M 367.3 779 L 367.3 346.9 258.35 419.25 258.35 851.35 367.3 779 M 596.05 228.3 L 461.6 320.75 461.6 851.55 596.05 759.2 596.05 228.3 M 1208.4 654.55 L 1213.6 650.05 Q 1209.8 645.4 1202.2 645.4 1197.25 645.4 1194 647.65 1190.8 649.85 1190.8 653.3 1190.8 658.5 1198.1 660.8 L 1203.1 662.3 Q 1205.35 663.1 1205.35 664.15 1205.35 666 1201.85 666 1197.55 666 1195.05 663 L 1189.6 667.4 Q 1193.15 672.2 1201.65 672.2 1206.9 672.2 1210.3 669.85 1213.6 667.5 1213.6 663.9 1213.6 658.7 1206.3 656.4 L 1201.3 654.95 Q 1199.05 654.2 1199.05 653.15 1199.05 651.6 1201.9 651.6 1205.95 651.6 1208.4 654.55 M 1140.65 672.2 L 1149.65 672.2 1151.15 668.2 1162 668.2 1163.4 672.2 1172.5 672.2 1161.45 645.4 1151.8 645.4 1140.65 672.2 M 1156.6 653.2 L 1160.05 662.95 1153 662.95 1156.6 653.2 M 1287.75 647.65 Q 1282.1 644.55 1275.85 644.55 1267.95 644.55 1263.1 648.5 1258.3 652.35 1258.3 658.6 1258.3 665 1263 668.95 1267.6 672.7 1275.25 672.7 1279.1 672.7 1282.95 671.55 1286.15 670.5 1288.3 669.1 L 1288.3 658.25 1280.9 658.25 1280.9 665.45 Q 1278.45 666.2 1276 666.2 1271.8 666.2 1269.2 664.25 1266.65 662.1 1266.65 658.6 1266.65 655.15 1269.25 653.2 1271.8 651.1 1276 651.1 1280.35 651.1 1284.45 653.2 L 1287.75 647.65 M 1036.4 647.95 Q 1035.5 647.25 1034.45 646.75 1031.7 645.4 1027.7 645.4 L 1014.55 645.4 1014.55 672.2 1022.05 672.2 1022.05 663.85 1027.45 663.85 Q 1031.7 663.85 1034.6 662.3 1039.7 659.95 1039.7 654.6 1039.7 650.35 1036.4 647.95 M 1028.7 651.05 Q 1030.6 651.05 1031.55 652.05 1032.55 653 1032.55 654.7 1032.55 656.35 1031.55 657.4 1030.6 658.25 1028.7 658.45 L 1022.05 658.45 1022.05 651.05 1028.7 651.05 M 1115.35 650.5 L 1115.35 662.7 Q 1115.45 666.2 1112.1 666.2 1108.9 666.2 1106.2 663.55 L 1103 667.85 Q 1107 672.1 1110.75 672.2 1115.85 672.25 1119.3 669.75 1122.5 667.1 1122.5 662.9 L 1122.5 644.8 1106.25 644.8 1106.25 650.5 1115.35 650.5 M 1054.55 672.2 L 1063.55 672.2 1065.05 668.2 1075.9 668.2 1077.3 672.2 1086.4 672.2 1075.35 645.4 1065.7 645.4 1054.55 672.2 M 1066.9 662.95 L 1070.5 653.2 1073.95 662.95 1066.9 662.95 M 842.55 666.05 L 842.55 645.4 835.05 645.4 835.05 672.2 849.7 672.2 855.5 672.2 855.5 666.05 849.7 666.05 842.55 666.05 M 967.5 645.4 L 967.5 672.2 980.15 672.2 Q 987.65 672.2 992.25 668.45 996.85 664.6 996.85 658.6 996.85 652.7 992.35 649.05 987.9 645.3 980.6 645.4 L 967.5 645.4 M 988.3 658.6 Q 988.3 661.8 986.05 663.85 983.9 665.75 980.4 665.85 L 975.85 665.85 975.85 651.8 980.4 651.8 Q 984 651.8 986.15 653.65 988.3 655.55 988.3 658.6 M 923.9 645.4 L 923.9 672.2 931.4 672.2 931.4 663.85 936.2 663.85 941.55 672.2 950.55 672.2 943.95 662.3 Q 949.05 659.95 949.05 654.6 949.05 650.35 945.75 647.95 942.55 645.4 937.05 645.4 L 923.9 645.4 M 931.4 658.45 L 931.4 651.05 938.05 651.05 Q 939.95 651.05 940.9 652.05 941.9 653 941.9 654.7 941.9 656.35 940.9 657.4 939.95 658.25 938.05 658.45 L 931.4 658.45 M 906.25 658.1 Q 906.25 651.75 901.65 648 897.15 644.05 889.75 644.05 882.35 644.05 877.85 648 873.25 651.75 873.25 658.1 873.25 664.5 877.85 668.45 882.35 672.2 889.75 672.2 897.25 672.2 901.85 668.45 906.35 664.4 906.25 658.1 M 895.5 652.7 Q 897.55 654.75 897.55 658.2 897.55 661.6 895.5 663.65 893.35 665.6 889.85 665.6 886.3 665.6 884.15 663.65 882 661.6 882 658.2 882 654.75 884.15 652.75 886.3 650.6 889.85 650.6 893.35 650.6 895.5 652.7 M 723.35 658.5 Q 723.35 652.6 718.85 648.95 714.45 645.2 707.15 645.3 L 694 645.3 694 672.1 706.7 672.1 Q 714.2 672.1 718.75 668.35 723.35 664.5 723.35 658.5 M 712.7 653.55 Q 714.85 655.45 714.85 658.5 714.85 661.7 712.6 663.75 710.45 665.65 706.95 665.75 L 702.35 665.75 702.35 651.7 706.95 651.7 Q 710.5 651.7 712.7 653.55 M 784.3 671.75 Q 785.7 672.7 787.85 672.7 790 672.7 791.25 671.75 792.55 670.6 792.55 669 792.55 667.25 791.25 666.2 789.95 665.2 787.85 665.2 785.7 665.2 784.4 666.2 783 667.25 783 669 783 670.6 784.3 671.75 M 762.85 647.85 Q 759.65 645.3 754.1 645.3 L 741 645.3 741 672.1 748.5 672.1 748.5 663.75 753.25 663.75 758.6 672.1 767.6 672.1 761.05 662.2 Q 766.1 659.85 766.1 654.5 766.1 650.25 762.85 647.85 M 757.95 657.3 Q 757 658.15 755.15 658.35 L 748.5 658.35 748.5 650.95 755.15 650.95 Q 757 650.95 757.95 651.95 759 652.9 759 654.6 759 656.25 757.95 657.3 M 1654.4 645.3 L 1654.4 672.1 1661.6 672.1 1661.6 645.3 1654.4 645.3 M 1484.6 672.1 L 1493.6 672.1 1495.1 668.1 1506 668.1 1507.4 672.1 1516.5 672.1 1505.45 645.3 1495.75 645.3 1484.6 672.1 M 1500.55 653.1 L 1504 662.85 1497 662.85 1500.55 653.1 M 1611.1 645.3 L 1611.1 672.2 1634.35 672.2 1634.35 665.95 1629.2 665.95 1627.7 665.95 1618.6 665.95 1618.6 661.7 1627.7 661.7 1629.2 661.7 1632.55 661.7 1632.55 655.8 1618.6 655.8 1618.6 651.5 1627.7 651.5 1629.2 651.5 1634.35 651.5 1634.35 645.3 1611.1 645.3 M 1576.7 651.5 L 1576.7 672.1 1585 672.1 1585 651.5 1593.45 651.5 1593.45 644 1568.15 644 1568.15 651.5 1576.7 651.5 M 1554.1 651.5 L 1554.1 644 1528.75 644 1528.75 651.5 1537.3 651.5 1537.3 672.1 1545.65 672.1 1545.65 651.5 1554.1 651.5 M 1342.1 668.1 L 1353 668.1 1354.4 672.1 1363.5 672.1 1352.45 645.3 1342.75 645.3 1331.6 672.1 1340.6 672.1 1342.1 668.1 M 1344 662.85 L 1347.55 653.1 1351 662.85 1344 662.85 M 1306.95 672.1 L 1314.1 672.1 1314.1 645.3 1306.95 645.3 1306.95 672.1 M 1434.2 645.3 L 1434.2 672.1 1440.55 672.1 1440.55 656.95 1448.05 668.2 1453.1 668.2 1460.6 656.95 1460.6 672.1 1467 672.1 1467 645.3 1459.1 645.3 1450.6 659.75 1442.05 645.3 1434.2 645.3 M 1400.05 668.2 L 1407.55 656.95 1407.55 672.1 1413.95 672.1 1413.95 645.3 1406.05 645.3 1397.5 659.75 1389 645.3 1381.1 645.3 1381.1 672.1 1387.5 672.1 1387.5 656.95 1395 668.2 1400.05 668.2 Z"/>
<path fill="#00345F" stroke="none" d="M 1005.45 503.65 L 1005.45 529.5 1036.6 529.5 1036.6 610.6 1064.15 610.6 1064.15 529.5 1095.35 529.5 1095.35 503.65 1005.45 503.65 M 1191.2 527.65 L 1191.2 503.65 1106.6 503.65 1106.6 610.6 1191.2 610.6 1191.2 586.6 1136.45 586.6 1136.45 569.35 1184.5 569.35 1184.5 545.85 1136.45 545.85 1136.45 527.65 1191.2 527.65 M 898.7 610.6 L 927.65 610.6 934.3 592.45 977.6 592.45 984.2 610.6 1014.55 610.6 972.85 503.65 940.4 503.65 898.7 610.6 M 969.65 570.75 L 942.2 570.75 955.95 532.9 969.65 570.75 M 715.85 506.25 Q 705.75 509.75 697.95 517.5 681.65 533.95 681.65 557.1 681.65 580.45 697.5 596.65 705.2 604.6 715.3 608.25 724.6 611.65 736.85 611.65 762.85 611.65 779.7 597.5 L 779.7 556.6 754.95 556.6 754.95 580.7 Q 750.75 583.6 746.8 584.75 743.45 585.7 738.75 585.6 726.75 585.5 718.95 577.25 711.25 569 711.25 557.1 711.25 545.25 718.75 536.95 726.45 528.7 737.45 528.7 750.75 528.7 764.15 539.95 L 782.45 518.85 Q 773.6 510.4 761.9 506.55 751.2 503.1 737.05 503.1 724.95 503.1 715.85 506.25 M 831.1 579.75 Q 826 573.85 826 564.2 L 826 503.65 795.25 503.65 795.25 564.85 Q 795.25 586.6 808.6 599.85 822 613.15 843.95 613.15 866.15 613.15 879.55 599.85 893.15 586.6 893.15 564.85 L 893.15 503.65 862.5 503.65 862.5 564.4 Q 862.5 574.05 857.5 579.75 852.65 585.6 844.5 585.6 836.15 585.6 831.1 579.75 M 1296.95 610.6 L 1324.3 610.6 1324.3 503.65 1292.7 503.65 1266.65 562.45 1239.1 503.65 1207.6 503.65 1207.6 610.6 1234.95 610.6 1234.95 546.1 1257.65 599.1 1275.95 599.1 1296.95 546 1296.95 610.6 M 1370.25 592.45 L 1413.55 592.45 1420.1 610.6 1450.5 610.6 1408.75 503.65 1376.35 503.65 1334.6 610.6 1363.6 610.6 1370.25 592.45 M 1405.6 570.75 L 1378.1 570.75 1391.9 532.9 1405.6 570.75 M 1573.3 592.45 L 1616.6 592.45 1623.2 610.6 1653.55 610.6 1611.85 503.65 1579.4 503.65 1537.7 610.6 1566.65 610.6 1573.3 592.45 M 1608.65 570.75 L 1581.2 570.75 1594.95 532.9 1608.65 570.75 M 1491 503.65 L 1461.2 503.65 1461.2 610.6 1533.95 610.6 1533.95 584.75 1491 584.75 1491 503.65 Z"/>
<path fill="#00355A" stroke="none" d="M 883.75 434.1 Q 883.75 414.75 869.6 401 855.45 387.2 835.5 387.2 815.6 387.2 801.45 401 787.3 414.75 787.3 434.1 787.3 453.5 801.45 467.2 815.6 480.95 835.5 480.95 855.45 480.95 869.6 467.2 883.75 453.5 883.75 434.1 M 857.15 411.95 Q 866.35 420.95 866.35 433.45 866.35 446.1 857.15 454.9 847.95 463.9 835 463.9 822.1 463.9 812.9 454.9 803.7 446.1 803.7 433.45 803.7 420.95 812.9 411.95 822.1 403.05 835 403.05 847.95 403.05 857.15 411.95 M 962.6 394.45 Q 954 387.2 940.85 387.2 L 898.7 387.2 898.7 479.1 943.1 479.1 Q 957.45 479.1 966 471.3 973.85 464.2 973.85 453.3 973.85 445.05 969.1 439.35 964.75 434.1 957.55 431.95 971.25 426.2 971.25 412.8 971.25 401.65 962.6 394.45 M 942.45 440.1 Q 948.45 440.1 952.3 443.65 956.25 447.3 956.25 452.85 956.25 458.55 952.2 462.3 948.35 465.95 942.25 465.95 L 916.2 465.95 916.2 440.1 942.45 440.1 M 953.05 413.95 Q 953.05 418.7 949.3 421.9 945.45 425 939.65 425 L 916.2 425 916.2 402.95 939.55 402.95 Q 945.45 402.95 949.3 406.05 953.05 409.15 953.05 413.95 M 763.25 393.4 Q 752.95 387.2 736.95 387.2 L 702.45 387.2 702.45 479.1 718.45 479.1 718.45 451.7 740.4 451.7 759.15 479.1 779.95 479.1 758.6 448.9 Q 768.25 445.35 772.25 437.45 776.3 429.7 775.75 416.2 775.45 409.45 772.2 403.25 768.8 396.75 763.25 393.4 M 755.3 432.2 Q 751.1 436.8 743.95 436.8 L 724.1 436.8 718.45 436.8 718.45 403.45 743.95 403.45 Q 751.1 403.45 755.3 407.95 759.6 412.5 759.6 420 759.6 427.5 755.3 432.2 M 1288.2 387.2 L 1272.2 387.2 1272.2 450.1 1225.6 387.2 1208.15 387.2 1208.15 479.1 1224.2 479.1 1224.2 416.95 1270.75 479.1 1288.2 479.1 1288.2 387.2 M 1176.25 393.4 Q 1165.95 387.2 1149.95 387.2 L 1115.45 387.2 1115.45 479.1 1131.45 479.1 1131.45 451.7 1153.4 451.7 1172.15 479.1 1192.95 479.1 1171.6 448.9 Q 1181.25 445.35 1185.25 437.45 1189.3 429.7 1188.75 416.2 1188.45 409.45 1185.2 403.25 1181.8 396.75 1176.25 393.4 M 1172.6 420 Q 1172.6 427.5 1168.3 432.2 1164.1 436.8 1156.95 436.8 L 1137.1 436.8 1131.45 436.8 1131.45 403.45 1156.95 403.45 Q 1164.1 403.45 1168.3 407.95 1172.6 412.5 1172.6 420 M 1096.1 387.2 L 1030.7 387.2 1030.7 479.1 1096.1 479.1 1096.1 465.85 1046.7 465.85 1046.7 441.2 1090.4 441.2 1090.4 426.2 1046.7 426.2 1046.7 404 1096.1 404 1096.1 387.2 M 1007.7 387.2 L 989.8 387.2 989.8 479.1 1007.7 479.1 1007.7 387.2 M 1400.15 434.1 Q 1400.15 414.75 1386 401 1371.85 387.2 1351.85 387.2 1332 387.2 1317.85 401 1303.7 414.75 1303.7 434.1 1303.7 453.5 1317.85 467.2 1332 480.95 1351.85 480.95 1371.85 480.95 1386 467.2 1400.15 453.5 1400.15 434.1 M 1351.4 403.05 Q 1364.35 403.05 1373.5 411.95 1382.7 420.95 1382.7 433.45 1382.7 446.1 1373.5 454.9 1364.35 463.9 1351.4 463.9 1338.45 463.9 1329.25 454.9 1320.1 446.1 1320.1 433.45 1320.1 420.95 1329.25 411.95 1338.45 403.05 1351.4 403.05 Z"/>
<path fill="#0C2E4B" stroke="none" d="M 1519.85 380.45 L 1499.15 380.45 1498.6 382.25 1510.1 382.25 1493.05 430.15 1492.85 430.15 Q 1492.85 426.4 1490.05 424.25 1487.35 422 1483.4 422 1480 422 1475.6 423.7 1471.3 425.35 1466.8 428.35 1462.3 431.35 1457.9 435.5 1453.5 439.5 1450.2 444.3 1446.85 449.1 1444.75 454.25 1442.7 459.5 1442.7 464.65 1442.7 469.05 1443.75 472.15 1444.85 475.25 1446.85 477.3 1448.8 479.35 1451.35 480.3 1453.85 481.35 1456.7 481.35 1461 481.35 1464.45 479.85 1468 478.25 1470.95 476.1 L 1480.5 466.15 1480.7 466.15 1479.65 470.25 1479.25 473.45 Q 1479.25 481.35 1487.9 481.35 1491.55 481.35 1494.25 479.85 1497 478.35 1499.15 476.25 L 1502.5 472.05 1504.95 467.65 Q 1505.05 468.1 1505.15 468.5 1506.25 471.85 1508.6 474.75 1511.05 477.7 1514.9 479.45 1518.85 481.35 1524.35 481.35 1530 481.35 1534 479.45 1537.95 477.5 1540.75 475.05 1543.5 472.6 1545 470.25 L 1547.35 466.9 1545.75 466.05 1539.1 474.1 Q 1536.65 476.35 1533.45 477.95 1530.25 479.65 1526.05 479.65 1520.45 479.65 1516.85 476.2 1513.1 472.6 1513.1 465.7 1513.1 461.1 1514.15 456.95 L 1516.6 448.7 1524.55 449.2 1528.6 448.9 1541.8 445.8 Q 1545.35 444.5 1548.35 442.5 1551.45 440.75 1553.35 438 1555.2 435.3 1555.2 431.75 1555.2 429.2 1553.9 427.35 1552.6 425.55 1550.5 424.35 L 1545.75 422.55 1540.6 422 Q 1533.85 422 1527.25 425.75 1520.7 429.6 1515.55 435.4 1510.4 441.2 1507.2 448.15 1504 455.2 1504 461.65 1504 463.25 1504.3 464.85 1502.35 469.6 1498.95 473.95 L 1495.3 477.3 Q 1493.25 478.8 1490.6 478.8 1487.35 478.8 1487.35 475.45 L 1488.25 469.8 1519.85 380.45 M 1545.55 425.65 Q 1547.15 427.5 1547.15 430.15 1547.15 433.5 1545.2 436.6 1543.4 439.7 1540.1 442.05 1536.95 444.5 1532.8 445.9 1528.6 447.3 1523.8 447.3 L 1517.25 446.85 1520.6 439.45 Q 1522.75 435.5 1525.75 431.95 1528.75 428.55 1532.6 426.1 1536.25 423.75 1540.3 423.75 1543.95 423.75 1545.55 425.65 M 1467.95 432.6 Q 1471.5 428.65 1475.6 426.2 1479.85 423.75 1484.05 423.75 1486.4 423.75 1487.9 424.7 L 1490.15 426.7 1491.35 429.2 1491.65 431.75 1491.25 434.95 1482.25 460.05 1479.25 465.1 1473.65 471.7 Q 1470.35 474.85 1466.45 477.2 1462.5 479.65 1458.75 479.65 1454.9 479.65 1453.3 477 1451.7 474.4 1451.7 470.2 1451.7 466.5 1452.95 461.65 1454.05 456.85 1456.2 451.7 1458.35 446.55 1461.35 441.5 1464.35 436.5 1467.95 432.6 Z"/>
</g>
</g>
</g>
</g>
</svg>
