<svg xmlns="http://www.w3.org/2000/svg" xmlns:xlink="http://www.w3.org/1999/xlink" width="100%" height="100%" viewBox="0 0 1024 1024">
<!-- Vectorization by Rodrigo Polo https://github.com/rodrigopolo/logotipos-politicos -->
<defs>
<g id="l1">
<path fill="#A2A2A2" stroke="none" d="M 771.8 174.8 L 738.9 126.15 634.65 45.25 595.65 25.75 513.6 5.3 396.3 5.3 354.45 14.1 299.9 42.65 231.6 71.35 217.1 98.05 190.9 126.15 186.6 163.5 168.75 191.75 159.6 246.1 151.3 268.8 151.3 302.65 147.25 336.95 150.1 404.55 164.7 435.65 181 488.2 218.8 549.35 226.75 585.65 226.75 693 212.6 723.2 209.2 759 178.15 815.85 134.5 857.5 64.65 879.2 40.65 894.5 0.2 894.5 0 1024.05 849 1024.05 849 877.55 801.05 867.7 760.55 860.2 672.9 855.95 636.65 850.5 621.8 826.6 626 805.55 645.75 805.55 702.65 777.5 720.8 762.85 757 720.15 763.15 702.4 770.25 663.85 796.75 621.5 824.3 565.55 836.6 537.15 836.6 488.05 830.55 456 817.8 435.3 822.1 385.8 825.9 367.4 818.15 348.95 820.55 329.35 807.15 288.5 793.8 268.05 791.55 229.25 771.8 174.8 Z"/>
</g>
<g id="l0">
<path fill="#1D1F20" stroke="none" d="M 327.5 798.45 Q 330.15 795.95 328.45 793.5 326.95 791.1 321.25 791.5 315.5 791.9 308.2 795.1 299.65 798.45 298.2 798.45 295.35 798.45 286.5 809.1 277.25 819.85 272.75 828.75 270.45 833.1 266.6 839 263.05 844.4 260.5 847.15 256.3 851.8 254.3 852.9 252.3 854.1 247.65 854.5 241.95 855.3 239.95 857.15 237.75 859.15 240 861.8 241.95 863.95 250.15 863.95 256.4 863.95 258.35 863.2 260.15 862.55 263.55 858.95 L 272.75 849.2 Q 274.65 847.1 277.75 842.3 281 837.3 283.45 832.4 285.6 828.15 289.2 822.5 292.45 817.5 294.45 815.35 298.3 811.45 305.15 807.85 312.15 804.25 319.6 802.4 324.9 801.05 327.5 798.45 M 544.55 907.7 Q 542.05 907.15 534.85 906.85 521.65 906.6 516.1 907.7 510.5 908.85 506.05 912.95 504.4 914.5 501.1 918.45 498.2 922.4 496.75 924.9 L 492.65 931.95 478.1 931.95 Q 467.9 931.95 465.45 931.45 463.1 931 461.5 929 459.35 926.05 459.35 923.2 459.35 920.3 455.5 916.85 451.5 913.3 448.55 913.3 447.1 913.3 445.15 912.35 443.2 911.3 441.95 909.9 437.5 905.05 431.6 903 426.15 900.9 415.85 900.3 407.7 900 405.4 900.3 403.05 900.7 401.35 902.65 398.5 905.7 400.05 907 401.65 908.4 405.8 906.65 411.55 904.15 420.65 906.4 429.6 908.3 437.25 913.95 440.65 916.7 445 917.8 448.6 918.8 451.15 921.4 453.9 924.15 453.9 927.1 453.9 928.35 454.65 930.45 455.55 932.45 456.7 933.85 458.75 936.35 461.5 936.9 464.75 937.35 478.8 937.35 L 498.2 937.35 500.15 932.85 Q 502.5 927.2 506.65 921.65 510.7 916.3 513.7 914.9 517 913.25 532.2 912.2 541.15 911.7 544.05 911.15 546.95 910.55 546.95 909.35 546.95 908.1 544.55 907.7 M 536.85 820.95 Q 534.15 817.75 532.45 819.45 531.1 820.9 534.6 831.35 536.65 837.3 538.85 841.3 540.95 844.75 545.1 848.95 547.75 851.6 551.15 854.25 554.4 856.65 556 857.15 564.45 859.7 565 857 565.5 854.25 557.15 850.1 550.45 846.55 547.25 842.4 543.85 838.3 541.35 830.1 539.5 824.15 536.85 820.95 M 323.95 638.15 Q 322.1 636.25 320.15 638.3 318.6 639.55 321.85 649.35 324 655.75 324.6 661.25 325 665.95 324.85 682.3 324.3 703.95 322.85 709.85 321.5 716.2 314.8 725.45 313.95 726.35 313.9 727.5 313.7 728.8 314.15 729.6 315 732 316.4 731.65 317.8 731.25 321.3 727.65 327.05 721.7 328.55 714 329.9 706.7 330.25 682.45 330.4 662.95 330 657.3 329.55 651.3 327.75 645.95 325.7 639.85 323.95 638.15 M 469.4 387.15 Q 465.1 391.65 463.45 395.7 461.85 399.7 461.85 405.8 461.85 414.35 466.85 421.4 471.9 428.55 479.9 431.25 489.55 434.8 500.1 429.45 512.5 423.35 514.7 410.45 517 397.75 507.55 387.3 500.1 379.05 488.7 379.05 477.45 379 469.4 387.15 M 705.4 675.25 Q 702.9 674.7 690.3 673.9 674.15 673 599.85 671.05 551.35 669.75 537.35 669.75 524.65 669.75 522.05 671.05 518.3 672.95 516.8 675.7 515.25 678.35 515.25 683.35 515.25 686.45 516.15 688.35 517.05 690.35 519.35 692.45 L 523.45 696.3 651.45 700.05 Q 655.2 700.25 686.6 700.8 L 706.4 701.15 711.1 696.5 Q 715.7 691.85 715.75 687.8 715.75 683.55 711.25 679.1 708.1 675.85 705.4 675.25 M 659.85 428.5 Q 658.05 425.1 653.5 423 648.9 420.85 645.4 421.75 641.25 422.8 638.4 426.5 635.4 430.15 635.4 434.6 635.4 436.65 641.45 460.4 646.45 479.7 656.1 515.2 676.85 591 675.65 592.15 674.7 593.3 613.9 589.95 570.35 587.65 561.45 587.45 551.9 587.25 548.55 588.9 541.15 592.3 541.2 600.7 541.2 609 548.8 612.5 554 614.5 612.65 617.55 666.35 620.45 685.8 620.9 696 620.9 698.25 620.45 700.75 620 703.8 617.2 706.6 614.65 707.35 612.9 708.05 611.3 707.9 606.85 707.85 601.95 685.1 517.8 662.6 434.05 659.85 428.5 M 740.15 383.4 Q 731.85 381.15 722.9 385.3 714.1 389.45 710.2 397.5 704.5 409 710 420.85 715.45 432.6 727.75 435.7 737.25 438 746.05 433.35 754.85 428.7 758.7 419.35 763.45 408.45 757.8 397.55 752.3 386.75 740.15 383.4 M 670.05 79.6 Q 680.15 84.4 686.4 92.1 690.15 96.2 691.25 96.2 692.3 96.2 699.1 101.3 L 727.4 123.8 Q 737.3 131.9 746.7 145.25 755.85 158.15 766.2 178.9 777.75 202.45 777.75 204.35 777.75 206.3 779.7 212.4 781.8 218.4 783.25 224.25 784.65 229.35 786.3 233.65 787.7 237.15 788.6 254.2 L 789.5 271.25 797 282.05 Q 808.55 299.4 808.55 306.1 808.55 308.6 811.9 319.1 815.2 328.8 815.3 334.55 815.5 340.5 812.65 341.35 810.15 342.1 810.1 342.95 810 343.85 811.9 346.35 813.9 348.95 813.9 351.3 813.9 354.1 817.25 360.55 819.3 364.55 819.85 367.4 820.35 370.25 819.75 374.75 818.7 383 816.4 388.5 814.8 392.15 814.3 397.7 813.75 403.3 813.55 417.3 813.2 433.6 813.65 437.15 813.9 440.6 816 443.1 821.9 449.4 821.9 455.85 821.9 459.8 824.95 461.05 826.65 461.7 827.55 463.35 828.55 465 829.05 468.35 L 831.3 480.95 Q 832.55 487.15 832.55 507.65 832.55 528.3 831.3 535.6 830.25 541.9 828.75 545.25 827.2 548.7 823.8 552.3 820.75 555.35 818.9 565.85 817.6 572.5 816.25 575.45 815 578.5 811.55 582.55 806.5 588.85 804.25 593.2 801.95 597.7 801.95 601.6 801.95 605.6 797.55 610.7 788.65 620.65 783.25 635.8 780.6 643.55 774 650.35 767.85 656.85 765.5 661.25 763.15 665.45 761.9 673.15 761.3 677.3 759.25 687.9 757.8 695.35 757.8 702.7 757.8 709.05 756.35 712.2 754.8 715.1 748.2 722.05 743.15 727.3 740.95 730.05 739.35 731.95 730.05 740.2 726.5 743.45 722.75 747.55 719.15 751.65 718.3 753.5 715.25 759.7 711.7 765.1 708.75 769.45 706.95 770.75 704.8 772.35 700.15 773.6 697.15 774.45 693.5 776.1 689.55 778.1 688.05 779.35 682.5 783.5 668.35 790.6 653.65 798 651.05 798 649.55 798 644.55 800.3 642.1 801.6 640.4 801.85 638.9 801.95 637.5 801.05 635.15 799.45 600.45 799.25 578.35 799.2 570.55 798.55 563.35 798.1 557.4 796.4 548.45 793.65 547.4 792.7 546.5 792.2 543.25 791.1 539.4 789.65 535.3 788.6 528.05 786.6 515.6 780.15 502.9 773.6 495.45 768.15 490.7 764.6 472.45 747.35 447.7 723.9 437.15 714.45 427.5 706.1 423.5 704.3 420.85 702.95 419.05 701.65 416.85 700.1 415.65 698.75 414.7 697.5 412.35 695.5 409.75 693.35 407.45 692.15 405.1 690.85 395.6 681.95 386.2 673.15 374.95 661.7 358.45 645.2 352.1 637.8 346.3 631.15 343.45 625.25 342.05 622.35 338.6 617 335.8 612.75 333.45 610 326.8 602.5 324.9 597.45 323 592.25 322.45 580.45 321.95 571.6 321.25 568.2 320.5 564.85 318.7 562.5 314.15 556.95 312.65 554.05 311.05 551.25 309.6 545.6 307.65 537.9 307.65 523.6 307.65 509.2 309.6 506.6 311.75 503.85 311.75 494.4 311.75 485.05 309.6 483.35 306.9 481.05 304.8 483.35 302.8 485.55 302.3 491.5 301.7 498.65 300 501.65 298.35 504.55 298.35 524.65 298.35 544.75 300 551.05 300.55 553.35 302.4 557.25 304.05 560.5 305.85 562.85 310.2 568.45 311.75 573.6 313.15 578.5 313.15 588.8 313.15 598 315.15 602.8 317 607.35 323.8 614.8 325.5 616.6 328.2 620.8 330.95 625.05 333.25 629.55 336.8 636.35 342.9 643.25 349 650.05 367.8 668.85 389.55 690.55 403.95 702.9 418.35 715.45 421.55 715.45 422.45 715.45 424.9 717.25 427.15 719.05 429.6 721.55 435.5 727.65 442.8 733.6 450.55 740 468.7 757.8 477.45 766.2 484 771.9 491.15 778.35 494.05 780.05 507.1 787.95 515.35 792.05 524.2 796.35 530.9 798.2 540.15 800.65 544.2 802.65 552.65 807.1 559.05 808 565.35 808.9 585.9 808.7 612.75 808.35 614.9 809.25 616.7 809.85 617.1 811.9 617.5 813.95 617.5 821.3 617.5 825.25 618 829.5 618.4 832.9 619 833.45 620.45 834.55 624.1 842.65 627.85 850.85 632 853.75 636.1 856.75 643.9 856.75 646.85 856.75 652.05 857.5 657.25 858.45 660.95 859.6 667.55 861.6 676.3 862.2 685.2 862.85 717.05 863.45 761.6 864.5 775.35 866.25 789.05 867.95 805.5 874.85 810.3 876.65 814.6 876.65 819.6 876.65 823.5 878.8 825.05 879.6 829.6 880.6 833.75 881.35 838.1 881.65 L 848.6 882.3 848.6 877.55 Q 848.6 874 847.95 873.4 847.25 872.75 843.25 872.75 837.9 872.75 830.25 870.05 822.15 867.4 819.4 867.4 816.25 867.4 800.7 862.2 786 857.3 768.8 855.65 751.6 854.05 715.1 854.05 688.9 854.05 681.9 853.6 675.15 853.05 667.05 850.7 661.9 849.2 656.7 848.3 651.45 847.3 647.65 847.3 644.7 847.3 641.45 846.95 638.6 846.6 638.2 846.2 637 845.3 631.8 835.2 628.4 828.3 627.7 825.45 626.9 822.35 627.15 817.2 627.35 812 628.05 810.5 628.55 809.2 630.7 808.75 633.6 808.3 636.4 811.1 639 813.75 640.9 813.75 642.9 813.6 646.7 810.7 648.45 809.4 651.3 808.3 653.4 807.25 656 806.6 660.9 805.7 665.05 803.1 669.2 800.6 670.95 800.6 671.75 800.6 676.3 798.2 682.1 794.95 686.8 792.1 692.45 788.6 698.55 785.55 704.15 782.7 706.75 781.95 711.45 780.8 716.85 775 722.2 769.15 726.65 760.25 727.95 757.65 731.35 753.35 735.05 748.95 738.1 746.15 L 748.9 735.5 Q 752.8 731.6 757.1 726.95 763.55 720.5 765.5 716.6 767.3 713.1 767.35 706.5 767.35 699.65 768.7 691.8 770.2 685.3 771.6 676.5 772.85 669.6 775.25 665.05 777.7 660.75 784.4 653.75 790.55 647.35 792.6 640.35 794.75 633.55 798.55 626.85 802.65 619.7 807.05 614.8 811.5 609.85 811.5 605.35 811.5 601.9 815 595.5 818.6 588.85 823.05 584.2 824.95 582.2 826.2 578.95 827.45 575.6 828.4 570.15 830.4 559.6 833.55 556.25 838.45 551.2 840 544 841.45 536.7 842.3 514.25 843.05 494.05 842.5 486.5 841.85 478.45 839.45 470.15 838.1 466.4 838.1 461.05 838.1 456.1 835.4 453.45 832.75 450.45 832.75 449.5 832.75 448.4 827.85 441.85 824.45 437.3 823.75 435.2 823.05 433.05 823.2 427.45 823.4 423 823.4 409.85 823.4 405.9 824.05 400.95 824.5 396.55 825.35 393.15 829.85 376.85 830.05 369.95 830.5 362.9 826.95 355.4 824.85 350.75 824.6 347.95 824.1 345.1 824.45 337.4 825.05 330.6 824.45 326.3 823.95 322.35 821.8 314.85 L 817.05 296.85 Q 815.55 290.4 807.4 278.55 L 799.2 266.6 798.65 252.2 Q 797.75 230.7 789.4 207.05 787.6 201.2 787.6 199.55 787.6 197.7 782.9 188.35 780.05 183 773.65 169.8 767.5 156.9 764.95 152.7 762.7 148.9 755.3 139.05 747.4 128.2 741.15 122.35 735.95 117.15 718.15 103.1 699.5 88.4 694.5 84.25 689.4 79.95 677.8 72.2 666.55 64.5 660.75 59.05 654.85 53.6 645.4 46.9 635.35 39.75 631.9 38.35 628.75 37.35 621.8 32.45 614.35 27.7 608.45 25.9 602.4 24.1 598.95 22.35 596.65 20.95 580.7 16.65 565.2 12.5 550.45 9.05 539.55 6.7 527.15 3.5 505.75 -1.75 423 1 392.35 2.05 381.8 2.95 370.3 4.1 368 6 366.4 7.45 360.3 8.5 357.85 8.9 354.2 10.1 350.45 11.25 348 12.6 342.05 15.75 340.05 15.75 338.25 15.75 329.55 21.65 316.8 30.25 306.45 35.45 296.2 40.6 284.15 44.4 278.95 46.15 273.75 48.2 267.55 50.85 264.55 52.45 255.95 57.1 245.7 60.4 239.2 62.55 236 64.45 232.75 66.3 229 70.2 224.35 74.85 222.1 78.35 220.05 81.5 215.3 91.4 212.8 96.65 206.5 103.7 200.4 110.55 195.4 113.6 191.55 116 189.05 120.5 186.55 125.25 186.55 129.8 186.55 135.1 184.5 141.75 182.6 148.4 182.6 153.45 182.6 157.2 180.9 161.65 179.25 166.15 176.55 169.1 173.65 172.5 169.25 181.35 164.95 189.7 163.7 194.35 161.65 203.35 158.6 227.3 156.5 244.05 150.05 257.05 147.6 261.7 147.2 265.5 146.65 268.75 146.65 281.9 146.65 300.25 145.4 302.4 143.65 305.45 142.55 336.3 141.3 367 142.55 373.9 144.2 384.05 145.05 394.7 145.95 403.95 147.05 407.75 148.25 411.65 153.05 421.05 159.95 434.3 159.95 439.95 159.95 445 164.05 453.25 168.15 460.95 168.15 463.35 168.15 465.85 172.45 478.75 176.75 491.65 178.15 493.25 180.85 497 185.4 505.7 191.6 516.6 195.6 521.4 199.3 525.7 204.15 534.7 207.7 542.05 210.75 546.3 213.05 549.55 215.3 558.75 218.05 569 220.2 575.25 222.05 580.65 222.45 589.4 222.8 598.95 222.8 632.65 222.8 666.2 222.45 676.4 222.05 685.85 220.2 692.75 219.05 696.85 217.35 701.15 215.75 705.1 214.65 706.85 211.8 710.85 208.6 723.85 205.4 736.85 205.4 744.55 205.4 752.55 202.7 759.9 200.15 767.15 195.95 770.9 194.35 772.3 193.2 774.05 192 775.6 192 776.4 192 777.4 189.85 781.6 187.65 786.1 184.75 791 177.45 804.25 177.45 805.9 177.45 808.85 174.65 812.7 171.6 816.8 163.55 825.05 159.75 829 154.5 833.5 149.9 837.1 147.7 838.15 144.55 839.35 138.2 845.45 132 851.55 132 853.25 132 853.75 129.15 854.25 125.85 854.8 122.25 855 111.7 856.05 107.3 858.4 102.1 861.25 92.2 863.95 75.9 868.95 68.7 871.9 61.25 875.05 58 878.15 54.2 882.2 46.95 886 42.05 888.4 38.15 888.9 33.55 889.4 20.05 889.4 L 0 889.4 0 899.25 21.1 899.25 Q 36.9 899.25 40.95 898.7 44.6 898.2 50.8 895.15 54.2 893.55 57.9 891.1 61.55 888.75 63.25 887.15 66.05 884.55 77.55 879.75 88.85 875.25 96.9 873.65 101.75 872.4 108.85 869.15 113.9 866.85 118.75 866.05 124.5 865.25 138.4 864.55 150.45 863.9 156.15 863.2 161.3 862.55 162.4 861.3 165.1 858.55 162.75 856.6 160.25 854.65 153.85 854.25 148.95 853.9 147.8 853.55 146.5 852.9 146.7 851.55 146.9 850.55 148.25 849.6 149.7 848.5 151.35 848 157.55 846.35 172.75 830.3 187.85 814.25 187.85 809.6 187.85 808.7 199.55 788.25 209.4 771.2 212.15 764.3 214.7 757.45 214.7 748.6 214.9 741.95 217.55 729.8 220.25 717.5 222.2 715.1 224.25 712.55 226 708.15 227.45 704.55 229.45 696.8 231.15 690.15 231.55 679.75 231.95 668.6 231.95 633.1 231.95 593.85 231.6 586.15 231.2 576.9 229.35 571.5 226.75 563.75 224.15 554.45 223.35 550.85 221.1 545.7 218.85 540.85 216.85 537.75 214.95 534.9 213.45 531.7 212.05 528.6 212.05 527.65 212.05 526.6 210.6 524.35 209.35 522.35 207.25 520.3 203.25 516.45 201.05 512.7 198.65 508.85 198.65 506.25 198.65 504.2 192.85 497.35 189.15 493.25 187.15 489 185.1 484.7 182.15 476 177.4 461.65 177.4 459.15 176.95 456.45 173.3 448.95 169.35 441.15 169.35 435.65 169.35 432.8 167.75 428.4 166.15 424.05 162.4 417 157.6 407.75 156.45 403.85 155.1 399.8 154.4 391 152.95 376.85 151.9 370.85 150.75 364.85 151.8 337.8 152.9 311.1 154.55 308.05 155.8 306 155.8 287.05 155.8 274.3 156.35 270.3 156.75 266.6 159.2 261.6 165.85 248.3 167.95 231.6 170.9 206.85 174 197.4 177.05 188.25 188.55 168.9 191.75 163.45 191.75 158.1 191.75 152.75 193.75 146.2 195.7 139.5 195.7 133.7 195.9 129.75 196.65 128.2 197.7 126.2 200.7 123.8 208.2 117.55 215.45 109.45 222.65 101.55 223.3 98.8 224.2 95.3 227.4 90.85 230.6 86.25 230.6 84.8 230.6 81.35 236.95 76.15 243.4 70.95 247.65 70.95 249.95 70.95 256.65 68.1 262.85 65.4 266.85 62.75 270.1 60.4 279.15 56.95 288.45 53.35 295.7 51.55 303.35 49.6 307.8 46.55 316.75 40.95 321.3 38.6 324.9 36.75 332 32.15 338.75 27.7 349 23.3 359.35 18.9 364.8 18.05 366.8 17.85 369.1 17 371.1 16.3 372.1 15.65 374.3 13.7 383.1 12.7 392.85 11.9 418.15 11 498.6 7.95 513.6 11.55 525.45 14.15 535.65 16.1 549.35 18.9 553.65 20.05 573.45 25.55 588.4 29.15 591.7 29.75 595.3 32.35 598.8 34.85 600.8 34.85 603 34.85 609.55 37.75 615.7 40.6 620.8 43.9 625.8 47.4 629.8 49.25 638.2 52.8 655.8 68.6 666.1 77.75 670.05 79.6 Z"/>
</g>
</defs>
<g transform="matrix(1,0,0,1,0,0)">
<use xlink:href="#l1"/>
</g>
<g transform="matrix(1,0,0,1,0,0)">
<use xlink:href="#l0"/>
</g>
</svg>
