<svg xmlns="http://www.w3.org/2000/svg" xmlns:xlink="http://www.w3.org/1999/xlink" width="100%" height="100%" viewBox="0 0 1024 483">
<!-- Vectorization by Rodrigo Polo https://github.com/rodrigopolo/logotipos-politicos -->
<defs>
<g id="l2">
<path fill="#32396F" stroke="none" d="M 384.85 469.7 L 384.85 465.1 375 465.1 375 451.2 368.6 451.2 368.6 469.7 384.85 469.7 M 400.15 456.85 Q 398.35 456 395.1 456 391.3 456 388.9 458 386.65 459.95 386.65 463.05 386.65 465.05 387.8 466.85 388.9 468.5 390.6 469.25 392.35 470 395.25 470 398.6 470 400.5 469.1 402.25 468.4 403.6 466.25 L 398 465.75 Q 397.6 466.35 397 466.6 396.1 467 395.35 467 394.15 467 393.2 466.05 392.6 465.45 392.5 464.25 L 403.95 464.25 403.95 463.65 Q 403.95 461.1 402.9 459.35 401.95 457.8 400.15 456.85 M 392.5 461.85 Q 392.6 460.65 393.2 460.05 394 459 395.35 459 396.4 459 397.25 459.7 398 460.5 398.1 461.85 L 392.5 461.85 M 335.85 469.7 L 335.85 451.2 330.2 451.2 330.2 469.7 335.85 469.7 M 351.1 456.25 Q 349.55 456 346.95 456 345.75 456 344.05 456.2 342.5 456.45 341.9 456.85 340.95 457.3 340.15 458.05 339.55 459 339.3 460.15 L 344.7 460.65 Q 345.05 459.8 345.55 459.45 346.25 459.1 347.7 459.1 348.85 459.1 349.25 459.45 349.7 459.9 349.7 460.75 348.05 461.25 347.65 461.35 L 343.5 462.2 Q 340.75 462.7 339.8 463.65 338.8 464.6 338.8 466.15 338.8 467.7 340.25 468.9 341.6 470 344.3 470 346.35 470 347.8 469.4 349 469 349.95 468.05 L 350.2 468.9 350.65 469.7 356 469.7 Q 355.55 469.1 355.4 468.3 L 355.3 460.9 Q 355.3 460.05 354.85 458.95 354.35 457.8 353.65 457.4 352.7 456.55 351.1 456.25 M 348.15 466.75 Q 347.45 467.1 346.45 467.1 345.4 467.1 345.05 466.75 344.55 466.4 344.55 465.75 344.55 465.3 345.05 464.85 345.4 464.45 347.2 464 L 349.7 463.3 349.7 464.2 Q 349.7 464.85 349.35 465.75 348.95 466.35 348.15 466.75 M 469.3 465.45 Q 468.75 464.95 468.75 463.65 L 468.75 456.35 463.1 456.35 463.1 464.85 Q 463.1 467.45 464.4 468.75 465.65 470 468.1 470 469.65 470 471.1 469.4 472.05 469 473.5 467.55 L 473.5 469.7 478.85 469.7 478.85 456.35 473.05 456.35 473.05 462.7 Q 473.05 464.6 472.45 465.3 471.8 466 470.75 466 469.8 466 469.3 465.45 M 422.45 456.35 L 416.85 456.35 414 465.2 410.9 456.35 404.9 456.35 411.15 469.7 Q 410.55 470.8 410.05 471.15 409.6 471.55 408.4 471.55 406.8 471.55 405.75 471.25 L 406.2 474.85 409.95 475.1 Q 413.05 475.1 414.5 473.9 415.55 473.1 416.6 470.65 L 422.45 456.35 M 427.75 468.8 L 427.75 464.6 421.65 464.6 421.65 469.7 424.6 469.7 Q 424.4 470.65 423.9 471.3 423.2 472 421.65 472.6 L 423.05 474.85 Q 425.6 473.8 426.65 472.5 427.75 471.15 427.75 468.8 M 440.4 460.4 Q 440.4 463.9 441.95 466.05 443.5 468.3 445.65 469.15 447.95 470 451.05 470 453.8 470 455.6 469.25 457.5 468.55 458.6 467.2 459.75 466 460.45 463.65 L 454.85 462.1 Q 454.5 463.75 453.45 464.8 452.5 465.75 450.7 465.75 448.8 465.75 447.8 464.6 446.75 463.5 446.75 460.4 446.75 458 447.6 456.7 448.8 455.15 450.95 455.15 451.65 455.15 452.7 455.5 453.45 455.95 454 456.55 454.35 456.85 454.6 457.8 L 460.25 456.6 Q 459.05 453.7 456.9 452.3 454.75 450.95 450.8 450.95 445.8 450.95 443.15 453.35 440.4 455.85 440.4 460.4 M 536.1 451.2 L 530.3 451.2 530.3 469.7 536.1 469.7 536.1 451.2 M 545.6 456.35 L 539.85 456.35 539.85 469.7 545.6 469.7 545.6 456.35 M 539.85 451.2 L 539.85 454.7 545.6 454.7 545.6 451.2 539.85 451.2 M 561.95 456.85 Q 560.25 456 556.95 456 553 456 550.8 458 548.55 459.9 548.55 463.05 548.55 465.2 549.65 466.85 550.6 468.5 552.4 469.25 554.2 470 557.15 470 560.4 470 562.3 469.1 564 468.4 565.5 466.25 L 559.8 465.75 Q 559.4 466.25 558.85 466.6 558 467 557.25 467 555.85 467 555.1 466.05 554.5 465.55 554.3 464.25 L 565.75 464.25 565.75 463.65 Q 565.75 460.9 564.8 459.35 563.85 457.75 561.95 456.85 M 554.3 461.85 Q 554.55 460.5 555 460.05 555.75 459 557.15 459 558.25 459 559.1 459.7 559.7 460.3 560 461.85 L 554.3 461.85 M 507.55 469.7 L 507.55 461.25 Q 507.55 458.6 506.25 457.3 504.85 456 502.45 456 501 456 499.7 456.45 498.5 457.05 497.3 458.25 496.6 457.15 495.6 456.6 494.65 456 492.75 456 491.2 456 489.9 456.55 488.8 457.05 487.6 458.25 L 487.6 456.35 482.25 456.35 482.25 469.7 488.05 469.7 488.05 462.9 Q 488.05 461.25 488.65 460.65 489.3 459.95 490.25 459.95 490.8 459.95 491.3 460.3 491.55 460.5 492 461.1 L 492.05 469.7 497.85 469.7 497.85 462.8 Q 497.85 461.25 498.45 460.65 498.95 460.05 500.05 460.05 501 460.05 501.45 460.75 501.85 461.15 501.85 462.1 L 501.85 469.7 507.55 469.7 M 521.1 456 Q 519.6 456 518.35 456.6 517.5 456.95 516.3 458.35 L 516.3 456.35 511 456.35 511 474.75 516.75 474.75 516.75 468.4 Q 517.75 469.25 518.7 469.6 519.85 470 521.1 470 523.8 470 525.6 468.2 527.4 466.6 527.4 463.15 527.4 460.05 525.75 458.05 524.15 456 521.1 456 M 516.75 463.05 Q 516.75 461.45 517.45 460.55 518.2 459.8 519.25 459.8 520.35 459.8 520.95 460.55 521.7 461.35 521.7 463 521.7 464.7 521.05 465.4 520.25 466.15 519.3 466.15 518.2 466.15 517.45 465.4 516.75 464.5 516.75 463.05 M 608.75 468.4 Q 611.05 470 614.5 470 618.45 470 620.85 468.05 623.1 466 623.1 463 623.1 460.3 621.3 458.35 618.95 456 614.5 456 610.7 456 608.3 458 605.95 459.95 605.95 463.05 605.95 466.35 608.75 468.4 M 616.55 460.4 Q 617.3 461.15 617.3 463 617.3 464.85 616.55 465.65 615.75 466.5 614.55 466.5 613.3 466.5 612.5 465.65 611.75 464.85 611.75 463.05 611.75 461.35 612.5 460.4 613.3 459.55 614.55 459.55 615.75 459.55 616.55 460.4 M 582.75 457.3 Q 581.45 456 579.05 456 577.25 456 576.15 456.6 574.85 457.15 573.75 458.5 L 573.75 456.35 568.4 456.35 568.4 469.7 574.1 469.7 574.1 463.25 Q 574.1 461.45 574.75 460.75 575.35 460.05 576.4 460.05 577.35 460.05 577.85 460.55 578.4 461.1 578.4 462.35 L 578.4 469.7 584.15 469.7 584.15 461.15 Q 584.15 458.4 582.75 457.3 M 603.2 451.2 L 597.45 451.2 597.45 457.65 Q 596.7 456.85 595.5 456.45 594.35 456 593.1 456 590.4 456 588.6 457.8 586.8 459.55 586.8 462.9 586.8 465.9 588.45 467.9 590.05 470 593.1 470 594.35 470 595.85 469.4 596.85 468.8 597.9 467.7 L 597.9 469.7 603.2 469.7 603.2 451.2 M 594.95 466.25 Q 593.95 466.25 593.25 465.45 592.55 464.8 592.55 463.05 592.55 461.25 593.15 460.55 593.95 459.8 594.9 459.8 595.9 459.8 596.8 460.65 597.45 461.35 597.45 463 597.45 464.8 596.8 465.45 596 466.25 594.95 466.25 M 148.7 456 Q 147.05 456 145.85 456.6 144.9 457.05 143.9 458.35 L 143.9 456.25 138.55 456.25 138.55 474.75 144.3 474.75 144.3 468.4 Q 145.1 469.15 146.2 469.6 147.5 470 148.6 470 151.35 470 153.2 468.2 154.9 466.35 154.9 463.15 154.9 460.05 153.25 458.05 151.7 456 148.7 456 M 148.55 460.55 Q 149.2 461.45 149.2 463 149.2 464.7 148.55 465.4 147.95 466.15 146.9 466.15 145.8 466.15 145 465.4 144.25 464.6 144.25 463.05 144.25 461.35 145 460.55 145.7 459.8 146.8 459.8 147.75 459.8 148.55 460.55 M 87.75 456.6 Q 86.55 453.6 84.4 452.3 82.25 450.95 78.3 450.95 73.3 450.95 70.65 453.35 68 455.75 68 460.4 68 463.9 69.55 466.05 70.9 468.2 73.15 469.15 75.55 470 78.65 470 81.4 470 83.2 469.25 84.9 468.65 86.2 467.2 87.4 465.75 87.95 463.65 L 82.35 462.1 Q 82 463.85 81.05 464.8 79.95 465.75 78.3 465.75 76.4 465.75 75.35 464.6 74.35 463.5 74.35 460.4 74.35 457.8 75.2 456.7 76.4 455.15 78.45 455.15 79.15 455.15 80.2 455.5 80.95 455.95 81.5 456.55 81.75 456.8 82.15 457.8 L 87.75 456.6 M 106.3 469.7 L 106.3 456.25 100.65 456.25 100.65 462.7 Q 100.65 464.45 99.95 465.3 99.25 466 98.35 466 97.4 466 96.85 465.45 96.35 464.95 96.35 463.65 L 96.35 456.25 90.6 456.25 90.6 464.85 Q 90.6 467.45 91.95 468.75 93.25 470 95.6 470 97.2 470 98.6 469.4 99.7 469 101 467.55 L 101 469.7 106.3 469.7 M 120.35 456 Q 118.7 456 117.5 456.55 116.4 457.05 115.2 458.25 L 115.2 456.25 109.85 456.25 109.85 469.7 115.5 469.7 115.5 462.9 Q 115.5 461.35 116.2 460.65 116.9 459.95 117.75 459.95 118.2 459.95 118.9 460.3 119.3 460.55 119.5 461.1 L 119.55 469.7 125.3 469.7 125.3 462.8 Q 125.3 461.25 125.9 460.65 126.55 460.05 127.55 460.05 128.4 460.05 129 460.75 129.35 461.1 129.35 462.1 L 129.35 469.7 135.1 469.7 135.1 461.25 Q 135.1 458.7 133.75 457.3 132.45 456 129.95 456 128.4 456 127.3 456.45 126.25 456.85 124.8 458.25 124.1 457.15 123.1 456.6 122.15 456 120.35 456 M 224.95 457.65 Q 224.35 456.95 223.05 456.45 221.8 456 220.65 456 217.9 456 216.1 457.8 214.4 459.45 214.4 462.9 214.4 465.8 215.95 467.9 217.65 470 220.6 470 221.95 470 223.35 469.4 224.25 469 225.4 467.7 L 225.4 469.7 230.7 469.7 230.7 451.2 224.95 451.2 224.95 457.65 M 224.25 460.55 Q 225.05 461.35 225.05 463 225.05 464.7 224.25 465.45 223.65 466.25 222.45 466.25 221.45 466.25 220.75 465.45 220.05 464.6 220.05 463.05 220.05 461.45 220.75 460.55 221.45 459.8 222.4 459.8 223.35 459.8 224.25 460.55 M 163.6 469.7 L 163.6 451.2 157.8 451.2 157.8 469.7 163.6 469.7 M 173.1 469.7 L 173.1 456.25 167.45 456.25 167.45 469.7 173.1 469.7 M 173.1 454.7 L 173.1 451.2 167.45 451.2 167.45 454.7 173.1 454.7 M 189.55 456.85 Q 187.75 456 184.45 456 180.5 456 178.3 458 176.05 459.95 176.05 463.05 176.05 465.2 177.15 466.85 178.3 468.5 180 469.25 181.7 470 184.65 470 188 470 189.9 469.1 191.6 468.4 193 466.25 L 187.4 465.75 Q 186.7 466.4 186.35 466.6 185.5 467 184.75 467 183.5 467 182.6 466.05 182 465.45 181.9 464.25 L 193.3 464.25 193.3 463.65 Q 193.3 461.1 192.3 459.35 191.35 457.8 189.55 456.85 M 184.75 459 Q 185.75 459 186.6 459.7 187.4 460.5 187.5 461.75 L 181.9 461.75 Q 182.05 460.5 182.5 460.05 183.45 459 184.75 459 M 201.25 456.25 L 195.9 456.25 195.9 469.7 201.65 469.7 201.65 463.25 Q 201.65 461.35 202.25 460.75 202.85 460.05 204 460.05 204.95 460.05 205.45 460.55 205.95 461.1 205.95 462.3 L 205.95 469.7 211.65 469.7 211.65 461.15 Q 211.65 458.5 210.35 457.3 208.95 456 206.65 456 204.85 456 203.65 456.6 202.25 457.2 201.25 458.5 L 201.25 456.25 M 284.1 468.3 Q 286.35 470 289.95 470 293.8 470 296.25 468.05 298.45 466.05 298.45 463 298.45 460.3 296.65 458.35 294.35 456 289.85 456 286.1 456 283.7 458 281.35 459.95 281.35 463.05 281.35 466.35 284.1 468.3 M 289.95 459.55 Q 291.15 459.55 291.95 460.4 292.8 461.15 292.8 463 292.8 464.85 291.95 465.65 291.15 466.5 289.95 466.5 288.75 466.5 287.9 465.65 287.1 464.85 287.1 463.05 287.1 461.35 287.9 460.4 288.75 459.55 289.95 459.55 M 311.95 456 Q 310.15 456 308.95 456.6 307.6 457.2 306.55 458.5 L 306.55 456.35 301.2 456.35 301.2 469.7 306.95 469.7 306.95 463.25 Q 306.95 461.35 307.6 460.75 308.2 460.05 309.3 460.05 310.25 460.05 310.75 460.55 311.25 461.1 311.25 462.35 L 311.25 469.7 316.95 469.7 316.95 461.15 Q 316.95 458.5 315.65 457.3 314.3 456 311.95 456 M 250.6 463 Q 250.6 460.3 248.75 458.35 246.45 456 242.05 456 238.2 456 235.8 458 233.55 459.9 233.55 463.05 233.55 466.4 236.2 468.3 238.45 470 242.05 470 245.95 470 248.35 468.05 250.6 466.05 250.6 463 M 244.9 463 Q 244.9 464.85 244.15 465.65 243.25 466.5 242.05 466.5 240.85 466.5 240 465.65 239.25 464.85 239.25 463.05 239.25 461.25 240.1 460.4 240.85 459.55 242.15 459.55 243.25 459.55 244.15 460.4 244.9 461.15 244.9 463 M 270.95 456 Q 268.2 456 266.65 456.6 265.7 456.95 264.6 457.8 263.45 458.75 263.05 459.6 262.25 461.1 262.25 463.05 262.25 465.1 262.85 466.25 263.55 467.45 264.7 468.3 265.9 469.25 267.45 469.6 269.15 470 271.3 470 273.45 470 275.4 469.4 276.9 468.8 278 467.7 279.1 466.5 279.45 465.05 L 274.05 464.45 Q 273.7 465.55 272.95 466.05 272.15 466.6 271.05 466.6 269.85 466.6 268.8 465.75 267.95 464.85 267.95 463.25 267.95 461.35 268.8 460.4 269.65 459.55 271.15 459.55 272.05 459.55 272.95 459.95 273.55 460.3 273.8 461.25 L 279.2 460.55 Q 278.45 458.4 276.45 457.2 274.55 456 270.95 456 M 722.7 456.1 Q 721.95 454.1 721 453.15 719.7 451.9 718.15 451.45 716.55 450.95 713.1 450.95 709.5 450.95 707.5 451.8 704.75 453 703.4 455.25 702 457.55 702 460.5 702 463.4 703.3 465.55 704.6 467.8 706.9 468.9 709.4 470 712.85 470 715.4 470 718 469.4 720.25 468.75 723 467 L 723 459.2 713.2 459.2 713.2 463 717.4 463 717.4 464.8 Q 716.2 465.4 715.15 465.65 714.4 466 713.2 466 710.95 466 709.65 464.7 708.35 463.4 708.35 460.4 708.35 457.55 709.65 456.25 710.85 455 713 455 714.4 455 715.25 455.5 716.2 456.2 716.55 457.15 L 722.7 456.1 M 650.5 467.7 Q 651.45 466.65 651.95 465.05 L 646.55 464.45 Q 646.2 465.45 645.35 466.05 644.55 466.6 643.45 466.6 642.15 466.6 641.3 465.75 640.45 464.85 640.45 463.25 640.45 461.35 641.3 460.4 642.1 459.55 643.55 459.55 644.65 459.55 645.35 459.95 646.05 460.4 646.3 461.25 L 651.6 460.55 Q 650.85 458.35 648.95 457.2 647 456 643.35 456 640.7 456 639.15 456.6 638.3 456.85 637.1 457.8 636.05 458.6 635.55 459.6 634.75 460.85 634.75 463.05 634.75 465.1 635.4 466.25 636.05 467.45 637.2 468.3 638.2 469.15 639.85 469.6 641.55 470 643.8 470 646.05 470 647.85 469.4 649.4 468.8 650.5 467.7 M 668.75 468.05 Q 670.95 466 670.95 463 670.95 460.3 669.15 458.35 666.85 456 662.35 456 658.6 456 656.2 458 653.85 459.95 653.85 463.05 653.85 466.35 656.6 468.4 658.95 470 662.35 470 666.3 470 668.75 468.05 M 659.6 463.05 Q 659.6 461.35 660.4 460.4 661.15 459.55 662.45 459.55 663.65 459.55 664.45 460.4 665.2 461.15 665.2 463 665.2 464.85 664.45 465.65 663.65 466.5 662.45 466.5 661.15 466.5 660.4 465.65 659.6 464.85 659.6 463.05 M 688.15 457.3 Q 686.8 456 684.4 456 682.55 456 681.45 456.6 680.15 457.15 679.05 458.5 L 679.05 456.35 673.7 456.35 673.7 469.7 679.4 469.7 679.4 463.25 Q 679.4 461.45 680.1 460.75 680.7 460.05 681.7 460.05 682.65 460.05 683.15 460.55 683.7 461.1 683.7 462.35 L 683.7 469.7 689.45 469.7 689.45 461.15 Q 689.45 458.6 688.15 457.3 M 790.05 469.1 Q 791.75 468.4 793.15 466.25 L 787.45 465.75 Q 787 466.25 786.5 466.6 785.65 467 784.9 467 783.5 467 782.75 466.05 782.2 465.55 781.95 464.25 L 793.4 464.25 793.4 463.65 Q 793.4 460.9 792.45 459.35 791.5 457.75 789.6 456.85 787.9 456 784.6 456 780.65 456 778.45 458 776.2 459.95 776.2 463.05 776.2 465.4 777.3 466.85 778.5 468.55 780.15 469.25 781.85 470 784.8 470 787.95 470 790.05 469.1 M 784.9 459 Q 785.9 459 786.75 459.7 787.55 460.5 787.65 461.85 L 782.05 461.85 Q 782.2 460.5 782.65 460.05 783.6 459 784.9 459 M 736.3 462.7 Q 736.3 464.6 735.7 465.3 735 466 734 466 733.05 466 732.5 465.45 732 464.95 732 463.65 L 732 456.35 726.35 456.35 726.35 464.85 Q 726.35 467.45 727.6 468.75 729.1 470 731.3 470 732.85 470 734.35 469.4 735.55 468.9 736.75 467.55 L 736.75 469.7 742.05 469.7 742.05 456.35 736.3 456.35 736.3 462.7 M 757.1 456.25 Q 755.55 456 753 456 751.85 456 749.95 456.2 748.75 456.45 747.8 456.85 746.9 457.3 746.1 458.05 745.5 459 745.25 460.15 L 750.65 460.65 Q 751 459.95 751.6 459.45 752.2 459.1 753.65 459.1 754.85 459.1 755.2 459.45 755.65 459.9 755.65 460.75 754.25 461.25 753.65 461.35 L 749.45 462.2 Q 746.7 462.7 745.75 463.65 744.8 464.6 744.8 466.15 744.8 467.8 746.2 468.9 747.75 470 750.25 470 752.3 470 753.75 469.4 754.95 469 756 468.05 L 756.15 468.9 756.6 469.7 761.9 469.7 761.3 468.3 761.25 460.9 Q 761.25 460.05 760.8 458.95 760.45 458 759.7 457.4 758.75 456.55 757.1 456.25 M 754.2 466.75 Q 753.4 467.1 752.4 467.1 751.45 467.1 751 466.75 750.5 466.4 750.5 465.8 750.5 465.3 751 464.85 751.5 464.35 753.25 464 L 755.65 463.3 755.65 464.2 Q 755.65 465.1 755.3 465.75 754.85 466.35 754.2 466.75 M 765.35 456.35 L 763.2 456.35 763.2 460.05 765.35 460.05 765.35 464.8 Q 765.35 467.2 765.8 468.05 766.3 469 767.35 469.5 768.3 470 770.45 470 772.05 470 774.4 469.6 L 773.95 466.05 772.25 466.4 Q 771.45 466.4 771.2 466 771.05 465.45 771.05 464.8 L 771.05 460.05 774.2 460.05 774.2 456.35 771.05 456.35 771.05 451.2 765.35 453.85 765.35 456.35 M 816.25 456 Q 814.7 456 813.5 456.55 812.4 456.95 811.1 458.25 810.4 457.15 809.4 456.6 808.45 456 806.55 456 805 456 803.7 456.55 802.6 457.05 801.4 458.25 L 801.4 456.35 796.05 456.35 796.05 469.7 801.8 469.7 801.8 462.9 Q 801.8 461.25 802.4 460.65 803.1 459.95 804.05 459.95 804.55 459.95 805.1 460.3 805.35 460.5 805.75 461.1 L 805.85 469.7 811.6 469.7 811.6 462.8 Q 811.6 461.25 812.2 460.65 812.75 460.05 813.85 460.05 814.8 460.05 815.2 460.75 815.65 461.15 815.65 462.1 L 815.65 469.7 821.35 469.7 821.35 461.25 Q 821.35 458.6 820.05 457.3 818.65 456 816.25 456 M 346.45 417.4 L 349.7 417.4 355.1 412.85 349.25 412.85 346.45 417.4 M 353.15 418.7 L 345.55 418.7 345.55 440.85 353.15 440.85 353.15 418.7 M 373.75 418.7 L 365.45 418.7 356.15 440.85 363.95 440.85 365.15 437.25 373.85 437.25 375.05 440.85 382.95 440.85 373.75 418.7 M 369.45 424.45 L 372.2 432.45 366.8 432.45 369.45 424.45 M 415.4 419 Q 413.15 418.35 409.3 418.35 404.9 418.35 402.55 419.45 399.4 420.75 397.65 423.5 395.95 426.25 395.95 429.75 395.95 433.3 397.5 435.85 398.95 438.45 401.8 439.9 404.8 441.3 408.95 441.3 412.55 441.3 415.1 440.5 417.6 439.75 421.15 437.7 L 421.15 428.2 409.35 428.2 409.35 432.85 414.45 432.85 414.45 434.95 Q 412.55 435.85 411.75 436.05 410.75 436.4 409.35 436.4 406.6 436.4 405.15 434.85 403.6 433.3 403.6 429.7 403.6 426.35 405.15 424.8 406.6 423.25 409.1 423.25 410.9 423.25 411.85 423.85 413.05 424.6 413.4 425.8 L 420.8 424.6 Q 420.2 422.55 418.75 421.1 417.45 419.7 415.4 419 M 446.4 440.85 L 446.4 435.85 433.25 435.85 433.25 431.5 445.1 431.5 445.1 426.95 433.25 426.95 433.25 423.4 446.05 423.4 446.05 418.7 425.6 418.7 425.6 440.85 446.4 440.85 M 474.2 418.7 L 466.95 418.7 466.95 430.95 457.7 418.7 450.55 418.7 450.55 440.85 457.75 440.85 457.75 428.75 466.95 440.85 474.2 440.85 474.2 418.7 M 498.7 431.5 L 498.7 426.95 486.8 426.95 486.8 423.4 499.65 423.4 499.65 418.7 479.15 418.7 479.15 440.85 499.95 440.85 499.95 435.85 486.8 435.85 486.8 431.5 498.7 431.5 M 522.3 419.3 Q 520.1 418.7 516.9 418.7 L 504.2 418.7 504.2 440.85 511.85 440.85 511.85 431.9 512.5 431.9 Q 513.55 431.9 514.4 432.45 515.1 432.95 515.8 434.05 L 519.85 440.85 528.45 440.85 524.75 434.4 523.7 433.05 522.5 431.9 520.5 431.05 Q 521.9 430.9 523.2 430.2 524.55 429.5 525.6 428.05 526.45 426.85 526.45 424.85 526.45 422.7 525.35 421.25 524.15 419.8 522.3 419.3 M 518.05 423.75 Q 518.8 424.45 518.8 425.4 518.8 426.15 518.3 426.65 517.95 427.2 517.1 427.35 515.7 427.7 515 427.7 L 511.85 427.7 511.85 423.15 515.2 423.15 Q 517.15 423.15 518.05 423.75 M 545.95 418.7 L 537.65 418.7 528.45 440.85 536.15 440.85 537.35 437.25 546.05 437.25 547.25 440.85 555.25 440.85 545.95 418.7 M 541.75 424.45 L 544.5 432.45 539 432.45 541.75 424.45 M 577.15 440.85 L 577.15 435.45 565.3 435.45 565.3 418.7 557.65 418.7 557.65 440.85 577.15 440.85 M 614.3 425.45 Q 613.8 423.6 612.4 421.85 610.95 420.3 609 419.55 606.65 418.7 603.55 418.7 L 592.2 418.7 592.2 440.85 603.55 440.85 Q 605.8 440.85 608.1 440.25 609.75 439.9 611.55 438.55 613.3 437 614.05 435.2 614.9 433.4 614.9 429.7 614.9 427.25 614.3 425.45 M 606.05 425.05 Q 607.25 426.4 607.25 429.85 607.25 432.6 606.75 433.7 606.15 434.85 605.1 435.35 604.1 435.85 601.75 435.85 L 599.85 435.85 599.85 423.75 601.75 423.75 Q 604.75 423.75 606.05 425.05 M 626.6 426.95 L 626.6 423.4 639.35 423.4 639.35 418.7 618.95 418.7 618.95 440.85 639.75 440.85 639.75 435.85 626.6 435.85 626.6 431.5 638.45 431.5 638.45 426.95 626.6 426.95 M 92.9 420.5 Q 90.85 418.7 86.7 418.7 L 74 418.7 74 440.85 81.75 440.85 81.75 432.6 85.85 432.6 Q 90.4 432.6 92.75 430.8 94.95 428.8 94.95 425.55 94.95 422.3 92.9 420.5 M 86.65 427.45 Q 85.85 428.15 83.55 428.15 L 81.75 428.15 81.75 423.25 83.9 423.25 Q 85.95 423.25 86.8 423.9 87.6 424.7 87.6 425.75 87.6 426.75 86.65 427.45 M 117.15 419.3 Q 115.1 418.7 111.75 418.7 L 99 418.7 99 440.85 106.65 440.85 106.65 431.9 107.35 431.9 Q 108.45 431.9 109.25 432.45 109.85 432.8 110.6 434.05 L 114.65 440.85 123.35 440.85 119.65 434.4 Q 119.15 433.65 118.55 433.05 L 117.35 431.9 115.35 431.05 Q 117 430.8 118 430.2 119.4 429.5 120.4 428.05 121.3 426.85 121.3 424.85 121.3 422.7 120.15 421.25 118.95 419.8 117.15 419.3 M 113.65 425.4 Q 113.65 426.05 113.2 426.65 112.75 427.2 111.9 427.35 110.6 427.7 109.95 427.7 L 106.65 427.7 106.65 423.15 110 423.15 Q 112.1 423.15 112.95 423.75 113.65 424.45 113.65 425.4 M 127.55 421.35 Q 124.2 424.45 124.2 429.75 124.2 433.65 125.9 436.3 127.55 438.8 130.3 440.1 133.15 441.3 137.25 441.3 141.3 441.3 144.05 439.85 146.8 438.55 148.25 435.95 149.75 433.65 149.75 429.6 149.75 424.35 146.4 421.35 143.1 418.35 136.95 418.35 131 418.35 127.55 421.35 M 133.25 424.95 Q 134.7 423.5 136.95 423.5 139.25 423.5 140.7 424.95 142.15 426.4 142.15 429.5 142.15 433.1 140.8 434.65 139.35 436.15 137 436.15 134.5 436.15 133.25 434.65 131.85 433.3 131.85 429.85 131.85 426.4 133.25 424.95 M 172.8 420.05 Q 170 418.35 165.45 418.35 159.6 418.35 156.2 421.25 153 424.2 153 429.75 153 433.9 154.8 436.45 156.55 439.05 159.2 440.25 161.75 441.3 165.8 441.3 168.9 441.3 171.25 440.45 173.45 439.55 174.85 437.85 176.2 436.2 177 433.65 L 170.3 431.85 Q 169.75 434.05 168.65 435 167.55 436.15 165.4 436.15 163.15 436.15 161.85 434.75 160.55 433.4 160.55 429.7 160.55 426.65 161.7 425.3 162.95 423.5 165.65 423.5 166.95 423.5 167.7 423.9 168.55 424.25 169.25 425.1 169.6 425.45 170 426.6 L 176.75 425.2 Q 175.45 421.75 172.8 420.05 M 203.65 435.6 Q 204.35 433.8 204.35 431.9 L 204.35 418.7 196.65 418.7 196.65 432.25 Q 196.65 434.05 195.55 435.1 194.55 436.15 192.45 436.15 190.55 436.15 189.35 435.1 188.25 434 188.25 432.25 L 188.25 418.7 180.7 418.7 180.7 431.9 Q 180.7 433.4 181.35 435.7 181.7 436.9 183 438.2 184.05 439.3 185.6 440.15 186.85 440.75 189.2 441.05 L 193.05 441.3 Q 196.25 441.3 198.4 440.5 200.1 440 201.5 438.7 203.05 437.35 203.65 435.6 M 222.1 418.7 L 209.5 418.7 209.5 440.85 217.15 440.85 217.15 431.9 217.8 431.9 Q 218.85 431.9 219.65 432.45 220.25 432.8 221 434.05 L 225.15 440.85 233.65 440.85 233.75 440.75 230.05 434.4 229 433.05 Q 228.05 432.1 227.7 431.9 L 225.75 431.05 Q 227.35 430.8 228.4 430.2 230.05 429.4 230.8 428.05 231.75 426.65 231.75 424.85 231.75 422.9 230.55 421.25 229.35 419.8 227.55 419.3 225.45 418.7 222.1 418.7 M 217.15 423.15 L 220.5 423.15 Q 222.45 423.15 223.3 423.75 224 424.35 224 425.4 224 426.25 223.6 426.65 223.15 427.2 222.3 427.35 221 427.7 220.3 427.7 L 217.15 427.7 217.15 423.15 M 251.35 437.25 L 252.55 440.85 260.55 440.85 251.25 418.7 242.95 418.7 233.75 440.75 233.75 440.85 241.45 440.85 242.65 437.25 251.35 437.25 M 244.3 432.45 L 246.95 424.45 249.7 432.45 244.3 432.45 M 318.6 418.7 L 318.6 440.85 326.25 440.85 326.25 431.9 326.85 431.9 Q 327.95 431.9 328.7 432.45 329.3 432.8 330.1 434.05 L 334.2 440.85 342.8 440.85 339.1 434.4 Q 338.6 433.65 338 433.05 L 336.8 431.9 334.85 431.05 Q 336.45 430.8 337.5 430.2 338.85 429.5 339.9 428.05 340.75 426.85 340.75 424.85 340.75 422.7 339.65 421.25 338.45 419.8 336.65 419.3 334.55 418.7 331.2 418.7 L 318.6 418.7 M 329.6 423.15 Q 331.55 423.15 332.4 423.75 333.1 424.45 333.1 425.4 333.1 426.25 332.7 426.65 332.25 427.2 331.4 427.35 330.1 427.7 329.4 427.7 L 326.25 427.7 326.25 423.15 329.6 423.15 M 285.75 429.7 Q 285.75 427.25 285.15 425.45 284.45 423.25 283.15 421.85 281.85 420.3 279.8 419.55 277.5 418.7 274.4 418.7 L 263.05 418.7 263.05 440.85 274.4 440.85 Q 276.55 440.85 278.95 440.25 280.65 439.9 282.3 438.55 284.1 437.05 284.9 435.2 285.75 433.4 285.75 429.7 M 276.8 425.05 Q 278.1 426.35 278.1 429.85 278.1 432.6 277.5 433.7 276.95 434.85 275.95 435.35 274.9 435.85 272.5 435.85 L 270.7 435.85 270.7 423.75 272.6 423.75 Q 275.5 423.75 276.8 425.05 M 313.4 418.7 L 305.75 418.7 305.75 432.25 Q 305.75 434.05 304.65 435.1 303.6 436.15 301.55 436.15 299.65 436.15 298.45 435.1 297.35 434 297.35 432.25 L 297.35 418.7 289.8 418.7 289.8 431.9 Q 289.8 433.4 290.45 435.7 290.8 436.9 292.1 438.2 293.15 439.3 294.7 440.15 295.95 440.75 298.3 441.05 L 302.15 441.3 Q 305.35 441.3 307.5 440.5 309.2 440 310.6 438.7 311.95 437.5 312.75 435.6 313.4 433.8 313.4 431.9 L 313.4 418.7 M 265.7 137.4 Q 256.95 119.15 222.2 112.45 190.55 106.25 136.15 109.35 L 79.6 109.35 79.6 120.7 Q 93.15 124.65 98.15 137.05 L 98.15 352.55 Q 95.85 363.25 88 366.4 L 81.75 366.4 81.75 380.75 159.7 380.75 159.7 366.6 Q 150.1 370.3 143.35 353.45 L 143.35 303.75 Q 200.05 291.25 234.75 268.65 271.55 244.7 284.45 209 291.35 171.45 265.7 137.4 M 239.5 167.3 Q 246.2 182.5 243.35 195.85 240.8 207.55 229.85 221.45 216.3 239 193.9 252.05 173.55 264 145.2 272.8 L 145.8 138.1 Q 223 130.25 239.5 167.3 M 490.6 149.95 Q 502.55 162.05 495.95 179.95 L 510.1 190.25 554.55 145.15 Q 501.95 95.85 438.5 100.15 410.05 102.15 384.25 115.2 358.8 128 339.9 149.7 282.8 225 336.65 325.05 363.35 365.2 416.6 380.15 473.65 396.15 562.3 383.7 L 564.3 372.1 Q 554.3 366.25 550.1 353.45 L 551.4 253.45 563 245.7 563.6 229.65 490.1 229.65 490.75 241.85 507.55 257.3 504.95 352.75 Q 448.75 359.9 412.45 336.65 378.6 315 361.15 266.35 354.1 199.9 379.2 168.35 392.15 150.35 415.45 141.85 436.55 134.1 458.2 136.55 479.75 138.85 490.6 149.95 M 662.95 418.7 L 655.3 418.7 655.3 440.85 674.85 440.85 674.85 435.45 662.95 435.45 662.95 418.7 M 694.7 440.85 L 702.7 440.85 693.4 418.7 685.05 418.7 675.8 440.85 683.6 440.85 684.8 437.25 693.5 437.25 694.7 440.85 M 689.1 424.45 L 691.85 432.45 686.45 432.45 689.1 424.45 M 740.25 418.7 L 733.05 418.7 733.05 430.95 723.75 418.7 716.6 418.7 716.6 440.85 723.85 440.85 723.85 428.75 733.05 440.85 740.25 440.85 740.25 418.7 M 760.05 418.7 L 751.7 418.7 742.5 440.85 750.25 440.85 751.45 437.25 760.1 437.25 761.3 440.85 769.3 440.85 760.05 418.7 M 758.5 432.45 L 753.05 432.45 755.8 424.45 758.5 432.45 M 782.9 423.5 Q 784.2 423.5 784.95 423.9 785.8 424.25 786.5 425.1 786.85 425.45 787.3 426.6 L 794 425.2 Q 792.7 421.7 790.05 420.05 787.3 418.35 782.7 418.35 776.9 418.35 773.45 421.25 770.25 424.2 770.25 429.75 770.25 433.9 772.05 436.45 773.7 438.95 776.45 440.25 779.05 441.3 783.05 441.3 786.15 441.3 788.5 440.45 790.7 439.55 792.1 437.85 793.45 436.2 794.25 433.65 L 787.55 431.85 Q 787 434.05 785.9 435 784.8 436.15 782.65 436.15 780.4 436.15 779.1 434.75 777.8 433.4 777.8 429.7 777.8 426.85 778.95 425.3 780.25 423.5 782.9 423.5 M 805.85 418.7 L 798.2 418.7 798.2 440.85 805.85 440.85 805.85 418.7 M 867.65 457.35 Q 866.7 456.5 865 456.25 863.45 456 860.95 456 859.85 456 857.95 456.15 856.4 456.4 855.8 456.85 854.85 457.3 854.1 458.05 853.5 459 853.2 460.1 L 858.65 460.65 Q 859 459.75 859.6 459.45 860.2 459.1 861.65 459.1 862.85 459.1 863.2 459.45 863.6 459.85 863.6 460.7 862.25 461.25 861.55 461.3 L 857.45 462.2 Q 854.7 462.7 853.75 463.65 852.8 464.6 852.8 466.15 852.8 467.75 854.15 468.9 855.7 470 858.2 470 860.25 470 861.75 469.4 862.95 468.95 863.95 468 L 864.15 468.9 864.55 469.65 869.9 469.65 869.3 468.3 869.2 460.9 Q 869.2 460.05 868.8 458.9 868.45 457.95 867.65 457.35 M 858.45 465.7 Q 858.45 465.25 859 464.85 859.3 464.4 861.15 464 L 863.6 463.3 863.6 464.15 Q 863.6 465.1 863.3 465.7 862.85 466.3 862.05 466.75 861.4 467.1 860.35 467.1 859.3 467.1 859 466.75 858.45 466.4 858.45 465.7 M 838.95 457.35 Q 838 456.5 836.3 456.25 834.75 456 832.25 456 831.1 456 829.25 456.15 827.7 456.4 827.1 456.85 826.15 457.3 825.35 458.05 824.75 459 824.5 460.1 L 829.9 460.65 Q 830.25 459.75 830.85 459.45 831.45 459.1 832.95 459.1 834.15 459.1 834.5 459.45 834.9 459.85 834.9 460.7 833.55 461.25 832.95 461.3 L 828.7 462.2 Q 825.95 462.7 825 463.65 824.05 464.6 824.05 466.15 824.05 467.75 825.45 468.9 827 470 829.5 470 831.55 470 833 469.4 834.2 468.95 835.25 468 L 835.4 468.9 835.85 469.65 841.2 469.65 840.6 468.3 840.5 460.9 Q 840.5 460.05 840.05 458.9 839.7 457.95 838.95 457.35 M 832.5 464 L 834.9 463.3 834.9 464.15 Q 834.9 465.1 834.55 465.7 834.15 466.3 833.45 466.75 832.65 467.1 831.65 467.1 830.6 467.1 830.25 466.75 829.75 466.4 829.75 465.7 829.75 465.25 830.25 464.85 830.6 464.4 832.5 464 M 849.85 451.15 L 844.1 451.15 844.1 469.65 849.85 469.65 849.85 451.15 M 813.75 421.35 Q 810.3 424.5 810.3 429.75 810.3 433.65 812.05 436.3 813.75 438.8 816.5 440.1 819.35 441.3 823.4 441.3 827.5 441.3 830.25 439.85 833.1 438.45 834.5 435.95 835.95 433.45 835.95 429.6 835.95 424.35 832.6 421.35 829.15 418.35 823.15 418.35 817.2 418.35 813.75 421.35 M 826.9 424.95 Q 828.3 426.35 828.3 429.5 828.3 433.3 826.9 434.65 825.6 436.15 823.15 436.15 820.8 436.15 819.35 434.65 817.95 433.1 817.95 429.85 817.95 426.6 819.35 424.95 820.8 423.5 823.05 423.5 825.45 423.5 826.9 424.95 M 822.95 412.85 L 820.1 417.4 823.45 417.4 828.9 412.85 822.95 412.85 M 863.6 440.85 L 863.6 418.7 856.5 418.7 856.5 430.95 847.2 418.7 840.05 418.7 840.05 440.85 847.2 440.85 847.2 428.75 856.5 440.85 863.6 440.85 M 823.3 132.25 Q 824.75 125.35 835.6 119.7 L 835.6 108.85 772.05 108.85 772.05 119.7 Q 786.1 124.6 787.8 133.6 L 789.45 217.35 Q 789.45 234.45 774.55 216.9 L 673.05 112.55 673.05 108.85 597.9 108.85 597.9 119.7 Q 611.9 124.6 613.6 133.6 L 613.6 357.45 Q 604.6 368.8 599 365.8 L 599 382.3 663.4 382.3 663.4 365.8 Q 655.85 368.8 649.15 355.05 L 649.15 167.05 Q 649.75 162.4 652.15 161.45 654.65 160.5 658.05 163.85 L 787.8 298.65 787.8 357.45 Q 778.75 368.8 773.2 365.8 L 773.2 382.3 837.55 382.3 837.55 365.8 Q 830 368.8 823.3 355.05 L 823.3 132.25 Z"/>
</g>
<g id="l1">
<path fill="#669933" stroke="none" d="M 980.9 294.4 Q 968.6 284.5 952.1 276.95 966.85 284.95 980.9 294.4 M 849.2 253.55 Q 912.7 258.9 952.1 276.95 875.75 235.6 777.65 231.05 673.95 226.25 538.85 262.7 415.1 280.55 329.05 203.35 L 299.05 163.75 Q 291.85 132.55 306.95 114.3 321.15 97.3 351.05 95.4 407.05 96.7 480.65 113.85 507.2 120.05 545.45 130.55 567.1 136.5 610.6 148.5 522.25 117.05 470.4 102.85 397.15 82.75 336.35 78.35 316.5 79.65 305 84.65 291.85 90.25 288.3 101 282.2 104.75 281.2 85.4 290.05 84.05 295.95 77.6 301.9 71.15 301.9 62.55 301.9 52.9 294.6 46.2 287.3 39.4 277.05 39.4 266.75 39.4 259.45 46.2 252.1 52.9 252.1 62.55 252.1 68.4 255.05 73.45 257.9 78.35 262.85 81.65 263.05 96 254.45 94.25 224.35 45.25 153.6 25.05 100.3 9.85 5.05 7.7 98.25 18.45 153.8 39.35 220.75 64.5 246.55 108.35 245.15 143.55 261.3 167 276 188.4 305.85 201.05 364.9 245.85 450.95 283.85 510.2 309.95 613.95 345.2 553.2 320 532.75 310.9 494.45 293.95 493 289.6 591.25 314.45 656.95 310.2 610.8 303.25 579.25 296.9 540.05 289.05 513.4 280.2 641.2 286.6 761.15 321.15 820.05 338.1 860.7 358.3 902.74375 379.1765625 919.85 400.95 870.5837890625 334.3732421875 710.7 285.3 817.35 294.5 896.55 322.75 964.65 347.1 1018.8 388.2 948.9 326.4 861.4 294.5 766.5 259.95 647.9 259.35 770.7 246.85 849.2 253.55 Z"/>
</g>
<g id="l0">
<path fill="#FF0000" stroke="none" d="M 247.85 116.95 Q 246.2 126.9 250.25 140.5 259.8 172.45 286.6 190.95 297.45 155.8 289 133.8 281.2 113.4 256.7 103.7 249.45 106.45 247.85 116.95 Z"/>
</g>
</defs>
<g transform="matrix(1,0,0,1,0,0)">
<use xlink:href="#l2"/>
</g>
<g transform="matrix(1,0,0,1,0,0)">
<use xlink:href="#l1"/>
</g>
<g transform="matrix(1,0,0,1,0,0)">
<use xlink:href="#l0"/>
</g>
</svg>
