<svg xmlns="http://www.w3.org/2000/svg" xmlns:xlink="http://www.w3.org/1999/xlink" width="100%" height="100%" viewBox="0 0 512 512">
<!-- Vectorization by Rodrigo Polo https://github.com/rodrigopolo/logotipos-politicos -->
<defs>
<g id="l4">
<path fill="#50A700" stroke="none" d="M 433.85 -0.05 L 78.15 -0.05 Q 58.25 -0.05 44.05 13.25 L 44 13.25 Q 29.7 26.85 29.7 45.9 L 29.7 466 Q 29.7 485.1 44 498.5 L 44.05 498.55 Q 58.05 511.95 78.15 511.95 L 433.85 511.95 Q 453.95 511.95 467.9 498.55 467.9 498.5 467.95 498.5 482.3 485.1 482.3 466 L 482.3 45.9 Q 482.35 26.85 467.9 13.25 453.95 -0.05 433.85 -0.05 Z"/>
</g>
<g id="l3">
<path fill="#FFFFFF" stroke="none" d="M 474.35 45.9 Q 474.3 30.25 462.45 19 450.75 7.9 433.85 7.9 L 78.15 7.9 Q 61.4 7.9 49.5 19 L 49.5 19.05 Q 37.65 30.25 37.65 45.9 L 37.65 466 Q 37.65 481.75 49.5 492.7 L 49.55 492.75 Q 61.25 504 78.15 504 L 433.85 504 Q 450.7 504 462.45 492.75 462.45 492.7 462.5 492.7 474.35 481.75 474.35 466 L 474.35 45.9 Z"/>
</g>
<g id="l2">
<path fill="#50A700" stroke="none" d="M 241.25 376 L 200.35 376 200.35 493.55 238.3 493.55 238.3 429.45 238.5 429.45 278.2 493.55 317 493.55 317 376 279.3 376 279.3 438.95 278.85 438.95 241.25 376 M 109.25 376 L 69.35 376 69.35 448.2 Q 69.35 496.5 128.4 496.5 158.2 496.5 172.85 484.5 187.5 472.75 187.5 448.2 L 187.5 376 147.6 376 147.6 440.05 Q 147.6 453.2 145.35 458.1 141.5 467.15 128.65 467.15 115.75 467.15 111.75 458.1 109.25 452.95 109.25 440.05 L 109.25 376 M 437.95 376 L 330.55 376 330.55 493.55 439.75 493.55 439.75 463.55 370.45 463.55 370.45 448.85 431.6 448.85 431.6 420.9 370.45 420.9 370.45 406.25 437.95 406.25 437.95 376 M 455.5 80.2 Q 455.5 54.95 438.15 37.1 420.55 19.3 395.95 19.3 L 116.2 19.3 Q 91.65 19.3 74.05 37.1 56.7 54.95 56.7 80.2 L 56.7 295.9 56.9 296.15 Q 56.9 321.4 74.25 339.2 91.65 357.05 116.2 357.05 L 395.95 356.8 Q 420.55 356.8 437.95 339 455.5 321.15 455.5 295.9 L 455.5 80.2 Z"/>
</g>
<g id="s8">
<path fill="#FFFFFF" stroke="none" d="M 84.9 -107.8 L 83.6 -107.8 Q 72.5 -107.8 65.9 -99.45 62.05 -94.45 58.2 -83.55 L 52.75 -68.1 3.55 -129.85 Q -7.15 -143 -20.75 -143 -23.7 -143 -27.55 -141.85 L -31.65 -140.25 Q -37.3 -143.2 -43.9 -143.2 L -45 -143.2 Q -52.05 -142.75 -57.7 -139.15 -63.6 -135.5 -66.55 -129.6 L -66.35 -129.15 Q -68.85 -128.25 -72.25 -126.2 -77.9 -121.9 -79.7 -115.1 -82 -107.35 -78.15 -98.05 L -77.7 -97.85 -79.25 -96.05 Q -89 -82.4 -81.75 -67.2 L -81.55 -67.45 -80.65 -65.85 -43.65 -12.1 Q -40.7 9.25 -28.25 25.1 -15.75 41.2 7.6 53.7 L 16.7 64.6 -31.85 133.75 -31.85 135.8 Q 16 144.6 84.9 143 121.9744140625 14.376171875 84.9 -107.8 Z"/>
</g>
<g id="s6">
<path fill="#50A700" stroke="none" d="M -62.35 -99.1 Q -66 -104.3 -66.45 -108.65 -66.9 -112.25 -64.85 -113.6 -62.6 -115.45 -59.4 -112.95 L 8.4 -25.6 15.65 -30.15 -52.6 -117.95 -52.95 -118.3 -52.85 -118.4 Q -55.1 -120.4 -53.75 -123.35 -52.15 -127.25 -48.3 -127.25 -43.75 -127.45 -39.9 -121.1 L -39.7 -120.9 22.7 -36.7 22.7 -36.5 29.95 -40.8 -30.1 -122.05 Q -29.95 -123.2 -29 -124.5 -27.65 -126.1 -26.1 -126.55 -21.75 -127.9 -15.65 -120.4 L 34.25 -58.05 34.5 -57.8 Q 44.7 -46.9 53.3 -48.75 59.2 -49.85 62.85 -56.45 65.1 -60.3 67.6 -68.45 L 68.75 -72.1 68.75 -72.35 71.25 -78.7 Q 73.75 -86.15 75.55 -88.9 77.35 -91.65 79.45 -91.85 83.2623046875 -95.82265625 79.45 -99.6 73.1 -99.7 69.2 -94.35 66.45 -90.7 63.05 -81.2 L 59.2 -70.3 Q 56.95 -63.5 56.25 -62.1 53.75 -56.9 51.5 -56.2 47.4 -56.2 41.3 -62.8 L -8.4 -124.95 Q -18.15 -137 -28.8 -134.05 -32.95 -132.75 -35.55 -129.4 -41.05 -135.45 -48.55 -134.95 -58.05 -134.5 -61.7 -126.55 -62.75 -124.35 -63 -122.25 -67.1 -122.15 -70.3 -119.75 -74.6 -116.55 -75.05 -110.65 -75.5 -104.15 -70.6 -96.2 -73.15 -94.7 -75.3 -91.6 -82.55 -82.3 -77.1 -70.95 L -76.9 -70.5 -38.8 -15.4 Q -36.3 5.25 -24.7 20 -13.15 34.95 10 47 L 24.05 64 -22.9 130.95 -15.65 135 32.9 65.8 Q 34.7 63.8 32.9 61.5 L 16.35 41.8 15 40.65 Q -6.8 29.3 -17.45 15.7 -27.9 2.3 -30.15 -17 -30.15 -17.9 -30.85 -18.55 L -69.15 -74.35 Q -72.1 -80.5 -69.15 -85.7 -67.5 -89.1 -65.9 -89.8 L -9.5 -14.5 -2.25 -18.8 -62.35 -99.1 Z"/>
</g>
</defs>
<g transform="matrix(1,0,0,1,0,0)">
<use xlink:href="#l4"/>
</g>
<g transform="matrix(1,0,0,1,0,0)">
<use xlink:href="#l3"/>
</g>
<g transform="matrix(1,0,0,1,0,0)">
<use xlink:href="#l2"/>
</g>
<g transform="matrix(0.9945068359375,0,0,0.99456787109375,171.7,221.75)">
<g transform="matrix(1,0,0,1,0,0)">
<use xlink:href="#s8"/>
</g>
</g>
<g transform="matrix(-0.9945068359375,0,0,0.99456787109375,340.55,221.75)">
<g transform="matrix(1,0,0,1,0,0)">
<use xlink:href="#s8"/>
</g>
</g>
<g transform="matrix(0.9945068359375,0,0,0.99456787109375,177.05,222.1)">
<g transform="matrix(1,0,0,1,0,0)">
<use xlink:href="#s6"/>
</g>
</g>
<g transform="matrix(-0.9945068359375,0,0,0.99456787109375,335.1,222.1)">
<g transform="matrix(1,0,0,1,0,0)">
<use xlink:href="#s6"/>
</g>
</g>
</svg>
