<svg xmlns="http://www.w3.org/2000/svg" xmlns:xlink="http://www.w3.org/1999/xlink" width="100%" height="100%" viewBox="0 0 512 512">
<!-- Vectorization by Rodrigo Polo https://github.com/rodrigopolo/logotipos-politicos -->
<defs>
<g id="l1">
<path fill="#191CAF" stroke="none" d="M 511.25 256 Q 511.25 150.25 436.5 75.55 361.75 0.8 256 0.8 150.25 0.8 75.55 75.55 0.8 150.25 0.8 256 0.8 361.75 75.55 436.5 150.25 511.25 256 511.25 361.75 511.25 436.5 436.5 511.25 361.75 511.25 256 Z"/>
</g>
<g id="l0">
<path fill="#FFFFFF" stroke="none" d="M 127.7 322.85 L 127.7 323.3 144 323.3 Q 154.1 323.3 154.55 314.6 155 310.45 152.5 307.7 149.95 304.7 145.35 304.05 L 113.25 299.45 Q 107.75 298.55 103.65 301.5 99.5 304.5 99.05 309.75 98.6 315.25 102.05 318.95 105.45 322.6 111.2 322.85 L 127.7 322.85 M 112.1 288.9 L 117.4 289.8 Q 130.7 291.65 157.5 295.55 162.35 296.25 166.25 293.5 169.9 290.5 171.05 285.7 172.2 281.1 169.65 277 167.4 272.85 162.8 271.25 L 116.25 256.1 Q 108.7 256.1 103.4 260.45 98.35 264.85 97.9 271.25 97.45 277.9 101.35 282.95 105.45 288 112.1 288.9 M 107.3 235.95 Q 110.5 243.05 118.3 245.8 L 171.5 263.7 Q 179.55 266.2 186.2 261.15 192.85 255.65 192.85 246.25 192.85 237.1 183.2 232.95 148.8 217.8 131.6 210.7 124.25 207.75 116.95 210.7 109.85 213.7 106.85 221.05 103.85 228.6 107.3 235.95 M 171.3 192.35 Q 163.25 186.65 163.25 177.25 163.25 173.1 159.35 170.6 152.25 166.25 144.2 168.3 136.45 170.35 132.55 177.45 128.65 184.8 131.4 192.6 133.9 200.4 141.7 203.6 L 186.4 223.1 Q 190.75 224.95 195.35 224 199.7 222.85 202.9 219.45 205.9 216 206.35 211.65 207.05 207.05 205 203.15 203.4 199.25 199.5 199.95 184.1 201.3 171.3 192.35 M 242.8 133 Q 236.4 128.65 229.75 133.45 L 177.7 169.65 Q 173.35 172.9 173.35 177.25 173.55 181.85 177.95 184.6 194.45 195.1 211.4 186.2 218.05 182.5 239.4 170.15 244.2 167.6 253.6 162.1 261.6 157.75 268.25 155.45 L 272.85 153.6 273.1 152.7 271.95 152.25 242.8 133 M 213.7 83 Q 208.65 83 207.3 87.15 L 198.1 113.75 Q 197.4 115.55 198.1 116.5 199 117.6 201.55 116.95 204.3 116.5 204.75 115.1 207.05 109.35 213.25 109.35 L 214.6 109.35 Q 218.5 109.35 218.95 109.6 219.2 109.85 220.35 113.5 221.5 117.15 225.4 116.95 227.9 116.7 228.35 116.25 228.85 115.55 227.9 113.05 L 218.75 86.65 Q 217.15 82.1 213.7 83 M 212.55 91.05 L 213 91.05 217.15 103.4 208.4 103.4 212.55 91.05 M 173.55 34.4 L 163.5 34.4 Q 160.25 34.4 160.25 37.35 160.75 51.35 160.25 65.1 160.25 68.1 163.7 68.1 L 166.25 67.85 Q 167.6 67.2 167.4 65.35 L 167.4 56.65 Q 172.65 56.2 175.2 55.7 L 174.95 55.7 Q 183.9 54.1 183.2 43.1 182.5 35.1 173.55 34.4 M 174.95 41.95 Q 177.25 44.95 174.95 48.6 173.8 50.45 171.75 50.65 L 167.6 50.65 167.6 40.15 Q 170.6 39.9 171.75 40.15 173.8 40.35 174.95 41.95 M 195.8 34.15 Q 192.85 33.95 191.9 36.9 L 182.75 63.3 Q 181.6 66.7 182.3 67.65 182.95 68.35 186.4 67.85 187.8 67.85 188.95 66.05 189.6 64.65 190.3 61.9 191.25 60.55 192.35 60.55 196.95 60.05 201.55 60.55 202.7 60.55 203.6 61.9 L 204.5 64.65 Q 205.2 68.8 208.65 68.1 211.85 68.1 212.55 67.4 213 66.7 212.1 63.95 L 202.7 37.15 Q 201.3 33.95 198.1 34.15 L 195.8 34.15 M 201.3 54.55 L 192.6 54.55 196.75 41.25 201.3 54.55 M 219.65 34.4 Q 216.45 34.4 216.45 37.35 216.9 51.15 216.45 65.35 216.45 67.2 217.6 67.85 218.3 68.1 220.1 68.1 223.8 68.1 223.8 65.1 L 223.8 54.8 Q 227.9 53.4 229.75 57.1 L 232.75 63.95 Q 234.1 67.2 235 67.85 235.95 68.35 239.4 68.1 242.15 67.85 241.2 65.35 L 235 52.05 Q 241.45 47.7 239.4 40.6 237.55 34.4 228.85 34.4 L 219.65 34.4 M 228.35 48.85 Q 225.4 49.05 223.8 49.05 L 223.8 39.9 Q 225.4 40.15 228.15 39.9 230.45 40.15 231.6 41.75 232.95 44 231.8 46.55 230.9 48.4 228.35 48.85 M 293.05 83.25 Q 291.9 83.7 291.9 85.75 L 291.9 113.75 Q 291.9 116.95 294.65 116.95 L 308.4 116.95 Q 310.7 116.95 310.7 113.75 310.7 110.75 308.4 111 L 301.75 111 Q 299 111 299 108.2 L 299.2 85.75 Q 299.2 83 295.55 83 293.5 83 293.05 83.25 M 257.5 95.85 L 257.7 95.85 257.7 105.45 Q 257.7 111.65 261.4 114.65 268.75 119.7 278.15 116.25 285 113.5 285 104.55 L 285.25 104.35 285.25 86.45 Q 285.25 84.15 284.55 83.45 284.1 83 281.55 83 278.15 82.75 278.15 86.45 L 278.15 104.35 Q 278.15 111 271.95 111.45 264.85 111.9 264.85 104.55 264.6 95.15 264.85 85.5 264.85 83 261.4 83 259.1 83 258.85 83.25 257.5 83.7 257.5 85.5 L 257.5 95.85 M 252.45 86.45 Q 253.15 83.25 249.7 83.25 L 233.2 83.25 Q 230.65 83.25 230.65 86 230.65 89.2 233.4 88.95 L 244.4 88.95 236.15 102.25 Q 232.5 107.75 231.1 110.5 L 230.9 110.5 Q 227.7 116.95 234.8 116.95 L 250.6 116.95 Q 253.15 116.95 253.15 114.4 253.35 112.1 252.7 111.65 252.2 111 249.9 111 L 238.7 111 251.3 90.55 Q 252 89.4 252.45 86.45 M 272.85 34.4 Q 271.7 34.85 271.7 36.9 272.15 51.15 271.7 65.1 271.7 68.1 275.35 68.1 279.05 68.1 279.05 65.1 L 279.05 36.9 Q 279.05 33.7 275.6 34.15 273.55 34.15 272.85 34.4 M 244.4 34.4 Q 243.95 34.4 243.25 35.1 242.6 35.75 242.6 36.25 242.15 38.5 242.8 39.45 243.5 40.15 245.8 40.15 L 247.65 40.15 Q 251.05 40.15 251.55 40.6 251.75 40.8 251.75 44.5 L 251.75 64.9 Q 251.55 68.1 255.2 68.1 259.1 68.1 258.85 64.9 L 258.85 40.15 266.2 40.15 Q 268.25 40.15 268.25 37.15 268.25 34.4 266.2 34.4 L 244.4 34.4 M 288.9 34.4 Q 285.9 34.15 285.9 37.6 L 285.9 64.9 Q 285.9 67.85 288.2 67.85 298.55 67.85 301.5 67.4 312.3 65.6 313.45 54.35 L 313.65 49.3 Q 313.45 42.4 309.3 38.5 305.4 34.6 298.75 34.4 L 288.9 34.4 M 294.4 39.9 Q 302.2 39.2 305.2 44.5 306.8 47.9 306.35 52.5 305.85 57.1 303.8 59.4 301.75 61.45 298.75 61.9 296.95 62.15 292.8 61.9 L 293.05 41.5 Q 293.05 40.6 294.4 39.9 M 387.75 328.8 L 375.55 342.1 Q 367.3 351.5 357.7 355.85 L 281.55 389.55 Q 280.65 390 279.25 391.85 280.2 392.55 281.8 393.9 L 320.75 408.6 Q 332.25 412.7 335.45 415.25 358.85 433.1 394.6 462 L 401.25 467.25 Q 401.3505859375 467.2216796875 401.4 467.15 420.02734375 454.02265625 437 437 468.1494140625 405.9005859375 486.35 369.4 486.401953125 369.3216796875 486.45 369.2 L 419.35 325.35 Q 411.55 320.3 402.85 321.25 394.15 322.15 387.75 328.8 M 348.5 143.55 Q 341.2 137.55 332.7 141 L 282.95 160.25 Q 275.6 163 271.95 164.65 265.3 167.15 261.15 169.45 230.2 186.85 214.6 195.6 213 196.5 213.95 198.35 218.05 206.8 216 215.3 213.95 224 206.35 229.5 204.3 231.1 199.25 233.65 206.6 246.25 200.4 258.85 194.9 271.25 179.75 274.25 L 180.45 276.5 Q 183.2 285.25 178.85 293.5 174.5 301.75 165.55 304.5 163.95 304.95 163.7 305.65 163.5 306.1 163.7 307.7 166.7 317.1 161.2 324.9 155.7 332.95 146.05 333.15 137.35 333.4 106.4 332.25 104.55 332.25 103.4 333.15 L 31.25 379.95 Q 31.3083984375 380.08203125 31.35 380.2 48.5009765625 410.5509765625 74.95 437 97.8029296875 459.8529296875 123.5 475.7 123.7271484375 475.862890625 123.95 476 L 191.9 422.1 192.15 422.35 Q 203.15 413.65 205.9 412.25 214.4 408.15 249.7 392.75 L 348.5 348.75 Q 360.45 343.45 364.35 339.35 L 406.3 293.25 Q 410.65 288.65 410.65 282 410.65 275.6 406.55 270.8 402.4 265.95 396.9 265.3 391.15 264.35 385.2 268.05 L 362.95 281.1 Q 360.65 282.25 358.6 281.8 356.55 281.35 355.4 279.5 353.1 275.35 357.7 272.4 L 392.1 252.2 Q 402.15 246.25 400.8 234.35 399.4 223.1 388.4 219.65 380.85 217.15 372.15 222.2 L 340.7 240.5 Q 338.65 241.9 336.6 241.45 334.75 241 333.6 239.15 332.45 237.3 332.95 235.25 333.6 233.2 335.7 232.05 L 372.15 210.5 Q 379.25 206.6 381.75 199 384.05 191.7 380.4 184.8 376.5 177.7 368.9 175.4 361.35 173.35 354 177.45 L 326.05 193.3 Q 319.85 196.75 317.35 192.15 314.8 187.8 321.25 184.35 L 346.45 170.15 Q 353.8 165.55 354.5 157.3 355.15 149.05 348.5 143.55 M 340.95 34.85 Q 333.4 30.95 324.9 35.75 317.8 39.9 317.35 51.35 L 318 57.3 Q 320.1 67.4 329.95 68.35 338.45 69.45 343.7 65.1 349 61 349.2 52.3 L 349.2 48.4 Q 348.5 39 340.95 34.85 M 334.3 39.65 Q 341.2 40.15 341.4 46.55 341.85 52.3 340.7 57.8 L 340.5 57.8 Q 339.35 63.05 332.45 62.6 326.95 62.35 325.6 56.85 L 324.65 51.15 Q 325.15 47.25 325.8 45.4 327.4 39.2 334.3 39.65 Z"/>
</g>
</defs>
<g transform="matrix(1,0,0,1,0,0)">
<use xlink:href="#l1"/>
</g>
<g transform="matrix(1,0,0,1,0,0)">
<use xlink:href="#l0"/>
</g>
</svg>
