<svg xmlns="http://www.w3.org/2000/svg" xmlns:xlink="http://www.w3.org/1999/xlink" width="100%" height="100%" viewBox="0 0 512 512">
<!-- Vectorization by Rodrigo Polo https://github.com/rodrigopolo/logotipos-politicos -->
<defs>
<g id="l5">
<path fill="#219DA3" stroke="none" d="M 209.9 334.15 Q 209.9 322.45 203.25 314.85 196.2 306.8 184.15 306.8 172.35 306.8 165 314.85 157.8 322.8 157.8 335.15 157.8 347.1 164.55 354.7 171.6 362.75 183.3 362.75 195.3 362.75 202.55 355.1 209.9 347.3 209.9 334.15 M 174.2 321.75 Q 177.75 316.5 183.85 316.5 189.95 316.5 193.55 321.9 196.95 326.9 196.95 334.6 196.95 342.7 193.55 347.7 190 353 183.95 353 177.9 353 174.25 347.95 170.75 343 170.75 334.9 170.75 326.85 174.2 321.75 M 227.6 340.5 L 231.3 340.5 Q 235.15 340.6 237 342.35 239 344.3 240.05 349.2 242.55 359.55 243.85 361.85 L 256.4 361.85 Q 255.9 360.95 251.95 346.55 249.7 338.45 244.75 336.45 L 244.75 336.2 Q 248.6 334.8 251.25 331.5 254.25 327.7 254.25 322.85 254.25 315.55 249.25 311.5 243.9 307.25 231.75 307.25 222.35 307.25 215.45 308.4 L 215.45 361.85 227.6 361.85 227.6 340.5 M 227.6 316.75 Q 229.95 316.35 233.15 316.35 242.1 316.45 242.1 323.9 242.1 327.5 239.6 329.6 237 331.7 232.4 331.7 L 227.6 331.7 227.6 316.75 M 104.5 307.65 L 88.45 307.65 71.9 361.85 84.6 361.85 88.45 347.95 103.95 347.95 108.15 361.85 121.35 361.85 104.5 307.65 M 90.25 338.75 L 95.95 316.8 96.1 316.8 102.2 338.75 90.25 338.75 M 138.5 307.65 L 126.15 307.65 126.15 361.85 159.95 361.85 159.95 351.55 138.5 351.55 138.5 307.65 M 47.55 330.55 L 40.95 307.65 27.55 307.65 44.95 361.85 59.2 361.85 77.45 307.65 64.45 307.65 57.55 330.8 Q 54.65 340.45 52.6 349.9 L 52.4 349.9 Q 50.9 342.1 47.55 330.55 Z"/>
</g>
<g id="l4">
<path fill="#1E9EA6" stroke="none" d="M 197.05 181.85 Q 193.15 177.25 188.55 181.15 L 144.5 218.1 125.35 195.25 Q 121.45 190.65 116.85 194.55 L 101.4 207.5 Q 96.8 211.4 100.65 216 L 136.9 259.25 Q 140.65 263.45 145.15 259.7 L 209.3 205.85 Q 213.95 202 210.05 197.35 L 197.05 181.85 Z"/>
</g>
<g id="l3">
<path fill="#585859" stroke="none" d="M 174.7 184.9 L 184.65 176.5 Q 189 172.85 193.05 173 174.35 152 146.05 149.5 116.5 146.95 93.75 166 71.05 185.05 68.45 214.6 65.85 244.2 84.95 266.9 104 289.65 133.5 292.25 163.1 294.8 185.85 275.75 208.6 256.65 211.15 227.15 211.85 219.6 211.05 212.3 L 188.85 230.95 Q 185.55 247.75 171.95 259.15 156.05 272.5 135.35 270.7 114.75 268.9 101.4 253 88.05 237.1 89.85 216.45 91.7 195.75 107.55 182.45 123.45 169.1 144.1 170.95 162.2 172.5 174.7 184.9 Z"/>
</g>
<g id="l2">
<path fill="#263282" stroke="none" d="M 480.95 137.8 Q 477.6 134.45 472.85 134.45 L 297 134.45 Q 292.25 134.45 288.9 137.8 285.55 141.15 285.55 145.9 L 285.55 366 Q 285.55 370.75 288.9 374.1 292.25 377.45 297 377.45 L 472.85 377.45 Q 477.6 377.45 480.95 374.1 484.3 370.75 484.3 366 L 484.3 145.9 Q 484.3 141.15 480.95 137.8 Z"/>
</g>
<g id="l1">
<path fill="#F6EF17" stroke="none" d="M 389.1 281.5 L 380.6 281.5 380.6 322.9 389.1 322.9 389.1 281.5 M 354.85 270.85 L 348.85 264.85 319.6 294.1 325.6 300.05 354.85 270.85 M 348.85 204.85 L 354.85 198.85 325.75 169.75 319.7 175.75 348.85 204.85 M 338.15 239.05 L 338.15 230.55 296.95 230.55 296.95 239.05 338.15 239.05 M 420.85 264.85 L 414.85 270.85 444.1 300.15 450.15 294.1 420.85 264.85 M 418 234.8 Q 418 221.1 408.3 211.35 398.6 201.65 384.8 201.65 371.05 201.65 361.35 211.35 351.65 221.1 351.65 234.8 351.65 248.55 361.35 258.25 L 361.4 258.3 Q 371.1 267.95 384.8 267.95 398.55 267.95 408.25 258.25 L 408.3 258.25 Q 418 248.5 418 234.8 M 472.85 239.05 L 472.85 230.55 431.5 230.55 431.5 239.05 472.85 239.05 M 450.05 175.7 L 444 169.65 414.8 198.85 420.85 204.85 450.05 175.7 M 389.1 147 L 380.6 147 380.6 188.2 389.1 188.2 389.1 147 Z"/>
</g>
<g id="l0">
<path fill="#FFFFFF" stroke="none" d="M 315.3 321.75 L 315.3 343.65 Q 315.3 346.95 313.75 348.85 311.95 351.25 308.7 351.25 305.45 351.25 303.65 348.85 302.15 346.95 302.15 343.65 L 302.15 321.75 295.95 321.75 295.95 343.1 Q 295.95 349.05 298.35 352.4 301.85 357.4 308.7 357.4 315.6 357.4 319.1 352.4 321.45 349.05 321.45 343.1 L 321.45 321.75 315.3 321.75 M 423.8 334.85 Q 421.65 336.85 421.65 340 421.65 342.55 423.2 344.3 424.55 345.8 427.65 347.05 L 429 347.55 Q 430.8 348.35 430.8 349.85 430.8 352.3 427.9 352.3 425.4 352.3 423.4 349.7 L 420.3 353.6 Q 423.5 357.35 428.3 357.35 432.1 357.35 434.5 354.95 436.75 352.65 436.75 349.2 436.75 347 435.75 345.45 434.5 343.6 430.5 342.2 L 429.1 341.7 Q 427.25 341.05 427.25 339.65 427.25 337.85 429.5 337.85 431.4 337.85 432.85 339.35 L 435.75 335.65 Q 432.9 333.25 429.15 333.25 425.65 333.25 423.8 334.85 M 417.25 334 L 411.45 334 411.45 356.6 417.25 356.6 417.25 334 M 416.75 321.7 Q 415.75 320.6 414.3 320.6 412.9 320.6 411.85 321.7 410.85 322.85 410.85 324.4 410.85 325.95 411.85 327.1 412.9 328.2 414.3 328.2 415.75 328.2 416.75 327.1 417.8 325.95 417.8 324.4 417.8 322.85 416.75 321.7 M 461.3 333.25 Q 456.75 333.25 453.9 336.75 451.1 340.15 451.1 345.3 451.1 350.35 453.95 353.8 456.9 357.35 461.55 357.35 465.6 357.35 467.95 353.7 L 467.95 356.6 473.75 356.6 473.75 334 467.95 334 467.95 336.9 Q 465.8 333.25 461.3 333.25 M 458.65 340.7 Q 460.3 338.9 462.8 338.9 465.25 338.9 466.85 340.7 468.45 342.55 468.45 345.3 468.45 348.05 466.85 349.85 465.25 351.7 462.8 351.7 460.3 351.7 458.65 349.85 457.05 348 457.05 345.3 457.05 342.55 458.65 340.7 M 447 334 L 447 326.25 441.15 326.25 441.15 334 438.9 334 438.9 339.4 441.15 339.4 441.15 356.6 447 356.6 447 339.4 450.95 339.4 450.95 334 447 334 M 356.3 334 L 350.5 334 350.5 356.6 356.3 356.6 356.3 334 M 344.05 336 Q 342 333.25 337.95 333.25 333.95 333.25 331.55 336.9 L 331.55 334 325.75 334 325.75 356.6 331.55 356.6 331.55 345.05 Q 331.55 342.25 332.5 340.65 333.65 338.7 336.05 338.7 337.75 338.7 338.75 339.85 339.85 341.1 339.85 344.3 L 339.85 356.6 345.65 356.6 345.65 342.4 Q 345.65 338.2 344.05 336 M 353.45 320.6 Q 352 320.6 350.95 321.7 349.95 322.85 349.95 324.4 349.95 325.95 350.95 327.1 352 328.2 353.45 328.2 354.85 328.2 355.85 327.1 356.9 325.95 356.9 324.4 356.9 322.85 355.85 321.7 354.85 320.6 353.45 320.6 M 404.95 336 Q 402.9 333.25 398.85 333.25 394.85 333.25 392.45 336.9 L 392.45 334 386.65 334 386.65 356.6 392.45 356.6 392.45 345.05 Q 392.45 342.2 393.4 340.65 394.6 338.7 396.95 338.7 398.65 338.7 399.65 339.85 400.75 341.1 400.75 344.3 L 400.75 356.6 406.55 356.6 406.55 342.4 Q 406.55 338.2 404.95 336 M 379.8 336.45 Q 376.65 333.25 371.5 333.25 366.3 333.25 363.15 336.45 359.7 339.9 359.7 345.35 359.7 350.65 363.15 354.15 366.3 357.35 371.5 357.35 376.65 357.35 379.8 354.15 383.3 350.65 383.3 345.35 383.3 339.9 379.8 336.45 M 375.65 340.8 Q 377.3 342.65 377.3 345.35 377.3 347.95 375.65 349.8 373.95 351.7 371.5 351.7 369 351.7 367.3 349.8 365.7 347.95 365.7 345.35 365.7 342.65 367.35 340.8 369 338.9 371.5 338.9 373.95 338.9 375.65 340.8 Z"/>
</g>
</defs>
<g transform="matrix(1,0,0,1,0,0)">
<use xlink:href="#l5"/>
</g>
<g transform="matrix(1,0,0,1,0,0)">
<use xlink:href="#l4"/>
</g>
<g transform="matrix(1,0,0,1,0,0)">
<use xlink:href="#l3"/>
</g>
<g transform="matrix(1,0,0,1,0,0)">
<use xlink:href="#l2"/>
</g>
<g transform="matrix(1,0,0,1,0,0)">
<use xlink:href="#l1"/>
</g>
<g transform="matrix(1,0,0,1,0,0)">
<use xlink:href="#l0"/>
</g>
</svg>
