<svg xmlns="http://www.w3.org/2000/svg" xmlns:xlink="http://www.w3.org/1999/xlink" width="100%" height="100%" viewBox="0 0 512 512">
<!-- Vectorization by Rodrigo Polo https://github.com/rodrigopolo/logotipos-politicos -->
<defs>
<g id="l2">
<path fill="#2D2D79" stroke="none" d="M 465.45 23.15 Q 465.45 13.55 458.55 6.9 451.9 0 442.05 0 L 69.7 0 Q 60.1 0 53.45 6.9 46.55 13.55 46.55 23.15 L 46.55 488.85 Q 46.55 498.45 53.45 505.35 60.1 512 69.7 512 L 442.05 512 Q 451.9 512 458.55 505.35 465.45 498.45 465.45 488.85 L 465.45 23.15 Z"/>
</g>
<g id="l1">
<path fill="#FFFFFF" stroke="none" d="M 338.45 422.35 Q 334.3 426.95 334.3 433.35 334.3 438.15 336.8 441.15 338.9 443.45 343.7 445.75 L 348.95 447.8 351.05 448.95 Q 352.2 450.1 352.4 450.8 L 352.85 452.85 Q 352.85 455.15 351.25 456.5 349.9 457.9 347.6 457.9 342.55 457.9 337.75 452.4 L 331.55 460.4 Q 337.95 468.2 348.05 468.2 355.6 468.2 360.9 463.6 366.15 459.05 366.15 451.45 366.15 446.2 363.4 443 361.35 440.45 356.55 437.95 L 351.05 435.9 348.95 434.75 347.35 433.35 346.9 431.5 Q 346.9 429.9 348.3 428.75 349.65 427.4 351.25 427.4 354.7 427.4 358.4 430.6 L 364.1 423.05 Q 358.4 418 349.2 418 342.8 418 338.45 422.35 M 387.95 419.6 L 387.95 403.8 374.65 403.8 374.65 419.6 370.3 419.6 370.3 430.85 374.65 430.85 374.65 466.6 387.95 466.6 387.95 430.85 396.2 430.85 396.2 419.6 387.95 419.6 M 443 419.6 L 429.9 419.6 429.9 423.95 Q 424.65 418 416.85 418 407.45 418 401.5 425.55 395.75 432.9 395.75 443 395.75 453.3 401.5 460.65 407.45 468.2 417.05 468.2 425.35 468.2 429.7 462.45 L 429.9 462.45 429.9 466.6 443 466.6 443 419.6 M 409.05 443 Q 409.05 437.95 412.25 434.05 415.45 429.9 420.05 429.9 425.1 429.9 428.1 434.05 431.3 437.95 431.3 443 431.3 448.25 428.1 452.15 425.1 456.3 420.05 456.3 415.45 456.3 412.25 452.15 409.05 447.8 409.05 443 M 174.7 466.6 L 174.7 437.95 Q 174.7 418 158.65 418 150.4 418 146.5 423.95 L 146.3 423.95 146.3 419.6 133.2 419.6 133.2 466.6 146.3 466.6 146.5 438.65 147.45 434.05 Q 148.1 431.5 149.95 430.15 151.8 428.75 154.3 428.75 156.15 428.75 158 429.7 L 160.05 431.5 Q 160.95 432.65 161.2 434.95 L 161.4 466.6 174.7 466.6 M 197.9 419.6 L 184.8 419.6 184.8 466.6 197.9 466.6 197.9 419.6 M 311.35 419.6 L 311.35 466.6 324.65 466.6 324.65 419.6 311.35 419.6 M 253.6 443.2 Q 253.6 432.45 246.7 425.1 240.05 418 229.05 418 218.3 418 211.65 425.1 204.75 432.45 204.75 443.2 204.75 454 211.4 461.35 218.3 468.2 229.05 468.2 240.3 468.2 246.7 461.35 253.6 454.2 253.6 443.2 M 237.1 434.05 Q 240.05 437.95 240.05 443.2 240.05 448.5 237.1 452.4 233.85 456.3 229.05 456.3 224.45 456.3 221.25 452.4 218.3 448.5 218.3 443.2 218.3 437.7 221.25 434.05 224 429.9 229.05 429.9 234.1 429.9 237.1 434.05 M 284.55 429.7 L 286.6 431.5 287.75 434.95 288 438.15 288 466.6 301.3 466.6 301.3 437.95 Q 301.3 418 285.25 418 277 418 273.1 423.95 L 272.85 423.95 272.85 419.6 259.8 419.6 259.8 466.6 272.85 466.6 273.1 438.65 274 434.05 Q 274.7 431.3 276.3 430.15 278.15 428.75 280.9 428.75 282.7 428.75 284.55 429.7 M 323.5 394.15 Q 320.75 391.85 318 391.85 314.8 391.85 312.5 394.15 310 396.65 310 399.9 310 403.1 312.3 405.4 314.6 407.65 318 407.65 321.25 407.65 323.5 405.4 325.8 403.3 325.8 399.9 325.8 396.45 323.5 394.15 M 196.95 394.15 Q 194.2 391.85 191.45 391.85 188.5 391.85 185.7 394.15 183.45 396.9 183.45 399.9 183.45 403.1 185.7 405.4 188 407.65 191.45 407.65 194.65 407.65 196.95 405.4 199.25 403.3 199.25 399.9 199.25 396.45 196.95 394.15 M 122.9 394.35 L 109.15 394.35 108.9 440.45 Q 108.9 443.2 108 446.2 107.3 449.15 106.15 451.45 104.55 453.3 102.5 454.9 100.2 456.3 96.55 456.3 93.3 456.3 90.8 454.9 88.75 453.3 87.15 451.45 85.75 449.4 85.05 446.2 L 84.15 440.45 84.15 394.35 70.15 394.35 70.15 437.7 Q 70.15 452.15 76.6 460.2 83.25 468.65 96.55 468.65 110.05 468.65 116.5 460.2 122.9 452.15 122.9 437.7 L 122.9 394.35 Z"/>
</g>
<g id="l0">
<path fill="#FAE800" stroke="none" d="M 266.65 306.55 L 246.25 306.55 246.25 398.5 266.65 398.5 266.65 306.55 M 110.05 331.3 L 124.5 345.55 189.4 280.4 175.2 266.2 110.05 331.3 M 160.05 220.1 L 160.05 199.7 67.85 199.7 67.85 220.1 160.05 220.1 M 305.2 160.25 Q 284.8 139.85 256.1 139.85 227.25 139.85 206.8 160.25 186.4 180.7 186.4 209.55 186.4 238.25 206.8 258.65 227.25 279.05 256.1 279.05 284.8 279.05 305.2 258.65 325.6 238.25 325.6 209.55 325.6 180.7 305.2 160.25 M 175.2 153.85 L 188.5 138.7 119.7 77.75 106.15 92.85 175.2 153.85 M 265.75 20.4 L 245.55 20.4 245.55 112.6 265.75 112.6 265.75 20.4 M 405.4 327.9 L 336.6 266.9 323.05 282 392.1 343 405.4 327.9 M 445.05 220.1 L 445.05 199.95 352.85 199.95 352.85 220.1 445.05 220.1 M 403.1 89.9 L 388.65 75.65 323.5 140.55 337.95 155 403.1 89.9 Z"/>
</g>
</defs>
<g transform="matrix(1,0,0,1,0,0)">
<use xlink:href="#l2"/>
</g>
<g transform="matrix(1,0,0,1,0,0)">
<use xlink:href="#l1"/>
</g>
<g transform="matrix(1,0,0,1,0,0)">
<use xlink:href="#l0"/>
</g>
</svg>
