<svg xmlns="http://www.w3.org/2000/svg" xmlns:xlink="http://www.w3.org/1999/xlink" width="100%" height="100%" viewBox="0 0 512 512">
<!-- Vectorization by Rodrigo Polo https://github.com/rodrigopolo/logotipos-politicos -->
<defs>
<linearGradient id="g1" gradientUnits="userSpaceOnUse" x1="-0.08750000000000568" y1="255.9" x2="511.88750000000005" y2="255.9" spreadMethod="pad">
<stop offset="0%" stop-color="#2B7CEF"/>
<stop offset="100%" stop-color="#2008E3"/>
</linearGradient>
<g id="l0">
<path fill="url(#g1)" stroke="none" d="M 381.3 398.25 L 360.2 398.25 318 499.4 339.8 499.4 349.2 477.15 392.3 477.15 401.5 499.4 423.5 499.4 381.3 398.25 M 370.75 425.55 L 384.05 456.95 357.45 456.95 370.75 425.55 M 510.4 499.4 L 510.4 479.45 461.35 479.45 461.35 398.25 438.85 398.25 438.85 499.4 510.4 499.4 M 53.4 417.05 Q 67.85 417.05 77.25 428.75 L 92.4 413.65 Q 76.35 396.9 53.2 396.9 30.95 396.9 15.6 412.25 0 427.4 0 449.15 0 470.75 15.6 486.1 31.2 501.45 53.2 501.45 65.1 501.45 75.65 496.65 86 492.05 93.3 483.8 L 78.2 468.45 Q 68.8 481.25 53.4 481.25 40.6 481.25 31.4 471.85 22.25 462.45 22.25 449.15 22.25 435.85 31.4 426.45 40.6 417.05 53.4 417.05 M 185.05 499.4 L 207.05 499.4 164.65 398.25 143.55 398.25 101.35 499.4 123.35 499.4 132.55 477.15 175.85 477.15 185.05 499.4 M 141 456.95 L 154.1 425.55 167.4 456.95 141 456.95 M 302.65 424.4 Q 302.65 414.3 295.1 407 287.55 399.9 276.75 399.4 L 222.4 399.4 222.4 499.4 276.75 499.4 Q 289.6 499.4 298.55 491.35 307.7 483.1 307.7 471.85 307.7 463.4 302.45 456.5 297.4 449.65 288.9 446.4 295.1 443.2 299 437.25 302.65 431.3 302.65 424.4 M 269.65 417.75 Q 273.75 417.75 276.75 420.3 280.9 423.7 280.9 429 280.9 434.25 276.75 437.7 273.75 440.25 269.65 440.25 L 243.75 440.25 243.75 417.75 269.65 417.75 M 276.75 479.9 L 243.75 479.9 243.75 457.65 276.75 457.65 Q 281.1 458.1 283.85 461.1 286.85 464.3 286.85 468.65 286.85 473 283.85 476.25 281.1 479.45 276.75 479.9 M 214.4 133.2 Q 213.95 134.15 213.25 134.15 L 91.05 176.8 182.95 225.6 145.85 339.1 241.45 257.05 371 327.9 320.55 191.45 Q 319.65 190.3 321 189.4 L 512 28.2 290.75 107.1 Q 289.15 107.55 288.65 105.95 L 254.95 10.55 214.4 133.2 Z"/>
</g>
</defs>
<g transform="matrix( 1, 0, 0, 1, 0,0) ">
<use xlink:href="#l0"/>
</g>
</svg>
