<svg xmlns="http://www.w3.org/2000/svg" xmlns:xlink="http://www.w3.org/1999/xlink" width="100%" height="100%" viewBox="0 0 512 512">
<!-- Vectorization by Rodrigo Polo https://github.com/rodrigopolo/logotipos-politicos -->
<defs>
<g id="l2">
<path fill="#662D91" stroke="none" d="M 0 0 L 0 512 512 512 512 0 0 0 Z"/>
</g>
<g id="l1">
<path fill="#FFFFFF" stroke="none" d="M 228.35 391.4 Q 222.2 391.4 219.45 394.15 216.7 396.9 216.7 402.85 L 216.7 470.95 Q 216.7 475.75 217.6 478.3 218.3 480.8 221.05 482.65 223.35 484.25 228.6 484.25 L 253.35 484.25 Q 260.25 484.25 264.85 483.35 270.1 482.65 274.45 480.6 279.05 478.5 282.7 475.1 287.05 471.4 290.5 465.2 293.7 459.5 295.1 452.85 296.45 445.95 296.45 437.5 296.45 412.25 282 399.9 275.85 394.85 269.4 393.25 262.1 391.4 252.9 391.4 L 228.35 391.4 M 248.1 406.3 Q 257.5 406.3 263 408.15 268.75 409.75 273.1 416.85 277.45 423.5 277.45 437.5 277.45 456.95 267.8 464.75 265.95 466.6 263 467.75 259.55 468.9 257.25 468.9 L 235.7 469.1 235.7 406.3 248.1 406.3 M 189.15 395.75 Q 179.3 389.8 164.4 389.8 153.6 389.8 145.35 393.25 136.9 396.2 130.9 402.65 124.95 409.3 122 418 119 426.7 119 437.5 119 448.25 122 456.95 124.75 466.15 130.7 472.35 136.45 478.75 145.15 482.2 153.4 485.85 164.65 485.85 175.85 485.85 184.35 482.4 193.05 478.75 198.55 472.55 204.75 465.7 207.3 457.2 210.25 448.95 210.25 437.7 210.25 422.8 205 412.25 199.95 401.95 189.15 395.75 M 178.4 408.6 Q 184.8 412.5 187.8 419.85 191.25 427.4 191.25 437.5 L 191.25 437.7 Q 191.25 448.95 187.55 456.05 184.1 463.4 177.95 467.3 171.95 470.95 164.65 470.95 158.9 470.95 154.1 468.9 149.25 466.85 145.85 462.45 142.15 458.6 140.1 451.95 138.05 445.5 138.05 437.7 138.05 429.7 140.1 423.5 142.15 417.05 145.6 413.2 149.05 409.05 153.85 407 158.45 404.7 164.4 404.7 171.95 404.7 178.4 408.6 M 53.9 391.4 Q 49.3 391.4 46.75 393.45 44.5 395.5 44.5 399.2 44.5 402.65 46.75 404.7 49.05 407 53.9 407 L 74.5 407 74.5 474.4 Q 74.5 480.15 77.25 482.9 79.8 485.85 83.9 485.85 87.8 485.85 90.8 482.9 93.3 479.9 93.3 474.4 L 93.3 407 113.95 407 Q 119 407 121.3 404.9 123.6 402.85 123.6 399.2 123.6 395.75 121.3 393.7 118.55 391.4 113.95 391.4 L 53.9 391.4 M 430.15 390 Q 418.9 390 411.55 393.25 403.55 396.45 399.4 402.15 395.3 408.35 395.3 415.95 395.3 424.4 399.2 429.25 402.65 434.25 409.95 437.95 417.55 441.4 426.7 443.2 432.45 444.6 438.65 446.4 443.65 448.25 445.95 451 448.95 454 448.95 458.35 448.95 464.1 443.65 468.2 437.95 472.1 429.9 472.1 423.95 472.1 420.05 470.05 416.4 468.45 414.3 465.2 412.05 461.8 410.45 457.9 409.05 454.2 407 452.15 404.7 450.3 401.95 450.3 398.05 450.3 395.75 452.6 393.45 455.15 393.45 458.6 393.45 464.1 397.35 470.75 401.25 476.7 407.65 480.6 417.05 485.85 430.6 485.85 441.6 485.85 450.55 481.95 459.25 478.05 463.15 471.4 467.5 465 467.5 456.5 L 467.5 456.3 Q 467.5 449.65 465 444.6 462.7 440.25 458.1 436.55 453.3 433.35 447.1 431.3 L 423.95 424.85 418.45 422.6 Q 416.15 421.45 414.3 419.15 412.7 417.3 412.7 414.3 412.7 409.75 417.3 406.55 421.9 403.3 429 403.3 437.25 403.3 440.45 406.3 443.9 409.05 446.65 414.55 448.25 417.75 450.3 419.85 451.95 421.45 455.15 421.45 458.8 421.45 461.1 418.7 463.4 416.15 463.4 412.5 463.4 408.6 461.55 405.15 459.7 401.25 455.6 397.6 451.45 394.15 445.05 392.1 438.85 390 430.15 390 M 344.15 389.8 Q 333.85 389.8 325.15 393.25 316.9 396.45 310.9 402.65 304.95 409.3 301.95 418 299 426.7 299 437.5 299 448.25 301.95 456.95 304.7 466.15 310.7 472.35 316.4 478.75 325.15 482.2 333.4 485.85 344.6 485.85 355.85 485.85 364.35 482.4 373.05 478.75 378.55 472.55 384.75 465.7 387.25 457.2 390.25 448.95 390.25 437.7 390.25 422.8 384.95 412.25 379.95 401.7 369.15 395.75 359.3 389.8 344.4 389.8 L 344.15 389.8 M 318 437.7 Q 318 429.7 320.1 423.5 322.15 417.05 325.6 413.2 329.05 409.05 333.85 407 338.45 404.7 344.4 404.7 351.95 404.7 358.4 408.6 364.8 412.5 367.8 419.85 371.2 427.4 371.2 437.5 L 371.2 437.7 Q 371.2 448.95 367.55 456.05 363.9 463.85 357.9 467.3 351.95 470.95 344.6 470.95 338.9 470.95 334.3 468.9 329.5 466.85 325.8 462.45 322.15 458.6 320.1 451.95 318 445.5 318 437.7 M 428.75 196.25 Q 428.75 124.95 378.1 74.05 327.4 23.4 255.9 23.4 184.6 23.4 133.65 74.3 83 124.95 83 196.5 83 268.05 133.65 318.7 184.35 369.4 255.9 369.4 L 255.9 369.15 Q 327.4 369.15 378.1 318.5 428.75 267.8 428.75 196.25 M 374.45 77.95 Q 423.5 127.05 423.5 196.25 423.5 265.5 374.45 314.8 325.15 363.9 255.9 363.9 186.65 363.9 137.55 314.8 88.5 265.5 88.5 196.25 88.5 127.25 137.55 77.95 186.85 28.9 255.9 28.9 325.15 28.9 374.45 77.95 M 231.6 86.45 Q 231.6 71.75 216.45 71.75 201.3 71.75 201.3 86.45 L 201.3 184.35 Q 201.3 199 216.45 199 231.6 199 231.6 184.35 L 231.6 86.45 M 304.05 80.7 Q 304.05 65.35 288 65.35 271.95 65.35 271.95 80.7 L 271.95 182.5 Q 271.95 198.1 288 198.1 304.05 198.1 304.05 182.5 L 304.05 80.7 M 267.35 66.7 Q 267.35 52.05 252.2 52.05 237.1 52.05 237.1 66.7 L 237.1 183.45 Q 237.1 198.1 252.2 198.1 267.35 198.1 267.35 183.45 L 267.35 66.7 Z"/>
</g>
<g id="l0">
<path fill="#08D6EE" stroke="none" d="M 340.7 113.5 Q 325.6 113.5 324.9 128.15 324 148.8 320.3 178.15 318.5 194.9 314.1 228.15 312.3 243.05 311.35 246.95 309.3 257.5 305.65 264.15 295.1 284.8 282.7 291.2 266.45 300.15 243.75 294.4 222.2 289.15 210.95 275.6 197.9 260 193.3 244.65 189.6 232.05 189.15 209.1 189.15 199.5 182.75 189.4 176.8 180 169.65 175.85 162.1 171.5 158.65 176.8 155 182.75 159.15 199.7 159.6 230.65 164.85 251.3 171.5 276.3 187.8 296.95 203.15 316.65 234.1 323.5 263.45 330.15 288.2 321.45 310 314.1 325.15 291.2 338.45 270.8 341.85 245.8 352.85 171.05 354.95 128.15 355.65 113.5 340.7 113.5 Z"/>
</g>
</defs>
<g transform="matrix(1,0,0,1,0,0)">
<use xlink:href="#l2"/>
</g>
<g transform="matrix(1,0,0,1,0,0)">
<use xlink:href="#l1"/>
</g>
<g transform="matrix(1,0,0,1,0,0)">
<use xlink:href="#l0"/>
</g>
</svg>
