<svg xmlns="http://www.w3.org/2000/svg" xmlns:xlink="http://www.w3.org/1999/xlink" width="100%" height="100%" viewBox="0 0 512 512">
<!-- Vectorization by Rodrigo Polo https://github.com/rodrigopolo/logotipos-politicos -->
<defs>
<g id="l2">
<path fill="#FFFFFF" stroke="none" d="M 327.05 293.9 Q 334.8 274.85 339.2 260.85 345.1 242.85 340.45 220.45 336.8 203.05 330.05 193.3 326 187.5 320.35 171.4 L 277.15 19.95 Q 276.2 14.1 271.45 8.6 262.15 -2.2 244.7 0.7 229.3 3.3 225 17.95 223 25.2 224.05 31.9 L 246.75 119.1 Q 244.15 117.7 240.45 116.65 227.05 115.7 222.8 126.2 218.35 137.55 217.95 137.55 214.5 137.95 213.25 145.45 212.7 149.55 212.7 152.95 202.7 152.95 194.05 161.3 L 187.55 169.6 Q 166.05 171 160.2 184.6 155.9 194.9 160.95 207.1 166.1 216.85 161.6 226.75 161.2 238.5 162.4 249.85 163.7 261.6 167.9 285.2 171.5 305.05 184.5 326.15 190.95 336.55 196.65 343.15 204.35 351.85 205.35 369.1 205.8 377.7 204.75 384.5 L 204.4 388.85 199.35 388.85 Q 198.25 383.7 193.2 383.7 L 104.6 383.7 Q 100.4 383.7 99.15 386.15 L 78.6 426.75 72.95 389 Q 72 383.7 66.9 383.7 L 38.95 383.7 37.5 383.95 Q 35.1 384.45 33.9 386.8 32.4 388.8 33.05 391.2 L 51.5 469.1 Q 56.75 472.15 56.15 478.25 58.45 481.05 61.45 481.05 L 61.6 481.05 Q 59.95 481.75 59.2 482.45 L 58.15 481.85 Q 55.75 480.45 53.3 480.45 52.4 480.25 49.05 480.25 L 44 480.25 Q 38.95 480.25 37.85 485.3 L 34.7 505.6 Q 34.7 508.05 36.5 509.85 38.35 511.7 40.7 511.7 L 44.4 511.7 Q 49.4 511.7 50.45 506.65 L 50.85 503.95 53.55 503.8 Q 54.25 505.5 56.15 507.85 60 512.05 65.9 512.05 69.85 512.05 72.95 510.25 74.4 511.7 76.65 511.7 L 80.05 511.7 Q 81.75 510.25 83.95 510.25 86.1 510.25 88 511.7 L 91.65 511.7 93.25 511.5 Q 95.7 510.6 96.85 508.45 98.1 506.25 97.5 503.8 L 96.3 500.1 97.15 499.35 97.15 500.1 Q 97.15 502.2 97.5 503.8 98.1 505.55 99.15 507 101.25 510.05 104.6 511.3 106.85 512.05 109.45 512.05 112.75 512.05 116 510.45 117.8 511.7 119.6 511.7 L 122.45 511.7 122.65 511.3 Q 124.7 509.65 127.15 509.65 129.7 509.85 131.4 511.7 L 134.25 511.7 Q 135.2 511.25 136.5 511.7 L 139.65 511.7 141.1 510.25 Q 143.2 508.85 145.55 509.25 148.25 509.7 149.65 511.7 L 153.45 511.7 Q 155.7 511.7 157.5 510.25 159.3 508.65 159.6 506.4 L 160.55 507.85 Q 164.6 512.3 170.1 511.85 171.65 512.05 174.15 511.3 L 176 511.7 177.35 511.7 Q 179.8 511.7 181.45 510.05 L 183.65 511.3 Q 186.9 512.05 188.55 512.05 191.25 512.05 193.8 511.1 195.05 511.7 196.45 511.7 L 199.7 511.7 201.1 510.25 Q 203.2 508.85 205.55 509.25 208.2 509.7 209.6 511.7 L 213.5 511.7 Q 215.05 511.1 217 511.7 L 220.45 511.7 Q 224.05 509.05 227.5 511.7 L 239.8 511.7 Q 241.55 511.55 242.9 511.7 L 245.5 511.7 Q 248.4 510 250.95 511.7 L 252.8 511.7 Q 255.7 510.45 258.1 511.7 L 261.55 511.7 Q 262.95 511.25 264.15 511.7 L 267.45 511.7 268.6 510.25 Q 270.95 508.85 273.3 509.25 275.75 509.7 277.15 511.7 L 281.05 511.7 282.2 511.5 283.25 511.7 298.85 511.7 Q 300.55 511.7 301.45 510.9 L 305.35 510.65 Q 306.95 511.7 308.55 511.7 L 312.45 511.7 313.25 510.9 Q 315.1 509.3 317.5 509.5 320.1 509.65 321.75 511.7 L 328.45 511.7 Q 331.3 511.7 333.95 511.1 L 336.15 510.05 Q 338.25 511.7 340.25 511.7 L 343.9 511.7 Q 345.9 510.6 347.95 511.7 L 351.6 511.7 Q 355.25 511.7 356.85 508.45 L 357.6 509.5 Q 359.45 511.7 362.3 511.7 L 374.9 511.7 376.3 511.5 377.7 511.7 381.2 511.7 Q 382.9 510.25 385.25 510.25 387.35 510.25 389.05 511.7 L 392.7 511.7 Q 394.6 511.1 396.15 511.7 L 408.7 511.7 410.15 511.5 411.55 511.7 414.4 511.7 414.65 511.3 Q 416.7 509.65 419.1 509.65 421.75 509.9 423.35 511.7 L 426.15 511.7 Q 429.65 508.8 433.05 511.7 L 436.7 511.7 Q 440.2 508.85 443.65 511.7 L 456.2 511.7 Q 458.45 511.7 460.05 510.25 461.9 508.65 462.05 506.65 L 462.65 503.55 Q 460.6 500.85 461.7 498.1 L 462.3 494.05 Q 464.05 492.85 464.5 490.35 L 465.15 486.4 Q 465.15 483.75 463.3 482.1 461.4 480.25 459.05 480.25 L 445.5 480.25 Q 448.35 479.6 450.7 478.4 460.5 474.55 467.35 466.25 473.8 458.5 475.65 448.45 477.4 440.3 474.25 432.45 471.15 424.7 463.7 420.45 L 473.45 419.85 Q 475.7 419.6 477.25 418 478.9 416.35 479.1 414.15 480.1 397.75 470.4 389.85 461.35 382.3 443.45 382.3 431.05 381.95 420.05 386.15 411.1 389.7 404.9 397.1 399.85 403 398 411.1 396.45 402.85 391.1 395.9 379.95 382.3 356.5 382.3 345 382.3 334.75 385.9 L 334.3 385.9 Q 329.65 362.15 321.75 336.5 317.5 323.85 318.75 316.4 L 320.8 311.35 Q 320.95 308.45 327.05 293.9 Z"/>
</g>
<g id="l1">
<path fill="#1A4B89" stroke="none" d="M 391.9 486.1 L 388.45 485.75 381.2 485.75 377.95 505 381.4 505 382.8 497.1 387.25 497.1 389.35 505 392.95 505 390.7 496.65 Q 392.3 496.5 394.1 494.7 395.15 492.95 395.15 491.25 395.15 489.6 394.1 488 393.35 486.8 391.9 486.1 M 383.2 494.45 L 384.15 488.6 389.85 488.75 Q 390.8 489 391.1 489.85 391.55 490.15 391.55 491.45 391.55 492.65 390.95 493.45 389.5 494.45 388.1 494.45 L 383.2 494.45 M 375.1 493.8 L 367.8 493.8 368.8 488.75 377.3 488.75 377.95 485.75 365.75 485.75 362.5 505 375.1 505 375.5 501.95 366.6 501.95 367.35 496.65 374.7 496.65 375.1 493.8 M 347.35 485.75 L 343.65 485.75 340.45 505 344.05 505 347.35 485.75 M 362.75 488.75 L 363.35 485.75 351.6 485.75 348.35 505 351.8 505 353.2 496.9 360.1 496.9 360.45 494.05 353.65 494.05 354.4 488.75 362.75 488.75 M 330.9 485.75 L 325.25 485.75 322.2 505 328.7 505 Q 331.2 505 332.7 504.6 333.9 504.4 335.4 502.95 337.15 501.6 337.75 499.35 338.85 497.25 338.85 494.45 338.85 492.2 338.2 490.35 337.75 489 336.35 487.5 L 334.15 486.1 330.9 485.75 M 330.5 488.75 Q 331.65 488.6 333.1 489.2 334.15 489.55 334.75 490.95 335.4 492.4 335.15 493.8 335.15 496.4 334.75 497.5 334.55 498.55 333.3 500.35 332.95 501.15 331.5 501.75 L 329.1 502.15 326 502.15 328.2 488.75 330.5 488.75 M 458.6 488.75 L 459.2 485.75 447.1 485.75 443.8 505 456.35 505 456.85 501.95 447.85 501.95 448.7 496.65 456 496.65 456.35 493.8 449.3 493.8 450.1 488.75 458.6 488.75 M 439.55 488.75 L 444.4 488.75 445 485.75 431.65 485.75 431.25 488.75 436.1 488.75 433.25 505 437 505 439.55 488.75 M 411.2 488.75 L 411.8 485.75 399.6 485.75 396.4 505 409 505 409.35 501.95 400.4 501.95 401.3 496.65 408.55 496.65 409 493.8 401.65 493.8 402.7 488.75 411.2 488.75 M 418.65 485.75 L 415 485.75 412 505 414.65 505 417.05 490.6 423.5 505 426.35 505 429.6 485.75 426.75 485.75 424.55 498.9 418.65 485.75 M 75.4 494.05 Q 75.4 490.25 73.4 487.5 70.95 485.15 67.9 485.3 63.5 485.3 61.25 488.75 58.75 492.4 58.75 496.9 58.75 500.65 61 503.2 63.1 505.6 66.05 505.6 70.5 505.6 72.8 501.95 75.4 498.7 75.4 494.05 M 63.65 491.45 Q 64.65 488.15 67.75 488.15 71.55 488.15 71.55 493.2 71.55 496.4 70.35 499.5 69.4 502.3 66.3 502.8 64.9 502.8 63.65 501.55 62.05 499.8 62.4 497.5 62.4 494.2 63.65 491.45 M 56.75 494.9 Q 57.8 493.3 57.8 491.25 57.8 489.85 57.15 488.6 56.55 487.35 55.35 486.75 54.15 485.9 53.1 485.9 L 44.15 485.75 41.15 505 44.65 505 46 497.25 50.45 497.25 Q 53 497.25 54.1 496.9 55.75 496.3 56.75 494.9 M 46.4 494.45 L 47.4 488.6 52.5 488.75 53.7 489.6 54.1 491.45 53.55 493.2 Q 53.1 494.05 52.3 494.25 L 46.4 494.45 M 137.65 485.75 L 134.85 485.75 132.55 498.9 126.75 485.75 123.05 485.75 119.8 505 122.65 505 125.15 490.6 131.6 505 134.4 505 137.65 485.75 M 150.25 485.75 L 145.95 485.75 136.65 505 139.9 505 142.1 500.35 149 500.35 149.85 505 153.65 505 150.25 485.75 M 148.85 497.75 L 143.35 497.75 147.2 489.2 148.85 497.75 M 109.1 485.75 L 105.45 485.75 103.55 496.9 103.4 499.75 Q 102.95 503.5 106.85 505 107.95 505.4 109.7 505.4 111.7 505.8 113.7 504.4 115.4 503.4 116 501.95 116.55 500.75 117 498.35 L 119 485.75 116.35 485.75 114.3 497.25 Q 114.3 498.35 113.55 500.7 113.25 501.5 112.1 501.95 111.3 502.6 110.05 502.6 108.65 502.6 107.85 501.75 106.85 501.15 106.85 499.5 L 109.1 485.75 M 90.85 486.1 L 87.4 485.75 80.05 485.75 76.85 505 80.3 505 81.7 497.1 86.15 497.1 88.2 505 91.8 505 89.45 496.65 Q 91.45 496.5 92.85 494.7 94.05 493.3 94.05 491.25 94.05 489.5 93.05 488 92.3 486.8 90.85 486.1 M 86.75 494.45 L 82.05 494.45 83.15 488.6 88.8 488.75 90 489.85 90.4 491.45 Q 90.4 492.65 89.8 493.45 88.35 494.45 86.75 494.45 M 233.8 488.75 L 242.45 488.75 243.05 485.75 230.95 485.75 227.7 505 240.1 505 240.7 501.95 231.55 501.95 232.55 496.65 239.6 496.65 240.25 493.8 232.95 493.8 233.8 488.75 M 214.9 488.75 L 219.8 488.75 217.15 505 220.6 505 223.4 488.75 228.3 488.75 228.7 485.75 215.55 485.75 214.9 488.75 M 210.2 485.75 L 206 485.75 196.65 505 199.9 505 202.2 500.35 209 500.35 209.85 505 213.7 505 210.2 485.75 M 208.85 497.75 L 203.3 497.75 207.25 489.2 208.85 497.75 M 188.15 485.75 L 184.7 485.75 182.5 499.75 Q 182.5 503.5 186.15 505 186.95 505.4 188.7 505.4 190.75 505.8 192.8 504.4 194.45 503.4 195 501.95 L 196.25 498.35 198.25 485.75 195.4 485.75 193.6 497.25 Q 193.25 499.4 192.6 500.7 192.45 501.8 191.4 501.95 190.55 502.6 189.35 502.6 187.9 502.6 186.9 501.75 185.9 501.15 185.9 499.5 L 188.15 485.75 M 177.65 486.75 Q 175.65 485.15 172.95 485.3 168.7 485.15 166.05 488.75 163.35 492.95 163.65 497.1 163.2 500.65 165.4 503.2 167.25 505.4 170.45 505.4 173.9 505.75 175.6 502.3 L 176.25 505 177.85 505 179.45 495.05 171.9 495.05 171.55 497.9 175.6 497.9 Q 174.55 502.6 171.35 502.6 169.5 502.6 168.25 501.2 167.1 499.1 167.25 497.1 167.25 493.65 168.7 490.95 169.95 488.6 172.8 488.15 174.4 488.15 175.35 489.2 176.6 490.4 176.75 491.8 L 179.85 490.95 Q 179.65 488.4 177.65 486.75 M 309.2 485.75 L 304.9 485.75 295.8 505 299.1 505 301.1 500.35 308.2 500.35 309 505 312.8 505 309.2 485.75 M 307.75 497.75 L 302.3 497.75 306.35 489.2 307.75 497.75 M 290.3 485.75 L 286.7 485.75 283.45 505 295 505 295.4 501.95 287.5 501.95 290.3 485.75 M 251.6 485.75 L 246.35 485.75 243.05 505 245.75 505 248.75 487.75 251.45 505 253.2 505 261.35 487.5 258.5 505 261.95 505 265.25 485.75 259.45 485.75 253.65 498.7 251.6 485.75 M 277.75 485.75 L 273.5 485.75 264.35 505 267.6 505 269.85 500.35 276.75 500.35 277.55 505 281.45 505 277.75 485.75 M 276.35 497.75 L 270.9 497.75 274.9 489.2 276.35 497.75 M 323.15 399.6 Q 308.5 413 306.15 431.95 303.35 444.6 307.4 456.7 310.9 466.3 319.7 471.3 330.55 476.35 342.05 475.8 354.8 476.2 365.95 470.5 376.25 465.55 382.8 455.75 389.85 444.85 392.15 431.2 395.85 410.45 386.45 399.35 377.5 387.95 356.65 387.95 337.95 386.95 323.15 399.6 M 365 413.35 Q 368.6 419 366.6 431 363.9 445.4 358.5 450.7 352.7 456.5 344.65 456.15 337.35 456.65 333.1 450.7 329.25 444.75 331.65 431.95 332.9 421.05 339.6 413.55 345.4 407.9 353.2 407.9 360.75 407.25 365 413.35 M 173.9 389.35 L 145.95 389.35 99.75 474.4 125.9 474.4 132.4 460.4 161.6 460.4 163.2 474.4 189.95 474.4 173.9 389.35 M 141.3 441.9 L 155.65 411.35 159.6 441.9 141.3 441.9 M 303.3 389.35 L 269.7 389.35 247.5 441.1 243.9 389.35 210.2 389.35 195 474.4 215.9 474.4 227.5 409.5 232.15 474.4 250.95 474.4 278.8 409.5 267.2 474.4 288.1 474.4 303.3 389.35 M 67.1 389.35 L 39.1 389.35 57.8 467.05 74.2 434.65 67.1 389.35 M 443.65 387.95 Q 433.25 387.45 422.75 391.2 415.3 394.2 409.95 400.35 405.3 406 404.15 412.75 401.8 422.2 408.35 429.15 414 435.45 430.45 439.5 437.15 440.5 442.65 444.55 445 446.75 444.4 450.45 443.8 454.15 440.35 456.5 436.1 459.4 431.45 459.15 424.7 459.75 421.1 454.1 419.1 449.9 419.5 444.75 L 395 446.15 Q 393.3 458.35 400.4 467.5 406.9 475.8 428.2 475.8 438.8 476.2 448.7 472.35 457 468.95 462.9 461.85 468.4 455.25 470 446.75 471.2 440.35 468.95 434.2 466.1 427.9 460.05 424.7 448.45 419.3 437.35 417.15 432.95 416.65 429.25 414.15 427.65 412.45 428 410.45 428.65 407.55 431.25 405.65 434.2 403.4 438.35 403.8 443.05 403.4 446.25 406.5 449.25 409.65 448.95 414.8 L 473.25 413.35 Q 473.8 399.65 466.75 393.9 459.25 387.95 443.65 387.95 M 326.4 268.55 Q 332.1 253.2 331.3 236.5 330.55 220.2 323.15 205.05 313.4 186.05 306.6 163.95 292.65 113.8 278.2 62.3 268.5 27.55 266.25 21.15 265.05 16.8 261.95 13.65 256.95 8.65 249.85 8.35 242.45 8.2 237.25 13.25 232.95 17.1 231.55 22.75 230.1 28.55 231.95 33.9 238.25 58.5 252.2 110 L 258.7 132.3 Q 239.3 123.2 230.7 128.85 223 134.1 225.5 149.75 218.75 150.95 216.7 155.8 215.3 159.8 216.35 166.75 209.35 164.95 202.35 167.75 195.4 170.85 192 177.35 190.15 179.1 187.55 178.75 L 185.75 178.5 Q 178.2 178.15 172.5 182.95 166.6 188.1 166.25 195.55 166.25 199.4 167.45 206.75 L 169.5 216.2 Q 170.75 222.05 170.45 225.75 164.8 285.6 197.3 330.2 210.5 348.05 211.45 363.9 212.35 373.55 214.5 382.3 219.75 383.05 219 378 218.8 377.1 217.15 366.9 L 213.9 347.5 225 345.15 Q 221.9 343.75 217.35 343.15 210.9 341.75 209.85 340.1 199.25 325.05 191.8 312.15 182.1 295.35 177.85 274.25 174.4 257.4 173.75 233.9 L 174.8 232.45 Q 176.8 238.8 179.25 241.8 182.5 246.05 187.95 246.65 193.2 247.7 198.1 245.4 203 243.4 205.55 238.7 209.85 245.25 216.5 246.65 221.6 247.9 229.3 246.05 242.9 242.65 242.45 230.6 L 265.75 227.6 263.2 231.25 Q 249.65 249.2 246.75 253.3 234.4 270.5 236.65 291.05 237.8 303.45 247.15 311.2 234.75 289.25 249.85 263.65 258.85 248.35 268.85 234.7 279.75 220.45 271.7 202.65 270.7 200.65 265.75 187.05 L 264.8 186.6 Q 250.35 182.5 240.1 168 231.15 155.45 229.9 143.05 228.7 130.9 240.25 131.7 254.95 133.45 265.6 143.8 267 145.3 267 146.85 267.45 155.75 261.15 159.7 254.85 163.6 246.75 159.7 242.15 157.5 239.25 152.8 237.2 149.5 235 142.6 234.15 149.05 237.4 154.55 240.65 160.25 246.55 162.9 255.55 166.9 261.55 163.3 267.6 159.5 267.85 149.75 L 268.45 144 295.15 160.3 Q 296.6 161.7 296.85 162.9 L 309.45 188.65 Q 316.7 203.65 321.35 214.65 327.1 226.75 326.6 240.2 325.25 257.95 318.5 278.1 313.9 291.7 303.65 314 299.9 319.65 294.05 323.1 285.2 328.5 281.05 330.6 L 281.6 331.45 302.9 323.5 319.35 383.05 323.4 381.3 Q 308.95 328.5 308.35 325.95 307.1 320.25 309 315 321.3 283.65 326.4 268.55 M 245.15 14.05 Q 248.4 12.5 251.8 13.45 255.05 14.3 257.1 17.1 263.2 26.2 267 37.6 271.9 55.2 294.6 142.05 L 298 155.4 285.9 148.5 Q 279.55 145.15 274.1 142.85 268.25 140.8 264.65 135.5 260.95 130.5 260.7 124.15 258.45 116.2 258.1 112.8 258.45 109.85 260.7 108.6 264.85 106.55 271.9 103.9 L 271.9 103.25 264.15 104.1 Q 258.1 104.95 256.9 104.1 255.5 103.2 253.65 97.4 L 246.95 71.8 Q 245.1 65.55 250.95 64.55 253.8 64.2 256.65 61.55 L 248.95 62.15 Q 244.65 63.1 243.55 58.45 238.35 40.35 236.65 31.7 235 26.6 237.4 21.3 239.9 16.25 245.15 14.05 M 185.1 182.4 Q 189.8 181.75 190.8 186.25 194.8 201.7 203.15 232.05 203.8 235.45 201.3 237.95 196.05 242.4 190.35 241.95 183.5 241.65 180.45 233.65 173.9 218.4 171.7 201.4 171.55 184.4 185.1 182.4 M 196.25 187.45 Q 194.45 180.3 200.95 173.9 207.4 167.6 214.9 169 217.95 169.85 219.2 174.05 221.45 181.8 225 196.5 L 228.7 211.6 Q 230.55 220.7 238.25 226.2 L 239.25 226.75 Q 242.3 229.9 239.45 233.05 233.8 241.65 222.8 241.95 216.65 241.95 213.5 239.75 210.2 237.75 208.85 232.7 200.95 205.95 196.25 187.45 M 226.45 154.2 Q 227.65 155.15 228.1 156.25 232.35 168.5 242.65 176.7 251.5 182.55 261.35 187.05 265.75 189.25 266.25 193.3 L 268.6 209.35 Q 268.45 216.8 265.25 220.3 262.2 223.9 254.65 225.15 248.45 226.75 242.9 223.55 237.4 220.45 235.4 214.65 231.6 201.9 220.95 163.15 219.95 159.95 220.6 157.5 221.9 155.15 224.25 152.3 224.95 153.05 226.45 154.2 Z"/>
</g>
<g id="l0">
<path fill="#EA3A28" stroke="none" d="M 132.2 388.4 L 104.8 388.4 61.6 474.4 87.75 474.4 132.2 388.4 Z"/>
</g>
</defs>
<g transform="matrix(1,0,0,1,0,0)">
<use xlink:href="#l2"/>
</g>
<g transform="matrix(1,0,0,1,0,0)">
<use xlink:href="#l1"/>
</g>
<g transform="matrix(1,0,0,1,0,0)">
<use xlink:href="#l0"/>
</g>
</svg>
