<svg xmlns="http://www.w3.org/2000/svg" xmlns:xlink="http://www.w3.org/1999/xlink" width="100%" height="100%" viewBox="0 0 512 512">
<!-- Vectorization by Rodrigo Polo https://github.com/rodrigopolo/logotipos-politicos -->
<defs>
<g id="l4">
<path fill="#16255C" stroke="none" d="M 512.05 0.05 L 0.05 0.05 0.05 512.05 512.05 512.05 512.05 0.05 Z"/>
</g>
<g id="l3">
<path fill="#FFFFFF" stroke="none" d="M 499.35 499.35 L 499.35 12.45 12.5 12.45 12.5 499.35 499.35 499.35 Z"/>
</g>
<g id="l2">
<path fill="#16255C" stroke="none" d="M 489.65 21.95 L 22 21.95 22 489.65 489.65 489.65 489.65 21.95 Z"/>
</g>
<g id="l1">
<path fill="#FFFFFF" stroke="none" d="M 480.5 189.85 Q 480.5 179.3 469.95 179.3 L 332.8 179.3 332.8 42.15 Q 332.8 31.65 322.3 31.65 L 189.9 31.65 Q 179.3 31.65 179.3 42.15 L 179.3 179.3 42.2 179.3 Q 31.65 179.3 31.65 189.85 L 31.65 322.25 Q 31.65 332.8 42.2 332.8 L 179.3 332.8 179.3 469.95 Q 179.3 480.45 189.9 480.45 L 322.3 480.45 Q 332.8 480.45 332.8 469.95 L 332.8 332.8 469.95 332.8 Q 480.5 332.8 480.5 322.25 L 480.5 189.85 Z"/>
</g>
<g id="l0">
<path fill="#16255C" stroke="none" d="M 87.25 227.45 L 87.25 228.75 Q 91.25 229.05 92.3 230.2 93.4 231.3 93.4 235.1 L 93.4 248.8 72.05 248.8 72.05 235.1 Q 72.05 231.35 73.2 230.2 74.35 229.05 78.3 228.75 L 78.3 227.45 58.7 227.45 58.7 228.75 Q 62.65 229.05 63.8 230.2 64.9 231.3 64.9 235.1 L 64.9 265.55 Q 64.9 270.1 63.9 271.15 62.8 272.3 58.7 272.75 L 58.7 273.95 78.3 273.95 78.3 272.75 Q 74.4 272.4 73.2 271.3 72.05 270.2 72.05 266.35 L 72.05 251.85 93.4 251.85 93.4 265.55 Q 93.4 270.05 92.45 271.15 91.4 272.3 87.25 272.75 L 87.25 273.95 106.7 273.95 106.7 272.75 Q 102.75 272.35 101.75 271.3 100.55 270.2 100.55 266.35 L 100.55 235.1 Q 100.55 231.35 101.75 230.2 102.75 229.05 106.7 228.75 L 106.7 227.45 87.25 227.45 M 121.8 230.2 Q 122.9 229.05 127.05 228.75 L 127.05 227.45 107.05 227.45 107.05 228.75 Q 111.15 229.15 112.3 230.2 113.45 231.3 113.45 235.1 L 113.45 257.05 Q 113.45 263.7 115.7 267.55 119.75 275 131.2 275 142.65 275 146.85 267.45 149.1 263.3 149.1 256.1 L 149.1 237.85 Q 149.1 232.2 150.35 230.75 151.65 229.25 155.65 228.75 159.9 229 161.1 230.15 162.3 231.25 162.3 235.1 L 162.3 263.65 Q 162.3 269.2 161.05 270.75 159.85 272.25 155.45 272.75 L 155.45 273.95 172.05 273.95 172.05 272.75 Q 168.2 272.3 167.05 271.15 165.4 269.45 165.4 263.65 L 165.4 235.65 183.1 273.95 184.05 273.95 202.1 233.95 202.1 265.5 Q 202.1 270.05 201 271.15 200 272.35 195.7 272.75 L 195.7 273.95 215.35 273.95 215.35 272.75 Q 211.5 272.35 210.3 271.3 209.25 270.2 209.25 266.35 L 209.25 235.1 Q 209.25 231.35 210.3 230.2 211.5 229.05 215.35 228.75 L 215.35 227.45 201.4 227.45 185.65 262.5 169.55 227.45 139.4 227.45 139.4 228.75 Q 143.2 229.15 144.55 230.65 145.95 232.05 145.95 237.85 L 145.95 256.1 Q 145.95 262.9 144.3 266.1 141.35 271.85 132.8 271.85 124.85 271.85 122.05 266.2 120.55 263.05 120.55 257.6 L 120.55 235.1 Q 120.55 231.2 121.8 230.2 M 337.8 238.85 Q 337.8 242.9 340.75 246.2 342.5 248.05 345.05 249.65 L 351.05 253.4 Q 356.2 256.6 357.9 258.3 360.4 260.85 360.4 264.25 360.4 268.1 357.9 270.2 355.5 272.35 352.05 272.35 345.85 272.35 341.65 267.4 339.25 264.45 337.5 259.85 L 335.9 259.85 337.95 274.8 339.5 274.8 340.1 273.25 Q 340.55 272.45 341.7 272.45 L 345.85 273.7 Q 349.35 274.95 352.65 274.95 359.05 274.95 363.3 271.2 367.45 267.5 367.45 262 367.45 257.9 365.15 254.85 362.6 251.7 356.95 248.35 L 350.8 244.5 Q 347.35 242.4 345.7 240.4 344.05 238.45 344.05 235.75 344.05 232.75 346.2 231.05 348.4 229.3 351.25 229.3 354.9 229.3 358.75 232.05 362.55 234.65 364.2 241.45 L 365.95 241.45 364.35 226.5 362.9 226.5 362.15 228.25 Q 361.7 228.8 360.4 228.8 L 356.5 227.7 Q 353.25 226.5 350.7 226.5 344.9 226.5 341.3 230 337.8 233.5 337.8 238.85 M 328.3 230.15 Q 329.5 229 333.8 228.75 L 333.8 227.45 296.55 227.45 296.55 228.75 Q 300.4 229.1 301.6 230.2 303.25 232 303.25 237.7 L 303.25 261.15 276.15 227.45 264.2 227.45 264.2 228.75 Q 266.35 228.85 267.45 229.3 268.45 229.7 270 231.55 L 270.95 232.65 270.95 263.65 Q 270.95 269.2 269.75 270.75 268.45 272.2 264.3 272.75 261.85 272.35 260.9 271.45 259.85 270.45 258.1 266.5 L 240.65 226.65 239.25 226.65 224.6 261.15 Q 221.15 269.05 219.95 270.65 218.55 272.4 215.85 272.75 L 215.85 273.95 229.75 273.95 229.75 272.75 Q 227.4 272.55 226.4 272.1 224.95 271.35 224.95 269.6 L 225.5 267.25 228.8 258.8 247.3 258.8 251.1 268.3 251.45 270.05 Q 251.45 271.65 250.55 272 249.65 272.45 246.55 272.75 L 246.55 273.95 280.6 273.95 280.6 272.75 Q 276.85 272.25 275.75 271.15 274.05 269.45 274.05 263.65 L 274.05 236.3 305.15 274.8 306.4 274.8 306.4 237.85 Q 306.4 232.2 307.75 230.7 309.15 229.2 313.05 228.75 L 313.1 228.75 Q 317.35 229 318.6 230.15 319.85 231.2 319.85 235.1 L 319.85 266.35 Q 319.85 270.5 318.6 271.45 317.4 272.4 313 272.75 L 313 273.95 333.8 273.95 333.8 272.75 Q 329.45 272.4 328.3 271.45 327 270.5 327 266.35 L 327 235.1 Q 327 231.2 328.3 230.15 M 229.95 255.95 L 238.05 236.55 246.15 255.95 229.95 255.95 M 406.65 232.1 Q 408.55 233.85 409.75 239.4 L 411.45 239.4 411.05 227.45 371.3 227.45 370.85 239.4 372.6 239.4 Q 373.65 233.7 375.85 232.05 377.9 230.4 383.7 230.4 L 387.65 230.4 387.65 265.55 Q 387.65 270.1 386.55 271.2 385.5 272.35 381 272.75 L 381 273.95 401.5 273.95 401.5 272.75 Q 397.15 272.4 395.95 271.45 394.65 270.5 394.65 266.35 L 394.65 230.4 398.6 230.4 Q 404.75 230.4 406.65 232.1 M 436.5 226.65 L 435.1 226.65 420.45 261.15 Q 417.15 269 415.8 270.65 414.5 272.4 411.7 272.75 L 411.7 273.95 425.65 273.95 425.65 272.75 Q 423.2 272.55 422.35 272.1 420.85 271.4 420.85 269.6 L 421.4 267.25 424.7 258.8 443.2 258.8 447 268.3 447.3 270.05 Q 447.3 271.7 446.45 272 445.55 272.45 442.5 272.75 L 442.5 273.95 460.35 273.95 460.35 272.75 Q 457.85 272.35 456.8 271.45 455.85 270.55 454 266.5 L 436.5 226.65 M 442.05 255.95 L 425.9 255.95 434 236.55 442.05 255.95 Z"/>
</g>
</defs>
<g transform="matrix(1,0,0,1,0,0)">
<use xlink:href="#l4"/>
</g>
<g transform="matrix(1,0,0,1,0,0)">
<use xlink:href="#l3"/>
</g>
<g transform="matrix(1,0,0,1,0,0)">
<use xlink:href="#l2"/>
</g>
<g transform="matrix(1,0,0,1,0,0)">
<use xlink:href="#l1"/>
</g>
<g transform="matrix(1,0,0,1,0,0)">
<use xlink:href="#l0"/>
</g>
</svg>
