<svg xmlns="http://www.w3.org/2000/svg" xmlns:xlink="http://www.w3.org/1999/xlink" width="100%" height="100%" viewBox="0 0 512 512">
<!-- Vectorization by Rodrigo Polo https://github.com/rodrigopolo/logotipos-politicos -->
<defs>
<g id="l3">
<path fill="#001984" stroke="none" d="M 230.55 161.65 Q 218.65 143.75 197.75 134.6 176.9 125.2 147.8 125.2 L 52.4 125.2 Q 50.8 125.2 49.45 126.35 48.3 127.7 48.3 129.3 L 48.3 332.25 Q 48.3 334.05 49.45 335.2 50.8 336.35 52.4 336.35 L 104.45 336.35 Q 106.3 336.35 107.45 335.2 108.6 334.05 108.6 332.25 L 108.6 284.55 Q 108.6 282.95 109.75 281.55 111.1 280.4 112.7 280.4 L 147.8 280.4 Q 176.9 280.4 197.75 271 218.85 261.85 230.55 243.95 242 226.3 242 202.9 242 178.85 230.55 161.65 M 108.6 171.5 L 148.45 171.5 Q 165.2 171.5 173 179.75 181.25 188 181.25 202.9 181.25 217.6 173 225.85 165.2 234.1 148.45 234.1 L 108.6 234.1 108.6 171.5 Z"/>
</g>
<g id="l2">
<path fill="#F0000F" stroke="none" d="M 453.65 159.35 Q 441.95 141.25 420.6 131.4 399.3 121.75 370.65 121.75 L 272.95 121.75 Q 270.45 121.75 270.45 124.25 L 270.45 331.55 Q 270.45 333.85 272.95 333.85 L 329.8 333.85 Q 332.1 333.85 332.1 331.55 L 332.1 279.5 Q 332.1 277.2 334.65 277.2 L 362.85 277.2 Q 364.2 277.2 364.9 278.15 L 402.95 332.25 Q 403.65 333.4 404.8 333.4 L 464.65 333.4 Q 466 333.4 466.7 332 467.4 330.65 466.7 329.5 L 425.2 268.95 Q 423.85 266.65 425.9 265.5 445.6 254.5 454.8 239.4 465.1 221.5 465.1 201.75 465.1 177.25 453.65 159.35 M 332.35 171.3 Q 332.35 169 334.65 169 L 370.65 169 Q 386.7 169 394.7 177 402.95 185.25 402.95 199.95 402.95 214.4 394.7 222.65 386.9 230.65 370.65 230.65 L 334.65 230.65 Q 332.35 230.65 332.35 228.35 L 332.35 171.3 Z"/>
</g>
<g id="l1">
<path fill="#001984" stroke="none" d="M 362.6 475.3 L 354.8 475.3 339.45 511.55 347.7 511.55 350.7 503.75 366.75 503.75 369.7 511.55 377.95 511.55 362.6 475.3 M 364.2 497.35 L 353.2 497.35 358.7 483.55 364.2 497.35 M 346.55 433.6 Q 343.6 431.75 339 431.75 334.65 431.75 331.65 433.6 328.45 435.4 326.6 438.65 324.55 442.05 324.55 446.2 324.55 450.55 326.6 453.55 328 456.5 331.65 458.8 335.35 460.65 339 460.65 342.9 460.65 346.55 458.8 350.25 456.5 351.6 453.55 353.45 450.8 353.45 446.2 353.45 441.6 351.6 438.65 349.75 435.4 346.55 433.6 M 339 436.35 Q 341.5 436.35 343.8 437.5 345.85 438.65 347.25 441.15 348.4 443 348.4 446.2 348.4 449.15 347.25 451.25 346.35 453.75 343.8 454.7 341.75 456.05 339 456.05 336.7 456.05 334.2 454.7 331.9 453.55 330.95 451.25 329.6 448.95 329.6 446.2 329.6 443.2 330.95 441.15 331.9 439.1 334.2 437.5 336.25 436.35 339 436.35 M 469.45 457.65 L 469.45 434.95 363.05 434.95 363.05 457.65 469.45 457.65 M 418.1 475.3 L 410.3 475.3 410.3 497.35 393.35 475.3 386.7 475.3 386.7 511.55 394.5 511.55 394.5 489.55 411.65 511.55 418.1 511.55 418.1 475.3 M 436.45 477.15 Q 432.3 479.45 429.8 483.8 427.25 488.4 427.25 493.45 427.25 498.45 429.8 503.05 432.3 507.2 436.45 509.7 440.35 512 446.05 512 451.8 512 455.7 509.7 459.8 507.65 462.35 503.05 464.85 498.45 464.85 493.45 464.85 487.9 462.35 483.8 459.8 479.45 455.7 477.15 451.35 474.65 446.05 474.65 441 474.65 436.45 477.15 M 436.65 487.45 Q 438.05 484.7 440.55 483.35 442.85 481.75 446.05 481.75 449.25 481.75 451.55 483.35 454.1 484.7 455.45 487.45 456.85 490 456.85 493.45 456.85 496.65 455.45 499.4 454.1 502.15 451.55 503.5 449.25 504.9 446.05 504.9 443.1 504.9 440.55 503.5 438.25 502.15 436.65 499.4 435.3 496.65 435.3 493.45 435.3 490 436.65 487.45 M 75.55 476.9 Q 71.65 475.3 67.55 475.3 L 52.65 475.3 52.65 511.55 60.65 511.55 60.65 501.45 68 501.45 74.65 511.55 74.65 511.3 83.15 511.3 75.35 499.85 Q 79 498 80.6 495.25 82.45 492.75 82.45 488.4 82.45 484.5 80.6 481.5 79.25 479 75.55 476.9 M 60.65 494.8 L 60.65 482.2 67.1 482.2 Q 70.75 482.2 72.6 483.8 74.4 485.65 74.4 488.4 74.4 491.35 72.6 493.2 70.3 494.8 67.1 494.8 L 60.65 494.8 M 152.6 476.9 Q 149.4 475.3 144.8 475.3 L 129.9 475.3 129.9 511.3 137.7 511.3 137.7 501.45 144.8 501.45 Q 149.4 501.45 152.6 499.85 155.6 498.7 157.85 495.25 159.7 492.3 159.7 488.4 159.7 484.5 157.85 481.5 156.05 478.5 152.6 476.9 M 137.7 494.8 L 137.7 482.2 144.35 482.2 Q 148 482.2 149.6 483.8 151.7 485.65 151.7 488.4 151.7 491.6 149.6 492.95 L 149.6 493.2 Q 147.55 494.8 144.35 494.8 L 137.7 494.8 M 118.65 475.3 L 92.75 475.3 92.75 511.55 119.35 511.55 119.35 504.65 100.55 504.65 100.55 496.4 116.6 496.4 116.6 489.75 100.55 489.75 100.55 481.95 118.65 481.95 118.65 475.3 M 241.8 484.7 Q 241.8 480.6 238.35 477.85 235.15 475.3 228.7 475.3 L 212 475.3 212 511.55 229.85 511.55 Q 236.5 511.55 239.95 508.8 243.4 506.5 243.4 501.7 243.4 498.25 241.8 495.95 239.95 493.45 237.2 492.75 239.25 491.35 240.65 489.3 241.8 487 241.8 484.7 M 220 490.2 L 220 481.75 227.8 481.75 Q 231 481.75 232.15 482.65 233.75 483.55 233.75 485.85 233.75 488.15 232.15 489.05 230.55 490.2 227.8 490.2 L 220 490.2 M 235.35 500.75 Q 235.35 502.85 234 504.2 232.4 505.1 229.2 505.1 L 219.8 505.1 219.8 496.2 229.2 496.2 Q 235.35 496.2 235.35 500.75 M 176.9 475.3 L 168.9 475.3 168.9 495.5 Q 168.9 503.5 173 507.85 177.15 512 184.45 512 191.8 512 195.95 507.85 200.05 503.5 200.05 495.5 L 200.05 475.3 192.25 475.3 192.25 495.25 Q 192.25 500.3 190.2 502.6 188.15 504.9 184.45 504.9 176.9 504.9 176.9 495.25 L 176.9 475.3 M 202.1 432 L 197.3 432 185.15 460.2 190.45 460.2 192.95 453.75 206.5 453.75 209 460.2 214.25 460.2 202.1 432 M 199.85 437.25 L 204.85 449.65 194.8 449.65 199.85 437.25 M 180.8 436.8 Q 179.4 434.25 176.9 433.35 174.6 432 170.95 432 L 159.95 432 159.95 460.2 164.75 460.2 164.75 452.15 170.95 452.15 Q 174.15 452.15 176.9 451 179.4 449.85 180.8 447.35 182.2 445.3 182.2 442.05 182.2 438.85 180.8 436.8 M 175.55 437.95 Q 177.35 439.3 177.35 442.05 177.35 444.8 175.55 446.2 173.45 447.8 170.7 447.8 L 164.75 447.8 164.75 436.55 170.7 436.55 Q 173.9 436.55 175.55 437.95 M 242 436.55 Q 240.65 434.5 237.9 433.1 235.15 432 231.95 432 L 220.9 432 220.9 460.2 225.95 460.2 225.95 451.95 233.05 451.95 238.35 460.2 243.85 460.2 237.65 451 Q 240.4 449.65 241.8 447.55 243.4 444.8 243.4 442.05 243.4 439.1 242 436.55 M 225.95 436.55 L 231.7 436.55 Q 235.15 436.55 236.75 437.95 238.35 439.3 238.35 442.05 238.35 444.6 236.75 446.2 234.7 447.8 231.7 447.8 L 225.95 447.8 225.95 436.55 M 316.75 483.35 Q 319.3 481.95 322.5 481.95 327.75 481.95 331.2 486.1 L 336.25 481.25 Q 333.95 478.3 330.05 476.45 326.85 474.85 322.05 474.85 316.55 474.85 312.65 477.15 308.5 479.45 306 483.8 303.45 488.15 303.45 493.45 303.45 498.7 306 503.05 308.5 507.65 312.65 509.7 L 312.65 509.95 Q 316.05 512 322.05 512 327.3 512 330.05 510.6 333.95 509 336.25 505.8 L 331.2 500.75 Q 327.75 505.1 322.5 505.1 319.3 505.1 316.75 503.75 314.25 501.9 312.85 499.6 311.5 496.85 311.5 493.45 311.5 490.2 312.85 487.45 314.25 484.7 316.75 483.35 M 295.2 475.3 L 287.4 475.3 287.4 511.55 295.2 511.55 295.2 475.3 M 261.5 475.3 L 253.7 475.3 253.7 511.55 278.7 511.55 278.7 504.65 261.5 504.65 261.5 475.3 M 282.8 432 L 277.8 432 277.8 460.2 282.8 460.2 282.8 432 M 270.9 432 L 248.2 432 248.2 436.55 257.15 436.55 257.15 460.2 262.2 460.2 262.2 436.55 270.9 436.55 270.9 432 M 303.45 432 L 291.75 432 291.75 460.2 303.45 460.2 Q 307.8 460.2 311 458.6 314.7 456.3 316.3 453.55 318.15 450.3 318.15 446.2 318.15 442.05 316.3 438.85 314.7 435.65 311 433.8 307.8 432 303.45 432 M 296.8 436.55 L 303.25 436.55 Q 306.45 436.55 308.5 437.7 310.55 438.85 311.95 441.15 313.1 443.45 313.1 446.2 313.1 448.95 311.95 451.25 310.55 453.3 308.5 454.7 305.75 455.8 303.25 455.8 L 296.8 455.8 296.8 436.55 M 279.85 60.75 Q 271.8 64.9 258.75 65.6 250.5 66.25 243.4 66.25 L 237.9 66.25 236.3 67.2 Q 236.3 68.8 243.4 73.15 254.4 80 262.65 83.25 278.45 88.3 289.25 94 293.85 96.55 298.65 100.45 301.4 102.7 306 106.6 313.3 112.6 317.45 111.2 320.65 110.05 321.1 102.25 321.8 94.25 318.15 89.4 315.15 85.3 302.55 75.45 L 285.1 61.7 Q 282.35 59.6 279.85 60.55 L 279.85 60.75 M 397.9 69.95 L 392.2 65.6 375.2 58.45 Q 373.85 58 373.4 57.8 372.45 57.8 372.25 58.45 371.8 59.4 372.25 60.3 372.7 61 372.95 61.2 L 392.2 80.95 Q 400.65 87.8 403.9 86 407.3 84.15 403.4 77.5 400.65 72.7 397.9 69.95 M 346.55 52.5 Q 345.65 52.5 344.75 52.75 343.35 53.2 344.75 54.8 359.15 72.45 360.55 73.85 364.65 77.95 366.95 79.35 369.95 80.7 373.15 79.55 379.6 77.25 370.65 66.25 365.8 59.85 363.55 57.3 359.4 52.95 355.75 52.5 352.05 52.05 348.85 52.3 L 346.55 52.5 M 347.25 71.3 Q 350.7 71.1 348.4 66.25 L 342 56.65 Q 339.2 52.3 337.85 51.15 336.95 50.2 333.25 50.2 L 329.6 50.2 Q 327.3 50 324.3 50.2 322.25 50.45 322.7 51.6 322.95 52.3 323.4 52.95 L 327.55 58.25 Q 332.35 64.2 335.35 67.2 340.15 71.75 347.25 71.3 M 416.25 74.5 Q 424.75 77.75 432.75 76.8 L 434.6 75.9 Q 435.75 74.3 432.75 70.15 428.2 64.2 413.5 52.75 396.75 39.45 382.55 32.1 352.5 16.95 344.5 14 317 3.2 286.5 0.7 254.85 -1.85 226.2 3.65 207.4 7.1 183.3 16.05 161.3 24.1 139.05 39.45 110.65 59.4 88.65 87.6 L 80.6 98.6 Q 71.65 111.65 67.75 122.2 67.45 124.4 65.05 125.2 73.6 136.5 81.8 125.2 81.1 123.9 82.45 122 92.05 108 101 98.8 122.8 76.6 148.45 67.65 L 158.1 64.2 Q 169.8 60.75 180.55 60.55 198.2 60.3 247.75 61 251.85 60.75 259.45 59.4 268.15 57.8 273.65 55.7 284.9 51.35 300.95 47.9 325.45 42.65 343.8 44 361.45 45.4 380.05 54.1 389.2 58.45 394.95 62.35 L 416.25 74.5 Z"/>
</g>
<g id="l0">
<path fill="#F0000F" stroke="none" d="M 148.7 457.65 L 148.7 434.95 42.55 434.95 42.55 457.65 148.7 457.65 M 182.4 354.25 Q 181.5 359.05 188.35 367.1 191.1 370.55 195.25 372.15 L 206.7 374.45 Q 210.6 374.9 208.1 372.15 198.9 357.9 189.5 353.1 185.6 351.05 183.55 352.4 182.65 353.1 182.4 354.25 M 156.5 352.85 L 159.7 357.9 Q 163.6 363.4 166.35 365.95 172.1 371 184.7 372.15 189.95 372.6 184.7 367.1 L 170.95 350.8 Q 167.75 346.9 164.05 345.55 160.15 343.95 157.65 345.55 154.45 347.85 156.5 352.85 M 126.9 340.95 Q 126.9 341.85 126.9 342.8 L 127.15 342.8 Q 134.95 363.9 158.8 364.55 159.5 363.9 158.8 362.5 L 157.85 361.15 Q 145.25 346.45 140.7 342.35 136.8 338.9 127.6 338.9 127.15 339.1 126.9 340.95 M 393.1 350.1 Q 371.55 362.25 346.35 364.8 325.95 366.15 308.5 363.9 301.4 361.8 300 360.65 299.1 359.5 286.5 351.95 273.65 344.4 269.3 342.55 L 241.8 330.15 Q 229.2 323.5 224.15 317.35 L 220.9 314.1 Q 218.85 310.7 215.4 311.85 213.35 312.5 212.65 314.6 212.2 315.75 212.2 316.65 L 210.6 322.6 Q 209.9 329.5 213.6 334.05 225.3 349.45 240.65 357.45 247.75 361.35 249.1 366.15 249.8 368.7 249.1 370.3 L 245.9 375.1 Q 239.7 380.15 225.95 381.55 205.1 383.85 180.55 379 148.95 373.05 126.7 357.45 122.35 354.25 116.85 351.75 106.3 347.15 101.45 351.95 L 101.45 354.7 Q 102.15 354.95 106.05 360.45 107.2 361.35 121.65 374.65 140 389.55 159.95 399.2 187.7 412.5 207.15 417.75 233.3 424.65 267.45 424.4 298.2 424.2 332.8 413.85 350.25 408.8 361.25 403.55 374.75 396.45 391.05 384.75 423.85 361.8 438.05 339.8 L 440.8 335.7 442.65 334.55 Q 444 333.8 445.9 333.4 428.05 321.35 413.75 333.4 414.4 334.45 412.6 336.15 405.5 343.25 393.1 350.1 Z"/>
</g>
</defs>
<g transform="matrix(1,0,0,1,0,0)">
<use xlink:href="#l3"/>
</g>
<g transform="matrix(1,0,0,1,0,0)">
<use xlink:href="#l2"/>
</g>
<g transform="matrix(1,0,0,1,0,0)">
<use xlink:href="#l1"/>
</g>
<g transform="matrix(1,0,0,1,0,0)">
<use xlink:href="#l0"/>
</g>
</svg>
