<svg xmlns="http://www.w3.org/2000/svg" xmlns:xlink="http://www.w3.org/1999/xlink" width="100%" height="100%" viewBox="0 0 512 512">
<!-- Vectorization by Rodrigo Polo https://github.com/rodrigopolo/logotipos-politicos -->
<defs>
<g id="l3">
<path fill="#FFFFFF" stroke="none" d="M 461.25 329.75 L 461.25 158.8 50.3 158.8 50.3 329.75 461.25 329.75 Z"/>
</g>
<g id="l2">
<path fill="#000000" stroke="none" d="M 473.8 342 L 473.8 146.25 37.95 146.25 37.95 342 473.8 342 M 454.25 165.8 L 454.25 322.75 57.25 322.75 57.25 165.8 454.25 165.8 Z"/>
</g>
<g id="l1">
<path fill="#000000" stroke="none" d="M 310.25 372.9 L 310.25 390.75 315.25 390.75 315.25 372.9 310.25 372.9 M 300.35 372.45 Q 296.25 372.45 293.7 375.2 290.95 377.95 290.95 381.85 L 290.75 381.85 Q 290.75 385.75 293.5 388.5 296.25 391 300.15 391 305.2 391 307.95 387.1 L 304.25 384.35 Q 302.65 386.65 300.35 386.65 298.55 386.65 297.15 385.25 296 383.65 296 381.85 296 377 300.35 377 302.2 377 304.25 379.1 L 307.95 376.1 Q 305.2 372.45 300.35 372.45 M 282.7 372.65 L 277.9 372.65 270.35 390.75 275.6 390.75 276.75 387.55 283.85 387.55 285 390.75 290.5 390.75 282.7 372.65 M 282.25 383.65 L 278.35 383.65 280.4 378.6 282.25 383.65 M 262.1 372.9 L 253.6 372.9 253.6 390.75 258.65 390.75 258.65 385.25 260.7 385.25 264.35 390.75 270.1 390.75 265.75 384.6 Q 269.65 382.95 269.65 378.85 269.65 376.8 268.05 374.7 265.75 372.9 262.1 372.9 M 261.85 381.35 L 258.65 381.35 258.65 377.25 261.85 377.25 Q 264.6 377.25 264.6 379.3 264.6 381.35 261.85 381.35 M 233.4 381.85 Q 233.4 385.95 236.15 388.5 238.9 391 243.05 391 247.65 391 250.85 388.25 L 250.85 380.2 242.6 380.2 242.6 383.9 246.25 383.9 246.25 386.2 Q 244.9 386.85 243.25 386.85 238.45 386.85 238.45 381.85 238.45 379.75 239.85 378.4 241.2 377 243.05 377 245.55 377 247.4 378.6 L 250.4 374.95 Q 247.15 372.45 243.05 372.45 238.9 372.45 236.15 375.2 233.4 377.95 233.4 381.85 M 216.9 372.9 L 216.9 390.75 231.6 390.75 231.6 386.4 221.95 386.4 221.95 383.65 230.45 383.65 230.45 379.75 221.95 379.75 221.95 377 231.35 377 231.35 372.9 216.9 372.9 M 199 372.9 L 199 377.25 204.3 377.25 204.3 390.75 209.35 390.75 209.35 377.25 214.85 377.25 214.85 372.9 199 372.9 M 180 372.9 L 180 390.75 184.8 390.75 184.8 380.9 192.35 390.75 196.75 390.75 196.75 372.9 191.9 372.9 191.9 382.3 184.6 372.9 180 372.9 M 171.5 372.9 L 171.5 390.75 176.55 390.75 176.55 372.9 171.5 372.9 M 161.2 375.65 L 161.2 372.9 147.9 372.9 147.9 390.75 161.2 390.75 161.2 388 150.85 388 150.85 383.2 159.8 383.2 159.8 380.2 150.85 380.2 150.85 375.65 161.2 375.65 M 141.25 375.4 Q 138.7 372.9 134.35 372.9 L 127.7 372.9 127.7 390.75 134.35 390.75 Q 138.7 390.75 141.25 388.25 144 385.75 144 381.85 144 377.95 141.25 375.4 M 134.35 375.65 Q 137.35 375.65 138.95 377.45 140.8 379.3 140.8 381.85 140.8 384.35 138.95 386.2 137.35 387.8 134.35 387.8 L 130.9 387.8 130.9 375.65 134.35 375.65 M 100.2 375.2 Q 97.45 377.95 97.45 381.85 97.45 385.75 100.2 388.25 102.7 391 106.85 391 111 391 113.75 388.25 116.25 385.5 116.25 381.6 116.25 377.7 113.75 375.2 111 372.45 106.85 372.45 102.7 372.45 100.2 375.2 M 111.45 377.25 Q 113.05 379.1 113.05 381.85 113.05 384.6 111.45 386.4 109.6 388.25 106.85 388.25 104.35 388.25 102.5 386.4 100.9 384.35 100.9 381.85 100.9 379.1 102.5 377.25 104.1 375.4 106.85 375.4 109.6 375.4 111.45 377.25 M 78.2 372.9 L 78.2 390.75 84.85 390.75 Q 89.2 390.75 91.7 388.25 94.45 385.75 94.45 381.85 94.45 377.95 91.7 375.4 89.2 372.9 84.85 372.9 L 78.2 372.9 M 81.4 375.65 L 84.85 375.65 Q 87.8 375.65 89.4 377.45 91.25 379.3 91.25 381.85 91.25 384.35 89.4 386.2 87.8 387.8 84.85 387.8 L 81.4 387.8 81.4 375.65 M 69.7 372.9 L 69.7 390.75 72.9 390.75 72.9 372.9 69.7 372.9 M 52.75 372.9 L 52.75 375.85 58.45 375.85 58.45 390.75 61.7 390.75 61.7 375.85 67.2 375.85 67.2 372.9 52.75 372.9 M 36.45 390.75 L 39.65 390.75 39.65 384.6 43.55 384.6 48.15 390.75 51.8 390.75 47 383.9 Q 51.15 382.75 51.15 378.4 51.15 376.35 49.75 374.5 47.7 372.9 44.5 372.9 L 36.45 372.9 36.45 390.75 M 39.65 381.6 L 39.65 375.65 44.25 375.65 Q 47.9 375.65 47.9 378.6 47.9 381.6 44.25 381.6 L 39.65 381.6 M 14.65 390.75 L 17.9 390.75 19.7 386.4 28.2 386.4 30.05 390.75 33.5 390.75 25.45 372.65 22.7 372.65 14.65 390.75 M 27.05 383.65 L 20.85 383.65 24.1 376.35 27.05 383.65 M 6.9 372.9 L 0 372.9 0 390.75 3 390.75 3 385.05 6.65 385.05 Q 13.75 385.05 13.75 378.85 13.75 372.9 6.9 372.9 M 6.65 382.05 L 3 382.05 3 375.65 6.65 375.65 Q 10.55 375.65 10.55 378.85 10.55 382.05 6.65 382.05 M 498 372.9 L 498 390.75 511.75 390.75 511.75 386.4 503.05 386.4 503.05 372.9 498 372.9 M 476.25 390.75 L 481.5 390.75 482.65 387.55 489.75 387.55 490.9 390.75 496.4 390.75 488.6 372.65 483.8 372.65 476.25 390.75 M 486.1 378.6 L 488.15 383.65 484.25 383.65 486.1 378.6 M 457.65 372.9 L 457.65 390.75 462.45 390.75 462.45 380.9 470.05 390.75 474.4 390.75 474.4 372.9 469.6 372.9 469.6 382.3 462.25 372.9 457.65 372.9 M 432.45 372.9 L 427.4 372.9 427.4 390.75 432.45 390.75 432.45 372.9 M 438.4 375.2 Q 435.65 377.95 435.65 381.85 435.65 385.75 438.4 388.25 441.15 391 445.3 391 449.4 391 452.15 388.25 454.9 385.75 454.9 381.85 454.9 377.95 452.15 375.2 449.4 372.45 445.3 372.45 441.15 372.45 438.4 375.2 M 440.7 381.85 Q 440.7 377 445.3 377 449.85 377 449.85 381.85 449.85 383.9 448.7 385.25 447.35 386.65 445.3 386.65 443.2 386.65 442.05 385.25 440.7 383.9 440.7 381.85 M 416.85 377 Q 419.15 377 420.75 379.1 L 424.4 376.1 Q 421.65 372.45 416.85 372.45 412.95 372.45 410.2 375.2 407.45 377.95 407.45 381.85 407.45 385.75 410.2 388.5 412.7 391 416.6 391 421.45 391 424.65 387.1 L 420.75 384.35 Q 419.15 386.65 416.85 386.65 415 386.65 413.65 385.25 412.5 383.65 412.5 381.85 412.5 377 416.85 377 M 399.9 372.65 L 395.05 372.65 387.5 390.75 392.55 390.75 393.9 387.55 400.8 387.55 402.15 390.75 407.45 390.75 399.9 372.65 M 399.4 383.65 L 395.3 383.65 397.35 378.6 399.4 383.65 M 368.25 372.9 L 368.25 390.75 373.05 390.75 373.05 380.9 380.85 390.75 385.2 390.75 385.2 372.9 380.15 372.9 380.15 382.3 372.8 372.9 368.25 372.9 M 340.5 372.9 L 340.5 390.75 345.3 390.75 345.3 380.9 353.1 390.75 357.45 390.75 357.45 372.9 352.4 372.9 352.4 382.3 345.1 372.9 340.5 372.9 M 337.75 381.85 Q 337.75 377.95 335 375.2 332.25 372.45 328.1 372.45 324 372.45 321.25 375.2 318.5 377.95 318.5 381.85 318.5 385.75 321.25 388.25 324 391 328.1 391 332.25 391 335 388.25 337.75 385.75 337.75 381.85 M 328.1 377 Q 332.7 377 332.7 381.85 332.7 383.9 331.55 385.25 330.15 386.65 328.1 386.65 326.3 386.65 324.9 385.25 323.5 383.65 323.5 381.85 323.5 377 328.1 377 M 333.6 368.55 L 329.05 367.15 326.3 371.3 329.95 371.3 333.6 368.55 Z"/>
</g>
<g id="l0">
<path fill="#000000" stroke="none" d="M 262.8 288.95 L 262.8 205 239.2 205 239.2 288.95 262.8 288.95 M 125.35 289.15 L 149.4 289.15 149.4 267.25 162.25 267.25 Q 179.65 267.25 189.6 259.85 200.55 251.65 200.55 236.6 L 200.55 236.25 Q 200.55 221.6 190.35 213.2 180.45 205 163.45 205 L 125.35 205 125.35 289.15 M 149.4 248.35 L 149.4 224.3 162.1 224.3 Q 176.9 224.3 176.9 236.45 L 176.9 236.6 Q 176.9 242.1 173.2 245.2 169.3 248.35 162.5 248.35 L 149.4 248.35 M 366.05 288.95 L 385.75 288.95 385.75 205 362.35 205 362.35 249.7 325.65 205 306.15 205 306.15 288.95 329.55 288.95 329.55 245.2 366.05 288.95 Z"/>
</g>
</defs>
<g transform="matrix(0.9985198974609375,0,0,0.9981536865234375,0.2,0.45)">
<use xlink:href="#l3"/>
</g>
<g transform="matrix(0.9985198974609375,0,0,0.9981536865234375,0.2,0.45)">
<use xlink:href="#l2"/>
</g>
<g transform="matrix(0.9985198974609375,0,0,0.9981536865234375,0.2,0.45)">
<use xlink:href="#l1"/>
</g>
<g transform="matrix(0.9985198974609375,0,0,0.9981536865234375,0.2,0.45)">
<use xlink:href="#l0"/>
</g>
</svg>
