<svg xmlns="http://www.w3.org/2000/svg" xmlns:xlink="http://www.w3.org/1999/xlink" width="100%" height="100%" viewBox="0 0 512 512">
<!-- Vectorization by Rodrigo Polo https://github.com/rodrigopolo/logotipos-politicos -->
<defs>
<g id="l3">
<path fill="#FFEE00" stroke="none" d="M 512.1 256 Q 512.1 150.05 437.1 75.1 362.15 0.1 256 0.1 150.05 0.1 75.1 75.1 0.1 150.05 0.1 256 0.1 362.15 75.1 437.1 150.05 512.1 256 512.1 362.15 512.1 437.1 437.1 512.1 362.15 512.1 256 Z"/>
</g>
<g id="l2">
<path fill="#000000" stroke="none" d="M 508.2 256.65 Q 508.45 152.1 434.35 78.05 360.3 3.75 256.2 4 151.9 4 78.05 77.6 4.45 151.2 4 255.3 3.75 359.6 77.6 433.9 151.2 507.95 255.55 508.2 359.85 508.45 433.9 434.6 507.95 360.75 508.2 256.65 M 430.95 81.95 Q 503.4 154.2 502.95 256.2 502.7 358.95 430.45 430.95 358.25 503.15 256 502.95 153.5 502.7 81.05 430.25 8.8 357.8 9.25 255.75 9.75 153.25 81.75 81.25 153.95 9.05 256.2 9.25 358.7 9.5 430.95 81.95 M 496.75 256.2 Q 497.2 156.7 426.35 86.1 355.75 15.45 256 15.45 156.25 15.45 85.85 85.85 15.7 156 15.45 255.75 15.25 355.75 85.6 426.1 156 496.75 256 496.75 355.75 496.75 426.1 426.35 496.5 356.2 496.75 256.2 M 419 92.75 Q 486.4 160.15 486.65 256 486.9 351.6 419.25 419.25 351.85 486.65 256 486.65 160.6 486.9 92.95 419.25 25.3 351.6 25.3 256 25.55 160.35 92.75 92.95 160.15 25.55 255.75 25.55 351.6 25.3 419 92.75 Z"/>
</g>
<g id="l1">
<path fill="#000000" stroke="none" d="M 99.6 293.8 Q 107.85 296.1 255.05 296.1 402.05 296.1 406.65 293.8 253 290.4 99.6 293.8 M 273.95 353.6 L 263.85 353.6 252.6 385.25 262 385.25 263.6 379.95 273.95 379.95 275.55 385.25 285.15 385.25 273.95 353.6 M 272.1 373.3 L 265.7 373.3 268.9 361.85 272.1 373.3 M 271.85 317 L 268.6 317 268.6 329.35 261.3 317 257.85 317 257.85 335.55 261.3 335.55 261.3 323.4 268.4 335.55 271.85 335.55 271.85 317 M 295.3 317 L 291.85 317 291.85 335.55 295.3 335.55 295.3 317 M 222.6 385.25 L 232 385.25 232 372.4 243.45 372.4 243.45 366 232 366 232 360.5 245.5 360.5 245.5 353.85 222.6 353.85 222.6 385.25 M 183.9 353.85 L 183.9 385.25 209.15 385.25 209.15 378.15 193.3 378.15 193.3 371.95 207.75 371.95 207.75 365.5 193.3 365.5 193.3 360.5 208.65 360.5 208.65 353.85 183.9 353.85 M 200.8 317 L 195.5 317 192.3 329.8 189.1 317 183.85 317 183.85 335.55 187.05 335.55 187.05 320.85 190.7 335.55 194.15 335.55 197.6 320.85 197.6 335.55 200.8 335.55 200.8 317 M 236.3 317 L 232.65 317 232.65 330.5 Q 232.2 331.65 231.5 332.1 230.8 332.8 229.2 332.8 228.05 332.8 226.9 332.1 L 225.75 330.25 225.75 317 222.1 317 222.1 327.05 222.55 331.65 Q 223 333.25 223.45 333.7 224.4 335.1 225.55 335.3 226.9 336 229.45 336 231.5 336 232.85 335.3 234.25 335.1 234.95 333.95 235.85 332.55 235.85 331.65 L 236.3 326.85 236.3 317 M 287.65 229.4 Q 288.1 228 287.15 227.1 281.45 219.55 277.75 208.75 277.3 207.4 275.25 207.4 L 264 209 Q 261.25 209.45 260.55 210.35 259.9 211.25 260.1 214.05 261.05 231.45 261.05 239.95 261.05 251.4 258.05 257.35 255.55 261.7 256 267.2 256.2 271.35 253 274.35 250 276.85 249.55 278 248.65 280.75 249.35 282.8 250 283.75 253 284.4 L 273.4 284.4 Q 275.45 284.4 276.85 282.6 277.3 281.45 276.4 278.9 276.15 278.45 273.65 275.95 271.6 274.1 271.6 272.7 271.8 271.6 274.1 269.95 276.4 268.35 277.1 265.15 280.75 242.7 287.65 229.4 M 156.4 377.45 L 156.4 353.85 147.25 353.85 147.25 385.25 170.85 385.25 170.85 377.45 156.4 377.45 M 117.75 378.15 L 117.75 371.95 132.2 371.95 132.2 365.5 117.75 365.5 117.75 360.5 133.3 360.5 133.3 353.85 108.55 353.85 108.55 385.25 133.8 385.25 133.8 378.15 117.75 378.15 M 122.4 322.95 L 125.85 322.25 Q 125.65 320.2 124.25 318.8 122.2 316.75 119 316.75 115.3 316.75 112.8 319.25 110.5 322 110.5 326.4 110.5 330.5 112.8 333.5 115.3 336 118.5 336 121.05 336 123.35 334.4 125.15 333.05 125.85 329.8 L 122.4 328.65 122.4 328.9 Q 122.2 330.75 121.05 331.9 120.15 332.8 118.5 332.8 116.45 332.8 115.55 331.2 114.15 329.8 114.15 326.15 114.15 323.15 115.55 321.35 116.7 319.95 118.75 319.95 120.15 319.95 121.05 320.65 122.2 321.8 122.4 322.95 M 154.75 316.75 Q 152.65 316.75 150.85 317.45 L 148.55 319.05 146.95 321.55 Q 146.25 323.6 146.25 326.4 L 146 326.4 Q 146 330.5 148.55 333.5 150.6 336 154.75 336 158.4 336 160.9 333.5 163.2 330.95 163.2 326.4 163.2 321.55 160.9 319.25 158.65 316.75 154.75 316.75 M 154.75 319.95 Q 156.8 319.95 158.15 321.55 159.55 322.95 159.55 326.4 159.55 329.6 158.15 331.2 156.55 332.8 154.75 332.8 152.45 332.8 151.05 330.95 149.7 329.6 149.7 326.4 L 149.9 326.4 Q 149.9 322.95 151.05 321.55 152.45 319.95 154.75 319.95 M 151.45 201.4 L 142.7 235.35 Q 137.9 255.3 126.65 265.4 L 124.85 267.9 Q 122.55 271.6 125.5 274.1 132.4 279.6 138.35 283.05 140.65 284.4 144.8 284.9 149.6 285.55 149.15 280.3 L 147.75 273.85 Q 147.05 270.65 149.15 268.35 152.1 265.4 153.25 262.85 157.85 252.8 163.6 238.1 164.5 235.8 163.8 233.05 L 152.1 201.4 151.45 201.4 M 403.05 360.5 L 403.05 353.85 378.3 353.85 378.3 385.25 403.5 385.25 403.5 378.15 387.45 378.15 387.45 371.95 401.9 371.95 401.9 365.5 387.45 365.5 387.45 360.5 403.05 360.5 M 337.3 361.6 L 346.7 361.6 346.7 385.25 355.85 385.25 355.85 361.6 365.25 361.6 365.25 353.85 337.3 353.85 337.3 361.6 M 324 385.25 L 324 353.85 315.25 353.85 315.25 371.25 304.05 353.85 295.55 353.85 295.3 385.25 304.05 385.25 304.05 368.05 315.25 385.25 324 385.25 M 328 319.05 Q 326.6 317.65 325.45 317.45 L 322 317 315.6 317 315.6 335.55 325.45 335.3 328 333.7 Q 329.15 332.55 329.8 330.5 330.25 329.35 330.25 326.6 L 329.8 322.25 Q 329.15 320.2 328 319.05 M 326.6 326.4 Q 326.6 328.9 326.15 329.8 326.15 330.75 325.45 331.4 L 323.85 332.35 319.05 332.55 319.05 320.2 323.6 320.4 Q 324.3 320.4 325.25 321.35 325.7 321.55 326.15 322.95 326.6 323.85 326.6 326.4 M 360.3 317 L 356.4 317 349.55 335.55 353.45 335.55 354.8 331.4 361.9 331.4 363.5 335.55 367.4 335.55 360.3 317 M 360.75 328.2 L 355.95 328.2 358.45 321.35 360.75 328.2 M 399.25 319.05 Q 397.85 317.65 396.5 317.45 L 393.3 317 386.65 317 386.65 335.55 396.5 335.3 Q 398.55 334.65 399 333.7 400.4 332.8 401.1 330.5 L 401.55 326.6 401.1 322.25 Q 400.6 320.85 399.25 319.05 M 390.3 320.2 L 394.9 320.4 Q 395.6 320.4 396.5 321.35 396.95 321.55 397.4 322.95 L 397.85 326.4 397.4 329.8 Q 396.95 331.2 396.5 331.4 396.25 331.9 395.1 332.35 L 390.3 332.55 390.3 320.2 M 328.45 284.9 L 338.3 283.25 Q 347.45 280.75 351.15 275.7 354.6 271.35 349.55 269.05 343.8 266.3 343.35 259.65 342.9 252.55 339.9 248.2 333.25 237.65 324.3 221.8 322.7 219.05 321.8 214.05 L 315.85 178.7 316.05 178.5 319.05 187.2 321.8 179.15 Q 322.95 176.2 322.7 175.5 322.7 174.6 320.2 172.5 L 319.25 171.6 Q 302.75 160.15 298.65 157.4 290.6 152.1 287.65 142.05 284.2 130.55 290.6 121.15 291.3 120.5 294.75 114.5 295.2 113.85 295.4 112.2 293.8 111.75 292.9 112 L 275.45 114.95 Q 261.05 117.7 253.7 116.35 L 230.75 112.7 Q 210.6 109.95 196.35 117.7 184.9 123.7 179.15 126.65 168.85 132.15 162.45 136.75 159.45 138.8 158.3 140.9 148.9 162 141.1 181 139.75 184.2 138.8 191.35 L 133.3 231.7 Q 138.6 230.1 142.5 223.65 146.4 217.45 145.95 211.75 L 144.8 198 Q 144.3 190.65 149.6 174.35 148.9 180.1 150.75 187.2 150.95 187.45 154.65 199.35 L 162.2 220.65 Q 171.4 244.3 170 267 169.55 272.5 166.35 275 164.75 275.95 164.25 278.45 163.6 281 164.25 282.6 165.2 285.1 169.55 285.55 L 171.85 285.8 Q 192.45 285.1 192.7 285.1 L 195.2 284.9 Q 196.6 284.4 197.05 283.05 198.2 279.15 195.9 277.1 L 192.7 273.65 Q 189.05 269.5 190.4 262.85 191.1 260.1 191.1 254.15 190.4 245.2 190.4 240.6 190.4 238.8 191.8 235.6 L 195.7 227.3 Q 198 222.3 199.6 221.15 201.4 219.75 206.9 219.75 226.2 219.75 245.9 213.35 250.25 211.95 258.75 209 266.3 206.7 272.05 206.45 274.55 206.45 275.95 206 L 277.3 204.6 Q 276.15 203.5 275.7 203.25 274.55 203.5 273.85 203.5 277.55 203 276.6 198.65 L 276.6 196.35 283.75 215.65 Q 285.55 220.9 292 226.4 311.45 242.25 322 263.3 325.45 269.95 322.7 277.1 321.35 280.3 323.15 282.8 325 285.35 328.45 284.9 M 371.55 121.85 L 367.4 113.35 Q 364.65 107.4 357.55 106.95 351.35 106.5 346.8 107.2 337.85 108.3 332.8 104.45 329.8 102.35 326.4 102.35 319.95 101.9 307.1 101.9 305.3 101.9 305.05 102.8 293.6 118.4 290.15 127.6 288.55 131.95 289.25 137.45 291.3 151.2 304.6 158.55 319.75 166.8 328.45 179.15 329.6 181 331.4 180.8 333.05 180.8 334.15 178.95 L 336.45 173.65 341.3 156.45 341.5 159.25 Q 341.5 161.75 342.2 162.2 342.9 162.9 345.2 163.1 L 353.2 163.8 Q 355.75 163.8 356.85 166.35 357.1 167 362.15 175.75 362.85 176.65 364.45 178.7 L 372.45 196.15 Q 372.9 197.3 375.2 199.6 L 376.8 192.45 377.5 195.7 Q 380.05 211.95 375.65 237.4 372.45 256.45 370.15 274.8 369.7 278.25 370.85 279.35 372.25 280.5 375.65 280.5 378.4 280.05 378.4 278 L 378.9 273.2 Q 380.05 261.7 386.9 234.9 395.85 198.2 393.35 175.3 391.25 157.15 383.7 146.4 380.5 142.05 380.7 137.45 381.2 131.95 376.8 128.95 373.4 126.9 371.55 121.85 Z"/>
</g>
<g id="l0">
<path fill="#FFFFFF" stroke="none" d="M 373.4 170.45 Q 372.25 170.9 371.8 172.75 371.8 174.35 372.9 175.95 378.2 185.35 386.7 191.8 387.6 192.45 389.65 193.15 L 389.65 193.4 390.1 192.7 389.65 190.4 380.7 172.75 Q 379.8 171.15 377.5 170.25 375.2 169.55 373.4 170.45 M 373.4 151.65 Q 372.9 150.95 370.85 150.5 L 371.8 153.05 376.35 161.3 372 162 370.85 163.1 Q 371.3 163.35 372.25 164.05 L 378.9 164.05 Q 376.8 154.85 373.4 151.65 M 368.1 134.9 L 373.85 137.2 Q 373.15 131.25 368.1 134.9 M 367.7 139.1 Q 368.115234375 140.1310546875 370.6 141.35 371.733984375 140.4953125 370.75 138.5 368.351953125 136.7630859375 367.7 139.1 Z"/>
</g>
</defs>
<g transform="matrix(1,0,0,1,0,0)">
<use xlink:href="#l3"/>
</g>
<g transform="matrix(1,0,0,1,0,0)">
<use xlink:href="#l2"/>
</g>
<g transform="matrix(1,0,0,1,0,0)">
<use xlink:href="#l1"/>
</g>
<g transform="matrix(1,0,0,1,0,0)">
<use xlink:href="#l0"/>
</g>
</svg>
