<svg xmlns="http://www.w3.org/2000/svg" xmlns:xlink="http://www.w3.org/1999/xlink" width="100%" height="100%" viewBox="0 0 512 512">
<!-- Vectorization by Rodrigo Polo https://github.com/rodrigopolo/logotipos-politicos -->
<defs>
<g id="l1">
<path fill="#D7DF28" stroke="none" d="M 336.15 25.4 Q 332.4 19.75 326.5 14.45 324.35 12.65 321.7 12.95 290.55 17.05 261.1 27.85 229.1 39.55 207.4 57.15 185.75 74.75 176.15 96.8 167.65 116.5 161.75 142.65 155.6 170.3 154.05 198.2 152.3 228.7 156.4 254.6 160.95 283.3 172.4 303.15 182.3 320.4 196.9 330.3 211.55 340.15 230.55 342.35 239.8 343.5 249.55 343.5 277.25 343.5 297.9 333.05 318.55 322.65 331.7 301.95 342.9 284.35 347.95 260.4 351.75 242.4 351.75 221.8 351.75 198.35 349.1 174.3 346.4 150.3 341.7 131 335.15 104.4 325.6 90.8 316 77 303.5 76.15 L 301.9 76.1 Q 296.05 76.1 287.4 78.6 278.35 81.15 269.1 85.6 246.8 96.4 238.4 110.2 229.7 124.35 220.1 174.55 216.3 194.35 214.15 211.05 211.95 227.55 212.45 232.25 212.75 235.1 214.9 237.1 217.1 239.05 220 239 227.45 239 234.05 228.15 241.85 215.35 242.5 194.45 243.15 175.75 250.65 153.35 259.4 126.95 271.15 121.1 277.05 118.15 284.75 116.05 291.75 114.15 295.2 114.15 304 114.35 308.5 126.9 315 144.75 315 189.1 315 243.3 309.1 267.7 300.65 302.5 276.75 305.7 273.35 306.15 269.1 306.15 L 269.05 306.15 Q 253.5 306.15 238.2 299.2 222.95 292.2 211.35 279.75 200.3 267.9 194.35 252.4 186.45 232.05 188.25 207.3 190.85 171.15 204.4 135.85 216.7 104.05 232 86.9 243.75 73.7 273.6 61.3 285.9 56.2 297.05 53.15 308.15 50.05 313.9 50.05 L 314.9 50.1 Q 318.45 50.3 320.65 50.3 336.4 50.3 339.75 41.45 342.3 34.7 336.15 25.4 Z"/>
<path fill="#67308F" stroke="none" d="M 293.35 217.75 Q 293.15 213.35 292.45 211.45 290.8 206.6 282.2 208.25 273 210.15 270.9 216.4 269.55 220.2 268.95 230.1 266.85 241.85 271.45 252.25 276.1 262.75 283.9 263.9 295.25 265.6 293.55 226.95 L 293.35 217.75 Z"/>
<path fill="#00A79E" stroke="none" d="M 336.65 434.1 L 329.65 434.1 329.65 498.45 379.05 498.45 385.75 483.2 421.4 483.2 428.25 498.45 435.85 498.45 406.95 434.1 400.3 434.1 371.6 498 371.6 491.7 336.65 491.7 336.65 434.1 M 388.6 476.55 L 403.55 442.65 418.5 476.55 388.6 476.55 M 126.05 445.3 L 125.45 444.25 Q 121.15 437.85 114.95 435.3 109.9 433.2 101.8 433.2 95.4 433.2 90 435.05 84.6 436.95 81.4 440.15 79.15 442.4 78.05 445.4 76.9 448.35 77.05 451.55 77.05 459.8 84.85 463.9 89.35 466.35 100.95 468.6 110.7 470.55 114.3 472.25 120.5 475.2 120.45 480.8 120.45 487.9 113.15 490.85 108.6 492.8 101.8 492.8 95.75 492.8 90.25 490.1 84.1 487.2 81.6 482.15 L 81.1 481.2 74.8 484.3 75.35 485.35 Q 79 492.55 87 496.3 93.8 499.45 101.8 499.45 110.4 499.45 116.9 496.6 127.45 492 127.45 480.95 127.45 471.6 119.5 467.05 114.85 464.45 102.9 462.05 L 102.2 461.95 Q 92.5 460.15 89.05 458.45 84.1 456 84.1 451.35 84.1 444.3 92.25 441.4 96.65 439.9 101.8 439.9 107.85 439.95 111.65 441.35 116.75 443.15 119.65 447.8 L 120.2 448.7 126.05 445.3 M 180.45 440.85 L 180.45 434.1 135.35 434.1 135.35 498.45 181.55 498.45 181.55 491.6 142.3 491.6 142.3 469.35 178.65 469.35 178.65 462.75 142.3 462.75 142.3 440.85 180.45 440.85 M 322.85 491.7 L 287.85 491.7 287.85 434.1 280.85 434.1 280.85 498.45 322.85 498.45 322.85 491.7 M 269.45 434.1 L 262.5 434.1 262.5 498.45 269.45 498.45 269.45 434.1 M 250.95 434.1 L 243.4 434.1 220.5 469.35 197.35 434.1 189.9 434.1 189.9 498.45 196.95 498.45 196.95 445.95 219.1 479.65 222 479.65 244 445.95 244 498.45 250.95 498.45 250.95 434.1 M 286.9 378.4 L 312.05 378.4 312.05 373.15 281.55 373.15 281.55 416.25 312.75 416.25 312.75 411.05 286.9 411.05 286.9 397.15 310.85 397.15 310.85 392.05 286.9 392.05 286.9 378.4 M 274.85 373.15 L 269.5 373.15 269.5 416.25 274.85 416.25 274.85 373.15 M 214.9 373.15 L 209.55 373.15 209.55 416.25 214.9 416.25 214.9 373.15 M 227.15 373.15 L 221.7 373.15 221.7 416.25 227.15 416.25 227.15 382.65 241.2 403.9 243.4 403.9 257.35 382.65 257.35 416.25 262.7 416.25 262.7 373.15 257.1 373.15 242.2 396.05 227.15 373.15 M 172.3 373.15 L 166.5 373.15 184.2 416.4 189.15 416.4 206.9 373.15 201.05 373.15 186.65 408.65 172.3 373.15 M 145.05 372.5 Q 134.5 372.5 128.5 379.45 123.25 385.6 123.25 394.65 123.25 403.6 128.5 409.85 134.55 417.05 145.05 417.05 155.45 417.05 161.45 409.9 166.7 403.7 166.8 394.8 166.85 389.9 165.2 385.75 163.6 381.55 160.55 378.5 154.65 372.5 145.05 372.5 M 128.65 394.75 Q 128.65 386.8 133.3 382.1 137.65 377.7 145.05 377.7 153 377.7 157.55 383.05 161.45 387.75 161.45 394.75 161.45 401.6 157.5 406.35 152.95 411.8 145.05 411.8 137.2 411.8 132.65 406.35 128.7 401.55 128.65 394.75 M 118.3 373.15 L 112.7 373.15 97.8 396.05 82.85 373.15 77.3 373.15 77.3 416.25 82.7 416.25 82.7 382.65 96.75 403.9 99.05 403.9 112.95 382.65 112.95 416.25 118.3 416.25 118.3 373.15 M 398.75 379.45 Q 393.55 385.65 393.55 394.65 393.55 403.6 398.85 409.85 404.85 417.05 415.3 417.05 425.75 417.05 431.7 409.9 437 403.65 437.05 394.8 437.1 389.95 435.45 385.75 433.9 381.5 430.8 378.5 424.95 372.5 415.3 372.5 404.7 372.5 398.75 379.45 M 400.05 387.65 Q 401.3 384.45 403.55 382.1 407.95 377.7 415.3 377.7 423.25 377.7 427.8 383.05 431.75 387.75 431.75 394.75 431.75 401.6 427.8 406.35 423.25 411.8 415.3 411.8 407.4 411.8 402.9 406.35 398.95 401.6 398.9 394.75 398.85 390.95 400.05 387.65 M 352.9 373.15 L 347.6 373.15 347.6 404.9 321.75 373.15 318.75 373.15 318.75 416.25 324.15 416.25 324.15 384.6 350.05 416.25 352.9 416.25 352.9 373.15 M 356.65 373.25 L 356.65 378.25 371.4 378.25 371.4 416.25 376.85 416.25 376.85 378.25 391.6 378.25 391.6 373.25 356.65 373.25 Z"/>
</g>
</defs>
<g transform="matrix(1,0,0,1,0,0)">
<use xlink:href="#l1"/>
</g>
</svg>
