<svg xmlns="http://www.w3.org/2000/svg" xmlns:xlink="http://www.w3.org/1999/xlink" width="100%" height="100%" viewBox="0 0 512 512">
<!-- Vectorization by Rodrigo Polo https://github.com/rodrigopolo/logotipos-politicos -->
<defs>
<g id="l1">
<path fill="#003896" stroke="none" d="M 6.4 67.1 L 6.2 66.85 Q 5.25 66.4 5.05 67.3 L 0.25 81.55 Q 0 82.9 0.25 83.35 0.25 83.6 1.4 84.75 L 1.85 85.2 Q 4.35 87.7 9.65 92.55 L 10.3 93.2 9.4 93.45 Q 8.05 93.9 8.25 95.3 L 11.7 112.7 Q 12.4 117.3 14.45 126.25 L 27.5 190.45 Q 29.35 197.1 30.25 203.75 L 32.8 215.65 Q 33.5 220 35.55 228.95 L 62.6 360.55 Q 62.8 361.7 63.95 361.7 L 89.9 361.7 Q 92.4 361.7 91.7 359.65 L 17.2 91.6 Q 16.95 90.95 16.3 90.95 L 15.35 91.4 14.45 91.4 Q 14 90.95 14.45 90.25 L 17.9 79.7 Q 18.35 78.3 17.45 77.4 8.5 69.6 6.4 67.1 M 99.5 406.65 L 99.5 418.55 Q 99.75 418.55 100.45 416.95 L 102.25 411.9 Q 103.2 409.85 103.2 408.7 L 102.5 408.7 99.5 406.65 M 281.8 370.15 Q 281.55 370.4 281.55 372.25 L 281.55 458.9 Q 281.55 460.25 282.95 460.25 L 308.15 460.25 Q 309.55 460.25 309.55 458.9 L 309.55 370.85 Q 309.55 370.15 308.6 370.15 L 281.8 370.15 M 195.8 382.55 Q 192.85 385.75 189.6 392.65 187.1 399.3 186.4 405.5 L 186.2 421.75 Q 186.4 423.6 186.85 427.5 L 188.7 434.6 Q 190.3 438.95 193.3 443.55 198.35 451.55 205.2 455.7 211.4 459.35 218.75 460.5 220.1 460.95 226.3 461.4 227 461.65 228.35 461.65 L 237.1 461.65 Q 240.75 461.4 247.65 460.05 251.3 459.15 252.9 458.2 259.3 454.55 260.95 453.15 264.35 450.2 266.9 446.05 L 270.55 439.65 273.3 431.85 Q 273.3 430.95 272.6 430.7 L 269.4 429.8 Q 268.95 429.55 263.45 427.7 L 257.7 426.1 Q 257.05 425.9 249 423.35 249.25 423.6 248.55 424.75 247.85 429.1 245.35 433.45 242.35 438.25 237.3 439.85 233.4 441.25 227 440.35 219.45 438.95 216.2 431.6 213.95 426.1 213.95 414.2 213.95 409.4 214.4 406.85 215.75 399.3 218.75 395.6 222.2 390.8 228.85 389.65 233.2 388.95 237.55 390.6 241.65 391.95 244.4 395.4 246.5 397.45 246.7 399.05 246.7 399.75 247.85 401.35 247.85 402.25 248.55 401.8 L 249.9 401.8 Q 250.4 401.8 256.55 400.45 261.85 399.05 272.4 396.55 270.35 390.35 266.9 384.85 264.15 381.4 262.75 379.55 262.1 379.35 260.95 377.95 259.8 376.8 258.85 376.6 257.7 375.2 255.45 373.85 249.25 371.1 244.2 369.95 238.45 368.8 230.45 368.8 224.45 368.35 218.95 369.7 211.65 371.55 208.2 373.15 201.1 376.6 195.8 382.55 M 157.75 371.8 Q 157.5 370.65 157.05 370.4 156.85 370.15 155.7 370.15 L 127.7 370.15 Q 126.55 370.15 126.35 371.3 L 95.6 452.7 Q 93.8 457.5 93.3 459.15 92.65 460.25 93.8 460.25 L 119.7 460.25 Q 120.85 460.25 121.05 460.05 121.5 459.8 121.75 458.65 L 125.2 447.2 Q 125.65 445.85 125.9 445.6 126.1 445.35 127.7 445.35 L 156.35 445.35 Q 157.3 445.35 157.5 446.3 L 161.4 459.15 Q 161.65 460.05 162.55 460.25 L 189.15 460.25 191 460.05 191 459.8 157.75 371.8 M 141.45 394 L 141.95 394 151.35 425.45 Q 150.4 425.9 142.4 425.9 134.35 426.1 132.05 425.65 L 131.85 425.65 141.45 394 M 31.85 371.8 Q 31.2 370.15 28.9 370.15 L 5.25 370.15 Q 5.05 370.4 5.05 372.25 L 5.05 459.15 Q 5.05 460.25 5.95 460.25 L 30.25 460.25 Q 31.2 460.25 31.2 459.15 L 31.2 412.15 31.65 411.9 63.75 459.15 Q 64.65 460.25 66.05 460.25 L 89.65 460.25 Q 90.8 460.25 90.8 460.05 91.05 460.05 91.05 458.9 L 91.05 371.1 Q 91.05 370.15 90.1 370.15 L 66.95 370.15 Q 65.1 370.15 64.9 370.4 L 64.9 417.65 64.65 419.45 63.75 418.8 31.85 371.8 M 26.7 218.65 Q 26.460546875 217.4390625 26.15 215.9 25.7 214.5 23.4 201.9 23.4 200.05 22.7 199.15 22 200.3 18.35 210.15 16.05 216.1 14 224.35 L 10.3 242.95 Q 8.7 255.75 8.7 265.15 8.5 274.1 9.65 287.4 11 297.95 12.15 303.25 15.6 320.4 22 335.8 L 26.6 345.4 Q 33.5 359.4 40.35 368.8 L 50 381.4 Q 52.5 383.95 52.95 384.85 53.9 386 56.4 388.5 L 56.4 367.9 56.35 367.9 56.3 366.5 Q 56.574609375 363.1982421875 56.2 361.7 L 26.7 218.65 M 423.5 370.15 Q 421.9 370.15 421.65 370.4 421.45 370.65 421.45 372.25 L 421.45 459.15 Q 421.45 460.25 422.35 460.25 L 445.5 460.25 Q 447.1 460.25 447.35 460.05 447.55 459.8 447.55 458.2 L 447.55 413.95 447.8 411.65 448.05 411.65 448.95 412.8 479.9 458.45 Q 480.8 460.25 482.9 460.25 L 506.5 460.25 Q 507.4 460.25 507.4 459.35 L 507.4 371.8 Q 507.4 370.4 507.2 370.4 506.95 370.15 505.6 370.15 L 483.1 370.15 Q 481.5 370.15 481.25 370.4 481.05 370.65 481.05 372.25 L 481.05 418.1 480.8 418.8 Q 480.6 418.8 480.15 418.3 L 448.25 371.55 Q 447.35 370.15 445.5 370.15 L 423.5 370.15 M 362.75 368.8 Q 354.95 369.25 349.45 370.65 343.95 372.25 338.2 375.45 329.05 381.2 324.2 391.25 320.75 399.05 320.1 405.5 319.15 415.35 319.65 420.4 320.55 428.65 321.7 433 322.85 436.45 325.35 441.25 328.55 446.3 330.4 448.35 335.2 453.65 340.5 456.4 343.7 458.2 349.65 459.8 353.1 460.95 355.85 460.95 356.1 460.95 362.95 461.65 L 370.75 461.65 371.45 461.4 378.8 460.5 Q 385.65 459.15 388.85 457.5 395.05 454.3 398.95 450.85 405.85 444.7 408.8 436.65 411.8 430 412.5 420.6 412.95 410.75 411.8 404.35 410.45 394.7 406.05 388.05 400.8 378.9 390.7 373.85 383.85 370.4 375.1 369.25 366.85 368.35 362.75 368.8 M 370.3 390.1 L 374.2 391.25 Q 381.55 394.95 383.85 403.65 384.95 408.25 384.95 413.3 384.5 424.3 382.9 429.3 379.45 440.35 367.3 440.8 362.75 440.8 359.5 439.65 351.5 436.9 349 428.4 347.85 425.2 347.35 418.55 346.7 412.35 348.3 404.8 349.9 397.25 354.7 393.35 361.35 388.3 370.3 390.1 M 360.45 355.25 Q 357.9 359.65 357.7 360.3 357 361.9 355.4 364.9 L 365.5 364.9 Q 366.85 364.9 368.45 363.75 L 386.6 346.8 386.1 346.55 366.15 346.55 Q 365.5 346.55 364.8 347.5 L 360.45 355.25 M 343.25 344.75 Q 343.7 343.35 342.35 343.1 L 336.6 342.45 Q 330.85 341.95 329.7 341.95 L 329.05 343.35 Q 325.8 350.25 319.15 359.65 L 317.8 361.7 317.8 377.95 Q 317.8 379.35 318.95 378.9 L 320.3 378.9 Q 321.25 379.1 322.15 377.95 L 326.3 372.7 Q 331.55 365.6 337.5 355.75 L 343.25 344.75 M 440 52.2 L 439.75 51.5 401.25 70.75 376.25 79.45 Q 368.7 81.75 362.05 82.9 L 352.4 84.95 Q 350.1 85.2 349 85.45 344.4 86.35 336.15 87.25 330.65 87.7 328.1 87.7 L 317.8 87.95 Q 305.85 87.5 296.45 86.35 285.25 84.75 277.45 82.45 L 267.35 79.45 Q 259.1 76.5 250.4 72.15 L 235 64.35 Q 222.65 58.35 211.15 55.6 L 192.6 51.75 168.05 50.35 Q 157.5 50.35 143.75 51.95 L 108.45 59.05 Q 97 62.25 91.25 64.35 L 40.35 86.55 27.3 93.9 Q 26.15 94.6 25.9 95.05 25.7 95.5 26.15 96.9 L 27.05 101.7 32.35 120.5 Q 33.95 127.15 34.6 128.55 35.75 130.6 38.05 134.5 L 57.55 175.75 75.2 233.55 84.85 295.45 Q 84.85 295.9 85.5 303.9 85.5 309.4 86.2 314.45 L 90.8 331.2 Q 90.8 332.35 91.95 331.65 L 127.5 314.45 154.1 305.75 Q 159.6 304.15 170.6 301.85 L 200.4 298.4 208.2 298.2 Q 220.1 298.65 229.3 299.8 L 232.5 300.25 Q 234.35 300.5 235.5 301.15 237.1 301.15 245.1 303 254.5 305.5 258.4 307.15 L 265.95 309.9 289.15 321.35 Q 295.8 324.55 304.7 327.75 313.9 330.95 318.7 331.65 L 346.45 335.35 Q 351.95 336 359.05 335.55 369.15 335.1 373.95 334.65 378.1 334.4 386.6 333.25 388.4 333.25 392.1 332.35 L 416.4 327.3 455.35 314.7 499.15 294.75 Q 508.8 289.45 509.95 288.55 511.3 287.65 512 287.65 L 512 286.95 Q 511.75 286.7 510.4 284.9 505.8 277.8 503.5 274.1 L 495.7 260.8 Q 489.75 250.25 488.4 247.05 L 479 226.4 Q 476.9 222.75 475.55 218.4 L 455.6 154.9 Q 452.6 143.9 451.95 139.55 L 447.1 115 440 52.2 M 432.2 70.3 Q 432.65 69.85 432.9 69.85 L 433.1 70.3 434.5 118.9 Q 435.4 129.7 437.25 141.35 L 439.3 154.9 Q 441.85 168.9 445.95 184.7 L 449.85 198 470.95 250.95 Q 474.65 258.3 481.25 269.55 L 489.55 282.35 Q 490.2 283.3 489.3 283.95 L 479 289.95 Q 478.3 290.4 478.05 290.6 L 466.85 296.1 Q 464.1 297.95 462.7 298.4 456.95 300.95 456.3 301.15 L 443 306.65 Q 438.15 308.25 435.65 309.4 434.05 310.1 425.1 312.85 L 401.5 318.8 Q 397.15 319.3 395.3 319.95 392.55 320.65 387.25 321.1 380.4 322.25 373.3 322.5 368.9 322.95 360 322.95 L 335.7 320.9 316.2 316.05 Q 314.8 316.05 313 315.15 L 298.75 309.4 Q 298.05 309.2 293.7 306.65 L 278.6 299.1 Q 271.7 295.9 270.8 295.65 266.2 293.85 263.9 293.35 263.2 292.7 261.6 292.2 259.8 292 259.1 291.55 257.25 291.3 256.35 290.85 252.9 289.7 240.5 286.95 232.75 285.55 224.7 284.9 219.9 284.45 209.8 284.45 198.1 284.45 184.8 286.25 L 171.05 288.8 Q 161.9 290.85 152.25 293.6 L 126.55 302.75 Q 120.6 305.3 116 307.6 L 109.35 310.55 Q 103.65 313.3 102.05 314.45 99.95 315.6 98.6 315.6 106.4 299.1 110.75 291.1 118.3 276.85 127.7 263.1 133 255.3 141.25 245 148.35 236.5 158.2 226.9 168.3 217.7 178.4 210.4 185.95 205.1 191.9 202.35 L 208.4 194.8 213.7 192.95 Q 218.05 191.6 226.75 189.75 230.9 188.85 240.05 187.9 246.5 187.2 254.75 187.7 260.45 187.9 270.8 189.3 275.15 189.75 283.65 189.75 294.2 189.3 301.5 187.9 313.45 185.85 324.45 181.5 335.7 176.9 346 170.7 357.7 163.6 369.15 153.5 376.7 147.1 383.6 139.75 389.35 133.8 399.9 120.95 407.2 111.8 413.65 101.7 L 432.2 70.3 Z"/>
</g>
<g id="l0">
<path fill="#D42E12" stroke="none" d="M 28.65 227.8 Q 28.65 225.3 27.95 224.15 27.3 224.8 26.85 228.05 25.7 231.45 24.3 238.8 L 22 270.2 Q 22 277.1 22.7 283.95 23.4 292.9 25.45 301.85 29.1 319.5 37.35 337.15 43.35 350 52.95 363.75 54.8 366.75 56.2 367.9 56.65 363.5 56.2 361.7 L 28.65 227.8 M 304.05 197.75 L 259.8 197.75 Q 258.2 197.75 257.95 198 257.7 198.25 257.7 199.85 L 257.7 281.9 Q 257.7 283.3 257.95 283.5 257.95 283.75 259.3 283.75 L 277.45 283.75 Q 278.35 283.75 278.35 282.8 L 278.35 255.3 Q 278.35 254.6 279.05 254.6 L 298.3 254.6 Q 299.7 254.6 299.9 254.4 300.15 254.15 300.15 253 L 300.15 234.7 Q 300.15 233.75 299.2 233.75 L 279.75 233.75 Q 278.8 233.75 278.6 233.55 278.35 233.55 278.35 232.4 L 278.35 218.15 Q 278.35 217 278.6 216.8 278.8 216.55 279.75 216.55 L 304.05 216.55 Q 305.2 216.55 305.2 216.35 305.4 216.35 305.4 215.2 L 305.4 199.15 Q 305.4 198.25 305.2 198 305.2 197.75 304.05 197.75 M 329.05 343.1 L 329.95 341.95 Q 329.7 341.3 328.8 341.3 L 323.05 340.15 Q 318.95 339.45 310.7 337.15 303.8 335.35 296.7 332.35 L 286.15 327.75 Q 275.15 321.8 269.4 319.3 262.3 316.05 252.45 312.85 243.5 310.35 235.5 308.95 L 211.65 306.45 Q 204.75 306.2 196.25 306.9 187.35 307.6 178.4 308.95 170.35 310.35 165.55 311.5 154.1 314.25 148.35 316.05 139.85 318.6 133.9 320.9 L 94.25 339 Q 93.3 339.7 93.55 340.85 L 98.8 359.65 Q 99.5 361.7 99.5 363.75 L 99.5 406.65 102.5 408.7 103.4 408.7 120.4 363.5 Q 121.05 361.7 122.9 361.7 L 162.35 361.7 Q 163.25 361.7 163.5 362.6 L 164.15 364.9 177.45 400.2 Q 178.15 401.35 178.6 401.35 L 179.3 397.9 Q 181.15 389.9 185.95 381.85 188.7 377.05 194.9 371.8 199 368.35 205.65 365.15 211.65 362.85 219.65 361.25 226.1 360.1 235.5 360.55 243.75 360.75 251.75 363.3 259.3 365.8 265.05 370.4 266.45 371.8 269.4 374.55 L 273.3 378.9 273.3 363.05 Q 273.3 361.9 274.45 361.7 L 317.8 361.7 319.15 359.65 Q 325.35 350.7 329.05 343.1 M 398.95 196.85 L 382.7 196.85 Q 381.75 196.6 381.75 197.55 L 381.75 282.35 Q 381.75 283.5 382 283.5 382.2 283.75 383.15 283.75 L 400.35 283.75 Q 401 283.75 401 283.05 L 400.8 244.75 Q 400.35 240.65 400.55 238.35 L 401 238.8 420.05 280.75 Q 421.2 283.3 421.65 283.5 422.1 283.75 424.85 283.75 L 439.3 283.75 Q 440.7 283.75 440.7 282.35 L 440.7 198.9 Q 440.7 197.1 440.45 197.1 440.45 196.85 438.85 196.85 L 421.65 196.85 Q 420.95 196.85 420.95 197.55 L 421.45 240.85 421.2 241.1 420.05 239.05 400.8 198 Q 400.35 196.85 398.95 196.85 M 351.75 195.7 Q 345.3 194.1 340.05 194.1 333.15 194.55 328.35 197.55 318.95 202.8 314.6 213.6 310.9 223 310.45 236.75 310.25 245.7 311.15 254.6 312.05 261.05 315.5 268.85 317.8 273.9 322.4 278 326.3 281.7 331.55 283.75 336.35 285.55 343.25 285.55 349 285.1 353.35 283.05 359.3 280.05 362.75 275.7 365.7 272.3 368.45 267 369.85 264.25 371.2 258.75 372.6 252.8 372.6 249.6 L 356.1 249.6 Q 353.1 249.6 352.85 249.8 L 352.2 253 Q 350.6 259.45 346.45 262.4 342.8 265.4 338.65 263.35 335.9 262.2 334.3 258.75 331.1 252.1 330.4 243.6 330.15 237.65 331.1 231.45 332.25 225.5 334.75 220.25 336.8 216.35 340.7 215.65 344.15 215.2 347.15 217.7 L 348.75 219.8 Q 350.8 222.75 352.2 228.25 352.65 229.65 352.85 229.85 353.1 230.1 354.5 230.1 L 370.75 230.1 Q 371.9 230.1 371.7 228.95 L 371 223.65 Q 369.15 211.3 361.8 202.6 357.25 197.55 351.75 195.7 Z"/>
</g>
</defs>
<g transform="matrix(1,0,0,1,0,0)">
<use xlink:href="#l1"/>
</g>
<g transform="matrix(1,0,0,1,0,0)">
<use xlink:href="#l0"/>
</g>
</svg>
