<svg xmlns="http://www.w3.org/2000/svg" xmlns:xlink="http://www.w3.org/1999/xlink" width="100%" height="100%" viewBox="0 0 512 512">
<!-- Vectorization by Rodrigo Polo https://github.com/rodrigopolo/logotipos-politicos -->
<defs>
<g id="l1">
<path fill="#092558" stroke="none" d="M 270.1 447.15 L 270.1 457.7 Q 270.1 458.8 271.25 458.8 L 282.7 458.8 285.45 459.05 Q 286.35 459.05 286.35 459.75 L 286.35 485.4 286.6 485.4 286.6 510.6 Q 286.6 511.75 287.75 511.75 L 298.5 511.75 Q 299.65 511.75 299.85 510.15 L 299.85 460.65 Q 299.85 459.05 301.45 459.05 L 312.7 459.05 Q 315.65 459.05 315.9 458.8 316.15 458.35 316.15 455.6 L 316.15 448.95 Q 316.15 446.45 315.9 446.2 315.45 445.75 313.15 445.75 L 271.25 445.75 Q 270.1 445.75 270.1 447.15 M 184.2 446.45 L 184.2 446.2 Q 179.4 445.3 174.55 446.2 L 174.55 446.45 174.35 446.45 Q 166.3 448.5 161.95 455.85 158.75 461.55 159.7 467.75 160.6 473.7 165.4 478.05 169.3 481.5 174.8 483.8 L 182.35 486.55 Q 186 487.9 186 492.05 185.55 497.3 180.75 498.45 175.7 499.35 173.65 495 L 172.95 493.2 Q 172.75 492.05 171.15 492.05 L 163.35 492.05 Q 160.15 492.05 159.9 492.25 159.45 492.75 159.9 496.4 L 160.35 497.3 Q 162.45 504.85 169.05 508.75 175.5 512.65 183.25 511.3 190.35 510.15 194.95 503.95 199.55 498 199.1 490.45 198.85 485.4 195.2 481.5 190.35 476 183.05 474.15 L 183.25 473.95 182.8 473.95 Q 178.9 472.8 176.15 470.95 174.1 469.6 173.4 467.75 172.5 465.25 173.4 462.95 174.55 460.45 176.85 459.5 179.15 458.6 181.45 459.3 183.75 459.95 185.1 462.05 L 186 464.3 Q 186.25 465.45 187.6 465.45 L 195.2 465.45 Q 198.4 465.45 198.85 465 199.3 464.8 198.85 461.1 L 198.4 459.75 Q 194.5 448.95 184.4 446.45 L 184.2 446.45 M 440.75 455.85 Q 437.55 461.55 438.45 467.55 439.35 473.5 443.95 478.05 L 447.15 480.6 Q 450.35 482.9 454.7 484.25 L 461.35 486.55 Q 463.4 487.45 464.1 489.05 465.25 491.6 464.35 494.1 463.2 496.6 460.9 497.75 458.6 498.9 455.85 498 453.35 497.3 452.2 494.8 L 451.75 492.95 Q 451.5 492.05 450.15 492.05 L 439.6 492.05 Q 438.2 492.05 438.45 493.4 438.45 495.95 439.15 498.25 441.2 504.2 446.25 507.85 451.3 511.5 457.7 511.75 463.9 511.75 469.15 508.3 474.4 504.85 476.5 499.15 481.05 486.55 471 478.5 L 468 476.7 Q 464.8 474.85 460.9 473.7 457 472.55 454.5 470.95 453.1 470.05 451.95 468.2 451.05 465.9 451.75 463.4 452.65 460.9 454.95 459.75 457.45 458.6 460 459.3 462.5 460.2 463.65 462.5 L 464.55 464.3 Q 464.8 465.45 465.95 465.45 L 474.2 465.45 Q 477.15 465.45 477.6 465.25 477.85 464.8 477.4 461.55 L 477.15 460.45 Q 475.8 454.95 471.45 450.8 466.85 446.9 461.35 446 447.85 444.15 440.75 455.85 M 86.85 447.35 Q 86.85 446 85.7 446 L 74.7 446 Q 73.55 446 73.55 447.15 L 73.55 480.35 73.3 480.8 72.65 480.8 71.5 479.9 36.2 447.6 Q 35.75 447.15 35.3 446.9 34.85 446.45 34.15 446.9 L 34.15 510.15 Q 34.15 511.75 35.75 511.75 L 45.6 511.75 Q 47.2 511.75 47.2 510.35 L 47.2 478.3 Q 47.2 476.9 48.1 476.45 L 86.85 511.75 86.85 447.35 M 323.45 445.75 Q 321.15 445.75 320.7 446.2 320.5 446.45 320.5 448.95 L 320.5 510.8 Q 320.95 511.75 321.4 511.75 L 332.4 511.75 Q 333.75 511.75 333.75 510.6 L 333.75 490.45 Q 333.75 489.05 334.45 488.85 L 337.45 492.95 Q 341.35 498.7 349.1 509.9 350.7 511.75 353 511.75 L 364.7 511.75 Q 366.05 511.75 366.3 511.05 L 353.45 492.5 Q 352.3 490.9 352.55 490.45 L 355.3 488.85 Q 361.5 485.15 364.7 478.75 368.15 471.4 365.85 462.7 363.55 453.55 354.6 448.5 L 354.4 448.5 353 447.85 Q 348.9 445.75 342.95 445.75 L 323.45 445.75 M 344.3 459.05 Q 347.95 459.3 350.5 461.8 353 464.1 353.45 467.75 353.7 471.65 351.65 474.65 349.55 477.4 346.6 478.3 L 343.85 478.75 335.35 478.75 Q 333.75 478.75 333.75 476.9 L 333.75 460.65 Q 333.75 459.5 334.25 459.3 334.45 459.05 335.85 459.05 L 344.3 459.05 M 426.75 455.4 Q 419.2 447.85 410.5 446.45 L 409.35 446.2 Q 403.65 445.55 398.15 446.2 L 396.75 446.45 393.55 447.35 Q 382.1 450.8 375.45 461.35 369.05 471.9 370.9 484 373.4 499.15 386.7 506.95 400.65 515.4 416.45 509.2 427 504.85 432.5 494.8 438 484.7 436.15 473.25 434.8 463.2 426.75 455.4 M 423.35 478.75 L 423.35 479 Q 423.55 487 417.6 492.75 411.4 498.7 403.4 498.45 395.6 498.45 389.9 492.75 383.95 487 383.95 478.75 383.7 470.75 389.65 465 395.4 459.05 403.65 459.05 411.9 459.05 417.6 465.25 423.55 471.2 423.35 478.75 M 268.25 477.4 Q 268.05 465.45 259.3 456.05 251.55 448.05 242.35 446.45 L 241.45 446.45 Q 235.95 445.3 228.4 446.45 216.25 448.75 208.45 459.75 199.55 471.9 203.45 487.25 206.65 499.85 218.1 506.95 230.9 514.95 245.8 510.15 256.35 506.7 262.3 497.75 268.5 488.85 268.25 477.4 M 249.45 465 Q 255.2 470.75 255.2 479 254.95 487 249.25 492.75 243.5 498.45 235.5 498.45 227.25 498.7 221.3 492.5 215.35 486.55 215.55 478.75 215.1 471.2 221.05 465.25 226.8 459.05 235.25 459.05 243.5 459.05 249.45 465 M 108.85 449.9 Q 98.75 455.85 94.4 465.9 90.05 476.25 93 487.45 95.75 498.7 106.1 506 117.75 514.25 132.65 510.8 145 508.1 152.35 497.3 159.45 486.55 157.6 473.7 155.35 459.95 142.75 451.05 135.85 446.2 126.25 445.75 117.55 445.3 111.35 448.75 L 111.35 448.5 108.85 449.9 M 110.9 492.75 Q 104.95 486.75 105.15 479 104.95 471.2 110.65 465.25 116.6 459.05 124.85 459.05 132.9 459.05 138.85 465 144.55 470.75 144.55 478.75 144.55 487 138.6 492.75 132.9 498.45 125.1 498.45 116.85 498.7 110.9 492.75 M 355.75 93.2 Q 350.7 84.05 350.95 73.5 351.65 62.5 360.1 56.35 L 361.7 55.4 Q 362.65 54.5 362.65 53.8 351.65 54.7 339.5 60.45 319.55 69.6 309.05 88.85 300.55 105.35 299.4 125.05 298.5 145.45 304.7 167.45 311.1 190.55 325.05 214.6 327.35 218.95 328.5 221.95 339.95 250.15 342.7 279.45 344.55 302.15 341.8 320.45 339.05 342.7 329.85 362.15 316.6 392.15 290.7 411.15 283.35 416.65 276.5 420.1 274.65 421 274 421.95 L 274 422.65 Q 274 423.1 274.65 423.1 L 281.3 422.4 Q 301 418.95 320 412.8 350.7 402.7 375.25 386.65 410.5 363.05 430.45 328 445.1 302.6 447.85 273.05 449.2 258.4 447.4 242.8 444.85 221.05 438 202.5 428.6 176.8 409.15 150.95 407.05 147.95 401.55 143.4 L 394.45 137.65 Q 376.6 123.2 365.6 108.55 359.9 101 355.75 93.2 Z"/>
</g>
<g id="l0">
<path fill="#E20123" stroke="none" d="M 159.7 330.3 Q 152.6 336.05 147.3 342.9 136.3 357.1 139.75 375.45 142.5 389.65 151.9 404.05 151.9 405 152.8 404.3 L 152.8 396.05 Q 153.25 379.8 165.65 369.5 175.5 361.25 190.35 358.95 197.95 357.8 204.1 358.7 219.7 360.8 233.65 369.5 241.45 374.5 251.3 383 L 272.4 401.1 Q 274.65 403.4 275.8 403.6 276.25 404.05 276.5 404.05 276.695703125 403.893359375 276.4 403.4 L 276.5 403.4 275.8 401.55 Q 266.4 377.95 258.85 362.85 252.9 350.7 241.7 339 234.8 332.15 227.25 327.55 209.15 316.8 189.9 318.6 172.5 320 159.7 330.3 M 409.6 60.9 Q 407.3 60.2 405 60.2 402.25 60.2 402.05 60.45 401.35 61.6 402.95 63.2 L 404.55 66.4 Q 406.15 70.75 405.25 74.2 404.3 77.15 406.85 78.8 407.3 79 409.8 80.85 410.95 81.5 412.1 81.3 418.5 80.4 421.05 78.3 422.65 77.15 429.05 71.2 L 425.6 68.25 Q 417.85 62.95 409.6 60.9 M 192.45 367.4 Q 182.8 370.4 175.95 378.4 170.65 384.35 171.35 391.45 171.8 395.35 172.75 398.8 174.55 407.5 180.5 412.55 L 180.5 408.9 Q 181 396.05 192.45 390.55 201.85 385.95 213.75 387.6 223.35 389.2 233.65 394.7 L 263.9 415.3 Q 265.75 416.45 266.2 416.45 L 265.75 415.05 Q 259.1 403.15 253.15 396.3 244.65 386.2 238.7 380.95 228.4 372.25 218.55 368.55 205.05 363.75 192.45 367.4 M 358.95 71 Q 355.05 77.65 358.3 85.4 361.7 93.2 365.4 99.15 371.55 108.8 381.2 118.4 387.85 125.3 406.4 140.4 L 407.55 140.85 Q 412.1 134 413.95 130.3 425.6 107.4 409.8 86.55 408.45 84.5 404.8 81.3 401.35 78.55 401.35 74.65 L 401.1 73.5 Q 400.45 66.85 397 62.3 392.2 55.65 384.6 55.4 381.85 55.2 379.1 55.4 366.5 56.8 360.8 67.55 L 358.95 71 M 373.15 71.65 Q 374.3 68.9 377.05 68.7 379.8 68.25 381.65 70.55 383 72.35 383 74.4 L 383 75.1 Q 382.55 78.8 379.35 79.9 376.15 80.85 373.85 77.85 371.8 74.9 373.15 71.65 M 403.65 43.05 Q 400.2 32.5 390.6 27.7 L 378.65 21.3 Q 374.55 19 371.8 16.25 367.45 11.65 367.2 5.95 L 367 4.55 Q 366.75 1.8 363.8 2.5 360.8 3.65 359.65 6.6 358.3 10.5 358.95 14.15 360.1 18.75 361.95 22.65 362.4 23.8 361.95 24.25 L 360.55 24 358.05 22.9 Q 345.7 15.3 345 2.7 345 0.45 344.75 -0.05 338.8 1.1 337.2 6.4 L 336.75 8.9 Q 335.85 17.6 340.65 25.4 342.45 27.7 342.45 28.15 337.45 27.25 333.75 23.8 330.1 20.6 325.75 13.25 L 325.75 13.5 Q 320.25 17.15 321.4 23.1 L 323.25 30.65 Q 323.7 31.6 322.55 31.6 L 319.8 30.9 Q 314.75 30.2 310.65 31.35 304.2 33.2 301 38.7 297.6 44.2 299.65 51.3 302.6 60.9 311.8 65.05 318.4 68.25 323.25 63.45 L 324.4 62.5 Q 334.25 54.7 345.7 51.05 361.5 46 377.75 48.3 387.35 49.7 395.15 55.65 L 396.55 56.8 Q 398.35 58.4 399.75 58.15 400.9 57.7 402.25 55.85 L 402.95 54.7 Q 406.15 49 403.65 43.05 M 153.25 251.5 Q 134.95 256.75 121.9 268.7 106.3 282.45 99 304.4 94.15 318.85 95.3 329.85 96.9 339.95 97.6 342 103.35 365.15 120.95 382.1 123.05 383.7 123.5 383.7 124.15 383 123.5 381.85 L 121.2 369.95 Q 119.8 358.25 121.65 348.2 123.5 339.95 125.8 336.5 136.3 320.25 151.45 312.2 166.1 304.9 183.25 303.5 204.8 302.15 223.15 311.05 232.3 315.9 243.95 325.05 252.7 332.35 258.85 341.3 265.3 350.95 270.1 361 276.5 374.05 282.25 390.55 283.15 392.15 283.35 392.4 L 283.6 392.4 Q 285.2 385.3 285.9 376.8 287.25 363.3 286.1 348.65 284.75 330.75 279.5 315.9 266.4 278.1 232.5 260.2 219.9 253.35 203.2 249.2 192 246.7 184.4 246.7 167.25 247.15 153.25 251.5 M 229.55 142 Q 211.9 134.9 194.25 133.3 176.15 131.9 160.15 135.15 136.3 140.15 118 152.55 95.1 167.9 79.95 194.25 63 223.1 61.65 261.1 60.7 279.45 65.05 300.3 68.3 316.35 74.45 329.85 L 76.05 333.05 76.55 333.3 77 332.85 77.65 329.4 Q 80.4 312.9 87.05 297.1 100.6 265.95 126 246.7 150.3 228.35 179.4 226.1 201.35 224.45 222.65 232.7 251.1 243.95 270.3 269.15 295.05 301.9 297.8 344.75 298.95 364.65 295.3 382.1 L 295.3 383.25 Q 296.2 383.25 296.65 382.1 L 301.7 375.2 Q 310.85 363.05 317.75 345.45 326.45 322.5 327.15 298.45 327.8 274.65 323 254.25 315.65 222.65 295.75 194.45 269.65 158.25 229.55 142 Z"/>
</g>
</defs>
<g transform="matrix(1,0,0,1,0,0)">
<use xlink:href="#l1"/>
</g>
<g transform="matrix(1,0,0,1,0,0)">
<use xlink:href="#l0"/>
</g>
</svg>
