<svg xmlns="http://www.w3.org/2000/svg" xmlns:xlink="http://www.w3.org/1999/xlink" width="100%" height="100%" viewBox="0 0 512 512">
<!-- Vectorization by Rodrigo Polo https://github.com/rodrigopolo/logotipos-politicos -->
<defs>
<g id="l3">
<path fill="#FA0017" stroke="none" d="M 468.4 460.4 L 457.4 460.4 449.15 511.3 456.7 511.3 458.1 502.15 467.25 502.15 468.6 511.3 476.65 511.3 468.4 460.4 M 466.35 495.25 L 459 495.25 462.45 468.65 466.35 495.25 M 445.45 460.4 L 438.35 460.4 438.35 490.9 430.1 460.4 420.25 460.4 420.25 511.3 427.35 511.3 427.35 474.15 437.45 511.3 445.45 511.3 445.45 460.4 M 388.4 511.3 L 395.7 511.3 397.1 502.15 406.5 502.15 407.85 511.3 415.9 511.3 407.65 460.4 396.65 460.4 388.4 511.3 M 398.25 495.25 L 401.7 468.65 405.35 495.25 398.25 495.25 M 385.65 492.75 L 378.05 492.75 378.05 500.1 Q 378.05 504.9 373.95 504.9 370.05 504.9 370.05 500.1 L 370.05 471.65 Q 370.05 466.85 373.95 466.85 378.05 466.85 378.05 471.65 L 378.05 477.6 385.65 477.6 385.65 472.1 Q 385.65 459.5 373.7 459.5 361.8 459.5 361.8 472.1 L 361.8 499.6 Q 361.8 505.6 365 508.8 367.95 512 373.7 512 385.65 512 385.65 499.6 L 385.65 492.75 M 356.5 460.4 L 348.5 460.4 348.5 511.3 356.5 511.3 356.5 460.4 M 323.7 460.4 L 323.7 511.3 344.8 511.3 344.8 503.95 331.75 503.95 331.75 460.4 323.7 460.4 M 318.45 474.15 L 318.45 472.1 Q 318.45 460.4 306.55 460.4 L 294.4 460.4 294.4 511.3 307 511.3 Q 319.15 511.3 319.15 499.15 L 319.15 494.8 Q 319.15 486.3 313.2 484.25 L 313.2 484.05 Q 318.45 481.95 318.45 474.15 M 310.45 472.8 L 310.45 475.75 Q 310.45 481.05 305.6 481.05 L 302.4 481.05 302.4 467.5 306.3 467.5 Q 310.45 467.5 310.45 472.8 M 306.05 488.4 Q 311.35 488.4 311.35 494.55 L 311.35 499.15 Q 311.35 503.95 307 503.95 L 302.4 503.95 302.4 488.4 306.05 488.4 M 273.3 460.4 L 265.25 460.4 265.25 499.15 Q 265.25 512 277.2 512 289.1 512 289.1 499.15 L 289.1 460.4 281.3 460.4 281.3 499.85 Q 281.3 504.9 277.4 504.9 273.3 504.9 273.3 499.85 L 273.3 460.4 M 249.2 492.3 Q 261.35 492.3 261.35 479.65 L 261.35 473 Q 261.35 460.4 249.2 460.4 L 237.5 460.4 237.5 511.3 245.55 511.3 245.55 492.3 249.2 492.3 M 245.55 467.5 L 249.2 467.5 Q 253.35 467.5 253.35 472.35 L 253.35 480.35 Q 253.35 485.15 249.2 485.15 L 245.55 485.15 245.55 467.5 M 219.4 489.55 L 229.95 489.55 229.95 482.2 219.4 482.2 219.4 467.5 233.15 467.5 233.15 460.4 211.4 460.4 211.4 511.3 233.15 511.3 233.15 503.95 219.4 503.95 219.4 489.55 M 189.85 490.7 L 192.6 490.7 Q 195.35 490.7 196.5 492.05 197.6 493.45 197.6 497.1 L 197.6 505.1 Q 197.6 509.25 198.3 511.3 L 206.55 511.3 Q 205.65 508.55 205.65 505.1 L 205.65 496.2 Q 205.65 488.15 200.4 486.55 205.65 484.5 205.65 476.45 L 205.65 472.1 Q 205.65 460.4 193.75 460.4 L 181.8 460.4 181.8 511.3 189.85 511.3 189.85 490.7 M 189.85 467.75 L 193.5 467.75 Q 197.6 467.75 197.6 472.8 L 197.6 478.05 Q 197.6 483.55 192.8 483.55 L 189.85 483.55 189.85 467.75 Z"/>
</g>
<g id="l2">
<path fill="#313190" stroke="none" d="M 164.15 511.3 L 164.15 460.4 157.05 460.4 157.05 490.9 149 460.4 139.15 460.4 139.15 511.3 146.25 511.3 146.25 474.15 156.15 511.3 164.15 511.3 M 123.1 457.2 L 130.9 447.35 122.2 447.35 117.15 457.2 123.1 457.2 M 112.55 462.95 Q 109.35 466.35 109.35 472.35 L 109.35 499.15 Q 109.35 512 121.5 512 133.65 512 133.65 499.15 L 133.65 472.35 Q 133.65 466.35 130.45 462.95 127.25 459.5 121.5 459.5 115.75 459.5 112.55 462.95 M 121.5 466.85 Q 125.65 466.85 125.65 471.85 L 125.65 499.85 Q 125.65 504.9 121.5 504.9 117.4 504.9 117.4 499.85 L 117.4 471.85 Q 117.4 466.85 121.5 466.85 M 104.1 460.4 L 96.05 460.4 96.05 511.3 104.1 511.3 104.1 460.4 M 89.85 460.4 L 82.75 460.4 82.75 490.9 74.75 460.4 64.9 460.4 64.9 511.3 72 511.3 72 474.15 81.85 511.3 89.85 511.3 89.85 460.4 M 59.15 460.4 L 51.35 460.4 51.35 499.85 Q 51.35 504.9 47.2 504.9 43.3 504.9 43.3 499.85 L 43.3 460.4 35.3 460.4 35.3 499.15 Q 35.3 512 47.2 512 59.15 512 59.15 499.15 L 59.15 460.4 Z"/>
</g>
<g id="l1">
<path fill="#313190" stroke="none" d="M 331.3 182.5 L 331.3 184.8 Q 331.3 185.95 332.65 185.95 333.098046875 185.95 333.35 185.75 333.636328125 185.95 334.05 185.95 L 374.6 189.4 385.15 191.25 399.85 204.5 Q 400.05 205 401 205 L 401.9 204.3 406.95 191.7 411.3 191.25 412.2 190.55 Q 412.7 189.85 412.2 189.4 L 410.4 186.2 434 201.75 434.25 202.25 434 202.9 407.2 224.25 Q 406.05 224.95 406.95 225.85 L 407.85 226.3 408.8 226.1 435.6 204.75 Q 436.75 204.05 436.75 202.25 436.75 200.65 435.4 199.7 L 407.4 181.15 Q 406.5 180.9 405.8 181.35 405.1 181.85 405.6 182.75 L 409 188.95 406.05 189.4 Q 405.35 189.4 404.9 190.1 L 400.3 201.55 386.55 188.95 385.85 188.7 375.1 186.85 374.85 186.85 334.25 183.45 Q 334.00234375 183.45 333.8 183.5 L 333.8 182.5 Q 333.8 181.35 332.65 181.35 331.3 181.35 331.3 182.5 M 331.3 174.05 L 331.3 178.4 Q 331.3 179.55 332.65 179.55 333.8 179.55 333.8 178.4 L 333.8 174.05 Q 333.8 172.9 332.65 172.9 331.3 172.9 331.3 174.05 M 333.8 165.55 Q 333.8 164.4 332.65 164.4 331.3 164.4 331.3 165.55 L 331.3 169.9 Q 331.3 171.05 332.65 171.05 333.8 171.05 333.8 169.9 L 333.8 165.55 M 332.65 155.9 Q 331.3 155.9 331.3 157.05 L 331.3 161.4 Q 331.3 162.55 332.65 162.55 333.8 162.55 333.8 161.4 L 333.8 157.05 Q 333.8 155.9 332.65 155.9 M 331.3 152.95 Q 331.3 154.1 332.65 154.1 333.8 154.1 333.8 152.95 L 333.8 148.6 Q 333.8 147.45 332.65 147.45 331.3 147.45 331.3 148.6 L 331.3 152.95 M 333.8 140.1 Q 333.8 138.95 332.65 138.95 331.3 138.95 331.3 140.1 L 331.3 144.45 Q 331.3 145.6 332.65 145.6 333.8 145.6 333.8 144.45 L 333.8 140.1 M 332.65 130.45 Q 331.3 130.45 331.3 131.6 L 331.3 135.95 Q 331.3 137.1 332.65 137.1 333.8 137.1 333.8 135.95 L 333.8 131.6 Q 333.8 130.45 332.65 130.45 M 332.65 122 Q 331.3 122 331.3 123.15 L 331.3 127.5 Q 331.3 128.65 332.65 128.65 333.8 128.65 333.8 127.5 L 333.8 123.15 Q 333.8 122 332.65 122 M 332.65 113.5 Q 331.3 113.5 331.3 114.65 L 331.3 119 Q 331.3 120.15 332.65 120.15 333.8 120.15 333.8 119 L 333.8 114.65 Q 333.8 113.5 332.65 113.5 M 331.3 106.15 L 331.3 110.5 Q 331.3 111.65 332.65 111.65 333.8 111.65 333.8 110.5 L 333.8 106.15 Q 333.8 105 332.65 105 331.3 105 331.3 106.15 M 332.65 96.55 Q 331.3 96.55 331.3 97.7 L 331.3 102.05 Q 331.3 103.2 332.65 103.2 333.8 103.2 333.8 102.05 L 333.8 97.7 Q 333.8 96.55 332.65 96.55 M 332.65 88.05 Q 331.3 88.05 331.3 89.2 L 331.3 93.55 Q 331.3 94.7 332.65 94.7 333.8 94.7 333.8 93.55 L 333.8 89.2 Q 333.8 88.05 332.65 88.05 M 333.8 85.05 L 333.8 80.7 Q 333.8 79.55 332.65 79.55 331.3 79.55 331.3 80.7 L 331.3 85.05 Q 331.3 86.2 332.65 86.2 333.8 86.2 333.8 85.05 M 332.65 71.1 Q 331.3 71.1 331.3 72.25 L 331.3 76.6 Q 331.3 77.75 332.65 77.75 333.8 77.75 333.8 76.6 L 333.8 72.25 Q 333.8 71.1 332.65 71.1 M 332.65 62.6 Q 331.3 62.6 331.3 63.75 L 331.3 68.1 Q 331.3 69.25 332.65 69.25 333.8 69.25 333.8 68.1 L 333.8 63.75 Q 333.8 62.6 332.65 62.6 M 332.65 54.1 Q 331.3 54.1 331.3 55.25 L 331.3 59.6 Q 331.3 60.75 332.65 60.75 333.8 60.75 333.8 59.6 L 333.8 55.25 Q 333.8 54.1 332.65 54.1 M 332.65 45.65 Q 331.3 45.65 331.3 46.75 L 331.3 51.15 Q 331.3 52.3 332.65 52.3 333.8 52.3 333.8 51.15 L 333.8 46.75 Q 333.8 45.65 332.65 45.65 M 332.65 37.15 Q 331.3 37.15 331.3 38.3 L 331.3 42.65 Q 331.3 43.8 332.65 43.8 333.8 43.8 333.8 42.65 L 333.8 38.3 Q 333.8 37.15 332.65 37.15 M 332.65 28.65 Q 331.3 28.65 331.3 29.8 L 331.3 34.15 Q 331.3 35.3 332.65 35.3 333.8 35.3 333.8 34.15 L 333.8 29.8 Q 333.8 28.65 332.65 28.65 M 332.65 20.2 Q 331.3 20.2 331.3 21.3 L 331.3 25.7 Q 331.3 26.85 332.65 26.85 333.8 26.85 333.8 25.7 L 333.8 21.3 Q 333.8 20.2 332.65 20.2 M 331.3 16.75 Q 331.3 18.1 332.65 18.1 333.8 18.1 333.8 16.75 L 333.8 14.65 Q 333.8 13.55 332.65 13.55 331.3 13.55 331.3 14.65 L 331.3 16.75 M 333.8 1.15 Q 333.8 0 332.65 0 L 188.45 0 Q 187.3 0 187.1 0.9 L 185.25 10.1 182.5 54.35 145.6 54.8 Q 144.45 54.8 144.45 55.7 144.2 56.65 144.9 57.1 L 151.75 60.75 157.5 66.5 177.45 90.1 177.9 90.55 206.35 105.25 215.05 130.25 Q 215.75 130.9 215.95 130.9 L 236.6 136.65 233.85 163.7 228.1 167.4 118.55 169.2 Q 113.95 169.2 112.1 172.9 L 83.7 222.2 Q 83.2 223.35 84.15 223.8 L 84.8 224 85.05 224 Q 85.95 224 86.2 223.35 L 114.4 174.05 Q 116 171.5 118.75 171.5 L 228.8 169.9 229.5 169.65 235.9 165.55 236.35 164.65 239.35 135.95 Q 239.35 134.8 238.45 134.6 L 217.35 128.65 208.65 103.85 207.95 103.2 179.3 88.3 159.35 64.65 159.35 64.45 153.15 58.7 150.4 57.1 183.65 56.65 Q 184.8 56.65 184.8 55.5 L 187.75 10.55 189.35 2.3 331.5 2.3 331.5 10.3 Q 331.5 11.7 332.65 11.7 333.8 11.7 333.8 10.3 L 333.8 1.15 Z"/>
</g>
<g id="l0">
<path fill="#313190" stroke="none" d="M 257 327.9 Q 252.4 332.45 252.4 338.9 252.4 345.3 257 349.65 261.35 354.25 267.8 354.25 274.2 354.25 278.55 349.65 283.15 345.3 283.15 338.9 283.15 332.45 278.55 327.9 274.2 323.3 267.8 323.3 261.35 323.3 257 327.9 M 220.8 308.4 Q 216.45 303.8 209.8 303.8 203.35 303.8 199 308.4 194.4 313 194.4 319.4 194.4 325.8 199 330.15 203.35 334.75 209.8 334.75 216.2 334.75 220.8 330.15 225.35 325.8 225.35 319.4 225.35 313 220.8 308.4 M 146.75 230.9 Q 139.6 230.9 134.35 235.95 129.3 241.2 129.3 248.3 129.3 255.65 134.35 260.95 139.4 265.95 146.75 265.95 154.05 265.95 159.35 260.95 164.4 255.65 164.4 248.3 164.4 241 159.35 235.95 154.05 230.9 146.75 230.9 M 348.95 227.9 Q 342.55 221.7 333.6 221.7 324.85 221.7 318.45 227.9 312.25 234.35 312.25 243.05 312.25 252 318.45 258.4 324.85 264.6 333.6 264.6 342.55 264.6 348.95 258.4 355.15 252 355.15 243.05 355.15 234.35 348.95 227.9 M 405.1 239.6 Q 414.3 224.7 407.85 220.55 406.5 219.45 403.95 219.9 398.7 221.25 392.3 230.9 364.75 260 355.15 266.2 350.55 269.65 321.45 270.8 318 270.55 314.55 271.7 307.7 274 307.2 281.1 306.55 292.35 301.25 351.95 L 282.45 357 Q 279.95 358.6 274.65 359.5 264.35 361.15 250.35 357.9 L 248.05 358.4 Q 244.4 360.9 238 370.55 L 234.1 350.1 Q 234.1 347.85 232.45 345.75 229.5 341.65 221.25 342.8 206.1 343.7 194.4 336.8 191 333.85 186.6 333.4 178.15 332.45 174 345.75 168.95 319.85 166.65 284.1 166.9 282 166 279.75 164.15 275.6 158.2 275.35 144.9 274.7 142.85 274.25 132.5 272.15 119.65 263.2 116.45 261.6 111.2 256.55 100.85 246.7 91.45 230.9 90.1 227.9 88.05 225.4 83.9 219.9 80.95 221.05 77.25 222.4 77.7 230.9 78.15 239.6 83.2 246.25 L 91 257.95 Q 100.65 271.7 109.15 281.35 L 112.1 285.25 113.7 290.05 Q 114.65 297.6 111.2 311.15 L 101.35 345.1 Q 97.65 359.3 98.1 365.5 L 107.5 371.45 106.6 393 Q 107.3 414.55 113.95 414.3 115.1 414.55 116.7 409.95 119.9 401 122.4 377.4 L 132.95 380.4 133.9 404.25 Q 136.4 427.85 145.1 426.95 L 147.2 382.9 158.65 383.15 156.15 318.25 156.6 316.9 Q 157.05 316.65 157.95 321.7 L 163.7 356.3 166 364.35 Q 168.95 371.45 173.3 367.55 175.15 368.9 175.4 364.35 179.95 357 183.65 348.3 184.1 347.35 184.35 346.9 185.25 346 185.45 349.2 185.95 353.55 185.95 370.3 185.95 388.2 185.45 397.6 184.55 415.25 184.8 420.75 185.25 433.8 189.35 434.5 193.25 435.2 195.55 422.1 197.85 404.9 199.45 397.15 200.15 394.6 201.05 393.45 202.65 390.95 202.9 398.05 203.15 409.05 204.75 434.25 L 205.9 438.85 Q 208.15 443.2 214.8 441.85 L 220.8 359.75 Q 221.25 357.25 221.7 356.1 222.85 353.8 223.75 360.45 226.05 377.85 231.8 384.3 235 389.35 239.1 384.95 L 249.65 373.5 Q 250.35 372.8 251.05 372.15 252.9 371.2 253.8 372.15 255.85 374.45 252.4 387.75 L 247.4 406.3 252.9 410.45 253.35 425.1 Q 255.4 439.75 262.75 440 264.55 439.55 264.35 433.6 L 264.35 413.85 268.95 414.3 270.75 428.3 Q 274.2 442.3 280.85 441.4 281.1 430.35 279.95 413.85 289.8 411.55 290.7 410.45 285.9 377.4 286.6 369.85 L 304 361.15 Q 312.05 358.85 312.7 352.85 L 318.9 319.4 Q 319.35 315.95 319.85 314.8 320.75 312.3 320.3 322.85 L 316.85 407 Q 316.85 444.8 321.9 445.5 327.4 446.2 332.65 431.5 337 418.9 337.7 407.9 338.15 400.35 340.9 379.7 L 343.45 360.45 347.55 360.45 352.15 412.7 Q 354.45 436.8 354.9 437.7 356.3 443 361.8 438.85 366.6 434.95 368.65 429 370.95 421.45 370.75 405.6 L 368.2 307.95 Q 368.2 303.1 368.45 297.6 369.1 286.85 370.75 283.85 372.55 280.9 383.8 267.1 389.3 260.25 394.55 253.8 L 405.1 239.6 Z"/>
</g>
</defs>
<g transform="matrix(1,0,0,1,0,0)">
<use xlink:href="#l3"/>
</g>
<g transform="matrix(1,0,0,1,0,0)">
<use xlink:href="#l2"/>
</g>
<g transform="matrix(1,0,0,1,0,0)">
<use xlink:href="#l1"/>
</g>
<g transform="matrix(1,0,0,1,0,0)">
<use xlink:href="#l0"/>
</g>
</svg>
