<svg xmlns="http://www.w3.org/2000/svg" xmlns:xlink="http://www.w3.org/1999/xlink" width="100%" height="100%" viewBox="0 0 512 512">
<!-- Vectorization by Rodrigo Polo https://github.com/rodrigopolo/logotipos-politicos -->
<defs>
<g id="l0">
<path fill="#ED1C24" stroke="none" d="M 462 355.25 Q 437 355.25 426.7 364.9 416.6 374.75 416.6 397.65 416.6 420.8 426.7 430.45 437 440.1 462 440.1 L 473.95 439.4 492.05 452 512 441 496.85 430.9 Q 507.4 421.3 507.4 397.65 507.4 374.3 497.35 364.9 487 355.25 462 355.25 M 462 369.45 Q 469.35 369.45 471.4 375.2 473.25 379.8 473.25 397.65 473.25 415.55 471.4 419.9 469.35 425.65 462 425.65 454.7 425.65 452.6 419.9 450.8 414.85 450.8 397.65 450.8 380.7 452.6 375.2 454.7 369.45 462 369.45 M 378.1 356.6 L 336.35 356.6 305.4 438.45 340.5 438.45 343.95 424.25 370.3 424.25 373.75 438.45 409.05 438.45 378.1 356.6 M 357 373.35 L 357.45 373.35 366.4 408.2 347.85 408.2 357 373.35 M 241.45 356.6 L 204.3 356.6 204.3 438.45 235.25 438.45 235.25 388.05 257.5 438.45 293.95 438.45 293.95 356.85 263 356.85 263 407.05 241.45 356.6 M 183.9 356.6 L 150.85 356.6 150.85 438.45 183.9 438.45 183.9 356.6 M 31.85 356.85 L 0 356.85 21.55 438.45 57.8 438.45 69 383.7 69.25 383.7 80.25 438.45 116.7 438.45 138.5 356.85 106.4 356.85 97.45 413.25 97 413.25 84.15 356.85 54.1 356.85 42.2 413.25 41.95 413.25 31.85 356.85 M 493.9 146.85 Q 492.5 144.55 490.2 144.8 486.8 145 480.8 156 471.4 172.75 470.25 171.85 469.8 171.35 473.95 161.75 479.9 148 480.35 146.85 483.35 139.95 483.8 137.65 484.5 133.3 481.05 131.7 474.85 128.75 469.8 142.7 467.3 149.6 463.4 158.1 458.35 168.4 457.45 166.55 465.45 147.55 467.5 142.05 470.95 133.55 470.75 131.7 470.05 128.95 466.85 127.6 463.15 126.2 461.35 129.65 451.7 150.5 447.1 157.6 439.55 170.25 435.2 173.45 428.55 178.5 426.7 174.35 425.8 170.25 424.65 167 422.6 160.6 418.45 156.45 413.65 152.1 410.45 152.55 407.45 153.05 408.15 156 414.8 174.8 415 182.4 416.6 190.4 418.7 196.6 420.3 201.65 422.6 206 L 420.3 214 366.4 266.05 268.5 175.75 Q 257.25 177.35 245.1 176.65 L 235.25 175.75 137.35 266.05 83.45 214 81.15 206 Q 83.45 201.85 85.3 196.6 87.35 190.4 88.75 182.4 89.2 175.05 95.85 156 96.55 153.25 93.55 152.8 90.1 152.1 85.5 156.45 81.15 160.6 79.1 167 78.2 170.25 77.25 174.35 75.65 178.5 68.55 173.45 63.95 169.75 56.65 157.6 53.9 153.25 49.05 142.95 44 132.15 42.65 129.65 40.8 126.2 37.15 127.8 33.7 129.2 33.25 131.95 33 133.75 36.25 142.05 38.5 147.55 46.55 166.55 45.65 168.6 40.6 158.1 36.25 148.9 34.15 142.7 28.9 128.75 22.7 131.7 19.5 133.3 20.2 137.65 20.4 139.5 23.4 147.05 25 150.5 30.05 161.75 34.15 171.35 33.5 171.85 32.1 173 23.15 156 19.7 149.8 18.35 148 15.8 145 13.75 144.8 11.45 144.55 9.85 146.85 8.5 149.15 9.4 150.95 12.6 156.45 25 180.55 24.1 181.7 18.55 175.25 14 170.25 11.25 166.1 7.55 160.85 3.65 164.95 2.05 166.8 3.9 169.75 4.8 171.6 10.1 178.25 L 22.7 194.05 30.05 206.7 Q 34.6 213.55 52.3 225.25 L 120.6 326.15 Q 129.3 339.45 136.45 336.9 140.8 335.55 149.5 327.05 L 252 247.25 354.25 327.05 Q 359.3 330.5 367.3 336.9 374.45 339.45 383.15 326.15 L 451.7 225.25 Q 469.1 213.55 473.7 206.7 478.3 199.55 481.25 194.05 L 493.9 178 Q 498.95 171.35 499.85 169.75 501.7 166.55 500.3 164.95 496.4 160.85 492.5 166.1 489.75 170.25 485.15 175.25 479.65 181.7 479 180.55 491.35 156.25 494.55 150.75 495.25 148.9 493.9 146.85 M 289.8 75.3 Q 274.25 59.95 252.45 59.95 230.65 59.95 215.3 75.3 199.95 90.65 199.95 112.45 199.95 134.25 215.3 149.6 230.9 164.95 252.45 164.95 274.25 164.95 289.8 149.6 305.2 134.25 305.2 112.45 305.2 90.65 289.8 75.3 Z"/>
</g>
</defs>
<g transform="matrix(1,0,0,1,0,0)">
<use xlink:href="#l0"/>
</g>
</svg>
