<svg xmlns="http://www.w3.org/2000/svg" xmlns:xlink="http://www.w3.org/1999/xlink" width="100%" height="100%" viewBox="0 0 512 512">
<!-- Vectorization by Rodrigo Polo https://github.com/rodrigopolo/logotipos-politicos -->
<defs>
<g id="l0">
<path fill="#EE212C" stroke="none" d="M 451 372.9L 451 381.15 470.5 381.15 448.95 403.55 448.95 411.65 485.75 411.65 485.75 403.3 463.2 403.3 484.95 380.65 484.95 372.9 451 372.9M 436.1 372.9L 424.1 372.9 424.1 411.65 436.1 411.65 436.1 372.9M 456.85 329.25Q 451.9 331.65 449.25 336.4 446.6 341 446.6 347.4 446.6 353.4 449 358.05 451.4 362.75 455.75 365.05 460 367.4 467 367.4 472.75 367.4 476.7 366.15 481.05 364.65 486.1 361.25L 486.1 344.65 467.6 344.65 467.6 352.75 475.6 352.75 475.6 356.4Q 473.25 357.85 471.45 358.4 469.4 359 467.6 359 463.4 359 461 356.25 458.6 353.55 458.6 347.25 458.6 341.35 461 338.65 463.25 335.9 467.25 335.9 470 335.9 471.6 337.05 473.35 338.2 474 340.4L 485.5 338.3Q 484.5 334.5 482.45 332.15 480.5 329.85 477.1 328.5 474.1 327.4 467.5 327.4 460.75 327.4 456.85 329.25M 403.1 328L 403.1 366.75 414.35 366.75 414.35 345.5 428.85 366.75 440.1 366.75 440.1 328 428.85 328 428.85 349.5 414.25 328 403.1 328M 397.95 372.9L 384.85 372.9 370.35 411.65 382.5 411.65 384.45 405.25 398 405.25 400 411.65 412.5 411.65 397.95 372.9M 395.5 396.8L 387 396.8 391.25 382.9 395.5 396.8M 359.25 372.9L 343.5 372.9 337.5 396.4 331.45 372.9 315.7 372.9 315.7 411.65 325.5 411.65 325.5 382.05 333 411.65 341.95 411.65 349.45 382.05 349.45 411.65 359.25 411.65 359.25 372.9M 353 328L 341 328 341 351.65Q 341 354.9 339.25 356.65 337.55 358.4 334.35 358.4 331.3 358.4 329.5 356.55 327.75 354.9 327.75 351.65L 327.75 328 315.85 328 315.85 351.15Q 315.85 354.2 317 357.65 317.5 359.85 319.5 362.15 321.2 364.15 323.6 365.5 325.85 366.6 329.2 367 332.2 367.4 335.35 367.4 340.3 367.4 343.75 366.15 346.35 365.15 348.5 362.9 350.85 360.6 351.95 357.55 353 354.25 353 351.15L 353 328M 396 338.75Q 396 335.1 394.25 332.5 392.4 329.85 389.5 329 386.4 328 381 328L 361.1 328 361.1 366.75 373.1 366.75 373.1 351.05 374.1 351.05Q 375.7 351.05 377.1 352 377.9 352.55 379.25 354.9L 385.6 366.75 399.2 366.75 393.35 355.5Q 392.85 354.65 391.75 353.15 390.4 351.6 389.75 351.05 388.65 350.35 386.7 349.65 389.3 349.05 390.85 348.15 393.35 346.65 394.6 344.4 396 342.1 396 338.75M 378.1 343.75L 373.1 343.75 373.1 335.8 378.35 335.8Q 381.7 335.8 382.85 336.9 384 337.9 384 339.75 384 340.95 383.25 342 382.4 343 381.35 343.15 379.05 343.75 378.1 343.75 Z"/>
</g>
<g id="l1">
<path fill="#FE962A" stroke="none" d="M 404.2 262 Q 403.5 263.7 400.2 269.75 397.55 274.65 397 278.25 400.75 275.55 404.1 271 407.45 266.3 408 263 407 262.15 404.2 262 M 388.7 272 Q 387.1 270.85 385.5 270.65 386.3 274.1 386.95 275.15 388.2 277.25 390.75 277.3 391.2 276.95 391.25 275.9 L 391.25 274 388.7 272 M 386.95 264.4 Q 388.2 265.95 390.75 268 L 395 271.15 Q 395.55 269.35 398.25 266.25 400.5 263.6 400.35 261.5 400.05 259.05 396.2 256.4 390.85 252.65 390.25 251.95 389.6 254.95 386.95 264.4 M 405.85 248.15 Q 407.7 244.9 408.5 241.4 405.8 238.85 403 236.35 399.75 233.5 396.5 232.35 396.1 234.15 393.85 238 391.9 241.15 392.2 243.35 392.5 245.8 396.6 248.95 401.5 252.75 402.25 253.9 405.15 249.55 405.85 248.15 M 419.5 245.2 Q 416.75 244.1 415.95 243.85 413.9 242.95 411.85 242.85 411.75 243.1 408.35 249.4 406.2 253.3 405.6 256.75 408.6 258.15 412.75 258.65 413.75 256.15 416.2 251.95 418.35 248.1 419.5 245.2 M 406.2 229.6 Q 409.85 232.25 412.75 233.25 L 415.1 228.65 Q 416.5 225.5 417.1 223.65 L 411.2 218.9 Q 407.8 216.15 404.7 214.6 402.6 218 402 219.4 400.65 222.2 400.35 225.15 402.2 226.4 406.2 229.6 M 420 225.15 L 417.5 230.35 Q 415.85 233.7 415.2 235.65 416.9 237.05 418.6 237.95 420.65 239.05 422.85 239.5 423.25 238.55 426 233.65 428.05 230.1 428.1 228 424.65 225.4 420 225.15 M 413.75 212.4 Q 416.95 214.35 420 215.1 424.25 209.4 425.75 203.6 421.9 201 419.6 199.65 416 197.5 412.25 196.9 411.8 198.3 410.2 202.65 409 205.95 408.5 208.9 L 413.75 212.4 M 434.35 205.75 Q 431.8 204.6 429.5 204.1 428.5 206.4 426.35 210.15 424.45 213.75 423.85 216.95 427.85 219.05 428.35 219.25 431.1 220.5 432.85 220.4 435.35 216.45 436.25 214.65 437.95 211.2 438.6 207.9 L 434.35 205.75 M 445 197 Q 447 193.45 447.75 190.15 L 436.75 187.85 Q 433.85 192.3 431.45 198.85 L 436.25 201.2 Q 439.05 202.55 441.5 203.15 442.5 201.25 445 197 M 464.1 172.9 L 459.25 172.95 Q 458.55 175.15 456.85 179.9 455.45 184.25 454.95 187.35 457.8 189.7 459 190.4 461.3 192 464 192.6 464.15 191.9 466.35 183.15 467.8 177.65 468.35 173.4 467.15 172.85 464.1 172.9 M 458.1 159.9 Q 459.55 154.95 460.2 153.35 L 456.2 151.5 Q 453.9 150.55 451.6 150.4 451.15 151.6 448.35 156.2 446.25 159.95 446.25 161.95 L 450.85 164.25 Q 453.6 165.65 455.85 166.25 456.9 164.05 458.1 159.9 M 470.25 168.15 Q 470.35 166.55 471.25 162.15 471.95 158.65 471.7 155.7 L 467.85 154.2 Q 465.8 153.5 463.5 153.35 462.3 155.5 461.5 159.4 L 460.2 166.25 Q 461.65 167.25 464.75 167.65 L 470.25 168.15 M 440.5 176.15 Q 439.3 180.1 439.1 183.45 445.75 185.25 450.6 185.4 452.1 180.95 452.7 178.85 453.65 174.85 454 171.5 450.2 169.75 442.95 169.15 442.1 171.9 440.5 176.15 M 414.7 187.35 Q 417.3 189.15 421.25 192.5 425.1 195.6 428.6 196.9 428.9 194.8 431.1 191.9 433.05 189.05 432.85 187.35 432.8 185.45 427.85 180.15 424.65 176.8 421.35 173.9 420.7 175.65 417.75 180.4 415.4 184.15 414.7 187.35 M 416.75 171.15 Q 417.2 164.75 411.85 161.45 407.05 166.55 407.5 171.75 407.85 176.35 412.25 182 416.3 176.7 416.75 171.15 M 440.1 167.65 Q 435.45 160.85 430 155.7 429.2 157.35 426.35 161.6 423.85 165.1 422.85 167.65 425.15 170.4 428.5 174.7 431.95 178.95 434.85 181.1 437.35 173.3 440.1 167.65 M 444.35 143.95 Q 442.1 141 440.1 139.9 435.95 143.1 432.85 149.45 437.5 156.55 442.5 160 446.1 154.65 448.25 148.5 447.25 147.7 444.35 143.95 M 433.35 127.45 Q 429.5 131.85 429.25 132.15 426.9 135.05 425.75 137.5 426 139.25 427.6 141.4 429.3 143.85 429.5 145.15 431.6 143.65 433.6 140.65 434.8 138.85 436.75 135.15 435.8 133.95 434.95 131.45 L 433.35 127.45 M 424.95 147.65 Q 423.35 145.65 420.95 144.2 416.85 151.3 416.2 154.2 414.85 160.1 420.45 162.9 420.6 160.85 423.6 157.35 426.65 153.8 426.7 151.9 426.7 149.95 424.95 147.65 M 445.35 113.6 Q 444.6 114.55 441.85 117.45 439.7 119.75 438.6 121.7 439.15 123.2 440 124.95 L 441.5 127.95 Q 445.7 126.2 447 121.95 448.35 117.35 445.35 113.6 M 464.5 138.45 Q 464.2 146.05 464 147.6 464.9 147.7 468.25 148.4 470.75 148.95 472.6 149 473.3 146.15 473.2 140.45 473.05 132.4 473.1 131.25 471.6 130.65 469.1 130.15 466.65 129.6 465.45 129.9 464.65 132.6 464.5 138.45 M 452.5 135.75 Q 454 132.85 454.95 129.4 454.45 128.45 453 126.45 451.55 124.45 451.1 123.6 448.3 124.8 446 127.35 444.2 129.45 442.5 132.7 L 445.5 137.4 Q 447.25 139.95 449.2 141.35 450.95 138.65 452.5 135.75 M 463.5 130.35 Q 458.35 127.85 456.25 133.85 455.5 135.85 454.85 139.2 454 143 453.5 144.2 454.6 144.35 457.5 145.1 460.2 145.5 461.6 144.7 463.15 137.8 463.5 130.35 M 460.7 122.7 Q 464.4 123.25 465 118.7 465.25 116.15 464.5 111.2 461.6 110.3 460.7 115 459.95 118.9 460.7 122.7 M 453 116.95 L 455.1 119.35 Q 456.45 120.7 458.25 120.75 L 461.1 110.7 Q 458.85 108.6 456.45 111.5 454.1 115.3 453 116.95 M 457.35 109.7 Q 456.7 106.1 455.85 104 450.7 106.3 447.75 110.7 L 449.25 113.25 Q 450.15 114.85 451.6 115 452.4 113.9 454.35 112.35 456.85 110.25 457.35 109.7 M 466.85 105.95 Q 468.55 104.45 468.25 102.95 467.95 101.6 466.35 100.85 464.75 100.15 463.25 100.7 461.6 101.2 461.1 103 461.55 106.5 466.85 105.95 M 471.1 111.6 Q 469.85 106.8 465.95 109.7 465.15 112.3 465.45 115.85 465.6 119.1 466.35 121.7 L 469.35 121.75 Q 471.1 121.75 471.7 121.2 471.85 114.3 471.1 111.6 Z"/>
</g>
<g id="l2">
<path fill="#25833C" stroke="none" d="M 401.25 176.9 Q 395.75 171.1 385.5 174.4 373.25 178.3 361.85 187.2 352.35 194.75 343.35 205.95 333.4 218.3 327.45 227.35 319.2 239.8 315.1 250.5 326.7 236.75 330.25 233.15 341.15 222.15 350 218.9 361.35 214.8 366.5 221 371.3 226.7 369.7 239 369.1 243.75 366 252.4 361.9 263.65 361.1 266.75 L 357 281.55 Q 354.8 290.35 354.35 296.5 353.45 309.95 360.5 317 367.7 324.2 380.25 321.4 388.45 319.45 395.95 314.05 402 309.65 408.35 302.4 L 419.1 289.65 Q 425.35 282.35 430 278.75 427.9 298.25 431.95 308.25 437.15 321.3 452.5 318 463.25 315.75 473.2 302.75 480.15 293.5 485.5 280.65 481.5 284.2 475.25 285.5 467.9 287 463.5 283.5 457.05 268.2 459.2 242.75 460.85 222.9 466.85 203.15 L 458.95 199.6 Q 453.85 197.35 450.6 196.4 441.35 216.5 432.95 231.9 422.35 251.35 411.85 265.4 L 403.75 275.9 Q 398.45 281.95 394.1 283.5 386.65 286.25 383.1 282.15 379.8 278.15 380.75 269.65 381.5 261.4 385.25 250.15 385.6 249 392.2 230.9 393.6 227 396.1 221.65 397.8 218.2 400.25 212.85 404.95 202.1 405.6 194 406.5 182.45 401.25 176.9 Z"/>
</g>
</defs>
<g transform="matrix(1.50128173828125,0,0,1.50128173828125,-345.35,-128.35)"><use xlink:href="#l0"/></g>
<g transform="matrix(1.50128173828125,0,0,1.50128173828125,-345.35,-128.35)"><use xlink:href="#l1"/></g>
<g transform="matrix(1.50128173828125,0,0,1.50128173828125,-345.35,-128.35)"><use xlink:href="#l2"/></g>
</svg>
