<svg xmlns="http://www.w3.org/2000/svg" xmlns:xlink="http://www.w3.org/1999/xlink" width="100%" height="100%" viewBox="0 0 512 512">
<!-- Vectorization by Rodrigo Polo https://github.com/rodrigopolo/logotipos-politicos -->
<defs>
<g id="l4">
<path fill="#0167AF" stroke="none" d="M 511.95 256 Q 511.95 150 437 75.05 362.05 0.1 256.05 0.1 150.05 0.1 75.1 75.05 0.15 150 0.15 256 0.15 362 75.1 436.95 150.05 511.9 256.05 511.9 362.05 511.9 437 436.95 511.95 362 511.95 256 Z"/>
</g>
<g id="l3">
<path fill="#FFCB06" stroke="none" d="M 113.9 364.35 Q 110.4 363.35 107.85 360.9 107.8 360.95 107.8 361 105.85 363 103.45 364.35 L 113.9 364.35 M 65.1 348.2 Q 64.9 348.2 64.75 348.3 59.85 349.55 56.4 351 56.25 351 56.2 351.05 L 52.5 352.5 Q 55.45 358.5 58.85 364.35 L 83.05 364.35 Q 80.25 362.65 78 359.9 72.2 353.35 73.1 345.85 68.05 347.25 65.1 348.2 M 436.55 280.4 Q 424.15 286.55 408.95 279.1 L 409 279.1 Q 404 276.65 400.15 274.75 398.9 278.95 394.85 283 394.65 283.15 394.5 283.4 L 390.15 287.25 Q 389.95 287.4 389.75 287.55 379.25 295.75 372.55 292.85 367.4 292.75 361 291.35 358.4 296.45 354.85 298.8 349.4 303.25 340.9 301.65 340.85 301.65 340.8 301.65 332.55 300.4 325.9 304.7 325.7 304.8 325.55 304.9 318.6 309.05 311.7 308.65 L 311.55 308.65 Q 306.1 308.4 299.3 305.2 299.15 305.15 299 305.1 293.45 302.7 271.55 294.05 L 271.7 294.15 Q 253.15 287.25 248.9 285.1 L 248.85 285.05 Q 245.4 283.9 239.65 285.95 239.5 286 239.3 286.05 238.05 286.45 237.05 286.7 237.85 289.45 237.3 294.05 236.55 301.75 231.45 307.05 221.25 318.25 210.75 323.15 210.65 323.15 210.65 323.2 198.05 329.3 189.1 325.4 L 188.85 327.2 Q 188.8 327.3 188.8 327.35 186.95 340.4 177.7 344.25 L 177.85 344.2 Q 167.7 349.3 162.3 350.75 L 162.2 350.8 Q 154.8 352.75 149.95 350.4 146.5 357.6 137.3 361.35 132.5 363.45 127.35 364.35 L 452.95 364.35 Q 481.55 314.7 481.55 253.15 481.55 252.85 481.55 252.55 477.5 254.15 471.95 254.35 471.95 254.4 472 254.45 473.35 262.3 466.7 265.1 466.15 265.35 465.6 265.6 464.75 265.85 464.15 266.05 438.6 279.5 436.55 280.4 M 419.7 97.9 Q 417.6 95.75 415.45 93.6 349.35 27.5 255.85 27.5 162.4 27.5 96.3 93.6 48.15 141.75 35.1 204.35 L 38.8 203.85 Q 40.6 203.5 43.05 203.25 L 72.1 199.25 Q 71.15 196.6 71.25 193.5 71.1 187.6 75.6 182.75 75.7 182.6 75.85 182.45 80.35 177.95 86.4 177.5 86.6 177.45 86.8 177.45 93.1 177.15 105.25 173.55 119 168.85 135.2 172.4 150.65 175.7 155.2 177.15 165.1 180.15 169.45 185.15 L 176 184.2 175.95 184.2 Q 178.95 183.75 189.7 182.15 L 189.8 182.15 Q 197.9 181.05 202.95 179.95 203.4 179.85 203.8 179.8 L 209.95 179.1 Q 210.1 179.1 210.25 179.1 214.25 178.65 219 175.9 219.2 175.8 219.35 175.7 223.15 173.65 230.5 169.45 230.7 169.3 230.9 169.25 243 163.05 290.15 137.85 L 290 137.95 Q 297.2 133.55 305.7 137.85 309.95 139.4 317.25 138.75 317.5 138.7 317.7 138.7 327.6 138.35 329.55 144.3 330.55 145.35 331 146.75 L 419.7 97.9 Z"/>
</g>
<g id="l2">
<path fill="#FFFFFF" stroke="none" d="M 155.4 214.45 L 152.25 214.7 152.25 298 152.45 298 152.45 298.2 178.1 298.2 178.1 277.35 209.1 277.35 Q 215.35 277.35 222.15 277.7 225.35 277.85 226.9 279.15 L 227.1 279.3 Q 228.4 280.75 228.7 283.55 229.05 286.1 229.05 288.85 L 229.5 298.15 229.6 298.15 229.65 298.3 254.6 298.15 255 297.3 Q 255.2 297.05 255.2 296.8 L 255.05 286.55 Q 255.05 280.8 254.65 276.3 L 254.4 274.7 Q 253.95 272.1 252.15 269.95 250 267.5 246.35 266.2 L 244.3 265.5 Q 255.25 262.2 255.6 251.45 256.05 240.3 255.5 231.3 255.35 229.2 254.75 227.25 L 253.4 223.9 252.1 221.9 Q 251.4 220.95 250.25 219.8 245.55 215.2 238.8 214.9 233.35 214.5 229.65 214.5 L 155.4 214.45 M 228.15 238 Q 229.8 239.65 229.8 244.35 229.9 251.65 228.3 253.3 226.6 255.1 219.4 255.15 211.85 255.35 199.05 255.35 L 178.35 255.3 178.35 236.45 181.6 236.1 221.9 236.35 Q 226.6 236.45 228.15 238 M 143.05 244.9 L 142.4 234.9 Q 142.25 231.85 141.95 229.6 140.95 223.7 137.35 220.1 133.85 216.55 127.9 215.25 119.4 213.5 114.1 213.4 92.1 212.95 73.4 213.45 64.5 213.75 53 215.95 46.55 217.3 42.7 221.65 42.45 221.95 41.45 223.3 L 40.45 225.05 39.15 228.55 Q 38.6 230.35 38.35 232.7 36.2 256.7 38.35 280.85 38.9 286.7 42.2 290.8 45.5 294.75 51.25 296.35 59.1 298.5 67.6 298.95 79.9 299.55 98.5 299.55 108.1 299.65 113.95 299.25 122.55 298.7 129.25 297.1 133.25 296.15 135.65 294.75 138.7 293 140.55 290 L 141.1 289.05 142.35 286.35 143.65 281.45 Q 144 280 144.15 278 144.35 275.15 143.9 265.55 L 118.15 265.55 118.15 265.6 118.1 265.6 117.2 271.55 Q 116.9 273.25 116.3 274.35 115.9 275.2 115.4 275.65 114 277 111.2 277.05 85.4 277.3 72.2 277 65.5 276.95 64.45 269.65 62.55 255.4 64.75 242.1 65.15 239.9 66.15 238.55 67.7 236.55 70.85 235.85 73.55 235.25 75.35 235.25 81.1 235.2 106.3 235.3 107.15 235.3 108.75 235.55 L 111.1 235.9 Q 113.85 236.35 114.9 237.55 116 238.65 116.3 241.5 L 116.65 245 143.05 244.9 M 356.25 234.75 L 356.45 234.75 356.45 214.8 264.2 214.8 264.2 214.9 264.05 214.9 264.05 298 356.75 298 356.75 297.9 356.85 297.9 356.85 277.1 290.15 277.1 290.05 264.95 352.85 265.1 352.85 264.95 352.95 264.95 352.95 245.85 290.15 245.85 290.15 234.85 356.25 234.85 356.25 234.75 M 473.4 234.6 Q 473 232.2 472.95 232.1 L 471.25 226 Q 469.85 222.5 467.55 220.2 L 467.4 220.1 467.35 220 Q 462.9 215.65 452.7 214.5 440.4 213.25 429 213.4 397.1 213.8 380.5 214.7 377.6 214.85 375.25 215.5 367.3 216.85 364.4 223.35 362.75 226.15 361.85 229.65 L 361.2 233.1 359.9 249.2 359.9 249.3 Q 359.65 261.8 359.85 266.45 L 359.9 267.6 Q 360.2 273.85 361.1 279.15 L 362 283.65 Q 364.35 293.7 374.95 297 378.8 298.2 382.9 298.45 L 417.05 299.85 451.6 298.4 Q 461.5 297.65 466.65 293.25 472.2 288.55 473.4 278.75 476.1 255.45 473.4 234.6 M 438.45 236.5 Q 443.25 236.75 445.2 238.55 447.1 240.45 447.5 245.3 448.4 255.85 447.7 267.65 447.5 271.7 445.6 273.5 443.75 275.35 439.7 275.95 436.95 276.4 433.25 276.55 L 416.9 276.85 Q 417.05 276.8 417.05 276.5 L 398.5 276.5 Q 396.7 276.5 393.65 275.85 390.3 275.1 388.5 273.15 386.7 271.15 386.55 267.7 386.2 254.05 386.65 245.65 386.95 240.85 389.2 238.75 391.35 236.55 396.15 236.45 420.6 236 438.45 236.5 Z"/>
</g>
<g id="l1">
<path fill="#FFFFFF" stroke="none" d="M 215.75 226.05 Q 212.75 226.3 208.6 228.15 202.65 230.9 201.75 231.1 198.75 232.05 197.6 235.5 194.4 245.55 194.65 252.65 194.65 254.75 194.85 259.1 194.4 264.35 191.2 283.85 L 187.55 308.6 Q 186.6 314.6 191.9 317.35 198.1 319.85 207 315.5 216.2 311.15 225.15 301.3 228.35 298.05 228.8 293.25 229.25 290.05 228.35 289.15 227.45 288.2 224.45 287.75 222.15 287.5 220.1 285 218.25 282.5 218.5 280.2 L 222.85 238.25 222.4 238.25 222.4 232.5 Q 222.4 229.5 220.55 227.7 218.7 225.85 215.75 226.05 M 111.65 321.7 Q 112.55 316.4 106.35 314.1 103.15 313.9 101.55 313.65 89.4 311.6 86.65 323.5 84.6 335 81.85 345.3 80.7 350.1 84.35 354.25 87.8 358.6 93.3 358.6 98.55 358.15 101.8 354.95 104.3 352.4 107.3 344.6 108.9 340.05 109.8 333.15 110.95 325.6 111.65 321.7 M 123.8 285.25 Q 123.1 287.75 121.95 292.8 121.05 296 117.6 314.1 114.85 327.65 114.4 330.85 113.25 338.65 111.65 345.75 110.5 350.1 112.55 353.35 114.85 356.55 119.2 356.55 127 356.55 133.9 353.55 141.9 350.35 143.3 343.25 146.5 328.55 147.65 320.1 152.2 296.9 154.3 285.25 156.1 272.85 146.25 271.7 L 136.65 271.7 Q 129.3 272.85 126.55 277.9 124.95 280.65 123.8 285.25 M 161.15 257.95 Q 159.8 262.3 159.35 270.55 158.2 276.05 158.65 277.45 160 281.35 158.2 287.3 L 157.25 291.9 Q 155.2 305.2 150.15 331.3 148.8 338.2 152 341.4 154.75 343.95 160 342.55 164.85 341.2 174 336.6 179.3 334.05 180.4 326.05 L 188.9 271.45 Q 190.75 261.4 190.5 256.35 189.8 246.25 180.65 246.5 L 174.7 246.5 Q 164.6 247.4 161.15 257.95 M 87.1 185.95 Q 84.1 186.2 81.85 188.45 79.75 190.75 79.75 193.5 79.55 196.95 82.05 199.25 84.6 201.55 88.25 201.55 95.35 201.75 106.6 198.8 109.35 198.35 114.4 196.5 118.95 195.1 122.4 196.75 123.55 197.2 124.7 196.75 132.75 194.9 149 193.3 153.6 192.6 163.45 191.2 160.25 187.55 152.7 185.25 148.3 183.9 133.4 180.7 119.65 177.7 107.95 181.6 94.2 185.7 87.1 185.95 M 412.7 271.45 Q 423.95 277 433.1 272.6 435.15 271.7 460.85 258.15 461.55 257.95 462.9 257.5 463.8 257.05 463.6 255.9 463.15 253.6 459.7 253.15 442.75 251.05 441.35 251.05 431.25 250.15 419.8 241.9 408.55 233.85 370.75 208.65 L 319.6 173.8 Q 316.6 171.5 314.35 167.6 311.8 163.25 315.7 160.25 319.15 157.3 321.45 153.15 324.65 146.95 318 147.2 307.9 148.1 302.15 145.6 297.8 143.3 294.15 145.35 246.9 170.6 234.75 176.8 227.2 181.15 223.3 183.2 216.65 187.1 210.9 187.55 L 204.75 188.25 Q 199.45 189.4 190.95 190.55 180.2 192.15 177.2 192.6 L 153.15 196.05 Q 132.05 199 127.7 199.7 108.4 202.7 106.15 203.4 99 205.65 90.3 205.65 88.5 205.65 74.5 207.5 L 44.2 211.65 Q 41.95 211.9 40.3 212.2 L 33.4 213.15 Q 30.2 232.4982421875 30.2 253.15 30.2 302.8146484375 48.85 344.75 L 53.15 343.1 Q 57.05 341.5 62.55 340.05 66.25 338.9 73.1 337.05 75.65 336.15 75.85 333.85 L 78.85 319.85 Q 80.2 314.35 84.35 310.45 88.7 306.55 94 305.4 99.25 304.25 107.75 305.65 110.7 305.85 110.95 302.9 L 116.9 279.05 Q 119.65 268.7 129.5 264.6 132.75 263.45 137.3 263.45 139.85 263.2 145.1 263.45 149.7 263.45 150.6 262.75 151.55 262.05 152.45 257.7 156.35 242.6 168.05 239.15 175.4 237.1 185.45 238.7 186.85 238.9 187.05 238.7 187.75 238.45 188 237.1 190.95 226.05 198.75 222.85 205.85 220.35 210 218.3 215.95 215.3 222.6 218.95 229.25 222.65 230.65 229.5 231.8 234.55 230.85 242.35 229.7 254.3 229.7 255.2 229.7 257.95 228.55 265.3 227.65 271.45 227.9 275.15 227.9 276.75 229.5 277.9 231.3 279.05 233.4 278.8 233.85 278.8 236.85 277.9 246.7 274.45 252.65 277.45 256.8 279.5 274.65 286.15 297.35 295.1 302.65 297.4 307.9 299.9 312.05 300.15 316.6 300.35 321.2 297.6 330.6 291.4 342.3 293.25 346.9 294.15 349.85 291.9 352.4 290.05 354.2 285.7 356.05 281.35 360.65 282.5 368.65 284.55 374.4 284.3 L 374.65 284.55 Q 378.3 285.7 384.5 280.85 L 388.85 277 Q 392.75 273.1 391.85 268.95 390.7 264.6 385.65 263 382.65 262.3 380.15 258.4 379.2 257.05 379.65 256.35 380.35 255.65 381.95 256.1 L 384.5 257.25 Q 386.3 259.3 390 260.95 391.85 261.6 395.95 263.2 401.45 265.95 412.7 271.45 M 324.4 166.45 L 334.95 173.8 Q 348.05 182.95 382.45 206.15 412.45 226.3 429.65 238.45 434 241.45 441.8 242.35 L 461.05 244.9 Q 473.7 247.15 480.1 243.75 480.8 243.35 481.25 242.9 481.2919921875 242.837109375 481.35 242.75 478.148828125 163.33203125 425.55 104.3 L 324.85 159.8 Q 319.35 162.8 324.4 166.45 Z"/>
</g>
</defs>
<g transform="matrix(1,0,0,1,0,0)">
<use xlink:href="#l4"/>
</g>
<g transform="matrix(1,0,0,1,0,0)">
<use xlink:href="#l3"/>
</g>
<g transform="matrix(0.7234649658203125,0,0,0.7234649658203125,70.9,229.95)">
<use xlink:href="#l2"/>
</g>
<g transform="matrix(1,0,0,1,0,0)">
<use xlink:href="#l1"/>
</g>
</svg>
