<svg xmlns="http://www.w3.org/2000/svg" xmlns:xlink="http://www.w3.org/1999/xlink" width="100%" height="100%" viewBox="0 0 512 512">
<!-- Vectorization by Rodrigo Polo https://github.com/rodrigopolo/logotipos-politicos -->
<defs>
<g id="l7">
<path fill="#09307C" stroke="none" d="M 446.1 0 L 65.95 0 65.95 460.9 446.1 460.9 446.1 0 Z"/>
</g>
<g id="l6">
<path fill="#0D2797" stroke="none" d="M 65.95 460.9 L 65.95 512 446.1 512 446.1 460.9 65.95 460.9 Z"/>
</g>
<g id="l5">
<path fill="#FFFFFF" stroke="none" d="M 71.15 466.05 L 71.15 506.8 440.7 506.8 440.9 466.05 71.15 466.05 Z"/>
</g>
<g id="l4">
<path fill="#0D2797" stroke="none" d="M 381.5 489.5 Q 381.5 492.65 382.65 494.45 383.8 496.3 386 496.3 387.2 496.3 388 495.85 388.95 495.3 389.85 494.2 L 389.95 494.25 389.7 495.85 394.35 495.85 398.15 473.4 393.2 473.4 391.8 481.8 Q 390.3 479.25 387.65 479.25 384.95 479.25 383.3 482.3 381.5 485.4 381.5 489.5 M 390.25 484.15 Q 390.85 484.95 390.85 486.3 390.85 488.2 390.1 490.25 389.35 492.15 388 492.15 387.25 492.15 386.8 491.45 386.3 490.75 386.3 489.4 386.3 487.05 387.15 485.15 387.9 483.45 388.95 483.45 389.7 483.45 390.25 484.15 M 378.75 479.6 L 373.8 479.6 371 495.85 376 495.85 378.75 479.6 M 374.1 477.75 L 379.05 477.75 379.8 473.4 374.85 473.4 374.1 477.75 M 359.8 479.6 L 355.15 479.6 357.65 495.85 362 495.85 370.1 479.6 364.95 479.6 360.6 489.95 360.55 489.95 359.8 479.6 M 340.1 481.25 Q 338.55 479.25 334.9 479.25 333.2 479.25 332 479.75 330.8 480.1 329.45 481.45 328.1 482.9 327.4 484.75 326.65 486.7 326.65 488.85 326.65 491.95 328.3 494.1 329.85 496.3 333.7 496.3 336.4 496.3 338.1 495.25 339.8 494.15 340.9 491.7 L 336.1 491.15 Q 335.3 492.65 333.85 492.65 331.65 492.65 331.55 489.4 L 341.3 489.4 Q 341.7 487.1 341.7 486.15 341.7 483.15 340.1 481.25 M 331.95 486.35 Q 332.45 484.5 333.15 483.75 333.9 482.9 334.8 482.9 335.65 482.9 336.25 483.6 336.85 484.05 336.85 485.4 L 336.75 486.35 331.95 486.35 M 423.3 490.1 L 418.45 490.1 417.4 495.85 422.35 495.85 423.3 490.1 M 413.1 480.4 Q 411.8 479.25 407.95 479.25 404.5 479.25 403.05 480.55 401.5 481.8 401 484.05 L 405.6 484.75 Q 405.95 483.55 406.5 483.3 406.95 482.9 407.9 482.9 408.75 482.9 409.2 483.3 409.7 483.65 409.7 484.25 L 409.5 485.4 Q 408.4 485.8 406.6 485.95 404.15 486.25 402.8 486.7 401.55 487.05 400.5 488.15 399.5 489.3 399.5 491.5 399.5 493.4 400.6 494.8 401.7 496.3 404.1 496.3 406.55 496.3 408.4 494.05 408.4 494.85 408.65 495.85 L 413.55 495.85 Q 413.15 494.7 413.15 493.65 413.15 492.5 413.8 489 414.45 485.55 414.45 484 414.45 481.65 413.1 480.4 M 407.75 491.95 Q 406.85 492.85 405.85 492.85 405.25 492.85 404.8 492.45 404.35 492 404.35 491.2 404.35 490.45 404.95 489.9 405.7 489.25 408.95 488.6 408.7 490.9 407.75 491.95 M 421.05 473.4 L 420.95 473.65 420.95 474.15 420.15 479.15 419.45 488.85 422.6 488.85 424.6 481.8 Q 425.4 479.35 425.7 477.4 L 426.35 473.4 421.05 473.4 M 159.75 481.45 Q 158.1 479.25 154.65 479.25 152.2 479.25 150.3 480.6 148.5 481.85 147.5 484.15 146.55 486.55 146.55 488.95 146.55 492.05 148.15 494.15 149.85 496.3 153.15 496.3 155.75 496.3 157.7 494.9 159.6 493.5 160.4 491.25 161.3 489.05 161.3 486.65 161.3 483.7 159.75 481.45 M 156.5 486.35 Q 156.5 488.5 155.65 490.3 154.8 492.05 153.45 492.05 152.5 492.05 152 491.15 151.3 490.35 151.3 488.95 151.3 487 152.1 485.3 152.95 483.5 154.45 483.5 155.15 483.5 155.85 484.05 156.5 484.75 156.5 486.35 M 138.85 479.6 L 136.25 494.4 Q 135.9 496.65 135.5 497.15 135.1 497.7 134.25 497.7 L 133.05 497.55 132.3 501.95 Q 134.15 502.55 135.8 502.55 137.65 502.55 138.65 501.7 139.75 500.9 140.2 499.6 140.55 498.6 141.05 495.85 L 143.8 479.6 138.85 479.6 M 139.9 473.4 L 139.2 477.75 144.15 477.75 144.9 473.4 139.9 473.4 M 121.2 481.45 Q 119.9 482.75 119.15 484.75 118.4 486.55 118.4 488.85 118.4 492 120.05 494.1 121.7 496.3 125.45 496.3 128.15 496.3 129.8 495.25 131.55 494.25 132.6 491.7 L 127.85 491.15 Q 126.95 492.65 125.55 492.65 123.55 492.65 123.2 489.4 L 133.1 489.4 Q 133.4 486.8 133.4 486.15 133.4 483.25 131.85 481.25 130.3 479.25 126.7 479.25 124.9 479.25 123.7 479.75 122.6 480.15 121.2 481.45 M 128.55 486.35 L 123.7 486.35 Q 124.1 484.6 124.85 483.75 125.6 482.9 126.5 482.9 127.45 482.9 128.05 483.6 128.6 484.1 128.6 485.4 L 128.55 486.35 M 88.7 486.75 L 85.6 486.75 83.55 493.8 Q 82.65 496.65 82.5 498.15 L 81.8 502.15 87.1 502.15 88 496.4 88.7 486.75 M 99.85 478.75 L 99.9 478.75 100.65 495.85 104.7 495.85 111.3 478.75 111.45 478.75 108.1 495.85 112.7 495.85 116.55 473.4 109.6 473.4 103.95 487.65 103.85 487.65 103.25 473.4 96.55 473.4 92.65 495.85 97.25 495.85 99.85 478.75 M 90.75 479.6 L 85.8 479.6 84.85 485.4 89.75 485.4 90.75 479.6 M 232.05 473.4 L 227.15 473.4 223.35 495.85 228.3 495.85 232.05 473.4 M 240.95 479.6 L 235.95 479.6 233.25 495.85 238.2 495.85 240.95 479.6 M 241.25 477.75 L 241.85 473.4 236.95 473.4 236.3 477.75 241.25 477.75 M 218.95 480.4 Q 217.7 479.25 213.85 479.25 210.35 479.25 208.95 480.55 207.25 481.8 206.85 484.05 L 211.4 484.75 Q 211.85 483.5 212.35 483.3 212.85 482.9 213.7 482.9 214.6 482.9 215.05 483.3 215.6 483.65 215.6 484.25 L 215.4 485.4 Q 214.65 485.7 212.55 485.95 210.05 486.25 208.75 486.7 207.45 487.05 206.35 488.15 205.4 489.3 205.4 491.5 205.4 493.4 206.45 494.8 207.6 496.3 210 496.3 212.45 496.3 214.35 494.05 L 214.45 495.85 219.25 495.85 Q 219 494.7 219 493.65 219 492.7 219.55 489 220.25 485.45 220.25 484 220.25 481.7 218.95 480.4 M 210.7 492.45 Q 210.25 491.95 210.25 491.2 210.25 490.45 210.8 489.9 211.45 489.25 214.85 488.6 214.45 491.05 213.6 491.95 212.75 492.85 211.75 492.85 211.05 492.85 210.7 492.45 M 200.75 480.85 Q 198.95 479.25 195.95 479.25 191.85 479.25 189.6 482.25 187.45 485.05 187.45 489.25 187.45 496.3 194.15 496.3 200.35 496.3 202.05 489.95 L 197.3 489.3 Q 196.4 492.05 194.4 492.05 193.6 492.05 192.9 491.35 192.2 490.65 192.2 489.3 192.2 487.15 193.15 485.35 194.1 483.5 195.95 483.5 197.85 483.5 198.2 485.6 L 202.7 485.35 Q 202.55 482.45 200.75 480.85 M 174.9 479.25 Q 173.8 479.25 172.95 480 172.05 480.85 170.9 482.9 L 170.9 482.85 171.45 479.6 166.8 479.6 164.1 495.85 169 495.85 170.05 489.8 Q 170.55 487 171.45 485.7 172.35 484.45 173.7 484.45 L 174.75 484.5 176.55 479.8 Q 175.75 479.25 174.9 479.25 M 318.6 481.8 Q 317.2 479.25 314.5 479.25 311.85 479.25 310.1 482.3 308.4 485.4 308.4 489.5 308.4 492.65 309.55 494.45 310.75 496.3 312.85 496.3 314.1 496.3 314.95 495.85 315.7 495.35 316.75 494.2 L 316.85 494.25 316.6 495.85 321.15 495.85 325 473.4 320.05 473.4 318.6 481.8 M 313.65 491.45 Q 313.15 490.75 313.15 489.4 313.15 486.95 314 485.15 314.75 483.45 315.85 483.45 316.6 483.45 317.2 484.15 317.75 484.8 317.75 486.3 317.75 488.2 317 490.25 316.25 492.15 314.95 492.15 314.1 492.15 313.65 491.45 M 280.2 489.5 Q 280.2 492.6 281.4 494.45 282.5 496.3 284.7 496.3 286.1 496.3 286.8 495.85 287.75 495.25 288.65 494.2 L 288.7 494.25 288.45 495.85 293.05 495.85 296.9 473.4 291.95 473.4 290.5 481.8 Q 289.2 479.25 286.4 479.25 283.75 479.25 282 482.3 280.2 485.35 280.2 489.5 M 289.05 484.15 Q 289.65 484.8 289.65 486.3 289.65 488.25 288.85 490.25 288.1 492.15 286.8 492.15 286 492.15 285.6 491.45 285.1 490.8 285.1 489.4 285.1 486.85 285.85 485.15 286.65 483.45 287.75 483.45 288.45 483.45 289.05 484.15 M 262.55 488.15 Q 261.7 489.4 261.7 491.5 261.7 493.5 262.75 494.8 263.85 496.3 266.35 496.3 268.7 496.3 270.65 494.05 270.65 495.1 270.75 495.85 L 275.65 495.85 Q 275.3 494.5 275.3 493.65 275.3 492.15 276 489 276.6 485.25 276.6 484 276.6 481.7 275.25 480.4 274.05 479.25 270.15 479.25 266.65 479.25 265.25 480.55 263.55 481.8 263.05 484.05 L 267.7 484.75 Q 268.2 483.5 268.7 483.3 269.15 482.9 270 482.9 270.9 482.9 271.3 483.3 271.9 483.65 271.9 484.25 L 271.7 485.4 Q 271 485.7 268.85 485.95 266.4 486.25 265.05 486.7 263.75 487.05 262.55 488.15 M 268.05 492.85 Q 267.4 492.85 266.95 492.45 266.55 491.95 266.55 491.2 266.55 490.4 267.15 489.9 267.75 489.25 271.2 488.6 270.75 491.05 269.95 491.95 269.05 492.85 268.05 492.85 M 255.4 473.4 L 253.9 481.8 Q 252.5 479.25 249.8 479.25 247.2 479.25 245.4 482.3 243.65 485.3 243.65 489.5 243.65 492.55 244.85 494.45 245.9 496.3 248.2 496.3 249.35 496.3 250.2 495.85 251.2 495.3 252.05 494.2 L 252.1 494.25 251.8 495.85 256.4 495.85 260.3 473.4 255.4 473.4 M 249.25 485.15 Q 250 483.45 251.15 483.45 251.85 483.45 252.45 484.15 253.05 484.9 253.05 486.3 253.05 488.25 252.3 490.25 251.55 492.15 250.2 492.15 249.4 492.15 248.95 491.45 248.45 490.75 248.45 489.4 248.45 487 249.25 485.15 Z"/>
</g>
<g id="l3">
<path fill="#FFFFFF" stroke="none" d="M 312.1 383.35 L 316.25 360.3 246.65 360.3 228.4 460.9 301.5 460.9 301.65 460.55 304.8 443.1 257.9 443.1 261.75 422.1 303.3 422.1 307.5 400.4 265.85 400.4 268.9 383.35 312.1 383.35 M 297.4 328.8 L 292.15 328.8 289.9 345.6 289.85 345.6 285.35 328.8 280 328.8 276.15 357.7 281.45 357.7 283.75 340.9 283.8 340.9 288.3 357.7 299.05 357.7 300.5 353 306.35 353 306.7 357.7 312.2 357.7 309.3 328.8 303.3 328.8 293.85 355.3 297.4 328.8 M 306.05 346.8 L 302.3 346.8 305.45 336.3 306.05 346.8 M 236.4 360.3 L 209.8 360.3 191.55 460.9 218.15 460.9 236.4 360.3 M 238.6 357.7 L 240 353 245.9 353 246.2 357.7 257.2 357.7 258.7 345.95 258.95 345.95 Q 259.75 345.95 260.25 346.5 260.75 347.15 261.75 350.85 L 263.55 357.7 269.5 357.7 Q 267.15 347.7 265.4 345.5 268.3 344.75 269.65 342.3 270.9 339.85 270.9 336.4 270.9 333.35 269.7 331.05 268.35 328.8 265.8 328.8 L 255.4 328.8 251.65 357.15 248.85 328.8 242.75 328.8 232.55 357.7 238.6 357.7 M 245 336.3 L 245.05 336.3 245.65 346.8 241.8 346.8 245 336.3 M 259.45 340.55 L 260.25 334.65 263.05 334.65 Q 264.7 334.65 265.1 335.3 265.6 335.9 265.6 337 265.6 337.8 265.25 338.8 264.8 339.85 263.95 340.1 263.3 340.55 260.5 340.55 L 259.45 340.55 M 193.1 385.4 Q 193.1 378.9 190.85 373.75 188.5 368.4 184.35 365.2 180.05 361.85 175.45 361.1 170.55 360.3 163.65 360.3 L 124.4 360.3 106.25 460.55 106.15 460.9 177.85 460.9 178.3 460.55 Q 179.85 459.25 181.6 457.25 190.2 446.7 190.3 434.05 190.55 416.7 176.9 411.45 L 176.9 411.15 Q 185.3 407.95 189.2 400.85 193 393.65 193.1 385.4 M 146.75 382 L 157.9 382 Q 164.15 382 166.25 384.2 168.45 386.45 168.3 390.35 168.3 393.7 166.25 396.95 164.45 400.1 161.15 401.15 158 402.2 152.1 402.2 L 143.2 402.2 146.75 382 M 162.6 425.2 Q 164.75 427.65 164.65 432 164.5 444.5 149.6 444.5 L 135.5 444.5 139.5 422.65 153.8 422.65 Q 160.55 422.65 162.6 425.2 M 181.35 345.6 L 176.9 328.8 171.55 328.8 167.7 357.7 172.95 357.7 175.2 340.9 175.25 340.9 179.75 357.7 185 357.7 188.95 328.8 183.65 328.8 181.4 345.6 181.35 345.6 M 222.5 328.8 L 221.5 335.9 227.2 335.9 224.3 357.7 229.9 357.7 232.8 335.9 238.7 335.9 239.55 328.8 222.5 328.8 M 203.2 345.4 L 203.95 339.6 195.15 339.6 195.7 335.05 204.9 335.05 205.75 328.8 190.9 328.8 187.05 357.7 202.6 357.7 203.55 351.1 193.6 351.1 194.35 345.4 203.2 345.4 M 209 329.5 Q 207.45 330.6 206.45 332.65 205.5 334.75 205.5 337.15 205.5 339.9 206.65 341.8 207.6 343.65 211.65 345.95 213.55 347.15 213.85 347.75 214.35 348.55 214.35 349.45 214.35 350.6 213.6 351.5 212.9 352.45 211.55 352.45 210.25 352.45 209.5 351.4 208.75 350.15 208.75 347.5 L 203.55 348.05 203.55 348.7 Q 203.55 352.95 205.35 355.55 207.1 358.2 211.4 358.2 214.35 358.2 216.15 356.8 217.75 355.4 218.7 353.2 219.55 351.1 219.55 348.45 219.55 345.9 218.8 344 218.1 342.4 216.7 341.1 215.2 339.85 213.35 338.75 211.75 337.85 211.25 337.15 210.8 336.55 210.8 335.85 210.8 334.9 211.35 334.25 211.95 333.5 212.9 333.5 215.4 333.5 215.6 337.3 L 220.8 336.8 Q 220.25 328.35 213 328.35 210.75 328.35 209 329.5 M 152.75 328.8 L 147.1 328.8 143.2 357.7 148.9 357.7 152.75 328.8 M 159.25 339.6 L 159.75 335.05 169 335.05 169.75 328.8 154.9 328.8 151.05 357.7 166.7 357.7 167.55 351.1 157.55 351.1 158.4 345.4 167.25 345.4 168 339.6 159.25 339.6 M 139.8 329.05 Q 138.6 328.8 137.2 328.8 L 128.85 328.8 125 357.7 136.2 357.7 Q 139.5 357.7 141.3 354.95 143.05 352.15 143.05 348.65 143.05 343.95 140.2 342.55 L 140.2 342.5 Q 142.05 341.6 142.75 339.7 143.55 337.85 143.55 335.6 143.55 333.95 143.05 332.45 142.55 330.95 141.65 330.2 140.55 329.2 139.8 329.05 M 137.85 335.2 Q 138.3 335.85 138.3 336.9 138.3 337.6 138 338.7 137.5 339.55 136.7 339.8 136.2 340.1 134.9 340.1 L 132.95 340.1 133.65 334.65 136.05 334.65 Q 137.4 334.65 137.85 335.2 M 132.2 345.55 L 135.25 345.55 Q 136.7 345.55 137.2 346.25 137.65 346.95 137.65 348.1 137.65 351.45 134.45 351.45 L 131.4 351.45 132.2 345.55 M 349.25 360.3 L 324.6 360.3 306.35 460.55 306.25 460.9 331.05 460.9 331.15 460.55 341.1 405.2 341.3 405.2 359.55 460.9 387.55 460.9 387.65 460.55 405.9 360.3 381.1 360.3 369.7 422.7 369.45 422.7 349.25 360.3 M 340.35 328.8 L 334.65 328.8 330.75 357.7 336.5 357.7 340.35 328.8 M 331.6 338.3 Q 331.15 333.75 329.3 331.1 327.2 328.35 323.85 328.35 320.5 328.35 318.1 330.75 315.8 333.1 314.55 337.5 313.3 341.7 313.3 345.95 313.3 351.6 315.4 354.9 317.45 358.2 321.35 358.2 325.1 358.2 327.5 355.1 329.85 352.15 330.75 347.55 L 325.4 346.25 Q 324.65 349.2 323.85 350.3 322.95 351.6 321.7 351.6 320.35 351.6 319.5 350.2 318.85 348.7 318.85 346.5 318.85 343.6 319.5 340.8 320.3 337.7 321.4 336.4 322.6 334.9 323.85 334.9 324.8 334.9 325.55 335.95 326.35 336.9 326.35 339.05 L 326.35 339.2 331.6 338.3 M 344.2 331.05 Q 342.55 332.85 341.55 335.15 340.5 337.7 339.9 340.55 339.35 343.2 339.35 346.2 339.35 351.85 341.55 355 343.8 358.2 347.6 358.2 349.4 358.2 350.9 357.55 352.45 356.9 354 355 355.75 353 356.7 350.4 357.7 347.7 358.1 345.05 358.4 342.9 358.4 340.55 358.4 335.3 356.45 331.9 354.55 328.35 350.4 328.35 348.9 328.35 347.25 328.8 345.75 329.35 344.2 331.05 M 344.85 346.4 Q 344.85 344.45 345.45 341.45 346 338.6 347.1 336.7 348.2 334.9 349.8 334.9 351.15 334.9 352.05 336.3 352.9 337.75 352.9 340.55 352.9 341.75 352.4 344.7 351.95 347.65 350.75 349.65 349.65 351.6 348 351.6 346.55 351.6 345.65 350.1 344.85 348.65 344.85 346.4 M 403.8 328.8 L 398.15 328.8 394.3 357.7 408.9 357.7 409.85 350.6 400.85 350.6 403.8 328.8 M 370.8 345.6 L 366.3 328.8 361 328.8 357.15 357.7 362.4 357.7 364.65 340.9 364.7 340.9 369.15 357.7 379.95 357.7 381.5 353 387.3 353 387.55 357.7 393.1 357.7 390.2 328.8 384.2 328.8 374.85 355.3 378.35 328.8 373.1 328.8 370.85 345.6 370.8 345.6 M 387 346.8 L 383.3 346.8 386.4 336.3 387 346.8 Z"/>
</g>
<g id="l2">
<path fill="#021787" stroke="none" d="M 330.2 139.55 Q 329.45 133.6 327.1 130.3 L 327.1 130.25 Q 326.8 129.75 326.15 129.15 319.2 123.15 313.05 124.4 309.75 124.8 306.25 127.15 L 306.1 126.95 Q 303.65 122.4 299.75 118.45 L 299.6 118.25 Q 291.15 109.45 281.6 103.6 271.4 97.25 262.55 96 256.4 94 249.7 94.75 L 249.5 94.75 231.05 90.1 Q 224.1 87.45 217.4 91.3 219.25 75.85 215.6 65.75 212.5 49.95 211.9 35.2 216.15 9.45 201.05 0.35 L 200.6 0 182.2 0 182.05 0.25 177.2 1.35 Q 175.2 1.8 174 3.5 172.95 5.35 173.35 7.3 L 175.8 18.85 Q 174.85 22.8 174.6 28.05 L 174.6 31.6 Q 171.4 27.75 167.5 25.7 L 167.45 25.6 Q 163.35 23.35 157.6 24 155.1 24.25 147.05 26.2 L 146.95 26.2 Q 146.2 26.45 145.5 26.95 141.15 29.75 140.05 32.1 137.45 35.95 140.6 41.8 L 140.7 41.85 140.85 42.1 140.85 42.2 144.3 46.9 Q 143.6 52.25 144.65 56.5 L 144.65 56.45 Q 145.15 58.45 146.2 61.3 L 146.2 61.35 148.35 66.3 Q 149 67.75 150.3 68.55 L 150.15 68.5 Q 150.95 69.3 151.3 71.35 151.7 74.75 150.9 78.85 L 150.8 79.1 150.8 79.25 150.55 81.45 149.6 81.15 149.55 81.15 143.5 80.15 142.25 80.05 Q 134.6 80.65 132.2 87.45 L 132.2 87.4 Q 130.4 91.65 132 99.1 L 136 107.55 136.65 108.5 137.2 110.5 Q 137.75 112.85 138.3 117.5 139.15 124.45 142.15 146.55 138.5 151.85 136 156.1 132.45 162.3 130.2 168.5 L 130.1 168.65 Q 127.7 175.85 128.85 181.35 129.5 186.1 133.55 191.5 144.8 234.35 144.4 283.8 L 144.45 284.65 Q 145.75 292.35 142.9 297.25 L 142.45 297.8 142.4 297.9 142.4 297.95 Q 141.5 299.3 140.05 300.7 138.7 302 138.55 303.85 L 128.4 319.35 Q 127.4 320.85 127.65 322.75 127.9 324.5 129.35 325.8 130.7 327 132.6 327 L 240.95 327 Q 242.2 327 243.3 326.5 L 243.25 326.5 Q 244.35 325.9 245.1 324.85 252 314.45 257.55 307.75 263.8 299.95 270 294.5 L 270.75 293.65 290 265.7 290.15 265.7 290.25 265.3 301.1 245.15 301.1 245.2 325.3 202 Q 336.55 187.65 332.7 173 L 331.05 156.6 330.2 139.55 M 242.75 141.55 Q 242.85 141.05 242.85 140.45 243 139.75 243.3 139.25 L 243.35 139.15 Q 246.95 140.7 250.75 141.2 255.05 141.7 258.45 140.5 262.7 141.1 269.1 147.15 L 269.2 147.2 269.4 147.4 Q 276.4 153.25 283.85 153.7 282.65 155.55 282.05 156.9 279.1 161.35 276.65 167.15 L 276.65 167.2 Q 274.5 172.4 273.3 178.1 269.85 182.1 267.45 185.8 264.9 189.95 262.55 195.2 L 262.3 195.65 261.45 198.3 260.9 198.7 Q 259.65 198.35 257.35 196.3 254.55 193.9 250.45 192.1 247.65 190.75 243.6 189.55 L 243.5 189.55 243.4 189.5 243.35 189.5 220 183.75 Q 219.4 183.55 218.8 183.55 L 218.45 183.55 Q 219.8 180.65 221.2 176.4 222.8 171.75 223.1 168.7 223.85 166.45 224.05 164 L 224.05 163.9 Q 224.3 161.05 223.6 158.75 L 223.75 158.75 224.8 158.6 224.85 158.6 Q 229 157.1 230.8 155.95 233.5 154.4 235.9 151.6 L 235.95 151.5 239.4 147.6 239.5 147.45 Q 242.05 144.25 242.75 141.55 Z"/>
</g>
<g id="l1">
<path fill="#0D2797" stroke="none" d="M 324.4 132 L 324 131.6 Q 318.45 126.7 313.55 127.65 L 313.45 127.65 Q 309.55 128.15 305 132.35 304.05 130 303.2 128.5 300.85 124.2 297.4 120.7 289 111.95 279.9 106.4 270.55 100.55 262.05 99.25 L 261.7 99.2 Q 256.05 97.3 249.75 98 L 248.7 97.95 230.2 93.2 Q 223.65 90.85 217.75 95 L 217.45 95.2 212.55 100.6 Q 217 79.1 212.4 66.65 209.15 49.25 208.65 35 212.55 11.45 199.25 3.05 196.2 0.75 193.85 0 L 187.7 0 Q 185.5 0.85 183.9 3.15 L 177.85 4.55 Q 177.2 4.65 176.9 5.3 176.4 5.9 176.55 6.6 L 179.1 18.9 Q 178.15 22.8 177.8 28.15 177.7 33.05 178 36.6 L 178.05 36.9 Q 178.45 38.6 178.45 41.75 L 178.35 46.9 177.75 43.5 Q 175.4 37.7 172.35 34.1 169.35 30.35 165.9 28.5 162.65 26.75 157.9 27.25 155.2 27.5 147.85 29.4 L 147.3 29.65 Q 143.9 31.95 142.95 33.7 141.3 36.3 143.5 40.15 L 143.55 40.25 147.65 46.15 Q 146.9 51.8 147.85 55.75 148.25 57.45 149.25 60 L 149.25 60.05 151.35 65 Q 151.7 65.6 152.1 65.8 154 67.25 154.55 70.85 155.15 74.9 154.15 79.6 L 154.05 79.65 153 86.25 Q 152.85 86.1 152.5 86 152.25 85.8 149.35 84.6 L 149 84.4 142.5 83.35 Q 136.9 83.7 135.25 88.5 133.9 92.25 135.25 98.35 L 135.35 98.75 138.95 106.1 139.25 106.45 Q 139.9 107.35 140.4 109.75 140.8 111.55 141.55 117.2 143.35 131.15 145.65 147.4 141.6 153 138.9 157.75 135.35 163.95 133.3 169.55 L 133.3 169.6 Q 131.05 175.9 132 180.8 132.85 185.15 136.55 190.05 148.05 233.8 147.65 283.85 L 147.65 284.15 Q 149.15 293.25 145.7 299 L 145.65 299 145.2 299.6 145.15 299.75 Q 143.6 301.8 142.25 303.1 141.85 303.5 141.85 304.2 L 141.85 304.7 131.15 321.1 Q 130.85 321.55 130.85 322.3 131 322.95 131.45 323.35 132 323.8 132.6 323.8 L 240.95 323.8 Q 241.3 323.8 241.75 323.55 242.05 323.4 242.3 323 249.05 313.05 254.9 305.65 261.75 297.35 267.85 292.1 L 268.15 291.8 287.35 263.85 322.55 200.15 Q 333.05 186.95 329.55 173.6 L 327.75 156.7 327.7 156.45 327.55 149.8 Q 327.05 140.65 326.9 140 L 326.9 139.95 Q 326.35 135.05 324.4 132 M 236.95 145.4 Q 238.95 142.95 239.55 140.75 L 239.55 140.3 Q 239.7 138.9 240.4 137.7 241.15 136.2 242.2 135.4 L 242.25 135.4 242.45 135.2 242.75 135.1 243.5 135.55 Q 247.1 137.45 251.15 137.95 254.95 138.3 258.1 137.2 263.4 137.15 271.3 144.8 L 271.45 144.85 Q 280.9 152.7 290.65 149.25 L 291.25 149.45 Q 290.65 150.05 289.9 150.95 287.15 154.15 284.85 158.65 281.95 163 279.75 168.4 277.45 173.95 276.35 179.65 272.6 183.7 270.25 187.6 267.55 191.75 265.55 196.7 L 265.4 196.75 Q 264.6 198.95 264.45 200 262.5 201.85 261.3 202.1 259.05 202.1 255.3 198.8 252.5 196.6 249.1 195.05 246.55 193.85 242.6 192.7 L 242.55 192.65 219.25 186.9 218.8 186.85 Q 216.4 186.95 214.8 186.6 L 212.9 186.6 214.1 185 215.4 182.4 Q 216.8 179.15 218.05 175.4 219.45 171.35 219.95 168 220.65 165.65 220.8 163.7 220.9 161.2 220.25 159.5 219.95 157.8 220.25 156.7 220.55 155.9 221.5 155.6 L 223.85 155.4 Q 227.45 154.15 229.2 153.1 231.5 151.85 233.55 149.25 L 236.9 145.4 236.95 145.4 Z"/>
</g>
<g id="l0">
<path fill="#FDB818" stroke="none" d="M 170.3 193.7 Q 166.7 194 165.65 197.1 164.45 200.65 165.7 206.35 L 169.75 214.65 Q 171 215.95 171.9 220.3 172.65 223.35 173.35 229.45 174.3 237.45 177.5 260.55 L 181.2 250.3 190.8 230.6 Q 191.15 217.75 187 205.25 L 187 205.15 Q 186.05 201.95 185.55 200.9 184.85 199.4 183.4 198.2 183.3 198.2 183.3 198.1 L 180.55 196.55 180.55 196.45 177.1 194.95 170.3 193.7 M 208.55 143.3 Q 206.1 137.4 202.75 133.35 199.75 129.6 196.35 127.8 193.3 126.3 189.35 126.65 185.6 127.05 178.1 129.1 175.25 131.1 174.5 132.2 173.95 133.75 175.15 135.8 L 180.45 143.4 Q 181 144.15 180.75 144.95 179.7 151.1 180.75 155.65 181.15 157.1 182.25 160.15 L 182.3 160.2 184.45 165.4 Q 187.85 167.8 188.85 174 189.65 179.35 188.3 185.9 L 186.8 195.65 Q 188.35 197.15 189.35 199.05 190.1 200.5 191 204.05 194.1 213.3 194.75 222.4 L 200.75 210.05 Q 210.2 187.2 210.95 157.6 L 208.55 143.3 M 365.85 252.65 Q 366.25 255.4 365.5 257.65 L 365.5 257.55 Q 364.75 259.7 362.95 261.65 363.55 266.95 365.8 271 368.05 275 371.9 278.15 381.5 285.05 386.2 280.7 L 387.5 276.9 386.65 257.75 Q 386 253.05 384.4 250.2 379.45 246.25 375.3 246.6 371.1 247.4 365.85 252.65 M 358.75 245.55 Q 356.15 240.9 352.45 237.05 342.9 227.1 332.35 220.6 321.95 214.25 312.6 212.65 L 311.6 212.55 Q 305.65 210.5 298.85 211.3 L 296.45 211.15 274 205.45 273.8 205.35 Q 268 203.3 262.9 206.75 L 251.85 218.75 215.5 262.95 204.25 277.2 Q 201.7 281.7 201.55 286.65 201.55 287 201.4 287.2 L 199.05 294.5 195.4 318.45 Q 195.3 319.15 194.65 319.75 193.85 320.2 193.1 320.05 192.2 320 191.7 319.25 191.2 318.6 191.35 317.75 L 195.1 293.35 197.4 286.2 Q 197.6 280.3 200.65 274.95 L 212.15 260.35 212.2 260.3 248.4 216.45 Q 255.7 186.95 249.9 170.9 L 249.85 170.65 Q 245.95 150.3 245.2 131.75 L 245.25 131.3 Q 249.5 106.1 235.7 97.1 L 235.55 96.95 Q 231.3 93.65 228 93.55 L 227.9 93.55 Q 224.95 93.55 222.85 96.7 222.5 97.4 221.6 97.7 L 215.6 99 218.4 112.2 Q 218.4 112.95 218.3 113.15 217.05 117.75 216.85 123.8 216.7 128.95 217.05 133.3 217.65 136.1 217.45 139.95 217.4 144.75 217.45 145.75 217.75 149.15 217.4 151.25 216.95 154.7 215.2 158.05 214.25 188.25 204.55 211.7 L 194.8 231.8 194.7 232.15 184.9 252.1 180.15 265.4 Q 180.1 265.7 179.65 266.15 L 177.9 267.95 Q 173.05 274.65 169.65 280.55 165.5 287.75 163.3 294 161.05 300.25 161.95 305.25 162.8 309.9 166.8 314.85 L 167.25 315.65 Q 181.25 368.25 180.7 429 182.65 441.8 177.6 449.45 L 177.6 449.5 162.35 472.65 286.85 472.65 Q 294.95 460.7 301.5 452.55 309.35 442.8 317.15 436 L 339.85 402.95 381.9 327 382.2 326.7 Q 393.45 312.6 389.7 298.35 L 389.7 298 388.25 284.5 Q 381.7 290.3 369.4 281.55 L 369.25 281.5 Q 364.7 277.6 362.1 273.05 360.05 269.3 359.25 264.85 L 358.1 265.5 Q 352.95 269.05 349.7 273.05 346.8 276.45 344.25 281.5 L 344.1 281.7 Q 340.65 286.85 338.2 292.8 335.5 299 334.3 306.1 334.1 306.7 333.75 307.1 329.4 311.75 326.45 316.3 323.55 321.2 321.15 326.7 L 319.9 330.4 319.85 331.3 Q 319.6 332.1 318.8 332.55 L 318.15 332.8 Q 315.1 335.5 312.8 335.65 308.7 336.25 302.35 330.8 299.75 328.5 296.05 326.8 292.8 325.35 288.8 324.3 L 261.4 317.45 Q 258.8 317.45 256.15 317.05 251.35 317.05 250.75 314.6 249.35 312.6 252.35 308.95 L 253.7 306.2 Q 255.25 302.6 256.75 298.3 258.4 292.95 258.75 290 L 258.9 289.6 Q 259.55 286.9 259.7 285.3 259.9 283.45 259.35 281.85 259.25 281.85 259.25 281.5 258.5 278 259.35 275.85 260.4 272.6 263.9 271.9 L 266.45 271.6 Q 269.7 270.55 271.85 269.4 274 268.05 275.95 265.75 L 275.95 265.7 279.9 261.15 280.05 261 Q 281.7 258.8 282.25 257.2 282.4 255.1 283.55 252.65 284.9 249.95 287.05 248.45 L 286.95 248.45 288 247.8 Q 289.9 246.3 293.15 248.35 296.65 250.15 300.6 250.55 304.5 251 307.3 249.9 307.6 249.7 307.95 249.7 315.75 248.95 327.25 259.9 336.55 267.6 346.25 264.4 L 346.45 264.35 Q 346.75 264.25 349.15 264.4 351.3 264.2 354.35 262.65 L 354.6 262.45 355.95 261.95 357.5 260.7 Q 358.75 259.5 359.6 259.1 360.9 257.75 361.55 256.25 362.05 254.75 361.6 252.6 L 361.55 252.4 Q 360.75 249.05 358.75 245.55 Z"/>
</g>
</defs>
<g transform="matrix(1,0,0,1,0,0)">
<use xlink:href="#l7"/>
</g>
<g transform="matrix(1,0,0,1,0,0)">
<use xlink:href="#l6"/>
</g>
<g transform="matrix(1,0,0,1,0,0)">
<use xlink:href="#l5"/>
</g>
<g transform="matrix(1,0,0,1,0,0)">
<use xlink:href="#l4"/>
</g>
<g transform="matrix(1,0,0,1,0,0)">
<use xlink:href="#l3"/>
</g>
<g transform="matrix(1,0,0,1,0,0)">
<use xlink:href="#l2"/>
</g>
<g transform="matrix(1,0,0,1,0,0)">
<use xlink:href="#l1"/>
</g>
<g transform="matrix(0.8367767333984375,0,0,0.8368682861328125,-0.05,-75.3)">
<use xlink:href="#l0"/>
</g>
</svg>
