<svg xmlns="http://www.w3.org/2000/svg" xmlns:xlink="http://www.w3.org/1999/xlink" width="100%" height="100%" viewBox="0 0 512 512">
<!-- Vectorization by Rodrigo Polo https://github.com/rodrigopolo/logotipos-politicos -->
<defs>
<g id="l3">
<path fill="#0BA3E2" stroke="none" d="M 454.4 25.6 Q 454.4 15.1 446.9 7.5 439.4 0.05 428.8 0.05 L 83.2 0.05 Q 72.6 0.05 65.1 7.5 57.6 15.05 57.6 25.6 L 57.6 486.45 Q 57.6 497.05 65.1 504.6 72.55 512 83.2 512 L 428.8 512 Q 439.4 512 446.9 504.6 454.4 497 454.4 486.45 L 454.4 25.6 Z"/>
</g>
<g id="l2">
<path fill="#FFFFFF" stroke="none" d="M 441.85 12.6 Q 436.4 7.15 428.8 7.15 L 83.2 7.15 Q 75.5 7.15 70.1 12.6 64.7 17.95 64.7 25.6 L 64.7 486.45 Q 64.7 494.15 70.1 499.55 75.5 505 83.2 505 L 428.8 505 Q 436.4 505 441.85 499.55 447.25 494.15 447.25 486.45 L 447.25 25.6 Q 447.25 17.95 441.85 12.6 Z"/>
</g>
<g id="l1">
<path fill="#0BA3E2" stroke="none" d="M 380.05 456 Q 377.75 456 376.25 457.25 374.7 458.5 374.7 460.55 L 374.7 460.6 Q 374.7 462.55 376.2 463.7 377.15 464.35 379.35 465.05 381.15 465.55 381.75 465.85 382.75 466.4 382.75 467.1 L 382.75 467.25 Q 382.75 467.95 382.2 468.4 381.4 468.85 380.4 468.85 377.9 468.85 375.5 467 L 373.9 469.3 Q 376.8 471.5 380.35 471.5 382.85 471.5 384.25 470.35 385.85 469.1 385.85 466.8 385.85 464.95 384.4 463.8 383.35 463.05 381.2 462.4 379.35 461.8 378.85 461.55 377.85 461 377.85 460.25 377.85 459.55 378.45 459.15 379 458.7 379.9 458.7 381.8 458.7 384.2 460.15 L 385.55 457.7 Q 383 456 380.05 456 M 329.6 458.25 Q 327.3 460.55 327.3 463.8 327.3 467.1 329.6 469.35 331.85 471.6 335.25 471.6 338.75 471.6 341.05 469.3 343.3 467 343.3 463.75 343.3 460.5 341.05 458.25 338.75 455.95 335.35 455.95 331.9 455.95 329.6 458.25 M 332.05 467.25 Q 330.75 465.8 330.75 463.75 330.75 461.7 331.9 460.35 333.2 458.95 335.25 458.95 337.2 458.95 338.6 460.35 339.85 461.7 339.85 463.8 339.85 465.85 338.65 467.25 337.35 468.6 335.35 468.6 333.35 468.6 332.05 467.25 M 357.2 463.75 Q 357.2 467.25 359.4 469.45 361.6 471.6 364.9 471.6 368.65 471.6 371.05 468.75 L 369 467 Q 367.2 468.75 364.9 468.75 363.2 468.75 362.1 467.8 360.95 466.8 360.7 464.95 L 371.65 464.95 371.7 464.05 Q 371.7 460.55 369.95 458.35 367.95 455.95 364.5 455.95 361.35 455.95 359.3 458.25 357.2 460.5 357.2 463.75 M 360.6 462.7 Q 360.85 460.9 361.9 459.85 362.95 458.8 364.5 458.8 366.15 458.8 367.15 459.9 368.1 460.9 368.35 462.7 L 360.6 462.7 M 350.2 456.25 L 346.8 456.25 346.8 471.3 350.2 471.3 350.2 465.5 Q 350.2 462.65 351.7 461.1 353 459.65 355.35 459.65 L 355.55 459.65 355.55 455.95 Q 351.75 455.9 350.2 459.65 L 350.2 456.25 M 148.2 453.95 L 151.85 453.95 151.85 450.7 148.2 450.7 148.2 453.95 M 145.6 451.35 L 141.9 451.35 135.85 466.65 129.85 451.35 126 451.35 134.3 471.4 137.35 471.4 145.6 451.35 M 151.75 456.25 L 148.3 456.25 148.3 471.3 151.75 471.3 151.75 456.25 M 230.5 468.6 Q 228.6 468.6 227.25 467.25 226 465.85 226 463.75 226 461.75 227.2 460.35 228.5 458.95 230.3 458.95 232.55 458.95 234.2 460.85 L 236.3 458.55 Q 233.95 455.95 230.35 455.95 227.05 455.95 224.75 458.3 222.55 460.55 222.55 463.8 222.55 467.1 224.75 469.35 227 471.6 230.3 471.6 232.3 471.6 233.9 470.85 235.15 470.25 236.5 468.75 L 234.35 466.75 Q 232.55 468.6 230.5 468.6 M 174.1 456.25 L 170.6 456.25 170.6 471.3 174.1 471.3 174.1 456.25 M 162.75 465.85 Q 163.75 466.4 163.75 467.1 L 163.75 467.25 Q 163.75 467.95 163.2 468.4 162.4 468.85 161.45 468.85 158.9 468.85 156.5 467 L 155 469.3 Q 157.8 471.5 161.35 471.5 163.9 471.5 165.35 470.35 166.95 469.1 166.95 466.8 166.95 464.95 165.4 463.8 164.4 463.05 162.25 462.4 160.45 461.85 159.95 461.55 158.9 461 158.9 460.25 158.9 459.55 159.45 459.15 160 458.7 161 458.7 162.8 458.7 165.25 460.15 L 166.55 457.7 Q 164.1 456 161.05 456 158.8 456 157.3 457.25 155.7 458.5 155.7 460.55 L 155.7 460.6 Q 155.7 462.5 157.25 463.7 158.2 464.35 160.35 465.05 162.15 465.55 162.75 465.85 M 174.15 453.95 L 174.15 450.7 170.45 450.7 170.45 453.95 174.15 453.95 M 191.5 469.3 Q 193.7 467 193.7 463.75 193.7 460.5 191.5 458.25 189.15 455.95 185.7 455.95 182.3 455.95 180.05 458.25 177.75 460.55 177.75 463.8 177.75 467.1 180.05 469.35 182.25 471.6 185.65 471.6 189.15 471.6 191.5 469.3 M 189.05 460.35 Q 190.3 461.7 190.3 463.8 190.3 465.85 189.1 467.25 187.8 468.6 185.7 468.6 183.8 468.6 182.5 467.25 181.2 465.8 181.2 463.75 181.2 461.7 182.35 460.35 183.65 458.95 185.65 458.95 187.65 458.95 189.05 460.35 M 187.05 454.35 L 190.5 451.05 187.45 449.65 184.4 454.35 187.05 454.35 M 200.65 456.25 L 197.25 456.25 197.25 471.3 200.65 471.3 200.65 462.8 Q 200.65 461.1 201.65 460.05 202.55 459.1 204.05 459.1 205.6 459.1 206.4 460.05 207.2 460.95 207.2 462.7 L 207.2 471.3 210.65 471.3 210.65 461.7 Q 210.65 459.05 209.3 457.5 207.8 455.95 205.4 455.95 202.5 455.95 200.65 458.55 L 200.65 456.25 M 298.55 451.35 L 292.5 466.65 286.55 451.35 282.65 451.35 290.95 471.4 294 471.4 302.3 451.35 298.55 451.35 M 311.55 459.95 Q 312.5 460.8 312.5 462.3 L 312.5 462.7 Q 310.55 462.1 308.4 462.1 305.55 462.1 304 463.25 302.25 464.5 302.25 466.9 L 302.25 467 Q 302.25 469 303.9 470.4 305.45 471.6 307.6 471.6 310.7 471.6 312.5 469.4 L 312.5 471.3 315.85 471.3 315.85 462.4 Q 315.85 459.3 314.25 457.7 312.6 456 309.3 456 306.5 456 303.55 457.25 L 304.55 460.05 Q 306.8 459.1 308.8 459.1 310.65 459.1 311.55 459.95 M 306.55 468.4 Q 305.7 467.8 305.7 466.8 L 305.7 466.7 Q 305.7 465.6 306.6 464.95 307.6 464.3 309.1 464.3 311.15 464.3 312.55 464.9 L 312.55 465.85 Q 312.55 467.25 311.45 468.1 310.3 469 308.55 469 307.25 469 306.55 468.4 M 323.65 450.5 L 320.15 450.5 320.15 471.3 323.65 471.3 323.65 450.5 M 254.35 463.75 Q 254.35 460.5 252.05 458.25 249.85 455.95 246.35 455.95 242.9 455.95 240.65 458.25 238.35 460.6 238.35 463.8 238.35 467.05 240.65 469.35 242.9 471.6 246.35 471.6 249.75 471.6 252.05 469.3 254.35 467 254.35 463.75 M 250.9 463.8 Q 250.9 465.85 249.65 467.25 248.4 468.6 246.35 468.6 244.45 468.6 243.1 467.25 241.8 465.75 241.8 463.75 241.8 461.7 243.05 460.35 244.3 458.95 246.35 458.95 248.25 458.95 249.6 460.35 250.9 461.75 250.9 463.8 M 269.85 457.5 Q 268.55 455.95 265.95 455.95 263 455.95 261.3 458.55 L 261.3 456.25 257.8 456.25 257.8 471.3 261.3 471.3 261.3 462.8 Q 261.3 461.05 262.2 460.05 263.15 459.1 264.6 459.1 266.2 459.1 267.05 460.05 267.85 461 267.85 462.7 L 267.85 471.3 271.3 471.3 271.3 461.7 Q 271.3 459.15 269.85 457.5 M 268.2 332.4 L 237.45 332.4 277.7 434.95 303.25 434.95 343.55 332.4 313.3 332.4 290.8 396.8 268.2 332.4 M 227.25 332.45 L 199.3 332.45 199.3 434.95 227.25 434.95 227.25 332.45 M 115.25 332.45 L 84.5 332.45 124.75 434.9 150.25 434.9 190.5 332.45 160.3 332.45 137.75 396.8 115.25 332.45 M 385.2 332.45 L 358.65 332.45 316.35 434.95 345.3 434.95 352.4 416.8 390.7 416.8 398 434.95 427.45 434.95 385.2 332.45 M 371.65 365.9 L 382.75 394.8 360.45 394.8 371.65 365.9 M 352.95 56.85 Q 339.4 51.5 324.6 51.4 309.9 51.5 296.25 56.85 282.1 62.6 271.4 73.2 L 262.55 82.7 253.7 73.2 Q 242.95 62.55 228.75 56.85 215.25 51.5 200.5 51.4 185.7 51.5 172.2 56.85 158.15 62.5 147.3 73.2 136.45 83.95 130.75 97.9 125.3 111.25 125.3 125.9 L 125.3 129.75 Q 125.4 142.85 127.75 153.3 131.75 170.95 143.35 190.75 157.9 215.35 184.05 241.9 215.7 273.85 262.5 307.1 L 262.55 307.1 Q 309.35 273.85 340.95 241.9 367.25 215.3 381.75 190.75 393.35 170.95 397.35 153.3 399.75 143.1 399.9 129.75 L 399.8 125.9 Q 399.8 111.2 394.3 97.9 388.65 84 377.8 73.2 367.05 62.55 352.95 56.85 Z"/>
</g>
<g id="l0">
<path fill="#FFFFFF" stroke="none" d="M 240.75 113.4 Q 235.2 122.5 237.65 132.75 240.2 143.05 249.2 148.6 258.25 154.2 268.5 151.65 278.85 149.2 284.4 140.1 289.9 131.1 287.45 120.8 285 110.5 275.95 104.95 266.85 99.45 256.6 101.85 246.25 104.35 240.75 113.4 M 371.65 127.55 Q 384 122.1 399.3 116.35 L 401.15 116.35 401.15 100.2 395.4 100.2 Q 304.65 126.4 263.3 194.25 254.4 208.8 247.2 226.15 231.85 153.1 199.6 99.85 192.5 88 184.75 77.65 176.7 66.7 168.7 58.3 L 139.55 58.3 139.5 82.15 142.75 85.05 Q 145.7 87.7 146.8 88.95 178.6 123.65 195.9 175.8 209.35 216.35 214.85 270.85 L 214.8 314.05 262.55 314.05 262.55 307.65 Q 267.6 245.9 291.6 201.8 319.65 150.6 371.65 127.55 Z"/>
</g>
</defs>
<g transform="matrix(1,0,0,1,0,0)">
<use xlink:href="#l3"/>
</g>
<g transform="matrix(1,0,0,1,0,0)">
<use xlink:href="#l2"/>
</g>
<g transform="matrix(1,0,0,1,0,0)">
<use xlink:href="#l1"/>
</g>
<g transform="matrix(1,0,0,1,0,0)">
<use xlink:href="#l0"/>
</g>
</svg>
