<svg xmlns="http://www.w3.org/2000/svg" xmlns:xlink="http://www.w3.org/1999/xlink" width="100%" height="100%" viewBox="0 0 512 512">
<!-- Vectorization by Rodrigo Polo https://github.com/rodrigopolo/logotipos-politicos -->
<defs>
<g id="l1">
<path fill="#1900FC" stroke="none" d="M 476.2 69.2 Q 448.5 19.45 392.1 3.65 343.05 -10.1 293.1 27.7 277.5 39.4 263.55 55 L 252.75 68.05 Q 237.65 46.5 212.65 27.7 162.45 -10.1 113.4 3.65 57.25 19.45 29.55 69.2 3.85 115.5 14.9 165.9 19.9 204.4 52 257.8 116.4 364.85 252.75 440.45 389.15 364.6 453.55 257.8 485.85 204.2 490.65 165.9 501.9 115.7 476.2 69.2 Z"/>
<path fill="#1900FF" stroke="none" d="M 399.2 433.8 L 399.2 510.85 414.8 510.85 414.8 433.8 399.2 433.8 M 387.75 454.9 L 372.15 454.9 372.15 510.85 387.75 510.85 387.75 454.9 M 387.75 433.8 L 372.15 433.8 372.15 447.35 387.75 447.35 387.75 433.8 M 441.85 454.9 L 426.25 454.9 426.25 510.85 441.85 510.85 441.85 454.9 M 441.85 433.8 L 426.25 433.8 426.25 447.35 441.85 447.35 441.85 433.8 M 501.45 462 Q 499.35 458.1 494.1 456.05 489.05 453.55 478.75 453.55 467.3 453.55 461.3 457.45 455.35 461.55 453.05 469.55 L 467.05 471.85 Q 468.9 467.75 470.95 466.6 473.25 465 477.35 465 483.3 465 485.85 466.8 487.9 468.65 487.9 472.8 L 487.9 474.4 Q 481.95 476.45 472.8 477.8 465 479.65 460.4 481.25 456.05 483.3 453.75 487 451.25 490.9 451.25 495.45 451.25 502.55 456.5 507.4 462.25 511.95 470.95 511.95 475.75 511.95 480.55 510.15 484.95 508.55 489.3 504.65 L 489.75 506.45 491.35 510.85 506.7 510.85 Q 504.65 506.7 503.95 503.25 503.25 499.8 503.25 492.5 L 503.5 475.05 Q 503.5 465.45 501.45 462 M 488.15 484 L 487.7 494.1 Q 486.55 497.55 483.8 498.9 480.1 501.65 475.75 501.65 471.85 501.65 469.55 499.35 467.05 496.85 467.05 494.1 467.05 490.9 470.25 488.8 471.85 487.7 478.75 486.3 L 488.15 484 M 29.75 433.8 L 5.25 433.8 5.25 510.85 20.4 510.85 20.4 450.1 36.65 510.85 52.45 510.85 68.5 450.1 68.5 510.85 83.85 510.85 83.85 433.8 59.1 433.8 44.45 486.3 29.75 433.8 M 113.4 454.9 L 97.85 454.9 97.85 510.85 113.4 510.85 113.4 454.9 M 113.4 433.8 L 97.85 433.8 97.85 447.35 113.4 447.35 113.4 433.8 M 166.15 465 L 166.15 446.65 205.55 446.65 205.55 433.8 149.85 433.8 149.85 510.85 166.35 510.85 166.35 478.05 200.3 478.05 200.3 465 166.15 465 M 319.25 455.8 Q 315.1 453.75 309.35 453.75 298.6 453.75 291.05 462.7 L 291.05 454.9 276.6 454.9 276.6 510.85 292.2 510.85 292.2 483.55 Q 292.2 475.55 293.55 472.1 294.7 468.45 297.7 466.8 300.2 465 304.1 465 307.1 465 308.9 466.15 310.75 467.3 311.45 469.55 312.35 472.8 312.35 480.1 L 312.35 510.85 327.95 510.85 327.95 484 Q 327.95 476.45 329.1 472.3 330.45 468.9 333.45 466.8 336.4 465 339.65 465 343.75 465 346.25 468.2 347.9 470.95 347.9 478.75 L 347.9 510.85 363.45 510.85 363.45 475.05 Q 363.45 466.8 361.85 463.6 359.35 458.35 355 456.3 350.85 453.75 344 453.75 339.15 453.75 334.35 455.8 330 458.35 326.1 462.7 323.35 458.35 319.25 455.8 M 264.9 462 Q 262.85 458.1 257.6 456.05 252.55 453.55 242.2 453.55 230.75 453.55 224.8 457.45 218.85 461.55 216.55 469.55 L 230.75 471.85 Q 232.15 467.95 234.45 466.6 236.7 465 240.85 465 247.05 465 249.35 466.8 251.6 468.65 251.6 472.8 L 251.6 474.4 Q 244.75 476.45 236.25 477.8 228.45 479.65 223.9 481.25 219.55 483.55 217.25 487 214.95 490.65 214.95 495.45 214.95 502.8 220.2 507.4 225.5 511.95 234.45 511.95 239.25 511.95 244.3 510.15 248.65 508.55 252.75 504.65 L 253.2 506.45 254.85 510.85 270.2 510.85 Q 268.1 506.7 267.45 503.25 266.75 499.8 266.75 492.5 L 267 475.05 Q 267 465.45 264.9 462 M 251.6 484 L 251.15 494.1 Q 250 497.55 247.25 498.9 243.6 501.65 239.25 501.65 235.35 501.65 233.05 499.35 230.55 496.85 230.55 494.1 230.55 490.9 233.75 488.8 235.35 487.7 242.2 486.3 L 251.6 484 Z"/>
</g>
<g id="l0">
<path fill="#00F000" stroke="none" d="M 351.55 328.35 L 351.3 328.15 300.45 328.4 268.35 332.5 212.2 333 203.25 327.95 200.3 327 190.65 327 189.95 325.65 182.4 325.85 182.2 324.25 177.35 324.25 177.6 322.65 174.15 322.65 172.55 323.35 169.35 323.35 169.1 321.75 147.65 322.25 Q 191.1 364.35 252.75 398.5 309.95 366.85 351.55 328.35 M 332.75 193.65 L 330.45 196.6 Q 329.75 198.2 330.45 200.5 L 332.3 203.5 Q 332.75 204.4 332.5 204.85 L 332.05 205.3 Q 331.6 206 329.55 207.4 L 332.3 244.05 334.35 246.8 335.05 248.65 336.65 249.1 345.8 244.05 347.4 243.35 Q 347.65 242.7 346.95 241.75 L 349.95 233.75 Q 349.95 233.3 351.1 231 352.25 228.25 352.7 228 353.85 226.85 354.75 226.85 355.45 226.65 358.9 226.65 L 360.5 224.55 360 222.3 359.1 221.6 358.9 218.85 358.4 218.15 357.5 217.25 356.8 214.95 357.75 213.8 Q 357.75 213.55 358.4 208.75 L 363.25 204.65 366.2 204.2 370.1 206.7 371 209.45 371.7 213.8 Q 371.7 214.05 372.15 215.65 L 371.7 217.45 368.75 222.95 368.25 224.8 370.1 226.65 377 229.4 379.25 234.2 381.1 244.5 379.75 245.2 379.5 246.8 380.65 249.3 381.1 266.3 381.35 266.05 382.95 268.35 382.25 270.2 380.65 271.55 Q 380.4 272.25 379.75 272.7 L 377.9 273.85 377.9 269.7 376.75 268.8 377.2 266.75 378.15 266.05 376.5 249.55 374.7 249.55 375.6 262.4 374.7 263.55 374.25 263.75 374.7 286.45 370.35 286.45 371.25 297.9 Q 371.25 300.45 370.55 305 L 370.8 307.1 Q 370.8 308 371.25 308 L 371.85 308.2 Q 397.25 281 415.5 250.7 441.6 207.4 445.5 176.45 454.7 135.65 433.6 98.05 411.15 57.75 365.5 44.9 325.9 33.9 285.3 64.35 272.7 74 261.5 86.6 L 252.75 97.15 Q 240.4 79.75 220.2 64.35 179.65 33.9 140 44.9 94.4 57.75 71.95 98.05 51.1 135.65 60.25 176.45 64.15 207.4 90.3 250.7 106.65 277.9 128.75 302.65 L 130.4 302.7 129.9 300.45 128.8 297.7 130.85 294.95 131.75 298.6 132.9 299.75 134.05 298.35 134.5 289.2 136.1 295.15 Q 136.35 295.4 135.9 295.4 135.9 295.6 136.35 295.4 L 137.5 295.4 138.4 293.35 138.85 294.95 144.15 291.7 144.15 278.45 145.95 276.6 145.95 274.75 145.5 273.6 135.45 273.6 Q 127.65 270.65 126.05 269.25 L 122.6 265.85 131.75 266.3 136.1 269.5 Q 138.4 270.4 143.2 269.95 144.15 269.95 146.2 269.5 148.25 268.8 149.85 269.05 L 174.85 268.8 190.45 262.6 191.1 262.6 200.05 250.7 204.2 247.95 206.25 247.95 208.3 248.85 210.15 249.3 211.05 248.85 Q 211.5 248.85 213.6 246.55 L 215.65 247.7 216.35 249.55 216.35 250.45 Q 216.35 251.6 215.65 252.05 L 213.1 253.7 212.2 254.6 Q 212.2 254.85 211.75 255.3 211.5 255.75 212.45 255.75 L 217.7 255.05 217.95 255.5 Q 218.15 256.2 217.7 256.65 217.25 257.6 213.6 258.7 L 208.75 264 203.05 272.95 202.35 274.75 202.35 277.95 Q 202.1 281.4 201.45 282.35 L 196.85 287.85 196.4 293.55 196.85 305.7 Q 197.75 306.6 198.45 306.15 198.7 306.15 199.85 301.1 L 201.45 297.2 202.35 305 204.4 308.9 Q 204.4 310.05 204.85 309.85 L 205.55 309.35 206.95 307.55 207.6 301.6 209.45 306.85 Q 210.35 307.3 210.6 307.3 211.5 307.3 211.75 307.1 L 214.25 304.55 215.2 300.45 216.35 307.1 217.45 307.55 218.6 305.25 220 307.1 221.35 305.25 222.75 307.75 224.8 306.85 226.2 304.1 225.5 302.05 225.7 300.9 228.45 296.55 229.85 287.35 Q 233.05 274.3 235.1 271.8 L 238.8 266.75 238.55 245.45 Q 232.15 241.75 231.7 237.4 231.45 234.65 231.9 230.3 L 232.35 226.65 Q 234.9 219.55 234.2 217.7 232.85 214.25 228 205.8 222.95 197.75 224.6 192.25 L 225.7 186.75 Q 225.95 186.05 225.25 184.45 224.6 182.4 222.75 181.7 213.35 177.35 213.35 170.5 213.1 166.6 214.25 163.6 L 215.2 161.3 221.6 157.2 227.8 154.45 229.15 158.1 233.75 163.4 237.2 163.15 236.95 166.15 237.2 167.05 238.35 167.95 239 169.35 Q 240.4 171.4 239.95 172.3 L 237.2 174.4 236.5 177.35 237.4 178.5 243.6 173.9 250 167.75 254.35 154.45 254.85 153.55 254.85 148.95 251.85 148.95 Q 250.7 150.55 248.4 150.55 L 242.9 150.3 240.6 149.4 Q 240.6 148.7 240.85 148 241.1 146.65 241.55 146.4 L 243.6 145.75 245.65 147.35 246.6 147.55 250.95 144.6 Q 251.15 143 250.25 143 246.8 143.9 244.75 143.45 L 240.85 143 239.7 141.6 Q 239 140.9 239.25 140.45 L 240.6 137.7 240.85 137.5 Q 241.1 137.25 241.75 137.7 L 244.75 139.55 Q 245.9 140 250 137.7 L 250.45 135.9 250.45 135.4 Q 244.75 135.4 243.85 134.95 L 240.15 132.45 240.15 131.3 Q 240.85 128.55 240.6 128.3 239.25 127.65 238.35 126.7 236.25 124.65 237.2 122.8 239.95 117.55 242.7 115.7 247.05 112.75 249.1 112.95 L 253.45 114.1 255.05 114.1 255.05 111.15 261.25 115.5 260.55 116.65 Q 260.8 116.85 259.85 116.85 L 258.7 117.1 259.4 119.15 259.85 124.4 261.5 125.1 265.6 124.9 Q 269.95 124.9 270.65 125.35 275.25 129 275.9 132 L 276.35 134.05 Q 274.3 131.5 272.5 131.75 271.8 131.75 270.65 132.45 L 268.8 133.35 264.25 132.9 264.7 135.2 Q 265.85 137.95 270.65 139.55 278 141.85 287.35 144.15 L 287.6 145.05 287.6 145.95 294 146.2 284.4 154 284.4 154.45 Q 284.4 154.65 285.1 154.65 285.75 154.9 288.05 154.65 290.1 154.9 291.05 156.05 292.2 157.4 293.1 161.3 293.8 165.2 292.4 166.35 291.05 167.3 289.45 165.2 L 286.45 159.7 281.85 157.9 280.5 157.9 279.8 159.05 Q 279.35 160.15 279.8 160.65 280.95 161.3 283 161.55 L 283.95 161.55 Q 284.85 161.55 285.1 162 285.3 162.7 285.55 165.9 285.75 169.35 285.55 170.05 285.1 173.25 282.35 173.25 281.2 173.25 280.25 172.1 279.1 171.15 279.35 169.55 L 279.1 165 278.45 164.05 276.15 162.45 270.2 169.35 264.25 161.3 Q 262.85 159.95 262.4 160.15 L 261.5 161.3 259.2 173.9 248.85 184.9 Q 248.4 185.6 247.95 186.05 247.25 187.45 247.5 187.9 252.55 192.95 253 196.15 L 254.15 203.7 Q 254.15 204.2 256.65 212.45 257.35 213.35 258.05 218.15 258.7 222.95 258.5 223.65 258.25 224.35 256.45 224.8 L 256.65 245.2 260.35 257.8 Q 261.25 260.35 261.5 264.2 261.7 265.35 261.7 269.5 261.5 274.1 261 274.55 260.35 275.45 259.85 275.9 L 258.95 308.25 Q 259.4 309.35 261 309.85 262.4 310.75 262.85 310.3 L 263.3 310.05 264 308.7 264.25 307.75 264.9 297.2 269.5 301.1 270.65 300.45 270.65 296.55 275.9 303.2 276.85 303.65 277.5 303.65 278 302.95 278 300.2 279.8 300.45 279.8 293.1 286.7 301.1 288.3 301.1 289.9 298.6 292.2 295.85 293.35 302.95 294.5 303.85 298.35 303.2 298.35 309.15 299.75 309.6 300.65 309.15 306.85 303.85 Q 307.55 303.2 307.55 302.7 L 307.55 301.8 Q 307.75 301.35 307.3 279.35 L 302.05 261.45 301.6 260.55 300.65 260.1 299.3 260.1 298.6 255.75 296.3 253.7 297 211.3 296.3 207.6 Q 296.3 206.95 295.85 206 L 294.95 205.55 Q 293.35 213.1 291.95 214.5 L 285.1 221.8 280.5 225.7 Q 280.5 227.55 280.05 227.8 L 277.05 229.6 277.05 231.2 278.9 232.15 278.45 233.05 Q 278.2 233.3 277.5 233.3 L 276.35 233.05 274.55 232.15 273.85 229.6 273.6 228 274.55 225.5 278.65 222.3 Q 279.35 220.7 280.05 218.85 281.85 215.2 282.8 214.25 287.35 209.7 288.75 206.95 L 289.9 203.5 Q 290.35 201.65 289.9 200.95 L 288.3 199.6 292.65 193.4 293.35 190.2 Q 297.7 185.85 298.35 184.7 L 299.05 182.65 Q 299.05 181.95 298.6 181.5 296.75 180.55 297 179.4 L 297.7 177.35 299.05 176.65 299.5 175.75 299.75 172.3 307.1 163.4 Q 308.7 160.85 310.05 160.85 L 314.65 161.1 317.15 163.4 Q 317.15 163.6 320.35 167.3 322.9 170.25 322.65 170.7 L 322.65 175.3 Q 322.65 177.35 324.5 179.2 327.7 182.4 327.7 184.25 327 188.35 327.7 189.05 L 333.45 189.5 332.75 193.65 M 238.8 305.5 L 238.35 307.3 Q 238.35 309.15 239.25 309.6 240.85 310.3 242.2 309.15 L 243.35 307.75 243.35 307.55 244.3 298.15 Q 244.3 297.45 244.05 297 243.85 296.1 243.35 296.55 L 238.8 305.5 M 159.05 288.75 L 152.85 296.1 143.45 302.7 Q 143.2 302.95 145.05 303.85 L 145.95 303.4 146.65 305.5 147.8 306.15 Q 148.95 306.85 148.25 305 L 150.8 302.05 150.8 306.4 151.45 306.85 Q 151.7 307.1 153.05 306.4 154 306.15 156.95 300.9 L 161.3 309.6 163.4 310.05 Q 164.05 310.3 166.8 306.6 L 167.5 296.75 174.4 303.85 181.25 303.65 182.65 302.05 187.2 305.7 187.2 305.95 189.3 305.25 187.9 302.05 Q 187.7 301.6 187 292.2 186.75 291.95 185.6 291.7 184.45 291.7 184.25 291.95 182.85 292.65 170.05 291.95 167.5 291.7 163.85 289.65 L 160.65 287.6 Q 159.95 287.6 159.5 288.3 159.25 288.5 159.05 288.75 M 361.15 289.65 Q 361.15 291.25 362.55 293.35 L 363.7 302.25 Q 363.9 303.4 365.05 302.05 365.3 292.65 365.05 291.95 L 363.9 289.65 363.9 288.05 Q 362.75 286.45 361.85 286.45 361.15 286.7 361.15 289.65 M 353.85 245.45 Q 355 241.05 352.7 244.3 349.5 248.4 349 248.65 L 338.7 251.6 336.65 251.85 334.8 252.75 Q 333.2 255.95 331.6 255.95 L 329.75 255.05 328.65 252.55 327.5 250.7 Q 327.25 248.65 326.35 249.3 325.9 249.55 325.65 250.45 325.4 250.95 325.4 251.4 L 325.4 258.7 320.85 258.7 319.7 260.55 319.7 261.25 318.1 269.5 Q 317.15 281.4 317.4 281.65 L 317.6 298.85 319.45 301.1 Q 321.05 303.85 321.3 305.5 321.3 308.45 321.05 308.7 L 320.35 310.3 Q 320.35 310.75 319.7 310.75 319.45 311 320.15 311 320.85 311.2 321.5 311.2 322 311.2 322.2 310.3 322.9 308.9 323.8 304.35 L 323.8 302.7 329.3 309.15 330 307.75 330 304.35 331.6 306.6 Q 331.6 307.55 332.05 309.35 332.75 311.45 333.2 311.65 334.35 312.8 335.05 312.1 L 335.95 309.85 335.5 303.65 337.1 303.2 337.55 304.1 338.7 304.35 338.7 297 343.75 304.55 Q 345.35 308.45 346.25 306.85 L 347.4 304.55 348.35 303.65 Q 348.55 303.4 348.35 294.45 L 354.05 308.25 354.75 310.5 Q 355.9 312.8 357.5 312.1 360 311 360.95 308.45 363.25 305.7 360.95 302.95 L 355.65 295.6 355.2 286.45 353.85 286.45 353.85 268.35 352.7 267.9 353.85 245.45 Z"/>
</g>
</defs>
<g transform="matrix(1,0,0,1,0,0)">
<use xlink:href="#l1"/>
</g>
<g transform="matrix(1,0,0,1,0,0)">
<use xlink:href="#l0"/>
</g>
</svg>
