<svg xmlns="http://www.w3.org/2000/svg" xmlns:xlink="http://www.w3.org/1999/xlink" width="100%" height="100%" viewBox="0 0 512 512">
<!-- Vectorization by Rodrigo Polo https://github.com/rodrigopolo/logotipos-politicos -->
<defs>
<radialGradient id="g1" gradientUnits="userSpaceOnUse" cx="0" cy="0" r="255.98749999999998" fx="0" fy="0" gradientTransform="matrix( 1.0000000000000002, 0, 0, 1.0000000000000002, 255.85,256.1) " spreadMethod="pad">
<stop offset="0%" stop-color="#0E4E95"/>
<stop offset="100%" stop-color="#213368"/>
</radialGradient>
<g id="l2">
<path fill="url(#g1)" stroke="none" d="M 0 0 L 0 512 512 512 512 0 0 0 Z"/>
</g>
<g id="l1">
<path fill="#FFFFFF" stroke="none" d="M 372.15 192.95 Q 370.2 193.15 368.9 194.45 367.4 196 367.8 198.15 368.05 199.25 369.8 202.95 371.3 206.25 371.5 208.4 371.95 212.35 369.35 216.7 366.5 222.35 366.5 227.15 366.5 227.55 366.3 234.55 366.3 239.75 365.85 241.5 L 351.4 279.55 Q 350.6435546875 277.4970703125 349.55 275.5 346.25 269.4 340.4 265.45 L 339.3 264.6 340.4 263.5 Q 345.8 256.3 345.8 247.15 345.8 235.2 337.35 226.9 328.85 218.45 316.65 218.45 L 282.9 218.45 282.9 317.5 323.85 317.5 Q 331.8548828125 317.5 338.4 313.8 L 336.9 317.75 382.85 317.1 392.65 258.05 399.2 253.2 Q 397.2 260.1037109375 397.2 267.85 397.2 289.2 412.05 304 427.05 319.05 448.2 319.05 469.3 319.05 484.1 304 499.15 289 499.15 267.85 499.15 246.75 484.1 231.95 469.3 216.9 448.2 216.9 427.495703125 216.9 412.65 231.3 412.25 229.69375 412.25 228.45 412.7 226.5 412.7 225.85 412.7 224.75 411.8 223.85 L 409.65 221.9 Q 408.3 220.6 408.1 219.5 408.1 215.15 405.95 213.65 402.25 211.25 401.55 209.95 400.7 207.75 400.05 206.65 398.75 204.9 397 204.7 393.1 204.05 390.25 206.65 386.75 211.25 385.7 211.7 384.6 211.9 384.35 210.35 384.15 208.2 383.7 206 382.65 202.1 380.9 199.25 376.3 192.5 372.15 192.95 M 448.2 233.9 Q 462.35 233.9 472.15 243.9 482.15 253.9 482.15 267.85 482.15 282 472.15 291.8 462.35 301.85 448.2 301.85 434 301.85 424.2 292.05 414.2 282 414.2 267.85 414.2 253.9 424.2 243.9 434.25 233.9 448.2 233.9 M 332.75 279.4 Q 336.25 283.1 336.25 288.1 336.25 293.35 332.75 297.05 329.05 300.55 323.85 300.55 L 299.85 300.55 299.85 275.7 323.85 275.7 Q 329.05 275.7 332.75 279.4 M 329.05 247.85 Q 329.05 253.05 325.55 256.75 321.85 260.25 316.65 260.25 L 299.85 260.25 299.85 235.4 316.65 235.4 Q 321.85 235.4 325.55 239.1 329.05 242.8 329.05 247.85 M 230.4 280.95 L 183.35 215.8 183.35 317.95 200.15 317.95 200.15 267.2 230.4 309.25 260.65 267.2 260.65 317.95 277.45 317.95 277.45 215.8 230.4 280.95 M 152.65 299.45 L 160.3 317.95 179.45 317.95 133.95 215.8 88.65 317.95 107.8 317.95 115.2 299.45 152.65 299.45 M 146.15 283.75 L 121.75 283.75 133.95 254.15 146.15 283.75 M 87.55 244.1 L 87.55 222.55 Q 76.85 216.9 63.8 216.9 42.7 216.9 27.65 231.95 12.65 246.95 12.65 268.1 12.65 289.2 27.65 304.25 42.7 319.25 63.8 319.25 76.45 319.25 87.55 313.35 L 87.55 292.05 Q 77.95 301.6 63.8 301.6 49.85 301.6 40.05 291.8 30.25 282 30.25 268.1 30.25 254.15 40.05 244.1 49.85 234.3 63.8 234.3 78.2 234.3 87.55 244.1 Z"/>
</g>
<g id="l0">
<path fill="#FADA00" stroke="none" d="M 377.85 197.95 Q 375 195.35 372.4 195.55 368.9 196.2 370.85 200.35 373.7 203.85 373.7 208.85 373.9 212.55 372.6 215.15 370.45 219.5 370 221.25 368.9 224.3 368.9 234.55 368.9 239.75 367.6 244.35 L 341.05 317.5 379.6 317.1 389.4 260 Q 388.05 260.65 384.35 261.35 L 381.1 262 Q 390.25 258.7 405.5 246.1 410.95 241.95 411.6 237.6 411.8 236.05 410.5 233.9 409.2 232.15 408.75 231.5 408.1 230.6 408.55 229.55 409 227.55 409 226.7 408.75 225.2 408.1 224.5 406.8 223.65 405.7 222.8 404.6 222.15 404.6 220.4 404.2 217.55 403.95 216.7 403.55 214.95 401.55 213.85 399.6 212.55 399.2 211.9 398.75 211.45 397.85 209.05 397.2 207.3 395.9 206.9 392 205.35 389.6 209.3 387.65 211.9 387.2 212.35 385.45 213.85 383.95 213.4 382.85 213.2 382.4 210.6 381.55 205.35 381.3 204.25 380.45 200.8 377.85 197.95 Z"/>
</g>
</defs>
<g transform="matrix( 1, 0, 0, 1, 0,0) ">
<use xlink:href="#l2"/>
</g>
<g transform="matrix( 1, 0, 0, 1, 0,0) ">
<use xlink:href="#l1"/>
</g>
<g transform="matrix( 1, 0, 0, 1, 0,0) ">
<use xlink:href="#l0"/>
</g>
</svg>
