<svg xmlns="http://www.w3.org/2000/svg" xmlns:xlink="http://www.w3.org/1999/xlink" width="100%" height="100%" viewBox="0 0 512 512">
<!-- Vectorization by Rodrigo Polo https://github.com/rodrigopolo/logotipos-politicos -->
<defs>
<g id="l6">
<path fill="#003E98" stroke="none" d="M 284 344.5 L 282.3 344.5 282.3 355.9 284 355.9 284 344.5 M 269.1 344.5 L 267.35 344.5 267.35 355.9 269.1 355.9 269.1 349.75 Q 269.25 348.05 270.25 347.05 271.25 346.05 272.9 346.05 274.45 346.05 275.3 346.9 276.15 347.8 276.15 349.3 L 276.15 355.9 277.85 355.9 277.85 348.85 Q 277.85 346.8 276.7 345.6 275.55 344.4 273.5 344.4 270.25 344.45 269.1 347 L 269.1 344.5 M 254.35 344.5 L 252.7 344.5 252.7 351.5 Q 252.7 353.55 253.85 354.75 254.95 355.95 256.95 355.95 260.2 355.9 261.35 353.3 L 261.35 355.9 263 355.9 263 344.5 261.35 344.5 261.35 350.05 Q 261.35 352 260.3 353.15 259.35 354.3 257.55 354.35 256.1 354.35 255.25 353.45 254.35 352.55 254.35 351.1 L 254.35 344.5 M 307.35 344.4 Q 306 344.4 304.95 344.75 303.85 345.15 302.65 345.95 L 303.4 347.15 Q 305.25 345.8 307.05 345.8 308.55 345.8 309.3 346.5 310.1 347.2 310.1 348.5 L 310.1 349.25 306.35 349.25 Q 304.3 349.25 303.2 350.1 302.05 351 302.05 352.5 302.05 353.5 302.5 354.25 303.05 355.05 303.9 355.5 304.75 355.95 305.95 355.95 308.75 355.95 310.15 354.1 L 310.15 355.9 311.8 355.9 311.75 348.35 Q 311.7 346.5 310.6 345.45 309.5 344.4 307.35 344.4 M 310.1 350.55 L 310.1 351.95 Q 309.8 353.15 308.75 353.85 307.7 354.55 306.25 354.55 305.05 354.55 304.35 353.95 303.65 353.4 303.65 352.4 303.65 350.55 306.55 350.55 L 310.1 350.55 M 283.95 342 Q 284.25 341.65 284.25 341.2 284.25 340.7 283.95 340.35 283.6 340 283.15 340 282.65 340 282.4 340.35 282.05 340.7 282.05 341.2 282.05 341.7 282.4 342 282.65 342.3 283.15 342.3 283.6 342.3 283.95 342 M 292.7 344.4 Q 291.1 344.4 289.85 345.1 288.55 345.85 287.9 347.15 287.2 348.5 287.2 350.15 287.2 351.85 287.9 353.15 288.55 354.5 289.85 355.25 291.1 356 292.7 356 294.25 356 295.4 355.3 296.5 354.65 297.15 353.45 L 297.15 355.9 298.85 355.9 298.85 339.8 297.15 339.8 297.15 346.95 Q 296.55 345.75 295.4 345.05 294.2 344.4 292.7 344.4 M 290.9 346.4 Q 291.85 345.85 293.05 345.85 294.25 345.85 295.15 346.4 296.1 346.95 296.65 347.95 297.15 349 297.15 350.2 297.15 351.45 296.65 352.4 296.1 353.4 295.15 353.95 294.2 354.5 293.05 354.5 291.9 354.5 290.9 353.95 289.95 353.4 289.45 352.4 288.9 351.45 288.9 350.2 288.9 348.95 289.45 347.95 289.95 346.95 290.9 346.4 M 198.65 341.6 Q 196.85 340.55 194.7 340.55 192.5 340.55 190.65 341.6 188.85 342.6 187.8 344.4 186.7 346.15 186.7 348.25 186.7 350.4 187.8 352.2 188.85 354 190.65 354.95 192.5 356 194.7 356 196.85 356 198.65 354.95 200.5 354 201.55 352.2 202.65 350.4 202.65 348.25 202.65 346.15 201.55 344.4 200.5 342.6 198.65 341.6 M 191.6 342.95 Q 193 342.15 194.7 342.15 196.4 342.15 197.75 342.95 199.15 343.8 200 345.2 200.85 346.6 200.85 348.25 200.85 349.95 200 351.35 199.15 352.8 197.75 353.6 196.35 354.45 194.7 354.45 193 354.45 191.6 353.6 190.2 352.8 189.3 351.35 188.5 349.95 188.5 348.25 188.5 346.55 189.3 345.2 190.2 343.8 191.6 342.95 M 242.35 344.85 L 242.35 346.15 243.95 346.15 243.95 352.7 Q 243.95 354.3 244.75 355.1 245.55 355.95 246.85 355.95 248.2 355.95 249.45 355.1 L 249 353.8 Q 248.05 354.35 247.15 354.4 246.4 354.4 246.05 353.9 245.65 353.45 245.65 352.4 L 245.65 346.15 249.25 346.15 249.25 344.85 245.65 344.85 245.65 341.8 243.95 341.8 243.95 344.85 242.35 344.85 M 236.4 344.5 L 234.7 344.5 234.7 355.9 236.4 355.9 236.4 349.8 Q 236.55 348.05 237.6 347 238.7 346.05 240.5 346.05 L 240.5 344.4 Q 239 344.45 238 345.05 236.9 345.75 236.4 347 L 236.4 344.5 M 228.7 345.1 Q 227.35 344.4 225.7 344.4 224 344.4 222.7 345.1 221.4 345.85 220.65 347.15 219.9 348.5 219.9 350.15 219.9 351.9 220.65 353.15 221.4 354.5 222.7 355.25 224 355.95 225.7 355.95 227.4 355.95 228.7 355.25 230 354.5 230.75 353.15 231.5 351.85 231.5 350.15 231.5 348.5 230.75 347.15 230 345.85 228.7 345.1 M 225.7 345.9 Q 226.9 345.9 227.85 346.45 228.75 347 229.3 347.95 229.8 348.95 229.8 350.2 229.8 351.45 229.3 352.4 228.75 353.4 227.85 353.95 226.9 354.5 225.7 354.5 224.5 354.5 223.55 353.95 222.65 353.4 222.15 352.4 221.6 351.45 221.6 350.2 221.6 348.95 222.15 347.95 222.65 347 223.55 346.45 224.5 345.9 225.7 345.9 M 215.15 345.15 Q 213.9 344.4 212.25 344.4 210.8 344.4 209.65 345.05 208.45 345.75 207.85 346.95 L 207.85 344.5 206.15 344.5 206.15 360.1 207.85 360.1 207.85 353.45 Q 208.5 354.6 209.65 355.3 210.75 355.95 212.3 355.95 213.95 355.95 215.15 355.25 216.4 354.5 217.1 353.15 217.75 351.9 217.75 350.2 217.75 348.55 217.1 347.2 216.4 345.9 215.15 345.15 M 209.85 346.4 Q 210.75 345.85 211.95 345.85 213.15 345.85 214.05 346.4 215 346.95 215.5 347.95 216.05 348.95 216.05 350.15 216.05 351.4 215.5 352.35 215 353.35 214.05 353.9 213.1 354.45 211.95 354.45 210.8 354.45 209.85 353.9 208.9 353.35 208.4 352.35 207.85 351.4 207.85 350.15 207.85 348.95 208.4 347.95 208.9 346.95 209.85 346.4 M 99.45 339.8 L 97.75 339.8 97.7 355.5 99.4 355.5 99.45 339.8 M 105.25 344.5 L 103.55 344.5 103.55 351.5 Q 103.55 353.55 104.7 354.75 105.85 355.95 107.85 355.95 111.05 355.9 112.2 353.3 L 112.2 355.9 113.9 355.9 113.9 344.5 112.2 344.5 112.2 350.05 Q 112.2 352 111.2 353.15 110.2 354.3 108.45 354.35 106.95 354.35 106.1 353.45 105.25 352.55 105.25 351.1 L 105.25 344.5 M 88.7 344.4 Q 87 344.4 85.65 345.1 84.35 345.85 83.6 347.15 82.9 348.5 82.9 350.15 82.9 351.9 83.6 353.15 84.35 354.5 85.65 355.25 86.95 355.95 88.7 355.95 90.35 355.95 91.65 355.25 93 354.5 93.75 353.15 94.5 351.85 94.5 350.15 94.5 348.5 93.75 347.15 93 345.85 91.65 345.1 90.35 344.4 88.7 344.4 M 88.7 345.9 Q 89.9 345.9 90.8 346.45 91.75 347 92.25 347.95 92.8 348.95 92.8 350.2 92.8 351.45 92.25 352.4 91.75 353.4 90.8 353.95 89.9 354.5 88.7 354.5 87.45 354.5 86.55 353.95 85.6 353.4 85.1 352.4 84.55 351.45 84.55 350.2 84.55 348.95 85.1 347.95 85.6 347 86.55 346.45 87.45 345.9 88.7 345.9 M 146.35 344.4 Q 144.95 344.4 143.9 344.75 142.85 345.15 141.65 345.95 L 142.35 347.15 Q 144.2 345.8 146 345.8 147.5 345.8 148.3 346.5 149.05 347.2 149.05 348.5 L 149.05 349.25 145.3 349.25 Q 143.25 349.25 142.15 350.1 141 351 141 352.5 141 353.5 141.5 354.25 142 355.05 142.85 355.5 143.75 355.95 144.9 355.95 147.75 355.95 149.1 354.1 L 149.1 355.9 150.75 355.9 150.75 348.35 Q 150.7 346.5 149.6 345.45 148.45 344.4 146.35 344.4 M 149.1 350.55 L 149.1 351.95 Q 148.75 353.15 147.75 353.85 146.65 354.55 145.25 354.55 144.05 354.55 143.3 353.95 142.6 353.4 142.6 352.4 142.6 350.55 145.55 350.55 L 149.1 350.55 M 159.3 344.4 Q 157.7 344.4 156.45 345.1 155.2 345.85 154.5 347.15 153.85 348.5 153.85 350.15 153.85 351.85 154.5 353.15 155.2 354.5 156.45 355.25 157.7 356 159.35 356 160.9 356 162 355.3 163.15 354.65 163.8 353.45 L 163.8 355.9 165.5 355.9 165.5 339.8 163.8 339.8 163.8 346.95 Q 163.2 345.75 162 345.05 160.85 344.4 159.3 344.4 M 159.65 345.85 Q 160.85 345.85 161.8 346.4 162.7 346.95 163.3 347.95 163.8 349 163.8 350.2 163.8 351.45 163.3 352.4 162.7 353.4 161.8 353.95 160.85 354.5 159.65 354.5 158.5 354.5 157.55 353.95 156.55 353.4 156.05 352.4 155.5 351.45 155.5 350.2 155.5 348.95 156.05 347.95 156.6 346.95 157.55 346.4 158.45 345.85 159.65 345.85 M 135.2 344.85 L 135.2 341.8 133.5 341.8 133.5 344.85 131.85 344.85 131.85 346.15 133.5 346.15 133.5 352.7 Q 133.5 354.3 134.3 355.1 135.1 355.95 136.4 355.95 137.75 355.95 139 355.1 L 138.55 353.8 Q 137.6 354.35 136.7 354.4 135.95 354.4 135.6 353.9 135.2 353.45 135.2 352.4 L 135.2 346.15 138.8 346.15 138.8 344.85 135.2 344.85 M 127.5 345.6 Q 126.35 344.4 124.3 344.4 121 344.45 119.85 347 L 119.85 344.5 118.15 344.5 118.15 355.9 119.85 355.9 119.85 349.75 Q 120 348.05 121 347.05 122 346.05 123.7 346.05 125.2 346.05 126.05 346.9 126.95 347.8 126.95 349.3 L 126.95 355.9 128.6 355.9 128.6 348.85 Q 128.6 346.8 127.5 345.6 M 70.15 340.7 L 68.25 340.7 74.45 355.9 76.25 355.9 82.45 340.7 80.65 340.7 75.4 353.95 70.15 340.7 M 425.75 344.5 L 424.05 344.5 424.05 355.9 425.75 355.9 425.75 344.5 M 434.45 344.4 Q 432.85 344.4 431.6 345.1 430.3 345.85 429.65 347.15 428.95 348.5 428.95 350.15 428.95 351.85 429.65 353.15 430.3 354.5 431.6 355.25 432.85 356 434.45 356 436 356 437.15 355.3 438.25 354.65 438.9 353.45 L 438.9 355.9 440.6 355.9 440.6 339.8 438.9 339.8 438.9 346.95 Q 438.3 345.75 437.15 345.05 435.95 344.4 434.45 344.4 M 434.8 345.85 Q 436 345.85 436.9 346.4 437.85 346.95 438.4 347.95 438.9 349 438.9 350.2 438.9 351.45 438.4 352.4 437.85 353.4 436.9 353.95 435.95 354.5 434.8 354.5 433.65 354.5 432.65 353.95 431.7 353.4 431.2 352.4 430.65 351.45 430.65 350.2 430.65 348.95 431.2 347.95 431.7 346.95 432.65 346.4 433.6 345.85 434.8 345.85 M 424.9 340 Q 424.4 340 424.15 340.35 423.8 340.7 423.8 341.2 423.8 341.7 424.15 342 424.4 342.3 424.9 342.3 425.35 342.3 425.7 342 426 341.65 426 341.2 426 340.7 425.7 340.35 425.35 340 424.9 340 M 417.15 344.5 L 415.45 344.5 415.45 355.9 417.15 355.9 417.15 349.8 Q 417.3 348.05 418.4 347 419.45 346.05 421.25 346.05 L 421.25 344.4 Q 419.8 344.45 418.8 345.05 417.7 345.75 417.15 347 L 417.15 344.5 M 449.2 344.4 Q 447.8 344.4 446.8 344.75 445.7 345.15 444.5 345.95 L 445.2 347.15 Q 447.1 345.8 448.85 345.8 450.35 345.8 451.15 346.5 451.9 347.2 451.9 348.5 L 451.9 349.25 448.2 349.25 Q 446.1 349.25 445 350.1 443.9 351 443.9 352.5 443.9 353.5 444.35 354.25 444.85 355.05 445.75 355.5 446.6 355.95 447.75 355.95 450.6 355.95 452 354.1 L 452 355.9 453.6 355.9 453.6 348.35 Q 453.55 346.5 452.45 345.45 451.3 344.4 449.2 344.4 M 451.95 350.55 L 451.95 351.95 Q 451.6 353.15 450.6 353.85 449.55 354.55 448.1 354.55 446.9 354.55 446.2 353.95 445.45 353.4 445.45 352.4 445.45 350.55 448.4 350.55 L 451.95 350.55 M 462.25 344.4 Q 460.65 344.4 459.4 345.1 458.1 345.85 457.45 347.15 456.75 348.5 456.75 350.15 456.75 351.85 457.45 353.15 458.1 354.5 459.4 355.25 460.65 356 462.25 356 463.8 356 464.9 355.3 466.05 354.65 466.7 353.45 L 466.7 355.9 468.4 355.9 468.4 339.8 466.7 339.8 466.7 346.95 Q 466.1 345.75 464.9 345.05 463.75 344.4 462.25 344.4 M 462.6 345.85 Q 463.8 345.85 464.7 346.4 465.65 346.95 466.2 347.95 466.7 349 466.7 350.2 466.7 351.45 466.2 352.4 465.65 353.4 464.7 353.95 463.75 354.5 462.6 354.5 461.4 354.5 460.45 353.95 459.5 353.4 458.95 352.4 458.45 351.45 458.45 350.2 458.45 348.95 458.95 347.95 459.5 346.95 460.45 346.4 461.4 345.85 462.6 345.85 M 351 342.8 Q 351.9 342.25 353.35 342.25 354.3 342.25 355.45 342.55 356.5 342.85 357.55 343.5 L 358.3 341.95 Q 357.35 341.3 356.05 340.9 354.75 340.55 353.45 340.55 351.85 340.55 350.7 341 349.55 341.5 348.85 342.4 348.2 343.3 348.2 344.5 348.2 345.85 348.85 346.7 349.55 347.5 350.45 347.95 351.55 348.45 352.95 348.85 L 355 349.55 Q 355.7 349.9 356.2 350.45 356.75 351 356.75 351.9 356.75 353.05 355.8 353.7 354.8 354.35 353.2 354.35 351.9 354.35 350.5 353.75 349.2 353.25 348.1 352.2 L 347.3 353.7 Q 348.4 354.75 350 355.4 351.5 356 353.15 356 354.75 356 356.05 355.5 357.25 354.95 357.95 354.05 358.65 353.1 358.65 351.8 358.65 350.4 358 349.55 357.25 348.65 356.35 348.25 355.3 347.8 353.85 347.35 L 351.85 346.65 Q 351.1 346.35 350.6 345.75 350.1 345.2 350.1 344.35 350.1 343.4 351 342.8 M 326.95 339.8 L 325.25 339.8 325.25 346.95 Q 324.65 345.75 323.45 345.05 322.25 344.4 320.75 344.4 319.15 344.4 317.9 345.1 316.65 345.85 315.95 347.15 315.3 348.5 315.3 350.15 315.3 351.85 315.95 353.15 316.65 354.5 317.9 355.25 319.15 356 320.8 356 322.35 356 323.45 355.3 324.6 354.65 325.25 353.45 L 325.25 355.9 326.95 355.9 326.95 339.8 M 325.25 350.2 Q 325.25 351.45 324.7 352.4 324.15 353.4 323.25 353.95 322.25 354.5 321.1 354.5 319.95 354.5 319 353.95 318 353.4 317.5 352.4 316.95 351.45 316.95 350.2 316.95 348.95 317.5 347.95 318.05 346.95 319 346.4 319.9 345.85 321.1 345.85 322.3 345.85 323.25 346.4 324.15 346.95 324.7 347.95 325.25 349 325.25 350.2 M 391.9 344.4 Q 390.3 344.4 389.05 345.1 387.8 345.85 387.15 347.15 386.45 348.5 386.45 350.15 386.45 351.85 387.15 353.15 387.8 354.5 389.05 355.25 390.3 356 391.95 356 393.5 356 394.6 355.3 395.75 354.65 396.4 353.45 L 396.4 355.9 398.1 355.9 398.1 339.8 396.4 339.8 396.4 346.95 Q 395.8 345.75 394.6 345.05 393.45 344.4 391.9 344.4 M 392.25 345.85 Q 393.45 345.85 394.4 346.4 395.3 346.95 395.9 347.95 396.4 349 396.4 350.2 396.4 351.45 395.9 352.4 395.3 353.4 394.4 353.95 393.45 354.5 392.25 354.5 391.1 354.5 390.15 353.95 389.15 353.4 388.65 352.4 388.1 351.45 388.1 350.2 388.1 348.95 388.65 347.95 389.2 346.95 390.15 346.4 391.05 345.85 392.25 345.85 M 404.2 344.75 Q 403.15 345.15 401.95 345.95 L 402.65 347.15 Q 404.5 345.8 406.3 345.8 407.8 345.8 408.6 346.5 409.35 347.2 409.35 348.5 L 409.35 349.25 405.65 349.25 Q 403.55 349.25 402.45 350.1 401.3 351 401.3 352.5 401.3 353.5 401.8 354.25 402.3 355.05 403.2 355.5 404.05 355.95 405.2 355.95 408.05 355.95 409.4 354.1 L 409.4 355.9 411.05 355.9 411.05 348.35 Q 411 346.5 409.9 345.45 408.75 344.4 406.65 344.4 405.25 344.4 404.2 344.75 M 403.6 353.95 Q 402.9 353.4 402.9 352.4 402.9 350.55 405.85 350.55 L 409.4 350.55 409.4 351.95 Q 409.05 353.15 408.05 353.85 406.95 354.55 405.55 354.55 404.35 354.55 403.6 353.95 M 381.85 340.35 Q 381.55 340.7 381.55 341.2 381.55 341.7 381.85 342 382.15 342.3 382.65 342.3 383.1 342.3 383.4 342 383.75 341.65 383.75 341.2 383.75 340.7 383.4 340.35 383.1 340 382.65 340 382.15 340 381.85 340.35 M 383.5 344.5 L 381.8 344.5 381.8 355.9 383.5 355.9 383.5 344.5 M 377.65 339.8 L 375.95 339.8 375.9 355.5 377.6 355.5 377.65 339.8 M 369.8 345.1 Q 368.45 344.4 366.8 344.4 365.1 344.4 363.8 345.1 362.45 345.85 361.7 347.15 361 348.5 361 350.15 361 351.9 361.7 353.15 362.45 354.5 363.8 355.25 365.05 355.95 366.8 355.95 368.5 355.95 369.8 355.25 371.1 354.5 371.85 353.15 372.6 351.85 372.6 350.15 372.6 348.5 371.85 347.15 371.1 345.85 369.8 345.1 M 366.8 345.9 Q 368 345.9 368.95 346.45 369.85 347 370.4 347.95 370.9 348.95 370.9 350.2 370.9 351.45 370.4 352.4 369.85 353.4 368.95 353.95 368 354.5 366.8 354.5 365.6 354.5 364.65 353.95 363.75 353.4 363.2 352.4 362.7 351.45 362.7 350.2 362.7 348.95 363.2 347.95 363.75 347 364.65 346.45 365.6 345.9 366.8 345.9 Z"/>
</g>
<g id="l5">
<path fill="#003D93" stroke="none" d="M 15.25 185.15 Q 15.25 185.2 15.25 185.25 L 77.25 309.05 Q 78.55 310.95 80.3 312.7 87 319.4 96.45 319.4 105.95 319.4 112.65 312.7 114.85 310.5 116.3 308.05 L 117.7 305.25 Q 119.35 301.25 119.35 296.5 119.35 291.6 117.55 287.45 L 56.15 164.8 56.15 164.75 Q 51.9 156.3 42.9 153.25 33.9 150.25 25.45 154.5 17 158.75 14 167.7 11.05 176.7 15.25 185.15 Z"/>
</g>
<g id="l4">
<path fill="#4870CF" stroke="none" d="M 177.7 185.25 L 177.7 185.2 Q 181.95 176.75 178.95 167.75 175.95 158.8 167.5 154.55 159.05 150.3 150.05 153.3 141.05 156.3 136.8 164.75 L 136.8 164.8 75.4 287.45 Q 73.6 291.65 73.6 296.55 73.6 301.25 75.25 305.3 L 76.65 308.1 Q 78.1 310.55 80.3 312.7 87 319.45 96.5 319.45 105.95 319.45 112.65 312.7 114.4 311 115.7 309.05 L 177.7 185.25 Z"/>
</g>
<g id="l3">
<path fill="#CF0E80" stroke="none" d="M 264.95 152.1 Q 264.65 152.1 264.35 152.1 264.3 152.1 264.25 152.1 263.65 152.1 263.05 152.15 262.05 152.15 261.05 152.2 261.05 152.25 261.05 152.35 261.15 153.15 261.8 153.7 262.4 154.2 263.25 154.15 263.75 154.1 264.25 154.1 264.3 154.1 264.35 154.1 264.65 154.1 264.9 154.1 L 264.95 154.1 Q 273.1 154.35 279 160.25 285.15 166.35 285.15 175 285.15 183.6 279 189.75 273.2 195.5 265.2 195.85 264.85 195.85 264.55 195.85 263.7 195.85 263.15 196.45 262.55 197 262.55 197.85 L 262.55 197.9 Q 262.75 197.85 263 197.85 263.1 197.85 263.2 197.85 263.55 197.85 263.9 197.85 L 264.55 197.85 Q 264.9 197.85 265.25 197.85 280.3 198.25 291 208.95 302.1 220.05 302.1 235.75 302.1 251.4 291 262.55 280.05 273.55 264.55 273.65 L 263.75 273.65 Q 261 273.6 258.45 273.25 L 257.6 273.15 Q 256.9201171875 273.0376953125 256.25 272.9 250.9 274.65 246.65 278.95 239.35 286.2 239.35 296.55 239.35 306.85 246.65 314.15 249.5 317 252.85 318.75 257.85 319.4 263.05 319.45 263.65 319.45 264.25 319.45 264.3 319.45 264.35 319.45 264.65 319.45 264.95 319.45 299.25 319.25 323.55 294.95 348.05 270.45 348.05 235.75 348.05 201.1 323.55 176.6 299.25 152.3 264.95 152.1 Z"/>
</g>
<g id="l2">
<path fill="#00CB97" stroke="none" d="M 264.95 152.1 Q 264.65 152.1 264.35 152.1 264.3 152.1 264.25 152.1 263.65 152.1 263.05 152.15 229.25 152.55 205.2 176.6 180.65 201.1 180.65 235.75 180.65 270.45 205.2 294.95 229.25 319 263.05 319.45 254.35 319 248.05 312.7 241.35 306 241.35 296.55 241.35 287.05 248.05 280.35 254.65 273.75 263.9 273.65 248.4 273.55 237.35 262.55 226.25 251.4 226.25 235.75 226.25 220.05 237.35 208.95 248.1 198.2 263.2 197.85 263.55 197.85 263.9 197.85 L 264.55 197.85 Q 264.9 197.85 265.25 197.85 274.05 197.5 280.4 191.15 287.15 184.45 287.15 175 287.15 165.5 280.4 158.8 273.95 152.35 264.95 152.1 Z"/>
</g>
<g id="l1">
<path fill="#CD1D3C" stroke="none" d="M 401.45 154.95 Q 383.35 160.15 373.35 170.6 363.2 181.15 361.2 197.3 359.4 212.2 364.75 222.7 370.2 233.35 383.55 240.5 387.5 242.65 395.5 245.2 400.35 246.7 413.1 250.55 L 440.25 259.1 Q 444 260.3 446.4 262.45 446.5 262.5 446.55 262.55 449 264.8 449.7 267.6 451.1 273.4 445.45 279.2 441.05 283.75 432.95 284.25 426.3 284.7 416.1 282.4 412.45 281.6 408.75 277.55 408 276.75 407.15 275.7 405.5 271.05 401.75 267.3 395.05 260.65 385.55 260.65 376.1 260.65 369.35 267.3 362.7 274.05 362.7 283.5 362.7 292.8 369.1 299.4 369.15 299.55 369.3 299.7 376.95 307.35 388 312.4 409.7 321.35 436.55 319.1 461.65 316.95 477.25 306.5 493.45 295.6 497.65 276.9 501.7 259.5 495.05 246 488.35 232.35 471.8 224.55 470.7 224 469.5 223.55 468.2 223.05 466.85 222.6 461.2 220.65 454.95 218.85 450.05 217.45 441.8 215.3 432.8 213.1 428.65 212 421.55 210.15 417 208.15 411.8 205.9 409.2 202.55 406.75 199.45 407.5 196.6 408.6 192 413.05 189.7 417.35 187.5 425.3 187.3 432.15 187.15 437.15 189.8 441.85 192.3 445.15 197.35 445.2 197.45 445.25 197.55 446.8 203 451.1 207.25 457.8 214 467.3 214 476.75 214 483.45 207.25 490.15 200.55 490.15 191.1 490.15 181.75 483.65 175.05 483.4 174.8 483.25 174.55 475.8 164.45 462.6 158.7 449.85 153.1 431.95 152.1 414.65 151.15 401.45 154.95 Z"/>
</g>
<g id="l0">
<path fill="#790333" stroke="none" d="M 401.45 154.95 Q 383.35 160.15 373.35 170.6 363.2 181.15 361.2 197.3 359.4 212.2 364.75 222.7 370.2 233.35 383.55 240.5 387.5 242.65 395.5 245.2 400.35 246.7 413.1 250.55 L 440.25 259.1 Q 444 260.3 446.4 262.45 L 446.45 262.4 Q 445.65 261.75 444.9 261 438.2 254.3 438.2 244.8 438.2 235.35 444.9 228.6 451.6 221.95 461.1 221.95 464.1 221.95 466.85 222.6 461.2 220.65 454.95 218.85 450.05 217.45 441.8 215.3 432.8 213.1 428.65 212 421.55 210.15 417 208.15 411.8 205.9 409.2 202.55 406.75 199.45 407.5 196.6 408.6 192 413.05 189.7 417.35 187.5 425.3 187.3 432.15 187.15 437.15 189.8 441.85 192.3 445.15 197.35 445.2 197.45 445.25 197.55 446.8 203 451.1 207.25 457.8 214 467.3 214 476.75 214 483.45 207.25 490.15 200.55 490.15 191.1 490.15 181.75 483.65 175.05 483.4 174.8 483.25 174.55 475.8 164.45 462.6 158.7 449.85 153.1 431.95 152.1 414.65 151.15 401.45 154.95 Z"/>
</g>
</defs>
<g transform="matrix(1,0,0,1,0,0)">
<use xlink:href="#l6"/>
</g>
<g transform="matrix(1,0,0,1,0,0)">
<use xlink:href="#l5"/>
</g>
<g transform="matrix(1,0,0,1,0,0)">
<use xlink:href="#l4"/>
</g>
<g transform="matrix(1,0,0,1,0,0)">
<use xlink:href="#l3"/>
</g>
<g transform="matrix(1,0,0,1,0,0)">
<use xlink:href="#l2"/>
</g>
<g transform="matrix(1,0,0,1,0,0)">
<use xlink:href="#l1"/>
</g>
<g transform="matrix(1,0,0,1,0,0)">
<use xlink:href="#l0"/>
</g>
</svg>
