<svg xmlns="http://www.w3.org/2000/svg" xmlns:xlink="http://www.w3.org/1999/xlink" width="100%" height="100%" viewBox="0 0 512 512">
<!-- Vectorization by Rodrigo Polo https://github.com/rodrigopolo/logotipos-politicos -->
<defs>
<g id="l5">
<path fill="#E2262A" stroke="none" d="M 359.5 316.35 Q 403.3 274.85 403.3 216.15 403.3 157.5 359.5 116 315.75 74.65 253.95 74.65 192.1 74.65 148.45 116 104.65 157.45 104.65 216.15 104.65 274.85 148.45 316.35 192.15 357.65 253.95 357.75 315.7 357.7 359.5 316.35 Z"/>
</g>
<g id="l4">
<path fill="#FFFFFF" stroke="none" d="M 353.25 309.9 Q 394.4 271.1 394.4 216.2 394.4 161.3 353.25 122.45 312.15 83.65 254 83.65 195.85 83.65 154.7 122.45 113.6 161.3 113.6 216.2 113.6 271.1 154.7 309.9 195.85 348.75 254 348.75 312.15 348.75 353.25 309.9 Z"/>
</g>
<g id="l3">
<path fill="#FDC427" stroke="none" d="M 214.2 158 Q 214.2 174.25 225.7 185.75 237.2 197.25 253.45 197.25 269.7 197.25 281.2 185.75 292.7 174.25 292.7 158 292.7 141.75 281.2 130.25 269.7 118.75 253.45 118.75 237.2 118.75 225.7 130.25 214.2 141.75 214.2 158 Z"/>
</g>
<g id="l2">
<path fill="#FDC427" stroke="none" d="M 253.95 83.65 Q 249.95 83.6 246.15 83.75 L 250.65 118.9 250.6 118.9 250.85 120.65 256 120.65 259.8 83.7 Q 257.25 83.55 253.95 83.65 M 387.75 174.7 Q 385.44375 167.937109375 382.25 161.5 L 288 155.25 287.75 159.45 387.75 174.7 M 335.4 107.95 Q 329.95 104.25 324.55 101.2 L 284.1 133.65 284.05 133.6 282.05 135.25 283.6 137.75 286.05 136.3 286.05 136.3 335.4 107.95 M 222.15 139.45 L 224 136.1 181.65 102.15 Q 176.163671875 105.3421875 170.8 109.15 L 170.8 109.2 222.15 139.45 M 219.2 160.7 L 218.8 156.4 214.3 156.7 214.3 156.75 124.85 163.05 Q 122.0078125 169.183203125 119.7 176.1 L 219.2 160.7 Z"/>
</g>
<g id="l1">
<path fill="#1C4399" stroke="none" d="M 390.7 236.4 Q 387.4 235.1 382.15 234.15 357.65 229.35 336.1 214.7 L 328.9 210.6 317.45 202.8 289.55 182.6 286.35 179.2 282.45 173.9 265.75 153.4 265.45 153.1 264.9 152.7 Q 261.15 149.75 259.9 154.2 L 259.2 156.95 Q 258.7 157.8 258.3 157.8 257.95 157.75 257.25 157 255.95 155.55 253.65 155.5 251.4 155.5 248.8 156.75 248.3 155.65 247.7 155.15 247.35 154.75 246.25 154.15 244.55 153.15 242.35 154 240.3 154.95 238.35 157.5 L 230.55 165.55 214.65 179.3 208.1 183.8 176.75 201.45 157.1 211.45 Q 136.4 220.5 115.1 236.35 L 115.45 238.8 392.4 238.8 392.55 238.4 Q 392.1 237.25 390.7 236.4 Z"/>
</g>
<g id="l0">
<path fill="#E2262A" stroke="none" d="M 367.75 419.15 Q 367.75 417.65 367.35 416.35 366.9 415.1 366.05 414.15 365.15 413.2 364.1 412.6 362.95 412.05 361.75 411.8 L 359.85 411.5 352.05 411.4 Q 351.3 411.4 350.8 411.9 350.3 412.35 350.3 413.3 L 350.3 436.2 350.45 436.55 350.8 436.75 351.65 436.95 354.2 436.95 354.95 436.75 355.4 436.55 355.5 436.2 355.5 428.05 357.65 428.05 Q 360.25 428.05 362 427.45 363.75 426.9 365.15 425.8 366.4 424.6 367.1 422.95 367.75 421.3 367.75 419.15 M 359.3 415.5 Q 360.05 415.7 360.7 416 361.35 416.45 361.9 417.35 362.4 418.25 362.4 419.55 362.4 420.35 362.1 421.35 361.85 422.2 361.25 422.8 360.8 423.35 359.85 423.75 359 424.1 357.8 424.1 L 355.5 424.1 355.5 415.45 359.3 415.5 M 391.1 411.4 L 389.8 411.3 387.85 411.55 387.4 411.75 387.3 412.1 387.3 427.45 Q 387.3 428.7 386.9 429.85 386.55 430.95 385.85 431.6 385.25 432.35 384.25 432.7 383.35 433.1 382.05 433.1 380.9 433.1 379.9 432.7 378.9 432.4 378.25 431.6 377.45 430.9 377.15 429.8 376.8 428.7 376.8 427.15 L 376.8 412.1 376.65 411.75 376.25 411.55 374.25 411.3 372.9 411.4 372.15 411.55 371.7 411.75 371.6 412.1 371.6 427.6 Q 371.6 430.05 372.3 431.85 373.05 433.75 374.35 434.9 375.6 436.1 377.55 436.75 379.55 437.35 381.9 437.35 384.5 437.35 386.4 436.6 388.4 436 389.7 434.7 390.95 433.45 391.75 431.6 392.35 429.8 392.35 427.4 L 392.35 412.1 392.3 411.75 391.85 411.55 391.1 411.4 M 412.8 414.45 L 412.8 412.55 412.6 411.9 412.4 411.55 412.1 411.4 399.4 411.4 Q 398.8 411.4 398.3 411.8 397.85 412.2 397.85 413.1 L 397.85 435.2 Q 397.85 436.05 398.3 436.5 398.75 436.9 399.4 436.9 L 412.15 436.9 412.45 436.75 412.7 436.45 412.9 435.8 412.9 433.9 412.7 433.3 412.45 432.95 412.15 432.85 403 432.85 403 425.6 411 425.6 411.25 425.3 411.4 424.6 411.4 422.75 411.25 422.2 411 421.8 410.7 421.7 403 421.7 403 415.5 412.1 415.5 412.4 415.4 412.6 415 412.8 414.45 M 429.35 411.8 Q 427.55 411.4 425.4 411.4 L 418.95 411.4 Q 418.4 411.4 417.9 411.8 417.5 412.2 417.5 413.1 L 417.5 435.2 Q 417.5 436.05 417.9 436.5 418.35 436.9 418.95 436.9 L 428.5 436.7 Q 430.15 436.35 430.9 436.05 431.85 435.75 432.95 435.15 433.85 434.5 434.5 433.7 435.15 432.9 435.55 431.7 435.85 430.7 435.85 429.25 435.85 428 435.5 426.9 435.15 425.95 434.45 425.1 433.7 424.25 432.8 423.85 432.05 423.4 430.8 423.1 431.5 422.9 432.35 422.3 433.05 421.75 433.45 421.15 433.95 420.35 434.2 419.65 434.4 418.7 434.4 417.9 434.4 416.3 433.8 415 433.25 413.85 432.1 413.05 430.9 412.2 429.35 411.8 M 429.2 418.55 L 429 419.85 Q 428.8 420.5 428.4 420.95 L 427.2 421.65 Q 426.55 421.95 425.4 421.95 L 422.55 421.95 422.55 415.3 425.15 415.3 Q 426.25 415.3 427.1 415.5 427.7 415.7 428.25 416.2 428.7 416.5 429 417.15 429.2 417.85 429.2 418.55 M 422.55 432.95 L 422.55 425.65 425.65 425.65 Q 426.85 425.65 427.9 425.95 428.85 426.25 429.35 426.65 429.95 427.2 430.25 427.85 430.5 428.5 430.5 429.45 430.5 430.2 430.25 430.95 429.95 431.55 429.35 432.05 428.95 432.4 428.05 432.7 427.4 432.95 426.3 432.95 L 422.55 432.95 M 453.7 433.1 L 453.5 432.7 453.15 432.65 445.15 432.65 445.15 412.1 444.95 411.75 444.6 411.55 443.8 411.4 441.25 411.4 440.5 411.55 440.1 411.75 439.95 412.1 439.95 435.2 Q 439.95 436.05 440.4 436.5 440.85 436.9 441.5 436.9 L 453.15 436.9 453.5 436.75 453.7 436.35 453.9 435.75 453.9 433.75 453.7 433.1 M 479.1 418.1 Q 478.3 415.65 476.85 414.1 475.35 412.55 473.15 411.75 470.9 411 468 411 465 411 462.65 411.9 460.3 412.9 458.85 414.55 457.25 416.35 456.5 418.8 455.7 421.2 455.7 424.3 455.7 427.7 456.5 430.1 457.2 432.65 458.65 434.2 460.05 435.75 462.35 436.6 464.6 437.35 467.5 437.35 470.55 437.35 472.9 436.45 475.2 435.45 476.65 433.8 478.25 432 479 429.55 479.75 427 479.75 423.9 479.75 420.45 479.1 418.1 M 467.8 415.2 Q 469.8 415.2 470.95 415.9 472.25 416.55 473 417.7 473.75 418.95 474.05 420.5 474.4 422.25 474.4 424.15 474.4 425.85 474.05 427.6 473.75 429.2 472.9 430.45 472.15 431.6 470.85 432.4 469.6 433.1 467.7 433.1 465.75 433.1 464.45 432.45 463.3 431.8 462.5 430.65 461.8 429.55 461.45 427.85 461.15 426.25 461.15 424.1 461.15 422.15 461.45 420.65 461.8 418.95 462.55 417.85 463.4 416.65 464.65 416 465.9 415.2 467.8 415.2 M 493.3 411.1 L 491.55 411 Q 489.75 411 488.2 411.4 486.65 411.9 485.5 412.8 484.35 413.7 483.65 415.15 483 416.45 483 418.3 483 419.95 483.5 421.05 483.9 422.2 484.7 423.05 485.35 423.9 486.45 424.45 L 492.1 427.35 Q 492.9 427.85 493.3 428.45 493.8 429.05 493.8 429.85 493.8 430.65 493.5 431.25 493.25 431.9 492.75 432.35 492.15 432.7 491.45 432.95 490.75 433.15 489.8 433.15 488.2 433.15 487.3 432.85 L 485.35 432.1 484.1 431.4 483.35 431.1 483 431.25 482.75 431.55 482.55 433.25 482.65 434.65 483.05 435.4 483.85 435.95 485.35 436.6 487.3 437.1 489.75 437.35 Q 491.8 437.35 493.45 436.8 495.15 436.3 496.35 435.3 497.7 434.3 498.4 432.8 499.15 431.25 499.15 429.25 499.15 427.75 498.7 426.6 498.3 425.55 497.45 424.6 496.65 423.75 495.75 423.2 L 489.9 420.35 Q 489.2 419.9 488.7 419.2 488.25 418.7 488.25 417.75 L 488.45 416.7 Q 488.65 416.25 489.05 415.8 489.55 415.45 490.15 415.2 L 491.6 415 Q 492.55 415 493.55 415.3 L 497.05 416.75 497.4 416.6 497.55 416.25 497.7 415.65 497.7 413.8 497.5 412.85 497.2 412.55 496.4 412.05 493.3 411.1 M 17.4 411.55 L 16.65 411.4 14.1 411.4 13.35 411.55 12.9 411.75 12.8 412.1 12.8 435.2 Q 12.8 436.05 13.2 436.5 13.65 436.9 14.3 436.9 L 26 436.9 26.35 436.75 26.55 436.35 26.75 435.75 26.75 433.75 26.55 433.1 26.35 432.7 26 432.65 17.95 432.65 17.95 412.1 17.8 411.75 17.4 411.55 M 33.6 411.4 L 31.05 411.4 30.35 411.55 29.85 411.75 29.75 412.1 29.75 436.2 29.85 436.55 31.05 436.95 33.6 436.95 34.35 436.75 34.8 436.55 34.9 436.2 34.9 412.1 34.8 411.75 34.35 411.55 33.6 411.4 M 41.85 411.4 Q 41.2 411.4 40.8 411.8 40.3 412.2 40.3 413.1 L 40.3 435.2 Q 40.3 436.05 40.8 436.5 41.15 436.9 41.85 436.9 L 51.45 436.7 Q 52.95 436.35 53.8 436.05 54.6 435.85 55.8 435.15 56.7 434.5 57.4 433.7 57.95 432.9 58.4 431.7 58.75 430.55 58.75 429.25 58.75 427.9 58.3 426.9 57.95 425.85 57.25 425.1 56.6 424.25 55.7 423.85 54.9 423.4 53.65 423.1 54.45 422.9 55.2 422.3 55.75 421.95 56.35 421.15 56.75 420.5 57 419.65 57.2 418.7 57.2 417.9 57.2 416.15 56.65 415 56.05 413.75 54.9 413.05 53.8 412.2 52.25 411.8 50.4 411.4 48.2 411.4 L 41.85 411.4 M 45.4 415.3 L 48 415.3 Q 49.15 415.3 49.9 415.5 50.55 415.7 51.05 416.2 51.55 416.5 51.8 417.15 52.1 417.75 52.1 418.55 L 51.8 419.85 Q 51.65 420.5 51.25 420.95 50.65 421.4 50.1 421.65 49.4 421.95 48.3 421.95 L 45.4 421.95 45.4 415.3 M 50.7 425.95 Q 51.65 426.2 52.25 426.65 52.85 427.25 53.1 427.85 53.35 428.5 53.35 429.45 53.35 430.2 53.1 430.95 52.8 431.55 52.25 432.05 51.7 432.45 50.95 432.7 50.35 432.95 49.15 432.95 L 45.4 432.95 45.4 425.65 48.45 425.65 Q 49.7 425.65 50.7 425.95 M 64.3 411.4 Q 63.7 411.4 63.2 411.8 62.85 412.2 62.85 413.1 L 62.85 435.2 Q 62.85 436.05 63.2 436.5 63.7 436.9 64.3 436.9 L 77.05 436.9 77.45 436.75 77.7 436.45 77.8 435.8 77.8 433.9 77.7 433.3 77.45 432.95 77.05 432.85 67.9 432.85 67.9 425.6 75.95 425.6 76.2 425.3 76.4 424.6 76.4 422.75 76.2 422.2 75.95 421.8 75.65 421.7 67.9 421.7 67.9 415.5 77 415.5 77.3 415.4 77.55 415 77.75 414.45 77.75 412.55 77.55 411.9 77.3 411.55 77 411.4 64.3 411.4 M 82.9 411.8 Q 82.45 412.2 82.45 413.1 L 82.45 436.2 82.6 436.55 82.95 436.75 83.75 436.95 86.3 436.95 87.1 436.75 87.55 436.55 87.65 436.2 87.65 426.45 89.25 426.45 Q 90.05 426.45 90.7 426.75 91.3 427 91.8 427.5 L 92.65 428.7 95.95 436.55 96.4 436.8 97.15 436.95 100.05 436.95 100.9 436.8 101.25 436.6 101.35 436.25 101.25 435.7 97.95 427.95 97.15 426.65 96.2 425.7 95.1 425.05 Q 96.15 424.75 97.2 424.1 98.05 423.55 98.75 422.65 99.4 421.75 99.75 420.75 100.05 419.55 100.05 418.4 100.05 416.9 99.55 415.7 99.15 414.6 98.3 413.7 97.35 412.85 96.2 412.3 95.1 411.8 93.4 411.6 L 84 411.4 Q 83.35 411.4 82.9 411.8 M 91.35 415.45 L 92.25 415.65 Q 93.5 415.95 94.1 416.85 94.7 417.75 94.7 418.95 94.7 419.85 94.4 420.45 94.1 421.15 93.6 421.65 93 422.1 92.15 422.4 91.45 422.55 90.25 422.55 L 87.65 422.55 87.65 415.4 91.35 415.45 M 126.1 436.7 Q 126.25 436.45 126.2 436.05 L 117.8 411.8 117.25 411.5 116.2 411.35 112.75 411.35 111.75 411.5 111.25 411.8 111 412.3 102.8 436.05 Q 102.8 436.45 102.95 436.6 103.2 436.9 103.7 436.95 L 106.5 436.95 107.3 436.8 107.7 436.55 107.9 436.05 109.45 431.1 119.05 431.1 120.75 436.2 120.95 436.6 121.4 436.85 122.25 437 125.3 436.95 Q 125.9 436.95 126.1 436.7 M 117.85 427.1 L 110.65 427.1 114.25 416.3 117.85 427.1 M 151.3 411.55 L 150.9 411.75 150.75 412.1 150.75 436.2 150.9 436.55 151.3 436.75 152.15 436.95 154.65 436.95 155.4 436.75 155.8 436.55 155.95 436.2 155.95 412.1 155.8 411.75 155.4 411.55 154.65 411.4 152.15 411.4 151.3 411.55 M 146.95 414.5 L 146.85 413.85 146.7 413.4 146.35 412.95 145.4 412.3 143.9 411.65 142.05 411.2 140.05 411.05 Q 137.45 411.05 135.25 411.9 133.05 412.8 131.55 414.5 130 416.2 129.15 418.8 128.25 421.3 128.25 424.5 128.25 427.75 129 430.1 129.8 432.4 131.3 434.1 132.75 435.7 134.9 436.5 136.9 437.3 139.6 437.3 L 142.05 437.1 144.1 436.55 145.65 435.85 146.45 435.25 146.8 434.9 147.05 433.85 147 431.9 146.9 431.25 Q 146.8 431.05 146.7 430.95 146.55 430.85 146.4 430.85 L 145.65 431.15 142.8 432.65 Q 141.85 432.95 140.4 432.95 138.85 432.95 137.75 432.4 136.45 431.8 135.65 430.8 134.8 429.75 134.35 428.15 133.8 426.45 133.8 424.25 133.8 422.1 134.25 420.55 134.7 418.9 135.5 417.75 136.3 416.6 137.55 416 138.8 415.4 140.25 415.4 141.75 415.4 142.65 415.7 L 144.35 416.5 145.55 417.25 Q 145.95 417.6 146.3 417.6 L 146.6 417.45 146.8 417.1 146.95 416.45 146.95 414.5 M 167.1 411.9 Q 164.8 412.9 163.25 414.55 161.7 416.3 160.9 418.8 160.15 421.2 160.15 424.3 160.15 427.6 160.9 430.1 161.65 432.65 163.05 434.2 164.55 435.75 166.85 436.6 169 437.35 171.95 437.35 175 437.35 177.3 436.45 179.7 435.45 181.05 433.8 182.65 432.1 183.5 429.55 184.25 427 184.25 423.9 184.25 420.5 183.5 418.1 182.65 415.55 181.25 414.1 179.8 412.6 177.55 411.75 175.35 411 172.45 411 169.4 411 167.1 411.9 M 167 417.85 Q 167.85 416.65 169.05 416 170.4 415.2 172.3 415.2 174.2 415.2 175.4 415.9 176.7 416.55 177.5 417.7 178.2 418.9 178.45 420.5 178.85 422.15 178.85 424.15 178.85 425.95 178.45 427.6 178.15 429.15 177.35 430.45 176.6 431.6 175.3 432.4 173.95 433.1 172.15 433.1 170.2 433.1 168.95 432.45 167.65 431.8 166.95 430.65 166.25 429.55 165.9 427.85 165.6 426.25 165.6 424.1 165.6 422.15 165.9 420.65 166.2 419.1 167 417.85 M 205.35 411.6 L 205 411.85 204.85 412.2 205 429.85 204.95 429.85 196.1 412.8 195.35 412 194.45 411.6 193.15 411.4 190.4 411.4 Q 189.6 411.4 189.1 411.9 188.55 412.35 188.55 413.3 L 188.55 436.1 188.6 436.5 188.95 436.75 189.65 436.95 192 436.95 192.7 436.75 193.1 436.5 193.2 436.1 193.1 417.1 202.45 435.3 203.3 436.3 Q 203.6 436.6 204.15 436.75 L 205.35 436.95 207.55 436.95 208.3 436.8 208.95 436.45 209.35 435.85 209.5 435.05 209.5 412.2 209.4 411.85 209.1 411.6 208.35 411.4 206.1 411.4 205.35 411.6 M 244.35 429.8 Q 245.25 427.3 245.25 423.8 245.25 420.65 244.4 418.4 243.45 416.05 241.9 414.6 240.35 413.1 237.9 412.3 235.55 411.4 232.15 411.4 L 225.6 411.4 Q 225 411.4 224.55 411.8 224.1 412.15 224.1 413.1 L 224.1 435.2 Q 224.1 436.05 224.55 436.5 224.95 436.9 225.6 436.9 L 231.7 436.9 Q 235.1 436.9 237.55 436.1 239.95 435.45 241.65 433.85 243.4 432.3 244.35 429.8 M 229.25 415.5 L 231.85 415.5 Q 234.2 415.5 235.75 416.15 237.1 416.7 238.1 417.9 239.05 419.15 239.45 420.6 239.9 422.3 239.9 423.95 239.9 426.1 239.45 427.85 238.9 429.5 237.95 430.6 236.95 431.7 235.5 432.2 234.1 432.85 231.9 432.85 L 229.25 432.85 229.25 415.5 M 264.4 414.45 L 264.4 412.55 264.25 411.9 264 411.55 263.7 411.4 251 411.4 Q 250.4 411.4 249.9 411.8 249.5 412.2 249.5 413.1 L 249.5 435.2 Q 249.5 436.05 249.9 436.5 250.35 436.9 251 436.9 L 263.75 436.9 264.1 436.75 264.35 436.45 264.5 435.8 264.5 433.9 264.35 433.3 264.1 432.95 263.75 432.85 254.6 432.85 254.6 425.6 262.65 425.6 262.9 425.3 263.05 424.6 263.05 422.75 262.9 422.2 262.65 421.8 262.35 421.7 254.6 421.7 254.6 415.5 263.7 415.5 264 415.4 264.25 415 264.4 414.45 M 291.95 433.1 L 291.7 432.7 291.3 432.65 283.3 432.65 283.3 412.1 283.2 411.75 282.8 411.55 282 411.4 279.5 411.4 278.7 411.55 278.25 411.75 278.2 412.1 278.2 435.2 Q 278.2 436.05 278.55 436.5 279.05 436.9 279.7 436.9 L 291.3 436.9 291.7 436.75 291.95 436.35 292.05 435.75 292.05 433.75 291.95 433.1 M 321.85 415.15 Q 321.15 416.45 321.15 418.3 321.15 419.9 321.65 421.05 322.1 422.1 322.85 423.05 323.65 423.9 324.55 424.45 L 330.3 427.35 Q 331.15 427.95 331.55 428.45 332 429.15 332 429.85 332 430.65 331.75 431.25 331.35 431.95 330.95 432.35 330.4 432.7 329.65 432.95 329 433.15 327.95 433.15 326.4 433.15 325.45 432.85 L 323.55 432.1 322.3 431.4 321.45 431.1 321.15 431.25 320.9 431.55 320.85 434.65 321.2 435.4 322.05 435.95 323.5 436.6 325.5 437.1 327.9 437.35 Q 329.9 437.35 331.6 436.8 333.3 436.3 334.6 435.3 335.85 434.3 336.65 432.8 337.4 431.25 337.4 429.25 337.4 427.75 336.95 426.6 336.45 425.55 335.65 424.6 334.95 423.8 333.9 423.2 L 328.15 420.35 Q 327.35 419.9 326.9 419.2 326.5 418.65 326.5 417.75 L 326.6 416.7 Q 326.8 416.25 327.3 415.8 327.7 415.4 328.35 415.2 L 329.8 415 Q 330.75 415 331.75 415.3 L 335.2 416.75 335.55 416.6 335.75 416.25 335.85 415.65 335.85 413.2 335.7 412.85 335.4 412.55 334.65 412.05 331.55 411.1 329.7 411 Q 328 411 326.4 411.4 324.85 411.9 323.7 412.8 322.45 413.75 321.85 415.15 M 311.3 411.75 Q 309.1 411 306.2 411 303.15 411 300.85 411.9 298.55 412.9 297 414.55 295.4 416.4 294.65 418.8 293.9 421.2 293.9 424.3 293.9 427.6 294.6 430.1 295.4 432.65 296.85 434.2 298.25 435.7 300.55 436.6 302.75 437.35 305.75 437.35 308.7 437.35 311 436.45 313.4 435.5 314.85 433.8 316.35 432.15 317.2 429.55 318 427 318 423.9 318 420.5 317.2 418.1 316.5 415.65 314.95 414.1 313.5 412.55 311.3 411.75 M 311.25 417.7 Q 311.9 418.85 312.25 420.5 312.6 422.25 312.6 424.15 312.6 425.85 312.25 427.6 311.85 429.25 311.15 430.45 310.4 431.55 309.05 432.4 307.75 433.1 305.85 433.1 303.95 433.1 302.7 432.45 301.4 431.8 300.75 430.65 299.95 429.45 299.65 427.85 299.35 425.9 299.35 424.1 299.35 422.5 299.65 420.65 299.95 419.1 300.8 417.85 301.65 416.6 302.8 416 304.1 415.2 306.05 415.2 307.95 415.2 309.15 415.9 310.4 416.55 311.25 417.7 M 278.2 372.75 Q 275.9 373.7 274.4 375.4 272.8 377.15 272 379.55 271.25 382.1 271.25 385.15 271.25 388.45 271.95 391 272.75 393.45 274.2 395 275.65 396.6 277.9 397.35 280.15 398.2 283.1 398.2 286.1 398.2 288.4 397.25 290.6 396.4 292.25 394.65 293.7 392.9 294.55 390.3 295.35 387.85 295.35 384.7 295.35 381.5 294.6 379 293.85 376.5 292.4 374.95 290.9 373.4 288.65 372.55 286.35 371.85 283.55 371.85 280.6 371.85 278.2 372.75 M 277 381.5 Q 277.35 379.9 278.15 378.7 278.8 377.6 280.2 376.8 281.5 376.05 283.4 376.05 285.2 376.05 286.55 376.75 287.8 377.35 288.6 378.55 289.25 379.7 289.65 381.35 289.95 382.85 289.95 385 289.95 386.9 289.65 388.45 289.25 390.05 288.5 391.25 287.75 392.45 286.35 393.15 285.2 393.95 283.25 393.95 281.3 393.95 280.05 393.3 278.8 392.65 278.05 391.5 277.3 390.2 277 388.65 276.7 386.75 276.7 384.9 276.7 383.45 277 381.5 M 250.55 376.4 L 250.9 376.45 257.25 376.45 257.25 397.05 257.4 397.35 257.75 397.6 258.65 397.8 261.1 397.8 261.85 397.6 262.35 397.35 262.4 397.05 262.4 376.45 268.85 376.45 269.15 376.4 269.4 376 269.55 375.4 269.55 373.35 269.4 372.75 269.15 372.35 268.85 372.25 250.9 372.25 250.55 372.35 250.3 372.75 250.1 374.4 250.3 376 250.55 376.4 M 233.7 373.6 L 232.95 372.8 232 372.4 230.7 372.25 228 372.25 Q 227.15 372.25 226.7 372.75 226.15 373.15 226.15 374.1 L 226.15 397 226.2 397.35 226.55 397.6 227.3 397.8 229.55 397.8 230.35 397.6 230.7 397.35 230.8 397 230.65 377.95 230.7 377.95 232.8 382.65 240.05 396.2 240.85 397.1 Q 241.3 397.55 241.8 397.6 L 242.95 397.75 245.15 397.75 245.95 397.65 246.55 397.3 247 396.7 247.15 395.95 247.15 373.05 247 372.75 246.7 372.4 245.95 372.25 243.7 372.25 242.95 372.4 242.55 372.75 242.5 373.05 242.55 390.7 233.7 373.6 M 221.05 372.35 L 220.75 372.25 208.05 372.25 Q 207.4 372.25 206.95 372.65 206.5 373.05 206.5 373.9 L 206.5 396.05 Q 206.5 396.95 206.95 397.35 207.4 397.7 208.05 397.7 L 220.8 397.7 221.15 397.6 221.4 397.25 221.55 396.7 221.55 394.75 221.4 394.15 221.15 393.8 220.8 393.7 211.65 393.7 211.65 386.45 219.4 386.45 219.7 386.4 219.95 386.05 220.05 385.5 220.05 383.55 219.95 382.95 219.7 382.65 219.4 382.5 211.65 382.5 211.65 376.3 220.75 376.3 221.05 376.2 221.3 375.9 221.45 375.3 221.45 373.35 221.3 372.75 221.05 372.35 M 201.05 373 L 201 372.6 200.55 372.35 199.75 372.2 197.3 372.2 196.5 372.35 196.05 372.6 195.95 373 195.95 397.05 196.05 397.35 196.5 397.6 197.3 397.8 199.75 397.8 200.55 397.6 201 397.35 201.05 397.05 201.05 373 M 154.9 372.35 L 154.1 372.2 151.55 372.2 150.8 372.35 150.4 372.6 150.25 373 150.25 397.05 150.4 397.35 150.8 397.6 151.55 397.8 154.1 397.8 154.9 397.6 155.3 397.35 155.45 397.05 155.45 373 155.3 372.6 154.9 372.35 M 161.4 372.8 Q 160.9 373.35 160.9 374.35 L 160.9 397.05 160.95 397.35 161.4 397.6 162.05 397.8 164.5 397.8 165.2 397.6 165.65 397.35 165.7 397.05 165.7 376.3 165.8 376.3 172.9 397 173.15 397.35 173.6 397.65 174.4 397.8 176.65 397.85 177.5 397.7 177.9 397.35 178.15 397 185.55 376.3 185.6 376.3 185.6 397.05 185.7 397.35 186.1 397.6 186.9 397.8 189.25 397.8 190 397.6 190.4 397.35 190.5 397.05 190.5 374.35 190.35 373.45 190 372.8 189.35 372.4 188.45 372.25 184.95 372.25 183.65 372.4 Q 183.05 372.6 182.75 372.9 L 182.05 373.85 175.75 390.3 175.7 390.3 169.6 373.85 Q 169.25 373.15 168.8 372.9 168.4 372.6 167.7 372.4 L 162.8 372.25 Q 161.9 372.25 161.4 372.8 M 124.35 373.05 L 124.6 374.2 132.35 397.2 132.6 397.45 133.65 397.8 137.55 397.85 138.55 397.7 139.05 397.35 139.3 396.8 147.15 373.1 Q 147.3 372.75 147.05 372.5 146.75 372.2 146.4 372.2 L 143.5 372.2 142.7 372.35 142.25 372.75 142.05 373.2 136.05 392.8 136 392.8 129.55 372.6 129.2 372.35 128.4 372.2 125.35 372.2 Q 124.75 372.2 124.55 372.5 124.25 372.65 124.35 373.05 M 98.15 385.15 Q 98.15 388.55 98.9 391 99.65 393.45 101.15 395 102.55 396.6 104.85 397.35 107.15 398.2 110 398.2 113 398.2 115.3 397.25 117.6 396.35 119.15 394.65 120.7 392.85 121.45 390.3 122.25 387.9 122.25 384.7 122.25 381.4 121.5 379 120.75 376.5 119.3 374.95 117.9 373.4 115.65 372.55 113.35 371.85 110.5 371.85 107.45 371.85 105.15 372.75 102.8 373.75 101.3 375.4 99.8 377.05 99 379.55 98.15 382.1 98.15 385.15 M 113.4 376.75 Q 114.7 377.35 115.45 378.55 116.25 379.7 116.55 381.35 116.8 382.85 116.8 385 116.8 386.9 116.55 388.45 116.25 390 115.4 391.25 114.55 392.5 113.35 393.15 112.05 393.95 110.15 393.95 108.25 393.95 106.95 393.3 105.7 392.6 105 391.5 104.3 390.3 103.95 388.65 103.65 387.15 103.65 384.9 103.65 383 103.95 381.5 104.3 379.85 105 378.7 105.75 377.6 107.1 376.8 108.45 376.05 110.3 376.05 112.15 376.05 113.4 376.75 M 72.3 372.9 Q 71.85 372.55 71.25 372.4 L 66.3 372.25 Q 65.4 372.25 64.8 372.8 64.3 373.35 64.3 374.35 L 64.3 397.05 64.45 397.35 64.8 397.6 65.6 397.8 67.95 397.8 68.7 397.6 69.1 397.35 69.2 397.05 69.2 376.3 69.25 376.3 76.4 397 76.65 397.35 77.05 397.65 77.9 397.8 80.15 397.85 80.9 397.7 81.4 397.35 81.7 397 89.1 376.3 89.1 397.05 89.2 397.35 89.65 397.6 90.3 397.8 92.75 397.8 93.55 397.6 93.9 397.35 93.95 397.05 93.9 373.45 93.55 372.8 92.85 372.4 91.95 372.25 88.45 372.25 87.15 372.4 Q 86.55 372.6 86.25 372.9 L 85.5 373.85 79.25 390.3 79.15 390.3 73.1 373.85 Q 72.8 373.2 72.3 372.9 M 440.4 373.2 L 440.1 372.65 439.5 372.35 438.45 372.2 435 372.2 434 372.35 433.5 372.65 433.25 373.15 425.1 396.8 Q 425.1 397.3 425.3 397.5 425.4 397.65 425.95 397.8 L 428.75 397.8 429.55 397.65 429.95 397.35 431.8 391.9 441.3 391.9 443.05 397.05 443.25 397.45 443.65 397.7 444.55 397.85 447.55 397.8 Q 448.15 397.7 448.4 397.55 448.55 397.35 448.55 396.85 L 440.4 373.2 M 436.5 377.15 L 436.55 377.15 440.15 387.95 432.9 387.95 436.5 377.15 M 415.55 373 L 415.5 372.6 415 372.35 414.25 372.2 411.75 372.2 411 372.35 410.55 372.6 410.4 373 410.4 396.05 Q 410.4 396.95 410.85 397.35 411.3 397.7 411.9 397.7 L 423.6 397.7 424 397.6 424.25 397.2 424.35 396.5 424.35 394.6 424.25 393.95 424 393.6 423.6 393.4 415.55 393.4 415.55 373 M 384.6 372.2 L 383.65 372.35 383.15 372.65 382.9 373.15 374.75 396.8 Q 374.75 397.3 374.9 397.5 375.1 397.65 375.65 397.8 L 378.35 397.8 379.25 397.65 379.6 397.35 381.4 391.9 390.95 391.9 392.65 397.05 392.9 397.45 393.3 397.7 394.15 397.85 397.2 397.8 Q 397.75 397.7 398 397.55 398.2 397.35 398.15 396.85 L 390 373.2 389.7 372.65 389.15 372.35 388.1 372.2 384.6 372.2 M 386.15 377.15 L 389.8 387.95 382.5 387.95 386.15 377.15 M 355.9 372.25 Q 355.2 372.25 354.8 372.65 354.4 373.05 354.4 373.9 L 354.4 397.05 354.5 397.35 354.9 397.6 355.7 397.8 358.2 397.8 359 397.6 359.4 397.35 359.55 397.05 359.55 387.3 361.15 387.3 Q 362 387.3 362.55 387.6 363.15 387.75 363.75 388.3 L 364.6 389.55 367.7 397 367.9 397.35 368.25 397.65 369.05 397.8 371.9 397.8 372.8 397.65 373.15 397.35 373.2 397.05 373.15 396.5 369.8 388.8 369 387.45 368.05 386.6 366.95 385.9 Q 368.2 385.5 369.15 384.9 370 384.35 370.65 383.5 371.25 382.7 371.6 381.6 371.9 380.6 371.9 379.25 371.9 377.8 371.5 376.55 370.95 375.3 370.2 374.55 369.2 373.6 368.05 373.15 366.85 372.65 365.3 372.4 L 355.9 372.25 M 362.15 383.45 L 359.55 383.45 359.55 376.2 363.25 376.3 364.15 376.45 Q 365.5 376.85 366.05 377.7 366.6 378.5 366.6 379.8 366.6 380.55 366.35 381.3 366 382 365.5 382.45 364.8 382.95 364.1 383.2 363.3 383.45 362.15 383.45 M 326.1 380.05 Q 326.1 378.45 325.7 377.2 325.1 375.75 324.45 375 323.5 374.05 322.45 373.45 321.35 372.9 320.1 372.65 L 316.45 372.25 310.45 372.25 Q 309.6 372.25 309.15 372.75 308.7 373.2 308.7 374.1 L 308.7 397.05 308.8 397.35 309.2 397.6 310 397.8 312.55 397.8 313.3 397.6 313.8 397.35 313.85 397.05 313.85 388.9 316 388.9 Q 318.55 388.9 320.35 388.3 322.15 387.75 323.5 386.6 324.75 385.5 325.45 383.8 326.1 382.1 326.1 380.05 M 319.1 376.9 Q 319.75 377.3 320.3 378.2 320.75 379.05 320.75 380.4 320.75 381.3 320.5 382.2 320.2 383 319.6 383.65 319.1 384.25 318.25 384.55 317.5 384.9 316.15 384.9 L 313.85 384.9 313.85 376.25 317.65 376.4 Q 318.35 376.45 319.1 376.9 M 337.55 372.2 L 336.7 372.35 336.15 372.65 335.85 373.15 327.7 396.8 Q 327.7 397.3 327.9 397.5 328.05 397.65 328.6 397.8 L 331.4 397.8 332.2 397.65 332.6 397.35 334.4 391.9 343.95 391.9 345.65 397.05 345.85 397.45 346.3 397.7 347.15 397.85 350.25 397.8 Q 350.8 397.75 351 397.55 351.15 397.35 351.15 396.85 L 342.95 373.2 342.7 372.65 342.15 372.35 341.1 372.2 337.55 372.2 M 339.1 377.15 L 339.15 377.15 342.75 387.95 335.55 387.95 339.1 377.15 M 244.95 249.65 L 244 247.95 242.3 246.8 239.9 246.5 230.7 246.5 227.4 246.95 Q 225.9 247.25 224.9 248.2 L 223.05 250.65 206.55 294.05 206.4 294.05 190.4 250.6 Q 189.65 249.05 188.3 248.2 187.15 247.3 185.4 246.95 L 181.3 246.5 172.45 246.5 Q 170.1 246.5 168.75 247.9 167.3 249.3 167.3 251.95 L 167.3 311.5 167.65 312.45 168.65 313.1 170.6 313.55 176.85 313.55 178.85 313.1 179.9 312.45 180.2 311.5 180.2 257.1 180.25 257.1 199 311.45 199.6 312.45 200.95 313.2 203 313.6 208.95 313.65 210.95 313.3 212.2 312.6 212.9 311.45 232.25 257.1 232.4 257.1 232.4 311.5 232.7 312.45 233.75 313.1 235.65 313.55 242 313.55 244 313.1 245 312.45 245.25 311.5 245.25 251.95 244.95 249.65 M 269.9 246.3 L 263.3 246.3 261.2 246.8 260.1 247.45 259.75 248.35 259.75 309.1 Q 259.75 311.45 260.9 312.45 262.05 313.4 263.75 313.4 L 294.4 313.4 295.4 313.1 296 312.05 296.4 310.35 296.4 305.15 296 303.4 295.4 302.45 294.4 302.15 273.35 302.15 273.35 248.35 273.1 247.45 271.95 246.8 269.9 246.3 M 350.2 266.85 Q 350.2 262.8 349.1 259.5 347.85 256.1 345.7 253.75 343.55 251.3 340.5 249.65 337.45 248.1 334.4 247.5 L 329.25 246.7 309 246.5 Q 306.9 246.5 305.65 247.75 304.4 248.9 304.4 251.35 L 304.4 311.5 304.7 312.45 305.75 313.1 307.85 313.55 314.5 313.55 316.5 313.1 317.65 312.45 317.95 311.5 317.95 290.15 323.55 290.15 Q 330.2 290.15 335.05 288.6 340 287.1 343.25 284.15 346.65 281.15 348.4 276.8 350.2 272.5 350.2 266.85 M 327.9 257.3 Q 329.95 257.55 331.65 258.65 333.5 259.75 334.7 262.05 335.95 264.3 335.95 267.8 335.95 270.45 335.2 272.65 334.45 274.85 333.1 276.4 331.7 277.95 329.6 278.8 327.3 279.7 324.05 279.7 L 317.95 279.7 317.95 256.95 327.9 257.3 Z"/>
</g>
</defs>
<g transform="matrix(1,0,0,1,0,0)">
<use xlink:href="#l5"/>
</g>
<g transform="matrix(1,0,0,1,0,0)">
<use xlink:href="#l4"/>
</g>
<g transform="matrix(1,0,0,1,0,0)">
<use xlink:href="#l3"/>
</g>
<g transform="matrix(1,0,0,1,0,0)">
<use xlink:href="#l2"/>
</g>
<g transform="matrix(1,0,0,1,0,0)">
<use xlink:href="#l1"/>
</g>
<g transform="matrix(1,0,0,1,0,0)">
<use xlink:href="#l0"/>
</g>
</svg>
