<svg xmlns="http://www.w3.org/2000/svg" xmlns:xlink="http://www.w3.org/1999/xlink" width="100%" height="100%" viewBox="0 0 512 512">
<!-- Vectorization by Rodrigo Polo https://github.com/rodrigopolo/logotipos-politicos -->
<defs>
<g id="l3">
<path fill="#003146" stroke="none" d="M 512 256 Q 512 149.95 437 74.95 362.05 0 256 0 149.95 0 74.95 74.95 0 149.95 0 256 0 362.05 74.95 437 149.95 512 256 512 362.05 512 437 437 512 362.05 512 256 Z"/>
</g>
<g id="l2">
<path fill="#FFFFFF" stroke="none" d="M 505.05 256.1 Q 505.05 152.9 432.05 79.9 359.1 6.95 255.9 6.95 152.7 6.95 79.7 79.9 6.75 152.9 6.75 256.1 6.75 359.3 79.7 432.25 152.7 505.25 255.9 505.25 359.1 505.25 432.05 432.25 505.05 359.3 505.05 256.1 Z"/>
</g>
<g id="l1">
<path fill="#003146" stroke="none" d="M 218.25 169.25 Q 211.4033203125 164.6572265625 203.35 162.6 198.11796875 161.15 192.4 161.15 172.45 161.15 158.2 179.2 143.9 197.5 143.9 223.1 L 142.3 244.7 Q 140.15 267.05 137.95 271.9 L 143.65 271.9 Q 149.85 272.15 152.25 273.8 156.05 275.65 162.75 277 166.760546875 277.7171875 169.6 277.75 179.894140625 284.85 192.4 284.85 203.0912109375 284.85 212.1 279.8 237.783984375 282.40390625 248.7 273 254.4 268.15 254.65 262.45 248.2 260.6 244.7 245.2 L 242.8 230.15 Q 243.85 185.95 218.25 169.25 M 442.2 156.05 Q 434.95 155.5 429.8 166.55 427.1 171.9 426.05 177.6 416.6 201.85 400.45 234.15 376.7 282.4 348.7 307.45 337.4 317.45 321.75 316.9 L 308.3 314.5 Q 290.5 311.25 276.5 310.7 267.85 310.15 253.6 313.4 L 240.9 316.9 Q 235 318 224.75 318 204.55 318 183.8 313.4 163.3 308.8 138.5 279.2 L 118.05 250.35 Q 77.9 175.95 75.7 163.55 74.1 155.75 70.05 152.25 L 66.3 150.35 59.8 151.45 Q 52.8 155.5 48.5 171.4 45 184.6 52.8 201.05 56.6 209.1 61.15 214.5 L 61.15 214.75 Q 89.45 252.5 132.05 332.25 L 400.45 332.25 Q 400.7 327.7 405.3 315.8 L 409.85 305.05 Q 443.3 231.5 453.25 202.9 460.25 182.95 455.95 168.95 452.2 156.85 442.2 156.05 M 346.25 272.45 Q 360.55 253.6 360.55 227.15 360.55 200.75 346.25 182.15 332 163.3 312.05 163.3 291.85 163.3 277.85 182.15 263.55 200.75 263.55 227.15 263.55 253.6 277.85 272.45 291.85 291.05 312.05 291.05 332 291.05 346.25 272.45 Z"/>
</g>
<g id="l0">
<path fill="#FF0000" stroke="none" d="M 460.55 342.5 Q 460.55 334.95 456.75 329.55 453 324.2 446.8 322.3 441.15 320.4 429 320.4 L 387.25 320.4 387.25 400.45 412.3 400.45 412.3 367.85 414.45 367.85 Q 417.95 367.85 420.65 369.7 423.05 371.6 425.25 375.9 L 438.7 400.45 467.25 400.45 455.15 377.25 451.65 372.15 447.6 368.1 Q 444.65 366.2 440.85 365.15 446.5 364.05 449.75 361.9 454.6 358.95 457.55 354.1 460.55 349.8 460.55 342.5 M 423.6 336.55 Q 430.1 336.55 433.05 338.75 435.45 340.9 435.45 344.65 435.45 347.35 433.85 349.25 432.25 351.4 429.8 351.65 425.5 352.75 423.05 352.75 L 412.55 352.75 412.55 336.55 423.6 336.55 M 376.7 337.4 L 376.7 320.4 309.1 320.4 309.1 400.45 377.8 400.45 377.8 382.4 334.4 382.4 334.4 366.5 373.5 366.5 373.5 350.05 334.4 350.05 334.4 337.4 376.7 337.4 M 298.6 344.65 Q 296.7 337.4 292.1 331.7 287.25 326.05 280.8 323.35 274.6 320.4 263 320.4 L 225.8 320.4 225.8 400.45 263 400.45 Q 269.45 400.45 278.1 398.3 284.3 396.65 289.4 391.8 294.55 386.95 297.75 379.95 300.45 373.5 300.45 360 300.45 351.4 298.6 344.65 M 250.9 338.45 L 257.1 338.45 Q 266.8 338.45 271.1 343.3 275.15 347.9 275.15 360.55 275.15 370.25 273.5 374.55 271.35 378.9 268.15 380.5 264.35 382.4 256.8 382.4 L 250.9 382.4 250.9 338.45 M 129.6 360.55 Q 129.6 374.55 135.3 383.75 140.65 393.15 149.85 397.45 158.45 401.8 172.45 401.8 186.2 401.8 195.35 396.65 204.25 391.8 209.1 382.9 213.95 374.05 213.95 359.75 213.95 340.6 202.9 329.85 192.15 319.05 171.65 319.05 152.25 319.05 140.65 330.1 129.6 340.9 129.6 360.55 M 159.25 378.05 Q 154.7 372.7 154.7 360.55 154.7 348.45 159.25 343.05 164.1 337.65 171.65 337.65 179.45 337.65 184.05 343.05 188.65 347.9 188.65 359.5 188.65 372.95 184.3 378.05 180 383.2 171.65 383.2 164.1 383.2 159.25 378.05 M 115.05 326.85 Q 108.35 320.4 94.6 320.4 L 52.8 320.4 52.8 400.45 78.15 400.45 78.15 370.8 91.9 370.8 Q 106.7 370.8 114.55 363.8 121.8 357.05 121.8 344.95 121.8 332.8 115.05 326.85 M 78.15 354.35 L 78.15 336.55 85.4 336.55 Q 92.15 336.55 94.85 339.25 97.55 341.95 97.55 345.75 97.55 349.5 94.6 351.95 91.35 354.35 84.35 354.35 L 78.15 354.35 Z"/>
</g>
</defs>
<g transform="matrix(1,0,0,1,0,0)">
<use xlink:href="#l3"/>
</g>
<g transform="matrix(1,0,0,1,0,0)">
<use xlink:href="#l2"/>
</g>
<g transform="matrix(1,0,0,1,0,0)">
<use xlink:href="#l1"/>
</g>
<g transform="matrix(1,0,0,1,0,0)">
<use xlink:href="#l0"/>
</g>
</svg>
