<svg xmlns="http://www.w3.org/2000/svg" xmlns:xlink="http://www.w3.org/1999/xlink" width="100%" height="100%" viewBox="0 0 512 512">
<!-- Vectorization by Rodrigo Polo https://github.com/rodrigopolo/logotipos-politicos -->
<defs>
<g id="l5">
<path fill="#013FA7" stroke="none" d="M 522.4 632.05 L 512.3 632.05 495.3 678.35 507.4 678.35 510.15 671.85 510.15 671.8 524.65 671.8 527.35 678.35 539.35 678.35 522.4 632.05 M 517.45 649.2 L 521 661.05 513.8 661.05 517.45 649.2 M 356.95 633.85 Q 352.7 632.15 345.9 632.05 L 327.95 632.05 327.95 678.35 345.9 678.35 Q 351.55 678.75 356.2 677.1 360.8 675.55 364.45 672.15 367.95 668.8 369.8 664.65 371.7 660.7 371.85 655.9 L 371.85 654.55 Q 371.55 649.55 369.55 645.45 367.75 641.45 364.5 638.45 361.25 635.45 356.95 633.85 M 340 643.2 L 345.9 643.2 Q 348.35 643.2 350.6 644 352.85 644.8 354.75 646.25 356.7 647.9 357.8 649.85 359.1 652.05 359.3 654.55 L 359.3 656.5 Q 359.2 658.7 358.2 660.6 357.1 662.7 355.2 664.05 353.3 665.6 350.9 666.35 348.5 667.2 345.9 667.2 L 340 667.2 340 643.2 M 413.65 678.35 L 425.7 678.35 408.7 632.05 398.65 632.05 381.65 678.35 393.7 678.35 396.45 671.85 396.45 671.8 411 671.8 413.65 678.35 M 400.1 661.05 L 403.75 649.2 407.35 661.05 400.1 661.05 M 481.5 632.05 L 468.5 632.05 468.5 657.45 452.4 632.05 439.85 632.05 439.85 678.35 452.9 678.35 452.9 655.05 468.5 678.3 481.5 678.3 481.5 632.05 M 478.45 577.85 L 468.4 577.85 451.4 624.15 463.5 624.15 466.2 617.65 480.75 617.6 483.5 624.15 495.5 624.15 478.45 577.85 M 477.15 606.8 L 469.85 606.8 473.5 595 477.15 606.8 M 425.8 577.85 L 407.9 577.85 407.9 624.15 425.8 624.15 Q 431.25 624.5 436.1 622.9 440.9 621.3 444.35 618 447.85 614.6 449.7 610.5 451.6 606.55 451.75 601.75 L 451.75 600.4 Q 451.45 595.35 449.45 591.2 447.55 587.2 444.4 584.25 441.25 581.3 436.85 579.65 432.6 577.95 425.8 577.85 M 430.55 589.85 Q 432.75 590.6 434.65 592.1 436.55 593.55 437.7 595.65 438.95 597.8 439.2 600.35 L 439.2 602.3 Q 439.1 604.6 438.1 606.4 437.05 608.35 435.15 609.95 433.3 611.35 430.85 612.2 428.4 613.05 425.8 613.05 L 419.9 613.05 419.9 589 425.8 589 Q 428.1 589 430.55 589.85 M 398.85 577.85 L 386.8 577.85 386.8 624.15 398.85 624.15 398.85 577.85 M 363.05 577.9 L 340.4 577.9 340.4 624.15 352.45 624.15 352.45 609.45 360.95 609.45 368.95 624.15 382.55 624.15 372.25 605.25 373.75 604 Q 377.8 600.15 378 593.65 L 378 592.65 Q 377.95 589.65 376.7 586.9 375.35 584.15 373.1 582.15 370.9 580.15 368 579.1 365.6 578.15 363.05 577.9 M 360.3 588.15 Q 362.25 588.15 363.65 589.5 365.2 590.9 365.2 593.2 365.2 595.5 363.65 596.9 362.2 598.2 360.3 598.2 L 352.45 598.2 352.45 588.15 360.3 588.15 M 518.2 577.85 L 500.25 577.85 500.25 624.15 518.2 624.15 Q 523.65 624.5 528.5 622.9 533.3 621.3 536.75 618 540.25 614.6 542.1 610.5 544 606.55 544.15 601.75 L 544.2 600.4 Q 543.8 595.25 541.85 591.2 539.95 587.2 536.8 584.25 533.75 581.35 529.25 579.65 525 577.95 518.2 577.85 M 518.2 589 Q 520.5 589 522.9 589.85 525.2 590.6 527.05 592.1 529 593.65 530.1 595.65 531.35 597.8 531.6 600.35 L 531.6 602.3 Q 531.5 604.6 530.5 606.4 529.45 608.35 527.55 609.95 525.7 611.4 523.2 612.2 520.8 613.05 518.2 613.05 L 512.3 613.05 512.3 589 518.2 589 M 251.45 638.45 Q 248.25 635.45 244 633.85 239.65 632.15 232.9 632.05 L 214.95 632.05 214.95 678.35 232.9 678.35 Q 238.55 678.75 243.2 677.1 247.85 675.55 251.4 672.15 254.95 668.75 256.85 664.65 258.8 660.45 258.8 655.9 258.9 655.5 258.9 654.55 258.6 649.65 256.55 645.45 254.6 641.3 251.45 638.45 M 246.35 656.5 Q 246.2 658.6 245.2 660.6 244.1 662.7 242.2 664.05 240.3 665.65 237.95 666.35 235.5 667.2 232.9 667.2 L 227 667.2 227 643.2 232.9 643.2 Q 235.4 643.2 237.6 644 239.95 644.85 241.75 646.25 243.7 647.85 244.85 649.85 246.05 652.05 246.35 654.55 L 246.35 656.5 M 295 632.05 L 284.95 632.05 267.9 678.35 280.05 678.35 282.75 671.85 282.75 671.8 297.25 671.8 300 678.35 312 678.35 295 632.05 M 293.65 661.05 L 286.35 661.05 290 649.2 293.65 661.05 M 308.65 613.4 L 308.65 606.65 331.95 606.65 331.95 595.4 308.65 595.4 308.65 588.6 333.6 588.6 333.6 577.85 296.6 577.9 296.6 624.15 333.6 624.15 333.6 613.4 308.65 613.4 M 157.6 632.05 L 157.6 664.3 Q 157.6 670.5 164.15 675.55 166.75 677.6 170.35 678.95 173.65 680.2 176.75 680.2 179.9 680.2 183.2 678.95 186.6 677.65 189.45 675.55 195.95 670.5 196 664.3 L 196 632.05 183.5 632.05 183.5 662.1 Q 183.2 664 181.25 665.5 179.35 666.95 176.75 667.2 174.3 666.95 172.3 665.5 170.35 664 170.05 662 L 170.05 632.05 157.6 632.05 M 108.95 637.65 Q 107.4 636.15 105.5 634.9 99.6 630.95 92.15 630.95 82.05 630.95 74.8 638.1 67.65 645.2 67.65 655.4 67.65 665.65 74.8 672.7 82.05 679.85 92.15 679.85 102.2 679.85 109.4 672.7 L 111.45 670.4 102.05 662.9 100.75 664.45 Q 97.15 668.2 92.15 668.2 87 668.2 83.45 664.45 79.9 660.65 79.9 655.4 79.9 650.2 83.45 646.4 86.95 642.7 92.15 642.7 96.7 642.7 99.95 645.65 L 108.95 637.65 M 139.75 632.05 L 127.75 632.05 127.75 678.35 139.75 678.35 139.75 632.05 M 149.7 593.65 L 149.7 592.65 Q 149.65 589.6 148.35 586.9 147.15 584.2 144.8 582.15 142.6 580.15 139.7 579.1 137.3 578.15 134.75 577.9 L 112.1 577.9 112.1 624.15 124.15 624.15 124.15 609.45 132.65 609.45 140.65 624.15 154.25 624.15 143.95 605.25 145.45 604 Q 149.55 600.15 149.7 593.65 M 124.15 588.15 L 132 588.15 Q 133.95 588.15 135.35 589.5 136.9 590.9 136.9 593.2 136.9 595.5 135.35 596.9 133.9 598.2 132 598.2 L 124.15 598.2 124.15 588.15 M 106.5 593.15 Q 106.45 590.05 105.15 587.2 103.95 584.45 101.6 582.25 99.35 580.3 96.5 579.1 94.1 578.15 91.55 577.9 L 69.4 577.9 69.4 624.15 81.5 624.15 81.5 609.45 91.2 609.45 Q 94.4 609.4 97.25 608.25 100.05 607.05 102.25 604.95 106.35 601 106.5 594.2 L 106.5 593.15 M 92.6 589.5 Q 94.25 590.95 94.25 593.2 94.25 595.5 92.6 596.9 91.15 598.2 89.3 598.2 L 81.5 598.2 81.5 588.15 89.3 588.15 Q 91.2 588.15 92.6 589.5 M 276.7 577.9 L 254.6 577.9 254.6 624.15 266.6 624.15 266.6 609.45 276.25 609.45 Q 279.6 609.4 282.35 608.25 285.2 607.1 287.4 604.95 291.5 601 291.65 594.2 L 291.65 593.15 Q 291.6 590.05 290.3 587.2 289.1 584.45 286.75 582.25 284.5 580.3 281.65 579.1 279.25 578.15 276.7 577.9 M 266.6 588.15 L 274.4 588.15 Q 276.35 588.15 277.75 589.5 279.4 590.95 279.4 593.2 279.4 595.5 277.75 596.9 276.3 598.2 274.4 598.2 L 266.6 598.2 266.6 588.15 M 212.25 580.5 Q 208.55 583.45 207.2 588.15 205.35 594.8 208.7 599.3 211.8 603.45 219.1 605.25 227.3 606.6 230.8 608.3 234.3 610 233.55 612.25 232.9 614.2 230.35 614.85 227.85 615.45 223.85 614.95 218.9 614.3 214.15 611.95 L 212.2 610.9 206.25 620.8 Q 221 627.35 231.65 625.4 236.8 624.5 240.45 621.7 242.7 620 243.95 618.4 245.55 616.45 246.05 614.15 247.55 607.6 244.05 602.8 240.65 598.2 233.55 596.4 225.25 595.15 222.2 593.75 219 592.35 219.65 590.1 220.35 588.2 222.85 587.55 225.35 586.95 229.4 587.45 234.5 588.15 238.75 591 L 244.8 581.1 Q 238.3 578.05 232.45 577.05 226.3 575.9 221.15 576.8 215.9 577.7 212.25 580.5 M 192.05 580.5 Q 186.2 576.6 178.65 576.6 168.45 576.6 161.35 583.75 154.15 590.9 154.15 601 154.15 611.2 161.35 618.3 168.5 625.45 178.65 625.45 188.75 625.45 195.95 618.3 203.1 611.25 203.1 601 203.1 590.85 195.95 583.75 194.25 582.05 192.05 580.5 M 178.65 588.3 Q 183.7 588.3 187.3 592 190.85 595.8 190.85 601 190.85 606.3 187.3 610.1 183.75 613.8 178.65 613.8 173.55 613.8 170 610.1 166.4 606.35 166.4 601 166.4 595.75 170 592 173.65 588.3 178.65 588.3 Z"/>
</g>
<g id="l4">
<path fill="#FFE420" stroke="none" d="M 397.4 344.6 Q 456.55 285.5 456.55 201.85 456.55 118.2 397.4 59.05 338.3 -0.05 254.65 -0.05 171 -0.05 111.85 59.05 52.75 118.2 52.75 201.85 52.75 285.5 111.85 344.6 171 403.75 254.65 403.75 338.3 403.75 397.4 344.6 Z"/>
</g>
<g id="l3">
<path fill="#0C40A9" stroke="none" d="M 381.5 328.75 Q 434.1 276.2 434.1 201.85 434.1 127.5 381.5 74.9 328.95 22.35 254.6 22.35 180.25 22.35 127.65 74.9 75.1 127.5 75.1 201.85 75.1 276.2 127.65 328.75 180.25 381.35 254.6 381.35 328.95 381.35 381.5 328.75 Z"/>
</g>
<g id="l2">
<path fill="#FFFFFF" stroke="none" d="M 201.9 106.7 Q 195 116.65 196.45 129.8 197.95 142.8 206.9 151.45 215.9 160.05 227 159 238.3 157.95 245.1 147.95 252 138 250.5 124.9 249.15 111.75 240.1 103.25 231.2 94.7 219.95 95.65 208.75 96.75 201.9 106.7 M 325.4 339.9 Q 331.05 345.55 330.25 342.55 L 311.45 300.4 Q 302.55 279.25 295.3 257.55 288.2 236.2 284.6 215.8 284 213.35 285.75 207.65 288.05 198.95 291 191.85 297.5 177.05 311.3 147.9 321.25 127 327.85 112.1 L 316.8 103.5 Q 315.95 104.1 314.35 105.45 304.6 113.55 284.15 134 273.95 144.25 267.7 149.8 259.05 157.5 251.55 162.3 224.1 177.2 188.6 179 151.6 179.65 117.8 175.2 109.75 173.6 106.55 171.9 96.8 166.95 95.05 168.55 93.35 170.15 99.4 177.4 104.05 182.8 114.75 190.15 124.75 197.15 141.2 206.65 163.65 218.15 184.2 230.95 L 205.55 243.55 Q 202.7 267.95 196.95 291.55 188.95 323.55 178.85 353.8 172.9 367.65 178.85 362.4 197.35 344.35 215.1 322.95 227.65 307.15 241.45 292.4 253.4 277.15 273.15 292.4 L 299 315.55 Q 312.8 329.5 325.4 339.9 Z"/>
</g>
<g id="l1">
<path fill="#F7002A" stroke="none" d="M 276.3 184.5 Q 273.15 181.1 268.45 183.4 263.65 185.8 258.35 193.7 261.35 188.8 260.85 184.85 260.4 180.75 256.1 177.9 253.2 176.05 250.4 176.35 248 176.6 245.65 178.5 242.45 181 242.05 185.75 241.65 194.05 245.25 200.55 248.9 207.35 254.6 208.55 260.2 209.75 267.7 205.45 275.3 201 277.5 194.25 278.5 191.45 278.1 188.7 277.8 186.15 276.3 184.5 Z"/>
</g>
<g id="l0">
<path fill="#FFE423" stroke="none" d="M 394.5 164.15 Q 397.8 166.6 401.45 164.75 L 401.5 164.75 Q 404.35 163.4 407.8 158.85 L 407.8 158.8 Q 411.45 154.3 412 151.25 412.9 147.2 409.7 144.65 L 273.55 38.45 273.35 38.4 273.05 38.2 272.95 38.2 238.3 26.6 240.25 29.7 240.3 29.75 257.9 57.45 257.95 57.5 257.95 57.55 258.35 57.95 394.5 164.1 394.5 164.15 M 375 145.5 L 386.9 130.25 396 137.4 384.15 152.6 375 145.5 M 400.3 162.35 Q 398.05 163.4 396.2 162 L 386.3 154.3 398.1 139.05 408 146.75 Q 409.9 148.25 409.4 150.65 408.8 153.4 405.7 157.2 402.8 161.1 400.3 162.35 M 249.1 38.6 L 244.6 31.55 252.55 34.2 Q 251.95 35.45 251 36.55 250.2 37.7 249.1 38.6 M 253.15 38.25 Q 254.25 36.85 255.05 35.1 L 271.55 40.55 Q 272.5 43.65 271.4 45.2 269.95 46.9 265.9 46.8 265.45 46.8 265.1 47.05 264.8 47.25 264.55 47.7 264.45 48.1 264.55 48.45 265.6 52.45 264.45 54.25 263.2 55.65 259.85 55.5 L 250.5 40.9 Q 251.85 39.85 253.15 38.25 Z"/>
</g>
</defs>
<g transform="matrix(0.9005126953125,0,0,0.9006195068359375,-19.45,-100.6)">
<use xlink:href="#l5"/>
</g>
<g transform="matrix(1,0,0,1,0,0)">
<use xlink:href="#l4"/>
</g>
<g transform="matrix(1,0,0,1,0,0)">
<use xlink:href="#l3"/>
</g>
<g transform="matrix(1,0,0,1,0,0)">
<use xlink:href="#l2"/>
</g>
<g transform="matrix(1,0,0,1,0,0)">
<use xlink:href="#l1"/>
</g>
<g transform="matrix(1,0,0,1,0,0)">
<use xlink:href="#l0"/>
</g>
</svg>
