<svg xmlns="http://www.w3.org/2000/svg" xmlns:xlink="http://www.w3.org/1999/xlink" width="100%" height="100%" viewBox="0 0 512 512">
<!-- Vectorization by Rodrigo Polo https://github.com/rodrigopolo/logotipos-politicos -->
<defs>
<g id="l1">
<path fill="#003399" stroke="none" d="M 511.5 176.35 Q 511.5 176.1 509.2 174.75 L 294.7 41.6 Q 292.65 40.45 290.1 41.35 L 5.05 173.8 Q 1.15 175.65 0 176.55 L 121.9 176.55 Q 122.15 177.05 121.7 177.95 L 115.25 203.6 Q 112.5 216.45 109.1 228.15 L 102 255.65 Q 100.6 260.45 98.55 270.3 L 48.6 468.05 Q 48.1 470.35 48.6 470.6 48.8 471.05 51.1 471.05 L 313.5 471.05 Q 315.1 471.05 315.35 469.65 L 331.35 405.3 382 405.3 Q 383.6 405.3 383.85 405.05 384.1 404.8 384.3 403.45 L 393.25 364.7 Q 395.1 357.6 395.55 353.5 L 397.85 342.25 Q 398.05 341.8 398.3 339.75 398.5 338.35 398.95 337.45 399.2 337.9 400.6 341.1 L 424.85 403 Q 425.55 404.8 426 405.05 426.45 405.3 428.1 405.3 L 474.35 405.3 Q 475.75 405.3 475.75 404.15 L 477.1 398.65 Q 482.4 374.8 485.35 363.1 L 511.95 248.3 510.8 248.05 460.15 248.05 Q 458.55 248.05 458.35 249.65 L 447.35 296.9 Q 445.7 304.45 445.5 305.8 445.05 309.05 443.9 315.45 443.9 316.15 443.45 316.15 L 417.1 249 Q 416.6 248.05 415.95 248.05 L 373.55 248.05 Q 371.7 248.05 371.25 247.85 L 388.45 178.85 Q 389.1 176.55 391.4 176.55 L 511.5 176.55 511.5 176.35 Z"/>
</g>
<g id="l0">
<path fill="#FFFF33" stroke="none" d="M 332.3 257.45 Q 332.3 255.85 330.9 256.1 L 293.8 256.1 Q 291.5 255.85 290.1 258.15 L 209.9 396.55 210.85 396.8 247.75 396.8 Q 249.1 396.8 249.8 395.4 L 258.05 379.6 Q 258.5 378.25 260.35 378.25 L 297 378.25 Q 298.35 378.25 298.6 378.45 298.85 378.7 298.85 380.05 L 298.6 395.2 Q 298.6 396.8 300 396.8 L 337.1 396.8 Q 338.95 396.8 338.5 395.4 L 332.3 257.45 M 300 299.15 L 299.75 298.95 300 298.95 300 299.15 Q 300.2 299.85 300.2 300.8 L 299.75 346.6 Q 299.5 348.45 299.3 348.65 299.05 348.9 297.25 348.9 L 274.3 348.9 300 299.15 M 156.75 255.85 L 121 389.45 Q 119.85 391.75 119.4 396.35 L 120.1 396.55 157.9 396.55 Q 159.25 396.55 159.75 395.2 159.95 394.3 163.15 382.6 L 170.75 354.65 Q 171.2 353.25 171.4 353.05 171.65 352.8 172.8 352.8 L 193.85 352.8 Q 205.55 352.8 215.85 349.15 231.45 343.85 241.55 331.7 249.55 322.1 253.7 309.5 L 256.45 299.15 Q 256.45 297.35 256.65 296.4 257.35 295.3 257.8 289.1 258.25 280.85 254.85 273.5 250 263.4 238.1 259.3 228.25 255.85 217.5 255.85 L 156.75 255.85 M 187.9 290.45 Q 188.15 288.85 189.75 288.85 L 203.95 288.85 Q 207.6 289.1 212.45 291.15 218.6 293.65 217.7 301 216.55 306.95 213.6 311.8 208.3 319.55 199.35 319.8 196.4 320.05 180.8 320.05 L 179.9 319.8 187.9 290.45 M 416.4 271.9 L 411.35 259.55 Q 410.65 257.9 410.2 257.45 409.95 257.25 408.15 257.25 L 376.5 257.25 Q 375.6 257.25 375.15 257 374.45 257 374 257.45 373.75 258.85 373.55 259.55 L 342.15 396.1 Q 342.6 396.35 344.2 396.35 L 374.7 396.35 Q 376.3 396.35 376.5 396.1 376.95 395.9 377.2 394.3 L 383.85 365.4 Q 386.15 357.15 387.3 349.8 L 393.25 316.6 Q 394.6 308.55 395.75 304.2 L 430.85 394.3 Q 431.3 395.65 431.75 395.9 432.2 396.1 433.8 396.1 L 467.5 396.1 468.2 395.65 Q 469.55 390.4 470.25 387.85 L 478.7 351.2 Q 480.35 342.7 481.45 338.6 L 500.05 258.85 Q 500.5 257.7 500.25 257.45 500.05 257.25 498.9 257.25 L 467.05 257.25 Q 465.45 257.25 465.2 258.85 L 453.95 308.1 Q 453.5 311.1 452.35 317.5 452.15 319.35 451.45 322.8 451.2 326 449.85 331.7 L 446.65 349.35 445.7 348.45 Q 444.1 344.1 443.45 341.8 L 424.65 293.65 Q 422.1 286.55 420.5 283.15 417.75 275.55 416.4 271.9 Z"/>
</g>
</defs>
<g transform="matrix(1,0,0,1,0,0)">
<use xlink:href="#l1"/>
</g>
<g transform="matrix(1,0,0,1,0,0)">
<use xlink:href="#l0"/>
</g>
</svg>
