<svg xmlns="http://www.w3.org/2000/svg" xmlns:xlink="http://www.w3.org/1999/xlink" width="100%" height="100%" viewBox="0 0 512 512">
<!-- Vectorization by Rodrigo Polo https://github.com/rodrigopolo/logotipos-politicos -->
<defs>
<g id="l3">
<path fill="#0071EE" stroke="none" d="M 463.95 255.7 Q 463.95 170.4 403.65 110.1 343.35 49.8 258.1 49.8 172.8 49.8 112.45 110.1 52.15 170.4 52.15 255.7 52.15 340.95 112.45 401.25 172.8 461.6 258.1 461.6 343.35 461.6 403.65 401.25 463.95 340.95 463.95 255.7 Z"/>
</g>
<g id="l2">
<path fill="#C5FF00" stroke="none" d="M 372.15 369.7 Q 419.45 322.4 419.45 255.6 419.45 188.75 372.15 141.5 324.9 94.25 258.1 94.25 191.25 94.25 144 141.5 96.75 188.75 96.75 255.6 96.75 322.4 144 369.7 191.25 416.95 258.1 416.95 324.9 416.95 372.15 369.7 Z"/>
</g>
<g id="l1">
<path fill="#0071EE" stroke="none" d="M 398.35 239.85 Q 393.6 238.65 388.8 239.25 375.65 240.25 364.2 251.05 351.45 263.6 344.65 269.6 339.5 274 337.85 279.4 333.3 294.95 327.1 307.15 321.1 318.7 320.7 319.3 316.9 326.1 311.9 330.1 L 310.3 331.9 294.35 357.05 Q 288.35 367.05 284.55 370.05 281.6 372.45 278.8 370.65 275.4 369.05 276.4 365.45 277 362.85 278.6 359.85 L 291.15 335.1 Q 291.55 334.5 292.95 329.5 L 292.15 329.1 289.15 331.9 Q 279.75 343.9 260.6 367.45 259.6 368.8 257.45 371.85 255.25 374.05 252.85 374.8 248.85 376.45 246.25 373.45 243.6 369.85 245.8 366.85 L 268.8 330.9 270.2 327.7 269.4 327.1 Q 267.8 328.7 264.6 331.5 L 230.05 367.65 Q 226.65 370.8 223.1 368.45 220.5 367.05 219.85 363.65 219.3 360.45 221.3 358.05 L 253.45 319.75 Q 255.8 315.55 257 313.55 255.6 313.35 254.8 313.75 L 212.7 344.3 Q 208.9 347.05 205.9 344.65 202.5 342.3 204.1 338.1 205.5 334.3 207.5 332.7 226.65 315.95 233.05 311.15 248.2 299.75 256 285.15 261.6 275.2 250.65 272.2 246 271 236.05 270.2 225.85 270 221.1 269.2 213.45 268 208.5 261.85 205.9 258.25 207.9 254.8 208.7 253.45 210.3 253.25 211.3 253.25 213.1 253.25 215.65 253.25 220.5 253.05 224.65 253.05 227.65 252.25 232.85 251.05 240.25 250.6 248.2 250.25 252 249.05 265.2 244.25 277.4 244.25 278.8 244.25 291.15 243.25 L 290.75 243.25 289.35 234.85 Q 284.75 208.15 284.35 172 L 283.4 140.2 Q 283 132.05 279.75 127.65 275.75 122.65 269 123.25 264.6 123.65 262.2 129.65 261 133.25 261 135.05 260.2 146.8 259.8 158.4 L 259.2 199.1 Q 259 203.95 257.25 221.1 257 222.1 255.25 224.1 252.85 222.1 252.6 221.7 248.65 211.7 247.25 206.5 246.85 204.9 241.25 178.55 L 231.85 132.4 Q 231.25 128.45 229.5 124.45 225.3 115.9 216.3 117.9 209.3 119.85 209.9 128.05 L 221.5 224.45 Q 221.65 225.1 221.3 225.9 220.7 226.65 220.25 226.65 218.7 227.05 217.45 225.9 213.3 220.1 212.9 219.3 202.3 196.9 199.5 189.75 192.55 169.4 188.95 159.4 185.35 148.6 181.15 144.25 175.75 138.2 169 142.6 161.2 147.2 164.15 156.6 L 191.9 240.85 Q 192.75 243.45 192.1 246.85 191.5 248.85 190.1 249.45 188.55 249.85 186.95 248.45 183.15 245.65 181.75 243.45 L 156 204.15 Q 152.2 198.7 152 198.7 149.6 195.75 146.8 194.35 141.6 191.55 137.4 194.35 133.4 197.35 135.25 202.15 139.25 214.9 141.6 219.1 149.2 232.1 161.2 250.05 171.4 265.4 174.95 284 L 182.35 320.55 Q 185.5 335.1 192.95 346.85 200.9 359.05 202.3 373 202.55 374.95 203 385.5 203.15 389.05 203.3 393.2 203.3 394.45 203.4 395.8 203.55 399 203.65 402.7 203.65 403.35 203.7 404 203.7 404.4 203.75 404.75 203.9 408.85 204 413.05 245.85 424.15 287.05 417.45 L 288.5 411.5 Q 288.55 411.4 288.55 411.35 L 292.65 394.7 Q 294.55 387.8 299.95 382.65 307.55 375.4 309.15 373.2 324.1 352.7 340.45 335.7 349.85 325.9 355.65 311.95 361.45 297.75 371.65 288.95 375.45 286 381 278.55 382.8 276 385.4 270.2 391.2 261.2 402.95 251.85 408.35 247.45 403.6 242.85 401.2 240.45 398.35 239.85 Z"/>
</g>
<g id="l0">
<path fill="#0071EE" stroke="none" d="M 368.75 463.2 L 365.5 457.5 381.65 448.5 378.1 442.1 354.05 455.55 371.1 486.1 395.6 472.4 392.05 466.05 375.5 475.3 372.3 469.55 386.8 461.4 383.3 455.1 368.75 463.2 M 324.7 467.2 L 327.45 474.25 337.1 470.5 347 496.05 355.5 492.75 345.6 467.2 355.4 463.4 352.65 456.35 324.7 467.2 M 423.4 444.3 L 415.65 443 Q 415.3 445.65 414.15 447.95 413 450.25 411.25 451.6 409.15 453.15 406.65 453.35 404.15 453.7 401.7 452.6 399.35 451.6 397.6 449.35 395.8 447 395.4 444.45 395 441.85 395.9 439.45 396.85 437.05 398.9 435.5 400.75 434.05 403.35 433.65 405.95 433.3 408.65 433.95 L 408.95 425.65 Q 405.15 425.05 401.15 426.05 397.1 427.15 394.1 429.45 389.95 432.65 387.95 437.15 386 441.55 386.55 446.3 387.1 451.05 390.15 455.1 393.35 459.2 397.75 461 402.2 462.8 406.95 462.15 411.75 461.5 415.85 458.35 418.85 456 420.95 452.2 422.9 448.5 423.4 444.3 M 448.55 424.3 Q 449.75 419.5 448.45 414.9 447.2 410.35 443.4 406.75 439.7 403.3 435.05 402.25 430.4 401.2 425.7 402.7 420.95 404.35 417.3 408.2 413.7 412.05 412.45 416.8 411.15 421.5 412.5 426.15 413.75 430.85 417.45 434.25 421.15 437.75 425.9 438.8 430.65 439.9 435.3 438.35 439.95 436.9 443.65 433 447.3 429.15 448.55 424.3 M 427.3 410.85 Q 429.65 410.2 432.3 410.9 434.85 411.65 436.95 413.6 439.1 415.65 439.9 418.1 440.8 420.7 440.35 423.15 439.9 425.65 438.05 427.6 436.2 429.55 433.75 430.1 431.2 430.8 428.65 430.05 426.05 429.45 423.85 427.45 421.85 425.55 421 422.95 420.15 420.4 420.75 417.85 421.2 415.3 423 413.4 424.8 411.5 427.3 410.85 M 149.95 486.05 L 155.15 448.5 147.1 443.75 116.35 466.15 124.45 470.95 129.65 466.85 142.7 474.55 141.6 481.1 149.95 486.05 M 135.6 462.25 L 146.15 454 143.95 467.2 135.6 462.25 M 105.2 417.45 Q 105.25 413.9 103.85 410 102.35 406.25 99.75 403.2 94.35 396.95 86.9 396.1 79.45 395.25 73.7 400.2 67.9 405.2 67.6 412.6 67.3 420.1 72.4 426.05 74.75 428.7 78.4 431 82.05 433.3 85.35 434.1 L 97.3 423.65 87.9 412.75 82.95 417 87.3 422.1 84 424.95 Q 80.5 423.55 78.75 421.45 75.95 418.25 76.3 414.15 76.65 410 79.85 407.3 83.15 404.45 87.1 404.75 91.1 405.05 93.85 408.2 95.45 410.05 96.25 412.6 97.1 415.15 97 417.7 L 105.2 417.45 M 135.25 436.4 L 128.25 430.55 115.05 446.3 Q 112.9 448.85 110.3 449.2 107.55 449.6 105.35 447.7 103 445.75 102.85 443 102.65 440.15 104.7 437.7 L 117.9 421.9 110.9 416.1 97.75 431.85 Q 94.8 435.35 94.15 439.25 93.5 443.05 95.05 446.85 96.6 450.5 100.3 453.6 104.05 456.7 107.95 457.6 111.9 458.4 115.5 457.05 119.2 455.65 122.1 452.2 L 135.25 436.4 M 167.45 493.1 L 178.1 467.85 187.7 471.9 190.7 465 163.1 453.3 160.15 460.2 169.65 464.3 159 489.55 167.45 493.1 M 193.85 494.5 L 195.55 488.15 211.65 492.35 213.5 485.4 197.4 481.1 199.15 474.8 216.95 479.55 218.8 472.5 192.15 465.4 183.1 499.15 210.25 506.4 212.1 499.35 193.85 494.5 M 286.55 474.8 L 277.25 475.7 265.7 511.95 275.05 511 276.85 504.65 291.9 503.2 294.85 509.1 304.55 508.15 286.55 474.8 M 288.55 496.5 L 278.95 497.4 282.55 484.55 288.55 496.5 M 311.15 470.35 L 302.35 472.55 310.7 506.5 333.95 500.75 332.05 493.2 317.7 496.75 311.15 470.35 M 262.15 477.2 L 252.25 476.3 240.4 495.85 232.15 474.55 222.25 473.65 219.15 508.5 227.3 509.25 229.25 487.2 236.55 506.55 242.4 507.05 252.9 489.25 251 511.3 259.05 512.05 262.15 477.2 M 71.35 116.8 Q 70.6 111.85 65.45 108.4 60.6 105.15 55.8 106.5 51.15 107.75 47.45 113.35 L 38.9 126.15 68.05 145.5 73.1 137.9 65.05 132.55 68.5 127.35 Q 72.2 121.8 71.35 116.8 M 60.9 115.85 Q 63.1 117.3 63.4 119.3 63.7 121.4 62.2 123.7 L 58.95 128.5 50.05 122.55 53.25 117.75 Q 54.75 115.45 56.75 114.9 58.8 114.45 60.9 115.85 M 71.7 82.55 L 65.5 89.55 81.6 124 87.85 117 84.9 111.05 94.95 99.8 101.15 102.1 107.6 94.85 71.7 82.55 M 75.4 92.45 L 87.95 97.2 81.5 104.4 75.4 92.45 M 120.9 63.95 Q 120.35 60.7 117.85 57.7 114.15 53.15 109.2 53 104.2 52.95 98.75 57.35 L 86.6 67.25 108.65 94.4 115.75 88.6 109.65 81.1 114.75 76.95 114.95 76.85 124.95 81.1 132.95 74.6 120.1 70.35 Q 121.5 67.25 120.9 63.95 M 103.4 62.95 Q 105.6 61.2 107.65 61.3 109.75 61.45 111.3 63.4 113 65.45 112.7 67.5 112.4 69.5 110.2 71.25 L 105.05 75.45 98.3 67.15 103.4 62.95 M 153.55 23.45 L 145.3 27.35 160.35 58.9 168.55 55 153.55 23.45 M 135.3 41.3 L 144.35 35.9 140.45 29.45 114.75 44.95 118.6 51.4 127.5 46 141.65 69.5 149.45 64.85 135.3 41.3 M 193.85 17.3 Q 190.45 14.25 185.7 13.55 180.95 12.9 175.8 14.65 L 161.6 19.55 172.95 52.65 186.85 47.9 Q 192.1 46.05 195.55 42.55 198.85 39.1 199.8 34.55 200.75 29.95 199.1 25.15 197.4 20.3 193.85 17.3 M 183.05 21.35 Q 185.45 21.85 187.45 23.65 189.35 25.45 190.35 28.3 191.25 31 190.95 33.6 190.6 36 189.05 38 187.6 39.8 185.05 40.7 L 179.15 42.7 172.6 23.65 178.05 21.75 Q 180.65 20.85 183.05 21.35 M 238.55 18.05 Q 237.65 13.05 234.55 9.45 231.5 5.85 226.8 4.25 222.1 2.7 216.9 3.55 211.65 4.45 207.75 7.5 203.95 10.5 202.2 14.95 200.45 19.5 201.3 24.4 202.15 29.45 205.3 33.15 208.4 36.9 213.05 38.45 217.65 40.1 222.95 39.2 228.2 38.3 232.1 35.2 235.95 32.1 237.65 27.65 239.4 23.2 238.55 18.05 M 227.15 14.75 Q 228.8 16.85 229.3 19.7 229.75 22.6 228.9 25.05 228.05 27.7 226.2 29.35 224.35 31.05 221.75 31.5 219.15 31.95 216.8 30.95 214.35 29.95 212.7 27.85 211 25.8 210.55 22.9 210.05 20.15 210.9 17.5 211.8 15 213.8 13.35 215.65 11.6 218.25 11.15 220.85 10.7 223.2 11.7 225.45 12.6 227.15 14.75 M 283.7 23.1 Q 287.6 19.9 287.85 13.75 288.15 7.85 284.6 4.5 281.15 1.1 274.4 0.8 L 259.05 0.05 257.35 34.95 266.5 35.4 266.95 25.75 273.2 26.05 Q 279.9 26.35 283.7 23.1 M 279.2 13.6 Q 279.05 16.2 277.5 17.55 275.85 18.9 273.1 18.8 L 267.3 18.5 267.8 7.75 273.6 8.05 Q 276.35 8.15 277.85 9.6 279.3 11.1 279.2 13.6 M 473.15 119.6 Q 473.5 114.65 469.45 108.95 L 460.35 96.15 431.85 116.4 437.15 123.85 445 118.2 448.95 123.75 444.05 133.5 450.05 141.9 455.1 129.35 Q 458.2 130.95 461.45 130.55 464.75 130.2 467.9 127.9 472.7 124.5 473.15 119.6 M 454.8 119.45 L 450.95 114 459.7 107.75 463.55 113.2 Q 465.2 115.45 464.95 117.55 464.65 119.6 462.6 121 460.45 122.55 458.45 122.15 456.4 121.7 454.8 119.45 M 327.35 26.75 Q 328.4 21.75 326.9 17.3 325.3 12.75 321.55 9.6 317.75 6.35 312.55 5.3 307.4 4.2 302.65 5.6 297.95 7 294.75 10.5 291.4 14.1 290.35 19 289.35 24 290.95 28.55 292.45 33.25 296.2 36.35 299.95 39.6 305.15 40.7 310.35 41.8 315.1 40.35 319.85 38.85 323.1 35.35 326.3 31.8 327.35 26.75 M 311.1 12.9 Q 313.65 13.45 315.5 15.2 317.3 16.85 318 19.5 318.8 22.05 318.2 24.85 317.55 27.8 315.9 29.75 314.15 31.85 311.8 32.7 309.4 33.65 306.85 33.1 304.25 32.55 302.45 30.7 300.55 28.95 299.8 26.35 298.95 23.85 299.55 20.95 300.15 18.2 301.9 16.1 303.65 14.1 306.1 13.2 308.5 12.35 311.1 12.9 M 361.35 24.45 Q 359.1 20.15 352.75 17.75 L 338.45 12.3 325.95 45 334.5 48.2 337.95 39.15 343.75 41.4 Q 350.05 43.8 354.7 41.9 359.35 40 361.55 34.25 363.65 28.8 361.35 24.45 M 344.35 22.35 L 349.75 24.4 Q 352.3 25.4 353.3 27.2 354.2 29.1 353.3 31.4 352.35 33.9 350.5 34.7 348.55 35.4 345.95 34.45 L 340.5 32.35 344.35 22.35 M 369.9 48.1 L 379.9 30.2 371.95 25.75 361.95 43.7 Q 359.65 47.7 359.8 51.55 359.8 55.45 362.05 58.9 364.25 62.2 368.5 64.6 372.75 67 376.7 67.05 380.75 67.2 384.1 65.1 387.35 63.1 389.6 59.1 L 399.65 41.2 391.7 36.75 381.65 54.7 Q 380.05 57.6 377.5 58.45 374.9 59.25 372.35 57.8 369.7 56.35 369 53.65 368.3 50.95 369.9 48.1 M 439.4 73.6 L 406.85 86.35 409.6 82.65 397.85 73.7 414.3 52.05 407.05 46.55 385.85 74.35 404.9 88.85 405.1 88.6 410.5 94.1 416.6 91.45 427.25 102.25 424.5 108.3 431.35 115.25 446 80.25 439.4 73.6 M 423.55 88.55 L 435.8 83.3 430.3 95.45 423.55 88.55 Z"/>
</g>
</defs>
<g transform="matrix(1,0,0,1,0,0)">
<use xlink:href="#l3"/>
</g>
<g transform="matrix(1,0,0,1,0,0)">
<use xlink:href="#l2"/>
</g>
<g transform="matrix(1,0,0,1,0,0)">
<use xlink:href="#l1"/>
</g>
<g transform="matrix(1,0,0,1,0,0)">
<use xlink:href="#l0"/>
</g>
</svg>
