<svg xmlns="http://www.w3.org/2000/svg" xmlns:xlink="http://www.w3.org/1999/xlink" width="100%" height="100%" viewBox="0 0 512 512">
<!-- Vectorization by Rodrigo Polo https://github.com/rodrigopolo/logotipos-politicos -->
<defs>
<g id="l4"><path fill="#0005F9" stroke="none" d=" M 426.15 316.7 Q 426.15 246.1 376.3 196.25 326.35 146.3 255.75 146.3 185.1 146.3 135.15 196.25 85.2 246.1 85.2 316.7 85.2 387.35 135.15 437.3 185.1 487.1 255.75 487.1 326.35 487.1 376.3 437.3 426.15 387.35 426.15 316.7 Z"/></g>
<g id="l3"><path fill="#FFF" stroke="none" d=" M 385.85 316.7 Q 385.85 262.9 347.75 224.7 309.7 186.6 255.75 186.6 201.9 186.6 163.7 224.7 125.65 262.9 125.65 316.7 125.65 370.7 163.7 408.75 201.9 446.8 255.75 446.8 309.7 446.8 347.75 408.75 385.85 370.7 385.85 316.7 Z"/></g>
<g id="l2"><path fill="#FE0F17" stroke="none" d=" M 315.85 256.6 Q 290.9 231.7 255.75 231.7 220.55 231.7 195.65 256.6 170.7 281.55 170.7 316.7 170.7 351.9 195.65 376.8 220.55 401.75 255.75 401.75 290.9 401.75 315.85 376.8 340.75 351.9 340.75 316.7 340.75 281.55 315.85 256.6 Z"/></g>
<g id="l1"><path fill="#FFFF43" stroke="none" d=" M 287.05 285.4 Q 274 272.4 255.75 272.4 237.35 272.4 224.45 285.4 211.4 298.3 211.4 316.7 211.4 335 224.45 348 237.35 361.05 255.75 361.05 274 361.05 287.05 348 300.05 335 300.05 316.7 300.05 298.3 287.05 285.4 Z"/></g>
<g id="l0"><path fill="#0005F9" stroke="none" d=" M 115 71.05 Q 111.75 79.95 107.75 83.7 100.85 89.95 87.35 89.95 73.3 89.95 71.2 83.7 69.95 79.95 73.3 71.05 L 90.35 26.1 46.75 26.1 27.6 76.7 Q 21.1 93.7 34 102.1 46.9 110.5 79.3 110.5 143.7 110.5 156.45 76.7 L 175.6 26.1 132.05 26.1 115 71.05 M 273 76.2 Q 263.25 89.95 244.85 89.95 230.8 89.95 226.55 82.85 222.95 76.8 226.55 67.3 230.05 57.9 238.2 51.9 248 44.75 262 44.75 273.65 44.75 278.05 49.65 280.65 52.65 280.3 56.8 L 322.6 56.8 Q 325.6 41.15 312.85 32.85 299.7 24.35 271 24.25 238.45 24.25 214.4 36 190.4 47.75 183 67.3 175.85 86.1 190 98 205.05 110.5 238.35 110.5 267.65 110.5 290.15 99.6 310.7 89.7 315.85 76.2 L 273 76.2 M 427.75 70.2 L 427.4 70.2 403 26.1 358.4 26.1 327.1 108.5 368.3 108.5 385.35 63.55 385.85 63.55 412 108.5 454.45 108.5 485.6 26.1 444.55 26.1 427.75 70.2 Z"/></g>
</defs>
<g transform="matrix(1,0,0,1,0,0)">
<use xlink:href="#l4"/></g>
<g transform="matrix(1,0,0,1,0,0)">
<use xlink:href="#l3"/></g>
<g transform="matrix(1,0,0,1,0,0)">
<use xlink:href="#l2"/></g>
<g transform="matrix(1,0,0,1,0,0)">
<use xlink:href="#l1"/></g>
<g transform="matrix(1,0,0,1,0,0)">
<use xlink:href="#l0"/></g>
</svg>
