<svg xmlns="http://www.w3.org/2000/svg" xmlns:xlink="http://www.w3.org/1999/xlink" width="100%" height="100%" viewBox="0 0 712 1024">
<!-- Vectorization by Rodrigo Polo https://github.com/rodrigopolo/logotipos-politicos -->
<defs>
<g id="l0">
<path fill="#F37439" stroke="none" d="M 395.25 458.2 L 353 463 340.95 588.45 383.2 587.35 430.25 578.8 395.25 458.2 Z"/>
<path fill="#9E214C" stroke="none" d="M 449.5 434.1 Q 429.95 445.05 412.1 452.15 L 447.1 574 Q 491.85 558.25 525.5 533.05 L 449.5 434.1 Z"/>
<path fill="#F8C02F" stroke="none" d="M 538.8 522.1 Q 573.55 494.7 597.9 455.75 L 490.55 390.65 Q 482.05 405.2 462.75 421.95 L 538.8 522.1 Z"/>
<path fill="#BF923A" stroke="none" d="M 91.2 413.55 Q 109.15 456.8 138.25 488.4 L 231.15 403.9 Q 218.1 389.7 208.2 367.65 L 91.2 413.55 Z"/>
<path fill="#E12972" stroke="none" d="M 238.4 563.15 Q 275.65 580 322.9 586.05 L 334.9 461.8 Q 309.8 458.3 293.9 449.75 L 238.4 563.15 Z"/>
<path fill="#F99D38" stroke="none" d="M 277 442.55 Q 256.55 430.5 243.2 417.15 L 151.5 502.85 Q 185.4 536.75 221.55 554.7 L 277 442.55 Z"/>
<path fill="#1598D5" stroke="none" d="M 85.15 203.6 Q 69.4 247.25 68.3 290.5 L 193.75 290.5 Q 196.05 265.5 202.15 249.45 L 85.15 203.6 Z"/>
<path fill="#40824D" stroke="none" d="M 68.3 308.55 L 69.5 327.95 Q 73.1 366.65 85.15 396.65 L 202.15 350.8 Q 196.25 332.75 194.95 315.8 L 193.75 308.55 68.3 308.55 Z"/>
<path fill="#5FBC59" stroke="none" d="M 138.25 111.9 Q 110.65 145.4 91.2 186.75 L 209.4 232.6 Q 215.6 216.55 231.15 196.35 L 138.25 111.9 Z"/>
<path fill="#0E4D6D" stroke="none" d="M 320.35 14.15 Q 278.2 19.05 236 38.3 L 292.65 150.5 Q 309.35 144.6 332.5 139.65 L 320.35 14.15 Z"/>
<path fill="#15C1E1" stroke="none" d="M 514.65 337.55 Q 509.9 355.55 500.2 374.9 L 607.55 441.3 Q 629.3 398.9 637.75 360.45 L 514.65 337.55 Z"/>
<path fill="#C52A3B" stroke="none" d="M 499 222.85 Q 508.6 242.25 513.45 261.5 L 636.55 237.4 Q 626.8 193.95 605.15 156.55 L 499 222.85 Z"/>
<path fill="#F04E3A" stroke="none" d="M 642.55 272.35 L 640.15 255.5 517.05 278.45 518.25 284.5 517.05 319.4 641.35 342.4 Q 646.2 302.1 642.55 272.35 Z"/>
<path fill="#DEB142" stroke="none" d="M 409.7 146.9 Q 429.8 153.95 447.1 166.15 L 521.95 64.8 Q 484.25 38.15 442.3 26.3 L 409.7 146.9 Z"/>
<path fill="#EE3349" stroke="none" d="M 350.55 138.45 Q 372.25 137.25 391.6 142.1 L 425.45 20.15 Q 377.05 9.3 338.55 12.95 L 350.55 138.45 Z"/>
<path fill="#4CA452" stroke="none" d="M 595.5 140.9 Q 573.75 106.95 536.4 75.75 L 461.55 177.1 Q 474.6 188.75 489.35 207.2 L 595.5 140.9 Z"/>
<path fill="#0F6E9D" stroke="none" d="M 243.2 183.1 Q 256.75 170.9 277 158.95 L 220.3 46.75 Q 184.2 64.8 150.3 98.65 L 243.2 183.1 Z"/>
<path fill="#E1393E" stroke="none" d="M 175.65 874.45 Q 175.65 858.75 166.05 843.05 153.9 828.5 138.25 822.55 122.6 815.3 99.7 815.3 73.05 815.3 48.95 827.35 28.45 838.2 17.65 858.75 L 65.9 882.85 Q 69.4 874.5 76.75 869.6 86.35 866 93.6 866 102.1 866 106.95 869.6 111.75 873.3 111.75 880.45 L 108.15 891.3 Q 106.95 896.1 97.3 905.85 L 28.45 968.55 28.45 1008.4 179.3 1008.4 179.3 958.9 116.55 958.9 143.05 934.75 Q 162.25 915.55 168.45 903.45 175.65 891.4 175.65 874.45 M 345.75 966.15 Q 356.7 944.55 356.7 914.25 356.7 882.75 345.75 861.2 333.8 838.3 316.85 827.35 295.1 815.3 272.2 815.3 249.15 815.3 227.55 827.35 208.35 838.1 197.35 861.2 186.5 882.85 186.5 914.25 186.5 944.45 197.35 966.15 207.1 987.85 227.55 999.95 247 1012 272.2 1012 297.4 1012 316.85 999.95 335 988.95 345.75 966.15 M 272.2 961.35 Q 250.5 961.35 250.5 914.25 250.5 866 272.2 866 293.9 866 293.9 914.25 293.9 961.35 272.2 961.35 M 505 858.75 L 505 820.15 365.1 820.15 365.1 867.2 432.65 867.2 404.85 896.2 404.85 934.75 429.05 934.75 Q 451.9 934.75 451.9 948.1 451.9 955.3 444.7 958.9 439.9 962.55 427.85 962.55 L 401.25 958.9 Q 388 955.3 377.15 948.1 L 355.4 995.05 Q 365.1 1001.15 389.2 1008.4 L 429.05 1012 Q 459.15 1012 477.3 1003.5 496.55 995.15 506.2 979.4 515.95 963.75 515.95 948.1 515.95 928.8 503.8 914.25 490.55 898.5 470.1 893.8 L 505 858.75 M 565.3 827.35 Q 547.25 837.1 535.2 861.2 524.35 882.85 524.35 914.25 524.35 944.45 535.2 966.15 545.95 988.85 565.3 999.95 582.35 1012 608.75 1012 633.95 1012 653.4 999.95 672.85 988.95 683.6 966.15 694.45 944.45 694.45 914.25 694.45 882.85 683.6 861.2 671.55 837.1 653.4 827.35 631.8 815.3 608.75 815.3 585.8 815.3 565.3 827.35 M 630.55 914.25 Q 630.55 961.35 608.75 961.35 588.3 961.35 588.3 914.25 588.3 866 608.75 866 630.55 866 630.55 914.25 Z"/>
<path fill="#2F3E3D" stroke="none" d="M 480.9 670.5 L 480.9 779.1 517.15 779.1 Q 548.45 779.1 562.9 764.65 578.65 748.9 578.65 723.6 578.65 698.4 562.9 683.75 546.05 670.5 518.35 670.5 L 480.9 670.5 M 499 687.4 L 517.15 687.4 Q 560.5 687.4 560.5 724.8 560.5 744.15 549.65 752.6 537.5 762.25 519.55 762.25 L 499 762.25 499 687.4 M 453.1 670.5 L 435.05 670.5 435.05 751.4 372.35 670.5 353 670.5 353 779.1 372.35 779.1 372.35 699.5 433.85 779.1 453.1 779.1 453.1 670.5 M 273.4 762.25 L 273.4 732.05 325.3 732.05 325.3 716.4 273.4 716.4 273.4 687.4 331.3 687.4 331.3 670.5 255.35 670.5 255.35 779.1 333.7 779.1 333.7 762.25 273.4 762.25 M 133.45 723.6 Q 133.45 748.9 149.2 764.65 164.75 780.3 190.1 780.3 219.2 780.3 233.55 763.45 L 233.55 726 215.5 726 215.5 756.2 Q 203.35 762.25 188.9 762.25 175.75 762.25 163.65 752.6 152.7 741.65 152.7 724.8 152.7 706.85 163.65 695.9 174.55 684.95 191.35 684.95 L 205.85 687.4 Q 212 688.7 219.1 694.7 L 228.75 681.35 Q 213.1 666.9 190.1 666.9 168.45 666.9 149.2 683.75 133.45 699.5 133.45 723.6 M 80.35 670.5 L 59.85 670.5 12.8 779.1 32.1 779.1 43 753.8 97.3 753.8 108.15 779.1 127.4 779.1 80.35 670.5 M 90 736.85 L 50.25 736.85 70.7 692.2 90 736.85 M 669.15 753.8 L 680 779.1 699.25 779.1 652.2 670.5 631.75 670.5 584.65 779.1 603.95 779.1 614.8 753.8 669.15 753.8 M 622.1 736.85 L 642.55 692.2 661.85 736.85 622.1 736.85 Z"/>
</g>
</defs>
<g transform="matrix(1,0,0,1,0,0)">
<use xlink:href="#l0"/>
</g>
</svg>
