<svg xmlns="http://www.w3.org/2000/svg" xmlns:xlink="http://www.w3.org/1999/xlink" width="100%" height="100%" viewBox="0 0 1024 442">
<!-- Vectorization by Rodrigo Polo https://github.com/rodrigopolo/logotipos-politicos -->
<defs>
<g id="l1">
<path fill="#004C6A" stroke="none" d="M 194.5 176.6 Q 186.85 172.5 170.05 165.55 L 139.9 153.5 Q 100.85 137 81.55 119.25 54.55 94.65 56.05 60.9 37.75 87.45 30.4 118.6 22.7 150.55 27.4 183.95 32.6 219.1 50.75 248.85 68.05 277.55 95.5 298.1 122.7 318.2 155.55 326.85 189.45 335.7 224.25 330.5 L 227.85 329.85 Q 241.7 302 238.15 281.2 235.6 266.6 223 251.6 L 213.05 240.2 Q 207.7 233.85 205.3 229.15 199.1 216.5 208.05 202.1 216.3 188.85 194.5 176.6 M 368.55 197.2 Q 375.65 165.85 370.9 133.75 365.45 96.3 344.95 64.5 325.15 34.05 294.7 13.85 260 28.3 243.8 35.5 212.65 48.8 193.55 60.4 141.5 91.9 159.1 122.7 169.8 141.4 207.35 153.35 220.55 157.65 241.85 162.4 L 276.55 170.15 Q 316.25 179.5 327.2 190.4 342.6 205.3 320.2 231.5 284.2 273.95 270.7 291.2 254 312.45 246.8 325.7 277.65 316.85 302.75 298.1 327.65 279.45 344.55 253.6 361.75 227.25 368.55 197.2 M 235.3 121.55 Q 235.05 126.5 224.55 126.1 204.45 125.65 193.4 117.45 189.15 114.35 188.05 111.15 187.1 108.15 189.6 106.8 198.9 102 210.35 104.2 220.2 105.85 228.1 111.7 235.6 117.2 235.3 121.55 M 244.85 121.6 Q 247.5 120.45 255.35 122.95 266.55 126.6 266.75 131.25 266.9 135.75 258.25 134.8 254.45 134.5 250.3 131.4 246.2 128.8 244.45 125.7 242.7 122.65 244.85 121.6 M 272.85 142.7 Q 272.6 140.25 278.7 140.45 284.9 140.7 288.55 145.05 291.95 149.4 281.05 147 273.15 145.3 272.85 142.7 Z"/>
</g>
<g id="l0">
<path fill="#414042" stroke="none" d="M 486.8 415.05 L 486.8 413.1 Q 486.8 406.15 483.25 401.9 479.3 397 472.6 397 466.3 397 462.1 401.65 458 406 458 412.55 L 458 412.7 Q 458 419.65 462.35 423.8 466.65 428.15 473.3 428.15 480.85 428.15 485.55 422.55 L 481.45 419 Q 477.9 422.55 473.4 422.55 470 422.55 467.8 420.6 465.35 418.55 464.85 415.05 L 486.8 415.05 M 472.5 402.7 Q 475.75 402.7 477.7 404.9 479.6 406.85 480.1 410.4 L 464.7 410.4 Q 465.35 406.85 467.25 404.8 469.5 402.7 472.5 402.7 M 575.45 413.1 Q 575.45 406.25 571.75 401.9 567.95 397 561.1 397 554.7 397 550.7 401.65 546.5 406.05 546.5 412.55 L 546.5 412.7 Q 546.5 419.55 551 423.8 555.25 428.15 561.9 428.15 569.45 428.15 574.1 422.55 L 570 419 Q 566.45 422.55 561.9 422.55 558.5 422.55 556.2 420.6 553.85 418.55 553.35 415.05 L 575.3 415.05 575.45 413.1 M 553.35 410.4 Q 553.7 406.95 555.8 404.8 557.95 402.7 561.1 402.7 564.35 402.7 566.4 404.9 568.3 406.95 568.6 410.4 L 553.35 410.4 M 598.05 405.45 L 600.7 400.45 Q 595.65 397.15 589.75 397.15 585.15 397.15 582.15 399.5 579.1 402.05 579.1 406.25 L 579.1 406.4 Q 579.1 410.25 582.15 412.4 584.2 413.9 588.5 415.05 591.3 416 593.05 416.7 595.05 417.75 595.05 419.25 L 595.05 419.4 Q 595.05 420.8 593.85 421.75 592.75 422.55 590.55 422.55 585.55 422.55 580.65 419 L 577.65 423.6 Q 583.35 428.1 590.3 428.1 595.1 428.1 598.2 425.7 601.35 423.25 601.35 418.6 601.35 414.9 598.4 412.7 596.3 411.05 592.1 409.8 588.4 408.65 587.4 408.05 585.4 407.1 585.4 405.6 585.4 404.1 586.5 403.45 587.6 402.5 589.5 402.5 593.45 402.5 598.05 405.45 M 633.3 415.05 L 633.3 413.1 Q 633.3 406.15 629.75 401.9 625.8 397 619.1 397 612.6 397 608.6 401.65 604.5 406 604.5 412.55 L 604.5 412.7 Q 604.5 419.65 608.85 423.8 613.15 428.15 619.7 428.15 627.35 428.15 631.95 422.55 L 628 419 Q 624.4 422.55 619.9 422.55 616.4 422.55 614.2 420.6 611.75 418.55 611.2 415.05 L 633.3 415.05 M 618.95 402.7 Q 622.25 402.7 624.2 404.9 626.1 407 626.6 410.4 L 611.2 410.4 Q 611.85 406.8 613.8 404.8 615.85 402.7 618.95 402.7 M 613.15 369.15 L 613.15 329.45 606.3 329.45 606.3 369.15 613.15 369.15 M 644.75 341.7 Q 641.75 338.55 636.85 338.55 631.15 338.55 627.6 343.9 L 627.6 339.2 620.65 339.2 620.65 369.15 627.6 369.15 627.6 352.2 Q 627.6 348.65 629.5 346.75 631.3 344.8 634.3 344.8 637.4 344.8 639.05 346.65 640.65 348.7 640.65 352.2 L 640.65 369.15 647.5 369.15 647.5 350.15 Q 647.5 344.8 644.75 341.7 M 553.85 354.25 Q 553.85 360.8 558.35 365.2 562.75 369.7 569.65 369.7 576.55 369.7 581.05 365.2 585.7 360.55 585.7 354.15 585.7 347.75 581.2 343.1 576.4 338.55 569.8 338.55 563 338.55 558.35 343.2 553.85 347.7 553.85 354.15 L 553.85 354.25 M 563.25 360.95 Q 560.7 358.2 560.7 354.15 560.7 350.05 563.1 347.45 565.7 344.6 569.65 344.6 573.65 344.6 576.35 347.45 578.85 350.2 578.85 354.15 L 578.85 354.25 Q 578.85 358.35 576.35 360.95 573.8 363.8 569.8 363.8 565.75 363.8 563.25 360.95 M 521.65 387.85 L 506.9 387.85 506.9 427.5 521.65 427.5 Q 530.9 427.5 536.9 421.75 542.8 416.1 542.8 407.65 L 542.8 407.55 Q 542.8 399.05 536.9 393.6 531.05 387.85 521.65 387.85 M 514 394.15 L 521.65 394.15 Q 527.8 394.15 531.75 398.1 535.45 401.8 535.45 407.65 L 535.45 407.8 Q 535.45 413.7 531.75 417.45 527.9 421.2 521.65 421.2 L 514 421.2 514 394.15 M 517.5 341.7 Q 514.55 338.55 509.65 338.55 503.9 338.55 500.35 343.9 L 500.35 339.2 493.5 339.2 493.5 369.15 500.35 369.15 500.35 352.2 Q 500.35 348.8 502.2 346.75 504.15 344.8 507.05 344.8 510.05 344.8 511.8 346.65 513.4 348.55 513.4 352.2 L 513.4 369.15 520.3 369.15 520.3 350.15 Q 520.3 345 517.5 341.7 M 552.05 343.65 Q 547.3 338.55 540.05 338.55 533.55 338.55 529 343.2 524.65 347.75 524.65 354.15 L 524.65 354.25 Q 524.65 360.8 529 365.2 533.4 369.7 540.05 369.7 544.4 369.7 547.3 368.15 549.8 366.95 552.25 364.1 L 548.1 360.1 Q 544.6 363.8 540.45 363.8 536.5 363.8 533.9 360.95 531.5 358.25 531.5 354.15 531.5 350.2 533.9 347.45 536.4 344.6 540.05 344.6 544.2 344.6 547.85 348.35 L 552.05 343.65 M 453.25 386.2 L 446.5 386.2 446.5 402.3 Q 442.45 397 436.3 397 430.6 397 426.75 401.1 422.5 405.3 422.5 412.55 422.5 419.8 426.75 424.15 430.7 428.1 436.3 428.1 442.45 428.1 446.5 422.55 L 446.5 427.5 453.25 427.5 453.25 386.2 M 431.9 419.65 Q 429.35 416.9 429.35 412.55 429.35 408.05 431.9 405.45 434.35 402.9 437.9 402.9 441.45 402.9 443.95 405.6 446.55 408.2 446.55 412.55 446.55 416.9 443.95 419.5 441.5 422.15 437.9 422.15 434.4 422.15 431.9 419.65 M 455.55 339.55 Q 455.55 335.8 452.85 332.95 449.3 329.45 442.55 329.45 L 424.8 329.45 424.8 369.15 443 369.15 Q 449.8 369.15 453.65 366.4 457.75 363.45 457.75 358.2 L 457.75 358.1 Q 457.75 354.3 455.55 351.9 453.35 349.65 449.85 348.55 455.55 345.5 455.55 339.65 L 455.55 339.55 M 448.55 340.75 Q 448.55 343.5 446.55 344.8 444.6 346.2 441.05 346.2 L 431.55 346.2 431.55 335.65 441.6 335.65 Q 444.9 335.65 446.7 336.95 448.55 338.3 448.55 340.75 M 431.55 352.1 L 442.6 352.1 Q 450.8 352.1 450.8 357.3 L 450.8 357.5 Q 450.8 360.1 448.7 361.6 446.85 362.85 443.15 362.85 L 431.55 362.85 431.55 352.1 M 484.35 342 Q 481.05 338.8 474.5 338.8 468.55 338.8 463.1 341.25 L 465 346.65 Q 469.5 344.85 473.55 344.85 480.85 344.85 480.85 351.3 L 480.85 351.8 Q 476.75 350.6 472.6 350.6 467.15 350.6 463.9 353 460.5 355.6 460.5 360.4 L 460.5 360.45 Q 460.5 364.9 463.7 367.35 466.5 369.6 471.15 369.6 477.3 369.6 480.8 365.35 L 480.8 369.15 487.6 369.15 487.6 351.4 Q 487.6 345.4 484.35 342 M 481.05 356.55 L 481.05 358.25 Q 481.05 361.1 478.65 362.85 476.55 364.5 473 364.5 470.4 364.5 468.95 363.4 467.25 362.15 467.25 360.1 467.25 357.8 469.05 356.6 471.1 355.35 474.15 355.35 477.65 355.35 481.05 356.55 M 556.35 68.35 Q 542.1 63.55 523.85 63.55 L 424.8 63.55 424.8 276.45 526.25 276.45 Q 564.65 276.45 585.55 260.75 606.7 245.15 606.7 216.6 L 606.7 216.05 Q 606.7 197.75 598.35 185.3 589.75 172.75 571.9 164.75 595.25 148.75 595.25 120.75 L 595.25 120.2 Q 595.25 97.85 580.05 82.75 570.8 73.5 556.35 68.35 M 543.6 127.85 L 543.6 128.5 Q 543.6 147 514 147 L 475.5 147 475.5 109.8 517.1 109.8 Q 528.05 109.8 534.85 113.25 543.6 117.85 543.6 127.85 M 555.05 210.35 L 555.05 211 Q 555.05 230.25 526.25 230.25 L 475.5 230.25 475.5 191.2 524.65 191.2 Q 555.05 191.2 555.05 210.35 M 661.95 400.15 Q 659.15 397 654.2 397 648.3 397 644.9 402.3 L 644.9 397.55 638 397.55 638 427.5 644.9 427.5 644.9 410.55 Q 644.9 407.25 646.7 405.2 648.6 403.25 651.6 403.25 654.5 403.25 656.35 405.05 658 407.15 658 410.55 L 658 427.5 664.85 427.5 664.85 408.45 Q 664.85 403.25 661.95 400.15 M 697.45 397.55 L 690.35 397.55 682.2 419.65 674.15 397.55 666.8 397.55 679.05 427.7 685.2 427.7 697.45 397.55 M 725.05 401.65 Q 720.4 397 713.6 397 706.9 397 702.3 401.65 697.75 406.15 697.75 412.55 L 697.75 412.7 Q 697.75 419.15 702.15 423.6 706.75 428.15 713.6 428.15 720.4 428.15 725.05 423.6 729.55 418.95 729.55 412.55 729.55 406.15 725.05 401.65 M 722.65 412.55 L 722.65 412.7 Q 722.65 416.7 720.3 419.4 717.55 422.15 713.6 422.15 709.8 422.15 707.05 419.4 704.55 416.4 704.55 412.55 704.55 408.5 707.05 405.85 709.5 403.05 713.6 403.05 717.55 403.05 720.25 405.85 722.65 408.6 722.65 412.55 M 768.8 397.55 L 760.7 419.65 752.65 397.55 745.3 397.55 757.55 427.7 763.7 427.7 775.9 397.55 768.8 397.55 M 786.75 397.55 L 779.85 397.55 779.85 427.5 786.75 427.5 786.75 397.55 M 838.9 408.35 Q 838.9 403 836.1 400.05 833.3 397 828.4 397 822.25 397 818.2 402.3 815.75 397 809.45 397 804.1 397 800.3 402.1 L 800.3 397.55 793.45 397.55 793.45 427.5 800.3 427.5 800.3 410.7 Q 800.3 407.1 802.1 405.2 803.75 403.25 806.7 403.25 809.45 403.25 811.1 405.05 812.7 406.85 812.7 410.4 L 812.7 427.5 819.65 427.5 819.65 410.55 Q 819.65 407 821.35 405.05 823 403.25 826 403.25 831.95 403.25 831.95 410.55 L 831.95 427.5 838.9 427.5 838.9 408.35 M 872.1 415.05 L 872.15 413.1 Q 872.15 406.15 868.6 401.9 864.7 397 857.9 397 851.6 397 847.3 401.65 843.3 406.05 843.3 412.55 L 843.3 412.7 Q 843.3 419.65 847.7 423.8 851.95 428.15 858.6 428.15 866.15 428.15 870.85 422.55 L 866.75 419 Q 863.2 422.55 858.75 422.55 855.3 422.55 853.1 420.6 850.65 418.55 850.1 415.05 L 872.1 415.05 M 863.1 404.9 Q 865 406.85 865.45 410.4 L 850.1 410.4 Q 850.55 406.95 852.55 404.8 854.8 402.7 857.8 402.7 861.15 402.7 863.1 404.9 M 903.65 408.45 Q 903.65 403.3 900.9 400.15 897.95 397 893 397 887.15 397 883.6 402.3 L 883.6 397.55 876.8 397.55 876.8 427.5 883.6 427.5 883.6 410.55 Q 883.6 407.35 885.6 405.2 887.3 403.25 890.3 403.25 893.45 403.25 895.05 405.05 896.7 406.95 896.7 410.55 L 896.7 427.5 903.65 427.5 903.65 408.45 M 959.8 412.55 Q 959.8 406.05 955.4 401.65 950.75 397 943.95 397 937.25 397 932.6 401.65 928.1 406.15 928.1 412.55 L 928.1 412.7 Q 928.1 419.15 932.5 423.6 937.1 428.15 943.95 428.15 950.75 428.15 955.4 423.6 959.8 419.1 959.8 412.55 M 953.05 412.55 L 953.05 412.7 Q 953.05 416.7 950.65 419.4 947.9 422.15 943.95 422.15 940.15 422.15 937.5 419.4 934.9 416.5 934.9 412.55 934.9 408.5 937.35 405.85 939.85 403.05 943.95 403.05 947.9 403.05 950.6 405.85 953.05 408.6 953.05 412.55 M 917.95 389.35 L 911.05 389.35 911.05 397.55 907.3 397.55 907.3 403.45 911.05 403.45 911.05 419.25 Q 911.05 427.9 919.6 427.9 923.15 427.9 925.8 426.5 L 925.8 420.8 Q 923.85 421.85 921.5 421.85 917.95 421.85 917.95 418.2 L 917.95 403.45 925.9 403.45 925.9 397.55 917.95 397.55 917.95 389.35 M 926.3 342 Q 923.05 338.8 916.45 338.8 910.5 338.8 905.15 341.25 L 906.9 346.65 Q 911.6 344.85 915.55 344.85 922.9 344.85 922.9 351.3 L 922.9 351.8 Q 918.65 350.6 914.6 350.6 909.1 350.6 906 353 902.55 355.5 902.55 360.4 L 902.55 360.45 Q 902.55 364.9 905.7 367.35 908.55 369.6 913.2 369.6 919.25 369.6 922.75 365.35 L 922.75 369.15 929.6 369.15 929.6 351.4 Q 929.6 345.35 926.3 342 M 923 356.55 L 923 358.25 Q 923 361.05 920.7 362.85 918.5 364.5 915.1 364.5 912.5 364.5 910.9 363.4 909.25 362.2 909.25 360.1 909.25 357.8 911.15 356.6 913.05 355.35 916.2 355.35 919.65 355.35 923 356.55 M 959.4 341.7 Q 956.5 338.55 951.7 338.55 946 338.55 942.3 343.9 L 942.3 339.2 935.5 339.2 935.5 369.15 942.3 369.15 942.3 352.2 Q 942.3 348.9 944.2 346.75 946.15 344.8 949.1 344.8 952.1 344.8 953.8 346.65 955.4 348.55 955.4 352.2 L 955.4 369.15 962.35 369.15 962.35 350.15 Q 962.35 345 959.4 341.7 M 888.35 338.55 Q 881.7 338.55 877.3 343.2 872.9 347.6 872.9 354.15 L 872.9 354.25 Q 872.9 360.8 877.3 365.2 881.55 369.7 888.35 369.7 892.6 369.7 895.45 368.15 897.9 367 900.55 364.1 L 896.3 360.1 Q 892.85 363.8 888.65 363.8 884.7 363.8 882.1 360.95 879.65 358.1 879.65 354.15 879.65 350.3 882.1 347.45 884.65 344.6 888.35 344.6 890.85 344.6 892.7 345.65 893.95 346.35 896.05 348.35 L 900.25 343.65 Q 895.5 338.55 888.35 338.55 M 860.75 334.6 L 868.05 334.6 868.05 328.15 860.75 328.15 860.75 334.6 M 856.85 345.9 L 856.85 338.7 Q 849.55 338.3 846.35 345.9 L 846.35 339.2 839.45 339.2 839.45 369.15 846.35 369.15 846.35 357.7 Q 846.35 352.05 849.2 348.8 851.9 345.9 856.45 345.9 L 856.85 345.9 M 867.85 339.2 L 861.05 339.2 861.05 369.15 867.85 369.15 867.85 339.2 M 786.95 392.95 L 786.95 386.5 779.65 386.5 779.65 392.95 786.95 392.95 M 805.9 354.15 L 805.9 354.25 Q 805.9 361.1 810.3 365.5 814.75 369.7 821.3 369.7 828.85 369.7 833.5 364.1 L 829.5 360.55 Q 825.7 364.1 821.35 364.1 817.95 364.1 815.75 362.15 813.3 360.15 812.85 356.55 L 834.7 356.55 834.8 354.65 Q 834.8 347.85 831.25 343.45 827.3 338.55 820.5 338.55 814.25 338.55 810.1 343.1 805.9 347.75 805.9 354.15 M 815.3 346.35 Q 817.4 344.2 820.5 344.2 823.8 344.2 825.85 346.45 827.75 348.7 828 352.1 L 812.7 352.1 Q 813.15 348.5 815.3 346.35 M 741.55 386.2 L 734.65 386.2 734.65 427.5 741.55 427.5 741.55 386.2 M 780.95 343.9 Q 778.35 338.55 772.15 338.55 769 338.55 766.45 340.1 764.8 341.3 762.9 343.65 L 762.9 339.2 756.1 339.2 756.1 369.15 762.9 369.15 762.9 352.25 Q 762.9 348.9 764.8 346.75 766.55 344.8 769.4 344.8 772.2 344.8 773.85 346.65 775.45 348.65 775.45 352.1 L 775.45 369.15 782.25 369.15 782.25 352.2 Q 782.25 348.7 784.15 346.65 785.7 344.8 788.7 344.8 791.55 344.8 793.05 346.65 794.6 348.5 794.6 352.2 L 794.6 369.15 801.55 369.15 801.55 350 Q 801.55 344.7 798.8 341.55 795.95 338.55 791.05 338.55 785 338.55 780.95 343.9 M 723.05 360.45 Q 723.05 364.9 726.4 367.35 729.2 369.6 733.7 369.6 740.05 369.6 743.5 365.35 L 743.5 369.15 750.3 369.15 750.3 351.4 Q 750.3 345.4 747.05 342 743.6 338.8 737.05 338.8 731.2 338.8 725.75 341.25 L 727.55 346.65 Q 732.15 344.85 736.1 344.85 743.6 344.85 743.6 351.3 L 743.6 351.8 Q 739.3 350.6 735.3 350.6 729.85 350.6 726.6 353 723.05 355.6 723.05 360.4 L 723.05 360.45 M 743.6 356.55 L 743.6 358.25 Q 743.6 361.1 741.35 362.85 739.15 364.5 735.7 364.5 733.1 364.5 731.65 363.4 729.95 362.2 729.95 360.1 729.95 357.7 731.75 356.6 733.65 355.35 736.8 355.35 740.4 355.35 743.6 356.55 M 686.55 338.55 Q 680.3 338.55 676.15 343.1 671.95 347.75 671.95 354.15 L 671.95 354.25 Q 671.95 361.2 676.45 365.5 680.8 369.7 687.35 369.7 694.9 369.7 699.55 364.1 L 695.45 360.55 Q 691.85 364.1 687.35 364.1 683.95 364.1 681.65 362.15 679.3 360.25 678.8 356.55 L 700.75 356.55 700.9 354.65 Q 700.9 347.85 697.35 343.45 693.35 338.55 686.55 338.55 M 681.25 346.35 Q 683.4 344.2 686.55 344.2 689.8 344.2 691.85 346.45 693.7 348.65 694.05 352.1 L 678.8 352.1 Q 679.2 348.55 681.25 346.35 M 661.85 339.2 L 661.85 330.95 655 330.95 655 339.2 651.2 339.2 651.2 345.1 655 345.1 655 360.85 Q 655 369.55 663.5 369.55 667 369.55 669.75 368.05 L 669.75 362.45 Q 667.35 363.55 665.5 363.55 661.85 363.55 661.85 359.7 L 661.85 345.1 669.8 345.1 669.8 339.2 661.85 339.2 M 712.4 345.9 L 712.4 339.2 705.5 339.2 705.5 369.15 712.4 369.15 712.4 357.7 Q 712.4 352.05 715.2 348.8 717.95 345.9 722.6 345.9 L 723 345.9 723 338.7 Q 715.5 338.4 712.4 345.9 M 672.95 89.2 Q 672.95 78.45 665.25 70.75 657.75 63.25 646.95 63.25 L 621.05 63.25 621.05 276.45 672.95 276.45 672.95 89.2 M 890.25 170.05 L 890.25 169.35 Q 890.25 123.35 858.3 93.55 826.4 63.55 777.25 63.55 L 693.5 63.55 693.5 276.45 777.25 276.45 Q 801.35 276.45 822.15 268.6 843.2 260.55 858.75 245.7 874.05 231.05 882.05 211.55 890.25 191.9 890.25 170.05 M 836.3 170.05 L 836.3 170.5 Q 836.3 196.7 820 212.95 803.7 229.05 777.25 229.05 L 745.3 229.05 745.3 110.95 777.25 110.95 Q 803.7 110.95 820 127.3 836.3 143.7 836.3 170.05 M 994 343.1 Q 989.3 338.55 982.6 338.55 975.85 338.55 971.2 343.2 966.7 347.7 966.7 354.15 L 966.7 354.25 Q 966.7 360.7 971.2 365.2 975.6 369.7 982.45 369.7 989.3 369.7 993.9 365.2 998.4 360.65 998.4 354.15 998.4 347.55 994 343.1 M 991.7 354.25 Q 991.7 358.25 989.25 360.95 986.7 363.8 982.6 363.8 978.6 363.8 976 360.95 973.55 358.2 973.55 354.15 973.55 350.05 975.9 347.45 978.5 344.6 982.45 344.6 986.55 344.6 989 347.45 991.7 350.15 991.7 354.15 L 991.7 354.25 Z"/>
</g>
</defs>
<g transform="matrix(1,0,0,1,0,0)">
<use xlink:href="#l1"/>
</g>
<g transform="matrix(1,0,0,1,0,0)">
<use xlink:href="#l0"/>
</g>
</svg>
