<svg xmlns="http://www.w3.org/2000/svg" xmlns:xlink="http://www.w3.org/1999/xlink" width="100%" height="100%" viewBox="0 0 1024 1024">
<!-- Vectorization by Rodrigo Polo https://github.com/rodrigopolo/logotipos-politicos -->
<defs>
<g id="l3">
<path fill="#3A76BC" stroke="none" d="M 803.8 889.2 L 790.05 872 783.35 876.6 786.8 883.45 776.45 891.45 759.45 864.15 Q 764.3 859.1 775.45 854.85 781.05 852.7 785.65 851.55 L 792.35 858.4 798.1 852.7 784.5 835.65 Q 778.05 844.8 747.7 864.55 732.4 874.3 718.5 882.3 L 720.65 886.9 730.95 882.3 767.3 942.55 759.45 948.3 764 954 809.55 923.25 804.95 917.5 796.95 923.25 781.05 897.05 792.35 889.2 796.95 894.75 803.8 889.2 M 246.35 886.9 L 265.7 861.85 Q 271.25 864 278.7 872.85 282.45 877.15 285 881.15 L 280.4 890.3 286.15 893.75 297.45 875.45 Q 280.4 865.55 257.1 846.65 L 237.2 829.9 233.75 835.65 239.5 841.35 195.1 897.05 188.25 891.45 184.8 895.9 Q 191.7 903.9 250.8 946 L 262.25 928.95 255.4 924.4 249.65 933.55 Q 241.2 931.4 230.35 924.25 L 221.3 917.5 242.95 893.75 253.1 900.5 248.5 908.5 254.25 910.8 265.7 892.6 259.95 889.2 255.4 893.75 246.35 886.9 M 353.25 984.65 L 345.25 983.65 342.95 988.1 366.85 997.25 370.3 992.65 362.3 989.2 373.75 974.5 410.1 983.65 412.4 1001.8 398.8 1000.65 398.8 1005.25 455.6 1015.4 455.6 1008.55 450 1008.55 434 927.8 403.35 919.8 353.25 984.65 M 378.3 967.6 L 401.05 941.4 408.95 976.75 378.3 967.6 M 379.45 934.7 L 385.05 915.35 Q 367.3 910.35 334.1 894.2 L 304.3 878.85 295.15 897.05 300.9 900.5 305.45 895.9 Q 308.35 894.6 316.9 896.2 321.05 897.05 324.8 898.2 L 297.45 963.05 287.3 958.6 285 964.15 335.1 985.8 337.4 980.2 328.2 976.75 356.7 911.95 373.75 924.4 371.45 932.4 379.45 934.7 M 617.2 930.1 Q 616.6 928.8 620.2 928.55 624.05 928.25 624.05 927.8 624.05 927.1 622.9 924.55 L 621.75 922.1 567.1 931.25 568.25 938.1 575.1 937 617.2 968.75 625.2 999.55 614.9 1002.95 617.2 1007.4 669.55 994.95 667.25 989.2 658.1 990.35 650.25 959.75 669.55 913.1 677.45 908.5 674.15 903.9 649.1 913.1 651.4 918.65 658.1 916.35 Q 659.25 920.95 643.35 950.6 636.8 945.7 630.35 940.85 617.2 930.85 617.2 930.1 M 543.75 934.85 L 539.9 934.7 Q 527 936.1 495.8 934.4 L 467.05 932.4 468.2 939.15 476.05 940.25 472.75 1009.7 464.75 1009.7 Q 463.6 1016.55 464.75 1016.55 L 514.85 1018.85 513.7 1012 506.85 1012 508 980.2 523.85 980.2 Q 524.6 979.5 526.6 982.65 527.6 984.05 528.45 985.8 L 529.6 1010.85 Q 529.6 1011.7 532.75 1014.25 535.75 1016.85 537.6 1017.7 L 575.1 1015.4 572.8 1008.55 571.65 1009.7 Q 564.8 1009.7 562.65 1007.4 562.65 1006.55 562.5 1006.4 562.35234375 1006.25234375 561.5 1006.25 562.35 1006.234375 562.35 1005.25 562.35 1004.1 561.5 1000.65 561.5 993.5 555.2 986.2 L 548.9 980.2 Q 553.2 977.9 557.5 973.9 565.95 965.9 565.95 957.45 565.95 948.45 559.35 941.55 553.9 935.85 550.05 935.85 547.9 935.1 543.75 934.85 M 509.15 973.35 L 511.4 941.4 527.3 941.4 530.75 944.85 529.6 968.75 Q 529.6 972.2 527.3 973.35 L 509.15 973.35 M 195.1 786.7 L 173.5 760.5 167.8 765.1 173.5 770.8 117.7 815.2 110.95 806 105.25 809.45 124.55 834.5 129.15 831.05 122.3 822.05 160.9 792.4 146.2 859.55 167.8 881.15 221.3 825.5 226.9 831.05 230.35 825.5 213.3 808.3 208.7 812.9 214.45 819.75 180.4 853.8 195.1 786.7 M 72.2 704.85 Q 63.05 717.55 63.9 731.3 64.3 738.05 66.6 742.35 L 73.9 756.65 Q 81.5 771.4 83.65 774.25 93.35 787.25 111.25 788.7 127.85 790.15 140.45 781.1 153.9 770.4 156.05 751.9 L 155.35 735.6 136 700.25 Q 116.25 683.5 96.8 688.1 82.35 691.5 72.2 704.85 M 79.05 753.8 Q 77.9 751.5 77.75 750.05 77.5 747.65 79.05 744.6 80.75 741.2 81.8 739.45 83.5 736.45 87.05 734.45 L 115.4 717.3 121 714.85 Q 127 712.55 129.15 714 135.3 715.3 137 717.3 139.3 719.55 140.45 723 L 143.15 727.85 Q 145.2 733.6 141.6 737.75 139.6 739.75 130.3 746.05 117.15 754.8 101.8 762.8 99.25 764.25 95.8 764.8 88.95 765.95 84.8 761.65 79.05 756.05 79.05 753.8 M 22.25 587.6 L 19.95 577.45 14.2 578.6 19.95 608.1 25.55 605.8 23.4 596.75 71.05 588.75 21.1 620.65 25.55 637.7 83.65 643.45 39.25 660.45 34.7 650.15 28.95 652.45 47.15 704.85 52.85 702.55 49.45 692.25 115.4 668.5 121.15 679.8 126.85 676.35 112.1 638.85 67.75 633.15 Q 106.4 608.1 104.1 606.95 102.95 604.65 97.25 563.7 L 90.5 564.85 91.5 576.3 22.25 587.6 M 73.35 538.65 L 65.45 513.6 87.05 497.75 60.9 497.75 54 472.7 45 497.75 18.8 497.75 39.25 513.6 30.1 539.8 52.85 522.8 73.35 538.65 M 37 372.65 L 39.25 363.5 33.55 362.35 19.95 414.7 26.65 415.85 28.95 405.55 97.25 423.75 94.95 434.05 101.8 435.2 114.25 382.8 108.7 380.5 105.25 389.65 37 372.65 M 82.5 263.45 L 88.2 254.3 82.5 250.85 67.75 277.05 73.35 280.45 79.05 271.3 121.15 295.2 55.15 304.35 39.25 343 45 346.45 49.45 336.15 115.4 362.35 112.1 371.5 117.7 373.8 128 347.6 122.3 344.15 117.7 353.3 73.35 336.15 136 328.25 150.75 300.95 82.5 263.45 M 133.75 192.9 Q 141.6 183.7 153.05 178 L 158.65 182.55 164.35 176.85 149.6 163.25 Q 144.45 166.7 117.25 201.75 89.95 236.65 88.2 241.8 L 105.25 252 108.7 247.4 102.95 241.8 Q 104.4 236.1 108.95 227.1 L 113.25 219.05 167.8 262.3 162.05 270.15 167.8 273.6 184.8 249.7 184.8 233.8 133.75 192.9 M 224.75 134.75 L 220.15 139.35 224.75 143.95 Q 225.9 147.35 214.45 152.95 L 194 130.2 Q 204.55 120.3 216.9 114 222.9 110.85 226.9 109.7 L 232.6 116.6 237.2 112 225.9 96.1 Q 221.05 97.7 189.1 125.9 157.5 153.5 156.5 156.4 L 160.9 160.95 167.8 152.95 207.6 197.3 234.9 197.3 274.7 165.55 262.25 147.35 256.5 151.95 256.25 152.25 Q 256.25 152.8 257.65 154.1 259.95 156.4 261.1 158.65 260.4 162.55 251.95 171.85 244.2 180.3 241.8 181.45 L 240.65 182.55 Q 235.75 177.15 230.9 171.85 220.9 160.95 220.15 160.95 L 220.15 158.65 229.2 150.8 234.9 156.4 239.5 152.95 224.75 134.75 M 336.25 86.95 Q 351.4 74.25 343.1 58.2 339.8 51.75 333.4 47.9 326.95 44.05 320.2 44.9 310.35 46.3 274.4 66.8 L 240.65 86.95 245.2 91.55 253.1 86.95 287.3 148.5 279.3 154.1 283.85 158.65 328.2 133.6 324.8 126.9 Q 321.35 130.2 319.05 130.2 317.65 130.9 317.05 130.6 L 302.05 103 314.65 97.25 317.2 96.55 Q 319.9 95.7 321.35 95 322.5 95 324.8 97.25 L 337.4 120.05 Q 338.4 122.3 344.1 122.3 345.25 123.45 356.7 120.05 L 378.3 112 376.05 105.3 374.9 106.45 Q 371.45 107.45 369.15 107.45 368.3 107.45 366.3 106.3 364.3 105 363.45 104.15 363.45 103.3 361.15 98.4 358.7 93.55 357.85 92.7 355.55 90.95 353.25 89.4 348.7 86.25 345.25 86.95 341.7 87.7 338.65 87.4 L 336.25 86.95 M 306.6 62.05 Q 308.9 64.2 317.9 82.55 316.8 86.95 314.65 88.1 313.5 90.4 298.6 97.25 L 282.7 68.8 299.75 60.9 302.3 60.65 Q 305.2 60.65 306.6 62.05 M 455.6 16.55 L 465.9 14.25 464.75 7.4 435.15 11.95 436.3 17.55 446.6 16.55 451 62.05 403.35 17.55 365.7 27.85 368 34.7 376.05 32.45 395.35 100.7 386.2 103 388.5 108.6 413.5 101.85 412.4 95 404.5 97.25 391.9 51.75 438.55 96.1 464.75 92.7 455.6 16.55 M 585.4 88.1 L 577.4 86.95 545.5 6.25 518.3 5.1 482.95 83.65 474.9 84.8 476.05 91.55 Q 479.5 90.4 502.25 90.4 L 501.1 82.55 494.4 82.55 501.1 65.35 533.05 64.2 540.9 82.55 531.9 83.65 533.05 90.4 Q 539.9 89.25 585.4 95 L 585.4 88.1 M 530.75 58.65 L 504.55 58.65 519.3 27.85 530.75 58.65 M 836.7 783.25 L 842.45 789 848.15 781.1 Q 882.25 811.75 885.65 814.05 886.8 815.2 889.1 817.2 891.1 819.6 892.55 825.5 894.1 832.5 890.7 837.2 888.1 840.8 881.1 844.8 876.2 848.25 869.65 846.95 L 864.05 844.8 826.55 806 832.3 800.45 826.55 794.7 792.35 831.05 795.8 835.65 801.5 829.9 Q 836.7 866.4 840.15 868.7 841.9 871.15 847.3 873.3 852.6 875.45 856.05 875.45 861.75 875.45 873.2 868.7 L 898.25 842.5 Q 899.85 840.95 901.55 828.8 901.55 823.9 897.1 815.05 L 892.55 807.15 853.9 774.25 858.35 767.4 852.75 762.8 836.7 783.25 M 905 686.65 L 908.45 678.65 902.7 676.35 891.4 699.1 897.1 702.55 901.55 694.55 942.65 715 874.35 728.75 858.35 756.05 862.9 759.35 868.65 752.65 926.6 791.3 921 800.45 925.45 803.85 942.65 778.85 936.9 775.4 931.2 785.55 894.85 758.35 961.95 746.9 974.4 719.55 905 686.65 M 969.8 583.05 Q 950.65 578.9 936.2 591.35 931.6 595.2 928.05 600.35 L 925.45 604.65 906.15 668.5 911.85 670.65 915.3 661.6 981.25 684.35 977.85 695.65 984.7 697.95 Q 989.85 683.2 995 666.75 1005.15 633.7 1005.15 625.1 1006.2 613.1 997.75 601.05 987.7 586.9 969.8 583.05 M 932.6 612.25 Q 934.35 612.1 935.75 612.65 L 992.6 628.55 Q 996.85 629.25 997.45 632.4 997.75 634 997.15 635.4 L 992.6 652.45 Q 975.85 647 959.1 641.55 925.45 630.4 925.45 629.7 926.6 621.8 927.75 616.1 929.2 612.5 932.6 612.25 M 967.7 504.6 L 941.5 504.6 961.95 520.5 952.8 546.7 975.55 529.65 997.15 545.55 988.15 520.5 1009.75 504.6 983.55 504.6 976.7 479.55 967.7 504.6 M 817.4 200.75 L 816.25 201.9 827.7 201.9 830 200.75 817.4 200.75 M 968.7 291.75 L 953.95 264.6 870.95 274.75 865.2 266.75 860.6 270.15 875.5 292.9 879.95 289.5 876.65 281.6 894.85 279.3 910.7 308.95 898.25 322.55 890.25 307.8 884.55 309.95 909.55 368.05 915.3 365.75 914.15 357.75 968.7 291.75 M 903.25 279.3 L 939.2 274.75 915.3 302.1 903.25 279.3 M 656.95 34.7 Q 658.4 34.7 667.55 39.9 672 42.3 676.3 44.9 L 674.15 52.9 682 55.2 687.75 35.85 Q 665.7 26.3 628.75 18 595.55 10.4 595.55 11.95 594.85 13.4 592.85 22.55 591.85 27 591 31.3 L 597.85 32.45 600.15 25.55 622.9 26.7 605.85 91.55 595.55 90.4 594.4 96.1 Q 598 96.1 623.35 103.55 636.05 107.15 647.95 110.85 L 649.1 104.15 639.95 100.7 Q 639.95 99.55 656.95 34.7 M 737.85 65.35 L 746.85 69.95 Q 750.3 64.2 749.15 63.05 749.15 62.05 700.2 40.3 L 696.9 44.9 705.9 50.6 676.3 114.3 666.15 110.85 665 116.6 Q 667.85 116.6 691.15 128.05 702.9 133.6 713.95 139.35 L 717.35 133.6 708.2 128.05 737.85 65.35 M 834.15 128.05 Q 832 122.3 828.55 117.15 L 825.4 113.15 790.05 88.1 Q 764 78.95 747.7 89.85 735.25 98.15 730.95 115.45 727.4 131.05 734.55 143.65 738.1 149.8 742.4 152.95 L 755 164.1 Q 768.3 175.55 771.9 176.85 787.2 185.45 804.4 181.7 821.4 178 830 164.4 840.6 146.65 834.15 128.05 M 798.1 101.85 Q 800.35 101.85 803.8 105.3 L 808.1 108.7 Q 811.95 113.15 810.55 118.9 808.55 126.2 804.95 132.35 799.5 141.65 785.65 158.65 783.65 161.55 780.35 163.8 773.75 168.4 767.3 165.55 760.6 160.95 759.45 159.8 757.15 157.5 756.3 156.1 754.85 153.8 754.85 150.8 755.45 146.5 755.85 144.35 756.6 140.65 759.45 137.05 762.85 131.35 777.6 109.7 L 781.6 105.3 Q 786.2 100.7 788.9 100.7 795.8 100.7 798.1 101.85 M 860.6 142.8 L 856.05 147.35 862.9 155.25 820.85 197.3 833.3 197.3 852.75 178 845.9 242.85 845.9 250.85 855.05 262.3 917.6 217.9 923.15 225.8 928.9 221.2 910.7 196.3 905 200.75 910.7 208.75 882.25 230.35 889.1 172.4 860.6 142.8 M 989.3 356.6 L 991.45 368.05 923.15 385.1 918.75 374.95 914.15 377.1 Q 918.75 381.65 931.2 455.65 L 951.65 452.2 951.65 444.35 941.5 444.35 Q 937.9 442.9 934.75 430.45 L 932.35 418.15 999.45 401 1002.9 412.45 1009.75 410.15 994.85 355.45 989.3 356.6 Z"/>
</g>
<g id="l2">
<path fill="#3A76BC" stroke="none" d="M 784.9 242.4 Q 731.8 189.45 663.4 160.4 592.3 130.2 514.85 130.2 436.85 130.2 365.85 160.4 297.15 189.45 244.35 242.4 191.55 295.35 162.5 364.05 132.6 434.9 132.6 512.45 132.6 590.05 162.5 661.05 191.55 729.6 244.35 782.55 297.15 835.5 365.85 864.7 436.85 894.75 514.85 894.75 592.3 894.75 663.4 864.7 731.95 835.5 784.9 782.55 837.85 729.6 866.9 661.05 897.1 590.05 897.1 512.45 897.1 435.05 866.9 364.05 837.85 295.5 784.9 242.4 M 777.05 249.7 Q 828.4 301.2 856.45 368.05 885.65 437.05 885.65 512.45 885.65 587.9 856.45 657.05 828.4 723.85 777.05 775.4 725.65 826.9 659.25 855.25 590.25 884.6 514.85 884.6 439 884.6 369.85 855.25 303.05 826.9 251.5 775.4 200.15 723.7 171.95 657.05 142.75 587.9 142.75 512.45 142.75 437.05 171.95 368.05 200.15 301.2 251.5 249.7 303.05 198.15 369.85 169.85 439 140.5 514.85 140.5 590.25 140.5 659.25 169.85 725.65 198.15 777.05 249.7 Z"/>
</g>
<g id="l1">
<path fill="#3A76BC" stroke="none" d="M 842.45 238.4 L 842.45 200.75 189.4 200.75 189.4 561.4 Q 189.4 600.2 199.7 637.7 208.85 672.05 228.6 704.4 247.8 735.6 274.7 761.65 318.5 805.45 383.9 839.1 429.55 862.7 478.35 877.75 483.5 879.85 490.95 882.15 495.25 883.45 503.4 885.75 504.55 885.75 506.85 886.3 509.15 886.9 510.25 886.9 537.6 881.75 564.8 873.15 619.75 856.85 665 831.05 724.1 800.75 769.6 748.05 794.05 719.45 810.55 684.1 826.4 649.6 833.3 611.5 837.6 590.05 838.85 560.3 839.6 525.65 840.15 508.05 840.15 415.85 841.3 369.2 841.3 282.75 842.45 238.4 M 728.65 304.35 Q 771.45 325.7 799.25 365.65 827.15 405.7 832.3 453.35 837.3 502 818.85 547.7 800.25 593.35 762.85 624.1 736.95 644.7 705.9 655.9 674.45 667.35 642.25 667.35 613.45 667.35 585.1 658.3 557.05 649.45 533.05 633.15 531.3 632 527.85 629.1 524.45 626.25 522.7 625.1 521.6 624.55 519.85 622.95 519.0908203125 622.1908203125 518.45 621.65 550.0974609375 594.246875 567.65 556.15 585.4 517.5 585.4 474.95 585.4 433.45 567.65 394.8 550.2505859375 357.0353515625 519 328.9 519.9193359375 328.25 520.45 328.25 521.6 326 526.15 323.7 569.8 290.35 624.9 285.05 680.15 279.6 728.65 304.35 M 649.1 738.6 Q 658.95 734.9 660.4 734.45 663.25 733.9 667.85 732.9 671.7 732.15 675.3 732.15 L 682 732.15 Q 683.15 732.15 684.3 733.3 685.3 733.3 686.3 735.15 687.45 736.9 686.6 737.75 686.3 738.05 685.45 739.3 685 740.05 684.3 740.05 L 679.7 740.05 Q 677.45 742.35 676.3 742.35 L 666.15 752.65 Q 663.25 754.35 658.1 758.95 652.95 763.35 650.25 765.1 643.35 769.65 641.1 771.95 639.35 772.55 635.35 774.8 631.35 777.1 629.75 777.7 614.75 782 605.85 783.25 591 783.25 583.1 782.1 579.7 782.1 574.55 780.95 568.8 779.4 565.95 778.85 563.1 777.7 557.5 775.95 551.8 774.25 548.9 773.1 545.05 771.8 539.45 769.1 532.75 765.95 530.75 765.1 546.75 767.4 553.5 767.4 L 578.55 767.4 Q 580.25 767.4 584.25 766.8 588.15 766.25 589.85 766.25 592.15 766.25 601.3 763.95 602.15 763.65 612.6 761.35 619.45 759.8 622.9 757.2 617.2 757.2 613.75 758.35 613.05 758.95 611.9 758.8 609.75 758.35 609.15 758.35 608.9 758.35 607.45 758.95 606 759.35 604.75 759.35 603.6 759.35 601.85 758.95 600.15 758.35 599 758.35 598.6 758.35 597.15 758.95 595.7 759.35 594.4 759.35 592.7 759.95 588.7 760.5 584.85 761.1 583.1 761.65 576.25 762.8 564.8 762.8 L 554.65 762.8 Q 551.8 763.1 550.05 763.1 546.9 763.1 545.5 761.65 547.2 761.1 550.05 760.1 552.5 759.35 554.65 759.35 556.35 758.95 560.8 758.35 564.1 757.95 565.95 757.2 581.95 752.65 588.7 749.2 591 748.5 599.7 745.2 607 742.45 611.45 741.2 L 637.65 741.2 Q 642.35 741.2 649.1 738.6 M 389.6 288.35 Q 424.1 288.35 455.9 300.2 488.25 312.25 513.7 335 543.75 361.6 560.5 398.25 577.4 435.2 577.4 474.95 577.4 515.6 560.5 552.85 543.75 589.35 513.7 616.1 488.25 638.85 455.9 650.85 424.1 662.75 389.6 662.75 312.05 662.75 256.95 607.8 202 552.7 202 474.95 202 398.1 256.95 343.3 312.05 288.35 389.6 288.35 M 319.05 706 Q 320.2 706.55 323.65 707.1 327.1 707.7 328.2 708.25 331.65 710.55 339.55 715 343.55 717 349.25 721.45 356.85 727.3 359 728.75 365.45 734.05 379.45 740.05 381.75 740.9 389.2 745.05 395.35 748.5 399.95 749.2 406.1 749.2 411.25 752.65 414.25 754.2 415.8 752.65 416.95 750.65 417.4 749.75 418.1 748.35 418.1 746.9 418.8 746.9 419.25 746.2 420.1 744.9 420.4 744.6 L 419.25 743.5 Q 418.4 742.6 417.65 740.6 416.95 738.75 416.95 737.75 419.25 734.45 420.4 732.15 422.7 729.9 423.85 727.6 428 723.6 432.85 721.85 439.7 719.55 443.15 719.55 444.85 719.55 449.3 719.15 453 718.85 454.45 719.55 455.6 720.15 457.3 721.15 458.75 721.85 460.2 721.85 L 465.9 721.85 Q 469.75 727.6 468.2 732.15 466.2 739.75 462.45 743.5 462.05 744.5 461.3 746.75 460.75 748.65 460.2 749.2 L 453.3 752.65 Q 446.75 756.05 439.7 756.05 L 432.85 756.05 Q 432.25 755.5 429.7 754.95 427.25 754.35 427.25 753.8 426.55 752.5 428.1 750.9 430.25 748.65 430.55 748.05 431.25 747.35 430.25 745.2 429.55 743.6 428.4 742.35 L 427.25 743.5 427.25 745.75 Q 426.55 747.2 424.95 748.5 424.1 749.2 422.7 750.35 L 421.55 751.5 421.95 753.2 Q 422.25 754.2 421.55 754.95 421.55 755.5 420.4 756.65 419.25 757.8 419.25 758.35 421.1 759.5 424.4 759.35 428.1 758.95 429.4 759.35 430.55 759.35 434 760.5 435.85 760.5 438.45 761.1 441 761.65 442 761.65 L 448.85 761.65 Q 449.3 761.65 450.75 760.5 452 759.35 453.3 759.35 455.45 759.35 458.45 758.2 460.2 757.5 463.6 756.05 464.2 755.5 465.9 754.95 467.6 754.35 468.2 753.8 469.35 751.5 471.65 749.2 477.2 742.35 479.5 740.05 492.1 731 497.7 726.45 509 720 520.45 715 523.85 714 531.9 714 539.9 714 543.2 712.85 543.45 712.85 554.65 712.4 561.2 712.15 565.95 712.85 570.5 714 579.7 715 583.1 716.15 591 716.15 L 602.45 716.15 Q 604.85 716.15 608.6 715.55 612.15 715 613.75 715 621.75 715 625.2 716.15 625.75 716.7 630.2 718.55 633.65 720.45 630.8 721.85 626.9 724.6 619.45 726.45 616.05 726.45 609.15 731 607.6 732.15 604.75 734.3 602.3 736.05 600.15 736.6 596 739.3 588.7 741.2 581.95 743.75 578.4 745.05 571.95 747.35 567.1 748.05 L 555.8 751.5 Q 554.35 752.2 552.5 751.9 550.65 751.5 550.05 751.5 548.65 751.5 547.2 752.2 545.5 753.2 544.35 753.8 L 538.75 753.8 Q 537.75 754.2 535.45 754.95 533.6 755.5 533.05 756.05 530.75 756.05 526.75 756.65 522.7 757.2 520.45 757.2 516.45 758.5 509.55 759.2 L 497.7 760.5 476.05 760.5 Q 473.35 759.8 470.65 760.8 467.6 762.2 465.9 762.8 465.35 763.1 463.2 764.35 462.05 765.1 461.3 765.1 459.9 765.8 462.2 767.25 463.35 767.95 464.75 768.5 468.2 769.65 477.2 769.65 479.5 769.65 481.8 768.5 482.5 767.8 483.8 767.4 484.65 767.1 487.5 766.25 491.65 765.5 498.4 765.8 501.95 765.95 509.15 766.25 511.4 766.8 515.4 767.4 519.3 767.95 521.6 768.5 525.75 771.25 533.05 773.1 537.2 774.55 542.75 777.25 545.75 778.85 552.35 782.1 561.5 784.4 564.8 784.4 L 573.95 787.85 Q 587.7 792.4 596.7 792.4 L 604.75 792.4 Q 606.15 792.4 609.15 791.4 611.3 790.7 612.6 791.3 L 619.45 791.3 Q 621.75 791.3 624.05 793.55 627.05 794.55 627.5 795 628.35 795.85 627.5 798.15 627.05 798.15 625.6 798.7 624.2 799.3 622.9 799.3 L 617.2 799.3 Q 614.45 800.3 602.45 806 599.85 806.6 596.3 808.9 592.4 811.3 591 811.75 L 577.4 815.2 Q 567.95 817.9 566.1 818.35 559.95 819.75 554.65 819.75 538.75 819.75 529.6 815.2 528.3 814.75 524.3 812.9 520.7 811.3 518.3 810.6 501.1 801.6 493.25 797 487.25 793 484.1 786.7 482.8 786 481.2 784.25 478.95 781.7 478.35 781.1 477.5 780.7 474.9 778.4 472.9 776.55 471.65 776.55 L 461.3 776.55 Q 460.45 776.55 459.75 775.25 459.05 774.1 459.05 773.1 458.45 772.55 457.3 771.95 456.15 771.4 455.6 770.8 453.3 768.5 452.15 768.5 450.6 767.4 450.15 767.1 449.6 766.65 448.85 767.4 451 770.8 455.6 776.55 455.9 777.1 456.3 779.7 456.6 781.1 457.9 781.1 459.05 781.1 461.9 780.55 464.75 779.95 465.9 779.95 471.9 780.7 476.5 786.55 479.65 790.4 482.95 798.15 485.25 805 485.25 810.6 L 485.25 816.35 Q 482.95 820.9 482.95 822.05 482.95 823.05 482.2 824.75 481.35 826.5 480.65 826.5 476.05 828.8 473.8 828.8 469.9 830.05 462.45 827.65 456.15 826.05 451 820.9 450.3 820.9 448.3 819.6 446.45 818.45 445.45 817.45 443.15 812.9 442 809.45 L 442 804.9 Q 442 803.75 441.45 801.15 440.85 798.6 440.85 798.15 443.15 792.4 443.85 791 445.45 787.85 447.75 785.55 L 451 792.4 Q 452 794.45 452.9 794.7 454.05 795.15 455.6 793.55 457.05 792.15 455.75 790.3 L 453.3 787.85 Q 452.15 786.7 452.15 784.4 452.15 782.1 451 781.1 L 445.45 775.4 Q 443.7 773.95 442.7 773.1 440.85 771.55 440.85 770.8 440.85 769.1 440 767.4 438.85 765.25 437.4 767.4 436 768.8 436.7 770.4 437.15 771.4 438.55 774.25 435.85 774.25 432.25 772.95 426.85 770.95 426.1 770.8 419.25 768.5 414.65 767.4 411.25 766.25 404.5 763.35 397.65 760.5 394.2 759.35 385.9 755.95 370.3 751.5 369.15 750.35 365.7 750.35 364 750.05 362.7 749.9 360.3 749.65 359 750.35 355.55 751.5 354.4 751.5 352.15 751.5 351.1 751.2 349.4 750.75 348.7 749.2 344.7 746.5 342.1 740.35 338.55 731.6 337.4 729.9 327.5 717.45 320.2 714 318.35 713 315.9 711 313.2 708.7 312.35 707.1 312.05 704.85 312.05 703.95 312.05 702.55 313.5 702.55 315.9 702.55 316.65 702.95 317.35 703.4 319.05 706 M 505 781.55 Q 501.1 781.1 493.25 781.1 493.95 782.55 498.55 783.55 502.1 784.4 504.55 784.4 505.7 785 508.7 786.7 511.55 788.25 513.7 789 517 790.7 523.85 794.7 530.6 798.7 534.15 800.45 535.75 801 539.9 802.75 543.6 804.3 545.5 804.9 547.9 804.9 551.65 805.45 555.35 806 556.95 806 559.2 806 564.95 806.45 570.1 806.75 572.8 806 576.25 803.85 584.25 803.85 585.4 803.85 585.4 801.6 L 573.95 801.6 Q 568.1 801.6 559.2 799.3 556.35 798.7 551.2 797 546.05 795.3 543.2 794.7 537.75 793.3 529.6 790 520.6 786.15 516 784.4 511.4 782.25 505 781.55 M 479.5 751.5 Q 480.65 752.65 481.8 752.65 488.8 750.65 503.4 745.75 510 743.9 526.15 741.2 538.2 737.75 550.05 737.75 551.8 737.75 555.8 737.2 559.8 736.6 561.5 736.6 563.5 736.05 566.35 734.45 569.4 732.75 570.5 732.15 573.4 730.75 576.8 730 578.8 729.6 583.1 728.75 584.85 728.15 588.55 728.15 592.15 728.15 593.3 727.6 595.55 727.6 595.55 726.45 595.55 725.6 595.45 725.45 595.3 725.3 594.4 725.3 L 587.55 725.3 Q 586 725.3 582.55 725.85 579.1 726.45 577.4 726.45 573.4 727 565.5 727.6 557.5 728.15 553.5 728.75 538.75 729.9 531.9 732.15 523.3 734.45 518.85 735.75 510.7 737.9 505.7 740.05 501.1 741.75 492.65 745.75 484.1 749.75 479.5 751.5 M 337.4 718.45 Q 336.65 719.85 339.4 722.3 340.7 723.6 342.95 725.3 349.85 732.15 348.7 735.6 347.85 734.75 347.1 734.75 346.4 734.75 346.4 735.6 346.4 736.6 347.55 740.05 347.55 740.6 348.1 741.75 348.7 742.9 348.7 743.5 350.25 745.05 352 744.6 353.55 744.2 354.4 742.35 354.4 736.2 351 731 350.25 729.6 348 727.6 L 344.1 724.15 Q 342.95 723.6 340.7 721.3 338.4 719 337.4 718.45 Z"/>
</g>
<g id="l0">
<path fill="#3A76BC" stroke="none" d="M 499.95 616.1 L 498.8 616.1 Q 495.55 619.4 495.55 620.65 495.55 622.55 496.95 623.7 498.25 624.85 499.95 624.1 499.95 628.55 504.55 626.25 505 625.85 505.7 624.25 506.25 622.95 506.85 622.95 L 510.25 619.55 Q 512.15 617.65 509.15 616.1 508 616.1 505.7 618.4 L 503.4 618.4 503.4 617.25 Q 502.25 616.1 499.95 616.1 M 469.35 514.75 Q 468.6 516.2 469.65 517.5 470.2 518.2 471.65 519.35 472.65 519.35 474.35 519.9 476.05 520.5 477.2 520.5 479.5 520.5 481.8 522.8 483.65 522.8 484.1 521.35 484.65 519.9 482.95 518.2 482.95 517.05 478.35 517.05 472.75 517.05 472.75 515.9 472.35 514.9 471.65 512.75 471.05 510.9 470.5 510.35 469.9 510.9 469.9 512.6 469.9 514.2 469.35 514.75 M 339.55 536.35 Q 338.65 536.8 337.4 538.5 336.4 539.8 335.1 539.8 334.5 540.4 333.95 542.1 333.4 543.8 332.8 544.4 332.8 544.7 332.4 547.25 332.1 548.85 332.8 550.1 L 332.8 555.85 Q 332.8 557 332.5 560.3 332.5 563.45 333.95 564.85 335.1 567.15 338.4 569.45 339.55 569.45 341.8 567.15 342.55 566.45 341.7 564.85 340.7 562.85 340.7 562.55 340.7 561.3 341.25 559.25 341.8 557.25 341.8 556.85 341.8 554.7 344.1 552.4 344.1 551.85 345.25 550.1 346.4 548.4 346.4 547.8 346.7 543.55 346.7 541.65 346.7 538.5 345.25 536.35 345.25 535.5 343.95 534.35 342.7 533.1 341.8 533.1 340.1 533.95 339.8 534.35 339.55 534.8 339.55 536.35 M 445.45 490.85 Q 444.3 492 445.45 494.3 446.6 495.45 450 495.45 451 495.45 456.75 501.15 457.05 501.75 459.05 504.75 460.6 507.2 461.3 509.2 461.75 509.2 464.2 512.9 466.35 516.05 467.05 514.75 467.6 511.6 467.9 509.9 468.5 506.45 467.05 505.75 465.9 503.45 461.3 498.9 456.75 494.3 454.45 493.15 452.15 491.6 450 491.15 448.6 490.85 445.45 490.85 M 412.4 485.3 Q 412.4 485.85 412.1 488.15 412.1 490.15 413.5 490.85 415.1 490.85 416.1 489.15 416.95 487.55 416.95 486.4 417.25 484.7 417.25 483.55 417.25 481.4 415.8 480.7 L 414.1 482.55 Q 412.4 484.55 412.4 485.3 M 571.65 518.2 Q 571.1 518.75 569.95 519.35 568.8 519.9 568.25 520.5 L 567.1 521.65 Q 566.35 522.9 566.65 523.2 567.1 523.65 567.1 523.9 567.4 524.2 567.8 526.5 568.1 528.05 569.4 527.35 569.95 527.35 570.5 525.5 571.1 523.35 571.65 522.8 L 571.65 518.2 M 569.8 513.45 Q 569.5 509.45 567.1 510.35 565.35 511.2 565.95 515.2 566.5 519.05 568.25 518.2 570.1 517.35 569.8 513.45 M 498.8 530.8 Q 498.8 531.65 500.1 531.65 501.4 531.65 502.25 530.8 502.55 530.8 503.4 530.35 503.85 530.1 504.55 530.8 L 508 530.8 Q 510.85 530.8 509.15 527.35 L 505.7 527.35 Q 504.55 528.5 497.7 528.5 496.8 528.5 497.4 529.65 497.95 530.8 498.8 530.8 M 501.1 525.8 Q 500.7 525.05 498.8 525.05 497.7 523.9 494.4 523.9 L 490.95 523.9 Q 489.25 523.05 488.65 522.9 488.1 522.8 486.35 522.8 484.8 523.5 485.65 524.35 486.35 525.05 487.5 525.05 488.65 525.05 489.8 525.65 490.95 526.2 492.1 526.2 L 496.1 527.2 Q 499.25 528.05 499.95 527.35 501.7 526.5 501.1 525.8 M 507 501.45 Q 508.25 500.3 506.85 498.9 499.95 498.9 496.55 501.15 493.25 502.9 493.25 509.2 L 493.25 513.6 Q 496.65 517.05 497.7 517.05 499.55 516.5 497.95 513.6 496.1 510.05 496.55 509.2 497.25 509.2 497.7 509.9 498.55 511.2 498.8 511.45 498.8 512.2 499.55 512.9 500.25 513.6 501.1 513.6 501.95 513.6 503.1 513.05 504.25 512.45 503.4 512.45 503.4 511.75 502.7 511.05 501.95 510.35 501.1 510.35 497.7 508.05 504.55 508.05 506.7 505.9 503.95 505.6 500.55 505.75 499.95 505.75 499.95 504.15 501.4 503.15 502.7 502.3 504.55 502.3 506 502.3 507 501.45 M 534.15 538.65 Q 534.15 539.4 533.45 540.55 532.15 542.65 531.9 543.25 531.9 544.55 531.15 545.55 529.9 547.25 529.6 547.8 527.85 551.25 526.15 547.8 522.6 544.25 522.3 543.8 520.6 541.25 522.7 539.8 523 539.25 524.3 537.5 525 536.5 525 535.25 525.3 533.35 525.3 532.8 525.3 531.95 523.85 531.95 L 512.55 531.95 Q 510.85 532.5 508 534.8 505.1 536.95 503.4 537.5 497.7 537.5 493.25 542.1 L 491.5 543.4 Q 490.5 544.1 489.8 545.55 489.25 545.55 488.65 546.1 488.1 546.7 487.5 546.7 L 485.25 546.7 Q 481.8 548.95 474.9 551.25 471.05 552.55 468.2 558 467.05 560.3 465.9 563.7 463.6 566 463.6 568.3 463.6 571.75 462.45 574 462.45 576.3 460.2 578.6 459.45 579.3 459.9 580.75 460.3 582.05 461.3 583.05 461.9 583.05 463.6 584.2 465.35 585.3 465.9 585.3 469.35 584.75 476.35 583.3 482.5 582.3 487.5 583.05 490.5 583.75 492.4 586.2 493.55 587.6 495.55 591.05 495.65 591.5 496.25 593.75 496.4 594.9 497.7 595.65 498.4 596.35 499.55 595.35 501.7 593.6 502.25 593.35 501.1 597.9 501.1 604.65 501.55 605.65 502.25 607.95 502.85 609.8 503.4 610.35 504.55 611.5 508 611.5 508.4 611.5 510.4 610.95 512.4 610.35 513.7 610.35 L 518.3 610.35 Q 523.85 605.8 527.3 603.5 529.75 601.05 530.75 599.05 533.05 596.75 533.05 594.5 L 535.15 592.75 Q 536.45 591.75 536.45 591.05 538.75 587.6 539.9 585.3 539.9 584.9 541.05 583.45 542.05 582.05 542.05 580.75 543.2 579.6 543.2 575.15 L 543.2 564.85 Q 540.75 557.4 542.05 553.55 542.05 550.1 540.9 547.8 539.9 545.55 539.9 542.1 539.9 535.8 539.9 535.5 539.3 530.95 536.45 533.1 535.9 533.65 535.3 535.5 534.6 537.65 534.15 538.65 M 560.35 509.2 L 559.2 510.35 Q 559.95 511.6 558.95 512.35 557.5 513.05 556.95 513.6 556.05 515.35 557.2 515.9 558.35 516.5 559.2 514.75 560.35 514.75 561.5 513.6 L 561.5 511.45 Q 561.5 509.2 560.35 509.2 M 560.35 503.45 Q 560.35 504.6 562.65 504.6 562.65 506.9 563.65 508.05 563.65 509.2 564.8 510.35 565.65 510.35 566.35 509.6 567.1 508.9 567.1 508.05 567.95 506.3 565.35 504.3 562.95 502.3 560.35 502.3 L 560.35 503.45 M 523.85 494.3 Q 519.85 493.3 518.15 493.85 516 494.6 518.3 497.75 L 519.3 498.9 Q 518.85 498.9 517.7 499.45 516.55 500 516 500 514.4 500.75 514.7 501.6 515 502.3 516 502.3 517.15 503.45 518.3 505.75 519.3 506.9 522.7 506.9 526.15 506.9 529.6 510.35 530.45 511.2 530.6 511.6 530.75 512.05 530.75 513.6 530.75 515.9 529.6 517.05 528.9 518.5 530.6 519.75 530.9 520.05 534.15 521.65 535.9 522.2 537.6 523.9 539.3 525.65 540.9 526.2 542.2 527.5 543.75 526.05 545.6 524.5 546.6 525.05 547.9 525.05 549.5 526.95 551.5 529.2 552.35 529.65 552.8 530.1 554.65 529.8 556.35 529.5 556.95 530.8 556.95 532.2 557.8 533.95 558.95 535.95 560.35 535.25 562.5 534.65 560.95 530.65 558.65 526.2 558.05 525.05 556.95 521.65 552.35 514.75 552.35 513.6 550.05 513.6 550.05 512.75 549.9 512.45 549.75 512.2 548.9 511.45 546.6 509.2 544.35 509.2 542.6 508.05 540.45 504.6 538.2 501.15 536.45 500 534.75 498.9 531.45 500.6 528.45 502.3 527.3 501.15 526.45 501.15 525.75 500.45 525 499.75 525 498.9 526.15 497.75 526.15 496.6 525.85 496.3 525 495 524.6 494.3 523.85 494.3 M 513.7 492 Q 513.7 490.85 509.15 490.85 509.15 491.6 508.1 493.85 507.25 495.75 508 497.75 508 498.6 510.4 499.75 512.85 500.9 513.7 500 516 497.75 514.85 496.6 514.3 496 513.3 496 512.55 496 512.55 495.45 512.55 494.85 513.15 493.7 513.7 492.6 513.7 492 M 495.55 486.4 Q 495.55 485.7 493.65 484.85 491.95 484.15 490.95 484.15 490.25 483.4 489.25 484.4 488.65 485 487.5 486.4 486.35 487.55 482.95 489.7 479.5 493.15 474.9 493.15 473.35 494 473.05 494.45 472.75 494.85 472.75 496.6 472.05 498.15 472.5 499.3 472.75 500 473.8 501.15 473.8 502.3 474.9 505.75 475.65 506.45 477.2 506.2 478.05 506.05 479.5 505.75 482.95 505.75 484.1 506.9 485.8 508.6 487.5 506.9 487.5 505.75 488.1 504.6 488.65 503.45 488.65 502.3 488.65 501.15 492.1 497.75 493.25 496 493.4 495.45 493.55 494.6 492.1 493.15 491.25 492.3 491.25 491 491.25 489.7 492.1 489.7 492.95 489 494.25 488.15 494.8 487.7 495.55 486.4 M 498.25 471.4 Q 499.25 472.7 501.1 472.7 502.7 472.7 501.25 470.95 499.8 469.25 498.8 469.25 497.25 470.1 498.25 471.4 M 503.55 473.95 Q 502.25 475.25 502.25 476.1 502.55 476.4 503.85 477.25 504.55 477.7 504.55 478.4 504.55 479 503.95 480.15 503.4 481.25 503.4 481.85 502.1 481.15 500.55 481.4 497.95 481.85 497.7 481.85 496.65 482.85 496.95 484 497.25 485.3 498.8 485.3 499.95 485.3 499.95 484.15 502.25 484.15 503.4 485.3 503.95 485.85 504.85 486.85 505.85 487.55 508 487.55 509.4 486.85 508.85 485.15 508 482.15 508 481.85 508 480.85 507 479.55 506.25 478.55 506.85 477.25 507.7 476.4 507.1 474.55 506.55 472.7 505.7 472.7 504.85 472.7 503.55 473.95 M 502.25 469.25 Q 502.55 469.25 503.85 469.7 504.55 469.95 504.55 469.25 L 503.4 465.95 Q 501.7 464.25 501.1 466.8 500.55 469.25 502.25 469.25 M 499.95 454.5 Q 498.8 452.2 496.55 452.2 493.8 452.2 494.4 455.35 494.65 457.1 495.55 460.25 493.8 461.95 495.55 463.65 496.25 464.55 497.7 465.25 499.1 465.95 499.95 465.95 500.85 465.95 500.85 464.25 500.85 462.5 499.95 462.5 499.95 462.1 498.95 459.8 498.1 457.95 498.8 457.95 501.1 455.65 499.95 454.5 M 502.25 432.9 Q 501.1 430.6 499.95 431.75 498.8 432.9 498.8 435.2 497.7 436.35 497.7 442.05 501.95 444.2 503.4 439.75 502.25 435.2 502.25 432.9 M 511.4 412.45 Q 513.4 412.45 515.15 411.55 517.15 410.55 517.15 409 515.4 408.15 512.55 409.85 509.7 411.55 511.4 412.45 M 285.3 356.3 Q 284.7 355.75 283.85 356.6 283 356.6 283.55 357.2 284.15 357.75 285 357.75 285.85 356.9 285.3 356.3 M 306.6 344.15 Q 306.6 343.6 307.35 342.85 308.35 341.85 308.9 340.7 307.75 339.6 306.6 339.6 303.2 340.7 299.75 344.15 299.3 344.85 299.05 348 298.75 350.3 297.45 351.05 296 351.45 293.15 351.15 290.85 350.9 289.6 352.15 287.3 354.45 287.3 355.45 287.3 356.9 288.6 356.9 289.3 356.9 290.75 356.6 291.3 356.6 292.45 357.2 293.6 357.75 294 357.75 296.3 357.75 297.45 356.6 298.05 356.6 299.15 356.05 300.3 355.45 300.9 355.45 302.2 354.9 301.9 354.45 301.6 353.75 302.05 353.3 305.05 348.75 306.6 344.15 M 290.75 340.7 Q 289.6 341.85 288.45 341.85 288.45 342.85 287.7 344 287 345.3 286.15 345.3 285 345.9 283.15 346.75 282 347.75 282.7 349.9 283.45 351.45 284.55 351.15 284.85 351.15 287.3 349.9 L 291.85 349.9 Q 292.45 349.9 293.6 349.3 294.6 348.75 295.15 348.75 296.6 348 296.6 347 296.3 345.9 296.3 345.3 296.3 341.85 294 341.85 291.85 341.85 290.75 340.7 M 310.2 314.1 Q 308.9 315.4 308.9 316.8 308.9 318.4 310.35 318.85 311.2 319.1 313.5 319.1 315.65 319.1 317.2 318.4 318.2 317.95 320.2 316.8 321.35 315.7 321.5 314.55 321.8 312.95 320.2 312.25 319.35 313.1 318.9 313.25 318.5 313.4 316.8 313.4 314.65 312.25 312.35 312.25 311.75 312.8 310.2 314.1 M 614.05 389.65 Q 613.6 388.4 612.6 387.4 611.45 386.25 609.15 385.1 608.15 386.4 610.3 388.55 610.3 389.8 611.15 391.1 612.3 392.7 613.75 391.95 614.6 391.25 614.05 389.65 M 628.35 330 Q 628.35 332.15 629.75 332.7 631.35 334.45 632.35 334.45 633.35 334.45 634.2 332.7 635.8 329.85 633.05 327.15 631.9 326 630.8 326 630.2 325.25 629.75 325.7 629.2 326.55 628.65 327.15 628.65 327.7 628.35 330 M 642.25 320.25 Q 643.1 318.7 641.35 318.4 639.8 318.1 638.8 319.1 636.5 321.4 636.5 322.55 636.5 324.4 637.8 325.4 639.1 326.4 639.95 324.85 642.25 322.55 642.25 320.25 M 645.65 313.4 Q 644.1 312.65 643.1 313.65 642.25 314.55 642.25 315.7 642.25 317.25 643.1 317.8 L 645.65 319.1 Q 645.65 318.85 646.1 315.8 646.4 314.1 645.65 313.4 M 556.35 361.2 Q 555.2 360.6 554.65 360.05 554.2 360.2 551.65 360.75 550.5 361.05 551.2 362.35 551.9 363.6 553.5 363.9 555.35 364.2 555.8 364.65 556.8 364.65 557.8 363.9 558.8 363.05 558.05 362.35 557.5 361.75 556.35 361.2 M 564.65 357.35 Q 563.5 356.6 562.65 356.6 559.2 356.6 558.05 357.75 558.05 358.6 559.35 359.35 560.5 360.05 561.5 360.05 562.1 360.05 564.25 360.35 565.95 360.35 565.95 358.9 565.95 358.05 564.65 357.35 M 522.15 382.8 Q 521 382.25 520.45 381.65 520.7 380.25 520.85 379.35 521.15 377.8 520.45 377.1 519.15 377.1 518.45 379.5 517.45 382.5 517.15 382.8 516.55 383.95 517.15 386.65 517.7 389.1 517.15 389.65 517.15 390.95 515.4 392.95 513.7 394.95 513.7 395.4 513.7 395.95 515 397.25 516.55 398.85 517.15 399.85 513.7 399.85 512.55 401 511.4 403.25 509.15 406.7 508.25 406.7 507.7 408.55 507.1 410.45 508 411.3 508.4900390625 411.5212890625 508.9 411.5 507.623046875 412.85390625 506.7 414.7 505.4 417.45 506.85 418.15 507.55 418.85 508 417.85 508.85 416.15 509.15 415.85 511.4 414.7 510.25 413.55 510.25 413 509.7 412.45 509.2478515625 411.9568359375 509.15 411.5 509.955859375 411.3708984375 510.55 410.45 511.4 409.15 511.4 407.85 512.85 407.85 514.85 406.55 L 518.3 404.4 Q 520.45 404.4 520.45 403.25 521.6 402.1 521.6 399.85 522.7 399.85 522.7 398.85 523.45 398.85 523.15 398.1 522.7 396.85 522.7 396.55 L 523.85 395.4 Q 523.85 390.8 522.7 389.65 523.85 386.25 523.85 383.95 523.3 383.35 522.15 382.8 M 514.85 370.35 Q 512.55 369.2 511.4 368.05 508.7 368.8 510.25 371.5 511.15 372.95 512.55 374.95 513 375.35 513.3 377.8 513.55 379.8 514.85 380.5 516 380.5 517.15 377.1 517.15 376.5 519 375.5 521.15 374.2 521.6 373.8 522.85 373.05 522.3 372.5 520.7 370.9 520.45 370.35 520.45 369.65 518.15 369.9 515.4 370.35 514.85 370.35 M 518.15 350.15 Q 519 350.15 520.45 349.9 523.85 348.75 518.3 346.45 516 348.75 514.85 348.75 516.3 350.15 518.15 350.15 M 520.45 352.15 L 517.15 352.15 Q 516.3 352.15 516.3 353.3 516.3 354.45 517.15 354.45 L 518.85 354.9 Q 519.7 355.05 520.45 354.45 521.3 353.6 521.3 353.3 521.3 353.05 520.45 352.15 M 492.1 345.3 Q 492.1 346.45 490.95 346.45 492.25 349 496.25 352.15 500.85 355.9 502.25 357.75 502.85 358.35 503.4 361.2 503.95 364.05 504.55 364.65 505.55 365.65 508.55 366.65 511.85 367.75 512.55 366.9 514 366.2 511.55 364.05 508.55 361.75 508 361.2 507.1 360.35 507 359.9 506.85 359.45 506.85 357.75 505.7 356.6 504.55 354.45 503.55 353.75 498.7 349.9 494.65 346.6 492.1 345.3 M 558.05 309.95 Q 556.05 311.1 555.2 311.55 553.8 312.25 552.35 312.25 551.2 312.25 548.9 314.55 547.2 317.1 545.2 318.1 543.2 319.1 539.9 319.1 538.75 321.4 534.75 323.7 530.75 326 529.6 328.25 L 543.2 328.25 Q 543.45 328 544.75 327.15 545.5 326.7 545.5 326 545.5 325.25 546.2 325.55 547.5 326 547.75 326 548.9 327.15 552.35 327.15 L 563.65 327.15 Q 565.95 328.25 569.4 328.25 571.65 327.15 573.95 324.85 573.95 325.7 574.65 326.4 575.4 327.15 576.25 327.15 576.25 326 578.55 326 578.55 332.7 579.7 332.7 582.1 332.7 584.25 330.55 586.25 328.55 587.55 326 L 587.55 323.7 Q 587.55 323.1 588.15 322.55 588.7 321.95 588.7 321.4 588.7 319.1 586.4 316.8 586 315.7 586 314.1 586 312.8 585.4 312.25 585.4 310.25 582.25 309.25 578.55 308.4 577.4 307.8 570.5 305.5 567.1 305.5 565.95 306.1 564.8 307.25 563.65 308.4 562.65 308.95 559.2 309.95 558.05 309.95 M 377.9 344.3 Q 375.6 343.6 374.9 344.15 373.15 345 372.6 345.15 372 345.3 370.3 345.3 370.3 341.85 369.15 340.7 366.85 338.45 366.85 336.15 365.15 333.55 363.15 332.7 361.3 331.7 357.85 331.7 354.4 331.7 353.25 330.55 352.25 329.55 350.4 329.15 348.4 328.55 347.55 329.4 L 344.1 332.7 Q 343.55 332.7 342.95 333.3 342.4 333.85 341.8 333.85 341.8 335 339.55 335 338.55 335 337.4 336.15 336.25 337.3 335.1 337.3 331.65 337.3 329.35 338.45 L 323.65 338.45 Q 322.35 338.45 321.35 339.7 320.05 341.45 319.05 341.85 317.9 343 317.9 346.45 317.9 347.9 319.8 347.9 320.8 347.9 322.5 347.6 323.35 347.6 323.5 347.75 323.65 347.9 323.65 348.75 L 323.65 351.05 Q 323.65 352.3 322.5 353.75 321.8 354.6 321.5 355.2 321.35 352.9 320.2 352.15 320.2 351.45 318.35 351.75 316.35 352.15 315.75 352.15 312.35 352.15 310.05 353.3 305.9 357.2 300.9 358.9 299.75 358.9 298.05 359.45 296.3 360.05 295.15 360.05 295.15 360.75 293.45 360.45 291.3 360.05 290.75 360.05 L 285 360.05 Q 283.55 360.05 282.85 360.9 L 281.55 363.5 Q 280.4 364.65 278.15 368.05 277.85 368.35 276.85 370.35 276 371.9 274.7 372.65 274.15 373.2 273 371.9 271.7 370.35 271.25 370.35 270.85 369.9 268.55 370.2 266.4 370.5 265.7 369.2 264.55 368.05 263.95 367.9 262.95 367.65 262.25 369.2 258.8 370.9 258.8 373.8 258.8 375.2 258.1 375.95 257.65 376.35 256.5 377.1 255.95 377.65 254.5 378.95 253.5 380.25 254.25 381.65 255.4 383.95 255.4 387.4 255.4 388.8 257.25 388.8 258.25 388.8 259.95 388.55 261.1 388.55 263.95 389.1 266.85 389.65 267.95 389.65 270.25 389.65 270.7 389.4 271.4 388.55 272.4 387.4 272.4 386.8 273 386.25 273.55 385.65 273.55 385.1 274.15 384.5 274.15 383.95 274.15 383.35 274.7 382.8 279.3 382.8 280.4 383.95 280.4 385.1 285 385.1 285.85 384.25 287.3 384.25 288.7 384.25 289.6 385.1 291 385.8 291.75 386.95 292.15 387.65 293 389.65 293.6 390.4 293.45 391.95 293.3 392.8 293 394.25 294 396.55 295.15 397.7 295.15 398.25 295.75 399.4 296.3 400.4 296.3 401 296.3 402.7 296 403.15 295.75 403.55 294 404.4 L 294 407.85 Q 296.45 407.85 297.9 407 298.9 406.4 300.9 404.4 L 300.9 407.85 Q 303.3 405.55 303.9 403.15 304.3 401.55 304.3 397.7 304.3 397.1 303.2 395.95 302.05 394.8 302.05 394.25 L 302.05 390.8 Q 302.05 389.95 302.2 389.8 302.3 389.65 303.2 389.65 306.2 389.65 306.6 392.4 L 306.6 407.85 Q 313.5 407.85 314.65 405.55 313.5 402.1 313.5 401 313.5 399.85 316.8 399.85 315.75 402.1 315.75 405.55 315.75 405.85 315.35 406.7 315.05 407.15 315.75 407.85 L 315.75 410.15 Q 316.35 410.7 317.9 411.3 319.65 411.85 320.2 412.45 321.35 413.55 321.35 414.7 321.35 416.15 322.05 416.15 322.5 416.15 323.65 415.85 324.5 415.85 325.65 417.6 326.8 419.3 325.95 419.3 325.95 421 325.2 422.45 324.5 423.75 323.65 423.75 319.05 423.75 317.9 422.6 316.65 422.6 312.35 420.45 L 311.05 418.75 Q 310.35 417.7 308.9 417 L 298.6 417 Q 297.75 415 297.3 414.3 296.6 413.15 295.15 412.45 294.75 411.55 290.85 410 287.3 408.55 287.3 406.7 L 287.3 403.25 289.6 403.25 Q 289.85 403.85 290.75 406 291.15 407.15 291.85 407.85 293.15 407.15 293.3 406.15 293 405 293 404.4 L 290.75 402.1 Q 290.15 401.25 290 401.1 289.85 401 288.45 401 287.85 401 287.85 401.4 287.85 401.55 287.3 401 286.7 401 286.15 400.4 285.6 399.85 285 399.85 285 398.55 284.85 398.4 284.45 398.25 283.85 397.7 283.3 397.7 282.7 397.1 282.15 396.55 281.55 396.55 280.4 395.4 277 395.4 L 264.55 395.4 Q 261.1 393.1 258.8 391.95 258.1 391.95 256.65 390.8 L 255.4 389.65 Q 253.1 391.95 251.95 391.95 245.95 397.95 239.5 401 236.65 403.25 230.45 407.4 225.2 411.3 222.45 414.7 217.6 419.6 213.3 426.05 211 428.3 211 435.2 210.45 437.5 209.85 441.5 209.3 445.35 208.7 447.65 208.7 448.8 208.15 450.5 207.6 452.2 207.6 453.35 206.85 454.2 207.3 455.65 207.7 456.95 208.7 457.95 209.85 461.4 212.15 469.25 L 215.6 476.1 215.6 480.7 Q 215.6 483.3 215.9 483.85 216.15 484.4 217.9 485.3 218.6 486.7 219.75 486.7 220.45 486.7 222.45 486.4 225.05 485.55 225.75 485.7 226.45 485.85 228.05 487.55 229.2 488.7 232.6 488.7 233.75 488.7 238.8 488.3 243.35 488 244.05 488.7 245.2 489.7 247.5 493.15 249.2 493.15 251.1 493.85 253.1 494.6 253.1 495.45 253.8 496.15 253.5 498.9 253.35 500.3 253.1 502.3 253.1 504.6 254.25 506.9 255.8 509.3 258.8 518.2 259.25 519.35 261.55 523.35 263.4 526.5 263.4 528.5 L 263.4 534.25 Q 263.4 537.5 261.1 539.8 261.1 541.55 261.25 542.1 261.4 542.65 262.25 544.4 264.55 548.95 266.85 551.25 L 270.25 559.15 Q 272 563.15 274.85 571.15 277.55 578.15 280.4 583.05 281 584.75 282.7 588.2 284.45 591.6 285 593.35 287.3 595.65 289.6 595.65 291 595.65 294 592.2 295.75 591.05 299.75 589.35 303.75 587.6 305.45 586.45 307.6 585.75 308.6 582.15 309.5 578 310.05 576.3 310.05 575.6 310.75 575.15 312.05 574.3 312.35 574 315.05 573.15 316.2 570.85 317.35 568.45 315.75 566 314.65 564.85 314.65 563.7 L 314.65 559.15 Q 314.65 556.4 316.05 555 317.9 553.55 319.05 552.4 321.35 550.1 322.05 547.8 322.5 546.4 322.5 543.25 L 322.5 528.5 Q 322.5 528.05 319.8 524.5 317.2 521.2 317.9 520.5 L 325.95 512.45 Q 336.8 501.9 342.95 494.3 344.4 492.85 345.7 489.7 345.85 489.3 347.55 484.15 347.55 482.7 348.25 481.25 349.25 479.55 349.85 478.4 353.25 474.95 351 473.85 347.1 472.55 338.4 478.4 333.95 477.25 332.8 477.25 330.95 476 329.5 472.7 327.95 468.95 327.1 468.1 324.8 464.8 323.65 463.65 323.35 463.65 322.05 464.1 321.35 464.4 321.35 463.65 320.65 463.65 320.95 462.4 L 321.35 460.25 Q 321.35 458.25 320.05 455.1 L 317.9 449.95 Q 316.8 446.5 315.75 445.35 314.65 443.2 314.65 439.75 L 314.65 434.05 Q 314.65 433.2 316.35 432.05 317.9 430.9 317.9 431.75 319.2 433.05 320.05 436.9 321.05 441.5 321.35 442.05 323.2 449.35 325.95 453.35 325.95 454.8 327.2 455.5 L 329.35 456.8 Q 330.65 457.5 330.95 459.1 331.25 460.95 331.65 461.4 331.65 466.95 332.8 469.25 333.65 471.7 334.65 472.25 335.4 472.7 337.4 472.7 339.55 472.7 342.95 471.55 346.4 470.4 348.7 469.25 354.15 467.55 357.85 463.65 360.15 462.5 363.45 462.5 364.3 462.5 365.6 460.65 366.85 458.8 366.85 457.95 L 370.3 454.5 Q 370.6 452.8 370.75 451.8 371 449.95 370.3 449.95 L 368 449.95 Q 368 447.65 365.7 445.35 364.6 444.35 357.85 444.35 355.25 444.35 354.7 444.05 354.15 443.75 353.25 442.05 351 439.75 351 436.35 350.1 435.45 350 435.05 349.85 434.6 349.85 432.9 350.25 433.3 352 434.05 353.25 434.6 353.25 435.2 354.4 437.5 354.4 440.9 355.55 440.9 359 439.75 361.15 439.75 363.45 442.05 364 442.65 365.15 444.2 366.15 445.35 366.85 445.35 371.45 445.35 372.6 446.5 376.05 446.5 381.75 445.35 383.6 445.35 384.35 445.65 385.45 446.05 386.2 447.65 388.5 449.95 389.6 452.2 390.5 453.95 390.9 454.2 391.35 454.5 393.05 454.5 394.75 454.5 395.05 454.8 395.35 455.1 395.35 456.8 395.35 464.8 397.65 468.1 402.2 474.95 404.5 477.25 405.1 478.4 406.5 481.25 407.95 483.85 410.1 485.3 411.5 482.7 412.25 481.25 413.5 478.7 413.5 477.25 413.5 475.85 414.25 475.1 415.25 474.4 415.8 473.85 416.95 472.7 416.95 469.25 416.95 466.25 417.8 464.55 418.4 463.4 420.4 461.4 426.1 456.8 428.4 454.5 431.7 451.05 436.3 451.05 437.4 451.05 439.7 453.35 440.3 453.95 440.3 455.65 440.3 457.35 440.85 457.95 L 441 458.5 Q 441.3 459.1 442 459.1 442 460.25 444.3 460.25 444.3 461.4 445.45 464.8 448.75 471.25 452.15 465.95 452.45 466.55 453.45 470.4 454.3 473.7 455.6 474.95 456.15 476.25 456.75 479.1 457.3 482.55 457.9 484.15 460.05 490.55 461.3 493.15 465.9 500 469.35 501.15 470.5 501.15 470.75 500.9 471.2 500.45 470.5 498.9 469.35 498.9 469.35 497.75 L 469.35 494.3 Q 467.2 487.85 465.9 485.3 462.45 483 461.3 481.85 460.75 481.85 460.2 480.55 459.45 478.85 459.05 478.4 457.45 473.7 462.45 470.4 463.6 471.55 466.05 474.85 468.5 477.7 470.5 478.4 471.9 478.4 473.2 477.1 474.35 475.55 474.9 474.95 476.05 473.85 477.2 473.85 478.35 472.7 479.5 470.4 480.2 468.25 479.2 464.65 477.8 460.25 477.2 457.95 476.05 455.65 476.05 451.05 476.05 450.5 477.8 448.8 479.5 447.05 479.5 446.5 481.8 448.8 480.65 449.95 479.95 450.65 480.2 451.05 480.65 451.95 480.65 452.2 481.5 453.1 482.8 452.5 484.1 451.95 484.1 451.05 484.8 451.05 484.5 449.8 L 484.1 447.65 Q 484.1 445.9 485.5 444.65 486.95 443.2 488.65 443.2 490.1 442.5 491.95 440.35 492.95 439.2 494.4 437.5 495.25 436.6 495.95 434.45 496.55 432.3 496.55 430.6 496.8 428.05 496.95 426.6 497.25 424 496.55 422.6 495.8 417 495.1 414.45 493.95 410 490.95 407.85 491.5 407.3 492.95 406.15 493.95 405.15 493.25 404.4 491.8 403 490.5 403.7 L 488.65 405.55 Q 488.1 404.7 487.65 403.7 486.8 401.7 487.5 401 488.1 401 488.65 400.4 489.25 399.85 489.8 399.85 490.65 399.1 490.95 399.1 491.25 399.1 492.1 399.85 L 495.55 403.25 Q 496.8 404 496.95 405.7 497.25 408.3 497.7 409 497.7 410.15 498.8 411.3 499.95 411.3 501.1 410.15 501.1 409.55 502.25 408.4 503.4 407.3 503.4 406.7 503.4 406.4 503.85 403.4 504.1 401.7 503.4 401 501.4 399.4 500.85 398.7 499.95 397.7 499.95 395.4 499.95 387.4 502.25 385.1 503.95 384.25 504.1 383.65 504.25 383.1 503.4 380.5 501.1 380.5 502.25 379.35 L 502.25 377.1 Q 502.25 375.5 503.25 371.5 504.1 368.35 503.4 365.75 499.95 358.9 497.7 356.6 496.4 354.2 494.4 352.15 493.95 351.75 491.65 350.45 489.8 349.45 489.8 348.75 489.1 348 489.4 347.15 L 489.8 346.45 Q 489.8 345.6 489.1 344.85 488.35 344.15 487.5 344.15 486.8 343.45 485.25 344.3 483.2 345.3 482.95 345.3 482.1 345.3 482.65 342.85 483.2 340.45 484.1 339.6 484.1 337.3 487.5 337.3 488.1 337 490.25 336.15 491.4 335.7 492.1 335 492.4 334.7 493.4 332.85 494.25 331.3 495.55 330.55 L 498.8 337.3 Q 499.1 337.55 499.95 338.85 500.4 339.6 501.1 339.6 501.1 340.7 502.25 339.6 503.25 340.15 503.95 341.15 504.4 341.85 505.7 341.85 507.4 341.85 510.25 343 513.15 344.15 514.85 344.15 516 344.15 516.85 344.45 517.15 344.45 517.15 343 517.15 341.85 516.55 340.7 516 339.6 516 338.45 512.85 336.15 511.4 335.15 509 333.4 506.85 332.7 505.1 331.55 502.25 328.85 499.4 326 497.7 324.85 495.25 322.4 493.25 321.4 492.5 320.7 491.4 320.25 489.25 319.4 488.65 319.1 486.1 316.55 483.95 315.4 481.95 314.25 478.35 313.4 L 473.8 313.4 Q 471.9 313.4 471.05 313.65 469.75 314.1 468.2 315.7 L 465.9 315.7 Q 465.2 315.7 464.9 316.8 464.75 317.4 464.75 317.95 464.2 318.55 463.6 320.25 463.05 321.95 462.45 322.55 460.75 326 459.05 326 L 452.15 326 Q 451 327.15 446.6 327.15 443.15 328.25 442 328.25 439.7 329.4 435.15 329.4 431.7 329.4 429.4 328.25 427.55 328.25 426.85 328.55 425.85 329 424.95 330.55 422.95 332.55 420.4 333.85 413.5 338.45 408.95 339.6 405.65 341.85 404.5 343 402.65 343.6 403.1 344.45 403.95 346 403.35 347.6 L 401.65 346.3 Q 400.65 345.6 399.95 344.15 398.8 340.7 397.65 341.85 395.35 341.85 394.2 343 393.35 344.75 392.9 344.85 392.5 345 390.75 344.15 389.05 344.15 386.2 344.75 383.35 345.3 381.75 345.3 380.9 345.3 377.9 344.3 M 351 341.85 Q 351 345.3 348.7 346.45 348.1 347 346.4 346.45 344.7 345.9 344.1 346.45 343.8 346.75 341.8 347.75 340.25 348.6 339.55 349.9 339.55 350.15 339.1 351.05 338.8 351.45 339.55 352.15 L 340.7 353.3 Q 341.25 353.3 342.95 353.75 344.55 354.05 345.25 353.3 347.55 353.3 351 352.15 353.25 352.15 353.85 352.45 354.85 352.9 353.25 354.45 352.55 356.3 349.1 356.3 344.7 356.3 344.1 356.6 342.95 357.2 340.7 357.75 338.55 358.35 337.4 358.9 335.95 358.6 335.1 358.6 333.5 358.6 332.8 360.05 331.65 361.2 328.2 363.5 327.1 364.65 323.65 362.35 321.2 361.2 321.5 357.35 321.5 356.75 321.65 356.3 322.35 357.6 326.1 357.2 330.5 356.6 331.65 355.45 331.65 354.45 332.8 353.3 332.8 352.15 335.1 352.15 337.4 348.75 338.4 347.6 339.25 346 341.95 343.75 344.4 341.75 346.4 340.7 351 340.7 351 341.85 M 335.95 363.05 Q 335.95 363.75 335.1 364.65 334.1 364.65 333.8 363.9 333.5 363.05 335.1 362.35 335.95 362.35 335.95 363.05 M 355.55 405.55 Q 355.55 402.1 359 402.1 360.15 401.1 361.55 401.55 363 402.1 362.3 404.4 360.15 406.55 361.15 409 361.15 410.15 361.45 411.45 361.45 412.55 360.15 414.7 360.15 418.15 356.7 418.15 355.55 418.45 355 418.45 354 418.45 353.25 417 352.4 416.15 353 415.45 353.4 414.7 354.4 414.7 355.85 414.7 355.85 412.85 355.55 410.7 355.55 410.15 L 355.55 405.55 M 338.4 397.7 Q 338.4 398.85 340.7 398.85 342.4 398.85 342.8 399.1 343.25 399.4 344.1 401 344.1 402.7 343.95 403.25 343.8 403.85 342.95 405.55 342.4 406.85 338.95 405.4 334.95 403.85 333.95 404.4 332.8 404.4 331.35 403.7 329.8 402.85 330.5 402.1 330.5 401.1 331.25 399.55 332.1 397.7 332.8 397.7 333.8 396.7 335.1 396.25 336.65 395.85 337.4 396.55 L 338.4 397.7 M 715.05 455.65 Q 715.05 454.8 714.35 454.1 713.65 453.35 712.8 453.35 710.8 453.35 707.65 452.05 L 702.5 449.95 Q 701.6 449.35 700.75 448.95 699.05 448.05 699.05 448.8 699.05 452.2 701.35 452.2 705.9 455.2 710.5 456.8 715.05 456.8 715.05 455.65 M 730.95 457.95 Q 733.25 460.25 733.25 457.95 732.55 455.8 730.25 455.5 727.5 455.65 726.4 455.65 725.5 453.95 725.1 453.65 724.65 453.35 722.95 453.35 722.1 453.35 721.35 453.5 720.1 453.8 720.65 454.5 720.95 454.8 721.8 456.1 722.25 456.8 722.95 456.8 724.1 457.95 726.4 457.95 L 730.95 457.95 M 736.7 459.1 L 736.7 460.25 Q 737.1 460.25 739.4 461.25 741.25 462.1 741.25 461.4 741.25 460.65 740.7 459.8 L 740.1 459.1 Q 738.4 458.25 737.95 458.25 737.55 458.25 736.7 459.1 M 727.5 380.5 Q 726.8 380.5 725.8 381.8 L 724.1 383.95 Q 724.1 384.5 723.8 386.1 723.8 387.4 725.25 387.4 727.5 385.1 727.5 383.95 729.25 383.1 729.25 381.8 729.25 380.5 727.5 380.5 M 726.65 372.2 Q 725.65 374.5 726.4 376.1 726.95 377.2 729.8 375.95 732.8 374.5 733.25 374.95 733.25 375.8 733.95 376.5 734.7 377.1 735.55 377.1 736.4 377.1 736.95 375.95 737.55 374.65 736.7 373.8 736.7 372.5 734.25 372.2 731.4 371.9 730.95 371.5 730.95 371.05 731.95 369.8 732.8 368.8 732.1 368.05 731.4 367.35 730.4 368.2 729.1 369.2 728.65 369.2 727.5 370.35 726.65 372.2 M 674.55 348.75 Q 672.3 347.75 671.85 347.6 L 669.55 347.6 669.55 349.9 Q 671.85 352.15 674.15 352.15 675.55 353.05 676 352.3 676.3 351.9 676.3 349.9 675.7 349.15 674.55 348.75 M 650.25 341.85 Q 650.25 341.3 650.8 340.7 651.4 340.15 651.4 339.6 651.1 339.3 649.8 338.45 649.1 338 649.1 337.3 648.8 337 647.95 335.7 647.5 335 646.8 335 644.5 335 644.5 333.85 644.25 333.3 644.1 332.85 643.8 331.7 644.5 331.7 644.5 330 644.35 329.55 644.25 329.15 643.35 328.25 640.35 326.7 638.8 328.25 637.5 329 637.95 330.7 638.8 333.7 638.8 333.85 638.8 335 637.65 338.45 639.95 340.7 643.35 340.7 647.95 343 650.25 341.85 M 649.1 324.85 Q 649.1 323 648.25 321.85 647.25 320.55 645.65 321.4 L 644.5 321.4 644.95 323.55 Q 645.25 324.85 644.5 324.85 643.95 325.1 643.5 325.55 642.65 326.4 643.35 327.15 646.8 330.55 647.95 330.55 L 649.4 327.7 Q 649.8 326.25 649.1 324.85 M 655.8 331.7 Q 653.95 329.85 652.55 332.7 652.55 333.85 653.55 337.3 654.1 338.45 655.55 340.15 656.55 341.6 655.8 343 654.55 344.3 653.1 344.6 650.95 345 650.25 345.3 643.35 345.3 639.95 344.15 636.5 341.85 634.2 340.7 631.9 338.45 629.75 338.45 628.65 338 624.6 337.7 621.45 337.45 619.45 336.15 617.9 335.55 614.3 333.85 611.05 332.3 609.15 331.7 607.15 329.4 605.85 329.4 605.85 328.55 605.15 327.85 604.45 327.15 603.6 327.15 602.15 326.4 599.45 327.4 596.15 328.85 594.4 329.4 593.4 330 590.55 330.55 588.15 331.15 587.55 331.7 586.7 332.4 586.1 333.85 585.4 335.3 585.4 336.15 585.4 337.3 583.1 337.3 580.85 337.85 580.7 338 580.55 338.15 580.85 339.6 L 578.55 341.85 Q 576.95 343.45 576.7 345.9 576.55 348 577.4 349.9 578.25 351.6 578.25 352.05 578.25 352.45 577.4 353.3 576.55 354.9 576.1 355.05 575.7 355.2 573.95 354.45 571.4 354.2 569.95 354.2 567.4 354.2 565.95 355.45 L 568.25 357.75 570.5 357.75 Q 571.65 358.9 576.25 358.9 577.4 358.35 578.55 357.45 579.4 357.05 580.85 357.75 581.55 358.45 583.1 358.2 584 358.05 585.4 357.75 591.55 356.2 597.85 357.75 601.3 357.75 604.75 364.65 606.45 368.05 609.3 374.95 612.05 381.65 613.75 385.1 613.75 386.25 614.9 386.25 614.9 386.8 615.45 387.95 616.05 389.1 616.05 389.65 L 616.05 395.4 Q 614.9 399.85 614.9 407.85 614.9 411.3 616.05 412.45 616.05 413 617.2 414.7 618.35 416.45 618.35 417 620.6 421.6 621.75 422.6 622.9 424.9 625.2 427.15 626.65 432.6 629.75 437.5 630.9 439.2 632.65 442.5 634.35 445.2 636.5 446.5 637.95 447.2 637.35 445.2 636.5 442.65 636.5 442.05 634.2 439.75 634.2 437.5 634.95 436.05 634.5 435.2 633.65 434.05 633.05 432.9 631.65 431.75 630.9 431.05 629.35 429.75 628.65 428.3 627.75 426.6 628.5 425.9 629.2 425.15 630.8 426.05 631.65 426.05 632.35 427.3 633.05 428.45 633.05 429.45 633.35 430.05 634.65 432.2 635.35 433.3 635.35 434.05 636.5 436.35 638.8 439.75 L 640.5 441.05 Q 641.5 441.75 642.25 443.2 642.25 445.35 644.5 447.65 644.95 448.05 646.8 448.35 648.4 448.65 649.1 449.95 649.65 450.5 650.25 452.2 650.8 453.95 651.4 454.5 654.1 460.25 657.95 463.95 662.55 468.1 667.25 468.1 667.55 468.1 670.55 467.65 672.3 467.4 673 468.1 674.45 468.1 675.85 468.8 676.55 469.25 678.6 470.4 682.6 474.4 687.75 476.1 688.3 476.1 690.05 475.7 691.6 475.4 692.3 476.1 693.6 476.85 694.45 478.4 695.45 480.4 695.75 480.7 698.05 483 700.2 483 L 702.5 483 Q 703.05 483.55 703.6 484.7 704.2 485.85 704.75 486.4 705.5 487.15 705.9 485.55 706.65 483.4 707.05 483 707.9 481.25 708.9 481.15 709.8 481 711.65 481.85 713.5 483.7 714.65 486.55 715.95 489.7 715.05 492 712.8 494.3 711.65 496.6 711.05 497.15 710.5 499 709.8 501.3 709.35 502.3 708.65 503.75 708.9 507.45 709.05 509.45 709.35 512.45 710.5 513.6 710.5 518.2 710.5 519.35 711.05 521.05 711.65 522.8 711.65 523.9 712.95 525.95 713.2 529.1 713.5 533.1 713.95 534.25 713.95 536.35 712.8 539.8 713.95 540.95 716.2 544.4 717.8 547.4 720.65 548.95 L 720.65 554.7 Q 720.65 556.85 719.65 558 719.65 558.55 719.1 559.7 718.5 560.85 718.5 561.4 718.5 564.85 716.2 569.45 716.2 570 715.65 571.15 715.05 572.3 715.05 572.85 L 712.8 574 Q 712.8 575.3 712.2 576.75 711.65 578.15 711.65 578.6 709.35 580.6 709.35 581.9 L 709.35 585.3 Q 709.35 586.75 709.2 586.9 708.8 587.05 708.2 587.6 L 704.75 594.5 Q 702.5 596.75 700.2 601.35 700.2 602.65 699.05 604.65 697.45 606.95 696.9 608.1 697.9 608.1 698.35 608.8 698.75 609.5 698.05 610.35 698.05 610.95 696.75 611.5 695.05 612.25 694.6 612.65 692.9 613.8 691.9 614.5 690.05 615.8 690.05 617.25 689.6 618.25 689.9 621.7 690.15 624.55 688.9 625.1 687.6 626.4 687.15 627.95 686.6 630.1 688.9 630.85 686.6 633.15 686.15 634.4 685.45 636.55 687.75 638.85 L 688.9 639.55 Q 690.05 640.45 690.05 641.15 690.75 641.85 690.45 643.45 690.3 644.3 690.05 645.7 691.3 645.7 692.15 645.15 693.05 644.6 693.45 644.6 694.6 645.7 695.75 645.7 695.75 646.7 698.05 646.7 698.75 646 698.75 645.7 698.75 645.45 698.05 644.6 L 698.05 640 Q 697.45 638.15 696.3 639 695.2 639.85 694.6 638.85 694.6 637.7 695.75 636.55 696.3 636 696.9 636 697.45 636 698.05 635.4 699.45 635.4 700.05 634.55 700.5 634 701.35 632 701.9 631 704.2 626.95 705.75 624.25 707.05 622.95 709.35 618.4 715.05 612.65 716.65 611.65 719.5 609.35 721.65 607.5 722.95 606.95 724.65 606.35 728.65 605.05 732.25 603.8 734.4 602.35 L 742.4 594.5 Q 743.55 593.35 746.85 591.6 750.3 589.9 751.45 588.75 753.7 587.6 757.15 586.45 759.45 586.45 761.75 584.2 L 770.75 578.6 774.2 574.75 Q 776.2 572.45 777.6 571.75 782.75 570 785.65 567.15 786.8 566 789.5 563.55 791.65 561.3 792.35 559.15 792.95 558 793.65 556.55 794.35 555.4 795.8 554.7 795.8 551.25 796.95 550.1 797.65 547.95 799.35 545.55 800.35 544.1 802.65 540.95 804.1 539.5 805.5 537.4 806.4 536.1 808.4 533.1 808.4 530.95 810.55 528.5 811.25 527.8 810.8 526.65 810.1 525.05 809.55 523.9 808.1 522.5 806.8 519.9 805.5 517.05 804.95 515.9 804.95 515.35 803.25 514.2 801.5 513.05 801.5 512.45 799.25 511.45 796.95 511.45 791.2 509.2 787.9 508.05 787.35 508.05 786.2 507.45 785.05 506.9 784.5 506.9 L 778.75 506.9 Q 780.35 502 778.75 498.9 778.45 498.6 775.9 495.6 774.45 493.85 773.05 493.15 769.45 493.15 765.15 490.85 762.85 488.55 762.85 487.55 L 759.45 484.15 Q 758.3 483.55 756 481.85 753.7 480.15 752.55 479.55 751.45 479 749.15 476.7 746.85 474.4 745.7 473.85 743.4 473.85 742.4 472.7 741.85 472.7 739.7 471.85 738.55 471.4 737.85 472.7 734.4 476.1 730.95 476.1 L 734.4 472.7 Q 735.55 471.55 735.55 470.4 734.95 470.4 734.4 469.8 733.8 469.25 733.25 469.25 731.25 470.7 727.5 471.4 722.35 472.55 721.8 472.7 721.1 472.7 720.25 473.95 718.65 476 718.5 476.1 718.5 474.95 717.35 476.1 L 716.2 476.1 Q 716.2 477 715.5 477.7 714.8 478.4 713.95 478.4 712.8 477.25 709.35 477.25 708.8 477.25 707.05 478.4 705.35 479.55 704.75 479.55 704.2 479.25 702.05 478.4 700.9 478 700.2 477.25 699.35 476.4 699.35 474.4 699.35 472.4 700.2 471.55 700.5 467.8 700.2 466.4 699.75 463.65 696.9 463.65 L 691.3 464.95 Q 688 465.65 686.6 463.65 686.15 462.25 688.45 458.65 690.3 455.8 687.75 454.5 685.6 453.1 682.6 454.35 679.15 456.2 677.45 456.8 676.55 457.65 675.3 457.65 673.85 457.65 673 456.8 670.7 453.35 669.55 452.2 668.4 449.95 667.25 446.5 667.25 445.2 668 444.35 669.3 442.75 669.55 442.05 669.55 438.6 671.85 436.35 672.55 435.6 673.7 435.9 675.85 436.35 676.3 436.35 677.45 436.35 680.85 435.2 683.15 434.05 686.6 432.9 687.75 432.9 689.45 432.3 691.15 431.75 692.3 431.75 695.3 433.3 696.9 436.35 697.6 437.05 697.35 438.2 696.9 440.35 696.9 440.9 696.9 442.05 698.2 443.35 699.45 444.65 700.2 443.2 705.05 438.35 701.35 432.9 701.35 432.3 700.75 431.2 700.2 430.05 700.2 429.45 700.2 426.05 701.35 424.9 703.6 421.6 708.2 417 709.35 414.7 709.35 407.85 710.2 405 710.8 403.4 711.8 400.55 713.95 399.85 715.8 398.7 716.1 395.95 716.35 392.95 717.35 391.95 718.5 389.65 722.95 383.95 723.8 383.1 723.95 382.65 724.1 382.25 724.1 380.5 724.1 380.25 722.5 379.2 721.1 378.35 721.8 377.1 L 724.1 377.1 Q 724.8 376.5 724.4 376.1 723.5 375.5 722.95 374.95 719.65 376.1 718.5 376.1 719.1 376.65 720.1 377.2 720.65 377.95 720.65 379.35 718.65 381.8 717.35 380.5 716.8 378.8 716.65 378.5 716.5 378.2 715.05 378.2 714.35 377.5 712.8 377.8 711.05 378.2 710.5 378.2 711.05 377.65 712.2 376.2 713.2 374.95 713.95 374.95 715.05 374.95 716.8 374.35 718.5 373.8 719.65 373.8 722.65 373.8 724.8 372.8 727.5 371.5 727.5 369.2 728.25 367.75 727.25 366.5 725.8 365.2 725.25 364.65 725.25 363.9 724.65 363.05 L 724.1 362.35 Q 723.5 362.35 722.35 362.9 721.25 363.5 720.65 363.5 719.35 363.5 716.1 362.2 710.8 360.2 710.5 360.05 707.35 359.2 705.5 358.05 704.2 357.2 701.35 354.45 701.35 353.3 700.5 352.45 699.45 351.45 698.05 352.15 696.45 353.75 693.45 352.15 686.6 349.9 683.15 351.05 681.15 351.05 680.6 351.3 679.7 351.75 679.7 353.3 679 355.45 679.6 356.3 679.85 356.6 682 357.75 682.6 358.35 682.6 359.45 682.6 360.6 683.15 361.2 L 685.3 362.9 Q 686.6 363.9 686.6 364.65 686.6 366.35 687.15 369.8 687.75 373.2 687.75 374.95 687 374.65 684.9 372.8 683.3 371.5 682 371.5 681.15 371.2 678.15 370.8 676.55 370.5 675.3 369.2 670.7 366.9 668.4 366.9 668.4 366.35 667.25 366.35 666.15 366.35 666.15 365.75 L 663.85 363.5 Q 662.1 361.75 662.1 360.75 662.1 359.75 663.85 358.9 664.4 357.75 666.15 356.05 667.85 354.3 668.4 353.3 668.4 353.05 667.4 350.05 666.55 347.6 667.25 347.6 668.4 346.45 673 344.15 671.85 341.85 665 338.45 662.7 337.3 660.4 335 659.4 334.55 658.1 333 657.1 331.7 655.8 331.7 M 680.85 382.1 Q 679.15 380.65 679.7 379.35 680.45 378.65 682.6 380.1 685.15 381.65 685.45 381.65 686 382.25 686.6 384.1 687.3 386.4 687.75 387.4 L 680.85 387.4 Q 675.3 387.4 676.3 385.1 679.7 385.1 682 383.95 682.45 383.5 680.85 382.1 M 682 395.4 Q 682 394.8 682.6 393.7 683.15 392.55 683.15 391.95 683.15 390.25 685 389.65 686.9 389.1 687.75 390.8 686 393.4 684.75 395.1 682.3 398.4 680.85 397.7 680.85 397.1 681.45 396.55 682 395.95 682 395.4 M 692.3 389.8 Q 692.9 389.95 694.6 390.8 695.2 391.4 697.05 392.55 698.2 393.55 696.9 394.25 693.45 393.1 692.3 393.1 690.3 391.7 689.45 390.95 687.9 389.65 690.05 389.65 691.75 389.65 692.3 389.8 M 703.05 390.25 Q 704.2 390.25 704.75 389.65 705.65 388.8 706.35 389.4 707.05 389.8 707.05 390.8 708.2 391.95 700.2 391.95 L 701.35 390.8 Q 701.9 390.25 703.05 390.25 M 652.55 300.95 L 655.8 300.95 Q 656.55 298.65 653.95 298.65 651.4 298.65 650.25 299.8 647.95 300.95 645.65 305.5 644.95 306.95 645.95 306.95 646.5 306.95 647.95 306.65 647.95 305.8 648.65 305.1 649.4 304.35 650.25 304.35 650.25 303.2 652.55 300.95 M 727.5 314.55 Q 727.5 315.7 725.25 315.7 724.4 315.7 724.4 316.95 724.4 318.25 725.25 319.1 726.1 320.85 727.1 320.95 727.95 321.1 729.8 320.25 L 731.55 319.85 Q 732.55 319.55 733.25 320.25 733.95 320.25 734.4 320.95 735.25 322.25 735.55 322.55 736.7 323.1 738.4 324.1 739.85 324.85 741.25 324.85 L 744.55 324.85 Q 745.25 324.1 745 323.1 L 744.55 321.4 Q 742.4 320.25 738.95 316.8 738.55 316.4 736.55 315.55 734.55 314.65 733.25 313.4 731.55 312.55 730.4 312.65 729.25 312.8 727.5 314.55 M 684.3 295.2 Q 682.6 296.05 682.15 296.05 681.75 296.05 680.85 295.2 678.7 293.8 675.7 293.8 671.85 294.05 669.55 294.05 666.15 294.05 663.85 295.2 661.55 297.5 660.4 299.8 660.4 303.2 659.25 303.2 655.8 303.2 653.55 304.35 652.55 305.5 652.55 307.8 652.55 308.8 651.8 309.95 651.1 311.1 650.25 311.1 650.25 310.1 648.4 309.25 646.4 308.5 645.65 309.95 645.65 310.5 646.8 311.65 647.95 312.8 647.95 313.4 647.95 314.55 649.1 315.7 649.65 315.7 650.25 315.4 650.65 315.4 651.4 316.8 L 651.4 320.25 Q 651.95 321.4 652.8 323.4 653.7 324.85 655.8 324.85 658.7 324.85 660.4 328.25 660.95 328.85 661.55 330 662.1 331.15 662.7 331.7 662.7 332.7 665 332.7 666.7 336.15 670.7 336.15 673 337.3 676.3 338.45 676.85 339 678.3 339.7 679.3 340.45 678.6 341.85 678.6 342.3 677.45 343.75 676.3 345.15 676.3 346.45 676.3 349.15 680.6 348.9 686.15 348.6 686.6 348.75 687.6 349.15 689.9 349.9 691.75 350.45 692.3 351.05 694.6 351.05 694.6 347.6 694.6 347.3 694.2 344.75 693.9 343.3 694.6 341.85 694.6 340.7 698.05 340.7 699.6 339.85 699.6 338.6 699.6 337.3 698.05 337.3 694.6 336.15 692.3 335 690.45 334 687.75 331.7 686.9 330 686.45 329.55 686 329.15 684.3 328.25 682.45 327.7 679 327.15 675 326.55 673 326 672.15 325.4 667.15 325 663.85 324.7 663.85 321.4 L 666.15 321.4 Q 667.25 320.25 666.15 319.1 668.4 317.95 671.85 317.95 673.55 317.95 677 318.55 680.3 319.1 682 319.1 683.15 319.1 684.9 319.7 686.6 320.25 687.75 320.25 689.15 320.25 689.15 322.1 689.15 323.1 688.9 324.85 688.9 326.55 692.3 328.25 693.05 328.25 694.05 329.55 L 695.75 331.7 Q 699.05 335 705.9 338.45 712.8 340.7 716.2 340.7 722.95 340.7 722.95 335 722.95 334 722.1 332.85 721.1 331.4 719.65 330.55 719.1 330 718.5 328.85 717.95 327.7 717.35 327.15 717.35 323.7 715.05 321.4 714.5 320.25 714.5 318.7 714.5 317.4 713.95 316.8 712.8 314.8 712.35 313.95 711.65 312.55 711.65 311.1 711.65 308.65 711.5 308.1 711.35 307.5 710.5 306.65 708.5 305.5 707.65 305.1 706.2 304.35 704.75 304.35 703.6 303.8 702.05 303.8 700.75 303.8 700.2 303.2 698.05 302.1 695.75 299.8 692.3 297.5 690.05 296.35 687.75 295.2 684.3 295.2 M 803.8 200.75 L 802.65 203.05 810.55 201.9 809.55 200.75 803.8 200.75 Z"/>
</g>
</defs>
<g transform="matrix(1,0,0,1,0,0)">
<use xlink:href="#l3"/>
</g>
<g transform="matrix(1,0,0,1,0,0)">
<use xlink:href="#l2"/>
</g>
<g transform="matrix(1,0,0,1,0,0)">
<use xlink:href="#l1"/>
</g>
<g transform="matrix(1,0,0,1,0,0)">
<use xlink:href="#l0"/>
</g>
</svg>
