<svg xmlns="http://www.w3.org/2000/svg" xmlns:xlink="http://www.w3.org/1999/xlink" width="100%" height="100%" viewBox="0 0 250.00001 174.11425">
<!-- Vectorization by Rodrigo Polo https://github.com/rodrigopolo/logotipos-politicos -->
<g fill="#2abde2" transform="matrix(.44396299 0 0 .44396299 -125.99226 63.736165)">
<path d="m292.69 105.58h20.21c16.29 0 25.86 9.57 25.86 26.85s-11.86 26.86-25.57 26.86h-20.5zm19.78 44.57c11 0 15.14-9.43 15.14-17.79 0-9-3.85-17.64-16-17.64h-8.21v35.43z"/>
<path d="m344.18 105.58h34.28v9.57h-23.57v12.21h22.93v9.57h-22.93v12.79h23.57v9.57h-34.28z"/>
<path d="m399.53 105.58h20.21c16.29 0 25.86 9.57 25.86 26.85s-11.86 26.86-25.6 26.86h-20.5zm19.79 44.57c11 0 15.14-9.43 15.14-17.79 0-9-3.86-17.64-16-17.64h-8.22v35.43z"/>
<path d="m451 105.58h34.29v9.57h-23.55v12.21h22.93v9.57h-22.93v12.79h23.57v9.57h-34.31z"/>
<path d="m516.59 119.72c0-3.71-3.57-6-7.86-6-5.35 0-8.57 2.36-8.57 5.93s3.57 5.5 6.22 6.36l9.85 3.14c7.15 2.28 12.22 6.43 12.22 14.71 0 6.57-4.72 16.43-19.57 16.43-18.65 0-20.36-12.07-20.36-16.85l10.71-.22c0 5.72 4.5 7.93 9.72 7.93 3.64 0 8.78-1.79 8.78-5.93 0-2.86-1.21-4.36-6.5-6.28l-11.71-4.22c-5.93-2.14-10.07-7.36-10.07-13.43 0-6.85 4.71-16.71 18.64-16.71 16.57 0 19.21 11 19.21 14.93z"/>
<path d="m563.66 148.08h-19.66l-3.5 11.21h-11.56l19.57-53.71h11.29l19.28 53.71h-11.78zm-9.72-29.57h-.14l-6.8 20.85h13.8z"/>
<path d="m598.65 138.08h-6.29v21.21h-10.71v-53.71h20.07c11.29 0 17.71 7.07 17.71 16 0 5.64-3.07 13-10 15.07l12.5 22.64h-12.78zm.86-8.72c7.35 0 9.21-3.92 9.21-7.35 0-3.86-1.86-7.29-9.57-7.29h-6.79v14.64z"/>
<path d="m642.22 138.08h-6.29v21.21h-10.71v-53.71h20.07c11.28 0 17.71 7.07 17.71 16 0 5.64-3.07 13-10 15.07l12.5 22.64h-12.78zm.85-8.72c7.36 0 9.22-3.92 9.22-7.35 0-3.86-1.86-7.29-9.57-7.29h-6.79v14.64z"/>
<path d="m692.57 104.58c16.71 0 26.14 13.43 26.14 27.85s-9.43 27.86-26.14 27.86-26.15-13.43-26.15-27.86 9.43-27.85 26.15-27.85zm0 9.57c-10 0-15 8.64-15 18.28s5 18.29 15 18.29 15-8.64 15-18.29-5-18.28-15-18.28z"/>
<path d="m724.13 105.58h10.71v43.71h20.65v10h-31.36z"/>
<path d="m759.77 105.58h10.71v43.71h20.65v10h-31.36z"/>
<path d="m819.19 104.58c16.72 0 26.15 13.43 26.15 27.85s-9.43 27.86-26.15 27.86-26.14-13.43-26.14-27.86 9.43-27.85 26.14-27.85zm0 9.57c-10 0-15 8.64-15 18.28s5 18.29 15 18.29 15-8.64 15-18.29-5-18.28-15-18.28z"/>
</g>
<g fill="#2abde2" transform="matrix(.44396299 0 0 .44396299 -125.99226 63.736165)">
<path d="m328.76 193.49c0-5.05-4.85-8.15-10.68-8.15-7.28 0-11.64 3.2-11.64 8 0 5.05 4.85 7.48 8.44 8.64l13.39 4.27c9.71 3.11 16.6 8.74 16.6 20 0 8.94-6.41 22.33-26.59 22.33-25.34 0-27.66-16.4-27.66-22.91l14.55-.29c0 7.77 6.12 10.77 13.2 10.77 4.95 0 11.94-2.42 11.94-8.05 0-3.88-1.65-5.92-8.83-8.54l-15.92-5.73c-8.05-2.91-13.68-10-13.68-18.24 0-9.32 6.4-22.72 25.33-22.72 22.52 0 26.11 15 26.11 20.29z"/>
<path d="m385 172.91c22.71 0 35.52 18.25 35.52 37.86s-12.86 37.85-35.52 37.85-35.52-18.25-35.52-37.85 12.76-37.86 35.52-37.86zm0 13c-13.59 0-20.38 11.74-20.38 24.85s6.79 24.84 20.38 24.84 20.38-11.74 20.38-24.84-6.84-24.84-20.38-24.84z"/>
<path d="m463.17 193.49c0-5.05-4.85-8.15-10.68-8.15-7.28 0-11.64 3.2-11.64 8 0 5.05 4.85 7.48 8.44 8.64l13.39 4.27c9.71 3.11 16.6 8.74 16.6 20 0 8.94-6.41 22.33-26.59 22.33-25.34 0-27.67-16.4-27.67-22.91l14.56-.29c0 7.77 6.12 10.77 13.2 10.77 5 0 11.94-2.42 11.94-8.05 0-3.88-1.65-5.92-8.83-8.54l-15.89-5.69c-8.05-2.91-13.68-10-13.68-18.24 0-9.32 6.4-22.72 25.33-22.72 22.51 0 26.11 15 26.11 20.29z"/>
<path d="m501.3 187.28h-19.21v-13h53v13h-19.23v60h-14.56z"/>
<path d="m540.7 174.27h46.59v13h-32v16.6h31.16v13h-31.19v17.37h32v13h-46.56z"/>
<path d="m608.64 197.47h-.2v49.79h-14v-73h15.62l29.61 49h.19v-49h14v73h-15z"/>
<path d="m665.21 174.27h14.56v73h-14.56z"/>
<path d="m691.12 174.27h25.88c15.53 0 23.58 8 23.58 19.8 0 8.06-4.56 12.62-9.8 15.05v.19c6.5 1.55 12.13 7.47 12.13 16.6 0 13.39-10.29 21.35-25.33 21.35h-26.5zm23.4 30c6.89 0 11.54-3.1 11.54-8.93 0-6-4.46-8.63-10.28-8.63h-10.1v17.56zm.77 30.58c9.22 0 12.52-4.08 12.52-9.22 0-4.66-2.91-9.52-11.35-9.52h-10.78v18.74z"/>
<path d="m750.32 174.27h14.56v59.4h28v13.59h-42.56z"/>
<path d="m798.75 174.27h46.59v13h-32v16.6h31.15v13h-31.18v17.37h32v13h-46.56z"/>
</g>
<g fill="#2194d2" stroke-width=".301594">
<path d="m145.30722 12.881064c2.3464 4.523905 3.01594 10.751813 1.48987 15.860809-1.54717 6.031873-6.63506 12.136128-12.53423 14.618243-6.65316 3.260227-16.10812 2.448941-22.04046-1.809561-8.23351-5.645833-11.6204-15.381276-9.13829-24.993065 1.50797-5.706151 6.05902-11.4605575 11.6204-14.1206133a23.783674 23.783674 0 0 1 10.25419-2.43687657c8.52303.01206374 16.64495 5.00645427 20.34852 12.88106387zm-19.87502-11.7621515a15.948271 15.948271 0 0 1 .0332 3.1154622.46445419.46445419 0 0 1 .10255-.2714343c.15682-.090478.30159.045239.35889.1568287 0 .1598446.0814.428263-.0543.5187411.13571.024127.20206-.078414.32572-.078414a16.853052 16.853052 0 0 1 7.11761 2.1654423v-.054287c.44032-.2171474 1.0043-.4976295 1.45669-.1146056.53986-.2020677.6424.4614383 1.08272.5428686.53081.3015936 1.12796.9047809 1.20638 1.5230478.10254.2020677.41921.3468327.46144.5609642.36191-.7660479 1.08573-1.3059005 1.704-1.9724224l.38303-.1568287c-3.405-3.2511793-7.4554-5.0426455-11.96724-5.6639283-.73287-.1387331-1.52606-.072383-2.2137-.286514zm-1.26368.1146056c-4.5239.1779402-8.56224 1.7251155-12.13914 4.2977092-.68764.473502-1.29685 1.2063745-1.99655 1.6014622h.10254a19.522156 19.522156 0 0 1 2.49418 2.412749l.0543-.1568287c3.29641-3.0159363 7.12967-4.6475578 11.52992-4.8496255l-.10255-.2714343-.03318-2.7143427zm3.86945 1.704004-1.62559.6966813c-.13572-.054287-.39509-.1236534-.48557.057303-.0663.057303 0 .1357171.0241.1930199.60319.7660478 1.63464.3377848 2.37957.190004.54287.2261952 1.06161-.045239 1.46575-.3830239v-.078414c-.38604-.5579482-1.10685-.6363625-1.76131-.6906494zm-2.63593 2.7686295.1146.2141315c-.0241 1.0495458.0452 2.1654422-.0573 3.1486375.42827-.1477809.86859.033175 1.29685.045239 2.21069.3619124 4.29771 1.0706574 6.06807 2.4368764a1.61051 1.61051 0 0 1 -.51874-.814303.12968526.12968526 0 0 1 .13571-.04222c.0241-.352864-.34984-.530805-.40715-.8474779a.23524303.23524303 0 0 1 .25033-.1025418 7.2804702 7.2804702 0 0 1 .99224 1.1641517c.24731-.102542.45239.05429.63033.190004.32874.19302.12667.603187.37398.835414.0452.666522.85652 1.037482.81128 1.704004 0 .156829.20207.03317.27144.11159l.67557.835414a.33476893.33476893 0 0 0 .1146.461438c.3016.135717.4735-.247306.77811-.190004.44033.247307-.0694.539853-.0241.811287.16889 0 .38604-.135717.51874.03318.0573.247306-.20207.407151-.3016.56398 0 .247306.20509.19302.38303.247306a.30159363.30159363 0 0 1 .27143.407152c.56398.603187-.16889 1.206374.10254 1.839721.18096.404135-.0452.799223-.30159 1.103833 0 .497629-.44033.802239-.62128 1.206374l-.57605.114606c-.30159.301593.25937.675569-.0452.868589l1.26368.02111-.13572-.135717a1.8698805 1.8698805 0 0 1 .1689-1.601462c.19302-.407152.23826-.904781.60318-1.23955.0784-.02413.2262-.168893.3016 0a2.271 2.271 0 0 1 -.19302 1.161135c.36191.518741.31667 1.206375.34985 1.839721 1.11891-.06937 2.21068-.09048 3.31753-.08143l-.10255-.214131a16.20161 16.20161 0 0 0 -1.46574-5.841869c-.23524 0-.40414.202068-.67557.135717a.21111554.21111554 0 0 1 -.13572-.226195c-.45239-.428263-.73287-.992243-1.23955-1.375267-.57604.05429-.83541-.603187-1.35415-.678586-.46446-.190004-.14778-.93494-.81431-.732872a1.0857371 1.0857371 0 0 1 -.70874-.753984c0-.603188-.11461-1.206375-.64541-1.604478-.40414-.144765-.57303.395087-.98018.301593-.2262-.111589-.12365-.404135-.19-.603187-.0663-.199052-.27144-.301594-.23826-.5187411.5308-.6996972-.6424-.6876334-.38303-1.3752669-.0663-.4976295-.57604-.6876335-.83541-1.0827212a18.231335 18.231335 0 0 0 -5.47097-1.5682918c-.50064-.045239-.95002.054287-1.37225-.1719084zm10.20894.024127c-.23524.2261952-.44032-.2050837-.65445.054287a.47953387.47953387 0 0 0 .0784.3287371c.4735.1688924.5308.8565259 1.14002.6996972.18096-.2020677-.11159-.4192151-.0573-.6785856a.66652192.66652192 0 0 0 -.50365-.4041352zm-20.24296 3.0340324c-.6997.4855658-1.34511 1.1158964-2.06592 1.544159.83542.530805 1.52305 1.411459 2.28005 2.111156l.0784.214131a13.520442 13.520442 0 0 1 6.76776-3.4351512c.60318-.057303 1.20637-.2593705 1.78241-.1357171a22.471741 22.471741 0 0 1 -.0151-3.2421315 17.287347 17.287347 0 0 0 -8.82764 2.9435538zm25.06243-1.0254183a26.31706 26.31706 0 0 1 -2.24386 2.4127493l-.38302.07841c.23524.0573.30159.337785.46144.506677.82335.440327 1.03748 1.32098 1.7613 1.809562.40414.844462 1.3421 1.507968 1.37527 2.470052a17.881486 17.881486 0 0 1 1.71305 7.003004l-.0875.135717a.47953387.47953387 0 0 0 .26842-.09953l3.24816-.0573c-.21413-.301593-.12365-.778111-.17794-1.161135-.42826-5.003438-2.56656-9.310195-5.93536-13.0982113zm-31.01287.078414c-3.22102 3.5738853-5.20852 7.6574623-5.78155 12.3170843-.12366.678586-.0452 1.375267-.18096 2.0629a23.195566 23.195566 0 0 1 3.48642 0l-.0814-.43731a18.354988 18.354988 0 0 1 3.38388-9.669092c.5097-.576044.88066-1.296853 1.50797-1.725116-.73589-.6876336-1.50797-1.4898726-2.26798-2.2438567zm14.83237 2.3554463-.19.114606c-2.86816.202068-5.34726 1.399394-7.53984 3.19086.85652.603188 1.62257 1.556224 2.41275 2.246873.0573-.08143.1146-.159845.1719-.250323 1.07066-.766048 2.17449-1.465745 3.43817-1.782418.56398-.05429 1.1159-.325721 1.70401-.190004a14.989203 14.989203 0 0 1 -.003-3.329594zm1.18526.02413.11159.247307-.0211 3.058159.3016-.0573c1.87289.259371 3.58594.856526 5.06375 2.065917l.0814.235243c.50668-.711761 1.27273-1.320981 1.86988-1.99655l.5489-.328737-.26841-.114606a13.185674 13.185674 0 0 0 -4.06247-2.346398 20.255028 20.255028 0 0 0 -3.63119-.763032zm-12.93836.844462-.0241.214131-1.20637 1.547176c-1.99655 2.741486-2.94356 5.911235-3.22404 9.349402l3.08832-.05429.30159.11159c-.12667-.07841-.0905-.214131-.13571-.325721.23222-3.202924 1.35113-6.068064 3.57388-8.462717a22.462694 22.462694 0 0 1 -2.37957-2.379574zm21.57902 3.136574-.0573.135717c-1.03748 1.082721-2.17751 2.198617-3.16975 3.31753a.77811157.77811157 0 0 0 .30159.325721c.0452-.268418.19302-.506677.21414-.78716.27143-.373976.67557-.135717 1.02843-.0573.53985-.123654 1.04653.123653 1.60146.111589.40414.205084.44033.723825.81129.925893a.32270518.32270518 0 0 1 -.11159.428263c.11159.847478.51572-.226195.947-.02111.17794.06635.40414.04524.53986.235243.0694.349849.49763.283498.51874.621283-.0332.168893-.21413.214132-.32572.301594.10254.337785-.34985.551916-.19302.904781.65445.123653.67557-.633347.98319-.971132a6.200765 6.200765 0 0 0 -.63335-1.704004c-.37096-.07841-.60318-.518741-.96811-.603187-.72383-.280482.11159-.732873.0211-1.161136a13.571713 13.571713 0 0 0 -1.514-2.002581zm-18.35499.114605a13.297263 13.297263 0 0 0 -3.03403 6.24902c-.12365.539853-.0543 1.173199-.26842 1.679877.39509-.180956.96812-.11159 1.40845-.0573-.25937-.135717-.0452-.461438-.19001-.642394-.0362-.280483-.0814-.630331.19001-.811287-.0332-.464454.46143-.699698.50667-1.118913.12667-.473502.66653-.156828.9259-.404135.16889-.09048.0241-.247307.0241-.373976.22318-.301594.57303-.301594.84447-.461438a2.4278287 2.4278287 0 0 1 .757-.790176c.67557.02413.68763-.922876 1.33002-.947004a27.547562 27.547562 0 0 1 -2.50021-2.322271zm9.74751.37096c.21413.642395.0211 1.589399.15683 2.334335l.8143.271434c.23524-.395087.75399-.473502.98018-.844462.14778-.126669.30159 0 .42826.132701a2.2800478 2.2800478 0 0 1 -.13571.904781c-.3016.603188-1.02542.687634-1.43257 1.12796.25937.144765.40715-.126669.62128-.180956a1.3632032 1.3632032 0 0 1 .757.506678c.20207.09048.39207-.03318.57303-.102542.12365-.93494 1.29987-.799223 1.6467-1.679877l-.21413.07841c-.0875-.123654-.3016-.06635-.3016-.271435a2.3825897 2.3825897 0 0 1 .67859-.539852 11.460558 11.460558 0 0 0 -3.22404-1.471777 10.978008 10.978008 0 0 1 -1.35415-.265403zm-6.0741 2.358463h.24731c.27144.271434.71176.214131.90478.576043.10254.202068-.19302.177941-.18095.346833.0573.04524.13571.0573.18095.135717.21413.08143.16889-.123653.24731-.214131.2835-.280482.32874.271434.60319.271434a.41619921.41619921 0 0 1 .60318.07841c.18096-.156828.56398 0 .60319-.301593.34985-.37096.15985-.947004.67859-1.182247.18095.09953 0 .268418.0543.428263.34985.144765.74796-.301594 1.02844.05429-.25937-.732873-.19302-1.646702-.1689-2.457989-1.80956.235243-3.47134.85351-4.80137 2.264969zm5.47091 1.872896c-.18095-.205084-.57604-.08143-.81128 0 .22318.223179.1327.630331.26841.904781-.33778.560964-.90478.687633-1.43257.844462-.14476.180956-.11159.576044-.46143.542869-.11461.247306-.49763.392071-.34985.753984-.18096.383024-.0905.880653-.19302 1.296852-.66351.419215-.4735-.551916-.81129-.753984l-.11159.190004c-.13572.03619-.22619-.04524-.30159-.135717-.10254-.03317-.27144-.06635-.36191.02413-.14477.247306-.37096.45239-.3016.790175-.0694.202068-.40715.135717-.36191.349849a6.3334662 6.3334662 0 0 0 1.14002-.159845c.25937.06937.47351-.123654.73288-.135717a.24429084.24429084 0 0 1 .15682.271434h.0905a.45540638.45540638 0 0 0 .18096-.539853c.0211-.238259.28048-.238259.44033-.301593.14476.06635.0543.214131.0784.325721.50668.19302-.12365.56398-.19302.835414-.13572.214132 0 .699697-.42826.630331a.15381275.15381275 0 0 1 -.11159-.190004h-.0573a.57604383.57604383 0 0 0 .3016.506677c.30159-.25937.32572-.699697.77811-.757.23826-.247307-.10254-.63033.24731-.832398.5881 0 1.20637-.259371 1.68289.214131-.0362.202068-.11461.301594.0543.461439a2.2167132 2.2167132 0 0 1 -.40414.757.39207172.39207172 0 0 1 -.11461.428263c-.15682.687633-.947.361912-1.40844.603187a3.5738845 3.5738845 0 0 0 2.49117.678585c.48556-.02413.27143-.621282.51874-.90478.15984-.790176.88065-.247307 1.32098-.461439a3.1848287 3.1848287 0 0 0 .38302-1.049546.75096814.75096814 0 0 1 -.30159-.847478c-.19001-.25937-.1689-.732872-.58509-.778111a.22016335.22016335 0 0 1 .0452-.271434c0-.247307.23525-.325722.3016-.518741-.25937-.168893-.19302-.539853-.16889-.753985-.44033.123654-.48557-.45239-.81431-.576043-.0784-.259371-.35889-.301594-.58509-.349849-.54287.259371-.63335-.407151-1.03748-.56398-.0452-.123653-.13572-.301594 0-.407152.20207-.168892.4735-.02111.70874-.03317zm-9.80481 2.783709c-.90478.301594.14778.983195-.0784 1.547176-.12365.325721-.46144.02111-.6997.156828l-.0875.603188c-.13873.349848-.57604.09048-.78113.328737-.14476.226195 0 .461438.13572.642394-.30159.720809.71176.947004.6997 1.601462.30159.407152-.0452.992243.40715 1.354156.10254.732872-.10254 1.725115.53985 2.301159l.11461.699697c.13571.485566-.57605.361913-.48557.790176.13572-.06937.16889.111589.18096.156828v-.02111a29.752212 29.752212 0 0 1 2.89831-2.955618l-.42826-.428263a11.297697 11.297697 0 0 1 -1.72512-3.875478l-.32873-.168892c0 .358896-.17794.642394-.15683 1.00129l-.11159.135718c-.23826 0-.38303-.202068-.60319-.325722-.0452-.123653-.16889-.328737.0241-.428263a.36794423.36794423 0 0 1 .27143.07841c.0995-.123654.0543-.301594.11159-.461438.0332-.271435-.20207-.521757-.0332-.757.21413-.02111.37096.235243.46143.383023.21414.06937.38303-.111589.56399-.190004 0-.193019.27143-.45239-.0211-.56398a2.6600558 2.6600558 0 0 0 -.0241-1.333043c-.12064-.370961-.53684-.30461-.84447-.271435zm21.11156.38604c-.0905.04524-.21413 0-.32572.02111a.79620718.79620718 0 0 1 .33175-.02111zm-.6997 1.103833.34985.349848c.34985.238259.1146.744937.48557.947004.44032.226196.60318.732873.79017 1.118913a1.3782829 1.3782829 0 0 0 .10254-.328737c.15683-.621283.1327-1.32098.32572-1.9302-.6635.04825-1.44765.102542-2.04782-.156828zm7.71778.156828-.19302-.132701.11159.301594a18.161968 18.161968 0 0 1 -3.57388 10.015924c-.41922.49763-.81431 1.103833-1.33305 1.453682a23.524303 23.524303 0 0 1 2.51831 2.473067l.0905-.171908c3.45023-3.920717 5.4136-8.492877 5.62774-13.770765l.13571-.271434-.16889.07841zm-4.5239-.07841c.0663.687634-.11461 1.354156-.15985 2.032741l.37398.404136a.41318327.41318327 0 0 1 -.0784.518741.4403267.4403267 0 0 1 -.51874-.03318c-.4735 1.507969-1.02843 2.988793-1.97543 4.309773-.37097.473502-.73288 1.127961-1.20638 1.375267l1.02542.904781c.0573-.05429.0241-.144765.0362-.223179 0-.135717.0663-.301594.23524-.271434.49763 0 .5097.518741.79018.790175-.0573.428263.31667.766048.19302 1.161135 2.84101-3.000856 4.26453-6.677283 4.5239-10.751812l.15985-.177941c-1.01637.09953-2.08703.03318-3.13658.04222zm-26.31706.03619.16889.268419c.0211.744936.30159 1.456697.15683 2.210681.12667-.214131.15984-.506677.42826-.642394.0362-.202068-.26842-.259371-.23524-.461439.21413-.419215 0-1.094785.56398-1.275741-.39509.06937-.73891.147781-1.07669-.09953zm-5.42869.04222-.30159.114606-3.13658-.02413a22.987466 22.987466 0 0 0 2.75959 9.910366c.79922 1.489873 1.97242 2.831964 3.01593 4.222311l2.24386-2.322271.27143-.114605a6.6350599 6.6350599 0 0 1 -1.04954-1.082722 1.5441594 1.5441594 0 0 1 -.94701-.720808c-.1146-.123654 0-.349849-.13571-.440327l-.13572.168892c-.39509.19302-.54287-.214131-.81129-.383024-.34985-.193019-.18095-.856525-.65446-.732872-.18095 0-.23825-.214132-.34984-.328737-.44033.04524-.55494-.440327-.79018-.67557-.0452.102542 0 .235243-.13572.301594-.45239.102542-.60318-.452391-.90478-.678586-.0784.03619-.13571.126669-.2473.102542a1.3209801 1.3209801 0 0 1 -.46446-.947004c-.37096-.416199-.20207-1.082721-.13572-1.589398.0694-.135718.26239-.214132.2262-.383024.10254-.238259.34985-.262387.58811-.271435a.60318726.60318726 0 0 1 .22619.214132c.14477-.09048.4735 0 .34985-.316674a1.4808247 1.4808247 0 0 1 .73287-.271434 4.6596216 4.6596216 0 0 0 .47351.693666l-.15683-.247307a17.884502 17.884502 0 0 1 -.54287-3.42912c0-.06937-.14778-.102542-.0573-.168892l.0241.03317a3.5949961 3.5949961 0 0 1 .0422-.633347zm4.41232 0-.25033.114606c-1.04954-.02413-2.14131.06635-3.13657-.07841l.13572.190004.25032 2.07798c.0995.799223.44937 1.565271.42826 2.355446.12366-.168892.0452-.506677.34985-.539853-.12365-.250322.23524-.464454.0332-.678585.10254-.539853.16889-1.094785.64239-1.486857.57605-.02413.62128-.778111 1.20638-.814303.30159 0 .4735.383024.60318.518741-.36794-.440326-.36794-1.161135-.2654-1.658765zm5.79663 1.390347c.30159.585092.48556 1.251614.81128 1.836705.20509.518741.65446.925893.85653 1.43257.21715-.404135.64541-.732872.95002-1.103833a.60318726.60318726 0 0 0 -.10254-.440326c-.10254-.238259 0-.576044-.19302-.778112-.3016.09953.10254.395088-.0211.56398a.18095618.18095618 0 0 1 -.27144-.135717.74493627.74493627 0 0 1 -.53985-.506677c.21413-.135717-.0573-.19302-.11461-.301594-.11159-.0573-.12365-.04524-.21413.05429a.30159363.30159363 0 0 1 -.16889-.02111c-.003-.64541-.72383-.262386-.99526-.600171zm3.54071.904781a1.6255897 1.6255897 0 0 1 -.46144.732873l.0332.02413c.27144-.19302.46446-.542869.81431-.56398zm8.91209.925892a.81731874.81731874 0 0 0 .18095.539853c.44033-.06635.24731.542869.65446.485566.2262-.06635 0-.259371.0784-.407152-.0663-.337784-.39509-.37096-.62129-.573028-.0211-.06937.0241-.123653.0573-.180956-.17191-.105557-.25033-.003-.35287.120638zm6.38473.02111c-.32572-.02111-.7208.168892-1.0043-.05429-.10254-.09048-.16889.04222-.15683.132701-.11159.171909-.2262.38604-.48557.301594-.20206-.09048-.20206-.301594-.27143-.461438a1.2063745 1.2063745 0 0 1 -.0543.349848 3.788016 3.788016 0 0 0 -.48556.757c-.23826.259371-.62129.168893-.86859.383024-.0452.539853-.6424.428263-.9832.603188-.0211.06635.0573.07841.0905.135717a.43429483.43429483 0 0 0 .48557-.114606c.4735.126669.37397-.473502.64239-.67557.23826-.03317.46445-.238259.71176-.07841a1.6135259 1.6135259 0 0 1 .27143 1.140024c-.27143.268418-.13571.708745-.32873 1.025418.0452.37096-.40414.539853-.34985.904781a.79017531.79017531 0 0 1 -.61827.19302 10.522602 10.522602 0 0 0 -2.82291-.64541.20206773.20206773 0 0 0 -.13271.214131c.40414.214132.90479.226195 1.33003.407152.38303.102541.6424.576043 1.12796.428263.40715-.226196 1.08272.135717 1.35416-.301594-.0452-.416199.31667-.720809.49461-1.082721l.13572-.03318c.22619.235243.21413.585092.31667.844463.3016-.337785.56398-.708745.84446-1.058594a10.046084 10.046084 0 0 0 1.65274-3.492454 3.3989602 3.3989602 0 0 0 -.90478.16286zm-14.21109 0c-.48556.790175-1.41146 1.507968-2.08703 2.246873a8.5954185 8.5954185 0 0 0 4.05945 1.86988c.0784-.301594-.0452-.687633.11159-.947004.15683-.25937.41922-.235243.64541-.190004a.19301992.19301992 0 0 0 .13271-.301594c-.32573-.06635-.17794-.428263-.3016-.63033 0-.11159.20509-.09048.15985-.238259-.2262-.17794.11159-.383024-.0814-.573028.0814-.0573.13571-.180956.25032-.180956-.71176.37096-1.47781-.07841-2.11116-.361913-.28651-.17794-.71477-.346832-.78112-.708745zm6.55363 1.975438c-.0362.09048-.15984.247307 0 .301594.26842-.283498.84446-.271434.86558-.678586-.39811-.06635-.60018.147781-.86859.361913zm1.27273.844462c-.34985 0-.53081.271435-.79018.485566-.30159.180956-.4735-.337785-.73287-.214131 0 .0573.0694.07841.1146.102542a.25635459.25635459 0 0 1 0 .325721c-.38302.349848-.56398-.168893-.92589-.135717v.135717c0 .07841-.0211.202067-.13571.159844-.2262-.373976-.68764-.238259-.90479-.566996-.14778-.07841-.28048.02413-.38302.114606-.0784.168892-.44033-.02111-.34985.271434-.2835.09953-.30159.404136-.51874.585092-.34985-.0573-.50668.337785-.83541.328737.0362.06635 0 .17794.10254.190004a1.1249442 1.1249442 0 0 0 .65446.07841c.33778-.539852.90478-.09048 1.37526-.301594.3016.0573.0905.373977.3016.485566.46144-.147781.81128.395088 1.18526.0573-.0241-.530805.57604-.485566.90478-.621283.50668-.301593 1.08272-.711761 1.02542-1.387331zm-10.88452.316674a16.889243 16.889243 0 0 1 -2.24385 2.301159c.34985.02111.53985.407152.83239.576044 1.69195 1.408442 3.8031 2.087028 5.76648 2.572594l-.54287-.250323c-.40715-.461438-.98018-1.004307-1.00431-1.646701.40715-.135717.36191-.585092.49763-.889702a2.2438566 2.2438566 0 0 1 1.18225-.654458c-1.13701.473502-2.12925-.373976-3.07927-.814302-.48557-.373977-1.11892-.666522-1.41146-1.209391zm15.68287 3.148637-.0784-.217147a1.8759124 1.8759124 0 0 1 -.5097.64541c0 .17794-.0543.449375.15985.573028.45239.147781 1.03748.440327 1.14002.971132-.18095.494613-1.12796.947004-.54287 1.489872.19302.271434-.27143.37096-.19.603187l.15683-.214131a15.984462 15.984462 0 0 0 2.00861-1.679877h.0784c-.13572-.04524-.3016.09048-.46446.02111a.71779284.71779284 0 0 1 -.37096-.753984zm-18.15593.413184-.0452-.08143.0452.135717zm.36191.482549a.48556574.48556574 0 0 1 -.27144-.346832zm.0784.09048c.0663.271435.42826.440327.32572.778112-.19.301594-.58509.316673-.90478.301594-.64239-.102542-1.11589.380008-1.72511.449374-.55494.168893-.74494-.506677-1.25463-.449374 3.13657 2.73847 6.72554 4.454538 10.9207 4.677717l.3016.217147-.13572-.383024v-2.979745l-.27144.114606a13.043924 13.043924 0 0 1 -7.26539-2.726407zm20.84314 2.111156-.0543-.271434c-.31667.621282-1.01637 1.01637-1.54717 1.489872-.73288.732873-1.92719.889701-2.30116 1.951311-.39509.358896-.52779.925892-1.08272 1.12796-.20207.539853-.77812.506677-1.10384.904781-.947.847478-1.55622-.539853-2.41275-.711761l-1.72511.301594c-.60319 0-1.20638.217147-1.75829.02413a26.675957 26.675957 0 0 1 0 3.540709l.21413-.135717c5.42868-.235243 10.13053-2.301159 14.1568-5.953458zm-25.03227-.03317-.0422.123653-2.32227 2.334335c3.5196 3.046095 7.48857 5.006454 12.02454 5.627737.72081.123653 1.54416.0573 2.24386.271434l-.1689-.271434v-3.04308l.11159-.171908-.34984.09048c-4.40026-.313658-8.29081-1.860833-11.5058-4.961215zm12.88408.790175.16889.247307c0 .922876.11159 1.872896 0 2.786725.8324-.283498 1.80956-.238259 2.71434-.38604a.92589244.92589244 0 0 1 -.49461-.301594c-.53081-.03317-.77811-.585091-.94701-1.004307-.0814-.301593.12366-.551916.24731-.811286-.22619-.461439-.92589-.123654-1.33003-.301594-.1327-.07238-.21111-.2081-.36794-.229211z"/>
<path d="m146.09438 4.2735819c1.65876 1.4778087 2.41275 3.3959442 2.88625 5.3804303l.27143.6333468a23.723355 23.723355 0 0 1 -6.1133-6.4993429l-1.8729-1.894008c1.64671.6996972 3.41706 1.1158965 4.82852 2.3795738z"/>
<path d="m104.15477 7.2171357c-1.10685 1.3782829-2.51529 2.2830638-3.76992 3.4411833.67858-1.3993944.6997-3.0672072 1.65876-4.3519961 1.36622-2.3825896 3.89358-3.2149881 6.1495-4.0956415-1.65877 1.4536813-2.81086 3.2934025-4.03834 5.0064543z"/>
<path d="m151.96037 9.711315c.52779 2.370526-.23825 4.680733.24731 7.072371l-.0211.02413c-1.28781-2.539418-4.02929-3.733729-5.91124-5.76647-1.09478-1.2063746-1.56828-2.6721196-1.83972-4.2223109 1.08272 2.605769 3.9931 3.1818129 5.66092 5.3683669.56699.506677.74795 1.206374 1.10684 1.782418l.0573-.0573c-.95907-2.050836-1.28479-4.3640595-1.95131-6.5536293a5.1270917 5.1270917 0 0 0 -1.891-2.4881475c2.18354.4523905 4.08961 2.7414861 4.542 4.8405778z"/>
<path d="m102.10092 5.2778886c-2.234813 1.5351116-2.08703 4.2856455-2.798793 6.5777574-.22318.844462-.618267 1.622573-.811287 2.491163l.0573.04524a7.7328607 7.7328607 0 0 1 1.83671-2.714343c1.59241-1.46876 3.93881-2.3825892 4.71692-4.5480315-.0332 3.0159365-2.54846 5.3804305-4.95217 7.0723705-.986209.877638-1.951309 1.872897-2.494178 2.988793-.05429-.757.114606-1.507968.0573-2.334335-.25937-2.64196-.449374-5.6307527 1.411458-7.5820635a5.5945618 5.5945618 0 0 1 2.97673-1.9965499z"/>
<path d="m153.36882 10.230056c1.99655 2.714343 2.43687 7.015068.98319 10.118466a17.794024 17.794024 0 0 0 -1.14002 4.174056c-.10254-.247307-.12366-.603187-.21413-.868589-.79018-3.034032-3.66738-5.199475-4.84963-8.064614a14.986187 14.986187 0 0 1 -.8716-2.922442c1.26669 2.334334 4.37913 3.543725 5.2236 6.113302.34985.654459.32873 1.465746.54287 2.165443a.08746215.08746215 0 0 0 .0905-.07841 29.556176 29.556176 0 0 1 .0995-8.049534c-.0211-1.420506-.15683-2.795773-.947-3.8905574.50969.2985777.73287.8746215 1.08272 1.3028844z"/>
<path d="m97.329704 9.3855939c-1.716067 2.6057691-.277466 5.8871081-.373976 8.8608211l-.223179 3.015936c.03317.02111.03317.11159.11159.07841.102541-.337784.123653-.699697.19302-1.049545.404135-2.445925 2.527354-4.18612 4.388191-5.87806a4.7651794 4.7651794 0 0 0 .947-1.408443 12.567407 12.567407 0 0 1 -1.03748 3.588965c-1.444636 2.8199-4.116755 5.127091-4.602321 8.357159-.238259-3.091335-2.346398-5.401542-2.132267-8.685896-.06937-2.663072 1.037482-4.825498 2.593705-6.8250643.04524-.021111.07841-.066351.135717-.054287z"/>
<path d="m155.24171 27.794869c-1.18526 1.679877-2.61783 3.248163-3.7096 4.961215.12365-1.351139.28048-3.015936-.25032-4.306757-.90478-2.765613-1.71305-5.57345-1.97242-8.607482l.0332-1.161135c.68764 3.100382 3.73373 5.232649 3.54373 8.707008.0663.847478-.19302 1.556223-.34985 2.301159l.0543.0573.13571-.159845c.45239-1.700988.67859-3.49547 1.37527-5.084868 1.00431-2.292112 2.24687-4.605335 1.73718-7.367933 1.53209 3.260227 1.06161 7.615239-.59716 10.661335z"/>
<path d="m96.449051 26.712148c.325721 1.137008.407151 2.36751.86859 3.438167.04524.02413.07841-.02111.111589-.05429-1.161135-3.251179.509693-6.261083 2.18957-8.800502a8.4446216 8.4446216 0 0 0 .84446-2.243856c.18096 1.465745-.19 3.157685-.40413 4.680733-.407155 1.939247-1.016374 3.778968-1.547179 5.663928-.349848 1.173199-.25937 2.503227-.07841 3.733729l-.168892-.135717c-1.212407-2.267984-3.652299-4.038338-4.376124-6.520454-.597155-1.972422-.992243-4.264534-.585092-6.417912a11.843582 11.843582 0 0 1 .699698-2.457989c-.69065 3.516582 1.679876 6.056001 2.445924 9.11416z"/>
<path d="m150.58209 33.13006a8.0706455 8.0706455 0 0 1 -1.37527 4.092626h.13572c1.08272-1.420506 1.9302-2.93149 3.19388-4.285646 1.96036-1.894008 3.95691-3.833255 4.22231-6.463151.66652 4.388187-1.79147 8.233506-5.42869 10.715622-1.50796.983195-3.01593 1.894008-4.46961 3.015936v-.135717c2.21068-3.676427 1.12796-8.719072 2.49418-12.757411l.50667-1.354155c-.29254 2.512275.80224 4.65359.72081 7.171896z"/>
<path d="m102.14615 38.115403c.23826.835414.72081 1.580351 1.03749 2.379574-3.362772-2.289096-7.940964-4.454538-9.430836-8.661769-.621283-1.444634-.699697-3.239116-.56398-4.897881.271434 3.733729 4.288661 5.709168 6.149494 8.800502.440327.630331.823352 1.330028 1.408442 1.860833-.0905-.395088-.46144-.732872-.60319-1.140024a8.0374702 8.0374702 0 0 1 -.73287-4.409299c.180957-1.906071.98018-3.679442.67557-5.68504 1.64369 3.528646 1.14606 7.928897 2.05988 11.753104z"/>
<path d="m145.57564 40.902128a11.198171 11.198171 0 0 1 -2.30116 2.762598c.30159 0 .55191-.271434.81128-.440327 2.41275-2.412749 5.58552-3.091335 8.20034-5.051693 1.04954-.835414 2.00861-1.930199 2.47005-3.115462-.49462 4.005163-4.47867 7.76302-8.23351 8.95733-1.93925.518742-4.01723.687634-5.89917 1.330028 3.19086-2.73847 3.01594-6.981892 5.14217-10.205928.67859-.904781 1.24257-1.872896 2.03274-2.741486-1.28479 2.605769-.73589 5.977586-2.22274 8.50494z"/>
<path d="m105.29479 37.518248c1.12495 2.774661 1.55623 5.911235 4.16199 8.007311-2.8199-.922877-6.12536-.663506-8.60748-2.412749-2.714341-1.670829-5.145185-4.502793-5.651863-7.61524 1.872897 4.240407 6.565693 4.590255 9.711313 7.174913a7.8414344 7.8414344 0 0 0 1.83972 1.251613l.0332-.03317c-.72081-.654458-1.55622-1.399394-2.0629-2.246872-1.83972-2.56053-1.20638-6.146479-2.5726-8.900028 1.23955 1.514 2.39164 3.070223 3.14864 4.774227z"/>
<path d="m138.75057 45.775881c-.68763.449375-1.55622.527789-2.26798.86859 1.01637.02111 1.93925-.340801 2.94355-.440327 3.72468-.588107 7.9862 0 10.59197-3.160701-.96811 2.210681-3.39293 4.062466-5.60361 4.840578-3.80309 1.43257-7.6273-.325721-11.27055-.904781l-.6997-.09048v-.02111c1.73718-.395087 3.42912-.904781 4.8255-2.165442 2.04179-1.963375 3.85738-3.984052 6.12537-5.528211-1.68893 2.14433-1.86989 5.211538-4.64455 6.601884z"/>
<path d="m112.65971 44.747447c1.44463 1.263677 3.18181 1.851785 5.00947 2.222745-.44033.156829-1.01637.11159-1.48987.235243-3.28436.814303-6.93666 2.135283-10.42308.95002-2.26798-.711761-4.60232-2.506243-5.73028-4.738036 2.98879 3.417056 7.88366 2.274016 11.90089 3.178797.56398.07841 1.08272.301594 1.67987.214131-.4735-.301593-1.14002-.271434-1.65876-.542868-3.13356-1.112881-3.59801-4.496761-5.30202-6.797921 2.16846 1.444634 4.00516 3.395945 6.01378 5.277889z"/>
<path d="m137.16419 49.373893c2.43386.904781 5.59456.654458 7.68159-.835414a9.1232073 9.1232073 0 0 1 -4.06247 2.841012c-3.38388 1.263677-6.91252-.05429-9.55448-2.0629-1.07066-.67557-2.01766-1.658765-3.40499-1.568287a4.7500997 4.7500997 0 0 0 -1.41146.135717 26.084833 26.084833 0 0 1 7.13269 4.952167 11.237379 11.237379 0 0 1 -1.29686 1.173199c-2.11115-2.267984-4.43342-4.44549-7.03919-5.730279a4.5631116 4.5631116 0 0 0 -1.4567.603188 21.75998 21.75998 0 0 0 -5.79663 5.178362l-1.35415-1.115896a24.748773 24.748773 0 0 1 7.17491-5.112012c-2.57259-.811287-4.25247 1.345107-6.20378 2.436876-2.28005 1.592415-5.55234 2.337351-8.30287 1.242566-1.47781-.56398-2.91038-1.387331-3.98104-2.714343 2.16544 1.486857 5.38948 1.646702 7.84143.67557 3.31753-1.43257 6.73459-3.248163 10.71563-2.379574.62128 0 1.2305.630331 1.80956.09953a12.727251 12.727251 0 0 1 8.85479 1.118913z"/>
</g>
<g fill="#2194d2" stroke-width=".443963">
<path d="m39.122016 64.428747h13.181261c7.893662 0 11.987001 4.044503 11.987001 10.069081 0 4.093339-2.317487 6.415265-4.985705 7.649482v.09767c3.307524.790254 6.171086 3.800323 6.171086 8.435297 0 6.810392-5.229884 10.859333-12.874927 10.859333h-13.478716zm11.898208 15.250129c3.502868 0 5.87363-1.580508 5.87363-4.541741 0-3.058905-2.27309-4.390794-5.234324-4.390794h-5.132212v8.932535zm.395127 15.538705c4.688249 0 6.366429-2.073308 6.366429-4.68825 0-2.370762-1.482836-4.839196-5.771519-4.839196h-5.482943v9.536325z"/>
<path d="m66.168241 64.428747h16.977145v24.48012c0 11.747263-7.005736 12.932643-14.508711 12.932643h-2.370762v-6.317595h3.800323c3.604979 0 5.678287-1.087709 5.678287-4.936868v-19.534372h-9.576282z"/>
<path d="m88.033418 64.428747h23.689862v6.610609h-16.288999v8.435297h15.845039v6.615049h-15.845039v8.834863h16.288999v6.615045h-23.689862z"/>
<path d="m122.48051 71.039356h-9.76719v-6.610609h26.94855v6.610609h-9.76718v30.504694h-7.41418z"/>
<path d="m142.76074 64.428747h7.39198v37.115303h-7.39198z"/>
<path d="m176.12455 64.428747h7.99134l-12.04028 37.115303h-7.79599l-12.09355-37.115303h8.14672l7.94694 27.277086h.0977z"/>
<path d="m18.064851 63.736165c11.543038 0 18.064854 9.278826 18.064854 19.250235s-6.517377 19.25024-18.064854 19.25024c-11.5474774 0-18.06485407-9.278831-18.06485407-19.25024s6.51293707-19.250235 18.06485407-19.250235zm0 6.615049c-6.912504 0-10.3665358 5.971302-10.3665358 12.635186 0 6.663885 3.4540318 12.635187 10.3665358 12.635187s10.362096-5.971302 10.362096-12.635187c0-6.663884-3.47179-12.635186-10.362096-12.635186z"/>
<path d="m241.81332 74.200373c0-2.566106-2.46844-4.146615-5.42967-4.146615-3.70265 0-5.92246 1.629345-5.92246 4.097779 0 2.566106 2.46843 3.800323 4.29312 4.390794l6.81039 2.170979c4.93687 1.580508 8.4353 4.43963 8.4353 10.171192 0 4.541741-3.26313 11.352138-13.52756 11.352138-12.87492 0-14.06474-8.342069-14.06474-11.649593l7.40086-.146508c0 3.946831 3.10774 5.478503 6.71272 5.478503 2.51727 0 6.07341-1.234217 6.07341-4.097778 0-1.975636-.83909-3.010069-4.4929-4.346398l-8.09345-2.907958c-4.09778-1.482836-6.96134-5.087815-6.96134-9.278826 0-4.741525 3.25869-11.543038 12.87493-11.543038 11.44981 0 13.27449 7.600647 13.27449 10.3177z"/>
</g>
<g transform="matrix(.44396186 0 0 .44396186 -125.99143 63.736216)">
<path d="m716.57 33a25.32 25.32 0 0 1 3.94-5.08l-12.92-14.18a44.08 44.08 0 0 0 -8.21 10.68z" fill="#5dbb48"/>
<path d="m748.27 23a25 25 0 0 1 5.42 3.4l13-14.16a44.39 44.39 0 0 0 -11.53-7.24z" fill="#e5b72f"/>
<path d="m778 27.23-17.23 8.57a24.32 24.32 0 0 1 1.72 6.07l19.12-1.8a44 44 0 0 0 -3.61-12.84" fill="#c4212e"/>
<path d="m759.54 33.32 17.18-8.57a44.17 44.17 0 0 0 -8-10.66l-13 14.15a25 25 0 0 1 3.81 5.08" fill="#49a046"/>
<path d="m713.16 45.53c0-.39 0-.78 0-1.16l-19.12-1.71c-.06 1-.1 1.9-.1 2.87a44.33 44.33 0 0 0 1.3 10.63l18.47-5.3a24.66 24.66 0 0 1 -.58-5.33" fill="#3d8045"/>
<path d="m757.13 61.24a24.87 24.87 0 0 1 -4.66 4.39l10.1 16.37a44.43 44.43 0 0 0 9.88-9.18z" fill="#f9c21a"/>
<path d="m762.76 45.53a24.11 24.11 0 0 1 -.57 5.27l18.47 5.31a44 44 0 0 0 1.34-10.58q0-1.37-.09-2.7l-19.12 1.8v.9" fill="#ef4427"/>
<path d="m719.09 61.61-15.28 11.61a44.28 44.28 0 0 0 10 9l10.09-16.32a25.58 25.58 0 0 1 -4.79-4.33" fill="#f89d27"/>
<path d="m713.47 41.61a24.63 24.63 0 0 1 1.83-6.16l-17.18-8.55a43.48 43.48 0 0 0 -3.79 13z" fill="#2194d2"/>
<path d="m760.22 83.45-10.08-16.32a25.1 25.1 0 0 1 -5.89 2.39l3.56 18.88a43.62 43.62 0 0 0 12.41-5" fill="#a11c44"/>
<path d="m761.46 53.48a25 25 0 0 1 -2.69 5.52l15.33 11.57a44.06 44.06 0 0 0 5.81-11.79z" fill="#2abde2"/>
<path d="m741.54 70.07a24.72 24.72 0 0 1 -6.47.09l-3.55 18.84a44.23 44.23 0 0 0 13.57-.11z" fill="#f26b2d"/>
<path d="m739.54 20.77a24.84 24.84 0 0 1 6.14 1.23l6.9-18a43.7 43.7 0 0 0 -13-2.47z" fill="#e7223d"/>
<path d="m732.34 69.69a24.71 24.71 0 0 1 -6.09-2.31l-10.1 16.34a43.91 43.91 0 0 0 12.64 4.83z" fill="#db1869"/>
<path d="m730.5 21.87a24.61 24.61 0 0 1 6.27-1.11v-19.2a43.82 43.82 0 0 0 -13.21 2.44z" fill="#1c597c"/>
<path d="m717.41 59.4a24.5 24.5 0 0 1 -2.92-5.86l-18.49 5.29a44 44 0 0 0 6.13 12.17z" fill="#c4982e"/>
<path d="m722.59 26.07a24.94 24.94 0 0 1 5.32-3.21l-6.91-17.86a44.16 44.16 0 0 0 -11.32 6.94z" fill="#157dae"/>
</g>
</svg>