<svg xmlns="http://www.w3.org/2000/svg" xmlns:xlink="http://www.w3.org/1999/xlink" width="100%" height="100%" viewBox="0 0 1024 475">
<!-- Vectorization by Rodrigo Polo https://github.com/rodrigopolo/logotipos-politicos -->
<defs>
<g id="l1">
<path fill="#029CD9" stroke="none" d="M 129 95.8 L 128.65 90.55 Q 128.65 70.15 121.3 54.9 114 39.4 100.6 31.25 87.4 23.1 70.05 23.1 53.05 23.1 39.55 31.6 26.6 39.65 19 55.25 12.05 70.85 12.05 91 L 12.05 97.65 Q 12.4 117.6 19.7 132.6 27.65 148 40.7 155.9 53.75 163.85 71.2 163.85 88.7 163.5 101.75 155.2 115.05 146.8 122 131.45 129 116.05 129 95.8 M 100.35 89.85 L 100.25 96.25 Q 100.25 118.05 92.8 128.9 85.2 140.3 70.85 140.3 56.05 140.3 48.5 128.9 40.55 117 40.55 96.25 L 40.55 89.5 Q 40.55 68.3 48.25 56.9 56.2 45.7 70.15 45.7 84.85 45.7 92.3 56.9 100.35 68.55 100.35 89.85 M 225.05 90.2 Q 234.25 86.6 239.5 78.9 244.6 71.2 244.6 61.05 244.6 42.65 231.55 33.1 218.5 23.8 193.55 23.8 L 145.55 24.15 146.5 161.25 199.85 161.05 Q 222.8 160.7 235.75 150.3 248.1 140.4 248.1 120.25 247.75 108.35 241.8 100.7 235.5 92.65 225.05 90.2 M 173.75 46.5 L 193.55 46.25 Q 205.55 46.25 210.8 50.25 216.4 54.3 216.4 63.75 216.65 80.55 195.1 80.9 L 174.1 81.25 173.75 46.5 M 220 119.8 Q 220 128.3 214.55 133.1 208.95 137.95 198.95 137.95 L 174.7 138.2 174.45 101.15 200.55 100.7 Q 220 101.05 220 119.8 M 343.9 140.75 Q 349.5 130.85 349.5 117.45 L 348.8 22.4 320.6 22.6 321.3 117.7 Q 321.3 128.05 316.6 133.55 312.05 139.15 303.8 139.15 294.15 139.15 290.3 134.45 285.85 129.7 285.85 119.55 L 257.4 119.8 Q 257.4 140.05 269.75 151 281.8 161.95 303.8 161.95 317.1 161.95 327.55 156.4 338.3 150.8 343.9 140.75 M 461.55 44.55 L 461.2 21.8 369.5 22.4 370.35 159.75 462.4 159.3 462.15 136.45 398.3 136.8 398.2 100 452.7 99.5 452.5 77.4 398.2 77.85 397.85 45.1 461.55 44.55 M 622.15 20.75 L 593.95 20.85 594.9 158.1 623.1 158 622.15 20.75 M 579.85 43.95 L 579.75 21.1 467.85 21.8 468 44.55 509.6 44.4 510.15 158.7 538.7 158.6 537.8 44.05 579.85 43.95 M 861.5 333.7 L 836.2 333.7 836.2 456.65 915.3 456.65 915.3 436.25 861.5 436.25 861.5 333.7 M 681.8 157.55 L 711.4 157.45 758.1 19.6 726.65 19.95 696.25 123.3 664.8 20.3 633.35 20.65 681.8 157.55 M 1011.7 354.2 L 1011.7 333.7 929.65 333.7 929.65 456.65 1012.05 456.65 1012.05 436.25 954.95 436.25 954.95 403.4 1003.65 403.4 1003.65 383.6 954.95 383.6 954.95 354.2 1011.7 354.2 M 1002.95 36.6 Q 996.9 27.3 985 21.8 973.7 16.7 958.65 16.7 944.8 16.7 932.3 21.8 920.9 26.35 914.4 35.45 908.3 44.4 908.3 55.25 908.3 76.35 931.85 89.05 940.25 93.7 955.15 98.35 970.1 103.15 975.65 107.35 981.5 111.75 981.5 119.7 981.5 126.9 975.8 131 969.85 135.3 959.95 135.3 932.65 135.3 932.65 112.7 L 904.25 112.9 Q 904.25 126.1 911.25 136.2 918.35 146.45 931.3 152.05 944.2 157.65 960.15 157.65 983.25 157.3 996.55 147.15 1009.8 137.05 1009.8 119.2 1009.8 103.15 998.75 92.4 987.1 81.6 963.2 74.7 949.7 70.5 943.4 66.2 936.65 61.55 936.65 55 936.3 48.15 942.25 43.35 948.15 38.95 958.3 38.95 969.25 38.95 975.1 44.05 981.25 49.3 981.25 58.75 L 1009.45 58.75 Q 1009.45 46.95 1002.95 36.6 M 803 342.45 Q 791.45 333.7 769.2 333.7 L 726.3 333.7 726.3 456.5 774.1 456.5 Q 795.05 456.15 806.15 447.2 817.3 438.1 817.3 420.4 817.3 409.45 811.95 402.9 806.5 395.8 797.15 393.35 805.65 390 810 383.35 814.65 375.9 814.65 367.5 814.65 351.05 803 342.45 M 751.15 354.2 L 768.85 354.2 Q 779.1 354.2 784.35 357.95 789.25 361.9 789.25 370.2 789.25 384.85 770 385.35 L 751.15 385.35 751.15 354.2 M 792.15 420.5 Q 792.15 427.6 787 432.15 781.65 436.25 773.05 436.25 L 751.35 436.25 751.35 403.5 774.65 403.5 Q 792.15 403.5 792.15 420.5 M 127.85 360.5 Q 121.3 374.25 121.3 392.55 L 121.3 398.6 Q 121.65 416.65 128.1 429.85 134.7 443.35 146.75 450.8 158.4 458.05 174 458.05 189.15 458.05 201.25 450.55 213.4 442.75 219.55 429.6 225.85 416.3 225.85 397.8 L 225.75 397.8 225.75 392.3 Q 225.75 374.25 219.2 360.5 212.55 346.65 200.8 339.3 188.65 331.85 173.55 331.85 158.4 331.85 146.25 339.3 134.85 346.4 127.85 360.5 M 146.95 392.1 Q 146.95 372.75 153.95 362.95 160.95 353.15 173.4 353.15 186.35 353.15 193.2 363.2 200.2 373.2 200.2 392.55 L 200.2 398.4 Q 199.85 417.85 193.2 427.5 186.35 437.5 173.75 437.5 160.85 437.5 153.95 427.25 146.95 416.8 146.95 398.15 L 146.95 392.1 M 23.2 348.6 Q 17.6 356.3 17.6 366.35 17.6 385.7 38.6 396.85 46.85 401.4 59.35 405.25 72.4 409.35 77.5 413.4 82.65 417.15 82.65 424.35 82.65 431 77.3 434.6 72.5 438.35 63.3 438.35 39.05 438.35 39.05 418.05 L 13.65 418.05 Q 13.65 429.85 19.7 439.05 25.3 447.8 37.45 453.25 49.1 458.4 63.2 458.4 83.7 458.4 95.7 449.3 107.7 440.45 107.7 424.35 107.7 409.7 98 400.35 88.1 390.9 66.55 384.3 53.4 379.85 48.85 376.6 42.8 372.3 42.8 366.55 42.8 360.05 47.9 356.3 53.25 352.35 62.25 352.35 71.8 352.35 77.15 357 82.65 361.8 82.65 370.05 L 107.8 370.05 Q 107.8 359 102.2 350.25 96.15 341.5 86.15 336.75 75.75 332.1 62.85 332.1 49.55 332.1 39.3 336.5 29.05 340.6 23.2 348.6 M 482.2 383.6 L 482.2 354.2 539.05 354.2 539.05 333.7 457.15 333.7 457.15 456.65 539.05 456.65 539.05 436.25 482.2 436.25 482.2 403.4 530.8 403.4 530.8 383.6 482.2 383.6 M 342.7 333.7 L 342.7 354.2 379.65 354.2 379.65 456.65 405.15 456.65 405.15 354.2 442.6 354.2 442.6 333.7 342.7 333.7 M 332.8 370.05 Q 332.8 358.75 327.2 350.25 321.4 341.75 311.25 336.75 300.9 332.1 287.95 332.1 274.55 332.1 264.3 336.5 254.15 340.6 248.35 348.6 242.75 356.3 242.75 366.35 242.75 385.7 263.7 396.85 272 401.4 284.45 405.25 297.5 409.35 302.65 413.4 307.75 417.15 307.75 424.35 307.75 431.1 302.3 434.6 297.5 438.35 288.3 438.35 264.05 438.35 264.05 418.05 L 238.65 418.05 Q 238.65 429.6 244.85 439.05 250.55 447.8 262.55 453.25 274.2 458.4 288.4 458.4 308.95 458.4 320.8 449.3 332.95 440.3 332.95 424.35 332.95 409.8 323.15 400.35 313.35 390.9 291.7 384.3 278.5 379.85 273.95 376.6 267.8 372.4 267.8 366.55 267.8 360.05 272.9 356.3 278.3 352.35 287.35 352.35 296.9 352.35 302.3 357 307.65 361.65 307.65 370.05 L 332.8 370.05 M 653.85 456.65 L 653.85 333.7 628.65 333.7 628.65 414.7 579.25 333.7 554.1 333.7 554.1 456.65 579.25 456.65 579.25 375.65 628.65 456.65 653.85 456.65 M 926.75 292.25 L 926.75 276.95 886.2 276.95 886.2 199.5 867.05 199.5 867.05 292.25 926.75 292.25 M 702.75 333.7 L 677.6 333.7 677.6 456.4 702.75 456.4 702.75 333.7 M 795.65 199.5 L 795.65 292.25 855.4 292.25 855.4 276.95 814.85 276.95 814.85 199.5 795.65 199.5 M 1010.05 243.75 Q 1010.05 229.9 1005.15 219.75 1000.35 209.5 991.15 203.7 982.3 198.2 970.8 198.2 959.1 198.2 950.25 203.7 941.2 209.3 936.3 219.75 931.4 229.9 931.4 243.75 L 931.4 248.4 Q 931.75 262.3 936.5 271.95 941.2 282 950.5 287.9 959.45 293.4 971 293.4 982.65 293.4 991.75 287.9 1000.95 281.85 1005.4 271.95 1010.4 261.25 1010.4 247.95 L 1010.05 247.95 1010.05 243.75 M 991.05 243.75 L 990.6 243.75 990.6 248.4 Q 990.6 262.75 985.45 270.35 980.45 277.8 970.8 277.8 961.2 277.8 955.85 269.85 950.75 262.05 950.75 247.7 L 950.75 243.3 Q 951.1 228.4 956.1 221.4 961.45 213.95 971 213.95 980.7 213.95 985.9 221.65 991.05 229.2 991.05 243.75 M 781.1 243.75 Q 781.1 230.6 776.2 219.75 771.4 209.5 762.2 203.7 753.35 198.2 741.7 198.2 730.05 198.2 721.2 203.7 712.1 209.3 707.2 219.75 702.3 229.9 702.3 243.75 L 702.3 248.4 Q 702.65 262.3 707.45 271.95 712.1 282 721.4 287.9 730.6 293.4 741.95 293.4 753.8 293.4 762.65 287.9 771.75 281.85 776.4 271.95 781.3 261.45 781.3 247.95 L 781.1 247.95 781.1 243.75 M 756.7 221.65 Q 761.85 229.2 761.85 243.75 L 761.5 243.75 761.5 248.4 Q 761.5 262.75 756.35 270.35 751.35 277.8 741.7 277.8 732.15 277.8 726.8 269.85 721.65 262.05 721.65 247.7 L 721.65 243.3 Q 721.9 228.5 726.9 221.4 732.25 213.95 741.8 213.95 751.5 213.95 756.7 221.65 M 681 206.85 Q 672 199.6 655.6 199.6 L 621.2 199.6 621.2 292.35 640.3 292.35 640.3 258.35 655.45 258.35 672.95 292.35 693.45 292.35 693.45 291.4 673.3 253.45 Q 681.55 249.8 685.65 243.4 689.85 237.1 689.85 227.55 689.85 214.3 681 206.85 M 655.7 215.1 Q 663.4 215.1 667.1 218.85 670.85 222.55 670.85 229.1 670.85 235.5 666.9 239.1 663.15 242.85 655.7 242.85 L 640.3 242.85 640.3 215.1 655.7 215.1 M 597.3 206.85 Q 588.35 199.6 571.9 199.6 L 537.45 199.6 537.45 292.35 556.55 292.35 556.55 258.35 571.7 258.35 589.15 292.35 609.65 292.35 609.65 291.4 589.65 253.45 Q 597.65 249.95 602 243.4 606.2 237.1 606.2 227.55 606.2 214.3 597.3 206.85 M 583 239.1 Q 579.25 242.85 571.8 242.85 L 556.4 242.85 556.4 215.1 571.8 215.1 Q 579.5 215.1 583.2 218.85 586.95 222.55 586.95 229.1 586.95 235.5 583 239.1 M 461.55 292.25 L 467.85 273.1 501.4 273.1 507.85 292.25 528.1 292.25 493.4 199.5 475.65 199.5 441.2 292.25 461.55 292.25 M 472.85 257.65 L 484.3 222.9 495.95 257.65 472.85 257.65 M 435.45 226.75 Q 435.45 218.5 431.3 211.85 426.5 205.1 419.15 201.7 411.45 198.2 401.45 198.2 392.25 198.2 383.75 201.35 375.7 204.6 371.6 210.45 367.4 216.4 367.4 223.95 367.4 238.5 383.25 247.05 388.5 250.05 398.9 253.3 408.45 256.45 412.65 259.4 416.35 262.4 416.35 267.75 416.35 272.45 412.4 275.8 408.55 278.6 401.7 278.6 383.25 278.6 383.25 263.1 L 364.15 263.1 Q 364.15 272.3 368.8 278.95 373.85 285.8 382.35 289.8 392.1 293.75 401.9 293.75 417.65 293.75 426.4 287 435.45 280 435.45 268.1 435.45 257.5 428 249.8 420.45 242.5 404.15 237.8 395.15 234.8 390.85 232 386.2 228.75 386.2 224.2 386.2 219.4 390.15 216.5 393.85 213.45 401.1 213.45 408.45 213.45 412.3 216.95 416.35 220.45 416.35 226.75 L 435.45 226.75 M 356.25 214.85 L 356.25 199.5 294.15 199.5 294.15 292.25 356.35 292.25 356.35 276.95 313.25 276.95 313.25 251.9 349.95 251.9 349.95 237 313.25 237 313.25 214.85 356.25 214.85 M 279.8 243.75 Q 279.8 231.3 274.3 220.7 268.6 210.45 259.15 205.1 249.6 199.5 237.4 199.5 L 208.95 199.5 208.95 292.25 237.6 292.25 Q 249.75 292.25 259.5 286.65 269.2 280.95 274.3 271.05 279.8 260.4 279.8 247.95 L 279.8 243.75 M 254.65 222.3 Q 260.45 229.55 260.45 243.75 L 260.45 248.65 Q 260.45 262.15 254.4 269.65 248.9 276.95 237.4 276.95 L 228.05 276.95 228.05 215.1 237.6 215.1 Q 248.8 215.1 254.65 222.3 M 120.85 237 L 120.85 214.85 163.6 214.85 163.6 199.5 101.65 199.5 101.65 292.25 163.95 292.25 163.95 276.95 120.85 276.95 120.85 251.9 157.45 251.9 157.45 237 120.85 237 M 87.3 243.75 Q 87.3 231.3 81.8 220.7 76.35 210.55 66.65 205.1 56.9 199.5 44.75 199.5 L 16.45 199.5 16.45 292.25 45 292.25 Q 57.1 292.25 66.9 286.65 76.7 280.95 81.8 271.05 87.3 260.4 87.3 247.95 L 87.3 243.75 M 45 215.1 Q 56.3 215.1 62 222.3 67.85 229.55 67.85 243.75 L 67.85 248.65 Q 67.85 262.05 61.9 269.65 56.3 276.95 44.75 276.95 L 35.45 276.95 35.45 215.1 45 215.1 Z"/>
</g>
<g id="l0">
<path fill="#00568B" stroke="none" d="M 799.85 25.3 Q 789.8 29.6 782.35 36 L 802.4 57.9 Q 806.35 54.65 810.55 52.9 L 799.85 25.3 Z"/>
<path fill="#CD8B2A" stroke="none" d="M 770.8 127.6 L 794.5 109.65 Q 791.2 104.4 789.8 100.55 L 761.25 108.7 Q 764.65 119.55 770.8 127.6 Z"/>
<path fill="#1E3666" stroke="none" d="M 814.85 51.4 Q 820 49.75 824.65 49.75 L 824.65 19.95 Q 813.6 20.3 804.15 23.65 L 814.85 51.4 Z"/>
<path fill="#E01C83" stroke="none" d="M 811.95 154.75 L 817.55 125.6 Q 813.45 124.7 808 122.1 L 792.5 147.3 Q 802.4 153 811.95 154.75 Z"/>
<path fill="#E52330" stroke="none" d="M 828.85 19.6 L 828.85 49.4 Q 834.2 50 838.4 51.4 L 849.15 23.45 Q 840.25 20.15 828.85 19.6 Z"/>
<path fill="#ED6E28" stroke="none" d="M 826.5 126.55 Q 823.5 126.55 822.1 126.3 L 816.5 155.7 Q 821.4 156.4 826.5 156.4 832.8 156.4 837.6 155.45 L 832.1 126.1 Q 828.4 126.55 826.5 126.55 Z"/>
<path fill="#01ADD8" stroke="none" d="M 858.7 109.05 L 882.45 127 Q 888.5 118.5 891.55 108.6 L 862.9 100.45 Q 861.6 104.75 858.7 109.05 Z"/>
<path fill="#8F1839" stroke="none" d="M 845.3 121.65 Q 841.8 123.75 836.2 125.5 L 841.8 154.85 Q 851.8 152.3 860.9 147.05 L 845.3 121.65 Z"/>
<path fill="#027DBC" stroke="none" d="M 764.3 58.95 Q 759.85 68.05 758.45 79.25 L 788.3 81.8 Q 789 76.8 791.1 72.25 L 764.3 58.95 Z"/>
<path fill="#F59C28" stroke="none" d="M 804.6 119.7 Q 799.85 116.55 797.15 113.15 L 773.25 131 Q 780.4 139.7 789 144.95 L 804.6 119.7 Z"/>
<path fill="#E8422E" stroke="none" d="M 894.7 87.85 Q 894.7 85.2 894.45 83.65 L 864.75 86.45 Q 864.95 87.15 864.95 88.2 864.95 92.75 864.05 96.35 L 892.7 104.55 Q 894.7 96.95 894.7 87.85 Z"/>
<path fill="#FAB61B" stroke="none" d="M 880.1 130.3 L 856.25 112.35 Q 853.55 116.05 849 119.1 L 864.75 144.5 Q 873 138.9 880.1 130.3 Z"/>
<path fill="#48773C" stroke="none" d="M 758 83.65 L 757.75 88.1 Q 757.75 97.2 759.85 104.65 L 788.4 96.5 Q 787.85 91 787.85 88.2 L 787.85 86.35 758 83.65 Z"/>
<path fill="#2D9A47" stroke="none" d="M 854.25 61.05 Q 857.5 64.9 860.1 69 L 886.9 55.7 Q 882.1 46.75 874.3 39.15 L 854.25 61.05 Z"/>
<path fill="#C32033" stroke="none" d="M 861.85 72.95 Q 863.8 78.1 864.4 82.3 L 894.1 79.5 Q 892.8 68.4 888.65 59.65 L 861.85 72.95 Z"/>
<path fill="#D09F29" stroke="none" d="M 870.8 36.5 Q 862.75 29.5 852.75 25.3 L 842.25 52.9 Q 847.05 55.25 850.75 58.4 L 870.8 36.5 Z"/>
<path fill="#64B448" stroke="none" d="M 793.1 68.55 Q 796 63.85 799.15 60.7 L 779.1 38.6 Q 771.85 45.55 766.3 55.15 L 793.1 68.55 Z"/>
</g>
</defs>
<g transform="matrix(1,0,0,1,0,0)">
<use xlink:href="#l1"/>
</g>
<g transform="matrix(1,0,0,1,0,0)">
<use xlink:href="#l0"/>
</g>
</svg>
