<svg xmlns="http://www.w3.org/2000/svg" xmlns:xlink="http://www.w3.org/1999/xlink" width="100%" height="100%" viewBox="0 0 1024 1024">
<!-- Vectorization by Rodrigo Polo https://github.com/rodrigopolo/logotipos-politicos -->
<defs>
<g id="l6">
<path fill="#BF930B" stroke="none" d="M 865.9 158.3 Q 796.9 88.95 706.7 50.95 614.15 11.45 511.95 11.45 409.9 11.45 316.9 50.95 227 88.95 157.75 158.3 88.5 227.4 50.5 317.4 11.15 410.2 11.15 512.25 11.15 613.95 50.5 706.9 88.5 796.8 157.75 866.05 227.15 935.4 316.9 973.2 410.15 1012.55 511.95 1012.55 613.85 1012.55 706.7 973.2 796.75 935.4 865.9 866.05 935.15 796.95 973.4 706.9 1012.75 613.4 1012.75 512.25 1012.75 410.65 973.4 317.4 935.15 227.1 865.9 158.3 M 665.4 149.2 Q 736.6 179.5 790.75 233.95 845.2 288.1 875.5 359.25 906.35 432.25 906.35 512.8 906.35 593.3 875.5 666.3 845.2 737.5 790.75 791.65 736.45 846.2 665.4 876.2 591.8 907.2 511.65 907.2 431.4 907.2 358.1 876.2 287 846.2 232.7 791.65 178.25 737.5 147.95 666.3 116.95 593.05 116.95 512.8 116.95 432.55 147.95 359.25 178.25 288.1 232.7 233.95 286.9 179.5 358.1 149.2 431.95 118.25 511.65 118.25 591.4 118.25 665.4 149.2 Z"/>
<path fill="#FFFCD7" stroke="none" d="M 437.1 839.95 L 439.5 840.65 454 792.5 451.65 791.8 437.1 839.95 M 580.2 840.65 L 582.6 839.95 568.1 791.8 565.7 792.5 580.2 840.65 M 635.1 783.95 L 634.8 787.45 Q 634.95 791.2 636.5 794.45 640.95 802.8 656.2 798.2 L 668.6 815.5 700 814.4 678.4 790.25 658.15 792.5 Q 657.15 789.55 655.35 786.9 648.8 777.8 635.1 783.95 M 556.65 789 L 554.1 789.55 565.55 845.1 568.1 844.55 556.65 789 M 530.8 769.75 L 528.3 769.85 531.9 849 534.45 848.85 530.8 769.75 M 544.9 780.35 L 542.4 780.6 550.6 847.6 553.15 847.35 544.9 780.35 M 491.55 769.85 L 489.05 769.75 485.15 848.85 487.65 849 491.55 769.85 M 505.55 750.9 L 503 750.9 503.15 847.6 505.65 847.6 505.55 750.9 M 516.7 750.9 L 514.2 750.9 513.9 847.6 516.4 847.6 516.7 750.9 M 465.45 789.55 L 462.95 789 451.5 844.55 454 845.1 465.45 789.55 M 477.2 780.6 L 474.65 780.35 466.7 847.35 469.25 847.6 477.2 780.6 M 397.05 787.45 L 396.75 783.95 Q 382.65 778.25 376.8 787.85 375 790.4 374.15 793.45 L 353.75 792.05 333.25 816.9 364.35 816.9 376.1 799.2 Q 391.6 803.1 395.65 794.45 397.05 791.65 397.05 787.45 M 309.5 768.05 L 286.6 791.1 317.6 794.15 331.15 777.4 Q 346.1 783 350.95 774.6 352.65 772.25 353.05 767.65 L 352.9 764.15 Q 339.25 757.45 332.7 766.25 330.85 768.75 329.75 771.7 L 309.5 768.05 M 319 742.25 Q 320.95 739.7 321.5 735.55 L 321.65 732.05 Q 308.8 724.35 301.4 732.75 299.3 735 298.05 737.75 L 278.1 733.15 253.8 754.65 284.65 759.55 299.15 743.75 Q 313.7 750.2 319 742.25 M 290.1 705.25 Q 292.2 702.75 293.45 698.85 L 293.85 695.35 Q 282.3 686.15 273.6 693.25 271.25 695.35 269.7 698.15 L 250.6 690.85 223.65 709 253.65 717.8 270 704 Q 283.55 712.35 290.1 705.25 M 271.8 662.95 L 272.65 659.6 Q 261.35 649.85 252.4 656.25 249.9 658.2 248.2 660.75 L 229.65 652.35 201.45 668.55 230.75 679.45 248.05 666.75 Q 261.2 675.8 268.05 669.25 270.55 667 271.8 662.95 M 245.4 629.05 L 246.65 625.85 Q 236.5 614.4 227.15 620.4 224.45 621.95 222.4 624.3 L 204.5 613.95 175.2 627.35 203.1 641.2 221.7 630.15 Q 233.55 640.75 241.25 634.9 243.75 632.8 245.4 629.05 M 230.6 588.3 Q 221.7 576 211.5 580.75 L 207 584.8 189.85 572.4 159.15 582.7 185.65 599.3 205.05 590.25 Q 216.1 601.7 224.35 596.65 227 594.7 228.95 591.35 L 230.6 588.3 M 200.6 535.4 Q 197.8 536.5 195.3 538.75 L 179.65 525.35 148.25 533.15 173.35 551.85 193.5 544.45 Q 203.55 556.9 211.9 552.3 216.4 550.2 218.9 544.35 211.2 531.65 200.6 535.4 M 172.1 457.4 L 193.2 452.75 Q 201.45 466.3 210.5 462.8 215.25 461.15 218.2 455.85 212.2 442.3 201.3 444.8 L 196.15 447.75 181.9 432 149.65 435.75 172.1 457.4 M 193.75 492.85 L 178.7 477.9 146.85 483.5 170.6 503.85 191.25 498 Q 200.2 511.1 209 507.2 213.7 505.1 216.4 499.65 209.65 486.25 198.9 489.5 L 193.75 492.85 M 275.7 330.8 Q 274.05 316 263.15 314.9 260.2 314.75 256.85 315.45 L 248.75 296.45 217.05 289.75 231.45 317.7 252.8 319.9 Q 256.15 335.25 265.95 335 271.1 334.85 275.7 330.8 M 205.6 360.4 L 227.15 359.15 Q 233.15 374.05 242.6 372.1 247.65 371.25 251.55 366.5 247.5 352 236.6 353 233.95 353 230.75 354.25 L 219.6 337.05 187.05 335.25 205.6 360.4 M 197.25 380.5 L 165 380.35 184.7 404.75 206.05 402.4 Q 212.9 416.9 222.25 414.55 227.25 413.3 230.75 408.55 226.3 394.15 215.25 395.55 212.35 395.85 209.4 397.25 L 197.25 380.5 M 254.05 252.2 L 265.95 281.4 287.15 285.6 Q 289.1 301.35 298.6 301.75 303.8 302.2 308.8 298.85 308.65 283.6 297.75 281.55 294.4 281.25 291.5 281.65 L 285.2 262 254.05 252.2 M 325.7 255 Q 325.55 270.9 334.9 272.75 340.1 273.85 345.4 270.9 347.35 256.15 336.75 252.5 333.65 251.8 330.45 251.8 L 326.65 231.55 297.2 217.9 305.3 248.3 325.7 255 M 375 227.25 L 374.55 206.7 347.5 188.6 350.4 219.7 369.55 229.75 Q 367.05 245.5 376.1 248.75 381 250.7 386.55 248.6 390.75 234.35 380.85 229.05 378.35 227.95 375 227.25 M 424.7 190.1 L 400.65 168.35 399.15 199.45 416.3 212.15 Q 411.3 227.4 419.95 232 424.7 234.65 430.4 233.4 436.7 220 427.6 213.4 L 422.05 211.35 424.7 190.1 M 464.9 196.8 L 470.35 177.15 450.1 151.75 443.8 182.45 459.05 197.65 Q 452.05 211.9 459.6 217.6 462.65 220 467 220.55 L 468.65 220.7 Q 469.1 220.7 469.65 220.7 477.75 208.1 470.05 200.45 467.95 198.2 464.9 196.8 M 605.75 169.05 L 582.75 191.8 586.1 212 Q 583.15 213.15 580.65 215.1 572.15 221.95 578.95 235.35 L 582.45 235.35 Q 586.65 235.05 589.15 233.4 597.4 228.65 592.1 213.55 L 608.7 200.15 605.75 169.05 M 555.65 154.5 L 536.5 180.6 542.65 200 Q 539.85 201.55 537.9 203.95 530.1 211.9 538.9 224.15 L 542.4 223.6 Q 546.3 222.75 549.1 220.7 556.2 214.55 548.65 200.7 L 563.2 184.8 555.65 154.5 M 678.1 762.45 L 678.1 765.95 Q 678.5 770 680.45 772.8 685.65 780.75 700.3 774.75 L 714.4 790.95 745.4 786.45 721.65 764.55 701.7 768.9 Q 700.45 765.8 698.35 763.45 691.1 754.95 678.1 762.45 M 708.4 732.45 Q 708.95 736.5 710.9 739.3 716.75 746.85 731 739.7 L 746.1 755.05 776.8 748.8 751.7 728.3 731.85 733.85 Q 730.45 731.2 728.35 728.85 720.55 720.9 708.1 728.95 L 708.4 732.45 M 758.5 692.95 Q 756.85 690.45 754.45 688.35 745.55 681.4 734.2 691.3 L 734.9 694.65 Q 736.2 698.7 738.4 700.9 745.25 707.75 758.4 698.85 L 775.4 712.1 805 701.75 777.5 684.85 758.5 692.95 M 754.05 654.6 L 754.9 658.05 Q 756.85 662.1 758.95 663.95 765.9 670.2 778.6 660.75 L 796.35 672.75 825.4 660.75 796.75 645.5 778.5 654.75 Q 776.55 652.2 774 650.4 764.65 644.1 754.05 654.6 M 783.1 608.8 L 784.5 612 Q 786 615.65 788.95 617.6 796.5 623.3 808.35 612.45 L 827.05 622.5 854.6 607.7 824.55 595.4 807.25 606.45 Q 805 604.2 802.35 602.8 792.7 597.35 783.1 608.8 M 826.5 561.2 L 847.05 567.9 871.35 548.1 839.65 541.55 824.7 555.5 Q 822.05 553.7 819.1 552.7 808.5 549.2 800.95 562.35 L 803.05 565.25 Q 805.3 568.6 808.2 570 817 573.9 826.5 561.2 M 873.15 492 L 841.05 487.8 827.2 502.9 Q 824.55 501.2 821.5 500.35 810.75 497.85 804.45 511.4 L 806.55 514.2 Q 809.2 517.25 812.15 518.5 821.35 521.85 829.7 508.3 L 850.55 513.5 873.15 492 M 825.1 462.55 L 845.9 466.3 867.55 443.85 835.45 441.35 822.3 457.1 Q 819.65 455.55 816.6 455 805.45 452.9 799.85 466.85 L 802.2 469.5 Q 805.15 472.45 808.2 473.3 817.15 476.35 825.1 462.55 M 657.85 218.3 L 659.55 187.2 633.7 206.45 633.85 226.8 Q 630.75 227.5 628.1 229.05 618.5 234.5 623.25 248.75 L 626.7 249.3 Q 630.65 249.7 633.7 248.6 642.75 244.7 639.55 229.05 L 657.85 218.3 M 852.6 389 L 820.35 390.4 809.2 407.55 Q 806.25 406.45 803.05 406.15 792.05 405.3 788 420 L 790.5 422.2 Q 793.85 425 797.05 425.55 806.4 427.5 812.55 412.7 L 833.75 414.1 852.6 389 M 763.95 372.65 L 766.6 374.75 Q 769.95 377.25 773.05 377.7 782.65 379.2 787.85 364.3 L 809.35 364.55 826.8 338.6 794.7 341.55 784.5 359.4 Q 781.4 358.3 778.2 358.15 767.15 358 763.95 372.65 M 758.25 316.3 Q 755.15 315.6 752.1 316 740.95 317.7 740.25 332.45 L 743 334.3 Q 746.95 336.25 750 336.25 759.65 336.25 762.45 320.45 L 783.8 317.4 797.05 289.05 765.65 297.15 758.25 316.3 M 708.8 245.8 L 715.65 215.25 686.75 230.15 683.8 250.4 Q 680.75 250.55 677.7 251.5 667.2 255.55 669.7 270.2 L 673.2 271.35 Q 677.1 272.45 680.2 271.6 689.4 269.55 688.85 253.5 L 708.8 245.8 M 751.4 280.85 L 761.85 251.4 731.45 262.25 725.7 282.1 Q 722.65 281.8 719.55 282.5 708.8 285.3 709.35 299.95 L 712.6 301.65 Q 716.5 303.15 719.55 302.75 729.05 301.9 730.3 286 L 751.4 280.85 Z"/>
</g>
<g id="l5">
<path fill="#231F20" stroke="none" d="M 868.95 155.35 L 868.8 155.35 Q 799.3 85.45 708.4 47.2 615 7.3 511.95 7.3 409.05 7.3 315.35 47.2 224.6 85.45 154.8 155.35 85 225 46.75 315.85 6.95 409.35 6.95 512.25 6.95 614.8 46.75 708.6 85 799.2 154.8 868.95 224.75 938.9 315.35 977.1 409.35 1016.75 511.95 1016.75 614.7 1016.75 708.4 977.1 799.15 938.9 868.95 868.95 L 868.8 868.95 Q 938.65 799.3 977.3 708.6 1016.95 614.25 1016.95 512.25 1016.95 409.8 977.3 315.85 938.65 224.7 868.95 155.35 M 862.95 161.2 L 862.95 161.35 Q 931.65 229.45 969.6 319.05 1008.6 411.45 1008.6 512.25 1008.6 612.6 969.6 705.4 931.65 794.55 862.95 863.1 794.4 931.9 705.2 969.45 613.05 1008.4 511.95 1008.4 411 1008.4 318.6 969.45 229.5 931.9 160.65 863.1 91.95 794.45 54.4 705.4 15.3 613.15 15.3 512.25 15.3 411.05 54.4 319.05 91.95 229.75 160.65 161.2 229.35 92.4 318.6 54.85 410.75 15.65 511.95 15.65 613.3 15.65 705.05 54.85 L 705.2 54.85 Q 794.55 92.4 862.95 161.2 M 793.85 231 L 793.7 231 Q 738.95 176 667.05 145.45 592.25 114.05 511.65 114.05 431.1 114.05 356.55 145.45 284.5 176 229.8 231 174.75 285.7 144.2 357.75 112.8 431.7 112.8 512.8 112.8 593.85 144.2 668 174.75 739.85 229.8 794.55 L 229.8 794.7 Q 284.65 849.7 356.55 880.1 430.55 911.4 511.65 911.4 592.65 911.4 667.05 880.1 738.85 849.7 793.7 794.7 L 793.85 794.55 Q 848.7 739.85 879.45 668 910.55 594.15 910.55 512.8 910.55 431.4 879.45 357.75 848.7 285.7 793.85 231 M 787.85 236.85 L 787.85 237 Q 841.75 290.45 871.75 360.95 902.2 433.1 902.2 512.8 902.2 592.5 871.75 664.75 841.75 735.1 787.85 788.7 734.1 842.7 663.85 872.45 590.95 903 511.65 903 432.25 903 359.75 872.45 289.4 842.7 235.8 788.7 L 235.65 788.7 Q 181.75 735.1 151.85 664.75 121.15 592.2 121.15 512.8 121.15 433.35 151.85 360.95 181.75 290.45 235.65 237 L 235.65 236.85 235.8 236.85 Q 289.25 183 359.75 153.15 432.8 122.4 511.65 122.4 590.55 122.4 663.85 153.15 734.2 183 787.85 236.85 Z"/>
</g>
<g id="l4">
<path fill="#231F20" stroke="none" d="M 688.15 886.55 L 687.85 886.55 Q 675.15 892.55 671.4 904.4 667.35 916.25 673.9 930.5 679.75 943.05 690.65 947.65 702.25 952.85 715.1 946.7 727.95 940.85 731.7 928.4 735.5 916.55 729.05 903.3 723.2 890.45 712.15 885.85 700.7 880.8 688.15 886.55 M 718.45 925.6 Q 717.2 933.3 710.75 936.25 704.05 939.3 697.65 935.4 691.5 931.6 687.75 923.55 683.55 914.85 684.65 907.6 685.9 900.2 692.35 897.15 698.9 894.2 705.3 898.15 711.45 901.6 715.65 910 719.4 918.5 718.45 925.6 M 743.3 856.55 L 731 865.35 768.15 917.4 778.9 909.55 768.15 894.65 Q 759.75 882.65 751.7 873.4 L 751.7 873.3 Q 762.45 880.1 773.05 885.15 L 797.45 896.3 811.3 886.55 774 834.6 763.25 842.3 774.45 857.95 Q 783.95 871.45 791.2 880.25 L 790.75 880.7 Q 783.65 875.95 768.85 868.55 L 743.3 856.55 M 817.3 792.75 L 826.1 807.4 813.1 820.65 798.05 812.55 787 823.75 846.6 854.45 859.9 840.9 828.05 782 817.3 792.75 M 832.4 816.5 L 839.2 828.75 Q 840.75 831.55 845.9 839.5 L 845.9 839.8 822.45 826.55 832.4 816.5 M 251.55 849 Q 258.55 854.6 259.65 862.25 260.9 870.2 255.05 878.15 249.2 885.85 240.8 886.95 233.15 887.65 225.45 881.8 218.05 876.1 215.4 870.65 L 205.9 878.15 Q 208.85 883.75 218.2 891.45 231.3 900.9 244.3 899.95 258.1 899.1 267.6 886.55 276.4 874.8 274.3 862.55 272.35 850.1 258.7 839.95 250.15 833.5 239.4 830 L 219.15 856.95 238.45 871.35 245 862.25 237.3 856.25 245.4 845.5 Q 246.55 845.8 251.55 849 M 387.15 906.8 L 387 906.8 Q 373.15 902.6 362.7 908.3 351.65 914.6 346.8 929.25 342.6 942.5 347.5 953.55 352.5 965.1 366.05 969.3 379.3 973.5 390.6 967.2 401.25 961.05 406 946.95 410.15 933.6 405.4 922.55 400.1 910.95 387.15 906.8 M 383.1 917.65 Q 389.8 919.75 392 927 394.1 933.6 391.3 942.8 388.4 951.6 382.8 956.05 376.8 960.65 369.8 958.55 363 956.45 360.9 949.05 358.8 942.25 361.6 933.7 364.65 924.35 370.25 920.05 376.25 915.3 382.95 917.4 L 383.1 917.65 M 340.5 890.75 L 327.95 884.15 316.2 906.5 312.55 904.4 Q 308.4 902.3 307.4 899.5 306.15 896.6 307.7 890.45 310.9 878.85 310.9 875.4 L 297.75 868.4 Q 297.5 871.2 293.7 886.95 291.65 896.6 295.95 901.35 L 295.8 901.6 Q 290.8 900.9 286.45 903 281.3 905.25 278.5 910.25 274.6 918.2 277.65 924.9 280.9 932.2 293.7 939 304.05 944.45 311.6 946.55 L 340.5 890.75 M 306.3 913.05 L 311.3 915.55 303.35 931.2 Q 300.85 930.65 297.2 928.55 292.75 926.45 291.5 923.25 289.95 919.75 292.05 915.85 294 912.2 297.75 911.4 301.7 910.55 306.3 913.05 M 646 908.3 Q 642.9 907.75 637.9 907.9 632.6 908.2 627.55 909.55 615.7 912.65 610.5 920.45 605.75 927.3 608.3 935.55 609.95 942.25 615.25 945.6 620.3 948.95 629.35 949.5 636.65 950.3 639.3 951.15 642.35 952.55 643.2 955.05 643.9 957.85 642.1 959.8 640.25 962.2 635.8 963.45 628.55 965.55 622.4 964.15 L 622.4 976.3 Q 629.95 977.4 639 974.9 649.35 971.95 654.65 964.85 659.25 958 657.15 950.05 653.4 937.6 634.8 936.25 628.55 935.95 625.9 934.7 622.95 933.6 621.95 930.65 621.25 927.45 623.25 924.9 625.3 922.4 630.05 921.15 638.6 918.9 646.55 920.75 L 646 908.3 M 535.25 930.9 Q 534 930.1 531.8 931.2 525.35 933.85 515.85 952 514.05 950.9 511.95 950.6 517.25 932.6 515 926.3 514.2 924.1 512.65 923.65 L 510.95 923.65 Q 504.25 923.95 506.65 939 507.75 944.45 509.6 950.6 506.35 950.9 503.85 953.4 493.95 934.85 487.65 932.05 485.55 931.2 484.15 931.9 483.35 932.45 482.9 933 478.3 938.05 490.75 946.7 496.75 950.9 503.3 954.1 500.8 956.45 500.8 960.5 500.8 960.8 500.8 961.2 480 955.9 473.3 958.85 471.2 959.8 471.05 961.65 470.6 962.45 471.05 963 471.45 969.85 486.55 966.5 493.8 964.7 500.9 961.65 501.2 965 503.7 967.5 504 967.75 504.25 967.9 486.25 978.4 483.6 984.95 482.35 988.45 485 989.55 490.3 994.15 498.25 981.15 L 504.85 968.45 Q 507.5 970.3 510.7 970.3 503.85 991.1 506.65 997.65 507.9 1001.15 510.55 1000.3 517.4 1000.3 514.9 984.95 L 510.95 970.3 Q 513.65 970.15 516.15 968.75 L 523.1 982.15 Q 531.2 995.25 536.5 990.65 539.05 989.7 537.8 986.05 535 979.35 516.4 968.45 517 968.05 517.65 967.5 520.2 964.85 520.6 961.75 L 534.45 966.5 Q 549.5 969.85 549.95 963 550.9 960.5 547.7 958.85 541 955.9 520.6 961.2 520.6 960.8 520.6 960.5 520.6 956.35 517.65 953.55 517.25 953.1 516.85 952.7 523.4 949.5 528.7 945.85 541.25 937.05 536.5 931.9 L 535.25 930.9 M 200.75 786.75 L 189.85 775.3 157.05 833.5 170 847.45 230.05 817.9 219.6 807 204.5 814.8 191.95 801.4 200.75 786.75 M 171.7 833.5 L 185.65 810.5 195.45 820.65 171.7 833.5 M 83.3 725.75 L 141 698.15 134.7 685.3 77.05 712.8 83.3 725.75 M 158.85 730.25 L 150.5 717.65 97.15 752.7 104.4 763.75 120.05 753.7 Q 134.3 744.2 141.7 737.9 L 141.7 738.05 Q 133.85 749.75 129.1 758.85 L 116.95 783 126.05 796.95 179.65 761.75 172.4 750.9 156.35 761.35 Q 139.85 772.25 133.3 777.4 L 133 777 Q 137.05 771.1 145.85 755.35 L 158.85 730.25 M 111.25 621.95 L 99.8 625.95 109.55 654.6 109.3 654.6 58.75 640.2 50.65 642.85 65.6 686.95 76.9 683.2 67.95 656.7 68.4 656.7 119.75 671.45 127 669.1 111.25 621.95 M 88.2 592.05 L 85.25 573.9 100.5 566.5 98.1 551.15 38.1 580.9 41.3 599.6 107.45 608.65 105.1 593.85 88.2 592.05 M 50.5 589 L 74.95 577.8 77.05 591.8 50.5 589.25 50.5 589 M 99.5 470.35 L 101.2 456 37.65 448.6 35.85 462.8 99.5 470.35 M 95.6 489.2 L 84.15 491.45 Q 86.25 496.45 86.25 503.7 86.25 513.2 80.65 518.5 75.1 524.1 65.6 524.1 55.25 524.1 49.55 518.35 44.2 512.95 44.2 503.85 44.2 497 46.45 491.55 L 35.15 488.65 Q 32.35 494.1 32.35 504.55 32.35 519.5 41.3 529.1 50.25 539.3 66.4 539.3 80.55 539.3 89.3 530.65 98.4 521.6 98.4 505.55 98.4 495.5 95.6 489.2 M 63.05 371.4 Q 51.5 377.15 48.15 390.8 44.35 404.05 51.6 415.25 58.35 425.85 72.55 429.35 85.85 432.95 97 427.65 108.05 422.05 111.65 408.55 L 111.65 408.4 Q 115.45 394.85 108.85 384.4 101.9 373.35 86.95 369.75 73.55 366.25 63.05 371.4 M 58.9 394.15 Q 61 387.05 68.1 384.55 74.95 382.45 83.45 384.55 92.8 387.05 97.7 392.35 102.45 397.95 100.75 404.9 L 100.75 405.05 Q 98.95 411.9 91.7 414.55 84.85 417.05 76.05 414.55 67.25 412.45 62.25 406.85 57.2 401 58.9 394.15 M 74.25 319.05 L 67.1 334.3 124.9 361.5 130.5 349.2 113.05 341.25 Q 100.2 334.85 87.5 329.95 L 87.65 329.55 Q 98.4 330.25 112.8 329 L 141 327.15 147.55 313.5 89.6 286.25 83.9 298.3 100.75 306.25 Q 113.2 312.1 125.35 316.4 L 125.35 316.7 Q 110.7 316.15 101.2 317 L 74.25 319.05 M 158.7 198.75 Q 147.95 201.3 136.8 214.8 129.1 224.45 125.6 230.85 L 174.05 270.65 Q 180.05 264.9 185.25 258.5 197.55 243.7 197.55 230.45 197.4 216.9 184.25 205.75 171.55 195.55 158.7 198.75 M 146.3 220.7 Q 152.45 213.55 159.55 212.45 167.25 211.6 174.9 217.9 183.7 225.15 184.25 233.25 184.95 241.2 178.4 249 176.3 252.1 174.9 252.8 L 142.65 226.25 Q 143.5 224.3 146.3 220.7 M 226.15 160.4 L 208.4 176 199.6 165.95 218.45 149.5 210.5 140.55 181.05 166.65 223.35 214.8 253.8 187.6 246.1 178.8 226.45 196.25 216.4 184.8 233.85 169.2 226.15 160.4 M 355.15 128.55 L 350 117.55 326.95 128.3 304.9 81.4 291.65 87.55 319 145.45 355.15 128.55 M 357.4 68.55 Q 351.95 80 356 93.8 360.3 107.5 370.4 113.65 380.7 120.45 394.25 116.4 407.95 112.35 413.5 101.5 419.25 90.3 414.65 75.25 411.15 62.15 400.95 55.55 390.05 48.85 376.5 52.8 363.1 56.85 357.4 68.55 M 392.15 66.75 Q 397.45 71.2 400.25 80 402.75 89.35 400.65 96.05 398.45 103.15 391.45 105.25 384.75 107.35 378.9 102.75 373.15 97.85 370.5 89.05 367.85 80 369.95 73.45 372.45 66.05 379.45 63.95 386 62.15 392.15 66.75 M 472.85 38 Q 466 35.45 456.25 36.6 445.2 38.15 439.35 44.25 433.35 50.25 434.6 58.8 436.15 71.35 454.3 75.55 460.85 76.95 463.1 78.45 465.75 80.25 466.15 82.95 466.45 86.3 464.05 88.35 461.7 90.75 456.95 91.15 448.55 92.3 440.35 89.05 L 438.95 101.35 Q 442.15 102.6 447.05 103 452.35 103.7 457.5 103 470.05 101.5 475.95 94.8 481.65 88.95 480.55 80.15 479 67.3 461.85 63.1 455.95 61.85 452.2 60.2 449.55 58.65 448.85 55.55 448.7 53.05 450.8 50.95 452.9 48.85 457.5 48.45 464.5 47.5 471.05 49.85 L 472.85 38 M 581.05 64.8 L 583.15 51.95 607.85 55.7 609.7 44.25 570.85 37.7 560.4 100.8 600.75 107.35 602.7 95.75 576.6 91.6 579.1 76.5 602.3 80.4 604.25 68.7 581.05 64.8 M 838.25 771.8 L 848.7 776.7 Q 849.95 771.55 854 765.55 859.75 757.6 867.3 756.45 874.55 755.35 882.9 760.65 891.45 766.8 892.7 774.9 893.8 782.3 888.5 789.55 885.15 794.85 879.85 798.05 L 887.4 807.15 Q 892.95 804.2 898.7 795.85 907.35 783.55 905.7 770.7 904 757.05 891 747.8 879.15 739.7 867.3 741.55 854.6 743.65 845.5 756.75 839.35 765.4 838.25 771.8 M 881.25 700.65 L 874.55 713.2 931.1 743.2 937.8 730.65 881.25 700.65 M 910.15 672.75 Q 898.15 671.05 894.8 671.45 L 889.6 685.3 908.35 686.95 Q 917.95 687.8 922.45 683.2 L 922.7 683.5 Q 922.7 688.65 925.2 692.55 927.9 697.45 933.2 699.55 941.3 702.6 947.85 698.85 955.1 694.65 960.15 681.1 964.2 670.65 965.7 662.8 L 906.65 640.2 901.75 653.45 925.2 662.55 923.7 666.45 Q 922 670.9 919.2 672.15 916.3 673.55 910.15 672.75 M 935 666.3 L 951.35 672.6 Q 951.35 673.7 949.5 678.75 947.55 683.6 944.65 685.3 941.3 687.25 937.35 685.55 933.45 684.15 932.2 680.4 930.95 676.8 932.9 671.6 L 935 666.3 M 968.5 607.7 L 963.2 632.1 974.8 634.5 983.15 595.95 920.6 582.55 911.95 622.35 923.85 624.7 929.4 599.05 944.05 602.25 939.2 625.3 950.65 627.95 955.5 604.9 968.5 607.7 M 945.75 528.55 Q 955.1 527.3 968.5 524.1 L 990.15 518.5 990.85 499.25 927.2 492.85 926.6 506.25 977.45 510.3 977.45 510.7 Q 966.15 512.25 952.05 515.6 L 927.2 521.3 926.6 532.6 951.35 541.4 Q 962.1 545.45 976.05 549.35 L 975.75 549.75 Q 967.55 549.2 949.65 549.2 L 925.2 549.35 924.55 563.45 988.75 562.45 989.45 543.5 968.35 535.95 Q 957.6 532.2 945.45 529 L 945.75 528.55 M 916.85 420 L 918.95 434.75 935.95 436.7 938.75 454.85 923.4 462.15 925.8 477.5 985.95 448.05 983.05 429.35 916.85 420 M 949.25 450.95 L 946.85 437 973.65 439.65 973.65 439.95 949.25 450.95 M 931.35 291.85 Q 923.7 288.5 916.15 292 904.85 297.85 906.95 316.3 907.65 322.4 906.95 325.35 906.1 328.55 903.6 329.95 900.5 331.35 897.85 329.7 894.8 328.15 892.7 323.8 889.05 315.7 889.2 307.65 L 877.35 310.15 Q 877.05 313.65 878.3 318.35 879.55 323.7 881.8 328.15 887.1 339.45 895.5 343.2 902.9 346.3 910.85 342.65 917 339.75 919.5 334.15 921.75 328.7 920.9 319.5 920.35 312.95 920.6 309.3 921.3 305.8 923.85 304.85 926.05 303.6 928.7 304.85 931.65 306.65 933.45 310.4 936.65 316.85 936.65 323.7 L 948.25 321.6 Q 948.25 313.9 944.05 305.25 939.2 295.35 931.35 291.85 M 894.1 279 Q 905.4 270.9 908.05 259.2 911.1 247.2 902.9 235.35 894.8 224.15 881.95 222.5 869.4 221.1 857.5 229.45 845.9 237.55 843.15 249.3 840.2 261.55 848.45 272.75 L 848.45 273 Q 856.55 284.3 868.95 286.25 881.4 287.95 894.1 279 M 893.1 241.6 Q 897.45 247.6 894.5 254.6 892.15 261.3 884.75 266.75 876.65 272.3 869.65 272.3 862.25 272.6 858.2 266.75 L 858.05 266.75 Q 854 261 856.4 253.6 859.3 246.8 866.6 241.6 874 236.3 881.25 236.05 888.9 235.9 893.1 241.6 M 788 122.3 L 772.35 111.55 720.25 153.4 732.55 161.8 745.4 150.9 760.75 161.1 755.6 177.4 768.45 186.2 788 122.3 M 773.6 125.35 L 773.75 125.5 764.95 150.9 753.35 142.95 773.6 125.35 M 694.15 82.95 L 709.5 90.45 686.75 137.1 699.75 143.35 722.65 96.9 738.15 104.4 743.7 93.65 699.3 72.2 694.15 82.95 M 674.6 64.8 Q 669 59.75 659.95 56.85 649.2 53.6 641.4 56.85 633.7 59.75 631.05 67.85 627.4 80 642.1 91.3 646.95 94.8 648.8 97.6 650.6 100.25 649.75 103 648.65 106.25 645.85 107.05 642.65 108.05 637.9 106.65 629.35 103.85 623.9 98 L 617.5 108.45 Q 619.6 110.7 623.9 113.35 628.1 116.15 633.55 117.7 645.3 121.6 653.95 118.1 661.5 114.6 664.15 106.5 666.1 99.95 663.7 94.5 661.05 88.95 653.95 83.35 648.2 78.6 646.7 76.5 644.6 74 645.55 71.05 646.4 68.7 649.05 67.85 651.85 66.6 656.3 68 663.6 70.35 667.9 74.95 L 674.6 64.8 M 840.35 164.55 Q 832.5 156.75 825.4 152 L 781.7 196.95 Q 786.7 203.25 792.85 208.95 806.85 222.9 819.8 223.9 833.65 224.6 845.5 212.45 856.8 201 854.7 187.6 853.05 176.55 840.35 164.55 M 833.75 173.35 Q 840.6 180.35 840.75 187.3 841.15 195.15 834.05 202.25 826.35 210.2 818 210.2 810.05 210.2 802.9 202.95 800.25 200.7 799.45 199.45 L 828.45 169.45 Q 829.7 170 833.75 173.35 Z"/>
</g>
<g id="l3">
<path fill="#937310" stroke="none" d="M 429.3 839.1 L 436.85 841.3 451.1 793.15 443.55 790.95 429.3 839.1 M 568.5 793.15 L 582.9 841.3 590.4 839.1 576.05 790.95 568.5 793.15 M 488.9 771 L 481.1 770.55 477.45 849.85 485.3 850.25 488.9 771 M 553 780.75 L 545.2 781.6 553 848.6 560.8 847.75 553 780.75 M 538.5 770.55 L 530.65 771 534.55 850.25 542.4 849.85 538.5 770.55 M 564.45 788.85 L 556.75 790.5 568.5 846.2 576.15 844.55 564.45 788.85 M 524.5 752.3 L 516.7 752.3 516.7 849.3 524.5 849.3 524.5 752.3 M 502.85 752.3 L 495.05 752.3 495.2 849.3 503 849.3 502.85 752.3 M 474.4 781.6 L 466.55 780.75 458.75 847.75 466.55 848.6 474.4 781.6 M 462.95 790.5 L 455.25 788.85 443.55 844.55 451.2 846.2 462.95 790.5 Z"/>
</g>
<g id="l2">
<path fill="#89C6ED" stroke="none" d="M 467.55 732.75 L 477.05 743.05 509.3 728.55 509.45 728.95 509.6 728.55 509.6 718.8 467.55 732.75 M 387.7 783.4 L 399.7 778.1 Q 400.1 777.8 400.55 777.7 L 422.15 767.9 Q 410.3 758.3 406.7 752.85 L 357.4 769.15 367.05 776 Q 377.8 782.15 387.85 783.7 L 387.7 783.4 M 509.6 710.55 L 509.6 695.35 506.5 696.05 480 720.3 509.6 710.55 M 348.75 736.35 L 333.5 735.4 326.55 737.05 327.35 738.3 Q 330.6 742.35 335.6 746.4 348.05 756.2 364.5 758.4 L 416.6 741.25 348.75 736.35 Z"/>
<path fill="#FFFFFF" stroke="none" d="M 441 758.15 L 441.85 759 452.2 754.35 452.05 754.35 Q 444.35 755.75 441 758.15 M 453.6 738.6 Q 455.4 746.4 463.35 738.3 463.1 740.55 463.5 747.1 L 466.15 745 Q 467.85 743.75 468.65 742.1 468.8 745 468.8 746.85 L 477.05 743.05 467.55 732.75 406.95 752.7 422.75 767.65 432.25 763.3 Q 429 763.85 426.8 762.75 429.3 762.75 430.55 761.65 L 433.2 758.85 Q 433.2 758.15 432.1 757.85 433.75 757.45 434.75 756.45 L 436.55 754.65 431.1 754.35 Q 436.15 753.55 437.4 749.2 L 435.45 749.05 439.05 749.05 Q 438.8 748.25 438.8 746.4 438.5 744.75 437.65 743.9 439.5 744.6 441.85 744.6 L 446.35 744.6 446.6 741.1 Q 447.3 741.8 449.95 742.5 L 453.45 743.5 Q 453.85 740.55 453.6 738.6 M 313.25 725.05 L 319.85 730.5 354.3 722.7 349.3 717.8 313.25 725.05 M 391.2 624.45 Q 389.65 624.7 387.95 625.3 390.5 627.1 390.35 631.3 L 399.3 631.7 Q 400.8 630.15 400.25 628.05 398.3 622.9 391.2 624.45 M 387.95 625.3 L 387.25 624.7 386.7 624.6 386.55 625.55 387.95 625.3 M 369.95 624.15 Q 372.45 623.2 377.5 623.2 383.9 623.05 386.7 624.6 387 621.95 386.15 620.25 383.9 616.2 374.7 617.05 369.55 617.6 366.45 619.7 363.25 622.35 365.65 624.85 360.75 622.05 359.35 625.95 358.5 627.65 358.8 629.75 L 366.45 630 Q 366.75 627.5 367.3 626.4 367.45 625.7 367.7 625.4 368.4 624.6 369.95 624.15 M 237.05 597.1 Q 237.45 597.65 238 598.05 L 281.6 602.55 237.05 597.1 M 221.7 568.9 Q 225.6 580.5 230.35 588.45 L 351.1 602.8 Q 348.6 599.75 349 595.4 354.2 594.85 360.45 597.65 366.05 600.45 367.7 604.75 L 372.9 605.45 Q 372.45 602.1 374.85 600.15 377.5 597.9 381.8 598.05 L 381.8 598.2 Q 383.65 597.65 385.6 598.05 385.3 599.2 385.3 600.85 L 385.2 602.4 Q 387.55 596.55 390.5 598.9 393.55 601.7 392.7 607.85 L 393.95 607.95 Q 396.35 603.65 403.35 603.8 413.8 604.35 415.05 604.35 414.5 608.95 410.15 609.5 L 408.05 609.65 508.05 621.65 509.6 619.3 509.6 614.8 506.8 608.55 226.55 570 Q 222.65 567.35 219.15 558.3 L 217.35 552.15 221.7 568.9 M 402.5 534.7 L 401.65 553.8 452.45 568.05 452.05 552.85 402.5 534.7 M 359.05 518.65 L 358.1 520.9 362.3 519.75 359.05 518.65 M 375.4 524.8 L 375.4 524.65 375.1 524.5 375.4 524.8 M 309.35 527.85 L 310.5 500.8 257.15 481.1 Q 256.75 494.8 259.5 513.9 L 309.35 527.85 M 372.6 496.2 L 366.35 503.85 356.4 503.15 361.85 511.25 374.15 515.85 375.95 516.4 375.95 514.6 384.5 509.45 375.1 505.95 372.6 496.2 M 271.95 453.45 L 269.85 477.35 323.75 497.3 319.7 493.65 271.95 453.45 M 386.7 427.65 L 371.5 416.2 361.85 438.25 376.25 447.2 386.7 427.65 M 288.15 415.8 L 283.8 424.6 273.9 426.25 281 433.25 280.45 436.15 286.75 439.25 288.15 438.25 297.1 443.15 295.25 433.25 302.65 426.25 292.75 424.6 288.15 415.8 M 561.8 337.65 L 560.55 337.35 551.05 373.65 585.1 313.65 576.45 308.05 561.8 337.65 M 471.9 400.7 L 458.6 412.85 471.9 429.05 482.9 419.3 490.75 430.3 471.9 400.7 M 493.95 456.1 L 502.75 449.15 494.65 436.45 484.7 444.8 485 445.25 493.95 456.1 M 460.55 383 L 449.1 365 433.2 381.9 445.2 396.55 445.2 396.65 445.9 397.35 460.55 383 M 417.7 358.15 L 421.2 354.65 416.3 353.95 413.95 349.65 411.7 353.95 410.6 354.1 417.45 362.5 418.55 363.05 417.7 358.15 M 392.85 332.45 L 398 338.75 402.5 341.1 401.65 336.25 405.15 332.75 400.25 332.05 397.9 327.45 395.65 332.05 392.85 332.45 M 428.45 369.15 L 432.65 366.95 437.25 369.15 436.3 364.3 439.75 360.8 434.9 360.1 432.65 355.5 430.55 360.1 425.65 360.8 429.15 364.3 428.45 369.15 M 419.5 333.85 L 417.3 329.55 415.2 333.85 410.3 334.85 413.8 338.05 412.95 342.95 417.3 340.7 421.9 342.95 420.8 338.05 424.4 334.85 419.5 333.85 M 400.55 315.3 L 399.7 320.45 404 318.1 408.35 320.45 407.5 315.3 411 312.1 406.1 311.1 404 306.95 401.8 311.1 396.9 312.1 400.55 315.3 M 392.3 307.2 L 387.4 306.5 385.2 302.05 383.1 306.5 378.2 307.2 381.7 310.7 380.85 315.6 385.2 313.2 389.5 315.6 388.65 310.7 392.3 307.2 M 380.85 287.1 L 384.5 290.6 383.65 295.5 387.95 293.25 392.3 295.5 391.45 290.6 394.95 287.1 390.05 286.4 387.95 282.1 385.75 286.4 380.85 287.1 M 377.5 265.05 L 372.6 264.35 370.5 259.9 368.4 264.35 363.55 265.05 367.05 268.55 366.2 273.45 370.5 271.05 374.85 273.45 374 268.55 377.5 265.05 M 360.75 283.9 L 364.25 287.4 363.55 292.25 367.7 289.9 372.35 292.25 371.35 287.4 374.85 283.9 369.95 283.2 367.7 278.6 365.65 283.2 360.75 283.9 M 397.2 384.55 Q 395.95 377 401.95 374.75 407.4 372.5 413.25 376 418.15 378.55 418.7 387.9 L 418 401.85 Q 416.45 402.25 414.9 401.95 L 432.65 418.6 442 404.9 389.2 340.4 372.05 361.9 398.3 386.5 Q 398.45 385.9 398.6 385.2 L 397.2 384.55 M 403.35 389.7 Q 402.65 389.85 402.05 389.95 L 410.05 397.35 Q 409.6 396.55 409.6 395.7 409.2 393.2 411 390.95 412.8 388.7 412.55 386.6 408.9 385.2 406.7 385.8 403.35 386.2 403.35 389.7 M 587.6 742.1 L 578.25 739.15 565.15 751.45 577.3 757.05 Q 578.7 753.7 580.5 750.9 584.25 744.05 587.6 742.1 M 516.7 729.65 L 524.1 721.85 514.75 718.95 514.75 728.85 516.7 729.65 M 562.75 734.15 L 539.6 726.9 529.95 735.65 551.9 745.6 562.75 734.15 M 655.35 774.35 Q 661.9 771.25 668.2 767.65 L 608.7 748.8 605.2 751.85 598.65 766.5 598.65 766.65 633.15 782.3 633.55 782.45 Q 633.85 782.55 634.25 782.7 643.2 780.35 655.35 774.35 M 707.15 740 Q 706.45 738.45 706 736.5 704.75 736.1 703.1 735.65 702.55 735.55 702.1 735.4 L 564.6 726.6 566 727.15 604.95 739.45 700.45 744.9 703.25 745 707.15 740 M 613.45 708.45 L 612.75 706.9 616.95 699.55 608.55 700.65 602.85 694.1 601.3 702.45 596.15 704.85 613.45 708.45 M 577 685.7 L 577 685.55 572.15 685.15 Q 555.25 683.6 538.35 682.1 L 538.2 682.1 535.15 685 Q 531.5 688.35 529.1 690.45 L 565 698.15 Q 571 691.15 577 685.7 M 520.6 662.7 L 520.35 663.95 Q 519.9 664.75 519.35 665.45 L 519.35 666.6 524.1 669.25 529.55 668.55 530.95 664.65 Q 530.8 663.65 530.4 662.8 L 530.4 662.7 520.6 662.7 M 567.25 676.8 L 580.8 678.05 Q 568.2 667.45 560 662.7 L 548.4 662.7 Q 558 667.3 562.75 671.05 566.4 673.85 567.1 676.2 567.25 676.5 567.25 676.8 M 663.45 615.1 Q 659.95 614.25 656.45 613.4 634 608.4 623.1 603.35 621.15 602.55 619.45 601.55 L 628.95 609.35 Q 634.7 613.4 640.1 616.2 L 663.45 615.1 M 658.15 575.75 L 661.35 572.95 664 573.8 666.1 578.4 665.8 578.4 Q 667.5 578.65 669 579.2 669.45 579.35 669.85 579.65 L 676.7 578.65 Q 684.25 560.4 686.05 548.65 L 628.1 563.15 628.1 563.3 624.6 585.9 631.2 584.95 632.3 579.8 635.8 580.2 640.7 580.05 637.2 577.95 637.45 575.05 639.7 573.9 642.75 575.85 643.75 575.05 646.25 575.75 647.8 578.8 Q 649.05 579.2 649.05 578.5 L 648.8 577.15 650.85 572.25 655.6 573.5 655.75 576.7 660.25 578.65 658.15 575.75 M 804.05 489.75 L 803.6 483.5 803.75 486.4 559 572.65 631.05 554.5 Q 631.75 552.15 633.7 549.9 636.05 546.85 637.9 546.7 637.45 550.2 639.4 552.4 L 647.95 550.2 Q 648.1 549.9 648.1 549.75 648.2 547 648.8 544.6 650.45 539.6 652.15 540.15 657.15 542.1 658.15 542.1 659.8 542.1 664.4 540.7 L 670.3 538.05 669.7 536.65 Q 673.2 536.65 676.3 537.35 676.3 539.05 677 541.1 678.4 539.85 680.05 538.75 682 537.5 683.95 538.6 683.25 540.3 682.7 541.55 L 802.9 511.1 Q 804.15 502.2 804.05 489.75 M 695.55 481.1 L 694.15 472.75 603.8 516 603.8 535.25 644.05 521.6 Q 643.2 521.45 642.35 521.15 641.95 518.5 643.9 517.4 645.85 516.55 648.1 517.1 647.25 511.1 652.15 512.95 654.5 513.9 658.4 516.7 L 658.7 516.55 Q 658.4 515.85 658.4 515.7 L 658.15 514.45 658.95 516.55 693.2 504.95 Q 693.2 504.55 693.3 504.15 696.4 492.85 695.55 481.1 M 660.9 502.45 L 661.05 502.45 Q 665.25 505.55 667.35 509.85 L 665.1 510.95 Q 663.3 507.2 659.55 504.55 655.6 501.75 651.45 501.2 644.05 500.35 638.3 504.85 632.6 509.6 631.45 516.7 L 631.45 516.85 Q 631.05 520.75 632 523.8 L 629.65 524.5 Q 628.55 521 628.95 516.4 630.2 508.2 636.75 502.9 643.2 497.85 651.7 498.7 656.45 499.25 660.9 502.45 M 650.05 504.85 L 649.9 504.85 Q 646.4 504.55 643.75 505.4 L 643.2 503.7 Q 646.1 502.6 650.15 503 658.25 504.25 661.5 511.1 L 659.8 511.95 Q 657 505.95 650.05 504.85 M 634.95 510.4 L 636.65 511.25 Q 635.25 514.05 635.1 516.4 634.7 518.5 635.35 521.7 L 633.55 522.15 Q 632.7 518.5 633.3 516.3 L 633.3 516.15 Q 633.4 513.5 634.95 510.4 M 768.3 381.45 L 768.85 382.45 642.2 460.45 642.2 460.6 647.4 486.4 714 454.6 712.6 453.75 704.2 458.1 705.9 448.85 699.05 442.45 708.4 441.05 712.6 432.8 716.5 441.05 725.85 442.45 719.3 448.85 719.85 451.8 778.5 423.75 Q 784.35 399.3 775.15 387.3 772.2 383.55 768.3 381.45 M 674.9 416.05 Q 669.3 405.05 665.25 401.55 L 585.25 464.65 594.45 480.55 625.9 461.3 620.15 452.9 639.4 452.9 680.45 427.65 Q 678.1 422.05 674.9 416.05 M 652 443.85 L 649.9 445.25 Q 647.5 441.75 643.6 439.5 639.85 437.4 635.1 437.4 627.7 437.4 622.65 442.75 617.35 447.75 617.35 455.15 617.35 459.2 618.75 462.15 L 616.5 463.25 Q 614.85 459.75 614.85 455.15 614.85 446.65 620.85 440.9 626.6 434.9 635.1 434.9 640.4 434.9 644.85 437.3 649.5 439.8 652 443.85 M 612.05 433.35 L 611.8 433.8 612.6 433.1 612.05 433.35 M 726.55 320.05 L 726.55 320.2 549.1 467.45 518.25 497.3 518.25 497.45 516.15 499.55 514.75 503.45 514.75 507.05 515.6 509.7 609.95 435.2 607.85 429.35 611.35 427.95 615.4 425.3 611.35 425.3 609.95 422.75 611.35 420.8 615 420.8 615.4 419.4 618.05 418.7 620.85 420.65 Q 622.1 420.4 621.85 419.7 L 620.55 418.7 620.15 413.3 624.6 411.9 626.7 414.55 631.45 413.85 628.1 412.6 629.5 408.55 632.15 407.85 636.2 410.65 635.95 410.9 Q 637.45 410.2 639.3 409.95 640.8 409.8 641.95 409.95 L 737.15 334.85 Q 734.65 330.5 726.55 320.05 M 589.7 370.55 L 593.35 371.15 590.85 373.5 590.95 374.35 621.7 334.3 590.3 320.2 548.8 393.75 567.1 404.6 589.7 376.15 588.3 375.45 584.95 377 585.55 373.5 582.9 371.15 586.65 370.55 588.3 367.2 589.7 370.55 M 600.35 352.3 L 597.8 354.8 598.5 358.3 595.3 356.6 591.95 358.3 592.5 354.8 589.85 352.3 593.65 351.75 595.3 348.5 596.7 351.75 600.35 352.3 M 570.3 375.45 L 572.15 378.55 575.6 379.1 572.95 381.75 573.65 385.2 570.3 383.7 567.25 385.2 567.8 381.75 565.3 379.1 568.8 378.55 570.3 375.45 Z"/>
<path fill="#FEE57A" stroke="none" d="M 463.35 738.3 Q 455.4 746.4 453.6 738.6 453.85 740.55 453.45 743.5 L 449.95 742.5 Q 447.3 741.8 446.6 741.1 L 446.35 744.6 441.85 744.6 Q 439.5 744.6 437.65 743.9 438.5 744.75 438.8 746.4 438.8 748.25 439.05 749.05 L 435.45 749.05 437.4 749.2 Q 436.15 753.55 431.1 754.35 L 436.55 754.65 434.75 756.45 Q 433.75 757.45 432.1 757.85 433.2 758.15 433.2 758.85 L 430.55 761.65 Q 429.3 762.75 426.8 762.75 429 763.85 432.25 763.3 L 441.85 759 441 758.15 Q 444.35 755.75 452.05 754.35 L 452.2 754.35 468.8 746.85 Q 468.8 745 468.65 742.1 467.85 743.75 466.15 745 L 463.5 747.1 Q 463.1 740.55 463.35 738.3 M 557.75 787.6 Q 553 787.3 548.4 785.8 L 559.55 793.05 Q 592.35 802.65 614.7 796.5 624.9 793.75 629.65 789.25 L 576.75 765.4 557.75 787.6 M 349.3 717.8 L 354.3 722.7 509.6 687.25 509.6 685.7 349.3 717.8 M 434.2 655.85 L 423.55 640.75 337 636.6 340.5 646.05 Q 340.8 646.65 341.05 647.2 L 341.2 647.6 Q 342.75 650.7 344.85 654.05 345.8 655.55 346.9 656.95 L 434.2 655.85 M 208.7 508.45 L 213.6 520.75 Q 220.4 535.7 229.1 546.4 L 372.75 574.35 370.95 553.25 210.5 508.3 211.05 506.35 Q 209.95 507.5 208.7 508.45 M 387.25 393.9 L 385.45 393.9 Q 387.4 395.4 386.55 399.2 384.9 401 383.1 401.95 380.85 400.6 379.75 399.45 379.3 401.4 380 404.6 391.2 405.05 395.5 412.6 393 413.85 389.8 411.9 385.85 409.5 383.9 409.5 384.5 410.75 387.95 415.25 389.65 418 389.1 419.55 L 393.25 422.75 399.3 408.65 392.3 405.45 Q 388.25 402.95 387.7 401.15 L 387.25 393.9 M 359.2 385.8 Q 361.6 382.85 363.55 381.75 366.05 380.75 370.5 380.9 L 377.9 381.2 Q 372.05 386.6 369.55 389.4 365.65 392.9 366.05 400.6 369.7 401 371.9 399.9 373.05 399.3 376.5 397.1 L 375.4 395 374.7 392.75 Q 381 392.2 383.2 392.9 383.5 393.05 383.9 393.05 383.8 390.1 385.05 388 L 387.4 390.8 Q 389.2 393.2 391.9 393.9 391.9 398.2 392.85 400.15 L 399.55 408.25 402.65 401.25 301.25 306.35 302.5 305.1 299.6 304.3 Q 297.75 304.55 295.95 304.4 295.1 304.4 294.3 304.3 289.25 313.2 286.45 318.5 280.3 330.4 278.35 335.8 L 354.3 393.3 Q 354.75 391.5 354.45 389.4 356.4 388.85 359.2 385.8 M 517.25 367.9 L 514.45 383.15 514.75 383.15 514.75 400.85 537.5 339.75 517.25 367.9 M 562.05 272.75 L 544.6 229.2 547.25 290.3 548.4 309.85 562.05 272.75 M 577.3 757.05 L 598.65 766.65 598.65 766.5 605.2 751.85 608.7 748.8 587.6 742.1 Q 584.25 744.05 580.5 750.9 578.7 753.7 577.3 757.05 M 771.9 641.6 L 771.5 638.25 Q 769.4 639.95 767.45 641.2 L 515 639.35 514.75 640.2 514.75 653.2 516.55 654.85 603.7 654.75 Q 605.9 652.5 610.4 650.7 619.6 647.2 632.15 647.2 644.6 647.2 653.95 650.7 658.4 652.35 660.65 654.6 L 754.9 654.3 Q 762.3 648.85 769.15 651.95 772.2 648.7 771.9 641.6 M 612.75 616.35 Q 612.75 613.85 610.1 612.15 607.85 610.5 604.4 610.5 600.9 610.5 598.5 612.15 596 613.85 596 616.35 596 617.3 596.4 618.15 L 612.6 617.45 Q 612.75 616.9 612.75 616.35 M 631.45 413.85 L 635.95 410.9 636.2 410.65 632.15 407.85 629.5 408.55 628.1 412.6 631.45 413.85 M 685.1 267 Q 683 273 677.4 274.4 L 677.25 274.4 676.15 275.95 653.4 355.1 669.7 339.15 688.55 277.2 687.15 273.15 685.1 267 Z"/>
<path fill="#004E92" stroke="none" d="M 544.2 750.6 L 529 774.2 Q 535 780.6 547.25 785.1 553.4 787.05 557.75 787.6 L 576.75 765.4 544.2 750.6 M 394.4 789 L 394.4 789.95 Q 394.4 790.95 394.4 791.8 L 394.65 792.05 Q 399.3 795.25 406.55 797.2 428.75 803.35 461.7 793.75 L 474.8 785.35 Q 454.3 792.2 436.7 786.75 429 784.25 423 779.8 L 420.2 777.4 394.4 789 M 333.5 735.4 L 348.75 736.35 420.35 740 480 720.3 506.5 696.05 333.5 735.4 M 301.25 709.7 Q 307.7 720.2 313.25 725.05 L 349.3 717.8 509.6 685.7 509.6 679.7 296.65 702.2 301.25 709.7 M 287 665.6 Q 309.9 684.3 318.7 691.85 L 372.75 686.25 Q 373.6 684.6 375.1 682.9 379.15 678.75 383.8 679.3 383.65 678.3 383.8 676.2 384.35 674.25 383.9 673.3 389.65 673.55 399.15 670.9 409.35 668.55 413.95 668.55 L 429.15 668.4 Q 440.35 669.1 442.15 674 442.85 673.85 446.35 674.1 L 447.15 678.45 498.85 673.15 491 662.95 287 665.6 M 509.6 583.95 L 509.6 574.05 452.05 552.85 452.45 568.05 509.6 583.95 M 537.5 339.75 L 541.25 329.25 540.15 316 521.6 343.2 517.25 367.9 537.5 339.75 M 591.55 227.95 Q 590.95 233.5 586.65 236.05 585.25 236.85 583.7 237.45 L 582.45 240.1 550.6 326.6 561.8 332.2 560.55 337.35 561.8 337.65 576.45 308.05 585.1 313.65 608.7 271.6 620 249.15 Q 619.2 246.1 619.05 243.55 L 591.55 227.95 M 551.9 745.6 L 565.15 751.45 578.25 739.15 562.75 734.15 551.9 745.6 M 529.95 735.65 L 539.6 726.9 524.1 721.85 516.7 729.65 529.95 735.65 M 781.7 626.8 Q 784.35 623.3 786.3 620.4 784.5 619.15 783.25 617.3 L 514.9 629.75 514.75 630 514.75 639.35 515 639.35 767.45 641.2 Q 769.4 639.95 771.5 638.25 776.25 634.05 781.7 626.8 M 686.05 548.65 Q 684.25 560.4 676.7 578.65 L 790.35 563.05 Q 801.5 552.7 805.85 533.85 L 807.8 520.2 Q 806.55 519.35 805.45 518.35 L 686.05 548.65 M 716.5 441.05 L 712.6 432.8 708.4 441.05 699.05 442.45 705.9 448.85 704.2 458.1 712.6 453.75 714 454.6 719.85 451.8 719.3 448.85 725.85 442.45 716.5 441.05 M 594.45 480.55 L 585.25 464.65 514.75 520.2 514.75 528.85 515.15 529.25 594.45 480.55 M 760.75 378.25 Q 758.1 368.2 750 353.4 L 742.45 340.7 665.25 401.55 Q 669.3 405.05 674.9 416.05 678.1 422.05 680.45 427.65 L 760.75 378.25 M 514.75 453.9 L 514.75 473.85 567.1 404.6 548.8 393.75 514.75 453.9 M 572.15 378.55 L 570.3 375.45 568.8 378.55 565.3 379.1 567.8 381.75 567.25 385.2 570.3 383.7 573.65 385.2 572.95 381.75 575.6 379.1 572.15 378.55 M 597.8 354.8 L 600.35 352.3 596.7 351.75 595.3 348.5 593.65 351.75 589.85 352.3 592.5 354.8 591.95 358.3 595.3 356.6 598.5 358.3 597.8 354.8 M 593.35 371.15 L 589.7 370.55 588.3 367.2 586.65 370.55 582.9 371.15 585.55 373.5 584.95 377 588.3 375.45 589.7 376.15 590.95 374.35 590.85 373.5 593.35 371.15 M 666.65 275.65 Q 661.6 268.7 648.35 255.7 L 636.9 244.95 Q 635.35 249.45 631.05 251.1 630.05 251.5 628.8 251.8 L 590.3 320.2 621.7 334.3 666.65 275.65 Z"/>
<path fill="#E91D25" stroke="none" d="M 420.2 777.4 L 423 779.8 Q 429 784.25 436.7 786.75 454.3 792.2 474.8 785.35 482.35 782.7 490.3 778.5 L 497.45 771.4 510.85 744.9 523.8 770.7 530.95 777.8 Q 540.55 783 545.45 784.8 546.85 785.35 548.4 785.8 553 787.3 557.75 787.6 553.4 787.05 547.25 785.1 535 780.6 529 774.2 L 544.2 750.6 511.8 735.95 420.2 777.4 M 509.3 672.05 Q 509.45 671.35 509.6 670.9 L 509.6 662.7 491 662.95 498.85 673.15 509.3 672.05 M 269.15 665.75 Q 268.75 667.15 268.15 668.4 L 276.15 680.7 Q 282.95 689.6 289 695.05 L 317.9 692 Q 297.65 676.9 286.6 665.6 L 269.15 665.75 M 247.95 632.25 L 249.9 641.45 Q 252.7 650.25 256.45 656.25 261.2 656 266.65 659.75 L 266.65 657.95 346.9 656.95 Q 345.8 655.55 344.85 654.05 342.75 650.7 341.2 647.6 L 341.05 647.2 Q 340.8 646.65 340.5 646.05 338 641.05 336.6 636.6 L 247.95 632.25 M 385.2 602.4 L 385.3 600.85 Q 385.3 599.2 385.6 598.05 383.65 597.65 381.8 598.2 L 381.8 598.05 Q 377.5 597.9 374.85 600.15 372.45 602.1 372.9 605.45 L 392.7 607.85 Q 393.55 601.7 390.5 598.9 387.55 596.55 385.2 602.4 M 219.15 558.3 Q 222.65 567.35 226.55 570 L 506.8 608.55 509.6 608.95 509.6 608.8 217.35 552.15 219.15 558.3 M 435.7 571.4 L 436.3 586.6 509.45 600.85 509.6 600.45 509.6 592.05 435.7 571.4 M 310.5 500.8 L 309.35 527.85 401.65 553.8 402.5 534.7 375.4 524.65 375.4 524.8 375.1 524.5 362.3 519.75 358.1 520.9 359.05 518.65 310.5 500.8 M 216.8 466.3 L 215.4 470.5 Q 213.85 482.1 218.9 502.6 L 259.5 513.9 Q 256.75 494.8 257.15 481.1 L 216.8 466.3 M 242.35 425.85 L 319.7 493.65 323.75 497.3 361.85 511.25 356.4 503.15 366.35 503.85 372.6 496.2 375.1 505.95 384.5 509.45 375.95 514.6 375.95 516.4 377.65 517.1 378.2 517.25 437.1 539.05 451.65 539.15 470.6 539.45 242.35 425.85 M 509.6 510.85 L 509.6 501.35 448.7 444.4 439.9 458.1 509.6 510.85 M 509.6 539.15 L 508.9 538.6 508.75 538.75 364.8 449.4 Q 363.95 450.8 363.25 452.65 L 360.75 457.1 Q 356.85 465.9 355.45 473.45 L 509.6 550.05 509.6 539.15 M 521.6 343.2 L 540.15 316 537.1 256.7 521.6 343.2 M 560.55 337.35 L 561.8 332.2 550.6 326.6 514.75 423.6 514.75 438 551.05 373.65 560.55 337.35 M 445.9 397.35 L 458.6 412.85 471.9 400.7 460.55 383 445.9 397.35 M 509.6 460.05 L 507.05 456 Q 506.8 455.55 506.65 455.3 L 502.75 449.15 493.95 456.1 509.6 475.25 509.6 460.05 M 494.65 436.45 L 490.75 430.3 482.9 419.3 471.9 429.05 484.7 444.8 494.65 436.45 M 421.75 237.45 Q 415.45 238 407.4 239.5 391.9 242.75 384.75 247.6 384.6 248.15 384.5 248.85 L 406.25 282.9 417.3 273.45 434.75 301.65 496.85 415.25 482.65 402.95 509.6 445.25 509.6 443.4 501.6 424.15 501.6 424 421.75 237.45 M 514.75 695.5 L 514.75 710.85 564.6 726.6 702.1 735.4 514.75 695.5 M 577 685.55 L 577 685.7 Q 571 691.15 565 698.15 L 573.1 699.8 Q 578.15 700.9 583.45 702.05 L 596.15 704.85 601.3 702.45 602.85 694.1 608.55 700.65 616.95 699.55 612.75 706.9 613.45 708.45 641.95 714.6 Q 643.9 712.9 646.25 710.85 L 663.7 693.65 577 685.55 M 624.6 585.9 L 628.1 563.3 514.75 591.8 514.75 601 624.6 585.9 M 802.65 474.7 L 802.9 475.8 514.75 573.8 514.75 583.85 559 572.65 803.75 486.4 803.6 483.5 Q 803.35 479.15 803.2 474.95 802.9 474.85 802.65 474.7 M 789.65 434.2 Q 788.1 430.7 786.3 428.75 L 694.15 472.75 695.55 481.1 Q 696.4 492.85 693.3 504.15 693.3 504.55 693.3 504.85 L 790.2 471.9 Q 794.4 446.75 789.65 434.2 M 618.05 418.7 L 615.4 419.4 615 420.8 614 423.45 617.35 424.6 621.95 421.35 620.85 420.65 618.05 418.7 Z"/>
<path fill="#231F20" stroke="none" d="M 387.25 624.7 L 387.95 625.3 Q 389.65 624.7 391.2 624.45 389.8 621.1 386.15 620.25 387 621.95 386.7 624.6 L 387.25 624.7 M 377.5 623.2 Q 372.45 623.2 369.95 624.15 369.25 624.6 368.55 625.15 367.85 625.7 367.3 626.4 366.75 627.5 366.45 630 L 390.35 631.3 Q 390.5 627.1 387.95 625.3 L 386.55 625.55 386.7 624.6 Q 383.9 623.05 377.5 623.2 M 394.4 681.4 Q 391.45 680.55 388.8 681.8 387.25 682.8 386.85 684.75 L 394.55 683.9 Q 394.65 682.65 394.4 681.4 M 406.8 680.4 Q 408.65 678.45 407.95 674.95 404.15 674.1 400.65 676.8 L 405.3 675.8 Q 402.9 676.9 402.35 678.15 401.5 679.45 401.95 681.8 405.3 682.8 406.8 680.4 M 421.35 675.65 Q 418.8 674.95 415.9 676.8 L 419.5 676.8 Q 417 677.45 416.3 678.3 415.35 679.3 416.05 681.65 L 424.15 680.8 Q 424.25 680 424 678.6 423.45 676.8 421.35 675.65 M 402.65 439.8 L 386.7 427.65 376.25 447.2 392 456.95 402.65 439.8 M 400.25 409.1 L 400.55 409.5 Q 402.65 412.45 404.6 413.85 403.75 411.3 400.25 409.1 M 363.55 381.75 Q 361.6 382.85 359.2 385.8 356.4 388.85 354.45 389.4 354.75 391.5 354.3 393.3 L 387.85 418.6 387.85 418.7 389.1 419.55 Q 389.65 418 387.95 415.25 384.5 410.75 383.9 409.5 385.85 409.5 389.8 411.9 393 413.85 395.5 412.6 391.2 405.05 380 404.6 379.3 401.4 379.75 399.45 380.85 400.6 383.1 401.95 384.9 401 386.55 399.2 387.4 395.4 385.45 393.9 L 387.25 393.9 387.7 401.15 Q 388.25 402.95 392.3 405.45 L 399.3 408.65 400.25 409.1 399.55 408.25 392.85 400.15 Q 391.9 398.2 391.9 393.9 389.2 393.2 387.4 390.8 L 385.05 388 Q 383.8 390.1 383.9 393.05 383.5 393.05 383.2 392.9 381 392.2 374.7 392.75 L 375.4 395 376.5 397.1 Q 373.05 399.3 371.9 399.9 369.7 401 366.05 400.6 365.65 392.9 369.55 389.4 372.05 386.6 377.9 381.2 L 370.5 380.9 Q 366.05 380.75 363.55 381.75 M 402.05 389.95 Q 402.65 389.85 403.35 389.7 403.35 386.2 406.7 385.8 408.9 385.2 412.55 386.6 412.8 388.7 411 390.95 409.2 393.2 409.6 395.7 409.6 396.55 410.05 397.35 L 414.9 401.95 Q 416.45 402.25 418 401.85 L 418.7 387.9 Q 418.15 378.55 413.25 376 407.4 372.5 401.95 374.75 395.95 377 397.2 384.55 L 398.6 385.2 Q 398.45 385.9 398.3 386.5 L 402.05 389.95 M 672.5 755.35 L 677.7 753 Q 686.9 752.15 700.45 744.9 L 604.95 739.45 668.3 759.55 Q 669.7 757.3 672.5 755.35 M 530.4 662.8 L 537.9 668.1 Q 551.6 675.8 562.75 671.05 558 667.3 548.4 662.7 L 530.4 662.7 530.4 662.8 M 520.6 662.7 L 514.75 662.7 514.75 667.7 Q 517.8 667.3 519.35 665.45 519.9 664.75 520.35 663.95 L 520.6 662.7 M 639.4 452.9 L 620.15 452.9 625.9 461.3 639.4 452.9 M 649.9 445.25 L 652 443.85 Q 649.5 439.8 644.85 437.3 640.4 434.9 635.1 434.9 626.6 434.9 620.85 440.9 614.85 446.65 614.85 455.15 614.85 459.75 616.5 463.25 L 618.75 462.15 Q 617.35 459.2 617.35 455.15 617.35 447.75 622.65 442.75 627.7 437.4 635.1 437.4 639.85 437.4 643.6 439.5 647.5 441.75 649.9 445.25 M 653.4 355.1 L 676.15 275.95 514.75 486.95 514.75 489.75 653.4 355.1 Z"/>
<path fill="#00A84F" stroke="none" d="M 369.95 624.15 Q 368.4 624.6 367.7 625.4 367.45 625.7 367.3 626.4 367.85 625.7 368.55 625.15 369.25 624.6 369.95 624.15 M 231.6 596.55 L 237.3 607.25 Q 244.15 618.3 252.1 624.6 L 358.8 629.75 Q 358.5 627.65 359.35 625.95 360.75 622.05 365.65 624.85 363.25 622.35 366.45 619.7 369.55 617.6 374.7 617.05 383.9 616.2 386.15 620.25 389.8 621.1 391.2 624.45 398.3 622.9 400.25 628.05 400.8 630.15 399.3 631.7 L 509.6 637 509.6 629.75 281.6 602.55 238 598.05 Q 237.45 597.65 237.05 597.1 L 231.6 596.55 M 423.55 640.75 L 434.2 655.85 509.6 654.85 509.6 644.8 423.55 640.75 M 360.45 597.65 Q 354.2 594.85 349 595.4 348.6 599.75 351.1 602.8 L 367.7 604.75 Q 366.05 600.45 360.45 597.65 M 408.05 609.65 L 410.15 609.5 Q 414.5 608.95 415.05 604.35 413.8 604.35 403.35 603.8 396.35 603.65 393.95 607.95 L 408.05 609.65 M 377.65 517.1 L 375.95 516.4 374.15 515.85 377.65 517.1 M 509.6 528.4 L 509.6 521 402.65 439.8 392 456.95 509.3 529.8 509.6 528.4 M 262.45 349.9 Q 256.85 362.05 256.05 372.5 L 348.75 430.05 358.8 406.6 269 338.6 262.45 349.9 M 575.5 236.45 Q 572.4 229.6 573.5 224.6 565.7 220.7 554.8 219 L 549.65 218.7 Q 548.8 221.5 546.45 223.45 545.05 224.7 543.1 225.55 L 543.35 226.1 544.6 229.2 562.05 272.75 575.5 236.45 M 434.75 301.65 L 432.1 323.7 482.65 402.95 496.85 415.25 434.75 301.65 M 514.75 679.85 L 514.75 687.4 529.1 690.45 Q 531.5 688.35 535.15 685 L 538.2 682.1 514.75 679.85 M 716.5 721.6 Q 721.1 719.9 725.15 719.5 734.35 718.5 740.25 710.7 741.75 708.6 742.9 706.65 738.7 706.65 735.9 703.7 734.35 702.2 733.4 700.1 L 702.1 697.15 Q 698.75 703.15 676.4 722 L 706.85 728.4 Q 709.65 724.25 716.5 721.6 M 733.65 692.25 Q 738.4 688.8 742.75 688.35 750.55 682.35 757.7 674.1 760.05 671.45 762 669.25 758.8 668.8 756.3 666.6 754.35 665.05 753.05 662.1 L 560 662.7 Q 568.2 667.45 580.8 678.05 L 733.65 692.25 M 660.65 654.6 Q 658.4 652.35 653.95 650.7 644.6 647.2 632.15 647.2 619.6 647.2 610.4 650.7 605.9 652.5 603.7 654.75 L 660.65 654.6 M 726.55 320.2 L 726.55 320.05 Q 726.4 316.4 715.25 305.65 L 549.1 467.45 726.55 320.2 M 687.15 273.15 L 688.55 277.2 669.7 339.15 705.6 304.3 Q 705.05 298.95 695.4 284.6 L 687.15 273.15 Z"/>
<path fill="#A1A3A6" stroke="none" d="M 509.3 672.05 L 509.6 671.9 509.6 670.9 Q 509.45 671.35 509.3 672.05 M 567.25 676.8 Q 567.25 676.5 567.1 676.2 566.4 673.85 562.75 671.05 551.6 675.8 537.9 668.1 L 530.4 662.8 Q 530.8 663.65 530.95 664.65 L 529.55 668.55 524.1 669.25 519.35 666.6 519.35 665.45 Q 517.8 667.3 514.75 667.7 L 514.75 671.9 567.25 676.8 Z"/>
<path fill="#FFFDE5" stroke="none" d="M 415.9 676.8 Q 418.8 674.95 421.35 675.65 423.45 676.8 424 678.6 424.25 680 424.15 680.8 L 447.15 678.45 446.35 674.1 Q 442.85 673.85 442.15 674 440.35 669.1 429.15 668.4 L 413.95 668.55 Q 409.35 668.55 399.15 670.9 389.65 673.55 383.9 673.3 384.35 674.25 383.8 676.2 383.65 678.3 383.8 679.3 379.15 678.75 375.1 682.9 373.6 684.6 372.75 686.25 L 386.85 684.75 Q 387.25 682.8 388.8 681.8 391.45 680.55 394.4 681.4 394.65 682.65 394.55 683.9 L 416.05 681.65 Q 415.35 679.3 416.3 678.3 417 677.45 419.5 676.8 L 415.9 676.8 M 407.95 674.95 Q 408.65 678.45 406.8 680.4 405.3 682.8 401.95 681.8 401.5 679.45 402.35 678.15 402.9 676.9 405.3 675.8 L 400.65 676.8 Q 404.15 674.1 407.95 674.95 Z"/>
<path fill="#006FBA" stroke="none" d="M 370.95 553.25 L 372.75 574.35 436.3 586.6 435.7 571.4 370.95 553.25 M 509.3 558.45 L 509.15 558.55 470.6 539.45 451.65 539.15 451.5 544.35 509.6 565.7 509.6 558.55 509.3 558.45 M 269.85 477.35 L 271.95 453.45 242.05 425.7 227.25 418.3 224.75 426.55 Q 221.55 441.75 222.1 459.9 L 269.85 477.35 M 439.9 458.1 L 448.7 444.4 402.65 401.25 399.55 408.25 400.25 409.1 Q 403.75 411.3 404.6 413.85 402.65 412.45 400.55 409.5 L 400.25 409.1 399.3 408.65 393.25 422.75 439.9 458.1 M 239.95 374.9 L 234.8 384.55 Q 229.8 397.5 230.35 411.2 L 280.45 436.15 281 433.25 273.9 426.25 283.8 424.6 288.15 415.8 292.75 424.6 302.65 426.25 295.25 433.25 297.1 443.15 288.15 438.25 286.75 439.25 355.45 473.45 Q 356.85 465.9 360.75 457.1 L 363.25 452.65 Q 363.95 450.8 364.8 449.4 L 244.6 374.75 245.55 373.35 245 373.1 Q 242.6 374.5 239.95 374.9 M 543.35 226.1 L 542.25 227.5 537.5 254.3 542.4 326.2 547.95 311 547.25 290.3 544.6 229.2 543.35 226.1 M 359.2 259.2 Q 349.45 268.95 346.1 275.4 L 392.85 332.45 395.65 332.05 397.9 327.45 400.25 332.05 405.15 332.75 401.65 336.25 402.5 341.1 398 338.75 410.6 354.1 411.7 353.95 413.95 349.65 416.3 353.95 421.2 354.65 417.7 358.15 418.55 363.05 417.45 362.5 433.2 381.9 449.1 365 377.35 252.35 Q 375.25 252.2 373.3 251.4 371.2 250.7 369.8 249.3 364.5 253.75 359.2 259.2 M 364.25 287.4 L 360.75 283.9 365.65 283.2 367.7 278.6 369.95 283.2 374.85 283.9 371.35 287.4 372.35 292.25 367.7 289.9 363.55 292.25 364.25 287.4 M 372.6 264.35 L 377.5 265.05 374 268.55 374.85 273.45 370.5 271.05 366.2 273.45 367.05 268.55 363.55 265.05 368.4 264.35 370.5 259.9 372.6 264.35 M 384.5 290.6 L 380.85 287.1 385.75 286.4 387.95 282.1 390.05 286.4 394.95 287.1 391.45 290.6 392.3 295.5 387.95 293.25 383.65 295.5 384.5 290.6 M 387.4 306.5 L 392.3 307.2 388.65 310.7 389.5 315.6 385.2 313.2 380.85 315.6 381.7 310.7 378.2 307.2 383.1 306.5 385.2 302.05 387.4 306.5 M 399.7 320.45 L 400.55 315.3 396.9 312.1 401.8 311.1 404 306.95 406.1 311.1 411 312.1 407.5 315.3 408.35 320.45 404 318.1 399.7 320.45 M 417.3 329.55 L 419.5 333.85 424.4 334.85 420.8 338.05 421.9 342.95 417.3 340.7 412.95 342.95 413.8 338.05 410.3 334.85 415.2 333.85 417.3 329.55 M 432.65 366.95 L 428.45 369.15 429.15 364.3 425.65 360.8 430.55 360.1 432.65 355.5 434.9 360.1 439.75 360.8 436.3 364.3 437.25 369.15 432.65 366.95 M 500.9 476.8 Q 500.2 475.95 499.5 475.1 L 442 404.9 432.65 418.6 509.6 490.45 509.6 487.1 507.2 484.3 507.05 484.3 500.9 476.8 M 335.45 275.8 Q 333.8 275.8 332.25 275.55 329.6 274.95 327.65 273.15 323.75 277.35 319.55 282.9 310.75 294.25 308.1 302.05 L 372.05 361.9 389.2 340.4 335.45 275.8 M 514.75 564.85 L 515.45 565.4 603.8 535.25 603.8 516 514.75 558.55 514.75 564.85 M 647.4 486.4 L 642.2 460.6 642.2 460.45 514.75 538.75 514.75 549.75 647.4 486.4 Z"/>
<path fill="#FFDD00" stroke="none" d="M 358.8 406.6 L 348.75 430.05 361.85 438.25 371.5 416.2 358.8 406.6 M 417.3 273.45 L 406.25 282.9 432.1 323.7 434.75 301.65 417.3 273.45 Z"/>
<path fill="#00B8F0" stroke="none" d="M 461.4 222.75 Q 460.55 222.35 459.85 222.05 454.15 223.45 448.55 225.3 435.85 229.75 429.15 235.05 L 429.55 236.15 429.7 236.3 507.9 419.3 509.6 414.8 509.6 402.1 505.95 388.3 505.65 388.15 505.8 387.75 461.4 222.75 Z"/>
<path fill="#A98418" stroke="none" d="M 702.1 697.15 L 663.7 693.65 646.25 710.85 Q 643.9 712.9 641.95 714.6 L 676.4 722 Q 698.75 703.15 702.1 697.15 Z"/>
<path fill="#00569E" stroke="none" d="M 799.85 581.85 L 803.35 571.15 Q 802.35 570.3 801.5 569.3 L 514.75 608.8 514.75 621.35 515.3 621.95 596.4 618.15 Q 596 617.3 596 616.35 596 613.85 598.5 612.15 600.9 610.5 604.4 610.5 607.85 610.5 610.1 612.15 612.75 613.85 612.75 616.35 612.75 616.9 612.6 617.45 L 640.1 616.2 Q 634.7 613.4 628.95 609.35 L 619.45 601.55 Q 621.15 602.55 623.1 603.35 634 608.4 656.45 613.4 659.95 614.25 663.45 615.1 L 782.25 609.5 Q 783.65 607.95 785.2 607 794.1 596.1 799.85 581.85 Z"/>
<path fill="#7B0000" stroke="none" d="M 647.8 578.8 L 646.25 575.75 643.75 575.05 642.75 575.85 640.4 577.7 642.75 580.6 648.35 580.05 647.8 578.8 Z"/>
<path fill="#005925" stroke="none" d="M 665.8 578.4 Q 663.15 578.1 660.25 578.65 L 655.75 576.7 655.6 573.5 650.85 572.25 648.8 577.15 649.05 578.5 Q 649.05 579.2 647.8 578.8 L 648.35 580.05 642.75 580.6 640.4 577.7 642.75 575.85 639.7 573.9 637.45 575.05 637.2 577.95 640.7 580.05 635.8 580.2 632.3 579.8 631.2 584.95 669.85 579.65 Q 669.45 579.35 669 579.2 667.5 578.65 665.8 578.4 M 641.95 409.95 Q 640.8 409.8 639.3 409.95 637.45 410.2 635.95 410.9 L 631.45 413.85 626.7 414.55 624.6 411.9 620.15 413.3 620.55 418.7 621.85 419.7 Q 622.1 420.4 620.85 420.65 L 621.95 421.35 617.35 424.6 614 423.45 615 420.8 611.35 420.8 609.95 422.75 611.35 425.3 615.4 425.3 611.35 427.95 607.85 429.35 609.95 435.2 611.8 433.8 612.05 433.35 612.6 433.1 641.95 409.95 Z"/>
<path fill="#A79751" stroke="none" d="M 661.35 572.95 L 658.15 575.75 660.25 578.65 Q 663.15 578.1 665.8 578.4 L 666.1 578.4 664 573.8 661.35 572.95 Z"/>
<path fill="#990A0E" stroke="none" d="M 633.7 549.9 Q 631.75 552.15 631.05 554.5 L 639.4 552.4 Q 637.45 550.2 637.9 546.7 636.05 546.85 633.7 549.9 M 658.15 542.1 Q 657.15 542.1 652.15 540.15 650.45 539.6 648.8 544.6 648.2 547 648.1 549.75 648.1 549.9 647.95 550.2 L 682.7 541.55 Q 683.25 540.3 683.95 538.6 682 537.5 680.05 538.75 678.4 539.85 677 541.1 676.3 539.05 676.3 537.35 673.2 536.65 669.7 536.65 L 670.3 538.05 664.4 540.7 Q 659.8 542.1 658.15 542.1 Z"/>
<path fill="#919396" stroke="none" d="M 658.4 516.7 Q 654.5 513.9 652.15 512.95 647.25 511.1 648.1 517.1 645.85 516.55 643.9 517.4 641.95 518.5 642.35 521.15 643.2 521.45 644.05 521.6 L 658.4 516.7 M 658.7 516.55 L 658.95 516.55 658.15 514.45 658.4 515.7 Q 658.4 515.85 658.7 516.55 M 636.65 511.25 L 634.95 510.4 Q 633.4 513.5 633.3 516.15 L 633.3 516.3 Q 632.7 518.5 633.55 522.15 L 635.35 521.7 Q 634.7 518.5 635.1 516.4 635.25 514.05 636.65 511.25 M 649.9 504.85 L 650.05 504.85 Q 657 505.95 659.8 511.95 L 661.5 511.1 Q 658.25 504.25 650.15 503 646.1 502.6 643.2 503.7 L 643.75 505.4 Q 646.4 504.55 649.9 504.85 M 661.05 502.45 L 660.9 502.45 Q 656.45 499.25 651.7 498.7 643.2 497.85 636.75 502.9 630.2 508.2 628.95 516.4 628.55 521 629.65 524.5 L 632 523.8 Q 631.05 520.75 631.45 516.85 L 631.45 516.7 Q 632.6 509.6 638.3 504.85 644.05 500.35 651.45 501.2 655.6 501.75 659.55 504.55 663.3 507.2 665.1 510.95 L 667.35 509.85 Q 665.25 505.55 661.05 502.45 Z"/>
</g>
<g id="l1">
<path fill="#E91D25" stroke="none" d="M 641.8 714.6 L 641.95 714.6 640.55 714.3 641.8 714.6 Z"/>
<path fill="#A98418" stroke="none" d="M 748.6 283.5 L 759.1 254.15 728.65 265.05 723.2 284.75 Q 719.85 284.45 716.75 285.3 706.15 287.8 706.7 302.75 L 707 302.9 514.75 489.75 514.75 486.95 677.25 274.4 677.4 274.4 Q 683 273 685.1 267 686.6 262.7 686.35 256.15 L 706.3 248.6 713 217.9 683.95 232.7 681.05 253.05 Q 677.95 253.2 675.15 254.15 664.7 258.2 666.95 273 L 668.3 273.45 514.75 473.85 514.75 453.9 628.8 251.8 Q 630.05 251.5 631.05 251.1 635.35 249.45 636.9 244.95 638.45 239.95 636.9 231.85 L 655.35 221.1 657 189.7 630.9 208.95 631.3 229.45 Q 628.1 230.05 625.45 231.55 618.9 235.45 619.05 243.55 619.2 246.1 620 249.15 620.15 250 620.45 250.8 L 514.75 438 514.75 423.6 583.45 237.45 Q 583.55 237.45 583.7 237.45 585.25 236.85 586.65 236.05 590.95 233.5 591.55 227.95 591.95 223.2 589.45 216.05 L 605.9 202.95 603 171.85 580.1 194.6 583.45 214.8 Q 580.5 215.95 578 217.9 574.5 220.7 573.5 224.6 572.4 229.6 575.5 236.45 L 514.75 400.85 514.45 383.15 542.55 225.7 Q 542.8 225.55 543.1 225.55 545.05 224.7 546.45 223.45 548.8 221.5 549.65 218.7 551.3 212.85 546 203.35 L 560.55 187.6 553.15 157.2 533.85 183.15 540.15 202.65 Q 537.35 204.2 535.25 206.45 528.45 213.85 534.7 224.45 L 509 369.3 469.5 218.7 Q 473.7 209.35 467.4 202.95 464.75 200.85 462.1 199.6 L 467.7 179.65 447.3 154.5 441 185.1 456.4 200.3 Q 449.25 214.7 456.95 220.4 458.2 221.4 459.85 222.05 460.55 222.35 461.4 222.75 461.85 222.9 462.4 223.05 L 509.6 402.1 509.6 414.8 507.9 419.3 429.7 236.3 429.55 236.15 428.6 233.8 Q 433.05 222.05 424.95 215.95 422.45 214.4 419.4 213.4 L 422.05 192.9 398.15 171.15 396.35 202.25 413.65 214.95 Q 408.65 230.3 417.15 234.65 419.1 235.6 421.2 236.15 L 499.1 418 Q 500.2 420.8 501.5 423.6 501.5 423.75 501.6 424 L 501.6 424.15 509.6 443.4 509.6 445.25 384.5 248.85 Q 384.6 248.15 384.75 247.6 386.7 236.15 378.2 231.85 375.55 230.45 372.35 230.05 L 371.75 209.5 344.85 191.35 347.9 222.5 366.9 232.4 Q 364.95 244.55 369.8 249.3 371.2 250.7 373.3 251.4 375.25 252.2 377.35 252.35 L 502.05 448.05 502.2 448.15 506.65 455.3 Q 506.8 455.55 507.05 456 L 509.6 460.05 509.6 475.25 445.2 396.65 445.2 396.55 342.85 271.5 Q 343.85 258.35 334.05 255.3 331.4 254.45 327.8 254.3 L 324.15 234.35 294.55 220.7 302.65 250.8 323.05 257.8 Q 323.05 268.95 327.65 273.15 329.6 274.95 332.25 275.55 333.8 275.8 335.45 275.8 336.6 275.65 337.7 275.55 L 336.75 276.2 499.5 475.1 Q 500.2 475.95 500.9 476.8 L 507.05 484.3 507.2 484.3 509.6 487.1 509.6 490.45 306.55 300.65 306.15 301.2 Q 305.85 286.4 295.1 284.3 L 289.1 284.9 282.55 264.65 251.55 255 263.15 283.9 284.35 288.25 Q 286.3 302.6 294.3 304.3 295.1 304.4 295.95 304.4 297.75 304.55 299.6 304.3 302.65 303.7 305.6 301.75 L 301.25 306.35 509.6 501.35 509.6 510.85 387.85 418.7 387.85 418.6 272.65 331.5 Q 270.7 318.5 260.35 317.7 257.7 317.25 254.35 318.1 L 246.1 299.25 214.3 292.55 228.65 320.2 250.15 322.55 Q 253.65 338.05 263.15 337.65 265.25 337.65 267.2 336.95 L 267.05 337.05 509.6 521 509.6 529.95 509.3 529.8 248.75 368.05 248.65 368.35 Q 244.7 354.95 233.85 355.5 231.2 355.9 227.95 357.05 L 216.8 339.75 184.55 337.9 203.1 363.05 224.35 361.9 Q 230.5 376.85 239.85 374.9 L 239.95 374.9 Q 242.6 374.5 245 373.1 245.7 372.5 246.4 371.95 L 244.6 374.75 508.75 538.75 508.9 538.6 509.6 539.15 509.6 550.05 227.8 409.95 Q 222.95 396.95 212.6 398.35 L 207.15 400.45 194.75 383.15 162.35 383.15 182.15 407.4 203.65 405.05 Q 210.25 419.55 219.6 417.3 222.8 416.5 225.6 414.1 L 224.2 416.75 509.15 558.55 509.3 558.45 509.6 558.55 509.6 565.7 378.2 517.25 377.65 517.1 215.1 457.25 Q 208.85 445.1 198.65 447.45 L 193.35 450.4 179.1 434.75 147 438.4 169.6 460.15 190.25 455.45 Q 198.65 469.1 207.7 465.45 210.65 464.5 212.9 462.15 L 212.05 464.5 375.1 524.5 375.4 524.65 509.6 574.05 509.6 583.95 213 500.9 Q 206.2 489.2 196.15 492.15 L 191.1 495.5 176.15 480.4 144.2 486 167.95 506.5 188.45 500.65 Q 197.65 513.6 206.3 509.7 207.6 509.15 208.7 508.45 209.95 507.5 211.05 506.35 L 210.5 508.3 509.6 592.05 509.6 600.85 509.45 600.85 213.6 543.35 Q 206.75 534.85 197.95 538.05 195.15 539.05 192.65 541.4 L 177 527.85 145.6 535.95 170.7 554.4 190.95 547.1 Q 200.75 559.55 209.1 554.95 211.75 553.55 213.6 551.45 L 509.6 608.8 509.6 621.8 226.45 587.85 226.3 588.85 Q 218.05 579.2 208.7 583.4 L 204.35 587.45 187.05 575.05 156.35 585.5 183.15 602.1 202.7 592.9 Q 213.45 604.6 221.7 599.45 223.8 597.8 225.45 595.55 L 225.45 595.7 509.6 629.75 509.6 637 241.8 624 241.65 625.95 Q 232.7 617.9 224.35 623.05 221.7 624.6 219.6 626.8 L 202 616.75 172.4 630 200.3 643.7 219.05 632.8 Q 231.2 643.4 238.45 637.4 241.1 635.35 242.6 632 L 509.6 644.8 509.6 654.85 266.65 657.95 266.65 659.75 Q 261.2 656 256.45 656.25 252.95 656.55 249.9 658.9 247.25 660.85 245.55 663.4 L 226.85 654.85 198.9 671.35 228.25 682.1 245.55 669.5 Q 258.4 678.75 265.5 672.05 267.05 670.35 268.15 668.4 268.75 667.15 269.15 665.75 L 509.6 662.7 509.6 671.9 509.3 672.05 286.75 695.2 Q 277.8 690.3 270.85 696.05 268.45 698.15 266.9 700.8 L 247.8 693.65 221 711.55 251 720.6 267.5 706.8 Q 281 714.9 287.3 707.9 289.1 705.95 290.35 702.75 L 509.6 679.7 509.6 687.25 313.15 732.05 Q 304.35 728.85 298.6 735.25 296.5 737.65 295.25 740.55 L 275.3 735.8 251 757.45 281.85 762.35 296.4 746.55 Q 310.9 753 316.5 745 318.15 742.25 318.85 738.75 L 509.6 695.35 509.6 710.55 344.95 764.85 Q 335.35 762.05 330.05 768.75 328.2 771.25 327.1 774.2 L 306.85 770.85 283.95 793.75 315.1 796.65 328.35 780.05 Q 343.3 785.5 348.2 777.4 349.7 775.15 350.25 771.4 L 406.7 752.85 406.95 752.7 509.6 718.8 509.6 729.25 509.3 728.55 403.35 776.45 403.2 776.45 400.55 777.7 Q 400.1 777.8 399.7 778.1 L 387.7 783.4 387.85 783.7 385.85 784.5 Q 378.05 784.1 374 790.4 372.35 793.05 371.5 796.1 L 350.95 794.55 330.6 819.55 361.85 819.55 373.6 801.7 Q 388.95 805.6 393 797.2 394.1 795 394.4 791.8 394.4 790.95 394.4 789.95 L 394.4 789 511.8 735.95 632.15 790.4 Q 632.3 794 633.7 796.95 638.3 805.45 653.5 801 L 665.8 818.3 697.25 816.9 675.6 792.75 655.35 795.15 Q 654.35 792.2 652.55 789.55 647.5 782.45 638.3 784.5 L 634.8 783 Q 634.55 782.85 634.25 782.7 633.85 782.55 633.55 782.45 L 633.15 782.3 630.2 780.9 630.05 780.9 514.75 728.85 514.75 718.95 675.7 770 Q 676.15 772.95 677.7 775.6 683.1 783.55 697.8 777.55 L 711.9 793.45 742.9 789.25 718.85 767.2 699.05 771.4 Q 697.8 768.6 695.85 766.25 689.7 759.25 679.65 763.15 L 514.75 710.85 514.75 695.5 702.1 735.4 Q 702.55 735.55 703.1 735.65 L 705.9 736.25 Q 705.9 736.35 706 736.5 706.45 738.45 707.15 740 707.7 741 708.4 741.8 714.1 749.5 728.5 742.5 L 743.6 757.85 774 751.6 748.9 731.05 729.35 736.5 Q 727.95 733.6 725.85 731.35 719.4 724.95 709.95 729.1 L 641.95 714.6 641.8 714.6 640.55 714.3 583.45 702.05 Q 578.15 700.9 573.1 699.8 L 514.75 687.4 514.75 679.85 538.2 682.1 538.35 682.1 Q 555.25 683.6 572.15 685.15 L 733.4 700.1 733.4 700.2 733.55 700.35 Q 734.5 702.3 735.9 703.7 738.7 706.65 742.9 706.65 747.9 706.65 754.9 702.3 755.05 702.2 755.15 702.2 755.45 702.05 755.75 701.75 L 772.6 714.9 802.35 704.55 774.7 687.65 756 695.6 Q 754.2 692.95 751.7 691.15 747.5 687.8 742.75 688.35 738.4 688.8 733.65 692.25 L 514.75 671.9 514.75 662.7 753.05 662.1 Q 754.35 665.05 756.3 666.6 758.8 668.8 762 669.25 767.85 669.8 776.1 663.4 L 793.85 675.5 822.6 663.5 794 648.3 775.7 657.4 Q 773.9 654.85 771.2 653.2 770.1 652.5 769.15 651.95 762.3 648.85 754.9 654.3 L 514.75 654.85 514.75 629.75 783.25 617.3 Q 784.5 619.15 786.3 620.4 794 625.95 805.45 615.1 L 824.3 625.3 851.9 610.2 821.9 598.05 804.6 609.1 Q 802.5 606.85 799.85 605.3 792.45 601.4 785.2 607 783.65 607.95 782.25 609.5 L 514.75 621.95 514.75 608.8 801.5 569.3 Q 802.35 570.3 803.35 571.15 804.45 572.1 805.7 572.5 814.35 576.7 823.85 563.85 L 844.25 570.45 868.7 550.75 836.85 544.35 821.75 558.3 Q 819.25 556.35 816.3 555.5 807.25 552.3 800.55 561.65 L 514.75 601 514.75 591.8 628.1 563.3 628.1 563.15 805.45 518.35 Q 806.55 519.35 807.8 520.2 808.65 520.75 809.6 521.15 818.4 524.5 827.05 511.1 L 847.75 516.3 870.65 494.8 838.5 490.6 824.55 505.55 Q 821.9 503.85 818.95 503.15 809.5 500.8 803.35 510.95 L 802.9 511.1 514.75 583.85 514.75 573.8 802.9 475.8 802.65 474.7 Q 802.9 474.85 803.2 474.95 804.15 475.65 805.45 475.95 814.35 479 822.2 465.2 L 843.4 468.95 865.05 446.65 832.65 444 819.55 459.75 Q 816.75 458.2 813.8 457.65 802.9 455.55 797.05 469.5 L 693.3 504.85 693.2 504.95 658.95 516.55 658.7 516.55 658.4 516.7 515.45 565.4 514.75 565.55 514.75 558.55 790.5 426.7 Q 792.45 427.8 794.25 428.05 803.75 430.05 809.6 415.5 L 831.25 416.75 850.1 391.8 817.7 393.2 806.55 410.35 Q 803.6 409.1 800.55 408.95 790.35 408.25 786.3 420 L 514.75 549.75 514.75 538.75 768.85 382.45 767.05 379.5 Q 768.85 380.2 770.55 380.5 779.75 382 785.3 366.8 L 806.55 367.2 824.3 341.25 791.9 344.35 781.7 362.05 Q 778.75 360.95 775.7 360.8 764.5 360.65 761.15 375.45 L 763 376.85 514.75 529.55 514.75 520.2 744.95 338.6 Q 746.1 338.75 747.2 338.75 757 338.75 759.9 323.1 L 781 320.2 794.25 291.85 762.85 299.65 755.45 318.95 Q 752.35 318.35 749.3 318.8 738.4 320.35 737.6 334.4 L 737.15 334.85 514.75 510.3 514.75 500.8 518.25 497.45 518.25 497.3 715.5 305.4 Q 716.2 305.4 716.75 305.25 726.15 304.4 727.8 288.5 L 748.6 283.5 Z"/>
</g>
<g id="l0">
<path fill="#FFFCD7" stroke="none" d="M 391.05 783.7 L 392 785.9 513.5 731.05 512.5 728.85 391.05 783.7 M 346.2 765.8 L 347.05 768.2 513.35 713.35 512.5 710.95 346.2 765.8 M 287.45 695.9 L 287.7 698.4 513.05 674.8 512.8 672.3 287.45 695.9 M 315.1 732.6 L 315.65 735.1 513.2 690.05 512.65 687.5 315.1 732.6 M 268.75 658.35 L 268.75 660.85 512.95 657.95 512.95 655.4 268.75 658.35 M 244 624.6 L 243.9 627.1 512.95 639.95 513.05 637.4 244 624.6 M 215 543.75 L 214.55 546.3 512.8 604.2 513.2 601.7 215 543.75 M 228.4 588.45 L 228.1 590.95 512.8 624.7 513.05 622.2 228.4 588.45 M 214.3 501.35 L 213.6 503.7 512.65 587.45 513.35 585.1 214.3 501.35 M 216.1 457.4 L 215.25 459.75 512.5 569.3 513.35 566.95 216.1 457.4 M 228.8 410.05 L 227.7 412.3 512.35 554.1 513.5 551.85 228.8 410.05 M 249.6 368.35 L 248.35 370.45 512.35 534.4 513.65 532.35 249.6 368.35 M 272.35 330.8 L 270.85 332.75 512.25 515.45 513.75 513.5 272.35 330.8 M 307 300.5 L 305.3 302.3 512.1 495.75 513.75 493.95 307 300.5 M 384.35 247.9 L 382.25 249.3 510.55 454.85 512.65 453.45 384.35 247.9 M 343 271.35 L 341.05 272.85 511.25 480.95 513.2 479.45 343 271.35 M 428.3 232.1 L 425.95 233.1 507.6 429.75 510 428.75 428.3 232.1 M 467 220.55 L 466.15 220.7 507.6 391.1 510 390.55 468.65 220.7 467 220.55 Z"/>
</g>
</defs>
<g transform="matrix(1,0,0,1,0,0)">
<use xlink:href="#l6"/>
</g>
<g transform="matrix(1,0,0,1,0,0)">
<use xlink:href="#l5"/>
</g>
<g transform="matrix(1,0,0,1,0,0)">
<use xlink:href="#l4"/>
</g>
<g transform="matrix(1,0,0,1,0,0)">
<use xlink:href="#l3"/>
</g>
<g transform="matrix(1,0,0,1,0,0)">
<use xlink:href="#l2"/>
</g>
<g transform="matrix(1,0,0,1,0,0)">
<use xlink:href="#l1"/>
</g>
<g transform="matrix(1,0,0,1,0,0)">
<use xlink:href="#l0"/>
</g>
</svg>
