<svg xmlns="http://www.w3.org/2000/svg" xmlns:xlink="http://www.w3.org/1999/xlink" width="100%" height="100%" viewBox="0 0 1024 240">
<!-- Vectorization by Rodrigo Polo https://github.com/rodrigopolo/logotipos-politicos -->
<defs>
<g id="l1">
<path fill="#939599" stroke="none" d="M 401.5 154.85 L 401.4 154.85 Q 386.6 154.85 378.7 165.55 370.45 176.65 370.45 197.7 370.45 216.85 378.6 227.95 386.7 238.95 400.5 238.95 415.4 238.95 423.3 228.25 431.45 217.2 431.45 196.05 431.45 177.05 423.3 165.95 415.2 154.85 401.5 154.85 M 387.3 170.85 Q 392.4 163.25 401.4 163.25 411.15 163.25 416.15 173.45 420.5 182.15 420.5 196.05 420.5 213.95 414.55 222.8 409.4 230.45 400.4 230.45 L 400.4 230.35 Q 390.65 230.35 385.65 220.2 381.3 211.5 381.3 197.6 381.3 179.75 387.3 170.85 M 359.05 190.85 L 333.85 190.85 333.85 164.7 360.35 164.7 360.35 155.7 323.45 155.7 323.45 238.2 333.85 238.2 333.85 199.85 359.05 199.85 359.05 190.85 M 647.55 173.55 Q 643.55 166.05 637.1 161.6 628.6 155.7 615.05 155.7 L 597.2 155.7 597.2 238.1 610.05 238.1 Q 632 238.1 642.8 225.8 652.35 214.9 652.35 195.6 652.35 182.85 647.55 173.55 M 635.35 173.65 Q 641.55 181.6 641.55 195.6 641.55 211.6 634.5 220.3 627.35 229.2 613.8 229.2 L 607.55 229.2 607.55 164.7 613.8 164.7 Q 628.2 164.7 635.35 173.65 M 531.7 170.55 L 531.9 170.55 563 238.2 575.85 238.2 575.85 155.7 566 155.7 566 223.8 565.7 223.8 534.6 155.7 521.75 155.7 521.75 238.2 531.7 238.2 531.7 170.55 M 499.15 155.7 L 488.8 155.7 488.8 209.3 Q 488.8 219.15 484.75 224.85 480.6 230.55 473.35 230.55 466 230.55 461.95 224.75 457.9 219.05 457.9 209.3 L 457.9 155.6 447.45 155.6 447.45 207.75 Q 447.45 214.3 448.05 217.9 448.8 222.05 450.85 226.2 453.65 231.8 458.95 235.2 465.05 238.95 473.45 238.95 481.85 238.95 487.95 235.2 493.15 231.8 495.95 226.2 498 222.15 498.65 217.9 499.25 214.4 499.25 207.75 L 499.15 155.7 M 802.3 155.7 L 791.85 155.7 791.85 238.2 802.3 238.2 802.3 155.7 M 699.2 155.7 L 687.8 155.7 660.2 238.2 670.6 238.2 677.2 216.65 708.7 216.65 715.25 238.2 726.15 238.2 699.2 155.7 M 693.05 166.5 L 693.3 166.5 706 207.65 680.1 207.65 693.05 166.5 M 728.2 155.7 L 728.2 164.7 747.15 164.7 747.15 238.2 757.45 238.2 757.45 164.7 776.4 164.7 776.4 155.7 728.2 155.7 M 914.25 155.7 L 901.3 155.7 901.3 238.2 911.25 238.2 911.25 170.55 911.55 170.55 942.55 238.2 955.5 238.2 955.5 155.7 945.55 155.7 945.55 223.8 945.35 223.8 914.25 155.7 M 829.55 165.55 Q 821.4 176.55 821.4 197.7 821.4 216.85 829.55 227.95 837.65 238.95 851.35 238.95 866.25 238.95 874.15 228.25 882.3 217.2 882.3 196.05 882.3 177.05 874.15 165.95 866.15 154.9 852.35 154.85 L 852.25 154.85 Q 837.55 154.85 829.55 165.55 M 832.25 197.6 Q 832.25 179.75 838.25 170.85 843.35 163.25 852.35 163.25 862.1 163.25 867.1 173.45 871.45 182.15 871.45 196.05 871.45 213.95 865.45 222.8 860.35 230.45 851.35 230.45 L 851.35 230.35 Q 841.6 230.35 836.6 220.2 832.25 211.5 832.25 197.6 M 1012 167.5 L 1012 157.35 Q 1004.7 154.65 997.15 154.65 987.3 154.65 980.9 159.95 974.15 165.55 974.15 175.3 974.15 183.4 977.7 188.25 981.4 193.35 992.4 200.05 1000.35 204.85 1002.95 208.6 1005.15 211.7 1005.15 216.85 1005.15 222.15 1001.3 225.8 997.25 229.8 990.45 229.8 983.4 229.8 974.75 224.45 L 974.75 235.3 Q 983.05 238.95 992 238.75 1003.5 238.75 1010 232 1016 225.7 1016 215.4 1016 208.05 1012.3 202.65 1008.25 196.75 999 191.45 990.45 186.5 987.6 183.15 985.05 180.15 985.05 176 985.05 170.65 988.65 167.2 992.2 163.6 997.9 163.6 1005.75 163.8 1012 167.5 Z"/>
</g>
<g id="l0">
<path fill="#010101" stroke="none" d="M 347 35.95 Q 333.1 35.95 324.2 46.05 314.15 57.35 314.15 78.45 314.15 99.5 324.2 110.9 333.1 120.9 347 120.9 361 120.9 369.8 110.9 379.85 99.5 379.85 78.45 379.85 57.35 369.8 46.05 361 35.95 347 35.95 M 359.15 54.4 Q 364.2 62.2 364.2 78.35 364.2 94.35 359.15 102.3 354.8 109.25 347 109.25 339.15 109.25 334.75 102.3 329.7 94.35 329.7 78.35 329.7 62.2 334.75 54.4 339.15 47.4 347 47.4 354.75 47.4 359.15 54.4 M 436.25 43.75 Q 429.5 37.1 416.95 37.1 L 393.25 37.1 393.25 119.55 408.45 119.55 408.45 87.3 416.95 87.3 Q 429.5 87.3 436.25 80.65 442.85 74.1 442.85 62.2 442.85 50.3 436.25 43.75 M 408.45 48.7 L 414.15 48.7 Q 427.65 48.7 427.65 62.2 427.65 69.05 424.5 72.35 421.2 75.7 414.15 75.7 L 408.45 75.7 408.45 48.7 M 528.05 55.35 L 528.3 55.35 555.65 119.55 573.75 119.55 573.75 37.1 560 37.1 560 101.9 559.7 101.9 532.3 37.1 514.3 37.1 514.3 119.55 528.05 119.55 528.05 55.35 M 498.75 49.15 L 498.75 37.1 455.4 37.1 455.4 119.55 499.9 119.55 499.9 107.5 470.45 107.5 470.45 83.15 497.2 83.15 497.2 71.2 470.45 71.2 470.45 49.15 498.75 49.15 M 662.9 82.6 Q 659.8 78.15 652.05 73.8 L 643.2 68.85 Q 638.75 66.25 637.1 64.6 634.5 61.9 634.5 57.75 634.5 53.3 637.4 50.8 640.4 48.1 646 48.1 653.7 48.2 661.45 51.6 L 662 38.85 Q 653.8 36.1 644.85 35.95 633.8 35.95 626.55 41.65 618.75 47.7 618.75 58.35 618.75 72.55 632.25 79.95 L 640 84.2 Q 646.1 87.6 648.2 89.8 650.8 92.65 650.8 96.8 650.8 102.65 647.05 105.85 643.55 108.75 638.25 108.75 628.7 108.55 620.75 103.65 L 619.9 117.15 Q 626 120.85 638.75 120.85 651.1 120.85 658.45 114.75 666.35 108.2 666.35 96 666.35 87.7 662.9 82.6 M 739.1 78.45 Q 739.1 57.35 729.15 46.05 720.25 35.95 706.25 35.95 692.35 35.95 683.45 46.05 673.4 57.35 673.4 78.45 673.4 99.5 683.45 110.9 692.35 120.9 706.25 120.9 720.25 120.9 729.15 110.9 739.1 99.5 739.1 78.45 M 718.55 54.4 Q 723.55 62.2 723.55 78.35 723.55 94.45 718.55 102.3 714.1 109.25 706.25 109.25 698.55 109.25 694.1 102.3 689.05 94.35 689.05 78.35 689.05 62.2 694.1 54.4 698.45 47.4 706.25 47.4 714.1 47.4 718.55 54.4 M 805.85 39.2 Q 796.9 35.85 787.5 35.85 769.65 35.85 759.5 48 750.05 59.5 750.05 78.35 750.05 97.15 759.6 108.65 769.75 120.85 788 120.85 793.4 120.85 798.5 119.95 803.45 119.1 805.85 117.85 L 805 103.85 Q 799 108.1 789.45 108.1 779.2 108.1 773 101.1 766.05 93.2 766.05 78.15 766.05 63.05 773 55.15 779.2 48.2 789.45 48.2 797.85 48.5 805 52.75 L 805.85 39.2 M 834.25 37.1 L 819.2 37.1 819.2 119.55 834.25 119.55 834.25 37.1 M 895.3 49.15 L 895.3 37.1 851.95 37.1 851.95 119.55 896.5 119.55 896.5 107.5 867 107.5 867 83.15 893.75 83.15 893.75 71.2 867 71.2 867 49.15 895.3 49.15 M 956.65 49.15 L 956.65 37.1 904.8 37.1 904.8 49.15 923.25 49.15 923.25 119.55 938.4 119.55 938.4 49.15 956.65 49.15 M 992.5 70.1 L 976.35 37.1 960.15 37.1 984.5 86.55 984.5 119.55 999.55 119.55 999.55 86.85 1024 37.1 1007.55 37.1 992.5 70.1 Z"/>
<path fill="#010202" stroke="none" d="M 219.4 204.45 Q 209.45 215.3 184.5 236.9 L 251.15 236.9 251.15 160.9 Q 234.85 187.55 219.4 204.45 M 178.25 62.6 Q 175.7 60.1 173.1 58.7 156.9 49.95 130.7 60.65 109.35 69.45 83.55 90.2 67.8 102.95 53.5 117.65 40.95 130.5 34.85 139.1 L 20.4 159.75 Q 11.4 173 0 193.35 L 0 236.9 150.05 236.9 Q 167.2 221.95 175.55 214.5 195.05 197.15 207.4 183.5 224.3 164.75 237.75 142.95 245.45 130.2 251.05 119.1 L 251.05 0 0 0 0 125.35 Q 3.2 120.35 10.25 112.05 18.35 102.95 21.65 98.9 35.35 82.1 57.2 63.55 80.75 43.65 104.9 29.45 165.3 -6.1 195.9 12.15 200.35 14.85 204.5 18.65 230.2 42.8 209.05 93.2 190.9 136.55 152.55 172.6 144.7 180.05 137.25 186.1 114.2 204.95 95.25 211.7 78.25 217.9 67.25 213.55 56.9 209.4 54.4 197.5 51.9 185.55 57.95 169.9 68.2 143.35 94.75 121.4 106.65 111.55 116.8 107.8 127.6 103.75 133.5 107.9 144.5 115.6 133.8 134.95 125 150.75 109.25 163.8 104.6 167.75 99.5 169.9 94 172 92.05 169.1 90.15 165.85 93.05 158.8 96.3 150.65 102.4 145.35 107.9 140.55 109.15 142.25 109.45 142.95 109.15 143.55 L 108.95 143.7 Q 109.05 143.6 108.85 143.45 108.4 141.9 103.85 145.65 98.65 149.9 95.55 157.55 L 94.85 159.25 Q 92.45 166.5 96.8 166.6 100.75 166.6 105.8 161.8 119.8 148.55 126.85 137.45 136.4 122.35 129.55 116 L 128.4 115.15 Q 117.95 107.8 96.9 127.3 77.2 145.65 67.8 167.5 64.35 175.8 64.45 182.55 64.55 189 68.1 193.15 75.35 201.55 92.15 196.65 111.2 191.05 134.85 170 162 145.85 176.9 112.8 192.8 77.25 178.25 62.6 Z"/>
</g>
</defs>
<g transform="matrix(1,0,0,1,0,0)">
<use xlink:href="#l1"/>
</g>
<g transform="matrix(1,0,0,1,0,0)">
<use xlink:href="#l0"/>
</g>
</svg>
