<svg xmlns="http://www.w3.org/2000/svg" xmlns:xlink="http://www.w3.org/1999/xlink" width="100%" height="100%" viewBox="0 0 1024 400">
<!-- Vectorization by Rodrigo Polo https://github.com/rodrigopolo/logotipos-politicos -->
<defs>
<g id="l">
<path fill="#88BC56" stroke="none" d="M 376.9 126.1 Q 362.55 92.05 336.25 65.75 310 39.4 275.85 25.05 240.6 10.1 201.95 10.1 163.3 10.1 128 25.05 93.95 39.4 67.6 65.75 41.3 92.05 26.9 126.1 11.95 161.4 11.95 200.05 11.95 238.75 26.9 273.95 41.3 308.1 67.6 334.35 93.95 360.65 128 375.05 163.3 390 201.95 390 240.6 390 275.85 375.05 310 360.65 336.25 334.35 362.55 308 376.9 273.95 391.9 238.75 391.9 200.05 391.9 161.4 376.9 126.1 M 200.35 124.8 Q 185.05 124.8 173.85 135.2 162.75 145.4 161.35 160.45 L 125.3 160.45 Q 126.95 130.6 148.6 110 170.35 89.35 200.35 89.35 230.3 89.35 252.05 110 273.7 130.6 275.35 160.45 L 239.3 160.45 Q 237.9 145.4 226.8 135.2 215.6 124.8 200.35 124.8 M 226.5 193.15 Q 237.6 183.15 239.2 168.35 L 275.35 168.35 Q 274.3 190 261.85 207.65 249.7 225 230.4 233.4 249.5 241.9 261.6 259.05 273.95 276.65 275.1 298.05 L 239.05 298.05 Q 237.65 283 226.55 272.8 215.35 262.5 200.1 262.5 184.8 262.5 173.6 272.8 162.5 283 161.1 298.05 L 125.15 298.05 Q 126.3 276.55 138.65 259 150.8 241.75 170 233.35 150.8 224.85 138.7 207.6 126.35 189.95 125.3 168.35 L 161.45 168.35 Q 163.05 183.15 174.2 193.15 185.3 203.2 200.35 203.2 215.35 203.2 226.5 193.15 M 555.55 184 Q 538.05 165.1 507.45 165.1 476.8 165.1 459.2 184.15 441.7 202.95 441.7 235.7 441.7 268 459.2 287.1 476.7 306.15 507.45 306.15 538.05 306.15 555.55 287.35 573.15 268.4 573.15 235.7 573.15 202.95 555.55 184 M 496.05 192.9 Q 501.2 190.7 507.5 190.7 513.4 190.7 518.85 193.05 524.25 195.4 528.75 201.05 532.85 206.35 535.45 215.05 537.9 223.55 537.9 235.6 537.9 248.6 535.55 256.2 533.15 264.05 528.85 270 524.75 275.4 519.1 278.05 513.4 280.65 507.5 280.65 501.6 280.65 496 278.2 490.6 275.9 486.1 270.2 481.95 264.8 479.4 256.4 476.95 248.2 476.95 235.7 476.95 223.45 479.5 214.85 482.25 205.95 486.25 200.9 491.1 195.1 496.05 192.9 M 791.4 198.05 Q 780.95 198.05 770.15 199.9 760.2 201.7 754.95 203.2 L 754.95 227.85 757.65 227.85 Q 765.15 224.35 772.3 222.4 779.9 220.2 785.45 220.2 797.8 220.2 804 223.55 810.2 226.8 810.2 235.55 L 810.2 236.1 Q 798.35 236.75 784.55 238.65 772.85 240.2 763.95 244.45 755.45 248.6 750.95 255.65 746.45 262.6 746.45 274.05 746.45 287.9 755.35 297.05 764.2 306.15 777.75 306.15 785.25 306.15 788.95 305 793.05 303.95 797.3 301.8 801.6 299.6 804.15 297.4 L 810.05 292.5 810.05 303.35 841.75 303.35 841.75 233.65 Q 841.75 215.7 829.75 206.85 817.7 198.05 791.4 198.05 M 802.2 282.1 Q 797.8 284.1 793.7 284.1 786.15 284.1 782.35 281.4 778.5 278.7 778.5 271.4 778.5 266.6 780.8 263.55 783.05 260.55 787.25 259.15 791.75 257.45 797.05 256.8 803.15 256.05 810.05 255.4 L 810.05 276.7 Q 806.7 280.05 802.2 282.1 M 739.5 183.9 Q 743.1 183.9 746.85 184.7 L 752.5 186.1 754.95 186.1 754.95 162.95 Q 751.05 162.15 744.65 161.65 738.7 161.2 731.75 161.2 711.9 161.2 702.1 170.5 692.3 179.8 692.3 198.35 L 692.3 201.15 647.9 201.15 628.7 229.9 609.6 201.15 572.3 201.15 609.4 252.35 571.75 303.35 608.25 303.35 628.3 274.1 647.75 303.35 685 303.35 647.35 251.4 679.55 207.75 679.55 223.3 692.3 223.3 692.3 303.35 724.05 303.35 724.05 223.3 748.15 223.3 748.15 201.15 722.9 201.15 722.9 200.4 Q 722.9 190.85 726.45 187.35 729.85 183.9 739.5 183.9 M 1011.95 236.85 Q 1011.95 229.4 1011.8 226.95 1011.4 222.2 1009.9 219.45 1006.8 213.65 999.95 209 986.85 199.85 970.2 199.85 962.45 199.85 955 203.6 951.5 205.4 944.95 210.05 943 211.5 939.25 215.2 L 935.9 218.6 Q 933.9 216.25 930.8 213.15 924.7 207 919.35 203.85 914.05 200.65 905.5 199.5 898.6 198.6 892.75 199.25 885.8 200.05 880.25 201.95 876.65 203.2 869.1 206.7 865.75 208.25 861.6 211.6 L 858.1 214.6 858.15 303.35 889.95 303.35 889.95 230.8 Q 893.3 228.5 897.3 226.55 900.9 224.75 904.9 224.75 910.15 224.75 912.9 226.2 915.8 227.7 917.15 231.05 918.45 234.25 918.9 239.55 919.2 244.2 919.2 252.2 L 919.2 303.35 951 303.35 951 230.8 Q 955.4 227.8 958.75 226.3 962.2 224.75 965.95 224.75 971.1 224.75 974.05 226.2 977 227.8 978.3 231.05 979.7 234.3 979.95 239.45 980.25 246.5 980.25 252.2 L 980.25 303.3 1011.95 303.3 1011.95 236.85 Z"/>
</g>
</defs>
<g transform="matrix(1,0,0,1,0,0)">
<use xlink:href="#l"/>
</g>
</svg>
