<svg xmlns="http://www.w3.org/2000/svg" xmlns:xlink="http://www.w3.org/1999/xlink" width="100%" height="100%" viewBox="0 0 1024 1024">
<!-- Vectorization by Rodrigo Polo https://github.com/rodrigopolo/logotipos-politicos -->
<defs>
<g id="l1">
<path fill="#83BA51" stroke="none" d="M 0 0.1 L 0 1024.1 1024 1024.1 1024 0.1 0 0.1 Z"/>
</g>
<g id="l0">
<path fill="#FFFFFF" stroke="none" d="M 461.9 558.05 Q 447.85 541.5 423.55 541.5 400.65 541.5 386.7 555.95 372.7 570.4 372.7 594.5 372.7 620.05 386.7 634.6 400.3 648.7 423.55 648.7 445.8 648.7 459.8 634.6 474.35 619.7 474.35 594.5 474.35 572.85 461.9 558.05 M 423.55 560.05 Q 435.45 559.7 442.3 570.75 448.4 580.55 448.4 594.5 448.4 610.5 442.3 619.95 435.8 630.05 423.55 630.05 410.85 630.05 404.4 618.2 399.3 608.75 399.3 594.5 399.3 580.7 404.65 571.35 411.2 560.05 423.55 560.05 M 397.55 398.7 L 384 398.7 Q 381.75 398.7 381.25 399.75 380.5 400.1 380.25 401.45 380.05 402.05 380.05 402.6 L 380.05 498 Q 380.05 500.25 381.25 500.8 381.75 501.9 384 501.9 L 397.55 501.9 Q 399.8 501.9 400.4 500.8 401.55 500.25 401.55 498 L 401.55 402.6 Q 401.55 400.35 400.4 399.75 399.8 398.7 397.55 398.7 M 461.4 429.7 Q 457.45 428.55 453.2 428.3 450.25 428.05 441.65 428.05 427.85 428.05 418.45 433.05 415.05 435.5 414.55 436.5 L 414.55 498 Q 414.55 500.25 415.1 500.8 416.2 501.9 418.45 501.9 L 432.6 501.9 Q 434.85 501.9 435.95 500.8 436.55 500.25 436.55 498 L 436.55 450.55 Q 436.55 446.55 438.7 444.2 441.15 441.6 445.55 441.6 454.6 441.6 454.6 450.55 L 454.6 498 Q 454.6 500.25 455.1 500.8 456.3 501.9 458.55 501.9 L 472.7 501.9 Q 474.95 501.9 475.45 500.8 476.6 500.25 476.6 498 L 476.6 450.55 Q 476.6 443.35 473.45 438.25 469.6 432.05 461.4 429.7 M 562.95 571.35 L 562.95 574.2 554.5 574.2 Q 554.1 574.2 554 574.25 553.9 574.35 553.9 574.75 553.6 574.75 553.5 574.85 553.4 574.95 553.4 575.3 L 552.25 588.85 552.25 590 Q 552.85 590.6 553.4 590.6 L 563.55 590 Q 563.55 615.95 562.95 643.6 562.95 645.3 563.55 645.9 564.7 647.05 566.4 647.05 L 581.6 646.45 Q 583.3 646.45 584.45 645.9 584.95 644.8 584.95 643.05 584.45 614.85 584.45 590 L 594.55 590.6 Q 595.75 590.6 595.75 590 596.25 590 596.25 588.85 L 597.4 575.85 597.4 574.75 Q 597.1 574.45 596.6 574.25 L 596.25 574.2 584.95 574.2 584.95 570.85 Q 584.95 564.15 586.1 562.5 587.7 560.05 594.05 560.05 L 598.5 560.05 598.5 558.95 599.7 545.4 599.7 543.75 598.5 543.75 Q 595.75 543.15 590.05 543.15 576.75 543.15 570.9 547.65 565.3 552.2 563.8 558.65 562.95 562.05 562.95 571.35 M 511.6 593.45 L 500.3 575.85 Q 500.3 575.6 499.95 575.35 499.35 574.95 499.2 574.75 498.6 574.2 497.55 574.2 L 477.2 574.2 Q 476.05 574.2 476.05 574.75 475.35 575.45 475.7 576.1 L 476.6 577.05 499.2 608.65 474.95 643.6 Q 473.5 645.05 474.35 645.9 474.35 646.45 476.05 646.45 L 496.35 646.45 498.05 644.8 511.6 623.9 524.65 644.8 Q 524.65 645.4 525.7 646.45 L 547.15 646.45 Q 547.3 646.45 547.95 646.7 548.3 646.8 548.3 646.45 549.05 645.7 549 645.05 548.9 644.8 548.3 643.6 L 524.05 608.65 546.65 577.6 Q 547.7 576.35 547.15 575.35 546.8 574.6 546.15 574.35 L 545.45 574.2 526.9 574.2 Q 525.15 574.2 524.65 574.75 524.2 574.75 523.8 575.35 523.45 575.95 523.45 576.45 L 511.6 593.45 M 528 429.7 L 528 428.05 515.6 428.05 516.1 399.2 Q 516.1 397.5 515.6 396.95 515 396.45 513.35 396.45 L 496.35 400.35 Q 495.7 400.35 495.35 400.7 495.1 400.95 494.7 401.45 494.1 402.05 494.1 403.2 L 494.1 428.05 485.05 428.05 485.05 429.15 483.95 441 483.95 442.1 Q 484.5 442.7 485.05 442.7 L 494.1 442.1 493.5 476.75 Q 493.7 484.35 494.7 487.85 497.8 497.4 510.4 500.55 521.35 503.4 529.05 500.25 529.5 500.25 529.55 500.05 529.65 500 529.65 499.15 L 530.25 485 529.05 485 Q 525.55 486.25 521.2 485.6 516.7 484.5 515.85 480.9 515.6 479.85 515.6 471.45 L 515.6 442.1 524.65 442.7 Q 525.7 442.7 526.3 442.1 526.3 441.6 526.8 441 L 528 429.7 M 597.9 444.35 Q 590.65 426.85 570.3 426.85 553.4 426.85 544.2 437.85 535.85 447.85 535.85 464.1 535.85 485.45 549.5 495.05 559.2 501.9 573.65 501.9 581.95 501.9 590.3 499.3 594.65 498 598 496.3 L 598 494.65 599.1 481.65 Q 599.1 481.1 598.5 480.5 L 597.4 480.5 Q 592.55 483.15 588.95 484.35 583.55 486.1 577.1 486.1 565.9 486.1 560.95 479.25 557.95 475.15 557.95 470.35 L 598.5 469.8 Q 599.7 469.8 601.35 468.1 L 601.35 465.25 Q 601.35 452.7 597.9 444.35 M 569.2 441.5 Q 579.95 441.5 579.95 456.25 L 557.95 456.8 Q 557.95 451.9 559.95 447.7 562.95 441.5 569.2 441.5 M 307.7 430.3 Q 290.3 412.65 267.8 403.05 244.55 393 219.2 393 193.6 393 170.35 403.05 147.85 412.65 130.5 430.3 113.2 447.85 103.65 470.65 93.85 494.2 93.85 520 93.85 545.75 103.65 569.25 113.2 592 130.5 609.5 147.85 626.95 170.35 636.5 193.6 646.45 219.2 646.45 244.55 646.45 267.8 636.5 290.3 626.95 307.7 609.5 325.1 592 334.65 569.25 344.5 545.75 344.5 520 344.5 494.2 334.65 470.65 325 447.85 307.7 430.3 M 253.8 456 Q 268.65 469.85 269.45 490.1 L 269.45 491.2 244.05 491.2 Q 243.45 490.7 243.45 490.1 242.2 480.65 235.35 474.45 228.5 468.1 219.2 468.1 209.55 468.1 202.6 474.45 195.85 480.65 194.95 490.1 194.95 490.45 194.7 490.7 194.35 490.95 194.35 491.2 L 169 491.2 Q 169 490.95 168.75 490.7 168.4 490.45 168.4 490.1 169.65 469.8 184.3 456 198.85 442.1 219.2 442.1 239.2 442.1 253.8 456 M 202.6 513.6 Q 209.5 520 219.2 520 228.4 520 235.35 513.6 242.2 507.35 243.45 498 243.45 497.9 243.55 497.75 243.7 497.5 244.05 497.5 244.05 497.15 244.35 497 L 244.6 496.9 268.3 496.9 Q 268.9 496.9 269.45 497.4 L 269.45 498.55 Q 268.65 511.55 261.85 522.55 255.35 533.35 244.6 539.8 255.35 546.25 261.85 557.05 268.65 568 269.45 580.95 L 269.45 586.05 Q 268.9 586.65 268.3 586.65 L 244.6 586.65 Q 244.05 586.65 244.05 586.05 243.7 586.05 243.55 585.8 L 243.45 585.5 243.45 580.95 Q 242.6 571.7 235.6 565.3 228.55 558.95 219.2 558.95 209.55 558.95 202.6 565.3 195.75 571.6 194.95 580.95 L 194.95 585.5 194.35 586.05 Q 193.85 586.65 193.25 586.65 L 169.5 586.65 168.4 585.5 168.4 580.95 Q 169.25 567.9 176 557.05 182.7 546.15 193.85 539.8 182.7 533.35 176 522.55 169.25 511.6 168.4 498.55 168.4 498.25 168.75 497.8 L 169.5 496.9 193.75 496.9 194.95 498 Q 195.75 507.35 202.6 513.6 M 677.55 578.1 Q 674.15 580.55 673.65 581.55 L 673.65 642.55 Q 673.65 644.7 674.2 645.9 674.9 646.65 675.9 646.65 676.5 646.65 677.55 646.45 L 691.7 646.45 Q 692.3 646.45 693.4 646.55 694.4 646.55 695.05 645.9 695.65 644.7 695.65 642.55 L 695.65 595.1 Q 695.65 592 697.75 589.9 699.9 587.75 703.6 587.75 707.5 587.75 709.6 589.9 711.45 591.9 711.45 595.1 L 711.45 642.55 Q 711.45 644.7 712.55 645.9 712.85 646.65 713.8 646.65 714.3 646.65 715.4 646.45 L 729.5 646.45 Q 730.1 646.45 731.2 646.55 732.2 646.55 732.85 645.9 733.45 644.7 733.45 642.55 L 733.45 595.1 Q 733.45 592 735.55 589.9 737.7 587.75 741.4 587.75 745.35 587.75 747.4 589.9 749.25 591.9 749.25 595.1 L 749.25 642.55 Q 749.25 644.7 750.35 645.9 750.7 646.65 751.6 646.65 752.1 646.65 753.2 646.45 L 767.35 646.45 Q 767.9 646.45 769.25 646.55 770.35 646.55 770.7 645.9 771.45 645.15 771.45 643.95 771.25 642.8 771.25 642.55 L 771.25 595.6 Q 771.25 586 766.6 580.4 760.65 573.1 747.6 573.1 735.3 573.1 728.35 577.05 724.85 579.05 723.85 580.95 719.75 576.45 711.85 574.2 706 572.5 700.75 572.5 688 572.5 677.55 578.1 M 658.4 583.2 Q 655.5 579.1 650.95 576.95 644.2 573.6 632.95 573.6 625.35 573.6 619 574.75 615.05 575.55 607.55 577.6 607.05 578.1 606.45 578.1 L 605.85 592.85 Q 605.85 593.45 606.45 593.95 606.45 594.25 606.8 594.2 607.45 593.95 607.55 593.95 613.55 591.65 616.85 590.85 623.6 588.9 629.05 588.9 632.55 588.9 634.3 589.4 636.3 590 637.5 591.65 639.15 593.35 639.15 597.35 619.85 600.1 612.65 603.4 598 609.9 598 624.95 598 635.35 604.95 642.1 611.55 648.7 621.1 648.7 627.7 648.7 633.2 645.9 635.65 644.6 639.75 641.35 L 639.75 643.05 Q 639.75 645.3 640.35 645.9 641.35 647.05 642 647.05 L 658.4 646.45 Q 660.1 646.45 660.65 645.9 661.75 644.6 661.75 643.05 L 661.75 602.45 Q 661.75 595.1 661.35 592 660.65 587.05 658.4 583.2 M 627.35 632.9 Q 623.25 632.9 620.65 630.75 617.75 628.3 617.75 623.9 617.75 617.2 624.85 613.65 629.2 611.5 639.15 609.75 L 639.15 629 Q 636.15 630.75 634.05 631.55 630.7 632.9 627.35 632.9 M 658.4 430.8 Q 655.4 429.3 649.35 428.55 644.85 427.95 640.35 427.95 634.9 427.95 629.45 428.8 621.2 430.15 616.05 433.05 612.65 435.4 612.05 436.5 611.55 437.6 611.55 440.45 L 611.55 498 Q 611.55 500.25 612.65 500.8 613.25 501.9 616.05 501.9 L 630.15 501.9 Q 632.4 501.9 632.95 500.8 634.15 500.25 634.15 498 L 634.15 452.8 Q 634 452.15 634 451.2 634 449.4 634.65 448.3 635.15 446.45 636.8 445.2 638.65 443.75 641.4 443.75 644.5 443.75 648.95 444.2 654.15 444.7 657.25 445.55 657.25 445.95 657.55 445.95 658 445.95 658.4 445.55 658.9 445.55 658.9 444.95 L 659.5 432 Q 658.9 430.8 658.4 430.8 M 809.1 427.45 Q 773.5 427.45 773.5 464.7 773.5 501.9 809.1 501.9 845.2 501.9 845.2 464.7 845.2 427.45 809.1 427.45 M 823.8 463.6 Q 823.8 473.95 820.7 479.85 816.95 486.7 809.1 486.7 801.9 486.7 797.95 479.85 794.45 473.55 794.45 463.6 794.45 454.15 797.95 448.35 801.8 442.1 809.1 442.1 823.8 442.1 823.8 463.6 M 759.2 435.75 Q 753.1 428.55 739.65 428.55 727.7 428.55 720.65 432.25 L 715.95 435.9 Q 712.2 431.8 704.4 429.65 698.65 428.05 693.4 428.05 679.05 428.05 670.2 433.05 666.75 435.5 666.25 436.5 665.95 437.15 666 438.25 666.25 440.2 666.25 440.45 L 666.25 498 Q 666.25 498.3 666.1 499.4 666.1 500.5 666.85 500.8 667.45 501.9 670.2 501.9 L 684.35 501.9 Q 686.6 501.9 687.2 500.8 688.25 500.25 688.25 498 L 688.25 450.55 Q 688.25 447.1 690.35 444.95 692.55 442.7 696.2 442.7 700.25 442.7 702.25 444.95 704.1 447.05 704.1 450.55 L 704.1 498 Q 704.1 500.25 704.65 500.8 705.75 501.9 708 501.9 L 722.15 501.9 Q 724.4 501.9 725 500.8 726.1 500.25 726.1 498 L 726.1 450.55 Q 726.1 447.1 728.2 444.95 730.35 442.7 734.05 442.7 738.05 442.7 740.05 444.95 741.9 447.05 741.9 450.55 L 741.9 498 Q 741.9 500.25 742.5 500.8 743.55 501.9 745.85 501.9 L 759.95 501.9 Q 762.25 501.9 763.4 500.8 763.9 500.25 763.9 498 L 763.9 450.55 Q 763.9 441.25 759.2 435.75 M 814.75 420.7 Q 815.85 420.5 815.85 419.5 816.25 419.2 819.8 411.9 823.2 404.7 823.2 404.3 823.65 404.3 823.65 404.05 823.65 403.7 823.2 403.7 822.65 403.7 807.4 407.15 806.65 407.15 806.4 407.45 806.15 407.7 806.3 407.7 806.3 408.2 802.3 419.5 801.3 420.7 802.9 420.7 L 814.75 420.7 M 901.1 429.7 Q 897.6 428.55 893.15 428.3 890.05 428.05 881.35 428.05 867.45 428.05 858.75 433.05 855.6 434.75 854.85 436.5 854.25 437.6 854.25 440.45 L 854.25 498 Q 854.25 500.25 855.4 500.8 855.95 501.9 858.2 501.9 L 872.9 501.9 Q 875.15 501.9 875.65 500.8 876.85 500.25 876.85 498 L 876.85 450.55 Q 876.85 446.6 878.95 444.2 881.3 441.6 885.3 441.6 894.35 441.6 894.35 450.55 L 894.35 498 Q 894.35 500.25 894.9 500.8 896 501.9 898.25 501.9 L 912.4 501.9 Q 914.65 501.9 915.85 500.8 916.35 500.25 916.35 498 L 916.35 450.55 Q 916.35 433.8 901.1 429.7 Z"/>
</g>
</defs>
<g transform="matrix(1,0,0,1,0,0)">
<use xlink:href="#l1"/>
</g>
<g transform="matrix(1,0,0,1,0,0)">
<use xlink:href="#l0"/>
</g>
</svg>
