<svg xmlns="http://www.w3.org/2000/svg" xmlns:xlink="http://www.w3.org/1999/xlink" width="100%" height="100%" viewBox="0 0 1024 320">
<!-- Vectorization by Rodrigo Polo https://github.com/rodrigopolo/logotipos-politicos -->
<defs>
<g id="l">
<path fill="#88BC56" stroke="none" d="M 304.75 98.95 Q 293.05 71.25 272 49.9 250.85 28.45 223.5 16.8 195.2 4.55 164.4 4.55 133.3 4.55 105 16.8 77.65 28.45 56.55 49.9 35.55 71.25 23.9 98.95 12 127.6 12 158.95 12 190.25 23.9 218.85 35.55 246.5 56.55 267.75 77.65 289 105 300.6 133.3 312.7 164.4 312.7 195.2 312.7 223.5 300.6 250.85 289 272 267.75 293.15 246.5 304.75 218.85 316.75 190.25 316.75 158.95 316.75 127.6 304.75 98.95 M 164.4 64.25 Q 188.7 64.25 206.45 81.15 224.5 98 225.5 122.6 L 225.5 123.95 194.6 123.95 Q 193.9 123.35 193.9 122.6 192.35 111.15 184.05 103.6 175.7 95.85 164.4 95.85 152.65 95.85 144.2 103.6 136 111.15 134.9 122.6 134.9 123.05 134.6 123.35 134.2 123.65 134.2 123.95 L 103.35 123.95 Q 103.35 123.65 103.05 123.35 102.65 123.05 102.65 122.6 104.15 97.95 121.95 81.15 139.65 64.25 164.4 64.25 M 224.1 130.9 Q 224.85 130.9 225.5 131.5 L 225.5 132.9 Q 224.5 148.7 216.25 162.05 208.35 175.2 195.3 183.05 208.35 190.9 216.25 204 224.5 217.3 225.5 233.05 L 225.5 239.25 Q 224.85 240 224.1 240 L 195.3 240 Q 194.6 240 194.6 239.25 194.2 239.25 194 238.95 L 193.9 238.6 193.9 233.05 Q 192.85 221.8 184.35 214.05 175.75 206.3 164.4 206.3 152.65 206.3 144.2 214.05 135.9 221.7 134.9 233.05 L 134.9 238.6 134.2 239.25 Q 133.6 240 132.85 240 L 104 240 102.65 238.6 102.65 233.05 Q 103.65 217.2 111.9 204 120 190.75 133.6 183.05 120 175.2 111.9 162.05 103.65 148.75 102.65 132.9 102.65 132.55 103.05 132 L 104 130.9 133.45 130.9 134.9 132.2 Q 135.9 143.6 144.2 151.2 152.6 158.95 164.4 158.95 175.6 158.95 184.05 151.2 192.35 143.6 193.9 132.2 193.9 132.1 194 131.9 194.2 131.6 194.6 131.6 194.6 131.2 195 131 L 195.3 130.9 224.1 130.9 M 474.6 249.55 Q 474.6 223.2 459.5 205.2 442.4 185.1 412.85 185.1 385 185.1 368.05 202.65 351.05 220.25 351.05 249.55 351.05 280.6 368.05 298.3 384.6 315.45 412.85 315.45 439.9 315.45 456.9 298.3 474.6 280.15 474.6 249.55 M 412.85 207.65 Q 427.3 207.25 435.65 220.65 443.05 232.6 443.05 249.55 443.05 269 435.65 280.45 427.75 292.75 412.85 292.75 397.4 292.75 389.55 278.35 383.35 266.85 383.35 249.55 383.35 232.75 389.85 221.4 397.85 207.65 412.85 207.65 M 476.25 227.15 L 477.35 228.3 504.85 266.75 475.35 309.25 Q 473.6 311 474.6 312 474.6 312.7 476.7 312.7 L 501.35 312.7 503.45 310.7 519.9 285.3 535.75 310.7 Q 535.75 311.4 537.05 312.7 L 563.1 312.7 Q 563.3 312.7 564.1 313 564.5 313.1 564.5 312.7 565.45 311.8 565.35 311 565.25 310.7 564.5 309.25 L 535.05 266.75 562.5 229 Q 563.8 227.45 563.1 226.25 562.7 225.35 561.9 225.05 L 561.05 224.85 538.5 224.85 Q 536.4 224.85 535.75 225.55 535.2 225.55 534.75 226.25 534.3 227 534.3 227.6 L 519.9 248.25 506.15 226.85 Q 506.15 226.55 505.75 226.25 505 225.75 504.85 225.55 504.1 224.85 502.8 224.85 L 478.1 224.85 Q 476.7 224.85 476.7 225.55 475.85 226.4 476.25 227.15 M 381.25 11.5 L 364.75 11.5 Q 362.05 11.5 361.4 12.8 360.5 13.2 360.2 14.85 359.95 15.6 359.95 16.25 L 359.95 132.2 Q 359.95 134.95 361.4 135.65 362.05 136.95 364.75 136.95 L 381.25 136.95 Q 384 136.95 384.7 135.65 386.1 134.95 386.1 132.2 L 386.1 16.25 Q 386.1 13.5 384.7 12.8 384 11.5 381.25 11.5 M 458.85 49.2 Q 454.05 47.8 448.9 47.5 445.3 47.2 434.85 47.2 418.1 47.2 406.65 53.25 402.5 56.25 401.9 57.45 L 401.9 132.2 Q 401.9 134.95 402.6 135.65 403.9 136.95 406.65 136.95 L 423.85 136.95 Q 426.6 136.95 427.95 135.65 428.65 134.95 428.65 132.2 L 428.65 74.55 Q 428.65 69.65 431.25 66.8 434.25 63.65 439.6 63.65 450.6 63.65 450.6 74.55 L 450.6 132.2 Q 450.6 134.95 451.2 135.65 452.65 136.95 455.4 136.95 L 472.6 136.95 Q 475.35 136.95 475.95 135.65 477.35 134.95 477.35 132.2 L 477.35 74.55 Q 477.35 65.8 473.5 59.6 468.85 52.05 458.85 49.2 M 627 189.85 L 627 187.85 625.55 187.85 Q 622.2 187.1 615.3 187.1 599.1 187.1 592 192.6 585.2 198.1 583.35 205.95 582.35 210.1 582.35 221.4 L 582.35 224.85 572.05 224.85 Q 571.55 224.85 571.45 224.9 571.35 225.05 571.35 225.55 570.95 225.55 570.85 225.65 570.7 225.75 570.7 226.2 L 569.35 242.65 569.35 244.05 Q 570.05 244.8 570.7 244.8 L 583.05 244.05 Q 583.05 275.6 582.35 309.25 582.35 311.3 583.05 312 584.45 313.4 586.55 313.4 L 605 312.7 Q 607.1 312.7 608.45 312 609.1 310.7 609.1 308.55 608.45 274.25 608.45 244.05 L 620.75 244.8 Q 622.2 244.8 622.2 244.05 622.8 244.05 622.8 242.65 L 624.2 226.85 624.2 225.55 Q 623.85 225.15 623.25 224.9 L 622.8 224.85 609.1 224.85 609.1 220.8 Q 609.1 212.65 610.5 210.65 612.45 207.65 620.15 207.65 L 625.55 207.65 625.55 206.3 627 189.85 M 539.85 49.2 L 539.85 47.2 524.75 47.2 525.35 12.1 Q 525.35 10.05 524.75 9.4 524.05 8.75 522.05 8.75 L 501.35 13.5 Q 500.55 13.5 500.15 13.95 499.85 14.25 499.35 14.85 498.65 15.6 498.65 16.95 L 498.65 47.2 487.6 47.2 487.6 48.5 486.3 62.95 486.3 64.25 Q 486.95 65 487.6 65 L 498.65 64.25 497.9 106.4 Q 498.15 115.65 499.35 119.9 503.1 131.5 518.45 135.3 531.75 138.8 541.1 134.95 541.65 134.95 541.75 134.7 541.85 134.65 541.85 133.6 L 542.6 116.4 541.1 116.4 Q 536.85 117.95 531.55 117.15 526.1 115.8 525.05 111.45 524.75 110.15 524.75 99.95 L 524.75 64.25 535.75 65 Q 537.05 65 537.8 64.25 537.8 63.65 538.4 62.95 L 539.85 49.2 M 629 92.4 Q 629 77.15 624.85 67 616 45.75 591.25 45.75 570.7 45.75 559.55 59.1 549.4 71.25 549.4 91 549.4 116.95 566 128.65 577.8 136.95 595.35 136.95 605.45 136.95 615.6 133.8 620.9 132.2 624.95 130.15 L 624.95 128.15 626.3 112.35 Q 626.3 111.7 625.55 110.95 L 624.2 110.95 Q 618.3 114.15 613.95 115.65 607.4 117.75 599.55 117.75 585.9 117.75 579.9 109.45 576.25 104.45 576.25 98.6 L 625.55 97.95 Q 627 97.95 629 95.85 L 629 92.4 M 578.7 71.05 Q 582.35 63.55 589.95 63.55 603 63.55 603 81.45 L 576.25 82.15 Q 576.25 76.2 578.7 71.05 M 701.95 246.5 Q 701.1 240.5 698.4 235.8 694.85 230.8 689.35 228.2 681.1 224.15 667.45 224.15 658.2 224.15 650.5 225.55 645.7 226.5 636.55 229 635.95 229.6 635.2 229.6 L 634.5 247.55 Q 634.5 248.25 635.2 248.85 635.2 249.25 635.65 249.15 636.45 248.85 636.55 248.85 643.85 246.05 647.85 245.1 656.05 242.75 662.7 242.75 666.95 242.75 669.1 243.35 671.5 244.05 672.95 246.05 675 248.15 675 253 651.5 256.35 642.75 260.35 624.95 268.25 624.95 286.55 624.95 299.2 633.4 307.4 641.4 315.45 653.05 315.45 661.05 315.45 667.75 312 670.7 310.45 675.7 306.5 L 675.7 308.55 Q 675.7 311.3 676.45 312 677.65 313.4 678.45 313.4 L 698.4 312.7 Q 700.45 312.7 701.1 312 702.45 310.45 702.45 308.55 L 702.45 259.2 Q 702.45 250.25 701.95 246.5 M 675 268.05 L 675 291.5 Q 671.35 293.6 668.8 294.6 664.7 296.2 660.65 296.2 655.65 296.2 652.5 293.6 648.95 290.65 648.95 285.3 648.95 277.15 657.6 272.8 662.9 270.2 675 268.05 M 806.85 223.5 Q 791.9 223.5 783.45 228.3 779.15 230.75 777.95 233.05 772.95 227.6 763.35 224.85 756.25 222.8 749.85 222.8 734.35 222.8 721.65 229.6 717.55 232.6 716.9 233.8 L 716.9 307.95 Q 716.9 310.55 717.6 312 718.45 312.95 719.65 312.95 720.4 312.95 721.65 312.7 L 738.85 312.7 Q 739.6 312.7 740.95 312.8 742.15 312.8 742.95 312 743.65 310.55 743.65 307.95 L 743.65 250.25 Q 743.65 246.5 746.2 243.95 748.85 241.35 753.35 241.35 758.1 241.35 760.65 243.95 762.9 246.35 762.9 250.25 L 762.9 307.95 Q 762.9 310.55 764.2 312 764.6 312.95 765.75 312.95 766.35 312.95 767.7 312.7 L 784.85 312.7 Q 785.55 312.7 786.9 312.8 788.1 312.8 788.9 312 789.65 310.55 789.65 307.95 L 789.65 250.25 Q 789.65 246.5 792.2 243.95 794.8 241.35 799.3 241.35 804.1 241.35 806.6 243.95 808.85 246.35 808.85 250.25 L 808.85 307.95 Q 808.85 310.55 810.2 312 810.6 312.95 811.7 312.95 812.3 312.95 813.65 312.7 L 830.85 312.7 Q 831.5 312.7 833.15 312.8 834.5 312.8 834.9 312 835.85 311.1 835.85 309.65 835.6 308.25 835.6 307.95 L 835.6 250.85 Q 835.6 239.2 829.95 232.4 822.7 223.5 806.85 223.5 M 687.4 47.8 Q 681.9 47.05 676.45 47.05 669.8 47.05 663.2 48.1 653.15 49.75 646.9 53.25 642.75 56.1 642.05 57.45 641.4 58.8 641.4 62.25 L 641.4 132.2 Q 641.4 134.95 642.75 135.65 643.5 136.95 646.9 136.95 L 664.05 136.95 Q 666.75 136.95 667.45 135.65 668.9 134.95 668.9 132.2 L 668.9 77.25 Q 668.7 76.5 668.7 75.35 668.7 73.15 669.5 71.8 670.1 69.55 672.1 68.05 674.35 66.25 677.7 66.25 681.5 66.25 686.9 66.8 693.2 67.45 697 68.45 697 68.95 697.35 68.95 697.9 68.95 698.4 68.45 699 68.45 699 67.75 L 699.7 52 Q 699 50.55 698.4 50.55 694.75 48.7 687.4 47.8 M 881.6 46.45 Q 838.3 46.45 838.3 91.75 838.3 136.95 881.6 136.95 925.5 136.95 925.5 91.75 925.5 46.45 881.6 46.45 M 868.05 71.85 Q 872.75 64.25 881.6 64.25 899.5 64.25 899.5 90.4 899.5 103 895.7 110.15 891.15 118.5 881.6 118.5 872.85 118.5 868.05 110.15 863.8 102.5 863.8 90.4 863.8 78.9 868.05 71.85 M 826.65 74.55 Q 826.65 63.25 820.95 56.55 813.5 47.8 797.15 47.8 782.65 47.8 774.05 52.3 L 768.35 56.75 Q 763.8 51.75 754.3 49.15 747.3 47.2 740.95 47.2 723.5 47.2 712.75 53.25 708.55 56.25 707.95 57.45 707.55 58.25 707.6 59.6 707.95 61.95 707.95 62.25 L 707.95 132.2 Q 707.95 132.6 707.75 133.9 707.75 135.25 708.65 135.65 709.4 136.95 712.75 136.95 L 729.95 136.95 Q 732.65 136.95 733.4 135.65 734.65 134.95 734.65 132.2 L 734.65 74.55 Q 734.65 70.35 737.25 67.75 739.9 65 744.35 65 749.25 65 751.7 67.75 753.95 70.3 753.95 74.55 L 753.95 132.2 Q 753.95 134.95 754.6 135.65 755.95 136.95 758.7 136.95 L 775.9 136.95 Q 778.65 136.95 779.35 135.65 780.7 134.95 780.7 132.2 L 780.7 74.55 Q 780.7 70.35 783.25 67.75 785.85 65 790.35 65 795.2 65 797.65 67.75 799.9 70.3 799.9 74.55 L 799.9 132.2 Q 799.9 134.95 800.65 135.65 801.9 136.95 804.7 136.95 L 821.85 136.95 Q 824.65 136.95 826.05 135.65 826.65 134.95 826.65 132.2 L 826.65 74.55 M 894.6 27.55 Q 898.75 18.8 898.75 18.3 899.3 18.3 899.3 18 899.3 17.6 898.75 17.6 898.1 17.6 879.55 21.8 878.65 21.8 878.3 22.15 878 22.45 878.2 22.45 878.2 23.05 873.35 36.8 872.1 38.25 874.05 38.25 L 888.45 38.25 Q 889.8 38 889.8 36.8 890.3 36.45 894.6 27.55 M 993.45 49.2 Q 989.2 47.8 983.8 47.5 980 47.2 969.45 47.2 952.55 47.2 941.95 53.25 938.15 55.35 937.25 57.45 936.5 58.8 936.5 62.25 L 936.5 132.2 Q 936.5 134.95 937.9 135.65 938.55 136.95 941.3 136.95 L 959.15 136.95 Q 961.9 136.95 962.5 135.65 964 134.95 964 132.2 L 964 74.55 Q 964 69.75 966.55 66.8 969.4 63.65 974.25 63.65 985.25 63.65 985.25 74.55 L 985.25 132.2 Q 985.25 134.95 985.9 135.65 987.25 136.95 990 136.95 L 1007.2 136.95 Q 1009.95 136.95 1011.4 135.65 1012 134.95 1012 132.2 L 1012 74.55 Q 1012 54.15 993.45 49.2 Z"/>
</g>
</defs>
<g transform="matrix(1,0,0,1,0,0)">
<use xlink:href="#l"/>
</g>
</svg>
