<svg xmlns="http://www.w3.org/2000/svg" xmlns:xlink="http://www.w3.org/1999/xlink" width="100%" height="100%" viewBox="0 0 1024 600">
<!-- Vectorization by Rodrigo Polo https://github.com/rodrigopolo/logotipos-politicos -->
<defs>
<g id="l">
<path fill="#1474C4" stroke="none" d="M 389.75 506.95 Q 389.5 507.3 387.9 506.95 388.1 508.45 390.8 507.3 L 390.8 507.7 391.15 507.7 391.15 506.95 394.05 506.95 Q 393.7 505.7 391.75 505.7 L 391.75 505.35 389.5 505.35 390.15 506.95 389.75 506.95 M 386.95 504.05 L 386.5 504.05 386.5 503.75 386.3 504.05 Q 386.3 502.45 383.3 502.45 383.2 501.25 381.15 501.8 379 502.55 378.45 503.2 L 379.85 502.9 379.85 502.45 Q 384.9 502.45 384.9 505.35 L 388.1 505.05 Q 388.1 503.65 386.95 504.5 L 386.95 504.05 M 387.6 445.2 L 387.6 445.4 Q 387.8 446.6 386.6 447.35 L 387.15 447.05 386.95 447.65 387.6 447.65 Q 387.6 447.35 388.1 446.8 388.85 445.75 389.2 445.75 L 388.75 446.8 Q 390.5 447.65 390.8 445.75 L 390.4 446.05 389.75 446.05 389.75 445.4 Q 389.2 445.4 389.2 444.45 L 388.1 444.45 388.1 443.8 387.6 445.2 M 385.35 429.1 L 385.35 429.3 Q 386.5 429.3 386.5 427.5 386.3 427.7 385.55 427.7 385.55 428.35 384.7 429.1 L 385.35 429.1 M 396.2 426.1 L 396.6 426.1 Q 396.6 425.55 395.2 425.55 L 395.2 425.1 Q 392.4 425.1 392.4 426.1 L 391.15 426.1 391.15 426.4 390.8 426.4 389.2 426.1 390.15 425.55 Q 389.2 425.55 389.2 425.1 L 387.9 425.55 387.9 425.1 386.95 425.1 Q 386.1 425.1 385.95 425.85 L 387.15 426.4 387.15 426.1 Q 388.45 426.5 388.1 426.75 L 387.9 428 387.9 429.1 Q 388.1 428.65 388.55 429.1 L 389.75 428 389.75 428.75 Q 390.8 428.75 391.15 428 L 391.15 428.35 Q 393.581640625 428.35 393.6 427.5 L 393.6 427.7 Q 395.65 428.35 395.65 427.15 L 395.95 427.15 395.95 426.75 396.2 426.75 396.2 426.1 M 382.1 439.3 Q 382.1 438 380.7 438 380.7 439.6 379.55 439.6 L 380.05 440.35 Q 379.95 440.35 380.05 440.6 L 382.1 439.6 381.7 439.3 382.1 439.3 M 376.65 434.8 L 376.65 435.2 376.85 435.2 Q 377.9 433.15 376.65 433.15 375.9 433.9 375.9 435.2 L 376.65 434.8 M 374.05 435.2 Q 373.6 434.25 373.1 435.55 373 435.65 372.45 436.4 L 371.45 436.8 370.2 438 370.2 438.45 369.45 438.45 369.45 438.75 368.25 440.05 Q 369.2 440.05 369.2 439.6 L 369.85 439.6 369.85 439.3 370.2 439.3 Q 371.05 439.3 371.05 438.95 L 371.45 439.3 371.45 438.95 372 438.95 Q 372 440.35 369.85 440.05 367.3 440.05 367.8 442.2 L 369.2 442.2 368.8 442.85 369.2 442.85 Q 369.65 443.4 369.85 443.4 370.2 443.25 370.2 442.5 L 370.85 442.5 370.85 442.2 371.45 442.2 375 440.05 Q 375.25 440.6 376.3 440.6 L 376.85 440.6 376.85 440.35 377.25 440.35 377.9 440.05 377.9 439.3 378.25 439.3 378.25 438.95 377.9 438.95 378.25 438.75 Q 378.45 438.55 378.65 438.75 378.9 438.85 378.9 439.3 L 379.1 438 378.45 438 Q 379 437.45 377.25 437.7 L 376.85 435.2 Q 375.75 436.4 374.7 436.4 L 375.25 435.2 375.25 434.45 374.05 435.2 M 380.5 432.85 L 381.15 432.85 Q 380.9 433.4 379.85 433.9 L 379.85 433.6 379.1 433.6 379.1 434.8 Q 380.3 434.45 380.7 435.2 L 380.5 435.75 380.7 435.75 380.7 436.05 383.3 433.9 383.3 433.6 383.7 433.6 383.7 432.85 383.05 432.55 Q 383.3 432.1 383.3 431.25 L 383.05 431.25 383.3 430.4 Q 382.1 430.7 382.1 431.55 380.5 431.55 380.5 432.85 M 384.7 426.4 L 384.7 426.1 384.35 426.1 Q 383.4 427.15 383.05 427.15 L 383.05 428 382.75 427.5 382.1 427.7 381.7 427.7 382.1 428.35 Q 380.7 429.1 380.7 429.65 L 382.75 428.75 Q 381.55 429.4 382.1 429.95 385.2 429.95 384.7 426.4 M 399.2 418.35 L 398.85 418.65 392.75 421.25 392.4 422.3 394.55 421.05 394.35 422.3 394.55 421.9 394.55 422.3 395.2 422.3 Q 395.2 423.3 394.55 422.65 L 394.55 422.8 Q 394.53828125 422.312890625 394.05 422.85 L 394.05 422.65 Q 393.6 422.3 392.75 422.3 392 422.3 392 422.85 L 392.4 422.85 Q 392.4 423.4 391.35 424.25 390.4 424.45 390.4 425.55 391.35 425.55 391.35 424.8 L 391.75 424.8 391.75 425.1 392.4 424.8 392.4 425.1 393.6 424.45 Q 393.6 423.95 394.35 423.95 L 394.05 424.25 Q 394.9 424.25 395.95 423.95 L 396.6 423.95 396.2 424.45 397.25 423.95 397.8 423.95 398.45 422.65 397.25 422.3 398.45 421.9 Q 398.95 421.7 398.85 421.05 L 399.85 421.05 Q 399.85 419.95 400.45 420.7 L 400.45 420.3 401 419.95 Q 400.9 419.4 401.65 419.4 L 401.65 418.65 401.45 419.1 401.45 418.65 400.45 419.1 Q 400.8 418.45 400.8 418.05 L 400.45 418.05 399.85 418.35 399.2 418.35 M 471.7 479.25 L 471.35 477.45 Q 468.8 478.05 470.7 480.35 471.7 480.75 471.7 479.25 M 453.95 457.35 L 453.65 457.35 453.65 458.1 453.2 458.1 453.2 457.75 452.55 458.1 452.55 457.75 452.05 459.4 Q 452.7 459.7 453.2 459.4 L 452.55 460.55 452.55 461 Q 452.45 461 452.55 461.3 L 452.05 461.3 Q 452.539453125 461.8384765625 452.15 462.1 L 452.55 461.85 452.55 462.15 453 462.15 Q 453 462.95 455.6 461 L 455.25 460.55 455.6 460.55 455.6 458.1 456.2 458.1 455.8 456.7 455.25 456.7 454.85 456.5 454.6 456.5 454.6 456.7 453.95 456.5 453.95 456.7 453.65 456.7 453.95 457.35 M 456.85 450.55 L 456.85 451.65 Q 456.2 450.9 456.2 451.85 L 456.45 451.85 456.45 452.2 Q 455.8 452.2 455.8 452.5 455.8 452.85 456.2 453.25 L 456.2 453.8 455.8 453.8 455.8 454.55 456.45 454.55 456.2 454.85 Q 456.2 455.1 456.85 455.1 456.55 455.5 456.85 456.5 L 456.85 457 458.5 457 Q 457.85 458.1 458.8 457.75 L 458.8 458.95 Q 457.4 458.95 457.2 459.4 L 457.4 459.4 457.2 460.25 457.4 459.9 Q 457.4 460.55 456.85 461.3 456.55 461.85 457.2 462.15 L 457.2 461.55 459 461.55 Q 459 461.95 457.85 462.95 456 464.2 455.8 464.2 L 456.85 464.55 Q 456.85 463.25 458.05 463.8 459.35 463.8 459.65 463.45 L 459.65 463.15 461.25 463.15 461.25 462.95 Q 462 462.95 462 463.15 L 462.25 463.15 Q 462.9 463.15 462.9 462.6 L 462.25 462.6 463.3 461 Q 463.4 460.35 462.25 459.9 L 462.25 460.25 462 460.25 Q 461.25 459.25 461.25 458.65 L 462 458.95 Q 462 458.4 460.65 457 459 455.75 459 455.1 L 459 454.55 458.8 454.55 Q 459.65 453.6 459 452.2 L 457.4 452.95 458.05 450.9 457.2 450.9 457.2 450.55 456.85 450.55 M 409.5 463.15 L 409.5 462.95 407.9 466.15 408.1 466.15 407.9 466.7 Q 406.9 466.7 406.9 467.45 L 406.9 467.75 Q 406.15 467.75 406.5 468.6 407.45 469.15 407.45 468.3 L 408.55 468.3 408.55 468.6 410.15 468.3 410.45 468.3 Q 409.8 468.6 410.45 469.35 L 411.1 469.05 Q 411.75 468.75 411.75 468.3 L 412.1 468.3 412.7 467 411.75 467.45 412.1 467 411.3 467 411.3 466.35 411.75 466.35 411.75 465.85 Q 411.1 466.15 410.45 466.15 L 409.7 465.85 Q 410.15 465.05 409.5 465.4 L 408.85 465.85 408.85 465.4 Q 410.15 463.8 410.15 462.95 L 409.5 463.15 M 367.6 442.85 L 367.6 443.6 Q 368.05 443.6 368.25 443.8 368.9 442.85 367.8 442.85 L 367.6 442.85 M 405.3 455.75 L 405.85 455.75 Q 405.85 455.1 404.9 455.1 L 404.9 453.25 404.25 453.25 Q 404.9 451.85 404 451.85 L 404 450.05 Q 403.35 450.05 403.05 450.9 402.6 451.85 402.4 451.85 402.4 453.05 401 453.45 L 400.8 452.95 400.45 453.25 Q 400.45 452.5 399.85 452.5 399.2 452.3 399.2 451.65 L 399.4 451.65 399.2 450.55 Q 400.05 450.55 400.05 449.3 L 399.2 449.3 399.2 448.95 Q 398.55 448.95 398.2 448.4 397.35 447.35 396.8 447.35 396.5 448.3 395.2 447.65 L 395.2 448.1 393.6 448.1 392.95 448.4 393.4 448.95 392.95 448.95 392.75 450.05 392.75 451.85 391.35 453.8 391.75 453.8 391.75 454.1 Q 392.4 454.1 392.4 457.75 L 392 457.75 Q 392 458 391.35 458.95 390.6 459.7 390.4 459.7 L 389.5 460.25 389.5 461 Q 389.1 461.65 389.75 461.85 L 389.5 461.85 389.5 463.8 Q 389.75 463.8 388.55 465.4 387.6 465.05 387.15 464.55 386.85 463.45 386.5 463.45 388.85 459.9 386.3 459.9 L 386.3 459.7 384.9 459.9 Q 384.9 459.4 382.75 458.3 380.3 457.75 379.55 457.75 380.4 455.2 378.25 455.4 377.9 453.45 378.45 453.45 L 378.45 453.25 Q 378.65 453.25 379.85 451.85 380.7 450.9 380.7 450.25 L 381.45 450.25 381.45 450.05 381.7 450.05 381.7 449.7 382.1 449.7 382.1 448.95 383.3 448.95 383.3 448.65 Q 383.95 448.2 383.95 446.8 385.65 446.8 386.95 445.2 386.2 444.45 384.35 445.2 384.35 444.15 386.3 444.15 L 386.5 444.15 Q 386.5 445.3 387.15 444.45 388.1 444 387.9 443.25 L 387.6 443.25 Q 388.55 442.95 388.55 443.6 L 389.5 442.85 Q 388.1 442.85 389.2 442 L 389.75 442.5 Q 392.75 441.85 392.75 440.05 L 392 440.05 Q 392 438.85 392.4 438.45 L 392.75 437.15 392.4 437.15 392.4 436.8 392 436.8 392.4 436.4 392 436.4 392 436.05 Q 390.05 435.95 390.4 437.35 390.05 438.75 389.5 438.75 L 387.9 441.25 387.9 441.65 Q 386.5 441.65 386.95 440.05 387.9 438.1 387.9 437.7 385.95 438.35 385.95 439.85 385.75 437.7 384.9 437.7 384.9 436.8 385.55 436.8 L 386.3 435.75 385.95 435.75 Q 385.95 436.4 384.7 434.45 383.6 433.15 384.9 433.15 384.9 432.75 387.6 431.55 L 387.9 430.9 388.1 429.95 387.15 429.95 Q 387.15 429.65 386.3 429.65 L 386.3 429.95 Q 385 430.9 384.7 430.9 L 384.7 431.55 384.35 431.55 Q 384.35 434.45 383.3 434.45 L 383.7 435.2 Q 383.05 435.2 383.05 435.55 L 382.75 435.75 382.75 436.05 Q 382.75 437.6 382.3 438 L 382.1 438 Q 382.85 438.35 383.05 437.7 L 383.3 438.45 383.95 438 Q 383.95 439.3 383.05 438.75 L 383.05 439.6 382.75 439.6 382.75 440.05 383.3 439.6 383.05 440.35 Q 381.7 442 380.7 442 381.45 442.5 380.7 442.85 L 380.5 442.85 380.05 442.2 Q 380.7 441.85 380.7 440.9 L 380.05 441.25 Q 380.05 440.05 379.85 440.9 379.55 441.25 379.55 442 L 377.5 442.2 377.25 442.2 377.25 442.5 376.85 442.5 Q 376.65 442.85 375 442.2 L 374.25 442.2 374.7 441.25 373.6 441.25 373.6 441.65 373.1 441.65 Q 372.46015625 442.83125 371.8 442.85 L 372.45 442.85 Q 373.1 442.85 373.1 442.2 L 373.6 442.2 371.05 445.4 Q 371.05 443.15 370.4 443.6 370.4 444.9 367.2 444.9 367.2 443.7 367.6 443.6 365.25 443.6 364.6 444.15 L 362.75 446.8 362.75 447.05 Q 363.3 446.8 364.4 446.8 364.4 447.65 363.4 447.05 363.4 448.2 364.4 447.35 L 365.05 447.35 364.4 448.1 364.4 448.65 363.95 448.65 Q 362.75 448.1 362.75 449.3 L 363 449.3 361.8 450.05 362.35 449.3 362.35 448.95 Q 361.15 449.8 361.15 450.25 L 359.55 451.65 356.95 456.15 356.55 456.5 354.3 461 354.3 461.3 354.05 462.15 352.65 464.55 352.45 466.15 351.5 467.95 351.5 468.6 350.55 471.2 350.85 471.85 350.85 472.25 Q 351.7 472.25 351.05 473.15 L 350.85 473.15 350.85 473.45 349.45 474.4 347.3 490 347.3 490.55 347.85 490.55 Q 347.85 491.2 348.9 491.2 L 349.25 490.85 349.45 493.2 349.9 493.2 349.9 493.55 Q 353.1 497.6 350.55 497.6 350.55 497.95 352.15 500 353.75 501.8 353.75 502.9 353.95 502.55 353.75 500.5 353.45 498.6 352.65 498.35 353.3 497.6 352.45 497.6 L 352.45 496.75 Q 351.5 494.7 351.5 493.2 352.15 493.65 352.65 493.2 L 353.3 495.7 Q 353.3 496.75 354.05 496.75 L 354.05 497.3 354.7 497.3 354.7 498.05 354.95 498.05 354.95 498.6 355.7 498.6 Q 354.6 500.5 356.35 500.5 356.35 501.6 357.3 502.45 L 357.5 502.45 357.95 503.4 Q 358.6 503.4 358.15 504.8 L 358.15 505.05 Q 357.5 505.05 360.5 507.7 363.5 510.2 365.05 510.2 L 365.55 510.2 365.55 510.5 Q 366.85 510.5 366.65 510.2 L 367.8 509.85 367.8 510.2 Q 368.8 510.2 369.85 511.5 371.05 512.55 371.8 512.55 L 374.7 513.1 Q 374.7 514.25 375.25 514.7 375.9 514.7 375.9 516.1 375.9 516.95 376.65 516.95 L 376.65 516.65 Q 378.55 516.95 377.9 518.25 L 378.25 518.25 378.25 517.9 378.45 517.9 378.45 518.55 379.1 518.25 379.1 518.55 Q 380.05 518.55 380.05 519.3 L 380.7 519.55 381.45 519.3 382.1 517.9 Q 382.75 518.55 383.3 518.55 382.65 519.85 383.95 519.85 L 383.3 523.85 383.7 523.85 383.05 524.7 Q 382.45 525 382.75 525.75 382.2 526.3 381.45 526.3 L 381.45 527.6 Q 381.15 527.6 381.15 528.25 381.15 529 380.5 529 L 380.7 530.3 380.5 530.3 381.15 530.6 380.5 532.75 Q 380.05 533.7 381.15 534.05 384.25 537.6 383.95 537.6 L 383.95 537.9 384.35 537.9 384.35 539.2 385.35 540.5 Q 385.95 541.65 385.95 541.9 385.95 542.5 386.95 543.5 387.8 543.5 389.2 544.8 389.85 544.8 390.4 545.3 L 392 546.7 392 548 Q 392.4 548 392.4 549.6 L 392.4 550.15 392 550.15 392 551.75 392.4 551.75 392 552.85 Q 392.4 552.85 392.4 554.45 L 392.4 558.85 392.75 558.85 392.75 559.8 392.95 559.8 392.75 562.05 392.75 562.8 Q 393.15 562.8 392.75 563.35 392.4 564.2 392.75 564.65 L 392.4 564.65 Q 392.55 565.1 393.6 568.95 L 393.6 568.5 394.35 568.5 394.05 568.95 394.35 568.95 394.55 569.25 400.8 572.15 401.45 570.9 401.65 570.9 401.65 571.1 402.1 571.1 402.1 570.55 401.65 570.55 Q 401.65 570.15 400.8 570.15 L 400.8 569.5 400.45 569.5 400.45 568.95 Q 401 568.95 401 569.5 L 401.65 569.5 Q 402.6 569.5 402.4 568.95 L 402.1 567.35 Q 402.3 567.85 403.25 567.65 L 404.9 567.65 Q 404.9 567.85 406.5 566.25 405.85 564.95 405.85 564.65 L 404.25 563.05 404.65 562.8 404.65 563.05 405.3 563.35 405.3 563.7 406.25 564.1 406.25 564.45 407.45 564.45 Q 408.85 564.45 409.05 563.7 409.05 562.95 409.5 562.5 410.15 562.5 410.45 561.2 L 410.45 560.9 Q 411.1 560.45 411.3 560.65 411.45 560.9 411.1 561.45 411.45 561.45 411.75 560.15 411.95 558.85 412.7 558.85 412.7 556.9 412.3 556.9 412.85 555.5 415 554.75 417.55 553.8 417.55 553.35 L 419.15 553.15 419.15 552.4 418.75 552.4 Q 418.75 551.45 420.15 549.6 421.4 547.25 421.4 546.4 L 421.75 546.4 421.75 545.95 421.4 545.95 421.4 545.1 Q 420.8 543.5 423.05 541.9 425.2 539.85 425.2 538.65 L 425.6 538.65 425.6 537.05 Q 426.25 534.7 424 534.7 424 534.35 423.05 533.5 L 421.4 532.4 420.8 532.2 419.8 532.2 419.8 531.9 418.5 531.9 Q 418.5 531.05 417.55 531.45 L 416.6 531.9 Q 416.6 530.3 415.5 530.3 415.5 529.2 414.35 529.2 412.95 528.9 412.3 529.5 L 412.3 528.65 412.1 528.65 411.75 527.9 Q 409.8 530.3 409.05 530.3 L 409.05 529.5 Q 409.05 527.6 410.45 527.6 410.45 527.05 411.1 526 410.15 526 410.15 524.7 410.15 523.4 409.5 523.4 L 409.5 523.1 Q 407.15 520.8 405.85 521.15 L 404.25 521.45 Q 404.25 520.3 403.25 520.6 L 402.1 520.95 402.6 519.55 400.8 518.25 Q 400.8 518.55 399.85 518.55 L 399.2 518.55 400.45 517.4 399.2 516.95 399.2 517.4 398.45 516.65 399.2 516.65 399.2 516.3 397.8 516.3 397.8 516.65 395.2 516.65 395.2 516.3 393.4 516.3 392.75 515.35 Q 392.3 514.7 391.35 514.7 390.5 514.7 391.15 515 391.3453125 515.341796875 391.7 515.35 L 391.15 515.35 390.15 516.3 Q 390.8 517.6 389.75 517.9 L 389.5 515.35 Q 390.8 515.35 390.15 514.5 389.5 515 388.55 515 388.55 515.35 387.9 515.75 386.9609375 515.75 386.95 516.3 L 386.95 516.1 Q 384.9 516.85 384.9 519.3 383.4 517.3 382.1 516.95 382.1 517.9 380.5 517.9 380.05 517.6 379.55 517.9 L 379.55 517.7 Q 379.55 516.95 377.9 515.35 L 378.9 511.25 Q 376.65 510.5 373.4 510.5 374.35 509.55 374.05 508.6 L 374.25 508.6 374.05 507.3 374.25 507.3 375 507.7 375 506.45 375.25 506.45 375.25 505.35 Q 376 505.35 375.65 503.75 374.05 503.1 372.45 505.35 370.4 507.7 369.2 507.7 L 369.2 508.05 Q 368.05 508.05 366.65 506.65 365.35 505.8 365.35 504.5 L 365.35 503.4 365.55 503.4 365.55 502.9 Q 365.35 501.7 366 500.85 366.65 499.9 366.65 499.25 L 366.65 498.6 366.2 498.6 366.2 497.3 Q 367.4 497.3 369.45 495.15 L 369.45 494.85 370.2 494.85 370.2 494.4 372 494.4 372.65 494.85 Q 372.35 495.15 373.1 495.15 L 373.6 495.15 373.6 494.4 Q 374.6 494.4 375 494.85 L 375.25 494.1 Q 374.05 494.1 374.25 493.55 375.25 494.1 375.25 493.2 L 376.3 493.55 376.3 493.2 376.65 493.2 376.65 493.55 377.9 493.2 Q 377.9 494.3 379.1 493.75 380.5 493.75 380.5 494.4 L 380.5 494.85 380.7 494.85 380.5 496.45 380.7 496.45 380.7 496 381.45 496 Q 381.15 497.5 381.7 498.9 L 382.75 499.25 Q 383.3 497.85 383.05 497 L 383.05 496 382.75 496 382.75 495.15 Q 382 495.15 382.3 493.75 L 382.75 493.75 Q 382.75 491.95 383.05 491.95 L 383.05 491.6 Q 383.6 491.6 385.35 489.55 386.5 487.65 387.15 487.65 387.15 487.1 387.6 487.1 L 387.6 486.75 387.9 486.75 Q 389.1 487.2 387.9 486 388.85 484.75 387.6 484.75 L 387.9 483.1 Q 388.45 481.2 389.2 481.2 389.2 481.95 388.55 481.95 L 388.55 482.8 388.1 482.8 388.1 483.55 Q 389 483.55 389.2 483.85 390.05 483 389.5 481.5 391.15 482.15 391.15 480.65 L 391.35 480.65 Q 391.15 477.95 394.55 477.95 L 394.35 477.1 Q 395.2 477.1 395.2 476.05 L 395.2 475.5 397.55 474.75 Q 398.2 474.55 398.2 473.15 L 399.2 473.45 399.2 472.8 399.4 472.8 399.4 473.15 Q 400.45 473.15 400.45 471.85 L 400.8 471.85 Q 401 472.4 400.45 472.8 401 472.5 401.45 472.8 399.6 472.8 398.85 474.75 400.35 474.75 401.45 473.9 L 401.45 474.4 401.65 473.9 402.4 473.9 Q 402.4 473.25 403.05 472.8 403.7 472.8 403.25 471.85 L 402.6 472.6 Q 401.65 472.6 401.65 471.85 L 401.65 471.5 Q 401 471.5 401 471.2 401.45 470.75 401.45 470.25 L 400.8 470.25 401 469.05 Q 400.35 469.5 399.85 469.35 L 400.05 469.05 399.85 469.05 399.85 468.6 Q 402.5 468.6 401 467.45 399.4 465.85 399.4 467.45 396.6 470.45 396.6 468.6 396.7 468.6 397.8 467.75 399.2 466.8 399.2 466.35 L 399.85 465.85 Q 400.7 465.5 401.45 465.85 L 401.45 465.4 401.65 465.4 Q 401.65 466.6 402.6 465.4 L 404.65 465.4 404.9 465.05 Q 407.9 465.05 407.9 462.95 L 408.1 462.95 Q 409.05 462.95 410.15 461.55 L 410.15 460.25 409.7 460.25 409.7 460.55 409.5 460.55 Q 409.5 459.7 408.1 459.7 L 408.85 458.95 408.55 458.95 408.55 458.65 408.1 458.65 Q 408.65 458.95 407.9 458.95 L 407.9 458.3 406.25 458.3 Q 406.25 456.5 404.9 456.5 405.2 456.35 404.9 456.15 L 404.9 455.75 405.3 456.15 405.3 455.75 M 362.15 454.55 L 364.4 453.25 364.4 452.95 364.6 452.95 364.4 451.65 Q 364.9 451.45 365.15 451.65 365.35 451.75 365.05 452.2 366.65 452.2 366.65 451.65 368.15 450.9 368.8 450.25 368.7 451.45 367.2 452.2 366.85 452.2 365.05 453.45 363.4 454.85 362.75 454.85 L 362.75 454.55 362.15 454.55 M 373.6 462.6 L 373.6 462.95 Q 373.4 463.8 373.6 464.75 373.4 466.15 374.25 466.15 374.25 467.75 373.4 467.75 L 373.4 467 373.6 467 373.4 465.85 373.1 466.15 373.1 465.05 Q 373.1 464.75 372.45 464.75 372.45 462.95 373.1 462.95 L 373.1 462.6 373.6 462.6 M 370.85 466.15 L 370.85 464.55 371.8 464.55 371.05 466.15 370.85 466.15 M 381.7 469.35 L 381.7 469.9 382.75 471 383.05 471 383.05 471.5 382.75 471.5 Q 382.85 472.8 385.95 472.8 385.95 473.65 386.5 474.4 L 386.95 474.4 386.3 474.75 386.5 474.75 386.5 475.05 Q 385.45 474.75 384.9 476.05 384.25 477.1 383.7 477.1 L 383.7 475.8 Q 383.05 476.35 382.75 476.35 383.95 475.6 383.3 473.9 L 383.05 473.9 Q 381.45 474.2 381.45 474.75 381.45 475.8 380.5 475.8 L 380.5 477.65 380.05 477.65 379.85 478.3 379.1 479.25 Q 378.9 479.05 378.9 477.65 378.9 476.35 379.55 476.35 L 379.95 475.15 Q 379.75 475.5 379.1 475.5 L 380.7 473.9 Q 381.55 473.9 381.7 473.15 L 383.05 473.15 383.05 472.8 382.3 472.8 382.3 472.25 Q 381.45 472.8 380.05 472.8 L 380.05 472.25 379.55 472.25 380.05 471.5 380.05 471.2 Q 379.1 472.25 378.25 472.25 378.25 472.8 377.25 472.8 L 377.25 472.6 376.65 472.6 Q 377.25 471.95 377.25 471.5 378.8 471.5 379.85 469.6 L 380.05 469.9 380.05 469.35 381.7 469.35 M 383.7 477.95 L 384.35 477.95 384.7 477.45 385.35 477.45 Q 385.65 476.7 386.5 476.7 L 386.95 476.7 Q 386.4 478.3 383.3 479.25 L 383.05 479.25 383.05 479.05 Q 380.5 478.3 383.7 478.3 L 383.7 477.95 M 375.9 514.5 Q 376.85 514.5 376.85 515.35 L 375.9 515 375.9 514.5 M 405.3 437.7 L 405.3 437.35 404 438 Q 404.25 437.7 403.7 437.15 L 402.6 436.4 Q 403.25 436.4 403.25 435.75 L 403.25 435.55 404 435.55 404.25 435.2 403.05 434.8 404 433.9 403.25 433.15 403.25 433.9 403.05 433.9 402.6 433.6 Q 403.25 433.6 403.25 432.85 L 403.05 432.85 403.05 432.55 402.6 432.55 402.6 432.85 Q 402.2 432.85 401.65 433.15 L 401.65 432.85 402.1 432.85 402.1 432.3 Q 401.85 432.85 401 432.85 L 401.45 432 401 432 401 431.55 Q 400.05 432.2 400.05 432 L 399.4 432.3 399.4 432 399.2 432 Q 399.3 431.45 399.85 430.7 400.15 429.95 398.85 429.95 399.1 430.4 398.45 430.4 L 397.8 430.4 Q 397.8 429.5 397.25 429.95 L 396.6 429.95 397.25 429.65 397.55 429.65 397.55 429.3 397.8 429.3 397.55 428 Q 396.8 428 395 429.1 L 395 428.75 Q 392 428.75 392 432 391.15 431.65 391.15 432.3 391.75 433.3 390.8 433.6 L 390.8 431.55 Q 390.15 431.55 392.4 429.3 L 391.75 429.1 391.75 429.3 391.35 429.3 391.35 429.65 391.15 429.3 391.15 429.65 390.15 429.65 Q 390.15 430.05 389.5 430.7 388.1 430.7 388.1 432.85 L 387.9 432.85 387.9 433.15 387.6 433.6 387.9 433.6 Q 387.5 434.7 389.2 434.15 L 389.2 434.45 388.55 434.45 388.55 435.2 388.75 435.2 388.75 435.75 Q 389.5 435.75 389.5 435.2 390.15 435.2 390.15 435.75 390.15 436.05 390.4 436.05 L 390.4 435.75 Q 396.2 436.8 392.4 435.75 L 392.95 435.75 392.75 434.8 394.05 436.05 394.35 434.45 395 435.2 Q 396.05 434.8 395.2 434.15 L 395.95 433.9 395.95 434.45 396.6 434.45 396.6 434.95 Q 396.612890625 434.562890625 397.25 435.2 L 397.25 435.55 397.55 435.55 397.8 436.05 397.25 436.8 397.55 436.8 397.55 437.35 Q 398.1 437.35 398.45 436.8 L 398.85 436.4 398.85 437.35 Q 399.3 437.35 399.2 438.45 399.2 438.95 399.4 438.95 L 399.4 439.3 398.85 439.3 Q 397.8 441.1 398.2 443.6 395.65 442.6 395.65 444.15 L 395.2 444.15 Q 393.4 444.9 394.05 446.5 395.3 446.5 396.2 445.75 L 396.2 445.4 396.6 445.4 395.95 444.9 396.6 444.9 396.6 445.2 Q 397.55 445.2 397.55 445.75 397.7 446.6 398.45 447.05 L 398.85 447.65 Q 399.7 447.65 400.05 447.05 L 400.05 447.35 403.25 447.35 403.25 447.05 Q 401.35 445.85 400.8 445.2 401 444.15 402.1 445.2 L 402.1 444.9 402.4 445.2 403.25 444.9 404 445.4 403.7 444.45 404.25 444.45 404.25 444.15 Q 404.65 444.15 404.65 443.8 L 404.25 443.8 404.25 443.25 Q 403.7 443.7 403.7 442.85 403.05 442.85 403.05 442.2 403.05 441.65 402.4 441.65 L 402.4 441.25 403.05 441.25 402.6 440.35 403.05 440.6 403.25 440.05 403.7 440.9 404.65 440.9 404.25 441.25 404.9 441.25 404.9 442 Q 404.9 442.85 405.3 442.2 406.25 442.85 406.25 441.65 407.15 441.35 406.9 440.35 407.45 440.35 407.45 439.6 L 407.9 440.05 Q 407.9 439.2 408.55 439.3 408.55 438.45 407.9 438.45 L 407.25 438.95 407.25 438.75 406.9 438.95 406.9 438.45 406.5 438.45 406.5 438.95 405.85 438.75 405.85 437.7 405.3 437.7 M 396.6 430.7 Q 396.6 431 397.05 431.25 L 395.95 430.9 395.95 431.25 395.2 431.25 394.35 431.55 394.35 432.3 394.05 432.3 394.35 431.25 394.35 430.7 394.55 430.7 Q 395.2 430.9 395.2 430.4 L 395.65 430.4 395.65 430.7 396.6 430.4 396.2 430.7 396.6 430.7 M 402.1 440.6 L 400.05 441.25 Q 399.7 439.3 400.8 439.3 400.8 440.25 402.1 440.6 M 400.05 442.85 L 400.05 444.15 Q 399.7 443.9 399.2 444.15 398.85 442.85 400.05 442.85 M 434.85 413.2 L 434.85 413 423.35 413 423.35 413.2 419.4 413.2 419.4 413.5 417.1 413.5 416.9 413.85 Q 416.6 414.15 415.5 413.85 L 414.35 414.25 413.7 414.25 413.7 414.6 412.3 414.6 411.75 414.8 410.45 414.8 407.9 417.8 407.9 417.5 Q 405.85 417.5 405.85 418.05 L 405.3 418.05 405.3 418.35 404.65 418.35 Q 404.65 418.65 404 419.1 403.05 419.1 403.05 419.95 L 404.25 420.7 404.9 420.7 Q 405.95 420.7 407.45 419.95 L 407.45 420.7 406.25 420.7 403.7 421.9 403.7 421.55 403.25 421.55 403.25 421.9 403.05 421.9 Q 403.05 422.55 404.25 423.5 405.75 423.2 405.85 422.65 L 405.85 422.85 406.25 422.85 406.25 422.65 406.9 422.65 406.9 422.85 407.45 422.85 Q 407.45 421.9 409.05 421.9 L 409.05 422.3 409.7 421.9 409.7 422.3 Q 411.55 422.3 413.9 424.45 413.9 425.55 413.35 425.55 L 414.55 427.5 Q 415.4 428.35 413.9 428.35 L 413.9 428.75 Q 413.7 428.75 413.7 429.65 L 413.9 429.65 413.7 429.95 Q 413.9 430.7 414.35 430.4 L 415 429.65 415 429.95 415.3 429.95 415.3 429.65 415.5 429.65 415.5 429.95 416.15 429.95 416.15 430.4 417.1 429.95 Q 416.35 430.7 417.1 430.7 L 417.55 432.3 Q 416.35 431 413.9 431.55 415 432.3 414.55 432.55 L 413.7 432.85 413.35 434.45 413.9 434.15 413.9 434.45 413.7 434.45 413.7 434.8 Q 415 434.8 416.15 433.9 415 433.05 415 432.3 L 415.95 432.85 416.6 432.85 Q 416.9 433.4 417.1 432.85 L 417.55 432.85 416.9 434.15 Q 416.9 434.45 417.1 434.45 L 417.55 435.2 416.9 434.8 Q 415.95 436.7 415.95 436.4 L 415.5 436.8 416.9 436.4 416.9 436.8 415.5 436.8 414.35 438 415.5 437.7 Q 416.15 437.6 416.15 438 414.35 438 414.35 438.95 L 414.55 438.95 414.55 439.6 414.35 439.6 414.55 440.35 414.35 440.35 414.35 440.6 414.55 440.6 414.55 440.9 415.5 440.9 415.3 442.2 415.5 442.2 415.3 442.85 416.9 442.2 Q 416.6 443.25 415.95 443.25 L 415.95 443.6 415.5 443.6 415.95 443.8 415.5 443.8 415.95 444.45 415.95 445.4 416.6 445.2 416.15 445.75 416.9 445.75 416.9 446.05 Q 418.4 446.05 417.75 446.5 L 418.2 446.5 417.75 446.8 418.2 446.8 Q 417.1 447.65 418.5 447.65 L 418.2 448.1 418.5 448.65 Q 420.15 448.3 420.15 447.35 420.9 447.35 420.35 448.65 421.4 448.3 421.4 449.3 422.05 448.85 422.4 449.7 L 423.05 448.95 423.05 448.4 422.4 448.4 Q 422.6 448.3 422.4 448.1 422.9 448.1 423.55 446.5 424.1 445.1 423.55 444.45 L 424.65 444.45 424.65 443.6 Q 425.2 443.6 425.2 442.5 L 424.65 442.5 424.65 442.2 425.2 442.2 424.95 440.6 425.8 440.6 Q 425.8 439.7 426.8 440.05 427.45 440.05 427.45 439.3 L 428.2 440.05 429.8 438.75 Q 429.8 437.9 431.1 437.15 432.05 436.2 432.05 434.8 433 435.55 433.9 435.2 L 433.9 434.8 435.3 434.8 Q 437.55 435.1 437.55 433.6 L 439.15 432.85 Q 440.1 432.85 440.1 432 L 440.35 432.3 Q 441.1 431.9 441.1 431.25 L 440.1 431.25 Q 440.1 430.7 438.7 430.7 L 438.7 430.9 438.5 430.9 438.5 431.25 437.55 430.9 437.55 430.4 438.5 430.4 438.5 429.95 435.9 429.95 435.9 430.7 Q 435.5 430.7 435.5 430.4 436.55 428.9 438.5 429.65 438.05 429 437.55 428.75 L 438.05 428.75 438.05 429.1 Q 439.15 429.1 439.7 429.95 440.45 430.7 441.3 430.7 L 441.3 430.9 441.7 430.7 441.3 430.4 441.7 430.4 Q 441.7 428.684765625 440.65 428.2 440.955078125 428.2810546875 441.3 428.35 441.3 427.5 440.75 427.5 L 440.75 427.15 441.3 427.15 441.3 426.4 440.35 426.4 440.75 426.1 440.1 426.1 440.1 425.85 440.75 425.85 Q 440.75 425.45 441.3 425.1 441.95 425.1 441.95 424.45 L 441.95 424.25 441.3 424.25 441.7 423.95 441.3 423.95 441.3 423.5 Q 441.85 423.5 442.7 423.95 442.9 423.95 443.35 423.2 L 441.95 423.5 441.95 422.65 Q 441.6 423.2 441.3 422.85 L 441.7 422.3 440.75 421.9 441.3 421.9 Q 441.3 422.3 442.35 422.3 443.35 421.25 441.7 419.65 L 441.7 419.95 440.75 419.95 440.75 419.65 441.7 419.65 441.3 419.1 443.35 419.4 442.9 417.8 Q 442.7 418.65 441.7 418.05 442.35 418.05 442.35 417.5 440.45 417.5 440.75 416.2 442.6 416.2 442.35 414.8 L 442.35 414.6 442.7 414.6 442.35 414.25 442.7 414.25 442.35 413.85 437.1 413.2 434.85 413.2 M 439.15 425.55 L 438.7 425.85 438.5 425.85 438.5 426.1 437.85 425.85 Q 438.4 424.8 439.15 424.8 L 439.15 425.55 M 438.5 426.75 Q 438.7 426.5 438.7 426.1 439.7 426.1 439.7 426.75 439.219140625 427.6005859375 440.3 428.05 440.0412109375 428 439.7 428 439.15 427.9 439.15 427.5 L 438.7 427.5 438.7 426.75 438.5 426.75 M 447.5 439.3 L 447.5 438.75 447.2 438.75 447.5 438.45 446.55 438.45 446.15 437.7 445.9 438.45 444.95 438.45 444.95 438.75 444.3 438.45 444.5 438.95 444 438.95 444 438.45 443.55 438.75 443.35 438.75 443.35 439.3 442.9 439.3 442.9 438.75 442.7 438.45 Q 442.25 439.1 442.7 439.3 L 441.95 439.3 441.95 440.05 441.7 440.05 441.7 438.95 Q 441.7 438.45 440.75 438.45 L 440.75 438.75 441.1 438.75 441.1 438.95 Q 439.15 438.95 439.15 440.05 440.35 440.35 440.35 439.6 L 441.1 439.6 440.75 440.05 Q 441.5 440.6 440.75 440.6 439.7 440.6 439.7 440.9 441.3 440.9 441.3 442 L 440.75 442 440.75 442.5 441.95 442.2 Q 441.95 442.5 442.9 442.5 L 442.9 442.85 Q 444.5 443.9 444.95 442.5 L 444.5 442.5 444.5 442.2 Q 447.5 442.2 447.5 440.9 L 448.4 440.6 448.15 439.3 Q 448.15 439.7 447.5 439.3 M 486.85 486.35 L 488 486.35 Q 487.8 485.7 486.85 485.7 L 486.85 486 Q 486.75 485.25 485.25 485.7 L 486.85 486.75 486.85 486.35 M 495.55 486 L 495.85 486 495.85 485.7 Q 494.15 485.7 493.95 486.35 494.15 486.75 495.55 486.75 L 495.55 486 M 491.05 440.9 L 489.4 439.3 Q 488.75 439.3 485.25 435.2 L 481.55 432 481.35 432 481.35 432.55 481.05 432.55 Q 481.05 431.55 480.4 430.9 L 480.4 431.55 479.95 431.25 Q 478.35 432.85 478.35 431.55 477.4 431.55 477.4 432 478.15 431.25 478.15 432.3 L 477.4 432.3 477.4 432.55 477.15 432.3 476.75 432.55 476.75 432.3 476.2 432.85 476.2 432.3 475.75 432.3 Q 475.75 433.6 475.55 433.6 L 475.55 433.15 474.9 434.8 474.9 435.2 474.15 435.2 474.15 435.75 474.9 435.55 474.9 435.75 474.6 435.75 474.6 436.05 473.95 435.75 473.95 436.05 Q 474.9 436.05 474.15 436.8 L 474.6 436.8 474.6 437.15 473.95 437.15 Q 473.95 438 473 438 L 472.55 438.45 Q 473.1 439.3 472.35 439.6 471.7 439.85 471.7 440.6 L 471.7 440.9 470.95 440.9 470.95 441.25 Q 469.75 441.25 469.75 442.85 L 470.95 442.2 470.1 443.6 Q 469 442.6 468.7 442.85 L 468.7 443.6 467.7 443.8 467.7 444.15 Q 467.7 445.3 466.85 444.9 L 467.05 445.4 466.55 445.4 466.55 445.75 465.9 445.4 465.9 445.75 465.45 445.75 Q 465.45 446.040625 465.85 446.05 L 465.25 446.05 465.45 447.05 Q 466.1 446.6 466.1 447.05 L 465.45 447.35 465.9 447.35 465.45 448.4 Q 466.85 448.4 466.85 448.65 L 467.5 448.4 466.55 449.7 466.1 449.7 466.1 450.25 466.85 450.05 Q 466.85 453.25 467.7 452.2 469.1 452.2 469.1 451.85 L 469.35 451.85 469.35 451.65 471.7 450.55 Q 471.7 451.85 472.35 451.85 L 472.55 453.45 Q 473.4 453.45 473.5 454.55 L 473.3 456.5 474.9 456.15 Q 474.6 455.1 476.55 455.1 L 476.55 454.85 476.75 455.1 Q 477.3 454.55 476.75 454.55 477.4 452.5 476.75 451.65 L 476.75 451.3 476.55 451.3 Q 476.55 450.15 477.8 451.3 478.35 451.1 478.35 450.25 L 478.15 450.25 Q 478.35 449.8 477.8 448.65 477.15 447.05 476.55 447.05 L 476.55 446.05 476.75 446.05 476.55 445.75 476.75 445.75 Q 475.65 443.8 477.4 443.8 L 477.4 443.25 478.35 443.25 Q 480.6 441.25 479 441.25 L 479.95 439.6 479.95 439.3 480.6 439.3 Q 483.85 441.25 482 441.25 L 480.4 445.2 480.4 445.4 480.6 445.4 480.6 446.8 Q 480.4 447.35 481.05 447.35 481.05 448.1 481.55 448.1 482.2 447.8 482.2 448.4 L 481.55 448.4 481.55 448.95 Q 482 448.95 482.2 448.65 483.5 448.65 482.65 449.3 484.25 448.95 486.85 447.65 L 486.85 448.1 486.4 448.1 486.85 448.65 488 448.65 488.65 449.3 Q 488.35 450.05 486.2 450.05 L 484.25 450.05 Q 484.25 450.55 482.95 450.55 L 483.2 453.25 Q 484.45 452.1 483.6 453.8 L 483.2 454.1 Q 483.1 452.95 482 452.95 L 482 453.25 Q 480.6 453.25 480.6 455.75 481.7 455.75 481.05 456.7 L 480.6 457 480.6 456.7 Q 479.95 457.35 479.95 458.1 L 479.75 458.3 479.75 458.1 478.8 458.3 479 457.75 Q 477.8 457.45 477.8 458.1 L 475.55 458.95 473 458.1 Q 473.5 458.65 472.55 458.65 L 472.55 458.95 Q 471.9 458.95 471.9 458.3 470.5 458.85 470.95 457.35 L 470.95 457 470.7 457 470.7 456.5 Q 471.25 457 471.7 457 L 471.7 456.5 470.95 456.5 470.95 455.1 471.7 455.1 471.7 454.85 Q 470.95 454.85 470.95 453.8 L 470.95 452.2 470.1 453.25 470.3 454.55 469.1 454.55 469.1 455.4 469.35 455.4 469.35 455.75 469.1 455.75 Q 468.7 456.35 469.75 457.75 L 469.75 458.1 470.1 458.1 469.75 458.65 Q 470.2 458.65 470.1 459.4 L 469.75 459.4 469.75 459.7 Q 469.45 459.9 467.05 459.7 L 465.9 461.3 Q 466.2 462.3 465.9 462.6 L 465.45 462.6 465.45 462.15 465.25 462.15 465.25 462.6 464.9 462.15 464.9 462.6 464.5 462.6 Q 460.4 466.7 460.4 464.75 L 460.1 464.75 460.4 466.7 459.65 466.35 Q 459.65 466.9 458.8 466.35 457.4 465.95 457.4 466.7 L 457.2 466.7 457.2 467 457.4 467 Q 457.4 469.15 459 468.3 462 471.3 461.25 472.8 458.8 476.8 458.8 473.9 L 457.2 473.9 Q 454.6 473.15 453.65 475.05 452.15 477.1 453.65 477.1 L 452.55 480.65 453 480.65 453 482.8 455.8 483.1 Q 457.2 484.4 457.2 483.85 464.05 481.5 462 479.9 462 478.7 463.85 477.1 465.9 475.8 465.9 474.2 469.1 475.4 469.1 473.9 L 471.9 473.9 471.9 474.4 472.35 474.4 472.55 475.5 474.6 477.65 Q 475.35 477.65 476.2 478.3 L 476.2 478.7 476.55 478.7 Q 476.55 479.7 477.4 480.85 476.75 480.85 477.15 481.95 L 475.15 482.25 475.15 481.95 474.15 481.95 474.15 482.25 476.75 483.85 477.15 482.5 Q 478.35 482.5 478.35 479.9 478.35 477.95 479.45 479.25 L 479.75 479.25 Q 479.75 478.7 478.35 477.95 477.4 477.85 477.4 476.7 476.2 476.7 474.9 475.05 473.5 473.55 473.5 472.6 474.25 472.6 473.5 471.5 L 474.9 471.2 Q 474.25 471.85 474.9 472.8 L 475.75 471.85 Q 475.75 473.4298828125 476.7 473.45 L 476.55 473.45 Q 478.05 476.05 480.4 476.05 480.4 476.45 481.55 479.05 482.85 480.45 482.65 481.5 L 483.45 482.05 Q 483.184375 481.875 482.95 482.25 482.95 482.7 483.2 483.1 L 483.2 483.55 484.25 483.55 484.25 483.1 485.25 483.1 484.8 482.5 485.45 482.5 Q 484.8 482.05 484.8 481.2 484.25 481.1 484.25 480.35 L 484.8 480.65 Q 484.25 480 484.25 479.05 L 484.6 478.3 Q 484.6 478.8 485.25 479.25 L 485.85 479.05 485.85 478.7 Q 485.25 478.7 485.25 477.95 L 487.8 477.95 487.8 478.3 488 478.3 487.8 479.05 489.4 478.3 Q 489.4 478.6 488.65 479.05 487.8 479.25 487.8 479.9 488.25 479.9 488.65 480.35 L 488.65 481.5 488 481.5 488 482.25 488.65 482.25 488.65 482.5 Q 489 483.1 488.65 483.1 489.65 483.25 489.65 483.85 L 490.05 483.85 Q 492.3 485.7 492.3 484.1 495.55 484.1 497.45 483.85 L 497.45 487.3 Q 497.45 487.65 496.5 490 495 491.2 494.25 491.2 L 494.25 491.6 493.3 491.6 493.3 490.85 492.85 490.85 492.85 491.6 492.65 491.6 491.9 491.2 Q 488 491.5 488 490.55 486.85 491.2 486.85 490.3 L 486.2 490.3 Q 484.6 490.55 484.6 489.25 L 483.85 489.25 483.2 488.9 Q 481.15 488.5 482 491.2 480.95 491.95 479.95 491.6 478.45 491.3 477.8 491.6 477.8 490.85 476.55 490 475.15 489.25 475.15 488.9 473.6 488.9 472.55 487.95 471.35 487 473 486 471.9 486 473 485.15 L 472.55 485.15 472.55 484.4 Q 473 484.4 473 483.1 L 471.7 482.8 471.35 482.8 471.35 483.1 469.35 483.1 469.35 483.55 469.1 483.55 469.1 483.1 465.25 483.1 465.25 483.55 463.65 483.1 Q 463.65 483.75 460.1 485.5 L 457.85 485.5 Q 456.85 485.5 456.85 484.4 456.35 484.75 454.2 487.3 452.35 490.1 452.35 490.55 L 452.05 490.55 452.35 492.45 452.05 492.45 Q 452.05 493.45 450.95 494.85 449.9 496 448.8 496 448.8 498.25 444.95 505.05 L 444.95 507.7 445.15 507.7 445.15 508.05 444.95 508.05 444.95 509.65 444.5 509.65 Q 444.5 511.25 443.55 511.8 444.2 512 444 513.1 L 446.75 517.7 446.55 517.7 447.75 519.85 447.75 520.6 448.15 520.6 Q 448.15 523.1 451.4 523.4 L 455.8 523.4 Q 455.8 524.15 457.4 523.85 L 457.85 523.85 457.85 523.4 458.8 523.4 458.8 523.1 459 523.1 Q 459 522.45 460.65 522.75 L 460.65 522.2 Q 463.3 523.1 463.3 521.8 L 464.9 522.2 466.1 524.7 Q 467.2 525 467.7 524.15 L 468.15 524.35 468.15 524.15 468.7 524.35 468.7 524.15 469.1 524.15 Q 468.45 524.7 469.35 524.7 469.75 524.7 469.75 526 469.85 527.05 469.35 527.05 L 469.35 527.4 469.1 527.9 469.1 529.2 468.15 530.8 468.7 531.9 468.45 531.9 Q 468.45 532.75 469.35 532.75 L 469.35 533.05 470.7 535.1 470.7 535.45 470.95 535.45 470.95 537.6 471.35 537.6 471.35 538.85 471.7 538.85 Q 471.35 539.6 471.7 539.95 L 471.35 539.95 471.35 543.5 468.7 548.3 468.45 548.3 469.35 552.1 469.1 552.1 Q 469.1 554 469.75 554 L 470.1 555.65 469.75 555.65 469.75 556.4 469.35 559.8 Q 469 562.5 470.1 562.5 L 470.1 563.05 470.3 563.05 470.3 563.35 470.7 563.35 Q 470.2 563.8 470.7 564.1 L 470.3 564.1 470.3 564.65 470.7 564.65 470.7 565.7 470.95 565.7 471.35 565.3 471.35 564.95 471.9 564.95 473.5 563.7 475.55 562.8 475.55 562.5 Q 481.35 558.4 483.6 556.4 L 483.85 556.05 Q 490.6 550.05 494.9 544 L 494.9 543.5 Q 495.55 543.5 495.85 542.4 L 495.55 541.55 Q 495.55 539.2 495.85 539.2 L 495.85 538.85 Q 495.2 537.9 495.55 537.05 L 496.5 534.7 496.7 534.7 500.9 529.5 Q 500.9 529.2 502 528.65 502.85 527.9 503.6 527.9 504.9 526.6 505.2 525.75 L 507.8 518.25 508 516.65 505.75 517.7 Q 505.75 516.95 505.2 516.95 L 505.2 517.4 504.55 517.4 504.55 517.7 Q 503.6 517.15 502 513.75 499.95 509.95 499.95 508.6 L 499.75 508.6 Q 497.7 507.3 498.1 506.1 L 498.35 506.1 498.35 505.35 Q 498 504.4 498.35 504.05 497.25 502.05 496.7 500.5 L 497.15 500.5 497.15 500.2 495.55 497 Q 494.25 495.25 494.25 493.75 495.3 493.75 494.45 494.4 L 494.9 494.4 494.9 495.15 495.85 495.35 495.85 495.15 497.45 496.45 499.95 501.25 499.95 504.5 Q 500.5 504.5 502 506.65 503.15 508.7 503.15 509.85 504.25 511.8 502.95 511.8 501.1 511.8 503.15 514.15 505.55 516.2 505.55 514.15 507.25 514.15 509.6 511.5 L 509.6 509.35 510.05 509.35 511.2 498.35 509.4 494.4 Q 508.45 492.45 509.4 492.45 509.4 493.85 511.2 492.8 511.2 483.85 510.35 483.85 L 510.05 482.8 509.6 482.8 509.6 481.5 509.4 481.5 Q 509.9458984375 481.4900390625 509.6 480.65 L 510.05 480.65 510.05 480.35 Q 509.6 480.35 509.6 479.25 L 509.6 478.3 509.4 478.3 Q 509.4 475.8 508 475.8 L 507.8 473.9 506.8 473.9 507.8 471 507.35 470.65 507.15 469.6 507.15 469.35 506.8 469.05 506.8 467.95 506.4 467.95 506.4 467 506.15 467 506.15 466.15 505.75 466.15 505.75 465.4 505.55 465.05 505.55 464.55 505.2 464.55 505.2 464.2 504.8 463.45 504.8 462.95 504.55 462.95 504.55 462.6 504.15 461.55 503.6 460.55 503.6 459.9 503.15 459.9 503.15 459.7 502.95 458.95 502.5 458.65 502.5 458.1 501.55 456.7 501.55 456.5 501.35 456.15 501.35 455.75 500.9 455.75 500.9 455.4 497.7 449.7 497.15 449.3 497.15 448.95 495.55 446.5 Q 491.9 443.5 491.9 442.2 L 491.65 442.2 491.65 442 491.25 441.65 491.05 440.9 M 488.65 446.5 Q 491.15 448.65 489.65 448.65 488.55 448.65 488 446.8 L 488.65 446.5 M 499.3 469.6 L 499.95 469.6 498.35 470.65 498.35 472.25 497.7 471.85 497.7 472.25 497.45 472.25 497.45 472.6 Q 498.55 472.6 500.35 474.4 502.4 476.25 502.5 477.1 500.9 478.7 500.9 478.3 500.9 477.45 500.35 477.95 499.3 478.3 498.1 477.95 L 496.1 477.1 496.1 476.7 495.55 476.7 Q 493.6 477.65 491.65 477.65 L 490.25 477.65 490.25 477.95 Q 488.65 477.2 488.65 476.05 489.65 475.7 489.65 473.9 L 490.7 472.25 490.25 472.25 490.25 471.85 491.05 471.85 Q 491.25 471.4 491.25 471 491.8 471 492.85 470.25 L 492.85 470.65 Q 494.05 470.65 493.3 471.2 L 493.95 471 Q 494.9 471 494.45 471.5 L 494.25 471.5 493.5 472.25 Q 494.45 472.7 494.45 473.15 L 494.45 473.45 Q 497.25 473.35 497.45 472.25 L 495.85 472.25 Q 494.9 471.65 494.9 471 495.75 471 496.7 470.25 L 496.7 470.65 499.3 469.9 499.3 469.6 M 490.05 531.45 L 490.25 530.8 Q 490.8 530.3 491.25 530.3 L 491.65 530.3 491.65 529.5 492.3 529.85 492.65 530.8 492.85 530.6 Q 492 532.75 492.65 533.05 L 491.65 534.05 491.65 533.5 491.25 533.5 Q 490.25 533.2 490.25 533.8 L 489.65 533.5 Q 489.65 532.2 490.05 532.2 L 490.05 531.45 M 486.85 534.7 L 487.05 534.7 487.05 534.05 487.5 534.05 487.5 534.35 Q 486.5 537.9 488 537.9 L 487.8 538.85 Q 488.45 538.85 488.45 539.95 L 488.45 540.25 Q 486.4 540.9 487.8 538.85 L 487.5 538.85 486.4 537.05 Q 487.5 535.95 486.85 534.7 M 490.7 542.1 L 490.25 542.1 490.25 541.1 Q 491.35 541.1 490.7 542.1 M 473.3 450.55 L 473.3 449.7 473.95 450.05 Q 474.6 451.75 472.55 451.3 L 472.55 450.55 473.3 450.55 M 628.5 471 Q 635.4 462.3 635.4 450.55 635.4 429.3 617.25 421.05 604.35 414.25 577.4 414.25 544 414.25 526.15 416.2 524.85 416.75 524.85 419.1 524.85 421.05 526.15 421.9 L 533.45 422.85 Q 541.2 423.5 543.1 428 545.15 432.4 545.15 445.75 L 545.15 536.3 Q 545.15 555.5 543.55 559.8 541.6 564.55 532.25 566.05 L 527.75 566.6 Q 526.7 568.2 527 570.15 527.35 572.15 528.3 572.7 L 584.15 572.7 Q 615.3 572.7 631.75 559.8 647.55 548.1 647.55 526.6 647.55 509.65 636.6 498.05 627.75 488.9 615.65 486.75 611.25 486 611.25 483.1 623.05 477.75 628.5 471 M 579 421.55 Q 593.8 421.55 603.5 429.1 614.45 437.35 614.45 453.8 614.45 469.9 605.1 477.1 596.2 483.65 576.95 484.1 568.05 484.75 566.45 483.55 564.8 482.5 564.8 477.45 L 564.8 429.3 Q 564.8 424.15 568.05 422.85 571.35 421.55 579 421.55 M 564.8 532.75 L 564.8 497.3 Q 564.8 493.85 566.95 492.45 569.55 491.2 578.55 491.2 604.25 491.2 616.4 504.5 626.05 515 626.05 532.2 626.05 548.65 615.1 557.65 605.55 565.3 588.65 565.3 575.15 565.3 569.65 558.55 564.8 553.05 564.8 532.75 M 178.75 416.75 Q 175.85 417.6 163.95 414.8 146.75 411.05 133.65 411.05 84.8 411.05 58.15 438.95 37 461.65 37 495.35 37 527.8 58.55 549.2 84.65 575.7 131.3 575.7 152 575.7 173.95 569.5 182.4 567.65 185.55 567.65 187.15 566.05 185.75 564.65 180.05 562.7 180.05 547.55 L 180.05 534.35 Q 180.05 523.95 181.25 520.2 183.5 515.35 190.35 514.5 L 194.15 513.75 Q 195.5 512.75 195.2 510.95 195.2 508.8 193.8 508.05 L 134.5 508.05 Q 133.35 508.7 133.35 510.95 133.35 513.2 134.5 513.75 L 144.95 515 Q 155.8 516.55 158.15 519.85 160.3 522.95 160.3 538.35 L 160.3 547.55 Q 160.3 558.3 158.15 561.2 153.65 568.5 132.05 568.5 97.35 568.5 78.1 544.8 60.4 522.75 60.4 486.75 60.4 457.75 76.3 439.3 94.25 418.35 126.9 418.35 146.65 418.35 158.15 425.55 171.05 433.9 175.85 451.85 176.75 453.25 179.1 452.95 181.55 452.6 182.3 451.3 178.75 429.1 178.75 416.75 M 269.95 417.05 Q 269.65 414.7 268.65 414.25 255.45 414.8 239.35 414.8 223 414.8 208.3 414.25 207 414.8 207 417.05 206.8 419.85 207.75 420.3 L 213.9 420.7 Q 224.85 421.55 227.1 426.75 229.25 431.35 229.25 450.55 L 229.25 536.3 Q 229.25 555.75 227.45 559.8 225.05 565.1 215.05 566.05 L 207.75 566.6 Q 206.8 567.75 207 570.15 207 572.4 208.3 572.7 223 572.15 239.35 572.15 L 261.25 572.15 Q 306.8 572.15 320.45 572.7 322.9 568 326.7 554.75 330.55 540.8 330.55 539.2 330.55 537.9 327.95 537.6 325.6 536.95 324.3 537.9 317.1 556.05 308.65 561.45 303.5 564.65 279.65 564.65 259.45 564.65 253.85 559.3 248.6 553.5 248.6 533.5 L 248.6 450.55 Q 248.6 431.45 250.65 426.75 253.2 421.45 263.1 420.7 L 268.9 420.3 Q 270.2 419.85 269.95 417.05 M 313.05 285.05 Q 322.6 285.05 323.65 294.3 L 334.4 294.3 Q 332.8 276.55 312.8 276.55 290.9 276.55 290.9 299.75 290.9 322.95 312.8 322.95 332.8 322.95 334.75 305 L 323.65 305 Q 322.6 314.7 313.05 314.7 307 314.7 303.8 309.55 301.55 305.55 301.55 299.75 301.55 285.05 313.05 285.05 M 231.6 119.95 L 231.6 27.45 143.3 27.45 Q 99.7 27.45 68.45 58.7 37.2 89.65 37.2 133.6 L 37.2 321.65 67.6 321.65 67.6 133.6 Q 67.6 102.45 89.85 80 111.95 57.85 143.3 57.85 L 201.3 57.85 201.3 119.95 154.3 119.95 Q 125.9 119.95 106.25 140.05 86.15 159.8 86.15 187.95 L 86.15 321.65 116.45 321.65 116.45 187.95 Q 116.45 172.25 127.55 161.2 138.6 150.35 154.3 150.35 L 231.6 150.35 231.6 230.25 Q 231.6 245.4 220.65 256.9 209.5 267.95 193.8 267.95 L 137.4 267.95 124.3 298.15 193.8 298.15 Q 221.85 298.15 241.95 278.15 261.9 258.2 261.9 230.25 L 261.9 119.95 231.6 119.95 M 633.8 302.35 L 628 303.1 Q 616.4 304.7 616.4 313.1 616.4 322.75 627.35 322.75 635.4 322.75 638.6 317.6 638.95 322 643 322 L 647.3 321.65 647.3 317.6 645.4 317.6 Q 643 317.6 643 314.9 L 643 297.5 Q 643 288.25 630.9 288.25 618.65 288.25 617.65 299.55 L 622.05 299.55 Q 622.4 293.1 630.55 293.1 638.2 293.1 638.2 298.6 638.2 301.7 633.8 302.35 M 638.2 305 L 638.2 308.8 Q 638.2 312.95 634.95 315.55 632.3 318.15 627.65 318.15 621.55 318.15 621.55 313.1 621.55 308.55 627.65 307.5 L 633.35 306.85 Q 637.65 305.9 638.2 305 M 543.9 293.3 Q 539.8 288.25 532.25 288.25 524.35 288.25 520.25 293.3 516.5 298.05 516.5 305.55 516.5 313.2 520.25 317.6 524.45 322.75 532.25 322.75 539.7 322.75 543.9 317.6 547.65 313.2 547.65 305.55 547.65 298.05 543.9 293.3 M 542.25 305.55 Q 542.25 317.6 532.25 317.6 527.1 317.6 524.2 313.6 521.85 310.3 521.85 305.55 521.85 300.95 524.2 297.2 527.25 293.3 532.25 293.3 542.25 293.3 542.25 305.55 M 573.75 295.9 Q 576.55 293.3 579.85 293.3 586.3 293.3 586.3 301.05 L 586.3 321.65 591.45 321.65 591.45 302 Q 591.45 293.3 600.6 293.3 607.05 293.3 607.05 301.05 L 607.05 321.65 611.85 321.65 611.85 299.75 Q 611.85 293.4 608 290.1 605.3 288.25 601.9 288.25 595 288.25 590.9 294.3 587.8 288.25 581.8 288.25 574.6 288.25 571.25 294.3 L 571.25 289.45 566.1 289.45 566.1 321.65 571.25 321.65 571.25 303.1 Q 571.25 298.6 573.75 295.9 M 438.5 308.25 L 438.5 307.15 Q 438.5 287.5 420.8 287.5 402.4 287.5 402.4 305.25 402.4 322.95 420.8 322.95 434.3 322.95 437.85 311.7 L 428.2 311.7 Q 426.25 316.3 420.8 316.3 416.6 316.3 413.9 313.3 411.75 311.25 411.75 308.25 L 438.5 308.25 M 429.05 301.5 L 429.05 301.8 411.75 301.8 411.75 301.5 Q 411.75 299.75 413.35 297.5 415.95 294.3 420.35 294.3 424.85 294.3 427.2 297.2 429.05 299.35 429.05 301.5 M 454.6 321.65 L 454.6 311.15 444.5 311.15 444.5 321.65 454.6 321.65 M 385.95 295.35 L 385.95 288.9 377.25 288.9 377.25 321.65 386.3 321.65 386.3 307.5 Q 386.3 297.2 395.2 297.2 L 400.45 298.15 400.45 288.25 397.25 287.85 Q 391 287.85 385.95 295.35 M 355.35 287.5 Q 348.6 287.5 345.05 289.45 339.9 291.6 339.25 298.8 L 347.85 298.8 Q 348.8 295.55 350.55 294.7 351.7 293.95 354.95 293.95 362.15 293.95 362.15 297.95 362.15 301.15 358.6 301.5 L 348.9 302 Q 337.2 302.65 337.2 312.35 337.2 322.95 349.45 322.95 359 322.95 362.35 318.15 L 363 321.65 372 321.65 Q 371.05 316.85 371.05 314.9 L 371.05 298.6 Q 371.05 287.5 355.35 287.5 M 362.35 305.55 L 362.35 308.45 Q 362.35 312.35 359.1 314.7 356.45 316.5 352.65 316.5 346.85 316.5 346.85 312 346.85 308.15 351.7 307.5 L 356.95 307.15 Q 360.75 306.55 362.35 305.55 M 482.95 277.85 L 476.75 277.85 476.75 321.65 482.2 321.65 482.2 286.65 505.75 321.65 511.95 321.65 511.95 277.85 506.4 277.85 506.4 312.75 482.95 277.85 M 456.85 195.7 Q 456.85 192.35 461.7 190.2 465.7 188.35 472.35 188.35 L 481.05 189 481.05 173.45 Q 476.55 173.1 474.15 173.1 461.7 173.1 456.85 180.3 L 456.85 175.05 440.35 175.05 440.35 242.4 456.85 242.4 456.85 195.7 M 366 181.95 Q 366 150.35 340.2 150.35 L 292.1 150.35 292.1 242.4 309.6 242.4 309.6 212.1 340.45 212.1 Q 353 212.1 359.75 202.85 366 194.7 366 181.95 M 346.65 181.5 Q 346.65 197.3 335.4 197.3 L 309.6 197.3 309.6 165.05 335.6 165.05 Q 346.65 165.05 346.65 181.5 M 377.5 190.2 Q 387.35 186.75 397.8 186.75 408.1 186.75 411.3 190 414.55 192.8 414.55 201.5 406.5 199.65 397.8 199.65 384.6 199.65 378.9 203.5 371.45 208.55 371.45 221.8 371.45 235.1 377.5 239.95 383.7 244.35 399.85 244.35 417.75 244.35 430.45 238.95 L 430.45 199.2 Q 430.45 184.85 423.35 178.7 416.7 173.1 401 173.1 387.8 173.1 374.25 176.65 L 377.5 190.2 M 414.55 212.75 L 414.55 229.5 Q 407.45 231.85 401 231.85 393.4 231.85 391.15 229.85 388.55 228.2 388.55 221.25 388.55 215 391.35 213.2 393.6 211.55 401 211.55 409.2 211.55 414.55 212.75 M 340.45 89.35 Q 353 89.35 359.75 80.4 366 72.25 366 59.45 366 27.45 340.2 27.45 L 292.1 27.45 292.1 119.95 309.6 119.95 309.6 89.35 340.45 89.35 M 346.65 59.05 Q 346.65 74.85 335.4 74.85 L 309.6 74.85 309.6 42.4 335.6 42.4 Q 346.65 42.4 346.65 59.05 M 390.4 24.25 L 374.05 24.25 374.05 101.6 Q 374.05 114.7 381.15 123.15 L 395.65 116.7 Q 390.4 109.65 390.4 100.95 L 390.4 24.25 M 428.4 64.3 Q 439.25 64.3 442.35 67.1 445.6 70.2 445.6 79 437.45 77.2 428.85 77.2 415.75 77.2 409.7 81.05 402.4 86.1 402.4 99.3 402.4 112.3 408.55 117.05 414.65 121.9 430.65 121.9 446.75 121.9 461.25 116.5 L 461.25 76.75 Q 461.25 61.95 454.2 56.25 447.65 50.65 432.05 50.65 418.85 50.65 405.3 54.2 L 408.1 67.75 Q 416.7 64.3 428.4 64.3 M 419.4 98.8 Q 419.4 92.55 422.4 90.75 424.65 89.1 432.05 89.1 L 445.6 90.1 445.6 107.05 Q 438.5 109.4 432.05 109.4 424.3 109.4 421.95 107.4 419.4 105.65 419.4 98.8 M 581.45 187.95 Q 590.15 187.95 593.05 191.6 595.95 195.35 595.95 206.75 L 595.95 242.4 612.4 242.4 612.4 204.7 Q 612.4 186.75 605.65 179.9 599.5 173.1 585 173.1 568.6 173.1 552.8 178.9 L 552.8 242.4 569.35 242.4 569.35 189.55 Q 574.5 187.95 581.45 187.95 M 515.2 173.1 Q 499.85 173.1 491.9 180.55 483.6 189.25 483.6 208.35 483.6 228 492.65 236.7 500.8 244.35 516.5 244.35 528.6 244.35 539.9 240.6 L 537.45 227.7 Q 527.25 230.5 518.4 230.5 509.05 230.5 505.2 227.25 500.9 223.3 500.9 213.2 L 544.4 213.2 Q 545.4 189.45 538.3 180.95 531.85 173.1 515.2 173.1 M 516.15 186 Q 523.15 186 526.15 189 529.05 191.7 529.35 200.5 L 500.9 200.5 Q 501.55 192.35 505.2 189 508.45 186 516.15 186 M 487.8 66.8 Q 492.85 65.5 499.75 65.5 508.85 65.5 511.2 69.15 514.1 72.45 514.1 83.85 L 514.1 119.95 530.65 119.95 530.65 82.25 Q 530.65 64.5 524.2 57.45 518 50.65 503.15 50.65 486.95 50.65 471.35 56.45 L 471.35 119.95 487.8 119.95 487.8 66.8 M 593.5 57.45 Q 587.25 50.65 572.9 50.65 555.9 50.65 541 56.45 L 541 119.95 557.3 119.95 557.3 66.8 Q 562.65 65.5 569.35 65.5 577.95 65.5 580.95 69.15 583.85 72.9 583.85 83.85 L 583.85 119.95 600.25 119.95 600.25 82.25 Q 600.25 64.5 593.5 57.45 M 810.6 572.7 Q 811.65 571.75 811.65 569.8 811.65 567.55 810.6 566.6 L 804.15 566.05 Q 796.75 565.1 792.55 560.45 788.7 555.3 783.95 540.8 L 740.75 413.2 Q 740.25 411.05 737.25 411.05 731.3 418.35 724.85 420.3 725.95 425 720.8 437.15 L 696.6 501.25 Q 686.65 527.9 675.7 554.45 671.4 565.2 661.5 566.05 L 653.45 566.6 Q 652.35 567.65 652.7 569.8 652.7 572.15 654 572.7 L 676.85 572.15 Q 694.7 572.15 701.45 572.7 703.05 572.3 703.4 569.8 703.4 567.65 702.1 566.6 L 694.25 566.05 Q 687.3 565.6 687.3 561.2 687.3 556.4 692.45 541.55 L 700.7 516.65 Q 702.2 512.75 703.7 511.8 705.45 510.95 709.85 510.95 L 745.8 510.95 Q 750.85 510.95 752.6 511.8 754.4 512.85 755.5 516.65 L 765.9 549.2 Q 769.15 558.4 769.15 561.75 769.15 565.2 760.65 566.05 L 753.85 566.6 Q 752.6 567.65 752.6 569.8 752.9 572.3 754.2 572.7 L 781.6 572.15 Q 799.55 572.15 810.6 572.7 M 729.15 440.35 L 729.7 440.35 Q 731.85 444.55 734.85 455.1 L 747.75 493.75 Q 749.35 498.5 748.85 500 747.55 501.25 742.6 501.25 L 713.4 501.25 Q 708.35 501.25 707.9 500.5 707.25 499.9 708.55 495.7 L 723.25 454.1 Q 727.35 443.05 729.15 440.35 M 887.6 417.05 Q 887.4 414.7 886.3 414.25 873.2 414.8 857 414.8 841 414.8 826.15 414.25 825.3 414.6 824.75 417.05 824.55 419.85 825.85 420.3 L 831.55 420.7 Q 842.6 421.55 845.2 426.75 847.1 431.45 847.1 450.55 L 847.1 536.3 Q 847.1 555.2 845.2 559.8 842.8 565.1 832.85 566.05 L 825.85 566.6 Q 824.55 567.85 824.75 570.15 825.3 572.4 826.15 572.7 841 572.15 857 572.15 L 879 572.15 Q 924.55 572.15 938.3 572.7 940.9 567.45 944.3 554.75 948.3 541.55 948.3 539.2 948.3 537.9 945.95 537.6 943.35 536.95 942.4 537.9 935.2 556.15 926.6 561.45 921.35 564.65 897.6 564.65 877.2 564.65 871.5 559.3 868.5 555.75 867.75 550.15 866.65 544.8 866.65 533.5 L 866.65 450.55 Q 866.65 431.15 868.6 426.75 871.05 421.45 881.15 420.7 L 887.05 420.3 Q 888.05 419.65 887.6 417.05 M 948 368.95 L 948 362.95 37.2 362.95 37.2 368.95 948 368.95 M 858.4 317.6 Q 856.15 317.6 856.15 314.9 L 856.15 297.5 Q 856.15 288.25 843.9 288.25 831.3 288.25 830.35 299.55 L 835.2 299.55 Q 835.5 293.1 843.55 293.1 851.3 293.1 851.3 298.6 851.3 301.7 846.45 302.35 L 840.65 303.1 Q 829.4 304.7 829.4 313.1 829.4 322.75 840 322.75 848.1 322.75 851.6 317.6 851.75 322 856.15 322 L 860.2 321.65 860.2 317.6 858.4 317.6 M 851.3 305 L 851.3 308.8 Q 851.3 312.95 848.1 315.55 845.4 318.15 840.65 318.15 834.2 318.15 834.2 313.1 834.2 308.55 840.35 307.5 L 846.05 306.85 Q 850.65 305.9 851.3 305 M 889 321.65 L 889 314.7 882.55 314.7 882.55 321.65 889 321.65 M 869.35 279.45 L 864.2 279.45 864.2 289.45 858.6 289.45 858.6 294.3 864.2 294.3 864.2 315.25 Q 864.2 322.75 871.3 322.75 875.45 322.75 877.1 322.45 L 877.1 317.15 873.45 317.6 Q 869.35 317.6 869.35 313.95 L 869.35 294.3 877.1 294.3 877.1 289.45 869.35 289.45 869.35 279.45 M 700.15 288.25 Q 692.65 288.25 688.55 293.3 684.6 298.25 684.6 305.55 684.6 312.95 688.55 317.6 692.75 322.75 700.15 322.75 710.35 322.75 713.9 312 L 708.55 312 Q 706.5 317.6 699.85 317.6 696.3 317.6 693.4 314.9 690.5 312.2 690.2 307.5 L 714.65 307.5 714.65 306.65 Q 714.65 297.4 710.15 292.35 706.4 288.25 700.15 288.25 M 693.7 295.9 Q 696.2 293.3 699.85 293.3 708.35 293.3 709.1 302.65 L 690.2 302.65 Q 690.7 298.45 693.7 295.9 M 664.4 289.45 L 664.4 294.3 669.85 294.3 669.85 315.25 Q 669.85 322.75 676.85 322.75 680.85 322.75 682.45 322.45 L 682.45 317.15 679.2 317.6 Q 674.9 317.6 674.9 313.95 L 674.9 294.3 682.45 294.3 682.45 289.45 674.9 289.45 674.9 279.45 669.85 279.45 669.85 289.45 664.4 289.45 M 655.9 279.45 L 650.75 279.45 650.75 289.45 645.4 289.45 645.4 294.3 650.75 294.3 650.75 315.25 Q 650.75 322.75 657.95 322.75 661.95 322.75 663.65 322.45 L 663.65 317.15 660.2 317.6 Q 655.9 317.6 655.9 313.95 L 655.9 294.3 663.65 294.3 663.65 289.45 655.9 289.45 655.9 279.45 M 802.95 277.2 L 797.7 277.2 797.7 321.65 802.95 321.65 802.95 303.1 Q 802.95 298.6 805.45 295.9 808 293.3 811.65 293.3 819.7 293.3 819.7 301.05 L 819.7 321.65 824.75 321.65 824.75 299.75 Q 824.75 288.25 813.5 288.25 806.4 288.25 802.95 294.3 L 802.95 277.2 M 755.25 289.45 L 749.35 289.45 759.8 321.65 765.15 321.65 771.9 297.2 778.8 321.65 784.25 321.65 794.9 289.45 789.3 289.45 781.6 313.95 774.8 289.45 769.45 289.45 762.7 313.95 755.25 289.45 M 736.15 288.9 L 733.25 288.25 Q 727.55 288.25 724 295.35 L 724 289.45 718.75 289.45 718.75 321.65 724 321.65 724 305.25 Q 724 294.7 732.7 294.7 L 736.15 295.35 736.15 288.9 M 799 180.55 Q 791.8 173.1 774.8 173.1 758.4 173.1 750.95 180.55 742.9 188.6 742.9 208.35 742.9 228.2 750.95 236.7 758.3 244.35 774.8 244.35 791.7 244.35 799 236.7 807.05 228.2 807.05 208.35 807.05 188.6 799 180.55 M 774.8 186.35 Q 784.15 186.35 787.15 190.2 790.4 194.4 790.4 208.55 790.4 222.55 787.15 227.05 783.95 231.1 774.8 231.1 765.9 231.1 763 227.05 759.8 222.55 759.8 208.55 759.8 194.4 763 190.2 765.9 186.35 774.8 186.35 M 728.85 178.9 Q 723.6 173.1 710.7 173.1 700.7 173.1 692.45 177.75 L 692.45 146.7 676 146.7 676 242.4 692.45 242.4 692.45 193.85 Q 692.45 187.95 705.3 187.95 712.95 187.95 715.95 192.25 718.75 196 718.75 205.15 L 718.75 242.4 735.3 242.4 735.3 203.75 Q 735.3 186.2 728.85 178.9 M 667.95 189.25 L 667.95 175.05 645.4 175.05 645.4 157 628.95 163.75 628.95 175.05 617.65 175.05 617.65 189.25 628.95 189.25 628.95 219.85 Q 628.95 234 634.45 239.5 639.6 244.35 651.5 244.35 662.05 244.35 670.1 241.1 L 667.2 228.2 Q 659.9 230.25 655.6 230.25 650 230.25 647.55 227.25 645.4 225 645.4 218.25 L 645.4 189.25 667.95 189.25 M 686 58.1 Q 677.95 66.65 677.95 86.1 677.95 106.65 685.65 114.25 692.95 121.55 710.35 121.55 727.65 121.55 739.7 116.7 L 739.7 24.25 723.25 24.25 723.25 54.2 Q 716.5 50.65 707.15 50.65 692.85 50.65 686 58.1 M 698.25 69.15 Q 701.55 64.5 710.15 64.5 723.25 64.5 723.25 70.95 L 723.25 105.75 Q 718 107.8 710.35 107.8 701.15 107.8 698.25 103.6 694.6 99.3 694.6 85.9 694.6 73.65 698.25 69.15 M 670.1 90.75 Q 671.05 67 663.95 58.5 657.5 50.65 640.85 50.65 625.3 50.65 617.65 58.1 609.2 66.8 609.2 85.9 609.2 121.9 642.15 121.9 654.3 121.9 665.6 118.1 L 663.1 105.25 Q 654.3 107.8 644.1 107.8 634.75 107.8 631.2 104.6 626.6 100.5 626.6 90.75 L 670.1 90.75 M 651.85 66.55 Q 654.75 69.25 655.05 78.05 L 626.6 78.05 Q 627.55 69.9 630.9 66.55 634.1 63.55 641.85 63.55 649.25 63.55 651.85 66.55 M 931.45 177.1 Q 924.55 173.1 915.3 173.1 900.95 173.1 894.05 180.95 886 189.25 886 208.55 886 228.85 894.05 236.9 901.35 244.35 918.55 244.35 936.05 244.35 948 239.5 L 948 146.7 931.45 146.7 931.45 177.1 M 927.65 189 Q 931.45 190.65 931.45 193.4 L 931.45 228.2 Q 926.4 230.25 918.55 230.25 909.5 230.25 906.75 226.3 903.2 222 903.2 208.35 903.2 195.7 906.4 191.6 909.75 186.95 918.2 186.95 924 186.95 927.65 189 M 846.8 173.1 Q 830.05 173.1 822.6 180.55 814.55 188.6 814.55 208.35 814.55 228.2 822.6 236.7 829.95 244.35 846.8 244.35 863.55 244.35 870.95 236.7 879 228.2 879 208.35 879 188.6 870.95 180.55 863.55 173.1 846.8 173.1 M 834.75 190.2 Q 837.65 186.35 846.8 186.35 855.9 186.35 858.6 190.2 861.85 194.4 861.85 208.55 861.85 222.55 858.6 227.05 855.8 231.1 846.8 231.1 837.65 231.1 834.75 227.05 831.55 222.55 831.55 208.55 831.55 194.4 834.75 190.2 M 986.95 159.35 Q 986.95 154.2 983 150.35 979.55 146.7 974.4 146.7 969.25 146.7 965.7 150.35 961.75 154.3 961.75 159.35 961.75 164.3 965.7 168.05 969.35 171.5 974.4 171.5 979.45 171.5 983 168.05 986.95 164.4 986.95 159.35 M 974.4 149.9 Q 983 149.9 983 159.35 983 168.3 974.4 168.3 965.7 168.3 965.7 159.35 965.7 149.9 974.4 149.9 M 972.45 160.55 L 973.75 160.55 976.55 166.05 979.75 166.05 976.55 160.55 Q 980.2 159.9 980.2 156.8 980.2 152.5 974.6 152.5 L 969.55 152.5 969.55 166.05 972.45 166.05 972.45 160.55 M 972.45 154.75 L 974.4 154.75 Q 977 154.75 977 156.35 977 158.4 974.6 158.4 L 972.45 158.4 972.45 154.75 Z"/>
</g>
</defs>
<g transform="matrix(1,0,0,1,0,0)">
<use xlink:href="#l"/>
</g>
</svg>
