<svg xmlns="http://www.w3.org/2000/svg" xmlns:xlink="http://www.w3.org/1999/xlink" width="100%" height="100%" viewBox="0 0 505 1024">
<!-- Vectorization by Rodrigo Polo https://github.com/rodrigopolo/logotipos-politicos -->
<defs>
<g id="l1">
<path fill="#0063AC" stroke="none" d="M 504.6 0.05 L 0.45 0.05 0.45 504.45 504.6 504.45 504.6 0.05 M 504.4 779.45 L 259.95 779.45 259.95 1023.8 504.4 1023.8 504.4 779.45 M 244.45 779.6 L 0 779.6 0 1024.05 244.45 1024.05 244.45 779.6 M 259.95 519.85 L 259.95 764.4 504.4 764.4 504.4 519.85 259.95 519.85 M 244.9 519.85 L 0.45 519.85 0.45 764.4 244.9 764.4 244.9 519.85 Z"/>
</g>
<g id="l0">
<path fill="#FFFFFF" stroke="none" d="M 164.7 969.15 Q 182.45 951.1 182.45 915.2 L 182.45 819.6 161 819.6 161 916.45 Q 161 942.7 150.3 956.05 139.75 968.5 121.4 968.5 104.2 968.5 94.1 956.05 83.4 942.6 83.4 916.45 L 83.4 819.6 62.05 819.6 62.05 915.95 Q 62.05 952.15 78.7 969.85 93.7 985.6 120.65 985.6 148.9 985.6 164.7 969.15 M 359.15 983.7 Q 383.15 983.7 401.6 977.85 420 971.9 431.8 960.3 443.15 949.05 449 932.9 455.15 916.35 455.15 896.8 455.15 858.9 431.9 838 410.1 817.8 365.85 817.8 344.3 817.8 320.8 821.2 L 320.8 981.85 Q 334.1 983.7 359.15 983.7 M 342.05 836.8 Q 351.7 834.7 366.7 834.7 399.5 834.7 416.6 851.45 433.15 867.7 432.95 897.65 432.95 930.9 415 948.85 396.95 967.1 363.4 966.9 347.25 966.9 342.05 965.85 L 342.05 836.8 M 320.9 560.5 L 320.9 723.7 340.9 723.7 Q 340.55 608.3 339.4 586.75 L 340.05 586.5 Q 348.4 604.55 422.35 723.7 L 443.55 723.7 443.55 560.5 423.8 560.5 424.25 619.95 Q 424.9 681.65 426.05 695.9 L 425.4 696.1 Q 420.5 685.3 382 621.9 L 344.3 560.5 320.9 560.5 M 174.5 586.85 Q 170.75 578.15 163.85 572.4 148.8 558.7 118 558.7 95.9 558.7 77.65 562.1 L 77.65 723.2 98.8 723.2 98.8 657.9 Q 104.2 659.25 115.75 659.25 131.5 659.25 144.25 654.7 157.3 650.15 165.45 641.4 178.4 628.45 178.4 606.5 178.4 595.75 174.5 586.85 M 98.8 578.25 Q 107.15 576.45 118.55 576.45 136.45 576.45 146.65 584.4 157.2 592.8 157.2 608.6 157.2 624.95 146.35 634.3 135.4 643.35 116.1 643.35 105.05 643.35 98.8 641.75 L 98.8 578.25 M 103.9 355.75 Q 108.95 365.55 118.55 373.2 128 380.85 138.15 383.9 151.35 388.45 169.7 385.7 L 200.3 378.4 Q 201.05 378.15 204.75 377.75 208.05 377.45 209.2 376.9 190.2 373.1 179.25 363.65 L 161.75 347.05 Q 151.75 337.7 143.5 332.2 148.25 338.55 156.1 355 163.75 368.85 175 372.65 176.85 373.5 180.1 374.15 183.1 374.9 184.9 375.85 182.65 376.35 179.8 375.75 175.85 374.8 175 374.65 168.75 373.3 156.25 372.25 L 137.3 370.85 Q 114.8 368.1 103.9 355.75 M 123.3 319.15 Q 126.05 336.95 132 345.35 135 350.25 144.25 358.75 L 144 358.85 Q 138.7 356.4 133.1 351.3 127.65 346.85 117.7 341.75 109.8 338.15 101.45 333.8 81.9 323.6 75.3 308.7 77.35 321.9 87.1 334.55 96.1 346.1 108.95 353.95 117.45 360.1 133.95 363 156.85 367.25 160.15 368.3 150.6 360.55 144.55 346 138.7 328.8 135.5 320.6 129.9 308.2 116.6 292.25 120.25 299.25 123.3 319.15 M 104.4 254.15 Q 105.45 261.05 103.55 271.25 100.7 285.35 100.5 288.1 98.9 302.55 104.7 314.25 105.15 315.3 106.75 317.75 108 319.85 108.35 321.05 106.2 319.25 103.9 315.75 L 99.95 310 Q 96.45 304.15 89.75 297.15 L 78.05 285.35 Q 64.35 270.7 63.2 257.55 61.95 275.6 66.7 286.75 72.55 302.9 90.7 316.8 100.9 324.75 122.8 338.45 122.35 336.65 119.6 331.35 117.15 326.15 116.6 324.25 114.9 316.8 112.15 288.65 110.05 266.15 104.4 254.15 M 104.2 238.45 L 106.3 224.5 Q 107.4 216.45 106.75 210.7 104.5 219.1 101.75 224 92.1 238.65 88.8 248.5 84 263.6 88.7 276.45 88.15 276.95 88.05 276.65 86.55 273.25 85.1 266.55 L 82.85 256.25 Q 81.7 251.6 77.95 243 L 72.25 230.15 Q 65.65 214.55 68.1 202 66.3 206.15 64.05 216.55 60.85 233.2 67.45 254.8 70.1 263.4 79.45 274.85 91.05 288.75 93.6 293.65 L 94.65 294.5 Q 92.6 280.9 95.15 272.2 L 99.95 255.4 Q 102.7 246.2 104.2 238.45 M 116.4 128.5 Q 106.2 131.15 98.55 140.4 91.35 148.25 89.75 161.45 88.8 170.7 90.3 185.55 90.4 187.15 90.2 192.65 L 89.85 199.55 Q 94.2 191.05 104.7 181.85 134.05 161.1 134.35 139.55 131.25 147.55 121.95 154.75 118.75 157.4 106.2 166.65 98.35 174.5 95.15 182.9 L 94.85 182.55 Q 96 178.65 97.3 175.15 99.3 169.2 99.65 167.7 102.7 153.15 104.7 146.45 108.25 134.15 116.4 128.5 M 139.75 124.7 Q 146.25 115.9 152.7 110.35 137.85 116 132.35 119.15 121.4 125.45 116.1 134.55 112.7 139.25 110.55 147.3 107.7 157.4 106.2 160.6 L 117.7 150.7 Q 124.5 145.3 128.6 140.1 137.75 127.25 139.75 124.7 M 75.95 172.25 Q 71.6 182.7 71.7 194.05 71.05 204.85 77 220.25 83.6 237.6 84.45 245.75 86.05 234.4 95.9 220.05 110.45 198.5 111.85 195.95 116.7 184.9 118 174.6 116.5 178.65 112.35 183.1 100.05 194.25 96.1 198.8 87.75 208.5 86.15 218.15 L 84.95 224.3 Q 84.85 224.4 84.55 224.1 L 84.45 223.75 85.8 205.7 Q 83.9 188.1 83.3 178.65 81.8 162.4 88.05 152.95 L 87.2 153.35 Q 79.45 163.45 75.95 172.25 M 348.95 394.2 Q 336.2 395.4 325.15 391.25 L 309.65 384.95 Q 298 379 284.2 376.9 269.95 375 256.8 378.4 254.65 380.2 251.45 379.35 L 246.05 377.75 Q 230.55 374.35 212.7 379.65 207.1 381.35 182.25 391.85 171.3 396.35 158.25 395.4 144.85 394.4 135.5 387.95 143.8 398.35 159.1 404.1 171.1 408.85 184.9 406.55 197.65 404.4 208.7 396.85 219.4 388.9 225.8 385.3 235.85 379.15 245.55 382.2 221.95 393.15 202.85 412.8 L 210.9 419.25 Q 223.65 402.15 245.55 388.45 251.6 385.2 254 384.75 273.25 394.2 295.95 418.85 300.75 415.25 303.8 411.85 284.05 393.05 261.25 382.3 264.3 381.35 269.55 381.55 274.85 381.25 280.55 384.45 283.1 385.95 289.9 391 302.45 400.6 316.65 404.4 332.7 408.55 346.95 403.25 361.7 397.95 371.15 386.35 361.7 392.95 348.95 394.2 M 362.35 330.5 Q 354.25 336 343.75 346 337.05 352.15 325.8 363.4 320.4 368.4 312.45 371.7 306.25 374.35 297.15 376.25 L 297.15 376.35 301.3 376.9 Q 312.45 378.8 334.6 384.25 354.7 387.6 368.6 382.3 379 378.8 387.9 371.15 397.6 363.2 401.95 353.55 392.05 365.55 372.95 368.85 351.3 370.55 338.85 372.45 336.4 372.65 330.05 374.05 325.05 375.1 321.35 375.1 323.15 374.15 328.15 372.55 332.6 371.25 334.75 369.9 344.5 365 351.1 351.85 360.2 333.35 362.35 330.5 M 375.5 340.7 Q 379.95 332.95 382.5 315.65 385.05 297.15 388.65 290.15 385.9 293.1 382.4 298.2 L 376.65 306.4 Q 372.2 312.95 363.7 338.05 356.7 358.1 345.85 367.25 351.8 365.3 363.4 363 377.95 360.25 381 359.25 398.65 353.75 412.9 339 427.95 323.25 430.2 306.05 426.15 315.95 415.45 324.45 408.95 329.2 390.45 338.55 374.75 346.4 366.6 354.6 L 364.25 356.3 Q 362.85 357.25 361.7 357.25 369.85 350.05 375.5 340.7 M 433.25 275.8 Q 428.7 281.85 416.9 293.45 411.8 298.95 406.95 306.05 L 397.9 318.9 396.95 318.9 Q 404.5 307.55 405.35 294.5 405.55 287.4 402.7 273.15 400.05 259.75 401 251.7 L 397.9 259.9 Q 394.6 269.55 392.4 298.65 390.45 323.25 383.05 335.9 L 383.05 336.55 Q 390.05 331.25 396.2 327.4 L 409.6 318.6 Q 426.7 307.05 435.5 291 444.95 273.45 441.95 254.8 441 265.1 433.25 275.8 M 436.65 199.15 Q 438.45 210.2 434.85 222.2 432.85 227.8 426.15 243 423.6 249.25 421.6 257.85 L 418.1 273.35 417.15 274.3 416.9 273.9 418.5 267.4 Q 419.35 263.25 419.05 260.2 419.65 248.75 410.45 233.45 399.5 215.8 397.9 208.35 L 397.8 215.3 Q 399.4 236.1 409.5 266.55 411.6 271.65 411.7 279.3 411.7 284.3 410.95 292.35 414.9 286 421.8 277.4 429.95 267.1 432.95 262.65 440.5 249.05 441.95 231.4 443.25 213.35 436.65 199.15 M 373.9 173.85 Q 357.35 138.7 324 117.8 290.85 97.1 252.75 97.1 219.85 97.6 191.5 111.55 167.05 123.3 147.95 146.8 129.35 169.5 122.25 195.65 111.1 239.05 125.45 279.1 140.3 319.75 176.6 344.6 203.25 363.85 240.75 366.8 278.25 370 308.05 355.55 334.4 344.3 355 319.85 375.8 295.35 382.6 268.35 389.5 245.55 386.85 219.75 384.55 194.8 373.9 173.85 M 337.5 139.9 L 331.95 145.7 Q 328.65 149 327.3 151.75 327.3 151.25 326.25 149.95 324.85 148.9 324.65 148.4 324.3 145.6 322.1 143.3 320.4 141.15 317.5 139.35 316.45 139.25 314.55 137 312.75 135.4 310.95 136.15 309.45 134.7 306.7 135.1 L 302.35 136.7 302.35 137 Q 282.05 125.75 259.85 124.15 259.1 124.7 258.05 124.7 258.6 124.15 258.6 123.2 L 258.25 121.5 Q 257.3 119.9 256.15 120.55 255.6599609375 121.396484375 255.6 121.85 256.345703125 110.519140625 255.4 103.8 257.85 104.5 261.9 104.6 267.5 105.15 268.45 105.35 310.4 111.1 339.8 139.05 L 337.5 139.9 M 329 158.15 L 331.45 157.6 338.45 150.5 Q 342.8 145.95 344.8 143.3 376.55 178.85 380.15 221.35 L 380.4 224.85 Q 380.4 227.05 381.25 228.25 L 361.8 228.55 Q 361.15 229.1 360.2 229.1 L 360.75 228.35 Q 360.3 208.15 350.55 186.6 350.45 183.3 347.35 178.95 L 342.25 171.95 Q 340.65 170.8 337.4 166.45 334.4 162.4 331.95 161.1 L 330.6 159.2 Q 330.05 158.25 329 158.15 M 324.55 179.4 Q 326 179.7 328.35 181.85 330.6 183.75 332.6 183.4 333.75 184.35 336.3 187.45 339.3 191.05 340.05 191.7 339.7 192.75 340.65 193 341.65 193.3 342.8 192.75 L 344.8 192.25 Q 351.95 206.9 353.65 226.95 L 354.15 228.35 Q 343.1 228.15 334.5 228.75 L 334.2 223.05 Q 333.75 219.95 332.4 217.95 333.75 215.15 333.55 211.05 333.25 210.3 332.6 210.5 331.85 211.05 331.65 211.05 330.5 212.2 329.5 214.45 L 328.25 218.25 Q 326.95 220.15 326.65 222.9 326.25 225.45 327.2 227.8 L 327.95 228.75 320.4 228.55 Q 321.25 228.15 320.5 226.2 319.85 224.4 320.8 223.45 L 324.1 222.7 326.35 219.2 Q 327.8 217.4 327.8 215.5 330.8 211.9 329.5 208.9 329 207.3 329.95 203.3 330.9 199.65 328.9 197.95 329.3 197.2 328.8 196.35 328.15 195.4 327.3 195.4 326.35 195.4 325.7 195.1 325.05 195 325.05 194.05 L 326.25 192.45 Q 327.2 191.6 326.85 190.65 326.45 190.1 325.5 190.1 L 323.7 190.55 Q 323.7 190.1 324.65 187.9 325.4 186.5 324 185.55 323.05 185.55 321.55 186.3 320.4 187.15 319.35 186.8 317.65 185.45 318.7 183.95 L 314.55 178.95 313.6 178.85 Q 312.95 178.85 312.95 178.3 313.15 176.3 310.85 173.35 308.2 170.05 308.2 168.25 307.65 167.7 307.1 165.6 306.9 163.75 305.95 163.25 303.5 161.45 302.25 161.95 299.8 158.55 296.3 155.05 295.45 155.05 294.8 155.8 294.8 156.35 296.05 158.15 297.35 159.65 297.15 160.8 296.7 160.8 296.4 161.1 296.5 162.2 297.55 163.75 L 299.45 165.9 Q 285.25 154.85 263.35 151.35 261.05 151.25 259.45 150.8 256.8 150.6 255.6 151.05 255.95 147.55 255.95 142 L 255.95 132.45 255.2 131.05 Q 256.7 131.8 259.25 132.15 L 263.35 132.25 Q 279.5 134.15 295.95 141.7 L 298.95 144.45 Q 300.75 146.35 300.85 148.05 300.1 150.05 302.65 152.1 304.65 154.1 303.2 156.15 302.85 157.6 304.45 159.3 L 304.9 161.35 Q 304.9 162.4 305.65 162.9 306.7 163.05 308.7 161.85 310.2 160.7 311.7 161.1 315.4 163.65 315.4 170.7 315.95 173.75 319.65 175.15 321.9 174.5 322.5 176.5 323.6 179.05 324.55 179.4 M 380.4 236 L 381.45 235.55 380.5 237.15 Q 378.6 283.25 346.95 319.15 L 346.4 320.1 Q 337.15 309.7 331.55 305.55 333.75 303.95 335.8 301.4 L 339.5 296.7 Q 359.35 269.55 360.75 237.15 L 360.1 235.25 361.25 236.1 380.4 236 M 327.4 236.1 Q 326.85 238.1 326.55 241.95 L 325.6 247.65 Q 325.5 247.9 325.05 249.45 L 323.15 245.75 Q 322.1 243.85 320.3 242.9 318.9 242.05 318.8 240 318.25 237.7 317.3 237.15 L 315.2 235.15 Q 317.85 236.2 321.25 236.2 L 327.4 236.1 M 334.2 235.55 L 335.8 236.1 345.25 236.1 Q 350.75 236.1 354.35 235.75 L 353.65 236.85 Q 350.85 275.25 326.55 300.85 326.85 299.6 326.1 297.55 325.15 295.25 325.5 293.95 325.15 293.75 323.6 291 322.4 289.2 320.8 289.2 319.35 289.2 319.35 290.9 L 319.1 292.25 312.95 286.95 Q 314.95 285.8 316.8 283.35 L 320.3 278.65 Q 326.65 269.55 332.05 253.1 333.65 254.25 335.15 253.2 335.8 252.75 335.8 251.7 336.1 250.75 335.55 250.1 L 333.45 247.75 Q 333.45 245.95 334.1 241.6 334.4 237.6 334.2 235.55 M 327.3 311.4 L 341.65 324.75 Q 304.55 358.3 257.2 360.35 L 255.95 361.1 Q 256.8 350.45 255.95 340.05 257.85 340.7 261.05 340.35 L 276.75 338.05 283.75 342.4 Q 287.7 345.25 291.1 342.3 291.6 341.45 294.7 339.85 297.05 338.65 297.65 336.95 299.8 336.1 301.3 333.9 L 304.05 330.2 Q 305.3 326.45 310.2 323.7 316.8 319.55 317.75 318.5 L 322.95 314.35 Q 325.7 312.1 327.1 309.8 L 327.3 311.4 M 169.7 134.9 Q 174.4 130.75 175.55 130 208.9 105.9 247.75 104.3 L 247.25 106.1 247.55 122.35 248.2 123.95 Q 209.55 125.65 179.5 152.85 L 179.05 153.9 Q 169.6 143.3 164.2 139.55 L 163.65 139.55 Q 166.3 137.85 169.7 134.9 M 189.35 154 L 195.5 149.25 Q 219.1 133.5 247.95 131.7 247.35 136.5 248.2 151.25 246.25 150.7 242.85 151.05 239.15 151.9 237.55 151.9 213.35 157 197.1 172.25 L 196.8 171 190.2 164.5 Q 186.6 160.9 183.2 158.45 185.75 157 189.35 154 M 169.2 163.75 L 164.95 169.1 Q 146.65 195.2 144.75 226.65 L 145.3 229.3 Q 135 228.55 124.6 229.3 L 125.1 223.25 Q 125.1 219.4 125.65 217.1 130.55 176.5 159.95 143.6 L 160.45 145.4 Q 172.6 157.7 173.95 158.8 171.6 160.5 169.2 163.75 M 178.2 164.1 L 178.2 162.9 Q 184.7 170.25 192.55 177.05 173.3 197.75 171.1 227.5 L 171.3 228.55 Q 171.5 229.2 171.85 229.4 L 170.05 228.75 151.65 229.1 Q 154.4 196.05 171 173.35 L 178.2 164.1 M 238.1 178.65 Q 229.6 180.75 217.7 189.25 L 216.75 190.85 209.75 183.95 Q 205.05 179.3 202.4 177.35 223.35 160.05 247.1 158.45 L 248.3 157.6 Q 247.25 167.8 248.3 177.6 246.25 177.15 243.3 177.8 239.15 178.65 238.1 178.65 M 204.75 189.25 Q 208.45 193 212.4 196.15 210.4 196.15 208.45 199.05 206.45 201.9 204.55 201.7 202.1 202.95 199.95 206.45 L 197.3 207.5 Q 195.75 208.05 195 209.1 195 209.85 195.2 210.3 195.4 211.25 194.65 211.35 194.25 212 191.8 212.1 189.65 212.2 189.35 213.9 189.25 214.75 187.55 217.1 186.15 218.9 186.15 220.35 184.7 221.65 185.1 225.35 185.45 225.7 185.45 227.3 185.45 228.75 186.15 229.1 180.1 228.45 177.9 229.4 178.65 227.7 178.75 224.5 L 179.5 219.5 Q 183 199.75 197.55 182.15 L 204.75 189.25 M 256.15 159.3 L 255.4 157.95 Q 270.25 160.05 276.95 162.4 289.7 166.75 301.3 176.3 L 302.85 177.05 299.45 178.95 293.75 184.8 Q 289.9 188.6 288.45 190.85 L 287.9 189.45 Q 275.9 179.7 257.75 177.25 L 255.95 177.6 256.15 159.3 M 256.15 191.05 Q 256.25 186.7 255.6 184.5 259 185.55 263.6 186.05 272.4 188.3 282.8 194.8 281.55 195.1 278.85 197.95 278.75 198.7 279.5 199.05 280.15 199.25 280.55 199.65 L 281.95 199.15 Q 280.9 201.6 276.45 204.15 272.4 206.25 272.05 209.1 271 209.75 270.4 209.75 269.3 210.05 268.7 209.75 265.7 207 264.1 206.8 L 262.4 207.85 Q 261.15 208.35 260.4 207.85 261.35 207 264.95 204.85 267.95 203.05 268.9 201.15 270.05 197.65 269.85 195.85 268.25 194.15 267.3 194.9 266.65 195.95 264.2 197.45 262 198.8 261.35 199.9 L 256.55 198.3 Q 256.15 196.7 256.15 191.05 M 306.6 182.35 L 306.9 181.5 311.8 187.35 Q 314.55 190.95 315.95 193.5 315.95 194.45 314.45 197.45 313.3 199.45 315.7 200.4 317.1 200.75 318.7 202.2 320.4 203.7 321.45 203.9 323.25 206.55 325.15 214.2 L 323.05 218.15 Q 321.65 220.35 319.35 219.85 319 218.8 319.85 217.1 320.9 215.3 320.5 214.45 L 321.75 213.7 Q 322.5 213.35 322.5 212.6 322.5 211.75 321.05 210.8 319.65 210.05 319.35 208.9 318.9 208.15 317.85 208.05 L 316.15 207.5 Q 314.95 207.1 312.75 209.1 310.75 210.6 310.6 207.65 312.1 206.55 311.25 205.2 310.3 204.55 309.05 202.55 307.75 200.6 306.5 199.65 304.45 199.65 301.7 199.05 298.75 198.6 296.9 199.05 L 293.65 198.05 Q 291.7 197.95 290.65 199.35 290.65 200.95 289.5 203.9 288.45 203.6 287.6 202 L 306.6 182.35 M 243.2 197.95 Q 243.3 197.1 242.75 196.7 241.05 197.65 240.35 200.1 239.5 203.05 238.65 203.8 238.4 204.85 237.05 205 235.55 205.3 234.9 205.7 234.25 204.65 233.3 204.65 232.25 204.45 231.3 205.2 230.75 205.2 229.6 203.8 228.75 202.45 227.9 203.6 L 227.35 204.45 Q 227.25 205.1 226.3 204.85 L 225.25 203.9 Q 225.25 203.6 226 203.05 226.85 202.55 226.3 202 225.65 200.75 223.85 200.1 221.3 199.05 220.9 198.5 L 219.4 198.5 Q 230.05 187.35 248.2 185 247.65 195.5 249.15 199.65 248.2 198.6 246.15 199.05 243.85 199.65 243 199.35 242.85 199.05 243.2 197.95 M 144.75 240.25 L 145.1 240.55 Q 145.5 249.6 148.25 261.05 L 149.3 262.65 Q 148.6 261.9 147.75 260.5 L 146.35 258.4 Q 143.05 259.05 141.9 260 142.2 261.15 141.35 261.6 L 139.75 262 Q 139.35 261.15 138.4 260.5 135.65 260.85 135 262.2 135 262.95 134.45 263.4 L 133.6 264.45 133.1 269.55 Q 133.1 272.5 134.45 274 134.65 277.3 137.1 279.65 137.65 279.75 138.7 279.1 139.55 279.85 141.05 281.75 142.4 283.45 144 283.05 144.65 282.9 144.75 282.3 L 144.95 281.2 146.9 283.9 Q 147.95 285.35 149.55 285.35 150.4 286.2 150.6 286.55 151.15 287.15 151.65 287.15 153.15 286.85 154 288.65 154.85 291.2 155.7 291.5 156.85 292.5 157.8 293.55 159.2 294.6 160.45 293.95 L 161.2 292.9 Q 161.75 293.1 161.75 294.05 161.75 295.15 162.05 295.55 163.85 298.85 167.6 299.8 L 170.75 303.2 Q 172.45 305.1 173.95 306.2 L 172.35 306.9 158.9 320.7 149.55 308.4 Q 144.1 301.3 141.05 295.55 126.15 267.75 124.6 236.6 L 143.4 236.75 145.1 236.1 Q 144.85 237.6 144.95 239.8 L 144.75 239.7 Q 144.55 239.8 144.75 240.25 M 152 237.35 L 151.15 236.2 Q 157.5 237.15 169.9 236.75 L 171.3 236.1 Q 170.35 242.15 172.35 245.2 L 171.5 244.05 Q 170.45 242.9 169.4 242.9 167.8 242.9 165.8 245.2 163.85 247.75 162.05 247.75 160.35 249.15 159.4 251.9 158.9 253.4 158.35 256.5 159 257.35 158.35 258.5 157.8 260 158.25 260.5 157.05 260.6 156.75 262 L 156.1 263.8 Q 156.1 261.05 155.05 256.8 153.8 252.35 153.55 249.9 L 152 237.35 M 252 209.65 L 253.05 210.2 250.95 209.95 Q 249.55 209.95 249.05 210.5 248.2 211.05 249.05 212.85 L 251.8 215.5 Q 253.3 217.2 255.1 216.35 258.05 216.75 258.7 218.25 259.25 218.55 260.8 220.6 262 222.3 263.45 221.65 L 263.35 224.1 Q 263.35 225.6 264.55 226.2 L 263.45 227.7 Q 262.6 228.45 262.6 229.3 261.75 230.25 262.4 230.9 263.9 231.2 264.65 232.9 L 265.8 235.55 Q 264.95 239.05 267.7 240.55 267.4 242.55 265.5 246.8 264.95 247.15 260.95 246.9 257.95 246.9 257.55 249.6 257.1 250.1 256.55 252.75 256.05 254.9 254.45 254.9 245.55 255.75 239.7 250.95 239.9 250.75 244.45 250.1 247.35 250 247.95 247.35 249.35 246.5 248.7 244.8 249.45 244.05 250.1 242.65 L 251.15 240.35 Q 250.4 239.6 250.4 238.95 L 250.85 237.6 Q 248.8 235.75 246.05 235.75 243 236.2 240.75 236.2 239.7 236.95 239.7 238.75 240 240.55 239.25 241.3 237.65 241.5 236.6 243 234.9 245.55 234.7 245.65 234.15 245.55 233.3 244.5 232.8 243.75 232.8 242.65 L 233.2 242.65 Q 232.9 243.65 233.85 243.95 235.45 244.15 235.75 242.55 235.95 240.65 236.4 240 238.1 237.6 238.2 237.35 239.25 235.9 237.55 235.15 L 237.55 233.95 Q 237.55 233.45 237.05 233.1 L 235.45 233.65 Q 234.51484375 234.04375 234.4 235 L 234.7 231.75 Q 234.7 229.5 235.45 227.8 234.9 226.65 235.95 225.35 L 237.55 223.45 Q 238.85 223.45 239.5 222.2 L 240.2 220.05 Q 243.6 219.3 245 218.45 247.55 217.3 248.7 215.05 248.3 213.25 248.2 212.3 247.85 210.4 247.1 209.65 250.95 208.35 252 209.65 M 282.15 254.35 Q 281.65 255.2 281.95 255.4 282.5 256.15 284.05 256.8 285.35 257.75 285.45 258.9 285.45 259.45 285.75 260.2 285.9 261.15 285.15 261.25 283.85 261.45 283.2 259.9 282.6 258.05 281.1 258.4 280.35 257.55 280.05 255.2 281.1 253.8 282.15 254.35 M 272.05 267.95 L 272.6 267 274.75 265.3 Q 276.2 264.65 277.7 264.75 277.6 266.15 275.7 267.1 272.9 268.5 272.6 268.9 271.95 268.6 272.05 267.95 M 249.25 262.65 Q 249.9 263.25 249.35 264.35 249.05 265.6 249.8 266.05 249.9 266.45 249.35 266.9 L 248.7 267.4 249.25 269.65 Q 249.45 271.15 250.65 271.25 250.85 272 250.75 272.3 250.3 272.95 249.8 272.95 246.6 272.6 245.95 274.2 245.4 274.85 245.4 276.95 L 245.3 279.75 Q 232.05 277.5 221 268.6 L 227.8 262.1 Q 232.05 257.85 233.4 255.2 233.85 256.6 235.45 257.85 L 238.1 259.45 243.95 262 Q 247.65 262.85 250.2 261.8 L 249.25 262.65 M 259.85 273.8 Q 260.5 274.75 262.6 275.4 264.65 276 265.5 277.2 265.8 277.3 266.15 276.95 L 266.25 276.35 266.25 275.4 Q 266.85 275.4 268.9 276.55 270.5 277.5 271.65 276.35 272.6 275.4 271.65 274.3 L 271 273.8 Q 271.55 273.35 273.15 274.4 274.4 275.6 275.35 274.95 L 277.5 273.15 Q 278.55 272.2 280.05 272.2 L 280.55 272.75 Q 281.1 277.2 274.5 280.9 L 271 281.85 Q 269 282.6 269 284.6 267.95 285.7 265.7 284.95 263.25 284 262 284.4 261.55 284 261.35 282.8 261.25 281.75 260.3 281.45 259.25 281.95 255.95 281.65 253.3 281.35 252 283.25 250 283.55 248.2 282.8 247.65 282.6 247.65 282.3 L 247.55 281.65 Q 248.3 281.65 249.9 280.6 251.35 279.5 252.45 279.65 252.85 279.3 253.9 277.6 254.55 276.45 255.6 276.1 255.3 275.25 256.15 274.95 257.4 274.95 257.75 274.4 258.9 273.25 259.85 273.8 M 280.35 279.75 Q 280.05 278.9 281.1 278.55 289.6 279.2 297.9 282.4 300.55 282.4 301.6 281.2 301.5 280.05 302.65 278.55 303.7 276.85 303.7 275.8 304.35 274.85 304.45 272.75 304.8 270.6 305.5 269.65 305.95 265.4 303.95 262.85 303.3 262.45 301.8 262.65 300.55 263.25 299.7 263.25 L 298.4 266.05 Q 297.65 267.75 295.95 267.4 295 268.6 293.1 268.05 292.15 267.75 292.55 267.3 293.5 266.65 296.05 266.35 298.1 265.7 298.4 263.7 298.85 263.15 301.05 262.65 302.85 262.3 303.5 261.45 303.95 260.95 304.9 259.05 305.65 257.75 306.5 256.9 306.7 256.05 306.7 254.8 L 307.2 256.35 Q 307.75 257.45 308.3 257.55 309.45 257.85 310.2 257.2 L 311.35 255.75 Q 311.15 255.3 311.45 254.9 311.9 254.8 312.2 254.9 313.15 255.85 315.1 255.65 L 318.25 255.2 Q 321.05 254.35 323.45 254.35 321.45 263.9 313.6 275.05 310.2 279.85 308.7 281.45 308.05 277.6 306.7 276.45 L 305.95 276.55 303.95 279.65 Q 302.85 281.45 302.85 283.05 302.15 284.4 299.15 284.4 295.75 284.3 294.9 284.85 293.1 285.35 291.3 284.1 288.65 282.3 288.1 282.3 286.95 281.75 284.3 281.1 281.4 280.35 280.35 279.75 M 305.1 295.25 Q 307.45 293 308.2 291.4 L 308.7 292.8 316.8 301.3 Q 316.8 304.9 319.1 305.75 319.55 305.95 320.4 305.65 321.35 305.45 321.9 305.65 L 321.45 305.65 Q 320.2 307.05 315.6 310.95 L 309.35 315.75 308.5 316.9 Q 308.3 316.35 309.25 315.2 310.3 314.15 309.65 313.3 307.45 311.5 309.55 308.85 312.3 306.05 312.95 304.6 312.1 300.45 306.05 298.75 305.3 298.3 305.1 297.15 L 305.1 295.25 M 206.05 244.25 Q 206.55 245.1 209.55 245.55 211.85 245.85 211.85 247.9 L 212.95 248 213.45 247.45 214.1 247.75 215.15 248.5 Q 215.5 249.05 214.85 249.45 215.6 252 218.05 252.55 218.05 252.95 218.55 253.5 219.1 253.8 219.6 253.3 220.05 252.85 219.4 251.5 218.75 250.2 219.85 249.9 220.45 250.75 220.45 252.25 220.7 254.25 220.9 254.65 221.85 255.85 221.55 257.35 L 218.55 260.5 Q 216.65 262.1 215.9 263.8 215.5 262.65 213.25 259.55 211.65 257.2 210.8 255.2 209.75 253.5 208.25 249.9 206.75 245.75 206.05 244.25 M 220.7 238.3 Q 220.55 237.8 221.55 237.25 222.7 236.95 222.8 236.2 222.7 235.15 223.35 233.65 224.3 232.6 224.7 231.5 225.55 230.8 226.85 231.4 228 232.35 228.65 232.25 L 229.5 231.2 Q 229.9 231.5 231.2 234.7 232.05 236.95 234.4 235.55 L 234.4 235.05 Q 235.25 236.95 233.3 238.2 L 232.8 238.2 Q 233.2 237.35 231.85 236.6 L 229.6 237.15 Q 228.35 237.7 227.6 237.35 224.3 238.2 220.7 238.3 M 179.25 244.05 Q 178.5 238.95 178.5 237.35 L 177.45 235.75 Q 178.75 236.75 180.65 236.75 182.15 236.75 184.05 236.5 181.9 237.05 181.6 239.8 L 180.65 244.05 Q 180.45 244.6 181.4 245.35 182.05 246.2 181.9 246.7 180.95 247.45 180.35 248.5 L 179.5 250.55 Q 180 247.9 179.25 244.05 M 198.7 227.8 L 199.25 231.85 Q 199.45 234.05 198.7 235.75 199.75 236.2 199.45 237.25 199.45 237.8 198.9 239.15 L 197.3 240 Q 196.7 240.55 195.5 240.35 194.15 238 192.85 238.1 192.2 238.65 192.55 240.25 193.05 241.7 193.05 242.45 192.85 242.9 192.85 244.05 192.65 245 192.35 245.2 191.6 244.8 190.75 244.8 190 245.1 190.2 246.05 L 190.65 247.35 192.35 248.75 Q 193.4 249.35 194.15 249.35 L 194.65 248.4 Q 194.65 247.65 195.2 245.55 195.75 243.2 195.75 242.45 L 197.65 243.5 Q 200.2 255 207.95 266.55 L 210.6 269.1 Q 201.9 276.75 193.4 286.75 L 193.4 286.95 Q 192.85 285.55 192.2 286 191.9 284.6 193.8 283.75 195.5 282.7 195.2 281.2 L 194.45 276.95 Q 192.1 274.95 191.5 270.6 191.5 264.85 191.25 263.25 189.9 262.2 189.65 259.45 189.65 256.35 188.8 255.2 188.8 253.7 185.95 250.65 183.6 248.1 184.6 245.65 182.9 243.2 183.85 241.95 184.35 241.3 186.4 241.3 188.1 241.1 188.5 239.9 L 189.05 236.5 Q 189.45 236.1 191.25 236.3 192.75 236.6 193.05 235.55 193.7 234.4 191.8 230.25 190.65 227.15 193.6 226.2 L 196.6 226.1 Q 198.05 226.45 198.7 227.8 M 229.4 250.85 Q 228.1 250.85 226.75 252 L 224.4 254.15 224.2 254.05 Q 226.4 252 227.05 249.6 L 229.4 250.85 M 215.15 273.9 Q 216.45 276 219.1 278.05 L 223.65 281.1 Q 225.55 281.85 231.5 285.15 236.2 287.4 240 286.55 237.15 287.6 234.9 289.8 234.4 291.3 234.15 292.9 233.55 294.6 232.05 295.15 232.05 297.7 234.15 300.45 234.25 300.65 238.1 305 L 241.3 306.4 Q 230.55 303.85 223.35 300.85 214 296.95 206.9 291.2 L 204.55 289.2 Q 203.05 287.7 201.9 287.6 209 281.75 215.15 273.9 M 204.55 300.85 Q 203.35 299.4 203.15 298.75 223.45 313.95 246.6 314.9 L 248.2 314.25 248.2 332.1 249.05 334.3 247.1 333.15 Q 211.55 331 181.9 305.1 183.4 305.1 185.65 306.7 187.75 308.4 189.55 307.75 190.95 307.75 194.45 306.2 197.2 304.9 199.75 305.1 204 305.1 205.05 303.4 205.4 302.45 204.55 300.85 M 178 311.9 L 178.2 311.05 Q 205.9 337.8 246.7 340.7 L 248.7 340.15 248.2 341.2 248.2 359.25 249.15 360.85 Q 246.8 360.25 242.45 359.9 237.35 359.6 235.75 359.25 196.7 353.85 164.2 325.8 L 178 311.9 M 264.95 318.9 Q 264.65 319.75 263.7 321.25 263.15 322.95 263.45 323.8 265.7 329.55 269 329.75 269.85 330.8 272.05 331.65 L 263.9 332.4 Q 258.6 332.95 255.95 333.8 256.25 330.2 256.15 325.5 L 255.95 317.35 255 315.75 Q 255.5 315.85 256.15 316.35 L 257 317.35 Q 257.95 317.55 261.45 317.45 264.1 317.45 264.95 318.9 M 281.4 118.95 L 281.4 118.65 Q 279.95 116.4 276.85 115.45 274 114.7 271 114.6 L 261.25 118.65 Q 258.9 117.7 258.25 118.95 258.05 119.3 258.4 120.25 260.8 123.2 265.15 122.9 L 272.6 121.3 Q 276.65 122.9 281.4 118.95 M 319.1 133.7 Q 318.5 132.15 316.15 131.15 315.5 131.9 314 131.4 312.75 130.65 312.2 131.6 312.2 133 312.75 133.5 313.8 134.05 315.7 136.4 317.4 138.3 319.35 137.75 319.95 137 319.65 135.85 319 134.15 319.1 133.7 M 385.6 172.5 Q 386.75 180 390.8 190 393.85 197.45 406 213.7 417.15 228.45 419.65 238.1 L 420.85 243.2 Q 422.95 230.05 427.65 218.25 434.2 204.55 432.4 187.35 430.8 170.45 421.8 158.15 420.3 155.7 419.05 153.9 417.45 151.55 415.45 150.3 418.6 154.85 420 161.1 420.85 165.25 421.15 173.55 417.35 199.55 420.5 221.35 420.5 221.85 420 221.85 419.45 219.85 418.6 215.3 418 211.35 416.6 208.9 414.15 200.85 402.15 190.3 388.75 178.55 385.6 172.5 M 389.85 137.45 Q 385.4 128.75 378.6 122.55 373.5 117.9 364.55 114.2 353.75 110.15 349.7 108.35 L 360.85 119.7 Q 375.3 142.75 397.4 158.45 L 395.8 154.55 Q 393.15 144.25 389.85 137.45 M 386.35 126.1 Q 394.2 131.5 397.8 140.95 399.2 145.7 402.8 160.8 405.85 172.7 409.35 179.9 L 409.05 180.25 406.2 174.9 Q 404.4 171.55 402.25 169.6 398.55 164.5 384.2 154.55 372.3 146.45 368.7 137.75 371.35 153.9 379.65 162.9 382.5 166.1 398.45 178.85 410.35 188.3 414.9 197.2 L 414.9 197 Q 413.6 189.8 414.35 176 415 162.2 413.4 154.95 411.5 145.1 403.75 136.9 395.9 128.2 386.35 126.1 Z"/>
</g>
</defs>
<g transform="matrix(1,0,0,1,0,0)">
<use xlink:href="#l1"/>
</g>
<g transform="matrix(1,0,0,1,0,0)">
<use xlink:href="#l0"/>
</g>
</svg>
