<svg xmlns="http://www.w3.org/2000/svg" xmlns:xlink="http://www.w3.org/1999/xlink" viewBox="0 0 600 450">
<!-- Vectorization by Rodrigo Polo https://github.com/rodrigopolo/logotipos-politicos -->
<style type="text/css">
.st0{fill:#029CD9;}
.st1{fill:#64B448;}
.st2{fill:#D09F29;}
.st3{fill:#C32033;}
.st4{fill:#2D9A47;}
.st5{fill:#48773C;}
.st6{fill:#FAB61B;}
.st7{fill:#E8422E;}
.st8{fill:#F59C28;}
.st9{fill:#027DBC;}
.st10{fill:#8F1839;}
.st11{fill:#01ADD8;}
.st12{fill:#ED6E28;}
.st13{fill:#E52330;}
.st14{fill:#E01C83;}
.st15{fill:#1E3666;}
.st16{fill:#CD8B2A;}
.st17{fill:#00568B;}
</style>
<g>
<path class="st0" d="M182.7,312c-3.2,3.9-7.7,6.9-13.6,9.1c-5.9,2.2-12.4,3.3-19.6,3.3c-7.5,0.1-14.1-1.5-19.8-4.8c-5.7-3.2-10.1-8-13.2-14.2c-3.1-6.2-4.8-13.6-4.9-22l0-5.9c-0.1-8.7,1.4-16.2,4.2-22.6c2.9-6.4,7.1-11.3,12.6-14.7 c5.5-3.4,11.9-5.1,19.4-5.2c10.3-0.1,18.4,2.3,24.3,7.2s9.3,12,10.5,21.4l-17.5,0.1c-0.8-5-2.6-8.6-5.4-10.9 c-2.7-2.3-6.5-3.4-11.3-3.4c-6.1,0-10.7,2.4-13.9,7c-3.2,4.6-4.7,11.4-4.7,20.5l0,5.6c0.1,9.1,1.8,16,5.3,20.6 c3.5,4.6,8.6,6.9,15.3,6.9c6.7,0,11.5-1.5,14.4-4.4l-0.1-15l-16.3,0.1l-0.1-13.2l34.2-0.2L182.7,312z"/>
<path class="st0" d="M330.8,304.1l-31.4,0.2l-5.9,18l-19.1,0.1l31.8-87.2l16.6-0.1l33.2,86.8l-19.1,0.1L330.8,304.1z M304.1,289.7 l21.8-0.1l-11.2-32.5L304.1,289.7z"/>
<polygon class="st0" points="379.2,307.3 417.3,307 417.4,321.4 361.4,321.8 360.8,234.8 378.8,234.7"/>
<path class="st0" d="M470,298.2c0-3.4-1.2-6-3.6-7.8c-2.4-1.8-6.7-3.7-12.9-5.7c-6.2-2-11.2-3.9-14.8-5.8 c-9.9-5.3-14.9-12.4-15-21.5c0-4.7,1.3-8.9,3.9-12.6c2.6-3.7,6.4-6.6,11.4-8.7c4.9-2.1,10.5-3.2,16.7-3.2c6.2,0,11.8,1,16.6,3.3 c4.9,2.2,8.7,5.4,11.4,9.5c2.7,4.1,4.1,8.7,4.1,14l-17.9,0.1c0-4-1.3-7.1-3.8-9.3c-2.5-2.2-6.1-3.3-10.6-3.2c-4.4,0-7.8,1-10.2,2.8 c-2.4,1.9-3.6,4.3-3.6,7.3c0,2.8,1.5,5.2,4.3,7.1c2.9,1.9,7.1,3.7,12.6,5.3c10.2,3,17.7,6.8,22.4,11.3c4.7,4.5,7.1,10.2,7.1,16.9 c0.1,7.5-2.8,13.5-8.4,17.8c-5.7,4.3-13.3,6.5-23,6.6c-6.7,0-12.8-1.1-18.3-3.6c-5.5-2.4-9.7-5.7-12.6-10 c-2.9-4.2-4.4-9.2-4.4-14.8l18-0.1c0.1,9.6,5.8,14.4,17.3,14.3c4.3,0,7.6-0.9,10-2.7C468.8,303.8,470,301.3,470,298.2"/>
<path class="st1" d="M214.5,267.2c1.1-1.8,2.4-3.5,3.9-5L205.6,248c-3.2,3.1-6,6.7-8.2,10.6L214.5,267.2z"/>
<path class="st2" d="M246,257.2c1.9,0.9,3.8,2,5.4,3.4l12.9-14.1c-3.4-2.9-7.2-5.3-11.4-7.1L246,257.2z"/>
<path class="st3" d="M275.6,261.4l-17.1,8.5c0.8,1.9,1.4,3.9,1.7,6l19-1.8C278.6,269.7,277.4,265.4,275.6,261.4"/>
<path class="st4" d="M257.3,267.5l17.1-8.5c-2.1-3.9-4.8-7.5-8-10.6l-12.9,14.1C254.9,264,256.2,265.6,257.3,267.5"/>
<path class="st5" d="M211.1,279.6c0-0.4,0-0.8,0-1.2l-19-1.7c-0.1,0.9-0.1,1.9-0.1,2.9c0,3.6,0.5,7.2,1.3,10.6l18.4-5.3 C211.3,283.2,211.1,281.5,211.1,279.6"/>
<path class="st6" d="M254.9,295.3c-1.4,1.6-2.9,3.1-4.6,4.4l10,16.3c3.7-2.5,7-5.6,9.8-9.1L254.9,295.3z"/>
<path class="st7" d="M260.5,279.6c0,1.8-0.2,3.6-0.6,5.2l18.4,5.3c0.8-3.4,1.3-6.9,1.3-10.5c0-0.9,0-1.8-0.1-2.7l-19,1.8 C260.5,279,260.5,279.3,260.5,279.6"/>
<path class="st8" d="M217,295.6l-15.2,11.5c2.8,3.5,6.2,6.5,9.9,9l10-16.2C220,298.7,218.4,297.3,217,295.6"/>
<path class="st9" d="M211.5,275.7c0.3-2.1,1-4.2,1.8-6.1l-17.1-8.5c-1.9,4-3.2,8.4-3.8,12.9L211.5,275.7z"/>
<path class="st10" d="M257.9,317.3l-10-16.2c-1.8,1-3.8,1.8-5.8,2.4l3.5,18.8C250,321.2,254.1,319.6,257.9,317.3"/>
<path class="st11" d="M259.2,287.5c-0.7,2-1.6,3.8-2.7,5.5l15.2,11.5c2.5-3.6,4.4-7.5,5.8-11.7L259.2,287.5z"/>
<path class="st12" d="M239.4,304c-1.2,0.2-2.3,0.3-3.6,0.3c-1,0-1.9-0.1-2.9-0.2l-3.5,18.8c2.1,0.3,4.2,0.5,6.4,0.5 c2.4,0,4.8-0.2,7.1-0.6L239.4,304z"/>
<path class="st13" d="M237.4,255c2.1,0.1,4.2,0.5,6.1,1.2l6.9-17.8c-4.1-1.4-8.4-2.3-13-2.5V255z"/>
<path class="st14" d="M230.2,303.7c-2.1-0.5-4.2-1.3-6.1-2.3l-10,16.2c3.9,2.2,8.1,3.8,12.6,4.8L230.2,303.7z"/>
<path class="st15" d="M228.4,256.1c2-0.6,4.1-1,6.2-1.1v-19.1c-4.6,0.1-9,1-13.1,2.4L228.4,256.1z"/>
<path class="st16" d="M215.4,293.4c-1.2-1.8-2.2-3.7-2.9-5.8l-18.3,5.3c1.4,4.4,3.4,8.5,6.1,12.1L215.4,293.4z"/>
<path class="st17" d="M220.5,260.3c1.6-1.3,3.4-2.4,5.3-3.2l-6.9-17.8c-4.1,1.7-7.9,4.1-11.3,6.9L220.5,260.3z"/>
<path class="st0" d="M134.3,157.1c0-1.4-0.5-2.5-1.5-3.3c-1-0.8-2.7-1.6-5.2-2.4c-2.5-0.8-4.5-1.6-6.1-2.4c-5.1-2.5-7.7-6-7.7-10.4 c0-2.2,0.6-4.1,1.9-5.8c1.3-1.7,3.1-3,5.4-3.9c2.3-0.9,5-1.4,7.9-1.4c2.9,0,5.4,0.5,7.7,1.5c2.3,1,4,2.5,5.3,4.4 c1.3,1.9,1.9,4,1.9,6.5h-9.5c0-1.6-0.5-2.9-1.5-3.8c-1-0.9-2.3-1.3-4-1.3c-1.7,0-3.1,0.4-4.1,1.1c-1,0.8-1.5,1.7-1.5,2.9 c0,1,0.5,1.9,1.6,2.8c1.1,0.8,3,1.7,5.8,2.6s5,1.8,6.8,2.9c4.3,2.5,6.4,5.9,6.4,10.2c0,3.5-1.3,6.2-3.9,8.2c-2.6,2-6.2,3-10.8,3 c-3.2,0-6.1-0.6-8.7-1.7c-2.6-1.2-4.6-2.7-5.9-4.7c-1.3-2-2-4.3-2-6.9h9.6c0,2.1,0.6,3.7,1.7,4.7c1.1,1,2.9,1.5,5.4,1.5 c1.6,0,2.8-0.3,3.8-1C133.9,159.3,134.3,158.3,134.3,157.1"/>
<path class="st0" d="M180.5,127.9v26c0,2.9-0.6,5.5-1.9,7.7c-1.3,2.2-3.1,3.8-5.4,4.9c-2.3,1.1-5.1,1.7-8.3,1.7 c-4.8,0-8.6-1.3-11.4-3.8c-2.8-2.5-4.2-5.9-4.3-10.3v-26.2h9.6v26.4c0.1,4.3,2.1,6.5,6.1,6.5c2,0,3.5-0.5,4.5-1.6 c1-1.1,1.5-2.9,1.5-5.3v-25.9H180.5z"/> 
<path class="st0" d="M207.6,157.1c0-1.4-0.5-2.5-1.5-3.3c-1-0.8-2.7-1.6-5.2-2.4c-2.5-0.8-4.5-1.6-6.1-2.4c-5.1-2.5-7.7-6-7.7-10.4 c0-2.2,0.6-4.1,1.9-5.8c1.3-1.7,3.1-3,5.4-3.9c2.3-0.9,5-1.4,7.9-1.4c2.9,0,5.4,0.5,7.7,1.5c2.3,1,4,2.5,5.3,4.4 c1.3,1.9,1.9,4,1.9,6.5h-9.5c0-1.6-0.5-2.9-1.5-3.8c-1-0.9-2.3-1.3-4-1.3c-1.7,0-3.1,0.4-4.1,1.1c-1,0.8-1.5,1.7-1.5,2.9 c0,1,0.5,1.9,1.6,2.8c1.1,0.8,3,1.7,5.8,2.6c2.7,0.9,5,1.8,6.8,2.9c4.3,2.5,6.4,5.9,6.4,10.2c0,3.5-1.3,6.2-3.9,8.2 c-2.6,2-6.2,3-10.8,3c-3.2,0-6.1-0.6-8.7-1.7c-2.6-1.2-4.6-2.7-5.9-4.7c-1.3-2-2-4.3-2-6.9h9.6c0,2.1,0.6,3.7,1.7,4.7 c1.1,1,2.9,1.5,5.4,1.5c1.6,0,2.8-0.3,3.8-1C207.1,159.3,207.6,158.3,207.6,157.1"/>
<polygon class="st0" points="253.8,135.3 241.9,135.3 241.9,167.7 232.3,167.7 232.3,135.3 220.6,135.3 220.6,127.9 253.8,127.9"/>
<path class="st0" d="M277.7,160.2h-13.1l-2.3,7.4H252l14.6-39.7h9l14.7,39.7H280L277.7,160.2z M266.8,152.9h8.5l-4.3-13.8 L266.8,152.9z"/>
<rect x="294.4" y="127.9" class="st0" width="9.5" height="39.7"/>
<polygon class="st0" points="344.3,167.7 334.8,167.7 320.7,142.9 320.7,167.7 311.1,167.7 311.1,127.9 320.7,127.9 334.8,152.7 334.8,127.9 344.3,127.9"/>
<path class="st0" d="M374,160.2h-13.1l-2.3,7.4h-10.2l14.6-39.7h9l14.7,39.7h-10.3L374,160.2z M363.2,152.9h8.5l-4.3-13.8 L363.2,152.9z"/>
<path class="st0" d="M390,167.7v-39.7h14.3c5.1,0,9,0.9,11.7,2.8c2.7,1.9,4,4.6,4,8.2c0,2.1-0.5,3.8-1.4,5.3 c-0.9,1.5-2.3,2.5-4.2,3.2c2.1,0.5,3.7,1.6,4.8,3.1c1.1,1.5,1.7,3.3,1.7,5.5c0,3.9-1.2,6.8-3.7,8.8c-2.5,2-6.1,3-11,3H390z M399.6,144.5h5c2.1,0,3.6-0.4,4.5-1.1c0.9-0.7,1.3-1.9,1.3-3.3c0-1.7-0.5-2.9-1.4-3.6c-1-0.7-2.5-1.1-4.7-1.1h-4.7V144.5z M399.6,150.8v9.5h6.3c1.7,0,3.1-0.4,4-1.2c0.9-0.8,1.4-1.9,1.4-3.3c0-3.3-1.6-5-4.9-5H399.6z"/>
<polygon class="st0" points="436.2,160.3 452.9,160.3 452.9,167.7 426.6,167.7 426.6,127.9 436.2,127.9"/>
<polygon class="st0" points="482.1,150.8 467.1,150.8 467.1,160.3 484.9,160.3 484.9,167.7 457.5,167.7 457.5,127.9 484.9,127.9 484.9,135.3 467.1,135.3 467.1,143.7 482.1,143.7"/>
<path class="st0" d="M113.8,221.4v-38.9h12.5c3.4,0,6.5,0.8,9.3,2.3c2.7,1.6,4.9,3.8,6.4,6.6c1.5,2.8,2.3,6,2.3,9.6v1.8 c0,3.6-0.8,6.8-2.3,9.6c-1.5,2.8-3.6,5-6.4,6.6c-2.7,1.6-5.8,2.4-9.2,2.4H113.8z M123.2,189.7v24.5h3.3c2.7,0,4.8-1,6.2-2.9 c1.4-1.9,2.2-4.8,2.2-8.5v-1.7c0-3.8-0.7-6.6-2.2-8.5c-1.4-1.9-3.5-2.9-6.3-2.9H123.2z"/>
<polygon class="st0" points="171.3,204.9 157.5,204.9 157.5,214.2 173.9,214.2 173.9,221.4 148.1,221.4 148.1,182.5 174,182.5 174,189.7 157.5,189.7 157.5,197.9 171.3,197.9"/>
<polygon class="st0" points="194.5,210.8 202.3,182.5 212.8,182.5 199.7,221.4 189.4,221.4 176.4,182.5 186.8,182.5"/>
<polygon class="st0" points="238.6,204.9 225,204.9 225,214.2 241.3,214.2 241.3,221.4 215.6,221.4 215.6,182.5 241.3,182.5 241.3,189.7 225,189.7 225,197.9 238.6,197.9"/>
<polygon class="st0" points="253.9,214.2 268.7,214.2 268.7,221.4 244.5,221.4 244.5,182.5 253.9,182.5"/>
<path class="st0" d="M303.7,202.7c0,3.8-0.7,7.2-2.1,10.1c-1.4,2.9-3.4,5.2-6,6.7c-2.6,1.6-5.5,2.4-8.9,2.4c-3.3,0-6.3-0.8-8.8-2.3 c-2.6-1.5-4.6-3.7-6-6.5s-2.2-6.1-2.3-9.8v-2.2c0-3.8,0.7-7.2,2.1-10.1c1.4-2.9,3.4-5.2,6-6.8c2.6-1.6,5.6-2.4,8.9-2.4 c3.3,0,6.2,0.8,8.8,2.4c2.6,1.6,4.6,3.8,6,6.7c1.4,2.9,2.2,6.2,2.2,10V202.7z M294.1,201.1c0-3.9-0.6-6.8-1.9-8.8 c-1.3-2-3.1-3-5.5-3c-4.7,0-7.2,3.5-7.5,10.6l0,2.9c0,3.8,0.6,6.7,1.9,8.8c1.3,2,3.1,3.1,5.6,3.1c2.4,0,4.2-1,5.5-3 c1.3-2,1.9-4.9,2-8.7V201.1z"/>
<path class="st0" d="M316.8,208.2v13.2h-9.4v-38.9h15.5c3,0,5.6,0.5,7.9,1.6c2.3,1.1,4.1,2.7,5.3,4.7c1.3,2,1.9,4.3,1.9,6.9 c0,3.8-1.4,6.8-4.1,9.1c-2.7,2.3-6.4,3.4-11.2,3.4H316.8z M316.8,200.9h6.1c1.8,0,3.2-0.5,4.2-1.4c1-0.9,1.4-2.2,1.4-3.8 c0-1.8-0.5-3.3-1.5-4.4c-1-1.1-2.3-1.6-4-1.7h-6.3V200.9z"/>
<polygon class="st0" points="353.8,182.5 362.5,209.6 371.1,182.5 383.5,182.5 383.5,221.4 374.1,221.4 374.1,212.3 375,193.7 365.6,221.4 359.4,221.4 349.9,193.7 350.8,212.3 350.8,221.4 341.5,221.4 341.5,182.5"/>
<polygon class="st0" points="410.9,204.9 397,204.9 397,214.2 413.5,214.2 413.5,221.4 387.7,221.4 387.7,182.5 413.6,182.5 413.6,189.7 397,189.7 397,197.9 410.9,197.9"/>
<polygon class="st0" points="449.2,221.4 439.9,221.4 426.1,197.2 426.1,221.4 416.7,221.4 416.7,182.5 426.1,182.5 439.8,206.7 439.8,182.5 449.2,182.5"/>
<polygon class="st0" points="484.9,189.7 473.2,189.7 473.2,221.4 463.8,221.4 463.8,189.7 452.4,189.7 452.4,182.5 484.9,182.5"/>
</g>
</svg>
