<svg xmlns="http://www.w3.org/2000/svg" xmlns:xlink="http://www.w3.org/1999/xlink" viewBox="0 0 600 450">
<!-- Vectorization by Rodrigo Polo https://github.com/rodrigopolo/logotipos-politicos -->
<style type="text/css">
.st0{fill:#3EA635;}
.st1{fill:#D6A102;}
.st2{fill:#C11728;}
.st3{fill:#289438;}
.st4{fill:#4A7634;}
.st5{fill:#FBB800;}
.st6{fill:#E6331D;}
.st7{fill:#F59D08;}
.st8{fill:#0076B8;}
.st9{fill:#931831;}
.st10{fill:#00A7D7;}
.st11{fill:#EC6411;}
.st12{fill:#E2071F;}
.st13{fill:#DD0979;}
.st14{fill:#1F3262;}
.st15{fill:#D28D0E;}
.st16{fill:#004C84;}
.st17{fill:#12100B;}
</style>
<path class="st0" d="M244.7,133.9c2.8-4.8,6.2-9.2,10.1-13.1l-33.3-36.5c-8.4,8-15.5,17.3-21.1,27.5L244.7,133.9z"/>
<path class="st1" d="M326.3,108.1c5,2.3,9.7,5.3,14,8.7l33.4-36.4c-8.8-7.6-18.8-13.8-29.6-18.5L326.3,108.1z"/>
<path class="st2" d="M402.7,119.1l-44.2,22.1c2.1,4.9,3.6,10.2,4.4,15.6l49.2-4.6C410.7,140.4,407.4,129.3,402.7,119.1"/>
<path class="st3" d="M355.3,134.7l44.2-22c-5.5-10.2-12.5-19.4-20.7-27.4l-33.4,36.4C349.3,125.6,352.6,129.9,355.3,134.7"/>
<path class="st4" d="M235.9,166.1c0-1,0-2,0.1-3l-49.2-4.4c-0.2,2.4-0.2,4.9-0.2,7.4c0,9.4,1.2,18.6,3.4,27.4l47.5-13.6 C236.4,175.5,235.9,170.9,235.9,166.1"/>
<path class="st5" d="M349.1,206.6c-3.5,4.3-7.5,8.1-12,11.3l26,42.1c9.6-6.5,18.2-14.5,25.4-23.6L349.1,206.6z"/>
<path class="st6" d="M363.6,166.1c0,4.7-0.5,9.2-1.5,13.6l47.5,13.7c2.2-8.7,3.3-17.9,3.3-27.2c0-2.3-0.1-4.6-0.2-7l-49.2,4.6 C363.6,164.6,363.6,165.4,363.6,166.1"/>
<path class="st7" d="M251.2,207.5l-39.3,29.9c7.3,9,16,16.9,25.7,23.3l26-42C259,215.5,254.8,211.8,251.2,207.5"/>
<path class="st8" d="M236.7,156.1c0.9-5.6,2.5-10.9,4.7-15.9l-44.2-22c-4.9,10.4-8.2,21.7-9.8,33.5L236.7,156.1z"/>
<path class="st9" d="M357.1,263.8l-25.9-42c-4.7,2.7-9.8,4.8-15.1,6.2l9.2,48.6C336.5,273.9,347.3,269.5,357.1,263.8"/>
<path class="st10" d="M360.2,186.6c-1.7,5.1-4,9.8-6.9,14.2l39.5,29.8c6.4-9.2,11.5-19.4,14.9-30.3L360.2,186.6z"/>
<path class="st11" d="M309,229.3c-3,0.4-6.1,0.7-9.2,0.7c-2.5,0-5-0.2-7.4-0.4l-9.2,48.6c5.4,0.8,10.9,1.2,16.6,1.2 c6.2,0,12.4-0.5,18.4-1.5L309,229.3z"/>
<path class="st12" d="M303.8,102.4c5.5,0.4,10.8,1.4,15.8,3.1l17.8-46.1c-10.6-3.7-21.8-5.9-33.5-6.3V102.4z"/>
<path class="st13" d="M285.3,228.3c-5.5-1.3-10.8-3.3-15.7-5.9l-26,42c10,5.7,20.9,10,32.5,12.4L285.3,228.3z"/>
<path class="st14" d="M280.6,105.3c5.1-1.6,10.5-2.6,16.1-2.9V53c-11.9,0.3-23.3,2.5-34,6.2L280.6,105.3z"/>
<path class="st15" d="M246.9,201.9c-3.1-4.6-5.7-9.7-7.5-15.1l-47.5,13.6c3.6,11.3,8.9,21.9,15.7,31.4L246.9,201.9z"/>
<path class="st16" d="M260.2,116.1c4.2-3.3,8.8-6.1,13.7-8.3L256,61.7c-10.6,4.5-20.4,10.5-29.1,17.8L260.2,116.1z"/>
<g>
<path class="st17" d="M125.1,313.3h20.5v6.3h-6.3v39.5h-7.8v-39.5h-6.4V313.3z"/>
<path class="st17" d="M163.6,338.9h-7.4v20.2h-7.7v-45.8h7.7v19.4h7.4v-19.4h7.8v45.8h-7.8V338.9z"/>
<path class="st17" d="M175.3,313.3h18.4v6.3H183v13.1h7.6v6.2H183v13.9h10.7v6.3h-18.4V313.3z"/>
<path class="st17" d="M215.2,334.7h10.9v24.5h-5.5v-5c-1,3.4-3.2,5.5-7.4,5.5c-6.6,0-9.7-5.3-9.7-12.4v-22.2
c0-7.2,3.4-12.4,11.5-12.4c8.5,0,11,4.7,11,11.5v4.1h-7v-4.7c0-2.8-1.1-4.5-3.8-4.5c-2.8,0-4,2-4,4.7v24.6c0,2.8,1.1,4.7,3.8,4.7 c2.5,0,3.8-1.4,3.8-4.4v-8.1h-3.6V334.7z"/>
<path class="st17" d="M230.2,313.3h7.7v39.5h9.2v6.3h-16.9V313.3z"/>
<path class="st17" d="M248.7,347.3v-22.2c0-7.2,3.5-12.4,11.6-12.4c8.2,0,11.7,5.2,11.7,12.4v22.2c0,7.1-3.5,12.4-11.7,12.4 C252.2,359.7,248.7,354.4,248.7,347.3z M264.3,348.5v-24.6c0-2.8-1.2-4.7-4-4.7c-2.7,0-3.9,2-3.9,4.7v24.6c0,2.8,1.2,4.7,3.9,4.7
C263.1,353.3,264.3,351.3,264.3,348.5z"/>
<path class="st17" d="M275.7,313.3h11.1c7.7,0,10.3,3.6,10.3,10.1v4.7c0,3.8-1.4,6.3-4.6,7.3c3.8,0.9,5.7,3.4,5.7,7.6v6.1 c0,6.5-2.9,10.1-10.6,10.1h-12V313.3z M283.4,332.7h2.7c2.5,0,3.6-1.3,3.6-3.7v-5.6c0-2.5-1.1-3.7-3.7-3.7h-2.6V332.7z
M283.4,338.5v14.3h3.4c2.6,0,3.8-1.3,3.8-3.7v-6.9c0-2.4-1.1-3.7-3.8-3.7H283.4z"/>
<path class="st17" d="M299.7,359.1l8.6-45.8h8.8l8.7,45.8h-7.9l-1.4-8.4h-8.2l-1.4,8.4H299.7z M309.3,344.6h6.1l-3-18.4h-0.1 L309.3,344.6z"/>
<path class="st17" d="M328.4,313.3h7.7v39.5h9.2v6.3h-16.9V313.3z"/>
<path class="st17" d="M366.2,334.7h10.9v24.5h-5.5v-5c-1,3.4-3.2,5.5-7.4,5.5c-6.6,0-9.7-5.3-9.7-12.4v-22.2 c0-7.2,3.4-12.4,11.5-12.4c8.5,0,11,4.7,11,11.5v4.1h-7v-4.7c0-2.8-1.1-4.5-3.8-4.5c-2.8,0-4,2-4,4.7v24.6c0,2.8,1.1,4.7,3.8,4.7 c2.5,0,3.8-1.4,3.8-4.4v-8.1h-3.6V334.7z"/>
<path class="st17" d="M381.1,347.3v-22.2c0-7.2,3.5-12.4,11.6-12.4c8.2,0,11.7,5.2,11.7,12.4v22.2c0,7.1-3.5,12.4-11.7,12.4 C384.6,359.7,381.1,354.4,381.1,347.3z M396.7,348.5v-24.6c0-2.8-1.2-4.7-4-4.7c-2.7,0-3.9,2-3.9,4.7v24.6c0,2.8,1.2,4.7,3.9,4.7 C395.5,353.3,396.7,351.3,396.7,348.5z"/>
<path class="st17" d="M405.8,359.1l8.6-45.8h8.8l8.7,45.8h-7.9l-1.4-8.4h-8.2l-1.4,8.4H405.8z M415.5,344.6h6.1l-3-18.4h-0.1 L415.5,344.6z"/>
<path class="st17" d="M434.5,313.3h7.7v39.5h9.2v6.3h-16.9V313.3z"/>
<path class="st17" d="M453,349.3v-6.1h7.2v6.3c0,2.6,1.1,4.1,3.8,4.1c2.4,0,3.5-1.6,3.5-4.1v-1.8c0-2.6-1.1-4.3-3.4-6.5l-4.5-4.5 c-4.4-4.3-6.4-7-6.4-12.2v-1.6c0-5.7,3.3-10.1,10.8-10.1c7.7,0,10.7,3.8,10.7,10.4v3.7h-7v-4c0-2.6-1.2-3.9-3.6-3.9 c-2.2,0-3.6,1.2-3.6,3.8v0.9c0,2.6,1.4,4.1,3.6,6.2l4.9,4.9c4.2,4.3,6.2,6.8,6.2,11.9v2.2c0,6.3-3.4,10.7-11.2,10.7 C456.1,359.7,453,355.3,453,349.3z"/>
</g>
<g>
<path class="st17" d="M141.2,380.5H132v10.2h-1.9v-21.3h12.1v1.8H132v7.5h9.1V380.5z"/>
<path class="st17" d="M149.2,391c-4.9,0-6-3-6-7.4s1.1-7.4,6-7.4c4.9,0,6,3,6,7.4S154.1,391,149.2,391z M149.2,378 c-3.7,0-4,2.4-4,5.6c0,3.2,0.2,5.6,4,5.6c3.7,0,4-2.4,4-5.6C153.2,380.4,152.9,378,149.2,378z"/>
<path class="st17" d="M166.4,378.2c-0.4-0.1-1-0.2-1.7-0.2c-1.9,0-3.1,0.3-4.1,0.9v11.8h-2v-14.2h1.1l0.4,1.2c1.3-1,3-1.5,4.6-1.5 c0.7,0,1.2,0.1,1.7,0.1V378.2z"/>
<path class="st17" d="M175.3,375.1c0,3,1.8,3.3,5.1,3.7c4.2,0.5,6.8,1.6,6.8,5.7c0,2.9-1.5,6.4-7.9,6.4c-2,0-4.6-0.5-6-1.1V388 c1.4,0.5,3,1.2,6,1.2c4.4,0,5.8-2.1,5.8-4.6c0-3-1.2-3.6-4.8-4.1c-5-0.6-7-1.8-7-5.4c0-2.5,1.2-5.9,7.2-5.9c2.6,0,4.4,0.5,5.5,1 v1.9c-1.9-0.8-3.5-1.1-5.6-1.1C176.3,370.9,175.3,372.8,175.3,375.1z"/>
<path class="st17" d="M191.9,386.8c0,1.8,1.1,2.4,2.8,2.4c1.8,0,2.8-0.3,3.8-0.9v-11.8h2v14.2h-1.1l-0.4-1.2 c-1.3,1-2.8,1.5-4.3,1.5c-3.4,0-4.8-1.5-4.8-4.3v-10.2h2V386.8z"/>
<path class="st17" d="M209,382.6c4,0.4,5,1.7,5,4.1c0,2.2-1.4,4.4-5.7,4.4c-1.4,0-3.3-0.3-4.2-0.7v-1.7c0.9,0.3,2.2,0.7,4.3,0.7 c3,0,3.7-1.2,3.7-2.6c0-1.3-0.4-2.2-3.2-2.4c-4.1-0.4-5-1.8-5-3.8c0-2,1.3-4.2,5.3-4.2c1.3,0,2.8,0.2,4.1,0.7v1.7 c-1.1-0.4-2.2-0.7-4.1-0.7c-2.8,0-3.4,1.1-3.4,2.4C205.7,381.7,206.2,382.3,209,382.6z"/>
<path class="st17" d="M224.7,390.9c-0.3,0.1-0.9,0.1-1.3,0.1c-2.4,0-4.5-1.1-4.5-3.9v-9.1H216v-0.9l2.8-0.8v-3.8l2-0.6v4.5h4.4v1.6 h-4.4v8.8c0,1.7,0.9,2.4,2.7,2.4c0.4,0,0.7,0,1.1-0.1V390.9z"/>
<path class="st17" d="M232.9,378c-1.9,0-3.1,0.3-4.3,0.7V377c1.2-0.5,2.9-0.8,4.3-0.8c4.3,0,5.4,1.9,5.4,4.8v9.7h-1.1l-0.4-1.1 c-1.3,0.9-2.9,1.4-4.3,1.4c-3.7,0-5-2.2-5-4.6c0-2.4,1.3-4.2,5.1-4.4l3.7-0.2V381C236.3,378.9,235.5,378,232.9,378z M232.4,383.5 c-2,0.2-2.9,1.2-2.9,2.9c0,1.3,0.3,2.8,3,2.8c1.5,0,2.6-0.4,3.8-1.1v-4.9L232.4,383.5z"/>
<path class="st17" d="M243.4,370.8c0.8,0,1.4,0.6,1.4,1.4c0,0.8-0.6,1.4-1.4,1.4c-0.8,0-1.4-0.6-1.4-1.4 C241.9,371.5,242.6,370.8,243.4,370.8z M242.4,387.9v-11.3h1.9v11.6c0,1,0.3,1.3,1.2,1.3v1.6C243.5,391,242.4,390.1,242.4,387.9z"/>
<path class="st17" d="M257.4,380.4c0-1.8-1.1-2.4-2.8-2.4c-1.8,0-2.8,0.3-3.8,0.9v11.8h-2v-14.2h1.1l0.4,1.2c1.3-1,2.8-1.5,4.3-1.5 c3.4,0,4.8,1.5,4.8,4.3v10.2h-2V380.4z"/>
<path class="st17" d="M267.9,378c-1.9,0-3.1,0.3-4.3,0.7V377c1.2-0.5,2.9-0.8,4.3-0.8c4.3,0,5.4,1.9,5.4,4.8v9.7h-1.1l-0.4-1.1 c-1.3,0.9-2.9,1.4-4.3,1.4c-3.7,0-5-2.2-5-4.6c0-2.4,1.3-4.2,5.1-4.4l3.7-0.2V381C271.3,378.9,270.6,378,267.9,378z M267.4,383.5 c-2,0.2-2.9,1.2-2.9,2.9c0,1.3,0.3,2.8,3,2.8c1.5,0,2.6-0.4,3.8-1.1v-4.9L267.4,383.5z"/>
<path class="st17" d="M288.7,383.6c0,4.1-1.2,7.4-5.8,7.4c-1.5,0-3-0.5-4.4-1.4l-0.4,1.2H277v-21.3h2v8c1.2-0.8,2.7-1.2,4-1.2 C287.5,376.2,288.7,379.5,288.7,383.6z M279,378.9v9.4c1.1,0.6,2.1,0.9,4,0.9c3.4,0,3.8-2.8,3.8-5.6s-0.4-5.6-3.8-5.6 C281.1,378,280.1,378.3,279,378.9z"/>
<path class="st17" d="M292.6,387.9v-18.4h1.9v18.7c0,1,0.3,1.3,1.2,1.3v1.6C293.7,391,292.6,390.1,292.6,387.9z"/>
<path class="st17" d="M304.6,376.2c4.8,0,5.4,3.3,5.4,7.4v0.9h-9.4c0.1,2.5,0.8,4.7,4,4.7c2,0,3.3-0.2,4.7-0.8v1.7 c-1.6,0.7-3.3,0.9-4.7,0.9c-4.8,0-6-3.3-6-7.4S299.8,376.2,304.6,376.2z M300.6,382.9h7.4c0-2.5-0.1-4.9-3.4-4.9 C301.3,378,300.7,380.3,300.6,382.9z"/>
<path class="st17" d="M319.4,390.7v-21.3h5.8c7,0,9,4.6,9,10.6c0,6-2,10.6-9,10.6H319.4z M321.3,388.9h4c5.1,0,6.8-3.7,6.8-8.9 c0-5.1-1.7-8.9-6.8-8.9h-4V388.9z"/>
<path class="st17" d="M342.4,376.2c4.8,0,5.4,3.3,5.4,7.4v0.9h-9.4c0.1,2.5,0.8,4.7,4,4.7c2,0,3.3-0.2,4.7-0.8v1.7 c-1.6,0.7-3.3,0.9-4.7,0.9c-4.8,0-6-3.3-6-7.4S337.6,376.2,342.4,376.2z M338.5,382.9h7.4c0-2.5-0.1-4.9-3.4-4.9 C339.1,378,338.5,380.3,338.5,382.9z"/>
<path class="st17" d="M351.8,376.5l4.1,11.6l4.1-11.6h2.2l-5.5,14.5h-1.4l-5.5-14.5H351.8z"/>
<path class="st17" d="M369.6,376.2c4.8,0,5.4,3.3,5.4,7.4v0.9h-9.4c0.1,2.5,0.8,4.7,4,4.7c2,0,3.3-0.2,4.7-0.8v1.7 c-1.6,0.7-3.3,0.9-4.7,0.9c-4.8,0-6-3.3-6-7.4S364.8,376.2,369.6,376.2z M365.7,382.9h7.4c0-2.5-0.1-4.9-3.4-4.9 C366.3,378,365.7,380.3,365.7,382.9z"/>
<path class="st17" d="M378.8,387.9v-18.4h1.9v18.7c0,1,0.3,1.3,1.2,1.3v1.6C379.9,391,378.8,390.1,378.8,387.9z"/>
<path class="st17" d="M390.9,391c-4.9,0-6-3-6-7.4s1.1-7.4,6-7.4c4.9,0,6,3,6,7.4S395.8,391,390.9,391z M390.9,378 c-3.7,0-4,2.4-4,5.6c0,3.2,0.2,5.6,4,5.6c3.7,0,4-2.4,4-5.6C394.9,380.4,394.6,378,390.9,378z"/>
<path class="st17" d="M402.2,389.8v8h-2v-21.3h1.1l0.4,1.2c1.5-0.9,2.9-1.4,4.4-1.4c4.6,0,5.8,3.3,5.8,7.4s-1.3,7.4-5.8,7.4 C404.9,391,403.4,390.6,402.2,389.8z M410,383.6c0-2.8-0.4-5.6-3.8-5.6c-1.8,0-2.9,0.3-4,0.9v9.4c1.1,0.6,2.1,0.9,4,0.9 C409.6,389.2,410,386.4,410,383.6z"/>
<path class="st17" d="M432.1,380.4c0-1.8-1.1-2.4-2.7-2.4c-1.8,0-2.7,0.3-3.9,0.9c0.1,0.5,0.2,0.9,0.2,1.5v10.3h-2v-10.3 c0-1.8-1.1-2.4-2.7-2.4c-1.6,0-2.6,0.3-3.7,0.9v11.9h-2v-14.2h1.1l0.4,1.2c1.4-1,2.8-1.4,4.1-1.4c1.9,0,3.2,0.5,4,1.6 c1.5-1,3-1.6,4.4-1.6c3,0,4.7,1.4,4.7,4.3v10.2h-2V380.4z"/>
<path class="st17" d="M443.4,376.2c4.8,0,5.4,3.3,5.4,7.4v0.9h-9.4c0.1,2.5,0.8,4.7,4,4.7c2,0,3.3-0.2,4.7-0.8v1.7 c-1.6,0.7-3.3,0.9-4.7,0.9c-4.8,0-6-3.3-6-7.4S438.6,376.2,443.4,376.2z M439.4,382.9h7.4c0-2.5-0.1-4.9-3.4-4.9 C440.1,378,439.5,380.3,439.4,382.9z"/>
<path class="st17" d="M460.8,380.4c0-1.8-1.1-2.4-2.8-2.4c-1.8,0-2.8,0.3-3.8,0.9v11.8h-2v-14.2h1.1l0.4,1.2c1.3-1,2.8-1.5,4.3-1.5 c3.4,0,4.8,1.5,4.8,4.3v10.2h-2V380.4z"/>
<path class="st17" d="M473.6,390.9c-0.3,0.1-0.9,0.1-1.3,0.1c-2.4,0-4.5-1.1-4.5-3.9v-9.1H465v-0.9l2.8-0.8v-3.8l2-0.6v4.5h4.4v1.6 h-4.4v8.8c0,1.7,0.9,2.4,2.7,2.4c0.4,0,0.7,0,1.1-0.1V390.9z"/>
</g>
</svg>
