<svg xmlns="http://www.w3.org/2000/svg" xmlns:xlink="http://www.w3.org/1999/xlink" width="100%" height="100%" viewBox="0 0 1024 375">
<!-- Vectorization by Rodrigo Polo https://github.com/rodrigopolo/logotipos-politicos -->
<defs>
<g id="l2">
<path fill="#231F20" stroke="none" d="M 105.2 301.5 Q 105.2 322.75 120.6 338.15 135.8 353.85 159.5 353.85 184.3 353.85 201 336.05 216.9 318.9 216.9 298.15 216.9 276.95 201.5 261.6 185.9 245.8 162.6 245.8 137.8 245.8 121.1 264.1 105.2 280.75 105.2 301.5 M 131.85 264.45 Q 141.85 253.25 159 253.25 176.3 253.25 187.75 265.55 201 279.9 201 303.6 201 324.2 190.25 335.7 179.65 347.05 163.1 347.05 146.8 347.05 134.3 334.1 121.1 320.25 121.1 296.55 121.1 276.95 131.85 264.45 M 104.7 252.6 L 104.7 252.1 Q 103.8 248.3 99.4 248.3 L 56.4 249.3 Q 27.15 249.3 15.8 247.65 L 13.8 248.3 13.35 250.15 Q 13.35 253.25 15.45 253.25 24.8 254.2 27.3 256.7 29.25 259.9 29.25 276.8 L 29.25 323.35 Q 29.25 339.05 27.8 343.1 24.8 346.05 17.9 346.45 L 17.4 346.45 Q 15.8 348.05 15.8 349.5 L 16.9 351.35 18.25 352 Q 30.1 350.9 38.5 350.9 47.4 350.9 57.4 352 L 59.4 351.35 59.85 349.5 Q 59.85 347.55 57.8 346.45 L 52.85 345.95 Q 47.05 344.95 45.9 343.1 44.55 340.4 44.55 323.35 L 44.55 302 53.35 302 Q 78.15 302 81.6 303.6 84.05 304.6 84.55 308.05 84.55 310 87.4 310 L 89.5 309.4 89.85 307.55 89.5 300.65 Q 89.5 293.6 91 289.15 91 287.8 87.9 287.8 85.55 287.8 85.45 288.8 L 85.45 288.3 Q 85.05 291.6 82.95 293.7 79.75 295.2 53.35 295.2 L 44.55 295.2 45.45 256.7 60.25 256.7 Q 94.05 256.7 97.3 258.65 99.4 260.5 99.75 262.5 L 101.35 268.05 Q 101.75 269.4 103.8 269.4 L 105.8 268.55 106.3 266.95 104.7 252.6 M 27.8 110.5 Q 29.25 115.35 29.25 128.65 L 29.25 175.6 Q 29.25 190.25 27.8 195.35 26.3 197.9 22.85 198.3 L 15.8 198.9 Q 14.45 200.25 14.45 201.85 L 15.45 203.85 16.9 204.35 Q 22.35 203.25 38.5 203.25 51.95 203.25 56.9 204.35 L 58.9 203.85 59.4 201.85 Q 59.4 199.8 57.8 198.9 47.9 198.3 46.55 195.35 45.05 193.5 45.05 175.6 L 45.05 158.8 63.2 158.3 64.3 157.95 Q 66.15 186.95 89.85 207.7 112.95 228.3 146.3 231.5 147.3 231.5 147.8 230.4 147.8 229.55 146.65 228.55 117.65 221.5 98.4 201.4 79 180.15 78.65 153.35 88.5 147.95 93.45 140.65 98.4 133.5 98.4 125.35 98.4 112.5 86.05 105.6 75.45 99.55 53.35 99.55 23.6 99.55 15.45 102.6 13.8 102.6 13.8 104.45 13.8 107.55 16.3 107.55 L 21.85 106.95 Q 26.65 106.95 27.8 110.5 M 50.85 106.55 Q 65.8 106.55 74.2 113.35 82.45 119.8 82.45 131.65 82.45 146.45 62.35 150.9 L 45.05 152 45.05 127.3 Q 45.05 110.25 45.9 106.95 L 50.85 106.55 M 102.2 24.5 L 101.85 23.6 100.85 23 Q 98.65 23.6 92.35 23.6 87.4 23.6 84.05 23 L 82.95 23.6 82.45 24.5 Q 82.45 26.1 84.05 26.1 L 87.4 27.55 Q 88.5 29.4 88.5 34.95 L 88.5 42.4 67.3 42.4 67.65 27.55 71.25 26.1 Q 72.6 26.1 72.6 24.5 L 72.2 23.6 71.25 23 64.3 23.6 Q 57.8 23.6 54.45 23 L 53.8 23.25 53.95 21.65 52.85 21.15 Q 51.85 21.15 50.85 22.6 50.5 23.6 49.5 23.6 L 16.3 23.6 14.95 22 14.95 22.6 Q 14.7 22 13.35 22 L 12.45 22 11.95 22.6 12.45 25.45 11.95 31 Q 11.95 32.5 13.35 32.5 14.3 32.5 14.95 31.5 15.8 29.05 16.9 29.05 17.9 27.95 23.7 27.95 L 29.25 27.95 29.25 27.55 29.75 27.95 29.25 27.95 28.65 61.5 26.8 62.5 24.8 63.1 Q 23.2 63.1 23.2 64.6 L 23.7 65.6 24.8 66.1 Q 27.4 65.6 33.6 65.6 L 41 66.1 42.1 65.6 42.6 64.6 Q 42.6 63.1 41.6 63.1 L 37.15 61.5 36.65 27.95 42.1 27.95 Q 47.9 27.95 49.5 29.05 L 50.35 31 Q 50.35 31.9 51.95 31.9 53.35 31.9 53.35 31 L 53.7 25.95 54.45 26.1 Q 58.25 26.45 59.4 27.55 L 59.4 61.5 Q 58.4 62.5 56.9 62.5 L 54.45 63.1 Q 52.85 63.1 52.85 64.6 L 53.35 65.6 54.95 66.1 Q 57.05 65.6 64.3 65.6 L 71.25 66.1 72.2 65.6 72.6 64.6 71.75 63.1 67.65 61.5 67.3 46.35 88.5 46.35 88.5 53.75 Q 88.5 59.65 87.4 61.5 L 84.05 63.1 Q 82.45 63.1 82.45 64.6 L 82.95 65.6 84.05 66.1 Q 86.65 65.6 92.35 65.6 99 65.6 100.85 66.1 L 101.85 65.6 102.2 64.6 Q 102.2 63.1 100.85 63.1 L 97.3 62.5 95.9 61.5 95.3 30.05 Q 96.55 26.8 96.9 26.55 L 100.85 26.1 Q 102.2 26.1 102.2 24.5 M 132.35 30.4 Q 133.95 30.4 133.95 30.05 L 134.3 23 105.2 23 103.8 23.6 103.8 24.5 Q 103.8 26.1 104.7 26.1 108.65 26.45 109.65 27.55 L 109.65 61.5 Q 108.75 62.5 107.15 62.5 L 104.7 63.1 Q 103.8 63.1 103.8 64.6 L 103.8 65.6 105.2 66.1 130.5 65.6 131.85 66.1 Q 134.3 66.1 134.3 64 L 135.9 58.2 135.9 57.55 134.3 56.55 132.95 57.2 Q 132.35 61.15 129.4 61.5 L 120 61.5 Q 118.15 61.5 117.05 58.65 L 117.05 45.2 122.45 45.2 126.05 45.85 Q 127.55 45.85 128 47.3 128 48.3 129.4 48.3 L 130.5 48.3 131 47.3 130.5 44.85 131 41.4 131 40.9 Q 131 39.3 129.4 39.3 L 128 40.3 128 41.4 117.05 41.75 117.55 27.55 117.05 27.55 117.55 26.95 117.55 27.55 129.4 27.95 Q 130.5 29.05 131 30.05 131 30.4 132.35 30.4 M 260.25 153 Q 260.25 138.4 254.95 127.3 251.6 130.5 248.4 152.5 245.05 175.1 234.7 189.55 211.25 221.15 176.8 228.55 174.95 230.4 177.4 231.5 212.35 228.9 236.05 206.3 260.25 184.1 260.25 153 M 257.75 190.4 L 257.4 190.9 Q 256.3 194.6 252.85 199.4 L 252.45 199.9 253.35 200.25 Q 265.3 206.3 281.1 206.3 303.35 206.3 314.55 197.8 317.05 195.6 318.15 175.2 318.15 172.75 315.7 172.75 L 313.2 173.1 312.6 174.7 Q 312.2 184.95 302.7 192 294.3 198.9 282.1 198.9 268.4 198.9 258.25 190.9 L 257.75 190.4 M 223.7 153.85 Q 223.7 167.05 229.75 178.05 L 230.25 179.15 230.6 178.55 Q 236.55 171 240.5 139.05 242.6 126.55 250.85 116.45 261.35 105.1 278 105.1 292.45 105.1 302.2 113.35 310.25 120.5 312.1 129.8 312.1 131.65 315.05 131.65 316.65 131.65 317.55 129.15 L 316.15 114.95 Q 315.05 106.95 313.7 106.55 L 314.2 106.55 Q 309.15 103.6 301.85 101 291.25 98.2 281.6 98.2 256.8 98.2 240.1 116.45 223.7 133.85 223.7 153.85 M 230.6 111.9 Q 234.2 106.3 239.65 103.1 210 69.05 162.6 69.9 133.1 69.9 114.55 83.35 L 114.2 85.35 Q 115.05 85.7 116.15 85.35 144.05 68.55 177.4 74.85 211.95 81.9 230.6 111.9 M 593.2 246.3 L 593.2 245.8 Q 590.75 245.8 590.75 247.65 L 558.65 322.85 Q 550.75 339.05 548.75 341 544.55 345.55 537.9 346.45 536.4 347.55 536.4 349.5 L 536.8 351.35 538.4 352 553.7 350.9 567.55 352 569.4 352 570 349.5 Q 570 348.3 568.5 346.45 559.5 346.45 559.5 343.1 559.5 338.65 566.05 323.7 L 571 312.5 603.1 312.5 607.05 323.7 Q 612.45 338.3 612.45 343.1 612.45 345.1 610.85 345.1 606.8 346.45 603.1 346.45 601.5 347.65 601.5 349.5 L 602.1 351.35 603.95 352 Q 614.95 350.9 626.15 350.9 633.7 350.9 643.45 352 644.55 352.35 645.45 351.35 L 645.9 349.5 Q 645.9 347.9 644.55 346.45 L 644.05 346.45 Q 635.55 345.45 632.2 341.5 628.4 336.95 623.2 322.85 L 595.7 247.65 Q 595.2 246.3 593.2 246.3 M 601 305.55 L 573.8 305.55 588.65 271.5 601 305.55 M 441.6 248.3 L 441 250.15 Q 441 253.25 442.95 253.25 L 445.05 253.7 447.55 253.7 Q 452.45 254.1 453.95 256.7 455.8 259.65 455.8 276.8 L 455.8 323.35 Q 455.8 340.5 453.95 343.45 451.85 345.55 449 345.95 L 442.6 346.45 441 349.5 441.6 351.35 443.45 352 Q 454.45 350.9 467.3 350.9 L 489.5 351.35 Q 514.7 351.35 530.5 335.7 546.3 320.9 546.3 298.65 546.3 276.95 532.35 263.1 517.55 248.3 491.5 248.3 L 468.75 249.3 Q 451.6 249.3 443.45 247.65 L 441.6 248.3 M 477.15 343.45 Q 471.25 340.65 471.25 328.65 L 472.2 256.2 487.05 255.7 Q 507.65 255.7 518.65 267.45 530.5 280.65 530.5 303.6 530.5 323 520 333.6 509.25 344.6 493.45 344.6 479 344.6 477.15 343.45 M 438 248.3 L 436.05 247.65 Q 428.9 249.3 421.25 249.3 415.05 249.3 404.55 248.3 L 403.1 247.65 401.5 248.3 400.6 250.15 Q 400.6 253.25 402.6 253.25 412.1 254.2 413.35 257.05 415.45 260.65 415.45 276.8 L 415.45 324.85 346.65 249.3 324.95 247.65 Q 317.75 249.3 310.1 249.3 L 291.5 247.65 289.5 248.3 288.5 250.15 Q 288.5 252.75 290.35 253.25 L 291 253.25 Q 300.35 254.2 302.2 257.55 304.3 261.75 304.3 275.45 L 304.3 312.5 Q 304.3 343.95 274.7 343.95 261.75 343.95 253.95 336.05 244.05 326.45 244.05 310 L 244.05 276.8 Q 244.05 261.4 245.45 256.7 246.65 254.45 256.9 253.25 258.9 253.25 258.9 250.15 L 257.75 248.3 255.8 247.65 Q 248.65 249.3 237.65 249.3 L 216.3 247.65 214.45 248.3 213.8 250.15 Q 213.8 253.25 215.8 253.25 L 217.9 253.7 220.35 253.7 Q 225.3 254.1 226.8 256.7 228.15 261.4 228.15 276.8 L 228.15 313 Q 228.15 331.6 241 343.45 253.1 353.85 270.6 353.85 290.5 353.85 301.85 342.6 312.1 331.85 312.1 313.85 L 312.1 275.45 Q 312.1 260.25 314.2 257.55 316.4 253.85 324.8 253.25 330 254.2 334.8 259.15 340.35 264.6 340.35 269.05 L 340.35 323.35 Q 340.35 339.9 338.4 342.6 336.8 345.55 327.4 346.45 L 326.9 346.45 Q 325.55 348.15 325.55 349.5 325.55 351.35 326.05 351.35 L 328 352 Q 338.75 350.9 346.3 350.9 L 363.1 352 363.6 349.5 361.95 346.45 Q 352.2 345.55 350.75 342.6 348.75 338.65 348.75 323.35 L 348.75 274.85 420.35 353 Q 421.25 353.85 423.2 353.85 425.3 352.85 425.3 351.35 423.7 340.4 423.7 323.35 L 423.7 276.8 Q 423.7 262.35 425.7 257.05 427.3 254.1 436.65 253.25 438.5 253.25 438.5 250.15 L 438 248.3 M 491.5 110.5 Q 491.5 105.6 492.85 100.65 L 492.85 100.15 421.85 100.15 419.85 100.65 419.4 102.6 Q 419.4 104.45 421.25 105.6 431.25 106.55 433.6 109.05 435.2 111.75 435.2 128.65 L 435.2 175.6 Q 435.2 191 433.6 195.35 431.75 197.45 427.75 197.8 L 423.1 198.3 Q 418.5 197.45 413.8 194.95 412.7 194.35 403.45 185.95 L 365.55 147.55 392.7 118.3 Q 397.65 112.75 402.1 109.4 408.25 105.6 414.95 105.6 416.9 105.6 416.9 102.6 L 415.8 100.65 Q 415.8 100.15 414.45 100.15 L 401.5 101 Q 392.1 101 384.8 100.15 L 382.85 100.65 382.35 102.6 Q 382.35 104.45 384.2 105.6 L 390.75 106.55 Q 391.1 106.95 390.75 108.4 L 383.35 118.3 354.05 150.9 354.05 128.65 Q 354.05 111.75 355.7 109.05 357.15 106.45 365.55 105.6 367.55 105.6 367.55 102.6 L 366.4 100.65 365.05 100.15 Q 355.7 101 348.25 101 335.2 101 324.95 100.15 L 323.1 100.65 322.45 102.6 Q 322.45 104.35 324.45 105.6 335.9 106.55 336.8 109.05 338.9 110.9 338.9 128.65 L 338.9 175.6 Q 338.9 192.25 336.8 195.35 335.45 197.45 331.5 197.8 L 324.05 198.9 Q 322.45 200.25 322.45 201.85 L 323.1 203.85 324.95 204.35 Q 330.5 203.25 348.25 203.25 360.1 203.25 365.05 204.35 L 366.4 203.85 367.55 201.85 Q 367.55 199.9 365.55 198.9 357.05 197.8 355.7 195.35 354.05 192.5 354.05 175.6 L 354.05 157.45 390.25 195.85 391.1 197.45 384.2 198.9 Q 382.35 199.9 382.35 201.85 L 383.35 203.85 384.8 204.35 Q 390.25 203.25 407.55 203.25 L 487.9 203.85 Q 492.35 203.85 493.45 199.9 L 496.4 185.1 Q 496.4 183.5 493.95 183.5 491.95 183.1 491 183.5 L 491 184.1 Q 489.5 191.85 486.55 193.35 482.6 195.35 466.3 195.35 L 458.25 195.35 Q 453.35 195.35 452.85 192.85 450.35 188.9 450.35 174.7 L 450.35 153.35 464.8 153.35 Q 474.2 153.35 476.15 154.95 477.55 155.95 478.65 158.8 478.65 160.75 481.1 160.75 L 482.95 160.4 Q 483.95 159.4 483.6 158.3 L 483.6 152.5 484.55 143.5 484.55 141.5 482.45 141 Q 480.6 140.65 479.65 142.1 L 479.15 142.1 478 145.6 Q 475.45 146.45 464.8 146.45 L 450.35 147.05 451.5 108.4 464.3 108.4 Q 476.55 108.4 482.45 110.5 486.05 112 486.55 116.45 L 486.55 115.95 Q 486.57578125 117.45 489 117.45 L 491.5 116.8 491.95 115.85 491.5 110.5 M 534.3 147.55 L 534.3 128.3 Q 534.3 116.45 535.45 108.4 L 550.25 108.4 Q 565.45 108.4 569.4 110.9 570.35 111.4 572.45 114.95 L 573.45 119.9 Q 573.45 121.25 575.9 121.25 L 578.4 120.9 578.75 118.8 577.4 104.45 Q 575.9 100.65 571.85 100.65 L 505.2 100.15 503.8 100.65 502.7 102.6 Q 502.7 104.45 505.2 105.6 516.15 106.55 517.05 109.05 519.15 110.9 519.15 128.65 L 519.15 175.6 Q 519.15 192.25 517.05 194.95 515.7 198.3 507.65 198.9 L 507.15 198.9 Q 505.8 200.25 505.8 201.85 L 506.8 203.85 Q 506.8 204.35 508.25 204.35 513.7 203.25 528.5 203.25 542.35 203.25 547.15 204.35 548.75 204.35 548.75 203.85 L 549.65 201.85 Q 549.65 199.9 547.75 198.9 L 542.85 198.3 Q 537.4 197.9 535.9 195.35 534.3 194.1 534.3 175.6 L 534.3 154.45 543.35 154.45 Q 554.2 154.45 558.65 155.45 561.1 156.8 561.5 160.4 561.5 162.35 563.95 162.35 L 566.4 161.25 Q 567.55 160.9 566.4 159.9 L 567.55 141 Q 567.55 140.15 565.05 140.15 562.1 140.15 561.95 141 L 561.95 140.65 Q 561.6 144.95 559.5 145.6 556.9 147.55 543.35 147.55 L 534.3 147.55 M 771 301.5 Q 771 322.85 786.15 338.15 801.5 353.85 825.3 353.85 850 353.85 866.65 336.05 882.45 319.05 882.45 298.15 882.45 277.45 867.65 261.6 851.7 245.8 828.15 245.8 803.45 245.8 786.8 264.1 771 280.65 771 301.5 M 786.8 296.55 Q 786.8 276.95 797.55 264.45 807.55 253.25 824.7 253.25 841.95 253.25 853.45 265.55 866.65 279.65 866.65 303.6 866.65 324.2 855.9 335.7 845.55 347.05 828.75 347.05 812.45 347.05 800 334.1 786.8 320.5 786.8 296.55 M 725.9 245.8 L 725.55 243.85 723.45 243.35 Q 720.6 243.35 720.6 245.2 719.5 248.8 716.65 249.3 L 652.85 249.65 Q 637.75 249.65 634.2 248.8 631.7 248.8 630.6 245.2 630.6 244.35 628.15 244.35 L 625.7 244.7 625.3 245.8 626.15 253.7 625.3 266.05 625.7 268.05 627.75 268.55 Q 630.25 268.55 630.6 266.95 631.7 261.6 635.2 260 639.15 257.55 652.85 257.55 L 668.15 257.55 668.15 323.35 Q 668.15 341.15 666.3 343.1 665.7 345.1 661.35 345.95 L 655.3 346.45 654.95 346.45 Q 653.35 348.3 653.35 349.5 L 653.95 351.35 655.8 352 Q 666.8 350.9 677.55 350.9 685.05 350.9 695.9 352 L 697.3 351.35 698.4 349.5 Q 698.4 347.55 696.3 346.45 687.05 346.05 684.95 343.1 683.6 340 683.6 323.35 L 683.6 257.55 682.45 257.55 683.6 256.7 683.6 257.55 697.9 257.55 Q 712.1 257.55 715.7 260 718.65 261.75 719.5 266.95 L 719.5 266.55 Q 719.65 267.45 721.95 267.45 725.05 267.45 725.05 266.55 L 724.45 258.65 Q 724.45 251.75 725.9 245.8 M 756.15 276.8 Q 756.15 260.65 757.65 256.7 760 254.2 768.5 253.25 770.35 253.25 770.35 250.15 L 769.5 248.3 Q 769.5 247.65 767.9 247.65 760.75 249.3 750.25 249.3 L 729.4 247.65 727.55 248.3 726.9 250.15 Q 726.9 253.25 729 253.25 L 730.85 253.7 732.95 253.7 Q 738 254.1 739.25 256.7 741.35 259.75 741.35 276.8 L 741.35 323.35 Q 741.35 341 739.25 343.1 738.9 344.95 734.95 345.95 L 728.4 346.45 726.9 349.5 727.55 351.35 729.4 352 Q 740.35 350.9 750.25 350.9 758.15 350.9 767.9 352 769.5 352 769.5 351.35 L 770.35 349.5 Q 770.35 347.55 768.5 346.45 759.5 346.05 757.65 343.1 756.15 340.5 756.15 323.35 L 756.15 276.8 M 656.4 100.65 L 656.4 100.15 585.3 100.15 583.35 100.65 582.85 102.6 Q 582.85 104.45 584.8 105.6 594.7 106.55 597.15 109.05 598.5 112 598.5 128.65 L 598.5 175.6 Q 598.5 190.65 597.15 195.35 595.05 197.45 591.1 197.8 L 584.2 198.9 Q 582.85 199.8 582.85 201.85 L 583.35 203.85 585.3 204.35 Q 594.2 203.25 625.7 203.25 L 651.5 203.85 Q 655.8 203.85 656.9 199.9 L 659.85 185.1 Q 659.85 183.5 657.4 183.5 655.45 183.1 654.45 183.5 L 654.45 184.1 Q 652.7 192 650 193.35 646.55 195.35 629.75 195.35 L 621.85 195.35 Q 616.8 195.35 616.3 192.85 613.8 188.9 613.8 174.7 L 613.8 153.35 628.15 153.35 Q 637.65 153.35 639.65 154.95 640.85 155.7 642.1 158.8 642.1 160.75 644.55 160.75 L 646.55 160.4 Q 647.4 159.4 647.05 158.3 L 647.9 141.5 645.9 141 Q 644.05 140.65 642.95 142.1 L 642.6 142.1 641.6 145.6 Q 638.9 146.45 628.15 146.45 L 613.8 146.45 614.95 108.4 627.75 108.4 Q 640 108.4 645.9 110.5 649.5 112 650 116.45 L 650 115.95 Q 650.02578125 117.45 652.45 117.45 L 654.95 116.8 655.3 115.85 654.95 110.5 Q 654.95 106.1 656.4 100.65 M 699.4 109.05 Q 702.45 105.95 710.75 105.6 712.7 105.6 712.7 102.6 L 711.7 100.65 709.65 100.15 Q 700.5 101 691.95 101 680.35 101 670.1 100.15 L 668.75 100.65 667.65 102.6 Q 667.65 104.45 670.1 105.6 L 674.7 105.95 Q 679.25 107.2 680.6 109.05 682.45 110.9 682.45 128.65 L 682.45 175.6 Q 682.45 193.5 680.6 195.35 679.65 196.8 675.05 197.8 L 675.7 197.8 668.15 198.9 Q 666.3 200.75 666.3 201.85 L 667.3 203.85 668.75 204.35 Q 677.15 203.25 711.1 203.25 L 735.45 203.85 Q 739.25 203.85 740.75 199.9 741.6 197.05 742.85 187.05 L 742.35 185.1 Q 742.35 184.6 740.35 184.6 738.25 184.6 737.9 185.95 736.15 193.5 728.4 194.95 L 705.3 194.95 Q 699.4 194.95 697.9 188.4 L 697.9 128.65 Q 697.9 113.5 699.4 109.05 M 819.4 187.05 L 818.9 185.1 816.9 184.6 Q 814.8 184.6 814.45 185.95 811.85 193.5 804.95 194.95 L 781.85 194.95 Q 774.8 194.95 774.45 188.4 L 774.45 128.65 Q 774.45 111.5 775.9 109.05 777.3 105.95 786.8 105.6 788.65 105.6 788.65 102.6 L 788.25 100.65 786.15 100.15 Q 777.05 101 768.5 101 756.9 101 746.65 100.15 L 744.8 100.65 744.2 102.6 Q 744.2 103.5 746.3 105.6 L 750.6 105.95 Q 755.7 106.55 757.15 109.05 759 110.9 759 128.65 L 759 175.6 Q 759 193.5 757.15 195.35 755.05 197.45 751.6 197.8 L 744.8 198.9 Q 742.85 199.8 742.85 201.85 L 743.8 203.85 745.3 204.35 Q 753.7 203.25 787.3 203.25 L 811.95 203.85 Q 815.8 203.85 817.3 199.9 L 819.4 187.05 M 886.4 115.85 Q 886.55 117.45 888.9 117.45 L 891.35 116.8 891.95 115.85 891.35 110.5 Q 891.35 106.45 892.95 100.65 L 892.95 100.15 821.85 100.15 819.75 100.65 819.4 102.6 Q 819.4 104.45 821.35 105.6 832.6 106.55 833.7 109.05 835.2 111.9 835.2 128.65 L 835.2 175.6 Q 835.2 190.9 833.7 195.35 831.6 197.45 827.75 197.8 L 828.15 197.8 820.75 198.9 Q 819.4 199.9 819.4 201.85 L 819.75 203.85 821.85 204.35 Q 830.75 203.25 862.35 203.25 L 888 203.85 Q 892.35 203.85 893.45 199.9 L 896.3 185.1 Q 896.3 183.5 894.45 183.5 891.85 183.1 891.35 183.5 L 891 184.1 Q 889.25 192 886.4 193.35 883.2 195.35 866.3 195.35 L 858.4 195.35 Q 853.35 195.35 852.85 192.85 850.35 188.9 850.35 174.7 L 850.35 153.35 850 153.35 850.35 153 850.35 153.35 864.8 153.35 Q 874.2 153.35 876.15 154.95 877.55 155.35 878.65 158.8 878.65 160.75 881.1 160.75 L 883.1 160.4 Q 883.95 159.4 883.6 158.3 L 883.6 152.5 884.55 143.5 884.55 141.5 882.45 141 Q 880.6 140.65 879.65 142.1 L 878.15 145.6 Q 876.3 146.45 864.8 146.45 L 850.35 146.45 851.5 108.4 864.2 108.4 Q 876.55 108.4 882.45 110.5 886.05 112 886.4 116.45 L 886.4 115.85 M 983.35 276.8 Q 983.35 260.65 984.8 257.05 986.3 254.2 995.65 253.25 998.15 253.25 998.15 250.15 L 997.15 248.3 995.05 247.65 Q 987.9 249.3 980.25 249.3 974.05 249.3 963.6 248.3 L 962.1 247.65 960.5 248.3 959.65 250.15 Q 959.65 253.25 961.5 253.25 970.75 253.6 972.45 257.05 974.45 260.75 974.45 276.8 L 974.45 324.85 905.8 249.3 884.55 247.65 882.45 248.3 882.1 250.15 Q 882.1 252.75 883.6 253.25 889 254.2 893.8 259.15 899.4 263.95 899.4 269.05 L 899.4 323.35 Q 899.4 339.9 897.3 342.6 896.05 345.45 886.4 346.45 L 886.05 346.45 Q 884.55 347.9 884.55 349.5 L 885.55 351.35 Q 885.55 352 887.05 352 897.75 350.9 905.8 350.9 L 921.95 352 922.6 349.5 921.6 346.45 921 346.45 Q 911.7 346.05 909.65 342.6 908.25 339.25 908.25 323.35 L 908.25 275.95 979.4 353 Q 980.25 353.85 982.35 353.85 984.3 352.85 984.3 351.35 983.35 345.3 983.35 323.35 L 983.35 276.8 M 979.4 140.65 Q 983.7 133.5 983.7 125.35 983.7 111.9 971.35 105.6 960.75 99.55 943.2 99.55 913.45 99.55 905.3 102.6 903.7 102.6 903.7 104.45 903.7 107.55 906.15 107.55 L 911.7 106.95 Q 916.55 106.95 917.65 110.5 919.15 114.85 919.15 128.65 L 919.15 175.6 Q 919.15 190.9 917.65 195.35 916.15 197.9 912.7 198.3 L 905.8 198.9 Q 904.3 200 904.3 201.85 L 905.3 203.85 906.8 204.35 Q 912.2 203.25 928.4 203.25 941.85 203.25 946.65 204.35 L 948.75 203.85 949.15 201.85 Q 949.15 199.8 947.75 198.9 937.75 198.4 936.4 195.35 934.95 193.5 934.95 175.6 L 934.95 158.8 950.25 157.95 Q 955.65 179.15 968.9 190.9 985.8 206.8 1009.5 206.8 L 1011.5 205.7 1011.95 203.85 Q 1011.95 201.4 1009.85 201.4 999.15 201.4 983.7 185.45 969 170.4 963.6 153.85 L 962.95 154.45 962.95 153.35 963.6 153.85 Q 972.85 149.05 979.4 140.65 M 934.95 127.3 Q 934.95 110.25 935.8 106.95 L 941.35 106.55 Q 967.9 106.55 967.9 131.65 967.9 152 939.25 152 L 934.95 152 934.95 127.3 Z"/>
</g>
<g id="l1">
<path fill="#045E47" stroke="none" d="M 217.85 151.2 Q 217.85 127.6 201.15 110.9 184.45 94.2 160.85 94.2 137.25 94.2 120.55 110.9 103.85 127.6 103.85 151.2 103.85 174.8 120.55 191.5 137.25 208.2 160.85 208.2 184.45 208.2 201.15 191.5 217.85 174.8 217.85 151.2 Z"/>
</g>
<g id="l0">
<path fill="#FFFFFF" stroke="none" d="M 207.55 123.35 L 203.95 118.3 203.45 118.05 199.65 113.35 200.6 116.8 197.15 115.6 194.7 110.9 199 113 195.2 109.05 192.85 108.2 191.1 105.95 189.75 105.1 191 107.55 184.55 105.95 Q 182.2 102.25 181.25 101 L 180.35 100.65 Q 181 101.9 181.6 105.35 176.8 104.45 173.1 104.35 172.2 101.25 171 98.2 L 171.25 104.1 Q 168 103.85 161.5 103.85 L 161.1 97.7 160.6 98.55 160.1 103.85 149.65 104.7 150.25 99.55 149.15 103.5 149 104.95 141.75 105.95 148.9 105.35 147.8 112.75 Q 139.4 113.75 131.85 115.45 L 132.35 115.45 Q 140.1 114.35 147.65 114 L 146.65 123.75 Q 131.85 125.6 128 126.2 138.5 125.85 146.55 125.95 L 145.9 136.55 118.65 139.05 Q 137.3 139.05 145.9 139.4 L 145.8 150.65 Q 130.5 151.4 121.6 151.4 L 121.95 152 Q 129.65 152.1 145.8 153.35 L 145.9 164.85 Q 134.2 165.2 121.6 164.85 L 122.45 165.35 146.05 167.3 146.65 178.05 Q 136.4 178.05 124.95 176.7 L 125.55 177.2 Q 139 179.15 146.9 179.9 L 147.8 189.65 Q 140.6 189.3 134.8 188.4 L 135.45 189.05 135.9 189.05 147.8 190.75 149 198.4 Q 145.8869140625 198.323046875 142.1 197.8 L 149 198.9 149.15 200.25 150.25 203.25 150.25 202.75 149.75 198.9 Q 155.55 199.65 160.5 199.65 L 161.1 205.2 161.5 199.65 Q 165.05 199.8 171.25 199.55 L 171 204.85 171.35 204.35 173.1 199.4 Q 176.05 199.15 181.75 198.15 L 180.85 201.85 182.85 200.75 184.55 197.55 Q 187.75 196.8 191 195.7 L 190.75 196.45 192.7 195.35 192.85 194.95 193.2 194.95 197.15 191.5 194.7 192.25 Q 195.8 190.65 197.15 187.8 L 200.6 186.45 200.1 188.4 Q 203.35 184.95 206.55 180.15 L 207.05 179.65 206.9 179.65 209.5 174.85 Q 211.85 170.25 213.2 165.35 L 213.35 165.35 Q 214.3 161.5 214.55 156.8 214.95 154.2 214.95 151.4 214.95 149.05 214.45 144.6 214.3 142.1 213.35 137.7 L 213.2 137.55 212.7 135.95 212.95 136.1 212.6 135.2 Q 210.6 128.9 207.05 123 L 207.55 123.35 M 185.45 107.8 Q 187.75 108.4 191.75 109.9 192.6 111.75 192.95 114.35 L 187.9 113.35 Q 187.15 111.15 185.45 107.8 M 182.85 116.45 L 183.1 122.35 177.3 122.25 176.05 115.45 182.85 116.45 M 191 123 L 189.5 117.7 193.8 118.65 194.05 123.6 191 123 M 199 120.25 L 201.85 121.15 203.1 125.45 200.6 124.85 199 120.25 M 173.6 105.7 L 181.75 106.95 Q 182.35 109.55 182.45 112.5 L 175.45 111.9 175.3 111.9 173.6 105.7 M 171.35 111.75 L 162.1 111.5 161.75 104.95 Q 166.65 104.95 171.25 105.35 L 171.35 111.75 M 171.85 122.25 L 162.7 122.35 162.45 114.2 171.6 114.95 171.85 122.25 M 179.25 147.2 L 179.15 142.1 183.6 142.75 183.7 146.45 Q 181.75 147.05 179.25 147.2 M 172.35 141.4 L 172.35 148.3 163.6 149.3 163.35 140.4 172.35 141.4 M 163.1 126.55 L 171.85 127.3 172.2 134.7 163.2 135.35 163.1 126.55 M 178.65 134.45 L 178 128.05 183.45 128.9 183.6 134.2 178.65 134.45 M 192.2 130.5 L 194.2 131 194.05 134.1 Q 193.45 134.35 192.85 134.1 L 192.2 130.5 M 183.7 157.05 L 183.6 160.65 179.15 161.65 179.25 156.7 183.7 157.05 M 193.8 169.15 L 193.95 172.35 192.35 172.75 192.85 169.3 193.8 169.15 M 163.2 168.55 L 171.85 169.3 172.35 169.3 172.2 176.7 Q 172.1 176.55 171.85 176.7 L 162.95 177.45 163.2 168.55 M 163.6 155.1 L 172.35 155.85 172.35 162.5 Q 171.75 162.6 163.35 163.6 L 163.6 155.1 M 162.6 181.5 L 171.95 181.75 171.75 188.9 162.1 189.65 Q 162.6 184.2 162.6 181.5 M 182.1 196.2 Q 177.9 197.2 173.6 197.7 174.95 192.75 175.05 191.85 180 191.4 182.45 191 L 182.1 196.2 M 176.05 188.3 L 177.15 181.75 183.1 181.65 182.95 187.2 176.05 188.3 M 193.8 180.5 L 193.45 185.1 189.15 185.95 190.75 181 193.8 180.5 M 201.6 182.25 L 199.15 183.25 200.6 179.15 202.7 178.55 201.6 182.25 M 191.6 193.35 Q 188.5 194.45 185.55 195.2 L 187.75 190.25 Q 189.65 190 192.7 189.05 L 191.6 193.35 M 183.45 174.85 L 178 175.85 178.65 169.4 Q 181.25 169.65 183.6 169.4 L 183.45 174.85 M 148.5 123.6 L 149 114 Q 154.45 113.85 159.65 114 L 159.4 122.75 Q 156.3 122.85 148.5 123.6 M 149.15 112.5 L 149.65 105.35 Q 155.2 104.95 160.1 104.95 L 159.85 111.75 149.15 112.5 M 148.4 125.95 L 159.25 126.2 158.9 135.45 148.15 136.45 148.4 125.95 M 148.15 139.55 Q 151.75 139.65 158.9 140.15 L 158.75 149.65 147.9 150.5 148.15 139.55 M 158.75 154.45 Q 158.65 159.4 158.75 164.1 L 148.15 164.7 147.9 153.6 158.75 154.45 M 148.25 167.45 L 158.9 168.15 159 177.8 148.5 178.05 148.25 167.45 M 148.75 180.25 L 159.25 181.15 159.65 189.65 Q 154.55 190 149.15 189.65 L 148.75 180.25 M 149.4 190.9 L 159.85 191.65 160.5 198.9 Q 154.55 198.9 149.75 198.4 L 149.4 190.9 M 161.5 198.9 Q 161.95 194.2 161.95 191.85 L 171.6 192 171.25 198.15 161.5 198.9 Z"/>
</g>
</defs>
<g transform="matrix(1,0,0,1,0,0)">
<use xlink:href="#l2"/>
</g>
<g transform="matrix(1,0,0,1,0,0)">
<use xlink:href="#l1"/>
</g>
<g transform="matrix(1,0,0,1,0,0)">
<use xlink:href="#l0"/>
</g>
</svg>
