<svg xmlns="http://www.w3.org/2000/svg" xmlns:xlink="http://www.w3.org/1999/xlink" width="100%" height="100%" viewBox="0 0 1024 446">
<!-- Vectorization by Rodrigo Polo https://github.com/rodrigopolo/logotipos-politicos -->
<defs>
<g id="l">
<path fill="#000000" stroke="none" d="M 427 427.9 L 427 18.15 17.2 18.15 17.2 427.9 427 427.9 M 370.6 126.8 Q 389.2 154.9 396 187.2 403.15 220.55 396.7 254 386.75 305.6 351.75 343.45 316.65 381.35 267.4 393.95 252.05 397.8 231.45 399.25 211.1 400.45 197.35 398.4 144 389.95 104.8 355.1 65.55 320.15 50.75 267.85 45.75 249.75 45.75 223.6 45.75 197.55 50.75 178.6 63.4 132.25 97.45 98.1 131.6 64 177.65 51.7 196.75 46.7 225.95 46.85 247.8 47.15 262.25 50.6 331.4 67.55 370.6 126.8 M 369.4 295.15 Q 381 271.5 384.7 241.85 391 191.85 366.65 146.1 342.4 100.35 297.75 78.45 276.15 67.9 260.55 64.15 244.75 60.45 222.2 60.5 L 222.2 60.4 Q 165.4 60.65 122.6 93.1 79.7 125.75 64.6 180.25 59.65 198.35 59.45 222.55 59.45 246.5 64.45 265.6 77.3 313.9 115.1 346.45 152.7 378.8 202.85 384.85 239.5 389.2 275.3 377.1 311.05 364.95 336.6 339.55 357.65 318.95 369.4 295.15 M 331.75 126.65 L 338.85 136.4 Q 346.2 146.55 351.5 157.1 355.95 165.9 360.85 183.15 365.9 200.6 365.9 207.5 365.9 211.45 362.6 212.15 359.35 212.8 339.95 212.8 L 314 212.8 312.55 204.35 Q 310.45 191.2 307.35 177.75 303.95 163.5 301.5 156.45 297.95 146.6 298.5 145.95 L 309.3 140.35 Q 319 135.65 325.7 131 L 331.75 126.65 M 339.85 233.15 L 349.7 233.15 Q 363.85 233.3 365.45 236.85 366.75 239.55 362.6 256.95 356.75 282.45 341.85 304.65 338.5 309.8 335.35 313.35 332.3 316.95 331.15 316.8 328.45 316.6 315.05 308.95 301.05 301.05 299.55 300.55 298.9 300.35 299.7 296.15 300.55 292 302.55 286.35 305.25 278.4 309.5 258.7 313.85 238.7 313.85 234.05 313.85 233.15 339.85 233.15 M 271.4 89.7 Q 269.65 86.15 270.3 86.15 272.9 86.15 289.6 95.15 306.3 104.2 311.2 108.35 L 318.8 114.65 291.9 129.05 287.6 119.6 Q 284.2 111.9 276.15 98.05 273.25 93.25 271.4 89.7 M 193.35 92.3 Q 198.3 84.65 201.25 82.05 204.1 79.45 207.65 79.45 L 213.5 79.25 213.05 143.85 207.45 144.3 Q 202.2 144.55 188.45 141.35 174.75 138.1 172.5 135.95 170.7 134 176.9 121.25 183.1 108.45 193.35 92.3 M 164.15 90.7 L 176 86 170 95.8 Q 164.3 105.15 158.55 117.3 153.15 129.05 152.5 129.05 151.95 129.05 139.6 122.3 127.45 115.55 126.65 114.75 125.35 113.55 140.6 103.75 155.9 94.05 164.15 90.7 M 232.35 79.25 L 237.75 79.25 Q 246.85 79.25 268.2 121.7 L 275.3 135.7 264.05 139 Q 252.65 142.5 242.7 143.9 L 232.35 145.5 232.35 79.25 M 189.1 160 Q 196.05 161.8 201.25 162.55 L 213.05 164.3 213.7 212.8 150.25 212.8 151.6 201 Q 152.7 192 155.85 178.85 158.95 166.05 161.9 158.1 L 164.15 152 176.75 156.45 Q 182.4 158.35 189.1 160 M 232.35 163.05 L 238.5 163.05 Q 242.95 163.05 257.25 159.55 271.45 155.85 277.85 153.05 L 278.85 152.85 Q 280.6 152.75 282.2 156 283.65 159.2 286.3 168.1 288.35 174.95 290.2 183.85 292.15 193.2 292.65 198.75 L 294.1 212.8 232.35 212.8 232.35 163.05 M 141.2 142.9 Q 145.75 144.6 145.95 146.85 146.25 149.1 142.8 158.75 139.55 168.2 136.05 184.05 132.7 199.55 132.7 206.15 L 132.7 212.8 78.05 212.8 79.5 203.25 Q 84.95 167.05 105.95 136.6 L 112.5 127 124.2 133.95 Q 135.85 140.95 141.2 142.9 M 150.9 239.45 L 150.8 233.15 213.6 233.15 213.6 255.8 Q 213.6 278.5 211.1 280.4 208.7 282.35 197.25 284.1 186.35 285.6 175.1 289.85 L 164.15 294 161.9 287.95 Q 159.1 280.8 155 262.55 150.9 244.65 150.9 239.45 M 132.7 233.15 L 132.7 242 Q 132.7 247.55 137.2 267.4 141.75 287.65 145 296.6 146.35 300 129.4 309.25 L 112.7 318.5 106.05 309.25 Q 85.3 280.5 79.5 242.9 L 78.05 233.25 78.05 233.15 132.7 233.15 M 139.6 323.9 Q 150.85 317.85 153.4 317.25 L 153.9 317.25 164.8 339.05 Q 175.25 359.9 174.7 359.9 172.75 359.9 154.35 349.9 135.75 339.7 132.05 336.55 L 125.75 331.3 139.6 323.9 M 293.45 233.15 L 293.45 240.9 Q 293.45 243.95 291.9 252.7 290 262.4 287.85 270.6 282.25 292.8 281.55 293.2 280.8 293.8 268.55 289.5 256.35 285.2 244.7 283.55 L 233.5 281.75 232.15 233.15 293.45 233.15 M 232.35 333.95 Q 232.35 311.1 233 307.7 234 301.05 239.55 301.15 242.3 301.25 257.3 304.65 263.95 306.2 268.4 308.05 273.15 309.8 273.05 310.95 273.05 314.3 266.4 327.65 259.75 340.85 252.3 352.3 246.65 360.6 243.7 363.6 240.45 366.8 237.55 366.8 233.65 366.8 233.05 362.6 232.35 358.45 232.35 333.95 M 207.95 301.15 L 213.35 301.15 213.6 366.8 207.65 366.65 Q 204.1 366.65 201.25 364.05 198.35 361.4 193.5 353.7 186.65 343.1 178.95 328.05 171.3 313 171.3 310.35 171.3 308.65 186.25 304.9 201.35 301.15 207.95 301.15 M 292.55 316.9 Q 293.8 316.9 306.5 324.1 L 319.15 331.3 312.5 336.55 Q 305.4 342.15 293.35 348.45 280.95 355.1 274.85 357.45 L 268.75 359.7 275.7 348 Q 282.65 336.4 286.8 326.55 291.15 316.9 292.55 316.9 M 628.35 326.45 L 604.45 326.45 564.35 427.9 587.75 427.9 596.05 405.3 635.8 405.3 643.75 427.9 667.95 427.9 628.35 326.45 M 616.3 351.4 L 629.7 388.65 602.2 388.65 616 351.4 616.3 351.4 M 558.55 339.6 Q 556.15 334.85 551.6 331.95 547.25 329.05 540.95 327.65 534.7 326.45 527.1 326.45 L 477.2 326.45 477.2 427.9 528.65 427.9 Q 535.6 427.9 542.45 426.2 549.2 424.5 554.5 420.9 559.75 417.35 562.85 411.8 566 406.2 566 398.45 566 389.05 561.2 382.25 556.3 375.4 546.6 372.7 553.7 369.5 557.35 364.4 561 359.3 561 351.5 561 344.6 558.55 339.6 M 528.4 344.3 Q 531.2 344.75 533.55 346 535.75 347.4 537.05 349.6 538.4 351.9 538.4 355.45 538.4 361.9 534.45 364.65 530.35 367.55 524.1 367.55 L 500.55 367.55 500.55 343.75 522.4 343.75 528.4 344.3 M 500.55 382.7 L 525.95 382.7 Q 533.5 382.7 538.1 386.05 542.65 389.4 542.65 397.2 542.65 401.2 541.25 403.7 539.9 406.35 537.5 407.75 535.15 409.3 532 409.9 L 525.5 410.55 500.55 410.55 500.55 382.7 M 557.85 172.35 L 536 172.35 517.6 241.4 517.25 241.4 500.55 172.35 477.2 172.35 505.25 273.8 528.9 273.8 546.6 204.8 546.85 204.8 564.8 273.8 588 273.8 616.5 172.35 593.65 172.35 576.25 242.25 576 242.25 557.85 172.35 M 532.25 36.9 L 564.1 36.9 564.1 18.15 477.2 18.15 477.2 36.9 508.9 36.9 508.9 119.65 532.25 119.65 532.25 36.9 M 798.05 326.45 L 774.65 326.45 774.65 427.9 798.05 427.9 798.05 395.2 811.35 382.3 843.25 427.9 872.6 427.9 827.05 366.5 868.55 326.45 839.4 326.45 798.05 368.45 798.05 326.45 M 692.65 359.9 L 692.95 359.9 737.15 427.9 760.45 427.9 760.45 326.45 738.65 326.45 738.65 394.5 738.25 394.5 694 326.45 670.9 326.45 670.9 427.9 692.65 427.9 692.65 359.9 M 659.4 119.65 L 659.4 18.15 636.2 18.15 636.2 57.1 593.2 57.1 593.2 18.15 569.85 18.15 569.85 119.65 593.2 119.65 593.2 75.85 636.2 75.85 636.2 119.65 659.4 119.65 M 809.95 180.65 Q 805.85 176.7 800.25 174.5 794.4 172.35 787.4 172.35 L 730.15 172.35 730.15 273.8 753.5 273.8 753.5 234.25 776.75 234.25 Q 785.5 234.25 789.4 237.85 793.3 241.55 794.45 249.5 L 795.85 262.3 Q 796.25 268.8 798.15 273.8 L 821.55 273.8 Q 819.85 271.65 819.05 268.6 L 817.95 262.15 817.05 249.75 815.95 242.1 Q 815.15 238.35 813.3 235.15 811.75 232.1 808.75 229.5 805.95 227.2 801.6 226.05 L 801.6 225.85 Q 810.5 222.35 814.45 215.8 818.45 209.3 818.45 200.3 818.45 194.65 816.25 189.5 813.95 184.3 809.95 180.65 M 779 189.65 Q 787 189.65 791.05 193.05 795.05 196.4 795.05 203.7 795.05 211.45 791.05 214.8 787 218.2 779 218.2 L 753.5 218.2 753.5 189.65 779 189.65 M 706.8 185.4 Q 700.15 178.2 690.4 174 680.65 169.9 668.45 169.9 656.35 169.9 646.55 174 636.7 178.25 630.15 185.4 623.4 192.7 619.9 202.4 616.3 212.15 616.3 223.5 616.3 234.55 619.9 244.15 623.4 253.75 630.15 260.95 636.75 267.95 646.55 272 656.3 276.15 668.45 276.15 680.7 276.15 690.4 272 700.05 268 706.8 260.95 713.45 253.7 717 244.15 720.65 234.45 720.65 223.5 720.65 212.2 717 202.4 713.5 192.75 706.8 185.4 M 668.45 188.65 Q 676.25 188.65 681.85 191.55 687.4 194.55 690.8 199.4 694.25 204.5 695.65 210.55 697.3 217 697.3 223.5 697.3 229.7 695.65 235.95 694.3 241.8 690.8 246.8 687.45 251.55 681.85 254.5 676.4 257.4 668.45 257.4 660.5 257.4 655.05 254.5 649.55 251.6 646.15 246.8 642.65 241.85 641.25 235.95 639.6 230.1 639.6 223.5 639.6 216.6 641.25 210.55 642.65 204.4 646.15 199.4 649.6 194.5 655.05 191.55 660.65 188.65 668.45 188.65 M 753.05 36.9 L 753.05 18.15 673.7 18.15 673.7 119.65 754.2 119.65 754.2 100.95 697.05 100.95 697.05 75.95 748.4 75.95 748.4 58.7 697.05 58.7 697.05 36.9 753.05 36.9 M 854.45 172.35 L 831.1 172.35 831.1 273.8 906.2 273.8 906.2 255.1 854.45 255.1 854.45 172.35 M 993.05 184.8 Q 986.5 178.55 977.8 175.45 969.1 172.35 958.7 172.35 L 912.95 172.35 912.95 273.8 958.7 273.8 Q 970.95 273.8 979.9 269.95 988.9 266 994.85 259.15 1000.9 252.45 1003.95 243 1006.85 233.45 1006.85 222.55 1006.85 209.75 1003.2 200.45 999.5 190.95 993.05 184.8 M 983.5 224.55 Q 983.5 233.1 981.25 238.85 979.15 244.55 975.3 248.3 971.55 251.95 966.9 253.45 962.15 255.1 957.15 255.1 L 936.3 255.1 936.3 191.05 952.85 191.05 Q 961.55 191.05 967.4 193.5 973.3 195.8 976.85 200.25 980.3 204.55 982 210.8 983.5 217 983.5 224.55 Z"/>
</g>
</defs>
<g transform="matrix(1,0,0,1,0,0)">
<use xlink:href="#l"/>
</g>
</svg>
