<svg xmlns="http://www.w3.org/2000/svg" xmlns:xlink="http://www.w3.org/1999/xlink" width="100%" height="100%" viewBox="0 0 1024 1024">
<!-- Vectorization by Rodrigo Polo https://github.com/rodrigopolo/logotipos-politicos -->
<defs>
<g id="l8">
<path fill="#002B6E" stroke="none" d="M 707.85 838.75 L 707.85 832.6 680.55 832.6 680.55 880.7 708.5 880.7 708.5 874.55 687.45 874.55 687.45 859.6 707.15 859.6 707.15 853.45 687.45 853.45 687.45 838.75 707.85 838.75 M 693.55 818.75 L 688.95 829.05 692.8 829.05 700.6 818.75 693.55 818.75 M 741.9 853.3 Q 744 850.2 744 846.05 744 839.85 739.75 836.25 735.4 832.6 728.15 832.6 L 716.05 832.6 716.05 880.75 722.95 880.75 722.95 859.8 724.75 859.8 Q 728.15 859.8 729.55 860.55 730.95 861.35 732.75 863.15 734.5 864.9 736.65 867.85 L 742.45 877.05 Q 742.65 877.3 742.85 877.6 L 744.95 880.75 753.15 880.75 746.6 871.15 Q 742.55 864.65 740.35 862 738.15 859.4 735.85 857.9 739.8 856.4 741.9 853.3 M 735.8 850.1 Q 734.7 851.9 732.75 852.8 730.8 853.7 725.55 853.7 L 722.95 853.7 722.95 838.45 725 838.45 Q 730.05 838.45 732.25 839.25 734.45 840 735.65 841.85 736.85 843.7 736.85 846 736.85 848.3 735.8 850.1 M 764.55 832.6 L 757.6 832.6 757.6 880.75 764.55 880.75 764.55 832.6 M 815.8 877.15 L 815.8 869.6 Q 807.45 874.95 798.7 874.95 790.3 874.95 784.95 869.9 779.55 864.8 779.55 856.85 779.55 849 785.05 843.8 790.5 838.55 798.8 838.55 806.85 838.55 815.25 843.35 L 815.25 835.95 Q 806 832 798.4 832 787.45 832 779.95 839.2 772.45 846.35 772.45 856.85 772.45 863.5 775.7 869.15 779 874.85 784.6 878.05 790.25 881.3 798.3 881.3 808.2 881.3 815.8 877.15 M 843.5 832.35 L 838.65 832.35 818 880.75 825.1 880.75 831.1 866.5 851.6 866.5 858.05 880.75 865.1 880.75 843.5 832.35 M 841.05 842.9 L 848.8 860.4 833.85 860.4 841.05 842.9 M 869.25 833.25 Q 868.1 834.45 868.1 836.55 868.1 838.15 869.05 839.25 870 840.3 871.65 840.5 L 871.65 841.25 Q 871.65 845.6 868.9 847.75 L 868.9 849.05 Q 877.1 846.25 877.1 838.7 877.1 835.7 875.75 833.9 874.4 832 872.25 832 870.35 832 869.25 833.25 M 892.85 838.55 Q 892.85 835.6 891.5 833.8 890.15 832 887.9 832 886.15 832 885 833.2 883.85 834.35 883.85 836.25 883.85 839.95 887.5 840.4 L 887.5 841.3 Q 887.5 845.35 884.75 847.75 L 884.75 849.05 Q 888.5 847.95 890.7 845.15 892.85 842.3 892.85 838.55 M 909.95 829.5 Q 907.55 829.5 907.55 832.7 L 907.7 834.25 909.4 842.8 Q 908.6 842.9 908.05 843.5 L 901.1 837.1 Q 899.65 836.05 898.85 836.05 897.9 836.05 897.2 836.85 896.45 837.6 896.45 838.6 896.45 840.5 899.6 841.55 L 907.55 844.55 907.4 845.35 907.55 846.15 900.55 848.6 Q 896.35 850 896.35 852.3 896.35 853.2 897 853.9 897.7 854.6 898.65 854.6 899.95 854.6 902.55 852.3 L 908.05 847.15 Q 908.7 847.85 909.4 847.85 L 907.6 856.3 907.4 858.05 Q 907.4 861.35 909.8 861.35 912.15 861.35 912.15 858.3 L 910.4 847.85 Q 911.1 847.85 911.8 847.15 L 917 852.35 Q 919.35 854.65 921.05 854.65 921.95 854.65 922.6 853.85 923.3 853.05 923.3 852.3 L 922.85 851 921.8 849.95 920.25 849.2 912.25 846.15 912.4 845.4 912.25 844.55 920.6 841.55 Q 923.3 840.9 923.3 838.55 923.3 837.5 922.6 836.85 922 836.15 921.05 836.15 919.6 836.15 917.75 837.9 L 911.8 843.5 Q 911.3 842.8 910.6 842.8 L 910.4 842.8 912.25 832.35 Q 912.25 829.5 909.95 829.5 M 232.5 832.6 L 225.55 832.6 225.55 859.95 Q 225.55 865.65 224.65 868 223.75 870.35 221.75 872.05 217.9 875.25 211.75 875.25 207.45 875.25 204.3 873.65 201.15 872.05 199.55 869.4 198.05 866.75 198.05 859.95 L 198.05 832.6 191.1 832.6 191.1 859.9 Q 191.1 865.7 191.85 868.45 192.65 871.15 193.85 873.05 195 874.9 196.75 876.45 202.45 881.3 211.85 881.3 221.05 881.3 226.8 876.4 228.5 874.9 229.7 873.05 230.9 871.15 231.75 868.35 232.5 865.5 232.5 859.95 L 232.5 832.6 M 246.95 843.7 L 279.1 880.75 285 880.75 285 832.6 278.5 832.6 278.5 870 246.05 832.6 240.45 832.6 240.45 880.75 246.95 880.75 246.95 843.7 M 302.3 832.6 L 295.35 832.6 295.35 880.75 302.3 880.75 302.3 832.6 M 446.5 942.65 L 460.9 942.65 460.9 938.3 441.65 938.3 441.65 972.15 461.35 972.15 461.35 967.85 446.5 967.85 446.5 957.3 460.4 957.3 460.4 952.95 446.5 952.95 446.5 942.65 M 404.4 938.3 L 404.4 972.15 415.1 972.15 Q 419.65 972.15 421.25 971.95 422.85 971.65 424.8 970.9 428.05 969.65 430.5 967.2 432.95 964.85 434.25 961.75 435.6 958.65 435.6 955.3 435.6 950.5 433.2 946.45 430.8 942.45 426.75 940.4 422.75 938.3 415.85 938.3 L 404.4 938.3 M 426.85 946.1 Q 430.55 949.55 430.55 955 430.55 960.55 426.95 964.2 425.8 965.3 424.5 966.1 423.1 966.85 421.15 967.35 419.1 967.85 415.45 967.85 L 409.25 967.85 409.25 942.65 415.35 942.65 Q 418.8 942.65 420.4 942.9 422 943.15 423.75 944 425.5 944.8 426.85 946.1 M 400.05 937.85 L 397.3 937.85 Q 391.95 944.4 389.85 949.75 387.75 955.05 387.75 960.8 387.75 966.4 389.85 971.8 391.15 975.2 392.5 977.3 393.8 979.4 396.55 982.7 L 397.3 983.6 400.05 983.6 Q 392.85 974.2 392.85 960.9 392.85 957.05 393.55 952.95 394.25 948.8 395.65 945.55 397 942.35 400.05 937.85 M 374.35 936.1 Q 372.65 936.1 372.65 938.35 L 373.95 945.5 Q 373.4 945.5 373 945.95 L 368.15 941.45 Q 367.1 940.7 366.55 940.7 365.9 940.7 365.35 941.25 364.85 941.85 364.85 942.5 364.85 943.85 367.05 944.6 L 372.65 946.7 372.55 947.3 372.65 947.85 367.75 949.55 Q 364.75 950.5 364.75 952.15 364.75 952.8 365.25 953.25 365.7 953.75 366.4 953.75 367.3 953.75 369.1 952.15 L 373 948.55 Q 373.5 949 373.95 949.1 L 372.7 954.95 372.55 956.25 Q 372.55 958.55 374.25 958.55 375.85 958.55 375.85 956.4 L 375.7 954.15 374.65 949.1 Q 375.15 949.1 375.7 948.55 L 379.3 952.2 Q 380.95 953.8 382.15 953.8 382.8 953.8 383.25 953.25 383.75 952.7 383.75 952.15 L 383.45 951.25 382.65 950.45 381.6 949.95 376 947.85 376.1 947.3 376 946.7 381.85 944.6 Q 383.75 944.15 383.75 942.45 383.75 941.75 383.25 941.25 382.8 940.75 382.15 940.75 381.15 940.75 379.85 942 L 375.7 945.95 Q 375.3 945.5 374.8 945.5 L 374.65 945.5 376 938.1 Q 376 936.1 374.35 936.1 M 344.8 835.6 Q 339.05 832.6 329.25 832.6 L 313 832.6 313 880.7 328.25 880.7 Q 334.65 880.7 336.95 880.35 339.2 879.95 341.95 878.9 346.6 877.15 350.1 873.7 353.55 870.35 355.4 865.95 357.3 861.55 357.3 856.7 357.3 849.95 353.9 844.25 350.55 838.5 344.8 835.6 M 335.75 839.15 Q 338 839.5 340.5 840.65 343 841.85 344.9 843.7 350.15 848.6 350.15 856.35 350.15 864.2 345.05 869.4 343.45 871 341.6 872.1 339.65 873.15 336.75 873.9 333.95 874.55 328.75 874.55 L 319.95 874.55 319.95 838.75 328.55 838.75 Q 333.5 838.75 335.75 839.15 M 406.25 874.4 Q 413.7 867.35 413.7 856.7 413.7 846.05 406.3 839 398.85 831.95 387.7 831.95 376.55 831.95 369.25 839 361.9 846.05 361.9 856.85 361.9 867.35 369.15 874.4 376.45 881.3 387.35 881.3 398.75 881.3 406.25 874.4 M 374.45 869.8 Q 369.1 864.65 369.1 856.85 369.1 848.8 374.4 843.65 379.75 838.45 388 838.45 395.8 838.45 401.2 843.75 406.6 848.9 406.6 856.55 406.6 864.45 401.2 869.7 395.8 874.95 387.8 874.95 379.75 874.95 374.45 869.8 M 426.5 839.75 Q 428.7 838.2 432.1 838.2 438.05 838.2 443.3 843.2 L 443.3 835.35 Q 438.25 832 432.2 832 425.9 832 421.95 835.55 418 839.1 418 844.75 418 848.6 420.1 851.5 422.2 854.4 427.15 857.4 L 432.35 860.6 Q 438.7 864.5 438.7 868.95 438.7 871.65 436.55 873.5 434.35 875.25 431.15 875.25 423.8 875.25 418.2 868.15 L 418.2 876.95 Q 424.05 881.3 431.2 881.3 437.4 881.3 441.3 877.7 445.15 874.05 445.15 868.3 445.15 860.15 436.35 854.9 L 431.1 851.8 Q 427.55 849.7 425.9 847.85 424.35 845.95 424.35 843.8 424.35 841.35 426.5 839.75 M 605.85 955.3 Q 605.85 947.75 600.65 942.8 595.4 937.85 587.55 937.85 579.7 937.85 574.55 942.8 569.4 947.75 569.4 955.4 569.4 962.75 574.5 967.7 579.65 972.6 587.3 972.6 595.3 972.6 600.6 967.7 605.85 962.75 605.85 955.3 M 587.75 942.4 Q 593.25 942.4 597.05 946.1 600.85 949.8 600.85 955.15 600.85 960.7 597.05 964.4 593.25 968.1 587.6 968.1 581.95 968.1 578.2 964.5 574.4 960.85 574.4 955.4 574.4 949.7 578.15 946.05 581.95 942.4 587.75 942.4 M 634.95 938.75 L 634.15 937.85 631.45 937.85 Q 634.05 941.4 635.55 944.95 637.05 948.5 637.8 952.45 638.6 956.4 638.6 960.65 638.6 964.3 637.9 968.25 637.3 972.2 635.95 975.55 634.6 978.8 631.45 983.6 L 634.15 983.6 Q 637.95 978.8 639.4 976.3 640.85 973.85 641.8 971.3 643.7 966.2 643.7 960.75 643.7 955 641.6 949.6 640.3 946.2 639 944.15 637.65 942 634.95 938.75 M 620.1 937.85 Q 615.7 937.85 612.9 940.35 610.1 942.85 610.1 946.85 610.1 949.55 611.6 951.6 613.05 953.6 616.55 955.75 L 620.2 958.05 Q 624.7 960.8 624.7 963.9 624.7 965.75 623.15 967.1 621.6 968.35 619.35 968.35 614.2 968.35 610.3 963.35 L 610.3 969.5 Q 614.35 972.6 619.4 972.6 623.8 972.6 626.5 970.05 629.2 967.5 629.2 963.45 629.2 957.7 623 954 L 619.3 951.8 Q 616.85 950.35 615.7 949 614.6 947.7 614.6 946.15 614.6 944.45 616.15 943.3 617.6 942.25 620 942.25 624.25 942.25 627.9 945.75 L 627.9 940.25 Q 624.35 937.85 620.1 937.85 M 506.65 967.7 Q 511.75 972.6 519.4 972.6 527.45 972.6 532.75 967.7 538 962.75 538 955.3 538 947.75 532.8 942.8 527.5 937.85 519.7 937.85 511.8 937.85 506.7 942.8 501.55 947.75 501.55 955.4 501.55 962.75 506.65 967.7 M 510.3 946.05 Q 514.05 942.4 519.85 942.4 525.4 942.4 529.2 946.1 533 949.8 533 955.15 533 960.7 529.2 964.4 525.4 968.1 519.75 968.1 514.05 968.1 510.35 964.5 506.55 960.85 506.55 955.4 506.55 949.7 510.3 946.05 M 496.4 940.25 Q 492.85 937.85 488.55 937.85 484.15 937.85 481.35 940.35 478.55 942.85 478.55 946.85 478.55 949.55 480.05 951.6 481.55 953.6 485 955.75 L 488.7 958.05 Q 493.15 960.8 493.15 963.9 493.15 965.75 491.6 967.1 490.1 968.35 487.85 968.35 482.65 968.35 478.75 963.35 L 478.75 969.5 Q 482.85 972.6 487.9 972.6 492.25 972.6 495 970.05 497.7 967.5 497.7 963.45 497.7 957.7 491.5 954 L 487.8 951.8 Q 485.3 950.35 484.15 949 483.05 947.7 483.05 946.15 483.05 944.45 484.6 943.3 486.1 942.25 488.45 942.25 492.7 942.25 496.4 945.75 L 496.4 940.25 M 552.6 938.3 L 544.1 938.3 544.1 972.2 548.95 972.2 548.95 957.45 550.2 957.45 Q 552.6 957.45 553.6 958 554.6 958.55 555.85 959.8 557.1 961 558.6 963.1 L 561.7 968.25 562.65 969.55 Q 562.85 969.8 563 969.95 L 564.45 972.2 570.25 972.2 565.6 965.45 Q 562.8 960.85 561.25 959 559.7 957.2 558.05 956.1 560.8 955 562.3 952.85 563.8 950.7 563.8 947.75 563.8 943.4 560.8 940.85 557.7 938.3 552.6 938.3 M 557.9 944.8 Q 558.75 946.1 558.75 947.7 558.75 949.3 558 950.6 557.2 951.85 555.85 952.5 554.5 953.15 550.8 953.15 L 548.95 953.15 548.95 942.4 550.45 942.4 Q 554 942.4 555.5 942.95 557.05 943.5 557.9 944.8 M 504.15 835.6 Q 498.4 832.6 488.6 832.6 L 472.35 832.6 472.35 880.7 487.6 880.7 Q 494 880.7 496.3 880.35 498.55 879.95 501.3 878.9 505.9 877.15 509.45 873.7 512.9 870.35 514.75 865.95 516.65 861.55 516.65 856.7 516.65 849.95 513.25 844.25 509.9 838.5 504.15 835.6 M 495.1 839.15 Q 497.35 839.5 499.85 840.65 502.3 841.85 504.25 843.7 509.5 848.6 509.5 856.35 509.5 864.2 504.4 869.4 502.8 871 500.95 872.1 499 873.15 496.1 873.9 493.3 874.55 488.1 874.55 L 479.3 874.55 479.3 838.75 487.9 838.75 Q 492.85 838.75 495.1 839.15 M 531.2 838.75 L 551.6 838.75 551.6 832.6 524.35 832.6 524.35 880.7 552.25 880.7 552.25 874.55 531.2 874.55 531.2 859.6 550.9 859.6 550.9 853.45 531.2 853.45 531.2 838.75 M 599.5 832.35 L 594.65 832.35 574 880.75 581.1 880.75 587.1 866.5 607.6 866.5 614.05 880.75 621.1 880.75 599.5 832.35 M 589.85 860.4 L 597.05 842.9 604.85 860.4 589.85 860.4 M 632.8 832.6 L 626.25 832.6 626.25 880.75 633.15 880.75 633.15 843.35 648.1 861.9 649.4 861.9 664.2 843.35 664.2 880.75 671.1 880.75 671.1 832.6 664.7 832.6 648.8 852.4 632.8 832.6 M 645.7 757.9 Q 638.25 750.85 627.1 750.85 615.95 750.85 608.65 757.9 601.3 765 601.3 775.8 601.3 786.25 608.55 793.3 615.85 800.2 626.75 800.2 638.15 800.2 645.65 793.3 653.1 786.25 653.1 775.6 653.1 765 645.7 757.9 M 640.6 762.65 Q 646 767.8 646 775.45 646 783.35 640.6 788.6 635.2 793.85 627.2 793.85 619.15 793.85 613.85 788.7 608.5 783.55 608.5 775.8 608.5 767.75 613.8 762.55 619.15 757.4 627.4 757.4 635.2 757.4 640.6 762.65 M 577.6 751.55 L 570.7 751.55 570.7 799.7 599.3 799.7 599.3 793.4 577.6 793.4 577.6 751.55 M 523.6 772.35 L 523.6 757.65 544 757.65 544 751.55 516.7 751.55 516.7 799.6 544.65 799.6 544.65 793.45 523.6 793.45 523.6 778.55 543.3 778.55 543.3 772.35 523.6 772.35 M 481.9 751.55 L 465.65 751.55 465.65 799.6 480.9 799.6 Q 487.3 799.6 489.6 799.25 491.85 798.85 494.6 797.85 499.2 796.1 502.75 792.6 506.2 789.3 508.05 784.85 509.95 780.45 509.95 775.6 509.95 768.85 506.55 763.15 503.2 757.4 497.45 754.5 491.7 751.55 481.9 751.55 M 472.6 757.65 L 481.15 757.65 Q 486.1 757.65 488.35 758.05 490.6 758.4 493.15 759.6 495.6 760.75 497.55 762.6 502.75 767.5 502.75 775.25 502.75 783.1 497.7 788.3 496.1 789.9 494.2 791 492.3 792.05 489.4 792.8 486.55 793.45 481.4 793.45 L 472.6 793.45 472.6 757.65 M 393.1 757.9 Q 385.75 765 385.75 775.8 385.75 786.25 393 793.3 400.3 800.2 411.2 800.2 422.6 800.2 430.1 793.3 437.55 786.25 437.55 775.6 437.55 765 430.15 757.9 422.7 750.85 411.55 750.85 400.4 750.85 393.1 757.9 M 392.95 775.8 Q 392.95 767.75 398.25 762.55 403.6 757.4 411.85 757.4 419.65 757.4 425.05 762.65 430.45 767.8 430.45 775.45 430.45 783.35 425.05 788.6 419.65 793.85 411.65 793.85 403.6 793.85 398.3 788.7 392.95 783.55 392.95 775.8 M 344.2 757.55 Q 342.45 754.7 339.1 753.15 335.8 751.55 329.8 751.55 L 317.2 751.55 317.2 799.7 333.5 799.7 Q 339 799.7 342.7 797.85 346.35 796.05 348.25 793.1 350.15 790.25 350.15 786.55 350.15 781.9 347.05 778.55 343.9 775.2 338.6 774.2 345.95 771.15 345.95 764.05 345.95 760.35 344.2 757.55 M 324.1 757.65 L 330 757.65 Q 338.85 757.65 338.85 764.6 338.85 767.95 336.55 770 334.15 772.15 328.65 772.15 L 324.1 772.15 324.1 757.65 M 341.7 781.9 Q 343 783.7 343 785.9 343 788.05 341.8 789.9 340.55 791.8 338.55 792.7 336.55 793.55 330.85 793.55 L 324.1 793.55 324.1 778.25 330.5 778.25 Q 335.65 778.25 338.05 779.15 340.4 780.05 341.7 781.9 M 363.8 751.55 L 356.95 751.55 356.95 799.7 385.5 799.7 385.5 793.4 363.8 793.4 363.8 751.55 M 307.6 778.55 L 307.6 772.35 287.9 772.35 287.9 757.65 308.3 757.65 308.3 751.55 281 751.55 281 799.6 308.95 799.6 308.95 793.45 287.9 793.45 287.9 778.55 307.6 778.55 M 227.8 765.15 Q 227.8 758.9 223.75 755.15 219.65 751.5 212.75 751.5 L 197.5 751.5 197.5 799.7 204.4 799.7 204.4 778.8 209.5 778.8 Q 216.3 778.8 220 777.35 223.65 775.85 225.7 772.65 227.8 769.4 227.8 765.15 M 211.55 757.6 Q 220.7 757.6 220.7 765.05 220.7 768.7 218.4 770.7 216.15 772.7 211.95 772.7 L 204.4 772.7 204.4 757.6 211.55 757.6 M 237.9 751.55 L 230.95 751.55 230.95 778.8 Q 230.95 784.6 231.75 787.35 232.5 790.05 233.7 791.95 234.9 793.85 236.6 795.35 242.3 800.2 251.7 800.2 260.95 800.2 266.65 795.3 268.35 793.85 269.6 791.95 270.75 790.05 271.6 787.25 272.35 784.4 272.35 778.85 L 272.35 751.55 265.45 751.55 265.45 778.85 Q 265.45 784.55 264.55 786.9 263.65 789.25 261.6 790.95 257.8 794.15 251.65 794.15 247.3 794.15 244.15 792.55 241 790.95 239.45 788.3 237.9 785.65 237.9 778.85 L 237.9 751.55 M 150.55 751.55 L 143.65 751.55 143.65 799.7 172.25 799.7 172.25 793.4 150.55 793.4 150.55 751.55 M 114.35 772.35 L 114.35 757.65 134.7 757.65 134.7 751.55 107.45 751.55 107.45 799.6 135.4 799.6 135.4 793.45 114.35 793.45 114.35 778.55 134.05 778.55 134.05 772.35 114.35 772.35 M 73 751.55 L 56.75 751.55 56.75 799.6 72 799.6 Q 78.4 799.6 80.65 799.25 82.9 798.85 85.65 797.85 90.3 796.1 93.8 792.6 97.3 789.3 99.1 784.85 101 780.45 101 775.6 101 768.85 97.65 763.15 94.25 757.4 88.55 754.5 82.8 751.55 73 751.55 M 72.25 757.65 Q 77.2 757.65 79.45 758.05 81.7 758.4 84.25 759.6 86.7 760.75 88.65 762.6 93.85 767.5 93.85 775.25 93.85 783.1 88.75 788.3 87.2 789.9 85.3 791 83.35 792.05 80.5 792.8 77.65 793.45 72.5 793.45 L 63.65 793.45 63.65 757.65 72.25 757.65 M 40.35 756.95 Q 39.35 759.15 39.35 761.45 39.35 764.3 40.8 766.15 42.15 767.95 44.4 767.95 46.2 767.95 47.4 766.8 48.6 765.6 48.6 763.9 48.6 762.25 47.6 761.15 46.65 760.05 45.05 759.95 L 44.9 758.25 Q 44.9 756.45 45.65 754.8 46.45 753.15 47.65 752.35 L 47.65 750.9 Q 44.65 752.05 43 753.4 41.35 754.75 40.35 756.95 M 31.75 752.4 L 31.75 750.9 Q 28 752.05 25.8 754.8 23.65 757.55 23.65 761.2 23.65 764.15 25.1 766.05 26.55 767.95 28.75 767.95 30.4 767.95 31.55 766.8 32.7 765.6 32.7 763.9 32.7 762.35 31.7 761.15 30.7 759.95 29.45 759.95 L 29.15 759.95 29 758.2 Q 29 754.6 31.75 752.4 M 998.5 762.1 L 998.5 754.25 Q 993.45 750.9 987.4 750.9 981.1 750.9 977.15 754.45 973.2 758 973.2 763.7 973.2 767.5 975.3 770.45 977.4 773.3 982.35 776.3 L 987.55 779.5 Q 993.9 783.45 993.9 787.85 993.9 790.55 991.75 792.4 989.6 794.15 986.35 794.15 979 794.15 973.4 787.1 L 973.4 795.85 Q 979.25 800.2 986.45 800.2 992.6 800.2 996.5 796.6 1000.4 792.95 1000.4 787.2 1000.4 779.05 991.55 773.8 L 986.3 770.7 Q 982.75 768.65 981.1 766.75 979.55 764.85 979.55 762.7 979.55 760.25 981.7 758.7 983.9 757.1 987.3 757.1 993.25 757.1 998.5 762.1 M 922.7 757.9 Q 915.35 765 915.35 775.8 915.35 786.25 922.6 793.3 929.9 800.2 940.8 800.2 952.2 800.2 959.7 793.3 967.15 786.25 967.15 775.6 967.15 765 959.75 757.9 952.3 750.85 941.15 750.85 930 750.85 922.7 757.9 M 927.9 788.7 Q 922.55 783.55 922.55 775.8 922.55 767.75 927.85 762.55 933.2 757.4 941.45 757.4 949.25 757.4 954.65 762.65 960.05 767.8 960.05 775.45 960.05 783.35 954.65 788.6 949.25 793.85 941.25 793.85 933.2 793.85 927.9 788.7 M 882.65 751.55 L 866.4 751.55 866.4 799.6 881.65 799.6 Q 888.05 799.6 890.35 799.25 892.6 798.85 895.35 797.85 900 796.1 903.5 792.6 906.95 789.3 908.8 784.85 910.7 780.45 910.7 775.6 910.7 768.85 907.3 763.15 903.95 757.4 898.25 754.5 892.45 751.55 882.65 751.55 M 881.95 757.65 Q 886.9 757.65 889.15 758.05 891.4 758.4 893.9 759.6 896.4 760.75 898.3 762.6 903.55 767.5 903.55 775.25 903.55 783.1 898.45 788.3 896.9 789.9 895 791 893.05 792.05 890.15 792.8 887.35 793.45 882.15 793.45 L 873.35 793.45 873.35 757.65 881.95 757.65 M 827.1 785.4 L 847.6 785.4 854.05 799.7 861.1 799.7 839.5 751.25 834.65 751.25 814 799.7 821.1 799.7 827.1 785.4 M 829.85 779.3 L 837.05 761.85 844.8 779.3 829.85 779.3 M 777 757.6 L 793.5 757.6 793.5 799.7 800.45 799.7 800.45 757.6 817.25 757.6 817.25 751.5 777 751.5 777 757.6 M 754.25 766.75 Q 752.7 764.85 752.7 762.7 752.7 760.25 754.85 758.7 757.05 757.1 760.45 757.1 766.4 757.1 771.65 762.1 L 771.65 754.25 Q 766.6 750.9 760.55 750.9 754.25 750.9 750.3 754.45 746.35 758 746.35 763.7 746.35 767.5 748.45 770.45 750.55 773.3 755.5 776.3 L 760.7 779.5 Q 767.05 783.45 767.05 787.85 767.05 790.55 764.9 792.4 762.75 794.15 759.5 794.15 752.15 794.15 746.6 787.1 L 746.6 795.85 Q 752.45 800.2 759.6 800.2 765.75 800.2 769.65 796.6 773.55 792.95 773.55 787.2 773.55 779.05 764.7 773.8 L 759.45 770.7 Q 755.9 768.65 754.25 766.75 M 719.5 772.35 L 719.5 757.65 739.85 757.65 739.85 751.55 712.6 751.55 712.6 799.6 740.55 799.6 740.55 793.45 719.5 793.45 719.5 778.55 739.2 778.55 739.2 772.35 719.5 772.35 M 683.55 754.25 Q 678.5 750.9 672.45 750.9 666.15 750.9 662.2 754.45 658.25 758 658.25 763.7 658.25 767.5 660.35 770.45 662.45 773.3 667.4 776.3 L 672.6 779.5 Q 678.95 783.45 678.95 787.85 678.95 790.55 676.8 792.4 674.65 794.15 671.4 794.15 664.05 794.15 658.45 787.1 L 658.45 795.85 Q 664.3 800.2 671.5 800.2 677.65 800.2 681.55 796.6 685.45 792.95 685.45 787.2 685.45 779.05 676.6 773.8 L 671.35 770.7 Q 667.8 768.65 666.15 766.75 664.6 764.85 664.6 762.7 664.6 760.25 666.75 758.7 668.95 757.1 672.35 757.1 678.3 757.1 683.55 762.1 L 683.55 754.25 Z"/>
<path fill="#002F6C" stroke="none" d="M 257.45 508.9 L 207.35 508.9 207.35 621 Q 207.35 646.3 191.8 659.5 178.3 670.9 156.25 670.9 134.25 670.9 120.6 658.6 106.55 645.85 106.55 624.5 L 106.55 508.9 56.35 508.9 56.35 623.35 Q 56.35 668.25 84.7 691.4 110.85 712.75 156.85 712.75 202.15 712.75 227.85 692.9 257.45 670 257.45 623.15 L 257.45 508.9 M 309 522.15 Q 288.1 537.85 288.1 564.1 288.1 588.55 304.1 604.45 315.7 616.1 339.3 625.4 352 630.55 374.45 638.95 390.45 646.75 390.45 657.2 390.45 666.15 382.9 671 375.35 675.8 361 675.8 344.35 675.8 329.15 670.1 314.05 664.3 292.2 649.95 L 292.2 693.15 Q 311.85 703.4 322.85 706.85 341.2 712.75 364.8 712.75 399.1 712.75 420.3 696.7 442.1 680.05 442.1 651.7 442.1 627.85 426.1 611.95 414.4 600.35 390.95 590.7 365.4 581.5 355.75 577 339.75 569.35 339.75 559.55 339.75 552.15 347.7 547.7 355.75 543.2 369.35 543.2 L 382.3 544.15 394.7 546.75 422.45 556.65 432.9 561.15 432.9 521.95 Q 413.8 513.8 397.7 510.05 381.6 506.35 364.8 506.35 329.95 506.35 309 522.15 Z"/>
</g>
<g id="l7">
<path fill="#BA0C2F" stroke="none" d="M 590.65 508.9 L 532.7 508.9 451.55 710.1 504.55 710.1 519.6 670.3 609.6 670.3 626.05 710.1 680.05 710.1 590.65 508.9 M 594.75 635.1 L 532.9 635.1 562.45 557.05 594.75 635.1 M 752.25 508.9 L 702.1 508.9 702.1 710.1 752.25 710.1 752.25 508.9 M 963.6 535.4 L 951.55 526.25 937.5 518.95 921.65 513.55 897.4 509.5 795.25 508.9 795.25 710.1 878.45 710.1 Q 936.35 710.1 967 681.7 995.25 655.3 995.25 609.85 L 993.5 589.6 991.25 580.15 986.35 566.35 979.45 553.7 973.75 545.95 963.6 535.4 M 845.6 545.85 L 877.55 545.85 Q 911.2 545.85 928.45 564.7 943.6 581.4 943.6 609.45 943.6 635.6 929.85 652.4 912.75 673.25 878.15 673.25 L 845.6 673.25 845.6 545.85 Z"/>
</g>
<g id="l6">
<path fill="#002F6C" stroke="none" d="M 737.95 250.1 Q 737.95 163.25 676.5 101.85 615.1 40.45 528.25 40.45 441.4 40.45 379.95 101.85 318.55 163.25 318.55 250.1 318.55 336.95 379.95 398.35 441.4 459.75 528.25 459.75 615.1 459.75 676.5 398.35 737.95 336.95 737.95 250.1 Z"/>
</g>
<g id="l5">
<path fill="#FFFFFF" stroke="none" d="M 736.25 250.2 Q 736.25 164 675.35 103.1 614.4 42.15 528.25 42.15 442.05 42.15 381.2 103.1 320.25 164 320.25 250.2 320.25 336.35 381.2 397.3 442.05 458.2 528.25 458.2 614.4 458.2 675.35 397.3 736.25 336.35 736.25 250.2 Z"/>
</g>
<g id="l4">
<path fill="#002F6C" stroke="none" d="M 646.75 131.75 Q 597.65 82.65 528.2 82.65 458.75 82.65 409.7 131.75 360.6 180.8 360.6 250.2 360.6 319.6 409.7 368.65 458.75 417.7 528.2 417.7 597.65 417.7 646.75 368.65 695.8 319.6 695.8 250.2 695.8 180.8 646.75 131.75 M 528.25 84.4 Q 596.9 84.4 645.5 132.95 694.05 181.5 694.05 250.2 694.05 318.85 645.5 367.4 596.9 415.95 528.25 415.95 459.55 415.95 411 367.4 362.4 318.85 362.4 250.2 362.4 181.5 411 132.95 459.55 84.4 528.25 84.4 Z"/>
</g>
<g id="l3">
<path fill="#212721" stroke="none" d="M 511.3 221.4 L 511.25 221.3 508.5 224.65 508 224.9 Q 507.7 225.2 507.4 225.2 506.8 225.4 506.8 224.7 L 507.2 223.45 Q 507.3 223.25 506.75 223.8 L 504 226.4 503.6 226.55 503.4 226.55 503.25 226.8 Q 503.25 226.9 503.5 227.05 503.6 227.15 504.25 227.15 L 506 226.95 507.9 226.3 508.1 226.2 509.35 225.4 509.95 224.65 Q 510.35 224.15 510.35 223.95 L 510.85 222.8 Q 511.3 222.05 511.3 221.4 M 604.2 262.05 L 604.1 262.15 601.45 264 Q 601.3 264.1 601.3 264.25 601.3 264.4 601.35 264.4 L 601.55 264.4 601.65 264.5 603.45 264.1 Q 603.8 264 604 263.8 L 604.3 263.75 605.7 262.65 610.1 258.5 610.35 258.15 610.7 257.85 610.75 257.65 611.55 256.65 611.75 256.5 611.85 256.25 611.95 256.15 Q 612.05 256 611.95 256 611.95 255.85 611.45 256.25 L 609.4 257.85 609 258.35 607.55 259.8 604.2 262.05 M 457.65 227.55 L 456.15 228.95 455.95 229.05 455.55 229.45 455.15 229.7 454.9 230.05 Q 454.6 230.3 455 230.1 L 460.95 227.65 474.7 227.8 474.4 228.55 474.4 228.65 Q 474.4 228.7 474.45 228.65 474.95 228.65 475.35 228.25 L 475.95 227.95 476.95 227.65 478.6 227.65 Q 478.7 227.8 478.4 228.45 478.1 228.95 478.4 228.7 L 480.05 228.05 480.2 227.95 480.25 227.95 480.35 227.85 480.45 227.85 480.55 227.8 Q 481.05 227.55 481.85 227.65 L 482.45 227.65 Q 482.7 227.65 482.45 228.15 L 482.2 228.65 482.6 228.55 484.35 227.8 486.35 227.65 Q 486.45 227.8 486.25 227.95 L 485.65 229.3 488.5 227.65 489.35 227.3 489.85 227.15 Q 490.65 226.95 490.75 227.05 L 490.75 227.15 490.85 227.35 490.85 227.55 489.7 228.65 488.85 229.2 489.1 229.2 492 228.25 492.35 227.95 492.5 227.95 Q 492.6 227.85 492.7 227.95 492.8 228.05 492.8 227.95 L 493 228.25 493.1 228.55 493.1 228.7 493 228.85 492.4 229.55 491.95 229.9 491.7 230.3 491.5 230.5 Q 490.95 230.8 491.95 230.4 L 494.2 229.15 Q 495.45 228.55 495.65 228.95 L 495.75 228.95 495.95 229.3 494.65 230.4 Q 493.35 231.7 493.2 231.7 L 492.9 231.95 493 231.95 495.25 230.95 496.1 230.7 497.8 229.9 Q 498.1 229.7 498.4 229.7 L 498.75 229.8 Q 499.1 230.1 498.6 230.7 L 498.1 231.2 497.5 231.55 497 232.05 Q 496.75 232.2 496.25 232.75 495.75 233.2 495.75 233.35 L 498.6 231.95 498.7 231.85 501.9 230.3 502.5 230.1 502.9 229.8 503.5 229.55 503.6 229.45 504.1 229.55 Q 504.15 229.7 504 229.9 L 502.8 231.4 502.5 231.7 502.6 231.7 Q 503 231.7 503.5 231.3 L 503.75 231.2 503.85 231.1 504.35 230.8 504.85 230.6 507.9 229.05 508.75 228.7 Q 509.05 228.65 509.25 228.95 509.5 229.15 509.25 229.45 L 509.05 229.7 Q 508.65 229.9 509 229.9 L 511.25 229.05 511.4 228.95 513 228.45 513.1 228.45 513.1 228.35 513.55 228.35 513.75 228.25 516.15 227.95 516.65 227.95 517.4 228.05 518.5 228.05 523.3 228.65 527.05 229.6 529.35 230.7 530.45 231.45 Q 530.7 231.55 531.3 232.2 L 531.8 232.55 532.1 232.85 534.45 234.45 535.05 234.7 535.3 235 537.45 236.1 538.3 236.35 538.95 236.8 541.1 237.65 541.2 237.75 543.25 238.85 543.55 238.95 544.15 239.3 544.85 239.6 550.35 242.95 554.5 246.7 555.1 247.45 Q 555.4 247.85 555.4 248.1 L 555.6 248.5 555.6 248.6 555.9 249.5 556 249.6 556.1 250 556.6 251 556.7 251.25 556.85 251.85 557.1 252.15 557.2 252.35 557.35 252.95 557.45 253.1 557.45 253.35 557.65 253.85 558.85 257.65 559.25 258.4 560.2 261.65 Q 560.35 262.15 560.2 262.9 L 560.2 263.75 560.1 264 558.75 265.6 558.35 265.9 Q 557.6 266.5 557.2 266.65 556.2 267.25 555.7 267.25 L 555.5 267.35 554.35 267.75 553.65 267.65 Q 553.55 267.35 553.75 267.25 L 554.5 266.95 554.6 266.85 554.95 266.65 Q 555 266.75 555 266.65 L 556.4 266 556.5 266 556.6 265.9 557 265.6 558.55 264.1 559.1 263.35 559.35 262.85 559.1 262.85 558.95 263 555.6 264.7 554.5 265.1 Q 554.05 265.4 553.05 265.6 L 552.35 265.5 552.25 265 552.6 264.7 552.85 264.6 553.75 264 Q 554.5 263.9 555 263.35 L 555.2 263.25 556.3 262.45 556.3 262.35 557 261.65 Q 557 261.55 556.3 261.75 L 555.6 261.95 Q 555.2 261.95 555.2 262.05 L 554.85 262.15 552.75 263 552.2 263 551.85 263.15 551.8 262.9 Q 551.5 262.85 551.5 262.45 L 551.7 262.15 553.75 261.1 554.05 260.85 554.5 260.65 555.35 259.9 555.4 259.7 555.6 259.4 551.6 260.65 Q 551 260.65 550.8 260.5 550.6 260.25 550.7 260 550.7 259.7 551.2 259.4 L 552.7 258.75 553.85 257.95 555.5 256.35 Q 555.5 256 554.7 256.75 L 552.35 257.85 550.6 258.35 549.35 258.4 Q 549.25 258.35 549.35 258 L 549.6 257.75 551.8 256.75 551.85 256.65 553.25 255.6 Q 553.75 255.2 553.95 254.8 L 554.05 254.5 554.35 254 554.6 253.1 554.7 252.45 554.45 253 Q 553.95 253.75 553.05 254.1 552.75 254.35 552.45 254.2 L 552.25 254.2 552.2 254 Q 552.1 253.85 552.2 253.6 L 552.25 253.5 552.25 253.45 552.45 253 552.7 252.85 552.95 252.25 553.05 252.25 553.15 251.95 553.65 251.25 Q 554.35 250.1 554.25 249.6 L 554.25 249.35 554.05 249 553.85 249.4 Q 553.45 250.1 553.35 250.2 L 553.15 250.6 552.35 251.6 551.1 252.75 547.45 255.2 547.75 255.5 Q 548.05 255.6 548.45 255.4 L 550.35 255 550.45 255.1 549.35 256.15 547.45 256.6 545.05 254.35 542.2 252.75 541.5 252.25 540.8 251.95 540.05 251.25 542.1 249.6 Q 542.6 249.5 543.25 248.75 543.65 248.1 543.95 248.1 L 544.15 247.95 539.7 249.6 Q 539.15 249.8 538.85 250.1 538.75 250.3 538.45 250 538.3 249.7 538.35 249.6 L 538.3 249.6 538.3 249.5 Q 538.3 249.35 538.75 249 L 540.2 248.05 541.2 247.15 541.5 246.95 539.2 247.65 Q 538.65 247.95 538.35 247.95 L 536.8 248.45 536.5 248.25 536.9 247.85 536.95 247.65 537.45 247.25 Q 537.55 247.15 538.05 246.85 L 539.15 246 Q 539.55 245.8 539.35 245.8 L 538.3 246.1 Q 537.7 246.35 537.2 246.35 537.2 246.25 536.7 246.45 L 535.7 246.7 Q 535.3 246.7 535.3 246.45 535.3 246.1 535.55 245.85 L 537.8 244.1 537.95 243.95 Q 538.05 243.85 537.95 243.85 L 535.3 244.6 534.05 244.8 Q 533.65 244.9 533.55 244.8 533.35 244.7 533.45 244.45 L 535.15 242.85 Q 536.05 242.35 535.3 242.55 L 533.15 243.1 Q 532.2 243.45 531.9 243.35 531.5 243.35 531.5 242.95 L 531.4 242.65 Q 531.4 242.25 532.2 241.75 L 532.8 241.45 532.9 241.35 533.55 240.85 533.8 240.8 534.05 240.6 534.25 240.3 534.45 240.2 535.05 239.6 535.15 239.45 534.7 239.6 Q 533.55 240.3 533.05 240.6 L 532.3 240.8 531.3 241.2 Q 530.55 241.6 530.05 241.6 L 529.75 241.6 529.65 241.45 Q 529.45 241.3 529.55 241.1 L 529.65 240.85 530.55 240.1 530.9 239.7 531.7 239.2 Q 532.95 238.25 532.8 238.25 L 527.3 240.7 527.5 241.1 527.7 241.3 527.9 241.35 528.8 242.35 529.35 243.6 529.45 243.95 529.65 244.35 529.65 244.5 529.75 244.6 529.75 244.8 530.15 245.35 533.85 248.85 534.25 249 535.8 250.2 536.2 250.6 537.1 251.25 537.3 251.45 540.55 253.9 540.8 254.2 541 254.35 541.1 254.5 542.1 255 542.2 255.1 542.3 255.1 542.45 255.25 542.8 255.4 542.95 255.6 543.05 255.6 543.05 255.7 543.2 255.7 543.25 255.75 543.95 256.25 Q 543.95 256 544.95 256.95 L 545.95 257.75 547.6 259.7 547.75 260.1 547.95 260.25 548.35 261.1 Q 548.75 261.55 549.05 262.55 L 549.1 262.75 549.1 263 549.45 263.75 549.45 265.4 549.35 265.6 549.25 265.9 548.45 267.4 547.95 268.15 547.85 268.25 547.6 268.4 547.3 268.75 544.35 271 Q 544.95 270.9 544.95 270.75 L 545.3 270.65 Q 546.3 270.5 546.95 270 L 547.3 269.8 549.1 268.15 549.45 267.9 549.55 267.85 549.95 267.55 550.1 267.35 550.35 267.25 Q 550.45 267.15 550.5 267.25 L 550.6 267.4 Q 550.7 267.85 550.5 268.25 L 549.85 269.5 548.75 270.65 546.6 272.35 Q 545.95 272.8 545.8 272.75 L 545.8 272.8 545.7 272.9 545.5 273 Q 545.5 273.3 546.4 273 L 546.8 272.9 Q 547.3 272.9 547.6 272.65 L 547.85 272.4 548.35 272.25 550.1 270.9 550.45 270.55 Q 551 270.15 551.2 269.9 L 551.5 269.6 Q 551.5 269.5 551.7 269.8 L 551.8 270.4 Q 551.8 271.15 551.5 271.35 L 551.2 271.75 550.1 272.8 548.95 273.65 548.25 273.9 546.85 274.9 Q 546.85 275 547.7 274.8 L 548.95 274.5 549.25 274.5 550.35 274 550.45 274 550.6 273.9 Q 550.8 273.7 551.5 273.3 552 273.15 551.8 273.8 551.5 274.3 550.5 275.15 550 275.65 548.95 276.15 L 547.85 276.65 548.05 276.75 548.65 276.75 Q 549.05 276.75 549.85 276.55 550.35 276.45 550.35 276.65 550.5 276.85 550.2 276.95 L 549.95 277.25 Q 549.95 277.4 549.6 277.4 L 548.65 278.15 547.7 278.5 547.1 278.4 546.7 278.2 545.1 276.75 544.15 275.05 543.75 274.6 543.55 274.1 541.5 271 541.1 270.75 541 270.65 540.9 270.3 539.7 269.1 539.55 269.1 539.45 268.9 538.45 267.75 538.2 267.55 537.4 266.75 534.25 264.4 533.3 263.5 533.05 263.4 529.8 261 529.45 260.6 529.35 260.6 528.45 259.9 528.4 259.9 527.8 259.3 527.55 259.2 526.3 258.25 525.9 258 525.8 257.95 Q 525.8 258 525.4 257.65 L 525.65 257.5 525.9 257.45 525.9 257.35 526.15 257.25 529.05 254.35 Q 529.45 253.9 529.35 253.9 L 525.7 256 Q 525.25 256.5 524.55 256.5 L 524.25 256.5 524.15 256.35 Q 523.95 256.35 523.95 256.1 L 524.25 255.6 526.6 253.6 528.4 251.65 Q 528.45 251.65 528.4 251.6 L 528.15 251.75 527.7 251.95 527.55 252.1 526.7 252.65 525.9 253 524.15 254.2 523.4 254.6 523.15 254.8 Q 522.8 255 521.8 256 L 521.4 256.35 521.9 256.6 Q 522.8 256.95 522.8 257.15 L 523 257.25 523.55 257.85 524.35 258.35 524.55 258.4 524.95 259.1 524.8 259.4 524.55 259.5 Q 524.55 259.4 524.25 259.4 524.05 259.5 523.95 259.4 L 523.4 259.4 522.9 259.5 Q 522.9 259.6 523.4 259.9 523.95 260.2 524.05 260.2 L 524.15 260.2 524.35 260.25 524.35 260.4 524.65 260.5 Q 525.15 260.6 525.4 260.85 L 525.9 261.15 526.5 261.35 527.8 262.15 Q 528.3 262.35 528.55 262.75 L 530.2 263.8 530.45 263.9 531.5 264.7 531.9 264.9 532.4 265.25 532.55 265.5 532.8 265.5 533.35 265.75 534.15 266.5 534.35 266.5 535.15 267.15 535.2 267.35 535.45 267.4 535.6 267.65 535.6 267.75 535.8 268 535.9 268.3 536.05 268.5 536.1 269.4 Q 536.1 269.8 536.2 269.8 536.4 270 536.4 269.8 L 536.7 269.65 536.9 269.5 537.2 269.4 537.45 269.65 Q 537.55 269.6 537.7 269.65 537.85 269.8 537.85 269.9 L 537.95 270 538.05 270.5 537.95 271 537.8 271.25 537.7 271.35 537.55 271.65 536.7 272.65 536.5 272.75 535.8 273.25 535.3 273.5 Q 535.05 273.8 535.05 273.65 L 534.95 273.25 535.15 272.9 535.3 272.75 535.45 272.55 536.05 271.25 536.1 270.9 Q 535.8 270.9 535.6 271.35 L 534.25 272.75 533.65 273.15 531.8 274.1 531.7 274.2 531.1 274.3 Q 530.55 274.5 530.3 274.3 L 530.3 273.9 532.8 271.95 532.7 271.85 Q 532.55 271.65 532.2 271.75 L 531.9 271.95 531.8 272.05 531.6 272.15 531.3 272.25 531.1 272.25 531.05 272.35 529.8 272.9 529.55 273.15 528.65 273.5 528.4 273.5 527 274 525.05 274.4 524.8 274.5 524.8 274.3 Q 524.75 274 524.8 274 L 525.15 273.9 525.4 273.7 527.5 272.8 528.85 271.95 529.15 271.65 Q 529.8 271.45 529.8 271.05 L 529.8 271 Q 529.75 270.9 529.45 271.05 L 528.95 271.25 528.55 271.35 Q 525.3 272.65 524.45 272.4 L 524.25 272.25 524.15 271.95 524.25 271.65 524.45 271.35 525.55 270.65 526.6 270.15 527.3 269.6 527.4 269.5 528.3 269 528.3 268.9 528.4 268.9 528.55 268.75 527.95 268.8 524.95 269.65 Q 523.9 270.15 523.4 270.15 522.8 270.15 522.8 270 L 522.7 269.9 Q 522.55 269.9 523 269.3 L 523.15 269.1 523.4 269.1 524.05 268.4 524.15 268.4 524.25 268.3 526.15 267.05 526.4 266.75 526.3 266.75 524.05 267.55 Q 523.4 267.9 522.9 267.9 L 521.8 268.3 521.3 268.25 521.15 268.25 521 268.15 Q 520.9 268 521 267.9 L 521.7 267.15 524.45 265.1 524.65 264.9 524.45 265 521.15 266.05 Q 519.85 266.55 519.25 266.55 L 518.95 266.35 518.9 266.35 Q 518.75 266 519.15 265.65 L 519.95 265.1 520.65 264.4 521.9 263.75 Q 522.4 263.25 522.1 263.35 L 520.25 263.9 519.85 264.1 517.6 264.8 517.2 264.7 517.1 264.3 520.15 261.75 520.55 261.5 Q 520.3 261.25 518.05 262.35 L 517.6 262.55 517.3 262.75 516.3 263 515.8 263 Q 515.55 263.25 515.35 262.85 L 515.25 262.45 515.25 262.35 516.15 261.5 516.25 261.5 516.3 261.25 517.3 260.25 518.5 259.4 518.9 259 518.75 259 517.2 259.8 Q 516.3 260.2 515.55 260.75 L 514.25 261.35 513.4 261.55 513.1 261.5 513.1 261.35 Q 513 261.35 513.1 261.1 L 513.5 260.6 515.25 259.3 515.35 259.2 515.4 259.2 517.8 257.65 516.15 257.5 514.75 256.95 Q 514.45 256.95 514.45 256.85 L 514.05 256.65 513.9 256.5 513.55 256.35 513.15 256 513 256 512.3 255.6 512.2 255.6 512 255.5 511.75 255.5 511.6 255.4 511.4 255.4 511 255.25 510.55 255.25 509.65 255.6 508.9 256.1 505.05 259.2 502.6 260.6 Q 501.9 261.1 501.75 261 L 501.5 260.85 Q 501.35 260.65 501.5 260.4 L 502.7 259.5 503.2 259 503.5 258.85 505.15 257.35 505.45 257.15 505.75 256.85 506.15 256.65 506.25 256.5 506.75 256.1 507 255.75 507.2 255.7 507.3 255.6 Q 507.3 255.25 508.6 254.5 L 509.55 253.6 507.1 254.9 505.9 255.75 505.45 256 505.45 256.1 505.05 256.15 504.95 256.25 504.75 256.35 504.65 256.5 504.55 256.5 503.65 257.15 503.25 257.35 503.2 257.45 502.7 257.65 499.6 260.2 498.2 260.85 Q 497.5 261.15 497.4 261.1 L 497.2 260.6 Q 497.2 260.25 497.4 260.1 497.8 259.4 498.75 258.85 L 499.15 258.4 501.35 256.65 Q 503.4 254.9 503.5 254.5 L 506.5 251.35 504.95 252.45 504.75 252.45 504.75 252.55 504.65 252.55 504.35 252.85 504.25 252.85 504.1 253 501.25 255.25 500.85 255.5 498.2 257.45 498.1 257.45 497.9 257.5 497.35 258.15 492 262.55 491.85 262.85 491.5 263 Q 491.25 263.4 490.85 263.4 490.75 263.4 490.35 263.35 489.85 263 490.35 262.45 L 490.55 262.25 Q 491.05 261.55 493.3 259.4 L 499 254 499.25 253.85 499.45 253.6 499.85 253.45 Q 500.5 252.85 500.5 252.65 L 500.35 252.45 500.15 252.65 499.35 253 497.2 254.4 497.1 254.5 496.75 254.7 496.6 254.9 496.5 254.9 496.35 255.1 495.95 255.25 495.85 255.5 495.25 255.85 495.25 256 494.45 256.5 491.7 258.85 490.95 259.3 490.35 259.9 489.75 260.25 489.7 260.4 488.2 261.35 Q 487.7 261.65 487.5 261.5 487.2 261.25 487.6 261.1 L 487.7 260.85 490.55 258.15 490.55 258 491.35 257.25 Q 492.1 256.25 493.85 254.8 L 495.75 253.25 496 252.95 496.35 252.75 498.7 250.4 Q 498.7 250.3 499.15 249.8 L 499.65 249.35 489.6 257.05 489 257.35 489 257.45 488.7 257.75 485.65 260.1 485.05 260.4 Q 484.7 260.65 484.35 260.6 484.1 260.5 484.7 259.9 L 485.2 259.5 486.45 258.25 486.55 258.25 487.7 257.05 487.9 256.75 488.5 256.15 Q 489.25 255.4 489.35 255.1 L 489.95 254.5 489.95 254.4 491.85 252.65 491.95 252.45 491.7 252.55 Q 491.5 253.1 490.85 253.1 L 490.45 253.35 490.35 253.45 489.85 253.6 489.1 254.35 488.5 254.6 487.2 255.7 486.95 255.85 486.6 256 481.35 260.4 481.15 260.5 481.05 260.5 480.75 260.65 480.35 260.75 Q 480.25 260.65 480.55 260.2 L 480.85 259.6 481.45 259.1 481.7 258.75 Q 482.45 257.85 483.1 257.25 L 483.7 256.75 485.35 255.1 485.45 254.9 486.1 254.2 486.1 254.1 486.55 253.75 486.6 253.5 486.85 253.35 486.25 253.6 485.75 254 485.35 254.2 478.8 259 478 259.8 475.85 261.55 Q 475.55 261.85 475.55 261.65 L 475.35 261.5 475.75 261 475.75 260.75 476.35 260.2 476.55 259.8 477.55 258.6 477.6 258.35 479.2 256.65 479.45 256.25 481.55 253.9 481.15 254.1 471.35 262.45 470.05 263.35 469.55 263.5 469.4 263.5 Q 469.3 263.6 469.2 263.5 468.9 263.4 469.3 262.9 L 469.55 262.35 473.2 258.5 473.4 258.4 473.5 258.25 Q 473.5 258 473.95 257.65 L 474.85 256.6 475.2 256.35 477.3 254.35 477.55 254.2 477.55 254.1 480.45 251.25 Q 481.05 250.85 481.05 250.6 481.05 250.5 480.55 250.75 L 473.8 255.85 473.6 256.1 473.1 256.35 465.05 263.75 Q 464.55 264 464.2 264 L 463.7 263.8 Q 463.6 263.5 463.8 263.4 464.05 263.35 464.2 262.9 L 475.65 251.65 Q 476.2 251.1 476.15 251.1 L 475.95 251.2 474.4 252.15 473.95 252.35 468.2 256.95 467.8 257.15 464.55 260.2 464.4 260.25 461.15 263.35 460.9 263.5 460.65 263.75 460.3 264 Q 460.05 264.25 459.8 264.25 L 459.5 264.25 459.4 264.1 459.3 263.8 459.4 263.4 459.65 263 Q 459.65 262.75 461.35 261.1 L 462.25 260.1 462.8 259.7 465.05 257.45 465.65 256.95 466.65 255.85 466.55 255.75 464.55 256.75 463.2 257.85 462.9 257.95 456.35 264.1 455.05 264.9 454.65 264.9 452.65 265.1 451.9 265.1 450.75 265.25 Q 450.55 265.4 449.6 265.4 448.6 265.4 448.4 265.25 L 446.25 265.5 445.75 265.5 Q 444.8 265.5 444.2 265.6 L 432.75 265.75 432.75 268.4 Q 432.8 268.4 432.85 268.4 L 433.5 268.5 434.4 268.5 435.7 268.3 463.05 266.65 Q 463.4 266.55 464.8 266.55 L 468.6 266.5 469.1 266.35 469.4 266.35 Q 469.45 266.5 471.35 266.5 L 476.05 266.35 476.15 266.55 476.15 266.75 476.7 268.25 477.7 269.9 477.8 270 Q 478 270.1 478.2 270.75 L 478.8 272.05 Q 479.35 273.15 480.2 273.4 L 480.65 273.65 Q 480.75 273.7 483.1 274.2 L 484.1 274.1 484.3 274.1 484.35 274 484.45 274 Q 484.7 273.8 484.7 273.9 L 484.85 273.9 485.25 274.1 485.85 274.2 486.6 274.2 486.6 274.4 Q 486.7 274.5 486.6 274.5 L 486.6 274.65 486.7 274.9 486.7 275 486.85 275.15 487.1 275.95 Q 487.35 276.45 487.8 276.95 489.35 278.5 489.75 278.65 L 489.95 278.8 491.5 279.7 Q 492.1 280 493.85 280.15 495.85 280.15 496.1 280.05 L 496.9 280.05 497.1 280.45 497.2 280.9 497.4 281.15 497.5 281.35 497.7 281.55 498.2 282.3 499.45 283.6 500.75 284.4 Q 501.25 284.7 501.4 284.7 L 505.25 285.3 Q 506.35 285.3 507.1 284.9 507.8 284.7 507.8 284.8 L 509.65 287.3 510.85 288.3 510.9 288.4 512.8 289.3 514.05 289.7 Q 516.3 289.9 516.9 289.8 L 518.3 289.4 518.5 289.4 520.8 288.5 Q 521.7 288.3 522 288.05 L 522.3 287.8 Q 522.5 287.7 522.55 287.8 L 523.4 288.3 523.75 288.4 525.4 289.45 525.65 289.7 525.8 289.7 525.9 289.8 526.6 290.05 Q 526.9 290.3 527.2 290.3 L 527.5 290.3 527.9 290.35 528.4 290.35 528.55 290.45 528.8 290.35 529.15 290.35 532.2 289.45 532.45 289.3 532.7 289.2 532.8 289.1 533.85 288.3 533.95 288.1 534.7 286.95 535.15 285.95 535.3 284.4 535.15 283.3 535.2 283.3 535.45 283.4 Q 535.55 283.6 535.9 283.7 L 536.5 284.1 537.55 284.4 538.55 284.5 Q 539.35 284.5 540.8 283.8 541.2 283.6 542.85 282.3 L 543.55 281.65 543.75 281.35 Q 544.15 280.95 544.15 280.55 L 544.35 280.4 544.35 280.3 544.55 280.05 544.6 279.9 544.85 280 545.95 280.15 546.3 280.4 546.7 280.4 Q 547.3 280.55 548.65 280.15 L 550.2 279.4 551.6 278.2 552.7 276.65 553.05 275.5 553.05 275.3 553.15 275.05 Q 553.15 274.9 553.65 274.65 L 555 274.3 555.2 274.2 557.45 272.75 559 271.05 559.35 270.9 559.45 270.55 559.85 270 559.9 269.8 560.1 269.6 563.15 268.4 563.85 267.9 564 267.85 565.1 267.05 Q 565.4 266.95 565.5 266.75 565.5 266.5 566.6 266.5 571.15 266.65 574.5 266.5 L 600.8 268 600.95 268.15 601.3 268.15 613.5 269.1 Q 614.35 269.1 616.75 269.3 L 624.5 269.85 624.5 267.7 617.85 267.15 617.7 267.15 617.35 267.05 598.7 265.75 Q 598.15 265.65 594.9 265.75 L 585.5 265.6 582.65 265.25 582.15 265.25 581.65 265.15 579.7 265 579.4 265 578.9 264.9 578.55 264.9 576 264.6 575.8 264.5 575.65 264.25 575.8 263.9 577.75 262.55 578.15 262.15 578.9 261.55 583.15 257.45 Q 583.05 257.45 582.45 257.5 L 580.65 258.35 Q 579.5 259.2 579.3 259.5 L 576.15 261.95 575.9 262.05 574.15 263.25 Q 572.75 263.9 572.65 263.5 572.5 263.35 572.65 263.15 L 572.75 263.15 572.85 262.9 580.2 256.1 580.4 255.75 581 255.25 581.05 255.2 581.65 254.5 581.75 254.35 581.9 254.2 582.15 253.85 582.55 253.45 582.65 253.45 582.95 253.1 583.25 252.65 582.45 253.25 581.75 253.6 581.3 254.2 580.4 254.9 579.9 255.4 570 262.15 569 262.45 Q 568.75 262.45 568.75 262.25 L 570.4 260.75 570.6 260.65 571.5 259.9 571.65 259.6 572.55 258.9 575.8 255.7 576.15 255.4 Q 576.9 254.8 576.9 254.6 L 577.15 254.4 577.25 254.2 577.65 254 577.65 253.9 Q 578.05 253.5 577.95 253.5 L 576.65 254.35 576.5 254.4 569 259.5 Q 568.15 260 568.15 259.8 L 567.95 259.5 567.95 259.4 568.35 259 568.65 258.85 569 258.4 570.4 257.45 571.6 256.25 571.9 256.1 573.4 254.5 573.75 254.35 574.4 253.25 574.3 253.35 573.65 253.6 572.35 254.4 572.25 254.5 569.8 256.15 569.35 256.6 Q 568.15 257.25 567.75 257.25 567.55 257.25 567.55 256.95 L 567.55 256.75 568.9 255.6 569 255.25 569.35 255.1 571.6 252.85 571.9 252.45 572 252.25 572.35 251.85 572.35 251.75 Q 572.35 251.45 572.05 251.75 L 571 252.55 570.7 252.85 570.4 252.95 570.1 253.1 570 253.25 569.9 253.25 568.05 254.5 567.85 254.7 567.65 254.7 567 254.8 Q 566.6 254.7 566.65 254.2 567 253.85 567.1 253.75 L 567.15 253.5 567.85 252.65 Q 568.25 252.45 568.25 252.15 L 569.5 250.85 Q 569.75 250.6 569.6 250.5 L 568.9 250.75 Q 568.25 251.25 568.05 251.25 L 567.1 251.95 Q 566.4 252.55 566 252.55 L 565.7 252.45 Q 565.5 252.45 565.3 251.95 L 565.4 251.65 565.5 251.6 565.6 251.25 565.8 251.1 566.25 250.4 567.5 249 564.35 250.2 563.5 250.85 563.5 251.1 563.65 251.25 563.75 251.6 563.75 251.65 564.5 253.5 564.6 253.6 564.75 254.35 565.9 257.25 565.9 257.35 566 257.45 566.2 258.15 566.4 260.25 Q 566.5 260.4 566.4 260.85 566.4 261.35 566.25 261.55 L 565.8 263.15 565.5 263.75 563.85 265 562.85 265.25 562.65 265.1 Q 562.45 265.1 562.65 264.9 L 562.65 264.8 562.75 264.7 562.75 264.5 564.6 262.45 564.75 262.25 564.9 261.65 Q 564.9 261.55 564.75 261.75 L 563.95 262.15 563.85 262.25 563.65 262.35 Q 563.35 262.55 563.15 262.45 562.95 262.35 563.05 261.95 L 563.25 261.5 563.95 260.4 564 260 564.35 259.4 564.25 259.4 563.85 259.8 563.05 260.25 562.65 260.4 Q 562.6 260.4 562.35 260.2 L 562.15 260.1 562.6 259.2 563.45 258.35 563.65 258.25 563.45 258.25 563.15 258.35 562.65 258.4 561.75 258.35 561.7 258.25 559.85 253.9 559.75 253.5 559.5 253.1 559.35 252.45 Q 558.95 251.6 559 251.35 L 559.6 250.2 560.2 249.5 558.85 250 558.75 249.8 558.75 248.5 558.85 248.35 559.25 248.05 561 246.25 561 246.1 Q 561.2 246.1 561.4 245.5 L 561.7 245.1 561.85 244.5 561.85 244.45 560 246.25 558.35 247.25 558.15 247.05 557.95 246.7 557.65 245.8 557.75 245.7 557.75 245.6 558.75 244.8 558.95 244.5 562.35 241.6 562.45 241.35 562.6 241.35 Q 562.75 241.3 562.95 241.45 563.15 241.7 563.15 242.35 L 563.25 242.75 563.25 243.35 562.95 244.5 Q 562.6 245.35 562.65 246 L 562.6 246.25 562.6 247.35 Q 562.45 247.85 562.6 247.95 L 562.6 248.25 Q 562.6 248.5 562.75 248.35 L 562.85 247.45 563.05 247.05 563.25 246.25 564.85 242.85 565 239.7 564.35 237.45 564.25 236.85 564.15 236.8 563.15 234.7 562.35 233.7 561.85 233.35 559 230.5 561.75 235 562.1 235.7 562.15 236.2 562.15 236.45 561.5 238.25 Q 561.4 238.35 561.5 238.35 L 561.6 238.35 562.75 237.85 Q 562.95 237.85 562.95 238.25 L 562.85 238.55 562.75 238.7 562.65 239.05 561.7 240.7 561.5 241.2 558.95 243.6 558.35 244 Q 557.35 244.8 557.25 244.8 557.1 244.9 557 244.7 L 556.6 244.35 556.4 244 556.6 243.85 Q 557.25 243.45 557.6 242.75 L 557.95 242.2 558.85 241.1 Q 559 240.85 558.95 240.85 L 559.1 240.8 559.35 240.6 559.25 240.5 559.25 240.6 559.1 240.7 558.75 240.85 558.45 241.1 558.25 241.2 558.1 241.35 557.75 241.6 557.45 241.7 555.35 242.95 554.45 242.05 554.6 241.85 554.95 241.7 555.5 241.1 555.8 240.95 Q 557.2 239.95 557.35 239.45 L 557.6 239.3 558.55 238.25 558.65 238.05 559.1 237.55 559.85 236.3 Q 559.85 235.95 559.25 236.85 L 557.2 238.7 556.5 239.2 Q 555.9 239.8 554.35 240.6 L 553.05 241.2 552.45 240.6 555.6 237.65 556 237.05 556.6 236.45 556.7 236.3 Q 556.5 236.1 556.1 236.7 L 553.75 238.55 551.7 239.8 551.5 239.8 Q 551.3 239.95 550.9 239.7 L 550.45 239.45 550.2 239.2 Q 550.2 238.7 551.6 237.85 L 552.1 237.25 553.35 236.1 551.85 236.7 548.35 238.55 547.75 238.55 Q 547.3 238.35 547.3 238.05 547.3 237.55 548.2 236.95 L 548.25 236.85 548.45 236.6 550.35 234.55 547.3 236.1 Q 545.5 237.25 544.95 236.95 L 544.7 236.85 544.6 236.3 545.3 235.9 547.6 233.7 547.35 233.7 542.7 235.6 Q 542.35 235.6 542.35 235.3 542.3 235.2 542.35 235 L 542.45 234.8 542.6 234.7 543.05 233.95 543.35 233.65 543.05 233.65 540.55 234.2 540.1 234.45 539.7 234.3 539.55 234.2 539.55 233.7 539.65 233.55 Q 539.65 233.35 540.2 233.05 L 541 232.3 Q 541.2 232.05 541.1 232.05 L 537.8 233.2 536.2 232.45 536.1 232.35 535.7 232.2 534.45 231.3 534.25 231.2 534.15 231.1 532 229.3 531.9 229.2 Q 531.7 229.05 531.8 228.85 531.8 228.55 532.2 228.35 L 532.45 228.05 532.8 227.85 Q 532.9 227.85 533.15 227.45 533.45 227.05 533.45 226.95 L 530.7 227.95 Q 530.15 228.35 529.8 228.15 529.65 228.15 529.65 227.95 529.45 227.45 529.8 227.3 L 530.15 226.95 530.3 226.9 530.7 226.4 530.8 226.3 532.2 225.3 Q 532.4 225.1 532.2 225.1 L 528.95 226.7 527.9 226.95 Q 527.7 227.05 527.55 226.95 527.05 226.95 527.4 226.7 L 529.8 223.95 526.8 225.7 526.15 226.2 525.15 226.7 Q 524.75 226.9 524.35 226.7 L 524.15 226.45 Q 524.15 226.2 524.45 225.8 L 525.8 223.95 521.5 226.2 Q 520.9 226.55 520.65 226.3 L 520.4 226.1 520.65 225.6 520.65 225.5 521 225.1 521.15 224.8 Q 522 223.55 522.1 223.55 522.4 223.15 522.3 223.15 L 521.15 223.75 518.3 225.6 518.05 225.7 517.1 225.9 516.9 225.9 516.7 225.8 Q 516.5 225.6 516.7 225.3 L 516.7 225.2 516.8 225.1 518.15 223.25 516.7 224.05 Q 514.65 225.05 514.35 224.8 L 514.15 224.3 514.75 223.65 516.25 222.45 516.4 222.15 516.65 222.05 517.6 221.3 517.65 221.2 517.5 221.2 516.9 221.5 516 221.7 515.55 221.9 Q 515.05 221.95 514.95 221.55 L 514.25 219.3 514.15 220.2 Q 514.05 221.1 513.5 222.15 L 512.2 224.15 511.15 225.4 509.55 226.3 508.75 226.9 508 227.15 507.6 227.35 505.85 227.85 503 228.15 Q 502.3 228.25 501.35 228.25 L 500.35 228.35 499.95 228.25 498.85 228.25 498.7 228.15 498.6 228.15 498.25 228.05 498.1 228.05 496.5 227.65 495.25 227.15 Q 494.65 227.05 494.6 226.8 L 493.2 226 492.9 225.7 492.6 225.3 492.4 225.1 491.45 222.45 Q 491.35 221.9 491.5 221.8 L 492.1 221.55 493.6 221.4 493.85 221.3 494.25 221.55 Q 495.1 221.95 495.85 222.45 496.1 222.8 497.35 222.8 L 498.85 222.55 499.65 222.3 500.95 221.55 501.15 221.4 501.35 221.3 503 220.05 503.25 218.8 Q 503.5 217.65 503.75 217.4 L 503.85 217.15 505.45 216 506.15 215.65 506.6 215.5 507.1 215.5 508.25 215.3 508.75 215.4 509.15 215.4 509.25 215.5 Q 509.35 215.4 509.85 215.65 L 510.9 216 Q 511 215.9 511.25 216 511.25 216.1 511.5 216.1 L 511.8 216.2 Q 512.1 216.5 512.9 216.5 L 517 217.65 Q 519.45 218.25 519.75 218.05 L 519.85 218.05 520.05 218.15 Q 520.3 218.15 520.3 218.25 L 529.8 218.8 Q 530.55 218.95 531.6 218.95 L 536.05 219.7 Q 536.7 219.8 537.1 220.2 L 537.45 220.3 539.45 221.2 540.05 221.4 540.6 221.7 543.55 222.55 544.45 222.95 544.6 223.15 Q 544.6 223.55 544.05 224.15 L 543.75 224.55 543.65 224.65 543.75 224.65 545.7 223.8 546.7 223.65 546.85 223.55 547.3 223.55 547.75 223.65 547.85 223.95 547.7 224.7 547.6 224.9 547.3 225.3 547.1 225.5 Q 547.1 225.6 547.35 225.5 547.75 225.4 547.85 225.3 L 547.95 225.3 548.25 225.2 549.05 224.8 Q 549.6 224.55 550.6 224.55 L 550.9 224.65 Q 551.1 224.65 551.1 224.9 L 551.2 225.2 550.1 226.3 549.95 226.4 550.2 226.4 Q 550.5 226.4 550.5 226.3 L 551.85 225.8 553.05 225.6 553.35 225.7 Q 553.75 226.1 553.45 226.1 L 553.45 226.4 552.75 227.3 Q 552.75 227.45 553.15 227.3 L 553.35 227.15 553.45 227.15 554.7 226.8 555.5 226.7 555.8 226.9 Q 555.9 227.15 555.7 227.45 L 555.6 227.85 556.7 227.8 Q 557.85 227.65 559 227.85 L 559.25 227.95 Q 559.35 227.85 559.85 228.05 560.5 228.45 560.8 228.85 L 562.75 231.2 562.75 231.4 563.15 232.2 563.45 232.45 564.25 233.85 564.35 233.95 564.85 234.6 564.9 234.7 564.85 233.55 Q 564.35 231.55 563.85 230.7 L 562.85 229.05 562.65 228.85 562.6 228.65 562.45 228.55 Q 562.35 228.55 562.45 228.45 L 562.85 228.25 Q 563.35 228.25 563.85 228.95 L 564.25 229.45 565.5 228.45 Q 566 228.25 566.2 228.35 L 566.25 228.45 566.25 228.65 566.2 229.15 565.4 230.2 Q 565.1 230.7 565.2 230.8 565.3 230.9 565.8 230.5 L 567 229.8 567.25 229.55 567.95 229.2 568.45 228.85 568.75 228.7 Q 569.15 228.65 569.25 228.7 L 569.35 229.05 569.35 229.3 568.45 230.5 568.15 230.7 567.1 231.8 568.85 230.8 569.15 230.7 569.9 230.3 570 230.2 572 228.95 572.85 228.55 572.95 228.55 Q 573.15 228.7 573.15 228.55 573.4 228.55 573.55 228.7 L 573.65 228.95 573.25 229.7 567.85 235 568.9 234.45 573.55 231.2 573.85 230.9 576.9 228.85 577 228.7 578.35 228.25 579.3 228.35 576.75 231.1 575.3 232.3 575 232.45 573.4 233.85 580.8 229.6 581.3 229.2 581.75 229.05 Q 582.15 228.65 583.3 228.25 L 583.75 228.05 Q 584.4 227.85 584.5 227.95 585 227.95 584.65 228.65 583.8 229.55 583.55 229.6 L 582.65 230.5 Q 581.65 230.95 582.15 230.95 582.15 231.2 583.25 230.6 584.15 230.3 585.4 229.6 L 588.65 227.85 588.8 227.85 Q 588.8 227.8 589.8 227.8 590.7 227.8 590.5 227.95 590.5 228.25 589.5 229.2 L 588.65 230.1 589.2 230.05 593.55 227.65 Q 594.3 227.45 594.4 227.55 594.7 227.8 594.6 227.85 L 594.4 228.15 594.3 228.55 594.1 228.95 594.1 229.05 594.05 229.2 594.05 229.3 Q 594.2 229.55 594.5 229.3 L 595.4 228.65 597.45 227.65 Q 597.85 227.3 599.1 227.3 L 600.55 227.35 600.7 227.45 600.55 227.65 600.1 228.15 Q 599.3 228.95 599.2 229.15 L 599.05 229.3 598.9 229.55 598.7 229.7 Q 598.6 229.9 598.7 230.05 L 598.9 229.9 600.95 228.65 601.3 228.55 601.35 228.55 601.35 228.45 603.1 227.55 603.45 227.45 603.8 227.3 603.9 227.15 604.9 226.9 617.1 226.4 Q 617.85 226.45 618.2 226.4 L 619.2 226.4 Q 619.5 226.55 619.5 226.9 L 619.4 227.15 618.1 228.45 618 228.65 618.1 228.65 618.35 228.55 621.75 226.4 622.5 226.1 622.85 226.45 622.75 226.9 Q 622.75 226.95 621.95 227.85 L 621.65 228.25 622.35 228.25 624.5 227 624.5 224.4 609.6 224.9 Q 607.6 225.1 605.95 225.1 L 595.45 225.5 Q 594.05 225.5 593.9 225.6 L 585 225.8 Q 582.35 225.8 582.15 225.9 L 581.55 225.9 578.25 226.2 577.25 226.2 Q 576.55 226.3 573.9 226.2 571.25 226.2 571.15 226.1 L 569.25 225.8 560.6 225.3 556.4 224.65 554.1 223.95 553.85 223.95 552.85 223.65 552.7 223.55 552 223.45 551.85 223.35 551.6 223.35 Q 551.6 223.25 551.3 223.25 L 551 223.15 550.5 223.05 549.1 222.55 548.95 222.55 548.55 222.4 548.2 222.4 Q 548.2 222.3 547.85 222.3 L 547.45 222.05 546.5 221.9 542.2 220.5 542.1 220.5 541.7 220.3 541.6 220.2 541.4 220.2 540.9 220.05 540.6 219.8 540.55 219.8 540.45 219.7 540.3 219.7 540.2 219.65 540.05 219.65 538.95 219.15 538.65 219.05 537.95 218.65 537.45 218.45 537.2 218.25 537.1 218.15 536.9 218.05 536.5 217.95 536.5 217.9 533.3 217.05 533.05 217.05 532.9 217 532.45 216.9 532.1 216.9 531.9 216.8 531.7 216.8 529.95 216.55 521.7 216.2 520.25 216 519.75 216 518.15 215.8 517.65 215.8 514.55 215.15 514.25 215.15 514.05 215.05 512.2 214.65 511.9 214.65 509.95 214.25 506.25 214.15 Q 505.85 214.15 505.35 214.4 L 500.05 217.55 498.1 218.45 494.25 219.65 Q 493.85 219.65 493.85 219.7 L 492.8 219.8 492.4 219.9 491.95 219.9 491.45 220.05 491.1 220.05 490.65 220.15 490.25 220.6 490.15 220.9 Q 489.85 221.4 489.85 222.3 L 490.15 223.45 Q 490.35 224.05 490.05 224.15 L 489.35 224.45 489.1 224.65 489 224.65 488.5 224.8 488.35 224.8 487.2 225.1 483.8 225.6 472.05 225.8 471.55 225.7 471.05 225.7 470.55 225.6 468.6 225.5 468.05 225.4 467.55 225.4 463.05 225.05 462.55 224.9 461.65 224.9 460.15 224.7 452.05 224.55 451.55 224.45 451.15 224.45 448.6 224.2 Q 447.4 224.2 447.05 224.15 L 432.75 224.05 432.75 227.2 432.95 227.05 435 226 436.25 226 436.25 226.1 Q 436.25 226.4 436 226.8 L 433.5 229.2 433.75 229.3 435.6 228.35 435.7 228.35 435.7 228.25 435.85 228.25 436.1 228.05 436.35 227.95 436.35 227.85 436.6 227.8 436.65 227.65 436.85 227.55 437.15 227.45 437.5 227.15 439.7 226.2 440 226.2 440.2 226.1 440.4 226.2 Q 440.65 226.45 440.5 226.7 L 437.35 229.8 Q 437.35 229.9 437.75 229.7 L 440.75 228.05 441.1 227.95 443.5 226.8 443.5 226.7 443.75 226.7 444.1 226.45 445 226.4 445.15 226.45 445.1 226.55 Q 445.1 226.95 444.7 226.95 L 444.5 227.05 443.9 227.65 Q 443.75 227.65 442.45 228.95 L 441.85 229.6 441.95 229.6 442.25 229.45 442.45 229.3 443.25 229.05 444.1 228.55 445.4 228.05 445.6 228.05 447.9 226.9 448.5 226.9 Q 449.4 226.95 449.3 227.05 L 449.1 227.15 446.05 229.9 447.55 229.2 447.85 229.15 452.25 227.05 452.8 226.95 Q 453.3 226.95 453.4 226.95 453.5 227.05 453.3 227.3 L 450.5 230.05 450.5 230.1 451.65 229.6 452.15 229.3 454.2 228.35 454.2 228.25 454.6 228.15 456.45 227.35 Q 456.85 227.15 457.4 227.15 457.8 227.15 457.75 227.35 L 457.65 227.55 M 483.7 262.65 L 484.2 262.55 484.85 262.55 Q 485.85 262.75 486.25 262.9 487 263.15 487.5 263.6 L 487.8 263.8 487.9 264 488.3 264.3 488.7 264.9 488.85 265.25 488.85 265.6 489.1 266.05 Q 489.2 266.75 489 266.95 L 488.7 267.4 488.3 267.75 487.9 268.25 486.55 269 486.05 269.1 485.45 269.5 485.25 269.6 Q 485.25 270.1 485.75 270.3 485.85 270.3 485.75 270.4 L 485.65 270.5 485.35 270.5 485.35 270.55 484.95 270.65 484.1 270.65 482.3 270 482.1 269.9 481.35 269.4 Q 480.85 269.2 480.85 268.75 480.85 268.25 481.15 268.15 L 481.85 267.75 484.75 265.75 484.7 265.75 483.85 266 483.1 266.35 Q 482.1 266.85 482.05 266.75 L 479.95 267.35 479.3 267.25 479.2 267.15 479.1 267.15 478.95 267.05 478.9 266.85 479.45 266.25 482.2 264.3 481.95 264.3 Q 480.2 264.7 479.85 265 L 479.1 265.25 Q 478.8 265.1 479.2 264.7 L 479.3 264.4 479.45 264.3 479.7 264 Q 480.25 263.5 481.85 263 L 482.1 262.9 482.95 262.85 Q 483.1 262.65 483.7 262.65 M 479.45 270.5 L 479.3 270.1 Q 478.95 269.8 479.1 269.6 479.3 269.4 479.45 269.5 L 479.85 269.65 482.1 271.05 482.95 271.35 483.1 271.35 483.2 271.45 483.3 271.45 483.85 271.95 Q 484.1 272.35 483.95 272.4 483.95 272.65 483.7 272.75 483 273 482.1 272.75 L 481.15 272.25 480.75 271.95 Q 479.8 271.35 479.45 270.5 M 496.1 221.4 L 495.65 221.1 496.25 220.9 496.45 220.8 497.4 220.5 497.9 220.2 502.2 218.05 502.3 217.95 502.4 217.95 Q 502.5 218.35 502.4 218.45 L 502.4 218.65 Q 502.4 219.25 501.85 219.65 L 501.4 220.05 500.75 220.5 498.25 221.55 497.5 221.7 Q 496.45 221.7 496.1 221.4 M 508 258.75 L 508.4 258.35 509.5 257.5 Q 509.85 257.25 510.35 257.05 511.3 256.65 511.5 256.85 L 511.6 257.15 Q 511.6 257.45 510.25 258.4 L 504.85 262.25 Q 504.5 262.55 504.15 262.55 504 262.55 503.85 262.35 503.85 262.05 505.15 261 L 508 258.75 M 511.8 258.5 L 513 257.85 513.1 257.75 513.9 257.75 514.05 257.95 514.15 258.25 514.05 258.35 514.05 258.4 514 258.6 513.55 259.1 512.6 259.9 512.3 260.1 511.8 260.25 510.75 261 509.25 261.5 509 261.5 508.75 261.15 Q 509 260.75 509.25 260.65 L 511.6 258.75 511.8 258.5 M 508.9 265.65 L 509.05 265.6 510.55 265.65 510.9 265.9 511.25 266 511.8 266.25 512.1 266.35 512.3 266.5 513.5 267.55 514 268.15 514 268.25 Q 514.05 268.25 514 268.3 L 514 268.5 513.65 269 513 269.4 512.65 269.5 Q 511.8 270.1 510.75 270.1 510.25 270.15 510.25 270.3 L 510.25 270.5 Q 510.25 270.65 510.75 270.65 L 511 270.75 Q 511.4 271 512.5 270.55 512.9 270.5 512.9 270.55 L 512.4 271.25 511.8 271.85 511.8 271.95 511.75 271.95 511.5 272.15 510.55 272.65 510.15 272.75 Q 509.85 272.75 509.55 272.55 L 509.25 272.35 509.15 272.35 508 271.65 507.2 270.9 507.1 270.65 507 270.55 506.8 270.3 506.75 270 506.75 269.5 507.1 268.15 Q 507.5 266.85 507.9 266.65 L 508 266.55 508.15 266.5 508.4 266.15 508.9 265.65 M 516.65 271.95 L 516.8 271.95 Q 517.4 271.75 518.05 272.4 L 518.5 272.75 Q 518.9 273 519.45 273.9 L 519.35 274.5 518.95 274.6 Q 518.65 274.6 517.8 275 L 516.7 275.5 516.65 275.5 Q 516.5 275.5 516.65 275.55 516.65 275.65 517.1 275.55 L 517.6 275.55 517.9 275.5 518.3 275.65 518 276.45 517.65 276.75 516.5 277.4 516 277.55 Q 515.9 277.65 515.4 277.4 L 514.65 277.05 514.25 276.65 514.15 276.4 514.25 275.95 514.35 275.75 514.45 275.65 514.45 275.55 514.85 274.9 515.05 274.65 515.65 274.4 515.75 274.3 516.9 273.65 Q 517.2 273.3 516.9 273.25 516.7 273 516.15 273.25 515.8 273.5 515.8 273.3 L 515.75 273.25 Q 515.55 273 515.75 272.75 L 516.65 271.95 M 493.2 265.75 L 492.9 265.65 492.8 265.5 492.9 265.5 493.1 265.25 494.35 264.5 494.85 264.1 496.35 263.4 497.8 263 499.75 263 500.75 263.5 502 264.8 502.2 265.1 502.4 265.25 502.5 265.5 Q 503.1 265.9 503.1 266.75 L 503 267.65 502.9 267.85 Q 502.9 268.4 502.5 269 L 501.75 270.1 Q 501.5 270.3 501.35 270.15 501.15 270.1 501.15 269.65 L 500.95 268.6 500.65 268.15 Q 500.5 267.85 498.85 266.15 L 497.5 265 Q 497.1 264.7 496.5 264.7 L 495.55 264.9 493.2 265.75 M 494.85 266.05 L 495.75 266 Q 496.35 265.9 496.9 266 L 497.7 266.5 499 267.75 499.25 268.25 499.6 268.5 499.95 269.3 499.95 269.6 500.05 269.8 Q 500.15 270.1 500.05 270.15 L 499.75 270.5 499.65 270.65 499.45 270.65 499.35 270.75 498.5 271.35 497.6 271.75 497.1 271.85 496 272.25 Q 495.35 272.4 495.35 272.35 L 495.15 272.25 494.85 272.25 493.2 271 492.8 270.4 Q 492.5 270 492.4 269.3 492.2 268.5 492.35 268.15 L 493.1 267.25 Q 493.1 266.95 493.7 266.65 L 494.85 266.05 M 488.85 271.35 L 490.65 270.5 490.95 270.5 491.05 270.55 Q 491.1 270.65 491.05 270.75 L 491.05 271 490.95 271.05 490.85 271.25 490.75 271.55 490.25 271.95 489.25 273 490.15 272.9 491.85 272.35 492 272.35 492.35 272.25 Q 493.1 271.95 493.35 272.55 493.6 272.75 493.6 273 L 493.5 273.5 493.3 273.8 492.2 274.4 492.1 274.4 491.95 274.6 491.6 274.65 491.5 274.9 491.25 275.15 491.25 275.3 491.45 275.15 491.85 275.15 492.8 275 493.6 274.65 494 274.6 494.65 274.2 495.1 274.1 495.15 274 495.75 273.65 497.7 272.8 498 272.8 498.4 272.75 498.5 272.9 496.35 274.8 495.45 275.3 495.35 275.5 495.85 275.5 495.95 275.4 499.35 273.9 500.05 273.4 500.45 273.25 Q 500.85 273.25 500.65 273.5 L 498.7 275.9 497.8 276.55 497.5 276.85 497.4 276.85 497.35 276.95 497.1 277.05 496.9 277.25 496.25 277.65 Q 495.1 278.2 493.7 278.2 L 493.1 278.3 492.2 278.3 490.55 277.4 489.25 276.4 488.85 275.65 488.6 275.4 488.5 275.15 488.3 274 488.1 273.4 488.1 273.25 Q 487.9 272.75 488.3 272.35 L 488.85 271.35 M 505.65 263.25 L 505.85 263.35 505.9 263.6 Q 505.9 263.9 505.75 264.1 L 505.15 264.4 Q 504.75 264.5 504.65 264.4 L 504.35 264.25 504.15 264 Q 504.55 263.6 504.75 263.6 L 504.95 263.4 505.65 263.25 M 505.35 271.35 L 505.9 271.85 506 272.05 Q 506.15 272.15 505.9 272.35 505.75 272.75 505.15 272.75 L 504.25 273 504.15 273.15 503.85 273.15 503.25 273.25 Q 502.8 273.25 502.8 273 502.7 272.9 503 272.65 L 503.2 272.55 503.85 272.05 504.1 271.95 504.15 271.95 505.05 271.45 Q 505.25 271.25 505.35 271.35 M 523.65 278.3 L 523.75 278.15 524.45 277.9 526.3 277.75 527 277.9 527.4 278.2 527.2 278.5 525.65 280.05 525.55 280.05 522.1 282.4 523.45 282.05 523.75 281.8 524.95 281.25 525.05 281.25 527.55 279.7 527.9 279.55 528.85 278.9 529.15 279.1 529.25 279.3 529.05 280.05 527.05 281.95 523.9 284.1 523.65 284.2 524.15 284.2 526.5 283.05 526.6 283.05 528.55 281.8 528.8 281.75 529.05 281.55 529.45 281.35 530.2 280.75 530.45 280.65 Q 530.8 280.05 531.1 280.4 L 531.1 280.75 530.2 282.05 529.95 282.3 529.75 282.65 528.15 284 527.3 284.55 527 284.9 526.6 285.15 Q 526.2 285.4 526.4 285.4 L 527.05 285.15 527.3 285.15 529.05 284.3 529.15 284.3 529.55 284.1 529.8 283.9 530.05 283.8 530.15 283.7 530.3 283.6 530.8 283.2 Q 531.3 282.65 531.5 282.65 L 531.7 282.4 532.1 282.25 532.3 282.3 532.3 282.55 Q 532.4 282.65 532.3 282.65 L 532.1 282.9 Q 532 283.3 531.3 284 L 529.8 285.8 529.25 286.25 Q 529.35 286.35 531.1 285.4 L 531.3 285.3 531.4 285.15 532.55 284.5 532.9 284.2 533.15 284.5 Q 533.35 284.8 532.95 285.65 L 532.9 285.95 532.3 286.55 532 286.95 530.9 287.8 529.45 288.6 529.05 288.7 Q 528.45 288.9 527.5 288.6 L 526.5 288.2 526.4 288.2 525.25 287.65 525.05 287.45 Q 524.8 287.45 523.55 286.55 L 520.25 284.4 520.75 283.5 Q 521 283.2 521 282.7 L 521.2 282.3 521.3 281.8 521.5 281.55 522.1 280.05 522.4 279.7 Q 522.7 279.5 522.9 279.1 L 523.15 278.7 523.65 278.3 M 515.15 278.8 L 515.15 278.9 514.35 279.4 514.15 279.4 513.55 279.5 513.5 279.4 Q 513.15 279.4 513.15 279.3 512.8 279.3 513.25 278.8 L 513.25 278.7 Q 513.4 278.65 513.9 278.5 514.3482421875 278.400390625 514.35 278.5 514.35078125 278.400390625 514.55 278.5 L 514.65 278.5 514.75 278.65 515.15 278.8 M 555.4 269.1 L 555.5 269 555.6 269 556.2 268.6 556.4 268.6 556.6 268.4 557.95 267.55 558.25 267.25 558.65 266.95 558.85 266.75 559 266.75 559 266.65 Q 559.25 266.85 558.85 267.15 L 558.75 267.35 558.65 267.4 558.55 267.65 Q 557.95 268.8 557.25 269.2 L 556.1 269.8 555.5 270 Q 554.6 270.15 554.5 270.1 554.25 270.1 554.25 269.9 L 554.7 269.5 555.2 269.3 555.35 269.1 555.4 269.1 M 541.7 275.95 L 541.8 276.05 541.8 276.25 540.8 277.65 Q 540.3 278.05 540.05 278.5 L 538.75 279.9 540.6 279 540.9 278.7 541.4 278.5 541.95 278.05 542.35 277.8 542.7 278.15 Q 542.85 278.5 542.45 279.3 L 542.35 279.5 Q 542.35 279.8 541.8 280.15 L 540.6 281.25 538.95 282.25 538.55 282.3 Q 537.4 282.3 536.95 282.25 L 535.8 281.75 535.6 281.75 535.45 281.55 535.3 281.55 535.05 281.35 534.7 281.25 534.55 281.05 534.15 280.9 534.05 280.75 528.8 277.3 Q 527.95 277.05 527.4 276.45 L 526.8 276.05 526.6 275.75 526.8 275.55 527.4 275.3 527.7 275.3 Q 528.3 275.05 528.8 275.05 L 529.15 275.15 529.15 275.5 Q 529.05 275.75 528.45 275.75 528.05 275.75 528.05 275.9 L 529.15 276.4 Q 529.95 276.55 530.05 276.45 L 530.45 276.45 532.55 275.9 533.85 275.3 Q 534.35 275 534.7 275 L 534.95 274.8 535.6 274.5 535.8 274.3 535.9 274.3 536.6 273.9 Q 536.7 273.8 536.6 273.8 L 536.9 273.65 537.1 273.5 537.3 273.3 537.45 273.25 537.55 273.15 537.8 273.15 537.85 273 537.95 272.8 538.05 272.75 538.75 272.25 Q 539.15 271.65 539.15 272.15 539.15 272.55 538.85 272.8 L 538.55 273.65 537.8 274.2 536.6 275.5 534.05 277.25 533.05 277.8 533.55 277.75 534.45 277.4 534.7 277.25 536.8 276.25 538.55 275.05 538.95 275 539.2 274.8 Q 539.45 274.4 539.7 274.4 L 539.95 274.3 Q 540.05 274 540.45 273.9 L 540.6 274 Q 540.7 274.1 540.55 274.5 L 539.65 275.55 539.45 275.9 538.05 277.25 535.8 279 536.5 278.8 536.8 278.8 Q 537.1 278.5 537.3 278.5 L 538.45 277.9 538.55 277.9 538.95 277.75 539.2 277.55 539.35 277.4 539.45 277.4 539.55 277.3 539.7 277.25 540.2 276.75 541.5 275.75 Q 541.7 275.75 541.7 275.95 M 513 263 L 513.75 263.4 Q 514 263.75 514.15 263.75 L 514.45 263.9 Q 514.65 264.3 515.05 264.3 L 515.8 265.15 Q 516.4 265.6 516.4 265.9 L 516.65 266.35 516.65 266.65 Q 516.7 266.65 516.7 267.05 L 516.8 267.4 516.8 267.9 516.65 268.75 516.4 269.1 516.3 269.5 516 270.1 515.9 270.15 515.9 270.3 515.65 270.9 Q 515.75 270.9 515.55 271.25 L 515.35 271.65 515.35 271.75 515.05 272.35 514.95 272.65 514.05 273.8 513.65 274.6 512 276.55 511.5 277.05 511.25 277.4 510.55 278.65 510.4 278.7 510.25 278.8 509.95 279.2 508.25 280.95 Q 507.6 281.75 507.2 281.95 L 506.5 282.65 506.35 282.65 505.15 282.9 504.85 282.9 504.35 283.05 502.7 283.05 Q 502.2 283.05 501.85 282.65 L 499.85 281.55 Q 499.25 281.25 499 280.15 498.85 279.3 499.15 279.1 499.45 278.7 499.45 279.3 L 499.85 279.9 500.95 280.45 502.3 280.75 502.6 280.9 503.75 281.05 505.45 280.9 Q 505.9 280.75 506.15 280.45 L 506.8 280 Q 508.1 279 507.9 279 L 507.5 279 507.1 279.2 505.15 279.9 503.6 280.15 Q 503 280.15 502.8 280 502.6 279.8 502.7 279.55 502.7 279.4 503 279.3 L 503.5 279 504.5 278.7 505.45 278.2 505.5 278.15 505.75 278.05 505.9 278.05 506.15 277.9 506.25 277.8 506.4 277.8 508.65 276.75 509.5 276.45 509.75 276.25 Q 509.95 276.05 509.85 276.05 L 503.5 277.8 Q 502.2 278.2 500.95 278.2 500.45 278.2 500.45 278.05 L 500.85 277.65 501.85 277.25 502 277.15 502.3 277.05 Q 503.2 276.75 503.25 276.65 L 504.1 276.45 504.25 276.45 508.4 274.6 Q 508.4 274.5 508.1 274.5 L 507.8 274.6 500.85 275.95 Q 500.45 276.05 500.45 275.9 500.45 275.5 501.25 275.15 L 503.25 274.4 Q 503.5 274.2 503.85 274.2 L 504.55 273.9 Q 504.95 273.9 504.95 273.8 L 505.25 273.8 505.85 273.5 506 273.5 506.15 273.4 Q 506.4 273.4 506.4 273.3 L 507.3 273.15 507.5 273.15 Q 507.8 273.15 508.1 273.3 L 509.35 273.9 509.65 273.9 Q 510.65 274.2 510.65 273.9 L 510.9 273.8 Q 511.4 273.7 511.75 273.4 L 511.9 273.3 512.6 272.65 512.8 272.35 513.25 271.85 515.05 269 515.15 268.8 515.35 268.25 512.8 265.6 Q 512.1 265.15 510.75 264.6 L 509.55 264.3 509.05 264.3 508.6 264.6 507.5 265.6 506 267.85 505.05 269.9 504.95 270.4 504.95 270.5 503.6 271.05 Q 503.25 271.15 503.1 271.05 503 271 503.25 270.4 L 503.85 269.2 503.85 269.1 504.1 268.8 504.55 267.9 504.95 267.35 505.05 267.25 505.15 267.05 505.25 266.65 505.45 266.25 506.35 265.15 507.8 263.8 508 263.75 508.25 263.5 510.15 262.9 510.55 262.9 510.9 262.85 Q 511.9 262.75 513 263 M 517.9 271 Q 517.4 271 517.4 270.5 L 517.2 269.8 Q 517.2 269.4 517.8 269.1 L 518.5 269.2 519.25 269.6 Q 520.25 270.1 520.9 271.05 L 521.4 271.55 521.9 272.35 522.2 273 Q 522.55 273.5 522.55 274.2 L 522.4 276.85 522.3 277.15 522 277.75 522 277.8 521.9 278.15 521.3 279.4 520.9 280 519.45 283.05 519.45 283.2 518.9 284.5 518.65 284.7 518.5 284.95 517.65 285.55 514.75 286.8 Q 514.15 287.05 515.25 287.05 L 519.05 286.75 519.35 286.65 519.45 286.65 519.55 286.8 Q 519.55 287.15 519.35 287.2 L 518.95 287.55 518.05 287.8 514.85 288.1 512.65 287.65 512.5 287.65 512.1 287.45 511.9 287.2 511.25 286.75 511 286.45 Q 510.9 286.35 511 286.25 511.4 286.05 511.6 286.05 L 512.8 285.95 513.55 285.8 513.65 285.8 514 285.55 517.1 283.9 517.5 283.6 Q 517.5 283.5 517.2 283.7 L 517 283.7 Q 517 283.5 516.65 283.9 L 514.65 284.55 512.6 284.9 511.8 284.9 510.85 284.7 510.65 284.55 510.75 284.5 510.9 284.4 511 284.3 512.3 283.7 512.6 283.5 515.55 282.55 Q 515.35 282.3 515.75 282.3 L 515.9 282.15 516.7 281.75 516.9 281.55 517.1 281.45 513.55 282.15 513 282.3 512.9 282.3 Q 512.8 282.4 511.9 282.4 511 282.4 510.85 282.3 L 510.75 282.05 510.85 281.95 511.15 281.55 511.25 281.45 511.8 281.05 512.8 280.55 514.05 280.3 514.25 280.3 516.3 279.7 516.9 279.2 517.5 278.5 Q 519.15 277.05 519.35 276.45 L 520.55 274.3 520.4 273.8 520.4 273.5 520.25 273 518.5 271.35 518.05 271.15 517.9 271 M 497.35 268.4 L 497.4 268.5 Q 497.5 268.6 497.35 269 L 497.2 269.5 496.9 270 495.75 271.05 497 270.65 497.1 270.55 498.75 269.65 498.2 269.1 497.7 268.4 Q 497.35 268 497.1 268.3 L 497.35 268.4 M 510.25 268.25 L 510.35 268.15 512.2 267.55 511.3 267.15 Q 511 267.05 510.4 267.55 L 509.15 268.4 509 268.6 Q 509 268.75 509.15 268.6 L 510.25 268.25 M 485.45 268.15 L 485.55 268.15 485.95 267.9 486.7 267.75 487 267.55 487.9 267.15 487.9 267.05 487.5 266.65 487.1 266.55 486.7 266.65 486.1 267.05 484.85 267.65 484.1 268.15 Q 483.7 268.5 483.4 268.5 L 483.2 268.75 Q 483.3 268.8 484.2 268.6 L 485.45 268.15 M 535.8 264 L 536.3 264.3 Q 536.5 264.4 536.95 264.3 537.45 264.25 537.55 264.1 L 538.35 263.75 Q 539.05 263.25 539.05 263 L 540.45 261.25 Q 540.7 261 540.6 261 L 538.35 262.15 537.85 262.55 Q 537.8 262.75 537.3 263 L 536.6 263.35 535.8 263.9 535.8 264 M 535.3 259.4 L 536.2 258.5 536.2 258.4 536.6 258 Q 537.4 257.25 537.1 257.25 L 535.7 258 535.3 258.35 535.15 258.4 534.7 258.75 533.35 259.5 532.95 259.9 531.6 260.85 531.3 261.15 Q 530.65 261.15 532.2 261.55 L 532.45 261.65 534.05 260.4 534.45 260 535.3 259.4 M 529.35 259.5 L 529.05 259.8 529.35 260.1 530.55 259.9 531.1 259.6 531.2 259.6 531.6 259.2 Q 532.4 258.85 533.65 257.45 L 534.45 256.65 534.65 256.35 533.3 257.05 532.95 257.15 532.2 257.5 530.3 258.75 530.05 259 529.35 259.5 M 527.5 258.6 L 527.55 258.75 527.95 258.75 528.4 258.6 528.8 258.35 528.85 258.15 532.55 254.6 529.45 256.35 527.9 257.65 527.55 258 Q 526.9 258.5 527.2 258.5 L 527.5 258.6 M 538.2 259.8 L 539.05 258.85 538.45 259 538.3 259.2 535.9 260.6 Q 535.8 260.65 535.3 261.1 L 534.35 261.85 Q 533.55 262.15 533.55 262.55 534.15 262.9 534.15 262.85 L 534.45 263 Q 534.7 263.15 534.8 263 L 534.95 262.9 535.15 262.85 535.6 262.35 536.1 262.05 536.4 261.75 536.8 261.5 537.1 261.15 537.2 261 537.8 260.4 537.95 260.1 538.2 259.9 538.2 259.8 M 546.8 263.75 L 546.85 263.4 547.1 263 Q 547.35 262.55 547.2 262.55 L 545.95 263.6 Q 545.1 264.4 544.25 265 L 543.85 265.15 Q 543.55 265.5 543.2 265.25 542.6 265.1 543.2 264.3 L 543.85 263.35 543.95 263.15 544.25 262.85 Q 544.05 262.85 544.25 262.65 L 544.95 261.35 Q 544.95 261.15 544.6 261.5 L 543.2 262.75 540.3 264.6 539.15 265.15 538.05 266.25 538.65 266.5 540.7 265.6 541 265.6 Q 541.5 265.75 541.7 266.05 L 541.9 266.35 541.9 266.55 541.5 267.15 541.2 267.25 540.1 267.85 540.55 267.85 Q 541.3 267.85 542.2 267.65 L 543.45 267.25 Q 543.75 267.35 543.65 267.55 L 543.55 267.65 543.45 267.85 543.45 268.15 541.95 269.5 Q 541.6 269.6 541.6 269.8 L 541.95 269.8 543.85 268.9 546.1 267.35 Q 546.3 267.25 546.85 266.65 547.35 266.05 547.35 266 L 547.45 265.9 547.75 265.25 547.45 265.5 Q 547.2 265.75 546.95 265.75 L 545.8 266.25 545.3 266.25 545.05 266.35 Q 544.7 266.35 545.1 266 L 545.95 265.15 546.4 264.5 Q 546.4 264.25 546.6 264.25 L 546.6 264 546.8 263.75 M 546.95 250.4 L 546.85 250.4 545.3 250.85 545.1 251.1 544.7 251.35 544.45 251.95 544.45 252.25 544.7 252.45 545.1 252.55 545.8 252.35 545.95 252.35 546.5 251.75 546.8 251.6 549.1 249.4 548.85 249.5 548.65 249.7 548.2 249.9 548.05 250 547.7 250.1 546.95 250.4 M 547.75 247.95 L 547.7 247.95 544.35 249.7 544.05 249.8 Q 543.65 249.8 543.35 250.3 L 543.25 250.5 543.35 250.75 543.65 250.75 544.15 250.7 Q 544.35 250.7 544.7 250.5 545.5 250.1 546 249.5 L 546.4 249.1 546.8 248.85 547.75 247.95 M 551.35 250.3 Q 551.8 249.7 551.35 250.1 L 549.1 251.6 548.55 251.75 548.25 251.95 547.35 252.35 546.8 252.75 546.6 252.95 546.3 253 Q 545.95 253.45 545.95 253.6 L 546 254 Q 546.2 254.2 546.3 254.2 L 546.7 254.2 547.1 254.1 Q 547.35 254.1 547.35 254 L 548.35 253.45 548.75 253.1 548.95 253 549.45 252.55 Q 550.7 251.35 551.35 250.3 M 504.35 249.8 L 504.75 249.6 Q 505.05 249.35 504.65 249.35 504.5 249.1 503.2 249.9 L 502.6 250.2 Q 501.85 250.6 501.85 251.1 L 501.85 251.25 Q 502.1 251.6 502.1 251.35 L 502.7 251 503 250.7 504.35 249.8 M 526.3 249.9 L 526.05 250 524.95 250.7 524.75 250.75 524.45 251 Q 523.55 251.35 523.45 251.65 L 522.8 252.1 519.25 255.4 Q 518.15 256.25 518.15 256.6 L 519.65 255.85 520.3 255.4 Q 521.8 254.6 522.55 253.6 L 523 253.45 523.05 253.25 523.45 253 524.45 252.15 526.2 250 526.3 249.9 M 511.8 245.85 L 512.2 245.8 512.65 245.6 514 245.5 Q 514.15 245.5 513.55 246.2 L 513.4 246.6 514 246.45 515.25 245.85 Q 515.9 245.6 516.25 245.8 516.65 246 516.65 246.25 516.65 246.35 516.4 246.95 L 516.25 247.25 516.15 247.35 515.05 249.1 515.05 249.35 515.35 249 517.8 247.35 518.15 247.15 518.55 247.55 Q 518.55 247.95 518.4 248.1 L 518.15 248.45 514.25 252.65 514.35 252.85 514.75 252.65 519.45 249.4 Q 519.95 249.1 520.15 249.2 520.3 249.35 520.3 249.6 520.3 249.8 519.45 251 L 519.25 251.35 519.05 251.45 515.4 254.9 515.25 255 Q 514.85 255.2 515.15 255.2 L 515.65 255.2 515.9 255.1 516.15 255.1 517.5 254.35 517.6 254.2 517.9 254 518 254 518.05 253.9 520.3 252.1 520.4 252.1 520.65 251.85 520.8 251.75 521.4 251.85 Q 521.8 251.95 521.9 251.85 L 521.9 251.65 522.3 250.5 522.4 250.4 522.4 250.2 Q 522.4 249.5 522.7 249.2 L 523.75 248.25 Q 524.55 247.55 524.35 247.35 L 523.4 247.65 522.8 247.75 521.8 248.1 521.5 247.75 521.65 247.35 522.4 246.6 523.45 245.1 522.5 245.5 Q 521.7 245.85 520.55 246.2 L 519.95 246.1 519.55 245.7 519.45 245.35 Q 519.45 245 519.75 244.8 L 520.4 243.55 518.9 244.45 517.5 244.9 517.4 244.8 517.3 244.6 517.2 244.6 517.3 244.2 517.9 243.1 518.3 242.65 517.9 242.95 515.25 244.35 514.75 244.5 514.45 244.7 513.1 245.1 Q 512.1 245.5 511.75 245.8 L 511.5 246 511.6 246 511.8 245.85 M 498.25 246.75 L 498.1 246.7 493.85 249.5 493.75 249.6 493.35 249.9 493.3 249.9 493 250.1 492.6 250.3 491.5 251.25 491.35 251.6 491.25 251.65 491.95 251.35 492.6 251.2 492.8 251.2 493.1 251 493.2 250.85 494.1 250.4 Q 494.75 250.1 494.75 249.9 L 495.65 249 497.5 247.65 498 247.15 498.25 246.75 M 496.6 225.8 L 497 225.3 496.9 225.2 495.95 225.6 Q 494.85 226.1 494.95 226.2 L 495.15 226.3 495.25 226.4 495.65 226.55 495.75 226.55 496.6 225.8 M 499.95 224.65 L 498.75 225.6 Q 497.7 226.45 497.6 226.8 497.4 227.05 497.6 227.15 L 498 227.15 498.2 227.3 498.4 227.15 499.65 225.5 Q 500.05 224.7 499.95 224.65 M 504.1 223.65 Q 504.1 223.55 503.85 223.65 L 500.85 226.55 500.5 226.95 500.45 227.15 500.45 227.3 500.75 227.3 Q 501.25 227.3 501.85 226.55 L 502.8 225.5 Q 504 224.15 504.1 223.65 M 508.4 216.1 L 508.65 216.5 Q 509.25 217.05 509.35 217.4 L 510.25 219.25 510.4 219.3 510.65 218.8 Q 510.65 218.05 510.35 217.55 L 510.35 217.4 509.95 216.7 509.35 216.3 509.15 216.1 508.4 216.1 M 526.7 239.45 L 527.8 238.95 529.75 237.2 Q 528.95 237.45 528.8 237.45 L 526.7 238.35 Q 526.3 238.35 525.55 238.95 525.15 239.05 525.3 239.2 L 525.65 239.45 525.9 239.5 526.6 239.45 526.7 239.45 M 527.9 233.95 L 527.3 233.35 526.5 232.75 Q 525.65 231.85 525.05 231.55 L 523.75 230.95 520.25 230.05 520.05 230.05 519.85 229.9 Q 519.65 229.8 518.65 229.8 517.6 229.7 517.4 229.8 517.3 229.9 517.5 229.9 L 518 230.1 518.65 230.2 519.35 230.4 520.75 231.1 520.8 231.4 Q 520.9 231.8 520.8 232.05 L 520.55 232.55 519.85 233.45 Q 519.65 233.7 519.95 233.55 L 522.1 232.3 522.4 232.2 Q 522.7 232.05 523 232.2 523.4 232.35 522.9 232.85 L 522.7 233.2 521.7 234.55 Q 521.7 234.6 521.8 234.55 L 522 234.55 523 234.05 523.3 233.85 Q 524.8 232.95 525.05 233.35 L 525.05 233.85 523.45 236.1 523.15 236.35 525.25 235.3 525.55 235.2 525.65 235.1 526.3 234.8 Q 526.5 234.7 526.6 234.8 526.9 234.95 527 235.5 L 527 236.1 527.7 235.8 529.05 234.95 528.95 234.8 528.65 234.6 528.3 234.2 527.9 233.95 M 624.5 263.35 L 624.5 261.8 619.7 265 619.3 265.65 619.5 265.75 619.85 265.75 620.1 265.65 620.45 265.65 620.75 265.6 620.95 265.5 621.35 265.4 621.95 265.1 622.25 264.8 622.45 264.8 622.5 264.7 622.75 264.4 624.5 263.35 M 618.7 258.85 Q 619.2 258.25 618.8 258.25 618.6 258.25 618.2 258.6 L 615.95 260.5 615.7 260.75 615.45 260.85 615.35 261 615.2 261.1 612.55 263.15 610.85 264.1 610.45 264.4 Q 609.95 264.9 610.1 265 L 610.6 265 611.05 265.1 611.75 265 613 264.4 614.1 263.6 614.35 263.35 614.6 263.25 614.8 263 615.1 262.85 615.7 262.35 615.95 261.95 617.05 261 618.1 259.6 618.2 259.4 618.7 258.85 M 624.5 257.75 L 624.5 257.5 616.45 263.35 614.5 265.1 Q 614.2 265.25 614.2 265.5 L 614.35 265.5 614.35 265.6 614.8 265.6 614.85 265.5 615.25 265.5 615.25 265.4 615.35 265.4 Q 615.35 265.5 616.15 265.15 617.25 264.8 617.45 264.5 L 618.9 263.35 619.3 262.9 620.1 262.35 624.5 257.75 M 607.05 263.25 L 605.6 264.7 Q 605.6 264.8 606.2 264.7 L 607.55 264.3 607.6 264.25 Q 607.95 264.25 608.1 264 L 610.2 262.85 610.75 262.35 611.05 262.15 611.65 261.55 611.65 261.5 614.5 258.6 615.1 257.85 615.35 257.35 615.6 257.15 615.7 256.95 615.85 256.75 616.05 256.35 Q 615.95 256.25 614.8 257.35 L 610.7 260.65 610.3 261.1 607.7 262.75 607.6 262.85 607.05 263.25 M 588.25 252.75 L 588.4 252.55 585.9 254.4 585.9 254.5 585.7 254.7 Q 585.1 255.1 585 255.1 L 584.9 255.2 584.2 255.7 583.75 256.1 583.55 256.15 583.4 256.25 583.3 256.25 583.15 256.5 583.15 256.6 583.25 256.6 584.2 256.35 584.3 256.25 585.2 255.85 586.15 255.2 587.05 254.35 587.15 254.1 587.95 253.25 588.25 252.75 M 591.95 253.6 L 592.05 253.45 591.65 253.75 591.55 253.85 590.7 254.4 Q 590.4 254.5 589.6 255.25 L 585.1 259.2 583.9 259.9 581.75 261.75 581.75 261.85 580.9 262.65 Q 580.5 262.85 580.4 263 580 263.25 580.2 263.25 L 580.8 263.5 582.45 263.75 Q 583.9 263.75 584.65 263.8 586.05 263.9 586.45 263.6 L 591.8 258.6 591.95 258.35 594.2 255.85 594.6 255.25 Q 594.8 254.9 594.7 254.9 L 589.3 259.6 588.3 260.2 586.65 261.5 586.3 261.65 583.15 262.45 583.05 262.45 582.95 262.35 583.05 262.25 583.9 261.55 584.05 261.5 584.3 261.35 584.5 261.15 585.5 260.4 591.95 253.6 M 605.6 258.5 Q 605.6 258.9 605.85 258.35 L 606.35 257.85 Q 606.75 257.45 607.55 256.25 L 608.05 255.7 608.2 255.4 608.5 255.1 Q 608.8 254.9 608.95 254.6 L 607.7 255.6 607.55 255.7 Q 607.25 256 606.25 256.85 L 605.8 258.15 605.6 258.5 M 604.5 259 L 604.7 258.6 604.9 258 602.15 260 601.75 260.2 601.2 260.75 600.95 260.85 599.3 262.25 599.1 262.45 Q 598.9 262.55 598.45 263 597.95 263.5 597.95 263.6 L 599.3 263 599.6 262.9 601.35 261.95 601.65 261.85 601.85 261.65 Q 602.95 260.85 603.45 260.25 L 604.5 259.1 604.5 259 M 600.95 253.35 Q 601.05 253.1 600.85 253.25 L 596.45 257.15 596.15 257.35 594.6 258.75 Q 593.45 259.9 591.95 261 L 587.8 263.9 588.3 264 593.2 264.4 593.55 264.4 594.3 264.3 Q 594.5 264.3 595.95 262.85 596.85 261.95 597.15 261.85 L 598.3 261 598.6 260.6 599.1 260.2 600.3 259 600.7 258.75 600.8 258.75 600.85 258.5 604.2 254.7 Q 604.3 254.6 604.3 254.5 L 603.3 255.2 602.45 256.1 601.3 256.95 601.2 257.15 598.8 259 598.45 259.2 595.45 261.65 595.3 261.65 595 261.85 594.6 261.95 592.75 262.85 592.15 262.85 Q 591.85 262.85 591.85 262.55 L 591.85 262.35 595.4 259.5 599.1 255.7 600.7 253.6 600.95 253.35 M 606.2 228.05 Q 605.1 228.05 604.4 228.7 L 603.8 229.45 603.9 229.45 606.55 228.05 Q 606.65 228.05 606.55 227.95 L 606.2 228.05 M 568.85 247.15 L 568.9 247.35 569.25 247.55 Q 569.6 247.55 569.6 247.85 L 570.1 248.05 570.6 248.1 570.9 248.1 571.15 248.25 571.65 248.35 573.85 248.35 576 247.95 577.35 247.35 577.45 247.25 577.65 247.15 Q 578.05 247.05 578.05 246.6 L 577.85 246.45 577.45 246.45 575.4 246.75 574.15 246.75 Q 572.95 246.75 572.5 246.7 L 570.1 246.45 569.35 246.45 Q 569.35 246.7 569.15 246.45 L 568.65 246.6 568.5 246.75 Q 568.75 247.05 568.85 247.15 M 579.5 232.3 L 577.35 233.95 577.15 234.05 577.75 234.05 Q 578.25 234.05 579.5 233.15 579.9 232.85 579.9 232.65 L 580 232.3 Q 580.3 231.7 579.5 232.3 M 609.95 228.35 L 609.8 228.65 609.5 228.95 609.5 229.05 610.7 228.7 611.05 228.55 611.45 228.15 Q 611.45 228.05 610.85 228.25 L 610.3 228.35 609.95 228.35 M 463.4 251.25 L 463.2 251.35 457.8 255.4 457.3 255.7 456.85 256.15 455.4 257.25 455.05 257.45 455 257.65 454.2 258.15 452.35 259.8 451.9 260.1 451.55 260.5 451.15 260.65 450.55 261.15 449.9 261.55 449.8 261.75 449.6 261.85 449.5 261.85 449.1 262.15 448.6 262.65 447.75 263.15 447.25 263.35 447.15 263.4 446.85 263.6 446.75 263.75 Q 446.65 263.75 446.75 264 L 446.75 264.1 447.25 264 453.4 263.75 454.5 263.35 454.8 263.15 458.5 259.7 459.4 259.1 462.7 256.1 463.05 255.85 464.3 254.7 Q 464.4 254.6 464.3 254.6 L 465.15 253.6 Q 465.85 252.95 465.75 252.95 L 456.35 260.2 454.9 261.5 Q 454.5 261.85 454.3 261.85 L 454 262.15 Q 453.25 262.75 453 262.75 L 452.4 262.55 452.35 262.35 452.15 262.25 Q 452.05 262.15 452.15 261.95 452.15 261.65 452.4 261.35 L 452.8 261.1 463.5 251.25 463.4 251.25 M 472.9 250.4 L 472.6 250.5 470.65 251.45 469.7 252.25 Q 469.1 252.65 468.6 253.25 L 466.8 254.7 466.95 254.7 467.3 254.5 467.9 254.35 468.3 254.1 468.5 254.1 469.7 252.95 472.7 250.6 472.9 250.4 M 483.2 252.25 L 483.3 252.35 483.4 252.35 483.5 252.25 483.85 252.1 487.35 249.7 488.3 248.75 Q 488.3 248.45 488.1 248.45 L 488 248.35 487.7 248.25 Q 487.7 248.35 487.45 248.35 L 486.55 248.85 483.1 252.1 483.2 252.25 M 444.3 263.15 L 445.1 263 445.25 262.9 445.5 262.9 445.6 262.85 445.65 262.85 446.05 262.55 446.85 262.15 450.25 259.6 450.55 259.5 453 257.05 Q 453.5 256.85 454.5 255.85 L 457.15 253.35 Q 458.5 252.15 458.3 252.15 L 458.2 252.15 458 252.35 457.8 252.45 456.85 253.25 456.35 253.5 456.05 253.85 455 254.5 454.8 254.7 454.6 254.7 454.3 255 454.2 255 454 255.2 453.8 255.25 450.9 257.35 450.55 257.65 449.65 258.25 449.6 258.35 449 258.6 447.05 260.1 444.3 263.15 M 443.15 262.15 L 443.5 261.75 443.75 261.65 444.1 261.35 Q 444.6 261 444.7 260.85 L 445.85 259.9 446 259.8 446.35 259.5 450.75 254.9 Q 452.15 253.75 452.05 253.6 L 451.85 253.75 451.65 253.75 451 254 442.05 261.1 441.5 261.75 Q 440.6 262.75 440.5 262.85 L 440.25 263.15 Q 440.25 263.25 440.85 263 L 442.25 262.65 443.15 262.15 M 432.75 259.3 Q 433.3 258.85 433 258.85 L 432.75 258.9 432.75 259.3 M 441.35 259.4 L 442.65 258.15 442.9 257.75 445.15 255.5 445.25 255.25 445.1 255.4 444.7 255.5 Q 444.3 255.5 443.9 255.85 L 439.4 259.7 439.1 260 438.85 260.2 438.6 260.5 437.65 261.25 437.45 261.35 436.35 263.25 436.6 263.25 438.1 262.75 441 260 Q 441.25 259.6 441.35 259.4 M 438 257.35 L 437.15 257.65 433.9 260.5 Q 433.1 261.15 432.75 261.55 L 432.75 262.9 433.75 262.55 434.1 262.15 434.4 261.95 436.75 258.9 436.95 258.85 437.05 258.6 437.95 257.5 438.1 257.35 438 257.35 M 485.85 246 L 485.65 245.8 485.55 245.8 Q 485.55 245.7 485.05 245.8 484.75 245.8 484.45 246 L 482.2 247.75 Q 482.05 247.95 482.2 247.95 L 482.2 248.25 482.3 248.25 482.7 247.95 483.85 247.25 483.95 247.25 484.7 246.85 Q 485.55 246.45 485.65 246.2 L 485.85 246 M 479.8 247.05 Q 479.8 247.25 480.05 247.05 480.2 246.95 480.25 247.05 L 480.35 246.95 480.55 246.85 484.1 244.7 484.85 244.35 Q 485.2 244.35 485.2 244.1 L 485.65 243.45 485.2 243.05 483.7 243.85 479.95 246.45 Q 479.55 246.95 479.8 247.05 M 475.85 246.7 L 475.85 246.85 475.75 247.15 Q 475.95 247.15 476.85 246.45 L 480.45 244.45 481.15 243.95 481.35 243.7 Q 481.6 243.55 481.7 243.35 L 481.85 243.05 481.7 242.85 Q 481.95 242.65 481.7 242.65 L 481.6 242.65 481.45 242.45 481.35 242.45 480.55 242.85 479.95 243.25 479.8 243.45 479.55 243.55 479.45 243.6 477.2 245.2 476.55 245.8 475.85 246.7 Z"/>
</g>
<g id="l2">
<path fill="#BA0C2F" stroke="none" d="M 599.95 342.9 L 578.05 342.9 578.05 378.45 Q 591.85 375.35 599.95 370.8 L 599.95 342.9 M 624.4 342.9 L 608.3 342.9 608.3 365.8 612.25 363.05 615.45 360.1 618.7 356.2 619.3 355.15 620.65 353.35 621.95 350.65 622.45 349.8 622.6 348.95 623 348.3 623.4 346.9 623.7 346.2 624 344.65 624.2 344.15 624.25 343.75 624.25 343 624.4 342.9 M 548.2 384.5 Q 550.5 383.45 555.5 382.5 559.6 381.7 561 381.7 562.25 381.6 570 380.1 L 570 342.9 548.2 342.9 548.2 384.5 M 518.3 388.25 L 518.4 388.25 518.75 388.45 518.95 388.65 519.25 388.75 519.85 389.15 520.05 389.35 520.4 389.5 520.75 389.8 521.65 390.4 521.9 390.7 523.3 391.65 523.55 392.15 524.05 392.5 525.55 393.9 525.8 394.4 526.3 394.8 526.8 395.4 527.05 395.9 528.45 397.65 528.8 398.4 Q 531.3 394.15 535.55 390.7 L 539.35 388.15 539.35 342.9 518.05 342.9 518.05 388.15 518.15 388.15 518.3 388.25 M 509.5 342.9 L 487.5 342.9 487.5 380.1 496.45 381.7 Q 497.9 381.7 502.1 382.5 507.1 383.45 509.5 384.5 L 509.5 342.9 M 432.95 344.15 L 433.1 345.15 433.35 345.55 433.6 346.9 433.9 347.55 434.1 348.3 434.5 348.95 435.5 351.5 438.35 356.2 441.75 360.1 448.75 365.8 448.75 342.9 432.85 342.9 432.85 343.45 432.95 343.75 432.95 344.15 M 478.95 342.9 L 457.25 342.9 457.25 370.8 Q 465.3 375.35 478.95 378.45 L 478.95 342.9 Z"/>
</g>
<g id="l1">
<path fill="#002F6C" stroke="none" d="M 620.25 86.65 Q 617.5 91 619 95.8 620.35 100.55 625.35 103.9 627.75 105.4 630.5 106.2 633.3 106.95 635.15 106.55 L 640.15 98.7 632.6 93.8 630.25 97.25 633.1 99.2 631.75 101.35 Q 629.75 101.05 628 100 625.1 98.05 624.25 95.4 623.4 92.55 625.1 90.1 626.75 87.55 629.4 86.95 632.4 86.15 636.05 88.55 L 637.75 89.9 638.2 90.2 638.5 90.55 639.4 91.3 640.45 92.55 640.75 93.05 642.15 95 644.75 90.8 Q 642.65 87.15 638.3 84.3 633.25 81 628.2 81.55 623.2 82.25 620.25 86.65 M 440.85 402.4 L 436 399.4 424.2 419.1 429.1 421.95 440.85 402.4 M 463.05 417.15 Q 461.25 412.15 455.65 409.7 450.15 407.15 445.25 409.05 440.85 410.7 438.9 414.9 L 438.6 415.95 438.35 416.45 438 418.15 438 420.8 438.4 423.05 438.75 423.6 438.9 424.2 440.1 426.35 440.5 426.85 441 427.25 441.25 427.7 442.85 429.2 443.4 429.5 444.6 430.35 446 431.05 Q 451.25 433.5 456.25 431.65 460.75 430 462.7 425.8 464.55 421.65 463.05 417.15 M 452.25 413.55 L 453.8 413.9 Q 456.75 415.2 457.75 417.85 458.7 420.45 457.4 423.45 456.15 426.25 453.5 427.15 451 428.05 448 426.65 445 425.3 443.9 422.7 442.9 420.2 444.2 417.35 L 444.5 417.05 444.6 416.65 444.8 416.3 445.1 416.05 445.15 415.7 445.4 415.45 445.65 415.3 445.85 414.9 446.15 414.8 446.95 414.1 447.55 413.8 448.5 413.55 448.8 413.3 449.1 413.2 451.55 413.2 451.9 413.3 452.25 413.55 M 486.55 444.4 L 492.6 422.45 487.1 420.85 483.4 434.35 475.35 417.65 470.3 416.3 464.3 438.2 469.7 439.75 473.6 425.7 481.85 443.2 486.55 444.4 M 499.65 441.95 L 509.75 443.2 511.15 447.9 517.2 448.6 509.95 424.7 503.25 424 491.45 445.5 497.4 446.25 499.65 441.95 M 501.6 438.1 L 506 429.8 508.6 439 501.6 438.1 M 527.5 444.25 L 527.4 425.7 521.7 425.7 521.8 448.5 539.2 448.4 539.2 444.25 527.5 444.25 M 571.4 425.45 L 570 424.5 569.6 424.1 569.15 423.8 568.05 423.45 567.55 423.1 567 423.05 565.8 422.65 565.1 422.65 564.5 422.55 561.7 422.55 550.2 424.6 554.35 447.15 563.65 445.5 Q 570.1 444.25 572.95 440.35 575.6 436.85 574.6 431.75 L 574.3 430.1 574 429.6 573.85 429 573.55 428.6 573.15 427.6 572.75 427.15 572.55 426.65 571.4 425.45 M 568.85 432.85 Q 569.35 435.75 568.25 437.95 566.75 440.65 562.85 441.35 L 559.25 442 556.6 427.7 560.1 427.05 Q 563.85 426.35 566.2 428.1 568.25 429.7 568.85 432.85 M 592.8 418.45 L 591.45 414.4 575.65 419.5 582.75 441.35 598.7 436.15 597.55 432.1 586.9 435.6 585.1 430.35 595 427.15 593.7 423.1 583.8 426.35 582.45 421.75 592.8 418.45 M 614.5 403.9 L 608.8 406.65 609.2 420.8 598.2 411.55 592.65 414.2 612.35 430.45 614.7 429.5 614.5 403.9 M 642.25 413.3 L 640 409.8 630.55 415.7 627.6 411.15 636.4 405.5 634.15 402.05 625.35 407.55 622.85 403.4 632 397.65 629.75 394.15 615.75 403.05 627.9 422.35 642.25 413.3 M 415.4 384.9 L 412.85 388.35 419.6 393.25 408.55 408.3 413.15 411.8 424.2 396.65 430.75 401.55 433.35 398.15 415.4 384.9 M 432.85 309.35 L 432.85 339.4 624.4 339.4 624.4 309.35 432.85 309.35 M 392.5 388.45 L 399.9 395.4 398.15 400 402.75 404.2 410.8 380.6 406.1 376.1 383.65 386.5 388.15 390.6 392.5 388.45 M 404.7 382.35 L 401.5 391.5 396.3 386.6 404.7 382.35 M 398.25 368.55 L 394.75 364.25 383.75 372.75 387.1 354.65 383.75 350.55 365.95 364.85 369.55 369.25 380.9 360.1 377.4 379 380.35 382.85 398.25 368.55 M 379.15 345.15 L 379.15 344.75 379.05 344.35 379.05 343.65 378.55 342.3 378.5 341.8 372.7 331.9 352.95 343.55 355.95 348.4 363.95 343.75 364.75 345.15 Q 365.7 346.8 364.05 349.55 363.1 351.1 360.05 355.3 L 363.25 360.8 Q 366.9 355.7 367.85 354.05 369.35 351.7 369.25 349.95 372.75 352.45 376 350.55 L 376.6 350.15 376.75 349.95 377.1 349.75 377.25 349.45 377.75 348.95 377.85 348.8 378.1 348.55 378.25 348.3 378.35 347.95 378.55 347.7 378.65 347.4 378.85 347.1 378.95 346.8 378.95 346.4 379.05 346.2 379.05 345.45 379.15 345.15 M 373.45 341.4 Q 375.1 344.15 372.85 345.55 370.6 346.8 369.05 344.15 L 367.5 341.65 372 338.95 373.45 341.4 M 367.1 330.25 L 371 328.6 364.35 313.4 343.3 322.6 350.15 338 354.05 336.4 349.55 326.15 354.55 324 358.75 333.5 362.6 331.8 358.35 322.2 362.8 320.35 367.1 330.25 M 356.95 289.7 L 352.9 290.95 355.2 298.9 337.3 304.2 338.95 309.6 356.95 304.3 359.25 312.2 363.25 311.05 356.95 289.7 M 353.7 269.65 L 352.95 264.6 330.35 267.9 331.15 273.4 345.65 271.25 333 285.95 333.65 290.8 356.3 287.3 355.45 281.8 341.7 283.8 353.7 269.65 M 352.95 260 L 352.8 254.35 329.95 255.2 330.15 261 352.95 260 M 352.2 207.75 L 344.65 210.15 339.95 203.75 339.95 211.65 332.5 214.05 339.75 216.4 339.75 224.2 344.65 217.9 352.2 220.4 347.6 214.05 352.2 207.75 M 347.3 167.6 L 344.85 172.6 356.5 178.35 Q 361 180.7 364.85 178.95 368.35 177.4 370.75 172.6 372.85 168.1 372.2 164.45 371.35 160.25 366.5 157.9 L 354.85 152.2 352.4 157.3 363.85 163 Q 366.4 164.3 367 166.45 367.5 168.4 366.35 170.65 365.25 172.9 363.35 173.6 361.3 174.35 359.2 173.3 L 347.3 167.6 M 372.1 126.75 L 368.75 131.35 380.25 139.4 361.8 141.35 358.75 145.65 377.5 158.7 380.8 154.05 368.75 145.65 388 143.65 390.7 139.9 372.1 126.75 M 380.6 117.05 L 376.75 121.45 394.05 136.45 397.75 132.25 380.6 117.05 M 397.05 106.45 L 403.05 100.8 400.15 97.75 384.05 113.1 386.8 116.05 392.9 110.35 405.7 123.9 409.8 120.1 397.05 106.45 M 474.1 60.2 Q 469.3 59.95 466.15 61 462.55 62.25 460.75 64.75 459 67.15 459.9 69.9 461.35 74.4 467.65 74.8 473.9 75.1 474.3 76.4 474.95 78.25 471.7 79.5 468.4 80.5 463.5 79.15 L 464.95 83.75 Q 467.3 84.25 468.8 84.15 470.85 84.15 473.5 83.25 477.1 82.05 478.9 79.5 480.75 77 479.8 73.9 478.3 69.6 472.05 69.25 465.75 68.75 465.4 67.65 465.05 66.85 465.75 66.1 466.55 65.35 467.9 64.85 L 469.1 64.5 469.45 64.5 469.9 64.45 470.65 64.45 470.85 64.25 472.8 64.25 473.05 64.45 474.55 64.45 474.8 64.5 475.45 64.5 474.1 60.2 M 422.95 92.05 L 414.55 98.2 411.7 94.3 420.6 87.95 418.05 84.5 404.65 94.3 418.05 112.85 431.75 102.8 429.35 99.5 420.2 105.95 416.95 101.65 425.35 95.5 422.95 92.05 M 440.25 74 L 439.6 73.9 439 74 438.4 74 437.85 74.15 437.15 74.15 436.6 74.4 435.85 74.5 435.25 74.8 434 75.2 423.7 80.8 434.7 100.8 442.9 96.4 Q 448.75 93.25 450.15 88.65 451.65 84.5 449.2 79.9 L 448.8 79.5 448.6 79 447.55 77.55 446.35 76.4 444.5 75.2 443.5 74.8 443 74.5 440.85 74 440.25 74 M 440.1 79.15 Q 442.45 79.9 444 82.65 445.5 85.2 445 87.75 444.4 90.8 441 92.65 L 437.65 94.4 430.75 81.65 433.9 79.9 Q 437.35 78.15 440.1 79.15 M 624.4 190.5 L 624.4 135 432.85 135 432.85 190.5 624.4 190.5 M 493.3 58.75 L 501.4 57.2 500.65 53.05 478.8 57.25 479.55 61.5 487.7 59.85 491.35 78.15 496.9 77 493.3 58.75 M 524.65 51.2 L 524.55 55.3 532.8 55.7 532.1 74.35 537.85 74.5 538.55 55.9 546.8 56.1 546.95 51.95 524.65 51.2 M 515.35 51.85 L 508.9 52.35 501.4 75.8 507.4 75.4 508.75 70.8 518.9 69.9 521.15 74.35 527.3 73.85 515.35 51.85 M 517 66 L 509.95 66.6 512.6 57.6 517 66 M 591.05 85.4 L 596.45 87.85 599.95 84.5 609.2 88.8 608.95 93.7 614.5 96.4 615 71.4 609.1 68.5 591.05 85.4 M 609.8 74.9 L 609.4 84.5 602.95 81.5 609.8 74.9 M 568.25 59.5 L 568.85 55.45 552.45 52.85 548.85 75.4 565.4 78.05 566.2 73.85 555.2 72.1 556 66.75 566.25 68.45 567 64.1 556.7 62.45 557.45 57.75 568.25 59.5 M 587.25 65.8 L 587.45 66 587.75 66.2 587.95 66.4 588.25 66.6 588.4 66.85 589.6 62.45 Q 586.15 59.7 582.65 58.75 578.8 57.6 576.1 58.65 573.35 59.85 572.55 62.65 571.25 67.1 576.25 70.9 581.3 74.75 580.9 76 580.1 78.05 577 77.15 573.75 76.1 570.3 72.15 L 569 76.9 Q 571 78.75 571.9 79.3 573.75 80.6 576.25 81.25 580.1 82.35 582.95 81.25 585.8 80.1 586.65 77 587.95 72.55 582.95 68.75 578.05 64.9 578.35 63.85 578.55 63.1 579.65 62.75 580.6 62.45 582.05 62.85 L 583.8 63.55 584.2 63.85 584.5 63.95 585.1 64.25 585.3 64.45 585.5 64.5 585.7 64.75 585.9 64.85 586.05 65 586.3 65.1 586.55 65.35 586.75 65.4 587.05 65.7 587.25 65.8 M 658.1 395.6 L 649.05 402.85 637.25 388.35 632.9 391.9 647.15 409.7 660.7 398.75 658.1 395.6 M 665.65 366.1 Q 660.35 366.2 656.2 370.6 652.15 374.95 652.3 380.35 652.4 385 655.75 388.15 L 656.15 388.55 656.65 388.85 657.05 389.25 657.5 389.4 658 389.8 658.45 390 658.95 390.3 659.95 390.6 660.55 390.9 661.6 391.1 664.55 391.15 666.3 390.9 668.2 390.3 669.35 389.8 669.95 389.4 670.55 389.15 673.2 386.65 Q 677.3 382.5 677.2 377.2 677.1 372.35 673.7 369.1 670.35 366.1 665.65 366.1 M 658.7 375 L 658.95 374.75 659.35 374.1 659.65 373.85 Q 661.8 371.5 664.65 371.35 667.4 371.3 669.65 373.35 672 375.5 672 378.25 672.1 381.1 669.75 383.45 667.6 385.8 664.75 385.9 662.05 386 659.8 383.95 L 659.55 383.65 659.15 383.35 658 381.6 657.8 380.9 657.6 380.6 657.6 380.2 657.5 380 657.5 379.35 657.4 378.95 657.4 378.55 657.5 378.35 657.5 377.95 657.6 377.65 657.6 377.25 657.8 377 658.1 376 658.7 375 M 682.7 347.7 L 682.4 347.55 681.9 347.4 681.6 347.2 680.75 346.9 680.45 346.9 680.05 346.8 678.2 346.8 677.8 346.9 677.5 346.9 676.7 347.1 676.5 347.2 676.1 347.5 675.85 347.55 675.45 347.8 675.25 348.05 674.45 348.55 673.6 349.45 667.2 358.55 685.9 371.6 689.15 367 681.7 361.7 684.15 358.05 Q 686.35 355.05 685.75 352.1 685.25 349.45 683 347.95 L 682.7 347.7 M 679.55 352.8 Q 681.8 354.25 679.65 357.1 L 678.25 359.35 673.85 356.3 674.95 354.65 Q 676.45 352.7 677.35 352.3 678.45 351.9 679.55 352.8 M 698.95 337.3 L 695.25 328.6 707.95 335.05 710.6 330.05 690.25 319.65 688 324.1 692.2 334.45 681.35 337.2 679.05 341.65 699.55 351.9 702.1 346.9 689.25 340.4 698.55 338.15 698.95 337.3 M 714.7 305.85 L 711.05 316.45 705.9 314.65 709.15 304.75 705.3 303.5 701.9 313.3 697.4 311.75 700.9 301.45 696.9 300.05 691.6 315.75 713.15 323.2 718.65 307.2 714.7 305.85 M 699.05 291.45 L 698.05 296.65 720.5 301.05 721.55 295.35 707.15 292.6 724.05 283.05 725 278.2 702.55 273.9 701.4 279.55 715.2 282.15 699.05 291.45 M 725.95 264.5 L 726.35 258.75 707.75 257.65 708.25 249.5 703.95 249.2 702.75 271.45 706.9 271.65 707.4 263.4 725.95 264.5 M 722.55 214.15 L 715.2 211.65 715.2 203.75 710.4 210.25 702.9 207.75 707.5 214.05 702.9 220.4 710.4 217.9 715.2 224.2 715.2 216.4 722.55 214.15 M 698.35 173.3 L 713.15 176.45 710.2 170.15 701.6 168.55 706 161.05 703.05 154.95 695.8 168.2 686.2 172.7 688.65 177.85 698.35 173.3 M 682.4 143.6 Q 684.95 141.9 687.85 142.8 690.75 143.65 692.65 146.8 694.85 149.95 695 154.65 L 699.35 151.8 Q 699.05 147.8 696.4 143.9 693 138.6 687.85 137.35 683.1 136.05 679.05 138.8 675.1 141.35 674.2 145.95 673.2 150.95 676.6 156.25 L 677 156.7 677.2 157.3 679.45 159.8 680.45 160.45 680.75 160.8 681.2 161.2 682.85 162.2 683.1 162.4 683.35 162.5 687.6 159.8 Q 684.95 158.2 683.75 157.2 682.2 155.95 681 154.3 679.05 151.25 679.45 148.3 679.85 145.25 682.4 143.6 M 661.6 108.3 L 664.35 105.1 651.7 94.3 636.75 111.55 649.65 122.6 652.3 119.5 643.9 112.15 647.5 108.05 655.45 114.7 658.1 111.55 650.25 104.8 653.3 101.15 661.6 108.3 M 672.85 113.8 L 669.45 109.9 652.3 125 656.15 129.2 667.1 119.6 664.35 138.7 667.5 142.3 684.75 127.1 681 122.85 670.55 132.25 672.85 113.8 Z"/>
</g>
<g id="l0">
<path fill="#FFFFFF" stroke="none" d="M 584.15 321 L 581.95 314 581.9 314 579.65 321 572.15 321 578.35 325.55 576 332.6 576 332.65 581.9 328.25 587.8 332.65 587.95 332.6 585.55 325.55 591.65 321 584.15 321 M 614.3 332.6 L 612.05 325.55 618 321 610.45 321 608.3 314 608.2 314 605.95 321 598.6 321 604.6 325.55 602.35 332.6 602.35 332.65 608.2 328.25 614.3 332.65 614.3 332.6 M 504.95 321 L 502.7 314 500.45 321 493.1 321 499.1 325.55 496.75 332.6 496.75 332.65 502.7 328.25 508.6 332.65 508.75 332.6 506.4 325.55 512.4 321 504.95 321 M 529.05 314 L 526.9 321 519.35 321 525.55 325.55 523.05 332.6 523.05 332.65 529.15 328.25 535.05 332.65 535.15 332.6 532.8 325.55 538.75 321 531.4 321 529.15 314 529.05 314 M 565.2 321 L 557.65 321 555.5 314 553.25 321 545.7 321 551.85 325.55 549.55 332.6 549.55 332.65 555.5 328.25 561.5 332.65 561.5 332.6 559.25 325.55 565.2 321 M 459.55 321 L 452.15 321 449.9 314 447.65 321 440.25 321 446.25 325.55 443.9 332.6 444 332.65 449.9 328.25 455.75 332.65 455.95 332.6 453.5 325.55 459.55 321 M 478.6 321 L 476.35 314 474.1 321 466.65 321 472.6 325.55 470.3 332.6 470.3 332.65 476.35 328.25 482.3 332.65 482.3 332.6 479.95 325.55 485.95 321 478.6 321 M 485.05 146.55 L 477.2 146.55 477.2 164.15 Q 477.2 168.1 474.85 170.15 472.7 172 469.3 172 465.85 172 463.7 170.05 461.45 167.95 461.45 164.8 L 461.45 146.55 453.5 146.55 453.5 164.45 Q 453.5 171.55 458 175.15 462.15 178.45 469.4 178.45 476.45 178.45 480.45 175.45 485.05 171.8 485.05 164.45 L 485.05 146.55 M 586.15 146.55 L 571.15 146.55 571.15 178.1 584.3 178.1 Q 593.3 178.1 598.15 173.7 602.55 169.45 602.55 162.4 L 602.55 161.55 602.45 160.8 602.45 159.95 601.55 156.3 599.2 152.3 597.65 150.65 595.8 149.3 591.05 147.3 586.15 146.55 M 594.4 162.4 Q 594.4 166.45 592.25 169.05 589.6 172.4 584.2 172.4 L 579.15 172.4 579.15 152.3 584.2 152.3 Q 589.5 152.3 592.15 155.35 594.4 157.9 594.4 162.4 M 512.2 154.45 L 512.6 154.55 513 154.9 513 148.6 Q 507.5 146.25 502.4 146.25 496.9 146.25 493.6 148.65 490.35 151.15 490.35 155.25 490.35 161.65 498.4 164.85 506.4 167.95 506.4 169.95 506.4 172.7 501.85 172.7 497 172.7 491.05 168.8 L 491.05 175.45 Q 493.85 177 495.75 177.6 498.6 178.45 502.4 178.45 507.8 178.45 511.15 175.95 514.55 173.35 514.55 168.95 514.55 162.7 506.5 159.45 498.5 156.15 498.5 154.55 498.5 152 503.1 152 L 504.15 152 504.65 152.15 505.05 152.15 506.75 152.4 507.1 152.65 507.3 152.65 507.7 152.7 507.9 152.8 508.6 153 509 153 509.15 153.2 509.55 153.4 509.95 153.5 510.25 153.7 510.9 153.9 512.2 154.45 M 564 146.55 L 556.1 146.55 556.1 178.1 564 178.1 564 146.55 M 538.2 146.55 L 529.15 146.55 516.4 178.1 524.75 178.1 527.05 171.9 541.3 171.9 543.75 178.1 552.25 178.1 538.2 146.55 M 529.25 166.3 L 533.85 154.05 538.95 166.3 529.25 166.3 Z"/>
</g>
</defs>
<g transform="matrix(1,0,0,1,0,0)">
<use xlink:href="#l8"/>
</g>
<g transform="matrix(1,0,0,1,0,0)">
<use xlink:href="#l7"/>
</g>
<g transform="matrix(1,0,0,1,0,0)">
<use xlink:href="#l6"/>
</g>
<g transform="matrix(1,0,0,1,0,0)">
<use xlink:href="#l5"/>
</g>
<g transform="matrix(1,0,0,1,0,0)">
<use xlink:href="#l4"/>
</g>
<g transform="matrix(1,0,0,1,0,0)">
<use xlink:href="#l3"/>
</g>
<g transform="matrix(1,0,0,1,0,0)">
<use xlink:href="#l2"/>
</g>
<g transform="matrix(1,0,0,1,0,0)">
<use xlink:href="#l1"/>
</g>
<g transform="matrix(1,0,0,1,0,0)">
<use xlink:href="#l0"/>
</g>
</svg>
