<svg xmlns="http://www.w3.org/2000/svg" xmlns:xlink="http://www.w3.org/1999/xlink" width="100%" height="100%" viewBox="0 0 1024 350">
<!-- Vectorization by Rodrigo Polo https://github.com/rodrigopolo/logotipos-politicos -->
<defs>
<g id="l8">
<path fill="#BA0C2F" stroke="none" d="M 839.25 77.05 L 804.15 77.05 804.15 217.85 839.25 217.85 839.25 77.05 M 726.15 77.05 L 685.55 77.05 628.75 217.85 665.85 217.85 676.35 190 739.3 190 750.8 217.85 788.75 217.85 726.15 77.05 M 706.45 110.6 L 728.95 165.35 685.7 165.35 706.45 110.6 M 987.2 95.5 L 978.7 89.2 968.9 84 957.85 80.25 940.9 77.45 869.35 77.05 869.35 217.85 927.6 217.85 Q 968.05 217.85 989.6 197.95 1009.35 179.5 1009.35 147.7 L 1008.1 133.55 1006.55 126.85 1003.05 117.2 998.3 108.4 994.2 102.9 987.2 95.5 M 904.5 102.8 L 927.05 102.8 Q 950.55 102.8 962.6 116.1 973.25 127.7 973.25 147.45 973.25 165.6 963.55 177.4 951.55 192.1 927.3 192.1 L 904.5 192.1 904.5 102.8 Z"/>
</g>
<g id="l7">
<path fill="#002F6C" stroke="none" d="M 583.1 308.1 Q 575.25 308.1 570.1 313 565.05 317.9 565.05 325.45 565.05 332.9 570.1 337.8 575.15 342.7 582.85 342.7 590.8 342.7 596 337.8 601.3 332.9 601.3 325.45 601.3 317.9 596.15 313 590.8 308.1 583.1 308.1 M 573.75 316.2 Q 577.5 312.7 583.25 312.7 588.7 312.7 592.5 316.35 596.25 320 596.25 325.3 596.25 330.8 592.5 334.55 588.7 338.2 583.1 338.2 577.5 338.2 573.75 334.55 570.1 330.9 570.1 325.45 570.1 319.85 573.75 316.2 M 622 310.5 Q 618.5 308.1 614.2 308.1 609.85 308.1 607.05 310.6 604.25 313.15 604.25 317.05 604.25 319.7 605.8 321.8 607.2 323.8 610.7 325.9 L 614.3 328.1 Q 618.8 330.9 618.8 334 618.8 335.8 617.25 337.1 615.7 338.35 613.5 338.35 608.3 338.35 604.5 333.45 L 604.5 339.6 Q 608.6 342.7 613.5 342.7 617.8 342.7 620.6 340.15 623.3 337.65 623.3 333.6 623.3 327.85 617.1 324.2 L 613.5 321.95 Q 610.95 320.55 609.85 319.15 608.7 317.9 608.7 316.35 608.7 314.7 610.25 313.55 611.8 312.45 614.2 312.45 618.4 312.45 622 315.95 L 622 310.5 M 523.5 308.5 L 518.7 308.5 518.7 342.25 523.5 342.25 523.5 308.5 M 559.3 316.65 Q 556.95 312.7 553 310.6 548.95 308.5 542.1 308.5 L 530.75 308.5 530.75 342.25 541.4 342.25 Q 545.85 342.25 547.4 342 549.1 341.7 550.9 341 554.25 339.75 556.65 337.35 559.15 335 560.45 331.9 561.7 328.8 561.7 325.45 561.7 320.7 559.3 316.65 M 549.95 314.25 Q 551.75 314.95 553 316.35 556.65 319.7 556.65 325.2 556.65 330.65 553.15 334.3 552.05 335.4 550.75 336.25 549.35 336.95 547.4 337.5 545.3 337.9 541.7 337.9 L 535.5 337.9 535.5 312.85 541.55 312.85 Q 545.05 312.85 546.55 313.15 548.25 313.4 549.95 314.25 M 553.85 260.65 Q 553.85 258 552.75 256.05 551.45 254.1 549.1 252.95 546.7 251.85 542.65 251.85 L 533.85 251.85 533.85 285.55 545.15 285.55 Q 549.1 285.55 551.6 284.3 554.15 283.05 555.55 280.95 556.8 279 556.8 276.35 556.8 273.1 554.7 270.75 552.45 268.5 548.8 267.8 553.85 265.55 553.85 260.65 M 548.95 261.1 Q 548.95 263.3 547.25 264.85 545.6 266.25 541.8 266.25 L 538.6 266.25 538.6 256.2 542.8 256.2 Q 548.95 256.2 548.95 261.1 M 538.6 270.6 L 543.05 270.6 Q 546.7 270.6 548.4 271.15 550.05 271.85 550.9 273.1 551.9 274.35 551.9 275.9 551.9 277.45 551.05 278.7 550.05 280.1 548.65 280.65 547.25 281.25 543.35 281.25 L 538.6 281.25 538.6 270.6 M 513.4 266.4 L 513.4 256.2 527.7 256.2 527.7 251.85 508.65 251.85 508.65 285.55 528.1 285.55 528.1 281.25 513.4 281.25 513.4 270.75 527.25 270.75 527.25 266.4 513.4 266.4 M 581.45 285.55 L 581.45 281.25 566.3 281.25 566.3 251.85 561.55 251.85 561.55 285.55 581.45 285.55 M 586.9 256.3 Q 581.85 261.2 581.85 268.8 581.85 276.2 586.9 281.1 591.95 286 599.65 286 607.6 286 612.8 281.1 618.1 276.2 618.1 268.8 618.1 261.2 612.9 256.3 607.6 251.4 599.9 251.4 592.05 251.4 586.9 256.3 M 590.55 259.55 Q 594.3 256.05 600.05 256.05 605.5 256.05 609.3 259.7 613.05 263.3 613.05 268.65 613.05 274.1 609.3 277.85 605.5 281.5 599.9 281.5 594.3 281.5 590.55 277.85 586.9 274.25 586.9 268.8 586.9 263.2 590.55 259.55 M 483.85 308.5 L 480.1 308.5 480.1 342.25 484.55 342.25 484.55 316.35 507.1 342.25 511.3 342.25 511.3 308.5 506.7 308.5 506.7 334.7 483.85 308.5 M 474.5 308.5 L 469.6 308.5 469.6 327.7 Q 469.6 331.6 469.05 333.3 468.35 335 466.95 336.1 464.25 338.35 459.95 338.35 456.85 338.35 454.75 337.35 452.5 336.1 451.4 334.3 450.25 332.45 450.25 327.7 L 450.25 308.5 445.5 308.5 445.5 327.7 Q 445.5 331.75 446.05 333.6 446.5 335.55 447.35 336.8 448.15 338.2 449.45 339.2 453.35 342.7 459.95 342.7 466.35 342.7 470.45 339.2 471.7 338.2 472.55 336.8 473.35 335.55 473.95 333.6 474.5 331.6 474.5 327.7 L 474.5 308.5 M 362.8 251.85 L 351.45 251.85 351.45 285.55 362.1 285.55 Q 366.55 285.55 368.1 285.3 369.8 285 371.6 284.3 374.95 283.05 377.35 280.65 379.85 278.3 381.1 275.2 382.4 272.15 382.4 268.8 382.4 264 380 259.95 377.6 256.05 373.7 253.95 369.65 251.85 362.8 251.85 M 356.2 256.2 L 362.2 256.2 Q 365.7 256.2 367.25 256.45 368.95 256.75 370.6 257.6 372.45 258.3 373.7 259.7 377.35 263.05 377.35 268.5 377.35 273.95 373.85 277.6 372.7 278.7 371.45 279.55 370.05 280.25 368.1 280.8 366 281.25 362.35 281.25 L 356.2 281.25 356.2 256.2 M 469.75 266.7 Q 471.15 264.45 471.15 261.5 471.15 257 468.35 254.5 465.4 251.85 460.65 251.85 L 450 251.85 450 285.55 454.75 285.55 454.75 271 458.4 271 Q 463.15 271 465.65 269.9 468.2 268.9 469.75 266.7 M 454.75 256.2 L 459.8 256.2 Q 466.25 256.2 466.25 261.35 466.25 263.9 464.55 265.3 463 266.7 460.05 266.7 L 454.75 266.7 454.75 256.2 M 478 251.85 L 473.25 251.85 473.25 271 Q 473.25 275.05 473.8 276.9 474.2 278.85 475.05 280.1 475.9 281.5 477.15 282.5 481.05 286 487.65 286 494.1 286 498.15 282.5 499.4 281.5 500.25 280.1 501.1 278.85 501.65 276.9 502.2 274.95 502.2 271 L 502.2 251.85 497.3 251.85 497.3 271 Q 497.3 274.95 496.75 276.6 496.05 278.3 494.65 279.4 492 281.65 487.65 281.65 484.55 281.65 482.45 280.65 480.25 279.4 479.1 277.6 478 275.75 478 271 L 478 251.85 M 417.25 251.85 L 412.5 251.85 412.5 285.55 432.35 285.55 432.35 281.25 417.25 281.25 417.25 251.85 M 405.9 256.2 L 405.9 251.85 386.85 251.85 386.85 285.55 406.3 285.55 406.3 281.25 391.6 281.25 391.6 270.75 405.5 270.75 405.5 266.4 391.6 266.4 391.6 256.2 405.9 256.2 M 492.8 156.95 L 492.8 77.05 457.85 77.05 457.85 155.4 Q 457.85 173.2 446.9 182.4 437.4 190.4 422 190.4 406.6 190.4 397.1 181.7 387.3 172.9 387.3 157.9 L 387.3 77.05 352.15 77.05 352.15 157.1 Q 352.15 188.6 372 204.65 390.2 219.65 422.4 219.65 454.2 219.65 472.1 205.8 492.8 189.7 492.8 156.95 M 591.1 77.85 Q 579.75 75.2 568 75.2 543.65 75.2 528.95 86.25 514.4 97.3 514.4 115.65 514.4 132.75 525.6 143.95 533.7 152.05 550.2 158.5 559.05 162.1 574.7 168 585.9 173.45 585.9 180.9 585.9 187.05 580.75 190.4 575.4 193.75 565.35 193.75 553.7 193.75 543.05 189.85 532.45 185.8 517.2 175.7 L 517.2 205.95 Q 530.9 213.05 538.6 215.6 551.45 219.65 568 219.65 592.05 219.65 606.9 208.45 622.15 196.7 622.15 176.95 622.15 160.3 610.95 149.1 602.7 141 586.35 134.25 568.4 127.85 561.7 124.6 550.5 119.3 550.5 112.45 550.5 107.25 556.1 104.2 561.7 100.95 571.2 100.95 L 580.3 101.65 589 103.5 615.7 113.55 615.7 86.1 Q 602.3 80.4 591.1 77.85 M 821.35 308.5 L 812.95 308.5 812.95 342.25 817.7 342.25 817.7 327.55 818.95 327.55 Q 821.35 327.55 822.35 328.1 823.3 328.7 824.55 329.95 825.85 331.2 827.35 333.15 L 830.45 338.35 831.45 339.6 Q 831.55 339.9 831.7 340 L 833.1 342.25 838.85 342.25 834.25 335.55 Q 831.45 330.9 829.9 329.1 828.35 327.3 826.8 326.3 829.45 325.2 831 323.1 832.4 320.85 832.4 317.9 832.4 313.55 829.45 311.05 826.4 308.5 821.35 308.5 M 817.7 312.7 L 819.1 312.7 Q 822.75 312.7 824.3 313.15 825.85 313.7 826.65 314.95 827.5 316.35 827.5 317.9 827.5 319.6 826.65 320.85 825.95 322.1 824.55 322.65 823.15 323.35 819.55 323.35 L 817.7 323.35 817.7 312.7 M 846.95 308.5 L 842.2 308.5 842.2 342.25 846.95 342.25 846.95 308.5 M 884.2 342.25 L 889.1 342.25 893.3 332.3 907.7 332.3 912.2 342.25 917.25 342.25 902.1 308.4 898.6 308.4 884.2 342.25 M 905.75 328 L 895.25 328 900.3 315.8 905.75 328 M 870.9 312.7 Q 876.5 312.7 882.4 316.1 L 882.4 310.9 Q 875.95 308.1 870.6 308.1 862.9 308.1 857.75 313.15 852.4 318.2 852.4 325.45 852.4 330.2 854.8 334.15 857.05 338.05 860.95 340.45 864.9 342.7 870.5 342.7 877.5 342.7 882.8 339.75 L 882.8 334.4 Q 876.9 338.2 870.9 338.2 865 338.2 861.25 334.7 857.45 331.05 857.45 325.45 857.45 320 861.25 316.35 865.15 312.7 870.9 312.7 M 883.8 256.2 L 883.8 251.85 855.65 251.85 855.65 256.2 867.25 256.2 867.25 285.55 872 285.55 872 256.2 883.8 256.2 M 829.75 256.2 L 829.75 251.85 810.7 251.85 810.7 285.55 830.15 285.55 830.15 281.25 815.45 281.25 815.45 270.75 829.35 270.75 829.35 266.4 815.45 266.4 815.45 256.2 829.75 256.2 M 838.55 259.7 Q 838.55 258 840.1 256.9 841.65 255.75 844.05 255.75 848.25 255.75 851.85 259.25 L 851.85 253.8 Q 848.35 251.4 844.05 251.4 839.7 251.4 836.9 253.95 834.1 256.45 834.1 260.4 834.1 263.05 835.65 265.15 837.05 267.1 840.55 269.2 L 844.15 271.45 Q 848.65 274.25 848.65 277.3 848.65 279.15 847.1 280.4 845.55 281.65 843.35 281.65 838.15 281.65 834.35 276.75 L 834.35 282.9 Q 838.45 286 843.35 286 847.65 286 850.45 283.45 853.1 280.95 853.1 276.9 853.1 271.15 846.95 267.5 L 843.35 265.3 Q 840.8 263.9 839.7 262.5 838.55 261.2 838.55 259.7 M 899.45 251.7 L 895.95 251.7 881.55 285.55 886.45 285.55 890.65 275.65 905.05 275.65 909.55 285.55 914.55 285.55 899.45 251.7 M 903.1 271.3 L 892.6 271.3 897.65 259.1 903.1 271.3 M 929.55 251.85 L 918.2 251.85 918.2 285.55 928.85 285.55 Q 933.35 285.55 934.85 285.3 936.55 285 938.35 284.3 941.75 283.05 944.1 280.65 946.65 278.3 947.9 275.2 949.15 272.15 949.15 268.8 949.15 264 946.75 259.95 944.4 256.05 940.45 253.95 936.4 251.85 929.55 251.85 M 922.95 256.2 L 929 256.2 Q 932.5 256.2 934.05 256.45 935.7 256.75 937.4 257.6 939.2 258.3 940.45 259.7 944.1 263.05 944.1 268.5 944.1 273.95 940.6 277.6 939.5 278.7 938.25 279.55 936.85 280.25 934.85 280.8 932.75 281.25 929.15 281.25 L 922.95 281.25 922.95 256.2 M 781.45 308.5 L 777 308.5 765.9 322.4 754.6 308.5 750.1 308.5 750.1 342.25 754.85 342.25 754.85 316.1 765.35 329.1 766.35 329.1 776.7 316.1 776.7 342.25 781.45 342.25 781.45 308.5 M 807.05 312.85 L 807.05 308.5 788.05 308.5 788.05 342.25 807.5 342.25 807.5 337.9 792.8 337.9 792.8 327.4 806.65 327.4 806.65 323.1 792.8 323.1 792.8 312.85 807.05 312.85 M 802.05 298.85 L 797.15 298.85 793.75 306.15 796.55 306.15 802.05 298.85 M 664.6 310.6 Q 660.5 308.5 653.65 308.5 L 642.3 308.5 642.3 342.25 652.95 342.25 Q 657.45 342.25 659 342 660.65 341.7 662.5 341 665.85 339.75 668.2 337.35 670.75 335 672 331.9 673.25 328.8 673.25 325.45 673.25 320.7 670.85 316.65 668.5 312.7 664.6 310.6 M 653.1 312.85 Q 656.6 312.85 658.15 313.15 659.8 313.4 661.5 314.25 663.3 314.95 664.6 316.35 668.2 319.7 668.2 325.2 668.2 330.65 664.7 334.3 663.6 335.4 662.35 336.25 660.95 336.95 659 337.5 656.9 337.9 653.25 337.9 L 647.1 337.9 647.1 312.85 653.1 312.85 M 718.45 342.25 L 722.65 332.3 737.1 332.3 741.55 342.25 746.6 342.25 731.5 308.4 728 308.4 713.55 342.25 718.45 342.25 M 729.65 315.8 L 735.1 328 724.65 328 729.65 315.8 M 697.6 312.85 L 697.6 308.5 678.55 308.5 678.55 342.25 698.05 342.25 698.05 337.9 683.35 337.9 683.35 327.4 697.2 327.4 697.2 323.1 683.35 323.1 683.35 312.85 697.6 312.85 M 666.25 259.95 Q 663.9 256.05 659.95 253.95 655.9 251.85 649.05 251.85 L 637.7 251.85 637.7 285.55 648.35 285.55 Q 652.8 285.55 654.35 285.3 656.05 285 657.85 284.3 661.2 283.05 663.6 280.65 666.1 278.3 667.35 275.2 668.65 272.15 668.65 268.8 668.65 264 666.25 259.95 M 656.9 257.6 Q 658.7 258.3 659.95 259.7 663.6 263.05 663.6 268.5 663.6 273.95 660.1 277.6 659 278.7 657.7 279.55 656.3 280.25 654.35 280.8 652.25 281.25 648.6 281.25 L 642.45 281.25 642.45 256.2 648.5 256.2 Q 652 256.2 653.5 256.45 655.2 256.75 656.9 257.6 M 678 266.4 L 678 256.2 692.3 256.2 692.3 251.85 673.25 251.85 673.25 285.55 692.7 285.55 692.7 281.25 678 281.25 678 270.75 691.85 270.75 691.85 266.4 678 266.4 M 790.15 259.25 L 790.15 253.8 Q 786.65 251.4 782.3 251.4 777.95 251.4 775.15 253.95 772.35 256.45 772.35 260.4 772.35 263.05 773.9 265.15 775.3 267.1 778.8 269.2 L 782.45 271.45 Q 786.9 274.25 786.9 277.3 786.9 279.15 785.4 280.4 783.85 281.65 781.6 281.65 776.4 281.65 772.65 276.75 L 772.65 282.9 Q 776.7 286 781.6 286 785.95 286 788.75 283.45 791.4 280.95 791.4 276.9 791.4 271.15 785.25 267.5 L 781.6 265.3 Q 779.1 263.9 777.95 262.5 776.85 261.2 776.85 259.7 776.85 258 778.4 256.9 779.9 255.75 782.3 255.75 786.5 255.75 790.15 259.25 M 731.2 285.55 L 731.2 281.25 716.1 281.25 716.1 251.85 711.35 251.85 711.35 285.55 731.2 285.55 M 763.7 256.3 Q 758.35 251.4 750.65 251.4 742.8 251.4 737.65 256.3 732.6 261.2 732.6 268.8 732.6 276.2 737.65 281.1 742.7 286 750.4 286 758.35 286 763.55 281.1 768.85 276.2 768.85 268.8 768.85 261.2 763.7 256.3 M 750.8 256.05 Q 756.25 256.05 760.05 259.7 763.8 263.3 763.8 268.65 763.8 274.1 760.05 277.85 756.25 281.5 750.65 281.5 745.05 281.5 741.3 277.85 737.65 274.25 737.65 268.8 737.65 263.2 741.3 259.55 745.05 256.05 750.8 256.05 M 988.75 268.8 Q 988.75 261.2 983.6 256.3 978.25 251.4 970.55 251.4 962.75 251.4 957.55 256.3 952.5 261.2 952.5 268.8 952.5 276.2 957.55 281.1 962.6 286 970.3 286 978.25 286 983.45 281.1 988.75 276.2 988.75 268.8 M 979.95 259.7 Q 983.7 263.3 983.7 268.65 983.7 274.1 979.95 277.85 976.15 281.5 970.55 281.5 964.95 281.5 961.2 277.85 957.55 274.25 957.55 268.8 957.55 263.2 961.2 259.55 964.95 256.05 970.7 256.05 976.15 256.05 979.95 259.7 M 1010.75 259.25 L 1010.75 253.8 Q 1007.25 251.4 1002.9 251.4 998.55 251.4 995.75 253.95 992.95 256.45 992.95 260.4 992.95 263.05 994.5 265.15 995.9 267.1 999.4 269.2 L 1003.05 271.45 Q 1007.5 274.25 1007.5 277.3 1007.5 279.15 1006 280.4 1004.45 281.65 1002.2 281.65 997 281.65 993.25 276.75 L 993.25 282.9 Q 997.3 286 1002.2 286 1006.55 286 1009.35 283.45 1012 280.95 1012 276.9 1012 271.15 1005.85 267.5 L 1002.2 265.3 Q 999.7 263.9 998.55 262.5 997.45 261.2 997.45 259.7 997.45 258 999 256.9 1000.5 255.75 1002.9 255.75 1007.1 255.75 1010.75 259.25 Z"/>
</g>
<g id="l6">
<path fill="#002F6C" stroke="none" d="M 305.7 154.05 Q 305.7 93.25 262.7 50.3 219.7 7.3 158.9 7.3 98.1 7.3 55.1 50.3 12.1 93.25 12.1 154.05 12.1 214.85 55.1 257.85 98.1 300.8 158.9 300.8 219.7 300.8 262.7 257.85 305.7 214.85 305.7 154.05 Z"/>
</g>
<g id="l5">
<path fill="#FFFFFF" stroke="none" d="M 304.5 154.15 Q 304.5 93.8 261.85 51.15 219.2 8.5 158.9 8.5 98.55 8.5 55.95 51.15 13.3 93.8 13.3 154.15 13.3 214.45 55.95 257.1 98.55 299.75 158.9 299.75 219.2 299.75 261.85 257.1 304.5 214.45 304.5 154.15 Z"/>
</g>
<g id="l4">
<path fill="#002F6C" stroke="none" d="M 276.2 154.15 Q 276.2 105.55 241.85 71.2 207.5 36.85 158.85 36.85 110.25 36.85 75.9 71.2 41.55 105.55 41.55 154.15 41.55 202.7 75.9 237.05 110.25 271.4 158.85 271.4 207.5 271.4 241.85 237.05 276.2 202.7 276.2 154.15 M 241 72.05 Q 274.95 106.05 274.95 154.15 274.95 202.2 241 236.15 206.95 270.15 158.9 270.15 110.8 270.15 76.8 236.15 42.8 202.2 42.8 154.15 42.8 106.05 76.8 72.05 110.8 38.1 158.9 38.1 206.95 38.1 241 72.05 Z"/>
</g>
<g id="l3">
<path fill="#212721" stroke="none" d="M 201.85 157.65 L 198.7 160.45 197.85 160.95 196.35 162.2 196.35 162.3 195.75 162.85 Q 195.45 163 195.4 163.1 195.1 163.25 195.25 163.25 L 195.7 163.45 196.85 163.6 Q 197.85 163.6 198.4 163.65 199.35 163.75 199.65 163.5 L 203.4 160 203.5 159.85 205.05 158.1 205.35 157.65 Q 205.5 157.45 205.4 157.45 L 199.8 162.05 199.55 162.15 197.35 162.7 197.25 162.7 197.2 162.65 197.25 162.55 197.85 162.1 198.15 161.95 198.25 161.8 199 161.3 203.5 156.5 203.55 156.4 203.3 156.6 203.2 156.7 202.6 157.1 Q 202.4 157.15 201.85 157.65 M 211.85 138 L 212.55 137.85 221.1 137.5 Q 221.6 137.5 221.85 137.5 L 222.55 137.5 Q 222.8 137.6 222.8 137.85 L 222.7 138 221.8 138.9 221.75 139.05 221.8 139.05 221.95 139 224.35 137.5 224.9 137.25 225.1 137.5 225.05 137.85 224.3 138.75 224.75 138.75 226.3 137.9 226.3 136.1 215.85 136.45 Q 214.45 136.55 213.3 136.55 L 205.95 136.85 Q 204.95 136.85 204.85 136.9 L 198.6 137.05 Q 196.75 137.05 196.65 137.15 L 196.2 137.15 193.9 137.35 193.2 137.35 Q 192.7 137.4 190.85 137.35 189 137.35 188.95 137.25 L 187.6 137.05 181.55 136.7 178.6 136.25 177 135.75 176.8 135.75 176.1 135.55 176 135.5 175.5 135.4 175.4 135.35 175.25 135.35 Q 175.25 135.25 175.05 135.25 L 174.45 135.15 173.5 134.8 173.4 134.8 173.1 134.7 172.85 134.7 Q 172.85 134.6 172.6 134.6 L 172.35 134.45 171.65 134.35 168.65 133.35 168.6 133.35 168.3 133.2 168.25 133.15 168.1 133.15 167.75 133.05 167.55 132.85 167.5 132.85 167.45 132.8 167.35 132.8 167.25 132.75 167.15 132.75 166.4 132.4 166.2 132.35 165.7 132.05 165.35 131.9 165.15 131.75 165.1 131.7 162.45 130.95 162.25 130.95 162.15 130.9 161.85 130.85 161.6 130.85 161.45 130.75 161.3 130.75 160.1 130.6 154.3 130.35 153.3 130.2 152.95 130.2 151.85 130.05 151.5 130.05 149.3 129.6 149.1 129.6 148.95 129.55 147.65 129.25 147.45 129.25 146.1 128.95 143.5 128.9 Q 143.2 128.9 142.85 129.1 L 139.15 131.3 137.8 131.9 135.1 132.75 Q 134.8 132.75 134.8 132.8 L 134.1 132.85 133.8 132.95 133.5 132.95 133.15 133.05 132.9 133.05 132.6 133.1 132.3 133.4 132.25 133.65 Q 132 134 132 134.6 L 132.25 135.4 Q 132.35 135.85 132.15 135.9 L 131.65 136.1 131.5 136.25 131.4 136.25 131.05 136.35 130.95 136.35 130.15 136.55 127.8 136.9 119.55 137.05 119.2 137 118.85 137 118.5 136.9 117.15 136.85 116.75 136.8 116.4 136.8 113.25 136.55 112.9 136.45 112.25 136.45 111.2 136.3 105.55 136.2 105.2 136.1 104.9 136.1 103.15 135.95 Q 102.3 135.95 102.05 135.9 L 92.05 135.85 92.05 138.05 92.2 137.95 93.6 137.2 94.5 137.2 94.5 137.25 Q 94.5 137.5 94.3 137.75 L 92.55 139.45 92.75 139.5 94.05 138.85 94.1 138.85 94.1 138.75 94.2 138.75 94.4 138.65 94.55 138.55 94.55 138.5 94.75 138.45 94.75 138.35 94.9 138.3 95.1 138.2 95.35 138 96.9 137.35 97.1 137.35 97.25 137.25 97.4 137.35 Q 97.55 137.5 97.45 137.7 L 95.25 139.85 Q 95.25 139.95 95.55 139.8 L 97.65 138.65 97.9 138.55 99.55 137.75 99.55 137.7 99.75 137.7 100 137.5 100.7 137.5 100.7 137.6 Q 100.7 137.85 100.4 137.85 L 100.25 137.95 99.85 138.35 Q 99.75 138.35 98.85 139.25 L 98.4 139.7 98.5 139.7 98.7 139.6 98.85 139.5 99.4 139.35 100 139 100.9 138.65 101.05 138.65 102.65 137.85 103.05 137.85 Q 103.7 137.85 103.65 137.95 L 103.5 138 101.35 139.95 102.4 139.45 102.6 139.4 105.7 137.95 106.1 137.85 Q 106.45 137.85 106.5 137.85 106.55 137.95 106.45 138.1 L 104.45 140.05 105.25 139.7 105.6 139.5 107.05 138.85 107.05 138.75 107.35 138.7 108.65 138.15 Q 108.9 138 109.3 138 109.6 138 109.55 138.15 L 109.45 138.3 108 139.6 107.7 139.8 107.55 140.05 Q 107.35 140.2 107.6 140.05 L 111.8 138.35 121.4 138.45 121.2 139 121.2 139.05 Q 121.2 139.1 121.25 139.05 121.6 139.05 121.85 138.75 L 122.3 138.55 123 138.35 124.15 138.35 Q 124.2 138.45 124 138.9 123.8 139.25 124 139.1 L 125.15 138.65 125.25 138.55 125.3 138.55 125.35 138.5 125.45 138.5 125.5 138.45 Q 125.85 138.3 126.4 138.35 L 126.85 138.35 Q 127 138.35 126.85 138.7 L 126.65 139.05 126.95 139 128.15 138.45 129.55 138.35 Q 129.65 138.45 129.5 138.55 L 129.1 139.5 131.05 138.35 131.65 138.1 132 138 Q 132.6 137.85 132.65 137.95 L 132.65 138 132.7 138.15 132.7 138.3 131.9 139.05 131.3 139.45 131.5 139.45 133.5 138.75 133.75 138.55 133.85 138.55 Q 133.95 138.5 134 138.55 134.1 138.65 134.1 138.55 L 134.3 139 134.3 139.1 134.2 139.2 133.8 139.7 133.5 139.95 133.3 140.2 133.15 140.35 Q 132.8 140.55 133.5 140.3 L 135.05 139.4 Q 135.95 139 136.1 139.25 L 136.15 139.25 136.3 139.5 135.4 140.3 Q 134.45 141.2 134.35 141.2 L 134.15 141.35 134.2 141.35 135.8 140.65 136.4 140.5 137.6 139.95 Q 137.8 139.8 138 139.8 L 138.25 139.85 Q 138.5 140.05 138.15 140.5 L 137.8 140.85 137.35 141.1 137 141.45 Q 136.85 141.55 136.5 141.9 136.15 142.25 136.15 142.35 L 138.15 141.35 138.2 141.3 140.45 140.2 140.85 140.05 141.15 139.85 141.55 139.7 141.65 139.6 142 139.7 Q 142.05 139.8 141.9 139.95 L 141.1 141 140.85 141.2 140.95 141.2 Q 141.2 141.2 141.55 140.9 L 141.75 140.85 141.8 140.75 145.25 139.1 Q 145.45 139.05 145.6 139.25 145.75 139.4 145.6 139.6 L 145.45 139.8 Q 145.2 139.95 145.4 139.95 L 147 139.35 147.1 139.25 148.2 138.9 148.3 138.9 148.3 138.85 148.6 138.85 148.75 138.75 150.45 138.55 150.8 138.55 151.3 138.65 152.05 138.65 155.45 139.05 158.05 139.7 160.45 141 Q 160.6 141.1 161.05 141.55 L 161.4 141.8 161.6 142 163.25 143.1 163.65 143.3 163.85 143.5 165.35 144.25 165.95 144.45 166.4 144.75 167.9 145.35 167.95 145.4 169.4 146.2 169.6 146.25 170.5 146.7 174.35 149.05 177.25 151.7 177.7 152.2 Q 177.9 152.5 177.9 152.65 L 178.05 152.95 178.05 153 178.25 153.65 178.3 153.7 178.4 154 178.75 154.7 178.8 154.85 178.9 155.3 179.1 155.5 179.25 156.05 179.35 156.15 179.35 156.35 179.5 156.7 180.3 159.35 180.6 159.9 181.25 162.15 Q 181.35 162.5 181.25 163.05 L 181.25 163.6 181.2 163.8 180.25 164.9 179.95 165.15 Q 179.45 165.55 179.15 165.65 178.45 166.05 178.1 166.05 L 177.95 166.15 177.15 166.4 176.7 166.35 Q 176.6 166.15 176.75 166.05 L 177.25 165.85 177.6 165.65 178.6 165.2 178.65 165.2 178.75 165.15 180.1 163.85 180.5 163.35 180.65 163 180.5 163 180.4 163.1 178.05 164.3 177.25 164.55 Q 176.95 164.8 176.25 164.9 L 175.75 164.85 175.7 164.5 176.75 163.8 Q 177.25 163.75 177.6 163.35 L 178.55 162.7 178.55 162.65 179 162.15 Q 179 162.1 178.55 162.2 L 178.05 162.35 Q 177.75 162.35 177.75 162.45 L 177.5 162.5 176.05 163.1 175.65 163.1 175.4 163.2 175.4 163.05 Q 175.15 163 175.15 162.7 L 175.3 162.5 176.75 161.75 176.95 161.6 177.25 161.45 177.85 160.95 177.9 160.8 178.05 160.6 175.25 161.45 Q 174.8 161.45 174.7 161.35 174.55 161.15 174.6 161 174.6 160.8 174.95 160.6 L 176 160.1 176.8 159.55 177.95 158.45 Q 177.95 158.2 177.4 158.7 L 175.75 159.5 174.55 159.85 173.65 159.9 Q 173.6 159.85 173.65 159.6 L 173.85 159.4 175.4 158.7 175.4 158.65 176.4 157.9 Q 176.75 157.65 176.9 157.35 L 176.95 157.15 177.15 156.8 177.35 156.15 177.4 155.7 177.25 156.1 Q 176.9 156.6 176.25 156.85 176.05 157.05 175.85 156.95 L 175.7 156.95 175.65 156.8 Q 175.6 156.7 175.65 156.5 L 175.7 156.45 175.7 156.4 175.85 156.1 176 156 176.2 155.55 176.25 155.55 176.35 155.35 176.7 154.85 Q 177.15 154.05 177.1 153.7 L 177.1 153.55 176.95 153.3 176.8 153.6 Q 176.55 154.05 176.45 154.15 L 176.35 154.4 174.9 155.9 172.35 157.65 172.55 157.85 Q 172.75 157.9 173.05 157.8 L 174.35 157.5 174.45 157.55 173.65 158.3 172.35 158.6 170.65 157.05 168.65 155.9 168.15 155.55 167.7 155.35 167.15 154.85 168.6 153.7 Q 168.95 153.65 169.4 153.1 169.7 152.65 169.9 152.65 L 170.05 152.55 166.9 153.7 Q 166.55 153.85 166.3 154.05 166.25 154.2 166.05 154 165.95 153.8 165.95 153.7 L 165.95 153.65 Q 165.95 153.55 166.25 153.3 L 167.25 152.65 167.95 152 168.15 151.85 166.55 152.35 Q 166.2 152.55 165.95 152.55 L 164.9 152.9 164.65 152.75 164.95 152.5 165 152.35 165.35 152.05 Q 165.4 152 165.75 151.8 L 166.55 151.2 Q 166.8 151.05 166.65 151.05 L 165.95 151.25 Q 165.5 151.45 165.15 151.45 165.15 151.35 164.8 151.5 L 164.1 151.7 Q 163.85 151.7 163.85 151.5 163.85 151.25 164 151.1 L 165.6 149.85 165.7 149.75 Q 165.75 149.7 165.7 149.7 L 163.85 150.2 162.95 150.35 Q 162.7 150.45 162.6 150.35 162.45 150.3 162.55 150.1 L 163.75 149 Q 164.35 148.65 163.85 148.8 L 162.35 149.15 Q 161.65 149.4 161.45 149.35 161.15 149.35 161.15 149.05 L 161.1 148.85 Q 161.1 148.55 161.65 148.2 L 162.1 148 162.15 147.95 162.6 147.6 162.8 147.55 162.95 147.4 163.1 147.2 163.25 147.15 163.75 146.6 163.4 146.7 Q 162.6 147.2 162.25 147.4 L 161.75 147.55 161.05 147.85 Q 160.5 148.1 160.15 148.1 L 159.95 148.1 159.9 148 Q 159.75 147.9 159.8 147.75 L 159.9 147.6 160.75 146.8 161.3 146.45 Q 162.2 145.75 162.1 145.75 L 158.25 147.5 158.35 147.75 158.5 147.9 158.65 147.95 159.3 148.65 159.9 150.05 159.9 150.15 159.95 150.2 159.95 150.35 160.25 150.75 162.8 153.2 163.1 153.3 164.2 154.15 164.45 154.4 165.1 154.85 165.25 155 167.5 156.75 167.9 157.15 168.6 157.5 168.65 157.55 168.75 157.55 168.85 157.65 169.1 157.8 169.2 157.9 169.25 157.9 169.25 158 169.4 158 169.9 158.35 Q 169.9 158.2 170.6 158.85 L 171.3 159.4 172.45 160.8 172.55 161.05 172.7 161.15 172.95 161.75 Q 173.25 162.1 173.45 162.8 L 173.5 162.9 173.5 163.1 173.75 163.6 173.75 164.8 173.65 164.9 173.6 165.15 173.05 166.2 172.7 166.7 172.6 166.75 172.25 167.1 170.15 168.7 Q 170.6 168.65 170.6 168.5 L 170.85 168.45 Q 171.55 168.35 172 168 L 172.25 167.85 173.5 166.7 173.75 166.55 173.8 166.5 174.1 166.3 174.2 166.15 174.35 166.05 Q 174.45 166 174.45 166.05 L 174.55 166.2 Q 174.6 166.5 174.45 166.75 L 174 167.65 173.25 168.45 171.75 169.65 Q 171.3 169.95 171.2 169.9 L 171.2 169.95 171.1 170.05 170.95 170.1 Q 170.95 170.3 171.6 170.1 L 171.9 170.05 Q 172.25 170.05 172.45 169.85 L 172.6 169.7 172.95 169.55 174.2 168.65 174.45 168.4 Q 174.8 168.1 174.95 167.95 L 175.15 167.7 Q 175.15 167.65 175.3 167.85 L 175.4 168.3 Q 175.4 168.8 175.15 168.95 L 174.95 169.2 174.2 169.95 173.4 170.55 172.9 170.7 171.9 171.4 Q 171.9 171.5 172.5 171.35 L 173.4 171.15 173.6 171.15 174.35 170.8 174.45 170.8 174.55 170.7 Q 174.7 170.6 175.15 170.3 175.5 170.2 175.4 170.65 175.15 171 174.45 171.6 174.1 171.95 173.4 172.3 L 172.6 172.65 172.75 172.7 173.2 172.7 Q 173.45 172.7 174 172.6 174.35 172.5 174.35 172.65 174.45 172.8 174.25 172.85 L 174.1 173.05 Q 174.1 173.15 173.85 173.15 L 173.2 173.7 172.5 173.95 171.8 173.75 170.7 172.7 170.05 171.55 169.75 171.2 169.6 170.85 168.15 168.7 167.9 168.5 167.8 168.45 167.75 168.2 166.9 167.35 166.8 167.35 166.75 167.25 166.05 166.4 165.85 166.3 165.3 165.7 163.1 164.1 162.45 163.45 162.25 163.4 160 161.7 159.75 161.4 159.65 161.4 159.05 160.95 159 160.95 158.6 160.5 158.4 160.45 157.55 159.75 157.25 159.6 157.2 159.55 Q 157.2 159.6 156.9 159.35 L 157.1 159.25 157.25 159.2 157.25 159.15 157.45 159.05 159.45 157.05 Q 159.75 156.75 159.65 156.75 L 157.1 158.2 Q 156.8 158.55 156.3 158.55 L 156.1 158.55 156.05 158.45 Q 155.9 158.45 155.9 158.25 L 156.1 157.9 157.75 156.5 159 155.15 Q 159.05 155.15 159 155.1 L 158.85 155.2 158.5 155.35 158.4 155.45 157.8 155.85 157.25 156.1 156.05 156.95 155.5 157.2 155.35 157.35 Q 155.1 157.5 154.4 158.2 L 154.1 158.45 154.45 158.6 Q 155.1 158.85 155.1 159 L 155.2 159.05 155.6 159.5 156.15 159.85 156.3 159.9 156.6 160.35 156.5 160.6 156.3 160.65 Q 156.3 160.6 156.1 160.6 155.95 160.65 155.9 160.6 L 155.5 160.6 155.15 160.65 Q 155.15 160.7 155.5 160.95 155.9 161.15 155.95 161.15 L 156.15 161.15 156.15 161.3 156.4 161.35 Q 156.75 161.4 156.9 161.6 L 157.25 161.8 157.65 161.95 158.6 162.5 Q 158.95 162.65 159.1 162.9 L 160.25 163.65 160.45 163.75 161.15 164.3 161.8 164.65 161.9 164.85 162.1 164.85 162.45 165 163.05 165.55 163.15 165.55 163.75 166 163.75 166.15 163.95 166.2 164.05 166.35 164.05 166.4 164.2 166.6 164.25 166.8 164.35 166.95 164.4 167.6 Q 164.4 167.85 164.45 167.85 164.6 168 164.6 167.85 L 164.8 167.75 164.95 167.65 165.15 167.6 165.35 167.75 Q 165.4 167.7 165.5 167.75 165.6 167.85 165.6 167.95 L 165.7 168 165.75 168.35 165.7 168.7 165.6 168.85 165.5 168.95 165.4 169.15 164.8 169.85 164.65 169.9 164.2 170.25 163.85 170.45 Q 163.65 170.65 163.65 170.55 L 163.6 170.25 163.85 169.9 163.95 169.8 164.35 168.85 164.4 168.65 Q 164.2 168.65 164.05 168.95 L 163.1 169.9 162.7 170.2 161.4 170.85 161.3 170.95 160.9 171 Q 160.5 171.15 160.35 171 L 160.35 170.7 162.1 169.35 162 169.3 Q 161.9 169.15 161.65 169.2 L 161.45 169.35 161.4 169.45 161.05 169.55 160.9 169.55 160.85 169.65 160 170.05 159.8 170.2 159.2 170.45 159 170.45 158 170.8 156.65 171.05 156.5 171.15 156.5 171 Q 156.45 170.8 156.5 170.8 L 156.75 170.7 156.9 170.6 158.35 169.95 159.3 169.35 159.55 169.15 Q 160 169 160 168.75 L 160 168.7 Q 159.95 168.65 159.75 168.75 L 159.1 168.95 Q 156.85 169.85 156.25 169.7 L 156.1 169.55 156.05 169.35 156.1 169.15 156.25 168.95 157 168.45 157.75 168.1 158.25 167.7 158.3 167.65 158.95 167.3 158.95 167.25 159 167.25 159.1 167.1 158.7 167.15 156.6 167.75 Q 155.85 168.1 155.5 168.1 155.1 168.1 155.1 168 L 155 167.95 Q 154.9 167.95 155.2 167.5 L 155.35 167.35 155.5 167.35 155.95 166.9 156.05 166.9 156.1 166.8 157.45 165.95 157.6 165.7 157.55 165.7 155.95 166.3 Q 155.5 166.55 155.15 166.55 L 154.4 166.8 154.05 166.75 153.95 166.75 153.8 166.7 Q 153.75 166.6 153.8 166.55 L 154.3 166 156.4 164.45 153.95 165.25 Q 153 165.6 152.6 165.6 L 152.4 165.45 152.35 165.45 Q 152.25 165.2 152.55 164.95 L 153.6 164.1 154.45 163.6 Q 154.8 163.25 154.6 163.35 L 151.45 164.35 151.15 164.3 151.1 164 153.25 162.2 153.5 162.05 Q 153.35 161.85 151.75 162.65 L 151.25 162.9 150.55 163.1 150.2 163.1 Q 150 163.25 149.85 163 L 149.8 162.7 149.8 162.65 150.45 162.05 150.5 162.05 150.55 161.85 151.25 161.15 152.05 160.6 152.35 160.3 152.25 160.3 151.15 160.85 Q 150.55 161.15 150 161.5 L 149.1 161.95 148.5 162.1 148.3 162.05 148.3 161.95 Q 148.2 161.95 148.3 161.75 L 148.55 161.4 149.8 160.5 149.85 160.45 149.9 160.45 151.6 159.35 150.45 159.25 149.45 158.85 Q 149.25 158.85 149.25 158.8 L 148.95 158.65 148.85 158.55 148.6 158.45 148.35 158.2 148.2 158.2 147.75 157.9 147.65 157.9 147.5 157.85 147.35 157.85 147.25 157.8 147.1 157.8 146.8 157.65 146.5 157.65 145.9 157.9 145.35 158.25 142.65 160.45 140.95 161.4 Q 140.45 161.75 140.35 161.7 L 140.15 161.6 Q 140.05 161.45 140.15 161.3 L 141 160.65 141.35 160.3 141.55 160.2 142.75 159.15 142.95 159 143.15 158.8 143.45 158.65 143.5 158.55 143.85 158.25 144 158 144.15 158 144.25 157.9 Q 144.25 157.65 145.15 157.15 L 145.8 156.5 142.95 158.2 142.95 158.25 142.65 158.3 142.6 158.35 142.45 158.45 142.4 158.55 142.3 158.55 141.7 159 141.4 159.15 141.35 159.2 141 159.35 138.85 161.15 137.85 161.6 Q 137.35 161.8 137.3 161.75 L 137.15 161.4 Q 137.15 161.15 137.3 161.05 137.6 160.6 138.25 160.2 L 138.55 159.9 140.05 158.65 Q 141.5 157.45 141.55 157.15 L 143.65 154.95 142.6 155.7 142.45 155.7 142.45 155.8 142.4 155.8 142.15 156 142.1 156 142 156.1 137.85 159.2 137.8 159.2 137.65 159.25 137.25 159.7 133.5 162.8 133.4 163 133.15 163.1 Q 133 163.4 132.7 163.4 132.65 163.4 132.35 163.35 132 163.1 132.35 162.7 L 132.5 162.55 Q 132.85 162.1 134.45 160.6 L 138.4 156.8 138.6 156.7 138.75 156.5 139 156.4 Q 139.45 156 139.45 155.85 L 139.35 155.7 139.25 155.85 138.65 156.1 137.15 157.1 137.1 157.15 136.85 157.3 136.75 157.45 136.65 157.45 136.55 157.55 136.3 157.65 136.2 157.85 135.8 158.1 135.8 158.2 135.25 158.55 133.3 160.2 132.8 160.5 132.35 160.95 131.95 161.15 131.9 161.3 130.85 161.95 Q 130.5 162.15 130.35 162.05 130.15 161.85 130.45 161.75 L 130.5 161.6 132.5 159.7 132.5 159.6 133.05 159.05 Q 133.6 158.35 134.8 157.35 L 136.15 156.25 136.3 156.05 136.55 155.9 138.2 154.3 Q 138.2 154.2 138.55 153.85 L 138.9 153.55 131.85 158.95 131.4 159.15 131.4 159.2 131.2 159.4 129.1 161.05 128.65 161.3 Q 128.4 161.45 128.15 161.4 128 161.35 128.4 160.95 L 129.65 159.75 129.7 159.75 130.5 158.95 130.65 158.7 131.05 158.3 Q 131.6 157.8 131.65 157.55 L 132.1 157.15 132.1 157.1 133.4 155.85 133.5 155.7 133.3 155.8 Q 133.15 156.15 132.7 156.15 L 132.45 156.35 132.35 156.4 132 156.5 131.5 157.05 131.05 157.2 130.15 158 130 158.1 129.75 158.2 126.05 161.3 125.95 161.35 125.85 161.35 125.65 161.45 125.35 161.5 Q 125.3 161.45 125.5 161.15 L 125.7 160.7 126.15 160.35 126.3 160.1 Q 126.85 159.5 127.3 159.05 L 127.7 158.7 129.4 156.95 129.4 156.85 129.7 156.6 129.75 156.45 129.9 156.35 129.5 156.5 129.15 156.8 128.85 156.95 122.2 162.1 Q 122 162.3 122 162.15 L 121.85 162.05 122.15 161.7 122.15 161.5 122.55 161.15 122.7 160.85 123.4 160 123.45 159.85 124.55 158.65 124.75 158.35 126.2 156.75 125.95 156.85 119.05 162.7 118.15 163.35 117.8 163.45 117.7 163.45 Q 117.65 163.5 117.55 163.45 117.35 163.4 117.65 163.05 L 117.8 162.65 120.35 159.95 120.5 159.9 120.55 159.75 Q 120.55 159.6 120.9 159.35 L 121.5 158.6 121.75 158.45 123.25 157.05 123.4 156.95 123.4 156.85 125.45 154.85 Q 125.85 154.6 125.85 154.4 125.85 154.35 125.5 154.5 L 120.8 158.1 120.65 158.25 120.3 158.45 114.65 163.6 Q 114.3 163.8 114.05 163.8 L 113.7 163.65 Q 113.65 163.45 113.8 163.4 113.95 163.35 114.05 163.05 L 122.1 155.15 122.45 154.75 122.3 154.85 120.9 155.65 116.85 158.85 116.6 159 114.3 161.15 114.2 161.15 111.9 163.35 111.55 163.6 111.35 163.8 Q 111.15 163.95 111 163.95 L 110.75 163.95 110.7 163.85 110.65 163.65 110.7 163.4 110.85 163.1 Q 110.85 162.9 112.05 161.75 L 112.7 161.05 113.1 160.8 114.65 159.2 115.05 158.85 115.75 158.1 115.7 158 114.3 158.7 113.35 159.5 113.15 159.55 108.55 163.85 107.65 164.45 104.65 164.65 Q 104.5 164.8 103.85 164.8 103.15 164.8 103 164.65 L 101.5 164.85 101.15 164.85 Q 100.5 164.85 100.05 164.9 L 92.05 165 92.05 166.9 92.1 166.9 92.55 166.95 93.2 166.95 94.1 166.8 113.25 165.65 Q 113.5 165.6 114.5 165.6 L 117.15 165.55 117.5 165.45 117.7 165.45 Q 117.75 165.55 119.05 165.55 L 122.35 165.45 122.45 165.6 122.45 165.7 122.8 166.75 123.5 167.95 123.6 168 Q 123.7 168.05 123.85 168.5 L 124.3 169.45 Q 124.65 170.2 125.25 170.35 L 125.6 170.55 Q 125.65 170.6 127.3 170.95 L 128 170.85 128.15 170.85 128.15 170.8 128.25 170.8 Q 128.4 170.65 128.4 170.7 L 128.5 170.7 128.8 170.85 129.2 170.95 129.75 170.95 129.75 171.05 Q 129.8 171.15 129.75 171.15 L 129.75 171.25 129.8 171.4 129.8 171.5 129.9 171.6 130.1 172.15 Q 130.25 172.5 130.6 172.85 131.65 173.95 131.95 174.05 L 133.15 174.8 Q 133.6 175 134.8 175.1 136.2 175.1 136.4 175.05 L 136.95 175.05 137.1 175.3 137.15 175.6 137.3 175.8 137.35 175.95 137.5 176.1 137.85 176.6 138.75 177.5 139.65 178.05 Q 140 178.3 140.1 178.3 L 142.8 178.7 Q 143.55 178.7 144.1 178.4 144.6 178.3 144.6 178.35 L 145.9 180.1 146.7 180.8 146.75 180.85 148.1 181.5 148.95 181.8 Q 150.55 181.9 150.95 181.85 L 151.95 181.55 152.05 181.55 153.7 180.95 Q 154.3 180.8 154.5 180.65 L 154.75 180.45 Q 154.85 180.4 154.9 180.45 L 155.5 180.8 155.75 180.85 156.9 181.6 157.1 181.8 157.2 181.8 157.25 181.85 157.75 182.05 Q 157.95 182.2 158.15 182.2 L 158.35 182.2 158.65 182.25 159 182.25 159.1 182.3 159.3 182.25 159.55 182.25 161.65 181.6 161.85 181.5 162 181.45 162.1 181.35 162.8 180.8 162.9 180.65 163.75 179.15 163.85 178.05 163.75 177.3 163.95 177.35 Q 164 177.5 164.25 177.6 L 164.65 177.85 166.1 178.15 Q 166.65 178.15 167.7 177.65 167.95 177.5 169.1 176.6 L 169.6 176.15 169.75 175.95 Q 170.05 175.65 170.05 175.4 L 170.15 175.25 170.15 175.2 170.3 175.05 170.35 174.9 170.5 175 171.3 175.1 171.55 175.25 171.8 175.25 Q 172.25 175.4 173.2 175.1 L 174.25 174.55 175.25 173.75 176 172.65 176.25 171.85 176.25 171.7 176.35 171.55 Q 176.35 171.4 176.7 171.25 L 177.75 170.95 179.35 169.9 180.4 168.75 180.65 168.65 180.75 168.4 181 168 181.05 167.85 181.2 167.7 183.35 166.9 183.8 166.55 183.9 166.5 184.7 165.95 Q 184.9 165.85 184.95 165.7 184.95 165.55 185.75 165.55 188.95 165.65 191.25 165.55 L 209.7 166.6 209.8 166.7 210.05 166.7 218.6 167.35 Q 219.15 167.35 220.85 167.5 L 226.3 167.9 226.3 166.4 221.6 166 221.5 166 221.25 165.95 208.2 165 Q 207.85 164.95 205.55 165 L 199 164.9 197 164.65 196.65 164.65 194.9 164.5 194.7 164.5 194.35 164.45 194.1 164.45 192.3 164.2 192.2 164.15 192.1 163.95 192.2 163.75 193.55 162.8 193.85 162.5 194.35 162.1 197.35 159.2 Q 197.25 159.2 196.85 159.25 L 195.6 159.85 Q 194.75 160.45 194.65 160.65 L 192.45 162.35 192.25 162.45 191.05 163.25 Q 190.05 163.75 190 163.45 189.85 163.35 190 163.2 L 190.05 163.2 190.1 163.05 195.25 158.25 195.4 158 195.8 157.65 195.85 157.65 196.3 157.15 196.35 157.05 196.45 156.95 196.9 156.4 197 156.4 197.4 155.85 196.85 156.25 196.35 156.5 196.05 156.95 195.4 157.45 195.05 157.8 188.1 162.5 187.4 162.7 Q 187.25 162.7 187.25 162.55 L 188.4 161.5 188.55 161.45 189.15 160.95 189.3 160.7 189.9 160.25 192.2 158 192.45 157.8 Q 192.95 157.35 192.95 157.2 L 193.15 157.1 193.2 156.95 193.5 156.8 193.5 156.75 Q 193.75 156.45 193.7 156.45 L 192.8 157.05 192.65 157.1 187.4 160.65 Q 186.85 161 186.85 160.85 L 186.7 160.65 186.7 160.6 186.95 160.3 187.2 160.2 187.4 159.9 188.4 159.2 189.25 158.35 189.45 158.25 190.5 157.15 190.75 157.05 191.15 156.35 190.7 156.5 189.75 157.1 189.7 157.15 188 158.3 187.65 158.6 Q 186.85 159.05 186.55 159.05 186.4 159.05 186.4 158.85 L 186.4 158.7 187.35 157.9 187.4 157.65 187.65 157.55 189.25 156 189.45 155.7 189.5 155.55 189.75 155.3 189.75 155.2 Q 189.75 155 189.55 155.2 L 188.8 155.8 188.6 156 188.4 156.05 188.2 156.15 188.1 156.25 188.05 156.25 186.75 157.15 186.6 157.3 186.5 157.3 186 157.35 Q 185.75 157.3 185.8 156.95 186 156.7 186.1 156.6 L 186.15 156.45 186.6 155.85 Q 186.9 155.7 186.9 155.5 L 187.75 154.6 Q 187.95 154.4 187.85 154.35 L 187.35 154.5 Q 186.9 154.85 186.75 154.85 L 186.1 155.35 Q 185.6 155.8 185.3 155.8 L 185.1 155.7 Q 184.95 155.7 184.85 155.35 L 184.9 155.15 184.95 155.1 185.05 154.85 185.2 154.75 185.5 154.3 186.35 153.3 184.15 154.15 183.55 154.6 183.55 154.75 183.7 154.85 183.75 155.1 183.75 155.15 184.25 156.45 184.35 156.5 184.45 157.05 185.25 159.05 185.25 159.15 185.3 159.2 185.45 159.7 185.6 161.15 Q 185.65 161.3 185.6 161.6 185.6 161.95 185.5 162.1 L 185.2 163.2 184.95 163.6 183.8 164.5 183.1 164.65 183 164.55 Q 182.85 164.55 183 164.45 L 183 164.35 183.05 164.3 183.05 164.15 184.35 162.7 184.45 162.55 184.55 162.15 Q 184.55 162.1 184.45 162.2 L 183.8 162.55 183.7 162.65 Q 183.45 162.8 183.35 162.7 183.2 162.65 183.25 162.35 L 183.4 162.05 183.9 161.3 183.9 161 184.15 160.6 184.1 160.6 183.8 160.85 183 161.3 Q 182.95 161.3 182.75 161.15 L 182.65 161.05 182.95 160.45 183.55 159.85 183.7 159.75 183.55 159.75 183.35 159.85 183 159.9 182.35 159.85 181 156.75 180.95 156.45 180.75 156.15 180.65 155.7 Q 180.4 155.1 180.4 154.95 L 180.85 154.15 181.25 153.65 180.3 154 180.25 153.85 180.25 152.95 180.3 152.85 180.6 152.65 181.8 151.35 181.8 151.25 Q 181.95 151.25 182.1 150.85 L 182.3 150.55 182.4 150.15 182.4 150.1 181.1 151.35 179.95 152.05 179.85 151.95 179.7 151.7 179.5 151.05 179.55 151 179.55 150.9 180.25 150.35 180.4 150.15 182.75 148.1 182.85 147.95 182.95 147.95 Q 183.05 147.9 183.2 148 183.35 148.2 183.35 148.65 L 183.4 148.9 183.4 149.35 183.2 150.15 Q 182.95 150.75 183 151.2 L 182.95 151.35 182.95 152.15 Q 182.85 152.5 182.95 152.55 L 182.95 152.75 Q 182.95 152.95 183.05 152.85 L 183.1 152.2 183.25 151.95 183.4 151.35 184.5 149 184.6 146.8 184.15 145.2 184.1 144.8 184.05 144.75 183.35 143.3 182.75 142.6 182.4 142.35 180.4 140.35 182.35 143.5 182.6 144 182.65 144.35 182.65 144.5 182.15 145.75 Q 182.1 145.85 182.15 145.85 L 182.25 145.85 183.05 145.5 Q 183.2 145.5 183.2 145.75 L 183.05 146.1 183 146.35 182.3 147.5 182.15 147.85 180.4 149.5 179.95 149.8 Q 179.25 150.35 179.2 150.35 179.1 150.45 179 150.3 L 178.75 150.05 178.6 149.8 178.75 149.7 Q 179.2 149.4 179.45 148.9 L 180.4 147.6 180.5 147.55 180.65 147.4 180.6 147.35 180.6 147.4 180.5 147.5 180.25 147.6 179.9 147.85 179.8 147.95 177.85 149.05 177.25 148.45 177.35 148.3 177.6 148.2 177.95 147.75 178.2 147.65 Q 179.15 146.95 179.25 146.6 L 179.45 146.5 180.5 145.3 181 144.4 Q 181 144.15 180.6 144.8 L 179.15 146.1 178.65 146.45 Q 178.25 146.85 177.15 147.4 L 176.25 147.85 175.85 147.4 178.05 145.35 178.3 144.95 178.75 144.5 178.8 144.4 Q 178.65 144.25 178.4 144.7 L 176.75 146 175.3 146.85 175.15 146.85 Q 175.05 146.95 174.75 146.8 L 174.25 146.45 Q 174.25 146.1 175.25 145.5 L 175.6 145.05 176.45 144.25 172.95 146 172.55 146 Q 172.25 145.85 172.25 145.65 172.25 145.3 172.85 144.85 L 172.9 144.8 173.05 144.6 174.35 143.2 172.25 144.25 Q 170.95 145.05 170.6 144.85 L 170.4 144.8 170.35 144.4 170.85 144.15 172.45 142.6 172.25 142.6 169 143.9 Q 168.75 143.9 168.75 143.7 168.75 143.65 168.75 143.5 L 168.85 143.35 168.95 143.3 169.25 142.75 169.45 142.55 169.25 142.55 167.5 142.95 167.2 143.1 166.9 143 166.8 142.95 166.8 142.6 166.9 142.5 Q 166.9 142.35 167.25 142.15 L 167.8 141.6 Q 167.95 141.45 167.9 141.45 L 165.6 142.25 164.45 141.7 164.4 141.65 164.1 141.55 163.25 140.9 163.1 140.85 163.05 140.75 161.5 139.5 161.45 139.45 Q 161.3 139.35 161.4 139.2 161.4 139 161.65 138.85 L 161.85 138.65 162.1 138.5 Q 162.15 138.5 162.35 138.2 162.55 137.95 162.55 137.85 L 160.6 138.55 Q 160.25 138.85 160 138.7 159.9 138.7 159.9 138.55 159.75 138.2 160 138.1 L 160.25 137.85 160.35 137.85 160.6 137.5 160.7 137.4 161.65 136.7 Q 161.8 136.55 161.65 136.55 L 159.4 137.7 158.65 137.85 Q 158.5 137.95 158.4 137.85 158.05 137.85 158.3 137.7 L 160 135.75 157.9 137 157.45 137.35 156.75 137.7 Q 156.45 137.85 156.15 137.7 L 156.05 137.5 Q 156.05 137.35 156.25 137.05 L 157.2 135.75 154.15 137.35 Q 153.75 137.6 153.6 137.4 L 153.4 137.25 153.6 136.9 153.6 136.85 153.95 136.35 Q 154.5 135.5 154.6 135.5 154.8 135.2 154.75 135.2 L 153.95 135.6 151.95 136.9 151.75 137 151.1 137.15 150.95 137.15 150.8 137.05 Q 150.65 136.9 150.8 136.7 L 150.8 136.65 150.9 136.55 151.85 135.25 150.8 135.85 Q 149.4 136.55 149.15 136.35 L 149.05 136 149.45 135.55 150.5 134.7 150.6 134.5 150.8 134.45 151.45 133.9 151.5 133.85 151.35 133.85 150.95 134.05 150.3 134.2 150 134.35 Q 149.65 134.35 149.6 134.1 L 149.1 132.5 149.05 133.15 Q 148.95 133.75 148.55 134.5 L 146.95 136.8 145.8 137.4 145.25 137.85 144.7 138 144.45 138.15 143.2 138.5 141.2 138.7 Q 140.75 138.75 140.05 138.75 L 139.35 138.85 139.1 138.75 138.3 138.75 138.2 138.7 138.15 138.7 137.9 138.65 137.8 138.65 136.65 138.35 135.8 138 Q 135.4 137.95 135.35 137.75 L 134.35 137.2 134.15 137 133.95 136.7 133.8 136.55 133.15 134.7 Q 133.05 134.35 133.15 134.25 L 133.6 134.1 134.65 134 134.8 133.9 135.1 134.1 Q 135.7 134.35 136.2 134.7 136.4 134.95 137.25 134.95 L 138.3 134.8 138.9 134.6 139.8 134.1 139.95 134 140.05 133.9 141.2 133.05 141.4 132.15 Q 141.55 131.35 141.75 131.2 L 141.8 131 142.95 130.2 143.45 129.95 143.75 129.85 144.1 129.85 144.9 129.7 145.25 129.8 145.55 129.8 145.6 129.85 Q 145.65 129.8 146 129.95 L 146.75 130.2 Q 146.8 130.15 147 130.2 147 130.25 147.15 130.25 L 147.4 130.35 Q 147.6 130.55 148.15 130.55 L 151 131.35 Q 152.75 131.75 152.95 131.65 L 153 131.65 153.15 131.7 Q 153.35 131.7 153.35 131.75 L 160 132.15 Q 160.5 132.25 161.25 132.25 L 164.35 132.8 Q 164.8 132.85 165.1 133.15 L 165.35 133.2 167.55 134.2 169.6 134.8 170.25 135.05 170.35 135.2 Q 170.35 135.5 169.95 135.9 L 169.75 136.2 169.7 136.25 169.75 136.25 171.1 135.65 171.8 135.55 171.9 135.5 172.25 135.5 172.55 135.55 172.6 135.75 172.5 136.3 172.45 136.45 172.25 136.7 172.1 136.85 Q 172.1 136.9 172.25 136.85 172.55 136.8 172.6 136.7 L 172.7 136.7 172.9 136.65 173.45 136.35 Q 173.85 136.2 174.55 136.2 L 174.75 136.25 Q 174.9 136.25 174.9 136.45 L 174.95 136.65 174.1 137.5 174.25 137.5 Q 174.45 137.5 174.45 137.4 L 175.4 137.05 176.25 136.9 176.45 137 Q 176.75 137.25 176.55 137.25 L 176.55 137.5 176.05 138.1 Q 176.05 138.2 176.35 138.1 L 176.45 138 176.55 138 177.4 137.75 177.95 137.7 178.2 137.85 Q 178.25 138 178.1 138.2 L 178.05 138.5 178.8 138.45 Q 179.6 138.35 180.4 138.5 L 180.6 138.55 Q 180.65 138.5 181 138.65 181.45 138.9 181.7 139.2 L 183.05 140.85 183.05 141 183.35 141.55 183.55 141.7 184.1 142.7 184.15 142.75 184.5 143.2 184.55 143.3 184.5 142.5 Q 184.15 141.1 183.8 140.5 L 183 139.2 182.95 139.05 182.85 139 Q 182.75 139 182.85 138.9 L 183.1 138.75 Q 183.45 138.75 183.8 139.25 L 184.1 139.6 184.95 138.9 Q 185.3 138.75 185.45 138.85 L 185.5 138.9 185.5 139.05 185.45 139.4 184.9 140.15 Q 184.7 140.5 184.75 140.55 184.85 140.65 185.2 140.35 L 186 139.85 186.2 139.7 186.7 139.45 187.05 139.2 187.25 139.1 Q 187.55 139.05 187.6 139.1 L 187.65 139.35 187.65 139.5 187.05 140.35 186.85 140.5 186.1 141.25 187.3 140.55 187.55 140.5 188.05 140.2 188.1 140.15 189.5 139.25 190.1 139 190.2 139 Q 190.35 139.1 190.35 139 190.5 139 190.6 139.1 L 190.7 139.25 190.4 139.8 186.6 143.5 187.35 143.1 190.6 140.85 190.8 140.65 192.95 139.2 193 139.1 193.95 138.75 194.65 138.85 192.85 140.75 191.85 141.6 191.6 141.7 190.5 142.7 195.7 139.7 196.05 139.45 196.35 139.35 Q 196.65 139.05 197.45 138.75 L 197.75 138.65 Q 198.2 138.5 198.25 138.55 198.6 138.55 198.4 139.05 197.8 139.7 197.6 139.7 L 197 140.35 Q 196.3 140.65 196.65 140.65 196.65 140.85 197.4 140.4 198.05 140.2 198.9 139.7 L 201.2 138.5 201.3 138.5 Q 201.3 138.45 202 138.45 202.6 138.45 202.5 138.55 202.5 138.75 201.8 139.45 L 201.2 140.05 201.55 140.05 204.6 138.35 Q 205.15 138.2 205.2 138.3 205.4 138.45 205.35 138.5 L 205.2 138.7 205.15 139 205 139.25 205 139.35 204.95 139.45 204.95 139.5 Q 205.05 139.7 205.3 139.5 L 205.9 139.05 207.35 138.35 Q 207.6 138.1 208.5 138.1 L 209.5 138.15 209.6 138.2 209.5 138.35 209.2 138.7 Q 208.65 139.25 208.55 139.4 L 208.45 139.5 208.35 139.7 208.2 139.8 Q 208.15 139.95 208.2 140.05 L 209.8 139.05 210.05 139 210.05 138.9 211.8 138.1 211.85 138 M 165.7 169.95 L 165.75 169.9 166.25 169.55 Q 166.55 169.15 166.55 169.5 166.55 169.8 166.3 169.95 L 166.1 170.55 165.6 170.95 164.75 171.85 162.25 173.45 162.6 173.4 163.25 173.15 163.4 173.05 164.9 172.35 166.1 171.55 166.4 171.5 166.55 171.35 Q 166.75 171.05 166.9 171.05 L 167.1 171 Q 167.15 170.8 167.45 170.7 L 167.55 170.8 Q 167.6 170.85 167.5 171.15 L 166.75 172.1 164.2 174.3 164.65 174.15 164.9 174.15 Q 165.1 173.95 165.25 173.95 L 166.05 173.5 166.1 173.5 166.4 173.4 166.55 173.3 166.65 173.15 166.75 173.15 166.8 173.1 166.9 173.05 167.25 172.7 168.15 172 Q 168.3 172 168.3 172.15 L 168.4 172.25 168.4 172.35 167.7 173.35 Q 167.35 173.65 167.15 173.95 L 166.25 174.9 167.55 174.3 167.75 174.1 168.1 173.95 168.75 173.45 169 173.7 Q 169.1 173.95 168.85 174.5 L 168.75 174.65 Q 168.75 174.85 168.4 175.1 L 167.55 175.85 166.4 176.55 166.1 176.6 Q 165.3 176.6 165 176.55 L 164.2 176.2 164.05 176.2 163.95 176.1 163.85 176.1 163.65 175.95 163.4 175.85 163.3 175.75 163.05 175.6 162.95 175.5 159.3 173.1 Q 158.7 172.95 158.3 172.5 L 157.9 172.25 157.75 172 157.9 171.9 158.3 171.7 158.5 171.7 Q 158.95 171.55 159.3 171.55 L 159.55 171.6 159.55 171.85 Q 159.45 172 159.05 172 158.75 172 158.75 172.1 L 159.55 172.45 Q 160.1 172.6 160.15 172.5 L 160.45 172.5 161.9 172.1 162.8 171.7 Q 163.15 171.5 163.4 171.5 L 163.6 171.35 164.05 171.15 164.2 171 164.25 171 164.75 170.7 Q 164.8 170.65 164.75 170.65 L 164.95 170.55 165.1 170.45 165.25 170.3 165.35 170.25 165.4 170.2 165.6 170.2 165.6 170.1 165.7 169.95 M 178.6 167 L 179.7 166.3 179.9 166.05 180.2 165.85 180.3 165.7 180.4 165.7 180.4 165.65 Q 180.6 165.8 180.3 166 L 180.25 166.15 180.2 166.2 180.1 166.35 Q 179.7 167.15 179.2 167.45 L 178.4 167.85 177.95 168 Q 177.35 168.1 177.25 168.05 177.1 168.05 177.1 167.95 L 177.4 167.65 177.75 167.5 177.85 167.35 177.9 167.35 177.95 167.3 178.05 167.3 178.45 167 178.6 167 M 136.5 133.65 L 136.65 133.55 137.3 133.35 140.65 131.65 140.75 131.55 140.8 131.55 Q 140.85 131.85 140.8 131.9 L 140.8 132.05 Q 140.8 132.45 140.4 132.75 L 140.1 133.05 139.65 133.35 137.9 134.1 137.35 134.2 Q 136.65 134.2 136.4 134 L 136.1 133.75 136.5 133.65 M 145.75 159.25 Q 146 159.05 146.35 158.95 147.05 158.65 147.15 158.8 L 147.25 159 Q 147.25 159.2 146.3 159.9 L 142.5 162.55 Q 142.25 162.8 142.05 162.8 141.9 162.8 141.8 162.65 141.8 162.45 142.75 161.7 L 145.75 159.25 M 147.25 160.1 L 147.4 159.95 148.2 159.5 148.3 159.4 148.85 159.4 148.95 159.55 149.05 159.75 148.95 159.85 148.95 159.9 148.9 160 148.6 160.35 147.95 160.95 147.75 161.05 147.4 161.15 146.65 161.7 145.6 162.05 145.4 162.05 145.25 161.8 Q 145.4 161.5 145.6 161.45 L 147.25 160.1 M 148.2 163.1 L 148.75 163.4 Q 148.9 163.6 149.05 163.6 L 149.25 163.75 Q 149.4 164 149.65 164 L 150.2 164.6 Q 150.6 164.9 150.6 165.15 L 150.8 165.45 150.8 165.95 150.9 166.2 150.9 166.55 150.8 167.1 150.6 167.35 150.55 167.65 150.3 168.05 150.25 168.1 150.25 168.2 150.1 168.65 Q 150.15 168.65 150 168.85 L 149.85 169.15 149.85 169.2 149.65 169.65 149.6 169.85 148.95 170.65 148.7 171.2 147.15 172.95 147 173.15 146.5 174.05 146.3 174.15 146.1 174.45 144.9 175.65 Q 144.45 176.2 144.15 176.35 L 143.65 176.85 143.55 176.85 142.75 177 142.5 177 142.15 177.15 141 177.15 Q 140.65 177.15 140.4 176.85 L 139 176.1 Q 138.6 175.85 138.4 175.1 138.3 174.5 138.55 174.35 138.75 174.1 138.75 174.5 L 139 174.9 139.8 175.3 140.75 175.5 140.95 175.6 141.75 175.75 142.95 175.6 Q 143.25 175.5 143.45 175.3 L 143.9 175 Q 144.8 174.3 144.65 174.3 L 144.35 174.3 144.1 174.45 142.75 174.9 141.65 175.1 Q 141.2 175.1 141.1 175 140.95 174.85 141 174.7 141 174.55 141.2 174.5 L 141.55 174.3 142.25 174.1 142.95 173.75 142.95 173.7 143.15 173.65 143.25 173.65 143.45 173.5 143.5 173.45 143.6 173.45 145.2 172.7 145.75 172.5 145.95 172.35 Q 146.1 172.25 146 172.25 L 141.55 173.45 Q 140.65 173.75 139.8 173.75 139.45 173.75 139.45 173.65 L 139.7 173.35 140.5 173 140.75 172.95 Q 141.35 172.7 141.4 172.65 L 142 172.5 142.1 172.5 145 171.2 Q 145 171.15 144.8 171.15 L 139.7 172.15 Q 139.45 172.25 139.45 172.1 139.45 171.85 140 171.6 L 141.4 171.05 Q 141.55 170.95 141.8 170.95 L 142.3 170.7 Q 142.6 170.7 142.6 170.65 L 142.8 170.65 143.2 170.45 143.3 170.45 143.45 170.35 Q 143.6 170.35 143.6 170.3 L 144.25 170.2 144.35 170.2 Q 144.6 170.2 144.8 170.3 L 145.65 170.7 145.9 170.7 Q 146.6 170.95 146.6 170.7 L 146.75 170.65 Q 147.1 170.6 147.35 170.35 L 147.45 170.3 147.95 169.85 148.4 169.3 149.75 167.15 149.85 166.75 148.1 164.9 Q 147.6 164.6 146.65 164.2 L 145.8 164 145.45 164 145.15 164.2 144.35 164.9 143.3 166.5 142.65 167.95 142.6 168.3 142.6 168.35 141.65 168.75 Q 141.4 168.8 141.3 168.75 141.2 168.7 141.4 168.3 L 141.8 167.45 141.8 167.35 142 167.15 142.3 166.55 142.6 166.15 142.65 166.05 142.75 165.95 142.8 165.65 142.95 165.35 143.55 164.6 144.6 163.65 144.7 163.6 144.9 163.45 146.25 163.05 146.5 163.05 146.75 163 Q 147.45 162.9 148.2 163.1 M 147 165.2 L 147.4 165.35 147.6 165.45 147.75 165.55 148.55 166.3 148.9 166.7 148.9 166.75 Q 148.95 166.75 148.9 166.8 L 148.9 166.95 148.7 167.3 148.2 167.6 148 167.65 Q 147.4 168.05 146.65 168.05 146.3 168.1 146.3 168.2 L 146.3 168.35 Q 146.3 168.45 146.65 168.45 L 146.8 168.5 Q 147.1 168.7 147.85 168.4 148.15 168.35 148.15 168.4 L 147.4 169.3 147.4 169.35 147.35 169.35 147.15 169.5 146.5 169.85 146.25 169.9 Q 146 169.9 145.8 169.8 L 145.6 169.65 145.55 169.65 144.7 169.15 144.15 168.65 144.1 168.45 144 168.4 143.9 168.2 143.85 168 143.85 167.65 144.1 166.7 Q 144.35 165.8 144.65 165.65 L 144.7 165.6 144.85 165.55 145 165.3 145.35 164.95 145.45 164.9 146.5 164.95 146.75 165.15 147 165.2 M 142.15 163.95 L 142.05 163.8 Q 142.3 163.5 142.45 163.5 L 142.6 163.4 143.1 163.25 143.2 163.35 143.25 163.5 Q 143.25 163.75 143.15 163.85 L 142.75 164.1 Q 142.45 164.15 142.4 164.1 L 142.15 163.95 M 142.65 169 Q 142.8 168.85 142.85 168.95 L 143.25 169.3 143.3 169.45 Q 143.45 169.5 143.25 169.65 143.15 169.9 142.75 169.9 L 142.1 170.1 142.05 170.2 141.8 170.2 141.4 170.25 Q 141.1 170.25 141.1 170.1 141 170.05 141.2 169.85 L 141.35 169.8 141.8 169.45 142 169.35 142.05 169.35 142.65 169 M 151.3 168.35 L 151.15 167.85 Q 151.15 167.6 151.6 167.35 L 152.05 167.45 152.6 167.7 Q 153.3 168.05 153.75 168.75 L 154.1 169.1 154.45 169.65 154.65 170.1 Q 154.9 170.45 154.9 170.95 L 154.8 172.8 154.75 173 154.5 173.4 154.5 173.45 154.45 173.7 154.05 174.55 153.75 175 152.75 177.15 152.75 177.25 152.35 178.15 152.05 178.45 151.5 178.9 149.45 179.75 Q 149.05 179.95 149.8 179.95 L 152.45 179.7 152.65 179.65 152.75 179.65 152.8 179.75 Q 152.8 180 152.65 180.05 L 152.4 180.3 151.75 180.45 149.5 180.65 148 180.35 147.85 180.35 147.6 180.2 147.45 180.05 147 179.7 146.8 179.5 Q 146.75 179.45 146.8 179.35 147.1 179.25 147.25 179.25 L 148.6 179.05 148.7 179.05 148.9 178.9 151.1 177.7 151.35 177.5 Q 151.35 177.45 151.15 177.6 L 151 177.6 Q 151 177.45 150.8 177.7 L 149.4 178.2 147.95 178.4 147.4 178.4 146.7 178.3 146.6 178.2 146.8 178 147.75 177.6 147.95 177.45 150 176.8 Q 149.85 176.6 150.15 176.6 L 150.25 176.5 151.1 176 148.2 176.6 148.15 176.6 Q 148.1 176.65 147.45 176.65 146.8 176.65 146.7 176.6 L 146.65 176.45 146.7 176.35 146.95 176.1 147 176 148.1 175.4 148.95 175.2 149.1 175.2 150.55 174.8 150.95 174.45 151.35 173.95 Q 152.55 172.95 152.65 172.5 L 153.5 171 153.4 170.65 153.4 170.45 153.3 170.1 152.05 168.95 151.75 168.8 151.65 168.7 Q 151.3 168.7 151.3 168.35 M 150.8 169.35 L 150.9 169.35 Q 151.3 169.2 151.75 169.7 L 152.05 169.9 Q 152.35 170.1 152.75 170.7 L 152.65 171.15 152.4 171.2 Q 152.2 171.2 151.6 171.5 L 150.8 171.85 Q 150.65 171.85 150.8 171.9 150.8 171.95 151.1 171.9 L 151.45 171.9 151.65 171.85 151.95 171.95 151.7 172.5 151.5 172.7 150.3 173.3 Q 150.25 173.35 149.9 173.15 L 149.4 172.95 149.1 172.65 149.05 172.45 149.1 172.15 149.15 172 149.25 171.95 149.25 171.9 149.5 171.4 149.65 171.25 150.1 171.05 150.15 171 150.95 170.55 Q 151.15 170.3 150.95 170.25 150.8 170.1 150.45 170.25 150.2 170.45 150.2 170.3 L 150.15 170.25 Q 150 170.1 150.15 169.9 L 150.8 169.35 M 129.5 163.05 Q 130 163.2 130.35 163.5 L 130.6 163.65 130.65 163.8 130.95 164 131.3 164.65 131.3 164.9 131.5 165.25 Q 131.55 165.7 131.4 165.85 L 131.2 166.2 130.95 166.4 130.65 166.75 129.7 167.3 129.35 167.35 128.95 167.65 128.8 167.7 Q 128.8 168.05 129.15 168.2 129.2 168.2 129.15 168.3 L 129.1 168.35 128.85 168.35 128.85 168.4 128.6 168.45 128 168.45 126.6 167.95 126.05 167.6 Q 125.7 167.45 125.7 167.1 125.7 166.75 125.95 166.7 L 128.45 165 128.4 165 127.8 165.2 127.3 165.45 Q 126.6 165.8 126.55 165.7 L 125.1 166.15 124.65 166.05 124.55 166 124.5 166 124.4 165.95 124.35 165.8 124.75 165.35 126.65 164 126.5 164 Q 125.25 164.3 125 164.5 L 124.5 164.65 Q 124.3 164.55 124.55 164.3 L 124.65 164.1 124.75 164 124.9 163.8 Q 125.3 163.45 126.4 163.1 L 126.6 163.05 127.2 163 Q 127.3 162.85 127.7 162.85 L 128.05 162.8 128.5 162.8 Q 129.2 162.9 129.5 163.05 M 125.65 169.35 Q 125 168.95 124.75 168.35 L 124.65 168.05 Q 124.4 167.85 124.5 167.7 124.65 167.6 124.75 167.65 L 125 167.75 126.6 168.75 127.2 168.95 127.3 168.95 127.35 169 127.45 169 127.8 169.35 Q 128 169.65 127.9 169.7 127.9 169.85 127.7 169.9 127.2 170.1 126.6 169.9 L 125.95 169.55 125.65 169.35 M 137.6 163.1 L 138.95 163.1 139.65 163.45 140.5 164.35 140.65 164.55 140.8 164.65 140.85 164.85 Q 141.3 165.15 141.3 165.7 L 141.2 166.35 141.15 166.5 Q 141.15 166.9 140.85 167.3 L 140.35 168.05 Q 140.15 168.2 140.05 168.1 139.95 168.05 139.95 167.75 L 139.8 167 139.6 166.7 Q 139.45 166.5 138.3 165.3 L 137.35 164.5 Q 137.1 164.3 136.65 164.3 L 136 164.45 134.35 165 134.15 164.95 134.1 164.85 134.15 164.85 134.3 164.65 135.15 164.15 135.5 163.85 136.55 163.4 137.6 163.1 M 137.5 165.55 L 138.4 166.4 138.6 166.75 138.85 166.95 139.1 167.5 139.1 167.7 139.15 167.85 Q 139.25 168.05 139.15 168.1 L 138.95 168.35 138.9 168.45 138.75 168.45 138.65 168.5 138.05 168.95 137.45 169.2 136.3 169.55 Q 135.85 169.7 135.85 169.65 L 135.75 169.55 135.5 169.55 134.35 168.7 134.1 168.3 Q 133.85 168 133.8 167.5 133.65 166.95 133.75 166.7 L 134.3 166.05 Q 134.3 165.85 134.7 165.65 L 135.5 165.25 136.15 165.2 Q 136.55 165.15 136.95 165.2 L 137.5 165.55 M 149.45 174.05 L 149.75 174.15 149.75 174.2 149.15 174.55 149.05 174.55 148.6 174.65 148.55 174.55 Q 148.35 174.55 148.35 174.5 148.1 174.5 148.4 174.15 L 148.4 174.1 Q 148.5 174.05 148.85 173.95 149.148828125 173.850390625 149.15 173.95 149.1505859375 173.850390625 149.3 173.95 L 149.4 173.95 149.45 174.05 M 162.2 178.95 L 162.15 179.15 161.5 179.85 160.75 180.45 159.75 181 159.45 181.1 Q 159.05 181.2 158.35 181 L 157.65 180.75 157.6 180.75 156.8 180.35 156.65 180.2 Q 156.5 180.2 155.6 179.6 L 153.3 178.05 153.65 177.45 Q 153.8 177.25 153.8 176.9 L 153.95 176.6 154.05 176.25 154.15 176.1 154.6 175.05 154.8 174.8 Q 155 174.65 155.15 174.35 L 155.35 174.1 155.7 173.8 155.75 173.7 156.25 173.5 157.55 173.4 158 173.5 158.3 173.75 158.15 173.95 157.1 175.05 157 175.05 154.6 176.65 155.55 176.45 155.75 176.25 156.6 175.85 156.65 175.85 158.4 174.8 158.65 174.7 159.3 174.2 159.55 174.35 159.6 174.5 159.45 175.05 158.05 176.35 155.7 177.95 156.05 177.95 157.65 177.15 157.75 177.15 159.1 176.25 159.3 176.2 159.45 176.1 159.75 175.95 160.25 175.5 160.45 175.45 Q 160.7 175.05 160.9 175.25 L 160.9 175.5 160.25 176.45 160.1 176.6 159.95 176.85 157.75 178.6 Q 157.45 178.75 157.6 178.75 L 158.05 178.6 158.25 178.6 159.45 178 159.55 178 160 177.7 160.15 177.65 160.25 177.6 160.35 177.5 160.7 177.25 Q 161.05 176.85 161.15 176.85 L 161.3 176.65 161.6 176.55 161.75 176.6 161.75 176.8 Q 161.8 176.85 161.75 176.85 L 161.6 177 Q 161.5 177.3 161.05 177.8 L 160 179.05 159.6 179.35 Q 159.65 179.45 160.9 178.75 L 161.05 178.7 161.1 178.6 161.9 178.15 162.15 177.95 162.35 178.15 Q 162.45 178.35 162.2 178.95 M 130.95 169.65 L 131.3 168.95 132.6 168.35 132.8 168.35 132.85 168.4 Q 132.9 168.45 132.85 168.5 L 132.85 168.7 132.7 168.85 132.65 169.1 132.3 169.35 131.6 170.1 132.25 170.05 133.4 169.65 133.5 169.65 133.75 169.55 Q 134.3 169.35 134.45 169.8 134.65 169.9 134.65 170.1 L 134.55 170.45 134.45 170.65 133.65 171.05 133.6 171.05 133.5 171.2 133.25 171.25 133 171.6 133 171.7 133.15 171.6 133.4 171.6 134.1 171.5 134.65 171.25 134.9 171.2 135.4 170.95 135.7 170.85 135.75 170.8 136.15 170.55 137.5 169.95 137.7 169.95 138 169.9 138.05 170.05 136.55 171.35 135.95 171.7 135.85 171.85 136.2 171.85 136.3 171.75 138.65 170.7 139.15 170.35 139.45 170.25 Q 139.7 170.25 139.6 170.45 L 138.2 172.1 137.35 172.8 137.3 172.8 137.25 172.85 136.5 173.35 Q 135.7 173.75 134.7 173.75 L 134.3 173.8 133.65 173.8 132.5 173.15 131.6 172.45 131.05 171.6 130.95 170.8 130.8 170.35 130.8 170.25 Q 130.65 169.9 130.95 169.65 M 137.1 166.8 L 137.25 166.9 137.3 166.95 Q 137.35 167 137.25 167.3 L 137.15 167.65 136.95 168 136.15 168.75 137 168.45 138.25 167.75 137.5 166.9 Q 137.25 166.6 137.1 166.8 M 128 166.7 Q 127.7 166.95 127.5 166.95 L 127.35 167.1 Q 127.45 167.15 128.05 167 L 128.95 166.7 129 166.7 129.3 166.55 129.8 166.4 130.65 166 130.65 165.95 130.35 165.65 130.1 165.6 129.8 165.65 129.4 165.95 128.5 166.35 128 166.7 M 147.65 166.3 L 147.05 166 Q 146.8 165.95 146.4 166.3 L 145.4 167 Q 145.4 167.1 145.55 167 L 146.3 166.75 146.35 166.7 147.65 166.3 M 126.3 149.35 L 126.4 149.15 126.3 149 Q 126.5 148.85 126.3 148.85 L 126.25 148.85 126.15 148.7 126.05 148.7 125.1 149.25 125 149.4 124.8 149.5 124.75 149.5 123.15 150.65 122.7 151.05 122.2 151.7 122.2 151.8 122.15 152 Q 122.3 152 122.9 151.5 L 125.45 150.1 125.95 149.75 126.05 149.6 Q 126.25 149.5 126.3 149.35 M 130.25 153.8 L 130.95 153.1 Q 130.95 152.9 130.8 152.9 L 130.5 152.75 Q 130.5 152.85 130.35 152.85 L 129.7 153.2 127.3 155.45 127.35 155.55 127.45 155.65 127.5 155.65 127.55 155.55 127.8 155.45 130.25 153.8 M 128 150.3 L 128.5 150.05 Q 128.75 150.05 128.75 149.85 L 129.1 149.4 128.75 149.15 127.7 149.7 125.1 151.5 Q 124.8 151.85 125 151.95 125 152.05 125.15 151.95 125.25 151.85 125.3 151.95 L 125.35 151.85 125.5 151.8 128 150.3 M 129.2 151.2 L 129.1 151.05 129 151.05 Q 129 151 128.65 151.05 128.45 151.05 128.25 151.2 L 126.65 152.4 Q 126.55 152.55 126.65 152.55 L 126.65 152.75 126.75 152.75 127 152.55 127.8 152.05 127.9 152.05 128.4 151.8 Q 129 151.5 129.1 151.35 L 129.2 151.2 M 137.35 152.35 L 137.7 152 137.9 151.7 137.8 151.7 134.8 153.65 134.75 153.7 134.45 153.95 134.2 154.05 133.95 154.2 133.15 154.85 133.05 155.1 133 155.15 133.5 154.95 133.95 154.85 134.1 154.85 134.3 154.7 134.35 154.6 135 154.3 Q 135.45 154.05 135.45 153.95 L 136.1 153.3 137.35 152.35 M 142.45 153.7 Q 142.65 153.55 142.4 153.55 142.25 153.35 141.35 153.95 L 140.95 154.15 Q 140.4 154.4 140.4 154.75 L 140.4 154.85 Q 140.6 155.1 140.6 154.95 L 141 154.7 141.2 154.5 142.15 153.85 142.45 153.7 M 158.35 160 L 158.4 160.1 158.7 160.1 159 160 159.3 159.85 159.3 159.7 161.9 157.2 159.75 158.45 158.65 159.35 158.4 159.6 Q 157.95 159.95 158.15 159.95 L 158.35 160 M 155.55 150.55 L 154.85 150.85 Q 154.3 151.1 153.5 151.35 L 153.1 151.25 152.8 151 152.75 150.75 Q 152.75 150.5 152.95 150.35 L 153.4 149.5 152.35 150.1 151.35 150.45 151.3 150.35 151.25 150.2 151.15 150.2 151.25 149.95 151.65 149.15 151.95 148.85 151.65 149.05 149.8 150.05 149.45 150.15 149.25 150.3 148.3 150.55 Q 147.6 150.85 147.35 151.05 L 147.15 151.2 147.25 151.2 147.4 151.1 147.65 151.05 148 150.9 148.9 150.85 Q 149.05 150.85 148.6 151.35 L 148.5 151.6 148.9 151.5 149.8 151.1 Q 150.25 150.9 150.5 151.05 150.8 151.2 150.8 151.35 150.8 151.45 150.6 151.85 L 150.45 152.15 149.65 153.35 149.65 153.55 149.85 153.3 151.85 152 152.1 152.3 Q 152.1 152.55 152 152.65 L 151.85 152.9 149.1 155.85 149.15 156 149.45 155.85 152.75 153.6 Q 153.1 153.35 153.25 153.45 153.35 153.55 153.35 153.7 153.35 153.85 152.75 154.7 L 152.6 154.95 152.45 155 149.9 157.45 149.8 157.5 Q 149.5 157.65 149.75 157.65 L 150.1 157.65 150.25 157.55 150.45 157.55 151.35 157.05 151.45 156.95 151.65 156.8 151.7 156.8 151.75 156.75 153.35 155.45 153.4 155.45 153.6 155.3 153.7 155.2 154.1 155.3 Q 154.4 155.35 154.45 155.3 L 154.45 155.15 154.75 154.35 154.8 154.3 154.8 154.15 Q 154.8 153.65 155 153.45 L 155.75 152.75 Q 156.3 152.3 156.15 152.15 L 155.5 152.35 155.1 152.4 154.4 152.65 154.15 152.4 154.3 152.15 154.8 151.6 155.55 150.55 M 157.45 154 L 157.55 153.95 157.35 154 156.6 154.5 156.45 154.5 156.25 154.7 Q 155.6 154.95 155.55 155.15 L 155.1 155.45 152.6 157.8 Q 151.85 158.35 151.85 158.6 L 152.9 158.1 153.35 157.8 Q 154.4 157.2 154.9 156.5 L 155.2 156.4 155.25 156.25 155.55 156.1 156.25 155.5 157.45 154 M 98.05 160.6 L 98.95 159.7 99.15 159.4 100.7 157.85 100.8 157.65 100.7 157.8 100.4 157.85 Q 100.15 157.85 99.85 158.1 L 96.7 160.8 96.5 161 96.3 161.15 96.15 161.35 95.45 161.85 95.35 161.95 94.55 163.25 94.75 163.25 95.8 162.9 97.8 161 Q 98 160.7 98.05 160.6 M 94.85 160.25 L 95 160.2 95.05 160 95.7 159.25 95.8 159.15 95.7 159.15 95.1 159.35 92.85 161.35 Q 92.3 161.8 92.05 162.1 L 92.05 163.05 92.75 162.8 93 162.5 93.2 162.35 94.85 160.25 M 92.2 160.2 L 92.05 160.25 92.05 160.5 Q 92.45 160.2 92.2 160.2 M 103.85 159.75 L 103.85 159.85 103.4 160 102.05 161.05 100.15 163.2 100.7 163.1 100.8 163.05 100.95 163.05 101.9 162.5 104.3 160.7 104.5 160.65 106.2 158.95 Q 106.55 158.8 107.25 158.1 L 109.1 156.35 Q 110.05 155.5 109.95 155.5 L 109.85 155.5 109.7 155.65 109.6 155.7 108.9 156.25 108.55 156.45 108.35 156.7 107.6 157.15 107.5 157.3 107.35 157.3 107.15 157.5 107.05 157.5 106.9 157.65 106.8 157.65 104.5 159.35 103.85 159.75 M 105.4 156.6 L 105.25 156.6 104.8 156.8 98.55 161.75 98.15 162.2 Q 97.55 162.9 97.45 163 L 97.3 163.2 Q 97.3 163.25 97.7 163.1 L 98.7 162.85 99.3 162.5 99.55 162.2 99.75 162.15 100 161.95 Q 100.35 161.7 100.4 161.6 L 101.2 160.95 101.3 160.85 101.55 160.65 104.65 157.45 Q 105.6 156.6 105.55 156.5 L 105.4 156.6 M 114.7 156.5 Q 115.2 156.05 115.15 156.05 L 108.55 161.15 107.55 162.05 Q 107.25 162.3 107.15 162.3 L 106.9 162.5 Q 106.4 162.9 106.2 162.9 L 105.8 162.8 105.75 162.65 105.6 162.55 Q 105.55 162.5 105.6 162.35 105.6 162.15 105.8 161.95 L 106.1 161.75 113.55 154.85 113.5 154.85 109.6 157.8 109.25 158 107.9 159.05 107.65 159.2 107.6 159.35 107.05 159.7 105.75 160.85 105.45 161.05 105.2 161.35 104.9 161.45 104.5 161.8 104.05 162.1 104 162.2 103.85 162.3 103.75 162.3 103.5 162.5 103.15 162.85 101.9 163.5 101.85 163.6 Q 101.75 163.6 101.85 163.8 L 101.85 163.85 102.2 163.8 106.5 163.6 107.25 163.35 107.5 163.2 110.05 160.8 110.7 160.35 113 158.25 113.25 158.1 114.15 157.3 Q 114.2 157.2 114.15 157.2 L 114.7 156.5 M 120 154.4 L 120.15 154.3 119.95 154.35 118.6 155 117.9 155.55 Q 117.5 155.85 117.15 156.25 L 115.9 157.3 116 157.3 116.25 157.15 116.65 157.05 116.95 156.85 117.05 156.85 120 154.4 M 157.25 146.65 L 157.75 146.6 157.8 146.6 158.6 146.25 159.95 145.05 Q 159.4 145.2 159.3 145.2 L 157.8 145.85 Q 157.55 145.85 157 146.25 156.75 146.35 156.85 146.45 L 157.1 146.6 157.25 146.65 M 151.3 139.85 Q 151.25 139.95 151.35 139.95 L 152.65 140.3 153.65 140.75 153.7 141 Q 153.75 141.25 153.7 141.45 L 153.5 141.8 153 142.4 Q 152.9 142.6 153.1 142.5 L 154.6 141.6 154.8 141.55 Q 155 141.45 155.2 141.55 155.5 141.65 155.15 142 L 155 142.25 154.3 143.2 154.5 143.2 155.45 142.7 Q 156.5 142.05 156.65 142.35 L 156.65 142.7 155.55 144.25 155.35 144.45 156.8 143.7 157 143.65 157.1 143.55 157.55 143.35 Q 157.65 143.3 157.75 143.35 157.95 143.45 158 143.85 L 158 144.25 158.5 144.05 159.45 143.45 159.4 143.35 159.2 143.2 158.95 142.95 158.65 142.75 158.25 142.35 157.65 141.9 Q 157.1 141.3 156.65 141.1 L 155.75 140.65 153.3 140.05 153.15 140.05 153 139.95 Q 152.9 139.85 152.2 139.85 151.45 139.8 151.3 139.85 M 146.35 131.3 L 146.35 131.2 146.1 130.7 145.65 130.4 145.55 130.25 145 130.25 145.2 130.55 Q 145.6 130.95 145.65 131.2 L 146.3 132.45 146.4 132.5 146.6 132.15 Q 146.6 131.65 146.35 131.3 M 136.75 137.05 L 137 136.7 136.95 136.65 136.3 136.9 Q 135.5 137.25 135.6 137.35 L 135.75 137.4 135.8 137.5 136.1 137.6 136.15 137.6 136.75 137.05 M 138.9 136.85 Q 139.15 136.3 139.1 136.25 L 138.25 136.9 Q 137.5 137.5 137.45 137.75 137.3 137.95 137.45 138 L 137.7 138 137.85 138.1 138 138 138.9 136.85 M 139.45 137.85 L 139.45 138.1 139.65 138.1 Q 140 138.1 140.4 137.6 L 141.1 136.85 Q 141.9 135.9 142 135.55 142 135.5 141.8 135.55 L 139.45 137.85 M 141.65 137.6 L 141.5 137.6 141.4 137.75 Q 141.4 137.85 141.55 137.95 141.65 138 142.1 138 L 143.3 137.85 144.8 137.35 145.65 136.8 146.1 136.25 Q 146.35 135.9 146.35 135.75 L 146.7 134.95 Q 147.05 134.45 147.05 134 L 147 133.9 145.05 136.25 144.7 136.45 Q 144.5 136.65 144.3 136.65 143.9 136.8 143.9 136.3 L 144.15 135.4 Q 144.25 135.25 143.85 135.65 L 141.9 137.5 141.65 137.6 M 212.3 160.35 L 212.3 160.3 212.55 159.6 210.65 161 210.35 161.15 209.95 161.5 209.8 161.6 208.65 162.55 208.5 162.7 Q 208.35 162.8 208.05 163.1 207.7 163.45 207.7 163.5 L 208.65 163.1 208.85 163.05 210.05 162.35 210.3 162.3 210.4 162.15 Q 211.2 161.6 211.55 161.15 L 212.3 160.35 M 212.05 157.3 Q 212.15 157.2 212.15 157.15 L 211.45 157.65 210.85 158.25 210.05 158.85 209.95 159 208.3 160.3 208.05 160.45 205.95 162.15 205.85 162.15 205.65 162.3 205.35 162.35 204.05 163 203.65 163 Q 203.4 163 203.4 162.8 L 203.4 162.65 205.9 160.65 208.5 158 209.6 156.5 209.8 156.35 Q 209.85 156.15 209.7 156.25 L 205.35 160.1 Q 204.55 160.95 203.5 161.7 L 200.6 163.75 204.35 164.1 204.6 164.1 205.15 164 Q 205.3 164 206.3 163 206.9 162.35 207.15 162.3 L 207.95 161.7 208.15 161.4 208.5 161.15 209.35 160.3 209.6 160.1 209.7 160.1 209.7 159.95 212.05 157.3 M 221.8 160.7 L 221.85 160.6 222.2 160.2 Q 222.55 159.75 222.3 159.75 222.15 159.75 221.85 160 L 220.3 161.35 219.95 161.6 219.85 161.7 219.75 161.75 217.9 163.2 216.7 163.85 216.45 164.1 Q 216.1 164.45 216.2 164.5 L 216.55 164.5 216.85 164.55 217.35 164.5 218.25 164.1 219 163.5 219.15 163.35 219.35 163.25 219.5 163.1 219.7 163 220.1 162.65 220.3 162.35 221.05 161.7 221.8 160.7 M 219.3 160 L 219.7 159.5 219.85 159.15 220.05 159 220.1 158.85 220.35 158.45 Q 220.3 158.35 219.5 159.15 L 216.6 161.45 216.35 161.75 214.5 162.9 214.45 163 214.05 163.25 213.05 164.3 Q 213.05 164.35 213.45 164.3 L 214.4 164 214.45 163.95 Q 214.7 163.95 214.8 163.8 L 216.25 163 217.3 162.1 217.3 162.05 219.3 160 M 217.2 158.65 L 217.35 158.55 217.4 158.35 217.5 158.3 Q 217.55 158.2 217.5 158.2 217.5 158.1 217.15 158.35 L 215.7 159.5 215.45 159.85 214.4 160.85 212.05 162.45 212 162.5 210.15 163.8 Q 210.05 163.85 210.05 163.95 L 210.05 164.1 210.2 164.1 210.3 164.15 211.55 163.85 Q 211.8 163.8 211.95 163.65 L 212.15 163.6 213.1 162.85 216.2 159.95 216.35 159.7 216.6 159.5 216.65 159.35 217.2 158.65 M 214.4 158.35 L 214.75 158 214.85 157.8 215.1 157.55 Q 215.3 157.45 215.4 157.2 L 214.5 157.9 214.4 158 Q 214.2 158.2 213.5 158.8 L 213.2 159.7 213.05 159.95 Q 213.05 160.25 213.2 159.85 L 213.55 159.5 Q 213.85 159.2 214.4 158.35 M 226.3 163.35 L 226.3 162.25 222.9 164.5 222.65 164.95 222.8 165 223 165 223.2 164.95 223.45 164.95 224.05 164.8 224.5 164.55 224.7 164.35 224.85 164.35 224.9 164.3 225.05 164.1 226.3 163.35 M 226.3 159.4 L 226.3 159.25 220.65 163.35 219.3 164.55 Q 219.05 164.65 219.05 164.85 L 219.15 164.85 219.15 164.9 219.5 164.9 219.5 164.85 219.8 164.85 219.8 164.8 219.85 164.8 Q 219.85 164.85 220.45 164.6 221.2 164.35 221.35 164.15 L 222.35 163.35 222.65 163.05 223.2 162.65 226.3 159.4 M 167.45 161.85 Q 167.6 161.7 167.55 161.7 L 165.95 162.5 165.6 162.8 Q 165.6 162.9 165.25 163.1 L 164.75 163.35 164.2 163.75 164.2 163.8 164.55 164 Q 164.65 164.1 165 164 165.35 163.95 165.4 163.85 L 165.95 163.6 Q 166.45 163.25 166.45 163.1 L 167.45 161.85 M 170.1 162.85 L 170.6 161.95 Q 170.6 161.8 170.35 162.05 L 169.35 162.9 167.35 164.2 166.55 164.6 165.75 165.35 166.2 165.55 167.6 164.9 167.8 164.9 Q 168.15 165 168.3 165.25 L 168.45 165.45 168.45 165.6 168.15 166 167.95 166.05 167.2 166.5 167.5 166.5 Q 168.05 166.5 168.65 166.35 L 169.55 166.05 Q 169.75 166.15 169.7 166.3 L 169.6 166.35 169.55 166.5 169.55 166.7 168.5 167.65 Q 168.25 167.7 168.25 167.85 L 168.5 167.85 169.8 167.25 171.4 166.15 Q 171.55 166.05 171.9 165.65 172.25 165.25 172.25 165.2 L 172.35 165.15 172.55 164.65 172.35 164.85 Q 172.15 165 172 165 L 171.2 165.35 170.85 165.35 170.65 165.45 Q 170.4 165.45 170.7 165.2 L 171.3 164.6 171.6 164.15 Q 171.6 163.95 171.75 163.95 L 171.75 163.8 171.9 163.6 171.9 163.4 172.1 163.1 Q 172.25 162.8 172.15 162.8 L 171.3 163.5 Q 170.7 164.1 170.1 164.5 L 169.8 164.6 Q 169.6 164.85 169.35 164.65 168.95 164.55 169.35 164 L 169.9 163.2 170.1 163 Q 169.95 163 170.1 162.85 M 166.05 160.3 L 165.95 160.45 164.25 161.4 Q 164.2 161.45 163.85 161.75 L 163.15 162.3 Q 162.6 162.5 162.6 162.8 163.05 163.05 163.05 163 L 163.25 163.1 Q 163.4 163.2 163.5 163.1 L 163.6 163.05 163.75 163 164.05 162.65 164.4 162.45 164.6 162.2 164.9 162.05 165.1 161.8 165.15 161.7 165.6 161.3 165.7 161.05 165.85 160.95 165.85 160.85 166.45 160.2 166.05 160.3 M 163.85 160.6 L 164.45 159.95 164.45 159.9 164.75 159.6 Q 165.3 159.05 165.1 159.05 L 164.1 159.6 163.85 159.85 162.45 160.65 162.2 160.95 161.25 161.6 161.05 161.8 Q 160.6 161.8 161.65 162.1 L 161.85 162.15 162.95 161.3 163.25 161 163.85 160.6 M 162.7 159.2 L 163.25 158.65 163.4 158.45 162.45 158.95 162.2 159 161.65 159.25 160.35 160.1 160.15 160.3 159.65 160.65 159.45 160.85 159.65 161.05 160.5 160.95 160.9 160.7 160.95 160.7 161.25 160.45 Q 161.8 160.2 162.7 159.2 M 175.05 154.2 Q 175.4 153.8 175.05 154.05 L 173.5 155.1 173.1 155.2 172.9 155.35 172.25 155.65 171.9 155.9 171.75 156.05 171.55 156.1 Q 171.3 156.4 171.3 156.5 L 171.3 156.8 Q 171.45 156.95 171.55 156.95 L 171.8 156.95 172.1 156.85 Q 172.25 156.85 172.25 156.8 L 172.95 156.4 173.25 156.15 173.4 156.1 173.75 155.8 Q 174.6 154.95 175.05 154.2 M 172.55 152.55 L 172.5 152.55 170.15 153.8 169.95 153.85 Q 169.7 153.85 169.45 154.2 L 169.4 154.35 169.45 154.5 170.05 154.5 Q 170.15 154.5 170.4 154.35 170.95 154.05 171.3 153.65 L 171.6 153.35 171.9 153.2 172.55 152.55 M 173.2 153.8 L 172.75 154 172.5 154.05 172 154.3 171.9 154.3 170.85 154.6 170.7 154.75 170.4 154.95 170.25 155.35 170.25 155.55 170.4 155.7 170.7 155.8 171.2 155.65 171.3 155.65 171.65 155.2 171.9 155.1 173.5 153.6 173.3 153.65 173.2 153.8 M 197.35 158.55 L 197.35 158.6 197.4 158.6 198.05 158.45 198.15 158.35 198.75 158.1 199.45 157.65 200.05 157.05 200.15 156.85 200.7 156.25 200.9 155.9 201 155.8 199.25 157.1 199.25 157.15 199.1 157.3 Q 198.7 157.55 198.6 157.55 L 198.55 157.65 197.75 158.25 197.6 158.3 197.5 158.35 197.45 158.35 197.35 158.55 M 193.25 152.15 L 193.35 152.05 193.5 152 Q 193.75 151.95 193.75 151.6 L 193.6 151.5 193.35 151.5 191.9 151.7 191.05 151.7 Q 190.2 151.7 189.85 151.7 L 188.2 151.5 187.65 151.5 Q 187.65 151.7 187.55 151.5 L 187.2 151.6 187.05 151.7 Q 187.25 151.95 187.3 152 L 187.35 152.15 187.6 152.3 Q 187.85 152.3 187.85 152.5 L 188.2 152.65 188.75 152.65 188.95 152.75 189.3 152.85 190.8 152.85 192.3 152.55 193.25 152.15 M 195.05 141.85 L 195.1 141.6 Q 195.35 141.2 194.75 141.6 L 193.25 142.75 193.15 142.85 193.55 142.85 Q 193.9 142.85 194.75 142.2 195.05 142 195.05 141.85 M 216.7 138.75 L 216.35 138.85 216.1 138.85 216 139.05 215.8 139.25 215.8 139.35 216.85 139 217.15 138.7 Q 217.15 138.65 216.7 138.75 M 211.8 139.6 L 211.85 139.6 213.7 138.65 Q 213.8 138.65 213.7 138.55 L 213.45 138.65 Q 212.7 138.65 212.2 139.1 L 211.8 139.6 Z"/>
</g>
<g id="l2">
<path fill="#BA0C2F" stroke="none" d="M 181.8 246.2 Q 182.7 246.1 188.1 245.05 L 188.1 219 172.85 219 172.85 248.15 Q 174.45 247.4 177.95 246.75 180.85 246.2 181.8 246.2 M 209.1 238.55 L 209.1 219 193.75 219 193.75 243.9 Q 203.4 241.75 209.1 238.55 M 225.7 221.35 L 226.1 219.6 226.1 219.1 226.2 219 214.95 219 214.95 235.05 217.7 233.15 219.95 231.05 222.2 228.35 222.65 227.6 223.6 226.35 224.5 224.45 224.85 223.85 224.95 223.25 225.25 222.8 225.5 221.8 225.7 221.35 M 153.15 251.55 L 153.4 251.65 153.65 251.85 154.3 252.25 154.45 252.5 155.45 253.15 155.6 253.5 155.95 253.75 157 254.7 157.2 255.05 157.55 255.35 157.9 255.75 158.05 256.1 159.05 257.35 159.3 257.85 Q 161.05 254.9 164 252.5 L 166.65 250.7 166.65 219 151.75 219 151.75 250.7 151.85 250.7 151.95 250.75 152 250.75 152.25 250.9 152.4 251.05 152.6 251.1 153 251.4 153.15 251.55 M 92.3 220.6 L 92.45 220.9 92.65 221.8 93 222.8 93.25 223.25 93.95 225.05 95.95 228.35 98.35 231.05 103.25 235.05 103.25 219 92.1 219 92.1 219.4 92.2 219.6 92.2 219.9 92.3 220.6 M 124.4 243.9 L 124.4 219 109.2 219 109.2 238.55 Q 114.85 241.75 124.4 243.9 M 130.35 219 L 130.35 245.05 136.65 246.2 Q 137.65 246.2 140.6 246.75 144.1 247.4 145.75 248.15 L 145.75 219 130.35 219 Z"/>
</g>
<g id="l1">
<path fill="#002F6C" stroke="none" d="M 174.25 276.2 L 177.15 292 183.7 290.85 Q 188.2 289.95 190.2 287.25 192.05 284.8 191.35 281.2 L 191.15 280.05 190.9 279.7 190.8 279.3 190.6 279 190.35 278.3 190.05 278 189.9 277.65 189.1 276.8 188.1 276.15 187.85 275.85 187.55 275.65 186.75 275.4 186.4 275.15 186 275.15 185.2 274.85 182.3 274.8 174.25 276.2 M 178.75 278.4 L 181.2 277.95 Q 183.8 277.45 185.45 278.65 186.9 279.8 187.3 282 187.65 284 186.9 285.55 185.85 287.45 183.1 287.95 L 180.6 288.4 178.75 278.4 M 96 30.8 L 95.6 30.9 95.1 30.9 94.75 31.1 94.2 31.15 93.8 31.35 92.9 31.65 85.7 35.55 93.4 49.55 99.15 46.5 Q 103.25 44.25 104.2 41.05 105.25 38.15 103.55 34.95 L 103.3 34.65 103.15 34.3 102.4 33.3 101.55 32.5 100.25 31.65 99.55 31.35 99.2 31.15 97.7 30.8 96 30.8 M 97.2 34.4 Q 98.85 34.95 99.9 36.85 100.95 38.65 100.6 40.4 100.2 42.55 97.8 43.85 L 95.45 45.1 90.65 36.15 92.85 34.95 Q 95.25 33.7 97.2 34.4 M 92.1 216.55 L 226.2 216.55 226.2 195.55 92.1 195.55 92.1 216.55 M 207.85 267.1 L 204 268.95 217.75 280.3 219.4 279.65 219.3 261.7 215.3 263.65 215.55 273.55 207.85 267.1 M 231.55 257.35 L 229.95 254.9 220.15 261.15 228.65 274.65 238.7 268.3 237.15 265.85 230.5 270 228.45 266.8 234.6 262.85 233.05 260.45 226.85 264.3 225.1 261.35 231.55 257.35 M 199.95 283.9 L 198.7 280.25 205.65 278 204.7 275.15 197.8 277.45 196.85 274.2 204.1 271.9 203.15 269.05 192.1 272.65 197.05 287.95 208.2 284.3 207.4 281.45 199.95 283.9 M 251.6 258.1 L 249.8 255.9 243.45 261 235.2 250.85 232.15 253.3 242.15 265.8 251.6 258.1 M 248.45 238.4 Q 245.65 241.45 245.75 245.25 245.8 248.5 248.15 250.7 L 248.45 251 248.8 251.2 249.05 251.45 249.4 251.55 249.75 251.85 250.4 252.2 251.1 252.4 251.5 252.6 252.25 252.75 254.3 252.8 255.55 252.6 256.85 252.2 257.65 251.85 258.1 251.55 258.5 251.4 260.35 249.65 Q 263.25 246.75 263.15 243.05 263.1 239.65 260.7 237.35 258.35 235.25 255.1 235.25 251.35 235.35 248.45 238.4 M 250.65 240.85 L 250.9 240.7 Q 252.4 239.05 254.4 238.95 256.3 238.9 257.9 240.35 259.55 241.85 259.55 243.75 259.6 245.75 257.95 247.4 256.45 249.05 254.45 249.1 252.55 249.2 251 247.75 L 250.55 247.35 249.75 246.1 249.6 245.6 249.45 245.4 249.45 245.15 249.4 245 249.4 244.55 249.3 244.25 249.3 244 249.4 243.85 249.4 243.55 249.45 243.35 249.45 243.05 249.6 242.9 249.8 242.2 250.2 241.5 250.4 241.3 250.65 240.85 M 267.25 222.55 L 265.65 221.8 265.45 221.8 265.15 221.75 263.85 221.75 263.6 221.8 263.4 221.8 262.8 221.95 262.7 222.05 262.4 222.25 262.2 222.3 261.95 222.45 261.8 222.65 261.25 223 260.65 223.6 256.15 230 269.25 239.1 271.55 235.9 266.3 232.2 268.05 229.65 Q 269.55 227.55 269.15 225.45 268.8 223.6 267.25 222.55 M 260.8 228.4 L 261.6 227.25 Q 262.65 225.9 263.25 225.6 264.05 225.3 264.8 225.95 266.4 226.95 264.9 228.95 L 263.9 230.55 260.8 228.4 M 284.7 213.55 L 286.55 210.05 272.3 202.75 270.75 205.85 273.65 213.1 266.05 215.05 264.45 218.15 278.8 225.3 280.6 221.8 271.6 217.25 278.1 215.7 278.4 215.1 275.8 209 284.7 213.55 M 76.7 245.4 L 73.4 242.25 57.65 249.55 60.8 252.4 63.85 250.9 69.05 255.75 67.8 259 71.05 261.95 76.7 245.4 M 70.15 253.05 L 66.55 249.6 72.4 246.65 70.15 253.05 M 60.1 227.25 L 57.75 224.4 45.3 234.4 47.8 237.45 55.75 231.05 53.3 244.3 55.35 247 67.9 237 65.45 233.95 57.75 239.9 60.1 227.25 M 43.9 219.6 L 44.45 220.6 Q 45.1 221.75 43.95 223.7 43.3 224.75 41.15 227.7 L 43.4 231.55 Q 45.95 228 46.6 226.85 47.65 225.2 47.6 223.95 50.05 225.7 52.3 224.4 L 52.75 224.1 52.85 223.95 53.1 223.8 53.2 223.6 53.55 223.25 53.6 223.15 53.8 223 53.9 222.8 53.95 222.55 54.1 222.4 54.15 222.15 54.3 221.95 54.4 221.75 54.4 221.45 54.45 221.35 54.45 220.8 54.5 220.6 54.5 220.3 54.45 220.05 54.45 219.55 54.1 218.6 54.05 218.25 50 211.3 36.2 219.5 38.3 222.85 43.9 219.6 M 47.45 219.9 L 46.35 218.15 49.5 216.25 50.55 217.95 Q 51.7 219.9 50.1 220.9 48.55 221.75 47.45 219.9 M 43.1 203.25 L 46.1 210.15 48.8 209 44.15 198.35 29.4 204.8 34.2 215.6 36.95 214.45 33.8 207.3 37.3 205.8 40.25 212.45 42.95 211.25 39.95 204.55 43.1 203.25 M 158.3 277 L 154.3 277 154.4 292.95 166.55 292.85 166.55 289.95 158.35 289.95 158.3 277 M 133.15 290.85 L 137.3 291.35 138.9 288.35 145.95 289.25 146.95 292.5 151.15 293 146.1 276.3 141.4 275.8 133.15 290.85 M 143.3 279.85 L 145.15 286.3 140.25 285.65 143.3 279.85 M 114.15 285.75 L 117.9 286.8 120.65 277 126.4 289.25 129.7 290.05 133.95 274.7 130.1 273.6 127.5 283.05 121.85 271.35 118.35 270.4 114.15 285.75 M 97.7 260.65 L 94.3 258.55 86.05 272.35 89.5 274.35 97.7 260.65 M 86.05 256.65 L 90.65 260.1 92.45 257.7 79.9 248.4 78.1 250.85 82.85 254.25 75.1 264.8 78.3 267.25 86.05 256.65 M 113.25 271 Q 112 267.5 108.05 265.8 104.2 264 100.8 265.35 97.7 266.5 96.35 269.4 L 96.15 270.15 95.95 270.5 95.7 271.7 95.7 273.55 96 275.15 96.25 275.5 96.35 275.95 97.2 277.45 97.45 277.8 97.8 278.05 98 278.4 99.1 279.45 99.5 279.65 100.35 280.25 101.3 280.75 Q 105 282.45 108.5 281.15 111.65 280 113 277.05 114.3 274.15 113.25 271 M 105.2 268.25 L 105.45 268.3 105.7 268.5 106.8 268.7 Q 108.85 269.65 109.55 271.5 110.2 273.3 109.3 275.4 108.4 277.35 106.55 278 104.8 278.65 102.7 277.65 100.6 276.7 99.85 274.9 99.15 273.15 100.05 271.15 L 100.25 270.95 100.35 270.65 100.5 270.4 100.7 270.25 100.7 270 100.9 269.8 101.05 269.7 101.2 269.4 101.4 269.35 102 268.85 102.4 268.65 103.05 268.5 103.3 268.3 103.5 268.25 105.2 268.25 M 39 181.8 L 36.15 182.65 37.75 188.2 25.2 191.95 26.4 195.7 39 192 40.6 197.55 43.4 196.75 39 181.8 M 36.7 167.75 L 36.2 164.2 20.35 166.55 20.9 170.35 31.05 168.85 22.2 179.15 22.65 182.55 38.55 180.1 37.95 176.25 28.3 177.65 36.7 167.75 M 36.2 161 L 36.1 157.05 20.1 157.65 20.2 161.7 36.2 161 M 35.65 124.4 L 30.35 126.1 27.1 121.6 27.1 127.15 21.85 128.85 26.95 130.5 26.95 135.95 30.35 131.55 35.65 133.3 32.45 128.85 35.65 124.4 M 49.6 67.7 L 47.25 70.95 55.3 76.6 42.4 77.95 40.25 80.95 53.35 90.1 55.7 86.85 47.25 80.95 60.7 79.55 62.6 76.95 49.6 67.7 M 55.55 60.95 L 52.85 64 64.95 74.5 67.55 71.55 55.55 60.95 M 67.05 53.5 L 71.25 49.55 69.2 47.4 57.95 58.15 59.9 60.25 64.15 56.25 73.1 65.75 76 63.05 67.05 53.5 M 37.5 85.55 L 35.8 89.1 43.8 93.1 Q 45.6 94 46 95.5 46.35 96.9 45.55 98.45 44.8 100.05 43.45 100.5 42.05 101.05 40.55 100.3 L 32.2 96.3 30.5 99.8 38.65 103.85 Q 41.8 105.5 44.5 104.25 46.95 103.2 48.65 99.8 50.1 96.65 49.65 94.1 49.05 91.15 45.65 89.55 L 37.5 85.55 M 86.85 45.85 L 85.2 43.45 79.3 47.75 77.3 45 83.55 40.55 81.75 38.15 72.35 45 81.75 58 91.35 50.95 89.65 48.65 83.25 53.15 81 50.15 86.85 45.85 M 121.5 24.15 L 121.95 24.15 121 21.15 Q 117.65 20.95 115.4 21.7 112.9 22.55 111.65 24.3 110.4 26 111.05 27.95 112.05 31.1 116.45 31.35 120.85 31.55 121.15 32.5 121.6 33.75 119.3 34.65 117 35.35 113.55 34.4 L 114.6 37.6 Q 116.25 37.95 117.3 37.9 118.7 37.9 120.55 37.25 123.1 36.45 124.35 34.65 125.65 32.9 125 30.75 123.95 27.7 119.55 27.45 115.15 27.1 114.9 26.35 114.65 25.8 115.15 25.25 115.7 24.75 116.65 24.4 L 117.5 24.15 117.75 24.15 118.05 24.1 118.6 24.1 118.7 23.95 120.1 23.95 120.25 24.1 121.3 24.1 121.5 24.15 M 134.45 20.1 L 140.1 19.05 139.6 16.15 124.3 19.05 124.8 22.05 130.5 20.9 133.05 33.7 136.95 32.9 134.45 20.1 M 149.85 15.3 L 145.35 15.65 140.1 32.05 144.3 31.8 145.25 28.55 152.35 27.95 153.95 31.05 158.25 30.7 149.85 15.3 M 151 25.2 L 146.1 25.6 147.95 19.3 151 25.2 M 226.2 112.35 L 226.2 73.5 92.1 73.5 92.1 112.35 226.2 112.35 M 281.9 153.45 L 281.05 169 283.95 169.15 284.3 163.4 297.3 164.15 297.6 160.1 284.55 159.35 284.9 153.65 281.9 153.45 M 278.45 183 L 277.75 186.65 293.5 189.75 294.2 185.75 284.15 183.8 295.95 177.15 296.65 173.75 280.9 170.7 280.1 174.7 289.75 176.5 278.45 183 M 277.3 197.2 L 279.75 190 276.95 189.05 273.25 200 288.35 205.25 292.2 194.05 289.4 193.1 286.85 200.5 283.25 199.25 285.55 192.3 282.85 191.45 280.45 198.3 277.3 197.2 M 286.4 131.55 L 289.75 135.95 289.75 130.5 294.9 128.9 289.75 127.15 289.75 121.6 286.4 126.15 281.15 124.4 284.4 128.85 281.15 133.3 286.4 131.55 M 166.1 18.15 L 171.9 18.25 172 15.35 156.4 14.85 156.3 17.7 162.1 18 161.6 31.05 165.6 31.15 166.1 18.15 M 193.95 23.7 Q 194.1 23.15 194.9 22.9 195.55 22.7 196.55 23 L 197.8 23.5 198.05 23.7 198.25 23.75 198.7 23.95 198.85 24.1 199 24.15 199.1 24.3 199.25 24.4 199.35 24.5 199.55 24.55 199.7 24.75 199.85 24.8 200.05 25 200.2 25.05 200.35 25.2 200.55 25.35 200.7 25.5 200.9 25.6 201 25.8 201.85 22.7 Q 199.45 20.8 197 20.1 194.3 19.3 192.4 20.05 190.45 20.9 189.9 22.85 189 25.95 192.5 28.65 196.05 31.3 195.75 32.2 195.2 33.65 193 33 190.75 32.25 188.35 29.5 L 187.4 32.85 Q 188.8 34.1 189.45 34.5 190.75 35.4 192.5 35.85 195.2 36.65 197.2 35.85 199.2 35.05 199.8 32.9 200.7 29.8 197.2 27.1 193.75 24.45 193.95 23.7 M 186.9 20.65 L 187.3 17.8 175.85 16 173.3 31.8 184.9 33.65 185.45 30.7 177.75 29.45 178.3 25.7 185.5 26.9 186 23.85 178.8 22.7 179.35 19.4 186.9 20.65 M 226.1 45.8 Q 225.5 43.8 226.7 42.05 227.85 40.3 229.7 39.85 231.8 39.3 234.35 41 L 235.55 41.95 235.85 42.15 236.1 42.4 236.7 42.9 237.45 43.8 237.65 44.15 238.65 45.5 240.45 42.55 Q 239 40 235.95 38 232.4 35.7 228.85 36.1 225.35 36.55 223.3 39.65 221.4 42.7 222.45 46.05 223.35 49.4 226.85 51.75 228.55 52.8 230.5 53.35 232.45 53.85 233.75 53.6 L 237.25 48.1 231.95 44.65 230.3 47.05 232.3 48.45 231.35 49.95 Q 229.95 49.75 228.75 49 226.7 47.65 226.1 45.8 M 219.65 29 L 215.5 26.95 202.85 38.8 206.65 40.5 209.1 38.15 215.55 41.15 215.4 44.6 219.3 46.5 219.65 29 M 216 31.45 L 215.7 38.15 211.2 36.05 216 31.45 M 280.25 97 L 283.35 91.75 281.25 87.45 276.2 96.75 269.45 99.9 271.2 103.5 277.95 100.3 288.35 102.5 286.25 98.1 280.25 97 M 261.05 81.15 Q 260.35 84.65 262.75 88.35 L 263.05 88.7 263.15 89.1 264.75 90.85 265.45 91.3 265.65 91.55 265.95 91.85 267.1 92.55 267.3 92.7 267.45 92.75 270.45 90.85 Q 268.6 89.75 267.75 89.05 266.65 88.15 265.85 87 264.45 84.85 264.75 82.8 265 80.65 266.8 79.5 268.6 78.35 270.6 78.95 272.65 79.55 274 81.75 275.5 83.95 275.65 87.25 L 278.65 85.25 Q 278.45 82.45 276.6 79.75 274.25 76 270.6 75.15 267.3 74.25 264.45 76.15 261.7 77.95 261.05 81.15 M 247.95 59.3 L 249.8 57.1 244.3 52.35 246.45 49.8 252.25 54.8 254.15 52.55 245.3 45 234.85 57.1 243.9 64.8 245.75 62.65 239.85 57.5 242.4 54.65 247.95 59.3 M 268.45 67.95 L 265.85 65 258.5 71.55 260.1 58.65 257.75 55.95 245.75 66.5 248.45 69.45 256.1 62.7 254.15 76.1 256.4 78.6 268.45 67.95 Z"/>
</g>
<g id="l0">
<path fill="#FFFFFF" stroke="none" d="M 179.5 203.7 L 177.95 198.8 176.4 203.7 171.1 203.7 175.4 206.9 173.8 211.8 173.8 211.85 177.95 208.75 182.15 211.85 182.15 211.8 180.6 206.9 184.75 203.7 179.5 203.7 M 196.45 198.8 L 194.9 203.7 189.65 203.7 193.95 206.9 192.3 211.8 192.3 211.85 196.45 208.75 200.6 211.85 200.7 211.8 199 206.9 203.3 203.7 198.05 203.7 196.5 198.8 196.45 198.8 M 214.85 198.8 L 213.3 203.7 208.15 203.7 212.35 206.9 210.75 211.8 210.75 211.85 214.85 208.75 219.15 211.85 219.15 211.8 217.55 206.9 221.75 203.7 216.45 203.7 214.95 198.8 214.85 198.8 M 105.6 203.7 L 104.05 198.8 102.45 203.7 97.3 203.7 101.5 206.9 99.85 211.8 99.9 211.85 104.05 208.75 108.15 211.85 108.3 211.8 106.55 206.9 110.8 203.7 105.6 203.7 M 129.3 203.7 L 124.15 203.7 122.55 198.8 121 203.7 115.75 203.7 119.95 206.9 118.35 211.8 118.35 211.85 122.55 208.75 126.75 211.85 126.75 211.8 125.1 206.9 129.3 203.7 M 147.8 203.7 L 142.6 203.7 141 198.8 139.45 203.7 134.3 203.7 138.5 206.9 136.85 211.8 136.85 211.85 141 208.75 145.15 211.85 145.25 211.8 143.6 206.9 147.8 203.7 M 157.95 203.7 L 152.65 203.7 157 206.9 155.25 211.8 155.25 211.85 159.55 208.75 163.65 211.85 163.75 211.8 162.1 206.9 166.25 203.7 161.1 203.7 159.55 198.8 159.45 198.8 157.95 203.7 M 134.65 83.05 Q 132.35 84.8 132.35 87.65 132.35 92.15 138 94.4 143.6 96.55 143.6 97.95 143.6 99.9 140.4 99.9 137 99.9 132.85 97.15 L 132.85 101.8 Q 134.8 102.9 136.15 103.3 138.15 103.9 140.8 103.9 144.6 103.9 146.95 102.15 149.3 100.35 149.3 97.25 149.3 92.9 143.65 90.6 138.05 88.3 138.05 87.2 138.05 85.4 141.3 85.4 L 142.05 85.4 142.4 85.5 142.65 85.5 143.85 85.7 144.1 85.85 144.25 85.85 144.5 85.9 145.15 86.1 145.4 86.1 145.55 86.25 145.8 86.4 146.1 86.45 146.3 86.6 147.95 87.2 148.2 87.45 148.2 83 Q 144.35 81.35 140.8 81.35 136.95 81.35 134.65 83.05 M 106.55 81.6 L 106.55 94.1 Q 106.55 99.1 109.7 101.6 112.6 103.9 117.7 103.9 122.65 103.9 125.45 101.8 128.65 99.25 128.65 94.1 L 128.65 81.6 123.15 81.6 123.15 93.9 Q 123.15 96.65 121.5 98.1 120 99.4 117.65 99.4 115.2 99.4 113.7 98.05 112.15 96.55 112.15 94.35 L 112.15 81.6 106.55 81.6 M 169.75 103.65 L 175.7 103.65 165.85 81.6 159.55 81.6 150.6 103.65 156.45 103.65 158.05 99.35 168.05 99.35 169.75 103.65 M 162.8 86.85 L 166.4 95.4 159.6 95.4 162.8 86.85 M 183.9 81.6 L 178.4 81.6 178.4 103.65 183.9 103.65 183.9 81.6 M 199.45 81.6 L 188.95 81.6 188.95 103.65 198.15 103.65 Q 204.45 103.65 207.85 100.6 210.9 97.6 210.9 92.7 L 210.85 90.95 210.2 88.4 208.55 85.6 207.5 84.45 206.2 83.5 202.85 82.1 199.45 81.6 M 194.55 85.6 L 198.05 85.6 Q 201.8 85.6 203.65 87.75 205.2 89.55 205.2 92.7 205.2 95.5 203.7 97.35 201.85 99.7 198.05 99.7 L 194.55 99.7 194.55 85.6 Z"/>
</g>
</defs>
<g transform="matrix(1,0,0,1,0,0)">
<use xlink:href="#l8"/>
</g>
<g transform="matrix(1,0,0,1,0,0)">
<use xlink:href="#l7"/>
</g>
<g transform="matrix(1,0,0,1,0,0)">
<use xlink:href="#l6"/>
</g>
<g transform="matrix(1,0,0,1,0,0)">
<use xlink:href="#l5"/>
</g>
<g transform="matrix(1,0,0,1,0,0)">
<use xlink:href="#l4"/>
</g>
<g transform="matrix(1,0,0,1,0,0)">
<use xlink:href="#l3"/>
</g>
<g transform="matrix(1,0,0,1,0,0)">
<use xlink:href="#l2"/>
</g>
<g transform="matrix(1,0,0,1,0,0)">
<use xlink:href="#l1"/>
</g>
<g transform="matrix(1,0,0,1,0,0)">
<use xlink:href="#l0"/>
</g>
</svg>
