<svg xmlns="http://www.w3.org/2000/svg" xmlns:xlink="http://www.w3.org/1999/xlink" width="100%" height="100%" viewBox="0 0 1024 312">
<!-- Vectorization by Rodrigo Polo https://github.com/rodrigopolo/logotipos-politicos -->
<defs>
<g id="l5">
<path fill="#002F6C" stroke="none" d="M 309.25 156 Q 309.25 94.45 265.65 50.95 222.15 7.4 160.6 7.4 99.05 7.4 55.5 50.95 11.95 94.45 11.95 156 11.95 217.6 55.5 261.1 99.05 304.6 160.6 304.6 222.15 304.6 265.65 261.1 309.25 217.6 309.25 156 Z"/>
</g>
<g id="l4">
<path fill="#FFFFFF" stroke="none" d="M 308 156.1 Q 308 95 264.85 51.85 221.65 8.65 160.6 8.65 99.5 8.65 56.4 51.85 13.2 95 13.2 156.1 13.2 217.15 56.4 260.35 99.5 303.5 160.6 303.5 221.65 303.5 264.85 260.35 308 217.15 308 156.1 Z"/>
</g>
<g id="l3">
<path fill="#BA0C2F" stroke="none" d="M 190.2 221.8 L 174.75 221.8 174.75 251.3 Q 176.35 250.55 179.9 249.85 182.8 249.3 183.8 249.3 184.7 249.25 190.2 248.15 L 190.2 221.8 M 211.4 241.55 L 211.4 221.8 195.9 221.8 195.9 247 Q 205.7 244.8 211.4 241.55 M 228.65 221.85 L 228.75 221.8 217.35 221.8 217.35 238.05 220.15 236.1 222.4 234 226.1 229.2 227 227.3 227.35 226.7 227.45 226.1 227.75 225.65 228.25 224.15 228.45 223.05 228.6 222.7 228.65 222.4 228.65 221.85 M 153.35 253.85 L 153.45 253.85 153.55 253.95 153.6 253.95 153.85 254.1 154 254.25 154.2 254.3 155.9 255.45 156.1 255.7 157.1 256.35 157.25 256.7 157.6 256.95 158.7 257.95 158.85 258.3 159.2 258.6 159.55 259 159.75 259.35 160.75 260.6 161 261.15 Q 162.75 258.1 165.75 255.7 L 168.45 253.85 168.45 221.8 153.35 221.8 153.35 253.85 M 93 221.8 L 93 222.2 93.05 222.4 93.05 222.7 93.15 223.4 93.35 223.7 93.5 224.65 93.75 225.1 93.85 225.65 94.15 226.1 94.85 227.9 96.9 231.25 99.3 234 104.25 238.05 104.25 221.8 93 221.8 M 125.65 247 L 125.65 221.8 110.3 221.8 110.3 241.55 Q 116 244.8 125.65 247 M 147.3 221.8 L 131.7 221.8 131.7 248.15 138.05 249.3 Q 139.1 249.3 142.05 249.85 145.6 250.55 147.3 251.3 L 147.3 221.8 M 799.7 59.55 L 799.7 201.75 835.15 201.75 835.15 59.55 799.7 59.55 M 720.9 59.55 L 679.9 59.55 622.55 201.75 660.05 201.75 670.7 173.65 734.3 173.65 745.9 201.75 784.1 201.75 720.9 59.55 M 723.8 148.75 L 680.05 148.75 700.95 93.55 723.8 148.75 M 995.75 91.2 L 991.75 85.7 984.6 78.3 976.05 71.85 966.1 66.6 954.95 62.8 937.8 59.95 865.55 59.55 865.55 201.75 924.4 201.75 Q 965.3 201.75 986.95 181.7 1006.95 163 1006.95 130.9 L 1005.7 116.6 1004.1 109.9 1000.65 100.15 995.75 91.2 M 901.1 85.65 L 923.75 85.65 Q 947.5 85.65 959.75 99 970.4 110.8 970.4 130.65 970.4 149.1 960.7 161 948.6 175.7 924.15 175.7 L 901.1 175.7 901.1 85.65 Z"/>
</g>
<g id="l2">
<path fill="#002F6C" stroke="none" d="M 221.75 265.05 L 217.7 267 217.95 277 210.2 270.45 206.25 272.35 220.2 283.85 221.85 283.2 221.75 265.05 M 237.25 266.15 L 235.65 263.7 229.4 267.6 227.65 264.7 234.15 260.6 232.55 258.1 222.6 264.45 231.25 278.1 241.4 271.7 239.8 269.2 233.1 273.4 231 270.15 237.25 266.15 M 199.95 280.95 L 199 277.7 206.35 275.35 205.4 272.5 194.2 276.1 199.25 291.6 210.55 287.9 209.7 285 202.15 287.5 200.9 283.8 207.9 281.5 207 278.65 199.95 280.95 M 176.15 279.7 L 179.1 295.7 185.7 294.5 Q 190.25 293.65 192.3 290.85 194.15 288.4 193.45 284.75 L 193.25 283.6 193.05 283.25 192.9 282.85 192.7 282.55 192.4 281.85 192.15 281.5 192 281.15 191.2 280.3 190.2 279.65 189.9 279.35 189.6 279.15 188.8 278.9 188.45 278.65 188.05 278.6 187.2 278.3 186.7 278.3 186.3 278.25 184.3 278.25 176.15 279.7 M 183.15 281.45 Q 185.85 280.95 187.5 282.2 188.95 283.3 189.4 285.55 189.75 287.6 188.95 289.15 187.9 291.1 185.1 291.6 L 182.55 292.05 180.7 281.9 183.15 281.45 M 244.85 269.15 L 254.45 261.4 252.65 259.15 246.2 264.3 237.85 254 234.75 256.55 244.85 269.15 M 268.7 224.65 L 268.45 224.65 268.2 224.55 266.9 224.55 266.6 224.65 266.4 224.65 265.8 224.75 265.4 225.05 265.2 225.1 264.95 225.25 264.8 225.45 264.2 225.8 263.6 226.45 259.1 232.9 272.35 242.15 274.65 238.9 269.35 235.1 271.1 232.55 Q 272.65 230.4 272.25 228.3 271.85 226.45 270.3 225.4 L 270.05 225.2 269.85 225.1 269.5 225 269.3 224.85 268.7 224.65 M 266.3 228.45 Q 267.05 228.2 267.85 228.8 269.45 229.85 267.9 231.85 L 266.9 233.45 263.8 231.3 264.55 230.15 Q 265.65 228.75 266.3 228.45 M 258 238.25 Q 254.25 238.3 251.3 241.45 248.4 244.5 248.5 248.35 248.6 251.65 250.95 253.85 L 251.25 254.15 251.6 254.35 251.9 254.65 252.2 254.75 252.55 255.05 253.25 255.4 253.95 255.6 254.35 255.8 255.1 255.95 257.2 256 258.45 255.8 259.8 255.4 260.6 255.05 261.05 254.75 261.45 254.6 263.35 252.8 Q 266.25 249.85 266.15 246.1 266.1 242.65 263.7 240.35 261.3 238.25 258 238.25 M 252.3 246.45 L 252.3 246.15 252.4 245.95 252.65 245.25 253.05 244.55 253.25 244.35 253.5 243.9 253.75 243.75 Q 255.25 242.05 257.25 241.95 259.2 241.95 260.8 243.4 262.5 244.9 262.5 246.85 262.55 248.85 260.9 250.55 259.35 252.2 257.35 252.3 255.45 252.35 253.85 250.9 L 253.4 250.45 252.55 249.25 252.3 248.5 252.3 248.25 252.2 248.1 252.2 247.65 252.15 247.35 252.15 247.05 252.2 246.9 252.2 246.65 252.3 246.45 M 287.95 216.25 L 289.85 212.7 275.4 205.3 273.8 208.45 276.8 215.8 269.1 217.75 267.5 220.9 282 228.2 283.8 224.65 274.7 220.05 281.3 218.45 281.6 217.85 278.95 211.65 287.95 216.25 M 64.4 254.1 L 69.65 259 68.4 262.25 71.65 265.25 77.35 248.5 74.05 245.35 58.1 252.7 61.3 255.6 64.4 254.1 M 70.75 256.25 L 67.1 252.75 73.05 249.75 70.75 256.25 M 60.55 230.15 L 58.2 227.2 45.55 237.35 48.1 240.45 56.15 234 53.7 247.4 55.8 250.1 68.45 240 66 236.95 58.2 242.95 60.55 230.15 M 54.85 222.35 L 54.5 221.35 54.45 221 50.35 214 36.35 222.25 38.5 225.7 44.15 222.4 44.7 223.4 Q 45.4 224.55 44.2 226.5 43.55 227.6 41.4 230.6 L 43.65 234.5 Q 46.25 230.85 46.9 229.7 48 228.05 47.9 226.8 50.4 228.55 52.7 227.2 L 53.1 226.95 53.2 226.8 53.45 226.65 53.6 226.45 53.95 226.1 54 226 54.2 225.8 54.3 225.65 54.35 225.4 54.5 225.2 54.55 225 54.8 224.55 54.8 224.3 54.85 224.15 54.85 223.6 54.9 223.4 54.9 223.1 54.85 222.85 54.85 222.35 M 46.65 220.9 L 49.85 219 50.9 220.75 Q 52.05 222.7 50.45 223.7 48.85 224.55 47.75 222.7 L 46.65 220.9 M 46.4 212.85 L 49.15 211.65 44.45 200.9 29.5 207.4 34.35 218.3 37.15 217.2 33.95 209.95 37.5 208.4 40.45 215.15 43.2 213.95 40.2 207.15 43.35 205.8 46.4 212.85 M 160.05 293.65 L 160 280.5 155.95 280.5 156.05 296.65 168.35 296.6 168.35 293.65 160.05 293.65 M 138.75 295.05 L 140.35 292 147.5 292.9 148.5 296.2 152.75 296.7 147.65 279.8 142.9 279.3 134.5 294.5 138.75 295.05 M 144.85 283.4 L 146.65 289.9 141.7 289.3 144.85 283.4 M 115.3 289.35 L 119.1 290.45 121.85 280.5 127.7 292.9 131.05 293.75 135.35 278.2 131.45 277.05 128.8 286.6 123.1 274.8 119.55 273.8 115.3 289.35 M 98.65 263.95 L 95.2 261.85 86.85 275.8 90.35 277.85 98.65 263.95 M 86.85 259.9 L 91.5 263.35 93.35 260.95 80.6 251.55 78.8 254 83.6 257.5 75.75 268.15 79 270.65 86.85 259.9 M 109.15 269.15 Q 105.25 267.35 101.75 268.7 98.65 269.85 97.25 272.85 L 97.05 273.6 96.9 273.95 96.65 275.15 96.65 277 96.9 278.6 97.15 279 97.25 279.4 98.1 280.95 98.4 281.3 98.75 281.6 98.95 281.9 100.05 282.95 101.3 283.8 102.3 284.3 Q 106.05 286 109.55 284.7 112.75 283.55 114.15 280.55 115.45 277.6 114.4 274.45 113.1 270.9 109.15 269.15 M 106.75 271.85 L 107.85 272.1 Q 109.9 273.05 110.65 274.9 111.3 276.75 110.4 278.9 109.5 280.9 107.6 281.5 105.85 282.15 103.7 281.15 101.6 280.2 100.8 278.35 100.1 276.6 101.05 274.55 L 101.25 274.35 101.3 274.05 101.45 273.8 101.65 273.65 101.7 273.4 101.9 273.2 102.05 273.1 102.2 272.85 102.4 272.75 103 272.25 103.4 272.05 104.1 271.85 104.3 271.7 104.5 271.65 106.25 271.65 106.5 271.7 106.75 271.85 M 37.95 190.6 L 25.25 194.35 26.45 198.2 39.2 194.45 40.8 200.05 43.65 199.2 39.2 184.1 36.3 185 37.95 190.6 M 36.9 169.9 L 36.35 166.3 20.35 168.65 20.9 172.55 31.2 171 22.2 181.45 22.7 184.85 38.75 182.4 38.15 178.5 28.4 179.9 36.9 169.9 M 36.35 163.05 L 36.25 159.05 20.05 159.65 20.2 163.75 36.35 163.05 M 27 132.15 L 27 137.65 30.45 133.2 35.8 134.95 32.55 130.45 35.8 126 30.45 127.7 27.15 123.15 27.15 128.75 21.85 130.45 27 132.15 M 49.95 68.6 L 47.55 71.85 55.7 77.55 42.65 78.95 40.45 82 53.75 91.25 56.1 87.95 47.55 82 61.2 80.55 63.1 77.9 49.95 68.6 M 55.95 61.7 L 53.2 64.85 65.5 75.45 68.1 72.5 55.95 61.7 M 67.6 54.2 L 71.85 50.2 69.8 48.05 58.4 58.9 60.35 61 64.65 56.95 73.75 66.55 76.65 63.9 67.6 54.2 M 37.7 86.65 L 35.95 90.25 44.1 94.3 Q 45.9 95.2 46.3 96.75 46.65 98.1 45.85 99.7 45.05 101.3 43.75 101.8 42.25 102.35 40.8 101.6 L 32.35 97.55 30.6 101.1 38.85 105.15 Q 42.05 106.85 44.8 105.6 47.25 104.5 48.95 101.1 50.45 97.9 50 95.3 49.4 92.35 45.95 90.65 L 37.7 86.65 M 84.3 41.1 L 82.5 38.65 73 45.6 82.5 58.75 92.2 51.6 90.5 49.3 84 53.85 81.7 50.8 87.65 46.45 85.95 44 80 48.35 78 45.6 84.3 41.1 M 95.65 31.5 L 95.1 31.55 94.7 31.75 93.8 32.05 86.5 36 94.3 50.2 100.1 47.1 Q 104.25 44.85 105.25 41.6 106.3 38.65 104.55 35.4 L 104.3 35.1 104.15 34.75 103.4 33.7 102.55 32.9 101.25 32.05 100.55 31.75 100.2 31.55 98.65 31.2 97.75 31.15 97.35 31.2 96.9 31.2 96.55 31.3 96.05 31.3 95.65 31.5 M 91.5 36.6 L 93.75 35.4 Q 96.15 34.15 98.1 34.85 99.8 35.4 100.9 37.35 101.95 39.15 101.6 40.95 101.15 43.1 98.75 44.4 L 96.4 45.65 91.5 36.6 M 123.2 24.45 L 122.2 21.4 Q 118.8 21.25 116.6 22 114.05 22.85 112.75 24.65 111.5 26.35 112.15 28.3 113.2 31.5 117.65 31.75 122.1 32 122.35 32.9 122.8 34.2 120.5 35.1 118.2 35.8 114.7 34.85 L 115.75 38.1 Q 117.4 38.45 118.45 38.4 119.9 38.4 121.8 37.75 124.35 36.9 125.6 35.1 126.95 33.35 126.25 31.15 125.2 28.1 120.75 27.85 116.3 27.5 116.05 26.7 115.8 26.15 116.3 25.6 116.85 25.05 117.85 24.7 L 118.7 24.45 119.8 24.45 119.9 24.3 121.3 24.3 121.5 24.45 123.2 24.45 M 135.85 20.4 L 141.55 19.3 141.05 16.35 125.55 19.35 126.1 22.35 131.85 21.15 134.45 34.15 138.4 33.35 135.85 20.4 M 151.45 15.5 L 146.9 15.85 141.55 32.5 145.8 32.2 146.8 28.95 153.95 28.3 155.55 31.45 159.95 31.1 151.45 15.5 M 152.65 25.55 L 147.65 25.95 149.5 19.6 152.65 25.55 M 279.35 156.1 Q 279.35 106.9 244.6 72.15 209.8 37.35 160.55 37.35 111.35 37.35 76.6 72.15 41.8 106.9 41.8 156.1 41.8 205.3 76.6 240.05 111.35 274.8 160.55 274.8 209.8 274.8 244.6 240.05 279.35 205.3 279.35 156.1 M 243.7 73 Q 278.1 107.4 278.1 156.1 278.1 204.75 243.7 239.15 209.25 273.6 160.6 273.6 111.9 273.6 77.5 239.15 43.05 204.75 43.05 156.1 43.05 107.4 77.5 73 111.9 38.55 160.6 38.55 209.25 38.55 243.7 73 M 93 198 L 93 219.3 228.75 219.3 228.75 198 93 198 M 228.75 113.8 L 228.75 74.45 93 74.45 93 113.8 228.75 113.8 M 288.2 155.6 L 285.15 155.4 284.3 171.15 287.2 171.3 287.55 165.45 300.7 166.25 301 162.15 287.8 161.35 288.2 155.6 M 281.65 185.35 L 280.95 189 296.85 192.15 297.6 188.1 287.4 186.15 299.35 179.4 300.05 175.95 284.15 172.9 283.3 176.9 293.1 178.75 281.65 185.35 M 282.95 192.4 L 280.15 191.45 276.4 202.55 291.65 207.85 295.55 196.5 292.75 195.55 290.15 203.05 286.5 201.75 288.8 194.75 286.1 193.85 283.7 200.8 280.5 199.7 282.95 192.4 M 287.65 130.45 L 284.4 134.95 289.7 133.2 293.1 137.65 293.1 132.15 298.3 130.55 293.1 128.75 293.1 123.15 289.7 127.8 284.4 126 287.65 130.45 M 167.9 18.35 L 173.75 18.5 173.85 15.55 158.05 15.05 158 17.95 163.8 18.25 163.35 31.45 167.4 31.55 167.9 18.35 M 188.95 20.9 L 189.4 18.05 177.75 16.2 175.2 32.2 186.95 34.05 187.5 31.1 179.7 29.85 180.25 26.05 187.55 27.25 188.05 24.2 180.75 23 181.3 19.7 188.95 20.9 M 229.25 42.6 Q 230.4 40.8 232.3 40.4 234.4 39.8 237 41.5 L 238.55 42.7 238.75 42.95 239.4 43.45 241.35 46.1 243.15 43.1 Q 241.7 40.5 238.6 38.5 235 36.15 231.45 36.55 227.9 37.05 225.8 40.15 223.85 43.25 224.9 46.65 225.9 50 229.4 52.4 231.1 53.45 233.05 54 235.05 54.55 236.35 54.25 L 239.9 48.7 234.55 45.25 232.9 47.7 234.9 49.05 233.95 50.6 Q 232.55 50.35 231.3 49.65 229.25 48.25 228.65 46.35 228.05 44.35 229.25 42.6 M 203.15 25.95 L 203.25 26.15 204.1 23 Q 201.65 21.05 199.15 20.4 196.45 19.6 194.5 20.3 192.55 21.15 192 23.15 191.1 26.3 194.6 29 198.2 31.75 197.9 32.6 197.35 34.05 195.15 33.45 192.85 32.7 190.4 29.9 L 189.5 33.25 Q 190.9 34.55 191.55 34.95 192.85 35.9 194.6 36.35 197.35 37.1 199.35 36.35 201.4 35.5 202 33.35 202.9 30.15 199.35 27.5 195.9 24.75 196.1 24 196.25 23.5 197.05 23.25 197.7 23 198.75 23.3 L 199.95 23.8 200.25 24 200.9 24.3 201.05 24.45 201.2 24.45 201.3 24.65 201.45 24.7 201.55 24.8 201.75 24.9 201.9 25.05 202.05 25.1 202.25 25.3 202.4 25.4 202.55 25.55 202.75 25.65 202.9 25.8 203.15 25.95 M 222.1 29.35 L 217.9 27.3 205.1 39.3 208.95 41 211.4 38.65 217.95 41.7 217.8 45.15 221.75 47.1 222.1 29.35 M 213.55 36.5 L 218.4 31.85 218.1 38.65 213.55 36.5 M 286.6 92.9 L 284.5 88.6 279.35 97.95 272.55 101.15 274.3 104.8 281.15 101.6 291.65 103.8 289.55 99.35 283.45 98.2 286.6 92.9 M 281.85 86.35 Q 281.65 83.5 279.8 80.75 277.35 77 273.7 76.1 270.35 75.2 267.5 77.15 264.7 78.95 264.05 82.2 263.35 85.75 265.75 89.5 L 266.05 89.8 266.15 90.25 267.75 92 268.45 92.5 269 93 270.15 93.7 270.35 93.85 270.55 93.95 273.55 92 Q 271.65 90.9 270.8 90.15 269.7 89.3 268.85 88.1 267.5 85.95 267.75 83.85 268.05 81.7 269.85 80.55 271.65 79.35 273.7 79.95 275.75 80.55 277.1 82.8 278.7 85.05 278.8 88.35 L 281.85 86.35 M 255.1 55.5 L 257.05 53.25 248.1 45.6 237.5 57.8 246.65 65.65 248.5 63.45 242.55 58.25 245.1 55.35 250.75 60.05 252.65 57.8 247.05 53.05 249.25 50.45 255.1 55.5 M 271.5 68.85 L 268.85 65.85 261.45 72.5 263.1 59.4 260.7 56.65 248.5 67.35 251.25 70.35 259 63.5 257.05 77.05 259.3 79.6 271.5 68.85 M 486.5 236.9 L 498.1 236.9 498.1 266.25 502.95 266.25 502.95 236.9 514.7 236.9 514.7 232.5 486.5 232.5 486.5 236.9 M 542.9 232.5 L 542.9 247.25 524 247.25 524 232.5 519.2 232.5 519.2 266.25 524 266.25 524 251.55 542.9 251.55 542.9 266.25 547.75 266.25 547.75 232.5 542.9 232.5 M 594.9 266.25 L 599.15 256.35 613.5 256.35 617.95 266.25 622.9 266.25 607.85 232.35 604.4 232.35 590 266.25 594.9 266.25 M 611.5 251.95 L 601 251.95 606.1 239.8 611.5 251.95 M 574.35 236.9 L 574.35 232.5 555.2 232.5 555.2 266.25 574.75 266.25 574.75 261.95 560.05 261.95 560.05 251.4 573.85 251.4 573.85 247 560.05 247 560.05 236.9 574.35 236.9 M 361.35 232.5 L 343.35 232.5 343.35 266.25 348.25 266.25 348.25 250.55 361.35 250.55 361.35 246.2 348.25 246.2 348.25 236.9 361.35 236.9 361.35 232.5 M 381.15 233.75 L 379.2 233 378.65 232.95 377.55 232.65 375.65 232.6 375.1 232.5 366.55 232.5 366.55 266.25 371.4 266.25 371.4 251.65 373.45 251.65 Q 375.6 251.65 377.2 252.9 379.35 254.5 382.4 259.3 L 386.85 266.25 392.65 266.25 Q 389.15 261.4 388.1 259.6 385.5 255.5 384.5 254.1 382.6 251.55 380.5 250.2 386.15 248.05 386.15 241.95 L 386.15 241 386 239.85 385.25 237.6 384.5 236.45 384.15 236.1 383.55 235.35 382.05 234.25 381.15 233.75 M 374.6 247.3 L 371.4 247.3 371.4 236.7 374.6 236.7 Q 381.15 236.7 381.15 241.8 381.3 247.3 374.6 247.3 M 415.95 232.25 L 412.95 232.1 Q 404.95 232.1 399.85 237.25 394.85 242.15 394.85 249.4 394.85 256.45 399.7 261.45 404.9 266.65 412.9 266.65 421.15 266.65 426.3 261.45 431.1 256.55 431.1 249.4 L 430.95 246.8 429.85 242.7 427.25 238.4 425.6 236.6 423.6 235.1 422.05 234.2 418.7 232.85 415.95 232.25 M 412.95 236.55 Q 418.6 236.55 422.35 240.15 426.1 243.85 426.1 249.4 L 426.1 250.1 425.95 251.4 425.5 253.35 425.1 254.5 424.25 256.2 423.15 257.65 421.4 259.45 420.85 259.75 419.35 260.75 417.55 261.55 416.3 261.8 415.65 262 412.95 262.25 Q 407.35 262.25 403.6 258.55 399.85 254.85 399.85 249.4 399.85 243.85 403.6 240.15 407.35 236.55 412.95 236.55 M 463.85 232.5 L 452.7 246.4 441.45 232.5 437 232.5 437 266.25 441.7 266.25 441.7 239.95 441.9 239.95 452.25 253.05 453 253.05 463.35 239.95 463.5 239.95 463.5 266.25 468.35 266.25 468.35 232.5 463.85 232.5 M 485.3 59.55 L 449.9 59.55 449.9 138.75 Q 449.9 156.7 438.95 166 429.35 174.05 413.8 174.05 398.25 174.05 388.6 165.35 378.65 156.35 378.65 141.25 L 378.65 59.55 343.15 59.55 343.15 140.45 Q 343.15 172.15 363.25 188.55 381.7 203.6 414.2 203.6 446.2 203.6 464.4 189.6 485.3 173.4 485.3 140.3 L 485.3 59.55 M 582.35 86.25 L 602 93.3 609.35 96.5 609.35 68.75 Q 595.9 63 584.5 60.35 573.1 57.75 561.25 57.75 536.55 57.75 521.8 68.9 507 80 507 98.55 507 115.85 518.3 127.1 526.5 135.3 543.15 141.9 552.2 145.5 568.05 151.45 579.35 156.95 579.35 164.4 579.35 170.7 574 174.1 568.65 177.5 558.5 177.5 546.8 177.5 536 173.5 525.3 169.4 509.9 159.25 L 509.9 189.8 Q 523.8 197.05 531.55 199.45 544.55 203.6 561.25 203.6 585.45 203.6 600.45 192.3 615.9 180.5 615.9 160.5 615.9 143.65 604.55 132.4 596.3 124.2 579.7 117.4 561.65 110.85 554.85 107.65 543.5 102.25 543.5 95.35 543.5 90.1 549.15 86.95 554.85 83.75 564.4 83.75 L 573.6 84.45 582.35 86.25 M 870.05 234.8 L 869.7 234.45 868 233.5 867.5 233.35 867 233.05 866.4 233 865.85 232.85 864.1 232.6 852.15 232.5 852.15 266.25 856.95 266.25 856.95 251.65 862.1 251.65 Q 867.65 251.65 870.7 248.9 873.4 246.4 873.4 242.25 L 873.35 240.7 873.2 239.8 873 239.4 872.8 238.4 872.55 238 872.45 237.6 872.15 237.15 871.95 236.75 871.65 236.45 871.45 236.1 870.85 235.35 870.05 234.8 M 856.95 247.3 L 856.95 236.9 862.7 236.9 Q 865.7 236.9 867.2 238.55 868.4 239.85 868.4 242 868.4 244.5 866.8 245.9 865.2 247.3 862.5 247.3 L 856.95 247.3 M 896.75 236.9 L 896.75 232.5 877.65 232.5 877.65 266.25 897.15 266.25 897.15 261.95 882.45 261.95 882.45 251.4 896.25 251.4 896.25 247 882.45 247 882.45 236.9 896.75 236.9 M 959.05 233.7 L 958.05 233.35 957.5 233.05 954.6 232.6 942.7 232.5 942.7 266.25 947.6 266.25 947.6 251.65 952.65 251.65 Q 958.2 251.65 961.25 248.9 964.05 246.4 964.05 242.25 L 964.05 241.7 963.95 241.2 963.95 240.7 963.75 239.8 963.6 239.4 963.55 238.9 962.8 237.15 961.4 235.35 961 235.1 960.35 234.45 959.05 233.7 M 947.6 247.3 L 947.6 236.9 953.25 236.9 Q 956.35 236.9 957.8 238.55 959.05 239.85 959.05 242 959.05 244.5 957.45 245.9 955.75 247.3 953.05 247.3 L 947.6 247.3 M 932.15 237.15 L 931.55 236.6 928.05 234.2 924.75 232.85 921.9 232.25 918.9 232.1 Q 911 232.1 905.85 237.25 900.85 242.15 900.85 249.4 900.85 256.45 905.7 261.45 910.85 266.65 918.8 266.65 927.1 266.65 932.25 261.45 937 256.55 937 249.4 L 936.9 246.8 936.1 243.55 934.65 240.45 933.25 238.4 932.15 237.15 M 918.9 236.55 Q 924.6 236.55 928.35 240.15 932.1 243.85 932.1 249.4 L 932.1 250.1 931.55 253.35 930.5 255.65 930.3 256.2 929.6 257.15 927.45 259.45 925.35 260.75 923.55 261.55 919.65 262.25 918.9 262.25 Q 913.25 262.25 909.6 258.55 905.85 254.95 905.85 249.4 905.85 243.85 909.6 240.15 913.25 236.55 918.9 236.55 M 657.95 232.5 L 653.45 232.5 642.25 246.4 631.1 232.5 626.5 232.5 626.5 266.25 631.3 266.25 631.3 239.95 631.5 239.95 641.85 253.05 642.6 253.05 653.05 239.95 653.1 239.95 653.1 266.25 657.95 266.25 657.95 232.5 M 684.45 232.5 L 665.25 232.5 665.25 266.25 684.85 266.25 684.85 261.95 670.1 261.95 670.1 251.4 683.8 251.4 683.8 247 670.1 247 670.1 236.9 684.45 236.9 684.45 232.5 M 724.7 232.5 L 719.85 232.5 719.85 266.25 724.7 266.25 724.7 232.5 M 705.45 234.25 L 705.05 234.05 704.65 233.75 704.1 233.6 703.6 233.35 703.1 233.2 702.65 233 700.95 232.65 690.05 232.5 690.05 266.25 694.85 266.25 694.85 251.65 696.95 251.65 Q 699 251.65 700.6 252.9 702.75 254.5 705.9 259.3 L 710.35 266.25 716.1 266.25 Q 712.4 261.2 711.45 259.6 708.95 255.5 707.9 254.1 706.05 251.55 703.95 250.2 709.65 248 709.65 241.95 L 709.55 241.45 709.5 240.35 708.8 238 708.4 237.15 707.3 235.7 706.3 234.8 705.45 234.25 M 697.9 247.3 L 694.85 247.3 694.85 236.7 697.9 236.7 Q 704.5 236.7 704.65 241.8 704.65 247.3 697.9 247.3 M 756.4 237.85 L 760.9 240 760.9 234.85 Q 754.25 232.1 749.25 232.1 741.25 232.1 735.95 237.15 730.75 242.15 730.75 249.85 730.75 256.1 735.15 261 740.25 266.65 749 266.65 755.4 266.65 761.15 263.7 L 761.15 258.4 Q 755.35 262.25 749.45 262.25 743.3 262.25 739.55 258.7 735.8 255.15 735.8 249.4 735.8 243.9 739.65 240.2 743.45 236.55 749.25 236.55 L 749.9 236.55 752.05 236.75 756.4 237.85 M 781.25 232.35 L 777.9 232.35 763.4 266.25 768.4 266.25 772.55 256.35 786.95 256.35 791.45 266.25 796.4 266.25 781.25 232.35 M 784.9 251.95 L 774.5 251.95 779.5 239.8 784.9 251.95 M 803.9 232.5 L 800.05 232.5 800.05 266.25 804.6 266.25 804.6 240.3 827.15 266.25 831.25 266.25 831.25 232.5 826.75 232.5 826.75 258.7 803.9 232.5 M 988.25 261.95 L 973 261.95 973 232.5 968.15 232.5 968.15 266.25 988.25 266.25 988.25 261.95 M 1011.45 232.5 L 992.45 232.5 992.45 266.25 1011.95 266.25 1011.95 261.95 997.15 261.95 997.15 251.4 1011.05 251.4 1011.05 247 997.15 247 997.15 236.9 1011.45 236.9 1011.45 232.5 Z"/>
</g>
<g id="l1">
<path fill="#212721" stroke="none" d="M 200.45 163.85 L 201.2 163.3 205.75 158.5 205.8 158.4 205.55 158.6 205.45 158.7 204.85 159.05 Q 204.65 159.15 204.1 159.65 L 200.9 162.45 200.05 162.95 198.5 164.3 198.5 164.35 197.9 164.9 Q 197.65 165.05 197.55 165.15 197.3 165.35 197.4 165.35 L 197.85 165.5 199 165.7 Q 200.05 165.7 200.55 165.75 201.55 165.8 201.85 165.6 L 205.65 162.05 205.75 161.85 207.35 160.1 207.65 159.65 Q 207.75 159.4 207.7 159.4 L 202 164.1 201.75 164.2 199.5 164.75 199.45 164.75 199.35 164.7 199.45 164.65 200.05 164.15 200.35 164 200.45 163.85 M 208.2 140.8 L 209.65 140.1 Q 209.95 139.85 210.8 139.85 L 211.85 139.9 211.95 139.95 211.85 140.1 211.5 140.45 Q 210.95 141.05 210.9 141.15 L 210.8 141.3 210.55 141.55 Q 210.45 141.7 210.55 141.8 L 210.65 141.7 212.15 140.8 212.35 140.75 212.4 140.75 212.4 140.7 213.65 140.05 214.15 139.85 214.2 139.75 214.95 139.6 223.55 139.2 Q 224.1 139.25 224.35 139.2 L 225.05 139.2 Q 225.25 139.35 225.25 139.6 L 225.2 139.75 224.2 140.8 224.3 140.8 224.45 140.75 226.85 139.2 227.4 139 227.65 139.25 227.6 139.6 227 140.25 226.8 140.55 227.3 140.55 228.8 139.65 228.8 137.8 218.25 138.15 Q 216.85 138.3 215.65 138.3 L 208.25 138.6 Q 207.25 138.6 207.15 138.65 L 200.8 138.8 Q 198.95 138.8 198.8 138.85 L 198.4 138.85 196.05 139.1 195.35 139.1 Q 194.85 139.15 192.95 139.1 191.1 139.1 191 139 L 180.55 138 178.9 137.5 178.75 137.5 178.05 137.25 177.95 137.2 177.45 137.15 177.35 137.05 177.15 137.05 Q 177.15 137 176.95 137 L 176.7 136.9 176.35 136.85 175.4 136.5 175.25 136.5 175 136.4 174.75 136.4 Q 174.75 136.3 174.5 136.3 L 174.2 136.15 173.55 136.05 170.5 135.05 170.4 135.05 170.05 134.85 169.9 134.85 169.55 134.7 169.35 134.55 169.3 134.55 169.25 134.45 168.95 134.45 167.5 133.75 167.1 133.6 166.85 133.35 166.75 133.3 166.45 133.25 166.45 133.2 164.2 132.6 164 132.6 163.9 132.55 163.6 132.5 163.35 132.5 163.2 132.4 163.05 132.4 161.8 132.25 155.95 132 154.95 131.85 154.6 131.85 153.45 131.7 153.1 131.7 150.9 131.25 150.7 131.25 150.55 131.2 149.2 130.9 149 130.9 147.65 130.6 145 130.55 Q 144.7 130.55 144.35 130.7 L 140.6 132.95 139.25 133.6 136.5 134.45 136.2 134.45 135.2 134.6 134.85 134.6 134.5 134.7 134.25 134.7 133.95 134.8 133.65 135.1 133.6 135.3 Q 133.4 135.7 133.4 136.3 L 133.6 137.15 Q 133.75 137.55 133.55 137.65 L 133.05 137.85 132.85 138 132.8 138 132.45 138.1 132.3 138.1 131.5 138.3 129.1 138.65 120.75 138.8 120.4 138.75 120.05 138.75 119.7 138.65 118.3 138.6 117.95 138.5 117.6 138.5 114.4 138.25 114.05 138.15 113.4 138.15 112.35 138 106.6 137.9 106.25 137.85 105.95 137.85 104.15 137.65 Q 103.3 137.65 103.05 137.65 L 92.9 137.55 92.9 139.8 93.05 139.7 94.5 138.95 95.4 138.95 95.4 139 Q 95.4 139.2 95.2 139.5 L 93.45 141.2 93.6 141.3 94.95 140.6 95 140.6 95 140.55 95.1 140.55 95.45 140.3 95.45 140.25 95.65 140.2 95.7 140.1 96.05 139.95 96.3 139.75 97.85 139.1 98.05 139.1 98.2 139 98.35 139.1 Q 98.5 139.25 98.4 139.45 L 96.15 141.65 Q 96.15 141.7 96.45 141.55 L 100.55 139.5 100.55 139.45 100.7 139.45 100.95 139.25 101.6 139.2 101.7 139.25 101.65 139.35 Q 101.65 139.6 101.4 139.6 L 101.25 139.7 100.8 140.1 Q 100.7 140.1 99.8 141.05 L 99.35 141.5 99.45 141.5 99.65 141.4 99.8 141.3 100.35 141.1 100.95 140.75 101.9 140.4 102 140.4 103.65 139.6 104.1 139.6 Q 104.7 139.6 104.65 139.7 L 104.5 139.75 102.35 141.7 103.4 141.2 103.6 141.15 106.75 139.7 107.1 139.6 Q 107.5 139.6 107.55 139.6 107.6 139.7 107.5 139.85 L 105.5 141.8 105.5 141.85 108.1 140.6 108.1 140.55 108.4 140.45 109.7 139.9 Q 110 139.75 110.4 139.75 110.65 139.75 110.65 139.9 L 110.55 140.05 109.5 141.05 109.35 141.1 109.05 141.4 108.8 141.55 108.6 141.8 Q 108.4 142 108.7 141.85 L 112.9 140.1 122.65 140.2 122.45 140.75 122.45 140.8 Q 122.8 140.8 123.1 140.55 L 123.55 140.3 124.25 140.1 125.4 140.1 Q 125.5 140.2 125.25 140.7 125.05 141.05 125.25 140.85 L 126.45 140.4 126.55 140.3 126.6 140.3 126.65 140.25 126.7 140.25 126.8 140.2 Q 127.15 140.05 127.7 140.1 L 128.15 140.1 Q 128.3 140.1 128.15 140.45 L 127.95 140.8 128.25 140.75 129.5 140.2 130.9 140.1 Q 130.95 140.2 130.85 140.3 L 130.4 141.3 132.45 140.1 133.05 139.85 133.4 139.75 Q 133.95 139.6 134 139.7 L 134 139.75 134.1 139.9 134.1 140.05 133.3 140.8 132.7 141.2 132.85 141.2 134.9 140.55 135.15 140.3 135.25 140.3 Q 135.35 140.25 135.4 140.3 135.45 140.4 135.45 140.3 L 135.7 140.75 135.7 140.85 135.6 140.95 135.2 141.45 134.85 141.7 134.7 142 134.55 142.15 Q 134.15 142.35 134.85 142.05 L 136.45 141.15 Q 137.35 140.75 137.5 141.05 L 137.55 141.05 137.7 141.3 136.8 142.05 Q 135.85 143 135.75 143 L 135.55 143.15 135.6 143.15 137.2 142.45 137.8 142.25 139 141.7 Q 139.25 141.55 139.45 141.55 L 139.7 141.65 Q 139.95 141.85 139.6 142.25 L 139.25 142.6 138.8 142.85 138.45 143.25 Q 138.25 143.35 137.9 143.7 137.55 144.05 137.55 144.15 L 139.6 143.15 139.65 143.1 141.9 142 142.35 141.85 142.65 141.65 143.15 141.4 143.5 141.45 Q 143.5 141.55 143.4 141.7 L 142.35 143 142.4 143 Q 142.7 143 143.05 142.7 L 143.25 142.6 143.3 142.55 143.65 142.35 146.8 140.85 Q 147 140.8 147.15 141.05 147.3 141.15 147.15 141.4 L 147 141.55 Q 146.7 141.7 146.95 141.7 L 148.55 141.1 148.65 141.05 149.8 140.7 149.85 140.7 149.85 140.6 150.2 140.6 150.3 140.55 152 140.3 152.4 140.3 152.9 140.4 153.7 140.4 157.1 140.8 159.75 141.5 161.4 142.25 162.15 142.8 Q 162.35 142.85 162.75 143.35 L 165 144.95 165.4 145.1 165.6 145.3 167.1 146.1 167.7 146.3 168.2 146.6 169.7 147.2 171.25 148.05 171.45 148.1 176.25 150.95 179.2 153.6 179.65 154.15 Q 179.85 154.45 179.85 154.6 L 180 154.9 180 154.95 180.2 155.6 180.25 155.65 180.35 155.95 180.7 156.65 180.85 157.25 181.05 157.45 181.1 157.6 181.2 158.05 181.3 158.15 181.3 158.3 182.3 161.35 182.55 161.9 183.25 164.2 Q 183.35 164.55 183.25 165.1 L 183.25 165.7 183.15 165.85 182.2 167 181.95 167.2 Q 181.4 167.65 181.1 167.75 180.4 168.2 180.05 168.2 L 179.1 168.55 178.6 168.45 Q 178.55 168.25 178.65 168.2 L 179.3 167.9 179.5 167.75 Q 179.55 167.8 179.55 167.75 L 180.55 167.3 180.6 167.3 180.7 167.2 181 167 182.1 165.95 182.65 165.05 182.45 165.05 182.35 165.15 180 166.35 179.2 166.65 Q 178.9 166.85 178.2 167 L 177.7 166.95 177.6 166.6 177.85 166.35 178.05 166.3 178.65 165.85 Q 179.2 165.8 179.55 165.4 L 179.7 165.35 180.5 164.75 180.5 164.7 181 164.2 Q 181 164.15 180.5 164.3 L 180 164.4 Q 179.7 164.4 179.7 164.5 L 179.45 164.55 177.95 165.15 177.55 165.15 177.35 165.25 177.3 165.1 Q 177.1 165.05 177.1 164.75 L 177.2 164.55 179.2 163.5 179.8 162.95 180 162.6 177.15 163.5 Q 176.7 163.5 176.6 163.4 176.45 163.2 176.5 163.05 176.5 162.85 176.85 162.6 L 177.95 162.15 178.75 161.6 179.9 160.45 Q 179.9 160.2 179.35 160.75 L 177.7 161.5 176.45 161.85 175.55 161.9 Q 175.5 161.85 175.55 161.6 L 175.75 161.45 177.3 160.75 177.35 160.65 178.3 159.9 Q 178.65 159.65 178.8 159.35 L 179.1 158.8 179.3 158.15 179.35 157.7 179.15 158.1 Q 178.8 158.6 178.2 158.85 177.95 159.05 177.75 158.95 L 177.6 158.95 177.55 158.8 Q 177.5 158.7 177.55 158.5 L 177.6 158.45 177.6 158.4 177.75 158.1 177.95 157.95 178.1 157.55 178.2 157.55 178.25 157.35 178.6 156.85 Q 179.1 156 179.05 155.65 L 179.05 155.5 178.9 155.25 178.75 155.55 Q 178.45 156 178.4 156.1 L 178.25 156.4 177.7 157.1 176.8 157.9 174.2 159.65 174.4 159.85 Q 174.65 159.9 174.9 159.8 L 176.25 159.5 176.35 159.55 175.55 160.3 174.2 160.65 172.5 159.05 170.5 157.9 170 157.55 169.5 157.35 168.95 156.85 170.4 155.65 Q 170.75 155.6 171.25 155.05 171.5 154.6 171.75 154.6 L 171.85 154.5 168.7 155.65 Q 168.35 155.8 168.1 156 168.05 156.15 167.85 155.95 167.7 155.75 167.75 155.65 L 167.7 155.65 167.7 155.6 Q 167.7 155.5 168.05 155.25 L 170 153.8 168.35 154.3 Q 167.95 154.5 167.75 154.5 L 166.65 154.85 166.45 154.7 166.75 154.45 166.75 154.3 167.1 154 Q 167.2 153.95 167.55 153.7 L 168.35 153.1 Q 168.6 152.95 168.45 152.95 L 167.7 153.2 Q 167.3 153.35 166.95 153.35 166.95 153.3 166.6 153.45 L 165.9 153.6 Q 165.6 153.6 165.6 153.45 165.6 153.2 165.75 153 L 167.35 151.75 167.5 151.65 Q 167.55 151.6 167.5 151.6 L 165.6 152.1 164.7 152.25 Q 164.45 152.35 164.35 152.25 164.2 152.2 164.3 152 L 165.5 150.9 Q 166.15 150.55 165.6 150.65 L 164.05 151.05 Q 163.4 151.3 163.2 151.25 162.9 151.25 162.9 150.95 L 162.85 150.75 Q 162.85 150.45 163.4 150.1 L 163.8 149.9 163.9 149.8 164.35 149.45 164.55 149.45 164.7 149.3 164.85 149.05 165 149 165.4 148.6 165.5 148.45 165.15 148.6 Q 164.35 149.05 164 149.3 L 162.75 149.7 Q 162.25 150 161.9 150 L 161.65 150 161.6 149.9 Q 161.45 149.8 161.5 149.65 L 161.6 149.45 162.25 148.95 162.5 148.65 163.05 148.3 Q 163.95 147.6 163.8 147.6 L 159.95 149.35 160.05 149.65 160.2 149.8 160.35 149.8 161 150.55 161.4 151.4 161.45 151.65 161.6 151.95 161.6 152.05 161.65 152.1 161.65 152.25 161.95 152.65 164.55 155.15 164.85 155.25 165.95 156.1 166.25 156.4 166.85 156.85 167 157 169.3 158.7 169.5 158.95 169.65 159.05 169.7 159.15 170.5 159.55 170.55 159.55 170.65 159.65 170.9 159.8 171 159.9 171.1 159.9 171.1 160 171.2 160 171.25 160.05 171.75 160.4 Q 171.75 160.2 172.45 160.9 L 173.15 161.45 174.3 162.85 174.4 163.1 174.55 163.2 174.85 163.8 Q 175.15 164.15 175.35 164.85 L 175.4 165 175.4 165.15 175.65 165.7 175.65 166.85 175.55 167 175.5 167.2 174.9 168.3 174.55 168.8 174.5 168.9 174.3 169 174.1 169.25 172 170.85 Q 172.45 170.75 172.45 170.65 L 172.7 170.6 Q 173.4 170.5 173.85 170.15 L 174.1 170 175.4 168.8 175.65 168.65 175.7 168.6 176 168.4 176.1 168.25 176.25 168.2 Q 176.35 168.1 176.35 168.2 L 176.45 168.3 Q 176.5 168.6 176.35 168.9 L 175.9 169.75 175.15 170.6 173.6 171.8 Q 173.15 172.1 173.05 172.1 L 172.95 172.2 172.85 172.25 Q 172.85 172.45 173.45 172.25 L 173.75 172.2 Q 174.1 172.2 174.3 172 L 174.5 171.85 174.85 171.7 176.1 170.75 176.35 170.5 Q 176.7 170.25 176.85 170.05 L 177.1 169.85 Q 177.1 169.75 177.2 170 L 177.3 170.4 Q 177.3 170.95 177.1 171.1 L 176.1 172.1 175.25 172.7 174.8 172.9 173.8 173.6 Q 173.8 173.65 174.4 173.55 L 175.25 173.3 175.5 173.3 176.25 172.95 176.35 172.95 176.45 172.9 Q 176.6 172.75 177.1 172.45 177.45 172.35 177.3 172.8 177.1 173.15 176.35 173.8 176 174.15 175.25 174.5 L 174.5 174.85 174.65 174.9 175.05 174.9 Q 175.35 174.9 175.9 174.75 176.25 174.7 176.25 174.85 176.35 175 176.15 175.05 L 176 175.25 Q 176 175.35 175.75 175.35 L 175.05 175.9 174.4 176.15 173.95 176.1 173.7 175.95 172.55 174.9 171.85 173.7 171.6 173.4 171.45 173.05 170 170.85 169.7 170.65 169.65 170.6 169.55 170.35 168.7 169.5 168.6 169.5 168.55 169.35 167.85 168.55 167.65 168.4 167.1 167.8 164.85 166.15 164.2 165.5 164 165.45 161.7 163.75 161.45 163.45 161.4 163.45 160.75 162.95 160.7 162.95 160.3 162.55 160.1 162.45 158.95 161.6 158.85 161.6 158.6 161.35 158.75 161.25 158.95 161.25 158.95 161.15 159.1 161.1 161.15 159.05 Q 161.45 158.7 161.4 158.7 L 158.8 160.2 Q 158.45 160.55 158 160.55 L 157.75 160.55 157.7 160.45 Q 157.55 160.45 157.55 160.25 L 157.75 159.9 159.45 158.5 160.7 157.1 160.55 157.2 160.2 157.35 160.1 157.45 159.5 157.85 158.95 158.1 157.7 158.95 157.15 159.2 157 159.35 Q 156.75 159.5 156.05 160.2 L 155.75 160.45 156.1 160.65 Q 156.75 160.9 156.75 161 L 156.9 161.1 157.25 161.5 157.85 161.85 158 161.9 158.25 162.4 158.15 162.6 158 162.7 Q 158 162.6 157.75 162.6 157.6 162.7 157.55 162.6 L 157.15 162.6 156.8 162.7 Q 156.8 162.75 157.15 162.95 157.55 163.2 157.6 163.2 L 157.85 163.2 157.85 163.3 158.05 163.4 Q 158.4 163.45 158.6 163.65 L 158.95 163.85 159.35 164 160.3 164.55 Q 160.65 164.7 160.8 165 L 162 165.75 162.15 165.8 162.9 166.35 163.2 166.5 163.55 166.75 163.65 166.95 163.8 166.95 164.2 167.1 164.8 167.65 164.9 167.65 165.5 168.1 165.55 168.25 165.7 168.3 165.8 168.45 165.8 168.55 165.95 168.7 166 168.9 166.15 169.05 166.15 169.7 Q 166.15 170 166.25 170 166.4 170.15 166.4 170 L 166.6 169.9 166.75 169.75 166.95 169.7 167.1 169.9 Q 167.2 169.85 167.3 169.9 167.4 170 167.4 170.05 L 167.5 170.15 167.55 170.5 167.5 170.85 167.35 171 167.2 171.3 166.6 172 165.95 172.45 165.6 172.6 Q 165.4 172.8 165.4 172.7 L 165.35 172.45 165.5 172.2 165.6 172.1 165.7 171.95 166.15 171 166.15 170.75 Q 165.95 170.75 165.8 171.1 L 164.85 172.1 163.1 173.05 163.05 173.1 162.6 173.15 Q 162.25 173.3 162.05 173.15 L 162.05 172.9 163.8 171.5 163.75 171.45 Q 163.65 171.3 163.4 171.35 L 163.2 171.5 163.1 171.6 162.75 171.7 162.6 171.7 162.6 171.8 161.7 172.2 161.5 172.35 160.9 172.6 160.7 172.6 159.7 172.95 158.15 173.3 158.15 173.15 Q 158.1 172.95 158.15 172.95 L 158.4 172.9 158.6 172.75 160.05 172.1 161.05 171.5 161.25 171.3 Q 161.7 171.15 161.7 170.85 161.65 170.75 161.45 170.85 L 160.8 171.1 Q 158.5 172 157.9 171.85 L 157.75 171.7 157.7 171.5 157.75 171.3 157.9 171.1 158.7 170.6 159.45 170.25 159.95 169.85 160 169.75 160.65 169.4 160.65 169.35 160.7 169.35 160.8 169.25 160.4 169.3 158.25 169.9 Q 157.5 170.25 157.15 170.25 156.75 170.25 156.75 170.15 L 156.65 170.05 Q 156.55 170.05 156.9 169.65 L 157 169.5 157.15 169.5 157.6 169 157.7 169 157.75 168.9 159.1 168.05 159.3 167.8 159.2 167.8 157.6 168.4 Q 157.15 168.65 156.8 168.65 L 156.05 168.9 155.55 168.9 155.45 168.8 Q 155.4 168.7 155.45 168.65 L 155.95 168.1 157.9 166.65 158.05 166.5 157.9 166.6 155.55 167.35 Q 154.65 167.7 154.2 167.7 L 154 167.55 153.95 167.55 Q 153.85 167.3 154.15 167.05 L 154.7 166.65 155.2 166.15 156.1 165.7 Q 156.45 165.35 156.25 165.4 L 154.95 165.8 154.65 165.95 153.05 166.45 152.75 166.35 152.7 166.1 154.85 164.3 155.15 164.1 Q 154.95 163.9 153.35 164.7 L 153.05 164.85 152.85 165 152.15 165.15 151.8 165.15 Q 151.6 165.35 151.45 165.05 L 151.4 164.75 151.4 164.7 152 164.1 152.1 164.1 152.15 163.9 152.85 163.2 153.7 162.6 153.95 162.35 153.85 162.35 152.75 162.9 Q 152.15 163.2 151.6 163.55 L 150.7 164 150.1 164.15 149.85 164.1 149.85 164 Q 149.8 164 149.85 163.8 L 150.15 163.45 151.4 162.55 151.45 162.45 151.5 162.45 153.2 161.35 152 161.25 151.05 160.9 Q 150.8 160.9 150.8 160.8 L 150.55 160.65 150.45 160.55 150.2 160.45 149.9 160.2 149.8 160.2 149.3 159.9 149.2 159.9 149.1 159.85 148.9 159.85 148.8 159.8 148.65 159.8 148.35 159.65 148.05 159.65 147.4 159.9 144.15 162.45 142.4 163.45 Q 141.9 163.8 141.8 163.75 L 141.65 163.65 Q 141.55 163.5 141.65 163.3 L 142.5 162.7 142.85 162.35 143.05 162.2 144.25 161.15 144.45 161 144.65 160.8 144.95 160.65 145 160.55 145.55 160.05 145.7 160 145.75 159.9 Q 145.75 159.65 146.65 159.15 L 147.35 158.5 145.6 159.4 144.75 160.05 144.45 160.2 144.45 160.25 144.15 160.3 144.1 160.4 143.95 160.45 143.85 160.55 143.8 160.55 142.9 161.15 142.85 161.25 142.5 161.35 140.3 163.2 139.3 163.65 Q 138.8 163.85 138.75 163.8 L 138.6 163.45 Q 138.6 163.2 138.75 163.1 139 162.6 139.7 162.2 L 140 161.9 141.55 160.65 Q 143 159.4 143.05 159.15 L 145.2 156.9 144.1 157.7 143.95 157.7 143.95 157.75 143.85 157.75 143.65 157.95 143.6 157.95 143.5 158.1 139.3 161.25 139.1 161.25 138.7 161.75 134.9 164.85 134.8 165.05 134.55 165.15 Q 134.4 165.45 134.1 165.45 134 165.45 133.75 165.4 133.4 165.15 133.75 164.75 L 133.9 164.65 Q 134.25 164.15 135.85 162.6 L 139.85 158.8 140.05 158.7 140.2 158.5 140.45 158.4 Q 140.95 157.95 140.95 157.85 L 140.85 157.7 140.7 157.85 140.1 158.1 138.6 159.05 138.5 159.15 138.25 159.3 138.15 159.4 138.1 159.4 138 159.55 137.7 159.65 137.65 159.85 137.2 160.1 137.2 160.2 136.65 160.55 134.7 162.2 134.15 162.55 133.75 162.95 133.3 163.2 133.3 163.3 132.2 164 Q 131.85 164.2 131.7 164.1 131.5 163.9 131.8 163.8 L 131.85 163.65 133.9 161.75 133.9 161.6 134.45 161.1 Q 135 160.4 136.2 159.35 L 137.55 158.25 137.75 158.05 138 157.9 139.65 156.25 Q 139.65 156.15 140 155.8 L 140.35 155.5 133.2 160.95 132.8 161.15 132.8 161.25 130.4 163.1 130 163.3 Q 129.75 163.5 129.5 163.45 129.3 163.4 129.75 162.95 L 130.1 162.7 130.95 161.8 131.05 161.8 131.85 160.95 132 160.75 132.45 160.3 Q 132.95 159.8 133.05 159.55 L 133.45 159.15 133.45 159.05 134.8 157.85 134.85 157.7 134.7 157.75 Q 134.55 158.15 134.1 158.15 L 133.8 158.3 133.75 158.4 133.4 158.5 132.85 159.05 132.45 159.2 131.5 160 131.35 160.1 131.1 160.2 127.35 163.3 127.2 163.4 127.15 163.4 126.95 163.5 126.65 163.55 Q 126.6 163.5 126.8 163.2 L 127 162.75 127.45 162.4 127.6 162.15 Q 128.15 161.5 128.6 161.1 L 129.05 160.75 130.2 159.55 130.25 159.4 130.75 158.95 130.75 158.85 131.05 158.6 131.1 158.45 131.25 158.3 130.85 158.5 130.5 158.8 130.2 158.95 125.55 162.35 125 162.9 123.45 164.15 Q 123.25 164.35 123.25 164.2 L 123.1 164.1 123.4 163.75 123.4 163.55 123.8 163.2 123.95 162.9 124.65 162.05 124.7 161.85 125.85 160.65 126 160.4 127.5 158.7 127.2 158.85 120.25 164.75 119.35 165.4 119 165.5 118.9 165.5 Q 118.8 165.6 118.75 165.5 118.55 165.45 118.8 165.1 L 119 164.7 121.8 161.8 Q 121.8 161.6 122.1 161.35 L 122.75 160.65 123 160.45 124.5 159.05 124.65 158.95 124.65 158.85 126.7 156.85 Q 127.15 156.55 127.15 156.4 127.15 156.3 126.8 156.5 L 122 160.1 121.85 160.25 121.5 160.45 115.8 165.7 Q 115.45 165.85 115.2 165.85 L 114.85 165.75 Q 114.8 165.5 114.9 165.45 115.1 165.4 115.2 165.1 L 123.3 157.1 Q 123.7 156.75 123.65 156.75 L 123.55 156.8 122.45 157.45 122.1 157.6 118.05 160.9 117.75 161 115.45 163.2 115.35 163.2 113.05 165.4 112.85 165.5 112.7 165.7 112.45 165.85 Q 112.25 166.05 112.1 166.05 L 111.85 166.05 111.8 165.95 111.75 165.75 111.8 165.45 112 165.15 Q 112 165 113.2 163.8 L 113.8 163.1 114.2 162.85 115.8 161.25 116.25 160.9 116.95 160.1 116.85 160.05 115.45 160.75 114.5 161.5 114.3 161.6 109.65 165.95 108.7 166.5 108.45 166.5 107 166.65 106.5 166.65 105.65 166.75 Q 105.55 166.85 104.85 166.85 104.15 166.85 104 166.75 L 102.5 166.95 102.15 166.95 Q 101.45 166.95 101.05 167 L 92.9 167.1 92.9 169 Q 92.95 169 93 169 L 93.45 169.05 94.1 169.05 95 168.9 114.4 167.75 Q 114.65 167.7 115.65 167.7 L 118.3 167.65 118.7 167.55 118.9 167.55 Q 118.95 167.65 120.25 167.65 L 123.6 167.55 123.65 167.7 123.65 167.8 124.05 168.9 124.75 170.05 124.85 170.15 Q 125 170.2 125.15 170.65 L 125.55 171.6 Q 125.95 172.35 126.55 172.55 L 126.85 172.7 Q 126.95 172.75 128.6 173.1 L 129.3 173.05 129.45 173.05 129.5 172.95 129.55 172.95 Q 129.75 172.8 129.75 172.9 L 129.85 172.9 130.1 173.05 131.1 173.1 131.1 173.25 Q 131.15 173.3 131.1 173.3 L 131.1 173.4 131.15 173.6 131.15 173.65 131.25 173.8 131.45 174.35 Q 131.6 174.7 131.95 175.05 133.05 176.15 133.3 176.25 L 134.55 177 Q 135 177.2 136.2 177.3 137.65 177.3 137.8 177.25 L 138.4 177.25 138.6 177.85 138.75 178.05 138.8 178.15 138.95 178.3 139.3 178.85 140.2 179.75 141.1 180.35 Q 141.45 180.55 141.55 180.55 L 144.3 180.95 Q 145.1 180.95 145.6 180.7 146.1 180.55 146.1 180.6 L 147.4 182.4 148.25 183.1 148.3 183.15 149.65 183.8 150.55 184.1 Q 152.15 184.25 152.55 184.15 L 153.55 183.9 153.7 183.9 155.3 183.25 Q 155.95 183.1 156.15 182.9 L 156.4 182.75 Q 156.5 182.65 156.55 182.75 L 157.15 183.1 157.4 183.15 158.6 183.9 158.75 184.1 158.85 184.1 158.95 184.15 159.45 184.35 Q 159.65 184.5 159.85 184.5 L 160.05 184.5 160.35 184.55 160.7 184.55 160.8 184.6 161 184.55 161.25 184.55 163.4 183.9 163.6 183.8 163.75 183.75 163.8 183.65 164.55 183.1 164.65 182.95 165.5 181.45 165.6 180.35 165.5 179.55 165.55 179.55 165.7 179.6 Q 165.75 179.75 166 179.85 L 166.45 180.1 167.2 180.35 167.9 180.4 Q 168.45 180.4 169.5 179.9 169.8 179.75 170.95 178.85 L 171.45 178.4 171.6 178.15 Q 171.85 177.9 171.85 177.6 L 172 177.5 172 177.45 172.15 177.25 172.2 177.15 172.35 177.2 173.15 177.3 173.4 177.5 173.7 177.5 Q 174.1 177.6 175.05 177.3 L 176.15 176.8 177.15 175.95 177.95 174.85 178.2 174 178.2 173.9 178.25 173.7 Q 178.25 173.6 178.6 173.4 L 179.7 173.1 181.3 172.1 182.4 170.85 182.65 170.75 182.7 170.5 183 170.15 183.05 170 183.15 169.85 185.35 169 185.85 168.65 185.95 168.6 186.7 168.05 Q 186.95 167.95 187 167.8 187 167.65 187.8 167.65 191 167.75 193.4 167.65 L 212 168.7 212.15 168.8 212.35 168.8 221 169.5 Q 221.6 169.5 223.3 169.65 L 228.8 170 228.8 168.5 224.1 168.1 224 168.1 223.75 168.05 210.55 167.1 Q 210.15 167.05 207.85 167.1 L 201.2 167 199.15 166.75 198.8 166.75 197.05 166.6 196.85 166.6 196.5 166.5 196.25 166.5 194.45 166.3 194.3 166.25 194.2 166.05 194.3 165.8 195.7 164.85 195.95 164.55 196.5 164.15 199.5 161.25 Q 199.45 161.25 199 161.25 L 197.75 161.85 Q 196.9 162.45 196.8 162.7 L 194.55 164.4 194.35 164.5 193.15 165.35 Q 192.15 165.8 192.05 165.5 191.95 165.4 192.05 165.25 L 192.15 165.25 192.2 165.1 197.4 160.25 197.55 160.05 198.45 159.15 198.5 159.05 198.6 158.95 198.8 158.7 199.1 158.4 199.15 158.4 199.6 157.85 199 158.25 198.5 158.5 198.2 158.95 197.55 159.4 197.2 159.8 190.2 164.55 189.5 164.75 Q 189.3 164.75 189.3 164.65 L 190.45 163.55 190.6 163.5 191.25 162.95 191.35 162.75 192 162.25 194.3 160 194.55 159.8 Q 195.1 159.35 195.1 159.2 L 195.35 158.95 195.6 158.8 195.6 158.7 Q 195.9 158.45 195.85 158.45 L 194.9 159.05 194.8 159.05 189.5 162.7 Q 188.9 163.05 188.9 162.9 L 188.75 162.7 188.75 162.6 189 162.35 189.25 162.2 189.5 161.9 190.45 161.25 191.3 160.4 191.55 160.25 192.6 159.15 192.85 159.05 193.3 158.25 193.25 158.3 192.8 158.5 191.85 159.05 191.8 159.15 190.05 160.3 189.75 160.65 Q 188.9 161.1 188.6 161.1 188.45 161.1 188.45 160.9 L 188.45 160.75 189.4 159.9 189.5 159.65 189.75 159.55 191.55 157.7 191.6 157.55 191.85 157.25 191.85 157.2 Q 191.85 157 191.65 157.2 L 190.9 157.75 190.7 157.95 190.25 158.15 190.2 158.25 190.1 158.25 188.8 159.15 188.65 159.3 188.55 159.3 188.05 159.35 Q 187.8 159.3 187.8 158.95 188.05 158.7 188.15 158.6 L 188.15 158.45 188.65 157.85 Q 188.95 157.7 188.95 157.45 L 189.85 156.55 Q 190 156.4 189.9 156.3 L 189.4 156.5 Q 188.95 156.85 188.8 156.85 L 188.15 157.35 Q 187.65 157.75 187.35 157.75 L 187.15 157.7 Q 187 157.7 186.85 157.35 L 186.95 157.1 187 157.1 187.05 156.85 187.2 156.75 187.55 156.25 188.4 155.25 186.2 156.1 185.6 156.55 185.6 156.75 185.7 156.85 185.75 157.1 186.3 158.45 186.35 158.5 186.45 159.05 187.3 161.1 187.3 161.15 187.35 161.25 187.5 161.75 187.65 163.2 Q 187.7 163.3 187.65 163.65 187.65 164 187.55 164.15 L 187.2 165.25 187 165.7 185.85 166.6 185.1 166.75 185 166.65 Q 184.85 166.65 185 166.5 L 185 166.45 185.05 166.35 185.05 166.25 186.35 164.75 186.45 164.65 186.6 164.2 Q 186.6 164.15 186.45 164.3 L 185.9 164.55 185.85 164.65 185.7 164.7 Q 185.5 164.85 185.35 164.75 185.2 164.7 185.25 164.4 L 185.4 164.1 185.9 163.3 185.95 163.05 186.2 162.6 186.1 162.6 185.85 162.9 185 163.3 Q 184.95 163.3 184.75 163.2 L 184.65 163.1 184.95 162.45 185.55 161.85 185.7 161.8 185.55 161.8 185.35 161.85 185 161.9 184.35 161.85 184.3 161.8 183 158.7 182.95 158.45 182.75 158.15 182.65 157.7 Q 182.35 157.1 182.4 156.9 L 182.8 156.1 183.25 155.6 182.3 155.95 182.2 155.8 182.2 154.9 183.8 153.3 183.8 153.2 Q 183.95 153.2 184.1 152.75 L 184.3 152.5 184.4 152.05 184.4 152 183.1 153.3 181.95 154 181.8 153.85 181.65 153.6 181.45 152.95 181.5 152.9 181.5 152.85 182.2 152.25 182.35 152.05 184.75 150 184.85 149.8 184.95 149.8 Q 185.05 149.8 185.2 149.9 185.35 150.05 185.35 150.55 L 185.4 150.8 185.4 151.25 185.2 152.05 Q 184.95 152.65 185 153.1 L 184.95 153.3 184.95 154.05 Q 184.85 154.45 184.95 154.5 L 184.95 154.7 Q 184.95 154.9 185.05 154.8 L 185.1 154.15 185.25 153.85 185.4 153.3 186.55 150.9 186.65 148.65 186.1 146.65 186.05 146.6 185.35 145.1 184.75 144.4 184.4 144.15 182.4 142.15 184.35 145.3 184.6 145.8 184.65 146.15 184.65 146.35 184.15 147.6 Q 184.1 147.7 184.15 147.7 L 184.25 147.7 185.05 147.35 Q 185.2 147.35 185.2 147.6 L 185.05 147.95 185 148.2 184.3 149.35 184.15 149.7 182.35 151.4 181.95 151.7 Q 181.2 152.25 181.15 152.25 181.05 152.35 181 152.2 L 180.7 151.95 180.55 151.7 180.7 151.6 Q 181.15 151.3 181.4 150.8 L 181.65 150.4 182.3 149.65 Q 182.399609375 149.45078125 182.35 149.45 L 182.45 149.45 182.65 149.3 182.55 149.2 182.55 149.3 182.2 149.45 182 149.65 181.85 149.7 181.75 149.8 181.5 150 181.3 150.05 179.8 150.95 179.15 150.3 179.3 150.15 179.5 150.05 179.9 149.65 180.15 149.55 Q 181.1 148.85 181.2 148.45 L 181.4 148.35 182.1 147.6 182.15 147.5 182.45 147.15 183 146.25 Q 183 146 182.55 146.65 L 181.1 147.95 180.6 148.3 Q 180.2 148.7 179.1 149.3 L 178.2 149.7 177.75 149.3 180 147.2 180.25 146.75 180.7 146.35 180.75 146.25 Q 180.6 146.1 180.35 146.5 L 178.65 147.85 177.2 148.7 177.1 148.7 Q 176.95 148.85 176.65 148.65 L 176.15 148.3 Q 176.15 147.95 177.15 147.35 L 177.5 146.9 178.4 146.1 177.35 146.5 174.85 147.85 174.4 147.85 Q 174.1 147.7 174.1 147.5 174.1 147.15 174.75 146.7 L 174.8 146.65 174.9 146.45 176.25 145 174.1 146.1 Q 172.85 146.9 172.45 146.7 L 172.25 146.65 172.2 146.25 172.7 145.95 174.3 144.4 174.15 144.4 170.85 145.75 Q 170.6 145.75 170.6 145.55 170.55 145.45 170.6 145.3 L 170.65 145.2 170.75 145.1 171.1 144.55 171.3 144.35 171.1 144.35 169.3 144.75 169 144.95 168.6 144.75 168.6 144.4 168.7 144.3 Q 168.7 144.15 169.05 143.95 L 169.65 143.4 Q 169.8 143.25 169.7 143.25 L 167.35 144.05 166.15 143.45 165.9 143.35 164.85 142.6 164.8 142.55 163.25 141.3 163.2 141.2 Q 163.05 141.1 163.1 140.95 163.1 140.75 163.4 140.6 L 163.6 140.4 163.8 140.25 Q 163.9 140.25 164.05 139.95 164.3 139.7 164.3 139.6 L 162.35 140.3 Q 161.95 140.6 161.7 140.45 161.6 140.45 161.6 140.3 161.45 139.95 161.7 139.85 L 161.95 139.6 162.05 139.6 162.35 139.2 162.4 139.15 163.4 138.45 Q 163.55 138.3 163.4 138.3 L 161.1 139.45 160.35 139.6 Q 160.2 139.7 160.1 139.6 159.75 139.6 160 139.45 L 161.7 137.5 159.55 138.75 159.1 139.1 158.4 139.45 Q 158.1 139.6 157.85 139.45 L 157.7 139.25 Q 157.7 139.1 157.9 138.8 L 158.85 137.5 155.8 139.1 Q 155.4 139.35 155.2 139.15 L 155.05 139 155.2 138.65 155.2 138.6 155.45 138.3 155.55 138.1 Q 156.15 137.2 156.25 137.2 156.45 136.9 156.4 136.9 L 155.55 137.35 153.55 138.65 153.35 138.75 152.7 138.85 152.55 138.85 152.4 138.8 Q 152.25 138.65 152.4 138.45 L 152.4 138.35 152.5 138.3 153.45 137 152.4 137.55 Q 150.95 138.25 150.75 138.1 L 150.6 137.75 151.05 137.25 152.1 136.4 152.2 136.2 152.4 136.15 153.05 135.6 153.1 135.55 153 135.55 152.55 135.75 151.9 135.9 151.6 136.05 Q 151.25 136.05 151.15 135.8 L 150.7 134.2 150.6 134.85 Q 150.55 135.45 150.15 136.2 L 149.2 137.65 148.5 138.5 147.35 139.15 146.8 139.6 146.25 139.75 145.95 139.9 144.7 140.25 142.7 140.45 Q 142.2 140.55 141.55 140.55 L 140.85 140.6 140.55 140.55 139.75 140.55 139.65 140.45 139.6 140.45 139.35 140.4 139.25 140.4 138.1 140.1 137.2 139.75 Q 136.8 139.7 136.75 139.5 L 135.75 138.95 135.55 138.75 135.35 138.45 135.2 138.3 134.5 136.4 Q 134.45 136.05 134.55 135.95 L 135 135.8 136.05 135.7 136.2 135.6 136.5 135.8 Q 137.1 136.05 137.65 136.4 137.8 136.65 138.7 136.65 L 139.75 136.5 140.35 136.3 141.25 135.8 142.7 134.7 142.9 133.85 Q 143.05 133 143.25 132.85 L 143.3 132.65 144.45 131.85 144.95 131.6 145.25 131.5 145.6 131.5 146.4 131.35 146.8 131.45 147.05 131.45 147.15 131.5 Q 147.2 131.45 147.55 131.6 L 148.3 131.85 Q 148.35 131.8 148.55 131.85 148.55 131.9 148.75 131.9 L 148.95 132 Q 149.15 132.2 149.7 132.2 L 152.65 133 Q 154.35 133.45 154.6 133.3 L 154.65 133.3 154.8 133.35 Q 154.95 133.35 154.95 133.45 L 161.7 133.85 Q 162.25 133.95 162.95 133.95 L 166.15 134.45 Q 166.6 134.55 166.85 134.85 L 167.1 134.9 169.35 135.9 171.45 136.5 172.1 136.8 172.2 136.9 Q 172.2 137.2 171.8 137.65 L 171.6 137.9 171.5 138 171.6 138 172.95 137.4 173.7 137.25 173.8 137.2 174.1 137.2 174.4 137.25 174.5 137.5 174.4 138 174.1 138.45 173.95 138.6 Q 173.95 138.65 174.15 138.6 174.4 138.5 174.5 138.45 L 174.55 138.45 175.35 138.1 Q 175.75 137.9 176.45 137.9 L 176.65 138 Q 176.8 138 176.8 138.15 L 176.85 138.35 176.1 139.15 176 139.2 176.15 139.2 Q 176.35 139.2 176.35 139.15 L 177.35 138.8 178.2 138.65 178.4 138.75 Q 178.65 139 178.45 139 L 178.45 139.2 177.95 139.85 Q 177.95 139.95 178.25 139.85 L 178.4 139.75 178.45 139.75 179.35 139.5 179.9 139.45 180.15 139.6 Q 180.2 139.75 180.05 139.95 L 180 140.25 180.75 140.2 Q 181.6 140.1 182.4 140.25 L 182.55 140.3 Q 182.65 140.25 183 140.4 183.45 140.7 183.65 140.95 L 185.05 142.6 185.05 142.75 185.35 143.35 185.55 143.5 186.1 144.5 186.2 144.55 186.55 145.05 186.6 145.1 186.55 144.3 Q 186.2 142.85 185.85 142.25 L 185 140.95 184.95 140.8 184.85 140.75 Q 184.75 140.75 184.85 140.7 L 185.1 140.55 Q 185.5 140.55 185.85 141.05 L 186.1 141.4 187 140.7 Q 187.35 140.55 187.5 140.6 L 187.55 140.7 187.55 140.8 187.5 141.15 186.95 141.9 Q 186.7 142.25 186.8 142.35 186.85 142.4 187.2 142.15 L 188.05 141.65 188.25 141.45 188.75 141.2 189.1 140.95 189.3 140.85 Q 189.6 140.8 189.65 140.85 L 189.75 141.1 189.75 141.3 189.1 142.15 188.9 142.25 188.15 143.05 190.1 142 190.2 141.9 192.2 140.75 192.3 140.75 Q 192.4 140.85 192.4 140.75 192.6 140.75 192.7 140.85 L 192.8 141.05 192.5 141.55 188.65 145.3 189.4 144.95 192.7 142.6 192.9 142.4 195.1 140.95 195.15 140.85 196.1 140.55 196.8 140.6 194.95 142.55 193.95 143.4 193.75 143.5 192.6 144.5 197.85 141.5 198.2 141.2 198.5 141.1 Q 198.8 140.8 199.6 140.55 L 199.95 140.4 Q 200.4 140.25 200.45 140.3 200.8 140.3 200.55 140.8 199.95 141.45 199.8 141.5 L 199.15 142.15 Q 198.45 142.45 198.8 142.45 198.8 142.6 199.6 142.2 200.2 142 201.1 141.5 L 203.4 140.25 203.5 140.25 Q 203.5 140.2 204.2 140.2 204.85 140.2 204.7 140.3 204.7 140.55 204 141.2 L 203.4 141.85 203.8 141.8 206.9 140.1 Q 207.4 139.95 207.5 140.05 207.7 140.2 207.65 140.25 L 207.5 140.45 207.4 140.75 207.25 141.05 207.25 141.3 Q 207.35 141.45 207.55 141.3 L 208.2 140.8 M 182.4 167.75 Q 182.55 167.9 182.3 168.1 L 182.2 168.25 182.15 168.3 182.1 168.45 Q 181.65 169.3 181.15 169.55 L 180.35 170 179.9 170.15 Q 179.3 170.25 179.2 170.2 179.05 170.2 179.05 170.05 L 179.35 169.75 179.7 169.65 179.8 169.5 179.85 169.5 179.9 169.4 180 169.4 180.4 169.15 180.55 169.15 180.7 169 181.65 168.4 182.3 167.8 182.4 167.8 182.4 167.75 M 166 173.15 L 166.5 172.9 Q 166.6 172.8 166.5 172.8 L 166.75 172.7 167 172.45 167.1 172.45 167.2 172.35 167.35 172.35 167.4 172.25 167.5 172.1 167.55 172.1 168.05 171.7 Q 168.35 171.3 168.35 171.65 168.35 171.95 168.1 172.1 L 167.9 172.7 167.35 173.1 166.5 174 164.7 175.25 164 175.65 164.35 175.6 165 175.35 165.15 175.25 166.65 174.55 167.9 173.7 168.2 173.65 168.35 173.55 Q 168.55 173.25 168.7 173.25 L 168.9 173.15 Q 168.95 172.95 169.25 172.9 L 169.35 172.95 Q 169.4 173.05 169.3 173.3 L 168.7 174.05 168.55 174.3 165.95 176.5 166.45 176.35 166.65 176.35 Q 166.85 176.15 167 176.15 L 167.85 175.75 167.9 175.75 168.2 175.6 168.35 175.5 168.45 175.35 168.55 175.35 168.6 175.3 168.7 175.25 169.05 174.9 170 174.2 Q 170.15 174.2 170.15 174.35 L 170.2 174.4 170.2 174.55 169.5 175.55 Q 169.15 175.85 168.95 176.15 L 168.05 177.15 169.35 176.5 169.55 176.3 169.9 176.15 170.6 175.65 170.85 175.9 Q 170.95 176.15 170.65 176.7 L 170.6 176.85 Q 170.6 177.05 170.2 177.3 L 169.35 178.1 168.2 178.8 167.9 178.85 Q 167.1 178.85 166.75 178.8 L 165.95 178.45 165.8 178.45 165.7 178.3 165.6 178.3 165.4 178.15 165.15 178.1 165.05 177.95 164.8 177.85 164.7 177.75 161 175.3 Q 160.4 175.1 160 174.7 L 159.55 174.4 159.45 174.2 159.55 174.05 160 173.9 160.2 173.9 Q 160.65 173.7 161 173.7 L 161.25 173.8 161.25 174 Q 161.15 174.2 160.75 174.2 160.45 174.2 160.45 174.3 L 161.25 174.65 Q 161.8 174.75 161.9 174.7 L 162.15 174.7 163.65 174.3 164.55 173.9 Q 164.9 173.65 165.15 173.65 L 165.8 173.3 165.95 173.15 166 173.15 M 162.6 177.5 L 162.6 177.75 162 178.65 161.8 178.85 161.65 179.1 160.55 180.05 159.95 180.45 159.7 180.7 159.45 180.85 Q 159.15 181.05 159.3 181.05 L 159.75 180.85 159.95 180.85 161.15 180.25 161.25 180.25 161.9 179.9 162.05 179.75 162.4 179.5 Q 162.75 179.1 162.9 179.1 L 163.05 178.9 163.35 178.8 163.45 178.85 163.45 179 Q 163.55 179.1 163.45 179.1 L 163.35 179.25 Q 163.25 179.55 162.75 180.05 L 161.7 181.35 161.3 181.65 Q 161.4 181.7 162.6 181.05 L 162.75 180.95 162.85 180.85 163.65 180.4 163.9 180.2 164.05 180.4 Q 164.2 180.6 163.95 181.2 L 163.9 181.45 163.45 181.85 163.25 182.15 162.5 182.75 161.45 183.3 161.15 183.4 Q 160.75 183.5 160.05 183.3 L 159.35 183.05 159.3 183.05 158.45 182.65 158.35 182.5 Q 158.15 182.5 157.25 181.85 L 154.95 180.35 155.3 179.7 Q 155.45 179.5 155.45 179.15 L 155.6 178.85 155.65 178.5 155.8 178.3 156.25 177.25 156.45 177 Q 156.65 176.85 156.8 176.6 L 157 176.3 157.35 176 157.4 175.9 157.9 175.75 159.2 175.6 159.7 175.75 160 175.95 159.85 176.15 158.75 177.25 158.7 177.25 156.25 178.9 157.2 178.65 157.4 178.5 158.25 178.1 158.35 178.1 160.1 177 160.35 176.9 161.05 176.45 161.25 176.6 161.3 176.7 161.15 177.25 159.75 178.6 157.35 180.2 157.7 180.2 159.35 179.4 159.45 179.4 160.8 178.5 161 178.45 161.15 178.3 161.45 178.15 162 177.75 162.15 177.7 Q 162.4 177.25 162.6 177.5 M 139.35 135.8 L 138.8 135.9 Q 138.05 135.9 137.8 135.7 L 137.5 135.45 138.75 135.05 142.15 133.3 142.2 133.25 142.3 133.25 Q 142.35 133.5 142.3 133.6 L 142.3 133.75 Q 142.3 134.15 141.9 134.45 L 141.1 135.05 139.35 135.8 M 149.8 161.5 L 149.85 161.45 150.45 161.45 150.55 161.6 150.6 161.8 150.55 161.85 150.55 161.9 150.5 162.05 150.2 162.4 149.3 163.1 148.95 163.2 148.2 163.75 147.15 164.1 146.95 164.1 146.8 163.85 Q 146.95 163.55 147.15 163.5 L 148.8 162.15 148.95 162 149.8 161.5 M 148.8 161 Q 148.8 161.25 147.85 161.9 L 144 164.65 Q 143.75 164.85 143.5 164.85 143.4 164.85 143.3 164.7 143.3 164.5 144.25 163.75 L 146.25 162.15 146.55 161.85 147.3 161.25 Q 147.55 161.1 147.9 160.95 148.6 160.65 148.75 160.8 L 148.8 161 M 147 167 L 148.05 167.05 148.3 167.2 148.95 167.45 149.15 167.55 149.3 167.65 150.15 168.4 150.5 168.8 150.5 169.05 150.25 169.4 149.8 169.7 149.55 169.75 Q 148.95 170.2 148.2 170.2 147.85 170.25 147.85 170.35 L 147.85 170.5 Q 147.85 170.6 148.2 170.6 L 148.35 170.65 Q 148.65 170.85 149.45 170.5 L 149.7 170.5 148.95 171.45 148.95 171.5 148.9 171.5 148.75 171.65 148.05 172 147.75 172.1 Q 147.55 172.1 147.35 171.95 L 147.15 171.8 147.05 171.8 146.25 171.3 145.7 170.75 145.6 170.6 145.55 170.5 145.4 170.35 145.35 170.15 145.35 169.75 145.6 168.8 Q 145.9 167.9 146.2 167.75 L 146.25 167.7 146.35 167.65 146.55 167.4 146.9 167.05 147 167 M 148.2 166.3 L 147.35 166.1 147 166.1 146.65 166.3 145.9 167 144.85 168.6 144.15 170.05 144.1 170.4 144.1 170.5 143.15 170.85 Q 142.9 170.95 142.75 170.85 142.7 170.85 142.9 170.4 L 143.3 169.55 143.3 169.5 143.5 169.3 143.8 168.65 144.1 168.25 144.15 168.2 144.25 168.05 144.3 167.75 144.45 167.45 146.1 165.75 146.25 165.7 146.4 165.5 147.75 165.1 148.05 165.1 148.3 165.05 Q 149 165 149.8 165.15 L 150.3 165.45 Q 150.5 165.7 150.6 165.7 L 150.8 165.8 Q 150.95 166.1 151.25 166.1 L 151.8 166.7 Q 152.2 167 152.2 167.2 L 152.4 167.55 152.4 168.05 152.5 168.3 152.5 168.65 152.4 169.25 152.2 169.5 152.15 169.75 151.9 170.2 151.85 170.25 151.85 170.35 151.65 170.75 Q 151.75 170.75 151.6 171 L 151.45 171.3 151.45 171.35 151.15 172 150.55 172.8 150.25 173.4 149.1 174.75 148.75 175.1 148.55 175.35 148.05 176.25 147.85 176.35 147.65 176.65 146.4 177.9 Q 145.95 178.45 145.7 178.6 L 145.2 179.1 145.1 179.1 144.25 179.25 144 179.25 143.65 179.4 142.5 179.4 Q 142.15 179.4 141.9 179.1 L 140.45 178.3 Q 140.05 178.1 139.85 177.3 139.75 176.7 140 176.6 140.2 176.3 140.2 176.7 L 140.45 177.15 141.25 177.55 142.2 177.75 142.4 177.85 143.25 177.95 144.45 177.85 Q 144.75 177.75 144.95 177.55 L 145.4 177.2 Q 146.3 176.5 146.2 176.5 L 145.9 176.5 145.6 176.65 144.25 177.15 143.15 177.3 Q 142.7 177.3 142.55 177.2 142.4 177.05 142.5 176.9 142.5 176.8 142.7 176.7 L 143.05 176.5 143.75 176.3 144.45 175.95 144.5 175.9 144.65 175.85 144.75 175.85 144.95 175.75 145 175.65 145.1 175.65 146.7 174.9 147.3 174.7 147.5 174.55 Q 147.65 174.4 147.55 174.4 L 143.05 175.65 Q 142.15 175.95 141.25 175.95 140.9 175.95 140.9 175.85 L 141.2 175.55 142.2 175.1 Q 142.85 174.9 142.9 174.85 L 143.5 174.7 143.6 174.7 146.55 173.4 Q 146.55 173.3 146.3 173.3 L 146.1 173.4 141.2 174.35 Q 140.9 174.4 140.9 174.3 140.9 174 141.45 173.8 L 142.9 173.25 Q 143.05 173.1 143.3 173.1 L 143.8 172.9 Q 144.1 172.9 144.1 172.8 L 144.3 172.8 144.7 172.6 144.85 172.6 144.95 172.55 Q 145.1 172.55 145.1 172.45 L 145.75 172.35 145.9 172.35 Q 146.1 172.35 146.3 172.45 L 147.2 172.9 147.4 172.9 Q 148.15 173.1 148.15 172.9 L 148.3 172.8 Q 148.65 172.75 148.9 172.55 L 149.5 172 149.95 171.45 151.25 169.4 151.3 169.3 151.45 168.9 149.65 167 Q 149.15 166.7 148.2 166.3 M 142 166.45 L 142.15 166.65 142.3 166.75 142.35 166.95 Q 142.75 167.2 142.75 167.8 L 142.7 168.45 142.65 168.6 Q 142.65 169 142.35 169.4 L 141.8 170.2 Q 141.65 170.35 141.55 170.25 141.4 170.2 141.4 169.9 L 141.25 169.15 141.05 168.8 Q 140.95 168.6 139.75 167.4 L 138.8 166.6 Q 138.5 166.35 138.1 166.35 L 137.4 166.5 135.75 167.1 135.55 167.05 135.45 166.95 135.55 166.95 135.7 166.75 136.55 166.25 136.95 165.95 138 165.45 139 165.15 140.4 165.15 141.1 165.5 142 166.45 M 143.5 165.85 Q 143.8 165.6 143.95 165.6 L 144.1 165.45 144.6 165.35 144.7 165.4 144.75 165.6 Q 144.75 165.8 144.65 165.95 L 144.25 166.15 Q 143.95 166.25 143.85 166.15 L 143.65 166.05 143.5 165.85 M 143.3 171.6 L 144.15 171.15 Q 144.3 171 144.35 171.1 L 144.75 171.45 144.85 171.6 Q 144.95 171.65 144.75 171.8 144.65 172.1 144.25 172.1 L 143.6 172.25 143.5 172.35 143.3 172.35 142.9 172.45 Q 142.55 172.45 142.55 172.25 142.5 172.2 142.7 172 L 142.85 171.95 143.3 171.6 M 151.75 172.45 Q 151.6 172.25 151.75 172.1 L 152.4 171.5 152.5 171.5 Q 152.9 171.35 153.35 171.85 L 153.7 172.1 Q 153.95 172.25 154.35 172.9 L 154.3 173.3 154 173.4 Q 153.8 173.4 153.2 173.65 L 152.4 174 Q 152.25 174 152.4 174.05 152.4 174.15 152.7 174.05 L 153.05 174.05 153.25 174 153.55 174.15 153.35 174.7 153.1 174.9 151.9 175.5 Q 151.85 175.55 151.5 175.35 L 150.95 175.1 150.7 174.85 150.6 174.65 150.75 174.2 150.8 174.15 150.8 174.05 151.25 173.4 151.65 173.25 151.75 173.15 152.55 172.7 Q 152.75 172.45 152.55 172.45 152.4 172.25 152 172.45 151.8 172.6 151.8 172.45 L 151.75 172.45 M 153.2 169.5 L 153.7 169.55 154.2 169.85 Q 154.95 170.2 155.4 170.85 L 155.75 171.2 156.1 171.8 156.3 172.25 Q 156.55 172.6 156.55 173.1 L 156.45 175 156.4 175.2 156.15 175.6 156.15 175.65 156.1 175.9 155.65 176.8 155.4 177.2 154.35 179.4 154.35 179.5 153.95 180.4 153.8 180.55 153.7 180.7 153.1 181.15 151.05 182.05 Q 150.6 182.2 151.4 182.2 L 154.1 182 154.3 181.95 154.35 181.95 154.45 182.05 Q 154.45 182.3 154.3 182.3 L 154 182.55 153.35 182.75 151.1 182.95 149.55 182.65 149.45 182.65 149.15 182.5 149 182.3 148.55 182 148.35 181.8 Q 148.3 181.7 148.35 181.65 148.65 181.5 148.8 181.5 L 149.65 181.45 150.2 181.35 150.25 181.35 150.5 181.15 152.7 180 153 179.75 Q 153 179.7 152.75 179.85 L 152.65 179.85 Q 152.65 179.7 152.4 180 L 150.95 180.45 149.5 180.7 148.95 180.7 148.25 180.55 148.15 180.45 148.2 180.4 148.3 180.35 148.35 180.25 149.3 179.85 149.5 179.7 151.6 179 Q 151.45 178.85 151.75 178.85 L 151.85 178.75 152.4 178.45 152.55 178.3 152.7 178.25 149.8 178.85 149.7 178.85 Q 149.65 178.9 149 178.9 148.35 178.9 148.25 178.85 L 148.2 178.65 148.25 178.6 148.5 178.3 148.55 178.25 148.95 177.95 149.65 177.6 150.55 177.45 150.7 177.45 152.15 177 152.55 176.65 153 176.15 Q 154.15 175.1 154.3 174.7 L 155.15 173.15 155.05 172.8 155.05 172.6 154.95 172.25 153.7 171.1 153.35 170.95 153.25 170.85 Q 152.9 170.85 152.9 170.5 L 152.75 170 Q 152.75 169.7 153.2 169.5 M 128.5 165.05 Q 128.6 164.9 129.05 164.9 L 129.4 164.85 129.85 164.85 Q 130.55 165 130.85 165.1 131.35 165.25 131.7 165.6 L 131.95 165.75 132 165.85 132.3 166.1 132.7 166.75 132.7 167 132.85 167.35 Q 132.9 167.8 132.8 167.95 L 132.55 168.3 132 168.9 131.05 169.4 130.7 169.5 130.1 169.85 Q 130.1 170.2 130.5 170.35 130.55 170.35 130.5 170.4 L 130.4 170.5 130.2 170.5 129.9 170.6 129.3 170.6 128.05 170.15 127.35 169.7 Q 127 169.55 127 169.25 127 168.9 127.2 168.8 L 127.7 168.55 129.75 167.1 128.6 167.55 Q 127.9 167.9 127.85 167.8 L 126.35 168.25 125.9 168.2 125.85 168.1 125.75 168.1 125.65 168.05 125.6 167.9 126 167.45 127.95 166.1 127.8 166.1 Q 126.55 166.35 126.3 166.6 L 125.75 166.75 Q 125.55 166.65 125.85 166.35 L 125.9 166.15 126 166.1 126.2 165.85 Q 126.6 165.5 127.7 165.15 L 127.9 165.1 128.5 165.05 M 125.75 169.85 Q 125.9 169.7 126 169.75 L 127.9 170.85 128.5 171.1 128.6 171.1 128.65 171.15 128.75 171.15 129.15 171.5 Q 129.3 171.8 129.2 171.85 129.2 172 129.05 172.1 128.55 172.25 127.9 172.1 L 127.2 171.7 126.95 171.5 Q 126.25 171.1 126 170.5 L 125.9 170.2 Q 125.65 170 125.75 169.85 M 135.2 169.65 Q 135.05 169.05 135.15 168.8 L 135.7 168.2 Q 135.7 167.95 136.1 167.75 L 136.95 167.35 137.55 167.3 Q 138 167.2 138.4 167.3 L 138.95 167.65 139.85 168.55 140.05 168.9 140.3 169.05 140.55 169.65 140.55 169.85 140.6 170 Q 140.7 170.2 140.6 170.25 L 140.4 170.5 140.35 170.6 140.2 170.6 140.1 170.65 139.5 171.1 138.9 171.35 137.75 171.7 Q 137.3 171.85 137.3 171.8 L 137.15 171.7 136.95 171.7 135.75 170.85 135.45 170.4 Q 135.25 170.15 135.2 169.65 M 134 171.2 L 133.65 171.5 132.95 172.25 133.6 172.2 134.8 171.8 134.9 171.8 135.15 171.7 Q 135.7 171.5 135.85 171.95 136.05 172.1 136.05 172.25 L 135.95 172.6 135.85 172.8 135.05 173.25 135 173.25 134.85 173.4 134.6 173.4 134.55 173.6 134.4 173.8 134.4 173.9 134.5 173.8 134.8 173.8 135.45 173.65 136.05 173.4 136.35 173.4 136.8 173.1 137.1 173.05 137.15 172.95 137.55 172.7 138.95 172.1 139.45 172.1 139.5 172.2 138 173.55 137.35 173.9 137.3 174 137.65 174 137.7 173.95 140.1 172.9 140.6 172.55 140.9 172.45 Q 141.2 172.45 141.05 172.6 L 139.65 174.3 139 174.75 138.8 175 138.75 175 138.7 175.05 138.5 175.1 138.4 175.25 137.9 175.55 Q 137.1 175.95 136.1 175.95 L 135.7 176 135.05 176 133.9 175.35 132.95 174.65 132.7 174.15 132.5 173.95 132.45 173.8 132.3 172.95 132.15 172.55 132.15 172.45 Q 132 172.1 132.3 171.8 L 132.7 171.1 133.95 170.5 134.25 170.5 Q 134.25 170.6 134.25 170.65 L 134.25 170.85 134.15 170.85 134.1 171 134 171.2 M 149.95 176.3 Q 150.1 176.25 150.45 176.15 150.748828125 176.1001953125 150.75 176.15 150.750390625 176.1001953125 150.9 176.15 L 150.95 176.15 151.05 176.25 151.3 176.35 151.3 176.45 150.75 176.8 150.6 176.8 150.2 176.85 150.15 176.8 Q 149.9 176.8 149.9 176.7 149.65 176.7 149.95 176.35 L 149.95 176.3 M 139.7 169.9 L 139.3 169.5 138.95 169 Q 138.7 168.7 138.5 168.9 L 138.7 169 138.75 169.05 Q 138.8 169.15 138.7 169.4 L 138.6 169.75 138.4 170.15 137.55 170.85 138.45 170.6 138.5 170.5 139.7 169.9 M 131.15 167.75 L 130.75 168.05 129.85 168.45 129.3 168.8 Q 129.05 169.05 128.8 169.05 L 128.65 169.25 Q 128.75 169.3 129.4 169.15 L 130.25 168.8 130.35 168.8 130.6 168.65 131.15 168.55 131.35 168.4 132 168.1 132 168.05 131.7 167.75 131.45 167.7 131.15 167.75 M 149.2 168.4 L 148.6 168.1 Q 148.35 168.05 147.95 168.4 L 147.05 169 146.95 169.15 Q 146.95 169.25 147.05 169.15 L 147.85 168.9 147.9 168.8 149.2 168.4 M 127.95 154.35 Q 127.85 154.5 127.95 154.5 L 127.95 154.7 128.05 154.7 128.3 154.5 129.15 154 129.2 154 129.75 153.7 Q 130.35 153.45 130.4 153.25 L 130.55 153.1 130.4 152.95 130.35 152.95 Q 130.35 152.9 130 152.95 129.75 152.95 129.55 153.1 L 127.95 154.35 M 127.45 150.6 L 127.35 150.6 126.35 151.15 126.25 151.3 126.1 151.4 126 151.4 124.4 152.55 123.95 152.95 123.45 153.6 123.45 153.7 123.4 153.95 Q 123.55 153.95 124.15 153.45 L 126.7 152 127.2 151.65 127.35 151.5 Q 127.55 151.4 127.6 151.25 L 127.7 151 127.6 150.9 Q 127.8 150.75 127.6 150.75 L 127.55 150.75 127.45 150.6 M 130.4 151.3 L 130.1 151 126.35 153.45 Q 126.1 153.8 126.25 153.85 126.25 154 126.45 153.85 126.55 153.8 126.6 153.85 L 126.65 153.8 129.3 152.2 129.85 151.95 Q 130.1 151.95 130.1 151.75 L 130.4 151.3 M 131.85 154.7 Q 131.85 154.8 131.7 154.8 L 131.05 155.15 128.6 157.45 128.65 157.55 128.75 157.6 128.8 157.6 129.15 157.45 131.6 155.75 132.3 155.05 Q 132.3 154.85 132.15 154.85 L 131.85 154.7 M 138.8 154.3 L 139.15 153.95 139.35 153.65 139.25 153.6 136.2 155.6 136.15 155.65 135.85 155.9 135.6 156 135.35 156.15 134.55 156.85 134.45 157.05 134.85 156.9 135.35 156.8 135.45 156.8 135.7 156.65 135.75 156.55 136.4 156.25 Q 136.85 156 136.85 155.9 L 137.5 155.25 138.8 154.3 M 161 161.85 L 161.05 161.75 163.65 159.2 161.45 160.45 160.35 161.35 160.1 161.6 Q 159.65 162 159.85 162 L 160.05 162.05 160.1 162.15 160.4 162.15 160.7 162.05 161 161.85 M 143.95 155.65 Q 144.15 155.5 143.85 155.5 143.75 155.3 142.85 155.9 L 142.4 156.1 Q 141.9 156.4 141.9 156.75 L 141.9 156.85 Q 142.05 157.1 142.05 156.9 L 142.5 156.65 142.7 156.45 143.65 155.8 143.95 155.65 M 154.2 159.8 Q 153.45 160.4 153.45 160.65 L 154.5 160.1 154.95 159.8 Q 156.05 159.2 156.55 158.5 L 156.9 158.4 156.9 158.25 157.2 158.1 157.9 157.45 159.15 155.95 159.2 155.9 159.05 155.95 158.25 156.45 158.1 156.5 157.9 156.65 Q 157.25 156.9 157.2 157.1 L 156.75 157.45 154.2 159.8 M 157.85 154.05 L 157.15 154.3 156.75 154.35 156.05 154.6 155.8 154.35 155.9 154.05 156.45 153.55 157.2 152.5 156.5 152.75 Q 155.95 153 155.15 153.25 L 154.7 153.2 154.45 152.9 154.35 152.65 Q 154.35 152.4 154.6 152.25 L 155.05 151.4 153.95 152 153 152.35 152.9 152.25 152.85 152.1 152.75 152.1 152.85 151.85 153.25 151.05 153.55 150.75 153.25 150.95 151.4 151.95 151.05 152.05 150.8 152.2 149.85 152.5 Q 149.15 152.75 148.9 152.95 L 148.75 153.1 148.8 153.1 148.95 153 149.55 152.85 150.5 152.75 Q 150.6 152.75 150.2 153.25 L 150.1 153.55 150.5 153.45 151.4 153 Q 151.85 152.85 152.1 152.95 152.4 153.1 152.4 153.3 152.4 153.35 152.2 153.8 L 152.1 154 152 154.05 151.25 155.3 151.25 155.5 151.45 155.25 153.2 154.05 153.45 153.95 153.75 154.2 Q 153.75 154.5 153.6 154.6 L 153.45 154.85 150.7 157.85 150.75 157.95 151.05 157.85 154.35 155.55 Q 154.7 155.3 154.85 155.4 154.95 155.5 154.95 155.65 154.95 155.8 154.35 156.65 L 154.2 156.9 151.4 159.5 Q 151.1 159.65 151.3 159.65 L 151.65 159.65 151.85 159.55 152 159.55 153 159.05 153.05 158.95 153.25 158.8 153.35 158.8 153.35 158.7 154.95 157.45 155.05 157.45 155.2 157.25 155.3 157.2 155.75 157.25 Q 156.05 157.35 156.1 157.25 L 156.1 157.1 156.4 156.3 156.45 156.25 156.45 156.1 Q 156.45 155.6 156.65 155.4 L 157.4 154.7 Q 158 154.2 157.85 154.05 M 93.1 162.2 L 92.9 162.25 92.9 162.55 Q 93.3 162.2 93.1 162.2 M 96.7 161.15 L 96.65 161.15 96.05 161.35 93.75 163.4 Q 93.15 163.85 92.9 164.15 L 92.9 165.1 93.6 164.85 93.85 164.55 94.1 164.4 95.75 162.25 95.9 162.2 95.95 162.05 96.6 161.25 96.7 161.15 M 110.95 157.45 L 110.8 157.6 110.65 157.7 110 158.25 109.65 158.45 109.45 158.7 108.7 159.15 108.55 159.3 108.4 159.3 108.2 159.5 108.1 159.5 107.95 159.65 107.85 159.65 104.9 161.8 104.85 161.85 104.45 162.05 103.05 163.1 101.1 165.25 101.65 165.15 101.75 165.1 101.95 165.1 102 165.05 102.05 165.05 102.9 164.55 105.3 162.75 105.55 162.7 107.25 160.95 Q 107.6 160.8 108.35 160.1 L 110.2 158.3 Q 111.15 157.45 111 157.45 L 110.95 157.45 M 106.3 158.6 L 105.85 158.8 99.5 163.8 99.1 164.3 Q 98.5 165 98.4 165.05 L 98.25 165.25 Q 98.25 165.35 98.65 165.15 L 99.65 164.9 100.3 164.55 100.55 164.3 100.95 164 Q 101.3 163.75 101.4 163.65 L 102.2 162.95 102.3 162.9 102.55 162.7 105.65 159.4 Q 106.65 158.6 106.6 158.5 L 106.45 158.6 106.3 158.6 M 101.7 159.85 L 101.75 159.65 101.65 159.8 101.4 159.85 Q 101.1 159.85 100.8 160.1 L 97.4 163.05 97.05 163.4 96.25 164 95.45 165.35 95.65 165.35 96.7 165 98.75 163.05 Q 98.95 162.75 99 162.6 L 99.95 161.75 100.1 161.45 101.7 159.85 M 121.35 156.25 L 121.15 156.3 119.8 157 119.1 157.55 Q 118.7 157.85 118.3 158.25 L 117.05 159.3 117.15 159.3 117.4 159.15 117.85 159.05 118.1 158.85 118.25 158.85 119.1 158.05 121.25 156.4 121.35 156.25 M 115.9 158.5 Q 116.35 158.05 116.3 158.05 L 108.6 164.1 Q 108.35 164.35 108.2 164.35 L 107.95 164.55 Q 107.45 165 107.25 165 L 106.85 164.85 106.8 164.7 106.65 164.65 Q 106.6 164.55 106.65 164.4 106.65 164.2 106.85 164 L 107.1 163.8 114.7 156.85 114.65 156.85 114.5 156.9 110.65 159.8 110.3 160 110 160.3 108.95 161.1 108.7 161.25 108.7 161.35 108.1 161.75 106.8 162.9 106.5 163.1 106.25 163.4 105.95 163.5 105.55 163.85 105.05 164.15 105 164.3 104.85 164.35 104.8 164.35 104.5 164.55 104.15 164.9 103.55 165.25 103.1 165.45 102.9 165.6 102.85 165.7 Q 102.75 165.7 102.85 165.85 L 102.85 165.95 103.2 165.85 107.55 165.7 108.35 165.4 108.55 165.25 111.15 162.85 111.8 162.4 114.15 160.25 114.4 160.1 115.3 159.3 Q 115.35 159.2 115.3 159.2 L 115.9 158.5 M 158.5 148.3 L 158.75 148.45 158.95 148.5 159.45 148.45 159.5 148.45 160.3 148.1 161.65 146.9 Q 161.1 147.05 161 147.05 L 159.5 147.7 Q 159.2 147.7 158.7 148.1 158.4 148.2 158.5 148.3 M 152.9 141.65 Q 152.85 141.7 153 141.7 L 153.35 141.85 153.8 141.9 154.3 142.05 155.3 142.55 155.3 142.75 Q 155.4 143.05 155.3 143.25 L 155.15 143.6 154.65 144.2 Q 154.5 144.4 154.7 144.3 L 156.25 143.4 156.45 143.35 Q 156.65 143.25 156.9 143.35 157.15 143.45 156.8 143.8 L 156.65 144.05 155.95 145 Q 155.95 145.05 156.05 145 L 156.15 145 156.9 144.65 157.1 144.5 Q 158.15 143.85 158.35 144.15 L 158.35 144.5 157.2 146.1 157 146.3 158.45 145.55 158.7 145.45 158.75 145.4 159.2 145.2 Q 159.35 145.1 159.45 145.2 159.65 145.3 159.7 145.65 L 159.7 146.1 160.2 145.9 161.15 145.3 161.1 145.2 160.9 145.05 160.65 144.75 160.35 144.55 159.95 144.15 159.35 143.7 Q 158.75 143.1 158.35 142.85 L 157.4 142.45 154.95 141.8 154.8 141.8 154.65 141.7 Q 154.5 141.65 153.8 141.65 153.05 141.55 152.9 141.65 M 148.6 135.7 L 148.55 135.6 146.6 138 146.25 138.15 Q 146.05 138.35 145.8 138.35 145.4 138.5 145.4 138 L 145.7 137.15 Q 145.75 137 145.35 137.4 L 143.4 139.2 143.15 139.35 143 139.35 142.9 139.5 Q 142.9 139.6 143.05 139.7 143.15 139.75 143.6 139.75 L 144.85 139.6 146.2 139.15 146.3 139.1 147.2 138.5 147.65 138 Q 147.9 137.65 147.9 137.5 L 148.25 136.65 Q 148.6 136.15 148.6 135.7 M 146.55 131.9 L 146.7 132.2 Q 147.15 132.6 147.2 132.85 L 147.85 134.15 147.95 134.2 148.15 133.85 Q 148.15 133.3 147.9 132.95 L 147.9 132.85 147.65 132.35 147.2 132.05 147.05 131.9 146.55 131.9 M 140.9 139.75 L 140.9 139.85 141.1 139.85 Q 141.45 139.85 141.9 139.35 L 142.55 138.6 Q 143.4 137.65 143.5 137.25 143.5 137.2 143.3 137.25 L 140.95 139.6 140.9 139.75 M 138.4 138.35 L 137.7 138.65 Q 136.95 139 137 139.1 L 137.15 139.15 137.2 139.2 137.5 139.35 137.55 139.35 138.15 138.8 138.45 138.45 138.4 138.35 M 140.55 138 L 139.7 138.65 Q 138.95 139.25 138.9 139.5 138.75 139.7 138.9 139.75 L 139.15 139.75 139.3 139.85 139.45 139.75 140.35 138.6 Q 140.6 138 140.55 138 M 222.15 161.5 L 222.35 161.15 222.6 160.9 222.7 160.75 222.85 160.45 Q 222.75 160.4 221.95 161.15 L 219.05 163.5 218.75 163.8 216.9 165 216.85 165.05 216.45 165.35 215.4 166.35 Q 215.4 166.45 215.85 166.35 L 216.8 166.1 216.85 166.05 Q 217.1 166.05 217.2 165.85 L 218.7 165.05 219.05 164.7 219.3 164.55 219.7 164.15 219.7 164.1 221.75 162.05 222.15 161.5 M 212.3 163.55 L 212.15 163.65 210.95 164.65 210.8 164.75 Q 210.65 164.85 210.35 165.15 210 165.5 210 165.6 L 210.95 165.15 211.15 165.1 212.4 164.4 212.6 164.35 212.75 164.2 Q 213.55 163.65 213.9 163.2 L 214.65 162.4 214.65 162.35 214.8 162.05 214.95 161.6 213 163.05 212.7 163.2 212.3 163.55 M 219.9 160.3 Q 220 160.2 219.9 160.2 219.9 160.1 219.55 160.4 L 218.1 161.5 217.85 161.85 216.8 162.9 214.45 164.5 214.35 164.55 212.5 165.85 Q 212.35 165.95 212.35 166.05 212.35 166.15 212.4 166.15 L 212.55 166.15 212.6 166.25 213.9 165.95 Q 214.15 165.85 214.3 165.75 L 214.5 165.7 218.6 162 219.05 161.5 219.05 161.35 219.65 160.65 219.8 160.55 219.85 160.4 219.9 160.3 M 214.45 159.3 Q 214.5 159.2 214.5 159.15 L 213.8 159.65 213.2 160.25 212.35 160.9 212.3 161 210.6 162.35 210.35 162.45 208.25 164.2 208.1 164.2 207.9 164.35 207.65 164.4 206.3 165.05 205.9 165.05 Q 205.7 165.05 205.7 164.85 L 205.7 164.7 208.2 162.7 210.8 160 211.95 158.5 212.15 158.3 Q 212.2 158.15 212.05 158.25 L 208.95 161 208.7 161.15 207.65 162.15 Q 206.8 162.95 205.75 163.75 L 202.8 165.8 206.65 166.15 206.9 166.15 207.4 166.1 Q 207.55 166.1 208.6 165.05 209.2 164.4 209.45 164.35 L 210.25 163.75 210.45 163.45 210.8 163.2 211.65 162.35 211.95 162.15 212 162.15 212.05 162 214.45 159.3 M 216.8 160.4 L 217.15 160 217.25 159.8 217.5 159.55 Q 217.7 159.4 217.8 159.2 L 216.9 159.9 216.8 160 Q 216.6 160.2 215.9 160.8 L 215.55 161.75 215.4 162 Q 215.4 162.25 215.6 161.85 L 215.95 161.5 Q 216.25 161.25 216.8 160.4 M 223.55 163.75 L 224.3 162.75 224.35 162.6 224.7 162.2 Q 225.05 161.8 224.8 161.8 224.65 161.8 224.35 162.05 L 222.75 163.4 222.6 163.55 222.4 163.65 222.35 163.75 222.25 163.8 220.35 165.25 218.85 166.15 Q 218.5 166.5 218.6 166.6 L 218.95 166.6 219.3 166.65 219.8 166.6 221.45 165.6 221.6 165.4 221.8 165.35 221.95 165.15 222.15 165.05 222.6 164.7 222.75 164.4 223.55 163.75 M 228.8 165.4 L 228.8 164.3 225.4 166.6 225.15 167.05 225.25 167.1 225.5 167.1 225.7 167.05 225.95 167.05 226.6 166.85 227 166.65 227.2 166.45 227.35 166.45 227.4 166.35 227.6 166.15 228.8 165.4 M 228.8 161.45 L 228.8 161.25 223.1 165.4 221.75 166.65 Q 221.5 166.75 221.5 166.95 L 221.6 166.95 221.6 167 221.95 167 222 166.95 222.25 166.95 222.25 166.85 222.35 166.85 Q 222.35 166.95 222.9 166.7 223.7 166.45 223.8 166.25 L 224.85 165.4 225.15 165.1 225.7 164.7 228.8 161.45 M 166.25 162 L 166.25 161.9 166.5 161.6 Q 167.1 161.1 166.85 161.1 L 165.9 161.6 165.6 161.85 165.5 161.9 165.15 162.15 164.2 162.7 163.95 162.95 162.95 163.65 162.75 163.85 Q 162.3 163.85 163.4 164.15 L 163.6 164.2 166.25 162 M 169.15 166.3 L 168.35 166.7 167.55 167.45 167.95 167.65 169.4 167 169.65 167 Q 170 167.1 170.15 167.35 L 170.25 167.55 170.25 167.7 170 168.1 169 168.6 169.3 168.6 Q 169.85 168.6 170.5 168.45 L 171.35 168.2 Q 171.6 168.25 171.5 168.4 L 171.45 168.45 171.35 168.6 171.35 168.8 170.3 169.75 Q 170.05 169.85 170.05 170 L 170.3 170 171.65 169.35 173.25 168.25 Q 173.4 168.2 173.8 167.75 174.15 167.35 174.15 167.3 L 174.4 166.75 174.2 166.95 Q 174.05 167.1 173.85 167.1 L 173.05 167.45 172.7 167.45 172.5 167.55 Q 172.25 167.55 172.55 167.3 L 173.15 166.7 173.45 166.25 Q 173.45 166.05 173.6 166.05 L 173.6 165.85 173.75 165.7 173.8 165.45 173.95 165.15 Q 174.15 164.85 174.05 164.85 L 173.15 165.6 Q 172.55 166.15 171.95 166.6 L 171.65 166.7 Q 171.45 166.95 171.2 166.75 170.75 166.65 171.2 166.1 L 171.75 165.25 171.95 165.05 Q 171.8 165.05 171.95 164.9 L 172.45 164 Q 172.45 163.85 172.2 164.1 L 171.2 165 169.15 166.3 M 169.25 163.9 Q 169.4 163.75 169.35 163.75 L 167.75 164.55 167.4 164.85 Q 167.35 165 167 165.15 L 166.5 165.4 165.95 165.8 165.95 165.85 166.3 166.1 Q 166.45 166.15 166.75 166.1 167.1 166.05 167.2 165.95 L 167.75 165.7 Q 168.25 165.35 168.25 165.15 L 169.25 163.9 M 167.65 162.95 L 167.65 162.9 168.25 162.2 167.85 162.35 166 163.45 Q 165.95 163.5 165.6 163.8 L 164.9 164.35 Q 164.35 164.55 164.35 164.85 164.8 165.1 164.8 165.05 L 165 165.15 Q 165.15 165.25 165.25 165.15 L 165.35 165.1 165.5 165.05 165.8 164.7 166.15 164.5 166.65 164.1 166.85 163.85 166.95 163.75 167.5 163.1 167.65 162.95 M 165 160.65 L 165.15 160.45 164.2 160.95 163.95 161 163.4 161.25 162.05 162.15 161.9 162.35 161.15 162.9 161.4 163.1 162.25 162.95 162.6 162.75 162.7 162.75 162.95 162.45 Q 163.55 162.2 164.45 161.25 L 165 160.65 M 173.45 155.3 L 173.75 155.15 174.4 154.5 172 155.75 171.8 155.8 Q 171.5 155.8 171.3 156.15 L 171.25 156.3 171.3 156.5 171.5 156.5 171.85 156.45 Q 172 156.45 172.25 156.3 172.85 156 173.2 155.6 L 173.45 155.3 M 175.2 155.6 L 175.05 155.75 174.65 155.95 174.4 156 173.85 156.25 173.8 156.25 172.7 156.55 172.55 156.75 172.25 156.9 172.1 157.35 172.1 157.55 172.25 157.7 172.55 157.75 173.05 157.6 173.15 157.6 173.55 157.2 173.75 157.1 175.4 155.55 175.2 155.6 M 176.95 156.15 Q 177.3 155.75 176.95 156 L 175.4 157.1 175 157.2 174.8 157.35 174.15 157.6 173.75 157.9 173.6 158.05 173.4 158.1 Q 173.15 158.4 173.15 158.5 L 173.2 158.8 Q 173.3 158.95 173.4 158.95 L 173.7 158.95 173.95 158.85 Q 174.15 158.85 174.15 158.8 L 174.85 158.4 175.15 158.15 175.25 158.1 175.65 157.75 Q 176.5 156.9 176.95 156.15 M 199.7 160.4 L 199.6 160.4 199.5 160.55 199.5 160.65 199.6 160.65 200.25 160.45 201.65 159.65 202.25 159.05 202.35 158.85 202.9 158.25 203.25 157.75 201.45 159.05 201.45 159.15 201.3 159.3 Q 200.9 159.55 200.8 159.55 L 200.75 159.65 199.95 160.25 199.8 160.3 199.7 160.4 M 194 153.65 L 193.15 153.65 Q 192.3 153.65 191.95 153.6 L 190.25 153.45 189.75 153.45 Q 189.75 153.6 189.6 153.45 L 189.25 153.55 189.15 153.65 Q 189.3 153.85 189.4 153.95 L 189.4 154.05 189.65 154.2 Q 189.9 154.2 189.9 154.45 L 190.25 154.55 190.6 154.6 190.85 154.6 191 154.7 191.35 154.8 192.9 154.8 194.45 154.5 195.4 154.05 195.45 154 195.6 153.95 Q 195.9 153.85 195.9 153.55 L 195.75 153.45 195.45 153.45 194 153.65 M 196.9 143.4 L 195.25 144.65 195.7 144.65 Q 196.05 144.65 196.9 144 197.2 143.8 197.2 143.65 L 197.3 143.4 Q 197.5 143 196.9 143.4 M 214.15 141.4 L 214.2 141.4 216.1 140.4 Q 216.15 140.4 216.1 140.3 L 215.85 140.4 Q 215.05 140.4 214.55 140.85 L 214.15 141.4 M 219.55 140.45 Q 219.55 140.4 219.15 140.55 L 218.75 140.6 218.5 140.6 218.4 140.8 218.2 141.05 218.2 141.1 219.05 140.85 219.3 140.75 219.55 140.45 Z"/>
</g>
<g id="l0">
<path fill="#FFFFFF" stroke="none" d="M 182.55 209.5 L 186.8 206.3 181.45 206.3 179.9 201.3 178.3 206.3 172.95 206.3 177.35 209.5 175.7 214.5 175.7 214.55 179.9 211.4 184.15 214.55 184.15 214.5 182.55 209.5 M 202.8 214.55 L 202.9 214.5 201.2 209.5 205.55 206.3 200.2 206.3 198.65 201.3 198.6 201.3 197.05 206.3 191.7 206.3 196.1 209.5 194.45 214.5 194.45 214.55 198.6 211.4 202.8 214.55 M 217.25 201.3 L 215.65 206.3 210.45 206.3 214.7 209.5 213.1 214.5 213.1 214.55 217.25 211.4 221.6 214.55 221.6 214.5 220 209.5 224.2 206.3 218.85 206.3 217.35 201.3 217.25 201.3 M 106.65 206.3 L 105.05 201.3 103.45 206.3 98.25 206.3 102.5 209.5 100.8 214.5 100.9 214.55 105.05 211.4 109.2 214.55 109.35 214.5 107.6 209.5 111.9 206.3 106.65 206.3 M 130.6 206.3 L 125.4 206.3 123.8 201.3 122.2 206.3 116.95 206.3 121.15 209.5 119.55 214.5 119.55 214.55 123.8 211.4 128.05 214.55 128.05 214.5 126.35 209.5 130.6 206.3 M 149.35 206.3 L 144.1 206.3 142.5 201.3 140.9 206.3 135.7 206.3 139.95 209.5 138.25 214.5 138.25 214.55 142.5 211.4 146.65 214.55 146.8 214.5 145.1 209.5 149.35 206.3 M 159.65 206.3 L 154.3 206.3 158.7 209.5 156.9 214.5 156.9 214.55 161.25 211.4 165.4 214.55 165.5 214.5 163.8 209.5 168.05 206.3 162.85 206.3 161.25 201.3 161.15 201.3 159.65 206.3 M 136.05 84.1 Q 133.75 85.9 133.75 88.8 133.75 93.35 139.45 95.6 145.1 97.8 145.1 99.2 145.1 101.15 141.9 101.15 138.45 101.15 134.25 98.4 L 134.25 103.1 Q 136.2 104.2 137.55 104.65 139.6 105.25 142.3 105.25 146.1 105.25 148.5 103.45 150.9 101.6 150.9 98.5 150.9 94.05 145.2 91.75 139.5 89.45 139.5 88.3 139.5 86.5 142.75 86.5 L 143.5 86.5 143.85 86.6 144.15 86.6 145.35 86.75 145.6 86.95 145.75 86.95 146.05 87 146.65 87.2 146.95 87.2 147.05 87.35 147.35 87.5 147.65 87.55 147.85 87.7 149.5 88.3 149.8 88.55 149.8 84.1 Q 145.9 82.4 142.3 82.4 138.4 82.4 136.05 84.1 M 107.6 82.6 L 107.6 95.3 Q 107.6 100.35 110.8 102.9 113.75 105.25 118.9 105.25 123.9 105.25 126.7 103.1 130 100.5 130 95.3 L 130 82.6 124.4 82.6 124.4 95.1 Q 124.4 97.9 122.75 99.35 121.25 100.65 118.8 100.65 116.35 100.65 114.85 99.3 113.25 97.8 113.25 95.55 L 113.25 82.6 107.6 82.6 M 171.6 105 L 177.6 105 167.65 82.6 161.25 82.6 152.2 105 158.1 105 159.75 100.6 169.85 100.6 171.6 105 M 164.55 87.95 L 168.2 96.6 161.3 96.6 164.55 87.95 M 185.95 82.6 L 180.35 82.6 180.35 105 185.95 105 185.95 82.6 M 201.65 82.6 L 191 82.6 191 105 200.35 105 Q 206.7 105 210.15 101.85 213.25 98.85 213.25 93.85 L 213.2 92.1 212.55 89.55 210.9 86.7 209.8 85.55 208.5 84.55 205.1 83.15 201.65 82.6 M 196.7 86.7 L 200.25 86.7 Q 204 86.7 205.9 88.85 207.5 90.65 207.5 93.85 207.5 96.75 205.95 98.55 204.1 100.95 200.25 100.95 L 196.7 100.95 196.7 86.7 Z"/>
</g>
</defs>
<g transform="matrix(1,0,0,1,0,0)">
<use xlink:href="#l5"/>
</g>
<g transform="matrix(1,0,0,1,0,0)">
<use xlink:href="#l4"/>
</g>
<g transform="matrix(1,0,0,1,0,0)">
<use xlink:href="#l3"/>
</g>
<g transform="matrix(1,0,0,1,0,0)">
<use xlink:href="#l2"/>
</g>
<g transform="matrix(1,0,0,1,0,0)">
<use xlink:href="#l1"/>
</g>
<g transform="matrix(1,0,0,1,0,0)">
<use xlink:href="#l0"/>
</g>
</svg>
