<svg xmlns="http://www.w3.org/2000/svg" xmlns:xlink="http://www.w3.org/1999/xlink" width="100%" height="100%" viewBox="0 0 1024 640">
<!-- Vectorization by Rodrigo Polo https://github.com/rodrigopolo/logotipos-politicos -->
<defs>
<g id="l1">
<path fill="#141414" stroke="none" d="M 144.95 284.8 Q 133.15 272.95 133.15 254.75 133.15 236.5 143.95 224.7 155.8 211.9 176 211.9 187.8 211.9 196.7 216.3 L 206.55 202.5 Q 190.75 195.15 176 195.15 150.35 195.15 132.65 212.35 114.9 230.1 114.9 254.75 114.9 279.85 132.65 297.1 150.35 313.85 176 313.85 192.75 313.85 206.55 306.45 L 196.7 291.7 Q 188.8 297.1 176 297.1 157.25 297.1 144.95 284.8 M 543.5 212.35 Q 525.75 230.1 525.75 254.75 525.75 279.85 543.5 297.1 561.2 313.85 586.85 313.85 612.45 313.85 630.2 297.1 648.4 279.85 648.4 254.75 648.4 230.1 630.2 212.35 611.95 195.15 586.85 195.15 561.2 195.15 543.5 212.35 M 629.2 254.75 Q 629.2 272.95 617.35 284.8 605.55 297.1 586.85 297.1 568.1 297.1 555.8 284.8 543.95 272.95 543.95 254.75 543.95 236.5 554.8 224.7 566.65 211.9 586.85 211.9 606.55 211.9 618.35 224.7 629.2 237 629.2 254.75 M 465.15 353.25 L 433.6 353.25 433.6 467.55 452.85 467.55 452.85 418.8 465.65 418.8 499.65 467.55 520.8 467.55 484.85 417.3 Q 497.15 416.3 504.55 407.45 512.45 398.6 512.45 385.75 512.45 367.05 496.7 358.2 487.8 353.25 465.15 353.25 M 460.25 369 Q 477.45 369 483.4 371 494.7 374.45 494.7 386.25 494.7 398.1 483.85 402.05 477.45 404 461.2 404 L 452.85 404 452.85 369 460.25 369 M 569.1 96.6 Q 576.5 87.75 576.5 74.95 576.5 55.75 561.2 47.85 551.85 42.4 529.2 42.4 L 498.15 42.4 498.15 156.7 517.35 156.7 517.35 107.95 529.2 107.95 564.15 156.7 585.35 156.7 548.4 106.45 Q 561.2 105.5 569.1 96.6 M 517.35 58.2 L 524.75 58.2 Q 540.5 58.2 546.95 60.15 558.25 63.6 558.25 75.45 558.25 87.25 547.4 91.2 541.5 93.15 525.75 93.15 L 517.35 93.15 517.35 58.2 M 761.2 42.4 L 730.2 42.4 730.2 156.7 761.2 156.7 Q 790.3 156.7 808 142.9 827.2 127.65 827.2 99.05 827.2 71 808 56.2 790.3 42.4 761.2 42.4 M 748.9 58.2 L 759.75 58.2 Q 808 58.2 808 99.05 808 140.45 759.75 140.45 L 748.9 140.45 748.9 58.2 M 980.9 211.9 Q 993.25 211.9 1002.1 216.3 L 1011.45 202.5 Q 997.65 195.15 980.9 195.15 955.8 195.15 938.05 212.35 919.85 230.1 919.85 254.75 919.85 279.35 938.05 297.1 955.8 313.85 980.9 313.85 998.65 313.85 1011.95 306.45 L 1002.1 291.7 Q 994.2 297.1 980.9 297.1 962.2 297.1 950.35 284.8 938.55 272.95 938.55 254.75 938.55 237 949.4 224.7 961.2 211.9 980.9 211.9 M 755.3 469.5 L 790.3 396.1 808 467.55 827.2 467.55 795.2 348.85 755.3 434.05 714.4 348.85 682.4 467.55 701.6 467.55 719.35 396.1 755.3 469.5 M 779.45 240.45 L 780.4 240.45 798.15 311.4 817.35 311.4 784.85 192.65 744.45 278.9 704.55 192.65 672.55 311.4 690.75 311.4 709 240.45 709.5 240.45 744.45 314.35 779.45 240.45 M 309 42.4 L 290.75 42.4 272.55 113.35 271.55 113.35 236.6 39.95 201.1 113.35 182.9 42.4 164.15 42.4 196.7 161.15 236.6 75.45 276.95 161.15 309 42.4 M 238.55 370 L 238.55 353.25 176.95 353.25 176.95 467.55 195.7 467.55 195.7 412.85 236.6 412.85 236.6 397.1 195.7 397.1 195.7 370 238.55 370 M 876.95 197.6 L 858.25 197.6 858.25 311.4 876.95 311.4 876.95 197.6 M 388.3 311.4 L 407.5 311.4 407.5 236.5 486.35 316.3 486.35 197.6 467.1 197.6 467.1 272 388.3 191.2 388.3 311.4 M 78.45 197.6 L 11.95 197.6 11.95 311.4 78.45 311.4 78.45 295.15 30.65 295.15 30.65 257.7 77.45 257.7 77.45 241.45 30.65 241.45 30.65 213.85 78.45 213.85 78.45 197.6 M 696.7 156.7 L 696.7 140.45 645.45 140.45 645.45 42.4 626.25 42.4 626.25 156.7 696.7 156.7 M 648.9 425.65 L 648.9 353.25 630.2 353.25 630.2 421.75 Q 630.2 452.75 604.55 452.75 578.45 452.75 578.45 421.75 L 578.45 353.25 559.75 353.25 559.75 425.65 Q 559.75 445.4 571.05 457.2 583.4 469.5 604.55 469.5 625.25 469.5 637.55 457.2 648.9 444.9 648.9 425.65 M 301.1 379.35 Q 298.15 367.55 297.65 361.65 285.35 369.5 278.45 382.3 271.05 395.15 271.05 409.9 271.05 435.05 288.8 452.25 306.55 469.5 332.15 469.5 337.55 469.5 340.05 469 L 330.2 452.75 Q 311.95 451.8 300.6 439.45 289.8 427.65 289.8 409.9 289.8 392.15 301.1 379.35 M 332.15 367.55 Q 351.85 367.55 363.65 380.35 374.5 392.15 374.5 409.9 374.5 425.2 366.15 436.5 357.75 447.85 343.5 451.3 L 352.85 466.55 Q 371.05 460.15 382.4 445.4 393.7 429.6 393.7 409.9 393.7 385.75 375.5 368.05 357.25 350.8 332.15 350.8 318.85 350.8 309 355.25 310 364.1 311.95 372 320.8 367.55 332.15 367.55 M 305.05 214.85 Q 308 204 310.45 199.05 299.65 195.15 288.3 195.15 262.7 195.15 244.95 212.35 226.75 229.6 226.75 254.25 226.75 279.35 244.95 296.6 262.7 313.85 288.3 313.85 L 292.25 313.85 291.25 304 292.25 297.1 288.3 297.1 Q 269.6 297.1 257.25 284.3 244.95 272 244.95 254.25 244.95 236.5 256.3 224.7 268.1 211.9 288.3 211.9 299.65 211.9 305.05 214.85 M 336.6 291.7 Q 349.9 275.45 349.9 254.25 349.9 223.2 321.8 204 L 315.4 220.75 Q 330.65 233.55 330.65 254.25 330.65 268.05 323.3 278.9 316.4 289.7 304.05 294.15 L 304.05 312.35 Q 324.25 306.95 336.6 291.7 M 439.05 55.75 L 424.75 65.6 Q 440.05 77.9 440.05 100.05 440.05 117.3 428.7 129.6 416.4 141.95 397.65 141.95 376 141.95 364.15 126.15 L 359.75 132.55 Q 354.8 138.5 353.35 141.45 372.05 158.7 397.65 158.7 423.3 158.7 441 141.95 458.75 124.7 458.75 100.05 458.75 72.95 439.05 55.75 M 413.45 59.15 Q 420.8 52.75 428.7 48.35 414.4 39.95 397.65 39.95 372.55 39.95 354.3 57.7 336.1 74.95 336.1 100.05 336.1 115.8 344.95 131.6 L 349.9 125.7 Q 352.35 120.75 357.25 114.85 354.8 105.95 354.8 100.05 354.8 81.85 366.15 69.5 377.95 56.7 397.65 56.7 406.05 56.7 413.45 59.15 Z"/>
</g>
<g id="l0">
<path fill="#004B86" stroke="none" d="M 815.4 542.4 L 812.95 538.95 Q 771.05 573.45 718.85 592.15 667.1 610.4 611.95 610.4 548.9 610.4 491.25 587.25 434.1 564.1 389.8 520.25 345.45 476.9 321.8 421.25 298.15 365.55 298.15 304 298.15 206.45 354.3 128.65 410 51.3 499.65 18.3 L 497.65 11.9 Q 405.55 46.85 349.9 124.7 291.25 206.95 291.25 304 291.25 366.55 315.4 423.2 340.05 480.35 385.35 524.7 L 403.1 540.45 395.2 549.8 Q 440.05 587.75 496.2 607.95 551.85 628.15 611.95 628.15 670.1 628.15 725.25 608.45 779.95 589.2 824.75 552.75 L 815.9 541.95 815.4 542.4 Z"/>
</g>
</defs>
<g transform="matrix(1,0,0,1,0,0)">
<use xlink:href="#l1"/>
</g>
<g transform="matrix(1,0,0,1,0,0)">
<use xlink:href="#l0"/>
</g>
</svg>
