<svg xmlns="http://www.w3.org/2000/svg" xmlns:xlink="http://www.w3.org/1999/xlink" width="100%" height="100%" viewBox="0 0 1024 405">
<!-- Vectorization by Rodrigo Polo https://github.com/rodrigopolo/logotipos-politicos -->
<defs>
<linearGradient id="g1" gradientUnits="userSpaceOnUse" x1="288.4" y1="202.6" x2="5.299999999999983" y2="202.6" spreadMethod="pad">
<stop offset="0%" stop-color="#FFDD00"/>
<stop offset="100%" stop-color="#EC1C24"/>
</linearGradient>
<g id="l1">
<path fill="url(#g1)" stroke="none" d="M 178.55 329.45 Q 173.45 334.2 170.9 341.75 168.35 349.3 169.9 355.2 171.4 361 175.9 361.8 180.55 362.6 185.55 357.9 190.6 353.25 193.15 345.7 195.7 337.95 194.1 332.15 192.8 326.35 188.1 325.55 183.65 324.75 178.55 329.45 M 158.2 351.5 Q 154.55 348.85 149.25 351.95 144.05 354.85 140.3 362.05 136.6 369.1 136.7 375.95 136.85 382.8 140.65 385.45 144.5 388.15 149.8 385 155.15 381.95 158.65 374.9 162.45 367.6 162.2 360.9 162.1 354.15 158.2 351.5 M 110.1 371.3 Q 105.65 377.35 104.3 384.85 103.1 392.5 105.9 396.7 108.55 401.2 113.65 400.05 118.65 398.8 123.2 392.75 127.6 386.85 128.95 379.1 130.25 371.8 127.55 367.35 124.8 362.95 119.8 364 114.6 365.2 110.1 371.3 M 74.5 381.6 Q 72.05 389.25 73.65 394.95 75.15 400.85 79.6 401.65 84.2 402.4 89.3 397.6 94.3 392.85 96.75 385.35 99.5 377.95 98 372 96.65 366.2 91.9 365.4 87.35 364.6 82.25 369.35 77.25 374.3 74.5 381.6 M 71.95 365.15 Q 71.95 358.25 68.1 355.45 64.3 352.75 59.05 355.8 53.65 359.05 50.15 366 46.45 373.15 46.45 380.1 46.65 386.95 50.4 389.6 54.2 392.2 59.55 389.25 64.85 386.15 68.45 379.05 72.15 372.25 71.95 365.15 M 31 299.35 Q 26.25 298.55 21.3 303.25 16.4 308.15 13.9 315.45 11.35 322.9 12.7 328.9 14 334.8 18.75 335.6 23.35 336.4 28.45 331.7 33.45 327.05 36 319.3 38.55 312 36.95 305.95 35.65 300.15 31 299.35 M 49.55 335.05 Q 46.7 330.5 41.6 331.8 36.5 332.95 31.95 339 27.45 345.35 26.15 352.8 25 360.4 27.75 364.7 30.45 369.25 35.65 368.05 40.65 366.9 45.15 360.65 49.7 354.65 50.85 347.1 52.15 339.7 49.55 335.05 M 20.25 293.55 Q 25.45 290.85 29.2 283.45 32.9 276.5 32.75 269.55 32.65 262.6 28.85 260.05 25.1 257.35 19.9 260.5 14.45 263.5 10.75 270.6 7.35 277.55 7.4 284.6 7.6 291.35 11.35 294 15.25 296.65 20.25 293.55 M 11 234.45 Q 9.7 241.75 12.5 246.35 15.25 250.75 20.25 249.6 25.2 248.55 29.95 242.4 34.3 236.15 35.65 228.65 36.85 221.25 34.15 216.9 31.35 212.5 26.3 213.55 21.5 214.85 16.85 220.9 12.35 227.25 11 234.45 M 24.2 182.4 Q 21.65 189.95 23.25 195.85 24.75 201.65 29.3 202.45 33.9 203.15 38.9 198.4 43.8 193.75 46.35 186.3 48.85 178.8 47.35 172.8 45.85 166.95 41.35 166.25 36.85 165.35 31.95 170.1 26.85 174.85 24.2 182.4 M 45.85 131.6 Q 42.25 138.25 42.25 145.5 42.4 152.35 46.1 155.15 49.9 157.85 55.25 154.7 60.6 151.65 64.05 144.5 67.75 137.75 67.75 130.6 67.65 123.65 63.85 120.85 59.9 118.2 54.65 121.3 49.35 124.55 45.85 131.6 M 91.65 81.55 Q 88.85 77.15 83.65 78.4 78.45 79.45 74 85.5 69.6 91.85 68.25 99.15 67.05 106.7 69.75 111.1 72.4 115.75 77.6 114.5 82.7 113.2 87.25 107.15 91.85 101 93 93.5 94.3 86.3 91.65 81.55 M 116.9 43.75 Q 112.4 42.95 107.3 47.6 102.2 52.55 99.75 60 97.2 67.3 98.7 73.45 100.2 79.25 104.65 80.05 109.4 80.85 114.35 76.2 119.45 71.35 121.9 63.85 124.45 56.5 122.95 50.4 121.4 44.55 116.9 43.75 M 156 29.25 Q 156 22.45 152.25 19.8 148.35 17.2 143.1 20.15 137.75 23.25 134.15 30.35 130.6 37.3 130.6 44.25 130.8 51.1 134.55 53.75 138.6 56.4 143.65 53.3 149 50.25 152.5 43.2 156.3 35.9 156 29.25 M 272.9 111.8 Q 267.5 114.95 263.85 122.1 260.4 129.1 260.4 135.9 260.6 142.65 264.35 145.4 268.25 148.1 273.4 144.95 278.8 141.85 282.3 134.85 286.1 127.55 285.8 120.85 285.8 114.15 281.85 111.35 278 108.7 272.9 111.8 M 188.75 20.5 Q 190.05 12.95 187.35 8.55 184.6 4.1 179.6 5.3 174.3 6.55 169.9 12.7 165.45 18.75 164.1 26.25 162.95 33.6 165.7 38.1 168.35 42.5 173.45 41.35 178.35 40.3 183 34.15 187.4 28.15 188.75 20.5 M 211 36 Q 216.1 31.25 218.45 23.8 220.9 16.3 219.5 10.5 217.95 4.7 213.45 3.75 208.7 2.95 203.7 7.7 198.65 12.15 196.05 19.9 193.5 27.45 195 33.25 196.4 39.15 201.15 39.95 205.9 40.55 211 36 M 280.25 76.6 Q 278.85 70.8 274.2 70.05 269.7 69.05 264.6 73.9 259.45 78.65 256.95 86.2 254.4 93.6 256 99.65 257.5 105.45 262 106.25 266.55 107.05 271.75 102.4 276.75 97.75 279.3 90.15 281.85 82.45 280.25 76.6 M 257.85 37.3 Q 252.95 38.45 248.25 44.6 243.7 50.7 242.35 58.4 241.05 66 243.85 70.2 246.7 74.8 251.8 73.45 256.7 72.3 261.35 66.15 265.85 60.1 267.15 52.6 268.4 44.95 265.75 40.65 262.95 36.15 257.85 37.3 M 243.25 39.35 Q 246.85 32.2 246.75 25.45 246.7 18.5 242.9 15.75 239.05 13.15 233.85 16.2 228.4 19.3 224.9 26.4 221.2 33.7 221.25 40.5 221.25 47.35 225.25 50 229.1 52.6 234.2 49.65 239.55 46.45 243.25 39.35 Z"/>
</g>
<g id="l2">
<path fill="#202020" stroke="none" d="M 201.65 256.1 L 201.65 281.35 Q 201.65 291.35 207.4 296.45 212.5 301.05 221.9 301.05 231.05 301.05 236.15 296.7 242 291.7 242 281.35 L 242 256.1 231.9 256.1 231.9 281 Q 231.9 286.8 228.9 289.6 226.3 292.15 221.9 292.15 217.3 292.15 214.5 289.35 211.75 286.5 211.75 281.7 L 211.75 256.1 201.65 256.1 M 266.2 256.1 L 257.15 256.1 257.15 300.7 267.25 300.7 267.25 272.1 289.6 300.7 297.95 300.7 297.95 256.1 287.85 256.1 287.85 283.2 266.2 256.1 M 141.8 277.9 Q 141.8 287.2 147.85 293.8 154.35 300.95 165 300.95 175.55 300.95 181.95 293.9 188.1 287.4 188.2 277.9 188.2 269 182.3 262.35 175.7 254.8 165 254.8 154.25 254.8 147.75 262.35 141.8 268.95 141.8 277.9 M 152.25 278.35 Q 152.25 272 155.75 268.3 159.2 264.55 165 264.55 170.7 264.55 174.05 268.4 177.55 272 177.85 278.35 177.85 284.4 174.3 288.35 170.7 292.15 165 292.15 159.3 292.15 155.75 288.35 152.25 284.6 152.25 278.35 M 97.65 256 L 113.55 279.75 113.45 300.7 123.6 300.7 123.6 279.75 139.4 256 127.25 256 118.5 270.15 109.75 256 97.65 256 M 97 181.2 L 110.85 181.2 110.85 219.1 113.9 219.1 113.9 181.2 127.7 181.2 127.7 178.7 97 178.7 97 181.2 M 297.75 184.15 Q 292.15 178.1 283.8 178.1 275.45 178.1 269.9 184.25 264.2 190.4 264.2 198.95 264.2 207.55 269.9 213.8 275.7 219.85 283.8 219.85 291.95 219.85 297.6 213.8 303.3 207.65 303.3 198.95 303.3 190.25 297.75 184.15 M 283.8 181.2 Q 290.9 181.2 295.65 186.35 300.4 191.65 300.25 199.05 300.25 206.7 295.5 211.8 290.65 216.9 283.8 216.9 276.95 216.9 272.1 211.8 267.25 206.6 267.25 199.05 267.25 191.45 272.1 186.35 277 181.2 283.8 181.2 M 239.05 196.85 L 239.05 181.2 255.2 181.2 254.75 178.8 235.85 178.8 235.85 219.45 239.05 219.45 239.05 199.4 253.55 199.4 253.55 196.85 239.05 196.85 M 185.85 197.55 L 185.85 181.2 203 181.2 203.35 178.45 183.1 178.45 183.1 219 203.7 219 203.7 216.55 185.85 216.55 185.85 200.1 202.65 200.1 202.65 197.55 185.85 197.55 M 165.35 178.8 L 165.35 197.9 140.7 197.9 140.7 178.8 137.75 178.8 137.75 219.45 140.7 219.45 140.7 200.1 165.35 200.1 165.35 219.45 168.35 219.45 168.35 178.8 165.35 178.8 M 643.9 343.05 Q 643.9 339.2 641.7 336.75 639.4 334.25 635.5 334.25 L 629.55 334 625.05 367.15 627.1 367.15 629.1 352.4 633.75 352.4 Q 639.3 352.4 641.75 349.5 643.9 347.1 643.9 343.05 M 635.6 336.4 Q 638.6 336.4 640.25 338.25 641.95 340 641.95 343.05 641.95 350.25 634.2 350.25 L 629.8 350.25 631.55 336.4 635.6 336.4 M 609.85 333.75 L 608.2 333.75 594.1 367.25 596.15 367.25 601.25 355.3 612.3 355.3 614.7 367.25 616.95 367.25 609.85 333.75 M 608.6 337.7 L 611.95 353 602.2 353 608.6 337.7 M 563.75 367.25 L 565.8 351.6 585.4 351.6 583.4 367.25 585.4 367.25 589.7 334 587.7 334 585.75 349.4 565.8 349.4 567.75 334 565.8 334 561.75 367.25 563.75 367.25 M 548.3 335.5 Q 550.4 335.5 553.4 337.35 L 554 335.15 Q 552.45 333.3 548.65 333.3 545.4 333.3 543.1 335.95 540.8 338.65 540.8 342.25 540.8 346.4 545.75 350.6 550.65 354.95 550.65 358.65 550.65 361.9 548.9 363.65 547.25 365.3 544.5 365.3 542.75 365.3 541.8 364.85 540.55 364.5 538.9 363.1 L 538.2 365.3 Q 539.25 366.1 541.15 366.8 543.3 367.5 544.6 367.5 548.1 367.5 550.4 364.95 552.7 362.5 552.7 358.65 552.7 353.45 547.75 349.4 542.95 345.35 542.95 341.9 542.95 339.45 544.5 337.45 546.1 335.5 548.3 335.5 M 596.85 291.8 L 615.05 291.8 618.4 300.7 629.2 300.7 611 256.1 599.2 256.1 583.05 300.7 593.75 300.7 596.85 291.8 M 599.55 284.3 L 605.65 266.8 611.85 284.3 599.55 284.3 M 570.9 267.2 Q 570.9 263.05 567.75 259.9 563.95 256.1 557.45 256.1 L 557.45 255.9 540.2 255.9 540.2 300.6 559.75 300.6 Q 567.65 300.6 571.35 295.95 573.9 292.6 573.9 287.5 573.9 283.55 571.75 280.45 569.5 277 565.55 276.15 568 274.9 569.5 272.35 570.9 269.8 570.9 267.2 M 555.4 264.1 Q 557.95 264.1 559.35 265.75 560.45 267.1 560.45 268.95 560.45 270.95 559.35 272.35 557.9 273.85 555.4 273.85 L 549.95 273.85 549.95 264.1 555.4 264.1 M 557 281.6 Q 559.65 281.6 561.3 282.9 563.05 284.4 563.05 286.8 563.05 289.85 561.55 291.1 559.9 292.4 555.75 292.4 L 549.95 292.4 549.9 281.6 557 281.6 M 352.1 268.65 L 351.85 258.65 Q 344.9 254.95 335.95 254.95 325.4 254.95 318.5 261.35 311.75 267.8 311.75 278.1 311.75 288.3 318.5 294.5 325.45 300.75 335.95 300.75 340.95 300.75 345.7 299.1 350.7 297.35 352.8 294.85 L 352.8 276.65 337 276.65 337 285.05 342.7 285.05 342.7 290.3 Q 338.75 291.8 335.95 291.8 329.85 291.8 326 288.3 322.15 284.6 322.15 278.8 322.15 273.05 325.45 269.2 329.35 264.65 337 264.65 343.85 264.65 352.1 268.65 M 479.9 277.9 Q 479.9 287.2 485.95 293.8 492.55 300.95 503.2 300.95 513.55 300.95 520 293.9 526.15 287.3 526.4 277.9 526.4 269 520.5 262.35 513.9 254.8 503.2 254.8 492.45 254.8 485.85 262.35 479.9 269.1 479.9 277.9 M 493.8 268.3 Q 497.3 264.55 503.2 264.55 508.65 264.55 512.15 268.4 515.65 272.2 515.95 278.35 515.95 284.6 512.5 288.35 508.9 292.15 503.2 292.15 497.4 292.15 493.8 288.35 490.25 284.4 490.25 278.35 490.25 272.1 493.8 268.3 M 455.95 256.1 L 445.85 256.1 445.85 300.7 476.55 300.7 476.8 292.7 455.95 292.7 455.95 256.1 M 429.65 268.65 L 429.65 258.65 Q 422.8 254.95 413.75 254.95 403.2 254.95 396.35 261.35 389.55 267.8 389.55 278.1 389.55 288.3 396.35 294.5 403.3 300.75 413.75 300.75 418.75 300.75 423.5 299.1 428.55 297.35 430.65 294.85 L 430.65 276.65 414.8 276.65 414.8 285.05 420.55 285.05 420.55 290.3 Q 416.55 291.8 413.75 291.8 407.45 291.8 403.65 288.3 399.7 284.6 399.7 278.8 399.7 273 402.95 269.2 406.8 264.65 414.45 264.65 421.3 264.65 429.65 268.65 M 483.6 178.1 Q 475.2 178.1 469.7 184.25 463.95 190.4 463.95 198.95 463.95 207.65 469.75 213.8 475.5 219.85 483.6 219.85 491.95 219.85 497.55 213.8 503.2 207.65 503.2 198.95 503.2 190.3 497.55 184.15 491.95 178.1 483.6 178.1 M 472.25 186.35 Q 477.15 181.2 483.85 181.2 490.8 181.2 495.55 186.35 500.3 191.65 500.35 199.05 500.35 206.5 495.6 211.8 490.8 216.9 483.85 216.9 477.05 216.9 472.25 211.8 467.4 206.6 467.4 199.05 467.4 191.45 472.25 186.35 M 400.05 178.65 L 397.05 178.65 397.05 219.15 400.05 219.15 400.05 183.1 413.85 202.2 427.75 183.1 427.75 219.15 430.3 219.15 430.3 178.65 427.75 178.65 414.2 197.55 400.05 178.65 M 335.05 181.9 Q 332 178.65 325.65 178.65 L 316.05 178.8 316.05 219.45 319.15 219.45 319.15 200.35 324.15 200.35 Q 327.75 200.35 329.25 201.5 331.45 203.15 334.25 208.5 L 340.7 219.7 344.05 219.7 335.65 205.55 Q 332.15 200.15 330.55 199.1 337.7 196.4 337.7 189 337.7 184.5 335.05 181.9 M 332.5 195 Q 330.05 197.2 325.2 197.2 L 319.15 197.2 319.25 181.2 325.3 181.2 Q 330.15 181.2 332.7 183.45 335.05 185.5 335.05 188.9 335.05 192.85 332.5 195 M 354.95 178.7 L 352.2 178.7 352.2 201.75 Q 352.2 210.55 356.85 215.45 361 219.95 367.75 219.95 374.1 219.95 378.15 215.75 383.15 210.7 383.15 200.85 L 383.15 178.7 379.8 178.7 379.8 201.05 Q 379.8 209.25 376.05 213.35 372.8 217.05 367.4 217.05 362.25 217.05 358.8 213.25 354.95 208.95 354.95 201.4 L 354.95 178.7 M 518.9 196.85 L 518.9 181.2 535.1 181.2 535.1 178.8 516.2 178.8 516.2 219.45 518.9 219.45 518.9 199.4 533.5 199.4 533.5 196.85 518.9 196.85 M 922.1 336.4 L 930.9 336.4 931.5 334.25 911.55 334.25 911.3 336.4 920 336.4 915.95 367.15 918.05 367.15 922.1 336.4 M 941 334.55 L 939 334.55 936.15 355.7 Q 935.4 361.2 938.55 364.6 941.45 368.05 945.95 368.05 950.25 368.05 953.6 365.2 957.45 361.95 958.05 355.7 L 960.55 334.55 958.5 334.55 955.8 355.7 Q 955.25 359.95 953.15 362.6 950.4 365.85 946 365.85 942.3 365.85 940.15 363.35 937.65 360.45 938.3 355.35 L 941 334.55 M 815.35 336.4 L 828.35 336.4 828.8 334 813.6 334 809.3 367.15 829.05 367.15 829.5 364.95 811.55 364.95 813.25 351.15 825.65 351.15 826.1 348.95 813.6 348.95 815.35 336.4 M 860.35 336.4 L 872.15 336.4 872.5 334 858.7 334 854.3 367.15 856.3 367.15 858.35 351.5 869.15 351.5 869.5 349.4 858.7 349.4 860.35 336.4 M 883.4 334.55 L 881.4 334.55 878.65 355.7 Q 877.85 361.2 881.05 364.6 883.95 368.05 888.4 368.05 892.65 368.05 896 365.2 899.85 361.95 900.55 355.7 L 903.3 334.55 901.25 334.55 898.55 355.7 Q 898 359.85 895.8 362.6 893.15 365.85 888.75 365.85 884.8 365.85 882.6 363.35 880.05 360.65 880.7 355.35 L 883.4 334.55 M 862.5 256.1 L 862.5 256.2 844.3 256.2 844.3 300.75 861.15 300.75 Q 872.85 300.75 879 294.35 884.75 288.35 884.75 278.45 884.75 268.75 879.2 262.7 873.1 256.1 862.5 256.1 M 855.1 264.1 L 861.5 264.1 Q 868.1 264.1 871.55 268.3 874.55 271.9 874.55 278.25 874.55 284.25 871.8 287.85 868.3 292.4 861.5 292.4 L 854.75 292.4 855.1 264.1 M 958.5 256.1 L 958.5 255.65 939.95 255.65 939.95 300.35 950.05 300.35 950.05 282.2 953.05 282.2 Q 956.5 282.2 959.2 287.65 960.8 291 964.5 300.35 L 975.55 300.35 969.5 285.8 Q 967.1 280.8 964.5 279.5 971.5 276.3 971.5 268.65 971.5 263.5 968.2 260.05 964.5 256.1 958.5 256.1 M 955.8 263.75 Q 961.6 263.75 961.6 268.95 961.6 271.5 959.8 273 958.4 274.2 956.15 274.2 L 950.75 274.2 950.75 263.75 955.8 263.75 M 926.05 264.35 L 926.05 256.1 896.85 256.1 896.85 300.7 926.5 300.7 926.5 300.75 926.75 300.75 926.75 292.6 906.95 292.6 906.95 281.75 925.55 281.75 925.55 273.6 906.95 273.6 906.95 264.35 926.05 264.35 M 749.55 336.4 L 758.65 336.4 754.6 367.15 756.6 367.15 760.65 336.4 769.45 336.4 769.7 334.25 749.85 334.25 749.55 336.4 M 787.4 300.7 L 798.1 300.7 801.2 291.8 819.4 291.8 822.75 300.7 833.45 300.7 815.35 256.1 803.55 256.1 787.4 300.7 M 803.75 284.3 L 809.8 266.8 816.25 284.3 803.75 284.3 M 779.9 334 L 777.8 334 773.85 367.25 775.8 367.25 777.8 351.6 797.5 351.6 795.4 367.25 797.5 367.25 801.8 334 799.7 334 797.65 349.4 777.8 349.4 779.9 334 M 657.5 334 L 655.5 334 651.1 367.25 653.1 367.25 657.5 334 M 706.85 341.4 Q 712.05 336.1 720.2 336.1 722.25 336.1 725.65 336.75 L 726.7 334.45 Q 722.5 333.75 721 333.75 711.5 333.75 705.5 340 700.05 345.7 700.05 353.45 700.05 360.3 704 364.35 707.65 367.95 712.55 367.95 717.85 367.95 721.95 364.6 L 723.35 353.8 714.6 353.8 714.2 356 721 356 719.95 363.35 Q 715.65 365.55 712.55 365.55 708 365.55 705.1 362.3 702 358.8 702 353.6 702 346.5 706.85 341.4 M 692.35 334 L 690.2 334 686.55 362.3 670.35 334 669.05 334 664.65 367.15 666.65 367.15 670.45 338.85 686.9 367.5 687.95 367.5 692.35 334 M 715.2 256.1 L 705.1 256.1 705.1 300.7 735.7 300.7 735.7 300.85 736.05 300.85 736.05 292.7 715.2 292.7 715.2 256.1 M 650.9 292.7 L 650.9 256.1 640.8 256.1 640.8 300.7 671.5 300.7 671.5 300.85 671.75 300.85 671.75 292.7 650.9 292.7 M 758 292.6 L 758 281.75 776.55 281.75 776.55 273.6 758 273.6 758 264.35 777.25 264.35 777.25 256.1 747.9 256.1 747.9 300.7 777.6 300.7 777.6 300.75 777.8 300.75 777.8 292.6 758 292.6 M 986.75 342.8 Q 986.75 338.95 984.8 336.65 982.6 334.25 978.75 334.25 L 978.75 334.2 971.85 334.2 967.8 367.35 969.85 367.35 971.85 351.7 975.55 351.7 Q 977.6 351.7 978.3 352.65 L 985.65 367.35 988.05 367.35 982.7 356.6 Q 980.55 352.2 979.6 351.7 982.95 351.25 984.9 348.7 986.75 346.3 986.75 342.8 M 983.2 338.75 Q 984.45 340.7 984.45 342.9 984.45 346.05 982.6 347.9 980.55 349.65 977.4 349.65 L 971.95 349.65 973.65 336.55 978.4 336.55 Q 981.65 336.55 983.2 338.75 M 1015.15 336.4 L 1015.5 334 1000.25 334 995.9 367.15 1015.75 367.15 1016.1 364.95 998.25 364.95 999.9 351.15 1012.4 351.15 1012.75 348.95 1000.25 348.95 1001.95 336.4 1015.15 336.4 M 997.2 264.55 Q 998.8 263.5 1001.6 263.5 1006.7 263.5 1014.35 267.45 L 1014.8 258.2 Q 1006 254.8 1000.9 254.8 993.85 254.8 989.55 258.3 985.4 261.65 985.4 267.45 985.4 276.75 995.6 281.25 L 1002.75 284.25 Q 1005.9 286 1005.9 288.35 1005.9 290.2 1004.3 291.25 1002.45 292.4 999.85 292.4 996.6 292.4 993.5 291.1 990.7 290.05 986.05 286.8 L 986.05 296.65 Q 989.8 299.1 992.2 299.95 995.7 301.2 1000.55 301.2 1007.55 301.2 1011.7 297.7 1016 294.15 1016 287.75 1016 278.85 1005.7 274.1 1000.25 271.85 998.7 271.05 995.5 269.45 995.5 267.2 995.5 265.4 997.2 264.55 Z"/>
</g>
</defs>
<g transform="matrix(1,0,0,1,0,0)">
<use xlink:href="#l1"/>
</g>
<g transform="matrix(1,0,0,1,0,0)">
<use xlink:href="#l2"/>
</g>
</svg>
