<svg xmlns="http://www.w3.org/2000/svg" version="1.1" xmlns:xlink="http://www.w3.org/1999/xlink" preserveAspectRatio="none" x="0px" y="0px" width="512px" height="512px" viewBox="0 0 512 512">
<defs>
<g id="l0">
<path fill="#1B305B" stroke="none" d="M 415.5 437 Q 415.5 418.95 405.45 409.9 397.8 402.15 383.5 402.15 369.2 402.15 361.6 409.9 351.5 418.95 351.5 437 351.5 454.7 361.6 464.05 369.15 471.75 383.5 471.75 397.8 471.75 405.45 464.05 415.5 454.7 415.5 437 M 370.35 419.9 Q 375.25 413.8 383.5 413.8 391.75 413.8 396.7 419.9 401.5 425.9 401.5 437 401.5 448.15 396.7 454.05 391.8 460.15 383.5 460.15 375.2 460.15 370.35 454.05 365.35 448.05 365.35 437 365.35 425.9 370.35 419.9 M 470 423.75 Q 469.65 413.3 462.1 407.8 454.4 402.25 443.85 402.25 431.1 402.25 424.5 408.15 417.85 414.05 417.85 422.8 417.85 432.5 424.6 437 428.4 439.7 439.2 442.05 L 446.5 443.65 Q 452.8 444.9 455.75 446.75 458.7 448.5 458.7 451.75 458.7 457.3 452.75 459.4 449.7 460.4 444.6 460.4 436.05 460.4 432.6 456.3 430.7 454.2 430.1 449.65 L 416.75 449.65 Q 416.75 460 424.25 465.75 431.85 471.55 445.1 471.55 458.1 471.55 465 465.75 472.1 459.75 472.1 450.75 472.1 442 466.1 437.25 462.25 434.3 454.5 432.5 L 442.95 429.8 Q 435.95 428.3 434 427.05 430.75 425.3 430.75 421.9 430.75 417.9 434.1 415.9 437.35 413.75 442.95 413.75 448.05 413.75 451.2 415.4 456.2 417.9 456.5 423.75 L 470 423.75 M 90.3 425.05 Q 90.3 414.4 84.5 409.25 78.5 404.15 68.65 404.15 L 40 404.15 40 470 53.9 470 53.9 446.25 67.75 446.25 Q 78.7 446.25 84.55 441.5 90.3 436.7 90.3 425.05 M 66.4 434.9 L 53.9 434.9 53.9 415.65 66.4 415.65 Q 71.2 415.65 73.8 417.75 76.5 420.05 76.5 425.15 76.5 430.2 73.8 432.65 71.2 434.9 66.4 434.9 M 158.05 437 Q 158.05 418.9 147.85 409.9 140.35 402.15 126.05 402.15 111.8 402.15 104.25 409.9 94 418.9 94 437 94 454.75 104.25 464.05 111.75 471.75 126.05 471.75 140.35 471.75 147.85 464.05 158.05 454.75 158.05 437 M 126.05 413.8 Q 134.35 413.8 139.25 419.9 144.1 425.95 144.1 437 144.1 448.05 139.25 454.05 134.4 460.15 126.05 460.15 117.65 460.15 112.8 454.05 107.8 448.05 107.8 437 107.8 425.9 112.8 419.9 117.7 413.8 126.05 413.8 M 213.9 414 Q 209.45 407.9 202.5 405.65 198.4 404.3 192.15 404.15 L 163.35 404.15 163.35 470 192.15 470 Q 207.3 470 214.55 457.65 219.85 448.6 219.85 435.5 219.85 430.15 218.6 424.5 217.35 418.8 213.9 414 M 202.5 421 Q 205.65 426.4 205.65 436.4 205.65 443.8 203.6 448.9 199.7 458.5 189.75 458.5 L 176.9 458.5 176.9 415.65 189.75 415.65 Q 199.4 415.65 202.5 421 M 306.85 470 L 320.5 470 333.1 414.75 333 470 346 470 346 404.15 325.95 404.15 313.95 455.9 301.7 404.15 281.45 404.15 281.45 470 294.45 470 294.35 414.75 306.85 470 M 274.25 415.9 L 274.25 404.15 225.3 404.15 225.3 470 275.85 470 275.85 458.05 238.85 458.05 238.85 441.15 271.25 441.15 271.25 429.8 238.85 429.8 238.85 415.9 274.25 415.9 M 220.8 393 Q 229.65 393 235.75 386.75 L 246.25 376.4 Q 252.25 370.2 252.25 361.55 252.25 352.85 246.1 346.55 240 340.5 231.15 340.5 222.45 340.5 216.4 346.55 L 206.05 357 Q 199.8 363.2 199.65 372 199.8 380.8 205.9 386.75 212.1 393 220.8 393 M 161.85 330.75 Q 155.55 336.9 155.55 345.65 155.55 354.3 161.75 360.5 167.75 366.65 176.6 366.65 185.4 366.6 191.5 360.3 L 210.85 341 Q 216.9 334.9 216.9 326.25 217.05 317.55 210.85 311.25 204.65 305.1 195.85 305.25 187.4 305.25 181.15 311.25 L 161.85 330.75 M 160.55 269 Q 152 269 145.85 275.15 L 122.05 298.9 Q 115.85 305.15 115.75 313.9 115.85 322.6 122.05 328.8 128.15 334.9 136.8 334.9 145.6 334.9 151.8 328.75 L 175.6 304.9 Q 181.7 298.85 181.6 290.05 181.7 281.35 175.6 275.25 169.35 269 160.55 269 M 140.6 239.15 Q 134.4 232.95 125.55 232.95 117.35 232.95 111.15 238.75 L 100.05 249.75 Q 94.25 256.1 94.15 264.3 94.25 273 100.5 279.25 106.5 285.4 115.25 285.4 123.7 285.5 129.85 279.55 L 140.85 268.5 Q 146.75 262.45 146.6 254 146.7 245.25 140.6 239.15 M 435.35 77.1 Q 401.65 43.5 353.95 43.5 308.85 43.5 276.35 73.45 L 206.15 143.65 Q 201.85 148.2 201.85 154.45 201.85 160.95 206.55 165.65 L 214 173.1 Q 218.65 177.65 225.15 177.65 231.5 177.65 236.05 173.4 L 282.25 127.1 Q 286.6 123.6 290.2 127.2 L 403.75 240.75 Q 417.65 253.8 435 240.4 L 437 238.35 Q 469.1 205.05 469.1 158.5 469.1 110.8 435.35 77.1 Z"/>
</g>
<g id="l2">
<path fill="#D5343A" stroke="none" d="M 409.35 277.55 Q 414.1 272.9 414.1 266.4 414.1 259.95 409.35 255.2 L 399.45 245.25 Q 399.25 245.25 399.35 245.15 L 286.25 132.15 240.4 178 Q 234.15 184.05 225.1 184.1 216 184.1 209.5 177.6 L 202.05 170.15 Q 195.6 163.7 195.5 154.5 195.75 145.55 201.65 139.25 L 251.4 89.6 Q 246.15 82.35 239.3 75.45 L 236.65 72.95 Q 203.25 41.35 157 41.35 110.4 41.35 76.8 73.35 L 72.55 77.5 Q 40.65 110.9 40.65 157.75 40.65 205.9 74.65 239.95 82.05 247.45 90.3 253.2 92.1 249.15 95.55 245.4 L 95.65 245.4 106.75 234.4 Q 106.75 234.1 106.9 234.1 114.65 226.6 125.65 226.6 137.05 226.6 145.1 234.65 153.1 242.75 153.1 254 153.1 259.5 151.15 264.3 155.6 262.65 160.6 262.65 172.1 262.65 180.1 270.75 188.1 278.75 188.1 290.05 188.1 295.65 186.1 300.5 190.55 298.75 195.85 298.75 207.45 298.85 215.35 306.75 223.35 314.85 223.35 326.25 223.35 331.3 221.8 335.75 226.15 334 231.15 334 242.55 334.1 250.6 342.05 258.75 350.2 258.6 361.4 258.75 368.1 255.85 373.9 L 263.5 381.4 Q 268.1 386.05 274.6 386.05 281.1 386.05 285.75 381.4 L 293.6 373.5 Q 298.35 368.9 298.35 362.3 298.35 355.85 293.6 351.25 L 208.35 265.9 Q 207.45 264.95 207.6 263.65 207.45 262.35 208.4 261.4 209.45 260.45 210.75 260.5 212.05 260.5 212.85 261.4 L 303.6 352 Q 308.2 356.75 314.75 356.65 321.35 356.65 325.95 351.9 L 333.85 344.05 Q 338.5 339.5 338.5 332.9 338.5 326.4 333.85 321.75 L 242.8 230.65 Q 241.85 229.7 241.85 228.2 241.85 226.9 242.9 225.75 244.1 224.7 245.35 224.65 246.85 224.65 247.8 225.65 L 341.6 319.4 Q 346.3 324 352.85 324 359.35 324 364 319.4 L 371.85 311.55 Q 376.5 306.9 376.5 300.4 376.5 293.9 371.85 289.25 L 278.85 196.35 Q 277.9 195.25 277.75 193.7 277.9 192.15 279.1 190.9 L 279.2 190.9 Q 280.2 189.85 281.7 189.85 283.35 189.85 284.45 190.9 L 379.1 285.55 Q 383.65 290.15 390.25 290.15 396.8 290.15 401.45 285.55 L 409.35 277.55 Z"/>
</g>
<g id="l3">
<path fill="#FF0100" stroke="none" d="M 820.3 836.6 Q 820.75 831.35 816.4 830.95 812.85 828.8 807.95 833.3 L 807.75 833.5 Q 804.6 836.4 805.8 840.6 807.6 843.2 811.25 845.25 817.85 846.85 820.3 843.45 820.85 840 820.3 836.6 M 260.25 832.5 Q 259.1 833.85 259.1 835.05 258 843.95 255.65 860.55 250.9 893.95 244.5 928.8 243.2 936.5 249.5 939.7 L 256.45 941.55 Q 260.85 943 261.6 936.5 L 274.85 853.75 Q 277.2 839.35 274.85 831.7 269.25 823.75 263.7 828.25 L 260.25 832.5 M 276.25 810.25 Q 271.15 805.45 267.25 808.35 262.4 812.6 263.35 814.75 L 266.75 819.45 Q 269.85 823.85 274.25 822.25 277.85 820.2 279.85 816.75 281.05 813.7 276.25 810.25 M 339.35 784.55 Q 335.65 784.4 332.25 787.05 322.85 795.15 318.45 797.8 317.3 798.55 316.35 798.05 314.55 797.5 312.2 795.5 309.9 793.65 307.1 793 304.15 792.4 302.6 793.5 300.3 795.05 298.45 800.05 296.9 804.2 294.85 812.5 L 279.95 913.3 Q 279.1 919.25 278.95 922.8 278.75 925.2 279.85 927.5 280.9 929.8 283 931.5 286.45 934.35 292.1 928.25 L 301.5 905 Q 303.3 901.65 304.25 904.6 315.95 922.35 326.5 934.45 L 327.6 935.75 Q 327.8 936.05 328.1 936.3 333.65 943.2 338.6 946.5 343.55 949.8 347.85 949.5 353.35 948 354.1 943.45 354.85 938.75 350.85 930.7 350.2 929.5 350.2 928.75 350.15 927.85 350.85 927.5 351.4 927.25 352.6 927.95 353.95 928.7 356.5 930.7 368.5 935 377.5 927.2 385.85 919.5 391.6 910.5 393.15 907.15 395.35 910 398.2 915.8 401.95 919 406.5 923 412.75 923.6 416.8 924.05 426 922.25 433.75 920.7 442.5 918.05 L 451 915.7 Q 456.1 914.1 458.75 912.85 467.05 909.2 477.25 900.1 L 477.6 899.8 Q 478.3 897.6 478.95 897.3 482.15 895.6 481.1 900.7 478.35 918.65 478.35 931.7 L 478.5 932.25 Q 482.05 943.2 495.2 932.05 L 495.25 932.05 Q 500.5 927 502 916.85 502.65 906.85 509 901.95 533.8 888.25 547.5 859.25 L 550.05 853.75 Q 550.95 852.2 551.95 852.25 552.95 852.4 552.8 861.5 552.8 870.8 556.5 881 560.2 890.85 568.4 893 L 569.05 893.1 Q 589.5 896.45 608.4 852 620.8 814.3 613.75 792.25 610.3 785.35 604.55 782.5 598.45 779.65 590.5 781.8 583.35 783.85 574.65 796.85 L 564.4 811.8 Q 562.6 814.05 561.25 811.5 548.4 791.2 531 800.75 523.65 804.15 519.75 798.75 513.85 792.55 510.1 797.5 L 510 797.6 Q 500.2 808.3 498.35 822.2 L 487.45 870.2 Q 486.9 872.5 485.95 872.7 484.95 872.85 484.6 870.5 485.25 866.85 482 862.85 478.75 859 472.2 855.35 L 466.5 853.25 Q 464.8 852.35 464.7 851.05 464.6 849.8 466.45 848.75 492.2 825.75 481.7 814.2 474.2 801.75 448.25 809.85 420.25 819.85 407.85 838 400.2 847.6 404.7 859.25 408.55 865 415.6 867.95 422.05 870 413.75 875.3 L 400.1 888.25 Q 396.9 890 396.95 886.75 397.05 880.5 393.25 879.2 387.6 875.25 384.35 880.5 381.9 882.65 379.85 885.5 L 373.1 900.45 364.6 908.75 Q 362.35 908.75 361.35 908 360.2 907.25 360.35 905.5 L 360.35 899.75 Q 358.95 894.5 362.35 890.25 365.35 885.6 370.6 882.75 389.35 870.2 395.45 853.25 399.7 840.35 398.5 831.5 397.15 822.7 390.45 818.55 374.15 811.35 357.35 837 341.65 861.5 339.45 885.5 338.95 890.9 339.1 895.95 339.35 903.05 341 908.35 341 910.4 340.85 912.25 341.15 914.1 340 914.1 338.85 914.2 337.35 912.25 333.1 905.95 326.25 897.55 321.7 892.05 321.25 887.05 320.75 882 324.6 876.1 330.05 869.1 334.7 860.5 338.75 852.7 342.35 843.6 349.5 827.7 350.1 814.3 350.8 800.55 344.7 789 341.7 785.15 339.35 784.55 M 573.65 834.75 Q 577.1 826.5 582.25 818.25 586.1 812.4 591.4 809.45 L 594 805.7 Q 596 804.9 596.75 806.85 601.65 818.4 594.15 840.55 588.9 860.3 582.7 868.25 L 575.5 871.85 Q 573 874.55 570.95 871 568.85 867.55 568 859.95 567.5 855.3 569.55 847.8 572.1 840.2 573.65 834.75 M 537 823.35 Q 538.9 821.7 539.65 822.35 540.3 823.1 539.7 826.35 537.15 839.1 531.15 850.55 524.75 862.95 515.3 871.85 512.95 874.1 512.2 873.5 511.3 872.9 511.85 869 515.65 854.95 521.25 844.25 528 831.1 537 823.35 M 463.85 828.55 L 456.1 836.2 Q 451.2 841.4 452.1 847.05 451.65 849.85 449 850 444.3 850.25 440.25 851.2 433.55 853.1 428.2 849.75 422.4 847.1 437.75 837.8 L 460.2 825.55 Q 462.4 824.7 463.7 825.5 465.1 826.45 463.85 828.55 M 442.25 881.05 Q 445.55 877.15 441.75 874.05 L 439.85 872.6 Q 437.15 869.6 440.75 869.05 452.1 872.8 463.75 874.55 468.75 874.95 466.1 878.5 L 465.6 879.25 457.25 888.45 Q 448.15 895.45 435.6 900.85 423.45 906.1 415.35 907 412.05 907.4 412.2 905.8 412.35 904.35 415.35 902.5 L 435.25 887.75 435.35 887.55 Q 439.2 884.2 442.25 881.05 M 327.6 821.55 Q 329.4 819.75 330.1 820.35 330.9 821.05 330.5 824.35 327.25 849.75 309.7 869.05 307.5 871.45 306.7 870.95 305.85 870.45 306 866.5 311.65 837.5 327.6 821.55 M 363.5 870.55 Q 363.25 870.9 362.6 871.55 361.55 872.8 360.45 871.75 359.3 870.6 360.1 868.85 361.1 866.5 366.95 858.75 372.45 851.55 375.6 848.25 378.05 845.8 379.5 846.95 380.05 847.35 380.2 848.2 380.25 848.95 379.85 849.6 L 378.85 851.5 Q 376.35 855.15 371.85 860.7 L 364.5 869.55 363.5 870.55 M 851.25 724.5 Q 851.55 719.9 850.75 717.8 849.9 715.5 847.25 715.2 L 837.25 713.45 Q 835.2 713.3 834.75 716.7 L 829.25 736.5 812.95 811.95 812.9 819.85 Q 813.35 822.05 815.65 823.45 817.4 824.6 820.25 825.05 826.9 823.7 830.55 810.1 L 851.25 724.5 M 683.45 774.25 Q 678.15 769.85 669 781.25 L 668 782.6 Q 656.05 794.2 648.95 808.2 645.65 812.4 645.5 806.25 L 645.5 785.3 Q 644.9 781.3 642 777.45 640.15 773.8 636.3 777.45 L 631.5 780.5 Q 628.75 783.8 627.95 788 L 609.05 865.85 Q 609.3 871 611.9 873.75 611.45 878.05 616.05 877.3 621.35 875.7 624.25 873.85 627.1 872.05 629 869 L 632 862.8 653.95 831.5 Q 655.9 826.5 658.5 829.55 L 653.5 860.95 Q 651.65 866.25 653.5 871.7 654.1 873.4 654.5 874.05 655.35 879.1 659.25 876.5 667.15 873.95 670.9 858.95 L 671.9 851.5 Q 672.8 847.85 674.5 851.5 L 679.15 864.95 Q 683.85 870.65 691.75 869.8 703.2 866.65 715 858.45 717.85 855.95 720.4 859.1 L 729 870.8 Q 739.6 857.25 740.15 842.95 740.45 841.6 741.3 841.3 742.3 841.1 742.5 842.25 745.35 853.85 759.25 858.25 770.5 861.45 785.15 848.75 795.95 835.65 800.75 818.75 L 800.75 818.55 Q 801.55 812.4 798 810.5 795.35 808.15 792.75 807.75 790.15 807.45 788.25 809.75 787.2 810.55 786 812.1 L 784 814.8 777.9 826.1 Q 772.55 832.05 767.45 834.1 765.8 835 763.45 831.75 761.05 828.1 766.4 819.3 772.85 813.7 781 810 L 786.95 804.25 787.05 804.1 Q 789.8 801.9 792.7 799 798.95 792.35 803.25 783.75 808.9 771.3 809.15 763 809.15 754.3 803.05 749.25 787.75 739.6 768.3 762.55 762.55 769.55 758.2 776.55 L 747.8 791.95 Q 744.65 793.75 746.15 788.35 L 749.25 777.8 756.95 738.75 Q 758 733.8 754.4 728.95 753.35 728.2 752 728.35 746.25 729.6 742.5 732.7 741.8 733.6 741.25 735.25 L 733.3 759.55 Q 733.1 763.2 729.65 765.45 L 719 769.2 Q 698.45 780.95 681.95 817.3 680 820.1 680.3 813.7 L 685.15 790.35 Q 687.7 777.55 683.45 774.25 M 787.75 780.25 Q 785.4 782.95 779.8 788.3 777.75 790.35 771.5 796 768.9 798.25 767.65 797.7 L 767.5 797.7 767.55 797.6 Q 767.4 795.15 769.45 792 771.7 789.3 775.4 785.7 780.95 780 784.3 777.2 787 775.5 789 775.85 789.9 777.35 787.75 780.25 M 716.15 821 Q 710.7 831.55 705.7 838.5 701.45 844.15 697.7 848.6 695.85 850.95 694.4 849.6 693 847.9 692.9 842.8 693.9 834.4 697.15 825.7 700.45 816.65 705.3 809.3 L 717 796.75 Q 721.55 792.1 723.25 791.55 724.85 791.05 724.7 794.05 724.25 800.25 721.5 807.95 721.4 808.1 716.15 821 Z"/>
</g>
<g id="l4">
<path fill="#003399" stroke="none" d="M 682.95 382.15 L 709.45 276.15 891.45 276.15 566.45 74.6 132.6 276.15 314.5 276.15 204.75 712.25 599.9 712.25 624.4 614.75 701.9 614.75 719.25 540.3 719.5 540.1 724.15 513.35 763.75 614.75 837.5 614.75 891.45 382.15 812.3 382.15 795 457.25 795 457.5 790.25 484 750.65 382.15 682.95 382.15 M 687.65 395.55 L 741.5 395.55 795 533.2 808.15 459.9 807.9 460.15 823 395.55 874.75 395.55 827 601.35 772.95 601.35 719.25 464.15 706.3 537.7 706.3 537.25 691.4 601.35 639.75 601.35 687.65 395.55 M 365.75 393.75 L 453.25 393.75 Q 491.35 393.75 506.35 412.9 520.6 431.05 511.85 463.9 502.6 498.6 479.6 517.35 455.05 537.25 417 537.25 L 386.95 537.25 369.6 602 310.1 602 365.75 393.75 M 564.9 393.75 L 625.5 393.75 634.4 595.3 632.8 602 575.55 602 575.75 574.6 516.55 574.6 502.25 602 444.2 602 564.9 393.75 M 577.15 531.2 L 577.8 456.55 539.5 531.2 577.15 531.2 M 429.25 442.3 L 412.35 442.3 399.85 488.65 424.6 488.65 Q 448.35 488.65 455.1 464.4 460.85 442.3 429.25 442.3 Z"/>
</g>
<g id="Layer0_4_FILL">
<path fill="#FFFF33" stroke="none" d="M 625.5 393.75 L 564.9 393.75 444.2 602 502.25 602 516.55 574.6 575.75 574.6 575.55 602 632.8 602 634.4 595.3 625.5 393.75 M 577.8 456.55 L 577.15 531.2 539.5 531.2 577.8 456.55 M 453.25 393.75 L 365.75 393.75 310.1 602 369.6 602 386.95 537.25 417 537.25 Q 455.05 537.25 479.6 517.35 502.6 498.6 511.85 463.9 520.6 431.05 506.35 412.9 491.35 393.75 453.25 393.75 M 412.35 442.3 L 429.25 442.3 Q 460.85 442.3 455.1 464.4 448.35 488.65 424.6 488.65 L 399.85 488.65 412.35 442.3 M 741.5 395.55 L 687.65 395.55 639.75 601.35 691.4 601.35 706.3 537.25 706.3 537.7 719.25 464.15 772.95 601.35 827 601.35 874.75 395.55 823 395.55 807.9 460.15 808.15 459.9 795 533.2 741.5 395.55 Z"/>
</g>
</defs>
<g transform="matrix(0.5173187255859375,0,0,0.5173187255859375,239.25,125.9)"><use xlink:href="#l0"/></g>
<g transform="matrix(0.5173187255859375,0,0,0.5173187255859375,239.25,125.9)"><use xlink:href="#l2"/></g>
<g transform="matrix(0.288299560546875,0,0,0.288299560546875,-9.75,108.4)"><use xlink:href="#l3"/></g>
<g transform="matrix(0.288299560546875,0,0,0.288299560546875,-9.75,108.4)"><use xlink:href="#l4"/></g>
<g transform="matrix(0.288299560546875,0,0,0.288299560546875,-9.75,108.4)"><use xlink:href="#Layer0_4_FILL"/></g>
</svg>
