<svg xmlns="http://www.w3.org/2000/svg" xmlns:xlink="http://www.w3.org/1999/xlink" width="100%" height="100%" viewBox="0 0 512 512">
<defs>
<g id="l0">
<path fill="#E2262A" stroke="none" d="M 366.05 416.7 Q 366.05 415.15 365.65 413.95 365.2 412.7 364.4 411.75 363.55 410.85 362.45 410.25 361.3 409.65 360.15 409.45 L 358.25 409.15 350.6 409.05 Q 349.85 409.05 349.35 409.55 348.9 410 348.9 410.9 L 348.9 433.45 349 433.8 349.4 434 350.2 434.2 352.7 434.2 353.45 434 353.9 433.8 354 433.45 354 425.45 356.1 425.45 Q 358.55 425.45 360.4 424.85 362.2 424.25 363.5 423.2 364.75 422.05 365.4 420.4 366.05 418.8 366.05 416.7 M 357.7 413.1 Q 358.45 413.25 359.1 413.6 359.8 414.05 360.3 414.9 360.75 415.75 360.75 417.05 360.75 418 360.45 418.85 360.2 419.7 359.65 420.25 359.1 420.85 358.3 421.2 357.5 421.55 356.25 421.55 L 354 421.55 354 413 357.7 413.1 M 389.05 409.05 L 387.8 408.95 385.8 409.2 385.4 409.4 385.3 409.75 385.3 424.85 Q 385.3 426.2 384.9 427.25 384.6 428.25 383.9 428.95 383.25 429.65 382.3 430.05 381.4 430.4 380.15 430.4 379 430.4 378 430.05 377.05 429.7 376.4 428.95 375.65 428.25 375.3 427.15 374.95 426.1 374.95 424.55 L 374.95 409.75 374.8 409.4 374.4 409.2 372.45 408.95 371.15 409.05 370.4 409.2 369.95 409.4 369.85 409.75 369.85 425 Q 369.85 427.45 370.55 429.2 371.25 431 372.55 432.2 373.8 433.4 375.7 434 377.6 434.6 379.95 434.6 382.45 434.6 384.4 433.9 386.35 433.25 387.65 432 388.95 430.75 389.65 428.95 390.3 427.1 390.3 424.8 L 390.3 409.75 390.2 409.4 389.8 409.2 389.05 409.05 M 410.4 410.15 L 410.2 409.55 410 409.2 409.7 409.05 397.2 409.05 Q 396.55 409.05 396.1 409.45 395.7 409.85 395.7 410.7 L 395.7 432.5 Q 395.7 433.35 396.1 433.75 396.55 434.15 397.2 434.15 L 409.75 434.15 410.1 434 410.35 433.7 410.5 433.1 410.5 431.2 410.35 430.6 410.1 430.3 409.75 430.15 400.75 430.15 400.75 423.05 408.35 423.05 408.65 423 408.85 422.7 409.05 422.05 409.05 420.2 408.85 419.65 408.65 419.3 408.35 419.2 400.75 419.2 400.75 413.1 409.7 413.1 410 412.95 410.2 412.6 410.4 412.05 410.4 410.15 M 429.4 410.65 Q 428.3 409.85 426.75 409.45 425.1 409.05 422.8 409.05 L 416.5 409.05 Q 415.85 409.05 415.45 409.45 415 409.85 415 410.7 L 415 432.5 Q 415 433.35 415.45 433.75 415.85 434.15 416.5 434.15 L 425.9 433.95 Q 427.15 433.75 428.25 433.35 429.3 433 430.25 432.4 431.1 431.8 431.8 431 432.4 430.15 432.8 429.05 433.15 427.95 433.15 426.6 433.15 425.35 432.75 424.3 432.35 423.3 431.7 422.55 431.05 421.75 430.1 421.3 429.25 420.8 428.15 420.6 429 420.3 429.65 419.8 430.3 419.3 430.75 418.65 431.2 418 431.45 417.15 431.65 416.35 431.65 415.45 431.65 413.8 431.1 412.6 430.5 411.4 429.4 410.65 M 426.55 416.05 L 426.35 417.35 Q 426.15 418 425.75 418.45 425.25 418.85 424.6 419.15 423.95 419.4 422.85 419.4 L 420 419.4 420 412.9 422.55 412.9 Q 423.75 412.9 424.45 413.1 425.15 413.3 425.6 413.75 426.1 414.1 426.35 414.7 426.55 415.3 426.55 416.05 M 420 430.25 L 420 423.1 423.05 423.1 Q 424.4 423.1 425.25 423.4 426.15 423.6 426.75 424.05 427.25 424.55 427.6 425.25 427.85 425.9 427.85 426.8 427.85 427.6 427.6 428.3 427.25 428.95 426.75 429.35 426.2 429.8 425.45 430.05 424.7 430.25 423.7 430.25 L 420 430.25 M 450.5 430.05 L 450.15 429.95 442.25 429.95 442.25 409.75 442.1 409.4 441.7 409.2 440.9 409.05 438.45 409.05 437.7 409.2 437.25 409.4 437.15 409.75 437.15 432.5 Q 437.15 433.35 437.55 433.75 438 434.15 438.65 434.15 L 450.15 434.15 450.5 434 450.7 433.65 450.85 433 450.85 431.05 450.7 430.4 450.5 430.05 M 473.45 411.7 Q 471.95 410.15 469.8 409.4 467.6 408.65 464.75 408.65 461.8 408.65 459.5 409.55 457.25 410.45 455.75 412.15 454.2 413.85 453.4 416.3 452.65 418.7 452.65 421.75 452.65 425.1 453.4 427.5 454.1 429.95 455.55 431.5 457 433.05 459.2 433.85 461.35 434.6 464.3 434.6 467.25 434.6 469.55 433.7 471.75 432.8 473.3 431.1 474.8 429.35 475.6 426.9 476.35 424.4 476.35 421.35 476.35 418.05 475.65 415.65 474.9 413.25 473.45 411.7 M 467.7 413.45 Q 468.9 414.1 469.7 415.25 470.4 416.4 470.75 418 471.05 419.6 471.05 421.6 471.05 423.4 470.75 425 470.4 426.6 469.6 427.8 468.85 428.95 467.55 429.7 466.35 430.4 464.45 430.4 462.55 430.4 461.3 429.8 460.1 429.15 459.35 428 458.6 426.85 458.3 425.25 458 423.55 458 421.55 458 419.75 458.3 418.15 458.6 416.6 459.4 415.4 460.2 414.25 461.45 413.55 462.7 412.8 464.6 412.8 466.45 412.8 467.7 413.45 M 494 411.4 L 493.8 410.45 493.5 410.15 492.75 409.65 489.7 408.75 487.95 408.65 Q 486.2 408.65 484.65 409.05 483.1 409.55 482 410.4 480.85 411.3 480.2 412.7 479.5 414.05 479.5 415.85 479.5 417.45 480 418.55 480.45 419.7 481.2 420.5 481.9 421.35 482.9 421.9 L 488.5 424.75 Q 489.25 425.25 489.7 425.85 490.15 426.45 490.15 427.25 490.15 428 489.9 428.6 489.65 429.2 489.15 429.65 488.6 430.05 487.85 430.3 487.1 430.45 486.2 430.45 484.75 430.45 483.75 430.15 L 481.85 429.45 480.6 428.75 479.85 428.45 479.5 428.55 479.25 428.9 479.1 430.55 479.2 431.95 479.55 432.65 480.35 433.2 481.8 433.85 483.75 434.35 486.15 434.6 Q 488.1 434.6 489.8 434.05 491.5 433.55 492.7 432.6 494 431.6 494.7 430.1 495.45 428.6 495.45 426.6 495.45 425.1 495 424 494.55 422.9 493.75 422.05 493 421.25 492.05 420.65 L 486.35 417.85 Q 485.6 417.35 485.15 416.75 484.7 416.15 484.7 415.3 L 484.9 414.25 Q 485.1 413.75 485.5 413.4 485.95 413 486.55 412.8 L 488 412.6 Q 489.05 412.6 489.95 412.9 L 493.35 414.3 493.7 414.2 493.85 413.8 494 413.2 494 411.4 M 34.55 409.05 L 33.8 409.2 33.35 409.4 33.25 409.75 33.25 433.45 33.35 433.8 33.8 434 34.55 434.2 37.05 434.2 37.8 434 38.2 433.8 38.35 433.45 38.35 409.75 38.2 409.4 37.8 409.2 37.05 409.05 34.55 409.05 M 21.5 409.4 L 21.1 409.2 20.35 409.05 17.85 409.05 17.1 409.2 16.65 409.4 16.55 409.75 16.55 432.5 Q 16.55 433.35 16.95 433.75 17.4 434.15 18.05 434.15 L 29.55 434.15 29.9 434 30.1 433.65 30.3 433 30.3 431.05 30.1 430.4 29.9 430.05 29.55 429.95 21.65 429.95 21.65 409.75 21.5 409.4 M 45.15 409.05 Q 44.5 409.05 44.1 409.45 43.65 409.85 43.65 410.7 L 43.65 432.5 Q 43.65 433.35 44.1 433.75 44.5 434.15 45.15 434.15 L 54.6 433.95 Q 55.8 433.75 56.9 433.35 57.95 433 58.9 432.4 59.8 431.8 60.45 431 61.05 430.15 61.45 429.05 61.8 427.95 61.8 426.6 61.8 425.35 61.4 424.3 61 423.3 60.35 422.55 59.7 421.75 58.8 421.3 57.9 420.8 56.8 420.6 57.65 420.3 58.3 419.8 58.95 419.3 59.4 418.65 59.85 418 60.1 417.15 60.3 416.35 60.3 415.45 60.3 413.8 59.75 412.6 59.15 411.4 58.05 410.65 56.95 409.85 55.4 409.45 53.75 409.05 51.45 409.05 L 45.15 409.05 M 48.65 419.4 L 48.65 412.9 51.2 412.9 Q 52.4 412.9 53.1 413.1 53.8 413.3 54.25 413.75 54.75 414.1 55 414.7 55.25 415.3 55.25 416.05 L 55 417.35 Q 54.8 418 54.4 418.45 53.9 418.85 53.25 419.15 52.6 419.4 51.5 419.4 L 48.65 419.4 M 56.25 425.25 Q 56.5 425.9 56.5 426.8 56.5 427.6 56.25 428.3 55.9 428.95 55.4 429.35 54.85 429.8 54.1 430.05 53.4 430.25 52.35 430.25 L 48.65 430.25 48.65 423.1 51.7 423.1 Q 53.05 423.1 53.9 423.4 54.8 423.6 55.4 424.05 55.9 424.55 56.25 425.25 M 70.85 419.2 L 70.85 413.1 79.8 413.1 80.1 412.95 80.35 412.6 80.5 412.05 80.5 410.15 80.35 409.55 80.1 409.2 79.8 409.05 67.3 409.05 Q 66.65 409.05 66.2 409.45 65.8 409.85 65.8 410.7 L 65.8 432.5 Q 65.8 433.35 66.2 433.75 66.65 434.15 67.3 434.15 L 79.85 434.15 80.2 434 80.45 433.7 80.6 433.1 80.6 431.2 80.45 430.6 80.2 430.3 79.85 430.15 70.85 430.15 70.85 423.05 78.45 423.05 78.75 423 79 422.7 79.15 422.05 79.15 420.2 79 419.65 78.75 419.3 78.45 419.2 70.85 419.2 M 102.45 415.95 Q 102.45 414.45 102 413.3 101.55 412.15 100.75 411.3 99.85 410.45 98.65 409.95 97.45 409.4 95.95 409.25 L 86.65 409.05 Q 86 409.05 85.6 409.45 85.15 409.85 85.15 410.7 L 85.15 433.45 85.25 433.8 85.65 434 86.45 434.2 88.95 434.2 89.7 434 90.15 433.8 90.25 433.45 90.25 423.9 91.85 423.9 Q 92.65 423.9 93.25 424.15 93.85 424.4 94.35 424.9 L 95.2 426.1 98.25 433.4 98.45 433.8 98.85 434.05 99.6 434.2 102.45 434.2 103.3 434.05 103.65 433.85 103.75 433.5 103.65 432.95 100.4 425.35 99.6 424.05 98.65 423.15 97.6 422.5 Q 98.75 422.1 99.65 421.55 100.6 420.9 101.2 420.1 101.8 419.3 102.15 418.25 102.45 417.2 102.45 415.95 M 90.25 420.05 L 90.25 412.95 93.9 413.05 94.75 413.2 Q 96.05 413.55 96.6 414.4 97.2 415.25 97.2 416.5 97.2 417.3 96.9 417.95 96.65 418.6 96.1 419.1 95.55 419.55 94.7 419.85 93.9 420.05 92.85 420.05 L 90.25 420.05 M 125.85 434.25 Q 126.8 434.25 127.35 434.2 127.9 434.2 128.1 433.95 128.3 433.75 128.25 433.35 L 119.95 409.45 119.4 409.15 118.35 409 114.95 409 114 409.15 113.5 409.45 113.25 409.95 105.2 433.3 Q 105.15 433.7 105.35 433.9 105.55 434.15 106.05 434.2 L 108.8 434.2 109.6 434.05 110 433.8 110.2 433.35 111.75 428.45 121.2 428.45 122.85 433.45 123.05 433.85 123.5 434.1 124.35 434.25 125.85 434.25 M 120 424.5 L 112.9 424.5 116.45 413.85 120 424.5 M 157.4 409.4 L 156.95 409.2 156.2 409.05 153.75 409.05 152.95 409.2 152.55 409.4 152.4 409.75 152.4 433.45 152.55 433.8 152.95 434 153.75 434.2 156.2 434.2 156.95 434 157.4 433.8 157.5 433.45 157.5 409.75 157.4 409.4 M 148.55 411.45 L 148.4 411 148.05 410.6 147.15 409.95 145.65 409.3 143.85 408.85 141.85 408.7 Q 139.25 408.7 137.15 409.55 135 410.4 133.5 412.1 131.95 413.8 131.1 416.3 130.25 418.75 130.25 421.95 130.25 425.1 131 427.45 131.8 429.8 133.25 431.4 134.65 432.95 136.75 433.75 138.85 434.55 141.4 434.55 L 143.85 434.35 145.85 433.8 147.35 433.15 148.15 432.55 148.5 432.15 148.65 431.75 148.75 431.15 148.7 429.25 148.6 428.6 Q 148.55 428.45 148.4 428.3 148.25 428.2 148.1 428.2 L 147.4 428.5 146.25 429.2 144.55 429.95 Q 143.55 430.25 142.2 430.25 140.7 430.25 139.55 429.75 138.35 429.2 137.5 428.15 136.65 427.1 136.2 425.5 135.7 423.9 135.7 421.7 135.7 419.65 136.15 418.05 136.55 416.45 137.4 415.3 138.2 414.15 139.4 413.6 140.6 412.95 142.05 412.95 143.45 412.95 144.4 413.3 L 146.1 414.05 147.25 414.8 Q 147.65 415.15 148 415.15 L 148.3 415 148.5 414.65 148.65 414 148.65 412.1 148.55 411.45 M 184.6 415.65 Q 183.9 413.25 182.4 411.7 180.95 410.15 178.8 409.4 176.6 408.65 173.75 408.65 170.75 408.65 168.5 409.55 166.25 410.45 164.7 412.15 163.15 413.85 162.4 416.3 161.65 418.7 161.65 421.75 161.65 425.1 162.35 427.5 163.1 429.95 164.5 431.5 166 433.05 168.2 433.85 170.35 434.6 173.3 434.6 176.25 434.6 178.5 433.7 180.75 432.8 182.25 431.1 183.8 429.35 184.6 426.9 185.35 424.4 185.35 421.35 185.35 418.05 184.6 415.65 M 168.4 415.4 Q 169.2 414.25 170.4 413.55 171.7 412.8 173.6 412.8 175.45 412.8 176.65 413.45 177.9 414.1 178.7 415.25 179.4 416.4 179.7 418 180.05 419.6 180.05 421.6 180.05 423.4 179.7 425 179.35 426.6 178.6 427.8 177.85 428.95 176.55 429.7 175.3 430.4 173.45 430.4 171.55 430.4 170.3 429.8 169.05 429.15 168.35 428 167.6 426.85 167.3 425.25 167 423.55 167 421.55 167 419.75 167.3 418.15 167.6 416.6 168.4 415.4 M 205.8 409.5 L 205.65 409.85 205.8 427.25 205.75 427.25 197.05 410.4 196.3 409.6 195.4 409.25 194.15 409.05 191.45 409.05 Q 190.65 409.05 190.15 409.55 189.6 410 189.6 410.9 L 189.6 433.4 189.65 433.75 190 434 190.7 434.2 193 434.2 193.7 434 194.05 433.75 194.2 433.4 194.05 414.65 203.3 432.6 204.1 433.55 Q 204.5 433.9 205 434 L 206.15 434.2 208.35 434.2 209.05 434.05 209.7 433.7 210.1 433.15 210.25 432.35 210.25 409.85 210.15 409.5 209.85 409.25 209.1 409.05 206.85 409.05 206.15 409.25 205.8 409.5 M 244.55 427.15 Q 245.45 424.7 245.45 421.25 245.45 418.25 244.6 415.95 243.75 413.75 242.15 412.2 240.55 410.65 238.2 409.9 235.9 409.05 232.55 409.05 L 226.1 409.05 Q 225.45 409.05 225.05 409.45 224.6 409.85 224.6 410.7 L 224.6 432.5 Q 224.6 433.35 225.05 433.75 225.45 434.15 226.1 434.15 L 232.1 434.15 Q 235.45 434.15 237.85 433.4 240.25 432.65 241.9 431.15 243.6 429.6 244.55 427.15 M 229.65 413.1 L 232.25 413.1 Q 234.6 413.1 236.05 413.7 237.5 414.3 238.4 415.45 239.3 416.6 239.75 418.1 240.15 419.65 240.15 421.4 240.15 423.55 239.7 425.25 239.2 426.85 238.25 427.95 237.3 429 235.85 429.55 234.4 430.15 232.3 430.15 L 229.65 430.15 229.65 413.1 M 264.3 412.05 L 264.3 410.15 264.15 409.55 263.9 409.2 263.6 409.05 251.1 409.05 Q 250.45 409.05 250 409.45 249.6 409.85 249.6 410.7 L 249.6 432.5 Q 249.6 433.35 250 433.75 250.45 434.15 251.1 434.15 L 263.65 434.15 264 434 264.25 433.7 264.4 433.1 264.4 431.2 264.25 430.6 264 430.3 263.65 430.15 254.65 430.15 254.65 423.05 262.25 423.05 262.55 423 262.8 422.7 262.95 422.05 262.95 420.2 262.8 419.65 262.55 419.3 262.25 419.2 254.65 419.2 254.65 413.1 263.6 413.1 263.9 412.95 264.15 412.6 264.3 412.05 M 291.15 430.05 L 290.8 429.95 282.9 429.95 282.9 409.75 282.8 409.4 282.4 409.2 281.6 409.05 279.15 409.05 278.35 409.2 277.95 409.4 277.85 409.75 277.85 432.5 Q 277.85 433.35 278.25 433.75 278.7 434.15 279.35 434.15 L 290.8 434.15 291.15 434 291.4 433.65 291.55 433 291.55 431.05 291.4 430.4 291.15 430.05 M 320.85 412.7 Q 320.2 414.05 320.2 415.85 320.2 417.45 320.65 418.55 321.15 419.7 321.85 420.5 322.6 421.35 323.55 421.9 L 329.2 424.75 Q 329.95 425.25 330.4 425.85 330.85 426.45 330.85 427.25 330.85 428 330.6 428.6 330.3 429.2 329.8 429.65 329.25 430.05 328.55 430.3 327.8 430.45 326.9 430.45 325.45 430.45 324.4 430.15 L 322.55 429.45 321.3 428.75 320.5 428.45 320.15 428.55 319.95 428.9 319.8 430.55 319.9 431.95 320.25 432.65 321.05 433.2 322.5 433.85 324.45 434.35 326.85 434.6 Q 328.75 434.6 330.45 434.05 332.15 433.55 333.4 432.6 334.65 431.6 335.4 430.1 336.15 428.6 336.15 426.6 336.15 425.1 335.7 424 335.2 422.9 334.45 422.05 333.7 421.25 332.75 420.65 L 327.05 417.85 Q 326.25 417.35 325.85 416.75 325.4 416.15 325.4 415.3 L 325.55 414.25 Q 325.75 413.75 326.2 413.4 326.6 413 327.25 412.8 L 328.7 412.6 Q 329.75 412.6 330.6 412.9 L 334 414.3 334.35 414.2 334.55 413.8 334.65 413.2 334.65 411.4 334.6 410.85 334.5 410.45 334.2 410.15 333.45 409.65 330.4 408.75 328.6 408.65 Q 326.9 408.65 325.35 409.05 323.8 409.55 322.7 410.4 321.5 411.3 320.85 412.7 M 310.5 409.4 Q 308.3 408.65 305.45 408.65 302.45 408.65 300.2 409.55 297.95 410.45 296.4 412.15 294.85 413.85 294.1 416.3 293.35 418.7 293.35 421.75 293.35 425.1 294.05 427.5 294.8 429.95 296.2 431.5 297.7 433.05 299.9 433.85 302.05 434.6 305 434.6 307.95 434.6 310.2 433.7 312.45 432.8 313.95 431.1 315.5 429.35 316.3 426.9 317.05 424.4 317.05 421.35 317.05 418.05 316.3 415.65 315.6 413.25 314.1 411.7 312.65 410.15 310.5 409.4 M 310.4 415.25 Q 311.1 416.4 311.4 418 311.75 419.6 311.75 421.6 311.75 423.4 311.4 425 311.05 426.6 310.3 427.8 309.55 428.95 308.25 429.7 307 430.4 305.15 430.4 303.25 430.4 302 429.8 300.75 429.15 300.05 428 299.3 426.85 299 425.25 298.7 423.55 298.7 421.55 298.7 419.75 299 418.15 299.3 416.6 300.1 415.4 300.9 414.25 302.1 413.55 303.4 412.8 305.3 412.8 307.15 412.8 308.35 413.45 309.6 414.1 310.4 415.25 M 283.15 370.1 Q 280.2 370.1 277.9 370.95 275.65 371.9 274.15 373.6 272.6 375.3 271.8 377.7 271.05 380.15 271.05 383.2 271.05 386.5 271.75 388.95 272.5 391.35 273.95 392.9 275.4 394.5 277.6 395.25 279.75 396.05 282.7 396.05 285.65 396.05 287.95 395.1 290.15 394.2 291.7 392.55 293.2 390.8 294 388.3 294.75 385.85 294.75 382.75 294.75 379.5 294.05 377.1 293.3 374.7 291.85 373.15 290.35 371.6 288.2 370.8 286 370.1 283.15 370.1 M 277.8 376.85 Q 278.6 375.65 279.85 375 281.1 374.25 283 374.25 284.85 374.25 286.1 374.9 287.3 375.5 288.1 376.7 288.8 377.8 289.15 379.45 289.45 381.05 289.45 383.05 289.45 384.8 289.15 386.45 288.8 388 288 389.2 287.25 390.4 285.95 391.1 284.75 391.85 282.85 391.85 280.95 391.85 279.7 391.2 278.5 390.6 277.75 389.45 277 388.3 276.7 386.65 276.4 385 276.4 382.95 276.4 381.2 276.7 379.6 277 378.05 277.8 376.85 M 269.2 370.95 L 268.95 370.6 268.65 370.5 251 370.5 250.65 370.6 250.4 370.95 250.2 372.6 250.4 374.2 250.65 374.55 251 374.65 257.25 374.65 257.25 394.9 257.4 395.25 257.75 395.45 258.6 395.65 261.05 395.65 261.8 395.45 262.25 395.25 262.35 394.9 262.35 374.65 268.65 374.65 268.95 374.55 269.2 374.2 269.35 373.6 269.35 371.6 269.2 370.95 M 208.8 370.5 Q 208.15 370.5 207.7 370.9 207.3 371.3 207.3 372.15 L 207.3 393.95 Q 207.3 394.8 207.7 395.2 208.15 395.55 208.8 395.55 L 221.35 395.55 221.7 395.45 221.95 395.1 222.1 394.55 222.1 392.65 221.95 392.05 221.7 391.7 221.35 391.6 212.35 391.6 212.35 384.5 219.95 384.5 220.25 384.45 220.5 384.1 220.65 383.5 220.65 381.65 220.5 381.05 220.25 380.75 219.95 380.6 212.35 380.6 212.35 374.5 221.3 374.5 221.6 374.4 221.85 374.05 222 373.5 222 371.6 221.85 370.95 221.6 370.6 221.3 370.5 208.8 370.5 M 231.15 370.5 L 228.45 370.5 Q 227.65 370.5 227.15 370.95 226.6 371.45 226.6 372.3 L 226.6 394.85 226.7 395.2 227.05 395.45 227.75 395.65 230 395.65 230.75 395.45 231.1 395.2 231.2 394.85 231.05 376.1 231.1 376.1 233.2 380.75 240.3 394.05 241.1 395 Q 241.5 395.35 242.05 395.45 L 243.2 395.6 245.35 395.6 246.1 395.5 246.7 395.15 247.15 394.55 247.3 393.8 247.3 371.3 247.15 370.95 246.85 370.65 246.15 370.5 243.9 370.5 243.2 370.65 242.8 370.95 242.7 371.3 242.8 388.65 242.75 388.65 234.05 371.85 233.3 371.05 232.4 370.65 231.15 370.5 M 201.45 370.6 L 200.65 370.45 198.2 370.45 197.4 370.6 197 370.85 196.9 371.2 196.9 394.9 197 395.25 197.4 395.45 198.2 395.65 200.65 395.65 201.45 395.45 201.85 395.25 201.95 394.9 201.95 371.2 201.85 370.85 201.45 370.6 M 191.05 371.05 L 190.4 370.65 189.5 370.5 186.1 370.5 184.8 370.65 Q 184.25 370.8 183.9 371.15 L 183.2 372.05 177 388.3 176.95 388.3 170.95 372.05 Q 170.65 371.45 170.2 371.15 169.75 370.8 169.1 370.65 L 167.55 370.5 164.25 370.5 Q 163.35 370.5 162.85 371.05 162.35 371.55 162.35 372.55 L 162.35 394.9 162.45 395.25 162.85 395.45 163.55 395.65 165.9 395.65 166.65 395.45 167.05 395.25 167.15 394.9 167.15 374.5 167.2 374.5 174.2 394.85 174.45 395.25 174.9 395.5 175.65 395.65 177.9 395.7 178.7 395.55 179.15 395.25 179.4 394.85 186.65 374.5 186.7 374.5 186.7 394.9 186.8 395.25 187.2 395.45 187.95 395.65 190.3 395.65 191.05 395.45 191.45 395.25 191.5 394.9 191.5 372.55 191.4 371.7 191.05 371.05 M 153.2 370.45 L 152.45 370.6 152.05 370.85 151.9 371.2 151.9 394.9 152.05 395.25 152.45 395.45 153.2 395.65 155.7 395.65 156.45 395.45 156.9 395.25 157 394.9 157 371.2 156.9 370.85 156.45 370.6 155.7 370.45 153.2 370.45 M 144.45 370.6 L 144.05 370.95 143.85 371.45 137.9 390.7 137.85 390.7 131.55 370.85 131.15 370.6 130.4 370.45 127.4 370.45 Q 126.8 370.5 126.6 370.7 126.3 370.9 126.4 371.3 L 126.65 372.4 134.25 395.05 134.5 395.3 134.95 395.5 135.55 395.65 139.4 395.7 140.35 395.55 140.85 395.25 141.1 394.7 148.85 371.35 Q 148.95 370.95 148.75 370.75 148.55 370.5 148.1 370.45 L 145.25 370.45 144.45 370.6 M 117.8 370.8 Q 115.6 370.1 112.75 370.1 109.75 370.1 107.5 370.95 105.25 371.9 103.7 373.6 102.15 375.3 101.4 377.7 100.6 380.15 100.6 383.2 100.6 386.5 101.35 388.95 102.1 391.35 103.55 392.9 105 394.5 107.2 395.25 109.35 396.05 112.25 396.05 115.25 396.05 117.5 395.1 119.75 394.2 121.3 392.55 122.8 390.8 123.55 388.3 124.35 385.85 124.35 382.75 124.35 379.5 123.6 377.1 122.85 374.7 121.4 373.15 119.95 371.6 117.8 370.8 M 112.6 374.25 Q 114.45 374.25 115.65 374.9 116.9 375.5 117.65 376.7 118.4 377.8 118.7 379.45 119 381.05 119 383.05 119 384.8 118.7 386.45 118.35 388 117.6 389.2 116.8 390.4 115.55 391.1 114.3 391.85 112.4 391.85 110.55 391.85 109.3 391.2 108.05 390.6 107.35 389.45 106.6 388.3 106.3 386.65 106 385 106 382.95 106 381.2 106.3 379.6 106.6 378.05 107.35 376.85 108.2 375.65 109.4 375 110.7 374.25 112.6 374.25 M 75.15 371.15 Q 74.7 370.8 74.1 370.65 L 72.55 370.5 69.25 370.5 Q 68.35 370.5 67.8 371.05 67.3 371.55 67.3 372.55 L 67.3 394.9 67.4 395.25 67.8 395.45 68.55 395.65 70.9 395.65 71.6 395.45 72 395.25 72.1 394.9 72.1 374.5 72.15 374.5 79.2 394.85 79.4 395.25 79.85 395.5 80.65 395.65 82.9 395.7 83.65 395.55 84.1 395.25 84.4 394.85 91.65 374.5 91.65 394.9 91.8 395.25 92.2 395.45 92.9 395.65 95.25 395.65 96.05 395.45 96.4 395.25 96.5 394.9 96.5 372.55 96.4 371.7 96.05 371.05 95.4 370.65 94.5 370.5 91.05 370.5 89.8 370.65 Q 89.25 370.8 88.85 371.15 L 88.15 372.05 82 388.3 81.9 388.3 75.95 372.05 Q 75.65 371.45 75.15 371.15 M 357.9 315.45 Q 401.05 274.6 401.05 216.8 401.05 159 357.9 118.15 314.85 77.45 254 77.45 193.15 77.45 150.15 118.15 106.95 159 107 216.8 106.95 274.6 150.15 315.45 193.15 356.15 254 356.2 314.85 356.15 357.9 315.45 M 334.2 110.25 Q 343.4 116.6 351.85 124.6 370.35 142.1 380.35 163 383.45 169.35 385.75 176.05 392.15 195.2 392.2 216.8 392.15 228.1 390.45 238.7 390.4 238.9 390.35 239.1 383.55 278.95 351.85 309.05 311.3 347.35 254 347.35 196.7 347.35 156.2 309.05 124.4 278.95 117.65 239.1 117.45 237.9 117.25 236.65 115.8 227 115.8 216.8 115.8 195.9 121.85 177.4 124 170.8 126.9 164.5 137 142.75 156.2 124.6 163.85 117.3 172.15 111.45 177.35 107.7 182.8 104.55 211.25 88.05 246.3 86.45 250.1 86.25 254 86.3 256.95 86.25 259.8 86.35 294.85 87.55 323.5 103.6 328.95 106.65 334.2 110.25 M 245.45 252.05 L 245.15 249.8 244.2 248.1 242.55 247 240.15 246.65 231.15 246.65 227.85 247.1 Q 226.4 247.45 225.4 248.35 L 223.55 250.75 207.35 293.5 207.15 293.5 191.45 250.7 Q 190.65 249.2 189.4 248.35 188.2 247.45 186.5 247.1 L 182.5 246.65 173.75 246.65 Q 171.45 246.65 170.1 248.05 168.7 249.4 168.7 252.05 L 168.7 310.7 169 311.6 170 312.25 171.95 312.7 178.1 312.7 180.05 312.25 181.1 311.6 181.4 310.7 181.4 257.1 181.45 257.1 199.9 310.65 200.5 311.6 201.8 312.35 203.8 312.75 209.7 312.8 211.7 312.45 212.9 311.75 213.6 310.65 232.65 257.1 232.8 257.1 232.8 310.7 233.1 311.6 234.1 312.25 236 312.7 242.2 312.7 244.2 312.25 245.2 311.6 245.45 310.7 245.45 252.05 M 269.7 246.5 L 263.2 246.5 261.15 246.95 260.05 247.6 259.7 248.5 259.7 308.3 Q 259.7 310.6 260.85 311.6 262 312.55 263.65 312.55 L 293.85 312.55 294.8 312.25 295.4 311.25 295.8 309.55 295.8 304.4 295.4 302.7 294.8 301.8 293.85 301.5 273.15 301.5 273.15 248.5 272.85 247.6 271.75 246.95 269.7 246.5 M 347.65 259.45 Q 346.5 256.2 344.35 253.8 342.25 251.35 339.2 249.8 336.2 248.2 333.2 247.65 L 328.15 246.85 308.2 246.65 Q 306.15 246.65 304.9 247.9 303.65 249.05 303.65 251.45 L 303.65 310.7 303.95 311.6 305 312.25 307.1 312.7 313.6 312.7 315.6 312.25 316.7 311.6 317 310.7 317 289.65 322.55 289.65 Q 329.05 289.65 333.85 288.15 338.65 286.65 341.95 283.75 345.3 280.75 347 276.5 348.75 272.25 348.75 266.7 348.75 262.65 347.65 259.45 M 330.5 258.65 Q 332.3 259.7 333.5 261.95 334.75 264.2 334.75 267.65 334.75 270.2 334 272.4 333.3 274.5 331.95 276.1 330.55 277.65 328.45 278.5 326.25 279.35 323.05 279.35 L 317 279.35 317 257 326.8 257.3 Q 328.75 257.55 330.5 258.65 M 411.85 370.45 L 409.35 370.45 408.6 370.6 408.2 370.85 408.05 371.2 408.05 393.95 Q 408.05 394.8 408.5 395.2 408.9 395.55 409.55 395.55 L 421.05 395.55 421.4 395.45 421.65 395.05 421.8 394.4 421.8 392.5 421.65 391.85 421.4 391.5 421.05 391.35 413.15 391.35 413.15 371.2 413.05 370.85 412.6 370.6 411.85 370.45 M 437.25 370.9 L 436.7 370.6 435.7 370.45 432.25 370.45 431.3 370.6 430.8 370.9 430.55 371.4 422.5 394.7 Q 422.5 395.1 422.7 395.35 422.85 395.55 423.35 395.65 L 426.1 395.65 426.9 395.5 427.3 395.25 429.1 389.85 438.5 389.85 440.2 394.9 440.4 395.3 440.8 395.55 441.65 395.7 443.15 395.7 Q 444.1 395.7 444.65 395.65 445.2 395.6 445.45 395.4 445.6 395.2 445.6 394.75 L 437.55 371.45 437.25 370.9 M 433.75 375.3 L 433.8 375.3 437.35 385.95 430.2 385.95 433.75 375.3 M 387.65 370.9 L 387.1 370.6 386.1 370.45 382.65 370.45 381.7 370.6 381.2 370.9 380.95 371.4 372.95 394.7 Q 372.9 395.1 373.1 395.35 373.3 395.55 373.8 395.65 L 376.5 395.65 377.35 395.5 377.7 395.25 379.5 389.85 388.9 389.85 390.6 394.9 390.8 395.3 391.2 395.55 392.05 395.7 393.55 395.7 Q 394.55 395.7 395.05 395.65 395.6 395.6 395.85 395.4 396.05 395.2 396 394.75 L 387.95 371.45 387.65 370.9 M 384.15 375.3 L 384.2 375.3 387.75 385.95 380.6 385.95 384.15 375.3 M 324.4 381.85 Q 325.05 380.2 325.05 378.15 325.05 376.6 324.65 375.35 324.2 374.15 323.4 373.2 322.55 372.3 321.45 371.7 320.3 371.1 319.15 370.9 L 315.55 370.5 309.65 370.5 Q 308.85 370.5 308.35 370.95 307.9 371.45 307.9 372.3 L 307.9 394.9 308 395.25 308.4 395.45 309.2 395.65 311.7 395.65 312.45 395.45 312.9 395.25 313 394.9 313 386.9 315.1 386.9 Q 317.55 386.9 319.4 386.3 321.2 385.7 322.5 384.6 323.75 383.5 324.4 381.85 M 319.3 376.35 Q 319.75 377.2 319.75 378.5 319.75 379.45 319.5 380.3 319.2 381.1 318.65 381.7 318.15 382.3 317.3 382.6 316.5 382.95 315.25 382.95 L 313 382.95 313 374.45 316.7 374.55 Q 317.45 374.65 318.15 375.05 318.8 375.5 319.3 376.35 M 335.45 370.6 L 334.95 370.9 334.65 371.4 326.65 394.7 Q 326.6 395.1 326.8 395.35 327 395.55 327.5 395.65 L 330.25 395.65 331.05 395.5 331.45 395.25 331.65 394.75 333.2 389.85 342.6 389.85 344.3 394.9 344.5 395.3 344.95 395.55 345.8 395.7 347.3 395.7 Q 348.25 395.7 348.8 395.65 349.35 395.6 349.55 395.4 349.75 395.2 349.7 394.75 L 341.65 371.45 341.4 370.9 340.85 370.6 339.8 370.45 336.35 370.45 335.45 370.6 M 337.85 375.3 L 337.9 375.3 341.45 385.95 334.35 385.95 337.85 375.3 M 354.4 370.5 Q 353.7 370.5 353.3 370.9 352.9 371.3 352.9 372.15 L 352.9 394.9 353 395.25 353.4 395.45 354.2 395.65 356.65 395.65 357.45 395.45 357.85 395.25 357.95 394.9 357.95 385.3 359.55 385.3 Q 360.35 385.3 360.95 385.6 361.6 385.8 362.1 386.3 L 362.95 387.55 366 394.85 366.2 395.25 366.55 395.5 367.35 395.65 370.15 395.65 371 395.5 371.4 395.25 371.45 394.9 371.35 394.4 368.1 386.8 367.3 385.5 366.35 384.6 365.3 383.95 Q 366.45 383.55 367.4 382.95 368.3 382.35 368.9 381.55 369.55 380.75 369.85 379.7 370.15 378.65 370.15 377.35 370.15 375.9 369.75 374.75 369.25 373.6 368.45 372.75 367.55 371.9 366.35 371.4 365.2 370.85 363.65 370.65 L 354.4 370.5 M 357.95 381.5 L 357.95 374.4 361.65 374.5 362.5 374.65 Q 363.8 375 364.35 375.85 364.9 376.7 364.9 377.9 364.9 378.7 364.65 379.4 364.35 380.05 363.85 380.55 363.25 381 362.45 381.25 361.65 381.5 360.55 381.5 L 357.95 381.5 Z"/>
<path fill="#FFFFFF" stroke="none" d="M 283.7 135.55 L 323.5 103.6 Q 294.85 87.55 259.8 86.35 L 256.25 121.05 Q 270.4 121.95 280.7 132.2 282.3 133.85 283.7 135.55 M 215 158.3 Q 215.25 148.1 220.25 139.85 L 172.15 111.45 Q 163.85 117.3 156.2 124.6 137 142.75 126.9 164.5 L 215 158.3 M 208.85 184.9 L 215.3 180.5 219.15 177.2 Q 215.7 170.6 215.1 162.9 L 121.85 177.4 Q 115.8 195.9 115.8 216.8 115.8 227 117.25 236.65 138.35 221.05 158.65 212.15 L 178 202.3 208.85 184.9 M 222.55 136.4 Q 224.2 134.2 226.25 132.2 236.55 121.9 250.75 121.05 L 246.3 86.45 Q 211.25 88.05 182.8 104.55 L 222.55 136.4 M 351.85 309.05 Q 383.55 278.95 390.35 239.1 L 117.65 239.1 Q 124.4 278.95 156.2 309.05 196.7 347.35 254 347.35 311.3 347.35 351.85 309.05 M 344.35 253.8 Q 346.5 256.2 347.65 259.45 348.75 262.65 348.75 266.7 348.75 272.25 347 276.5 345.3 280.75 341.95 283.75 338.65 286.65 333.85 288.15 329.05 289.65 322.55 289.65 L 317 289.65 317 310.7 316.7 311.6 315.6 312.25 313.6 312.7 307.1 312.7 305 312.25 303.95 311.6 303.65 310.7 303.65 251.45 Q 303.65 249.05 304.9 247.9 306.15 246.65 308.2 246.65 L 328.15 246.85 333.2 247.65 Q 336.2 248.2 339.2 249.8 342.25 251.35 344.35 253.8 M 263.2 246.5 L 269.7 246.5 271.75 246.95 272.85 247.6 273.15 248.5 273.15 301.5 293.85 301.5 294.8 301.8 295.4 302.7 295.8 304.4 295.8 309.55 295.4 311.25 294.8 312.25 293.85 312.55 263.65 312.55 Q 262 312.55 260.85 311.6 259.7 310.6 259.7 308.3 L 259.7 248.5 260.05 247.6 261.15 246.95 263.2 246.5 M 245.15 249.8 L 245.45 252.05 245.45 310.7 245.2 311.6 244.2 312.25 242.2 312.7 236 312.7 234.1 312.25 233.1 311.6 232.8 310.7 232.8 257.1 232.65 257.1 213.6 310.65 212.9 311.75 211.7 312.45 209.7 312.8 203.8 312.75 201.8 312.35 200.5 311.6 199.9 310.65 181.45 257.1 181.4 257.1 181.4 310.7 181.1 311.6 180.05 312.25 178.1 312.7 171.95 312.7 170 312.25 169 311.6 168.7 310.7 168.7 252.05 Q 168.7 249.4 170.1 248.05 171.45 246.65 173.75 246.65 L 182.5 246.65 186.5 247.1 Q 188.2 247.45 189.4 248.35 190.65 249.2 191.45 250.7 L 207.15 293.5 207.35 293.5 223.55 250.75 225.4 248.35 Q 226.4 247.45 227.85 247.1 L 231.15 246.65 240.15 246.65 242.55 247 244.2 248.1 245.15 249.8 M 333.5 261.95 Q 332.3 259.7 330.5 258.65 328.75 257.55 326.8 257.3 L 317 257 317 279.35 323.05 279.35 Q 326.25 279.35 328.45 278.5 330.55 277.65 331.95 276.1 333.3 274.5 334 272.4 334.75 270.2 334.75 267.65 334.75 264.2 333.5 261.95 M 390.45 238.7 Q 392.15 228.1 392.2 216.8 392.15 195.2 385.75 176.05 L 291.95 161.7 Q 291.4 172.05 285.9 180.4 L 289.05 183.75 316.55 203.65 327.8 211.3 334.85 215.35 Q 356.1 229.8 380.2 234.5 385.55 235.5 388.65 236.75 390 237.55 390.45 238.7 M 351.85 124.6 Q 343.4 116.6 334.2 110.25 L 285.6 138.15 Q 291.35 146.55 291.95 157.15 L 380.35 163 Q 370.35 142.1 351.85 124.6 Z"/>
<path fill="#1C4399" stroke="none" d="M 390.35 239.1 Q 390.4 238.9 390.45 238.7 390 237.55 388.65 236.75 385.55 235.5 380.2 234.5 356.1 229.8 334.85 215.35 L 327.8 211.3 316.55 203.65 289.05 183.75 285.9 180.4 285.5 179.95 282.1 175.2 265.65 155 265.3 154.7 264.75 154.35 Q 261.05 151.4 259.85 155.8 L 259.15 158.5 Q 258.7 159.3 258.3 159.3 257.9 159.25 257.25 158.55 255.95 157.1 253.7 157.05 251.5 157.05 248.9 158.3 248.5 157.3 247.85 156.7 247.45 156.3 246.45 155.75 244.75 154.75 242.6 155.6 240.55 156.5 238.6 159 L 230.95 166.95 219.15 177.2 215.3 180.5 208.85 184.9 178 202.3 158.65 212.15 Q 138.35 221.05 117.25 236.65 117.45 237.9 117.65 239.1 L 390.35 239.1 Z"/>
<path fill="#FDC427" stroke="none" d="M 385.75 176.05 Q 383.45 169.35 380.35 163 L 291.95 157.15 Q 291.35 146.55 285.6 138.15 L 334.2 110.25 Q 328.95 106.65 323.5 103.6 L 283.7 135.55 Q 282.3 133.85 280.7 132.2 270.4 121.95 256.25 121.05 L 259.8 86.35 Q 256.95 86.25 254 86.3 250.1 86.25 246.3 86.45 L 250.75 121.05 Q 236.55 121.9 226.25 132.2 224.2 134.2 222.55 136.4 L 182.8 104.55 Q 177.35 107.7 172.15 111.45 L 220.25 139.85 Q 215.25 148.1 215 158.3 L 126.9 164.5 Q 124 170.8 121.85 177.4 L 215.1 162.9 Q 215.7 170.6 219.15 177.2 L 230.95 166.95 238.6 159 Q 240.55 156.5 242.6 155.6 244.75 154.75 246.45 155.75 247.45 156.3 247.85 156.7 248.5 157.3 248.9 158.3 251.5 157.05 253.7 157.05 255.95 157.1 257.25 158.55 257.9 159.25 258.3 159.3 258.7 159.3 259.15 158.5 L 259.85 155.8 Q 261.05 151.4 264.75 154.35 L 265.3 154.7 265.65 155 282.1 175.2 285.5 179.95 285.9 180.4 Q 291.4 172.05 291.95 161.7 L 385.75 176.05 Z"/>
</g>
</defs>
<g transform="matrix(1,0,0,1,0,0)"><use xlink:href="#l0"/></g>
</svg>
