<svg xmlns="http://www.w3.org/2000/svg" version="1.1" xmlns:xlink="http://www.w3.org/1999/xlink" preserveAspectRatio="none" x="0px" y="0px" width="512px" height="512px" viewBox="0 0 512 512">
<defs>
<g id="f0">
<path fill="#005881" stroke="none" d="M 382.55 492.85 L 389 492.85 390.4 496.5 393.95 496.5 387.45 480.4 384.05 480.4 377.75 496.5 381.2 496.5 382.55 492.85 M 385.75 484.15 L 387.95 490.15 383.55 490.15 385.75 484.15 M 373.35 481.25 Q 372.6 480.75 371.7 480.55 370.75 480.4 368.85 480.4 L 362.4 480.4 362.4 496.5 371.8 496.4 Q 373.1 496.25 374 495.65 374.85 495 375.4 494 375.9 492.95 375.9 491.85 375.9 490.45 375.1 489.4 374.3 488.4 372.85 487.95 373.85 487.5 374.5 486.55 375.1 485.6 375.1 484.45 375.1 483.4 374.6 482.55 374.1 481.75 373.35 481.25 M 370.3 483.1 Q 371.1 483.25 371.5 483.7 371.9 484.15 371.9 484.9 371.9 485.7 371.45 486.15 370.95 486.65 370.1 486.75 L 365.6 486.8 365.6 483.05 370.3 483.1 M 368.65 493.8 L 365.6 493.8 365.6 489.5 368.25 489.5 Q 370.5 489.5 371.15 489.75 371.8 489.95 372.2 490.45 372.5 490.95 372.5 491.7 372.5 492.55 372.05 493.05 371.6 493.55 370.9 493.7 370.4 493.8 368.65 493.8 M 330.2 470.05 L 347.15 470.05 347.15 400.4 371.95 400.4 371.95 386.25 305.35 386.25 305.35 400.4 330.2 400.4 330.2 470.05 M 348.5 492.85 L 354.95 492.85 356.35 496.5 359.9 496.5 353.45 480.4 350 480.4 343.75 496.5 347.2 496.5 348.5 492.85 M 353.9 490.15 L 349.5 490.15 351.7 484.15 353.9 490.15 M 339 480.85 Q 337.8 480.4 335.25 480.4 L 328.4 480.4 328.4 496.5 331.65 496.5 331.65 489.8 332.3 489.8 Q 333.4 489.8 333.95 489.95 334.45 490.15 334.9 490.65 335.35 491.1 336.65 493 L 338.95 496.5 342.85 496.5 340.9 493.35 Q 339.75 491.5 339.05 490.75 338.35 490 337.3 489.4 339.45 489.1 340.5 487.9 341.6 486.75 341.6 484.9 341.6 483.5 340.85 482.4 340.15 481.25 339 480.85 M 334.05 487.25 L 331.65 487.25 331.65 483.1 336.55 483.15 Q 337.35 483.3 337.8 483.8 338.2 484.3 338.2 485.1 338.2 485.85 337.9 486.35 337.55 486.8 336.95 487 336.4 487.25 334.05 487.25 M 405.1 493.65 Q 405.45 492.6 405.45 490.6 L 405.45 480.4 402.2 480.4 402.2 490.8 Q 402.2 492.8 401.75 493.4 401.3 494 400.2 494 399.15 494 398.6 493.15 398.25 492.55 398.2 491.15 L 395.15 491.55 Q 395.15 494.1 396.45 495.45 397.7 496.8 400.1 496.8 402.15 496.8 403.4 495.95 404.6 495.1 405.1 493.65 M 422.5 482.35 Q 420.4 480.1 416.8 480.1 414.85 480.1 413.35 480.75 412.2 481.25 411.25 482.2 410.3 483.2 409.75 484.4 409 486.1 409 488.55 409 492.4 411.15 494.6 413.25 496.8 416.85 496.8 420.4 496.8 422.55 494.6 424.65 492.4 424.65 488.5 424.65 484.55 422.5 482.35 M 413.65 492.6 Q 412.4 491.15 412.4 488.45 412.4 485.65 413.6 484.3 414.85 482.9 416.85 482.9 418.85 482.9 420.1 484.3 421.3 485.6 421.3 488.4 421.3 491.2 420.05 492.6 418.8 494 416.85 494 414.9 494 413.65 492.6 M 149.3 482.2 Q 148.3 481.1 146.85 480.7 145.8 480.4 143.8 480.4 L 137.85 480.4 137.85 496.5 144 496.5 Q 145.8 496.5 146.85 496.15 148.3 495.7 149.15 494.9 150.3 493.8 150.9 492.05 151.35 490.6 151.35 488.6 151.35 486.35 150.85 484.8 150.3 483.25 149.3 482.2 M 141.15 493.8 L 141.15 483.1 142.6 483.1 Q 144.6 483.1 145.25 483.3 146.15 483.45 146.75 484.05 147.35 484.6 147.7 485.6 148.05 486.6 148.05 488.45 148.05 490.35 147.7 491.45 147.35 492.5 146.85 492.95 146.3 493.45 145.55 493.65 144.9 493.8 143.55 493.8 L 141.15 493.8 M 119.7 484.4 Q 119 486.1 119 488.55 119 492.4 121.1 494.6 123.2 496.8 126.8 496.8 130.35 496.8 132.5 494.6 134.6 492.4 134.6 488.5 134.6 484.55 132.5 482.35 130.35 480.1 126.75 480.1 124.8 480.1 123.3 480.75 122.15 481.25 121.2 482.2 120.25 483.2 119.7 484.4 M 130.05 484.3 Q 131.25 485.6 131.25 488.4 131.25 491.2 130 492.6 128.75 494 126.8 494 124.85 494 123.6 492.6 122.35 491.15 122.35 488.45 122.35 485.65 123.55 484.3 124.8 482.9 126.8 482.9 128.8 482.9 130.05 484.3 M 115.15 482.4 Q 114.45 481.25 113.25 480.85 112.1 480.4 109.5 480.4 L 102.65 480.4 102.65 496.5 105.9 496.5 105.9 489.8 106.55 489.8 Q 107.7 489.8 108.2 489.95 108.7 490.15 109.2 490.65 109.65 491.1 110.9 493 L 113.25 496.5 117.15 496.5 115.2 493.35 Q 114 491.5 113.3 490.75 112.65 490 111.6 489.4 113.7 489.1 114.75 487.9 115.85 486.75 115.85 484.9 115.85 483.5 115.15 482.4 M 105.9 483.1 L 110.8 483.15 Q 111.6 483.3 112.05 483.8 112.5 484.3 112.5 485.1 112.5 485.85 112.15 486.35 111.8 486.8 111.25 487 110.65 487.25 108.3 487.25 L 105.9 487.25 105.9 483.1 M 98.3 482.25 Q 97.35 481 96 480.65 95.1 480.4 92.1 480.4 L 86.9 480.4 86.9 496.5 90.15 496.5 90.15 490.45 92.25 490.45 Q 94.5 490.45 95.65 490.2 96.5 490 97.35 489.45 98.15 488.85 98.7 487.85 99.25 486.85 99.25 485.35 99.25 483.45 98.3 482.25 M 90.15 487.7 L 90.15 483.1 91.7 483.1 Q 93.5 483.1 94.05 483.25 94.85 483.4 95.35 483.95 95.9 484.5 95.9 485.4 95.9 486.1 95.5 486.65 95.15 487.2 94.5 487.45 93.85 487.7 91.95 487.7 L 90.15 487.7 M 229.3 480.4 L 226.05 480.4 226.05 496.5 229.3 496.5 229.3 480.4 M 212.3 480.4 L 208.75 480.4 214.5 496.5 218 496.5 223.75 480.4 220.3 480.4 216.35 492.35 212.3 480.4 M 206.55 480.4 L 203.3 480.4 203.3 496.5 206.55 496.5 206.55 480.4 M 187.75 483.1 L 192.5 483.1 192.5 496.5 195.8 496.5 195.8 483.1 200.55 483.1 200.55 480.4 187.75 480.4 187.75 483.1 M 167.7 480.4 L 164.45 480.4 164.45 489.3 Q 164.45 491.2 164.3 492.05 164.15 492.9 163.45 493.45 162.75 494 161.35 494 160 494 159.25 493.4 158.45 492.8 158.25 491.85 158.1 491.2 158.1 489.1 L 158.1 480.4 154.85 480.4 154.85 489 Q 154.85 491.7 155.2 493.1 155.4 494 156.1 494.9 156.8 495.7 157.95 496.25 159.15 496.8 161.45 496.8 163.4 496.8 164.6 496.3 165.75 495.8 166.45 495 167.2 494.15 167.45 492.95 167.7 491.75 167.7 488.85 L 167.7 480.4 M 178.85 480.1 Q 175.45 480.1 173.4 482.35 171.35 484.55 171.35 488.6 171.35 492.4 173.4 494.6 175.45 496.8 178.7 496.8 181.25 496.8 182.95 495.5 184.65 494.2 185.35 491.6 L 182.2 490.6 Q 181.8 492.35 180.85 493.15 179.95 494 178.65 494 176.9 494 175.8 492.7 174.7 491.4 174.7 488.35 174.7 485.45 175.8 484.2 176.9 482.9 178.7 482.9 180 482.9 180.9 483.6 181.8 484.35 182.1 485.6 L 185.3 484.85 Q 184.8 482.9 183.7 481.85 181.85 480.1 178.85 480.1 M 312.7 483.1 L 317.45 483.1 317.45 496.5 320.75 496.5 320.75 483.1 325.5 483.1 325.5 480.4 312.7 480.4 312.7 483.1 M 289.45 480.4 L 295.35 489.75 295.35 496.5 298.6 496.5 298.6 489.75 304.55 480.4 300.75 480.4 297.05 486.8 293.25 480.4 289.45 480.4 M 278.55 482.2 Q 277.55 481.1 276.1 480.7 275.05 480.4 273.05 480.4 L 267.1 480.4 267.1 496.5 273.25 496.5 Q 275.05 496.5 276.1 496.15 277.55 495.7 278.4 494.9 279.55 493.8 280.15 492.05 280.6 490.6 280.6 488.6 280.6 486.35 280.1 484.8 279.55 483.25 278.55 482.2 M 270.4 483.1 L 271.8 483.1 Q 273.8 483.1 274.5 483.3 275.4 483.45 276 484.05 276.6 484.6 276.95 485.6 277.25 486.6 277.25 488.45 277.25 490.35 276.95 491.45 276.6 492.5 276.1 492.95 275.55 493.45 274.75 493.65 274.15 493.8 272.8 493.8 L 270.4 493.8 270.4 483.1 M 246.6 488.6 Q 246.6 486.35 246.1 484.8 245.55 483.25 244.55 482.2 243.55 481.1 242.1 480.7 241.05 480.4 239.05 480.4 L 233.1 480.4 233.1 496.5 239.25 496.5 Q 241.05 496.5 242.1 496.15 243.55 495.7 244.4 494.9 245.55 493.8 246.15 492.05 246.6 490.6 246.6 488.6 M 240.5 483.3 Q 241.4 483.45 242 484.05 242.6 484.6 242.95 485.6 243.3 486.6 243.3 488.45 243.3 490.35 242.95 491.45 242.6 492.5 242.1 492.95 241.55 493.45 240.8 493.65 240.15 493.8 238.8 493.8 L 236.4 493.8 236.4 483.1 237.85 483.1 Q 239.85 483.1 240.5 483.3 M 258.2 480.4 L 254.75 480.4 248.5 496.5 251.95 496.5 253.25 492.85 259.7 492.85 261.1 496.5 264.65 496.5 258.2 480.4 M 254.25 490.15 L 256.45 484.15 258.65 490.15 254.25 490.15 M 269.05 387.5 Q 264.35 386.25 248.95 386.25 L 221.8 386.25 221.8 470.05 238.7 470.05 238.7 438.4 249.7 438.4 Q 261.2 438.4 267.25 437.25 271.75 436.25 276.1 433.3 280.4 430.25 283.15 425 286 419.75 286 412.05 286 402 281.1 395.7 276.25 389.35 269.05 387.5 M 265.85 404.7 Q 268.55 407.65 268.55 412.25 268.55 415.95 266.65 418.75 264.7 421.55 261.35 422.85 257.95 424.2 247.95 424.2 L 238.7 424.2 238.7 400.4 246.9 400.4 Q 256 400.4 259.05 401 263.15 401.75 265.85 404.7 M 159.35 386.25 L 132.2 386.25 132.2 470.05 149.15 470.05 149.15 438.4 160.15 438.4 Q 171.65 438.4 177.7 437.25 182.2 436.25 186.5 433.3 190.8 430.25 193.6 425 196.4 419.75 196.4 412.05 196.4 402 191.55 395.7 186.7 389.35 179.5 387.5 174.8 386.25 159.35 386.25 M 176.3 404.7 Q 178.95 407.65 178.95 412.25 178.95 415.95 177.1 418.75 175.15 421.55 171.75 422.85 168.4 424.2 158.4 424.2 L 149.15 424.2 149.15 400.4 157.3 400.4 Q 166.45 400.4 169.45 401 173.6 401.75 176.3 404.7 M 343.6 72.25 L 349.35 36.65 297.7 15.25 276.6 44.55 Q 256 41.4 235.4 44.55 L 214.3 15.3 162.7 36.65 168.45 72.3 Q 151.65 84.65 139.3 101.45 L 103.6 95.65 82.25 147.25 111.6 168.4 Q 108.4 189 111.6 209.6 L 82.25 230.75 92.95 256.5 Q 92.95 256.548828125 93 256.55 L 92.95 256.55 103.6 282.35 139.35 276.55 Q 151.6 293.35 168.45 305.7 L 162.65 341.35 214.25 362.7 235.4 333.45 Q 243.5 334.65 251.6 334.95 L 252.9 295.2 Q 242.6 290.65 247.3 276.5 248.7 282.85 256 282.3 263.25 282.85 264.7 276.5 269.35 290.65 259.1 295.2 L 260.4 334.95 Q 268.5 334.65 276.65 333.45 L 297.75 362.7 349.35 341.35 343.6 305.7 Q 360.4 293.35 372.75 276.55 L 408.35 282.3 429.7 230.7 400.5 209.65 Q 403.6 189 400.45 168.35 L 429.7 147.25 419 121.45 418 121.9 419 121.4 408.35 95.65 372.75 101.4 Q 360.35 84.65 343.6 72.25 M 251.1 74.05 Q 253.2 64.5 256 63.5 258.75 64.5 260.9 74.05 263.25 85 264.05 104.6 264.3 110.35 262.1 113.45 260 116.45 256 116.45 251.95 116.45 249.85 113.45 247.65 110.35 247.9 104.6 248.7 85 251.1 74.05 M 228.4 137.8 Q 232.45 144.6 238.1 148.35 246.7 153.85 250.45 166.05 254.15 178.35 252.8 196.6 248.75 189.85 243.1 186.1 234.5 180.55 230.75 168.35 227 156.1 228.4 137.8 M 228.4 177.8 Q 232.45 184.6 238.1 188.35 246.7 193.85 250.45 206.05 254.15 218.3 252.8 236.6 248.75 229.8 243.1 226.1 234.5 220.55 230.75 208.35 227 196.1 228.4 177.8 M 261.55 126.05 Q 265.25 113.85 273.9 108.35 279.55 104.6 283.6 97.8 284.95 116.1 281.2 128.35 277.5 140.55 268.9 146.1 263.2 149.85 259.15 156.6 257.8 138.35 261.55 126.05 M 259.15 196.6 Q 257.8 178.35 261.55 166.05 265.25 153.85 273.9 148.35 279.55 144.6 283.6 137.8 284.95 156.1 281.2 168.35 277.5 180.55 268.9 186.1 263.2 189.85 259.15 196.6 M 252.8 156.6 Q 248.75 149.85 243.1 146.1 234.5 140.55 230.75 128.35 227 116.1 228.4 97.8 232.45 104.6 238.1 108.35 246.7 113.85 250.45 126.05 254.15 138.35 252.8 156.6 M 273.9 188.35 Q 279.55 184.6 283.6 177.8 284.95 196.1 281.2 208.35 277.5 220.55 268.9 226.1 263.2 229.8 259.15 236.6 257.8 218.3 261.55 206.05 265.25 193.85 273.9 188.35 M 261.55 246.05 Q 265.25 233.85 273.9 228.3 279.55 224.6 283.6 217.8 284.95 236.1 281.2 248.35 277.5 260.55 268.9 266.1 263.2 269.8 259.15 276.6 257.8 258.3 261.55 246.05 M 252.8 276.6 Q 248.75 269.8 243.1 266.1 234.5 260.55 230.75 248.35 227 236.1 228.4 217.8 232.45 224.6 238.1 228.3 246.7 233.85 250.45 246.05 254.15 258.3 252.8 276.6 Z"/>
<path fill="#FFBF00" stroke="none" d="M 247.3 276.5 Q 242.6 290.65 252.9 295.2 L 251.6 334.95 Q 253.75 335 256 335 258.2 335 260.4 334.95 L 259.1 295.2 Q 269.35 290.65 264.7 276.5 263.25 282.85 256 282.3 248.7 282.85 247.3 276.5 M 243.1 266.1 Q 248.75 269.8 252.8 276.6 254.15 258.3 250.45 246.05 246.7 233.85 238.1 228.3 232.45 224.6 228.4 217.8 227 236.1 230.75 248.35 234.5 260.55 243.1 266.1 M 273.9 228.3 Q 265.25 233.85 261.55 246.05 257.8 258.3 259.15 276.6 263.2 269.8 268.9 266.1 277.5 260.55 281.2 248.35 284.95 236.1 283.6 217.8 279.55 224.6 273.9 228.3 M 283.6 177.8 Q 279.55 184.6 273.9 188.35 265.25 193.85 261.55 206.05 257.8 218.3 259.15 236.6 263.2 229.8 268.9 226.1 277.5 220.55 281.2 208.35 284.95 196.1 283.6 177.8 M 243.1 146.1 Q 248.75 149.85 252.8 156.6 254.15 138.35 250.45 126.05 246.7 113.85 238.1 108.35 232.45 104.6 228.4 97.8 227 116.1 230.75 128.35 234.5 140.55 243.1 146.1 M 261.55 166.05 Q 257.8 178.35 259.15 196.6 263.2 189.85 268.9 186.1 277.5 180.55 281.2 168.35 284.95 156.1 283.6 137.8 279.55 144.6 273.9 148.35 265.25 153.85 261.55 166.05 M 273.9 108.35 Q 265.25 113.85 261.55 126.05 257.8 138.35 259.15 156.6 263.2 149.85 268.9 146.1 277.5 140.55 281.2 128.35 284.95 116.1 283.6 97.8 279.55 104.6 273.9 108.35 M 238.1 188.35 Q 232.45 184.6 228.4 177.8 227 196.1 230.75 208.35 234.5 220.55 243.1 226.1 248.75 229.8 252.8 236.6 254.15 218.3 250.45 206.05 246.7 193.85 238.1 188.35 M 238.1 148.35 Q 232.45 144.6 228.4 137.8 227 156.1 230.75 168.35 234.5 180.55 243.1 186.1 248.75 189.85 252.8 196.6 254.15 178.35 250.45 166.05 246.7 153.85 238.1 148.35 M 256 63.5 Q 253.2 64.5 251.1 74.05 248.7 85 247.9 104.6 247.65 110.35 249.85 113.45 251.95 116.45 256 116.45 260 116.45 262.1 113.45 264.3 110.35 264.05 104.6 263.25 85 260.9 74.05 258.75 64.5 256 63.5 Z"/>
</g>
</defs>
<g transform="matrix(1,0,0,1,0,0)"><use xlink:href="#f0"/>
</g>
</svg>
