<svg xmlns="http://www.w3.org/2000/svg" xmlns:xlink="http://www.w3.org/1999/xlink" width="100%" height="100%" viewBox="0 0 512 512">
<defs>
<g id="f0">
<path fill="#263282" stroke="none" d="M 453.15 37.75 Q 453.15 28.3 446.5 21.65 439.85 15 430.4 15 L 81.6 15 Q 72.2 15 65.55 21.65 58.9 28.3 58.9 37.75 L 58.9 474.3 Q 58.9 483.7 65.55 490.35 72.2 497 81.6 497 L 430.4 497 Q 439.85 497 446.5 490.35 453.15 483.7 453.15 474.3 L 453.15 37.75 M 367.6 395.4 L 379.15 395.4 379.15 410.8 387.05 410.8 387.05 421.55 379.15 421.55 379.15 455.65 367.6 455.65 367.6 421.55 363.05 421.55 363.05 410.8 367.6 410.8 367.6 395.4 M 117.9 386.55 L 130.15 386.55 130.15 428.85 Q 130.15 440.7 125.45 447.3 118.55 457.25 104.9 457.25 91.2 457.25 84.3 447.3 79.6 440.7 79.6 428.85 L 79.6 386.55 91.85 386.55 91.85 429.95 Q 91.85 436.5 94.85 440.25 98.45 445 104.9 445 111.3 445 114.9 440.25 117.9 436.5 117.9 429.95 L 117.9 386.55 M 188.65 386.45 Q 190.7 384.25 193.55 384.25 196.35 384.25 198.4 386.45 200.45 388.7 200.45 391.8 200.45 394.9 198.4 397.15 196.35 399.35 193.55 399.35 190.7 399.35 188.65 397.15 186.65 394.9 186.65 391.8 186.65 388.7 188.65 386.45 M 319.2 386.45 Q 321.2 388.7 321.2 391.8 321.2 394.9 319.2 397.15 317.15 399.35 314.35 399.35 311.5 399.35 309.45 397.15 307.45 394.9 307.45 391.8 307.45 388.7 309.45 386.45 311.5 384.25 314.35 384.25 317.15 384.25 319.2 386.45 M 287.4 431.2 Q 287.4 424.9 285.25 422.4 283.25 420.15 279.85 420.15 275.15 420.15 272.8 424.05 271 427.15 271 432.75 L 271 455.65 259.5 455.65 259.5 410.8 271 410.8 271 416.6 Q 275.75 409.35 283.65 409.35 291.65 409.35 295.7 414.8 298.95 419.15 298.95 427.5 L 298.95 455.65 287.4 455.65 287.4 431.2 M 308.6 410.8 L 320.1 410.8 320.1 455.65 308.6 455.65 308.6 410.8 M 245.9 415.65 Q 252.8 422.5 252.8 433.3 252.8 443.9 245.9 450.8 239.6 457.15 229.4 457.15 219.1 457.15 212.85 450.8 206 443.9 206 433.3 206 422.5 212.85 415.65 219.1 409.35 229.4 409.35 239.6 409.35 245.9 415.65 M 166.6 431.2 Q 166.6 424.9 164.45 422.4 162.45 420.15 159.05 420.15 154.35 420.15 152.05 424.05 150.2 427.15 150.2 432.75 L 150.2 455.65 138.7 455.65 138.7 410.8 150.2 410.8 150.2 416.6 Q 154.95 409.35 162.85 409.35 170.85 409.35 174.95 414.8 178.15 419.15 178.15 427.5 L 178.15 455.65 166.6 455.65 166.6 431.2 M 187.8 410.8 L 199.3 410.8 199.3 455.65 187.8 455.65 187.8 410.8 M 420.65 410.8 L 432.15 410.8 432.15 455.65 420.65 455.65 420.65 449.85 Q 416 457.15 408.05 457.15 398.85 457.15 392.95 450.1 387.25 443.25 387.25 433.2 387.25 423.05 392.85 416.3 398.55 409.35 407.5 409.35 416.4 409.35 420.65 416.6 L 420.65 410.8 M 333.1 412.55 Q 336.8 409.35 343.75 409.35 351.1 409.35 356.8 414.1 L 351.1 421.45 Q 348.15 418.45 344.45 418.45 339.95 418.45 339.95 422.05 339.95 424.8 343.65 426.1 L 346.45 427.05 Q 354.4 429.9 356.8 433.5 358.85 436.65 358.85 440.95 358.85 447.85 354.35 452.35 349.6 457.15 342.05 457.15 332.55 457.15 326.2 449.65 L 332.3 442 Q 336.3 447.15 341.3 447.15 347 447.15 347 442.3 347 439.2 343.4 437.75 L 340.75 436.7 Q 334.6 434.3 331.95 431.3 328.85 427.75 328.85 422.7 328.85 416.45 333.1 412.55 M 373.2 84.85 L 385.15 96.8 327.25 154.7 315.3 142.75 373.2 84.85 M 430.45 205.65 L 430.45 222.5 348.4 222.5 348.4 205.65 430.45 205.65 M 385.35 331.7 L 373.45 343.65 315.35 285.55 327.3 273.65 385.35 331.7 M 247.4 39.95 L 264.3 39.95 264.3 121.65 247.4 121.65 247.4 39.95 M 209.25 167.55 L 209.3 167.55 Q 228.55 148.3 255.8 148.3 283.1 148.3 302.35 167.55 L 302.4 167.6 Q 321.6 186.85 321.6 214.05 321.6 241.3 302.35 260.55 L 302.3 260.6 Q 283.05 279.85 255.8 279.85 228.6 279.85 209.4 260.65 209.3 260.6 209.3 260.55 190.05 241.3 190.05 214.05 190.05 186.85 209.25 167.55 M 196.4 142.75 L 184.45 154.7 126.7 96.9 138.65 85 196.4 142.75 M 81.55 222.5 L 81.55 205.65 163.3 205.65 163.3 222.5 81.55 222.5 M 138.4 343.55 L 126.45 331.65 184.45 273.65 196.35 285.55 138.4 343.55 M 247.4 306.7 L 264.3 306.7 264.3 388.85 247.4 388.85 247.4 306.7 M 255.95 214.05 L 255.75 214.05 255.8 214.1 255.8 214.2 255.95 214.05 M 421.7 433.2 Q 421.7 427.75 418.55 424.15 415.3 420.55 410.45 420.55 405.5 420.55 402.3 424.15 399.1 427.75 399.1 433.2 399.1 438.6 402.3 442.25 405.5 445.9 410.45 445.9 415.3 445.9 418.55 442.25 421.7 438.6 421.7 433.2 M 240.9 433.3 Q 240.9 427.9 237.6 424.25 234.3 420.55 229.4 420.55 224.45 420.55 221.15 424.25 217.9 427.9 217.9 433.3 217.9 438.5 221.1 442.15 224.45 445.9 229.4 445.9 234.35 445.9 237.65 442.15 240.9 438.5 240.9 433.3 Z"/>
<path fill="#F6EF17" stroke="none" d="M 264.3 306.7 L 247.4 306.7 247.4 388.85 264.3 388.85 264.3 306.7 M 126.45 331.65 L 138.4 343.55 196.35 285.55 184.45 273.65 126.45 331.65 M 81.55 205.65 L 81.55 222.5 163.3 222.5 163.3 205.65 81.55 205.65 M 184.45 154.7 L 196.4 142.75 138.65 85 126.7 96.9 184.45 154.7 M 209.3 167.55 L 209.25 167.55 Q 190.05 186.85 190.05 214.05 190.05 241.3 209.3 260.55 209.3 260.6 209.4 260.65 228.6 279.85 255.8 279.85 283.05 279.85 302.3 260.6 L 302.35 260.55 Q 321.6 241.3 321.6 214.05 321.6 186.85 302.4 167.6 L 302.35 167.55 Q 283.1 148.3 255.8 148.3 228.55 148.3 209.3 167.55 M 255.75 214.05 L 255.95 214.05 255.8 214.2 255.8 214.1 255.75 214.05 M 264.3 39.95 L 247.4 39.95 247.4 121.65 264.3 121.65 264.3 39.95 M 373.45 343.65 L 385.35 331.7 327.3 273.65 315.35 285.55 373.45 343.65 M 430.45 222.5 L 430.45 205.65 348.4 205.65 348.4 222.5 430.45 222.5 M 385.15 96.8 L 373.2 84.85 315.3 142.75 327.25 154.7 385.15 96.8 Z"/>
<path fill="#FFFFFF" stroke="none" d="M 343.75 409.35 Q 336.8 409.35 333.1 412.55 328.85 416.45 328.85 422.7 328.85 427.75 331.95 431.3 334.6 434.3 340.75 436.7 L 343.4 437.75 Q 347 439.2 347 442.3 347 447.15 341.3 447.15 336.3 447.15 332.3 442 L 326.2 449.65 Q 332.55 457.15 342.05 457.15 349.6 457.15 354.35 452.35 358.85 447.85 358.85 440.95 358.85 436.65 356.8 433.5 354.4 429.9 346.45 427.05 L 343.65 426.1 Q 339.95 424.8 339.95 422.05 339.95 418.45 344.45 418.45 348.15 418.45 351.1 421.45 L 356.8 414.1 Q 351.1 409.35 343.75 409.35 M 432.15 410.8 L 420.65 410.8 420.65 416.6 Q 416.4 409.35 407.5 409.35 398.55 409.35 392.85 416.3 387.25 423.05 387.25 433.2 387.25 443.25 392.95 450.1 398.85 457.15 408.05 457.15 416 457.15 420.65 449.85 L 420.65 455.65 432.15 455.65 432.15 410.8 M 418.55 424.15 Q 421.7 427.75 421.7 433.2 421.7 438.6 418.55 442.25 415.3 445.9 410.45 445.9 405.5 445.9 402.3 442.25 399.1 438.6 399.1 433.2 399.1 427.75 402.3 424.15 405.5 420.55 410.45 420.55 415.3 420.55 418.55 424.15 M 199.3 410.8 L 187.8 410.8 187.8 455.65 199.3 455.65 199.3 410.8 M 164.45 422.4 Q 166.6 424.9 166.6 431.2 L 166.6 455.65 178.15 455.65 178.15 427.5 Q 178.15 419.15 174.95 414.8 170.85 409.35 162.85 409.35 154.95 409.35 150.2 416.6 L 150.2 410.8 138.7 410.8 138.7 455.65 150.2 455.65 150.2 432.75 Q 150.2 427.15 152.05 424.05 154.35 420.15 159.05 420.15 162.45 420.15 164.45 422.4 M 252.8 433.3 Q 252.8 422.5 245.9 415.65 239.6 409.35 229.4 409.35 219.1 409.35 212.85 415.65 206 422.5 206 433.3 206 443.9 212.85 450.8 219.1 457.15 229.4 457.15 239.6 457.15 245.9 450.8 252.8 443.9 252.8 433.3 M 237.6 424.25 Q 240.9 427.9 240.9 433.3 240.9 438.5 237.65 442.15 234.35 445.9 229.4 445.9 224.45 445.9 221.1 442.15 217.9 438.5 217.9 433.3 217.9 427.9 221.15 424.25 224.45 420.55 229.4 420.55 234.3 420.55 237.6 424.25 M 320.1 410.8 L 308.6 410.8 308.6 455.65 320.1 455.65 320.1 410.8 M 285.25 422.4 Q 287.4 424.9 287.4 431.2 L 287.4 455.65 298.95 455.65 298.95 427.5 Q 298.95 419.15 295.7 414.8 291.65 409.35 283.65 409.35 275.75 409.35 271 416.6 L 271 410.8 259.5 410.8 259.5 455.65 271 455.65 271 432.75 Q 271 427.15 272.8 424.05 275.15 420.15 279.85 420.15 283.25 420.15 285.25 422.4 M 321.2 391.8 Q 321.2 388.7 319.2 386.45 317.15 384.25 314.35 384.25 311.5 384.25 309.45 386.45 307.45 388.7 307.45 391.8 307.45 394.9 309.45 397.15 311.5 399.35 314.35 399.35 317.15 399.35 319.2 397.15 321.2 394.9 321.2 391.8 M 193.55 384.25 Q 190.7 384.25 188.65 386.45 186.65 388.7 186.65 391.8 186.65 394.9 188.65 397.15 190.7 399.35 193.55 399.35 196.35 399.35 198.4 397.15 200.45 394.9 200.45 391.8 200.45 388.7 198.4 386.45 196.35 384.25 193.55 384.25 M 130.15 386.55 L 117.9 386.55 117.9 429.95 Q 117.9 436.5 114.9 440.25 111.3 445 104.9 445 98.45 445 94.85 440.25 91.85 436.5 91.85 429.95 L 91.85 386.55 79.6 386.55 79.6 428.85 Q 79.6 440.7 84.3 447.3 91.2 457.25 104.9 457.25 118.55 457.25 125.45 447.3 130.15 440.7 130.15 428.85 L 130.15 386.55 M 379.15 395.4 L 367.6 395.4 367.6 410.8 363.05 410.8 363.05 421.55 367.6 421.55 367.6 455.65 379.15 455.65 379.15 421.55 387.05 421.55 387.05 410.8 379.15 410.8 379.15 395.4 Z"/>
</g>
</defs>
<g transform="matrix(1,0,0,1,0,0)"><use xlink:href="#f0"/></g>
</svg>
