<svg xmlns="http://www.w3.org/2000/svg" xmlns:xlink="http://www.w3.org/1999/xlink" width="100%" height="100%" viewBox="0 0 512 512">
<defs>
<g id="f0">
<path fill="#FFFFFF" stroke="none" d="M 431 81 Q 396.7 46.75 352.3 27.95 306.35 8.5 256 8.5 205.65 8.5 159.65 27.95 115.25 46.75 81 81 46.75 115.25 27.95 159.65 8.5 205.65 8.5 256 8.5 306.35 27.95 352.3 46.75 396.75 81 431 115.25 465.25 159.65 484 205.65 503.5 256 503.5 306.35 503.5 352.3 484 396.7 465.25 431 431 465.25 396.75 484 352.3 503.5 306.35 503.5 256 503.5 205.65 484 159.65 465.25 115.25 431 81 M 416.65 99.2 Q 447.7 131 464.3 172 481.45 214.4 480.6 260.5 479.7 305.7 461.45 346.85 443.75 386.75 412.3 417.25 380.75 447.95 340.25 464.35 298.15 481.4 252.3 480.55 207.3 479.95 166.25 462.05 126.5 444.7 95.9 413.65 65.3 382.5 48.55 342.4 31.25 300.85 31.4 255.4 31.55 209.4 49.45 167.6 66.75 127.3 98.1 96.3 129.35 65.45 169.7 48.6 211.45 31.2 256.9 31.4 303.1 31.6 345.1 49.8 385.65 67.4 416.65 99.2 M 360.65 318.1 Q 358.28671875 318.2212890625 356.25 318.75 349.5564453125 319.919140625 347.15 325.35 345.808984375 327.63984375 345.05 330.6 344.9125 331.3625 344.75 332.1 344.6953125 332.3830078125 344.65 332.65 344.5767578125 333.0896484375 344.5 333.5 343.95 340.2375 343.4 346.95 343.3986328125 347.000390625 343.4 347.05 343.2021484375 356.794140625 343.35 361.4 343.3484375 361.4505859375 343.35 361.5 343.3685546875 361.92421875 343.4 362.35 343.6587890625 367.5515625 344.4 372 344.625 373.1875 344.85 374.35 344.9859375 375.0873046875 345.15 375.8 347.1 384.2 356 386.95 359.4 388 362.65 388.15 364.440625 388.234375 366.55 388.3 378.8875 388.825 391.2 389.35 396 389.15 405.65 388.8 409.6125 388.625 413.55 388.45 417.1517578125 388.2982421875 420.1 388.1 428.4 387.5 432.7 383.8 437.35 379.85 438.35 371.7 440.65 352.2 438.35 334.75 438.2029296875 333.669921875 438 332.65 437.275 330.125 436.55 327.55 435.34375 324.5759765625 433.45 322.7 433.41015625 322.6578125 433.35 322.6 433.3244140625 322.57578125 433.3 322.55 429.5 318.85 421.05 317.95 411.15 316.9 401.2 317 375.5 317.3 360.65 318.1 M 367.9 338.2 Q 369.75 336.35 373.75 336.3 393.75 335.9 409.1 336.35 413.1 336.5 414.75 338.05 416.4 339.65 416.7 343.7 417.45 352.65 416.85 362.4 416.65 365.75 415.1 367.3 413.6 368.8 410.15 369.35 407.85 369.7 404.75 369.85 401.1 370 399.3 370.1 397.65 370.15 395.2 370.15 L 391.1 370.1 Q 391.2 370.05 391.2 369.8 L 375.7 369.8 Q 374.25 369.8 371.65 369.25 368.8 368.6 367.35 367 365.8 365.3 365.7 362.45 365.4 350.75 365.8 344 366.05 340 367.9 338.2 M 116.15 250.65 Q 115.4685546875 250.2421875 114.6 249.9 112.35 248.95 109.1 248.3 105.41328125 247.544140625 102.55 248.4 L 97.7 251.55 Q 96.2708984375 253.3044921875 95.25 255.85 L 88.6 272.8 Q 88.3 273.53125 88 274.3 87.7787109375 274.884765625 87.6 275.45 L 87.2 277.25 87.35 280.8 Q 87.7439453125 282.55234375 88.8 284.1 89.4763671875 285.0912109375 90.3 285.85 L 96.75 288.4 Q 96.840625 288.4197265625 96.9 288.4 97.098046875 288.4427734375 97.25 288.45 97.4640625 288.446875 97.65 288.45 101.3 288.5 104.15 286.7 107.05 284.85 109.35 280.9 110.2375 279.346875 111.05 277.75 L 118.15 258.2 Q 118.349609375 257.5357421875 118.5 256.85 118.6244140625 256.295703125 118.65 255.75 L 118.65 254.8 118.6 254.2 Q 118.356640625 252.66875 117.2 251.55 L 116.15 250.65 M 155.55 217.55 Q 152.95 216.9 152.4 216.8 145.3 215.55 141.6 217.4 137.75 219.3 135 225.7 131.8 233.15 127.8 243.25 L 120.95 261 Q 120.765625 261.4828125 120.55 262 L 119.4 265.1 Q 118.4875 267.63359375 117.45 270.55 L 115.3 276.7 Q 114.62578125 278.64453125 113.9 280.75 112.8798828125 283.8103515625 113.65 286 113.8294921875 286.5267578125 114.1 287 115.55 289.45 119.45 290.2 120.9 290.45 122.9 290.65 124 290.75 125.6 290.9 L 136.35 288.9 Q 137.3375 288.49375 138.2 287.95 139.17421875 287.334765625 140 286.55 L 144.35 280.45 144.8 279.4 Q 145.0087890625 278.8990234375 145.2 278.35 148.45 268.9 153.7 254.4 161.4 233.1 162.3 230.5 162.7083984375 229.3490234375 162.9 228.25 L 163.1 226.25 162.85 224.25 Q 162.625390625 223.2611328125 162.15 222.35 160.35 218.9 155.55 217.55 M 103.25 130.65 Q 103.2244140625 130.6744140625 103.2 130.7 102.85 131.65 102.15 133.3 102.0474609375 133.5818359375 101.95 133.85 102.069140625 133.558203125 102.2 133.25 103.1 131.05 103.25 130.65 M 98.7 135.85 Q 99.8275390625 134.3716796875 100.95 133.05 99.8125 134.34140625 98.7 135.8 96.95 138.15 94.6 141.85 L 94.6 141.85 Q 97.011328125 138.1345703125 98.7 135.85 M 181.95 145.8 Q 177.7 142.65 175.4 141.4 169.8 138.3 161.6 135.35 152.1 132.15 147.35 130.5 146.8052734375 130.318359375 146 130.25 145.75 130.2625 145.45 130.25 145.4375 130.25 145.4 130.25 145.25 130.25 143.35 130.4 142.2 130.5 138.5 131 135.5 131.45 133.65 131.55 131.63671875 131.67421875 127.2 131.8 126.033984375 131.863671875 124.7 131.9 120.904296875 132.0197265625 115.75 132.15 111.3 132.25 109.2 135.85 107.05 139.45 108.6 142.5 110.15 145.5 114.65 146.5 123.7 148.5 134.1 146.85 135.1875 146.6875 136.25 146.5 139.2 146.1375 140.25 146.1 143.65 146.05 146.3 147.45 146.7 147.65 147.45 147.7 147.75 147.7 148.3 147.7 L 184.35 148.75 Q 184.31640625 148.703125 184.25 148.65 L 184.25 148.6 Q 184.0625 148.3625 183.85 148.1 183.348828125 147.3552734375 183.1 147 182.8869140625 146.737890625 182.7 146.5 182.29609375 146.0421875 181.95 145.8 M 242.1 318.25 Q 237.8 317.95 234.45 317.95 213.75 317.9 172.3 317.9 172.2 317.9 169.7 318.1 L 169.7 387.8 169.85 387.8 169.85 387.95 191.3 387.95 191.3 370.5 217.25 370.5 Q 222.1 370.5 228.15 370.8 230.9 370.95 232.15 372 232.24609375 372.0884765625 232.3 372.15 233.384765625 373.35625 233.65 375.7 233.9 377.5 233.95 380.15 234 381.65 234.05 384.65 234.1 385.7 234.3 387.9 L 234.4 387.9 Q 234.442578125 387.97421875 234.45 388.05 237.1125 387.99375 240.7 387.9 L 255.3 387.9 Q 255.387109375 387.72578125 255.6 387.3 L 255.6 387.3 Q 255.6224609375 387.25546875 255.65 387.2 255.8 386.95 255.8 386.8 255.75 381.05 255.7 378.2 255.65 373.15 255.35 369.65 255.29296875 368.965625 255.15 368.3 254.7322265625 366.02265625 253.25 364.3 251.45 362.25 248.4 361.2 247.4734375 360.8630859375 246.7 360.6 255.8033203125 357.8140625 256.15 348.85 256.5 339.3 256.05 332 255.9408203125 330.2203125 255.45 328.6 L 254.3 325.8 253.2 324.1 Q 252.5173828125 323.1734375 251.65 322.35 247.8 318.55 242.1 318.25 M 233.2 337.6 Q 234.55 338.95 234.55 342.9 234.6 349 233.3 350.4 231.9 351.85 225.85 351.95 218.75 352.1 208.85 352.1 197.35 352.05 191.5 352.05 L 191.5 336.3 Q 193.95 336 194.25 336 205.45 336.05 227.95 336.2 231.85 336.25 233.2 337.6 M 76.15 326.75 L 75.05 329.7 Q 74.580078125 331.3162109375 74.4 333.15 72.55 353.25 74.4 373.45 74.85 378.35 77.6 381.75 80.4 385.1 85.2 386.4 91.85 388.2 98.85 388.6 109.15 389.1 124.7 389.1 132.75 389.15 137.65 388.85 144.75 388.4 150.45 387.05 153.65 386.3 155.8 385.05 158.4 383.55 159.9 381.1 160.1421875 380.710546875 160.35 380.3 L 161.4 378.05 Q 161.9625 376.0125 162.5 373.95 162.79609375 372.5568359375 162.9 371.05 163.05 369.05 162.7 360.65 L 141.15 360.65 141.15 360.7 141.1 360.7 Q 141 361.3 140.75 363.25 140.55 364.75 140.35 365.65 140.0958984375 367.061328125 139.6 368 139.2958984375 368.6744140625 138.85 369.1 137.65 370.2 135.35 370.25 114.45 370.45 102.7 370.2 97.1 370.15 96.25 364.05 94.65 352.15 96.5 341 96.7958984375 339.2646484375 97.65 338.05 98.9794921875 336.330078125 101.6 335.8 103.85 335.3 105.35 335.3 114 335.25 131.25 335.35 132.1 335.35 133.3 335.55 133.5 335.55 135.25 335.85 137.55 336.2 138.45 337.2 139.35 338.15 139.6 340.5 L 139.9 343.45 Q 141.7375 343.425 144.05 343.35 L 162 343.35 Q 161.75 338.95 161.6 336.85 161.5375 335.9375 161.45 335 161.3125 332.425 161.05 330.55 160.25 325.65 157.2 322.6 154.25 319.6 149.3 318.55 142.1 317.05 137.75 317 118.45 316.65 103.7 317.05 96.15 317.3 86.65 319.15 81.2 320.25 78.05 323.9 77.4728515625 324.571875 77 325.3 76.575 326.05 76.15 326.75 M 150.05 275.25 Q 149.9234375 275.6126953125 149.8 275.95 149.1119140625 278.7095703125 150.85 281.25 152.75 284.05 156.1 284.05 160.2 284.15 165 282.9 168.2 282.1 173.5 280.1 175.35 279.4 176.55 278.05 177.75 276.75 178.4 274.75 185.05 254.7 188.4 244.7 188.765625 243.596875 189.1 242.5 193.7 228.525 198.3 214.55 199.1955078125 211.6646484375 198.65 206.8 L 198.65 206.75 Q 198.4 205.775 198.15 204.8 197.758203125 203.8587890625 197.05 203.1 195.7 201.6 193.5 201.05 193.046875 200.9494140625 191.95 200.75 190.5125 200.4625 189.05 200.15 187.350390625 199.84375 185 199.4 179.85 199.6 176.9 201.5 176.8046875 201.5625 176.7 201.6 176.6091796875 201.6880859375 176.5 201.75 174.5125 204.3625 172.5 206.95 172.2611328125 207.4720703125 172.05 208 170.75 211.35 169.3 215.8 168.95 216.75 166.75 223.7 166.59765625 224.0427734375 166.55 224.55 L 166.55 225.7 166.5 225.95 Q 166.5125 226.05 166.5 226.1 166.4625 226.3375 166.4 226.6 L 166.2 228.95 Q 165.95 230.6 165.6 231.7 164.4 235.05 150.05 275.25 M 212.85 189.5 Q 209.15 190.15 207.6 193.35 204.9 199.15 203.95 201.95 202.25 206.85 202.3 211.2 202.4 213.05 201.5 215.7 197.45 228.35 187.65 258.1 186.8 260.75 187.5 262.6 188.2 264.5 190.5 266 190.8998046875 266.2666015625 191.3 266.5 L 192.6 267.1 196.15 267.9 Q 198.0599609375 268.133203125 200.25 267.85 204.55 267.3 209 265.3 212.7 263.7 216.95 260.85 222.55 257.15 226 253.55 228 251.5 228.1 249 228.2 246.6 226.6 244.1 L 226.55 244.1 Q 225.9783203125 244.187109375 225.45 244.2 223.375390625 244.1830078125 222.15 242.8 222.0984375 242.7578125 222.05 242.7 220.95 241.35 220.2 238.1 223.2228515625 226.848046875 225.45 218.55 226.133984375 215.991796875 226.75 213.7 228.025 208.8875 229.3 204.05 230.125 200.99921875 230.65 199 231.45 195.95 230.9 192.55 230.4955078125 189.853515625 228.6 188.4 228.405078125 188.219921875 228.15 188.05 225.95 186.6 222.95 187.25 216.25 188.85 212.85 189.5 M 340.35 334.85 L 340.5 334.85 340.5 318.2 263.35 318.2 263.35 318.25 263.2 318.25 263.2 387.8 340.75 387.8 340.75 387.7 340.85 387.7 340.85 370.3 285.05 370.3 Q 285.0125 369.025 284.95 367.25 L 284.95 360.15 330.3 360.15 Q 334.21875 360.23125 337.5 360.25 L 337.5 360.15 337.6 360.15 337.6 344.15 285.05 344.15 285.05 334.95 340.35 334.95 340.35 334.85 M 402.05 122.1 Q 401.3015625 121.271875 400.55 120.45 389.5609375 124.3224609375 382.5 126.8 381.075 127.3 379.65 127.8 378.3037109375 128.2439453125 377.1 128.65 363.15 133.6 356.2 136.05 343.9 140.35 335.25 143.3 330.5 144.9 330.1 146.6 329.871484375 147.46328125 330.65 148.75 331.9375 150.225 333.2 151.7 333.22421875 151.725390625 333.25 151.75 L 364.95 182.05 Q 405.1 220.4 416.4 231.15 418.75 233.35 422.15 234.55 423.41328125 234.9587890625 425.35 235.55 426.675 235.9625 427.95 236.35 430.1486328125 237.050390625 432.9 237.9 433.02421875 237.937890625 433.15 237.95 433.2228515625 237.997265625 433.3 238 433.36328125 238.0443359375 433.4 238.05 437.1625 239.2 440.9 240.3 442.2783203125 240.7541015625 443.75 241.2 446.7 242.1 453.75 244.2 L 453.75 244.15 Q 451.5109375 213.9876953125 441.75 187.4 440.075 183.1125 438.35 178.8 438.1193359375 178.178515625 437.85 177.55 437.476171875 176.680859375 437.05 175.8 420.6125 150.15 404.15 124.45 403.8177734375 124.08984375 403.45 123.7 402.767578125 122.900390625 402.05 122.1 M 186.9 273.1 Q 186.889453125 273.1279296875 186.85 273.15 188.37578125 273.507421875 191.1 274.3 193.55 274.9 195.2 275.15 204.35 276.2 213.3 271.3 221.3 267 227.65 262.4 228.0587890625 262.108984375 228.45 261.8 228.0796875 262.0798828125 227.7 262.35 221.2 267 213.35 271.25 204.25 276.2 195.25 275.05 193.65 274.9 191.15 274.25 188.4 273.45 186.9 273.1 M 147.75 289.5 Q 147.722265625 289.533203125 147.7 289.55 155.823828125 292.5451171875 164.55 290.75 171.1 289.35 180.05 284.6 180.4607421875 284.3775390625 180.85 284.05 180.4830078125 284.342578125 180.1 284.55 171.15 289.3 164.55 290.7 155.8 292.5 147.75 289.5 M 81 284.9 Q 82.75 290.35 87.85 293.2 98 299.05 108.75 292.55 112.5 296.45 118.2 297.55 121.4 298.15 128.8 298 131.40625 297.9669921875 133.75 297.5 131.42890625 297.9177734375 128.85 297.95 121.55 298.1 118.25 297.45 112.55 296.35 108.8 292.5 98.05 299 87.95 293.15 82.85 290.3 81.05 284.85 79.7 280.7 80 273.7 L 59.2 276.15 59.2 276.2 79.95 273.75 Q 79.65 280.75 81 284.9 M 448.3 302.55 Q 448.480078125 301.5171875 448.65 300.55 448.4451171875 301.5626953125 448.25 302.65 448.051953125 303.5412109375 447.3 306.05 L 447.35 306.05 Q 448.15 303.35 448.3 302.55 M 332.75 275 Q 336.5849609375 275.7794921875 339.5 274.25 336.597265625 275.69609375 332.8 274.9 328.4 274.05 326.95 273.6 321.3 271.85 315.45 273.65 313.3 274.35 309.4 275.3 305.05 276.35 303.35 276.8 301.85 277.25 300.4 277 299.15 276.75 297.7 275.9 264.2 256.15 247.65 246 244.85 244.3 241.55 244.4 239.95 244.45 235.5 245.35 235.4970703125 245.3958984375 235.5 245.45 239.8580078125 244.4998046875 241.45 244.45 244.75 244.35 247.6 246.1 257.4 252.1 272.6 261.1 294.95 274.35 297.65 275.95 299.1 276.8 300.35 277.05 301.8 277.3 303.3 276.9 304.95 276.45 309.4 275.35 313.2 274.4 315.4 273.75 321.25 271.95 326.9 273.7 328.35 274.15 332.75 275 M 346.15 267.85 L 357.75 271.45 Q 363 273.1 368.35 270.55 368.992578125 270.2521484375 369.6 269.95 369.012109375 270.222265625 368.4 270.5 363.15 272.95 357.8 271.35 L 346.2 267.75 Q 343.9685546875 270.0291015625 342.9 271.3 343.775390625 270.3564453125 346.15 267.85 M 451.65 251.85 L 451.6 251.95 Q 453.0041015625 251.8068359375 453.45 252.55 453.75 253.05 453.75 254.35 453.65 257.5 453.6 263.9 453.45 269.55 453 273.35 452.8330078125 274.6966796875 452.65 276.15 452.87734375 274.643359375 453.05 273.25 453.5 269.45 453.65 263.8 453.7 257.4 453.8 254.25 453.9 253 453.6 252.5 453.1 251.7 451.65 251.85 M 417.95 268.5 Q 424.25 266.5 433.1 263.6 438.15 261.95 448.2 258.6 448.8 258.35 450.1 257.8 L 450.1 257.75 Q 448.496875 258.4505859375 448.25 258.5 423.05 266.8 418 268.4 412.05 270.3 404.8 269.4 400.8 268.9 396.75 267 393.45 265.35 389.65 262.5 388.65 261.7 386.95 260.5 384.55 258.9 384.1 258.55 381.4 262.7 377 265.8 376.597265625 266.083203125 376.15 266.35 376.574609375 266.1103515625 376.95 265.85 381.35 262.8 384.05 258.65 388.85 262 389.6 262.55 393.35 265.4 396.7 267.05 400.7 269 404.75 269.5 412.1 270.4 417.95 268.5 M 392.4 112.8 Q 392.795703125 113.195703125 394.25 114.85 L 394.45 114.8 Q 393.05 113.2 392.55 112.75 362.45 84.3 324 70.2 285 56 244.4 58.55 225.45 59.8 209.4 63.75 152.5 77.8 112.2 120 110.3 122 107.7 125.2 106.25 126.95 103.4 130.5 103.4646484375 130.4580078125 103.5 130.4 106.25703125 126.9916015625 107.7 125.25 110.3 122.1 112.25 120.05 152.5 77.85 209.45 63.8 225.95 59.75 244.4 58.65 284.9 56.05 323.9 70.3 362.3 84.35 392.4 112.8 M 333.15 132.95 Q 333.2078125 132.688671875 333.25 132.4 L 330.4 131.45 Q 328.75 130.9 327.7 130.95 320.85 131 314.8 127.25 312.9 126.05 310.8 125.9 308.8 125.8 306.45 126.65 299.3 129.1 274.1 137.6 254.1 144.3 241.8 148.6 232.5 151.85 222.7 151.6 207.45 151.25 184.55 150.9 146.55 150.3 146.4 150.3 145.75 150.3 144.7 150.05 143.3 149.75 143 149.7 139.8 149.35 138.75 149.35 137.6 149.4 135.1 149.65 132.75 149.85 131.45 149.85 125.1 149.8 114.85 149.6 101.95 149.35 98.15 149.3 L 89.05 149.3 87.6 151.5 Q 72.95 175.2 65.4 201.65 64.8583984375 203.548828125 64.35 205.45 57.1798828125 232.801953125 57.95 262.1 57.9921875 262.6201171875 58 263.1 58.028125 263.7328125 58.05 264.35 58.1 265.25 58.5 266.55 58.7 267.3 59.15 268.75 L 83.6 265.8 88.65 253.2 Q 90.95 247.4 94.8 244.4 98.7 241.35 103.55 240.85 107.65 240.4 112.95 241.75 115.15 242.3 119.6 243.8 L 121.4 239.5 Q 126.7 227.2 129.25 220.95 131.75 214.95 136.45 212.05 141 209.15 147.45 209.4 150.5 209.5 155 210.25 156.0673828125 210.4173828125 157.6 210.65 158.014453125 210.7142578125 158.4 210.75 161.7861328125 211.3607421875 162.9 211.5 163.4640625 209.9734375 163.9 208.8 164.0375 208.4875 164.15 208.2 164.95 206.15 165.6 204.8 169.7 195.35 177.7 193.5 182.3 192.45 188.5 192.9 190.65 193.05 193.65 193.75 195.4 194.15 198.9 195 200 192.5 200.65 191.3 202.25 188.2 203.9 186.45 206.05 184.15 208.8 183.4 211.9 182.5 216.45 181.45 219.05 180.9 224.2 179.75 225.05 179.5 226.1 179.65 230.4 180.35 233.65 183.35 236.9 186.4 237.95 190.7 238.6130859375 193.3525390625 238.45 196.35 238.4423828125 196.51328125 238.4 196.65 238.4162109375 196.8384765625 238.4 197 238.3525390625 197.49453125 238.25 198 238.178125 198.787890625 238 199.6 237.6912109375 201.3203125 237.15 203.35 L 228.3 236.15 Q 228.28984375 236.1939453125 228.25 236.25 228.2650390625 236.298046875 228.25 236.35 228.1791015625 236.6693359375 228.1 237.05 228.04765625 237.6189453125 227.95 238.4 L 227.95 238.4 Q 227.962890625 238.4966796875 227.95 238.6 L 230 238.6 Q 232.25 238.3 236.7 237.65 240.7 237.15 243.5 236.85 245.8 236.65 247.35 237.55 254.75 241.85 265.8 248.4 L 301.7 269.75 Q 303.9 269.2 308.15 268.2 311.9 267.3 314.45 266.45 320.85 264.35 328.05 266.4 330.4 267.05 332.75 267.55 333.45 267.7 336 267.95 L 343.9 258.95 Q 344.2 259.05 351.4 261.5 355.85 263.05 358.8 264 361.6 265 363.25 264.45 370.85 261.85 375.45 257.5 377.3630859375 255.7736328125 377.6 254.1 377.6791015625 253.843359375 377.7 253.6 377.85 251.9 376.1 249.65 374.5 247.7 371 244.75 369.7 243.6 369.1 242.15 368.7060546875 241.111328125 368.55 239.65 368.553125 239.178515625 368.55 238.65 368.75 238.8 370.8 240 371.95 240.65 372.6 241.15 386.85 251.2 396.35 258.1 405.6 264.8 417.25 260.85 422.25 259.15 432.2 255.7 432.65 255.55 443.8 251.95 443.8 251.8486328125 443.8 251.75 443.8 249.95 442.95 248.9 442.15 248 440.5 247.45 426.85 243.2 419.95 241.2 415.25 239.85 411.55 236.35 L 344.95 172.75 Q 338.7 166.75 326.85 155.35 322.9916015625 151.64609375 322.95 147.25 322.9572265625 146.1130859375 323.25 144.9 325.2 143.2 329.35 139.9 332.51953125 136.874609375 333.15 132.95 Z"/>
<path fill="#0364A4" stroke="none" d="M 464.3 172 Q 447.7 131 416.65 99.2 385.65 67.4 345.1 49.8 303.1 31.6 256.9 31.4 211.45 31.2 169.7 48.6 129.35 65.45 98.1 96.3 66.75 127.3 49.45 167.6 31.55 209.4 31.4 255.4 31.25 300.85 48.55 342.4 65.3 382.5 95.9 413.65 126.5 444.7 166.25 462.05 207.3 479.95 252.3 480.55 298.15 481.4 340.25 464.35 380.75 447.95 412.3 417.25 443.75 386.75 461.45 346.85 479.7 305.7 480.6 260.5 481.45 214.4 464.3 172 M 333.25 132.4 Q 333.2078125 132.688671875 333.15 132.95 332.51953125 136.874609375 329.35 139.9 325.2 143.2 323.25 144.9 322.9572265625 146.1130859375 322.95 147.25 322.9916015625 151.64609375 326.85 155.35 338.7 166.75 344.95 172.75 L 411.55 236.35 Q 415.25 239.85 419.95 241.2 426.85 243.2 440.5 247.45 442.15 248 442.95 248.9 443.8 249.95 443.8 251.75 443.8 251.8486328125 443.8 251.95 432.65 255.55 432.2 255.7 422.25 259.15 417.25 260.85 405.6 264.8 396.35 258.1 386.85 251.2 372.6 241.15 371.95 240.65 370.8 240 368.75 238.8 368.55 238.65 368.553125 239.178515625 368.55 239.65 368.7060546875 241.111328125 369.1 242.15 369.7 243.6 371 244.75 374.5 247.7 376.1 249.65 377.85 251.9 377.7 253.6 377.6791015625 253.843359375 377.6 254.1 377.3630859375 255.7736328125 375.45 257.5 370.85 261.85 363.25 264.45 361.6 265 358.8 264 355.85 263.05 351.4 261.5 344.2 259.05 343.9 258.95 L 336 267.95 Q 333.45 267.7 332.75 267.55 330.4 267.05 328.05 266.4 320.85 264.35 314.45 266.45 311.9 267.3 308.15 268.2 303.9 269.2 301.7 269.75 L 265.8 248.4 Q 254.75 241.85 247.35 237.55 245.8 236.65 243.5 236.85 240.7 237.15 236.7 237.65 232.25 238.3 230 238.6 L 227.95 238.6 Q 227.962890625 238.4966796875 227.95 238.4 L 227.95 238.4 Q 228.04765625 237.6189453125 228.1 237.05 228.1791015625 236.6693359375 228.25 236.35 228.2650390625 236.298046875 228.25 236.25 228.28984375 236.1939453125 228.3 236.15 L 237.15 203.35 Q 237.6912109375 201.3203125 238 199.6 238.178125 198.787890625 238.25 198 238.3525390625 197.49453125 238.4 197 238.4162109375 196.8384765625 238.4 196.65 238.4423828125 196.51328125 238.45 196.35 238.6130859375 193.3525390625 237.95 190.7 236.9 186.4 233.65 183.35 230.4 180.35 226.1 179.65 225.05 179.5 224.2 179.75 219.05 180.9 216.45 181.45 211.9 182.5 208.8 183.4 206.05 184.15 203.9 186.45 202.25 188.2 200.65 191.3 200 192.5 198.9 195 195.4 194.15 193.65 193.75 190.65 193.05 188.5 192.9 182.3 192.45 177.7 193.5 169.7 195.35 165.6 204.8 164.95 206.15 164.15 208.2 164.0375 208.4875 163.9 208.8 163.4640625 209.9734375 162.9 211.5 161.7861328125 211.3607421875 158.4 210.75 158.014453125 210.7142578125 157.6 210.65 156.0673828125 210.4173828125 155 210.25 150.5 209.5 147.45 209.4 141 209.15 136.45 212.05 131.75 214.95 129.25 220.95 126.7 227.2 121.4 239.5 L 119.6 243.8 Q 115.15 242.3 112.95 241.75 107.65 240.4 103.55 240.85 98.7 241.35 94.8 244.4 90.95 247.4 88.65 253.2 L 83.6 265.8 59.15 268.75 Q 58.7 267.3 58.5 266.55 58.1 265.25 58.05 264.35 58.028125 263.7328125 58 263.1 57.9921875 262.6201171875 57.95 262.1 57.1798828125 232.801953125 64.35 205.45 64.8583984375 203.548828125 65.4 201.65 72.95 175.2 87.6 151.5 L 89.05 149.3 98.15 149.3 Q 101.95 149.35 114.85 149.6 125.1 149.8 131.45 149.85 132.75 149.85 135.1 149.65 137.6 149.4 138.75 149.35 139.8 149.35 143 149.7 143.3 149.75 144.7 150.05 145.75 150.3 146.4 150.3 146.55 150.3 184.55 150.9 207.45 151.25 222.7 151.6 232.5 151.85 241.8 148.6 254.1 144.3 274.1 137.6 299.3 129.1 306.45 126.65 308.8 125.8 310.8 125.9 312.9 126.05 314.8 127.25 320.85 131 327.7 130.95 328.75 130.9 330.4 131.45 L 333.25 132.4 M 394.25 114.85 L 394.3 114.9 341.35 133.45 Q 340.65 133.05 340.6 133 339.3 128 335.3 125.85 332.35 124.25 326.6 123.65 322.65 123.3 320.15 121.9 315.85 119.5 311.65 119.15 307.35 118.8 302.7 120.45 280 128.35 234.3 143.5 231.25 144.5 228.45 144.5 L 192.5 144 Q 192.4 144 190.35 143.85 184.95 137.85 176.4 133.6 171.4 131.15 160.35 127.25 157.9 126.5 156.8 126 152 123.95 147.2 123.4 142.4 122.8 137.15 123.75 132.75 124.6 127.2 124.85 123.5 125 117.05 125 113.25 125 110.35 126.05 108.0353515625 126.821484375 106.05 128.35 105.4130859375 128.8544921875 104.8 129.45 104.753125 129.496875 104.7 129.55 104.35 129.9 103.5 130.45 103.45 130.55 103.35 130.6 L 103.15 130.65 Q 103.35 130.55 103.5 130.45 L 103.5 130.4 Q 103.4646484375 130.4580078125 103.4 130.5 106.25 126.95 107.7 125.2 110.3 122 112.2 120 152.5 77.8 209.4 63.75 225.45 59.8 244.4 58.55 285 56 324 70.2 362.45 84.3 392.55 112.75 393.05 113.2 394.45 114.8 L 394.25 114.85 M 451.6 251.95 L 451.6 251.95 451.65 251.85 Q 453.1 251.7 453.6 252.5 453.9 253 453.8 254.25 453.7 257.4 453.65 263.8 453.5 269.45 453.05 273.25 452.87734375 274.643359375 452.65 276.15 452.0369140625 280.5890625 451.1 286.15 450.9955078125 286.8123046875 450.85 287.5 450.8427734375 287.74609375 450.8 288 450.74453125 288.3392578125 450.65 288.7 450.2603515625 291.2365234375 449.6 294.9 449.183203125 297.4564453125 448.65 300.55 448.480078125 301.5171875 448.3 302.55 448.15 303.35 447.35 306.05 L 447.3 306.05 Q 447.307421875 306.0748046875 447.3 306.1 445.30703125 306.09921875 443.25 306.05 L 64.65 306.05 Q 61.3666015625 294.4046875 59.6 280.25 59.3625 278.25 59.15 276.2 L 59.2 276.2 59.2 276.15 80 273.7 Q 79.7 280.7 81.05 284.85 82.85 290.3 87.95 293.15 98.05 299 108.8 292.5 112.55 296.35 118.25 297.45 121.55 298.1 128.85 297.95 131.42890625 297.9177734375 133.75 297.5 136.1158203125 297.114453125 138.2 296.3 140.976171875 295.2833984375 143.3 293.6 145.6783203125 291.8880859375 147.65 289.55 L 147.7 289.55 Q 147.722265625 289.533203125 147.75 289.5 155.8 292.5 164.55 290.7 171.15 289.3 180.1 284.55 180.4830078125 284.342578125 180.85 284.05 L 181.6 283.35 Q 181.83359375 283.1689453125 182.05 282.95 182.2455078125 282.7056640625 182.45 282.45 183.25 281.35 184.3 279.55 185 278.3 185.7 276.4 186.5 274.2 186.85 273.15 L 186.85 273.15 Q 186.889453125 273.1279296875 186.9 273.1 188.4 273.45 191.15 274.25 193.65 274.9 195.25 275.05 204.25 276.2 213.35 271.25 221.2 267 227.7 262.35 228.0796875 262.0798828125 228.45 261.8 L 230.45 260.05 Q 234.4103515625 256.0955078125 235.2 250.7 235.4412109375 248.9435546875 235.35 247 235.35 246.8 235.45 245.45 L 235.5 245.45 Q 235.4970703125 245.3958984375 235.5 245.35 239.95 244.45 241.55 244.4 244.85 244.3 247.65 246 264.2 256.15 297.7 275.9 299.15 276.75 300.4 277 301.85 277.25 303.35 276.8 305.05 276.35 309.4 275.3 313.3 274.35 315.45 273.65 321.3 271.85 326.95 273.6 328.4 274.05 332.8 274.9 336.597265625 275.69609375 339.5 274.25 340.462109375 273.7453125 341.3 273 341.687890625 272.6802734375 342 272.3 342.373828125 271.953515625 342.7 271.55 342.7904296875 271.44765625 342.9 271.3 343.9685546875 270.0291015625 346.2 267.75 L 357.8 271.35 Q 363.15 272.95 368.4 270.5 369.012109375 270.222265625 369.6 269.95 371.3548828125 269.120703125 372.85 268.3 372.990234375 268.24765625 373.1 268.15 373.1828125 268.13671875 373.25 268.1 373.3171875 268.06328125 373.35 268 374.9203125 267.1796875 376.15 266.35 376.597265625 266.083203125 377 265.8 381.4 262.7 384.1 258.55 384.55 258.9 386.95 260.5 388.65 261.7 389.65 262.5 393.45 265.35 396.75 267 400.8 268.9 404.8 269.4 412.05 270.3 418 268.4 423.05 266.8 448.25 258.5 448.496875 258.4505859375 450.1 257.75 L 451.6 251.95 M 400.55 120.45 Q 401.3015625 121.271875 402.05 122.1 402.767578125 122.900390625 403.45 123.7 403.8177734375 124.08984375 404.15 124.45 420.6125 150.15 437.05 175.8 437.476171875 176.680859375 437.85 177.55 438.1193359375 178.178515625 438.35 178.8 440.075 183.1125 441.75 187.4 451.5109375 213.9876953125 453.75 244.15 L 453.75 244.2 Q 446.7 242.1 443.75 241.2 442.2783203125 240.7541015625 440.9 240.3 437.1625 239.2 433.4 238.05 433.36328125 238.0443359375 433.3 238 433.2228515625 237.997265625 433.15 237.95 433.02421875 237.937890625 432.9 237.9 430.1486328125 237.050390625 427.95 236.35 426.675 235.9625 425.35 235.55 423.41328125 234.9587890625 422.15 234.55 418.75 233.35 416.4 231.15 405.1 220.4 364.95 182.05 L 333.25 151.75 Q 333.22421875 151.725390625 333.2 151.7 331.9375 150.225 330.65 148.75 329.871484375 147.46328125 330.1 146.6 330.5 144.9 335.25 143.3 343.9 140.35 356.2 136.05 363.15 133.6 377.1 128.65 378.3037109375 128.2439453125 379.65 127.8 381.075 127.3 382.5 126.8 389.5609375 124.3224609375 400.55 120.45 M 340.5 334.85 L 340.35 334.85 340.35 334.95 285.05 334.95 285.05 344.15 337.6 344.15 337.6 360.15 337.5 360.15 337.5 360.25 Q 334.21875 360.23125 330.3 360.15 L 284.95 360.15 284.95 367.25 Q 285.0125 369.025 285.05 370.3 L 340.85 370.3 340.85 387.7 340.75 387.7 340.75 387.8 263.2 387.8 263.2 318.25 263.35 318.25 263.35 318.2 340.5 318.2 340.5 334.85 M 207.6 193.35 Q 209.15 190.15 212.85 189.5 216.25 188.85 222.95 187.25 225.95 186.6 228.15 188.05 228.405078125 188.219921875 228.6 188.4 230.4955078125 189.853515625 230.9 192.55 231.45 195.95 230.65 199 230.125 200.99921875 229.3 204.05 228.025 208.8875 226.75 213.7 226.133984375 215.991796875 225.45 218.55 223.2228515625 226.848046875 220.2 238.1 220.95 241.35 222.05 242.7 222.0984375 242.7578125 222.15 242.8 223.375390625 244.1830078125 225.45 244.2 225.9783203125 244.187109375 226.55 244.1 L 226.6 244.1 Q 228.2 246.6 228.1 249 228 251.5 226 253.55 222.55 257.15 216.95 260.85 212.7 263.7 209 265.3 204.55 267.3 200.25 267.85 198.0599609375 268.133203125 196.15 267.9 L 192.6 267.1 191.3 266.5 Q 190.8998046875 266.2666015625 190.5 266 188.2 264.5 187.5 262.6 186.8 260.75 187.65 258.1 197.45 228.35 201.5 215.7 202.4 213.05 202.3 211.2 202.25 206.85 203.95 201.95 204.9 199.15 207.6 193.35 M 149.8 275.95 Q 149.9234375 275.6126953125 150.05 275.25 164.4 235.05 165.6 231.7 165.95 230.6 166.2 228.95 L 166.4 226.6 Q 166.4625 226.3375 166.5 226.1 166.5125 226.05 166.5 225.95 L 166.55 225.7 166.55 224.55 Q 166.59765625 224.0427734375 166.75 223.7 168.95 216.75 169.3 215.8 170.75 211.35 172.05 208 172.2611328125 207.4720703125 172.5 206.95 174.5125 204.3625 176.5 201.75 176.6091796875 201.6880859375 176.7 201.6 176.8046875 201.5625 176.9 201.5 179.85 199.6 185 199.4 187.350390625 199.84375 189.05 200.15 190.5125 200.4625 191.95 200.75 193.046875 200.9494140625 193.5 201.05 195.7 201.6 197.05 203.1 197.758203125 203.8587890625 198.15 204.8 198.4 205.775 198.65 206.75 L 198.65 206.8 Q 199.1955078125 211.6646484375 198.3 214.55 193.7 228.525 189.1 242.5 188.765625 243.596875 188.4 244.7 185.05 254.7 178.4 274.75 177.75 276.75 176.55 278.05 175.35 279.4 173.5 280.1 168.2 282.1 165 282.9 160.2 284.15 156.1 284.05 152.75 284.05 150.85 281.25 149.1119140625 278.7095703125 149.8 275.95 M 75.05 329.7 L 76.15 326.75 Q 76.575 326.05 77 325.3 77.4728515625 324.571875 78.05 323.9 81.2 320.25 86.65 319.15 96.15 317.3 103.7 317.05 118.45 316.65 137.75 317 142.1 317.05 149.3 318.55 154.25 319.6 157.2 322.6 160.25 325.65 161.05 330.55 161.3125 332.425 161.45 335 161.5375 335.9375 161.6 336.85 161.75 338.95 162 343.35 L 144.05 343.35 Q 141.7375 343.425 139.9 343.45 L 139.6 340.5 Q 139.35 338.15 138.45 337.2 137.55 336.2 135.25 335.85 133.5 335.55 133.3 335.55 132.1 335.35 131.25 335.35 114 335.25 105.35 335.3 103.85 335.3 101.6 335.8 98.9794921875 336.330078125 97.65 338.05 96.7958984375 339.2646484375 96.5 341 94.65 352.15 96.25 364.05 97.1 370.15 102.7 370.2 114.45 370.45 135.35 370.25 137.65 370.2 138.85 369.1 139.2958984375 368.6744140625 139.6 368 140.0958984375 367.061328125 140.35 365.65 140.55 364.75 140.75 363.25 141 361.3 141.1 360.7 L 141.15 360.7 141.15 360.65 162.7 360.65 Q 163.05 369.05 162.9 371.05 162.79609375 372.5568359375 162.5 373.95 161.9625 376.0125 161.4 378.05 L 160.35 380.3 Q 160.1421875 380.710546875 159.9 381.1 158.4 383.55 155.8 385.05 153.65 386.3 150.45 387.05 144.75 388.4 137.65 388.85 132.75 389.15 124.7 389.1 109.15 389.1 98.85 388.6 91.85 388.2 85.2 386.4 80.4 385.1 77.6 381.75 74.85 378.35 74.4 373.45 72.55 353.25 74.4 333.15 74.580078125 331.3162109375 75.05 329.7 M 234.45 317.95 Q 237.8 317.95 242.1 318.25 247.8 318.55 251.65 322.35 252.5173828125 323.1734375 253.2 324.1 L 254.3 325.8 255.45 328.6 Q 255.9408203125 330.2203125 256.05 332 256.5 339.3 256.15 348.85 255.8033203125 357.8140625 246.7 360.6 247.4734375 360.8630859375 248.4 361.2 251.45 362.25 253.25 364.3 254.7322265625 366.02265625 255.15 368.3 255.29296875 368.965625 255.35 369.65 255.65 373.15 255.7 378.2 255.75 381.05 255.8 386.8 255.8 386.95 255.65 387.2 255.6224609375 387.25546875 255.6 387.3 L 255.6 387.3 Q 255.387109375 387.72578125 255.3 387.9 L 240.7 387.9 Q 237.1125 387.99375 234.45 388.05 234.442578125 387.97421875 234.4 387.9 L 234.3 387.9 Q 234.1 385.7 234.05 384.65 234 381.65 233.95 380.15 233.9 377.5 233.65 375.7 233.384765625 373.35625 232.3 372.15 232.24609375 372.0884765625 232.15 372 230.9 370.95 228.15 370.8 222.1 370.5 217.25 370.5 L 191.3 370.5 191.3 387.95 169.85 387.95 169.85 387.8 169.7 387.8 169.7 318.1 Q 172.2 317.9 172.3 317.9 213.75 317.9 234.45 317.95 M 175.4 141.4 Q 177.7 142.65 181.95 145.8 182.29609375 146.0421875 182.7 146.5 182.8869140625 146.737890625 183.1 147 183.348828125 147.3552734375 183.85 148.1 184.0625 148.3625 184.25 148.6 L 184.25 148.65 Q 184.31640625 148.703125 184.35 148.75 L 148.3 147.7 Q 147.75 147.7 147.45 147.7 146.7 147.65 146.3 147.45 143.65 146.05 140.25 146.1 139.2 146.1375 136.25 146.5 135.1875 146.6875 134.1 146.85 123.7 148.5 114.65 146.5 110.15 145.5 108.6 142.5 107.05 139.45 109.2 135.85 111.3 132.25 115.75 132.15 120.904296875 132.0197265625 124.7 131.9 126.033984375 131.863671875 127.2 131.8 131.63671875 131.67421875 133.65 131.55 135.5 131.45 138.5 131 142.2 130.5 143.35 130.4 145.25 130.25 145.4 130.25 145.4375 130.25 145.45 130.25 145.75 130.2625 146 130.25 146.8052734375 130.318359375 147.35 130.5 152.1 132.15 161.6 135.35 169.8 138.3 175.4 141.4 M 98.7 135.8 Q 99.8125 134.34140625 100.95 133.05 L 103.2 130.7 Q 103.2244140625 130.6744140625 103.25 130.65 103.1 131.05 102.2 133.25 102.069140625 133.558203125 101.95 133.85 101.490234375 135.137890625 101.2 136.05 101.147265625 136.2521484375 101.1 136.45 L 101 136.9 Q 100.846484375 137.741796875 100.7 138.85 100.5177734375 140.1517578125 100.35 141.85 L 100.35 141.9 94.6 141.9 Q 94.616015625 141.8748046875 94.6 141.85 L 94.6 141.85 Q 96.95 138.15 98.7 135.8 M 152.4 216.8 Q 152.95 216.9 155.55 217.55 160.35 218.9 162.15 222.35 162.625390625 223.2611328125 162.85 224.25 L 163.1 226.25 162.9 228.25 Q 162.7083984375 229.3490234375 162.3 230.5 161.4 233.1 153.7 254.4 148.45 268.9 145.2 278.35 145.0087890625 278.8990234375 144.8 279.4 L 144.35 280.45 140 286.55 Q 139.17421875 287.334765625 138.2 287.95 137.3375 288.49375 136.35 288.9 L 125.6 290.9 Q 124 290.75 122.9 290.65 120.9 290.45 119.45 290.2 115.55 289.45 114.1 287 113.8294921875 286.5267578125 113.65 286 112.8798828125 283.8103515625 113.9 280.75 114.62578125 278.64453125 115.3 276.7 L 117.45 270.55 Q 118.4875 267.63359375 119.4 265.1 L 120.55 262 Q 120.765625 261.4828125 120.95 261 L 127.8 243.25 Q 131.8 233.15 135 225.7 137.75 219.3 141.6 217.4 145.3 215.55 152.4 216.8 M 114.6 249.9 Q 115.4685546875 250.2421875 116.15 250.65 L 117.2 251.55 Q 118.356640625 252.66875 118.6 254.2 L 118.65 254.8 118.65 255.75 Q 118.6244140625 256.295703125 118.5 256.85 118.349609375 257.5357421875 118.15 258.2 L 111.05 277.75 Q 110.2375 279.346875 109.35 280.9 107.05 284.85 104.15 286.7 101.3 288.5 97.65 288.45 97.4640625 288.446875 97.25 288.45 97.098046875 288.4427734375 96.9 288.4 96.840625 288.4197265625 96.75 288.4 L 90.3 285.85 Q 89.4763671875 285.0912109375 88.8 284.1 87.7439453125 282.55234375 87.35 280.8 L 87.2 277.25 87.6 275.45 Q 87.7787109375 274.884765625 88 274.3 88.3 273.53125 88.6 272.8 L 95.25 255.85 Q 96.2708984375 253.3044921875 97.7 251.55 L 102.55 248.4 Q 105.41328125 247.544140625 109.1 248.3 112.35 248.95 114.6 249.9 M 356.25 318.75 Q 358.28671875 318.2212890625 360.65 318.1 375.5 317.3 401.2 317 411.15 316.9 421.05 317.95 429.5 318.85 433.3 322.55 433.3244140625 322.57578125 433.35 322.6 433.41015625 322.6578125 433.45 322.7 435.34375 324.5759765625 436.55 327.55 437.275 330.125 438 332.65 438.2029296875 333.669921875 438.35 334.75 440.65 352.2 438.35 371.7 437.35 379.85 432.7 383.8 428.4 387.5 420.1 388.1 417.1517578125 388.2982421875 413.55 388.45 409.6125 388.625 405.65 388.8 396 389.15 391.2 389.35 378.8875 388.825 366.55 388.3 364.440625 388.234375 362.65 388.15 359.4 388 356 386.95 347.1 384.2 345.15 375.8 344.9859375 375.0873046875 344.85 374.35 344.625 373.1875 344.4 372 343.6587890625 367.5515625 343.4 362.35 343.3685546875 361.92421875 343.35 361.5 343.3484375 361.4505859375 343.35 361.4 343.2021484375 356.794140625 343.4 347.05 343.3986328125 347.000390625 343.4 346.95 343.95 340.2375 344.5 333.5 344.5767578125 333.0896484375 344.65 332.65 344.6953125 332.3830078125 344.75 332.1 344.9125 331.3625 345.05 330.6 345.808984375 327.63984375 347.15 325.35 349.5564453125 319.919140625 356.25 318.75 M 373.75 336.3 Q 369.75 336.35 367.9 338.2 366.05 340 365.8 344 365.4 350.75 365.7 362.45 365.8 365.3 367.35 367 368.8 368.6 371.65 369.25 374.25 369.8 375.7 369.8 L 391.2 369.8 Q 391.2 370.05 391.1 370.1 L 395.2 370.15 Q 397.65 370.15 399.3 370.1 401.1 370 404.75 369.85 407.85 369.7 410.15 369.35 413.6 368.8 415.1 367.3 416.65 365.75 416.85 362.4 417.45 352.65 416.7 343.7 416.4 339.65 414.75 338.05 413.1 336.5 409.1 336.35 393.75 335.9 373.75 336.3 M 234.55 342.9 Q 234.55 338.95 233.2 337.6 231.85 336.25 227.95 336.2 205.45 336.05 194.25 336 193.95 336 191.5 336.3 L 191.5 352.05 Q 197.35 352.05 208.85 352.1 218.75 352.1 225.85 351.95 231.9 351.85 233.3 350.4 234.6 349 234.55 342.9 Z"/>
<path fill="#FDCC2F" stroke="none" d="M 100.95 133.05 Q 99.8275390625 134.3716796875 98.7 135.85 97.011328125 138.1345703125 94.6 141.85 94.616015625 141.8748046875 94.6 141.9 L 100.35 141.9 100.35 141.85 Q 100.5177734375 140.1517578125 100.7 138.85 100.846484375 137.741796875 101 136.9 L 101.1 136.45 Q 101.147265625 136.2521484375 101.2 136.05 101.490234375 135.137890625 101.95 133.85 102.0474609375 133.5818359375 102.15 133.3 102.85 131.65 103.2 130.7 L 100.95 133.05 M 433.1 263.6 Q 424.25 266.5 417.95 268.5 412.1 270.4 404.75 269.5 400.7 269 396.7 267.05 393.35 265.4 389.6 262.55 388.85 262 384.05 258.65 381.35 262.8 376.95 265.85 376.574609375 266.1103515625 376.15 266.35 374.9203125 267.1796875 373.35 268 373.3171875 268.06328125 373.25 268.1 373.1828125 268.13671875 373.1 268.15 372.990234375 268.24765625 372.85 268.3 371.3548828125 269.120703125 369.6 269.95 368.992578125 270.2521484375 368.35 270.55 363 273.1 357.75 271.45 L 346.15 267.85 Q 343.775390625 270.3564453125 342.9 271.3 342.7904296875 271.44765625 342.7 271.55 342.373828125 271.953515625 342 272.3 341.687890625 272.6802734375 341.3 273 340.462109375 273.7453125 339.5 274.25 336.5849609375 275.7794921875 332.75 275 328.35 274.15 326.9 273.7 321.25 271.95 315.4 273.75 313.2 274.4 309.4 275.35 304.95 276.45 303.3 276.9 301.8 277.3 300.35 277.05 299.1 276.8 297.65 275.95 294.95 274.35 272.6 261.1 257.4 252.1 247.6 246.1 244.75 244.35 241.45 244.45 239.8580078125 244.4998046875 235.5 245.45 L 235.45 245.45 Q 235.35 246.8 235.35 247 235.4412109375 248.9435546875 235.2 250.7 234.4103515625 256.0955078125 230.45 260.05 L 228.45 261.8 Q 228.0587890625 262.108984375 227.65 262.4 221.3 267 213.3 271.3 204.35 276.2 195.2 275.15 193.55 274.9 191.1 274.3 188.37578125 273.507421875 186.85 273.15 L 186.85 273.15 Q 186.5 274.2 185.7 276.4 185 278.3 184.3 279.55 183.25 281.35 182.45 282.45 182.2455078125 282.7056640625 182.05 282.95 181.83359375 283.1689453125 181.6 283.35 L 180.85 284.05 Q 180.4607421875 284.3775390625 180.05 284.6 171.1 289.35 164.55 290.75 155.823828125 292.5451171875 147.7 289.55 L 147.65 289.55 Q 145.6783203125 291.8880859375 143.3 293.6 140.976171875 295.2833984375 138.2 296.3 136.1158203125 297.114453125 133.75 297.5 131.40625 297.9669921875 128.8 298 121.4 298.15 118.2 297.55 112.5 296.45 108.75 292.55 98 299.05 87.85 293.2 82.75 290.35 81 284.9 79.65 280.75 79.95 273.75 L 59.2 276.2 59.15 276.2 Q 59.3625 278.25 59.6 280.25 61.3666015625 294.4046875 64.65 306.05 L 443.25 306.05 Q 445.30703125 306.09921875 447.3 306.1 447.307421875 306.0748046875 447.3 306.05 448.051953125 303.5412109375 448.25 302.65 448.4451171875 301.5626953125 448.65 300.55 449.183203125 297.4564453125 449.6 294.9 450.2603515625 291.2365234375 450.65 288.7 450.74453125 288.3392578125 450.8 288 450.8427734375 287.74609375 450.85 287.5 450.9955078125 286.8123046875 451.1 286.15 452.0369140625 280.5890625 452.65 276.15 452.8330078125 274.6966796875 453 273.35 453.45 269.55 453.6 263.9 453.65 257.5 453.75 254.35 453.75 253.05 453.45 252.55 453.0041015625 251.8068359375 451.6 251.95 L 451.6 251.95 450.1 257.75 450.1 257.8 Q 448.8 258.35 448.2 258.6 438.15 261.95 433.1 263.6 M 394.3 114.9 L 394.25 114.85 Q 392.795703125 113.195703125 392.4 112.8 362.3 84.35 323.9 70.3 284.9 56.05 244.4 58.65 225.95 59.75 209.45 63.8 152.5 77.85 112.25 120.05 110.3 122.1 107.7 125.25 106.25703125 126.9916015625 103.5 130.4 L 103.5 130.45 Q 104.35 129.9 104.7 129.55 104.753125 129.496875 104.8 129.45 105.4130859375 128.8544921875 106.05 128.35 108.0353515625 126.821484375 110.35 126.05 113.25 125 117.05 125 123.5 125 127.2 124.85 132.75 124.6 137.15 123.75 142.4 122.8 147.2 123.4 152 123.95 156.8 126 157.9 126.5 160.35 127.25 171.4 131.15 176.4 133.6 184.95 137.85 190.35 143.85 192.4 144 192.5 144 L 228.45 144.5 Q 231.25 144.5 234.3 143.5 280 128.35 302.7 120.45 307.35 118.8 311.65 119.15 315.85 119.5 320.15 121.9 322.65 123.3 326.6 123.65 332.35 124.25 335.3 125.85 339.3 128 340.6 133 340.65 133.05 341.35 133.45 L 394.3 114.9 M 103.35 130.6 Q 103.45 130.55 103.5 130.45 103.35 130.55 103.15 130.65 L 103.35 130.6 Z"/>
</g>
</defs>
<g transform="matrix(1,0,0,1,0,0)"><use xlink:href="#f0"/></g>
</svg>
