 <svg xmlns="http://www.w3.org/2000/svg" xmlns:xlink="http://www.w3.org/1999/xlink" width="100%" height="100%" viewBox="0 0 512 512"><defs><g id="l4"><path fill="#0BA3E2" stroke="none" d=" M 435.6 22.7 Q 428.55 15.65 418.6 15.65 L 93.85 15.65 Q 83.9 15.65 76.85 22.7 69.8 29.75 69.8 39.7 L 69.8 472.75 Q 69.8 482.7 76.85 489.75 83.85 496.75 93.85 496.75 L 418.6 496.75 Q 428.55 496.75 435.6 489.75 442.65 482.7 442.65 472.75 L 442.65 39.7 Q 442.65 29.75 435.6 22.7 Z"/></g><g id="l3"><path fill="#FFF" stroke="none" d=" M 430.85 27.45 Q 425.75 22.35 418.6 22.35 L 93.85 22.35 Q 86.65 22.35 81.55 27.45 76.5 32.5 76.5 39.7 L 76.5 472.75 Q 76.5 479.95 81.55 485.05 86.65 490.15 93.85 490.15 L 418.6 490.15 Q 425.75 490.15 430.85 485.05 435.95 479.95 435.95 472.75 L 435.95 39.7 Q 435.95 32.55 430.85 27.45 Z"/></g><g id="l2"><path fill="#0BA3E2" stroke="none" d=" M 338.3 451.45 Q 338.3 448.35 336.15 446.25 334 444.1 330.8 444.1 327.6 444.1 325.4 446.25 323.25 448.45 323.25 451.5 323.25 454.55 325.4 456.7 327.5 458.8 330.75 458.8 333.95 458.8 336.15 456.65 338.3 454.5 338.3 451.45 M 330.75 446.95 Q 332.6 446.95 333.85 448.25 335.05 449.55 335.05 451.5 335.05 453.4 333.9 454.7 332.7 456 330.8 456 328.9 456 327.7 454.7 326.5 453.35 326.5 451.45 326.5 449.5 327.6 448.25 328.8 446.95 330.75 446.95 M 355.95 455.2 Q 354.85 454.3 354.6 452.55 L 364.95 452.55 365 451.7 Q 365 448.45 363.3 446.35 361.45 444.1 358.2 444.1 355.25 444.1 353.3 446.25 351.35 448.35 351.35 451.45 351.35 454.7 353.4 456.8 355.5 458.8 358.6 458.8 362.1 458.8 364.35 456.15 L 362.45 454.5 Q 360.75 456.15 358.6 456.15 357.05 456.15 355.95 455.2 M 360.7 447.8 Q 361.65 448.8 361.8 450.45 L 354.55 450.45 Q 354.8 448.75 355.75 447.75 356.75 446.75 358.2 446.75 359.7 446.75 360.7 447.8 M 344.8 444.4 L 341.55 444.4 341.55 458.5 344.8 458.5 344.8 453.1 Q 344.8 450.35 346.15 448.95 347.4 447.55 349.6 447.55 L 349.8 447.55 349.8 444.1 Q 346.25 444 344.8 447.55 L 344.8 444.4 M 372.8 444.15 Q 370.65 444.15 369.25 445.3 367.8 446.5 367.8 448.45 L 367.8 448.5 Q 367.8 450.3 369.2 451.35 370.15 452.05 372.2 452.65 373.9 453.2 374.4 453.4 375.35 453.9 375.35 454.6 L 375.35 454.7 Q 375.35 455.4 374.8 455.8 374.2 456.2 373.15 456.2 370.8 456.2 368.55 454.45 L 367.05 456.65 Q 369.8 458.75 373.1 458.75 375.4 458.75 376.8 457.65 378.3 456.45 378.3 454.3 378.3 452.55 376.9 451.5 375.95 450.8 373.9 450.15 372.25 449.65 371.7 449.35 370.75 448.85 370.75 448.15 370.75 447.5 371.3 447.1 371.8 446.7 372.7 446.7 374.45 446.7 376.7 448.05 L 378 445.75 Q 375.6 444.15 372.8 444.15 M 158.25 444.4 L 155.05 444.4 155.05 458.5 158.25 458.5 158.25 444.4 M 154.9 442.2 L 158.35 442.2 158.35 439.15 154.9 439.15 154.9 442.2 M 137.7 439.8 L 134.1 439.8 141.85 458.6 144.75 458.6 152.5 439.8 149 439.8 143.35 454.15 137.7 439.8 M 209.65 447.95 Q 210.4 448.8 210.4 450.45 L 210.4 458.5 213.65 458.5 213.65 449.5 Q 213.65 447.05 212.35 445.55 211 444.1 208.65 444.1 205.9 444.1 204.25 446.55 L 204.25 444.4 201 444.4 201 458.5 204.25 458.5 204.25 450.55 Q 204.25 448.9 205.15 447.95 206 447.05 207.4 447.05 208.85 447.05 209.65 447.95 M 237.9 456.15 L 235.9 454.25 Q 234.2 456 232.25 456 230.45 456 229.2 454.7 228.05 453.4 228.05 451.45 228.05 449.55 229.15 448.25 230.35 446.95 232.1 446.95 234.15 446.95 235.75 448.7 L 237.75 446.55 Q 235.55 444.1 232.15 444.1 229 444.1 226.85 446.3 224.8 448.45 224.8 451.5 224.8 454.55 226.85 456.7 229 458.8 232.1 458.8 234.05 458.8 235.5 458.1 236.7 457.45 237.9 456.15 M 197.7 451.45 Q 197.7 448.35 195.6 446.25 193.45 444.1 190.2 444.1 187 444.1 184.85 446.25 182.7 448.45 182.7 451.5 182.7 454.55 184.85 456.7 186.95 458.8 190.15 458.8 193.4 458.8 195.6 456.65 197.7 454.5 197.7 451.45 M 193.3 448.25 Q 194.5 449.55 194.5 451.5 194.5 453.4 193.35 454.7 192.15 456 190.2 456 188.35 456 187.15 454.7 185.95 453.35 185.95 451.45 185.95 449.5 187.05 448.25 188.25 446.95 190.15 446.95 192.05 446.95 193.3 448.25 M 194.7 439.5 L 191.8 438.2 188.95 442.6 191.45 442.6 194.7 439.5 M 179.25 444.4 L 176 444.4 176 458.5 179.25 458.5 179.25 444.4 M 175.85 439.15 L 175.85 442.2 179.35 442.2 179.35 439.15 175.85 439.15 M 167 444.15 Q 164.85 444.15 163.5 445.3 162 446.5 162 448.45 L 162 448.5 Q 162 450.3 163.45 451.35 164.4 452.05 166.4 452.65 168.1 453.15 168.6 453.4 169.55 453.9 169.55 454.6 L 169.55 454.7 Q 169.55 455.4 169 455.8 168.4 456.2 167.4 456.2 165 456.2 162.75 454.45 L 161.3 456.65 Q 164 458.75 167.3 458.75 169.6 458.75 171.05 457.65 172.55 456.45 172.55 454.3 172.55 452.55 171.1 451.5 170.15 450.8 168.15 450.15 166.5 449.65 165.95 449.35 165 448.85 165 448.15 165 447.5 165.5 447.1 166 446.7 166.95 446.7 168.65 446.7 170.95 448.05 L 172.2 445.75 Q 169.85 444.15 167 444.15 M 247.15 458.8 Q 250.35 458.8 252.55 456.65 254.7 454.5 254.7 451.45 254.7 448.35 252.55 446.25 250.4 444.1 247.15 444.1 243.95 444.1 241.8 446.25 239.65 448.45 239.65 451.5 239.65 454.55 241.8 456.7 243.95 458.8 247.15 458.8 M 244.05 448.25 Q 245.25 446.95 247.15 446.95 249 446.95 250.25 448.25 251.45 449.55 251.45 451.5 251.45 453.4 250.3 454.7 249.1 456 247.15 456 245.35 456 244.1 454.7 242.9 453.35 242.9 451.45 242.9 449.5 244.05 448.25 M 261.2 444.4 L 257.95 444.4 257.95 458.5 261.2 458.5 261.2 450.55 Q 261.2 448.9 262.1 447.95 262.95 447.05 264.35 447.05 265.85 447.05 266.6 447.95 267.4 448.85 267.4 450.45 L 267.4 458.5 270.6 458.5 270.6 449.5 Q 270.6 447.05 269.3 445.55 268 444.1 265.6 444.1 262.85 444.1 261.2 446.55 L 261.2 444.4 M 319.8 439 L 316.55 439 316.55 458.5 319.8 458.5 319.8 439 M 306.35 444.15 Q 303.65 444.15 300.95 445.35 L 301.85 447.95 Q 303.95 447.05 305.85 447.05 307.55 447.05 308.45 447.85 309.35 448.65 309.35 450.05 L 309.35 450.45 Q 307.6 449.85 305.45 449.85 302.9 449.85 301.35 450.95 299.7 452.15 299.7 454.4 L 299.7 454.45 Q 299.7 456.45 301.25 457.7 302.65 458.8 304.75 458.8 307.65 458.8 309.35 456.75 L 309.35 458.5 312.5 458.5 312.5 450.15 Q 312.5 447.25 311 445.75 309.4 444.15 306.35 444.15 M 303.8 452.55 Q 304.65 451.95 306.15 451.95 308 451.95 309.4 452.5 L 309.4 453.4 Q 309.4 454.7 308.35 455.5 307.3 456.35 305.65 456.35 304.45 456.35 303.75 455.8 302.95 455.25 302.95 454.3 L 302.95 454.2 Q 302.95 453.15 303.8 452.55 M 299.75 439.8 L 296.2 439.8 290.55 454.15 284.95 439.8 281.3 439.8 289.1 458.6 291.95 458.6 299.75 439.8 M 310.1 328 L 288.95 388.55 267.7 328 238.8 328 276.65 424.35 300.65 424.35 338.5 328 310.1 328 M 229.2 328.05 L 203 328.05 203 424.4 229.2 424.4 229.2 328.05 M 145.15 388.55 L 123.95 328.05 95.05 328.05 132.9 424.3 156.85 424.3 194.7 328.05 166.3 328.05 145.15 388.55 M 377.65 328.05 L 352.7 328.05 312.95 424.4 340.15 424.4 346.85 407.3 382.8 407.3 389.65 424.4 417.35 424.4 377.65 328.05 M 364.95 359.45 L 375.35 386.65 354.4 386.65 364.95 359.45 Z"/></g><g id="l1"><path fill="#0BA3E2" stroke="none" d=" M 370.7 84.45 Q 360.55 74.4 347.35 69.1 334.6 64 320.75 63.95 306.85 64 294.1 69.1 280.9 74.4 270.7 84.45 L 262.4 93.35 254.1 84.45 Q 243.9 74.4 230.65 69.1 217.95 64 204.05 63.95 190.2 64 177.5 69.1 164.3 74.4 154.1 84.45 143.9 94.55 138.55 107.65 133.4 120.2 133.4 133.95 L 133.4 137.55 Q 133.5 150.1 135.7 159.7 139.5 176.35 150.4 194.9 164.1 218.05 188.65 242.95 218.1 272.75 262.35 304.2 L 262.35 304.25 262.4 304.2 Q 306.65 272.75 336.1 242.95 360.7 218.05 374.4 194.9 385.3 176.35 389.1 159.7 391.35 150.1 391.45 137.55 L 391.4 133.95 Q 391.4 120.2 386.2 107.65 380.85 94.55 370.7 84.45 Z"/></g><g id="l0"><path fill="#FFF" stroke="none" d=" M 392.65 109.8 L 387.25 109.8 Q 302.01171875 134.390625 263.1 198.15 254.8 211.75 247.95 228.15 233.5 159.6 203.25 109.45 196.85 98.75 189.25 88.6 181.655078125 78.34921875 174.2 70.4 L 146.8 70.4 146.75 92.85 Q 148.149609375 94.04296875 149.8 95.55 152.35 97.85 153.6 99.2 183.45 131.75 199.75 180.8 212.4162109375 219.0900390625 217.55 270.15 L 217.5 310.75 262.4 310.75 262.4 304.7 Q 267.15 246.6 289.7 205.3 316.05 157.15 364.9 135.5 376.4951171875 130.3787109375 390.9 124.95 L 392.65 124.95 392.65 109.8 M 241.9 122.2 Q 236.7 130.7 239 140.35 241.35 150.05 249.85 155.25 258.35 160.5 268 158.15 277.7 155.8 282.9 147.3 288.1 138.85 285.75 129.15 283.45 119.45 274.95 114.25 266.45 109.05 256.8 111.35 247.1 113.7 241.9 122.2 Z"/></g></defs><g transform="matrix(1,0,0,1,0,0)"><use xlink:href="#l4"/></g><g transform="matrix(1,0,0,1,0,0)"><use xlink:href="#l3"/></g><g transform="matrix(1,0,0,1,0,0)"><use xlink:href="#l2"/></g><g transform="matrix(1,0,0,1,0,0)"><use xlink:href="#l1"/></g><g transform="matrix(1,0,0,1,0,0)"><use xlink:href="#l0"/></g></svg> 