 <svg xmlns="http://www.w3.org/2000/svg" xmlns:xlink="http://www.w3.org/1999/xlink" width="100%" height="100%" viewBox="0 0 512 512"><defs><g id="l0"><path fill="#003895" stroke="none" d=" M 48.15 235.4 L 47.6 232.45 Q 46.3 228 44.95 220.3 44.4 217.35 44 215.1 32.05 243.2 32.05 276.25 32.05 337.55 73.1 381.95 L 73.1 365.65 Q 42.7 327.25 42.7 276.3 42.7 254.7 48.15 235.4 M 28.6 97.05 L 27.95 97.05 23 111.25 Q 23.6 112.3 25.05 113.65 25.7 114.25 27.95 115.95 31.7 118.95 32.2 120.65 31.45 120.75 31 121.05 30.65 121.25 30.25 121.8 31 124.15 31.7 128.15 32.5 133.25 32.85 134.85 33.9 139.2 35.65 148.4 37.4 157.55 38.5 162.2 40.2 169.55 43.25 184.65 43.5 185.75 43.7 186.85 46.5 200.3 48.05 207.1 48.8 210.3 50.4 219.3 51.75 226.85 53 231.15 L 57.6 255.55 Q 60 265.1 63.6 283.6 67.4 303 69.5 311.65 69.85 313.7 75.5 337.15 78.35 348.8 81.1 360.1 L 104.25 360.1 Q 91.7 308 86.8 293.2 L 57.45 186.3 49.2 157.95 46.9 148.35 Q 45.85 145.6 44.45 139.55 44.05 137.85 43.7 136.4 42.75 132.7 41.95 130.55 40.7 127.25 40 124.9 39 121.55 38.65 118.85 38.1 118.5 37.6 118.5 37.2 118.55 36.35 118.85 35.85 118.35 37.45 113.6 39.4 107.9 39.45 107.3 38.3 105.25 34.45 101.9 30.1 98.3 28.6 97.05 M 330.35 343.55 Q 328.85 343.3 327.5 343.05 L 319 342.4 Q 314.05 351.95 307.55 360.9 L 307.55 377.9 Q 321.55 361.8 330.35 343.55 M 114.95 402.6 Q 113.6 401.8 112.25 401 L 112.25 409.7 114.95 402.6 M 163.15 368.1 L 136.45 368.1 106.6 447.45 131.65 447.45 135.5 434.35 163.35 434.35 167.35 447.45 193 447.45 163.15 368.1 M 158.25 417.2 L 140.8 417.2 149.55 388.65 158.25 417.2 M 299.55 368.1 L 274.95 368.1 274.95 447.45 299.55 447.45 299.55 368.1 M 217.05 391.8 Q 221.5 385.1 229.85 385.1 233.55 385.1 236.5 386.6 239.5 388.1 241.55 390.95 242.8 392.6 243.9 396.25 L 265.55 391.4 Q 261.4 378.85 252.85 372.8 244.25 366.75 229.25 366.75 210.1 366.75 199.65 377.3 189.15 387.9 189.15 407.6 189.15 422.35 195.1 431.8 201.05 441.25 209.25 445.05 217.45 448.8 230.4 448.8 241.05 448.8 247.95 445.7 254.85 442.65 259.5 436.55 264.15 430.5 266.3 421.45 L 244.85 414.95 Q 243.2 422.5 239.65 426.45 236 430.4 229 430.4 221.7 430.4 217.7 425.5 213.7 420.6 213.7 407.45 213.7 396.75 217.05 391.8 M 51.25 368.1 L 28.35 368.1 28.35 447.45 51.4 447.45 51.4 403.85 81.1 447.45 104.25 447.45 104.25 368.1 81.1 368.1 81.1 412 51.25 368.1 M 475 368.1 L 451.9 368.1 451.9 412 422 368.1 399.1 368.1 399.1 447.45 422.15 447.45 422.15 403.85 451.9 447.45 475 447.45 475 368.1 M 380.05 377.4 Q 369.35 366.75 349.55 366.75 330.2 366.75 319.4 377.55 308.55 388.4 308.55 407.8 308.55 421.75 314 431 319.5 440.25 328.3 444.5 337.1 448.8 350.5 448.8 363.7 448.8 372.6 443.85 381.4 438.9 386.1 430 390.8 421.1 390.8 407.15 390.8 388 380.05 377.4 M 337.55 390.55 Q 342.05 385.3 349.5 385.3 357.2 385.3 361.75 390.5 366.25 395.65 366.25 406.85 366.25 420.15 361.95 425.3 357.6 430.45 349.7 430.45 342 430.45 337.55 425.2 333.05 419.95 333.05 407.95 333.05 395.8 337.55 390.55 M 340 363.25 L 350.55 363.25 368.05 347.1 349.1 347.1 340 363.25 M 345.8 111.4 Q 337.9 112.7 336 113.05 333.45 113.65 327.55 114.2 321.4 114.8 318.55 115.4 L 311.6 115.4 Q 309.3 115.85 306.2 116 302.6 116.15 300.4 115.7 298.4 115.3 293.7 115.05 289.05 114.85 286.85 114.4 275.85 112.15 270.65 110.8 262 108.65 255.7 106 250.05 103.6 239.8 98.25 229.2 92.8 223.85 90.45 213.7 86.1 199.45 83.9 185.8 81.85 170.75 82.05 L 152.95 83.4 Q 149.6 84 144.25 84.85 137 85.95 135.45 86.2 125.1 87.9 118.95 90.15 103.5 95.15 98.5 96.75 L 71.15 108.3 Q 59.4 114.4 53.35 117.5 L 46.75 121.5 Q 45.7 123.25 47.2 128.5 47.6 129.9 48.45 132.5 49.2 134.8 49.35 135.5 L 53.8 152 Q 55.7 155.85 59.85 163.05 64.2 170.7 66 174.25 75.7 193.25 83.1 219 88.6 238.2 94.9 269.1 L 98.85 300.75 Q 99.45 314.3 99.5 314.95 101.55 323.8 102 325.85 103.3 329.3 103.35 329.4 104.05 331.6 104.1 333.4 105.65 333.2 107.55 331.95 109.6 330.5 110.55 329.95 L 125.05 322.7 Q 133.8 318.55 145.85 314.65 151.4 312.85 168.1 308 171.6 307 177.45 306.4 184.3 305.65 187.25 305.05 191.5 304.15 197.9 303.9 201.75 303.75 209.7 303.75 L 217.95 303.75 Q 221.75 304.5 227.05 305.3 230 305.75 235.8 306.55 245.95 308.15 252.25 310.5 258.45 312.8 261.4 314 266.55 316.1 270.2 318.1 272.85 319.5 278.2 322.6 283.05 325.3 286.55 326.65 292.95 329.15 300.7 331.35 307.2 333.15 315.9 335.1 L 328.45 336.05 Q 336.7 337.7 350.95 336.65 362.65 335.8 372.3 333.75 385.25 331.5 387.5 331.1 406.4 326.5 424.35 319.9 441.8 313.45 457.9 305.2 461.6 303.35 469 299.7 475.4 296.5 479.5 293.65 479.25 291.6 475.35 286.1 473.25 283.15 472.3 281.85 470.7 279.55 470.1 278.5 459.2 258.45 451.65 242.55 444.55 227.65 438.3 207.85 433.15 191.6 428.05 170.45 L 424.1 150.35 Q 423.4 147.35 422.3 141.2 421.1 134.7 420.45 131.85 419.55 123.55 419.45 122.65 417.55 113.6 416.5 103.5 415.35 92.65 415.5 83.05 L 397.55 93.1 Q 388.45 97.45 376.95 101.7 368.6 104.85 355.15 109.25 351.6 110.45 345.8 111.4 M 360.5 166.8 Q 380.5 147.5 396.2 121.65 L 408.75 99.55 409.25 99.55 Q 409.25 103.65 408.85 114.2 408.65 123.85 409.6 128.55 L 409.6 133.5 Q 409.65 134.45 410.55 145.4 411.7 150.95 413.05 162.45 414.35 173.75 415.5 179.35 423.1 216.65 437.1 248.95 440.2 256.15 443.75 263 447.45 270.1 451.3 276.35 L 460.05 289.7 Q 458.65 291.6 455 293.4 450.85 295.3 449.15 296.3 443.65 299.5 436.85 302.7 431.55 305.2 423.75 308.5 413.65 312.8 401.05 316.5 391.1 319.4 376.25 322.85 L 361.4 324.85 355.5 324.85 Q 350.05 325.95 340.9 325.45 332.95 325.05 327.1 323.85 325.15 323.45 318.8 322.65 313.9 322 310.95 321.05 304 318.9 300.55 317.75 294.55 315.75 290.65 313.8 288.05 312.5 284.3 310.45 280.1 308.1 277.95 306.95 270.25 302.8 264.75 300.75 258.35 298.4 250.25 296.25 244.05 294.55 234.75 292.5 L 221.9 291.55 Q 220.5 291.25 216.95 291.4 213.35 291.55 211.65 291.2 207.45 290.35 199.75 291.1 193.9 291.65 188.25 292.85 185.8 293.35 182.5 293.8 178.7 294.3 176.85 294.55 170.15 295.45 166.15 297 L 145 303.55 Q 126.6 311.15 111.4 319.4 L 111.05 319.25 Q 111.5 317.4 112.8 314.95 114.6 311.5 114.85 311 117.75 304.3 122.45 296.05 127.95 286.65 130.7 281.95 137.95 269.5 146.95 258.2 156.75 245.9 167.8 236.05 193.35 213.35 221.55 207.1 227.25 205.8 233.55 205.25 239.3 204.75 246.95 204.75 L 255.2 204.75 Q 260.55 205.85 266.7 206.45 274.9 207.25 278.95 206.4 279.65 206.3 281.75 206.3 283.9 206.3 284.9 206.1 289.75 205.1 299.15 203.25 307 201.5 312.25 199.35 337.75 188.75 360.5 166.8 Z"/><path fill="#D42D11" stroke="none" d=" M 58.15 284.65 Q 54.55 266.35 52.2 256.9 L 48.15 235.4 Q 42.7 254.7 42.7 276.3 42.7 327.25 73.1 365.65 L 73.1 360.1 Q 73.1 358.75 73.05 357.95 72.95 356.25 72.65 354.95 71.45 350.55 71 348.55 70 344.4 68.3 335.25 66.8 327.15 65.75 322.9 L 65.65 322.45 Q 65.4 321.05 64 312.7 61.95 304 58.15 284.65 M 148 321.35 Q 136.55 325.05 128.2 329 L 113.85 336.15 Q 113.15 336.55 111.7 337.6 L 111.45 337.8 Q 108.45 339.8 105.9 340.3 107.05 343.9 107.75 346.05 108.05 347 108.25 347.65 108.8 349.5 109.2 351.05 L 112.25 360.1 112.25 360.2 112.3 360.35 112.25 360.35 112.25 401 Q 113.6 401.8 114.95 402.6 L 130.9 360.1 168.7 360.1 182.1 395.65 Q 184.6 380.75 193.95 371.65 206.3 358.7 229.25 358.75 247.2 358.7 257.45 366.25 L 257.5 366.25 Q 262.95 370.05 266.95 375.9 L 266.95 360.1 307.55 360.1 307.55 360.9 Q 314.05 351.95 319 342.4 L 314.85 342.05 314.4 341.95 Q 305.5 339.95 298.8 338.1 290.65 335.8 284 333.2 280.1 331.7 274.8 328.75 L 274.7 328.7 Q 269.45 325.65 266.9 324.25 263.5 322.45 258.75 320.5 255.85 319.35 249.8 317.1 244.05 315 234.75 313.5 L 234.7 313.5 Q 229 312.7 226 312.25 220.95 311.5 217.25 310.75 L 209.7 310.75 Q 201.95 310.75 198.15 310.9 192.5 311.15 188.7 311.95 L 188.65 311.95 Q 185.5 312.6 178.2 313.4 L 178.15 313.4 Q 173.1 313.9 170.1 314.75 L 170.05 314.75 Q 153.5 319.55 148 321.35 M 295.45 229.75 L 295.45 213.85 253.1 213.85 253.1 290.1 268.1 290.1 268.1 260.75 291.75 260.75 291.75 245.35 268.1 245.35 268.1 229.75 295.45 229.75 M 338.25 214.15 Q 333.7 212.25 329 212.25 325.75 212.25 322.8 213 319.85 213.8 317.2 215.3 314.55 216.85 312.3 218.95 310.05 221.1 308.15 223.8 306.25 226.5 304.8 229.7 303.35 232.85 302.35 236.45 301.35 240.05 300.85 243.9 300.3 247.85 300.3 251.95 300.3 256.1 300.85 260 301.35 263.9 302.35 267.5 303.35 271.05 304.8 274.25 306.25 277.4 308.15 280.1 310.05 282.85 312.3 284.9 314.55 287.1 317.2 288.55 319.85 290.1 322.8 290.85 325.75 291.7 329 291.7 332.65 291.7 339.15 289.55 L 343.5 287 347.3 283.45 Q 349.05 281.4 350.4 279 351.85 276.55 352.85 273.65 353.9 270.75 354.45 267.5 355.1 264.15 355.25 260.5 L 340.3 260.5 Q 340.05 263.8 339.2 266.4 338.35 269 336.9 270.85 335.4 272.65 333.35 273.6 331.3 274.6 328.7 274.6 325.2 274.6 322.5 272.65 320.05 270.85 318.4 267.5 316.8 264.45 316 260.25 315.3 256.4 315.3 251.95 315.3 247.55 316 243.65 316.8 239.45 318.4 236.4 320.05 233.05 322.5 231.25 325.2 229.35 328.7 229.35 331.05 229.35 333 230.05 335 230.85 336.55 232.3 338.1 233.85 339 236 339.95 238.2 340.3 241.1 L 355.25 241.1 Q 355.2 237.7 354.5 234.55 353.9 231.55 352.7 228.8 351.2 225.25 346.6 219.75 342.95 216.15 338.25 214.15 M 412.65 290.1 L 412.65 213.85 398.5 213.85 398.5 260.85 398.35 260.85 378.4 213.85 363 213.85 363 290.1 377.1 290.1 377.1 242.6 377.25 242.6 397.2 290.1 412.65 290.1 Z"/><path fill="#FFF" stroke="none" d=" M 396.2 121.65 Q 380.5 147.5 360.5 166.8 337.75 188.75 312.25 199.35 307 201.5 299.15 203.25 289.75 205.1 284.9 206.1 283.9 206.3 281.75 206.3 279.65 206.3 278.95 206.4 274.9 207.25 266.7 206.45 260.55 205.85 255.2 204.75 L 246.95 204.75 Q 239.3 204.75 233.55 205.25 227.25 205.8 221.55 207.1 193.35 213.35 167.8 236.05 156.75 245.9 146.95 258.2 137.95 269.5 130.7 281.95 127.95 286.65 122.45 296.05 117.75 304.3 114.85 311 114.6 311.5 112.8 314.95 111.5 317.4 111.05 319.25 L 111.4 319.4 Q 126.6 311.15 145 303.55 L 166.15 297 Q 170.15 295.45 176.85 294.55 178.7 294.3 182.5 293.8 185.8 293.35 188.25 292.85 193.9 291.65 199.75 291.1 207.45 290.35 211.65 291.2 213.35 291.55 216.95 291.4 220.5 291.25 221.9 291.55 L 234.75 292.5 Q 244.05 294.55 250.25 296.25 258.35 298.4 264.75 300.75 270.25 302.8 277.95 306.95 280.1 308.1 284.3 310.45 288.05 312.5 290.65 313.8 294.55 315.75 300.55 317.75 304 318.9 310.95 321.05 313.9 322 318.8 322.65 325.15 323.45 327.1 323.85 332.95 325.05 340.9 325.45 350.05 325.95 355.5 324.85 L 361.4 324.85 376.25 322.85 Q 391.1 319.4 401.05 316.5 413.65 312.8 423.75 308.5 431.55 305.2 436.85 302.7 443.65 299.5 449.15 296.3 450.85 295.3 455 293.4 458.65 291.6 460.05 289.7 L 451.3 276.35 Q 447.45 270.1 443.75 263 440.2 256.15 437.1 248.95 423.1 216.65 415.5 179.35 414.35 173.75 413.05 162.45 411.7 150.95 410.55 145.4 409.65 134.45 409.6 133.5 L 409.6 128.55 Q 408.65 123.85 408.85 114.2 409.25 103.65 409.25 99.55 L 408.75 99.55 396.2 121.65 M 412.65 213.85 L 412.65 290.1 397.2 290.1 377.25 242.6 377.1 242.6 377.1 290.1 363 290.1 363 213.85 378.4 213.85 398.35 260.85 398.5 260.85 398.5 213.85 412.65 213.85 M 329 212.25 Q 333.7 212.25 338.25 214.15 342.95 216.15 346.6 219.75 351.2 225.25 352.7 228.8 353.9 231.55 354.5 234.55 355.2 237.7 355.25 241.1 L 340.3 241.1 Q 339.95 238.2 339 236 338.1 233.85 336.55 232.3 335 230.85 333 230.05 331.05 229.35 328.7 229.35 325.2 229.35 322.5 231.25 320.05 233.05 318.4 236.4 316.8 239.45 316 243.65 315.3 247.55 315.3 251.95 315.3 256.4 316 260.25 316.8 264.45 318.4 267.5 320.05 270.85 322.5 272.65 325.2 274.6 328.7 274.6 331.3 274.6 333.35 273.6 335.4 272.65 336.9 270.85 338.35 269 339.2 266.4 340.05 263.8 340.3 260.5 L 355.25 260.5 Q 355.1 264.15 354.45 267.5 353.9 270.75 352.85 273.65 351.85 276.55 350.4 279 349.05 281.4 347.3 283.45 L 343.5 287 339.15 289.55 Q 332.65 291.7 329 291.7 325.75 291.7 322.8 290.85 319.85 290.1 317.2 288.55 314.55 287.1 312.3 284.9 310.05 282.85 308.15 280.1 306.25 277.4 304.8 274.25 303.35 271.05 302.35 267.5 301.35 263.9 300.85 260 300.3 256.1 300.3 251.95 300.3 247.85 300.85 243.9 301.35 240.05 302.35 236.45 303.35 232.85 304.8 229.7 306.25 226.5 308.15 223.8 310.05 221.1 312.3 218.95 314.55 216.85 317.2 215.3 319.85 213.8 322.8 213 325.75 212.25 329 212.25 M 295.45 213.85 L 295.45 229.75 268.1 229.75 268.1 245.35 291.75 245.35 291.75 260.75 268.1 260.75 268.1 290.1 253.1 290.1 253.1 213.85 295.45 213.85 Z"/></g></defs><g transform="matrix(1,0,0,1,0,0)"><use xlink:href="#l0"/></g></svg> 