<svg xmlns="http://www.w3.org/2000/svg" xmlns:xlink="http://www.w3.org/1999/xlink" width="100%" height="100%" viewBox="0 0 512 512">
<defs>
<g id="l0">
<path fill="#2B619D" stroke="none" d="M 24.8 324.65 L 24.8 329.9 104.4 329.9 110.2 329.9 110.2 324.65 104.4 324.65 24.8 324.65 M 35.95 182.5 Q 30.1 182.5 30.1 188.4 L 30.1 307.95 Q 30.1 313.8 35.95 313.8 L 56.85 313.8 Q 56.9 313.8 57.05 313.8 57.15 313.8 57.25 313.8 L 104.05 313.8 Q 109.95 313.8 109.95 307.95 L 109.95 294.15 Q 109.95 288.25 104.05 288.25 L 62.7 288.25 62.7 188.4 Q 62.7 182.5 56.85 182.5 L 35.95 182.5 M 192.45 182.5 Q 186.8 182.65 186.8 188.4 L 186.8 307.95 Q 186.8 313.7 192.45 313.8 L 239.9 313.8 Q 248.25 312.85 255 310.75 279.4 303.15 282.8 280.65 284.5 252.5 261.9 243.05 277.8 236.8 277.7 219.9 274.85 196.75 255 187.8 248.35 184.8 239.85 183.4 234.75 182.55 229.1 182.5 L 228 182.5 192.45 182.5 M 217.7 207.4 Q 223.45 207 228 207.5 233.05 208.05 236.65 209.7 243.65 212.9 243.95 219.85 243 227.3 236 230.7 232.6 232.35 228 232.9 223.45 233.4 217.7 232.9 L 217.7 207.4 M 228 258 Q 235 258.7 239.75 261 247.8 264.95 248.3 273.15 248 281.95 239.9 285.7 235.1 287.95 228 288.3 223.35 288.5 217.7 287.9 L 217.7 257.8 Q 223.35 257.55 228 258 M 160.1 225.3 L 157.45 225.3 160.1 203.85 165.4 202.35 165.4 201.5 165.4 200.65 164.35 200.9 164.35 200.15 165.6 189.8 Q 159.45 189.45 152.7 190.05 134.45 191.6 111.85 200 108.25 201.35 104.5 202.85 104.45 203 104.45 203.15 104.15 205.9 104.45 208.75 104.85 211.9 106 214.25 107.3 217.6 110.1 217.4 L 114.55 231.95 110.25 235.65 110.9 243.6 115.1 261.6 Q 115.1 261.7 115.2 261.8 118 270.9 118.45 280.25 119.1 294.75 114.2 313.15 L 146.25 313.15 151.15 273.55 164.25 265.05 164.25 257.5 166.95 253.8 164.25 248.4 164.25 247.7 164 246.8 165.15 245.65 162.4 234.95 165.7 231.55 160.1 225.3 M 131.75 221.75 Q 128.65 219.85 125.5 222.5 L 119.15 228 116 215.95 154.3 205.35 151.55 228.8 151.9 228.9 145.55 233 Q 139.35 235.75 137.95 238.9 L 136.35 247.95 138.05 248.65 Q 136.5 251.9 136 254.85 L 137.95 256.2 136.45 260.1 Q 136.05 263.05 139.1 262.5 136.7 265.7 136.5 268.6 136.35 271.05 145.65 271.25 L 141 309.7 139.25 309.7 126.55 258.7 Q 130 252.85 127.75 242.75 131.2 237.7 130.45 232.85 139.15 236.15 146.35 230.9 149.15 228.95 147.45 228.05 144.75 227.9 142.6 227.1 L 131.75 221.75 M 487.2 329.9 L 487.2 324.65 255 324.65 228 324.65 186.65 324.65 186.65 329.9 228 329.9 255 329.9 487.2 329.9 M 398.05 182.5 Q 392.2 182.5 392.2 188.4 L 392.2 307.95 Q 392.2 313.65 397.7 313.8 L 418.95 313.8 Q 420.3 313.8 421.35 313.55 422.35 313.8 423.7 313.8 L 480.8 313.8 Q 486.7 313.8 486.7 307.95 L 486.7 294.15 Q 486.7 288.25 480.8 288.25 L 424.8 288.25 424.8 263.1 472.15 263.1 Q 478 263.1 478 257.2 L 478 243.45 Q 478 237.55 472.15 237.55 L 424.8 237.55 424.8 208.05 480.8 208.05 Q 486.7 208.05 486.7 202.15 L 486.7 188.4 Q 486.7 182.5 480.8 182.5 L 423.7 182.5 Q 422.35 182.5 421.35 182.8 420.3 182.5 418.95 182.5 L 398.05 182.5 M 343.85 183.4 Q 338.75 182.55 333.1 182.5 L 294.65 182.5 Q 288.75 182.5 288.75 188.4 L 288.75 307.95 Q 288.75 313.65 294.3 313.8 L 315.9 313.8 Q 321.4 313.65 321.4 307.95 L 321.4 268.45 334.2 268.45 351.35 310.2 Q 352.9 313.45 355.95 313.8 L 380 313.8 Q 389.65 313.5 385.8 304.6 L 366.55 260.6 Q 384.7 246.85 382 223.3 379.7 189.3 343.85 183.4 M 349.95 224.45 Q 351.1 240.05 335.55 242.55 329.65 243.45 321.4 242.55 L 321.4 208.45 329.05 208.45 Q 349.6 209.6 349.95 224.45 Z"/>
<path fill="#EBC12A" stroke="none" d="M 174.45 142.35 Q 167.95 132.85 173.2 122.75 165.2 122.65 160.25 128.7 157.6 132.25 157.3 136.55 157.1 139.1 157.55 144.95 157.65 150.4 153.05 153.25 148.8 155.9 144.3 154.55 141.55 153.7 140.2 150.5 138.8 147.15 140.2 144.05 141.1 142.2 143.75 139.1 144.55 138.3 145.3 137.4 L 145.55 137.1 Q 146.65 135.65 146.75 135.5 147.45 134.55 147.8 133.75 152.05 124.35 149.75 115.5 147.55 106.95 139.5 100.05 134.7 95.55 128.75 92.45 127.1 91.6 127.3 93.35 131.4 103.1 130.35 111.65 129.55 118.35 122.95 125.45 117.35 131.5 106.05 139.2 97.9 144.8 93.05 152.6 88 160.85 86.85 171.4 85.6 183.4 90.8 191.95 95.55 199.7 104.45 203.15 104.45 203 104.5 202.85 108.25 201.35 111.85 200 106.7 189.7 108.4 180 110.2 170.25 118.95 161.4 118.15 168.85 119.35 173.75 120.55 178.75 123.85 180.7 125.55 181.8 128.3 182.2 132.1 182.65 137.45 181.6 144.65 180.2 148.7 183.55 151.4 185.8 152.7 190.05 159.45 189.45 165.6 189.8 L 164.35 200.15 164.35 200.9 165.4 200.65 165.4 201.5 Q 173.5 195.25 179.05 185.25 181.9 179 182.95 172.15 184.05 165.2 183.05 159.3 182.3 155.15 179.75 150.45 177.85 146.95 174.45 142.35 Z"/>
</g>
</defs>
<g transform="matrix(1,0,0,1,0,0)"><use xlink:href="#l0"/></g>
</svg>
