<svg xmlns="http://www.w3.org/2000/svg" xmlns:xlink="http://www.w3.org/1999/xlink" width="100%" height="100%" viewBox="0 0 512 512">
<defs>
<g id="f0">
<path fill="#FFFFFF" stroke="none" d="M 391.85 331.2 Q 384.65 334 379.55 340.05 375.45 344.85 373.95 351.4 372.65 344.65 368.35 339.1 359.3 328.05 340.25 328.05 331 328.05 322.65 331 L 322.3 331 Q 318.35 311.1 312.1 290.9 308.65 280.7 309.65 274.6 L 311.3 270.5 Q 311.45 268.05 316.4 256.35 322.65 241.05 326.25 229.55 331 214.9 327.25 196.8 324.3 182.7 318.85 174.8 315.55 170 310.95 157 L 275.95 34.15 Q 275.1 29.4 271.3 24.95 263.75 16.25 249.6 18.55 237.1 20.7 233.65 32.55 232 38.45 232.85 43.85 L 251.25 114.6 Q 249.1 113.45 246.15 112.6 235.3 111.8 231.85 120.35 228.25 129.55 227.9 129.55 225.1 129.9 224.1 135.95 223.65 139.1 223.65 142.05 215.55 142.05 208.5 148.8 L 203.25 155.55 Q 185.8 156.7 181.05 167.7 177.6 176.1 181.7 185.95 185.8 193.85 182.2 201.9 181.85 211.3 182.85 220.65 183.85 229.9 187.3 249.3 190.25 265.4 200.75 282.5 206.05 291.05 210.65 296.3 216.9 303.4 217.7 317.35 218.05 324.3 217.2 329.85 L 216.9 333.35 212.8 333.35 Q 211.95 329.2 207.85 329.2 L 135.95 329.2 Q 132.5 329.2 131.55 331.2 L 114.9 364.1 110.3 333.5 Q 109.5 329.2 105.4 329.2 L 82.7 329.2 81.55 329.4 Q 79.55 329.85 78.6 331.7 77.4 333.35 77.9 335.3 L 92.9 398.45 Q 97.15 400.9 96.65 405.85 98.5 408.15 100.95 408.15 L 101.1 408.15 Q 99.8 408.65 99.15 409.3 L 98.3 408.8 Q 96.35 407.65 94.35 407.65 93.55 407.5 90.9 407.5 L 86.8 407.5 Q 82.7 407.5 81.85 411.6 L 79.25 428.05 Q 79.25 430.05 80.7 431.5 82.2 433 84.15 433 L 87.15 433 Q 91.25 433 92.05 428.9 L 92.4 426.75 94.55 426.6 Q 95.2 428.05 96.65 429.85 99.8 433.3 104.55 433.3 107.7 433.3 110.3 431.85 111.45 433 113.3 433 L 116.05 433 Q 117.4 431.85 119.2 431.85 121 431.85 122.5 433 L 125.45 433 126.75 432.85 Q 128.75 432.15 129.7 430.35 130.7 428.55 130.2 426.6 L 129.25 423.6 129.9 422.95 129.9 423.6 Q 129.9 425.25 130.2 426.6 130.7 428.05 131.55 429.2 133.2 431.65 135.95 432.65 137.8 433.3 139.9 433.3 142.55 433.3 145.2 432 146.65 433 148.15 433 L 150.45 433 150.6 432.65 Q 152.25 431.35 154.25 431.35 156.35 431.5 157.7 433 L 160 433 Q 160.8 432.65 161.8 433 L 164.4 433 165.6 431.85 Q 167.2 430.7 169.2 431 171.35 431.35 172.5 433 L 175.6 433 Q 177.4 433 178.9 431.85 180.4 430.5 180.55 428.7 L 181.35 429.85 Q 184.65 433.5 189.1 433.15 190.4 433.3 192.4 432.65 L 193.85 433 195 433 Q 197 433 198.3 431.65 L 200.1 432.65 Q 202.75 433.3 204.05 433.3 206.2 433.3 208.35 432.5 209.3 433 210.45 433 L 213.1 433 214.25 431.85 Q 215.9 430.7 217.85 431 220 431.35 221.15 433 L 224.3 433 Q 225.6 432.5 227.1 433 L 229.9 433 Q 232.85 430.85 235.65 433 L 245.65 433 Q 247 432.85 248.15 433 L 250.25 433 Q 252.6 431.65 254.7 433 L 256.2 433 Q 258.5 432 260.45 433 L 263.25 433 Q 264.4 432.65 265.4 433 L 268.05 433 269 431.85 Q 270.85 430.7 272.8 431 274.8 431.35 275.95 433 L 279.05 433 280.05 432.85 280.85 433 293.55 433 Q 294.85 433 295.65 432.35 L 298.8 432.15 Q 300.1 433 301.4 433 L 304.55 433 305.2 432.35 Q 306.7 431 308.65 431.2 310.8 431.35 312.1 433 L 317.55 433 Q 319.85 433 322 432.5 L 323.8 431.65 Q 325.45 433 327.1 433 L 330.05 433 Q 331.7 432.15 333.35 433 L 336.3 433 Q 339.25 433 340.55 430.35 L 341.2 431.2 Q 342.7 433 345 433 L 355.2 433 356.35 432.85 357.5 433 360.3 433 Q 361.6 431.85 363.6 431.85 365.4 431.85 366.7 433 L 369.65 433 Q 371.15 432.5 372.45 433 L 382.65 433 383.8 432.85 384.95 433 387.25 433 387.45 432.65 Q 389.1 431.35 391.05 431.35 393.2 431.5 394.5 433 L 396.8 433 Q 399.6 430.7 402.4 433 L 405.35 433 Q 408.15 430.7 410.95 433 L 421.15 433 Q 422.95 433 424.25 431.85 425.75 430.5 425.9 428.9 L 426.4 426.4 Q 424.75 424.25 425.6 421.95 L 426.1 418.7 Q 427.55 417.7 427.9 415.7 L 428.4 412.45 Q 428.4 410.3 426.9 409 425.4 407.5 423.45 407.5 L 412.45 407.5 Q 414.75 407 416.7 406 424.6 402.9 430.2 396.15 435.45 389.75 436.95 381.7 438.4 375.1 435.8 368.7 433.3 362.45 427.25 359 L 435.15 358.5 Q 436.95 358.3 438.25 357 439.55 355.7 439.75 353.9 440.55 340.55 432.65 334.15 425.4 328.05 410.8 328.05 400.75 327.75 391.85 331.2 M 383.65 342.7 Q 387.95 337.75 394 335.3 402.55 332.2 410.95 332.65 423.6 332.65 429.7 337.45 435.45 342.2 434.95 353.25 L 415.25 354.4 Q 415.55 350.25 413.1 347.65 410.45 345.15 406.7 345.5 403.4 345.15 400.9 347 398.8 348.6 398.3 350.9 397.95 352.55 399.3 353.9 402.25 355.85 405.85 356.35 414.75 358 424.25 362.45 429.2 365.05 431.5 370.15 433.3 375.1 432.35 380.35 431 387.25 426.6 392.55 421.8 398.3 415.05 401.1 407 404.2 398.45 403.9 381.2 403.9 375.9 397.15 370.15 389.75 371.5 379.85 L 391.4 378.7 Q 391.05 382.85 392.7 386.3 395.65 390.9 401.1 390.4 404.85 390.55 408.3 388.25 411.1 386.3 411.6 383.3 412.1 380.35 410.15 378.55 405.7 375.25 400.25 374.45 386.95 371.15 382.35 366.05 377.05 360.45 378.9 352.75 379.85 347.3 383.65 342.7 M 369.2 367.7 Q 367.35 378.7 361.6 387.6 356.35 395.5 347.95 399.6 338.9 404.2 328.55 403.9 319.2 404.35 310.45 400.25 303.25 396.15 300.45 388.4 297.15 378.55 299.45 368.35 301.4 352.9 313.25 342.05 325.25 331.85 340.4 332.65 357.35 332.65 364.55 341.9 372.15 350.9 369.2 367.7 M 243.55 28.75 Q 247.8 24.65 253.75 24.8 259.5 24.95 263.6 29.05 266.05 31.55 267.05 35.15 269 40.6 276.75 68.55 284.5 96 299.8 150.95 305.35 168.85 313.25 184.3 319.2 196.5 319.85 209.8 320.5 223.3 315.9 235.8 311.6 248.45 301.75 273.45 300.25 277.75 301.25 282.35 301.6 284 313.45 327.25 L 310.15 328.7 296.8 280.35 279.55 286.8 279.05 286.15 Q 282.65 284.3 289.6 280.05 294.35 277.25 297.45 272.65 305.7 254.55 309.5 243.55 314.9 227.1 316.05 212.8 316.4 201.9 311.8 192.05 308 183.15 302.1 171 295.35 157.2 291.9 150.1 291.7 149.15 290.55 148 L 268.85 134.8 268.35 139.45 Q 268.2 147.3 263.25 150.45 258.35 153.4 251.1 150.1 246.35 148 243.7 143.35 241.05 138.95 241.7 133.65 243.55 139.25 245.2 141.9 247.5 145.7 251.25 147.5 257.85 150.75 262.95 147.5 268.05 144.35 267.7 137.1 267.7 135.8 266.55 134.65 258 126.25 246 124.8 236.6 124.15 237.6 134 238.6 144.05 245.85 154.25 254.2 166.05 265.9 169.35 L 266.7 169.7 Q 270.65 180.55 271.5 182.35 278.05 196.8 269.2 208.35 261.45 218.85 253.75 231.85 241.55 252.6 251.6 270.35 244 264.1 243.05 254.05 241.25 237.3 251.25 223.45 253.05 220.85 264.6 205.55 L 266.7 202.6 247.8 205.05 Q 248.15 214.75 237.1 217.55 230.85 219.05 226.75 218.05 221.35 216.9 217.85 211.6 215.75 215.4 211.8 217.05 207.85 218.85 203.55 218.05 199.15 217.55 196.5 214.1 194.5 211.6 192.9 206.55 L 192.05 207.7 Q 192.55 226.6 195.35 240.4 198.8 257.5 206.7 271.15 212.45 281.2 221.35 293.85 222.15 295.15 227.4 296.3 231.05 296.8 233.65 297.95 L 224.6 299.8 227.25 315.55 Q 228.55 323.8 228.75 324.6 229.4 328.7 225.1 328.05 223.3 320.65 222.65 313.1 221.8 300.25 211.15 285.8 184.8 249.6 189.4 201.1 189.6 197.95 188.6 193.35 187.45 188.25 186.95 185.65 185.95 179.7 185.95 176.6 186.3 170.5 191.05 166.4 195.65 162.45 201.75 162.8 L 203.25 162.95 Q 205.4 163.25 206.85 161.8 209.65 156.55 215.25 154.05 220.85 151.75 226.6 153.25 225.75 147.5 226.9 144.35 228.55 140.4 234 139.45 232 126.75 238.25 122.5 245.2 117.9 260.95 125.3 L 255.7 107.2 Q 244.5 66.1 239.25 45.5 237.75 41.1 238.95 36.45 240.1 31.85 243.55 28.75 M 136.15 333 L 158.35 333 122.3 402.75 101.1 402.75 136.15 333 M 82.85 333.8 L 105.55 333.8 111.3 370.5 98 396.8 82.85 333.8 M 169.5 333.8 L 192.2 333.8 205.2 402.75 183.5 402.75 182.2 391.4 158.5 391.4 153.25 402.75 132.05 402.75 169.5 333.8 M 251.9 375.75 L 269.85 333.8 297.15 333.8 284.8 402.75 267.85 402.75 277.25 350.1 254.7 402.75 239.4 402.75 235.65 350.1 226.25 402.75 209.3 402.75 221.65 333.8 248.95 333.8 251.9 375.75 M 322.15 412.25 L 323.95 413.4 Q 325.1 414.55 325.45 415.7 325.95 417.2 325.95 419 325.95 421.3 325.1 422.95 324.6 424.75 323.15 425.9 322 427.05 321 427.25 319.85 427.55 317.7 427.55 L 312.45 427.55 314.9 411.95 319.5 411.95 322.15 412.25 M 283.65 411.95 L 286.6 411.95 284.3 425.1 290.75 425.1 290.4 427.55 281.05 427.55 283.65 411.95 M 298.45 411.95 L 301.9 411.95 304.85 427.55 301.75 427.55 301.1 423.8 295.35 423.8 293.7 427.55 291.05 427.55 298.45 411.95 M 272.95 411.95 L 276.4 411.95 279.4 427.55 276.25 427.55 275.6 423.8 270 423.8 268.2 427.55 265.55 427.55 272.95 411.95 M 248.3 411.95 L 247.8 414.4 240.75 414.4 240.1 418.5 246 418.5 245.5 420.8 239.75 420.8 238.95 425.1 246.35 425.1 245.85 427.55 235.8 427.55 238.45 411.95 248.3 411.95 M 250.95 411.95 L 255.2 411.95 256.85 422.45 261.6 411.95 266.25 411.95 263.6 427.55 260.8 427.55 263.1 413.4 256.5 427.55 255.05 427.55 252.9 413.6 250.45 427.55 248.3 427.55 250.95 411.95 M 225.45 414.4 L 225.95 411.95 236.6 411.95 236.3 414.4 232.35 414.4 230.05 427.55 227.25 427.55 229.4 414.4 225.45 414.4 M 218.2 411.95 L 221.65 411.95 224.45 427.55 221.35 427.55 220.65 423.8 215.1 423.8 213.25 427.55 210.65 427.55 218.2 411.95 M 209.65 411.95 L 211.95 411.95 210.3 422.15 209.3 425.1 Q 208.85 426.25 207.5 427.05 205.85 428.2 204.2 427.9 202.75 427.9 202.1 427.55 199.15 426.4 199.15 423.3 L 200.95 411.95 203.75 411.95 201.9 423.1 Q 201.9 424.45 202.75 424.95 203.55 425.6 204.7 425.6 205.7 425.6 206.35 425.1 207.2 424.95 207.35 424.1 207.85 423.1 208.15 421.3 L 209.65 411.95 M 191.25 413.9 Q 188.95 414.25 187.95 416.2 186.8 418.35 186.8 421.15 186.65 422.8 187.6 424.45 188.6 425.6 190.1 425.6 192.7 425.6 193.55 421.8 L 190.25 421.8 190.55 419.5 196.65 419.5 195.35 427.55 194.05 427.55 193.55 425.4 Q 192.2 428.2 189.4 427.9 186.8 427.9 185.3 426.1 183.5 424.1 183.85 421.15 183.65 417.7 185.8 414.4 187.95 411.45 191.4 411.6 193.55 411.45 195.2 412.75 196.8 414.1 197 416.2 L 194.5 416.85 Q 194.35 415.7 193.35 414.75 192.55 413.9 191.25 413.9 M 169.5 411.95 L 173 411.95 175.75 427.55 172.65 427.55 172 423.8 166.4 423.8 164.6 427.55 161.95 427.55 169.5 411.95 M 145.5 411.95 L 147.65 411.95 146 422.15 Q 145.7 424.1 145.2 425.1 144.7 426.25 143.35 427.05 141.75 428.2 140.1 427.9 138.6 427.9 137.8 427.55 134.65 426.4 135 423.3 L 135.15 421 136.65 411.95 139.6 411.95 137.8 423.1 Q 137.8 424.45 138.6 424.95 139.25 425.6 140.4 425.6 141.4 425.6 142.05 425.1 143.05 424.75 143.2 424.1 143.85 422.15 143.85 421.3 L 145.5 411.95 M 150.95 411.95 L 153.9 411.95 158.65 422.65 160.5 411.95 162.8 411.95 160.15 427.55 157.85 427.55 152.6 415.9 150.6 427.55 148.3 427.55 150.95 411.95 M 122 411.95 L 124.8 412.25 Q 125.95 412.75 126.6 413.75 127.4 415.05 127.4 416.4 127.4 418 126.45 419.2 125.3 420.65 123.65 420.8 L 125.6 427.55 122.65 427.55 121 421.15 117.4 421.15 116.25 427.55 113.45 427.55 116.05 411.95 122 411.95 M 110.65 413.4 Q 112.3 415.55 112.3 418.7 112.3 422.45 110.15 425.1 108.35 428.05 104.7 428.05 102.25 428.05 100.6 426.1 98.8 424.1 98.8 421 98.8 417.35 100.8 414.4 102.6 411.6 106.2 411.6 108.65 411.45 110.65 413.4 M 94.2 412.1 Q 95 412.1 96 412.75 97 413.25 97.5 414.25 98 415.25 98 416.4 98 418 97.15 419.35 96.35 420.5 95 421 94.05 421.3 92.05 421.3 L 88.45 421.3 87.3 427.55 84.5 427.55 86.95 411.95 94.2 412.1 M 411.6 414.4 L 407.65 414.4 405.55 427.55 402.55 427.55 404.85 414.4 400.9 414.4 401.25 411.95 412.1 411.95 411.6 414.4 M 416.2 414.4 L 415.55 418.5 421.3 418.5 421 420.8 415.05 420.8 414.4 425.1 421.65 425.1 421.3 427.55 411.1 427.55 413.75 411.95 423.6 411.95 423.1 414.4 416.2 414.4 M 397.3 411.95 L 399.6 411.95 396.95 427.55 394.65 427.55 389.4 415.9 387.45 427.55 385.3 427.55 387.75 411.95 390.7 411.95 395.5 422.65 397.3 411.95 M 366.2 411.95 L 369 412.25 Q 370.15 412.75 370.8 413.75 371.65 415.05 371.65 416.4 371.65 417.85 370.8 419.2 369.35 420.65 368.05 420.8 L 369.85 427.55 366.9 427.55 365.25 421.15 361.6 421.15 360.45 427.55 357.65 427.55 360.3 411.95 366.2 411.95 M 377.75 414.4 L 376.9 418.5 382.85 418.5 382.5 420.8 376.6 420.8 375.9 425.1 383.15 425.1 382.85 427.55 372.65 427.55 375.25 411.95 385.15 411.95 384.65 414.4 377.75 414.4 M 345.85 411.95 L 345.35 414.4 338.6 414.4 337.95 418.7 343.5 418.7 343.2 421 337.6 421 336.45 427.55 333.65 427.55 336.3 411.95 345.85 411.95 M 350.25 414.4 L 349.45 418.5 355.35 418.5 355.05 420.8 349.1 420.8 348.45 425.1 355.7 425.1 355.35 427.55 345.15 427.55 347.8 411.95 357.65 411.95 357.15 414.4 350.25 414.4 M 329.85 411.95 L 332.85 411.95 330.2 427.55 327.25 427.55 329.85 411.95 M 367.35 414.4 L 365.9 414.25 362.75 414.25 361.95 419 365.9 419 Q 367.05 419 368.2 418.2 368.7 417.55 368.7 416.55 368.7 415.55 368.35 415.25 368.05 414.55 367.35 414.4 M 89.6 414.25 L 88.75 419 93.55 418.85 Q 94.2 418.7 94.55 418 L 95 416.55 94.7 415.05 93.7 414.4 89.6 414.25 M 106.05 413.9 Q 103.55 413.9 102.75 416.55 101.75 418.85 101.75 421.5 101.45 423.3 102.75 424.75 103.75 425.75 104.9 425.75 107.35 425.4 108.2 423.1 109.15 420.65 109.15 418 109.15 413.9 106.05 413.9 M 121.5 419 Q 122.8 419 123.95 418.2 124.45 417.55 124.45 416.55 L 124.15 415.25 123.15 414.4 118.55 414.25 117.7 419 121.5 419 M 167.4 421.65 L 171.85 421.65 170.5 414.75 167.4 421.65 M 216.05 421.65 L 220.5 421.65 219.2 414.75 216.05 421.65 M 270.85 421.65 L 275.25 421.65 274.1 414.75 270.85 421.65 M 296.3 421.65 L 300.75 421.65 299.6 414.75 296.3 421.65 M 322.95 418.5 Q 323.15 417.35 322.65 416.2 322.15 415.05 321.3 414.75 320.15 414.25 319.2 414.4 L 317.35 414.4 315.55 425.25 318.05 425.25 320 424.95 Q 321.15 424.45 321.5 423.8 322.45 422.45 322.65 421.5 322.95 420.5 322.95 418.5 M 165.75 376.4 L 180.55 376.4 177.4 351.6 165.75 376.4 M 259.65 31.85 Q 258 29.55 255.35 28.9 252.6 28.1 249.95 29.4 245.65 31.2 243.7 35.3 241.7 39.45 243.05 43.7 244.5 50.95 248.65 65.4 249.6 69.2 253.05 68.4 L 259.3 67.9 Q 257 70 254.7 70.35 249.95 71.15 251.4 76.25 L 256.85 97 Q 258.35 101.75 259.5 102.4 260.45 103.1 265.4 102.4 L 271.65 101.75 271.65 102.25 Q 266.05 104.4 262.6 106.05 260.8 107.05 260.45 109.5 260.8 112.6 262.6 118.7 262.75 123.8 265.75 127.9 268.7 132.2 273.45 133.85 277.4 135.5 283 138.45 286.15 140.25 292.85 144.05 L 290.05 133.2 Q 272 64.1 267.7 48.5 264.6 39.25 259.65 31.85 M 234.8 143.05 Q 233.5 142.05 233 141.55 231.2 143.7 230.05 145.7 229.55 147.8 230.35 150.3 238.6 180.4 242.05 192.05 243.7 196.8 248.15 199.3 252.6 201.9 257.65 200.6 263.75 199.6 266.25 196.65 268.85 193.85 269 187.8 L 267.05 174.8 Q 266.7 171.5 263.1 169.7 255.05 166.05 247.95 161.3 239.6 154.7 236.15 144.7 235.8 143.85 234.8 143.05 M 228.9 159.15 Q 227.9 155.7 225.45 155.05 219.35 153.9 214.1 159 208.85 164.25 210.3 170 214.4 186.15 220.5 206.7 221.65 210.8 224.3 212.45 226.9 214.25 231.85 214.25 240.75 213.95 245.35 207 247.65 204.4 245.2 201.9 L 244.35 201.45 Q 238.1 197 236.6 189.6 L 233.65 177.4 Q 230.7 165.25 228.9 159.15 M 201.25 165.9 Q 190.25 167.55 190.4 181.35 192.2 195.2 197.5 207.5 199.95 213.95 205.55 214.25 210.15 214.6 214.4 210.95 216.4 209 215.9 206.2 209.15 181.55 205.85 169.05 205.05 165.4 201.25 165.9 M 348.45 367.55 Q 350.1 357.85 347.15 353.25 343.7 348.3 337.6 348.8 331.2 348.8 326.6 353.4 321.15 359.5 320.15 368.35 318.2 378.7 321.3 383.5 324.75 388.4 330.7 387.95 337.25 388.25 341.9 383.5 346.3 379.2 348.45 367.55 Z"/>
<path fill="#1A4B89" stroke="none" d="M 332.85 411.95 L 329.85 411.95 327.25 427.55 330.2 427.55 332.85 411.95 M 349.45 418.5 L 350.25 414.4 357.15 414.4 357.65 411.95 347.8 411.95 345.15 427.55 355.35 427.55 355.7 425.1 348.45 425.1 349.1 420.8 355.05 420.8 355.35 418.5 349.45 418.5 M 345.35 414.4 L 345.85 411.95 336.3 411.95 333.65 427.55 336.45 427.55 337.6 421 343.2 421 343.5 418.7 337.95 418.7 338.6 414.4 345.35 414.4 M 376.9 418.5 L 377.75 414.4 384.65 414.4 385.15 411.95 375.25 411.95 372.65 427.55 382.85 427.55 383.15 425.1 375.9 425.1 376.6 420.8 382.5 420.8 382.85 418.5 376.9 418.5 M 369 412.25 L 366.2 411.95 360.3 411.95 357.65 427.55 360.45 427.55 361.6 421.15 365.25 421.15 366.9 427.55 369.85 427.55 368.05 420.8 Q 369.35 420.65 370.8 419.2 371.65 417.85 371.65 416.4 371.65 415.05 370.8 413.75 370.15 412.75 369 412.25 M 365.9 414.25 L 367.35 414.4 Q 368.05 414.55 368.35 415.25 368.7 415.55 368.7 416.55 368.7 417.55 368.2 418.2 367.05 419 365.9 419 L 361.95 419 362.75 414.25 365.9 414.25 M 399.6 411.95 L 397.3 411.95 395.5 422.65 390.7 411.95 387.75 411.95 385.3 427.55 387.45 427.55 389.4 415.9 394.65 427.55 396.95 427.55 399.6 411.95 M 415.55 418.5 L 416.2 414.4 423.1 414.4 423.6 411.95 413.75 411.95 411.1 427.55 421.3 427.55 421.65 425.1 414.4 425.1 415.05 420.8 421 420.8 421.3 418.5 415.55 418.5 M 407.65 414.4 L 411.6 414.4 412.1 411.95 401.25 411.95 400.9 414.4 404.85 414.4 402.55 427.55 405.55 427.55 407.65 414.4 M 96 412.75 Q 95 412.1 94.2 412.1 L 86.95 411.95 84.5 427.55 87.3 427.55 88.45 421.3 92.05 421.3 Q 94.05 421.3 95 421 96.35 420.5 97.15 419.35 98 418 98 416.4 98 415.25 97.5 414.25 97 413.25 96 412.75 M 88.75 419 L 89.6 414.25 93.7 414.4 94.7 415.05 95 416.55 94.55 418 Q 94.2 418.7 93.55 418.85 L 88.75 419 M 112.3 418.7 Q 112.3 415.55 110.65 413.4 108.65 411.45 106.2 411.6 102.6 411.6 100.8 414.4 98.8 417.35 98.8 421 98.8 424.1 100.6 426.1 102.25 428.05 104.7 428.05 108.35 428.05 110.15 425.1 112.3 422.45 112.3 418.7 M 102.75 416.55 Q 103.55 413.9 106.05 413.9 109.15 413.9 109.15 418 109.15 420.65 108.2 423.1 107.35 425.4 104.9 425.75 103.75 425.75 102.75 424.75 101.45 423.3 101.75 421.5 101.75 418.85 102.75 416.55 M 124.8 412.25 L 122 411.95 116.05 411.95 113.45 427.55 116.25 427.55 117.4 421.15 121 421.15 122.65 427.55 125.6 427.55 123.65 420.8 Q 125.3 420.65 126.45 419.2 127.4 418 127.4 416.4 127.4 415.05 126.6 413.75 125.95 412.75 124.8 412.25 M 123.95 418.2 Q 122.8 419 121.5 419 L 117.7 419 118.55 414.25 123.15 414.4 124.15 415.25 124.45 416.55 Q 124.45 417.55 123.95 418.2 M 153.9 411.95 L 150.95 411.95 148.3 427.55 150.6 427.55 152.6 415.9 157.85 427.55 160.15 427.55 162.8 411.95 160.5 411.95 158.65 422.65 153.9 411.95 M 147.65 411.95 L 145.5 411.95 143.85 421.3 Q 143.85 422.15 143.2 424.1 143.05 424.75 142.05 425.1 141.4 425.6 140.4 425.6 139.25 425.6 138.6 424.95 137.8 424.45 137.8 423.1 L 139.6 411.95 136.65 411.95 135.15 421 135 423.3 Q 134.65 426.4 137.8 427.55 138.6 427.9 140.1 427.9 141.75 428.2 143.35 427.05 144.7 426.25 145.2 425.1 145.7 424.1 146 422.15 L 147.65 411.95 M 173 411.95 L 169.5 411.95 161.95 427.55 164.6 427.55 166.4 423.8 172 423.8 172.65 427.55 175.75 427.55 173 411.95 M 171.85 421.65 L 167.4 421.65 170.5 414.75 171.85 421.65 M 187.95 416.2 Q 188.95 414.25 191.25 413.9 192.55 413.9 193.35 414.75 194.35 415.7 194.5 416.85 L 197 416.2 Q 196.8 414.1 195.2 412.75 193.55 411.45 191.4 411.6 187.95 411.45 185.8 414.4 183.65 417.7 183.85 421.15 183.5 424.1 185.3 426.1 186.8 427.9 189.4 427.9 192.2 428.2 193.55 425.4 L 194.05 427.55 195.35 427.55 196.65 419.5 190.55 419.5 190.25 421.8 193.55 421.8 Q 192.7 425.6 190.1 425.6 188.6 425.6 187.6 424.45 186.65 422.8 186.8 421.15 186.8 418.35 187.95 416.2 M 211.95 411.95 L 209.65 411.95 208.15 421.3 Q 207.85 423.1 207.35 424.1 207.2 424.95 206.35 425.1 205.7 425.6 204.7 425.6 203.55 425.6 202.75 424.95 201.9 424.45 201.9 423.1 L 203.75 411.95 200.95 411.95 199.15 423.3 Q 199.15 426.4 202.1 427.55 202.75 427.9 204.2 427.9 205.85 428.2 207.5 427.05 208.85 426.25 209.3 425.1 L 210.3 422.15 211.95 411.95 M 221.65 411.95 L 218.2 411.95 210.65 427.55 213.25 427.55 215.1 423.8 220.65 423.8 221.35 427.55 224.45 427.55 221.65 411.95 M 220.5 421.65 L 216.05 421.65 219.2 414.75 220.5 421.65 M 225.95 411.95 L 225.45 414.4 229.4 414.4 227.25 427.55 230.05 427.55 232.35 414.4 236.3 414.4 236.6 411.95 225.95 411.95 M 255.2 411.95 L 250.95 411.95 248.3 427.55 250.45 427.55 252.9 413.6 255.05 427.55 256.5 427.55 263.1 413.4 260.8 427.55 263.6 427.55 266.25 411.95 261.6 411.95 256.85 422.45 255.2 411.95 M 247.8 414.4 L 248.3 411.95 238.45 411.95 235.8 427.55 245.85 427.55 246.35 425.1 238.95 425.1 239.75 420.8 245.5 420.8 246 418.5 240.1 418.5 240.75 414.4 247.8 414.4 M 276.4 411.95 L 272.95 411.95 265.55 427.55 268.2 427.55 270 423.8 275.6 423.8 276.25 427.55 279.4 427.55 276.4 411.95 M 275.25 421.65 L 270.85 421.65 274.1 414.75 275.25 421.65 M 301.9 411.95 L 298.45 411.95 291.05 427.55 293.7 427.55 295.35 423.8 301.1 423.8 301.75 427.55 304.85 427.55 301.9 411.95 M 300.75 421.65 L 296.3 421.65 299.6 414.75 300.75 421.65 M 286.6 411.95 L 283.65 411.95 281.05 427.55 290.4 427.55 290.75 425.1 284.3 425.1 286.6 411.95 M 323.95 413.4 L 322.15 412.25 319.5 411.95 314.9 411.95 312.45 427.55 317.7 427.55 Q 319.85 427.55 321 427.25 322 427.05 323.15 425.9 324.6 424.75 325.1 422.95 325.95 421.3 325.95 419 325.95 417.2 325.45 415.7 325.1 414.55 323.95 413.4 M 322.65 416.2 Q 323.15 417.35 322.95 418.5 322.95 420.5 322.65 421.5 322.45 422.45 321.5 423.8 321.15 424.45 320 424.95 L 318.05 425.25 315.55 425.25 317.35 414.4 319.2 414.4 Q 320.15 414.25 321.3 414.75 322.15 415.05 322.65 416.2 M 269.85 333.8 L 251.9 375.75 248.95 333.8 221.65 333.8 209.3 402.75 226.25 402.75 235.65 350.1 239.4 402.75 254.7 402.75 277.25 350.1 267.85 402.75 284.8 402.75 297.15 333.8 269.85 333.8 M 192.2 333.8 L 169.5 333.8 132.05 402.75 153.25 402.75 158.5 391.4 182.2 391.4 183.5 402.75 205.2 402.75 192.2 333.8 M 180.55 376.4 L 165.75 376.4 177.4 351.6 180.55 376.4 M 105.55 333.8 L 82.85 333.8 98 396.8 111.3 370.5 105.55 333.8 M 253.75 24.8 Q 247.8 24.65 243.55 28.75 240.1 31.85 238.95 36.45 237.75 41.1 239.25 45.5 244.5 66.1 255.7 107.2 L 260.95 125.3 Q 245.2 117.9 238.25 122.5 232 126.75 234 139.45 228.55 140.4 226.9 144.35 225.75 147.5 226.6 153.25 220.85 151.75 215.25 154.05 209.65 156.55 206.85 161.8 205.4 163.25 203.25 162.95 L 201.75 162.8 Q 195.65 162.45 191.05 166.4 186.3 170.5 185.95 176.6 185.95 179.7 186.95 185.65 187.45 188.25 188.6 193.35 189.6 197.95 189.4 201.1 184.8 249.6 211.15 285.8 221.8 300.25 222.65 313.1 223.3 320.65 225.1 328.05 229.4 328.7 228.75 324.6 228.55 323.8 227.25 315.55 L 224.6 299.8 233.65 297.95 Q 231.05 296.8 227.4 296.3 222.15 295.15 221.35 293.85 212.45 281.2 206.7 271.15 198.8 257.5 195.35 240.4 192.55 226.6 192.05 207.7 L 192.9 206.55 Q 194.5 211.6 196.5 214.1 199.15 217.55 203.55 218.05 207.85 218.85 211.8 217.05 215.75 215.4 217.85 211.6 221.35 216.9 226.75 218.05 230.85 219.05 237.1 217.55 248.15 214.75 247.8 205.05 L 266.7 202.6 264.6 205.55 Q 253.05 220.85 251.25 223.45 241.25 237.3 243.05 254.05 244 264.1 251.6 270.35 241.55 252.6 253.75 231.85 261.45 218.85 269.2 208.35 278.05 196.8 271.5 182.35 270.65 180.55 266.7 169.7 L 265.9 169.35 Q 254.2 166.05 245.85 154.25 238.6 144.05 237.6 134 236.6 124.15 246 124.8 258 126.25 266.55 134.65 267.7 135.8 267.7 137.1 268.05 144.35 262.95 147.5 257.85 150.75 251.25 147.5 247.5 145.7 245.2 141.9 243.55 139.25 241.7 133.65 241.05 138.95 243.7 143.35 246.35 148 251.1 150.1 258.35 153.4 263.25 150.45 268.2 147.3 268.35 139.45 L 268.85 134.8 290.55 148 Q 291.7 149.15 291.9 150.1 295.35 157.2 302.1 171 308 183.15 311.8 192.05 316.4 201.9 316.05 212.8 314.9 227.1 309.5 243.55 305.7 254.55 297.45 272.65 294.35 277.25 289.6 280.05 282.65 284.3 279.05 286.15 L 279.55 286.8 296.8 280.35 310.15 328.7 313.45 327.25 Q 301.6 284 301.25 282.35 300.25 277.75 301.75 273.45 311.6 248.45 315.9 235.8 320.5 223.3 319.85 209.8 319.2 196.5 313.25 184.3 305.35 168.85 299.8 150.95 284.5 96 276.75 68.55 269 40.6 267.05 35.15 266.05 31.55 263.6 29.05 259.5 24.95 253.75 24.8 M 190.4 181.35 Q 190.25 167.55 201.25 165.9 205.05 165.4 205.85 169.05 209.15 181.55 215.9 206.2 216.4 209 214.4 210.95 210.15 214.6 205.55 214.25 199.95 213.95 197.5 207.5 192.2 195.2 190.4 181.35 M 225.45 155.05 Q 227.9 155.7 228.9 159.15 230.7 165.25 233.65 177.4 L 236.6 189.6 Q 238.1 197 244.35 201.45 L 245.2 201.9 Q 247.65 204.4 245.35 207 240.75 213.95 231.85 214.25 226.9 214.25 224.3 212.45 221.65 210.8 220.5 206.7 214.4 186.15 210.3 170 208.85 164.25 214.1 159 219.35 153.9 225.45 155.05 M 233 141.55 Q 233.5 142.05 234.8 143.05 235.8 143.85 236.15 144.7 239.6 154.7 247.95 161.3 255.05 166.05 263.1 169.7 266.7 171.5 267.05 174.8 L 269 187.8 Q 268.85 193.85 266.25 196.65 263.75 199.6 257.65 200.6 252.6 201.9 248.15 199.3 243.7 196.8 242.05 192.05 238.6 180.4 230.35 150.3 229.55 147.8 230.05 145.7 231.2 143.7 233 141.55 M 255.35 28.9 Q 258 29.55 259.65 31.85 264.6 39.25 267.7 48.5 272 64.1 290.05 133.2 L 292.85 144.05 Q 286.15 140.25 283 138.45 277.4 135.5 273.45 133.85 268.7 132.2 265.75 127.9 262.75 123.8 262.6 118.7 260.8 112.6 260.45 109.5 260.8 107.05 262.6 106.05 266.05 104.4 271.65 102.25 L 271.65 101.75 265.4 102.4 Q 260.45 103.1 259.5 102.4 258.35 101.75 256.85 97 L 251.4 76.25 Q 249.95 71.15 254.7 70.35 257 70 259.3 67.9 L 253.05 68.4 Q 249.6 69.2 248.65 65.4 244.5 50.95 243.05 43.7 241.7 39.45 243.7 35.3 245.65 31.2 249.95 29.4 252.6 28.1 255.35 28.9 M 361.6 387.6 Q 367.35 378.7 369.2 367.7 372.15 350.9 364.55 341.9 357.35 332.65 340.4 332.65 325.25 331.85 313.25 342.05 301.4 352.9 299.45 368.35 297.15 378.55 300.45 388.4 303.25 396.15 310.45 400.25 319.2 404.35 328.55 403.9 338.9 404.2 347.95 399.6 356.35 395.5 361.6 387.6 M 347.15 353.25 Q 350.1 357.85 348.45 367.55 346.3 379.2 341.9 383.5 337.25 388.25 330.7 387.95 324.75 388.4 321.3 383.5 318.2 378.7 320.15 368.35 321.15 359.5 326.6 353.4 331.2 348.8 337.6 348.8 343.7 348.3 347.15 353.25 M 394 335.3 Q 387.95 337.75 383.65 342.7 379.85 347.3 378.9 352.75 377.05 360.45 382.35 366.05 386.95 371.15 400.25 374.45 405.7 375.25 410.15 378.55 412.1 380.35 411.6 383.3 411.1 386.3 408.3 388.25 404.85 390.55 401.1 390.4 395.65 390.9 392.7 386.3 391.05 382.85 391.4 378.7 L 371.5 379.85 Q 370.15 389.75 375.9 397.15 381.2 403.9 398.45 403.9 407 404.2 415.05 401.1 421.8 398.3 426.6 392.55 431 387.25 432.35 380.35 433.3 375.1 431.5 370.15 429.2 365.05 424.25 362.45 414.75 358 405.85 356.35 402.25 355.85 399.3 353.9 397.95 352.55 398.3 350.9 398.8 348.6 400.9 347 403.4 345.15 406.7 345.5 410.45 345.15 413.1 347.65 415.55 350.25 415.25 354.4 L 434.95 353.25 Q 435.45 342.2 429.7 337.45 423.6 332.65 410.95 332.65 402.55 332.2 394 335.3 Z"/>
<path fill="#EA3A28" stroke="none" d="M 158.35 333 L 136.15 333 101.1 402.75 122.3 402.75 158.35 333 Z"/>
</g>
</defs>
<g transform="matrix(1,0,0,1,0,0) "><use xlink:href="#f0"/></g>
</svg>
