<svg xmlns="http://www.w3.org/2000/svg" xmlns:xlink="http://www.w3.org/1999/xlink" width="100%" height="100%" viewBox="0 0 512 512">
<!-- Vectorization by Rodrigo Polo https://github.com/rodrigopolo/logotipos-politicos -->
<defs>
<g id="l0">
<path fill="#F34231" stroke="none" d=" M 321.3 245.6 Q 306.05 245.6 294.65 235.9 288.8 246.9 279.65 255.4 270.4 263.9 258.85 268.5 269.45 280.45 269.45 296.35 L 269.45 299.15 Q 288.3 291.85 303 277.8 317.7 263.75 325.9 245.35 322.75 245.6 321.3 245.6 M 135.65 245.6 L 132.85 245.45 Q 140.15 264.3 154.2 279.1 168.2 293.85 186.65 302.05 L 186.5 297.4 Q 186.5 282.15 196.2 270.65 185.05 264.95 176.7 255.8 168.2 246.5 163.45 234.85 151.65 245.6 135.65 245.6 M 269.2 106.2 Q 269.45 107.65 269.45 110.7 269.45 125.95 259.8 137.45 270.8 143.15 279.25 152.45 287.75 161.6 292.5 173.25 304.3 162.5 320.35 162.5 322.2 162.5 323 162.65 315.6 143.7 301.65 129.1 287.6 114.25 269.2 106.2 M 186.5 111.75 L 186.5 108.95 Q 167.7 116.4 153 130.3 138.3 144.35 130.05 162.75 133 162.5 134.7 162.5 149.55 162.5 161.35 172.2 167.15 161.2 176.3 152.7 185.6 144.2 197.1 139.6 186.5 127.65 186.5 111.75 M 221.75 340.85 L 204.95 340.85 204.15 358.35 Q 203.6 363.25 203.35 364.05 203.2 365.25 202.4 367.1 L 201.1 368.95 Q 200.7 369.5 199.65 370.3 198.7 370.95 197.65 371.1 197 371.35 195.65 371.35 193.15 371.35 191.3 369.9 189.55 368.3 189.55 363.8 L 189.55 362.05 191.15 340.85 174.05 340.85 172.45 372 Q 172.45 374.8 173.4 377.6 174.05 379.7 176.45 381.8 178.7 383.65 181.75 384.45 185.05 385.15 187.95 385.15 L 192.1 384.85 Q 194.05 384.75 195.65 384.05 L 198.45 382.9 200.7 381.15 Q 201.6 380.35 203.35 378.25 L 203.35 384.05 219.4 384.05 221.75 340.85 M 242.3 341 Q 238.05 342.2 234.5 345.1 231.15 348.05 228.9 353.35 226.65 358.65 226.65 363.8 226.65 367.75 227.85 371.35 228.8 374.95 230.9 377.6 233.4 380.5 236.05 381.95 239.65 383.95 243.35 384.45 246.8 385.15 252.65 385.15 257.15 385.15 259.4 384.85 263.65 384.35 267.6 383.55 L 269.75 371.35 Q 266.15 372.4 261 373.6 257.8 374.15 254.65 374.15 249.7 374.15 246.65 372 243.35 369.9 243.35 365.4 L 243.35 364.05 273.05 364.05 Q 273.6 361.4 273.6 358.75 273.6 354.65 272.4 351.2 271.05 347.65 268 344.85 265.1 342.05 260.6 340.85 255.95 339.8 251.3 339.8 246.65 339.8 242.3 341 M 254.75 350.4 Q 256.2 351.05 257 352.65 257.8 354.25 257.8 356.35 L 257.65 357.7 243.75 357.7 244.3 355.05 245.2 353.05 246.8 351.2 Q 247.75 350.4 249.05 350 250.25 349.6 251.45 349.6 253.15 349.6 254.75 350.4 M 152.2 339.8 Q 147.4 339.8 142.8 340.85 138.55 342.05 135.1 345.1 131.65 348.3 129.95 353.2 128.05 358.1 128.05 363.25 128.05 368.7 129.95 373.6 131.65 377.7 134.85 380.35 138 383.15 142.1 384.2 145.45 385.15 150.2 385.15 156.7 385.15 163.2 383.55 L 165.3 370.55 Q 163.05 371.6 161.6 371.75 L 158.15 372.4 Q 156.15 372.8 154.85 372.8 151.95 372.8 149.55 371.6 147.4 370.7 146.1 368.3 145.05 365.9 145.05 362.85 145.05 359.7 146.25 357.3 147.3 354.9 149.95 353.6 152.45 352.25 155.9 352.25 160.65 352.25 166.5 354.4 L 165.85 342.45 165.7 341.55 Q 162.25 340.6 158.15 340.1 L 152.2 339.8 M 72.95 362.85 Q 72 377.05 71.1 384.05 L 88.45 384.05 89.1 369.75 Q 89.5 363.25 90.85 359.7 92.15 356.5 94.15 355.05 96.4 353.45 98.8 353.45 101.55 353.45 103.4 355.3 105.3 357.15 105.3 361.95 L 104.1 384.05 121.2 384.05 122.5 353.45 Q 122.5 351.2 122.1 349.2 121.45 346.95 120.25 345.4 118.95 343.5 117.05 342.35 114.95 341 112.15 340.45 109.1 339.8 106.2 339.8 104.75 339.8 102.1 340.1 99.45 340.6 98.4 341 96.25 341.65 95.2 342.45 93.6 343.25 92.7 344.2 L 90.3 346.7 90.7 340.85 73.75 340.85 72.95 362.85 M 65.4 339 L 66.05 326.45 18.9 326.45 18.35 346.3 Q 17.95 359.8 17.4 365.8 17 373.2 15.85 384.05 L 63.15 384.05 63.95 371.1 Q 59.45 371.5 57.45 371.5 L 34.9 371.9 35.45 361.55 59.7 361.3 60.5 348.4 36.25 348.55 36.75 338.9 65.4 339 M 433.1 339.8 Q 427.55 339.8 422.25 341.65 417.2 343.4 413.5 346.7 409.95 350.15 408.35 354.25 406.75 358.5 406.75 363.15 406.75 367.9 408.5 371.9 409.95 375.85 413.4 379.05 416.85 382.1 421.75 383.65 426.25 385.15 431.95 385.15 438.05 385.15 443.05 383.4 448.35 381.55 451.7 378.1 455 374.65 456.45 370.4 457.9 366.05 457.9 361.8 457.9 357.3 456.3 353.05 454.75 349.2 451.4 346.05 447.95 343 443.2 341.4 438.45 339.8 433.1 339.8 M 440.95 361.7 Q 440.95 364.7 439.9 367.65 438.55 370.4 436.7 371.75 434.45 373.2 431.95 373.2 428.2 373.2 426.1 370.7 423.7 368.3 423.7 363.55 423.7 360.6 424.8 357.7 426.1 354.9 427.95 353.6 430.1 352.25 432.85 352.25 435.4 352.25 437.35 353.45 439.35 354.9 440 356.9 440.95 358.9 440.95 361.7 M 329.1 353.45 Q 329.1 351.2 328.7 349.2 328.45 347.5 327 345.4 325.4 343.4 323.65 342.35 321.55 341 318.9 340.45 315.6 339.8 312.95 339.8 311.35 339.8 308.7 340.1 L 305 341 Q 302.85 341.8 301.8 342.45 299.95 343.5 299.3 344.2 L 296.9 346.7 297.3 340.85 280.35 340.85 279.55 362.85 Q 279 373.75 277.7 384.05 L 295.05 384.05 295.7 369.75 Q 296.35 362.6 297.45 359.7 298.75 356.5 300.75 355.05 303 353.45 305.4 353.45 308.15 353.45 310 355.3 311.85 357.05 311.85 361.95 L 310.7 384.05 327.75 384.05 329.1 353.45 M 341.95 341.55 L 335.05 341.55 334.55 353.2 341.05 353.2 339.85 374.15 Q 339.85 376.25 340.5 378.65 341.15 380.65 343 382.35 344.85 384.05 347.65 384.6 350.15 385.15 354 385.15 357.05 385.15 358.65 384.85 L 365.15 383.8 367.4 371.6 363.55 372.55 Q 362.75 372.65 361.45 372.65 360 372.65 358.9 372.15 357.7 371.6 357.35 370.15 356.95 368.85 356.95 366.85 L 357.45 353.2 367.25 353.2 367.55 341.55 357.85 341.55 358.4 329.6 342.6 333.05 Q 342.2 340.45 341.95 341.55 M 403.85 340.2 Q 402.1 339.8 400.55 339.8 398.95 339.8 397.35 340.2 395.5 340.75 394.55 341.25 L 392.2 342.85 389.4 345.65 389.65 340.85 373.35 340.85 371.75 384.05 388.75 384.05 388.6 378.65 Q 388.6 372.55 389 367.5 389.15 363 390.05 360.35 391.1 357.95 392.45 356.65 393.9 355.2 395.6 354.4 397.6 353.7 400 353.7 402.4 353.7 404.35 354.4 L 403.85 340.2 Z"/>
<path fill="#8FD233" stroke="none" d=" M 365.55 410.95 L 365.65 405.15 360.75 405.15 361.05 399.2 353.2 400.9 352.8 405.15 349.35 405.15 349.1 410.95 352.4 410.95 351.75 421.45 Q 351.75 422.75 352.15 423.7 352.3 424.5 353.35 425.55 354.4 426.35 355.75 426.75 L 358.9 427 Q 360.35 427 361.15 426.85 L 364.5 426.2 365.55 420.25 362.65 420.8 361.3 420.5 Q 360.65 420.1 360.5 419.45 L 360.65 410.95 365.55 410.95 M 390.85 416.4 L 391.1 413.75 Q 391.1 411.9 390.45 409.9 389.8 408.2 388.35 406.85 386.75 405.4 384.6 404.9 382.65 404.35 380 404.35 377.45 404.35 375.5 404.9 373.65 405.4 371.5 407 369.9 408.45 368.7 410.95 367.65 413.75 367.65 416.25 367.65 418.4 368.2 420.1 368.85 421.95 369.8 423.15 370.45 424.1 372.3 425.4 373.9 426.2 376 426.6 378.25 427 380.65 427 L 388.2 426.2 389.25 420 384.75 421.2 Q 383.55 421.45 381.6 421.45 379.05 421.45 377.6 420.4 376 419.45 376 417.05 L 376 416.4 390.85 416.4 M 380.1 409.25 Q 380.9 409.25 381.7 409.65 382.35 409.8 382.75 410.7 383.15 411.5 383.15 412.55 L 383.15 413.2 376.15 413.2 376.95 410.95 377.75 410.05 378.8 409.4 380.1 409.25 M 429.4 406.6 Q 427.95 405.15 426.65 404.9 425.15 404.35 423.2 404.35 L 420.55 404.6 Q 418.95 405.15 418.15 405.65 417.5 406.05 416.15 407.65 L 415.35 406.35 414.45 405.55 413.4 404.9 411.8 404.5 409.8 404.35 407.95 404.5 406.35 404.9 405.05 405.55 403.95 406.35 402.8 407.65 402.9 404.9 394.95 404.9 393.9 426.5 402.5 426.5 403.05 415.2 403.55 412.7 Q 404.1 411.75 404.65 411.35 405.15 410.85 406.1 410.85 406.9 410.85 407.3 411.25 407.4 411.35 408.1 412.3 L 408.2 414.15 407.55 426.5 416.05 426.5 416.45 416.15 416.85 413.6 417.6 411.9 Q 418 411.25 418.55 411.1 L 419.6 410.85 420.65 411.1 Q 421.05 411.25 421.6 412.05 L 421.85 414 421.2 426.5 429.55 426.5 430.35 410.05 Q 430.35 407.9 429.4 406.6 M 461.9 397.6 L 460.4 426.5 469.15 426.5 470.5 397.6 461.9 397.6 M 452.05 404.9 Q 450.35 404.35 447.55 404.35 442.95 404.35 437.1 405.65 L 436.3 410.95 Q 441.45 409 445.2 409 446.65 409 447.15 409.4 447.85 409.8 447.85 410.55 L 447.85 411.25 447.45 411.65 Q 447.3 411.9 446.75 412.15 L 439.1 414 436.45 415.2 434.7 416.8 Q 433.8 418 433.5 418.65 L 433.25 420.65 Q 433.25 422.25 434.2 423.95 435.25 425.7 436.85 426.2 438.7 427 441.2 427 L 444.65 426.75 446.1 421.95 444.8 422.35 443.75 422.35 Q 442.4 422.35 442 421.85 441.35 421.45 441.35 420.65 L 441.6 419.85 Q 441.85 419.3 442.25 419.05 L 443.35 418.5 445.2 417.85 Q 446 417.75 446.75 417.35 L 447.95 416.8 Q 447.55 425.3 447.3 426.5 L 455.8 426.5 Q 455.8 423.95 456.2 415.6 L 456.6 410.2 Q 456.6 407.9 455.4 406.75 454.35 405.55 452.05 404.9 M 495 406.75 Q 493.95 405.55 491.7 404.9 489.95 404.35 487.2 404.35 482.55 404.35 476.7 405.65 L 475.95 410.95 Q 481.1 409 484.8 409 486.25 409 486.8 409.4 487.45 409.8 487.45 410.55 L 487.45 411.25 487.05 411.65 486.4 412.15 478.7 414 476.05 415.2 474.35 416.8 Q 473.4 418 473.15 418.65 L 472.9 420.65 Q 472.9 422.25 473.8 423.95 474.85 425.7 476.45 426.2 478.3 427 480.85 427 L 484.3 426.75 485.75 421.95 484.3 422.35 483.35 422.35 Q 482 422.35 481.65 421.85 480.95 421.45 480.95 420.65 L 481.25 419.85 Q 481.5 419.3 481.9 419.05 L 482.95 418.5 484.8 417.85 Q 485.6 417.75 486.4 417.35 L 487.6 416.8 Q 487.45 423.55 486.95 426.5 L 495.4 426.5 Q 495.4 423.95 495.8 415.6 L 496.2 410.2 Q 496.2 407.9 495 406.75 M 197.65 407.15 Q 196.2 405.65 193.55 404.9 191.3 404.35 187.85 404.35 L 183.05 404.5 176.3 405.4 174.85 436.3 183.45 436.3 183.75 424.35 187.15 426.2 189.15 426.75 191.4 427 Q 193.55 427 195.15 426.2 196.85 425.4 198.15 423.7 199.25 422.25 200.15 420 200.7 418 200.7 415.6 200.7 413.2 199.9 410.95 198.95 408.45 197.65 407.15 M 184.15 415.6 L 184.25 412.3 184.5 410.85 Q 186.1 410.3 187.85 410.3 190.1 410.3 191.3 411.65 192.5 413.1 192.5 415.35 192.5 416.65 191.95 418.25 191.4 419.6 190.35 420.4 189.3 421.05 188.25 421.05 187.15 421.05 186.1 420.4 185.2 419.7 184.65 418.5 184.15 417.45 184.15 415.6 M 228.8 415.35 Q 228.8 412.95 228 410.95 227.2 409 225.6 407.4 223.6 405.8 221.5 405.15 219.1 404.35 216.45 404.35 213.7 404.35 211.05 405.15 208.25 406.2 206.65 407.8 205.05 409.25 204.15 411.5 203.2 414 203.2 415.85 203.2 417.85 204.15 420.4 204.95 422.5 206.65 423.95 208.4 425.55 210.75 426.2 213.15 427 215.95 427 219 427 221.35 426.1 223.75 425.4 225.75 423.45 227.35 421.7 228.1 419.6 228.8 418 228.8 415.35 M 211.7 416.15 Q 211.7 414.8 212.35 413.2 212.75 411.9 213.95 411.25 214.75 410.55 216.35 410.55 217.65 410.55 218.6 411.1 219.5 411.9 219.9 412.85 220.3 413.9 220.3 415.2 220.3 416.95 219.75 418.15 219.4 419.7 218.2 420.25 217.25 421.05 215.8 421.05 214.2 421.05 212.9 419.7 211.7 418.5 211.7 416.15 M 246.3 404.35 L 244.8 404.5 243.35 405 242.15 405.8 240.85 407.25 240.85 404.9 232.75 404.9 231.95 426.5 240.45 426.5 240.6 418.15 Q 240.85 415.5 241.1 414.55 241.5 413.5 242.3 412.7 242.7 412.05 243.9 411.65 244.95 411.25 246.15 411.25 247.05 411.25 248.25 411.65 L 248 404.5 246.3 404.35 M 290.25 405 Q 290 402.5 290 398.1 283.9 397.05 279.65 397.05 273.2 397.05 269.35 399.2 265.35 401.45 263.25 405 261.1 408.45 261.1 412.95 261.1 415.6 261.9 418 262.85 420.8 264.15 422.25 265.6 424.1 267.75 425 270.15 426.1 272.8 426.5 275.3 427 278.35 427 L 282.45 426.85 290.25 425.8 291.2 409.65 278.6 409.65 278.35 415.6 282.2 415.6 282.05 420.25 Q 279.95 420.8 277.8 420.8 275.55 420.8 273.85 419.85 272.25 419.2 271.05 417.35 270.25 415.6 270.25 413.35 270.25 411.35 270.9 409.4 271.6 407.65 273.2 406.05 274.65 404.75 276.75 403.95 279.15 403.3 281.15 403.3 L 287.75 404.2 290.25 405 M 322.85 418.65 L 322.6 420.65 Q 322.6 422.25 323.55 423.95 324.6 425.7 326.2 426.2 328.05 427 330.55 427 L 334 426.75 335.45 421.95 334.15 422.35 333.1 422.35 Q 331.9 422.35 331.35 421.85 330.7 421.45 330.7 420.65 L 330.95 419.85 331.6 419.05 332.7 418.5 334.55 417.85 Q 335.35 417.75 336.1 417.35 L 337.3 416.8 Q 337.2 421.7 336.8 426.5 L 345.15 426.5 Q 345.15 423.95 345.55 415.6 L 345.95 410.2 Q 345.95 407.9 344.75 406.75 343.7 405.55 341.4 404.9 339.7 404.35 336.9 404.35 332.3 404.35 326.45 405.65 L 325.65 410.95 Q 331.1 409 334.55 409 336 409 336.5 409.4 337.2 409.8 337.2 410.55 L 337.2 411.25 336.8 411.65 Q 336.65 411.9 336.1 412.15 L 328.45 414 325.8 415.2 324.05 416.8 Q 323.15 418 322.85 418.65 M 308.05 420 L 306.95 420.1 Q 305.65 420.1 304.85 419.3 303.9 418.5 303.9 416.25 L 303.9 415.35 304.7 404.9 296.25 404.9 295.45 420.4 Q 295.45 421.95 295.85 423.15 296.25 424.2 297.45 425.3 298.2 426.1 299.95 426.6 301.55 427 303.15 427 L 305.25 426.85 306.95 426.5 309.5 425 310.8 423.55 310.8 426.5 318.9 426.5 Q 318.9 419.85 319.3 415.1 L 320.1 404.9 311.6 404.9 311.2 413.6 310.8 416.4 310.3 417.85 309.75 418.9 308.95 419.6 308.05 420 M 228 263.1 Q 213.8 263.1 203.75 273.15 193.65 283.25 193.65 297.4 193.65 311.6 203.75 321.65 213.8 331.6 228 331.6 242.15 331.6 252.25 321.65 262.3 311.6 262.3 297.4 262.3 283.25 252.25 273.15 242.15 263.1 228 263.1 M 158.95 179.85 Q 148.9 169.8 134.7 169.8 120.5 169.8 110.45 179.85 100.4 189.95 100.4 204.1 100.4 218.3 110.45 228.25 120.5 238.3 134.7 238.3 148.9 238.3 158.95 228.25 169 218.3 169 204.1 169 189.95 158.95 179.85 M 228 76.5 Q 213.8 76.5 203.75 86.55 193.65 96.5 193.65 110.7 193.65 124.85 203.75 134.95 213.8 145 228 145 242.15 145 252.25 134.95 262.3 124.85 262.3 110.7 262.3 96.5 252.25 86.55 242.15 76.5 228 76.5 M 345.55 228.25 Q 355.6 218.3 355.6 204.1 355.6 189.95 345.55 179.85 335.45 169.8 321.3 169.8 307.1 169.8 297.05 179.85 286.95 189.95 286.95 204.1 286.95 218.3 297.05 228.25 307.1 238.3 321.3 238.3 335.45 238.3 345.55 228.25 Z"/>
</g>
</defs>
<g transform="matrix(1,0,0,1,0,0)">
<use xlink:href="#l0"/>
</g>
</svg>