<svg xmlns="http://www.w3.org/2000/svg" xmlns:xlink="http://www.w3.org/1999/xlink" width="100%" height="100%" viewBox="0 0 512 512">
<defs>
<g id="l0">
<path fill="#2769A4" stroke="none" d="M 416 493.2 L 384 493.2 384 512.5 416 512.5 416 493.2 M 416 19.8 L 416 0.5 384 0.5 384 19.8 416 19.8 Z"/>
<path fill="#FEFFFD" stroke="none" d="M 384 493.2 L 352 493.2 352 512.5 384 512.5 384 493.2 M 384 19.8 L 384 0.5 352 0.5 352 19.8 384 19.8 Z"/>
<path fill="#572B7B" stroke="none" d="M 448 493.2 L 416 493.2 416 512.5 448 512.5 448 493.2 M 448 19.8 L 448 0.5 416 0.5 416 19.8 448 19.8 Z"/>
<path fill="#C42455" stroke="none" d="M 480 493.2 L 448 493.2 448 512.5 480 512.5 480 493.2 M 448 19.8 L 480 19.8 480 0.5 448 0.5 448 19.8 Z"/>
<path fill="#907F6E" stroke="none" d="M 512 512.5 L 512 493.2 480 493.2 480 512.5 512 512.5 M 512 19.8 L 512 0.5 480 0.5 480 19.8 512 19.8 Z"/>
<path fill="#2DA3DB" stroke="none" d="M 64 493.2 L 64 512.5 96 512.5 96 493.2 64 493.2 M 96 19.8 L 96 0.5 64 0.5 64 19.8 96 19.8 Z"/>
<path fill="#263179" stroke="none" d="M 64 493.2 L 32 493.2 32 512.5 64 512.5 64 493.2 M 64 19.8 L 64 0.5 32 0.5 32 19.8 64 19.8 Z"/>
<path fill="#000000" stroke="none" d="M 32 493.2 L 0 493.2 0 512.5 32 512.5 32 493.2 M 0 0.5 L 0 19.8 32 19.8 32 0.5 0 0.5 Z"/>
<path fill="#319E94" stroke="none" d="M 128 493.2 L 96 493.2 96 512.5 128 512.5 128 493.2 M 128 19.8 L 128 0.5 96 0.5 96 19.8 128 19.8 Z"/>
<path fill="#D62380" stroke="none" d="M 160 493.2 L 128 493.2 128 512.5 160 512.5 160 493.2 M 128 19.8 L 160 19.8 160 0.5 128 0.5 128 19.8 Z"/>
<path fill="#AD222E" stroke="none" d="M 192 512.5 L 192 493.2 160 493.2 160 512.5 192 512.5 M 192 19.8 L 192 0.5 160 0.5 160 19.8 192 19.8 Z"/>
<path fill="#5BB2C4" stroke="none" d="M 320 493.2 L 320 512.5 352 512.5 352 493.2 320 493.2 M 352 19.8 L 352 0.5 320 0.5 320 19.8 352 19.8 Z"/>
<path fill="#F5EA39" stroke="none" d="M 256 512.5 L 256 493.2 224 493.2 224 512.5 256 512.5 M 256 19.8 L 256 0.5 224 0.5 224 19.8 256 19.8 Z"/>
<path fill="#ED8A2B" stroke="none" d="M 224 493.2 L 192 493.2 192 512.5 224 512.5 224 493.2 M 224 19.8 L 224 0.5 192 0.5 192 19.8 224 19.8 Z"/>
<path fill="#81BF44" stroke="none" d="M 288 493.2 L 256 493.2 256 512.5 288 512.5 288 493.2 M 288 19.8 L 288 0.5 256 0.5 256 19.8 288 19.8 Z"/>
<path fill="#2A8B3E" stroke="none" d="M 320 493.2 L 288 493.2 288 512.5 320 512.5 320 493.2 M 288 19.8 L 320 19.8 320 0.5 288 0.5 288 19.8 Z"/>
<path fill="#3580B8" stroke="none" d="M 480 19.8 L 448 19.8 416 19.8 384 19.8 352 19.8 320 19.8 288 19.8 256 19.8 224 19.8 192 19.8 160 19.8 128 19.8 96 19.8 64 19.8 32 19.8 0 19.8 0 493.2 32 493.2 64 493.2 96 493.2 128 493.2 160 493.2 192 493.2 224 493.2 256 493.2 288 493.2 320 493.2 352 493.2 384 493.2 416 493.2 448 493.2 480 493.2 512 493.2 512 19.8 480 19.8 M 348.85 386.1 L 358.25 386.1 358.25 439.1 351.7 439.1 342.5 414.3 342.5 439.1 333.1 439.1 333.1 386.1 340.2 386.1 348.85 409.5 348.85 386.1 M 379.6 386.1 L 382.75 386.1 Q 387 386.2 390 389.2 393.15 392.35 393.15 396.8 L 393.15 401.9 383.45 403.7 383.45 395.8 Q 383.45 395 382.85 394.4 382.25 393.8 381.45 393.8 380.65 393.8 380.05 394.4 379.45 395 379.45 395.8 L 379.45 427.8 Q 379.45 428.6 380.05 429.2 380.65 429.8 381.45 429.8 382.25 429.8 382.85 429.2 383.45 428.6 383.45 427.8 L 383.45 416.95 393.15 418.95 393.15 428.4 Q 393.15 432.85 390 435.95 387 439 382.75 439.1 L 379.6 439.1 Q 375.3 439 372.25 435.95 369.15 432.85 369.15 428.4 L 369.15 396.8 Q 369.15 392.35 372.25 389.2 375.3 386.2 379.6 386.1 M 428.9 386.1 L 441.9 386.1 448.7 439.1 438.6 439.1 437.8 428.95 433.05 428.95 432.2 439.1 422.1 439.1 428.9 386.1 M 403.3 386.1 L 412.7 386.1 412.7 439.1 403.3 439.1 403.3 386.1 M 332.7 234.05 L 357.9 349.4 272.4 225.15 Q 272.65 224.85 272.95 224.55 279.55 217.7 279.55 207.85 279.55 205.7 279.25 203.75 L 417.2 156.35 332.7 234.05 M 272.95 191.15 Q 267.4 185.35 260.05 184.45 L 260.05 31.6 303.85 140.5 415.5 150.85 277.65 198.15 Q 276 194.35 272.95 191.15 M 254.6 184.4 Q 246.95 185.2 241.3 191.15 238.3 194.35 236.7 198.1 L 99.15 150.9 210.75 140.55 254.6 31.6 254.6 184.4 M 73.1 386.1 L 76.25 386.1 Q 80.5 386.2 83.5 389.2 86.65 392.35 86.65 396.8 L 86.65 401.9 76.95 403.7 76.95 395.8 Q 76.95 395 76.35 394.4 75.75 393.8 74.95 393.8 74.15 393.8 73.55 394.4 72.95 395 72.95 395.8 L 72.95 427.8 Q 72.95 428.6 73.55 429.2 74.15 429.8 74.95 429.8 75.75 429.8 76.35 429.2 76.95 428.6 76.95 427.8 L 76.95 416.95 86.65 418.95 86.65 428.4 Q 86.65 432.85 83.5 435.95 80.5 439 76.25 439.1 L 73.1 439.1 Q 68.8 439 65.75 435.95 62.65 432.85 62.65 428.4 L 62.65 396.8 Q 62.65 392.35 65.75 389.2 68.8 386.2 73.1 386.1 M 106.1 386.1 L 109.25 386.1 Q 113.5 386.2 116.5 389.2 119.65 392.35 119.65 396.8 L 119.65 428.4 Q 119.65 432.85 116.5 435.95 113.5 439 109.25 439.1 L 106.1 439.1 Q 101.8 439 98.75 435.95 95.65 432.85 95.65 428.4 L 95.65 396.8 Q 95.65 392.35 98.75 389.2 101.8 386.2 106.1 386.1 M 146.6 386.1 L 156 386.1 156 439.1 149.45 439.1 140.25 414.3 140.25 439.1 130.85 439.1 130.85 386.1 137.95 386.1 146.6 409.5 146.6 386.1 M 257.15 231.5 Q 263.1 231.5 268.05 228.6 L 353.45 352.75 257.4 291.85 161.35 352.8 246.65 228.8 Q 251.35 231.5 257.15 231.5 M 235.15 203.7 Q 234.8 205.7 234.8 207.85 234.8 217.7 241.3 224.55 241.7 225 242.2 225.45 L 156.9 349.5 182.05 234.15 97.5 156.45 235.15 203.7 M 164.7 386.1 L 175.7 386.1 179.35 419.45 183 386.1 194 386.1 183.25 439.1 175.45 439.1 164.7 386.1 M 222.15 386.1 L 222.15 395 212.45 395 212.45 405.9 222.15 405.9 222.15 414.3 212.45 414.3 212.45 430.2 222.15 430.2 222.15 439.1 203.05 439.1 203.05 386.1 222.15 386.1 M 247 386.1 Q 251.25 386.2 254.25 389.2 257.3 392.25 257.4 396.55 L 257.4 406.4 Q 257.4 410.85 254.25 413.95 253 415.2 251.6 415.95 L 260.1 439.1 249.85 439.1 243.7 420.45 243.7 439.1 233.4 439.1 233.4 386.1 247 386.1 M 279.95 393.8 Q 279.15 393.8 278.55 394.4 277.95 395 277.95 395.8 L 277.95 427.8 Q 277.95 428.6 278.55 429.2 279.15 429.8 279.95 429.8 280.75 429.8 281.35 429.2 281.95 428.6 281.95 427.8 L 281.95 415.15 279.95 415.15 279.95 407.7 291.65 407.7 291.65 428.4 Q 291.65 432.85 288.5 435.95 285.5 439 281.25 439.1 L 278.1 439.1 Q 273.8 439 270.75 435.95 267.65 432.85 267.65 428.4 L 267.65 396.8 Q 267.65 392.35 270.75 389.2 273.8 386.2 278.1 386.1 L 281.25 386.1 Q 285.5 386.2 288.5 389.2 291.65 392.35 291.65 396.8 L 291.65 398.25 281.95 401.75 281.95 395.8 Q 281.95 395 281.35 394.4 280.75 393.8 279.95 393.8 M 321.15 386.1 L 321.15 395 311.45 395 311.45 405.9 321.15 405.9 321.15 414.3 311.45 414.3 311.45 430.2 321.15 430.2 321.15 439.1 302.05 439.1 302.05 386.1 321.15 386.1 M 277.7 450.65 Q 280.15 450.7 281.9 452.45 283.75 454.3 283.75 456.9 L 283.75 459.85 278.1 460.9 278.1 456.3 Q 278.1 455.85 277.75 455.5 277.4 455.15 276.95 455.15 276.45 455.15 276.1 455.5 275.75 455.85 275.75 456.3 L 275.75 474.95 Q 275.75 475.45 276.1 475.8 276.45 476.15 276.95 476.15 277.4 476.15 277.75 475.8 278.1 475.45 278.1 474.95 L 278.1 468.65 283.75 469.8 283.75 475.3 Q 283.75 477.9 281.9 479.7 280.15 481.5 277.7 481.55 L 275.85 481.55 Q 273.35 481.5 271.55 479.7 269.75 477.9 269.75 475.3 L 269.75 456.9 Q 269.75 454.3 271.55 452.45 273.35 450.7 275.85 450.65 L 277.7 450.65 M 252.9 466.55 L 259.8 466.55 259.8 468.5 252.9 468.5 252.9 466.55 M 243.4 452.45 Q 245.25 454.3 245.25 456.9 L 245.25 475.3 Q 245.25 477.9 243.4 479.7 241.65 481.5 239.2 481.55 L 237.35 481.55 Q 234.85 481.5 233.05 479.7 231.25 477.9 231.25 475.3 L 231.25 456.9 Q 231.25 454.3 233.05 452.45 234.85 450.7 237.35 450.65 L 239.2 450.65 Q 241.65 450.7 243.4 452.45 M 315.65 450.65 Q 318.15 450.7 319.9 452.45 321.65 454.25 321.75 456.75 L 321.75 475.45 Q 321.65 477.95 319.9 479.75 318.15 481.5 315.65 481.55 L 307.75 481.55 307.75 450.65 315.65 450.65 M 300.95 452.45 Q 302.7 454.25 302.8 456.75 L 302.8 462.5 Q 302.8 465.1 300.95 466.9 300.2 467.6 299.4 468.05 L 304.35 481.55 298.4 481.55 294.8 470.7 294.8 481.55 288.8 481.55 288.8 450.65 296.7 450.65 Q 299.2 450.7 300.95 452.45 M 199.1 456.3 Q 199.1 455.85 198.75 455.5 198.4 455.15 197.95 455.15 197.45 455.15 197.1 455.5 196.75 455.85 196.75 456.3 L 196.75 474.95 Q 196.75 475.45 197.1 475.8 197.45 476.15 197.95 476.15 198.4 476.15 198.75 475.8 199.1 475.45 199.1 474.95 L 199.1 468.65 204.75 469.8 204.75 475.3 Q 204.75 477.9 202.9 479.7 201.15 481.5 198.7 481.55 L 196.85 481.55 Q 194.35 481.5 192.55 479.7 190.75 477.9 190.75 475.3 L 190.75 456.9 Q 190.75 454.3 192.55 452.45 194.35 450.7 196.85 450.65 L 198.7 450.65 Q 201.15 450.7 202.9 452.45 204.75 454.3 204.75 456.9 L 204.75 459.85 199.1 460.9 199.1 456.3 M 223.7 452.45 Q 225.45 454.25 225.55 456.75 L 225.55 463.75 Q 225.45 466.25 223.7 468.05 221.95 469.8 219.45 469.85 L 217.55 469.85 217.55 481.55 211.55 481.55 211.55 450.65 219.45 450.65 Q 221.95 450.7 223.7 452.45 M 218.9 455.15 Q 218.85 455.15 218.75 455.15 L 217.55 455.15 217.55 463.85 218.35 463.85 218.7 463.9 219 463.85 Q 219.3 463.75 219.55 463.55 219.9 463.2 219.9 462.7 L 219.9 461 219.9 459.5 219.9 456.3 Q 219.9 455.85 219.55 455.5 219.25 455.2 218.9 455.15 M 296.8 455.5 Q 296.5 455.2 296.15 455.15 296.1 455.15 296 455.15 L 294.8 455.15 294.8 463.85 295.6 463.85 295.95 463.9 296.25 463.85 Q 296.55 463.75 296.8 463.55 297.15 463.2 297.15 462.7 L 297.15 456.3 Q 297.15 455.85 296.8 455.5 M 315.1 455.15 Q 315.05 455.15 314.95 455.15 L 313.75 455.15 313.75 477.05 314.95 477.05 Q 315.05 477.05 315.1 477.05 315.45 477 315.75 476.7 316.1 476.35 316.1 475.9 L 316.1 456.3 Q 316.1 455.85 315.75 455.5 315.45 455.2 315.1 455.15 M 238.4 455.15 Q 237.95 455.15 237.6 455.5 237.25 455.85 237.25 456.3 L 237.25 474.95 Q 237.25 475.45 237.6 475.8 237.95 476.15 238.4 476.15 238.9 476.15 239.25 475.8 239.6 475.45 239.6 474.95 L 239.6 456.3 Q 239.6 455.85 239.25 455.5 238.9 455.15 238.4 455.15 M 245.75 393.8 L 243.7 393.8 243.7 408.7 245.1 408.7 245.7 408.8 246.2 408.75 Q 246.7 408.6 247.1 408.2 247.7 407.6 247.7 406.8 L 247.7 395.8 Q 247.7 395 247.1 394.4 246.6 393.9 246 393.85 245.9 393.8 245.75 393.8 M 109.35 394.4 Q 108.75 393.8 107.95 393.8 107.15 393.8 106.55 394.4 105.95 395 105.95 395.8 L 105.95 427.8 Q 105.95 428.6 106.55 429.2 107.15 429.8 107.95 429.8 108.75 429.8 109.35 429.2 109.95 428.6 109.95 427.8 L 109.95 395.8 Q 109.95 395 109.35 394.4 M 437.1 420.6 L 435.4 400.25 433.75 420.6 437.1 420.6 Z"/>
<path fill="#FFFFFF" stroke="none" d="M 225.55 456.75 Q 225.45 454.25 223.7 452.45 221.95 450.7 219.45 450.65 L 211.55 450.65 211.55 481.55 217.55 481.55 217.55 469.85 219.45 469.85 Q 221.95 469.8 223.7 468.05 225.45 466.25 225.55 463.75 L 225.55 456.75 M 218.75 455.15 Q 218.85 455.15 218.9 455.15 219.25 455.2 219.55 455.5 219.9 455.85 219.9 456.3 L 219.9 459.5 219.9 461 219.9 462.7 Q 219.9 463.2 219.55 463.55 219.3 463.75 219 463.85 L 218.7 463.9 218.35 463.85 217.55 463.85 217.55 455.15 218.75 455.15 M 198.75 455.5 Q 199.1 455.85 199.1 456.3 L 199.1 460.9 204.75 459.85 204.75 456.9 Q 204.75 454.3 202.9 452.45 201.15 450.7 198.7 450.65 L 196.85 450.65 Q 194.35 450.7 192.55 452.45 190.75 454.3 190.75 456.9 L 190.75 475.3 Q 190.75 477.9 192.55 479.7 194.35 481.5 196.85 481.55 L 198.7 481.55 Q 201.15 481.5 202.9 479.7 204.75 477.9 204.75 475.3 L 204.75 469.8 199.1 468.65 199.1 474.95 Q 199.1 475.45 198.75 475.8 198.4 476.15 197.95 476.15 197.45 476.15 197.1 475.8 196.75 475.45 196.75 474.95 L 196.75 456.3 Q 196.75 455.85 197.1 455.5 197.45 455.15 197.95 455.15 198.4 455.15 198.75 455.5 M 302.8 456.75 Q 302.7 454.25 300.95 452.45 299.2 450.7 296.7 450.65 L 288.8 450.65 288.8 481.55 294.8 481.55 294.8 470.7 298.4 481.55 304.35 481.55 299.4 468.05 Q 300.2 467.6 300.95 466.9 302.8 465.1 302.8 462.5 L 302.8 456.75 M 296.15 455.15 Q 296.5 455.2 296.8 455.5 297.15 455.85 297.15 456.3 L 297.15 462.7 Q 297.15 463.2 296.8 463.55 296.55 463.75 296.25 463.85 L 295.95 463.9 295.6 463.85 294.8 463.85 294.8 455.15 296 455.15 Q 296.1 455.15 296.15 455.15 M 319.9 452.45 Q 318.15 450.7 315.65 450.65 L 307.75 450.65 307.75 481.55 315.65 481.55 Q 318.15 481.5 319.9 479.75 321.65 477.95 321.75 475.45 L 321.75 456.75 Q 321.65 454.25 319.9 452.45 M 314.95 455.15 Q 315.05 455.15 315.1 455.15 315.45 455.2 315.75 455.5 316.1 455.85 316.1 456.3 L 316.1 475.9 Q 316.1 476.35 315.75 476.7 315.45 477 315.1 477.05 315.05 477.05 314.95 477.05 L 313.75 477.05 313.75 455.15 314.95 455.15 M 245.25 456.9 Q 245.25 454.3 243.4 452.45 241.65 450.7 239.2 450.65 L 237.35 450.65 Q 234.85 450.7 233.05 452.45 231.25 454.3 231.25 456.9 L 231.25 475.3 Q 231.25 477.9 233.05 479.7 234.85 481.5 237.35 481.55 L 239.2 481.55 Q 241.65 481.5 243.4 479.7 245.25 477.9 245.25 475.3 L 245.25 456.9 M 237.6 455.5 Q 237.95 455.15 238.4 455.15 238.9 455.15 239.25 455.5 239.6 455.85 239.6 456.3 L 239.6 474.95 Q 239.6 475.45 239.25 475.8 238.9 476.15 238.4 476.15 237.95 476.15 237.6 475.8 237.25 475.45 237.25 474.95 L 237.25 456.3 Q 237.25 455.85 237.6 455.5 M 259.8 466.55 L 252.9 466.55 252.9 468.5 259.8 468.5 259.8 466.55 M 281.9 452.45 Q 280.15 450.7 277.7 450.65 L 275.85 450.65 Q 273.35 450.7 271.55 452.45 269.75 454.3 269.75 456.9 L 269.75 475.3 Q 269.75 477.9 271.55 479.7 273.35 481.5 275.85 481.55 L 277.7 481.55 Q 280.15 481.5 281.9 479.7 283.75 477.9 283.75 475.3 L 283.75 469.8 278.1 468.65 278.1 474.95 Q 278.1 475.45 277.75 475.8 277.4 476.15 276.95 476.15 276.45 476.15 276.1 475.8 275.75 475.45 275.75 474.95 L 275.75 456.3 Q 275.75 455.85 276.1 455.5 276.45 455.15 276.95 455.15 277.4 455.15 277.75 455.5 278.1 455.85 278.1 456.3 L 278.1 460.9 283.75 459.85 283.75 456.9 Q 283.75 454.3 281.9 452.45 M 321.15 395 L 321.15 386.1 302.05 386.1 302.05 439.1 321.15 439.1 321.15 430.2 311.45 430.2 311.45 414.3 321.15 414.3 321.15 405.9 311.45 405.9 311.45 395 321.15 395 M 278.55 394.4 Q 279.15 393.8 279.95 393.8 280.75 393.8 281.35 394.4 281.95 395 281.95 395.8 L 281.95 401.75 291.65 398.25 291.65 396.8 Q 291.65 392.35 288.5 389.2 285.5 386.2 281.25 386.1 L 278.1 386.1 Q 273.8 386.2 270.75 389.2 267.65 392.35 267.65 396.8 L 267.65 428.4 Q 267.65 432.85 270.75 435.95 273.8 439 278.1 439.1 L 281.25 439.1 Q 285.5 439 288.5 435.95 291.65 432.85 291.65 428.4 L 291.65 407.7 279.95 407.7 279.95 415.15 281.95 415.15 281.95 427.8 Q 281.95 428.6 281.35 429.2 280.75 429.8 279.95 429.8 279.15 429.8 278.55 429.2 277.95 428.6 277.95 427.8 L 277.95 395.8 Q 277.95 395 278.55 394.4 M 254.25 389.2 Q 251.25 386.2 247 386.1 L 233.4 386.1 233.4 439.1 243.7 439.1 243.7 420.45 249.85 439.1 260.1 439.1 251.6 415.95 Q 253 415.2 254.25 413.95 257.4 410.85 257.4 406.4 L 257.4 396.55 Q 257.3 392.25 254.25 389.2 M 243.7 393.8 L 245.75 393.8 Q 245.9 393.8 246 393.85 246.6 393.9 247.1 394.4 247.7 395 247.7 395.8 L 247.7 406.8 Q 247.7 407.6 247.1 408.2 246.7 408.6 246.2 408.75 L 245.7 408.8 245.1 408.7 243.7 408.7 243.7 393.8 M 222.15 395 L 222.15 386.1 203.05 386.1 203.05 439.1 222.15 439.1 222.15 430.2 212.45 430.2 212.45 414.3 222.15 414.3 222.15 405.9 212.45 405.9 212.45 395 222.15 395 M 175.7 386.1 L 164.7 386.1 175.45 439.1 183.25 439.1 194 386.1 183 386.1 179.35 419.45 175.7 386.1 M 156 386.1 L 146.6 386.1 146.6 409.5 137.95 386.1 130.85 386.1 130.85 439.1 140.25 439.1 140.25 414.3 149.45 439.1 156 439.1 156 386.1 M 109.25 386.1 L 106.1 386.1 Q 101.8 386.2 98.75 389.2 95.65 392.35 95.65 396.8 L 95.65 428.4 Q 95.65 432.85 98.75 435.95 101.8 439 106.1 439.1 L 109.25 439.1 Q 113.5 439 116.5 435.95 119.65 432.85 119.65 428.4 L 119.65 396.8 Q 119.65 392.35 116.5 389.2 113.5 386.2 109.25 386.1 M 107.95 393.8 Q 108.75 393.8 109.35 394.4 109.95 395 109.95 395.8 L 109.95 427.8 Q 109.95 428.6 109.35 429.2 108.75 429.8 107.95 429.8 107.15 429.8 106.55 429.2 105.95 428.6 105.95 427.8 L 105.95 395.8 Q 105.95 395 106.55 394.4 107.15 393.8 107.95 393.8 M 76.25 386.1 L 73.1 386.1 Q 68.8 386.2 65.75 389.2 62.65 392.35 62.65 396.8 L 62.65 428.4 Q 62.65 432.85 65.75 435.95 68.8 439 73.1 439.1 L 76.25 439.1 Q 80.5 439 83.5 435.95 86.65 432.85 86.65 428.4 L 86.65 418.95 76.95 416.95 76.95 427.8 Q 76.95 428.6 76.35 429.2 75.75 429.8 74.95 429.8 74.15 429.8 73.55 429.2 72.95 428.6 72.95 427.8 L 72.95 395.8 Q 72.95 395 73.55 394.4 74.15 393.8 74.95 393.8 75.75 393.8 76.35 394.4 76.95 395 76.95 395.8 L 76.95 403.7 86.65 401.9 86.65 396.8 Q 86.65 392.35 83.5 389.2 80.5 386.2 76.25 386.1 M 412.7 386.1 L 403.3 386.1 403.3 439.1 412.7 439.1 412.7 386.1 M 441.9 386.1 L 428.9 386.1 422.1 439.1 432.2 439.1 433.05 428.95 437.8 428.95 438.6 439.1 448.7 439.1 441.9 386.1 M 435.4 400.25 L 437.1 420.6 433.75 420.6 435.4 400.25 M 382.75 386.1 L 379.6 386.1 Q 375.3 386.2 372.25 389.2 369.15 392.35 369.15 396.8 L 369.15 428.4 Q 369.15 432.85 372.25 435.95 375.3 439 379.6 439.1 L 382.75 439.1 Q 387 439 390 435.95 393.15 432.85 393.15 428.4 L 393.15 418.95 383.45 416.95 383.45 427.8 Q 383.45 428.6 382.85 429.2 382.25 429.8 381.45 429.8 380.65 429.8 380.05 429.2 379.45 428.6 379.45 427.8 L 379.45 395.8 Q 379.45 395 380.05 394.4 380.65 393.8 381.45 393.8 382.25 393.8 382.85 394.4 383.45 395 383.45 395.8 L 383.45 403.7 393.15 401.9 393.15 396.8 Q 393.15 392.35 390 389.2 387 386.2 382.75 386.1 M 358.25 386.1 L 348.85 386.1 348.85 409.5 340.2 386.1 333.1 386.1 333.1 439.1 342.5 439.1 342.5 414.3 351.7 439.1 358.25 439.1 358.25 386.1 Z"/>
<path fill="#170D10" stroke="none" d="M 234.8 207.85 Q 234.8 205.7 235.15 203.7 L 97.5 156.45 182.05 234.15 156.9 349.5 242.2 225.45 Q 241.7 225 241.3 224.55 234.8 217.7 234.8 207.85 Z"/>
<path fill="#2A6932" stroke="none" d="M 268.05 228.6 Q 263.1 231.5 257.15 231.5 251.35 231.5 246.65 228.8 L 161.35 352.8 257.4 291.85 353.45 352.75 268.05 228.6 Z"/>
<path fill="#FEF10C" stroke="none" d="M 241.3 191.15 Q 246.95 185.2 254.6 184.4 L 254.6 31.6 210.75 140.55 99.15 150.9 236.7 198.1 Q 238.3 194.35 241.3 191.15 Z"/>
<path fill="#BF1E45" stroke="none" d="M 260.05 184.45 Q 267.4 185.35 272.95 191.15 276 194.35 277.65 198.15 L 415.5 150.85 303.85 140.5 260.05 31.6 260.05 184.45 Z"/>
<path fill="#FDFDF6" stroke="none" d="M 357.9 349.4 L 332.7 234.05 417.2 156.35 279.25 203.75 Q 279.55 205.7 279.55 207.85 279.55 217.7 272.95 224.55 272.65 224.85 272.4 225.15 L 357.9 349.4 Z"/>
</g>
</defs>
<g transform="matrix(1,0,0,1,0,0)"><use xlink:href="#l0"/></g>
</svg>
