<svg xmlns="http://www.w3.org/2000/svg" xmlns:xlink="http://www.w3.org/1999/xlink" width="100%" height="100%" viewBox="0 0 512 512">
<!-- Vectorization by Rodrigo Polo https://github.com/rodrigopolo/logotipos-politicos -->
<defs>
<g id="l3">
<path fill="#3580B8" stroke="none" d="M 512 -0.05 L 0 -0.05 0 512 512 512 512 -0.05 Z"/>
</g>
<g id="l2">
<path fill="#FFFFFF" stroke="none" d="M 225.55 456.35 Q 225.4 453.85 223.65 452 221.95 450.3 219.45 450.25 L 211.55 450.25 211.55 481.15 217.5 481.15 217.5 469.45 219.45 469.45 Q 221.95 469.4 223.65 467.65 225.4 465.85 225.55 463.3 L 225.55 456.35 M 217.5 454.7 L 218.9 454.7 Q 219.25 454.8 219.55 455.1 219.85 455.35 219.85 455.85 L 219.85 462.25 Q 219.85 462.8 219.55 463.1 219.2 463.35 219 463.4 L 218.7 463.5 218.3 463.4 217.5 463.4 217.5 454.7 M 198.7 450.25 L 196.8 450.25 Q 194.25 450.3 192.55 452 190.75 453.8 190.75 456.45 L 190.75 474.85 Q 190.75 477.55 192.55 479.25 194.3 481.05 196.8 481.15 L 198.7 481.15 Q 201.1 481.1 202.9 479.25 204.7 477.55 204.7 474.85 L 204.7 469.4 199.05 468.2 199.05 474.55 Q 199.05 475.05 198.75 475.35 198.4 475.7 197.95 475.7 197.4 475.7 197.05 475.35 196.75 475.05 196.75 474.55 L 196.75 455.85 Q 196.75 455.4 197.05 455.1 197.45 454.7 197.95 454.7 198.35 454.7 198.75 455.1 199.05 455.4 199.05 455.85 L 199.05 460.45 204.7 459.45 204.7 456.45 Q 204.7 453.8 202.9 452 201.15 450.3 198.7 450.25 M 300.95 452 Q 299.2 450.3 296.65 450.25 L 288.8 450.25 288.8 481.15 294.8 481.15 294.8 470.25 298.4 481.15 304.3 481.15 299.4 467.65 Q 300.05 467.3 300.95 466.45 302.75 464.75 302.75 462.05 L 302.75 456.35 Q 302.75 453.85 300.95 452 M 296.1 454.7 Q 296.45 454.75 296.8 455.1 297.1 455.4 297.1 455.85 L 297.1 462.25 Q 297.1 462.8 296.8 463.1 296.45 463.35 296.25 463.4 L 295.95 463.5 295.55 463.4 294.8 463.4 294.8 454.7 296.1 454.7 M 319.9 452 Q 318.15 450.3 315.65 450.25 L 307.75 450.25 307.75 481.15 315.65 481.15 Q 318.1 481.1 319.9 479.35 321.7 477.5 321.7 475.05 L 321.7 456.35 Q 321.7 453.85 319.9 452 M 313.75 454.7 L 315.05 454.7 Q 315.4 454.75 315.75 455.1 316.05 455.4 316.05 455.85 L 316.05 475.45 Q 316.05 475.85 315.75 476.3 315.4 476.6 315.05 476.6 L 313.75 476.6 313.75 454.7 M 245.25 456.45 Q 245.25 453.85 243.35 452 241.65 450.3 239.2 450.25 L 237.35 450.25 Q 234.85 450.3 233.05 452 231.25 453.8 231.25 456.45 L 231.25 474.85 Q 231.25 477.55 233.05 479.25 234.9 481.1 237.35 481.15 L 239.2 481.15 Q 241.6 481.1 243.35 479.25 245.25 477.5 245.25 474.85 L 245.25 456.45 M 238.4 454.7 Q 238.85 454.7 239.25 455.1 239.55 455.35 239.55 455.85 L 239.55 474.55 Q 239.55 475.05 239.25 475.35 238.9 475.7 238.4 475.7 237.9 475.7 237.6 475.35 237.2 475.05 237.2 474.55 L 237.2 455.85 Q 237.2 455.4 237.6 455.1 237.95 454.7 238.4 454.7 M 252.85 468.1 L 259.75 468.1 259.75 466.1 252.85 466.1 252.85 468.1 M 277.65 450.25 L 275.85 450.25 Q 273.3 450.3 271.5 452 269.7 453.9 269.7 456.45 L 269.7 474.85 Q 269.7 477.45 271.5 479.25 273.35 481.1 275.85 481.15 L 277.65 481.15 Q 280.15 481.1 281.9 479.25 283.75 477.5 283.75 474.85 L 283.75 469.4 278.1 468.2 278.1 474.55 Q 278.1 475.05 277.7 475.35 277.4 475.7 276.9 475.7 276.4 475.7 276.1 475.35 275.75 475.05 275.75 474.55 L 275.75 455.85 Q 275.75 455.35 276.1 455.1 276.45 454.7 276.9 454.7 277.4 454.7 277.7 455.1 278.1 455.4 278.1 455.85 L 278.1 460.45 283.75 459.45 283.75 456.45 Q 283.75 453.85 281.9 452 280.2 450.3 277.65 450.25 M 321.15 385.7 L 302 385.7 302 438.7 321.15 438.7 321.15 429.75 311.45 429.75 311.45 413.9 321.15 413.9 321.15 405.45 311.45 405.45 311.45 394.55 321.15 394.55 321.15 385.7 M 277.9 395.4 Q 277.9 394.6 278.55 393.95 279.15 393.4 279.95 393.4 280.7 393.4 281.35 393.95 281.95 394.65 281.95 395.4 L 281.95 401.35 291.65 397.8 291.65 396.35 Q 291.65 391.9 288.45 388.8 285.5 385.75 281.25 385.7 L 278.1 385.7 Q 273.8 385.75 270.75 388.8 267.65 391.95 267.65 396.35 L 267.65 427.95 Q 267.65 432.4 270.75 435.5 273.8 438.55 278.1 438.7 L 281.25 438.7 Q 285.55 438.55 288.45 435.5 291.65 432.45 291.65 427.95 L 291.65 407.25 279.95 407.25 279.95 414.7 281.95 414.7 281.95 427.4 Q 281.95 428.2 281.35 428.75 280.75 429.35 279.95 429.35 279.1 429.35 278.55 428.75 277.9 428.2 277.9 427.4 L 277.9 395.4 M 254.25 388.8 Q 251.25 385.75 246.95 385.7 L 233.35 385.7 233.35 438.7 243.65 438.7 243.65 420 249.8 438.7 260.1 438.7 251.55 415.5 Q 252.95 414.8 254.25 413.5 257.4 410.45 257.4 405.95 L 257.4 396.15 Q 257.25 391.8 254.25 388.8 M 243.65 393.4 L 245.95 393.4 Q 246.65 393.5 247.1 393.95 247.7 394.65 247.7 395.4 L 247.7 406.4 Q 247.7 407.1 247.1 407.75 246.6 408.25 246.15 408.3 L 245.65 408.35 245.1 408.25 243.65 408.25 243.65 393.4 M 222.1 385.7 L 203.05 385.7 203.05 438.7 222.1 438.7 222.1 429.75 212.4 429.75 212.4 413.9 222.1 413.9 222.1 405.45 212.4 405.45 212.4 394.55 222.1 394.55 222.1 385.7 M 175.7 385.7 L 164.7 385.7 175.45 438.7 183.2 438.7 193.95 385.7 182.95 385.7 179.35 419 175.7 385.7 M 137.9 385.7 L 130.85 385.7 130.85 438.7 140.2 438.7 140.2 413.9 149.4 438.7 156 438.7 156 385.7 146.55 385.7 146.55 409.05 137.9 385.7 M 106.1 385.7 Q 101.8 385.75 98.7 388.8 95.6 391.95 95.6 396.35 L 95.6 427.95 Q 95.6 432.4 98.7 435.5 101.75 438.55 106.1 438.7 L 109.2 438.7 Q 113.55 438.55 116.5 435.5 119.65 432.45 119.65 427.95 L 119.65 396.35 Q 119.65 391.9 116.5 388.8 113.5 385.75 109.2 385.7 L 106.1 385.7 M 106.55 393.95 Q 107.15 393.4 107.9 393.4 108.7 393.4 109.35 393.95 109.95 394.65 109.95 395.4 L 109.95 427.4 Q 109.95 428.2 109.35 428.75 108.75 429.35 107.9 429.35 107.1 429.35 106.55 428.75 105.9 428.2 105.9 427.4 L 105.9 395.4 Q 105.9 394.6 106.55 393.95 M 73.1 385.7 Q 68.8 385.75 65.7 388.8 62.6 391.95 62.6 396.35 L 62.6 427.95 Q 62.6 432.4 65.7 435.5 68.75 438.55 73.1 438.7 L 76.2 438.7 Q 80.5 438.55 83.5 435.5 86.65 432.45 86.65 427.95 L 86.65 418.5 76.95 416.5 76.95 427.4 Q 76.95 428.2 76.35 428.75 75.75 429.35 74.9 429.35 74.1 429.35 73.55 428.75 72.9 428.2 72.9 427.4 L 72.9 395.4 Q 72.9 394.6 73.55 393.95 74.1 393.4 74.9 393.4 75.65 393.4 76.35 393.95 76.95 394.65 76.95 395.4 L 76.95 403.25 86.65 401.45 86.65 396.35 Q 86.65 391.9 83.5 388.8 80.5 385.75 76.2 385.7 L 73.1 385.7 M 412.7 385.7 L 403.3 385.7 403.3 438.7 412.7 438.7 412.7 385.7 M 441.9 385.7 L 428.9 385.7 422.05 438.7 432.2 438.7 433.05 428.5 437.8 428.5 438.6 438.7 448.65 438.7 441.9 385.7 M 433.75 420.15 L 435.35 399.8 437.1 420.15 433.75 420.15 M 379.55 385.7 Q 375.3 385.75 372.25 388.8 369.1 391.9 369.1 396.35 L 369.1 427.95 Q 369.1 432.45 372.25 435.5 375.2 438.55 379.55 438.7 L 382.75 438.7 Q 387 438.55 390 435.5 393.1 432.45 393.1 427.95 L 393.1 418.5 383.4 416.5 383.4 427.4 Q 383.4 428.2 382.85 428.75 382.25 429.35 381.45 429.35 380.6 429.35 380.05 428.75 379.45 428.2 379.45 427.4 L 379.45 395.4 Q 379.45 394.65 380.05 393.95 380.7 393.4 381.45 393.4 382.15 393.4 382.85 393.95 383.4 394.55 383.4 395.4 L 383.4 403.25 393.1 401.45 393.1 396.35 Q 393.1 391.9 390 388.8 386.95 385.75 382.75 385.7 L 379.55 385.7 M 340.15 385.7 L 333.1 385.7 333.1 438.7 342.45 438.7 342.45 413.9 351.65 438.7 358.25 438.7 358.25 385.7 348.8 385.7 348.8 409.05 340.15 385.7 Z"/>
</g>
<g id="l1">
<path fill="#FDFDF6" stroke="none" d="M 357.9 348.95 L 332.7 233.65 417.2 155.9 279.2 203.3 Q 279.5 205.1 279.5 207.4 279.5 217.25 272.95 224.15 L 272.4 224.7 357.9 348.95 Z"/>
<path fill="#BF1E45" stroke="none" d="M 260 184 Q 267.3 184.9 272.95 190.7 276.05 193.95 277.65 197.75 L 415.5 150.45 303.8 140.05 260 31.15 260 184 Z"/>
<path fill="#FEF10C" stroke="none" d="M 236.7 197.65 Q 238.4 193.8 241.3 190.7 246.9 184.8 254.6 184 L 254.6 31.15 210.75 140.15 99.15 150.45 236.7 197.65 Z"/>
<path fill="#2A6932" stroke="none" d="M 268.05 228.15 Q 263.1 231.1 257.15 231.1 251.35 231.1 246.65 228.35 L 161.35 352.4 257.4 291.45 353.45 352.3 268.05 228.15 Z"/>
<path fill="#170D10" stroke="none" d="M 241.3 224.15 Q 234.8 217.25 234.8 207.4 234.8 205.05 235.15 203.25 L 97.45 156.05 182.05 233.7 156.85 349.1 242.2 225 241.3 224.15 Z"/>
</g>
<g id="l0">
<path fill="#2DA3DB" stroke="none" d="M -160 -9.5 L -192 -9.5 -192 9.5 -160 9.5 -160 -9.5 Z"/>
<path fill="#AD222E" stroke="none" d="M -64 -9.5 L -96 -9.5 -96 9.5 -64 9.5 -64 -9.5 Z"/>
<path fill="#ED8A2B" stroke="none" d="M -32 -9.5 L -64 -9.5 -64 9.5 -32 9.5 -32 -9.5 Z"/>
<path fill="#D62380" stroke="none" d="M -96 -9.5 L -128 -9.5 -128 9.5 -96 9.5 -96 -9.5 Z"/>
<path fill="#319E94" stroke="none" d="M -128 -9.5 L -160 -9.5 -160 9.5 -128 9.5 -128 -9.5 Z"/>
<path fill="#000000" stroke="none" d="M -224 -9.5 L -256 -9.5 -256 9.5 -224 9.5 -224 -9.5 Z"/>
<path fill="#263179" stroke="none" d="M -192 -9.5 L -224 -9.5 -224 9.5 -192 9.5 -192 -9.5 Z"/>
<path fill="#F5EA39" stroke="none" d="M 0 9.5 L 0 -9.5 -32 -9.5 -32 9.5 0 9.5 Z"/>
<path fill="#572B7B" stroke="none" d="M 192 -9.5 L 160 -9.5 160 9.5 192 9.5 192 -9.5 Z"/>
<path fill="#907F6E" stroke="none" d="M 256 -9.5 L 224 -9.5 224 9.5 256 9.5 256 -9.5 Z"/>
<path fill="#C42455" stroke="none" d="M 224 -9.5 L 192 -9.5 192 9.5 224 9.5 224 -9.5 Z"/>
<path fill="#5BB2C4" stroke="none" d="M 96 -9.5 L 64 -9.5 64 9.5 96 9.5 96 -9.5 Z"/>
<path fill="#FEFFFD" stroke="none" d="M 128 -9.5 L 96 -9.5 96 9.5 128 9.5 128 -9.5 Z"/>
<path fill="#2769A4" stroke="none" d="M 160 -9.5 L 128 -9.5 128 9.5 160 9.5 160 -9.5 Z"/>
<path fill="#2A8B3E" stroke="none" d="M 64 -9.5 L 32 -9.5 32 9.5 64 9.5 64 -9.5 Z"/>
<path fill="#81BF44" stroke="none" d="M 32 -9.5 L 0 -9.5 0 9.5 32 9.5 32 -9.5 Z"/>
</g>
</defs>
<g transform="matrix(1,0,0,1,0,0)">
<use xlink:href="#l3"/>
</g>
<g transform="matrix(1,0,0,1,0,0)">
<use xlink:href="#l2"/>
</g>
<g transform="matrix(1,0,0,1,0,0)">
<use xlink:href="#l1"/>
</g>
<g transform="matrix(1,0,0,1,256,9.55)">
<g transform="matrix(1,0,0,1,0,0)">
<use xlink:href="#l0"/>
</g>
</g>
<g transform="matrix(1,0,0,1,256,502.5)">
<g transform="matrix(1,0,0,1,0,0)">
<use xlink:href="#l0"/>
</g>
</g>
</svg>
