
<svg xmlns="http://www.w3.org/2000/svg" xmlns:xlink="http://www.w3.org/1999/xlink" width="100%" height="100%" viewBox="0 0 512 512">
<defs>
<g id="Layer0_0_FILL">
<path fill="#16255C" stroke="none" d="
M 19 19
L 19 493 493 493 493 19 19 19
M 30.5 481.25
L 30.5 30.5 481.25 30.5 481.25 481.25 30.5 481.25
M 39.3 39.3
L 39.3 472.25 472.25 472.25 472.25 39.3 39.3 39.3
M 454 184.95
Q 463.75 184.95 463.75 194.75
L 463.75 317.3
Q 463.75 327.05 454 327.05
L 327.05 327.05 327.05 454
Q 327.05 463.75 317.3 463.75
L 194.75 463.75
Q 184.95 463.75 184.95 454
L 184.95 327.05 58 327.05
Q 48.25 327.05 48.25 317.3
L 48.25 194.75
Q 48.25 184.95 58 184.95
L 184.95 184.95 184.95 58
Q 184.95 48.25 194.75 48.25
L 317.3 48.25
Q 327.05 48.25 327.05 58
L 327.05 184.95 454 184.95
M 91.4 230.75
L 91.4 229.55 73.3 229.55 73.3 230.75
Q 76.9 231 78 232.05 79.05 233.1 79.05 236.6
L 79.05 264.8
Q 79.05 269 78.1 270 77.15 271 73.3 271.45
L 73.3 272.6 91.4 272.6 91.4 271.45
Q 87.8 271.15 86.75 270.1 85.65 269.1 85.65 265.55
L 85.65 252.15 105.45 252.15 105.45 264.8
Q 105.45 269 104.55 270 103.55 271 99.7 271.45
L 99.7 272.6 117.75 272.6 117.75 271.45
Q 114.15 271.1 113.15 270.1 112.05 269.1 112.05 265.55
L 112.05 236.6
Q 112.05 233.1 113.15 232.05 114.15 231 117.75 230.75
L 117.75 229.55 99.7 229.55 99.7 230.75
Q 103.35 231 104.4 232.05 105.45 233.1 105.45 236.6
L 105.45 249.3 85.65 249.3 85.65 236.6
Q 85.65 233.1 86.75 232.05 87.8 231 91.4 230.75
M 136.55 230.75
L 136.55 229.55 118.05 229.55 118.05 230.75
Q 121.8 231.05 122.9 232.05 123.95 233.05 123.95 236.6
L 123.95 256.95
Q 123.95 263 126.05 266.65 129.85 273.55 140.4 273.55 151.05 273.55 154.9 266.55 156.95 262.8 156.95 256.05
L 156.95 239.15
Q 156.95 234 158.15 232.6 159.3 231.2 163.05 230.75 166.95 230.95 168.1 232 169.2 233.1 169.2 236.6
L 169.2 263.05
Q 169.2 268.15 168.05 269.6 166.9 271 162.85 271.45
L 162.85 272.6 178.2 272.6 178.2 271.45
Q 174.65 271 173.6 270 172.05 268.35 172.05 263.05
L 172.05 237.1 188.45 272.6 189.35 272.6 206.05 235.55 206.05 264.75
Q 206.05 268.9 205.05 270 204.1 271.1 200.15 271.45
L 200.15 272.6 218.35 272.6 218.35 271.45
Q 214.75 271.1 213.65 270.1 212.65 269.1 212.65 265.55
L 212.65 236.6
Q 212.65 233.15 213.65 232.05 214.75 231 218.35 230.75
L 218.35 229.55 205.4 229.55 190.8 261.95 175.9 229.55 148 229.55 148 230.75
Q 151.55 231.1 152.8 232.5 154.1 233.8 154.1 239.15
L 154.1 256.05
Q 154.1 262.3 152.55 265.3 149.85 270.6 141.85 270.6 134.55 270.6 131.95 265.4 130.55 262.55 130.55 257.45
L 130.55 236.6
Q 130.55 233 131.7 232.05 132.8 231 136.55 230.75
M 327.95 230.75
L 327.95 229.55 293.5 229.55 293.5 230.75
Q 297.05 231.1 298.15 232.1 299.7 233.7 299.7 239.05
L 299.7 260.7 274.6 229.55 263.5 229.55 263.5 230.75
Q 265.5 230.8 266.5 231.25 267.5 231.6 268.9 233.3
L 269.8 234.35 269.8 263.05
Q 269.8 268.15 268.65 269.6 267.55 270.95 263.65 271.45 261.45 271.1 260.5 270.25 259.55 269.35 257.9 265.7
L 241.7 228.8 240.4 228.8 226.85 260.75
Q 223.75 267.95 222.55 269.55 221.25 271.15 218.75 271.45
L 218.75 272.6 231.65 272.6 231.65 271.45
Q 229.4 271.25 228.55 270.85 227.2 270.2 227.2 268.55
L 227.7 266.35 230.75 258.55 247.9 258.55 251.4 267.35 251.7 269
Q 251.7 270.45 250.9 270.8 250.05 271.2 247.2 271.45
L 247.2 272.6 278.75 272.6 278.75 271.45
Q 275.25 271 274.2 270 272.65 268.35 272.65 263.05
L 272.65 237.7 301.45 273.4 302.6 273.4 302.6 239.15
Q 302.6 234 303.85 232.55 305.05 231.15 308.75 230.75
L 308.8 230.75
Q 312.7 230.95 313.9 232 315.05 233 315.05 236.6
L 315.05 265.55
Q 315.05 269.35 313.9 270.25 312.7 271.15 308.7 271.45
L 308.7 272.6 327.95 272.6 327.95 271.45
Q 324 271.15 322.85 270.25 321.65 269.35 321.65 265.55
L 321.65 236.6
Q 321.65 233 322.85 232 324 230.95 327.95 230.75
M 231.85 255.9
L 239.35 237.95 246.8 255.9 231.85 255.9
M 338.95 241.5
Q 337.45 239.7 337.45 237.2 337.45 234.4 339.45 232.85 341.4 231.25 344.1 231.25 347.5 231.25 351.05 233.75 354.55 236.2 356.1 242.5
L 357.7 242.5 356.25 228.65 354.9 228.65 354.2 230.25
Q 353.75 230.8 352.55 230.8
L 348.95 229.75
Q 345.85 228.65 343.6 228.65 338.2 228.65 334.9 231.9 331.65 235.15 331.65 240.1 331.65 243.8 334.4 246.9 335.9 248.55 338.4 250.1
L 343.95 253.55
Q 348.75 256.55 350.25 258.05 352.55 260.4 352.55 263.6 352.55 267.15 350.25 269.1 348 271.1 344.85 271.1 339.15 271.1 335.25 266.5 333.05 263.9 331.4 259.55
L 329.9 259.55 331.8 273.4 333.25 273.4 333.8 271.9
Q 334.2 271.2 335.3 271.2
L 339.1 272.35
Q 342.4 273.5 345.4 273.5 351.4 273.5 355.3 270.05 359.15 266.6 359.15 261.5 359.15 257.7 357 254.9 354.75 252.1 349.4 248.85
L 343.7 245.3
Q 340.5 243.35 338.95 241.5
M 387.95 232.25
Q 393.6 232.25 395.4 233.85 397.15 235.4 398.3 240.6
L 399.85 240.6 399.5 229.55 362.7 229.55 362.25 240.6 363.85 240.6
Q 364.85 235.35 366.85 233.8 368.8 232.25 374.15 232.25
L 377.85 232.25 377.85 264.8
Q 377.85 269 376.8 270.05 375.8 271.1 371.65 271.45
L 371.65 272.6 390.65 272.6 390.65 271.45
Q 386.7 271.15 385.5 270.25 384.3 269.35 384.3 265.55
L 384.3 232.25 387.95 232.25
M 423.05 228.8
L 421.75 228.8 408.15 260.75
Q 405.1 267.95 403.9 269.55 402.6 271.15 400.1 271.45
L 400.1 272.6 413 272.6 413 271.45
Q 410.7 271.25 409.9 270.85 408.55 270.2 408.55 268.55
L 409.05 266.35 412.1 258.55 429.25 258.55 432.75 267.35 433.05 269
Q 433.05 270.45 432.25 270.8 431.4 271.2 428.55 271.45
L 428.55 272.6 445.1 272.6 445.1 271.45
Q 442.85 271.1 441.85 270.25 440.9 269.35 439.25 265.7
L 423.05 228.8
M 428.15 255.9
L 413.2 255.9 420.7 237.95 428.15 255.9 Z"/>

<path fill="#FFFFFF" stroke="none" d="
M 30.5 30.5
L 30.5 481.25 481.25 481.25 481.25 30.5 30.5 30.5
M 39.3 472.25
L 39.3 39.3 472.25 39.3 472.25 472.25 39.3 472.25
M 463.75 194.75
Q 463.75 184.95 454 184.95
L 327.05 184.95 327.05 58
Q 327.05 48.25 317.3 48.25
L 194.75 48.25
Q 184.95 48.25 184.95 58
L 184.95 184.95 58 184.95
Q 48.25 184.95 48.25 194.75
L 48.25 317.3
Q 48.25 327.05 58 327.05
L 184.95 327.05 184.95 454
Q 184.95 463.75 194.75 463.75
L 317.3 463.75
Q 327.05 463.75 327.05 454
L 327.05 327.05 454 327.05
Q 463.75 327.05 463.75 317.3
L 463.75 194.75
M 421.75 228.8
L 423.05 228.8 439.25 265.7
Q 440.9 269.35 441.85 270.25 442.85 271.1 445.1 271.45
L 445.1 272.6 428.55 272.6 428.55 271.45
Q 431.4 271.2 432.25 270.8 433.05 270.45 433.05 269
L 432.75 267.35 429.25 258.55 412.1 258.55 409.05 266.35 408.55 268.55
Q 408.55 270.2 409.9 270.85 410.7 271.25 413 271.45
L 413 272.6 400.1 272.6 400.1 271.45
Q 402.6 271.15 403.9 269.55 405.1 267.95 408.15 260.75
L 421.75 228.8
M 395.4 233.85
Q 393.6 232.25 387.95 232.25
L 384.3 232.25 384.3 265.55
Q 384.3 269.35 385.5 270.25 386.7 271.15 390.65 271.45
L 390.65 272.6 371.65 272.6 371.65 271.45
Q 375.8 271.1 376.8 270.05 377.85 269 377.85 264.8
L 377.85 232.25 374.15 232.25
Q 368.8 232.25 366.85 233.8 364.85 235.35 363.85 240.6
L 362.25 240.6 362.7 229.55 399.5 229.55 399.85 240.6 398.3 240.6
Q 397.15 235.4 395.4 233.85
M 337.45 237.2
Q 337.45 239.7 338.95 241.5 340.5 243.35 343.7 245.3
L 349.4 248.85
Q 354.75 252.1 357 254.9 359.15 257.7 359.15 261.5 359.15 266.6 355.3 270.05 351.4 273.5 345.4 273.5 342.4 273.5 339.1 272.35
L 335.3 271.2
Q 334.2 271.2 333.8 271.9
L 333.25 273.4 331.8 273.4 329.9 259.55 331.4 259.55
Q 333.05 263.9 335.25 266.5 339.15 271.1 344.85 271.1 348 271.1 350.25 269.1 352.55 267.15 352.55 263.6 352.55 260.4 350.25 258.05 348.75 256.55 343.95 253.55
L 338.4 250.1
Q 335.9 248.55 334.4 246.9 331.65 243.8 331.65 240.1 331.65 235.15 334.9 231.9 338.2 228.65 343.6 228.65 345.85 228.65 348.95 229.75
L 352.55 230.8
Q 353.75 230.8 354.2 230.25
L 354.9 228.65 356.25 228.65 357.7 242.5 356.1 242.5
Q 354.55 236.2 351.05 233.75 347.5 231.25 344.1 231.25 341.4 231.25 339.45 232.85 337.45 234.4 337.45 237.2
M 327.95 229.55
L 327.95 230.75
Q 324 230.95 322.85 232 321.65 233 321.65 236.6
L 321.65 265.55
Q 321.65 269.35 322.85 270.25 324 271.15 327.95 271.45
L 327.95 272.6 308.7 272.6 308.7 271.45
Q 312.7 271.15 313.9 270.25 315.05 269.35 315.05 265.55
L 315.05 236.6
Q 315.05 233 313.9 232 312.7 230.95 308.8 230.75
L 308.75 230.75
Q 305.05 231.15 303.85 232.55 302.6 234 302.6 239.15
L 302.6 273.4 301.45 273.4 272.65 237.7 272.65 263.05
Q 272.65 268.35 274.2 270 275.25 271 278.75 271.45
L 278.75 272.6 247.2 272.6 247.2 271.45
Q 250.05 271.2 250.9 270.8 251.7 270.45 251.7 269
L 251.4 267.35 247.9 258.55 230.75 258.55 227.7 266.35 227.2 268.55
Q 227.2 270.2 228.55 270.85 229.4 271.25 231.65 271.45
L 231.65 272.6 218.75 272.6 218.75 271.45
Q 221.25 271.15 222.55 269.55 223.75 267.95 226.85 260.75
L 240.4 228.8 241.7 228.8 257.9 265.7
Q 259.55 269.35 260.5 270.25 261.45 271.1 263.65 271.45 267.55 270.95 268.65 269.6 269.8 268.15 269.8 263.05
L 269.8 234.35 268.9 233.3
Q 267.5 231.6 266.5 231.25 265.5 230.8 263.5 230.75
L 263.5 229.55 274.6 229.55 299.7 260.7 299.7 239.05
Q 299.7 233.7 298.15 232.1 297.05 231.1 293.5 230.75
L 293.5 229.55 327.95 229.55
M 136.55 229.55
L 136.55 230.75
Q 132.8 231 131.7 232.05 130.55 233 130.55 236.6
L 130.55 257.45
Q 130.55 262.55 131.95 265.4 134.55 270.6 141.85 270.6 149.85 270.6 152.55 265.3 154.1 262.3 154.1 256.05
L 154.1 239.15
Q 154.1 233.8 152.8 232.5 151.55 231.1 148 230.75
L 148 229.55 175.9 229.55 190.8 261.95 205.4 229.55 218.35 229.55 218.35 230.75
Q 214.75 231 213.65 232.05 212.65 233.15 212.65 236.6
L 212.65 265.55
Q 212.65 269.1 213.65 270.1 214.75 271.1 218.35 271.45
L 218.35 272.6 200.15 272.6 200.15 271.45
Q 204.1 271.1 205.05 270 206.05 268.9 206.05 264.75
L 206.05 235.55 189.35 272.6 188.45 272.6 172.05 237.1 172.05 263.05
Q 172.05 268.35 173.6 270 174.65 271 178.2 271.45
L 178.2 272.6 162.85 272.6 162.85 271.45
Q 166.9 271 168.05 269.6 169.2 268.15 169.2 263.05
L 169.2 236.6
Q 169.2 233.1 168.1 232 166.95 230.95 163.05 230.75 159.3 231.2 158.15 232.6 156.95 234 156.95 239.15
L 156.95 256.05
Q 156.95 262.8 154.9 266.55 151.05 273.55 140.4 273.55 129.85 273.55 126.05 266.65 123.95 263 123.95 256.95
L 123.95 236.6
Q 123.95 233.05 122.9 232.05 121.8 231.05 118.05 230.75
L 118.05 229.55 136.55 229.55
M 91.4 229.55
L 91.4 230.75
Q 87.8 231 86.75 232.05 85.65 233.1 85.65 236.6
L 85.65 249.3 105.45 249.3 105.45 236.6
Q 105.45 233.1 104.4 232.05 103.35 231 99.7 230.75
L 99.7 229.55 117.75 229.55 117.75 230.75
Q 114.15 231 113.15 232.05 112.05 233.1 112.05 236.6
L 112.05 265.55
Q 112.05 269.1 113.15 270.1 114.15 271.1 117.75 271.45
L 117.75 272.6 99.7 272.6 99.7 271.45
Q 103.55 271 104.55 270 105.45 269 105.45 264.8
L 105.45 252.15 85.65 252.15 85.65 265.55
Q 85.65 269.1 86.75 270.1 87.8 271.15 91.4 271.45
L 91.4 272.6 73.3 272.6 73.3 271.45
Q 77.15 271 78.1 270 79.05 269 79.05 264.8
L 79.05 236.6
Q 79.05 233.1 78 232.05 76.9 231 73.3 230.75
L 73.3 229.55 91.4 229.55
M 239.35 237.95
L 231.85 255.9 246.8 255.9 239.35 237.95
M 413.2 255.9
L 428.15 255.9 420.7 237.95 413.2 255.9 Z"/>
</g>
</defs>

<g transform="matrix( 1, 0, 0, 1, 0,0) ">
<use xlink:href="#Layer0_0_FILL"/>
</g>
</svg>
