<svg xmlns="http://www.w3.org/2000/svg" version="1.1" xmlns:xlink="http://www.w3.org/1999/xlink" preserveAspectRatio="none" x="0px" y="0px" width="512px" height="512px" viewBox="0 0 512 512">
<defs>
<g id="f0">
<path fill="#ED1C24" stroke="none" d="M 138.2 453.65 Q 132.1 453.65 128.45 456.85 125.3 459.65 125.3 463.85 125.3 468 128.45 470.8 132.1 473.95 138.2 473.95 L 369.75 473.95 Q 375.85 473.95 379.5 470.8 382.65 468 382.65 463.85 382.65 459.65 379.5 456.85 375.85 453.65 369.75 453.65 L 138.2 453.65 M 147.7 207.6 Q 145 232.25 155.25 249.1 165.65 269.2 192.65 289.15 207.7 300.3 212.6 304.75 223.3 314.15 229.5 324.35 237.85 312.25 219.05 282.2 214.6 274.95 176.6 224 173.2 217.55 169.1 205.7 164.5 192.8 161.1 178.6 150.4 184 147.7 207.6 M 170.95 157.85 Q 170.35 177.8 177.05 197.85 182.8 215.1 191.6 226.35 194.75 231.15 207.1 245.85 219.75 261.1 226 270.25 247.6 302.05 237 322.35 274 297.95 280.9 263.55 286.65 234.95 271.5 198.2 269.05 187.75 259.2 175.65 246.9 161.95 240.8 153.7 217.4 122.75 222.45 77.2 172.7 105.5 170.95 157.85 M 351.8 342.9 Q 351.8 332.7 341.95 332.7 L 165.9 332.7 Q 156.15 332.7 156.15 342.9 156.15 353.1 165.9 353.1 L 341.95 353.1 Q 351.8 353.1 351.8 342.9 M 351.8 168.05 Q 345 159.1 327.85 142.35 308.6 123.45 300.6 114.05 269.3 77.2 272.25 38.25 228.9 76.15 253.2 134.45 259.1 148.55 276.55 178.6 291.1 203.35 293.25 213.8 301.45 248.65 284.55 280.8 270.35 307.7 244.2 324.35 268.25 322 293.7 307.8 319.5 293.5 337.45 271.9 356.95 248.55 361.4 223.05 366.55 194.55 351.8 168.05 Z"/>
<path fill="#2E3192" stroke="none" d="M 278.55 368.1 Q 263.8 368.1 252.75 378.2 241.85 388.55 241.85 404.05 241.85 419.75 252.4 429.95 262.85 440.15 279.05 440.15 295.35 440.15 305.9 429.95 316.6 419.85 316.6 404.15 316.6 388.65 305.8 378.35 295.1 368.1 278.55 368.1 M 278.8 384.3 L 279.25 384.3 Q 287.85 384.55 292.65 389.85 297.7 395.1 297.7 404.05 297.7 413.3 292.55 418.6 287.5 424 279.05 424 271.05 424 265.9 418.45 260.6 413.05 260.6 404.5 260.6 395.6 265.75 389.85 270.95 384.3 278.8 384.3 M 190.9 368.8 L 190.9 385.95 207.2 385.95 207.2 439.35 225.3 439.35 225.3 385.95 241.7 385.95 241.7 368.8 190.9 368.8 M 122.6 368.8 L 104.55 368.8 104.55 439.35 122.6 439.35 122.6 368.8 M 159.1 368.25 Q 147.25 369.75 138.55 378.55 127.9 388.9 127.9 404.4 127.9 419.4 138.35 429.85 148.75 440.3 163.8 440.3 172.25 440.3 185.15 436.2 L 186.1 435.95 186.1 416.25 184.1 417.3 Q 173.2 423.25 165.45 423.25 156.75 423.25 151.7 418.25 146.65 413.2 146.65 404.75 146.65 395.7 151.45 390.3 156.3 385.15 164.4 385.15 172.85 385.15 184.1 391.45 L 186.1 392.65 186.1 372.95 185.25 372.6 Q 171.2 366.6 159.1 368.25 M 45.25 368.8 L 26.85 368.8 54.9 439.35 70.05 439.35 98.2 368.8 79.65 368.8 62.5 411.65 45.25 368.8 M 406 368.8 L 387.95 368.8 387.95 439.35 406 439.35 406 368.8 M 455.05 368.8 L 441.35 368.8 411.5 439.35 429.95 439.35 435.6 425.95 461.15 425.95 466.9 439.35 485.35 439.35 455.05 368.8 M 456.8 412.35 L 439.8 412.35 448.25 392.4 456.8 412.35 M 349.9 368.8 L 325.05 368.8 325.05 439.35 343.1 439.35 343.1 413.55 361.3 439.35 382.4 439.35 361.75 410.25 Q 368.55 407.2 371.5 401.55 374.55 395.45 374.55 390.05 374.55 380.3 367.85 374.55 361.3 368.8 349.9 368.8 M 345.45 382.3 Q 351.1 382.3 354.15 384.55 357.3 386.9 357.3 390.65 357.3 399.9 345.2 399.9 L 341.95 399.9 341.95 382.3 345.45 382.3 Z"/>
</g>
</defs>
<g transform="matrix(1,0,0,1,0,0)"><use xlink:href="#f0"/></g>
</svg>
