<svg xmlns="http://www.w3.org/2000/svg" xmlns:xlink="http://www.w3.org/1999/xlink" width="100%" height="100%" viewBox="0 0 512 512">
<defs>
<g id="f0">
<path fill="#000000" stroke="none" d="M 281.55 394.45 L 257.8 394.45 257.8 472.5 274.4 472.5 274.4 415.95 310.4 472.5 331.3 472.5 331.3 394.45 314.65 394.45 314.65 448.1 281.55 394.45 M 215.55 394.45 L 200.55 394.45 168.1 472.5 185.35 472.5 192.4 455.55 223.8 455.55 231.2 472.5 248.9 472.5 215.55 394.45 M 207.85 415.3 L 218.25 441.65 197.75 441.65 207.85 415.3 M 114.5 394.45 L 95.95 394.45 126.45 472.5 141 472.5 172.35 394.45 153.75 394.45 134.25 446.95 114.5 394.45 M 67.9 394.45 L 52.9 394.45 20.45 472.5 37.7 472.5 44.75 455.55 76.15 455.55 83.55 472.5 101.25 472.5 67.9 394.45 M 60.2 415.3 L 70.6 441.65 50.1 441.65 60.2 415.3 M 458.25 394.45 L 443.25 394.45 410.8 472.5 428.05 472.5 435.1 455.55 466.5 455.55 473.9 472.5 491.6 472.5 458.25 394.45 M 450.55 415.3 L 460.95 441.65 440.45 441.65 450.55 415.3 M 404.85 394.45 L 345.45 394.45 345.45 408.8 384.5 408.8 344.2 456.8 344.2 472.5 405.75 472.5 405.75 457.1 365.5 457.1 404.85 408.95 404.85 394.45 Z"/>
<path fill="#EF028D" stroke="none" d="M 317.3 250.4 L 280.4 250.4 317.75 386.15 457.25 386.15 255.8 35.5 54.35 386.15 193.8 386.15 231.2 250.4 194.3 250.4 255.8 144.25 317.3 250.4 Z"/>
</g>
</defs>
<g transform="matrix(1,0,0,1,0,0)"><use xlink:href="#f0"/></g>
</svg>
