<svg xmlns="http://www.w3.org/2000/svg" xmlns:xlink="http://www.w3.org/1999/xlink" width="100%" height="100%" viewBox="0 0 512 512">
<!-- Vectorization by Rodrigo Polo https://github.com/rodrigopolo/logotipos-politicos -->
<defs>
<g id="l0">
<path fill="#EA092B" stroke="none" d="M 268.6 361.65 L 243.25 361.65 243.25 420.35 268.6 420.35 Q 281.9 420.35 288.3 409.4 293 401.3 293 389.55 293 384.95 291.85 379.85 290.75 374.75 287.7 370.35 283.85 364.95 277.7 362.9 274.05 361.7 268.6 361.65 M 255.15 371.85 L 266.5 371.85 Q 274.9 371.85 277.7 376.65 280.5 381.45 280.5 390.4 280.5 396.9 278.65 401.6 275.2 410.15 266.5 410.15 L 255.15 410.15 255.15 371.85 M 227.95 361.65 L 215.75 361.65 215.75 420.35 227.95 420.35 227.95 361.65 M 201.3 361.65 L 189.85 361.65 189.85 402.6 166.55 361.65 153.7 361.65 153.7 420.35 165.1 420.35 165.1 378.7 189 420.35 201.3 420.35 201.3 361.65 M 103.55 361.65 L 91.05 361.65 91.05 397.75 Q 91.05 407.1 93.95 412.3 99.4 421.9 114.65 421.9 129.85 421.9 135.3 412.3 138.2 407.1 138.2 397.75 L 138.2 361.65 125.7 361.65 125.7 397.7 Q 125.7 403.75 124.3 406.55 122.05 411.5 114.65 411.5 107.2 411.5 104.95 406.55 103.55 403.75 103.55 397.7 L 103.55 361.65 M 371.5 378.25 Q 371.5 386.9 377.45 390.95 380.95 393.4 390.3 395.45 L 396.65 396.85 Q 402.25 398.05 404.8 399.6 407.4 401.2 407.4 404.1 407.4 409.1 402.15 410.9 399.4 411.9 394.95 411.9 387.55 411.9 384.5 408.25 382.8 406.25 382.25 402.25 L 370.55 402.25 Q 370.55 411.4 377.2 416.65 383.85 421.9 395.45 421.9 406.8 421.9 413 416.6 419.25 411.25 419.25 403.2 419.25 395.35 413.95 391.2 410.6 388.5 403.8 386.95 L 393.55 384.5 Q 387.55 383.1 385.7 382.05 382.85 380.5 382.85 377.35 382.85 373.95 385.75 372.05 388.65 370.1 393.55 370.1 397.85 370.1 400.8 371.6 405.25 373.8 405.55 379.1 L 417.35 379.1 Q 417.05 369.75 410.4 364.85 403.75 359.9 394.35 359.9 383.15 359.9 377.3 365.15 371.5 370.35 371.5 378.25 M 351.3 366.7 Q 344.65 359.85 332.05 359.85 319.45 359.85 312.8 366.7 303.9 374.8 303.9 390.9 303.9 406.75 312.8 415.15 319.45 422 332.05 422 344.65 422 351.3 415.15 360.2 406.75 360.2 390.9 360.2 374.8 351.3 366.7 M 332.05 370.25 Q 339.35 370.25 343.65 375.65 347.9 381.05 347.9 390.9 347.9 400.85 343.65 406.2 339.35 411.6 332.05 411.6 324.75 411.6 320.4 406.2 316.1 400.85 316.1 390.9 316.1 381 320.4 375.6 324.75 370.25 332.05 370.25 M 430.65 128.85 Q 391.8 90.05 336.85 90.05 291.9 90.05 257.65 116.1 256.85 116.7 256 117.35 249.3 122.6 243.05 128.85 238.45 133.45 234.4 138.3 233.8 139.05 233.2 139.8 204.2 175.25 204.2 222.7 204.2 270.15 233.2 305.6 240.2 300.55 246.6 294.15 250.75 290 254.35 285.6 255.15 284.55 256 283.5 235.75 257.25 235.75 222.7 235.75 188.05 256 161.9 256.8 160.8 257.65 159.8 261.2 155.35 265.35 151.2 271.8 144.8 278.8 139.75 279.85 139 280.9 138.3 305.4 121.6 336.85 121.6 378.7 121.6 408.3 151.2 437.9 180.8 437.9 222.7 437.9 264.55 408.3 294.15 378.7 323.75 336.85 323.75 305.4 323.75 280.9 307.05 279.85 306.35 278.8 305.6 278.2 306.35 277.6 307.05 273.55 311.85 268.95 316.45 262.7 322.75 256 328 256.85 328.65 257.65 329.25 291.9 355.35 336.85 355.35 391.8 355.35 430.65 316.45 469.55 277.6 469.55 222.7 469.55 167.75 430.65 128.85 Z"/>
<path fill="#103595" stroke="none" d="M 231.1 138.3 Q 232.15 139.05 233.2 139.8 233.8 139.05 234.4 138.3 238.45 133.45 243.05 128.85 249.3 122.6 256 117.35 255.2 116.7 254.35 116.1 220.15 90.05 175.15 90.05 120.25 90.05 81.35 128.85 42.5 167.75 42.5 222.7 42.5 277.6 81.35 316.45 120.25 355.35 175.15 355.35 220.15 355.35 254.35 329.25 255.2 328.65 256 328 262.7 322.75 268.95 316.45 273.55 311.85 277.6 307.05 278.2 306.35 278.8 305.6 307.85 270.15 307.85 222.7 307.85 175.25 278.8 139.75 271.8 144.8 265.35 151.2 261.2 155.35 257.65 159.8 256.8 160.8 256 161.9 276.2 188.1 276.2 222.7 276.2 257.25 256 283.5 255.15 284.55 254.35 285.6 250.75 290 246.6 294.15 240.2 300.55 233.2 305.6 232.15 306.3 231.1 307.05 206.6 323.75 175.15 323.75 133.3 323.75 103.65 294.15 74.05 264.55 74.05 222.7 74.05 180.8 103.65 151.2 133.3 121.6 175.15 121.6 206.6 121.6 231.1 138.3 Z"/>
</g>
</defs>
<g transform="matrix(1,0,0,1,0,0)">
<use xlink:href="#l0"/>
</g>
</svg>
