<svg xmlns="http://www.w3.org/2000/svg" version="1.1" xmlns:xlink="http://www.w3.org/1999/xlink" preserveAspectRatio="none" x="0px" y="0px" width="512px" height="512px" viewBox="0 0 512 512">
<defs>
<g id="l0">
<path fill="#EC212B" stroke="none" d="M 249.1 194.65 Q 247.35 193.9 246.4 195.6 L 243.35 201.9 Q 241.05 206.9 239.65 208.9 237.6 212.35 236.8 213.45 235.35 215.45 234 216.45 232.45 217.7 231.4 217.75 230.3 217.9 229.85 217 229.35 214.75 228.9 213.4 228 210.35 225.9 208.4 223.6 206.25 222.1 206.6 220.65 206.75 221.05 208.15 224.2 217.25 224.35 220.75 224.8 223.55 225.1 224.75 L 226.05 227.6 Q 226.9 230 228 232.15 L 226.85 235.95 201.1 260.9 154.35 217.65 Q 148.9 218.4 143.1 218.1 L 138.35 217.65 91.55 260.9 65.8 235.95 64.65 232.15 Q 65.45 230.7 66.65 227.6 67.4 225.5 67.55 224.75 67.85 223.75 68.3 220.75 68.4 218.4 69.8 213.75 L 71.55 208.15 Q 71.9 206.85 70.55 206.6 68.95 206.25 66.65 208.4 64.55 210.45 63.75 213.4 L 62.75 217 Q 62.4 217.9 61.25 217.75 60.15 217.7 58.7 216.45 57.45 215.55 55.9 213.45 55.25 212.6 52.95 208.9 51.65 206.9 49.25 201.9 L 46.2 195.6 Q 45.3 193.9 43.55 194.65 41.95 195.35 41.75 196.65 41.6 197.7 43.25 201.4 L 48.05 213.2 Q 47.7 214.15 45.25 209.15 43.1 204.6 42.15 201.9 41.25 199.2 40 197.65 38.4 195.75 36.75 196.5 35.15 197.3 35.5 199.4 35.65 200.35 37 203.85 L 40.2 210.9 Q 42.2 215.55 41.9 215.75 41.3 216.25 36.95 208.2 35.15 205.2 34.55 204.4 33.45 202.9 32.45 202.75 31.35 202.7 30.6 203.75 29.95 204.8 30.25 205.7 L 37.75 219.9 Q 37.35 220.45 34.75 217.45 32.8 215.2 31.25 213.1 30.25 211.75 29.35 211.65 28.35 211.55 27.6 212.45 26.8 213.4 27.75 214.85 28.05 215.55 30.6 218.85 L 36.7 226.4 37.65 228.15 Q 38.45 229.6 40.25 232.4 41.65 234.55 46.4 238.15 L 50.75 241.4 83.55 289.55 Q 87.7 295.85 91.05 294.75 93.15 294 97.4 290.05 L 146.35 251.85 198.55 292.75 Q 200.25 294.25 201.6 294.75 204.9 295.85 209.1 289.55 L 241.85 241.4 246.35 238.15 Q 251.1 234.4 252.35 232.4 254.5 229.25 256 226.4 L 262 218.85 Q 264.45 215.65 264.95 214.85 265.85 213.35 265 212.45 264.25 211.55 263.35 211.65 262.35 211.7 261.45 213.1 259.9 215.25 257.95 217.45 255.3 220.4 254.85 219.9 L 260.7 208.9 Q 262.2 206.1 262.35 205.7 262.7 204.85 262.1 203.75 261.35 202.65 260.25 202.75 259.3 202.9 258 204.4 257.5 205.15 255.75 208.2 251.25 216.25 250.8 215.75 250.45 215.55 252.5 210.9 L 255.6 203.85 Q 256.95 200.6 257.2 199.4 257.45 197.3 255.85 196.5 254.25 195.75 252.65 197.65 251.4 199.2 250.5 201.9 249.5 204.8 247.35 209.15 245 214.2 244.6 213.2 249.15 202.15 249.4 201.4 251.05 197.55 250.85 196.65 250.8 195.45 249.1 194.65 M 225.1 323.75 Q 225.1 334.85 230 339.5 234.8 344.15 246.8 344.15 247.3 344.15 252.5 343.8 L 261.2 349.8 270.75 344.5 263.45 339.65 Q 268.5 335.25 268.5 323.75 268.5 312.7 263.7 308.05 258.85 303.5 246.8 303.5 234.7 303.5 230 308.05 225.1 312.75 225.1 323.75 M 242.3 334.4 Q 241.4 332 241.4 323.75 241.4 315.55 242.3 313.05 243.35 310.4 246.8 310.4 250.25 310.4 251.3 313.05 252.1 315.3 252.1 323.75 252.1 332.2 251.3 334.4 250.25 337.15 246.8 337.15 243.35 337.15 242.3 334.4 M 221.4 343.3 L 206.6 304.25 186.75 304.25 171.85 343.3 188.75 343.3 190.35 336.5 203 336.5 204.6 343.3 221.4 343.3 M 196.8 312.25 L 201.1 328.8 192.25 328.8 196.6 312.25 196.8 312.25 M 98 304.25 L 98 343.3 113.8 343.3 113.8 304.25 98 304.25 M 123.55 304.25 L 123.55 343.3 138.35 343.3 138.35 319.15 149 343.3 166.4 343.3 166.4 304.25 151.6 304.25 151.6 328.3 141.35 304.25 123.55 304.25 M 58.9 317.05 L 59 317.05 64.3 343.3 81.65 343.3 92.05 304.25 76.65 304.25 72.4 331.25 72.3 331.25 66.05 304.25 51.75 304.25 46.05 331.25 45.95 331.25 41.15 304.25 25.85 304.25 36.2 343.3 53.55 343.3 58.9 317.05 M 171.75 187.4 Q 171.75 176.9 164.35 169.65 157.05 162.2 146.6 162.2 136.25 162.2 128.85 169.65 121.5 176.95 121.5 187.4 121.5 197.8 128.85 205.15 136.2 212.5 146.6 212.5 157.1 212.5 164.35 205.15 171.75 197.85 171.75 187.4 Z"/>
</g>
</defs>
<g transform="matrix(1.7995758056640625,0,0,1.7995758056640625,-10.8,-204.65)"><use xlink:href="#l0"/></g>
</svg>
