<svg xmlns="http://www.w3.org/2000/svg" xmlns:xlink="http://www.w3.org/1999/xlink" width="100%" height="100%" viewBox="0 0 512 512">
<!-- Vectorization by Rodrigo Polo https://github.com/rodrigopolo/logotipos-politicos -->
<defs>
<g id="l1">
<path fill="#013FA7" stroke="none" d="M 402.85 453.45 L 391.95 453.45 391.95 474.7 378.5 453.45 368 453.45 368 492.2 378.9 492.2 378.9 472.7 391.95 492.15 402.85 492.15 402.85 453.45 M 341.95 453.45 L 333.55 453.45 319.3 492.2 329.4 492.2 331.7 486.75 331.7 486.7 343.85 486.7 346.1 492.2 356.15 492.2 341.95 453.45 M 340.8 477.7 L 334.75 477.7 337.8 467.8 340.8 477.7 M 371.8 413.45 Q 369.1 411 365.5 409.6 361.9 408.2 356.25 408.1 L 351.3 408.1 341.25 408.1 341.25 446.85 356.25 446.85 Q 360.9 447.15 364.85 445.8 368.85 444.5 371.75 441.7 374.65 438.9 376.25 435.45 377.85 432.05 377.95 428.1 377.95 427.8 377.95 427 377.7 422.8 376.05 419.3 374.45 415.95 371.8 413.45 M 366.2 423 Q 367.25 424.85 367.45 426.95 L 367.45 428.3 Q 367.45 428.45 367.45 428.55 367.4 430.4 366.55 432 365.65 433.65 364.05 434.95 362.5 436.15 360.45 436.85 358.45 437.55 356.25 437.55 L 351.3 437.55 351.3 417.45 356.25 417.45 Q 358.25 417.45 360.2 418.15 362.1 418.8 363.65 420.05 365.25 421.3 366.2 423 M 400.3 408.1 L 391.9 408.1 377.65 446.85 387.8 446.85 390.05 441.4 402.2 441.35 404.5 446.85 414.55 446.85 400.3 408.1 M 399.2 432.35 L 393.1 432.35 396.15 422.45 399.2 432.35 M 437.05 453.45 L 428.6 453.45 414.4 492.2 424.5 492.2 426.8 486.75 426.8 486.7 438.95 486.7 441.2 492.2 451.25 492.2 437.05 453.45 M 435.9 477.7 L 429.85 477.7 432.9 467.8 435.9 477.7 M 455.25 428.1 Q 455.3 427.8 455.3 427 455 422.8 453.35 419.3 451.75 415.95 449.1 413.45 446.45 411 442.8 409.6 439.2 408.2 433.55 408.1 L 428.6 408.1 418.55 408.1 418.55 446.85 433.55 446.85 Q 438.2 447.15 442.15 445.8 446.15 444.5 449.05 441.7 451.95 438.9 453.55 435.45 455.15 432.05 455.25 428.1 M 437.5 418.15 Q 439.45 418.8 440.95 420.05 442.55 421.3 443.5 423 444.55 424.85 444.75 426.95 L 444.75 428.3 Q 444.75 428.45 444.75 428.55 444.7 430.4 443.85 432 442.95 433.65 441.35 434.95 439.8 436.15 437.75 436.85 435.75 437.55 433.55 437.55 L 428.6 437.55 428.6 417.45 433.55 417.45 Q 435.55 417.45 437.5 418.15 M 91.15 458.15 Q 89.8 456.85 88.3 455.85 83.35 452.55 77.1 452.55 68.6 452.55 62.6 458.5 56.6 464.5 56.6 473 56.6 481.5 62.6 487.45 68.6 493.45 77.1 493.45 85.55 493.45 91.55 487.45 92.45 486.55 93.25 485.55 L 85.4 479.25 Q 84.9 479.95 84.3 480.55 81.3 483.7 77.1 483.7 72.8 483.7 69.85 480.55 66.85 477.45 66.85 473 66.85 468.6 69.85 465.45 72.8 462.35 77.1 462.35 80.85 462.35 83.65 464.85 L 91.15 458.15 M 116.95 453.45 L 116.8 453.45 Q 115.25 453.45 113.7 453.45 112.8 453.45 111.95 453.45 109.5 453.45 107.05 453.45 L 106.9 453.45 106.9 492.2 116.95 492.2 116.95 453.45 M 88 415.95 Q 86.95 413.6 85 411.8 83.15 410.15 80.75 409.15 78.75 408.35 76.6 408.15 L 75.55 408.15 71.5 408.15 58.1 408.15 58.1 446.85 68.2 446.85 68.2 434.55 75.55 434.55 Q 75.75 434.55 75.9 434.55 76.1 434.55 76.3 434.55 79 434.5 81.4 433.55 83.75 432.55 85.55 430.8 89 427.45 89.1 421.8 89.1 421.6 89.1 421.25 89.1 421.1 89.1 420.9 89.05 418.3 88 415.95 M 68.2 416.75 L 74.75 416.75 Q 76.3 416.75 77.5 417.85 78.85 419.05 78.85 420.95 78.85 422.85 77.5 424.05 76.3 425.15 74.75 425.15 L 68.2 425.15 68.2 416.75 M 125.25 420.5 Q 125.2 417.95 124.15 415.7 123.1 413.4 121.15 411.7 119.3 410.05 116.9 409.15 114.9 408.35 112.75 408.15 L 111.3 408.15 107.2 408.15 93.8 408.15 93.8 446.85 103.9 446.85 103.9 434.55 111 434.55 117.7 446.85 129.05 446.85 120.45 431.05 Q 121.1 430.55 121.7 430 125.15 426.75 125.25 421.35 125.25 421.15 125.25 420.8 125.25 420.65 125.25 420.5 M 110.45 416.75 Q 112.05 416.75 113.25 417.85 114.55 419.05 114.55 420.95 114.55 422.85 113.25 424.05 112.05 425.15 110.45 425.15 L 103.9 425.15 103.9 416.75 110.45 416.75 M 164 480.45 L 164 453.45 153.55 453.45 153.55 478.5 153.55 478.6 Q 153.3 480.2 151.65 481.45 150 482.7 147.9 482.85 145.85 482.7 144.15 481.45 142.5 480.15 142.3 478.5 L 142.3 453.45 Q 137.05 453.45 131.85 453.45 L 131.85 480.45 Q 131.9 485.65 137.35 489.85 139.7 491.65 142.55 492.7 145.35 493.75 147.9 493.75 150.45 493.75 153.3 492.7 156.1 491.65 158.5 489.85 163.95 485.65 164 480.45 M 194.85 453.45 L 189.95 453.45 179.85 453.45 179.85 492.2 194.85 492.2 Q 199.5 492.5 203.5 491.15 207.45 489.8 210.35 487 213.25 484.25 214.9 480.75 216.5 477.35 216.55 473.4 216.6 473.15 216.6 472.3 216.35 468.1 214.65 464.65 213.05 461.25 210.4 458.8 207.75 456.3 204.15 454.95 200.5 453.5 194.85 453.45 M 189.95 462.8 L 194.85 462.8 Q 196.9 462.8 198.8 463.45 200.75 464.15 202.25 465.35 203.85 466.65 204.85 468.35 205.85 470.15 206.1 472.3 L 206.1 473.65 Q 206.1 473.75 206.1 473.9 206 475.7 205.15 477.35 204.3 479 202.65 480.25 201.15 481.5 199.1 482.15 197.05 482.85 194.85 482.85 L 189.95 482.85 189.95 462.8 M 163.95 441.95 Q 169.95 436 169.95 427.5 169.95 419 163.95 413.05 162.4 411.5 160.7 410.35 155.8 407.05 149.5 407.05 141 407.05 135 413.05 129 419 129 427.5 129 436 135 441.95 141 447.95 149.5 447.95 157.95 447.95 163.95 441.95 M 142.25 419.95 Q 145.25 416.85 149.5 416.85 153.7 416.85 156.7 419.95 159.7 423.1 159.7 427.5 159.7 431.95 156.7 435.1 153.7 438.2 149.5 438.2 145.25 438.2 142.25 435.1 139.25 431.95 139.25 427.5 139.25 423.1 142.25 419.95 M 205.85 438.5 Q 207.15 433 204.2 429 201.35 425.15 195.4 423.65 188.45 422.55 185.9 421.4 183.2 420.25 183.8 418.35 184.35 416.8 186.45 416.25 188.5 415.7 191.95 416.15 196.1 416.7 199.75 419.1 L 204.8 410.85 Q 199.65 408.35 194.5 407.45 189.4 406.5 185.05 407.25 180.6 408 177.6 410.35 174.5 412.8 173.35 416.75 171.8 422.3 174.6 426.05 177.25 429.55 183.3 431.05 190.1 432.15 193.1 433.6 196.05 435 195.4 436.9 194.85 438.5 192.75 439.05 190.7 439.6 187.3 439.15 183.1 438.6 179.2 436.65 178.35 436.25 177.55 435.75 L 172.55 444.05 Q 184.9 449.5 193.8 447.9 198.15 447.15 201.2 444.8 203 443.45 204.1 442.05 205.45 440.4 205.85 438.5 M 274.4 453.45 L 274.4 492.2 289.4 492.2 Q 294.05 492.5 298 491.15 302 489.8 304.9 487 307.8 484.25 309.4 480.75 311 477.35 311.1 473.4 311.1 473.15 311.1 472.3 310.85 468.1 309.2 464.65 307.6 461.25 304.95 458.8 302.25 456.3 298.65 454.95 295.05 453.5 289.4 453.45 L 284.45 453.45 274.4 453.45 M 293.35 463.45 Q 295.25 464.15 296.8 465.35 298.4 466.65 299.35 468.35 300.4 470.15 300.6 472.3 L 300.6 473.65 Q 300.6 473.75 300.6 473.9 300.55 475.7 299.7 477.35 298.8 479 297.2 480.25 295.65 481.5 293.6 482.15 291.6 482.85 289.4 482.85 L 284.45 482.85 284.45 462.8 289.4 462.8 Q 291.4 462.8 293.35 463.45 M 261.05 492.2 L 246.8 453.45 238.4 453.45 224.15 492.2 234.3 492.2 236.55 486.75 236.55 486.7 248.7 486.7 251 492.2 261.05 492.2 M 239.6 477.7 L 242.65 467.8 245.7 477.7 239.6 477.7 M 244 421.8 Q 244 421.6 244 421.25 244 421.1 244 420.9 243.95 418.3 242.9 415.95 241.85 413.6 239.9 411.8 238.05 410.15 235.65 409.15 233.65 408.35 231.5 408.15 L 230.45 408.15 226.35 408.15 213 408.15 213 446.85 223.05 446.85 223.05 434.55 230.45 434.55 Q 230.65 434.55 230.8 434.55 231 434.55 231.15 434.55 233.9 434.5 236.25 433.55 238.65 432.55 240.45 430.8 243.9 427.45 244 421.8 M 229.6 416.75 Q 231.2 416.75 232.4 417.85 233.75 419.05 233.75 420.95 233.75 422.85 232.4 424.05 231.2 425.15 229.6 425.15 L 223.05 425.15 223.05 416.75 229.6 416.75 M 279.1 417.1 L 279.1 408.1 258.25 408.15 248.15 408.15 248.15 446.85 279.1 446.85 279.1 437.85 258.25 437.85 258.25 432.2 277.75 432.2 277.75 422.8 258.25 422.8 258.25 417.1 279.1 417.1 M 307.9 409.15 Q 305.85 408.35 303.75 408.15 L 302.25 408.15 298.2 408.15 284.8 408.15 284.8 446.85 294.9 446.85 294.9 434.55 302 434.55 308.7 446.85 320.05 446.85 311.45 431.05 Q 312.1 430.55 312.7 430 316.1 426.75 316.25 421.35 316.25 421.15 316.25 420.8 316.25 420.65 316.25 420.5 316.2 417.95 315.15 415.7 314.05 413.4 312.15 411.7 310.3 410.05 307.9 409.15 M 294.9 416.75 L 301.45 416.75 Q 303.05 416.75 304.25 417.85 305.55 419.05 305.55 420.95 305.55 422.85 304.25 424.05 303.05 425.15 301.45 425.15 L 294.9 425.15 294.9 416.75 M 323.8 408.1 L 323.6 408.1 323.6 446.85 333.7 446.85 333.7 408.1 333.55 408.1 Q 332 408.1 330.45 408.1 329.55 408.1 328.65 408.1 326.2 408.1 323.8 408.1 Z"/>
<path fill="#FFE420" stroke="none" d="M 387.2 338.25 Q 442.15 283.35 442.15 205.65 442.15 128 387.2 73.1 332.3 18.15 254.6 18.15 176.95 18.15 122.05 73.1 67.1 128 67.1 205.65 67.1 283.35 122.05 338.25 176.95 393.2 254.6 393.2 332.3 393.2 387.2 338.25 M 421.35 205.65 Q 421.35 274.75 372.5 323.55 323.65 372.4 254.6 372.4 185.55 372.4 136.7 323.55 87.85 274.75 87.85 205.65 87.85 136.6 136.7 87.75 185.55 38.95 254.6 38.95 323.65 38.95 372.5 87.75 421.35 136.6 421.35 205.65 Z"/>
<path fill="#0C40A9" stroke="none" d="M 372.5 323.55 Q 421.35 274.75 421.35 205.65 421.35 136.6 372.5 87.75 323.65 38.95 254.6 38.95 185.55 38.95 136.7 87.75 87.85 136.6 87.85 205.65 87.85 274.75 136.7 323.55 185.55 372.4 254.6 372.4 323.65 372.4 372.5 323.55 M 398.7 152.5 Q 401.65 154.9 400.85 158.65 400.3 161.55 396.95 165.65 L 396.95 165.7 Q 393.75 169.95 391.1 171.2 L 391.05 171.2 Q 387.65 172.85 384.6 170.6 L 384.6 170.55 322.65 122.25 Q 316.85 135.4 307.3 155.5 293.95 183.7 288.45 196.35 285.65 202.9 283.55 211 281.95 216.25 282.5 218.6 285.8 237.4 292.45 257.35 299.1 277.35 307.45 297.2 L 324.9 336.35 Q 325.65 339.15 320.4 333.85 308.65 324.2 295.9 311.25 L 271.85 289.75 Q 253.5 275.6 242.4 289.75 229.7 303.35 217.9 318.15 201.55 337.9 184.25 354.8 178.7 359.6 184.25 346.8 193.65 318.65 201.05 288.95 206.4 267.15 209.05 244.4 L 189.2 232.7 Q 169.95 220.7 149.25 210.1 133.8 201.1 124.7 194.8 114.65 187.85 110.45 182.9 104.8 176.15 106.4 174.7 108.05 173.2 117.05 177.8 120.15 179.4 127.5 180.9 158.95 184.95 193.3 184.4 226.35 182.7 251.8 168.9 258.85 164.35 266.8 157.3 272.4 152.3 282.1 142.6 301.05 123.65 310.1 116.1 311.3 115.1 312.4 114.25 L 258.1 71.95 Q 258.05 71.9 258 71.85 257.9 71.8 257.85 71.7 257.8 71.65 257.75 71.6 L 257.75 71.55 257.7 71.5 241.35 45.8 Q 241.3 45.8 241.3 45.75 L 239.45 42.85 271.65 53.6 271.75 53.6 Q 271.8 53.6 271.85 53.65 L 271.9 53.7 Q 272 53.7 272.05 53.8 272.1 53.85 272.2 53.85 L 398.7 152.5 M 222.45 107 Q 232.85 106.1 241.15 114.05 249.5 121.95 250.85 134.15 252.2 146.35 245.8 155.6 239.4 164.9 229 165.85 218.65 166.75 210.3 158.8 202 150.85 200.6 138.7 199.25 126.5 205.65 117.25 212.05 107.95 222.45 107 M 251.3 52.1 Q 252.15 51.05 252.7 49.9 L 245.3 47.45 249.5 54 Q 250.45 53.2 251.3 52.1 M 265.1 61.6 Q 268.9 61.7 270.25 60.15 271.25 58.65 270.35 55.8 L 255.05 50.7 Q 254.4 52.2 253.25 53.65 252.15 55.05 250.85 56.1 L 259.5 69.7 Q 262.55 69.85 263.75 68.55 264.85 66.85 263.9 63.15 263.75 62.8 263.9 62.45 264.05 62.05 264.4 61.85 264.7 61.6 265.1 61.6 M 398.45 158.1 Q 398.9 155.85 397.15 154.45 L 387.95 147.3 376.95 161.45 386.15 168.6 Q 387.95 169.95 390 168.95 392.25 167.8 395 164.15 397.9 160.6 398.45 158.1 M 386 145.75 L 377.55 139.15 366.5 153.3 375 159.9 386 145.75 Z"/>
<path fill="#FFFFFF" stroke="none" d="M 241.15 114.05 Q 232.85 106.1 222.45 107 212.05 107.95 205.65 117.25 199.25 126.5 200.6 138.7 202 150.85 210.3 158.8 218.65 166.75 229 165.85 239.4 164.9 245.8 155.6 252.2 146.35 250.85 134.15 249.5 121.95 241.15 114.05 M 322.65 122.25 L 312.4 114.25 Q 311.3 115.1 310.1 116.1 301.05 123.65 282.1 142.6 272.4 152.3 266.8 157.3 258.85 164.35 251.8 168.9 226.35 182.7 193.3 184.4 158.95 184.95 127.5 180.9 120.15 179.4 117.05 177.8 108.05 173.2 106.4 174.7 104.8 176.15 110.45 182.9 114.65 187.85 124.7 194.8 133.8 201.1 149.25 210.1 169.95 220.7 189.2 232.7 L 209.05 244.4 Q 206.4 267.15 201.05 288.95 193.65 318.65 184.25 346.8 178.7 359.6 184.25 354.8 201.55 337.9 217.9 318.15 229.7 303.35 242.4 289.75 253.5 275.6 271.85 289.75 L 295.9 311.25 Q 308.65 324.2 320.4 333.85 325.65 339.15 324.9 336.35 L 307.45 297.2 Q 299.1 277.35 292.45 257.35 285.8 237.4 282.5 218.6 281.95 216.25 283.55 211 285.65 202.9 288.45 196.35 293.95 183.7 307.3 155.5 316.85 135.4 322.65 122.25 M 256 183.4 Q 259.95 186 260.4 189.85 260.9 193.6 258.1 198.05 263 190.7 267.5 188.5 271.85 186.35 274.75 189.5 276.15 191.05 276.45 193.45 276.8 195.9 275.9 198.6 273.8 204.9 266.8 208.95 259.9 212.95 254.65 211.85 249.35 210.75 245.95 204.45 242.6 198.4 242.95 190.7 243.35 186.25 246.3 183.95 248.55 182.2 250.7 181.95 253.35 181.65 256 183.4 Z"/>
<path fill="#F7002A" stroke="none" d="M 260.4 189.85 Q 259.95 186 256 183.4 253.35 181.65 250.7 181.95 248.55 182.2 246.3 183.95 243.35 186.25 242.95 190.7 242.6 198.4 245.95 204.45 249.35 210.75 254.65 211.85 259.9 212.95 266.8 208.95 273.8 204.9 275.9 198.6 276.8 195.9 276.45 193.45 276.15 191.05 274.75 189.5 271.85 186.35 267.5 188.5 263 190.7 258.1 198.05 260.9 193.6 260.4 189.85 Z"/>
<path fill="#FFE423" stroke="none" d="M 400.85 158.65 Q 401.65 154.9 398.7 152.5 L 272.2 53.85 Q 272.1 53.85 272.05 53.8 272 53.7 271.9 53.7 L 271.85 53.65 Q 271.8 53.6 271.75 53.6 L 271.65 53.6 239.45 42.85 241.3 45.75 Q 241.3 45.8 241.35 45.8 L 257.7 71.5 257.75 71.55 257.75 71.6 Q 257.8 71.65 257.85 71.7 257.9 71.8 258 71.85 258.05 71.9 258.1 71.95 L 312.4 114.25 322.65 122.25 384.6 170.55 384.6 170.6 Q 387.65 172.85 391.05 171.2 L 391.1 171.2 Q 393.75 169.95 396.95 165.7 L 396.95 165.65 Q 400.3 161.55 400.85 158.65 M 377.55 139.15 L 386 145.75 375 159.9 366.5 153.3 377.55 139.15 M 397.15 154.45 Q 398.9 155.85 398.45 158.1 397.9 160.6 395 164.15 392.25 167.8 390 168.95 387.95 169.95 386.15 168.6 L 376.95 161.45 387.95 147.3 397.15 154.45 M 270.25 60.15 Q 268.9 61.7 265.1 61.6 264.7 61.6 264.4 61.85 264.05 62.05 263.9 62.45 263.75 62.8 263.9 63.15 264.85 66.85 263.75 68.55 262.55 69.85 259.5 69.7 L 250.85 56.1 Q 252.15 55.05 253.25 53.65 254.4 52.2 255.05 50.7 L 270.35 55.8 Q 271.25 58.65 270.25 60.15 M 252.7 49.9 Q 252.15 51.05 251.3 52.1 250.45 53.2 249.5 54 L 245.3 47.45 252.7 49.9 Z"/>
</g>
</defs>
<g transform="matrix(1,0,0,1,0,0)">
<use xlink:href="#l1"/>
</g>
</svg>
