<svg xmlns="http://www.w3.org/2000/svg" xmlns:xlink="http://www.w3.org/1999/xlink" width="100%" height="100%" viewBox="0 0 512 512">
<!-- Vectorization by Rodrigo Polo https://github.com/rodrigopolo/logotipos-politicos -->
<defs>
<g id="l0">
<path fill="#219DA3" stroke="none" d="M 181.75 359.05 L 149.9 359.05 117.05 466.45 142.2 466.45 149.9 438.9 180.65 438.9 188.9 466.45 215.05 466.45 181.75 359.05 M 164.7 377.2 L 165 377.2 170.45 397.9 177.15 420.7 153.4 420.7 159.8 397.9 164.7 377.2 M 249.1 359.05 L 224.65 359.05 224.65 466.45 291.7 466.45 291.7 446.05 249.1 446.05 249.1 359.05 M 55.7 359.05 L 29.1 359.05 63.55 466.45 91.9 466.45 128.05 359.05 102.25 359.05 88.55 404.9 Q 82.65 424.75 78.8 442.85 L 78.35 442.85 Q 75.45 427.6 68.8 404.45 L 55.7 359.05 M 478.7 389.2 Q 478.7 374.65 468.8 366.7 458.15 358.2 434.1 358.2 415.45 358.2 401.75 360.45 L 401.75 466.45 425.8 466.45 425.8 424.2 433.2 424.2 Q 440.75 424.35 444.45 427.85 448.45 431.6 450.55 441.4 455.5 462.1 458 466.45 L 482.9 466.45 Q 481.95 464.65 474.1 436.2 469.7 420.1 459.8 416.1 L 459.8 415.65 Q 467.5 412.85 472.7 406.3 478.7 398.75 478.7 389.2 M 425.8 377.05 Q 430.25 376.25 436.85 376.25 454.65 376.5 454.65 391.2 454.65 398.35 449.6 402.5 444.4 406.7 435.35 406.7 L 425.8 406.7 425.8 377.05 M 377.55 373.3 Q 363.55 357.3 339.65 357.3 316.25 357.3 301.7 373.3 287.45 389.05 287.45 413.55 287.45 437.2 300.75 452.35 314.7 468.25 337.95 468.25 361.75 468.25 376.1 453.15 390.7 437.75 390.7 411.6 390.7 388.4 377.55 373.3 M 339.05 376.6 Q 351.1 376.6 358.35 387.25 365.05 397.3 365.05 412.45 365.05 428.5 358.25 438.5 351.25 448.95 339.2 448.95 327.2 448.95 320.05 438.9 313.05 429.1 313.05 413.05 313.05 397.05 319.9 387 327.05 376.6 339.05 376.6 Z"/>
<path fill="#1E9EA6" stroke="none" d="M 391 140.25 L 365.25 109.55 Q 357.55 100.4 348.4 108.1 L 261 181.4 223.05 136.15 Q 215.35 127 206.2 134.7 L 175.5 160.45 Q 166.35 168.15 174.05 177.3 L 245.95 263 Q 253.4 271.35 262.3 263.9 L 389.55 157.15 Q 398.7 149.45 391 140.25 Z"/>
<path fill="#585859" stroke="none" d="M 340.7 98.95 Q 349.35 91.7 357.35 91.95 320.25 50.3 264.1 45.4 205.5 40.25 160.4 78.1 115.3 115.9 110.15 174.5 105.05 233.15 142.85 278.25 180.7 323.35 239.25 328.45 297.95 333.55 343.05 295.75 388.15 257.9 393.2 199.35 394.55 184.2 393 169.95 L 348.95 206.9 Q 342.45 240.25 315.4 262.9 283.9 289.35 242.9 285.75 201.95 282.2 175.5 250.65 149.05 219.15 152.6 178.15 156.25 137.15 187.75 110.7 219.3 84.25 260.2 87.9 296.15 91 320.9 115.55 L 340.7 98.95 Z"/>
</g>
</defs>
<g transform="matrix(1,0,0,1,0,0)">
<use xlink:href="#l0"/>
</g>
</svg>
