

<svg xmlns="http://www.w3.org/2000/svg" xmlns:xlink="http://www.w3.org/1999/xlink" width="100%" height="100%" viewBox="0 0 512 512">
<defs>
<g id="l1">
<path fill="#09307C" stroke="none" d="M 66 0 L 66 460.7 446.05 460.7 446.05 0 66 0 Z"/>
</g>
<g id="l2">
<path fill="#0D2797" stroke="none" d="M 66 460.7 L 66 511.8 446.05 511.8 446.05 460.7 66 460.7 M 71.2 506.6 L 71.2 465.9 440.85 465.9 440.85 506.6 71.2 506.6 Z"/>
</g>
<g id="l3">
<path fill="#FFFFFF" stroke="none" d="M 71.2 465.9 L 71.2 506.6 440.65 506.6 440.85 465.9 71.2 465.9 Z"/>
</g>
<g id="l4">
<path fill="#0D2797" stroke="none" d="M 378.75 479.4 L 373.8 479.4 371 495.65 376 495.65 378.75 479.4 M 381.5 489.3 Q 381.5 492.4 382.65 494.25 383.85 496.1 386 496.1 387.2 496.1 388 495.65 388.9 495.15 389.85 494 L 389.9 494.05 389.65 495.65 394.35 495.65 398.15 473.2 393.2 473.2 391.8 481.6 Q 390.3 479.05 387.6 479.05 385 479.05 383.25 482.1 381.5 485.2 381.5 489.3 M 390.25 483.95 Q 390.85 484.7 390.85 486.1 390.85 488 390.1 490.05 389.35 491.95 388 491.95 387.25 491.95 386.8 491.25 386.3 490.55 386.3 489.2 386.3 486.75 387.1 484.95 387.85 483.25 388.95 483.25 389.7 483.25 390.25 483.95 M 379.05 477.55 L 379.8 473.2 374.85 473.2 374.1 477.55 379.05 477.55 M 360.6 489.75 L 360.55 489.75 359.8 479.4 355.15 479.4 357.65 495.65 362 495.65 370.1 479.4 364.95 479.4 360.6 489.75 M 340.1 481.05 Q 338.5 479.05 334.9 479.05 333.15 479.05 332 479.55 330.75 479.95 329.45 481.25 328.15 482.6 327.4 484.55 326.65 486.5 326.65 488.65 326.65 491.75 328.3 493.9 329.85 496.1 333.7 496.1 336.3 496.1 338.1 495.05 339.8 493.95 340.9 491.5 L 336.1 490.95 Q 335.25 492.45 333.85 492.45 331.65 492.45 331.55 489.2 L 341.3 489.2 Q 341.7 486.85 341.7 485.95 341.7 483.05 340.1 481.05 M 331.95 486.15 Q 332.45 484.3 333.15 483.55 333.9 482.7 334.8 482.7 335.7 482.7 336.25 483.4 336.85 483.9 336.85 485.2 L 336.75 486.15 331.95 486.15 M 423.3 489.9 L 418.45 489.9 417.4 495.65 422.35 495.65 423.3 489.9 M 413.1 480.25 Q 411.8 479.05 407.95 479.05 404.5 479.05 403 480.35 401.45 481.6 400.95 483.85 L 405.55 484.55 Q 405.95 483.4 406.5 483.1 407 482.7 407.85 482.7 408.7 482.7 409.15 483.1 409.65 483.45 409.65 484.05 L 409.5 485.2 Q 408.55 485.55 406.6 485.75 404.1 486.05 402.8 486.5 401.55 486.8 400.5 487.95 399.5 489.1 399.5 491.3 399.5 493.25 400.6 494.6 401.65 496.1 404.1 496.1 406.5 496.1 408.4 493.85 408.4 494.5 408.6 495.65 L 413.5 495.65 Q 413.15 494.5 413.15 493.45 413.15 492.3 413.75 488.8 414.45 485.25 414.45 483.8 414.45 481.5 413.1 480.25 M 407.75 491.75 Q 406.85 492.65 405.85 492.65 405.25 492.65 404.75 492.25 404.35 491.8 404.35 491 404.35 490.25 404.95 489.7 405.6 489.1 408.95 488.4 408.7 490.7 407.75 491.75 M 421.05 473.2 L 420.95 473.45 420.95 473.95 420.1 478.95 419.45 488.65 422.6 488.65 424.6 481.6 Q 425.45 478.9 425.7 477.2 L 426.35 473.2 421.05 473.2 M 159.8 481.25 Q 158.15 479.05 154.7 479.05 152.2 479.05 150.3 480.4 148.55 481.65 147.55 483.95 146.6 486.25 146.6 488.75 146.6 491.9 148.2 493.95 149.85 496.1 153.2 496.1 155.8 496.1 157.7 494.7 159.6 493.35 160.45 491.05 161.35 488.8 161.35 486.45 161.35 483.45 159.8 481.25 M 156.55 486.15 Q 156.55 488.35 155.7 490.1 154.85 491.85 153.5 491.85 152.55 491.85 152.05 490.95 151.35 490.1 151.35 488.75 151.35 486.85 152.15 485.1 153 483.3 154.5 483.3 155.25 483.3 155.9 483.85 156.55 484.6 156.55 486.15 M 138.9 479.4 L 136.3 494.2 Q 135.95 496.45 135.55 496.95 135.15 497.5 134.3 497.5 L 133.1 497.35 132.35 501.75 Q 134.15 502.35 135.85 502.35 137.7 502.35 138.7 501.5 139.8 500.65 140.25 499.4 140.7 498.1 141.1 495.65 L 143.85 479.4 138.9 479.4 M 139.95 473.2 L 139.25 477.55 144.15 477.55 144.9 473.2 139.95 473.2 M 121.25 481.25 Q 119.95 482.6 119.2 484.55 118.45 486.35 118.45 488.65 118.45 491.75 120.1 493.9 121.75 496.1 125.5 496.1 128.2 496.1 129.85 495.05 131.6 494 132.65 491.5 L 127.9 490.95 Q 127 492.45 125.6 492.45 123.55 492.45 123.25 489.2 L 133.15 489.2 Q 133.45 487 133.45 485.95 133.45 483 131.9 481.05 130.35 479.05 126.75 479.05 124.95 479.05 123.75 479.55 122.55 479.95 121.25 481.25 M 124.9 483.55 Q 125.65 482.7 126.55 482.7 127.5 482.7 128.1 483.4 128.65 483.9 128.65 485.2 L 128.6 486.15 123.75 486.15 Q 124.15 484.4 124.9 483.55 M 88.75 486.55 L 85.65 486.55 83.6 493.6 Q 82.75 496.25 82.55 497.95 L 81.85 501.95 87.15 501.95 88.05 496.2 88.75 486.55 M 99.9 478.55 L 99.95 478.55 100.7 495.65 104.75 495.65 111.35 478.55 111.5 478.55 108.15 495.65 112.75 495.65 116.6 473.2 109.65 473.2 104 487.45 103.9 487.45 103.3 473.2 96.6 473.2 92.7 495.65 97.3 495.65 99.9 478.55 M 84.9 485.2 L 89.8 485.2 90.8 479.4 85.85 479.4 84.9 485.2 M 241.9 473.2 L 236.95 473.2 236.3 477.55 241.25 477.55 241.9 473.2 M 232.1 473.2 L 227.15 473.2 223.4 495.65 228.35 495.65 232.1 473.2 M 240.95 479.4 L 236 479.4 233.25 495.65 238.2 495.65 240.95 479.4 M 218.95 480.25 Q 217.7 479.05 213.9 479.05 210.4 479.05 208.95 480.35 207.35 481.6 206.85 483.85 L 211.45 484.55 Q 211.85 483.4 212.4 483.1 212.9 482.7 213.75 482.7 214.6 482.7 215.05 483.1 215.6 483.45 215.6 484.05 L 215.4 485.2 Q 214.6 485.5 212.55 485.75 210.05 486.05 208.75 486.5 207.5 486.8 206.35 487.95 205.4 489.15 205.4 491.3 205.4 493.25 206.5 494.6 207.6 496.1 210 496.1 212.45 496.1 214.35 493.85 214.35 494.5 214.5 495.65 L 219.3 495.65 Q 219 494.4 219 493.45 219 492.4 219.6 488.8 220.3 485.35 220.3 483.8 220.3 481.5 218.95 480.25 M 210.7 492.25 Q 210.25 491.7 210.25 491 210.25 490.25 210.85 489.7 211.4 489.1 214.85 488.4 214.5 490.8 213.65 491.75 212.75 492.65 211.75 492.65 211.1 492.65 210.7 492.25 M 200.75 480.65 Q 199 479.05 196 479.05 191.9 479.05 189.65 482.05 187.45 484.9 187.45 489.05 187.45 496.1 194.2 496.1 200.35 496.1 202.05 489.75 L 197.35 489.1 Q 196.4 491.85 194.45 491.85 193.6 491.85 192.95 491.15 192.25 490.45 192.25 489.1 192.25 486.95 193.2 485.15 194.15 483.3 196 483.3 197.9 483.3 198.25 485.4 L 202.75 485.15 Q 202.5 482.2 200.75 480.65 M 176.6 479.6 Q 175.75 479.05 174.95 479.05 173.8 479.05 173 479.8 172.15 480.55 170.95 482.7 L 170.95 482.65 171.5 479.4 166.85 479.4 164.1 495.65 169.05 495.65 170.1 489.6 Q 170.55 486.85 171.5 485.5 172.35 484.25 173.75 484.25 L 174.8 484.35 176.6 479.6 M 320.05 473.2 L 318.6 481.6 Q 317.2 479.05 314.5 479.05 311.85 479.05 310.1 482.1 308.4 485.2 308.4 489.3 308.4 492.45 309.55 494.25 310.75 496.1 312.85 496.1 314.05 496.1 314.95 495.65 315.7 495.2 316.75 494 L 316.85 494.05 316.6 495.65 321.15 495.65 325 473.2 320.05 473.2 M 313.65 491.25 Q 313.15 490.55 313.15 489.2 313.15 486.7 314 484.95 314.75 483.25 315.85 483.25 316.6 483.25 317.2 483.95 317.75 484.6 317.75 486.1 317.75 488 317 490.05 316.25 491.95 314.95 491.95 314.1 491.95 313.65 491.25 M 280.2 489.3 Q 280.2 492.4 281.4 494.25 282.55 496.1 284.7 496.1 286.05 496.1 286.8 495.65 287.7 495.1 288.65 494 L 288.75 494.05 288.5 495.65 293.05 495.65 296.9 473.2 291.95 473.2 290.55 481.6 Q 289.2 479.05 286.4 479.05 283.75 479.05 282 482.1 280.2 485.2 280.2 489.3 M 289.05 483.95 Q 289.65 484.6 289.65 486.1 289.65 488 288.85 490.05 288.1 491.95 286.8 491.95 286.05 491.95 285.6 491.25 285.1 490.6 285.1 489.2 285.1 486.65 285.85 484.95 286.65 483.25 287.75 483.25 288.5 483.25 289.05 483.95 M 262.6 487.95 Q 261.7 489.15 261.7 491.3 261.7 493.25 262.75 494.6 263.85 496.1 266.35 496.1 268.75 496.1 270.65 493.85 270.65 494.9 270.8 495.65 L 275.65 495.65 Q 275.3 494.4 275.3 493.45 275.3 492.15 276 488.8 276.6 485.15 276.6 483.8 276.6 481.5 275.25 480.25 274 479.05 270.15 479.05 266.7 479.05 265.25 480.35 263.5 481.6 263.1 483.85 L 267.75 484.55 Q 268.15 483.4 268.7 483.1 269.2 482.7 270.05 482.7 270.9 482.7 271.35 483.1 271.9 483.45 271.9 484.05 L 271.7 485.2 Q 270.9 485.5 268.85 485.75 266.35 486.05 265.05 486.5 263.75 486.8 262.6 487.95 M 268.05 492.65 Q 267.4 492.65 267 492.25 266.55 491.7 266.55 491 266.55 490.25 267.15 489.7 267.7 489.1 271.2 488.4 270.8 490.8 269.95 491.75 269.05 492.65 268.05 492.65 M 260.35 473.2 L 255.4 473.2 253.95 481.6 Q 252.5 479.05 249.85 479.05 247.2 479.05 245.45 482.1 243.7 485.1 243.7 489.3 243.7 492.45 244.85 494.25 246 496.1 248.2 496.1 249.35 496.1 250.2 495.65 251.05 495.15 252.1 494 L 252.15 494.05 251.85 495.65 256.45 495.65 260.35 473.2 M 249.3 484.95 Q 250.05 483.25 251.15 483.25 251.9 483.25 252.45 483.95 253.1 484.7 253.1 486.1 253.1 488 252.3 490.05 251.55 491.95 250.2 491.95 249.45 491.95 249 491.25 248.5 490.55 248.5 489.2 248.5 486.7 249.3 484.95 Z"/>
</g>
<g id="l5">
<path fill="#FFFFFF" stroke="none" d="M 312.1 383.2 L 316.25 360.15 246.65 360.15 228.5 460.35 228.4 460.7 301.55 460.7 301.65 460.35 304.8 442.9 257.9 442.9 261.75 421.9 303.35 421.9 307.5 400.2 265.85 400.2 268.9 383.2 312.1 383.2 M 292.15 328.7 L 289.9 345.45 289.85 345.45 285.35 328.7 280.05 328.7 276.15 357.55 281.45 357.55 283.75 340.75 283.8 340.75 288.3 357.55 299.05 357.55 300.5 352.85 306.35 352.85 306.7 357.55 312.2 357.55 309.3 328.7 303.3 328.7 293.85 355.15 297.4 328.7 292.15 328.7 M 306.05 346.65 L 302.3 346.65 305.45 336.15 306.05 346.65 M 236.45 360.15 L 209.85 360.15 191.65 460.35 191.55 460.7 218.15 460.7 218.25 460.35 236.45 360.15 M 238.6 357.55 L 240 352.85 245.95 352.85 246.25 357.55 257.2 357.55 258.75 345.8 259 345.8 Q 259.8 345.8 260.3 346.35 260.75 346.95 261.75 350.7 L 263.55 357.55 269.5 357.55 Q 267.15 347.5 265.4 345.35 268.3 344.65 269.65 342.15 270.9 339.7 270.9 336.25 270.9 333.15 269.7 330.9 268.4 328.7 265.8 328.7 L 255.4 328.7 251.65 357 248.85 328.7 242.75 328.7 232.55 357.55 238.6 357.55 M 259.45 340.4 L 260.3 334.5 263.1 334.5 Q 264.7 334.5 265.15 335.15 265.6 335.75 265.6 336.85 265.6 337.7 265.25 338.65 264.85 339.65 263.95 339.95 263.25 340.4 260.55 340.4 L 259.45 340.4 M 245 336.15 L 245.05 336.15 245.65 346.65 241.85 346.65 245 336.15 M 190.9 373.6 Q 188.5 368.2 184.35 365.05 180.05 361.65 175.5 360.95 170.85 360.15 163.7 360.15 L 124.45 360.15 106.3 460.35 106.2 460.7 177.9 460.7 Q 178.1 460.55 178.35 460.35 179.9 459.05 181.65 457.05 190.2 446.55 190.35 433.9 190.55 416.5 176.9 411.3 L 176.9 410.95 Q 185.35 407.75 189.2 400.65 193.05 393.45 193.15 385.25 193.15 378.75 190.9 373.6 M 146.8 381.85 L 157.95 381.85 Q 164.25 381.85 166.3 384.05 168.45 386.25 168.35 390.15 168.35 393.5 166.3 396.8 164.45 399.95 161.2 401 157.95 402.05 152.15 402.05 L 143.25 402.05 146.8 381.85 M 162.6 425 Q 164.75 427.45 164.7 431.85 164.55 444.3 149.65 444.3 L 135.55 444.3 139.55 422.45 153.85 422.45 Q 160.55 422.45 162.6 425 M 175.25 340.75 L 175.3 340.75 179.8 357.55 185.05 357.55 188.95 328.7 183.7 328.7 181.45 345.45 181.4 345.45 176.9 328.7 171.55 328.7 167.7 357.55 173 357.55 175.25 340.75 M 222.5 328.7 L 221.5 335.75 227.2 335.75 224.3 357.55 229.9 357.55 232.85 335.75 238.7 335.75 239.6 328.7 222.5 328.7 M 203.25 345.25 L 204 339.45 195.15 339.45 195.75 334.9 204.95 334.9 205.8 328.7 190.95 328.7 187.1 357.55 202.65 357.55 203.55 350.95 193.6 350.95 194.35 345.25 203.25 345.25 M 209 329.35 Q 207.45 330.4 206.5 332.5 205.55 334.55 205.55 337 205.55 339.75 206.65 341.65 207.7 343.55 211.7 345.8 213.5 346.95 213.9 347.6 214.35 348.4 214.35 349.3 214.35 350.5 213.65 351.35 212.95 352.3 211.6 352.3 210.25 352.3 209.55 351.25 208.8 350.05 208.8 347.35 L 203.55 347.9 203.55 348.55 Q 203.55 352.8 205.35 355.4 207.15 358.05 211.45 358.05 214.4 358.05 216.15 356.65 217.8 355.25 218.7 353.05 219.6 350.95 219.6 348.3 219.6 345.75 218.85 343.85 218.05 342.1 216.7 340.95 215.25 339.75 213.35 338.6 211.8 337.7 211.25 337 210.85 336.4 210.85 335.7 210.85 334.7 211.4 334.1 211.95 333.35 212.95 333.35 215.4 333.35 215.6 337.15 L 220.8 336.65 Q 220.3 328.2 213 328.2 210.75 328.2 209 329.35 M 152.8 328.7 L 147.15 328.7 143.25 357.55 148.95 357.55 152.8 328.7 M 159.25 339.45 L 159.8 334.9 169 334.9 169.8 328.7 154.95 328.7 151.1 357.55 166.7 357.55 167.6 350.95 157.6 350.95 158.45 345.25 167.3 345.25 168.05 339.45 159.25 339.45 M 141.7 330.05 Q 140.65 329.1 139.8 328.9 138.75 328.7 137.25 328.7 L 128.9 328.7 125.05 357.55 136.2 357.55 Q 139.55 357.55 141.35 354.8 143.1 351.95 143.1 348.5 143.1 343.8 140.25 342.4 L 140.25 342.35 Q 142 341.5 142.8 339.55 143.6 337.65 143.6 335.45 143.6 333.85 143.1 332.3 142.55 330.8 141.7 330.05 M 138 338.55 Q 137.55 339.4 136.75 339.65 136.2 339.95 134.95 339.95 L 133 339.95 133.65 334.5 136.1 334.5 Q 137.45 334.5 137.9 335.05 138.35 335.65 138.35 336.75 138.35 337.55 138 338.55 M 132.25 345.4 L 135.3 345.4 Q 136.75 345.4 137.25 346.1 137.7 346.8 137.7 347.95 137.7 351.3 134.5 351.3 L 131.45 351.3 132.25 345.4 M 349.25 360.15 L 324.6 360.15 306.35 460.35 306.25 460.7 331.05 460.7 331.15 460.35 341.1 405 341.3 405 359.55 460.7 387.55 460.7 387.65 460.35 405.9 360.15 381.1 360.15 369.7 422.55 369.45 422.55 349.25 360.15 M 341.55 335 Q 340.45 337.65 339.9 340.4 339.35 343.15 339.35 346.05 339.35 351.75 341.55 354.85 343.8 358.05 347.6 358.05 349.4 358.05 350.9 357.4 352.4 356.8 354 354.85 355.7 352.95 356.7 350.25 357.7 347.6 358.1 344.9 358.4 342.6 358.4 340.4 358.4 335.2 356.45 331.75 354.5 328.2 350.4 328.2 348.8 328.2 347.25 328.7 345.7 329.2 344.2 330.9 342.6 332.6 341.55 335 M 345.45 341.3 Q 346 338.4 347.1 336.55 348.2 334.75 349.8 334.75 351.15 334.75 352.05 336.15 352.9 337.55 352.9 340.4 352.9 341.6 352.4 344.55 351.95 347.5 350.75 349.5 349.65 351.45 348 351.45 346.55 351.45 345.65 349.95 344.85 348.5 344.85 346.25 344.85 344.5 345.45 341.3 M 326.35 339.05 L 331.6 338.15 Q 331.2 333.65 329.3 330.95 327.15 328.2 323.85 328.2 320.5 328.2 318.1 330.6 315.8 333 314.55 337.35 313.3 341.55 313.3 345.8 313.3 351.4 315.4 354.75 317.5 358.05 321.35 358.05 325.15 358.05 327.5 354.95 329.85 352 330.75 347.4 L 325.4 346.1 Q 324.7 349 323.85 350.15 322.95 351.45 321.7 351.45 320.35 351.45 319.5 350.05 318.85 348.5 318.85 346.35 318.85 343.55 319.5 340.65 320.3 337.6 321.4 336.25 322.6 334.75 323.85 334.75 324.8 334.75 325.55 335.8 326.35 336.8 326.35 338.9 L 326.35 339.05 M 340.35 328.7 L 334.65 328.7 330.75 357.55 336.5 357.55 340.35 328.7 M 403.8 328.7 L 398.1 328.7 394.3 357.55 408.9 357.55 409.85 350.45 400.85 350.45 403.8 328.7 M 364.65 340.75 L 364.7 340.75 369.15 357.55 379.95 357.55 381.45 352.85 387.3 352.85 387.55 357.55 393.1 357.55 390.2 328.7 384.2 328.7 374.85 355.15 378.35 328.7 373.1 328.7 370.85 345.45 370.8 345.45 366.3 328.7 361 328.7 357.15 357.55 362.4 357.55 364.65 340.75 M 387 346.65 L 383.25 346.65 386.4 336.15 387 346.65 Z"/>
</g>
<g id="l6">
<path fill="#021787" stroke="none" d="M 330.2 139.5 Q 329.4 133.55 327.1 130.2 L 327.1 130.15 Q 326.75 129.65 326.15 129.05 319.25 123.1 313.05 124.35 309.85 124.7 306.25 127.05 L 306.1 126.85 Q 303.65 122.35 299.75 118.35 L 299.6 118.2 Q 291.1 109.3 281.6 103.55 271.45 97.2 262.6 95.95 L 262.55 95.95 Q 256.45 93.95 249.7 94.7 L 249.55 94.7 231.1 90.05 Q 224.1 87.4 217.4 91.25 219.3 75.8 215.6 65.7 212.5 49.75 211.95 35.15 216.1 9.35 201.1 0.3 L 200.65 0 182.25 0 182.05 0.2 177.2 1.3 Q 175.2 1.75 174.05 3.45 173 5.25 173.4 7.25 L 175.85 18.8 Q 174.85 22.95 174.6 28 L 174.6 31.55 Q 171.4 27.65 167.55 25.65 L 167.45 25.55 Q 163.45 23.35 157.65 23.95 155 24.2 147.1 26.15 L 147 26.15 Q 146.25 26.45 145.55 26.9 141.15 29.75 140.1 32.05 137.5 35.95 140.65 41.75 L 140.75 41.8 140.9 42.05 140.9 42.15 144.35 46.85 Q 143.65 52.2 144.7 56.45 L 144.7 56.4 Q 145.15 58.35 146.25 61.2 L 146.25 61.3 148.4 66.25 Q 149 67.65 150.3 68.5 L 150.2 68.45 Q 151 69.25 151.35 71.3 151.75 74.65 150.95 78.8 L 150.85 79.05 150.85 79.15 150.55 81.4 149.65 81.1 149.6 81.1 143.55 80.1 143.45 80.1 Q 143.1 80 142.3 80 134.6 80.55 132.25 87.35 L 132.25 87.3 Q 130.45 91.65 132.05 99.05 132.4 100 132.45 100.05 L 136.05 107.5 Q 136.4 108.1 136.7 108.4 L 137.25 110.4 Q 137.7 112.55 138.35 117.45 139.45 126.15 142.2 146.45 138.5 151.75 136.05 156 132.4 162.35 130.25 168.4 L 130.15 168.55 Q 127.7 175.75 128.9 181.25 129.6 186.05 133.6 191.4 144.85 234.35 144.45 283.65 L 144.5 284.5 Q 145.8 292.25 142.95 297.1 L 142.5 297.7 142.45 297.75 142.45 297.8 Q 141.5 299.15 140.05 300.55 138.7 301.9 138.6 303.7 L 128.45 319.2 Q 127.4 320.75 127.7 322.6 127.95 324.45 129.4 325.65 130.75 326.9 132.65 326.9 L 240.95 326.9 Q 242.15 326.9 243.3 326.35 L 243.25 326.35 Q 244.35 325.75 245.1 324.7 252 314.3 257.55 307.6 263.85 299.75 270 294.4 L 270.8 293.5 290 265.6 290.15 265.55 290.25 265.2 301.1 245 301.1 245.1 325.3 201.9 Q 336.55 187.5 332.7 172.9 L 331.05 156.5 330.2 139.5 M 239.4 147.5 L 239.55 147.35 Q 242.05 144.2 242.75 141.5 242.9 141 242.9 140.35 243 139.7 243.3 139.2 L 243.35 139.05 Q 246.85 140.6 250.75 141.1 255.1 141.6 258.5 140.4 262.75 141.05 269.1 147.05 L 269.2 147.15 269.3 147.2 269.4 147.3 Q 276.45 153.2 283.85 153.6 282.75 155.35 282.05 156.8 279.05 161.35 276.7 167.05 L 276.7 167.1 276.65 167.15 Q 274.55 172.15 273.35 178 269.8 182.05 267.5 185.7 264.9 189.85 262.6 195.1 L 262.35 195.55 261.45 198.2 260.9 198.6 Q 259.7 198.25 257.35 196.2 254.45 193.7 250.45 192 247.7 190.65 243.65 189.45 L 243.5 189.45 243.45 189.4 243.35 189.4 220.05 183.65 Q 219.45 183.45 218.85 183.45 L 218.45 183.45 Q 220 180.1 221.2 176.3 222.75 171.85 223.15 168.6 223.9 166.3 224.05 163.9 L 224.05 163.8 Q 224.3 160.9 223.6 158.65 L 223.75 158.65 Q 224.1 158.65 224.8 158.5 L 224.85 158.5 Q 228.85 157.1 230.85 155.9 233.5 154.35 235.9 151.55 L 236 151.4 239.4 147.5 Z"/>
</g>
<g id="l7">
<path fill="#0D2797" stroke="none" d="M 324.4 131.9 L 324 131.55 Q 318.45 126.65 313.55 127.55 L 313.45 127.55 Q 309.6 128.05 305 132.25 304.15 130.1 303.2 128.4 300.9 124.2 297.4 120.6 289.05 111.9 279.9 106.3 270.55 100.45 262.1 99.15 L 261.7 99.1 Q 256 97.25 249.8 97.95 L 248.75 97.9 230.2 93.15 Q 223.7 90.8 217.8 94.95 L 217.5 95.15 212.55 100.55 Q 217 79.05 212.45 66.6 209.2 49.6 208.65 34.95 212.55 11.4 199.25 3.05 196.3 0.75 193.9 0 L 187.7 0 Q 185.5 0.8 183.95 3.1 L 177.9 4.5 Q 177.25 4.65 176.9 5.25 176.4 5.8 176.6 6.55 L 179.15 18.85 Q 178.15 22.85 177.85 28.1 177.75 32.5 178.05 36.55 L 178.1 36.85 Q 178.5 38.8 178.45 41.7 178.35 46.45 178.4 46.85 L 177.8 43.45 Q 175.4 37.65 172.4 34.05 169.4 30.3 165.9 28.45 162.7 26.7 157.95 27.2 155.2 27.45 147.9 29.35 L 147.35 29.6 Q 143.85 32 143 33.65 141.35 36.25 143.55 40.1 L 143.6 40.2 147.7 46.1 Q 146.9 51.65 147.9 55.7 148.35 57.65 149.3 59.95 L 149.3 60 151.4 64.95 Q 151.7 65.5 152.1 65.75 154 67.15 154.6 70.8 155.15 74.75 154.15 79.55 L 154.1 79.6 153.05 86.2 Q 152.9 86 152.55 85.95 152.2 85.7 149.4 84.5 L 149 84.35 142.55 83.25 Q 136.95 83.65 135.3 88.4 133.9 92.15 135.3 98.3 L 135.4 98.65 139 106 139.3 106.4 Q 139.95 107.25 140.45 109.7 140.85 111.7 141.6 117.1 143.1 129 145.7 147.3 141.7 152.8 138.95 157.65 135.4 163.75 133.35 169.45 L 133.35 169.5 Q 131.1 175.75 132.05 180.7 132.85 184.95 136.6 189.95 148.1 233.55 147.7 283.7 L 147.7 284 Q 149.2 293.1 145.75 298.85 L 145.7 298.85 145.25 299.5 145.2 299.6 Q 143.8 301.5 142.3 302.95 141.85 303.4 141.85 304.1 L 141.9 304.6 131.2 320.95 Q 130.9 321.45 130.9 322.15 131.05 322.8 131.5 323.2 132 323.65 132.65 323.65 L 240.95 323.65 Q 241.3 323.65 241.75 323.4 242.1 323.2 242.35 322.85 249.45 312.4 254.95 305.5 261.55 297.4 267.85 291.95 L 268.15 291.65 287.35 263.7 322.55 200.05 Q 333 186.85 329.55 173.5 L 327.75 156.6 327.7 156.4 327.55 149.75 Q 327.05 140.65 326.9 139.9 L 326.9 139.85 Q 326.3 134.95 324.4 131.9 M 164.3 31.6 Q 167.1 33.1 169.65 36.25 172.4 39.55 174.5 44.55 L 176.5 56.55 Q 175.85 81.45 167.95 100.4 L 162.95 110.75 Q 162.4 103.1 159.8 95.4 159.05 92.4 158.45 91.2 157.55 89.55 156.3 88.35 L 157.55 80.2 Q 158.7 74.8 158 70.25 157.2 65.1 154.35 63.05 L 152.55 58.7 152.5 58.65 Q 151.55 56.1 151.25 54.9 150.35 51.1 151.25 45.95 151.4 45.3 151 44.65 L 146.55 38.3 Q 145.55 36.55 146 35.3 146.7 34.3 149 32.7 155.4 30.95 158.45 30.65 161.8 30.35 164.3 31.6 M 236.9 145.35 L 236.95 145.3 Q 238.95 142.85 239.6 140.65 L 239.6 140.25 Q 239.7 138.9 240.4 137.65 241.15 136.1 242.2 135.35 L 242.25 135.3 242.45 135.15 242.75 135 243.5 135.45 Q 247.1 137.35 251.15 137.85 255 138.25 258.1 137.1 263.4 137.05 271.35 144.7 L 271.45 144.75 Q 280.9 152.6 290.65 149.2 L 291.3 149.35 Q 290.65 149.95 289.9 150.85 287.1 154.15 284.9 158.55 281.9 162.95 279.75 168.3 277.45 173.8 276.35 179.55 272.75 183.45 270.3 187.5 267.65 191.5 265.55 196.6 L 265.45 196.65 Q 264.7 198.75 264.45 199.9 262.55 201.75 261.35 202 259 202 255.3 198.7 252.55 196.5 249.1 194.95 246.75 193.8 242.65 192.6 L 242.6 192.55 219.3 186.8 218.85 186.75 Q 216.45 186.8 214.8 186.5 L 212.95 186.5 214.15 184.9 215.4 182.3 Q 216.6 179.65 218.1 175.3 219.45 171.25 219.95 167.9 220.65 165.65 220.8 163.6 220.9 161 220.25 159.4 219.95 157.7 220.25 156.6 L 220.3 156.6 Q 220.6 155.8 221.5 155.5 L 223.85 155.3 Q 227.45 154.1 229.2 153.05 231.4 151.8 233.55 149.2 L 236.9 145.35 M 314 131 Q 317.5 130.65 321.6 134 322.95 136.4 323.5 140.3 L 324.2 156.35 323.1 159.5 Q 319.2 163.15 311.15 157.4 307.85 154.65 306.05 151.4 304.15 148 303.65 143.6 305.2 141.95 305.8 140.15 L 305.8 140.25 Q 306.4 138.3 306.1 136.05 310.45 131.65 314 131 M 138.65 97.3 Q 137.6 92.5 138.6 89.6 139.5 86.95 142.5 86.75 L 148.2 87.8 151.05 89.05 151.05 89.1 Q 152.8 90.05 153.35 90.4 153.35 90.5 153.45 90.5 154.6 91.45 155.25 92.75 155.75 93.8 156.45 96.3 L 156.45 96.4 Q 159.95 106.75 159.65 117.6 L 151.6 134.1 148.5 142.65 Q 146 124.55 145.05 116.65 144.4 111.35 143.85 109 143.1 105.4 142.05 104.25 L 138.65 97.3 Z"/>
</g>
<g id="l8">
<path fill="#FDB818" stroke="none" d="
M 138.6 89.6 Q 137.6 92.5 138.65 97.3 L 142.05 104.25 Q 143.1 105.4 143.85 109 144.4 111.35 145.05 116.65 146 124.55 148.5 142.65 L 151.6 134.1 159.65 117.6 Q 159.95 106.75 156.45 96.4 L 156.45 96.3 Q 155.75 93.8 155.25 92.75 154.6 91.45 153.45 90.5 153.35 90.5 153.35 90.4 152.8 90.05 151.05 89.1 L 151.05 89.05 148.2 87.8 142.5 86.75 Q 139.5 86.95 138.6 89.6 M 321.6 134 Q 317.5 130.65 314 131 310.45 131.65 306.1 136.05 306.4 138.3 305.8 140.25 L 305.8 140.15 Q 305.2 141.95 303.65 143.6 304.15 148 306.05 151.4 307.85 154.65 311.15 157.4 319.2 163.15 323.1 159.5 L 324.2 156.35 323.5 140.3 Q 322.95 136.4 321.6 134 M 169.65 36.25 Q 167.1 33.1 164.3 31.6 161.8 30.35 158.45 30.65 155.4 30.95 149 32.7 146.7 34.3 146 35.3 145.55 36.55 146.55 38.3 L 151 44.65 Q 151.4 45.3 151.25 45.95 150.35 51.1 151.25 54.9 151.55 56.1 152.5 58.65 L 152.55 58.7 154.35 63.05 Q 157.2 65.1 158 70.25 158.7 74.8 157.55 80.2 L 156.3 88.35 Q 157.55 89.55 158.45 91.2 159.05 92.4 159.8 95.4 162.4 103.1 162.95 110.75 L 167.95 100.4 Q 175.85 81.45 176.5 56.55 L 174.5 44.55 Q 172.4 39.55 169.65 36.25 M 326.05 174.3 L 326.05 174 324.85 162.7 Q 319.35 167.55 309.05 160.25 L 308.95 160.2 Q 305.15 157 302.95 153.1 301.25 150 300.55 146.25 L 299.6 146.8 Q 295.35 149.75 292.6 153.1 290.15 156 288 160.2 L 287.9 160.35 Q 284.95 164.75 282.95 169.65 280.7 174.85 279.7 180.75 279.5 181.3 279.25 181.6 275.7 185.35 273.15 189.3 270.55 193.65 268.7 198 L 267.65 201.1 267.6 201.85 Q 267.4 202.5 266.75 202.9 L 266.2 203.1 Q 263.6 205.35 261.7 205.5 258.3 206 252.95 201.45 250.85 199.55 247.7 198.1 245.15 196.95 241.65 196 L 218.7 190.25 Q 216.4 190.25 214.3 189.95 210.3 189.95 209.8 187.9 208.6 186.2 211.15 183.15 L 212.25 180.85 Q 213.7 177.5 214.8 174.25 216.15 170 216.5 167.3 L 216.6 166.95 Q 217.15 164.95 217.3 163.35 217.45 161.7 217 160.5 216.9 160.45 216.9 160.2 216.3 157.25 217 155.45 217.9 152.75 220.8 152.15 L 221.05 152.1 222.95 151.9 Q 225.85 150.95 227.45 150.05 229.25 148.95 230.9 147 L 230.9 146.95 234.2 143.15 234.3 143.05 Q 235.7 141.2 236.15 139.85 236.3 138.05 237.25 136.05 238.35 133.8 240.15 132.55 L 240.1 132.55 Q 240.6 132.15 240.95 132 242.6 130.75 245.25 132.45 248.3 134 251.5 134.3 254.7 134.7 257.1 133.75 257.3 133.6 257.65 133.6 264.2 132.95 273.8 142.1 281.55 148.6 289.7 145.9 L 289.85 145.85 Q 290.05 145.75 292.1 145.9 293.95 145.7 296.45 144.4 L 296.7 144.25 297.8 143.85 299.1 142.8 Q 300.1 141.85 300.85 141.45 301.95 140.3 302.5 139.05 302.9 137.75 302.55 136 L 302.5 135.85 Q 301.8 133 300.15 130.1 298.05 126.3 294.9 123 286.8 114.6 278.05 109.25 269.35 103.9 261.55 102.6 L 260.7 102.5 Q 255.8 100.8 250.05 101.45 L 248.05 101.35 229.25 96.55 229.1 96.5 Q 224.25 94.75 219.95 97.65 L 210.7 107.7 180.3 144.65 170.9 156.6 Q 168.75 160.35 168.65 164.5 168.65 164.75 168.5 164.95 L 166.55 171.05 163.5 191.1 Q 163.45 191.65 162.85 192.2 162.2 192.55 161.55 192.45 160.75 192.35 160.4 191.75 159.95 191.2 160.1 190.5 L 163.25 170.1 165.15 164.1 Q 165.35 159.15 167.9 154.7 L 177.5 142.5 177.55 142.45 207.85 105.75 Q 213.9 81.1 209.1 67.65 L 209.05 67.45 Q 205.8 50.45 205.15 34.9 L 205.2 34.55 Q 208.75 13.45 197.2 5.9 L 197.1 5.8 Q 193.55 3 190.75 2.95 L 190.7 2.95 Q 188.2 2.95 186.45 5.6 186.15 6.2 185.4 6.4 L 180.4 7.5 182.75 18.55 Q 182.75 19.1 182.65 19.35 181.65 23.1 181.45 28.25 181.3 32.35 181.6 36.2 182.1 38.45 181.95 41.75 181.9 45.8 181.95 46.6 182.2 49.4 181.9 51.2 181.5 54.15 180.05 56.9 179.25 82.15 171.15 101.8 L 163 118.6 Q 163 118.75 162.9 118.9 L 154.7 135.6 150.75 146.7 Q 150.65 147.05 150.3 147.35 L 148.85 148.85 Q 144.8 154.45 141.95 159.4 138.6 165.15 136.65 170.65 134.75 175.85 135.5 180.05 136.2 183.85 139.55 188.1 139.7 188.25 139.95 188.75 151.65 232.95 151.2 283.6 152.85 294.2 148.6 300.7 L 148.6 300.75 135.85 320.1 240 320.1 Q 246.9 309.95 252.25 303.3 259 294.95 265.35 289.45 L 284.35 261.8 319.5 198.25 319.75 198 Q 329.15 186.25 326.05 174.3 Z"/>
</g>
</defs>
<g transform="matrix(1,0,0,1,0,0)">
<use xlink:href="#l1"/>
</g>
<g transform="matrix(1,0,0,1,0,0)">
<use xlink:href="#l2"/>
</g>
<g transform="matrix(1,0,0,1,0,0)">
<use xlink:href="#l3"/>
</g>
<g transform="matrix(1,0,0,1,0,0)">
<use xlink:href="#l4"/>
</g>
<g transform="matrix(1,0,0,1,0,0)">
<use xlink:href="#l5"/>
</g>
<g transform="matrix(1,0,0,1,0,0)">
<use xlink:href="#l6"/>
</g>
<g transform="matrix(1,0,0,1,0,0)">
<use xlink:href="#l7"/>
</g>
<g transform="matrix(1,0,0,1,0,0)">
<use xlink:href="#l8"/>
</g>
</svg>
