<svg xmlns="http://www.w3.org/2000/svg" xmlns:xlink="http://www.w3.org/1999/xlink" width="100%" height="100%" viewBox="0 0 512 512">
<!-- Vectorization by Rodrigo Polo https://github.com/rodrigopolo/logotipos-politicos -->
<defs>
<g id="l1">
<path fill="#0D2797" stroke="none" d="M 302.55 445.95 L 298.2 445.95 230.35 445.95 220.85 445.95 196.15 445.95 183.55 445.95 117 445.95 79.75 445.95 79.75 493.35 432.15 493.35 432.15 445.95 377.9 445.95 351.95 445.95 325.5 445.95 302.55 445.95 M 84.55 488.5 L 84.55 450.8 427.35 450.8 427.25 481.55 427.35 488.5 427.15 488.5 84.55 488.5 M 381.85 465.3 Q 380.55 462.95 378 462.95 375.55 462.95 373.95 465.8 372.3 468.65 372.3 472.5 372.3 475.4 373.4 477.1 374.45 478.8 376.5 478.8 377.55 478.8 378.35 478.4 379.15 477.95 380.1 476.85 L 380.15 476.9 379.9 478.4 384.2 478.4 387.75 457.55 383.15 457.55 381.85 465.3 M 377.5 468.45 Q 378.2 466.85 379.25 466.85 379.9 466.85 380.45 467.5 381 468.15 381 469.5 381 471.35 380.3 473.15 379.6 474.95 378.35 474.95 377.65 474.95 377.25 474.3 376.8 473.65 376.8 472.35 376.8 470.05 377.5 468.45 M 369.75 463.3 L 365.15 463.3 362.55 478.4 367.2 478.4 369.75 463.3 M 370.7 457.55 L 366.1 457.55 365.45 461.55 370.05 461.55 370.7 457.55 M 390.35 467.45 L 394.6 468.05 Q 395 467 395.5 466.7 395.95 466.35 396.75 466.35 397.5 466.35 397.95 466.7 398.45 467.05 398.45 467.6 L 398.3 468.65 Q 397.6 468.9 395.6 469.2 393.4 469.45 392.05 469.85 390.8 470.2 389.9 471.25 389 472.3 389 474.35 389 476.1 390 477.4 391 478.8 393.25 478.8 395.5 478.8 397.3 476.7 397.3 477.55 397.45 478.4 L 401.95 478.4 Q 401.65 477.35 401.65 476.35 401.65 475.1 402.2 472 402.85 468.75 402.85 467.35 402.85 465.2 401.6 464.1 400.4 462.95 396.85 462.95 393.7 462.95 392.25 464.15 390.75 465.3 390.35 467.45 M 397.8 471.65 Q 397.5 473.85 396.65 474.75 395.8 475.6 394.9 475.6 394.3 475.6 393.9 475.2 393.5 474.75 393.5 474.05 393.5 473.35 394.05 472.85 394.6 472.3 397.8 471.65 M 361.75 463.3 L 356.95 463.3 352.95 472.9 352.9 472.9 352.2 463.3 347.9 463.3 350.2 478.4 354.25 478.4 361.75 463.3 M 411.1 473.05 L 406.55 473.05 405.6 478.4 410.2 478.4 411.1 473.05 M 413.9 457.55 L 409 457.55 Q 408.95 457.65 408.9 457.8 408.9 458.05 408.85 458.25 L 408.1 462.85 407.5 471.85 410.4 471.85 412.3 465.3 Q 413.05 462.85 413.3 461.25 L 413.9 457.55 M 130.95 465 Q 129.75 466.25 129.05 468.05 128.35 469.8 128.35 471.85 128.35 474.75 129.85 476.75 131.35 478.8 134.9 478.8 137.35 478.8 138.95 477.8 140.6 476.8 141.55 474.55 L 137.15 474 Q 136.35 475.4 135 475.4 133.05 475.4 132.85 472.35 L 142 472.35 Q 142.3 470.2 142.3 469.35 142.3 466.65 140.85 464.8 139.4 462.95 136.05 462.95 134.5 462.95 133.3 463.4 132.15 463.8 130.95 465 M 137.3 466.95 Q 137.8 467.5 137.8 468.7 L 137.75 469.55 133.3 469.55 Q 133.65 467.95 134.35 467.15 135.05 466.35 135.9 466.35 136.75 466.35 137.3 466.95 M 151.9 463.3 L 147.3 463.3 144.95 477.05 Q 144.65 479.15 144.25 479.6 143.9 480.05 143.1 480.05 L 141.95 479.9 141.3 484 Q 143.05 484.55 144.5 484.55 146.2 484.55 147.15 483.8 148.1 483 148.55 481.8 149 480.5 149.35 478.4 L 151.9 463.3 M 152.85 457.55 L 148.25 457.55 147.65 461.55 152.2 461.55 152.85 457.55 M 100.85 469.9 L 97.95 469.9 96.05 476.45 Q 95.25 478.9 95.05 480.5 L 94.45 484.2 99.35 484.2 Q 99.4 484.05 99.4 483.9 L 100.2 478.9 100.85 469.9 M 101.8 468.7 L 102.75 463.3 98.15 463.3 97.25 468.7 101.8 468.7 M 111.15 462.5 L 111.2 462.5 111.9 478.4 115.7 478.4 121.8 462.5 121.9 462.5 118.8 478.4 123.1 478.4 126.65 457.55 120.2 457.55 114.95 470.75 114.9 470.75 114.3 457.55 108.05 457.55 104.5 478.4 108.75 478.4 111.15 462.5 M 212.25 464.15 Q 210.75 465.3 210.35 467.45 L 214.6 468.05 Q 215 467 215.5 466.7 215.95 466.35 216.75 466.35 217.55 466.35 217.95 466.7 218.45 467.05 218.45 467.6 L 218.3 468.65 Q 217.65 468.9 215.6 469.2 213.4 469.45 212.1 469.85 210.8 470.2 209.9 471.25 209 472.3 209 474.35 209 476.1 210 477.4 211 478.8 213.25 478.8 215.5 478.8 217.3 476.7 217.3 477.55 217.45 478.4 L 221.95 478.4 Q 221.65 477.35 221.65 476.35 221.65 475.1 222.2 472 222.85 468.75 222.85 467.35 222.85 465.2 221.6 464.1 220.4 462.95 216.85 462.95 213.7 462.95 212.25 464.15 M 213.5 474.05 Q 213.5 473.35 214.05 472.85 214.6 472.3 217.8 471.65 217.5 473.85 216.65 474.75 215.8 475.6 214.9 475.6 214.3 475.6 213.9 475.2 213.5 474.75 213.5 474.05 M 241.95 463.3 L 237.35 463.3 234.8 478.4 239.4 478.4 241.95 463.3 M 233.75 457.55 L 229.15 457.55 225.65 478.4 230.25 478.4 233.75 457.55 M 242.9 457.55 L 238.3 457.55 237.65 461.55 242.25 461.55 242.9 457.55 M 177.05 466.3 L 177.55 463.3 173.25 463.3 170.7 478.4 175.3 478.4 176.25 472.75 Q 176.7 470.15 177.55 468.95 178.35 467.75 179.7 467.75 L 180.65 467.9 182.3 463.45 Q 181.5 462.95 180.75 462.95 179.8 462.95 178.95 463.65 178.15 464.35 177.05 466.35 L 177.05 466.3 M 166.7 465 Q 165.2 462.95 162 462.95 159.65 462.95 157.95 464.2 156.25 465.4 155.35 467.5 154.45 469.65 154.45 471.95 154.45 474.85 155.95 476.8 157.45 478.8 160.6 478.8 163.1 478.8 164.8 477.5 166.5 476.25 167.3 474.1 168.15 471.9 168.15 469.8 168.15 467.1 166.7 465 M 163.1 467.45 Q 163.7 468.05 163.7 469.55 163.7 471.55 162.95 473.2 162.15 474.85 160.9 474.85 160.05 474.85 159.5 474 158.9 473.2 158.9 471.95 158.9 470.2 159.65 468.55 160.4 466.9 161.8 466.9 162.55 466.9 163.1 467.45 M 200.3 466.9 Q 202.1 466.9 202.4 468.85 L 206.55 468.6 Q 206.25 465.8 204.65 464.4 203 462.95 200.3 462.95 196.5 462.95 194.4 465.7 192.35 468.45 192.35 472.25 192.35 478.8 198.65 478.8 204.3 478.8 205.85 472.9 L 201.55 472.3 Q 200.7 474.85 198.85 474.85 198.1 474.85 197.45 474.2 196.8 473.55 196.8 472.3 196.8 470.3 197.7 468.6 198.6 466.9 200.3 466.9 M 321.45 471.85 Q 321.45 474.75 322.95 476.75 324.4 478.8 327.95 478.8 330.4 478.8 332.05 477.8 333.65 476.8 334.65 474.55 L 330.2 474 Q 329.4 475.4 328.1 475.4 326.1 475.4 325.95 472.35 L 335.05 472.35 Q 335.4 470.2 335.4 469.35 335.4 466.65 333.9 464.8 332.45 462.95 329.1 462.95 327.55 462.95 326.4 463.4 325.25 463.8 324.05 465 322.85 466.25 322.15 468.05 321.45 469.8 321.45 471.85 M 326.35 469.55 Q 326.75 467.95 327.45 467.15 328.15 466.35 329 466.35 329.8 466.35 330.35 466.95 330.9 467.5 330.9 468.7 L 330.8 469.55 326.35 469.55 M 319.95 457.55 L 315.35 457.55 314 465.3 Q 312.7 462.95 310.2 462.95 307.75 462.95 306.1 465.8 304.5 468.65 304.5 472.5 304.5 475.4 305.55 477.1 306.65 478.8 308.65 478.8 309.75 478.8 310.55 478.4 311.3 477.95 312.3 476.85 L 312.35 476.9 312.1 478.4 316.35 478.4 319.95 457.55 M 312.65 467.5 Q 313.2 468.15 313.2 469.5 313.2 471.35 312.5 473.15 311.8 474.95 310.55 474.95 309.85 474.95 309.4 474.3 308.95 473.65 308.95 472.35 308.95 470.05 309.7 468.45 310.4 466.85 311.4 466.85 312.1 466.85 312.65 467.5 M 278.4 472.5 Q 278.4 475.4 279.5 477.1 280.55 478.8 282.6 478.8 283.7 478.8 284.45 478.4 285.25 477.95 286.2 476.85 L 286.25 476.9 286.05 478.4 290.3 478.4 293.85 457.55 289.25 457.55 287.95 465.3 Q 286.65 462.95 284.1 462.95 281.65 462.95 280.05 465.8 278.4 468.65 278.4 472.5 M 283.35 474.3 Q 282.9 473.65 282.9 472.35 282.9 470.05 283.6 468.45 284.35 466.85 285.35 466.85 286.05 466.85 286.55 467.5 287.1 468.15 287.1 469.5 287.1 471.35 286.4 473.15 285.7 474.95 284.45 474.95 283.75 474.95 283.35 474.3 M 254 465.3 Q 252.7 462.95 250.2 462.95 247.75 462.95 246.1 465.8 244.5 468.65 244.5 472.5 244.5 475.4 245.55 477.1 246.65 478.8 248.65 478.8 249.75 478.8 250.55 478.4 251.3 477.95 252.3 476.85 L 252.35 476.9 252.1 478.4 256.35 478.4 259.95 457.55 255.35 457.55 254 465.3 M 251.4 466.85 Q 252.1 466.85 252.65 467.5 253.2 468.15 253.2 469.5 253.2 471.35 252.5 473.15 251.8 474.95 250.55 474.95 249.85 474.95 249.4 474.3 248.95 473.65 248.95 472.35 248.95 470.05 249.7 468.45 250.4 466.85 251.4 466.85 M 268.95 466.35 Q 269.75 466.35 270.15 466.7 270.65 467.05 270.65 467.6 L 270.5 468.65 Q 269.85 468.9 267.8 469.2 265.6 469.45 264.3 469.85 263 470.2 262.1 471.25 261.2 472.3 261.2 474.35 261.2 476.1 262.2 477.4 263.2 478.8 265.5 478.8 267.7 478.8 269.5 476.7 269.5 477.55 269.65 478.4 L 274.15 478.4 Q 273.85 477.35 273.85 476.35 273.85 475.1 274.45 472 275.05 468.75 275.05 467.35 275.05 465.2 273.8 464.1 272.6 462.95 269.05 462.95 265.9 462.95 264.45 464.15 262.95 465.3 262.55 467.45 L 266.8 468.05 Q 267.2 467 267.7 466.7 268.15 466.35 268.95 466.35 M 266.25 472.85 Q 266.8 472.3 270 471.65 269.7 473.85 268.85 474.75 268 475.6 267.1 475.6 266.5 475.6 266.1 475.2 265.7 474.75 265.7 474.05 265.7 473.35 266.25 472.85 M 183.55 22.9 Q 182.9 23.05 182.55 23.6 182.15 24.15 182.3 24.8 L 184.7 36.2 Q 183.75 39.85 183.5 44.8 183.35 48.65 183.65 52.6 183.65 52.75 183.7 52.85 184.1 54.6 184.05 57.35 183.95 61.35 184 62.2 L 183.5 59.35 Q 183.45 59.15 183.4 59 181.3 53.8 178.4 50.25 175.6 46.8 172.35 45.1 169.35 43.5 165.05 43.95 162.45 44.2 155.65 45.95 155.4 46 155.15 46.2 151.85 48.4 151.1 49.9 149.6 52.3 151.6 55.9 151.65 55.95 151.7 56 L 155.5 61.45 Q 154.75 66.55 155.65 70.35 156.05 72.05 156.95 74.3 L 156.95 74.35 Q 157.2 74.95 158.95 78.95 159.15 79.4 159.55 79.7 161.35 80.95 161.9 84.4 162.4 87.95 161.5 92.45 161.45 92.45 161.45 92.5 L 160.5 98.65 Q 160.3 98.5 160 98.4 159.25 98 157.1 97.05 156.9 97 156.7 96.95 L 151.05 95.95 Q 150.85 95.9 150.7 95.9 145.6 96.25 144 100.7 142.7 104.15 144 109.85 144 110.05 144.1 110.2 L 147.4 117 Q 147.5 117.2 147.7 117.4 148.25 118.15 148.75 120.45 149.2 122.6 149.8 127.25 151 136.75 153.6 155.3 149.85 160.5 147.35 164.9 144.1 170.55 142.2 175.85 L 142.2 175.9 Q 140.1 181.7 141 186.25 141.75 190.3 145.2 194.85 155.9 235.35 155.5 281.85 155.5 282 155.5 282.1 156.9 290.55 153.65 295.85 L 153.6 295.85 153.2 296.45 Q 153.2 296.5 153.15 296.55 152 298.2 150.5 299.65 150.05 300.1 150.05 300.75 150.05 301 150.1 301.2 L 140.2 316.35 Q 139.85 316.85 139.95 317.45 140.05 318.05 140.5 318.45 140.95 318.85 141.55 318.85 L 241.95 318.85 Q 242.35 318.85 242.7 318.65 243.05 318.45 243.3 318.15 249.75 308.45 254.95 302.05 261.05 294.5 266.9 289.45 267.05 289.3 267.2 289.15 L 284.95 263.3 Q 285 263.2 285.05 263.15 L 317.65 204.25 Q 327.3 192 324.1 179.6 L 322.5 163.95 Q 322.45 163.9 322.45 163.8 L 322.3 157.6 Q 321.85 149.45 321.7 148.45 L 321.7 148.4 Q 321.1 143.85 319.35 141.05 319.2 140.85 319 140.7 313.8 136.2 309.25 137 L 309.2 137 Q 305.65 137.45 301.4 141.35 300.75 139.65 299.75 137.8 297.55 133.85 294.35 130.55 286.55 122.5 278.1 117.25 269.3 111.85 261.6 110.65 L 261.2 110.6 Q 256 108.85 250.15 109.55 L 249.2 109.5 232 105.1 Q 225.95 102.9 220.5 106.75 220.35 106.85 220.2 106.95 L 215.65 111.95 Q 219.75 92 215.55 80.5 212.55 65.15 212 51.1 215.65 29.25 203.3 21.55 200.65 19.5 198.35 18.7 L 192.55 18.7 Q 190.55 19.5 189.1 21.6 L 183.55 22.9 M 190.45 24.65 Q 191.1 24.45 191.45 23.9 193 21.45 195.35 21.45 L 195.4 21.45 Q 198 21.5 201.3 24.1 201.35 24.15 201.45 24.2 212.1 31.15 208.8 50.7 208.75 50.9 208.75 51.05 209.3 65.5 212.4 81.25 212.4 81.35 212.45 81.45 216.9 93.9 211.25 116.75 L 183.2 150.8 Q 183.2 150.85 183.15 150.85 L 174.35 162 Q 174.25 162.1 174.25 162.2 171.85 166.3 171.65 170.9 L 169.9 176.45 Q 169.85 176.6 169.85 176.7 L 166.95 195.35 Q 166.85 196 167.25 196.55 167.65 197.1 168.3 197.2 168.95 197.3 169.5 196.95 170.05 196.55 170.15 195.9 L 173 177.35 174.8 171.65 Q 174.9 171.45 174.9 171.25 175 167.35 177 163.95 L 185.7 152.85 213.9 118.6 222.5 109.25 Q 226.5 106.55 230.95 108.2 231 108.2 231.1 108.25 L 248.55 112.65 Q 248.65 112.7 248.8 112.7 L 250.05 112.8 Q 250.2 112.8 250.4 112.8 255.65 112.15 260.3 113.75 260.45 113.75 260.6 113.8 L 261.1 113.85 Q 268.25 115 276.4 120.05 284.55 125.05 292 132.8 294.9 135.8 296.9 139.35 298.45 142.2 299.05 144.7 299.05 144.75 299.1 144.85 299.45 146.4 299.05 147.65 298.6 148.8 297.5 149.85 296.85 150.25 295.9 151.1 295.1 151.8 294.7 152.1 294.2 152.3 293.65 152.5 293.55 152.55 293.45 152.6 291.15 153.8 289.4 154 287.55 153.85 287.3 153.95 287.2 153.95 287.15 154 279.65 156.5 272.4 150.5 263.55 142.05 257.45 142.6 257.15 142.6 256.95 142.75 254.65 143.6 251.75 143.3 248.75 142.95 245.95 141.55 243.5 139.95 242 141.15 241.65 141.3 241.2 141.65 L 241.25 141.65 Q 239.6 142.8 238.55 144.9 237.65 146.75 237.55 148.4 237.1 149.75 235.8 151.35 235.8 151.4 235.75 151.45 233.7 153.75 232.65 155 L 232.65 155.05 Q 231.05 156.9 229.45 157.85 228.05 158.65 225.25 159.6 L 223.5 159.75 Q 223.4 159.75 223.3 159.8 220.6 160.4 219.75 162.85 219.1 164.55 219.65 167.25 219.65 167.4 219.75 167.55 220.15 168.55 220.05 170.2 219.9 171.95 219.4 173.55 219.35 173.65 219.3 173.85 218.95 176.5 217.7 180.3 216.65 183.45 215.35 186.4 214.8 187.55 214.3 188.55 212 191.4 213.05 192.95 213.55 194.85 217.25 194.85 218.95 195.15 221.35 195.15 L 242.65 200.45 Q 246 201.45 248.2 202.45 251.1 203.75 253.1 205.5 258.05 209.7 261.2 209.25 262.95 209.15 265.35 207.05 265.6 207 265.9 206.85 266.45 206.5 266.65 205.85 L 266.7 205.5 Q 266.75 205.35 266.75 205.2 267.1 204 267.7 202.35 269.6 197.9 271.85 194.3 274.25 190.5 277.5 187.1 277.8 186.75 277.9 186.3 278.85 181 280.95 176.05 282.85 171.35 285.5 167.4 285.6 167.3 285.6 167.25 287.45 163.55 289.85 160.7 292.5 157.5 296.4 154.85 296.8 154.65 297.25 154.35 297.9 157.85 299.5 160.7 301.45 164.25 305 167.25 305.1 167.25 305.1 167.3 314.7 174.05 319.8 169.6 L 320.9 180.1 Q 320.9 180.2 320.9 180.35 323.75 191.4 315.05 202.35 314.9 202.45 314.85 202.55 L 282.25 261.5 264.6 287.15 Q 258.65 292.3 252.45 300 247.35 306.3 241.1 315.6 L 144.55 315.6 156.35 297.65 156.35 297.6 Q 160.3 291.5 158.75 281.75 159.15 234.65 148.25 193.75 148.15 193.45 147.95 193.15 144.85 189.2 144.2 185.65 143.5 181.85 145.25 176.95 147.05 171.85 150.15 166.5 152.7 162.05 156.55 156.75 L 157.95 155.35 Q 158.2 155.1 158.3 154.75 L 162 144.5 169.55 128.95 Q 169.65 128.85 169.7 128.7 L 177.25 113.15 177.25 113.1 Q 184.75 95 185.45 71.45 186.85 68.9 187.2 66.2 187.45 64.45 187.25 61.95 187.2 61.15 187.25 57.4 187.35 54.3 186.9 52.25 186.6 48.55 186.75 44.95 186.95 40.1 187.9 36.65 188 36.3 187.95 35.9 L 185.8 25.7 190.45 24.65 M 165.4 47.15 Q 168.6 46.85 170.85 48 173.5 49.4 175.85 52.3 178.4 55.45 180.35 60.05 L 182.25 71.15 Q 181.6 94.15 174.3 111.8 L 169.65 121.4 Q 169.05 114.1 166.7 107.15 166.05 104.55 165.4 103.3 164.7 101.8 163.5 100.65 L 164.65 93.1 Q 165.65 88 165.1 83.9 164.35 79.1 161.7 77.2 160.2 73.7 160 73.15 L 159.95 73.1 Q 159.15 71.1 158.8 69.6 158 66.1 158.8 61.35 158.95 60.7 158.55 60.15 L 154.4 54.25 Q 153.5 52.6 153.9 51.45 154.55 50.5 156.7 49 162.95 47.4 165.4 47.15 M 163.6 108 Q 163.6 108.05 163.6 108.1 166.85 117.6 166.55 127.75 L 159.1 143.1 Q 159.05 143.2 159.05 143.25 L 156.25 151 Q 154.05 135.3 153.05 126.85 152.4 122.05 151.9 119.8 151.2 116.5 150.25 115.4 L 147.1 108.95 Q 146.1 104.5 147.05 101.8 147.9 99.35 150.65 99.15 L 155.95 100.1 Q 157.85 100.95 158.6 101.3 L 158.6 101.35 Q 160.05 102.05 160.75 102.55 160.75 102.6 160.85 102.65 161.9 103.55 162.55 104.75 L 162.5 104.75 Q 163 105.75 163.6 108 M 235.1 157.1 Q 236.15 155.85 238.25 153.5 L 238.3 153.45 Q 240.15 151.15 240.7 149.15 240.75 148.95 240.75 148.75 240.8 147.6 241.45 146.35 242.15 145 243.15 144.25 243.15 144.2 243.2 144.2 243.3 144.1 243.4 144.05 243.55 144 243.7 143.9 243.8 144 244.2 144.25 244.25 144.3 244.3 144.35 247.7 146.1 251.4 146.5 255 146.9 257.85 145.85 262.8 145.8 270.15 152.9 270.2 152.9 270.25 152.95 279 160.2 288.05 157.1 288.15 157.1 288.65 157.2 287.95 157.85 287.35 158.6 284.75 161.7 282.75 165.7 279.95 169.85 277.95 174.8 275.8 179.85 274.8 185.2 271.55 188.7 269.15 192.55 266.7 196.35 264.75 201.05 L 264.7 201.1 Q 264.05 202.85 263.7 204.1 262 205.8 260.9 206.05 258.75 206.05 255.25 203 252.85 201 249.55 199.5 247.15 198.4 243.55 197.35 243.55 197.3 243.5 197.3 L 221.9 191.95 Q 221.7 191.9 221.45 191.9 219.25 191.95 217.7 191.65 217.55 191.65 217.4 191.65 216.25 191.65 216 191.65 216.15 191.35 216.9 190.45 217 190.35 217.1 190.2 217.65 189.1 218.3 187.75 219.7 184.6 220.8 181.3 222.1 177.3 222.5 174.4 223.1 172.55 223.3 170.45 223.4 168 222.8 166.5 222.5 164.95 222.8 163.95 L 222.85 163.95 Q 223.1 163.2 223.95 162.95 L 225.75 162.8 Q 225.9 162.8 226.1 162.75 229.45 161.65 231.05 160.65 233.1 159.45 235.1 157.1 M 309.7 140.2 Q 312.95 139.85 316.75 143 318 145.2 318.5 148.8 318.6 149.8 319.05 157.8 L 319.2 163.7 318.2 166.6 Q 314.55 169.95 307.05 164.7 304 162.15 302.35 159.15 L 302.35 159.1 Q 300.6 155.95 300.1 151.85 301.55 150.35 302.1 148.7 L 302.1 148.75 Q 302.7 147 302.4 144.9 306.5 140.8 309.7 140.2 Z"/>
<path fill="#FFFFFF" stroke="none" d="M 84.55 450.8 L 84.55 488.5 427.15 488.5 427.25 481.55 427.35 450.8 84.55 450.8 M 270.15 466.7 Q 269.75 466.35 268.95 466.35 268.15 466.35 267.7 466.7 267.2 467 266.8 468.05 L 262.55 467.45 Q 262.95 465.3 264.45 464.15 265.9 462.95 269.05 462.95 272.6 462.95 273.8 464.1 275.05 465.2 275.05 467.35 275.05 468.75 274.45 472 273.85 475.1 273.85 476.35 273.85 477.35 274.15 478.4 L 269.65 478.4 Q 269.5 477.55 269.5 476.7 267.7 478.8 265.5 478.8 263.2 478.8 262.2 477.4 261.2 476.1 261.2 474.35 261.2 472.3 262.1 471.25 263 470.2 264.3 469.85 265.6 469.45 267.8 469.2 269.85 468.9 270.5 468.65 L 270.65 467.6 Q 270.65 467.05 270.15 466.7 M 250.2 462.95 Q 252.7 462.95 254 465.3 L 255.35 457.55 259.95 457.55 256.35 478.4 252.1 478.4 252.35 476.9 252.3 476.85 Q 251.3 477.95 250.55 478.4 249.75 478.8 248.65 478.8 246.65 478.8 245.55 477.1 244.5 475.4 244.5 472.5 244.5 468.65 246.1 465.8 247.75 462.95 250.2 462.95 M 279.5 477.1 Q 278.4 475.4 278.4 472.5 278.4 468.65 280.05 465.8 281.65 462.95 284.1 462.95 286.65 462.95 287.95 465.3 L 289.25 457.55 293.85 457.55 290.3 478.4 286.05 478.4 286.25 476.9 286.2 476.85 Q 285.25 477.95 284.45 478.4 283.7 478.8 282.6 478.8 280.55 478.8 279.5 477.1 M 315.35 457.55 L 319.95 457.55 316.35 478.4 312.1 478.4 312.35 476.9 312.3 476.85 Q 311.3 477.95 310.55 478.4 309.75 478.8 308.65 478.8 306.65 478.8 305.55 477.1 304.5 475.4 304.5 472.5 304.5 468.65 306.1 465.8 307.75 462.95 310.2 462.95 312.7 462.95 314 465.3 L 315.35 457.55 M 322.95 476.75 Q 321.45 474.75 321.45 471.85 321.45 469.8 322.15 468.05 322.85 466.25 324.05 465 325.25 463.8 326.4 463.4 327.55 462.95 329.1 462.95 332.45 462.95 333.9 464.8 335.4 466.65 335.4 469.35 335.4 470.2 335.05 472.35 L 325.95 472.35 Q 326.1 475.4 328.1 475.4 329.4 475.4 330.2 474 L 334.65 474.55 Q 333.65 476.8 332.05 477.8 330.4 478.8 327.95 478.8 324.4 478.8 322.95 476.75 M 202.4 468.85 Q 202.1 466.9 200.3 466.9 198.6 466.9 197.7 468.6 196.8 470.3 196.8 472.3 196.8 473.55 197.45 474.2 198.1 474.85 198.85 474.85 200.7 474.85 201.55 472.3 L 205.85 472.9 Q 204.3 478.8 198.65 478.8 192.35 478.8 192.35 472.25 192.35 468.45 194.4 465.7 196.5 462.95 200.3 462.95 203 462.95 204.65 464.4 206.25 465.8 206.55 468.6 L 202.4 468.85 M 162 462.95 Q 165.2 462.95 166.7 465 168.15 467.1 168.15 469.8 168.15 471.9 167.3 474.1 166.5 476.25 164.8 477.5 163.1 478.8 160.6 478.8 157.45 478.8 155.95 476.8 154.45 474.85 154.45 471.95 154.45 469.65 155.35 467.5 156.25 465.4 157.95 464.2 159.65 462.95 162 462.95 M 177.55 463.3 L 177.05 466.3 177.05 466.35 Q 178.15 464.35 178.95 463.65 179.8 462.95 180.75 462.95 181.5 462.95 182.3 463.45 L 180.65 467.9 179.7 467.75 Q 178.35 467.75 177.55 468.95 176.7 470.15 176.25 472.75 L 175.3 478.4 170.7 478.4 173.25 463.3 177.55 463.3 M 238.3 457.55 L 242.9 457.55 242.25 461.55 237.65 461.55 238.3 457.55 M 229.15 457.55 L 233.75 457.55 230.25 478.4 225.65 478.4 229.15 457.55 M 237.35 463.3 L 241.95 463.3 239.4 478.4 234.8 478.4 237.35 463.3 M 210.35 467.45 Q 210.75 465.3 212.25 464.15 213.7 462.95 216.85 462.95 220.4 462.95 221.6 464.1 222.85 465.2 222.85 467.35 222.85 468.75 222.2 472 221.65 475.1 221.65 476.35 221.65 477.35 221.95 478.4 L 217.45 478.4 Q 217.3 477.55 217.3 476.7 215.5 478.8 213.25 478.8 211 478.8 210 477.4 209 476.1 209 474.35 209 472.3 209.9 471.25 210.8 470.2 212.1 469.85 213.4 469.45 215.6 469.2 217.65 468.9 218.3 468.65 L 218.45 467.6 Q 218.45 467.05 217.95 466.7 217.55 466.35 216.75 466.35 215.95 466.35 215.5 466.7 215 467 214.6 468.05 L 210.35 467.45 M 111.2 462.5 L 111.15 462.5 108.75 478.4 104.5 478.4 108.05 457.55 114.3 457.55 114.9 470.75 114.95 470.75 120.2 457.55 126.65 457.55 123.1 478.4 118.8 478.4 121.9 462.5 121.8 462.5 115.7 478.4 111.9 478.4 111.2 462.5 M 102.75 463.3 L 101.8 468.7 97.25 468.7 98.15 463.3 102.75 463.3 M 97.95 469.9 L 100.85 469.9 100.2 478.9 99.4 483.9 Q 99.4 484.05 99.35 484.2 L 94.45 484.2 95.05 480.5 Q 95.25 478.9 96.05 476.45 L 97.95 469.9 M 148.25 457.55 L 152.85 457.55 152.2 461.55 147.65 461.55 148.25 457.55 M 147.3 463.3 L 151.9 463.3 149.35 478.4 Q 149 480.5 148.55 481.8 148.1 483 147.15 483.8 146.2 484.55 144.5 484.55 143.05 484.55 141.3 484 L 141.95 479.9 143.1 480.05 Q 143.9 480.05 144.25 479.6 144.65 479.15 144.95 477.05 L 147.3 463.3 M 129.05 468.05 Q 129.75 466.25 130.95 465 132.15 463.8 133.3 463.4 134.5 462.95 136.05 462.95 139.4 462.95 140.85 464.8 142.3 466.65 142.3 469.35 142.3 470.2 142 472.35 L 132.85 472.35 Q 133.05 475.4 135 475.4 136.35 475.4 137.15 474 L 141.55 474.55 Q 140.6 476.8 138.95 477.8 137.35 478.8 134.9 478.8 131.35 478.8 129.85 476.75 128.35 474.75 128.35 471.85 128.35 469.8 129.05 468.05 M 409 457.55 L 413.9 457.55 413.3 461.25 Q 413.05 462.85 412.3 465.3 L 410.4 471.85 407.5 471.85 408.1 462.85 408.85 458.25 Q 408.9 458.05 408.9 457.8 408.95 457.65 409 457.55 M 406.55 473.05 L 411.1 473.05 410.2 478.4 405.6 478.4 406.55 473.05 M 356.95 463.3 L 361.75 463.3 354.25 478.4 350.2 478.4 347.9 463.3 352.2 463.3 352.9 472.9 352.95 472.9 356.95 463.3 M 394.6 468.05 L 390.35 467.45 Q 390.75 465.3 392.25 464.15 393.7 462.95 396.85 462.95 400.4 462.95 401.6 464.1 402.85 465.2 402.85 467.35 402.85 468.75 402.2 472 401.65 475.1 401.65 476.35 401.65 477.35 401.95 478.4 L 397.45 478.4 Q 397.3 477.55 397.3 476.7 395.5 478.8 393.25 478.8 391 478.8 390 477.4 389 476.1 389 474.35 389 472.3 389.9 471.25 390.8 470.2 392.05 469.85 393.4 469.45 395.6 469.2 397.6 468.9 398.3 468.65 L 398.45 467.6 Q 398.45 467.05 397.95 466.7 397.5 466.35 396.75 466.35 395.95 466.35 395.5 466.7 395 467 394.6 468.05 M 366.1 457.55 L 370.7 457.55 370.05 461.55 365.45 461.55 366.1 457.55 M 365.15 463.3 L 369.75 463.3 367.2 478.4 362.55 478.4 365.15 463.3 M 378 462.95 Q 380.55 462.95 381.85 465.3 L 383.15 457.55 387.75 457.55 384.2 478.4 379.9 478.4 380.15 476.9 380.1 476.85 Q 379.15 477.95 378.35 478.4 377.55 478.8 376.5 478.8 374.45 478.8 373.4 477.1 372.3 475.4 372.3 472.5 372.3 468.65 373.95 465.8 375.55 462.95 378 462.95 M 379.25 466.85 Q 378.2 466.85 377.5 468.45 376.8 470.05 376.8 472.35 376.8 473.65 377.25 474.3 377.65 474.95 378.35 474.95 379.6 474.95 380.3 473.15 381 471.35 381 469.5 381 468.15 380.45 467.5 379.9 466.85 379.25 466.85 M 396.65 474.75 Q 397.5 473.85 397.8 471.65 394.6 472.3 394.05 472.85 393.5 473.35 393.5 474.05 393.5 474.75 393.9 475.2 394.3 475.6 394.9 475.6 395.8 475.6 396.65 474.75 M 137.8 468.7 Q 137.8 467.5 137.3 466.95 136.75 466.35 135.9 466.35 135.05 466.35 134.35 467.15 133.65 467.95 133.3 469.55 L 137.75 469.55 137.8 468.7 M 214.05 472.85 Q 213.5 473.35 213.5 474.05 213.5 474.75 213.9 475.2 214.3 475.6 214.9 475.6 215.8 475.6 216.65 474.75 217.5 473.85 217.8 471.65 214.6 472.3 214.05 472.85 M 163.7 469.55 Q 163.7 468.05 163.1 467.45 162.55 466.9 161.8 466.9 160.4 466.9 159.65 468.55 158.9 470.2 158.9 471.95 158.9 473.2 159.5 474 160.05 474.85 160.9 474.85 162.15 474.85 162.95 473.2 163.7 471.55 163.7 469.55 M 327.45 467.15 Q 326.75 467.95 326.35 469.55 L 330.8 469.55 330.9 468.7 Q 330.9 467.5 330.35 466.95 329.8 466.35 329 466.35 328.15 466.35 327.45 467.15 M 313.2 469.5 Q 313.2 468.15 312.65 467.5 312.1 466.85 311.4 466.85 310.4 466.85 309.7 468.45 308.95 470.05 308.95 472.35 308.95 473.65 309.4 474.3 309.85 474.95 310.55 474.95 311.8 474.95 312.5 473.15 313.2 471.35 313.2 469.5 M 282.9 472.35 Q 282.9 473.65 283.35 474.3 283.75 474.95 284.45 474.95 285.7 474.95 286.4 473.15 287.1 471.35 287.1 469.5 287.1 468.15 286.55 467.5 286.05 466.85 285.35 466.85 284.35 466.85 283.6 468.45 282.9 470.05 282.9 472.35 M 252.65 467.5 Q 252.1 466.85 251.4 466.85 250.4 466.85 249.7 468.45 248.95 470.05 248.95 472.35 248.95 473.65 249.4 474.3 249.85 474.95 250.55 474.95 251.8 474.95 252.5 473.15 253.2 471.35 253.2 469.5 253.2 468.15 252.65 467.5 M 270 471.65 Q 266.8 472.3 266.25 472.85 265.7 473.35 265.7 474.05 265.7 474.75 266.1 475.2 266.5 475.6 267.1 475.6 268 475.6 268.85 474.75 269.7 473.85 270 471.65 M 265.05 389.85 L 267.85 374.05 307.95 374.05 311.8 352.7 247.25 352.7 230.35 445.95 298.2 445.95 301.2 429.45 257.7 429.45 261.3 409.95 299.85 409.95 303.65 389.85 265.05 389.85 M 237.8 352.7 L 213.1 352.7 196.15 445.95 220.85 445.95 237.8 352.7 M 195.55 365.15 Q 193.35 360.2 189.45 357.25 185.5 354.15 181.25 353.45 176.95 352.7 170.3 352.7 L 133.9 352.7 117 445.95 183.55 445.95 Q 185.35 444.45 186.95 442.55 194.9 432.9 195.05 421.1 195.2 404.95 182.6 400.15 L 182.6 399.85 Q 190.35 396.9 194 390.25 197.55 383.55 197.65 376 197.7 370.1 195.55 365.15 M 151.35 391.55 L 154.65 372.8 165 372.8 Q 170.8 372.8 172.75 374.85 174.7 376.9 174.65 380.55 174.6 383.6 172.75 386.65 170.95 389.65 168 390.6 165.05 391.55 159.65 391.55 L 151.35 391.55 M 169.3 412.85 Q 171.3 415.15 171.25 419.2 171.1 430.75 157.3 430.75 L 144.25 430.75 147.95 410.45 161.2 410.45 Q 167.35 410.45 169.3 412.85 M 334.85 394.3 L 335.05 394.3 351.95 445.95 377.9 445.95 394.95 352.7 371.95 352.7 361.4 410.6 361.15 410.6 342.4 352.7 319.55 352.7 302.55 445.95 325.5 445.95 334.85 394.3 M 320.45 330.1 Q 321.2 331.05 321.2 333 L 321.2 333.15 326 332.3 Q 325.7 328.1 323.85 325.6 322 323.05 318.85 323.05 315.75 323.05 313.55 325.3 311.35 327.55 310.25 331.55 309.05 335.5 309.05 339.4 309.05 344.55 311 347.65 312.95 350.75 316.55 350.75 320.05 350.75 322.25 347.9 324.4 345.05 325.2 340.9 L 320.3 339.7 Q 319.7 342.2 318.85 343.4 318.05 344.6 316.85 344.6 315.55 344.6 314.85 343.3 314.2 341.95 314.2 339.95 314.2 337.35 314.85 334.6 315.5 331.8 316.6 330.5 317.7 329.15 318.85 329.15 319.75 329.15 320.45 330.1 M 287.35 339.1 L 287.3 339.1 283.15 323.5 278.25 323.5 274.65 350.25 279.55 350.25 281.65 334.7 281.7 334.7 285.85 350.25 295.85 350.25 297.2 345.9 302.65 345.9 302.9 350.25 308 350.25 305.35 323.5 299.8 323.5 291.05 348.05 294.35 323.5 289.45 323.5 287.35 339.1 M 298.9 340.2 L 301.8 330.45 302.35 340.2 298.9 340.2 M 234.2 350.25 L 239.8 350.25 241.1 345.9 246.6 345.9 246.85 350.25 257.05 350.25 258.5 339.4 258.75 339.4 Q 259.45 339.4 259.9 339.95 260.35 340.5 261.3 343.9 L 262.95 350.25 268.45 350.25 Q 266.25 341.05 264.65 339 267.35 338.35 268.55 336 269.75 333.65 269.75 330.5 269.75 327.6 268.6 325.55 267.45 323.5 265 323.5 L 255.4 323.5 251.9 349.75 249.3 323.5 243.7 323.5 234.2 350.25 M 259.9 328.9 L 262.55 328.9 Q 263.95 328.9 264.4 329.5 264.8 330.1 264.8 331.1 264.8 331.9 264.45 332.8 264.1 333.65 263.35 334 262.65 334.4 260.15 334.4 L 259.15 334.4 259.9 328.9 M 245.7 330.45 L 245.75 330.45 246.3 340.2 242.8 340.2 245.7 330.45 M 181.05 334.7 L 181.1 334.7 185.25 350.25 190.15 350.25 193.75 323.5 188.85 323.5 186.75 339.1 186.7 339.1 182.55 323.5 177.65 323.5 174.05 350.25 178.95 350.25 181.05 334.7 M 175.25 329.25 L 176 323.5 162.25 323.5 158.65 350.25 173.1 350.25 173.95 344.15 164.7 344.15 165.4 338.9 173.65 338.9 174.35 333.5 166.15 333.5 166.7 329.25 175.25 329.25 M 223.95 330.05 L 229.2 330.05 226.5 350.25 231.7 350.25 234.45 330.05 239.9 330.05 240.75 323.5 224.85 323.5 223.95 330.05 M 208.6 329.25 L 209.35 323.5 195.6 323.5 192 350.25 206.45 350.25 207.3 344.15 198.05 344.15 198.75 338.9 207 338.9 207.7 333.5 199.5 333.5 200.05 329.25 208.6 329.25 M 216 327.85 Q 218.25 327.85 218.45 331.35 L 223.3 330.9 Q 222.9 323.05 216.05 323.05 213.9 323.05 212.35 324.1 210.8 325.15 210 327.05 209.15 328.95 209.15 331.25 209.15 333.75 210.15 335.55 211.15 337.35 214.85 339.45 216.45 340.4 216.9 341.1 217.3 341.8 217.3 342.6 217.3 343.7 216.65 344.55 216 345.4 214.75 345.4 213.5 345.4 212.85 344.4 212.15 343.35 212.15 340.85 L 207.25 341.35 207.25 342 Q 207.25 345.85 208.9 348.3 210.6 350.75 214.6 350.75 217.45 350.75 219 349.45 220.55 348.1 221.35 346.1 222.2 344.05 222.2 341.75 222.2 339.25 221.45 337.6 220.7 335.9 219.5 334.9 218.25 333.85 216.35 332.7 214.85 331.8 214.45 331.25 214.05 330.65 214.05 330 214.05 329.1 214.55 328.5 215.1 327.85 216 327.85 M 149.9 324.75 Q 149.05 323.9 148.15 323.7 147.25 323.5 145.8 323.5 L 138.05 323.5 134.45 350.25 144.85 350.25 Q 147.95 350.25 149.6 347.7 151.25 345.1 151.25 341.9 151.25 337.55 148.55 336.25 L 148.55 336.2 Q 150.2 335.4 150.95 333.6 151.7 331.8 151.7 329.75 151.7 328.2 151.25 326.85 150.75 325.5 149.9 324.75 M 140.45 344.5 L 141.2 339.05 144 339.05 Q 145.35 339.05 145.75 339.7 146.2 340.3 146.2 341.4 146.2 344.5 143.25 344.5 L 140.45 344.5 M 146.4 329.45 Q 146.8 330 146.8 331 146.8 331.8 146.45 332.65 146.05 333.45 145.4 333.7 144.8 333.95 143.65 333.95 L 141.85 333.95 142.5 328.9 144.75 328.9 Q 146 328.9 146.4 329.45 M 160.25 323.5 L 154.95 323.5 151.35 350.25 156.65 350.25 160.25 323.5 M 334.15 323.5 L 328.85 323.5 325.25 350.25 330.55 350.25 334.15 323.5 M 337.7 325.55 Q 336.25 327.1 335.25 329.4 334.25 331.75 333.75 334.35 333.25 336.95 333.25 339.65 333.25 344.9 335.25 347.8 337.3 350.75 340.9 350.75 342.5 350.75 343.9 350.15 345.3 349.55 346.8 347.75 348.35 346 349.3 343.5 350.25 340.95 350.6 338.6 350.9 336.25 350.9 334.4 350.9 329.6 349.1 326.35 347.3 323.05 343.45 323.05 341.95 323.05 340.55 323.5 339.15 324 337.7 325.55 M 340.45 330.8 Q 341.45 329.15 342.9 329.15 344.15 329.15 345 330.45 345.8 331.75 345.8 334.35 345.8 335.5 345.3 338.25 344.85 341 343.8 342.8 342.75 344.6 341.25 344.6 339.9 344.6 339.1 343.25 338.35 341.9 338.35 339.85 338.35 337.95 338.9 335.2 339.4 332.45 340.45 330.8 M 393 323.5 L 387.7 323.5 384.15 350.25 397.75 350.25 398.6 343.7 390.25 343.7 393 323.5 M 369.4 323.5 L 364.5 323.5 362.4 339.1 362.35 339.1 358.2 323.5 353.3 323.5 349.7 350.25 354.6 350.25 356.7 334.7 356.75 334.7 360.9 350.25 370.9 350.25 372.25 345.9 377.7 345.9 377.95 350.25 383.05 350.25 380.4 323.5 374.8 323.5 366.1 348.05 369.4 323.5 M 377.4 340.2 L 373.95 340.2 376.85 330.45 377.4 340.2 Z"/>
<path fill="#09307C" stroke="none" d="M 171.25 419.2 Q 171.3 415.15 169.3 412.85 167.35 410.45 161.2 410.45 L 147.95 410.45 144.25 430.75 157.3 430.75 Q 171.1 430.75 171.25 419.2 M 154.65 372.8 L 151.35 391.55 159.65 391.55 Q 165.05 391.55 168 390.6 170.95 389.65 172.75 386.65 174.6 383.6 174.65 380.55 174.7 376.9 172.75 374.85 170.8 372.8 165 372.8 L 154.65 372.8 M 237.4 159.1 Q 237.35 159.15 237.3 159.25 235 161.9 232.6 163.3 230.8 164.4 227.05 165.65 L 227 165.65 Q 226.5 165.8 226 165.85 L 225.85 165.85 Q 226.5 167.75 226.3 170.6 226.3 170.65 226.3 170.7 226.15 173 225.45 175.1 225.05 178.1 223.7 182.25 222.55 185.65 221.15 188.85 221.25 188.85 221.4 188.85 L 221.45 188.85 Q 222 188.85 222.6 189 L 244.2 194.35 244.25 194.35 244.3 194.4 Q 244.35 194.4 244.45 194.4 248.25 195.55 250.8 196.75 254.55 198.4 257.2 200.7 259.3 202.5 260.5 202.9 260.75 202.75 261 202.5 261.35 201.4 261.85 200.05 261.9 199.9 261.95 199.8 262 199.7 262.05 199.65 264.1 194.85 266.55 190.9 268.9 187.2 272 183.8 273.05 178.6 275.1 173.7 275.1 173.65 275.15 173.65 L 275.15 173.6 Q 277.25 168.5 280.1 164.15 280.9 162.55 281.8 161.15 274.95 160.85 268.35 155.3 268.25 155.25 268.25 155.2 268.2 155.2 268.15 155.15 268.1 155.1 268.05 155.1 262.2 149.45 258.25 148.9 255.05 150 251.05 149.55 247.5 149.15 244.2 147.65 244.15 147.7 244.15 147.75 243.85 148.35 243.8 148.85 243.8 149.4 243.65 149.95 243 152.45 240.65 155.35 240.6 155.45 240.55 155.5 238.45 157.85 237.4 159.1 M 335.05 394.3 L 334.85 394.3 325.5 445.95 351.95 445.95 335.05 394.3 M 325.5 163.85 L 327.05 179.05 Q 330.6 192.6 320.2 205.9 L 297.75 246 297.75 245.9 287.7 264.65 Q 287.6 264.75 287.55 264.95 287.5 264.95 287.45 265 L 269.65 290.9 Q 269.3 291.35 268.9 291.75 263.25 296.65 257.35 303.95 252.15 310.3 245.8 319.85 245.15 320.8 244.1 321.35 L 244.15 321.35 Q 243.1 321.9 241.95 321.9 L 141.55 321.9 Q 139.8 321.9 138.5 320.75 137.2 319.6 136.95 317.9 136.7 316.15 137.65 314.7 L 147 300.35 Q 147.15 298.7 148.4 297.45 149.65 296.25 150.6 294.9 L 150.6 294.85 150.65 294.8 Q 150.7 294.7 150.75 294.65 L 151.05 294.25 151.05 294.2 Q 153.7 289.75 152.55 282.6 152.45 282.2 152.45 281.8 152.85 236.05 142.4 196.2 138.75 191.25 138.05 186.8 136.95 181.65 139.25 175.05 139.3 174.95 139.3 174.85 141.3 169.25 144.7 163.4 147.05 159.25 150.4 154.55 147.95 136.85 146.8 127.6 146.2 123.15 145.8 121.1 145.5 119.75 145.3 119.25 144.95 118.85 144.7 118.4 L 141.35 111.5 Q 141.15 111.05 141 110.55 139.45 103.75 141.15 99.65 L 141.15 99.7 Q 143.35 93.4 150.5 92.9 151 92.85 151.55 92.95 L 151.6 92.95 157.25 93.95 157.3 93.95 Q 157.7 94.05 158.15 94.2 L 158.45 92.1 Q 158.45 92.05 158.45 92 158.5 91.9 158.5 91.8 159.29375 87.930859375 158.9 84.85 158.6 82.95 157.8 82.2 L 157.9 82.25 Q 156.7 81.45 156.15 80.15 154.45 76.2 154.15 75.55 154.15 75.5 154.15 75.45 153.15 72.95 152.7 71 L 152.7 71.05 Q 151.75 67.2 152.35 62.2 L 149.2 57.8 Q 149.2 57.75 149.2 57.7 149.1 57.6 149 57.45 149 57.4 148.95 57.4 145.95 52.05 148.45 48.4 149.35 46.35 153.5 43.65 154.1 43.2 154.85 43 L 154.9 43 Q 162 41.2 164.75 40.95 170.1 40.35 173.8 42.45 173.85 42.45 173.9 42.5 177.4 44.35 180.45 47.95 180.4 46.35 180.45 44.8 L 180.45 44.7 Q 180.7 39.8 181.6 36.15 L 179.35 25.45 Q 178.95 23.6 179.95 21.95 181 20.35 182.85 19.95 L 187.35 18.9 Q 187.4 18.8 187.5 18.7 L 79.75 18.7 79.75 445.95 117 445.95 133.9 352.7 170.3 352.7 Q 176.95 352.7 181.25 353.45 185.5 354.15 189.45 357.25 193.35 360.2 195.55 365.15 197.7 370.1 197.65 376 197.55 383.55 194 390.25 190.35 396.9 182.6 399.85 L 182.6 400.15 Q 195.2 404.95 195.05 421.1 194.9 432.9 186.95 442.55 185.35 444.45 183.55 445.95 L 196.15 445.95 213.1 352.7 237.8 352.7 220.85 445.95 230.35 445.95 247.25 352.7 311.8 352.7 307.95 374.05 267.85 374.05 265.05 389.85 303.65 389.85 299.85 409.95 261.3 409.95 257.7 429.45 301.2 429.45 298.2 445.95 302.55 445.95 319.55 352.7 342.4 352.7 361.15 410.6 361.4 410.6 371.95 352.7 394.95 352.7 377.9 445.95 432.15 445.95 432.15 18.7 204.6 18.7 Q 204.8 18.85 205 19 218.9 27.45 215.05 51.3 215.6 64.85 218.45 79.65 221.85 88.9 220.15 103.35 226.25 99.8 232.85 102.2 L 249.9 106.5 Q 250 106.5 250.1 106.5 256.35 105.85 262 107.65 L 262.05 107.65 Q 270.25 108.85 279.7 114.7 288.4 120.05 296.4 128.3 296.45 128.35 296.5 128.45 300 132 302.4 136.35 302.45 136.45 302.55 136.55 305.85 134.3 308.8 134 314.55 132.85 321 138.4 321.5 138.85 321.9 139.4 L 321.9 139.45 Q 324.05 142.65 324.7 148.05 324.85 149.1 325.35 157.45 325.35 157.5 325.35 157.55 L 325.5 163.6 Q 325.5 163.7 325.5 163.85 M 364.5 323.5 L 369.4 323.5 366.1 348.05 374.8 323.5 380.4 323.5 383.05 350.25 377.95 350.25 377.7 345.9 372.25 345.9 370.9 350.25 360.9 350.25 356.75 334.7 356.7 334.7 354.6 350.25 349.7 350.25 353.3 323.5 358.2 323.5 362.35 339.1 362.4 339.1 364.5 323.5 M 387.7 323.5 L 393 323.5 390.25 343.7 398.6 343.7 397.75 350.25 384.15 350.25 387.7 323.5 M 335.25 329.4 Q 336.25 327.1 337.7 325.55 339.15 324 340.55 323.5 341.95 323.05 343.45 323.05 347.3 323.05 349.1 326.35 350.9 329.6 350.9 334.4 350.9 336.25 350.6 338.6 350.25 340.95 349.3 343.5 348.35 346 346.8 347.75 345.3 349.55 343.9 350.15 342.5 350.75 340.9 350.75 337.3 350.75 335.25 347.8 333.25 344.9 333.25 339.65 333.25 336.95 333.75 334.35 334.25 331.75 335.25 329.4 M 328.85 323.5 L 334.15 323.5 330.55 350.25 325.25 350.25 328.85 323.5 M 154.95 323.5 L 160.25 323.5 156.65 350.25 151.35 350.25 154.95 323.5 M 148.15 323.7 Q 149.05 323.9 149.9 324.75 150.75 325.5 151.25 326.85 151.7 328.2 151.7 329.75 151.7 331.8 150.95 333.6 150.2 335.4 148.55 336.2 L 148.55 336.25 Q 151.25 337.55 151.25 341.9 151.25 345.1 149.6 347.7 147.95 350.25 144.85 350.25 L 134.45 350.25 138.05 323.5 145.8 323.5 Q 147.25 323.5 148.15 323.7 M 218.45 331.35 Q 218.25 327.85 216 327.85 215.1 327.85 214.55 328.5 214.05 329.1 214.05 330 214.05 330.65 214.45 331.25 214.85 331.8 216.35 332.7 218.25 333.85 219.5 334.9 220.7 335.9 221.45 337.6 222.2 339.25 222.2 341.75 222.2 344.05 221.35 346.1 220.55 348.1 219 349.45 217.45 350.75 214.6 350.75 210.6 350.75 208.9 348.3 207.25 345.85 207.25 342 L 207.25 341.35 212.15 340.85 Q 212.15 343.35 212.85 344.4 213.5 345.4 214.75 345.4 216 345.4 216.65 344.55 217.3 343.7 217.3 342.6 217.3 341.8 216.9 341.1 216.45 340.4 214.85 339.45 211.15 337.35 210.15 335.55 209.15 333.75 209.15 331.25 209.15 328.95 210 327.05 210.8 325.15 212.35 324.1 213.9 323.05 216.05 323.05 222.9 323.05 223.3 330.9 L 218.45 331.35 M 209.35 323.5 L 208.6 329.25 200.05 329.25 199.5 333.5 207.7 333.5 207 338.9 198.75 338.9 198.05 344.15 207.3 344.15 206.45 350.25 192 350.25 195.6 323.5 209.35 323.5 M 229.2 330.05 L 223.95 330.05 224.85 323.5 240.75 323.5 239.9 330.05 234.45 330.05 231.7 350.25 226.5 350.25 229.2 330.05 M 176 323.5 L 175.25 329.25 166.7 329.25 166.15 333.5 174.35 333.5 173.65 338.9 165.4 338.9 164.7 344.15 173.95 344.15 173.1 350.25 158.65 350.25 162.25 323.5 176 323.5 M 181.1 334.7 L 181.05 334.7 178.95 350.25 174.05 350.25 177.65 323.5 182.55 323.5 186.7 339.1 186.75 339.1 188.85 323.5 193.75 323.5 190.15 350.25 185.25 350.25 181.1 334.7 M 239.8 350.25 L 234.2 350.25 243.7 323.5 249.3 323.5 251.9 349.75 255.4 323.5 265 323.5 Q 267.45 323.5 268.6 325.55 269.75 327.6 269.75 330.5 269.75 333.65 268.55 336 267.35 338.35 264.65 339 266.25 341.05 268.45 350.25 L 262.95 350.25 261.3 343.9 Q 260.35 340.5 259.9 339.95 259.45 339.4 258.75 339.4 L 258.5 339.4 257.05 350.25 246.85 350.25 246.6 345.9 241.1 345.9 239.8 350.25 M 287.3 339.1 L 287.35 339.1 289.45 323.5 294.35 323.5 291.05 348.05 299.8 323.5 305.35 323.5 308 350.25 302.9 350.25 302.65 345.9 297.2 345.9 295.85 350.25 285.85 350.25 281.7 334.7 281.65 334.7 279.55 350.25 274.65 350.25 278.25 323.5 283.15 323.5 287.3 339.1 M 321.2 333 Q 321.2 331.05 320.45 330.1 319.75 329.15 318.85 329.15 317.7 329.15 316.6 330.5 315.5 331.8 314.85 334.6 314.2 337.35 314.2 339.95 314.2 341.95 314.85 343.3 315.55 344.6 316.85 344.6 318.05 344.6 318.85 343.4 319.7 342.2 320.3 339.7 L 325.2 340.9 Q 324.4 345.05 322.25 347.9 320.05 350.75 316.55 350.75 312.95 350.75 311 347.65 309.05 344.55 309.05 339.4 309.05 335.5 310.25 331.55 311.35 327.55 313.55 325.3 315.75 323.05 318.85 323.05 322 323.05 323.85 325.6 325.7 328.1 326 332.3 L 321.2 333.15 321.2 333 M 301.8 330.45 L 298.9 340.2 302.35 340.2 301.8 330.45 M 245.75 330.45 L 245.7 330.45 242.8 340.2 246.3 340.2 245.75 330.45 M 262.55 328.9 L 259.9 328.9 259.15 334.4 260.15 334.4 Q 262.65 334.4 263.35 334 264.1 333.65 264.45 332.8 264.8 331.9 264.8 331.1 264.8 330.1 264.4 329.5 263.95 328.9 262.55 328.9 M 146.8 331 Q 146.8 330 146.4 329.45 146 328.9 144.75 328.9 L 142.5 328.9 141.85 333.95 143.65 333.95 Q 144.8 333.95 145.4 333.7 146.05 333.45 146.45 332.65 146.8 331.8 146.8 331 M 141.2 339.05 L 140.45 344.5 143.25 344.5 Q 146.2 344.5 146.2 341.4 146.2 340.3 145.75 339.7 145.35 339.05 144 339.05 L 141.2 339.05 M 342.9 329.15 Q 341.45 329.15 340.45 330.8 339.4 332.45 338.9 335.2 338.35 337.95 338.35 339.85 338.35 341.9 339.1 343.25 339.9 344.6 341.25 344.6 342.75 344.6 343.8 342.8 344.85 341 345.3 338.25 345.8 335.5 345.8 334.35 345.8 331.75 345 330.45 344.15 329.15 342.9 329.15 M 373.95 340.2 L 377.4 340.2 376.85 330.45 373.95 340.2 Z"/>
<path fill="#FDB818" stroke="none" d="M 316.75 143 Q 312.95 139.85 309.7 140.2 306.5 140.8 302.4 144.9 302.7 147 302.1 148.75 L 302.1 148.7 Q 301.55 150.35 300.1 151.85 300.6 155.95 302.35 159.1 L 302.35 159.15 Q 304 162.15 307.05 164.7 314.55 169.95 318.2 166.6 L 319.2 163.7 319.05 157.8 Q 318.6 149.8 318.5 148.8 318 145.2 316.75 143 M 163.6 108.1 Q 163.6 108.05 163.6 108 163 105.75 162.5 104.75 L 162.55 104.75 Q 161.9 103.55 160.85 102.65 160.75 102.6 160.75 102.55 160.05 102.05 158.6 101.35 L 158.6 101.3 Q 157.85 100.95 155.95 100.1 L 150.65 99.15 Q 147.9 99.35 147.05 101.8 146.1 104.5 147.1 108.95 L 150.25 115.4 Q 151.2 116.5 151.9 119.8 152.4 122.05 153.05 126.85 154.05 135.3 156.25 151 L 159.05 143.25 Q 159.05 143.2 159.1 143.1 L 166.55 127.75 Q 166.85 117.6 163.6 108.1 M 170.85 48 Q 168.6 46.85 165.4 47.15 162.95 47.4 156.7 49 154.55 50.5 153.9 51.45 153.5 52.6 154.4 54.25 L 158.55 60.15 Q 158.95 60.7 158.8 61.35 158 66.1 158.8 69.6 159.15 71.1 159.95 73.1 L 160 73.15 Q 160.2 73.7 161.7 77.2 164.35 79.1 165.1 83.9 165.65 88 164.65 93.1 L 163.5 100.65 Q 164.7 101.8 165.4 103.3 166.05 104.55 166.7 107.15 169.05 114.1 169.65 121.4 L 174.3 111.8 Q 181.6 94.15 182.25 71.15 L 180.35 60.05 Q 178.4 55.45 175.85 52.3 173.5 49.4 170.85 48 M 191.45 23.9 Q 191.1 24.45 190.45 24.65 L 185.8 25.7 187.95 35.9 Q 188 36.3 187.9 36.65 186.95 40.1 186.75 44.95 186.6 48.55 186.9 52.25 187.35 54.3 187.25 57.4 187.2 61.15 187.25 61.95 187.45 64.45 187.2 66.2 186.85 68.9 185.45 71.45 184.75 95 177.25 113.1 L 177.25 113.15 169.7 128.7 Q 169.65 128.85 169.55 128.95 L 162 144.5 158.3 154.75 Q 158.2 155.1 157.95 155.35 L 156.55 156.75 Q 152.7 162.05 150.15 166.5 147.05 171.85 145.25 176.95 143.5 181.85 144.2 185.65 144.85 189.2 147.95 193.15 148.15 193.45 148.25 193.75 159.15 234.65 158.75 281.75 160.3 291.5 156.35 297.6 L 156.35 297.65 144.55 315.6 241.1 315.6 Q 247.35 306.3 252.45 300 258.65 292.3 264.6 287.15 L 282.25 261.5 314.85 202.55 Q 314.9 202.45 315.05 202.35 323.75 191.4 320.9 180.35 320.9 180.2 320.9 180.1 L 319.8 169.6 Q 314.7 174.05 305.1 167.3 305.1 167.25 305 167.25 301.45 164.25 299.5 160.7 297.9 157.85 297.25 154.35 296.8 154.65 296.4 154.85 292.5 157.5 289.85 160.7 287.45 163.55 285.6 167.25 285.6 167.3 285.5 167.4 282.85 171.35 280.95 176.05 278.85 181 277.9 186.3 277.8 186.75 277.5 187.1 274.25 190.5 271.85 194.3 269.6 197.9 267.7 202.35 267.1 204 266.75 205.2 266.75 205.35 266.7 205.5 L 266.65 205.85 Q 266.45 206.5 265.9 206.85 265.6 207 265.35 207.05 262.95 209.15 261.2 209.25 258.05 209.7 253.1 205.5 251.1 203.75 248.2 202.45 246 201.45 242.65 200.45 L 221.35 195.15 Q 218.95 195.15 217.25 194.85 213.55 194.85 213.05 192.95 212 191.4 214.3 188.55 214.8 187.55 215.35 186.4 216.65 183.45 217.7 180.3 218.95 176.5 219.3 173.85 219.35 173.65 219.4 173.55 219.9 171.95 220.05 170.2 220.15 168.55 219.75 167.55 219.65 167.4 219.65 167.25 219.1 164.55 219.75 162.85 220.6 160.4 223.3 159.8 223.4 159.75 223.5 159.75 L 225.25 159.6 Q 228.05 158.65 229.45 157.85 231.05 156.9 232.65 155.05 L 232.65 155 Q 233.7 153.75 235.75 151.45 235.8 151.4 235.8 151.35 237.1 149.75 237.55 148.4 237.65 146.75 238.55 144.9 239.6 142.8 241.25 141.65 L 241.2 141.65 Q 241.65 141.3 242 141.15 243.5 139.95 245.95 141.55 248.75 142.95 251.75 143.3 254.65 143.6 256.95 142.75 257.15 142.6 257.45 142.6 263.55 142.05 272.4 150.5 279.65 156.5 287.15 154 287.2 153.95 287.3 153.95 287.55 153.85 289.4 154 291.15 153.8 293.45 152.6 293.55 152.55 293.65 152.5 294.2 152.3 294.7 152.1 295.1 151.8 295.9 151.1 296.85 150.25 297.5 149.85 298.6 148.8 299.05 147.65 299.45 146.4 299.1 144.85 299.05 144.75 299.05 144.7 298.45 142.2 296.9 139.35 294.9 135.8 292 132.8 284.55 125.05 276.4 120.05 268.25 115 261.1 113.85 L 260.6 113.8 Q 260.45 113.75 260.3 113.75 255.65 112.15 250.4 112.8 250.2 112.8 250.05 112.8 L 248.8 112.7 Q 248.65 112.7 248.55 112.65 L 231.1 108.25 Q 231 108.2 230.95 108.2 226.5 106.55 222.5 109.25 L 213.9 118.6 185.7 152.85 177 163.95 Q 175 167.35 174.9 171.25 174.9 171.45 174.8 171.65 L 173 177.35 170.15 195.9 Q 170.05 196.55 169.5 196.95 168.95 197.3 168.3 197.2 167.65 197.1 167.25 196.55 166.85 196 166.95 195.35 L 169.85 176.7 Q 169.85 176.6 169.9 176.45 L 171.65 170.9 Q 171.85 166.3 174.25 162.2 174.25 162.1 174.35 162 L 183.15 150.85 Q 183.2 150.85 183.2 150.8 L 211.25 116.75 Q 216.9 93.9 212.45 81.45 212.4 81.35 212.4 81.25 209.3 65.5 208.75 51.05 208.75 50.9 208.8 50.7 212.1 31.15 201.45 24.2 201.35 24.15 201.3 24.1 198 21.5 195.4 21.45 L 195.35 21.45 Q 193 21.45 191.45 23.9 Z"/>
<path fill="#021787" stroke="none" d="M 238.25 153.5 Q 236.15 155.85 235.1 157.1 233.1 159.45 231.05 160.65 229.45 161.65 226.1 162.75 225.9 162.8 225.75 162.8 L 223.95 162.95 Q 223.1 163.2 222.85 163.95 L 222.8 163.95 Q 222.5 164.95 222.8 166.5 223.4 168 223.3 170.45 223.1 172.55 222.5 174.4 222.1 177.3 220.8 181.3 219.7 184.6 218.3 187.75 217.65 189.1 217.1 190.2 217 190.35 216.9 190.45 216.15 191.35 216 191.65 216.25 191.65 217.4 191.65 217.55 191.65 217.7 191.65 219.25 191.95 221.45 191.9 221.7 191.9 221.9 191.95 L 243.5 197.3 Q 243.55 197.3 243.55 197.35 247.15 198.4 249.55 199.5 252.85 201 255.25 203 258.75 206.05 260.9 206.05 262 205.8 263.7 204.1 264.05 202.85 264.7 201.1 L 264.75 201.05 Q 266.7 196.35 269.15 192.55 271.55 188.7 274.8 185.2 275.8 179.85 277.95 174.8 279.95 169.85 282.75 165.7 284.75 161.7 287.35 158.6 287.95 157.85 288.65 157.2 288.15 157.1 288.05 157.1 279 160.2 270.25 152.95 270.2 152.9 270.15 152.9 262.8 145.8 257.85 145.85 255 146.9 251.4 146.5 247.7 146.1 244.3 144.35 244.25 144.3 244.2 144.25 243.8 144 243.7 143.9 243.55 144 243.4 144.05 243.3 144.1 243.2 144.2 243.15 144.2 243.15 144.25 242.15 145 241.45 146.35 240.8 147.6 240.75 148.75 240.75 148.95 240.7 149.15 240.15 151.15 238.3 153.45 L 238.25 153.5 M 237.3 159.25 Q 237.35 159.15 237.4 159.1 238.45 157.85 240.55 155.5 240.6 155.45 240.65 155.35 243 152.45 243.65 149.95 243.8 149.4 243.8 148.85 243.85 148.35 244.15 147.75 244.15 147.7 244.2 147.65 247.5 149.15 251.05 149.55 255.05 150 258.25 148.9 262.2 149.45 268.05 155.1 268.1 155.1 268.15 155.15 268.2 155.2 268.25 155.2 268.25 155.25 268.35 155.3 274.95 160.85 281.8 161.15 280.9 162.55 280.1 164.15 277.25 168.5 275.15 173.6 L 275.15 173.65 Q 275.1 173.65 275.1 173.7 273.05 178.6 272 183.8 268.9 187.2 266.55 190.9 264.1 194.85 262.05 199.65 262 199.7 261.95 199.8 261.9 199.9 261.85 200.05 261.35 201.4 261 202.5 260.75 202.75 260.5 202.9 259.3 202.5 257.2 200.7 254.55 198.4 250.8 196.75 248.25 195.55 244.45 194.4 244.35 194.4 244.3 194.4 L 244.25 194.35 244.2 194.35 222.6 189 Q 222 188.85 221.45 188.85 L 221.4 188.85 Q 221.25 188.85 221.15 188.85 222.55 185.65 223.7 182.25 225.05 178.1 225.45 175.1 226.15 173 226.3 170.7 226.3 170.65 226.3 170.6 226.5 167.75 225.85 165.85 L 226 165.85 Q 226.5 165.8 227 165.65 L 227.05 165.65 Q 230.8 164.4 232.6 163.3 235 161.9 237.3 159.25 M 327.05 179.05 L 325.5 163.85 Q 325.5 163.7 325.5 163.6 L 325.35 157.55 Q 325.35 157.5 325.35 157.45 324.85 149.1 324.7 148.05 324.05 142.65 321.9 139.45 L 321.9 139.4 Q 321.5 138.85 321 138.4 314.55 132.85 308.8 134 305.85 134.3 302.55 136.55 302.45 136.45 302.4 136.35 300 132 296.5 128.45 296.45 128.35 296.4 128.3 288.4 120.05 279.7 114.7 270.25 108.85 262.05 107.65 L 262 107.65 Q 256.35 105.85 250.1 106.5 250 106.5 249.9 106.5 L 232.85 102.2 Q 226.25 99.8 220.15 103.35 221.85 88.9 218.45 79.65 215.6 64.85 215.05 51.3 218.9 27.45 205 19 204.8 18.85 204.6 18.7 L 198.35 18.7 Q 200.65 19.5 203.3 21.55 215.65 29.25 212 51.1 212.55 65.15 215.55 80.5 219.75 92 215.65 111.95 L 220.2 106.95 Q 220.35 106.85 220.5 106.75 225.95 102.9 232 105.1 L 249.2 109.5 250.15 109.55 Q 256 108.85 261.2 110.6 L 261.6 110.65 Q 269.3 111.85 278.1 117.25 286.55 122.5 294.35 130.55 297.55 133.85 299.75 137.8 300.75 139.65 301.4 141.35 305.65 137.45 309.2 137 L 309.25 137 Q 313.8 136.2 319 140.7 319.2 140.85 319.35 141.05 321.1 143.85 321.7 148.4 L 321.7 148.45 Q 321.85 149.45 322.3 157.6 L 322.45 163.8 Q 322.45 163.9 322.5 163.95 L 324.1 179.6 Q 327.3 192 317.65 204.25 L 285.05 263.15 Q 285 263.2 284.95 263.3 L 267.2 289.15 Q 267.05 289.3 266.9 289.45 261.05 294.5 254.95 302.05 249.75 308.45 243.3 318.15 243.05 318.45 242.7 318.65 242.35 318.85 241.95 318.85 L 141.55 318.85 Q 140.95 318.85 140.5 318.45 140.05 318.05 139.95 317.45 139.85 316.85 140.2 316.35 L 150.1 301.2 Q 150.05 301 150.05 300.75 150.05 300.1 150.5 299.65 152 298.2 153.15 296.55 153.2 296.5 153.2 296.45 L 153.6 295.85 153.65 295.85 Q 156.9 290.55 155.5 282.1 155.5 282 155.5 281.85 155.9 235.35 145.2 194.85 141.75 190.3 141 186.25 140.1 181.7 142.2 175.9 L 142.2 175.85 Q 144.1 170.55 147.35 164.9 149.85 160.5 153.6 155.3 151 136.75 149.8 127.25 149.2 122.6 148.75 120.45 148.25 118.15 147.7 117.4 147.5 117.2 147.4 117 L 144.1 110.2 Q 144 110.05 144 109.85 142.7 104.15 144 100.7 145.6 96.25 150.7 95.9 150.85 95.9 151.05 95.95 L 156.7 96.95 Q 156.9 97 157.1 97.05 159.25 98 160 98.4 160.3 98.5 160.5 98.65 L 161.45 92.5 Q 161.45 92.45 161.5 92.45 162.4 87.95 161.9 84.4 161.35 80.95 159.55 79.7 159.15 79.4 158.95 78.95 157.2 74.95 156.95 74.35 L 156.95 74.3 Q 156.05 72.05 155.65 70.35 154.75 66.55 155.5 61.45 L 151.7 56 Q 151.65 55.95 151.6 55.9 149.6 52.3 151.1 49.9 151.85 48.4 155.15 46.2 155.4 46 155.65 45.95 162.45 44.2 165.05 43.95 169.35 43.5 172.35 45.1 175.6 46.8 178.4 50.25 181.3 53.8 183.4 59 183.45 59.15 183.5 59.35 L 184 62.2 Q 183.95 61.35 184.05 57.35 184.1 54.6 183.7 52.85 183.65 52.75 183.65 52.6 183.35 48.65 183.5 44.8 183.75 39.85 184.7 36.2 L 182.3 24.8 Q 182.15 24.15 182.55 23.6 182.9 23.05 183.55 22.9 L 189.1 21.6 Q 190.55 19.5 192.55 18.7 L 187.5 18.7 Q 187.4 18.8 187.35 18.9 L 182.85 19.95 Q 181 20.35 179.95 21.95 178.95 23.6 179.35 25.45 L 181.6 36.15 Q 180.7 39.8 180.45 44.7 L 180.45 44.8 Q 180.4 46.35 180.45 47.95 177.4 44.35 173.9 42.5 173.85 42.45 173.8 42.45 170.1 40.35 164.75 40.95 162 41.2 154.9 43 L 154.85 43 Q 154.1 43.2 153.5 43.65 149.35 46.35 148.45 48.4 145.95 52.05 148.95 57.4 149 57.4 149 57.45 149.1 57.6 149.2 57.7 149.2 57.75 149.2 57.8 L 152.35 62.2 Q 151.75 67.2 152.7 71.05 L 152.7 71 Q 153.15 72.95 154.15 75.45 154.15 75.5 154.15 75.55 154.45 76.2 156.15 80.15 156.7 81.45 157.9 82.25 L 157.8 82.2 Q 158.6 82.95 158.9 84.85 159.29375 87.930859375 158.5 91.8 158.5 91.9 158.45 92 158.45 92.05 158.45 92.1 L 158.15 94.2 Q 157.7 94.05 157.3 93.95 L 157.25 93.95 151.6 92.95 151.55 92.95 Q 151 92.85 150.5 92.9 143.35 93.4 141.15 99.7 L 141.15 99.65 Q 139.45 103.75 141 110.55 141.15 111.05 141.35 111.5 L 144.7 118.4 Q 144.95 118.85 145.3 119.25 145.5 119.75 145.8 121.1 146.2 123.15 146.8 127.6 147.95 136.85 150.4 154.55 147.05 159.25 144.7 163.4 141.3 169.25 139.3 174.85 139.3 174.95 139.25 175.05 136.95 181.65 138.05 186.8 138.75 191.25 142.4 196.2 152.85 236.05 152.45 281.8 152.45 282.2 152.55 282.6 153.7 289.75 151.05 294.2 L 151.05 294.25 150.75 294.65 Q 150.7 294.7 150.65 294.8 L 150.6 294.85 150.6 294.9 Q 149.65 296.25 148.4 297.45 147.15 298.7 147 300.35 L 137.65 314.7 Q 136.7 316.15 136.95 317.9 137.2 319.6 138.5 320.75 139.8 321.9 141.55 321.9 L 241.95 321.9 Q 243.1 321.9 244.15 321.35 L 244.1 321.35 Q 245.15 320.8 245.8 319.85 252.15 310.3 257.35 303.95 263.25 296.65 268.9 291.75 269.3 291.35 269.65 290.9 L 287.45 265 Q 287.5 264.95 287.55 264.95 287.6 264.75 287.7 264.65 L 297.75 245.9 297.75 246 320.2 205.9 Q 330.6 192.6 327.05 179.05 Z"/>
</g>
</defs>
<g transform="matrix(1,0,0,1,0,0)">
<use xlink:href="#l1"/>
</g>
</svg>
