<svg xmlns="http://www.w3.org/2000/svg" xmlns:xlink="http://www.w3.org/1999/xlink" width="100%" height="100%" viewBox="0 0 512 512">
<!-- Vectorization by Rodrigo Polo https://github.com/rodrigopolo/logotipos-politicos -->
<defs>
<g id="l5">
<path fill="#000" stroke="none" d=" M 469.5 20.9 Q 459.95 11.2 446.3 11.25 L 65.75 11.25 Q 52.1 11.25 42.5 20.9 32.8 30.5 32.85 44.1 L 32.85 467.9 Q 32.8 481.45 42.5 491 L 42.5 491.05 Q 52.1 500.75 65.75 500.75 L 446.3 500.75 Q 459.9 500.7 469.5 491.05 469.55 491.05 469.55 491 479.2 481.4 479.2 467.9 L 479.2 44.1 Q 479.2 30.5 469.55 20.9 L 469.5 20.9 Z"/>
</g>
<g id="l4">
<path fill="#FFD138" stroke="none" d=" M 470.45 44.1 Q 470.45 34.15 463.35 27.1 L 463.35 27.05 Q 456.25 19.95 446.25 20 L 65.75 20 Q 55.75 19.95 48.65 27.05 L 48.65 27.1 Q 41.55 34.15 41.55 44.1 L 41.55 357 470.45 357 470.45 44.1 Z"/>
</g>
<g id="Layer3_0_FILL">
<path fill="#D61E26" stroke="none" d=" M 436.95 379.2 L 441.15 379.2 450.7 379.2 462.2 379.2 470.5 379.2 470.5 363 470.5 359.7 470.5 357 41.6 357 41.6 379.2 436.95 379.2 Z"/>
</g>
<g id="Layer2_0_FILL">
<path fill="#000" stroke="none" d=" M 470.45 80.2 L 470.45 75.25 Q 452.05 90.1 425.25 108.35 416.8 105.05 406.6 101.95 L 406.5 101.95 392 98.15 392.1 98.15 Q 379.75 94.4 363.45 92.35 L 363.4 92.35 349.65 91.15 Q 341.8 89.75 324.95 89.6 L 310.2 89.7 Q 306.2 88.35 302.2 84.7 L 302.4 84.8 298.8 80.85 Q 298.1 79.2 298.8 75.75 L 299.4 74 308.2 64.3 Q 319.55 51.55 326.3 42.35 L 326.2 42.45 343.85 21.15 343.8 21.35 Q 344.45 20.65 345.05 20 L 338.65 20 322.5 39.5 322.4 39.6 Q 322.2 39.9 322.1 40.1 321.8 40.4 321.6 40.75 321.4 40.85 321.3 41.15 L 312.8 51.65 Q 309.85 55.1 306.6 58.9 L 306.1 56.95 Q 305.8 55.95 305.3 55.1 300.8 46.45 289.5 48.1 289 48.1 288.5 48.3 L 285.5 49.2 Q 282.1 47.65 277.5 48.4 276.9 48.4 276.5 48.6 L 273.1 49.5 Q 272.7 49.6 272.4 49.7 L 263.5 53.3 Q 263.4 53.3 263.3 53.4 254.65 57.05 251.1 67.85 249.4 72.75 249.3 77.05 248.5 84.85 246.7 91.85 243.9 97.05 241.6 105.85 240.35 110.25 239.75 113.65 237 121.95 233.1 127.65 L 230.55 130.55 Q 229.65 131.15 228.7 131.65 L 224.45 133.45 Q 215.05 133.8 205.15 136.35 205.05 136.35 205.05 136.45 L 196.9 138.9 196.85 138.9 Q 193.7 139.95 189.65 140.95 L 189.55 140.95 186.25 141.75 Q 176.35 141.95 161.65 145.45 L 161.55 145.45 148.85 148.8 Q 139.55 150.55 129.45 150.95 L 120.85 150.95 Q 120.75 150.95 120.65 150.95 113.85 151.45 108.95 158.05 L 108.95 158.15 Q 106.55 161.15 105.45 164 105.35 164.1 105.35 164.35 103.4 172.05 97.45 177.25 L 97.35 177.35 Q 94.55 179.85 92.15 180.85 92.05 180.85 91.95 180.95 85.05 184.3 83.3 189.75 82.15 192.7 82.65 194.95 82.65 195.05 82.65 195.15 83.5 198.5 86.05 200.55 65.45 206.3 41.55 214.95 L 41.55 220.05 Q 70.1 209.6 94.15 203.3 95.55 203.3 96.95 203.1 105.05 202.4 112.05 200.05 112.55 200.05 113.05 199.85 126.75 194 148.75 184.65 166.45 176.85 180.45 169.55 206.55 156.85 235.85 138.55 236.1 138.35 236.4 138.05 L 240.45 133.55 Q 240.55 133.35 240.65 133.25 245.55 126.35 248.8 116.05 248.8 115.85 248.9 115.65 249.4 112.45 250.65 108.35 252.8 100.15 255.45 95.65 255.55 95.25 255.65 94.95 257.8 86.75 258.7 77.55 258.7 77.35 258.7 77.15 258.6 74 259.65 70.35 261.5 63.5 266.5 61.15 L 275.05 57.35 278.9 56.25 Q 280.05 56.05 280.9 55.95 L 283.2 56.25 284.3 55.95 Q 284.7 56.15 285.1 56.15 L 290.7 56.55 Q 294.85 57.45 297 59.7 L 297.7 63.2 Q 297.9 66.35 295.8 67.95 294.95 68.6 294.7 69.5 L 293.4 74.2 Q 293.4 74.3 293.4 74.4 292 80.95 294.2 84.1 294.3 84.3 294.5 84.6 L 298.4 88.8 Q 303.6 93.7 308.9 95.15 309.3 95.25 309.75 95.25 L 324.95 95.15 Q 341.4 95.35 348.85 96.75 348.95 96.75 349.15 96.75 L 362.8 97.95 Q 378.55 99.95 390.45 103.55 L 390.55 103.55 405.05 107.35 404.95 107.35 Q 421.4 112.25 433.15 117.75 L 436.5 120.75 Q 438.45 124.75 435.85 130.65 434.05 134.25 429.65 136.65 L 429.55 136.65 425.05 138.35 Q 421.05 139.25 415.65 138.8 L 405.65 138.15 Q 397.1 137.35 388.55 134.85 387.8 134.65 387.2 134.85 385.45 132.85 383.25 130.75 379.25 126.75 375.45 124.45 374.45 123.9 373.35 124.15 372.2 124.45 371.6 125.45 371 126.35 371.3 127.55 371.6 128.65 372.6 129.25 375.9 131.35 379.25 134.75 L 379.35 134.85 Q 383.05 138.35 384.95 141.55 385.15 141.85 385.45 142.15 L 390.75 147.15 Q 395.45 152.35 397.1 156.25 L 397.65 161.65 Q 397.4 166.95 393.75 170.25 393.45 170.45 393.25 170.75 392.7 171.55 391.5 172.15 L 391.5 172.25 Q 388.65 173.6 385.25 172.55 L 385.15 172.45 375.75 169.75 375.65 169.75 Q 373.85 169.35 372.2 169.65 372 169.65 371.9 169.65 367.5 170.55 367.5 175.75 L 366.8 182.7 Q 364.55 188.8 357.7 191.45 357.6 191.45 357.4 191.55 354.55 193 351.5 195.25 344.65 199.85 343.1 203.8 L 343.1 203.9 Q 342.2 205.15 339.65 206.95 333.2 211.45 321.6 214.3 L 321.7 214.3 Q 317.2 215.25 313.1 218 313 218.1 312.9 218.2 310.7 220.05 307.3 221.25 299.95 223.4 292.7 219.5 291.9 219 291.1 219.1 289 219.3 285.05 220.75 277.5 223.2 268.9 228.7 261.2 233.9 252.3 237.9 L 251.6 232.7 251.6 232.6 Q 250.65 224.95 248.8 216.85 L 248.8 216.75 247.2 210.25 247.2 210.35 Q 245.25 200.45 235.65 198.1 235.35 198 235.15 198 L 227.4 197.7 Q 227.1 197.7 226.8 197.8 218.3 199.5 215.55 207.7 214.55 210.65 214.35 213.4 211.7 212.8 208.8 213.1 L 208.7 213.1 Q 202.7 213.8 198.7 218.8 L 198.6 218.9 Q 196.65 221.45 195.95 223.7 194.15 228.1 193.7 235.75 193.5 239.4 193.6 242.2 193.9 249.3 193.1 255.1 L 193.2 255 Q 192 262 192 268.1 189.45 269.8 186.25 271.8 185.35 265.55 181.15 261.9 180.85 261.7 180.65 261.6 L 175.35 258.9 Q 174.95 258.7 174.65 258.7 163.95 256.9 158.3 265.55 155.55 269.6 154.95 274.1 153.1 285.1 150.45 297.5 150.45 297.7 150.35 298 L 141.65 303 Q 140.25 302.1 138.45 301.5 138.1 301.4 137.95 301.4 L 132.45 300.35 Q 132.25 300.25 132.15 300.25 120.35 299.6 113.05 307.2 L 113.05 307.1 Q 109.35 310.8 108.2 314.9 L 108.2 314.6 Q 105.35 321.3 108.6 326.7 102.55 330.55 73 349.85 66.75 353.75 61.55 357 L 70.85 357 Q 73.15 355.55 75.55 354 L 75.55 353.9 109.85 331.6 Q 110.95 330.85 111.55 330.45 114.15 333 117.45 334.2 117.55 334.2 117.55 334.3 L 127.15 337.4 Q 127.25 337.4 127.45 337.4 135.05 339.4 143.3 333.4 143.45 333.3 143.55 333.2 L 149.25 327.8 Q 149.65 327.4 149.85 327 152.65 321.5 155.25 318.1 L 155.05 318.3 155.95 317.3 Q 156.75 317.9 157.65 318.4 159.75 319.5 161.55 319.8 164.35 320.65 166.85 321.1 L 166.65 321.1 Q 175.45 323.3 181.25 318.4 181.45 318.2 181.65 318 L 185.15 313.5 Q 185.35 313.2 185.55 312.9 189.75 302.2 194.15 293.5 L 195.15 291.8 Q 197.3 296.2 201.45 298.4 206.15 301.1 211.15 300.2 222 299.4 226.7 290.9 226.8 290.6 226.9 290.4 L 228.5 285.1 Q 242.1 285.7 254 276.2 260.05 271.3 263.4 266.2 268.5 263.8 271.9 259.9 271.9 259.8 272 259.7 L 274.1 256.6 Q 286.1 246.05 292.8 229.3 301.4 232.5 309.95 229.7 315.15 228.1 318.4 225.35 320.8 223.6 323.5 223.1 323.5 223 323.7 223 337.4 219.7 344.85 214.3 349.95 210.65 351.2 207.8 351.2 207.6 351.3 207.5 352.5 205.45 356.6 202.6 356.7 202.5 356.8 202.5 359.05 200.85 361.2 199.75 372.3 195.35 375.45 185.05 375.65 184.4 375.75 183.8 L 376.2 179.2 382.7 181.15 Q 389.75 183.4 395.65 180.15 L 395.75 180.15 Q 398.75 178.5 400.25 176.45 406.4 170.85 406.7 161.65 406.7 161.25 406.7 160.85 L 405.95 154.95 Q 405.85 154.15 405.65 153.4 404.65 150.65 402.4 147.25 403.55 147.35 404.85 147.55 L 415.05 148.25 Q 422.1 148.7 427.35 147.55 427.75 147.35 428.15 147.25 L 433.15 145.35 Q 433.55 145.15 433.95 145.05 441.45 141.05 444.35 134.55 449.55 123.05 444.25 115.45 443.75 114.65 443.05 114.1 L 439.05 110.45 Q 438.35 109.85 437.45 109.45 435.85 108.8 434.35 108.05 438.85 104.95 443.05 101.95 L 470.45 80.2 M 206.55 141.75 Q 215.65 139.45 224.2 139.15 199.95 153.7 177.9 164.55 L 177.8 164.55 Q 164.05 171.85 146.55 179.55 140.75 182.05 135.55 184.2 141.05 177.9 138.65 170.05 138.55 169.75 138.45 169.55 L 135.15 163.5 Q 134.55 162.55 133.45 162.15 132.35 161.85 131.35 162.45 130.35 162.95 129.95 164 129.65 165.15 130.25 166.15 L 133.35 171.75 Q 134.75 177.25 130.45 181.45 L 130.45 181.35 122.05 188.9 Q 111.15 196.25 96.35 197.5 L 96.25 197.5 Q 94.35 197.7 92.35 197.35 89 196.55 88.2 193.9 88.1 192.9 88.6 191.65 89.85 188.2 94.25 186.05 97.45 184.75 101.15 181.45 108.3 175.15 110.65 166.05 110.65 165.95 110.75 165.95 110.75 165.85 110.75 165.75 111.65 163.6 113.4 161.45 L 113.5 161.45 Q 116.65 157.05 121.15 156.55 L 129.55 156.55 Q 140.25 156.15 150.05 154.35 150.15 154.25 150.35 154.25 L 163 150.85 162.9 150.85 Q 177.15 147.45 186.65 147.35 186.95 147.35 187.3 147.25 L 191.05 146.35 190.95 146.45 Q 195.35 145.35 198.6 144.25 L 206.55 141.75 M 155.05 306.9 Q 154.25 302.6 155.15 298.5 157.9 285.9 159.65 274.8 160.15 271.4 162.35 268.2 L 162.35 268.1 Q 166.25 262.3 173.5 263.3 L 178.1 265.75 Q 182.2 269.6 181.45 277.3 L 181.15 282.2 Q 180.75 287.4 179.75 291.2 179.45 292.1 179.95 293 180.45 293.9 181.45 294.1 182.3 294.4 183.2 293.9 184.05 293.4 184.35 292.5 185.55 288.3 185.95 282.5 L 186.25 277.8 186.25 277.7 Q 186.25 277.5 186.35 277.3 189.55 275.3 192.2 273.6 192.4 275.2 192.6 276.4 192.4 281.4 193.1 285.4 L 189.95 291.1 189.95 291.2 Q 185.35 300 181.05 311 L 178 314.8 Q 173.95 317.9 167.8 316.4 167.7 316.3 167.6 316.4 165.25 316 162.55 315.05 162.35 314.95 162.25 314.95 161.15 314.9 159.85 314.2 158.65 313.5 157.7 312.7 157.45 312.2 157.05 311.9 L 156.95 311.8 Q 156.35 311.1 155.95 310.25 L 155.95 310.15 Q 155.45 308.9 155.05 306.9 M 149.95 303.8 Q 149.95 305.8 150.35 307.9 150.85 310.55 151.55 312.2 L 151.65 312.3 Q 151.85 312.7 152.15 313.2 L 150.95 314.5 Q 150.75 314.6 150.75 314.7 147.9 318.3 145.15 324 L 139.85 329 Q 134.15 333.1 128.95 332.1 L 119.35 329 Q 116.85 328 114.85 325.85 111.15 322 113.4 316.8 113.4 316.7 113.5 316.6 114.35 313.8 117.05 311.1 122.75 305.35 131.75 305.9 L 136.65 306.8 Q 140.35 308.2 141.05 311.4 141.15 312.5 142.05 313.3 142.95 313.9 144.15 313.8 145.25 313.6 146.05 312.7 146.65 311.8 146.55 310.55 146.25 308.3 145.25 306.6 L 149.95 303.8 M 286.8 226.05 Q 288.1 225.65 289.1 225.35 282.8 242.6 270.7 253.2 270.4 253.4 270.25 253.7 L 268.2 256.8 268 257 Q 265.25 260.25 260.8 262.1 260.15 262.4 259.75 263 256.6 267.8 251 272.5 240.75 280.7 229 280.3 L 228.8 277.6 229.45 262.2 Q 230.45 252 228.9 239.1 L 228.9 239 227.1 228.8 Q 227 221.65 221.5 216.95 220.35 215.95 219.1 215.25 219.1 215.15 219.1 214.95 218.9 212.2 220.05 209.3 221.9 203.8 227.5 202.5 L 234.65 202.8 Q 241.1 204.5 242.5 211.35 L 242.5 211.45 244.1 217.9 Q 245.85 225.75 246.8 233.2 L 247.5 238.9 Q 248.1 246.05 248.2 253.7 L 247.8 258.6 Q 247.1 263.6 245.85 266.2 245.35 267 245.65 268 245.9 268.9 246.8 269.4 247.6 269.9 248.6 269.6 249.55 269.3 250.05 268.5 251.7 265.45 252.6 259.3 252.6 259.2 252.6 259.1 L 253 254.1 Q 253 254 253 253.9 253 250 252.8 246.35 L 253.8 246.6 Q 257.6 248.3 261 251.9 261.7 252.6 262.7 252.6 263.6 252.6 264.4 252 265.15 251.3 265.15 250.35 265.15 249.3 264.5 248.6 260.55 244.4 256 242.4 264.5 238.4 272 233.3 L 271.9 233.4 Q 279.95 228.4 286.8 226.05 M 209.35 217.9 Q 214.45 217.3 218.4 220.65 222.2 223.8 222.3 228.9 222.3 229 222.4 229.2 L 224.2 239.8 224.1 239.7 Q 225.65 252 224.65 261.7 L 224 277.4 Q 224 277.5 224 277.6 L 224.35 282.2 222.4 288.8 Q 218.8 294.8 210.85 295.35 210.65 295.35 210.55 295.45 207 296.1 203.7 294.2 196.85 290 197.4 276.3 197.4 276 197.4 275.75 197 273.9 196.85 270.75 196.55 263.8 197.9 255.85 L 197.9 255.75 Q 198.7 249.5 198.4 242 198.3 239.4 198.5 236.05 198.9 229.3 200.45 225.45 L 200.45 225.35 Q 201.05 223.6 202.4 221.85 205.25 218.4 209.35 217.9 Z"/>
</g>
<g id="l1">
<path fill="#FFF" stroke="none" d=" M 463.35 27.05 Q 456.3 20 446.3 20 L 345.05 20 Q 344.45 20.65 343.8 21.35 L 343.85 21.15 326.2 42.45 326.3 42.35 Q 319.55 51.55 308.2 64.3 L 299.4 74 298.8 75.75 Q 298.1 79.2 298.8 80.85 L 302.4 84.8 302.2 84.7 Q 306.2 88.35 310.2 89.7 L 324.95 89.6 Q 341.8 89.75 349.65 91.15 L 363.4 92.35 363.45 92.35 Q 379.75 94.4 392.1 98.15 L 392 98.15 406.5 101.95 406.6 101.95 Q 416.8 105.05 425.25 108.35 452.05 90.1 470.45 75.25 L 470.45 44.1 Q 470.4 34.15 463.35 27.1 L 463.35 27.05 M 218.4 220.65 Q 214.45 217.3 209.35 217.9 205.25 218.4 202.4 221.85 201.05 223.6 200.45 225.35 L 200.45 225.45 Q 198.9 229.3 198.5 236.05 198.3 239.4 198.4 242 198.7 249.5 197.9 255.75 L 197.9 255.85 Q 196.55 263.8 196.85 270.75 197 273.9 197.4 275.75 197.4 276 197.4 276.3 196.85 290 203.7 294.2 207 296.1 210.55 295.45 210.65 295.35 210.85 295.35 218.8 294.8 222.4 288.8 L 224.35 282.2 224 277.6 Q 224 277.5 224 277.4 L 224.65 261.7 Q 225.65 252 224.1 239.7 L 224.2 239.8 222.4 229.2 Q 222.3 229 222.3 228.9 222.2 223.8 218.4 220.65 M 289.1 225.35 Q 288.1 225.65 286.8 226.05 279.95 228.4 271.9 233.4 L 272 233.3 Q 264.5 238.4 256 242.4 260.55 244.4 264.5 248.6 265.15 249.3 265.15 250.35 265.15 251.3 264.4 252 263.6 252.6 262.7 252.6 261.7 252.6 261 251.9 257.6 248.3 253.8 246.6 L 252.8 246.35 Q 253 250 253 253.9 253 254 253 254.1 L 252.6 259.1 Q 252.6 259.2 252.6 259.3 251.7 265.45 250.05 268.5 249.55 269.3 248.6 269.6 247.6 269.9 246.8 269.4 245.9 268.9 245.65 268 245.35 267 245.85 266.2 247.1 263.6 247.8 258.6 L 248.2 253.7 Q 248.1 246.05 247.5 238.9 L 246.8 233.2 Q 245.85 225.75 244.1 217.9 L 242.5 211.45 242.5 211.35 Q 241.1 204.5 234.65 202.8 L 227.5 202.5 Q 221.9 203.8 220.05 209.3 218.9 212.2 219.1 214.95 219.1 215.15 219.1 215.25 220.35 215.95 221.5 216.95 227 221.65 227.1 228.8 L 228.9 239 228.9 239.1 Q 230.45 252 229.45 262.2 L 228.8 277.6 229 280.3 Q 240.75 280.7 251 272.5 256.6 267.8 259.75 263 260.15 262.4 260.8 262.1 265.25 260.25 268 257 L 268.2 256.8 270.25 253.7 Q 270.4 253.4 270.7 253.2 282.8 242.6 289.1 225.35 M 150.35 307.9 Q 149.95 305.8 149.95 303.8 L 145.25 306.6 Q 146.25 308.3 146.55 310.55 146.65 311.8 146.05 312.7 145.25 313.6 144.15 313.8 142.95 313.9 142.05 313.3 141.15 312.5 141.05 311.4 140.35 308.2 136.65 306.8 L 131.75 305.9 Q 122.75 305.35 117.05 311.1 114.35 313.8 113.5 316.6 113.4 316.7 113.4 316.8 111.15 322 114.85 325.85 116.85 328 119.35 329 L 128.95 332.1 Q 134.15 333.1 139.85 329 L 145.15 324 Q 147.9 318.3 150.75 314.7 150.75 314.6 150.95 314.5 L 152.15 313.2 Q 151.85 312.7 151.65 312.3 L 151.55 312.2 Q 150.85 310.55 150.35 307.9 M 155.15 298.5 Q 154.25 302.6 155.05 306.9 155.45 308.9 155.95 310.15 L 155.95 310.25 Q 156.35 311.1 156.95 311.8 L 157.05 311.9 Q 157.45 312.2 157.7 312.7 158.65 313.5 159.85 314.2 161.15 314.9 162.25 314.95 162.35 314.95 162.55 315.05 165.25 316 167.6 316.4 167.7 316.3 167.8 316.4 173.95 317.9 178 314.8 L 181.05 311 Q 185.35 300 189.95 291.2 L 189.95 291.1 193.1 285.4 Q 192.4 281.4 192.6 276.4 192.4 275.2 192.2 273.6 189.55 275.3 186.35 277.3 186.25 277.5 186.25 277.7 L 186.25 277.8 185.95 282.5 Q 185.55 288.3 184.35 292.5 184.05 293.4 183.2 293.9 182.3 294.4 181.45 294.1 180.45 293.9 179.95 293 179.45 292.1 179.75 291.2 180.75 287.4 181.15 282.2 L 181.45 277.3 Q 182.2 269.6 178.1 265.75 L 173.5 263.3 Q 166.25 262.3 162.35 268.1 L 162.35 268.2 Q 160.15 271.4 159.65 274.8 157.9 285.9 155.15 298.5 M 224.2 139.15 Q 215.65 139.45 206.55 141.75 L 198.6 144.25 Q 195.35 145.35 190.95 146.45 L 191.05 146.35 187.3 147.25 Q 186.95 147.35 186.65 147.35 177.15 147.45 162.9 150.85 L 163 150.85 150.35 154.25 Q 150.15 154.25 150.05 154.35 140.25 156.15 129.55 156.55 L 121.15 156.55 Q 116.65 157.05 113.5 161.45 L 113.4 161.45 Q 111.65 163.6 110.75 165.75 110.75 165.85 110.75 165.95 110.65 165.95 110.65 166.05 108.3 175.15 101.15 181.45 97.45 184.75 94.25 186.05 89.85 188.2 88.6 191.65 88.1 192.9 88.2 193.9 89 196.55 92.35 197.35 94.35 197.7 96.25 197.5 L 96.35 197.5 Q 111.15 196.25 122.05 188.9 L 130.45 181.35 130.45 181.45 Q 134.75 177.25 133.35 171.75 L 130.25 166.15 Q 129.65 165.15 129.95 164 130.35 162.95 131.35 162.45 132.35 161.85 133.45 162.15 134.55 162.55 135.15 163.5 L 138.45 169.55 Q 138.55 169.75 138.65 170.05 141.05 177.9 135.55 184.2 140.75 182.05 146.55 179.55 164.05 171.85 177.8 164.55 L 177.9 164.55 Q 199.95 153.7 224.2 139.15 M 362.8 97.95 L 349.15 96.75 Q 348.95 96.75 348.85 96.75 341.4 95.35 324.95 95.15 L 309.75 95.25 Q 309.3 95.25 308.9 95.15 303.6 93.7 298.4 88.8 L 294.5 84.6 Q 294.3 84.3 294.2 84.1 292 80.95 293.4 74.4 293.4 74.3 293.4 74.2 L 294.7 69.5 Q 294.95 68.6 295.8 67.95 297.9 66.35 297.7 63.2 L 297 59.7 Q 294.85 57.45 290.7 56.55 L 285.1 56.15 Q 284.7 56.15 284.3 55.95 L 283.2 56.25 280.9 55.95 Q 280.05 56.05 278.9 56.25 L 275.05 57.35 266.5 61.15 Q 261.5 63.5 259.65 70.35 258.6 74 258.7 77.15 258.7 77.35 258.7 77.55 257.8 86.75 255.65 94.95 255.55 95.25 255.45 95.65 252.8 100.15 250.65 108.35 249.4 112.45 248.9 115.65 248.8 115.85 248.8 116.05 245.55 126.35 240.65 133.25 240.55 133.35 240.45 133.55 L 236.4 138.05 Q 236.1 138.35 235.85 138.55 206.55 156.85 180.45 169.55 166.45 176.85 148.75 184.65 126.75 194 113.05 199.85 112.55 200.05 112.05 200.05 105.05 202.4 96.95 203.1 95.55 203.3 94.15 203.3 70.1 209.6 41.55 220.05 L 41.55 359.7 41.6 359.7 41.6 357 61.55 357 Q 66.75 353.75 73 349.85 102.55 330.55 108.6 326.7 105.35 321.3 108.2 314.6 L 108.2 314.9 Q 109.35 310.8 113.05 307.1 L 113.05 307.2 Q 120.35 299.6 132.15 300.25 132.25 300.25 132.45 300.35 L 137.95 301.4 Q 138.1 301.4 138.45 301.5 140.25 302.1 141.65 303 L 150.35 298 Q 150.45 297.7 150.45 297.5 153.1 285.1 154.95 274.1 155.55 269.6 158.3 265.55 163.95 256.9 174.65 258.7 174.95 258.7 175.35 258.9 L 180.65 261.6 Q 180.85 261.7 181.15 261.9 185.35 265.55 186.25 271.8 189.45 269.8 192 268.1 192 262 193.2 255 L 193.1 255.1 Q 193.9 249.3 193.6 242.2 193.5 239.4 193.7 235.75 194.15 228.1 195.95 223.7 196.65 221.45 198.6 218.9 L 198.7 218.8 Q 202.7 213.8 208.7 213.1 L 208.8 213.1 Q 211.7 212.8 214.35 213.4 214.55 210.65 215.55 207.7 218.3 199.5 226.8 197.8 227.1 197.7 227.4 197.7 L 235.15 198 Q 235.35 198 235.65 198.1 245.25 200.45 247.2 210.35 L 247.2 210.25 248.8 216.75 248.8 216.85 Q 250.65 224.95 251.6 232.6 L 251.6 232.7 252.3 237.9 Q 261.2 233.9 268.9 228.7 277.5 223.2 285.05 220.75 289 219.3 291.1 219.1 291.9 219 292.7 219.5 299.95 223.4 307.3 221.25 310.7 220.05 312.9 218.2 313 218.1 313.1 218 317.2 215.25 321.7 214.3 L 321.6 214.3 Q 333.2 211.45 339.65 206.95 342.2 205.15 343.1 203.9 L 343.1 203.8 Q 344.65 199.85 351.5 195.25 354.55 193 357.4 191.55 357.6 191.45 357.7 191.45 364.55 188.8 366.8 182.7 L 367.5 175.75 Q 367.5 170.55 371.9 169.65 372 169.65 372.2 169.65 373.85 169.35 375.65 169.75 L 375.75 169.75 385.15 172.45 385.25 172.55 Q 388.65 173.6 391.5 172.25 L 391.5 172.15 Q 392.7 171.55 393.25 170.75 393.45 170.45 393.75 170.25 397.4 166.95 397.65 161.65 L 397.1 156.25 Q 395.45 152.35 390.75 147.15 L 385.45 142.15 Q 385.15 141.85 384.95 141.55 383.05 138.35 379.35 134.85 L 379.25 134.75 Q 375.9 131.35 372.6 129.25 371.6 128.65 371.3 127.55 371 126.35 371.6 125.45 372.2 124.45 373.35 124.15 374.45 123.9 375.45 124.45 379.25 126.75 383.25 130.75 385.45 132.85 387.2 134.85 387.8 134.65 388.55 134.85 397.1 137.35 405.65 138.15 L 415.65 138.8 Q 421.05 139.25 425.05 138.35 L 429.55 136.65 429.65 136.65 Q 434.05 134.25 435.85 130.65 438.45 124.75 436.5 120.75 L 433.15 117.75 Q 421.4 112.25 404.95 107.35 L 405.05 107.35 390.55 103.55 390.45 103.55 Q 378.55 99.95 362.8 97.95 Z"/>
</g>
<g id="l0">
<path fill="#FFF" stroke="none" d=" M 459.5 425.25 Q 459.5 414.2 448.45 407.7 438.65 401.8 424.55 401.8 L 388.45 401.8 Q 377.05 401.8 367.65 408 357.05 414.95 357.05 425.25 L 357.05 455.25 Q 357.05 466.45 367.15 473.35 376.45 479.65 389.65 479.65 392.85 479.95 396.75 479.95 L 419.25 479.95 Q 422.25 479.95 423.45 479.75 437.35 479.75 447.55 474.05 459.5 467.35 459.5 455.25 L 459.5 425.25 M 416.35 416.75 Q 426.2 416.75 430.7 421.55 434.8 425.65 434.8 433.9 L 434.8 448.2 Q 434.8 456.25 430.5 460.15 426.45 464.15 416.35 464.15 L 396.85 464.15 Q 388.95 464.15 385.15 459.95 381.35 455.65 381.35 448.2 L 381.35 433.4 Q 381.35 425.55 385.15 421.15 388.95 416.75 396.85 416.75 L 416.35 416.75 M 124.15 420.05 Q 127.2 421.55 127.8 424 L 128.95 429.1 152.7 429.1 Q 152.7 422.3 151.9 418.5 150.55 412.7 146.7 409.2 141.9 404.4 132.4 402.6 126.05 401.35 114.55 401.35 L 93.65 401.35 Q 75.95 401.35 66.25 407 53.55 414.3 53.55 431.75 L 53.55 448.5 Q 53.55 464.85 61.55 471.95 71.05 480.25 95.15 480.25 L 112.6 480.25 Q 131.2 480.25 141.2 475.85 153.75 470.25 153.75 457.7 L 153.3 450.45 129.65 450.45 129.65 456.15 Q 129.65 460.55 125.55 462.05 122.4 463.3 115.05 463.3 L 95.65 463.3 Q 85.15 463.3 82.05 460.65 78.35 457.6 78.35 445.95 L 78.35 435.15 Q 78.35 429.55 79.15 426.55 80.05 423.5 82.5 421.35 85.35 419.1 89.75 418.8 94.25 418.5 102.4 418.5 L 106.05 418.5 Q 113.55 418.5 117.7 418.8 121.9 419.1 124.15 420.05 M 258.35 426.05 Q 258.35 412.3 249.45 407.2 240.4 401.9 219.3 401.9 L 161.5 401.9 161.5 479.65 185.2 479.65 185.2 455.65 215.7 455.65 Q 224.15 455.65 228.2 457.7 232.5 459.45 232.5 464.55 L 232.5 479.65 257 479.65 257 462.05 Q 257 454.45 252.1 450.45 247.1 446.35 237.1 446.35 247.5 445.25 253.2 439.15 258.35 433.9 258.35 426.05 M 233.4 429 Q 233.4 435.05 229.5 436.95 225.5 438.9 215.7 438.9 L 185.2 438.9 185.2 419.2 217.1 419.2 Q 228 419.2 231.2 421.65 233.4 423.5 233.4 429 M 291.2 432.4 L 291.2 419.2 348.65 419.2 348.65 401.9 267.7 401.9 267.7 479.65 349.25 479.65 349.25 463.2 291.2 463.2 291.2 447.4 346 447.4 346 432.4 291.2 432.4 Z"/>
</g>
</defs>
<g transform="matrix(1,0,0,1,0,0)">
<use xlink:href="#l5"/>
</g>
<g transform="matrix(1,0,0,1,0,0)">
<use xlink:href="#l4"/>
</g>
<g transform="matrix(1,0,0,1,0,0)">
<use xlink:href="#Layer3_0_FILL"/>
</g>
<g transform="matrix(1,0,0,1,0,0)">
<use xlink:href="#Layer2_0_FILL"/>
</g>
<g transform="matrix(1,0,0,1,0,0)">
<use xlink:href="#l1"/>
</g>
<g transform="matrix(1,0,0,1,0,0)">
<use xlink:href="#l0"/>
</g>
</svg>
