 <svg xmlns="http://www.w3.org/2000/svg" version="1.1" xmlns:xlink="http://www.w3.org/1999/xlink" preserveAspectRatio="none" x="0px" y="0px" width="512px" height="512px" viewBox="0 0 512 512"><defs><g id="l4"><path fill="#21315F" stroke="none" d=" M 353 419.6 Q 354.1 418.35 354.1 417.8 L 353.8 417.1 353 416.75 Q 352.25 416.75 351.15 417.7 349.7 418.95 348.2 421.2 345.05 426 345.05 429.8 345.05 431 345.6 431.95 346.3 433.2 347.8 433.2 349.4 433.2 351.15 431.35 L 353.35 428.55 353.45 430.1 Q 353.8 432.1 354.85 433.1 356.05 434.3 357.55 434.3 358.15 434.3 358.6 433.9 359.05 433.55 359.05 433.05 359.05 432.2 358.4 431.8 L 356.85 430.7 Q 355.8 429.45 355.8 427.6 355.8 425.9 357.2 423.4 359.2 419.75 359.2 418.65 359.2 418.2 358.8 417.8 358.45 417.35 358.05 417.35 357.25 417.35 356.5 418.4 355.65 419.55 355.05 421 354.1 423.7 352.75 425.9 350.05 430.1 348.6 430.1 L 348.05 429.95 347.9 429.25 Q 347.9 427.65 349.3 424.8 350.6 422.45 353 419.6 M 346.25 399.3 Q 348.8 397.45 350.35 397.45 351 397.45 351.5 397.85 351.95 398.25 351.95 398.95 351.95 401.45 348.8 405.7 346.7 408.5 343.35 411.1 342.1 412.2 342.1 412.9 342.1 413.5 342.6 413.85 L 343.5 414.25 Q 345.4 414.25 349.2 410.1 354.2 404.6 354.2 399.5 354.2 397.9 353.25 396.65 352.1 395.05 350.1 395.05 346.45 395.05 341.15 399.45 334.75 404.75 329.9 412.15 324.7 420.1 324.7 426.1 324.7 428.25 325.75 429.95 327.25 432.25 329.65 432.25 331.65 432.25 334.4 430.65 L 337.55 428.6 333.15 437 Q 330.25 443.15 330.25 445.6 330.25 446.25 330.65 446.7 331 447.25 331.75 447.25 332.7 447.25 333.15 446.65 L 333.8 444.8 Q 334.25 443.25 336.1 439 338.15 434.15 340.6 430 L 343.8 425 Q 344.75 423.7 344.75 422.85 344.75 422.1 344.35 421.65 344 421.25 343.5 421.25 342.85 421.25 341.4 422.6 339.75 424.3 336 427 333 429.2 330.95 429.2 329.45 429.2 328.5 427.95 327.85 427 327.85 426 327.85 423.3 329.9 419.15 332.15 414.4 335.5 409.95 340.8 403.1 346.25 399.3 M 373.2 418.35 L 373.65 416.55 Q 373.65 415.7 372.95 415 372.2 414.3 370.95 414.3 369 414.3 366.9 415.75 363.75 418.15 361.4 422.45 359.4 426.4 359.4 429.55 359.4 430.95 359.95 431.9 360.8 433.35 362.4 433.35 364.15 433.35 366 431.05 L 367.95 428.2 367.85 430.15 Q 367.85 431.9 368.8 433.05 369.9 434.45 371.5 434.45 372.05 434.45 372.45 434 372.9 433.7 372.9 433.1 372.9 432.25 372.15 431.9 L 370.95 431.25 Q 370.25 430.4 370.25 429.2 370.25 427.7 371.15 425.25 372 422.85 372.85 421.4 373.6 420 373.6 419.4 373.6 418.95 373.2 418.35 M 369.95 417.35 L 370.85 417.7 371.55 418.65 370.7 419.45 366.65 427 Q 364.7 430.05 363.4 430.05 362.85 430.05 362.55 429.65 362.25 429.25 362.25 428.5 362.25 425.55 365.15 421.25 367.7 417.35 369.95 417.35 M 389.8 405.4 L 389.5 404.65 Q 389.1 404.2 388.7 404.2 388.15 404.2 387.5 405 L 382.4 412.25 378.2 413.15 Q 377.35 413.6 377.35 414.3 377.35 414.95 377.95 415.4 L 379.05 415.7 380.2 415.4 377.5 421.05 Q 375.45 425.7 375.45 429.25 375.45 430.9 376.05 431.75 377.1 433.05 378.5 433.05 381.3 433.05 384.7 428.6 385.55 427.5 386.1 426.65 385.95 427.6 385.95 428.65 385.95 430.4 386.8 431.5 388.1 433.05 390.25 433.05 392.35 433.05 394.85 431.65 397.3 430.35 399.45 428.2 402.3 425.5 402.3 424.4 L 402.1 423.9 401.55 423.55 Q 400.95 423.55 400.05 424.6 395.35 430.15 391.65 430.15 390.05 430.15 389.3 429.1 388.95 428.6 388.95 427.95 L 388.95 427.45 Q 394.9 425.7 397.85 421 399.25 418.8 399.25 417.25 399.25 416.3 398.5 415.7 397.9 415.1 397.15 415.1 394.4 415.1 390.55 419.05 388.45 421.15 387.35 423.3 L 387.3 423.3 386.7 423 Q 386.05 423 385.45 424 L 383.15 427.4 Q 381.05 430.1 379.65 430.1 379.05 430.1 378.75 429.7 378.4 429.4 378.4 428.6 378.4 426 380.7 420.85 382.3 417.25 384.2 414.3 L 392.25 412.25 Q 392.85 411.9 392.85 411.25 392.85 409.85 391.2 409.85 389.8 409.85 386.6 410.75 L 388.15 408.4 Q 389.8 406.15 389.8 405.4 M 396.5 418.8 Q 396.5 419.35 396.05 420.05 394.9 422 392.85 423.55 391.65 424.45 389.6 425.2 391.3 421.35 393.8 419.35 395.2 418.2 395.95 418.2 396.5 418.2 396.5 418.8 M 409.15 418.8 Q 410.25 417.2 410.25 416.75 410.25 415.8 409.35 415.8 408.4 415.8 406.6 418.5 404.15 422.25 402.1 427 400.2 431.5 400.2 433.2 400.2 433.75 400.55 434.05 400.8 434.45 401.3 434.45 402.3 434.45 402.9 432.95 405.4 426.4 410.35 422.6 L 408.1 427 Q 406.45 430.75 406.45 431.95 406.45 433.05 407.45 433.05 408.3 433.05 409 431.75 410.35 428.95 412.15 426.8 414.7 423.5 417.2 421.65 L 415.45 424.2 Q 413.9 426.9 413.9 429.55 413.9 431.6 414.95 433.05 415.75 434.25 416.7 434.25 417.25 434.25 417.7 433.8 418.05 433.35 418.05 432.9 L 417.85 432.25 417.05 431.25 Q 416.6 430.65 416.6 429.15 416.6 425.5 422.05 419.85 423.3 418.5 423.3 417.7 423.3 417.2 422.85 416.8 422.5 416.55 422 416.55 419.45 416.55 412.7 423.4 413.3 421.95 414.9 420 415.9 418.75 415.9 418.2 L 415.55 417.5 Q 415.25 417.15 414.75 417.15 413.75 417.15 410.95 419.3 409.1 420.75 406.6 423.3 407.25 421.85 409.15 418.8 M 433.15 414.3 Q 431.2 414.3 429.1 415.75 425.85 418.15 423.55 422.45 421.5 426.4 421.5 429.55 421.5 430.95 422.1 431.9 422.95 433.35 424.5 433.35 426.35 433.35 428.2 431.05 L 430.05 428.2 430 430.15 Q 430 431.9 430.9 433.05 432 434.45 433.6 434.45 434.2 434.45 434.65 434 435.05 433.7 435.05 433.1 435.05 432.25 434.3 431.9 L 433.15 431.25 Q 432.4 430.4 432.4 429.2 432.4 427.7 433.3 425.25 434.1 422.85 434.95 421.4 435.8 420 435.8 419.4 435.8 418.95 435.35 418.35 L 435.85 416.55 Q 435.85 415.7 435.15 415 434.35 414.3 433.15 414.3 M 433.7 418.65 L 432.85 419.45 428.8 427 Q 426.9 430.05 425.55 430.05 425 430.05 424.7 429.65 424.4 429.25 424.4 428.5 424.4 425.55 427.3 421.25 429.85 417.35 432.1 417.35 L 433 417.7 433.7 418.65 M 461.4 419.4 Q 461.4 418.95 460.95 418.35 L 461.5 416.55 Q 461.5 415.7 460.75 415 460 414.3 458.7 414.3 456.8 414.3 454.7 415.75 451.45 418.15 449.2 422.45 447.15 426.4 447.15 429.55 447.15 430.95 447.7 431.9 448.55 433.35 450.15 433.35 452 433.35 453.8 431.05 L 455.65 428.2 455.6 430.15 Q 455.6 431.9 456.5 433.05 457.6 434.45 459.2 434.45 459.8 434.45 460.3 434 460.65 433.7 460.65 433.1 460.65 432.25 459.9 431.9 L 458.7 431.25 Q 458 430.4 458 429.2 458 427.7 458.9 425.25 459.7 422.85 460.6 421.4 461.4 420 461.4 419.4 M 459.3 418.65 L 458.45 419.45 454.4 427 Q 452.55 430.05 451.15 430.05 450.65 430.05 450.35 429.65 450 429.25 450 428.5 450 425.55 452.9 421.25 455.5 417.35 457.7 417.35 L 458.55 417.7 459.3 418.65 M 458.25 396.85 Q 457.7 396.15 456.85 396.15 454.1 396.15 449.95 401.65 444.7 408.45 439.65 419 437.75 423.15 436.75 426 435.75 428.85 435.75 430.45 435.75 431.5 436.25 432.15 436.9 433.05 438.1 433.05 440.6 433.05 443.65 429.1 446.5 425.3 446.5 424 446.5 423.3 445.75 423.3 445.05 423.3 444.4 424.3 L 442.2 427.7 Q 440.45 429.7 439.4 429.7 438.75 429.7 438.75 428.95 L 440.45 423.4 443.75 420.45 Q 448.25 416.2 451.55 411.95 458.85 402.5 458.85 398.4 458.85 397.55 458.25 396.85 M 449.45 405.95 Q 453.75 399.5 455.35 399.5 455.9 399.5 455.9 400.2 455.9 401.55 453.4 405.65 448.55 413.6 442.5 418.75 446 411.15 449.45 405.95 M 78.2 398.4 Q 76.3 396.3 73.5 396.3 L 70.85 396.55 67.3 397.4 Q 67.3 395.9 65.9 395.9 65.25 395.9 64.9 396.3 L 64 398.75 60.45 400.85 Q 58.1 402.4 58.1 403.8 L 58.35 404.55 Q 58.65 405.1 59.25 405.1 L 60.4 404.7 62.25 403.55 Q 61.65 405.25 59.25 410.1 58.15 412.25 56.65 415 L 55.65 414.85 Q 55.05 414.85 54.5 415.25 53.9 415.7 53.9 416.35 53.9 417.25 55.1 418.2 48.65 431.5 48.65 433.95 48.65 434.6 49.1 435.15 49.6 435.8 50.3 435.8 51.3 435.8 51.9 433.85 L 58.1 419.15 60.55 419.35 Q 64.55 419.35 68.55 417.6 70.7 416.65 72.55 415.35 74.7 413.8 76.4 411.8 80.1 407.35 80.1 402.95 80.1 400.4 78.2 398.4 M 77.9 402.8 Q 77.9 404.65 76.35 407.05 73.9 410.9 69.7 413.5 68.7 414.1 67.8 414.55 64.5 416.2 61.95 416.2 L 59.65 415.9 63.15 408.75 Q 65.3 404.2 66.3 401.35 68.1 400.4 69.85 400 71.65 399.5 73.3 399.5 75.6 399.5 76.75 400.4 77.9 401.15 77.9 402.8 M 116.9 416.55 Q 116.9 415.7 116.2 415 115.4 414.3 114.15 414.3 112.2 414.3 110.1 415.75 106.95 418.15 104.65 422.45 102.6 426.4 102.6 429.55 102.6 430.95 103.15 431.9 104.05 433.35 105.6 433.35 107.4 433.35 109.25 431.05 L 111.2 428.2 111 430.15 Q 111 431.9 111.95 433.05 113.1 434.45 114.7 434.45 115.25 434.45 115.7 434 116.1 433.7 116.1 433.1 116.1 432.25 115.4 431.9 L 114.15 431.25 Q 113.45 430.4 113.45 429.2 113.45 427.7 114.3 425.25 115.15 422.85 116 421.4 116.9 420 116.9 419.4 116.9 418.95 116.4 418.35 L 116.9 416.55 M 114.8 418.65 L 113.95 419.45 109.85 427 Q 107.95 430.05 106.55 430.05 106 430.05 105.75 429.65 105.45 429.25 105.45 428.5 105.45 425.55 108.35 421.25 110.95 417.35 113.15 417.35 L 114.05 417.7 114.8 418.65 M 105.1 420.45 L 104.8 419.85 104.4 419.65 103.5 419.95 Q 100.4 422 99.15 422 98.45 422 98.45 421.35 98.45 420.15 101.4 417.8 102.45 416.95 102.45 416.35 L 102.25 415.7 Q 101.8 415.1 101.35 415.1 L 100.4 415.55 97.55 417.5 Q 93.85 420.45 91 423.45 91.65 421.75 92.95 420.05 94 418.85 94.55 418.1 95.1 417.3 95.1 416.9 95.1 416.4 94.7 416.15 L 94 415.9 Q 92.9 415.9 91.2 418.1 88.45 421.65 85.95 428 84.9 430.65 84.5 432.05 84.4 432 84.25 431.9 L 83.05 431.25 Q 82.35 430.4 82.35 429.2 82.35 427.7 83.25 425.25 84.15 422.85 84.95 421.4 85.7 420 85.7 419.4 85.7 418.95 85.35 418.35 L 85.75 416.55 Q 85.75 415.7 85.1 415 84.25 414.3 83.05 414.3 81.15 414.3 79.05 415.75 L 79.05 415.8 Q 75.85 418.15 73.55 422.45 71.5 426.4 71.5 429.55 71.5 430.95 72.05 431.9 72.9 433.35 74.5 433.35 76.3 433.35 78.15 431.05 L 80.1 428.2 79.95 430.15 Q 79.95 431.9 80.85 433.05 81.95 434.45 83.55 434.45 84.15 434.45 84.5 434.15 84.8 434.35 85.4 434.35 86.35 434.35 87 433.05 88.8 429.45 90.55 426.95 93.7 423 96 421.4 95.4 422.3 95.4 423.05 95.4 424.1 96.05 424.5 96.8 425 97.8 425 100.1 425 102.65 423.05 105.1 421.25 105.1 420.45 M 83.65 418.65 L 82.85 419.45 78.8 427 Q 76.9 430.05 75.5 430.05 74.95 430.05 74.7 429.65 74.45 429.25 74.45 428.5 74.45 425.55 77.3 421.25 79.8 417.35 82.1 417.35 L 82.9 417.7 83.65 418.65 M 171.7 415.1 L 170.75 415.55 167.9 417.5 Q 164.15 420.45 161.3 423.45 162 421.75 163.35 420.05 164.25 418.85 164.85 418.1 165.45 417.3 165.45 416.9 165.45 416.4 165.05 416.15 L 164.4 415.9 Q 163.25 415.9 161.55 418.1 158.8 421.65 156.3 428 154.6 432.35 154.6 433.35 154.6 434.35 155.7 434.35 156.65 434.35 157.35 433.05 159.15 429.45 160.95 426.95 164.05 423 166.3 421.4 165.7 422.3 165.7 423.05 165.7 424.1 166.4 424.5 167.2 425 168.15 425 170.4 425 172.95 423.05 175.4 421.25 175.4 420.45 L 175.15 419.85 174.7 419.65 173.8 419.95 Q 170.75 422 169.55 422 168.75 422 168.75 421.35 168.75 420.15 171.7 417.8 172.85 416.95 172.85 416.35 L 172.55 415.7 Q 172.15 415.1 171.7 415.1 M 187.2 419.4 Q 187.2 418.95 186.75 418.35 L 187.25 416.55 Q 187.25 415.7 186.55 415 185.7 414.3 184.5 414.3 182.55 414.3 180.45 415.75 177.25 418.15 175 422.45 172.9 426.4 172.9 429.55 172.9 430.95 173.5 431.9 174.4 433.35 175.9 433.35 177.8 433.35 179.6 431.05 L 181.45 428.2 181.4 430.15 Q 181.4 431.9 182.25 433.05 183.5 434.45 185 434.45 185.6 434.45 186 434 186.45 433.7 186.45 433.1 L 186.45 433.05 Q 186.65 433.15 186.95 433.15 187.9 433.15 188.8 431.65 192.2 425.25 196.1 422.65 193.2 427.45 193.2 431.35 193.2 433.45 193.9 434.85 194.75 436.35 196 436.35 196.45 436.35 196.85 436 L 197.25 435.3 196.8 434.25 Q 195.95 432.8 195.95 431.2 195.95 426.2 201.5 419.75 202.55 418.5 202.55 417.65 202.55 416.35 201.35 416.35 199.3 416.35 193.2 422.35 L 192.5 423.05 194.45 419.85 Q 195.3 418.65 195.3 417.95 195.3 417.5 194.9 417.05 L 194.15 416.65 Q 193.4 416.65 192.25 418.35 L 189.2 423.5 Q 185.65 430.2 185.65 431.8 185.65 431.85 185.65 431.9 L 184.5 431.25 Q 183.8 430.4 183.8 429.2 183.8 427.7 184.7 425.25 185.55 422.85 186.3 421.4 187.2 420 187.2 419.4 M 185.05 418.65 L 184.3 419.45 180.2 427 Q 178.3 430.05 176.95 430.05 176.4 430.05 176.1 429.65 175.85 429.25 175.85 428.5 175.85 425.55 178.7 421.25 181.3 417.35 183.5 417.35 L 184.4 417.7 185.05 418.65 M 212.25 419.85 Q 211.1 420.15 210.3 420.4 209.6 420.75 209.6 421.45 209.6 422.6 210.8 422.6 211.7 422.6 213.05 422 215.45 421.15 216.75 419.65 218 418.05 218 416.35 218 415 217.1 414.35 216.2 413.7 214.45 413.7 210.95 413.7 207.85 415.8 204.7 418.1 204.7 421 204.7 423.2 206.65 425.9 207.95 427.8 207.95 429.1 207.95 430.1 207.45 430.7 206.85 431.45 205.7 431.45 204.55 431.45 203.65 430.55 202.6 429.55 202.6 428.2 202.6 426.45 203.25 425.25 L 203.55 424.5 Q 203.55 423.9 202.85 423.9 202 423.9 201.3 424.95 200.1 426.5 200.1 428.8 200.1 430.7 201.1 432.15 202.55 434.15 205.35 434.15 207.1 434.15 208.5 433.2 210.8 431.8 210.8 429.2 210.8 427.5 209.1 425.05 207.55 422.7 207.55 421.25 207.55 419.15 209.9 417.6 211.95 416.2 213.6 416.2 214.35 416.2 214.75 416.45 215.05 416.75 215.05 417.35 215.05 418.2 214.2 418.85 213.35 419.65 212.25 419.85 M 242.5 417.2 Q 242.5 414.25 240.05 414.25 238.55 414.25 236.65 415.55 233.45 417.8 231.05 421.85 228.5 426.2 228.5 430 228.5 431 228.8 431.85 229.65 433.45 231.35 433.45 235 433.45 238.9 426.95 242.5 421.05 242.5 417.2 M 239.75 417.9 L 239.85 418.35 Q 239.85 420.15 237.25 423.05 L 236.3 424.4 Q 236.3 424.75 237.05 425.3 236.95 425.6 236.65 426.2 L 235.55 428 Q 233.9 430.1 232.55 430.1 231.95 430.1 231.5 429.55 L 231.3 428.7 Q 231.3 426.85 232.7 424.05 233.9 421.55 236.25 419.2 238.05 417.45 239 417.45 239.5 417.45 239.75 417.9 M 235.5 399.2 Q 236.45 398.05 236.45 397.4 236.45 396.9 236.1 396.65 L 235.5 396.4 Q 234.5 396.4 233.2 397.65 231.35 399.55 228.5 403.65 224.2 409.65 219.75 419.3 216.1 421.7 216.1 423.25 216.1 424.1 216.9 424.1 L 217.35 424.05 214.05 431.75 Q 210.8 440.4 210.8 444.7 210.8 446.7 211.5 447.9 212.4 449.3 213.9 449.3 215.75 449.3 217.6 447.35 219.35 445.6 221.2 442.25 223.3 438.3 224.4 434.5 225.4 430.75 225.4 427.2 225.4 424.45 224.45 422.6 223.75 421.2 221.95 420.4 226.05 417.7 228.95 417.7 L 230 417.9 Q 231.45 418.75 232 418.75 232.7 418.75 233.15 418.2 L 233.5 417.3 Q 233.5 416.4 232.55 415.7 231.65 415.1 230.3 415.1 228.5 415.1 223.8 416.8 229.05 406.65 235.5 399.2 M 220.7 423.15 L 222.25 424.15 Q 223.05 425.3 223.05 427.45 223.05 433.05 219.75 439.85 218.25 442.85 217.1 444.35 215.9 445.9 215 445.9 214.45 445.9 214.05 445.35 213.65 444.75 213.65 444 213.65 440.1 216.45 433.05 219.15 426.2 220.7 423.15 M 250.35 416.15 L 249.6 415.9 Q 248.5 415.9 246.8 418.1 244.1 421.65 241.6 428 239.85 432.35 239.85 433.35 239.85 434.35 241 434.35 241.95 434.35 242.6 433.05 244.45 429.45 246.2 426.95 249.35 423 251.6 421.4 251 422.3 251 423.05 251 424.1 251.65 424.5 252.5 425 253.45 425 255.7 425 258.25 423.05 260.7 421.25 260.7 420.45 L 260.5 419.85 259.95 419.65 259.1 419.95 Q 256.05 422 254.8 422 254.05 422 254.05 421.35 254.05 420.15 257 417.8 258.15 416.95 258.15 416.35 L 257.85 415.7 Q 257.4 415.1 257 415.1 L 256 415.55 253.2 417.5 Q 249.45 420.45 246.6 423.45 247.25 421.75 248.6 420.05 249.55 418.85 250.1 418.1 250.75 417.3 250.75 416.9 250.75 416.4 250.35 416.15 M 266.75 416.75 Q 266.75 415.8 265.95 415.8 264.95 415.8 263.2 418.5 260.65 422.25 258.65 427 256.75 431.5 256.75 433.2 256.75 433.75 257.05 434.05 257.3 434.45 257.8 434.45 258.8 434.45 259.45 432.95 261.95 426.4 266.95 422.6 L 264.7 427 Q 263 430.75 263 431.95 263 433.05 264 433.05 264.9 433.05 265.55 431.75 266.95 428.95 268.7 426.8 271.3 423.5 273.75 421.65 L 271.95 424.2 Q 270.45 426.9 270.45 429.55 270.45 431.6 271.5 433.05 272.3 434.25 273.25 434.25 273.8 434.25 274.25 433.8 274.6 433.35 274.6 432.9 L 274.4 432.25 273.65 431.25 Q 273.1 430.65 273.1 429.15 273.1 425.5 278.6 419.85 279.9 418.5 279.9 417.7 279.9 417.2 279.45 416.8 279.1 416.55 278.55 416.55 276 416.55 269.2 423.4 269.8 421.95 271.45 420 272.45 418.75 272.45 418.2 L 272.15 417.5 Q 271.75 417.15 271.3 417.15 270.35 417.15 267.5 419.3 265.65 420.75 263.2 423.3 263.8 421.85 265.7 418.8 266.75 417.2 266.75 416.75 M 307.9 415.1 L 307 415.55 304.15 417.5 Q 300.4 420.45 297.55 423.45 298.25 421.75 299.55 420.05 300.55 418.85 301.1 418.1 301.65 417.3 301.65 416.9 301.65 416.4 301.3 416.15 L 300.65 415.9 Q 299.45 415.9 297.8 418.1 295.05 421.65 292.5 428 291.5 430.65 291.1 432.05 291 432 290.85 431.9 L 289.65 431.25 Q 288.95 430.4 288.95 429.2 288.95 427.7 289.8 425.25 290.65 422.85 291.55 421.4 292.35 420 292.35 419.4 292.35 418.95 291.9 418.35 L 292.4 416.55 Q 292.4 415.7 291.7 415 290.9 414.3 289.65 414.3 287.7 414.3 285.6 415.75 282.4 418.15 280.15 422.45 278.1 426.4 278.1 429.55 278.1 430.95 278.65 431.9 279.5 433.35 281.1 433.35 282.85 433.35 284.75 431.05 L 286.65 428.2 286.5 430.15 Q 286.5 431.9 287.45 433.05 288.55 434.45 290.2 434.45 290.65 434.45 291.1 434.15 291.4 434.35 291.95 434.35 292.95 434.35 293.6 433.05 295.35 429.45 297.2 426.95 300.3 423 302.55 421.4 301.95 422.3 301.95 423.05 301.95 424.1 302.7 424.5 303.45 425 304.35 425 306.65 425 309.25 423.05 311.7 421.25 311.7 420.45 L 311.4 419.85 310.95 419.65 310.1 419.95 Q 307 422 305.75 422 305.05 422 305.05 421.35 305.05 420.15 307.95 417.8 309.1 416.95 309.1 416.35 L 308.8 415.7 Q 308.4 415.1 307.9 415.1 M 290.3 418.65 L 289.4 419.45 285.35 427 Q 283.5 430.05 282.05 430.05 281.6 430.05 281.3 429.65 281 429.25 281 428.5 281 425.55 283.8 421.25 286.4 417.35 288.7 417.35 L 289.5 417.7 290.3 418.65 M 172.05 395.5 Q 171.25 395.15 168.65 395.15 161.05 395.15 152.9 396.65 146.35 397.85 141.5 399.3 139.75 399.9 139.75 401.1 L 139.95 401.95 Q 140.45 402.6 141.1 402.6 L 142.7 402.2 Q 147.65 400.8 153.55 399.9 L 147.4 409.8 Q 144.65 414.35 141.35 421.05 136.35 431.35 136.35 434.05 136.35 434.75 136.65 435.4 137.25 436.35 138.2 436.35 139.15 436.35 139.6 434.45 141.35 428.4 145.25 420.6 150.25 410.35 155.8 402.2 156.75 400.85 156.75 400.25 156.75 399.55 156 399.3 158.55 398.65 165.65 398.45 L 170.9 398.2 Q 172.9 397.9 172.9 396.55 172.9 395.75 172.05 395.5 Z"/></g><g id="l3"><path fill="#21315F" stroke="none" d=" M 258.4 296.95 L 257.35 296.7 Q 257.05 296.6 256.85 296.6 L 197.2 296.35 Q 196.8 296.35 196.4 296.45 L 195.3 296.85 Q 194.6 297.05 194.15 297.6 L 193.5 298.4 Q 193.25 298.6 193.2 298.8 L 192.6 299.85 Q 192.45 300.2 192.4 300.6 L 176.75 384.9 Q 176.7 385.2 176.7 385.45 L 176.75 386.75 Q 176.8 387.3 177.05 387.75 177.3 388.2 177.7 388.6 L 178.5 389.25 Q 178.85 389.55 179.3 389.7 L 180.3 390 Q 180.7 390.1 181.05 390.1 L 242 390.35 Q 242.2 390.35 242.4 390.35 L 243.4 390.2 Q 244.15 390.1 244.7 389.55 L 245.45 388.95 Q 245.85 388.55 246.05 388.1 L 246.75 386.65 Q 246.85 386.35 246.9 386.05 L 251 364.15 Q 251 363.75 251 363.4 L 250.9 362.2 Q 250.85 361.8 250.7 361.45 L 250.2 360.5 Q 249.75 359.55 248.8 359.15 L 247.7 358.85 Q 247.25 358.7 246.8 358.7 L 220.35 358.7 221.35 353.2 238.2 353.05 Q 239.2 353.05 239.9 352.6 240.7 352.2 241 351.75 241.6 351.05 241.75 350.35 241.8 350.2 241.85 350.1 L 244.35 336.35 Q 244.4 336.05 244.4 335.9 244.4 334.7 243.95 334.15 243.65 333.65 243.25 333.35 L 242.5 332.8 Q 241.85 332.3 241.05 332.3 L 225.15 332.3 226.3 326.2 252.25 326.2 Q 252.7 326.2 253.15 326.05 L 254.35 325.55 Q 254.95 325.35 255.35 324.85 L 256 324.1 Q 256.3 323.8 256.4 323.45 L 256.95 322.45 Q 257 322.15 257.15 321.9 L 261 301.65 Q 261 301.5 261 301.35 261.3 298.4 259.1 297.25 258.8 297.05 258.4 296.95 M 110.45 296.25 Q 110.1 296.3 109.15 296.6 106.25 297.2 105.7 300.55 L 105.7 300.5 97.7 349.85 Q 97.7 349.9 97.7 349.95 96.55 357.85 97.4 363.7 L 97.4 363.75 Q 98.2 369.8 100.5 374.15 102.75 378.55 106 381.45 109.15 384.45 112.7 386.2 L 112.8 386.2 Q 116.8 388.2 121.65 389.25 126.4 390.1 131.85 390.1 131.9 390.1 131.95 390.1 L 141.75 389.65 Q 141.9 389.65 141.95 389.65 146.75 389 150.95 387.55 155.1 386.15 158.65 384.05 L 158.7 384.05 Q 162.25 381.9 165.1 379.15 168.05 376.4 170.35 373.2 L 170.35 373.15 Q 172.6 369.9 174.4 366.1 177.75 358.65 179.15 349.8 L 187.35 301.5 Q 187.35 301.25 187.35 301.05 L 187.35 300 Q 187.35 299.25 186.95 298.65 L 186.45 297.85 Q 185.95 297.15 185.15 296.85 L 183.9 296.45 Q 183.5 296.35 183.1 296.35 L 154.55 296.35 Q 154.2 296.35 153.9 296.4 L 152.7 296.75 Q 152.2 296.85 151.85 297.1 L 151 297.75 Q 150.4 298.15 150.15 298.75 L 149.6 300 Q 149.45 300.3 149.45 300.65 L 140.7 351.05 140.15 352.2 139.15 352.95 136.6 353.4 Q 135.9 353.4 135.45 353.25 L 134.65 351.75 Q 134.45 351.05 134.65 350.15 L 134.65 350.1 142.6 301.35 Q 142.6 301.15 142.6 300.9 L 142.6 299.9 Q 142.6 299.15 142.25 298.6 L 141.75 297.85 Q 141.3 297 140.4 296.75 L 139.15 296.35 Q 138.85 296.2 138.4 296.2 L 110.9 296.2 Q 110.7 296.2 110.45 296.25 M 96.6 296.75 Q 96.05 296.45 95.45 296.45 L 35.9 296 Q 35.45 296 35 296.15 L 33.85 296.65 Q 33.2 296.85 32.9 297.25 L 32.1 298.05 Q 31.8 298.35 31.65 298.75 L 31.2 299.75 Q 31.05 300 31.05 300.3 L 12.7 384.85 Q 12.6 385.25 12.7 385.65 L 12.85 386.95 Q 12.95 387.85 13.65 388.5 L 14.35 389.15 Q 14.75 389.45 15.25 389.65 L 16.2 390 Q 16.6 390.1 17 390.1 L 46.45 390.1 Q 49.15 390.05 50.65 388.1 50.9 387.7 51.05 387.3 L 51.35 386.05 Q 51.4 385.95 51.4 385.85 L 56.95 360.2 74.7 360.3 Q 75 360.3 75.3 360.2 L 76.35 359.95 Q 76.55 359.9 76.8 359.8 79 358.85 79.65 356.3 79.65 356.25 79.7 356.2 L 82.4 343.25 Q 82.5 342.95 82.5 342.7 L 82.5 341.65 Q 82.5 341.35 82.4 341.05 81.95 338.25 78.7 337.95 78.55 337.95 78.5 337.95 L 61.75 337.65 64.4 325.95 90.4 326.2 Q 93.2 326.15 94.6 323.9 94.7 323.75 94.75 323.6 L 95.25 322.55 Q 95.35 322.3 95.4 322.05 L 99.55 302.15 99.55 302 Q 100.05 298.85 98.05 297.55 97.85 297.35 97.6 297.25 L 96.6 296.75 M 325.85 298.65 L 325.8 298.65 Q 322.55 297.3 318.5 296.8 318.45 296.8 318.4 296.8 L 310.85 296.4 Q 310.8 296.4 310.65 296.4 L 273.65 296.45 Q 273.35 296.45 273.05 296.55 L 271.8 296.85 Q 271.45 296.95 271.1 297.15 L 270.15 297.75 Q 269.6 298.1 269.25 298.7 L 268.7 299.85 Q 268.45 300.2 268.4 300.6 L 253.25 384.55 Q 253.2 384.85 253.25 385.2 L 253.4 386.5 Q 253.4 386.6 253.4 386.75 254.05 390.2 257.25 390.1 L 287.25 390.1 Q 287.55 390.1 287.85 390.05 L 288.8 389.8 Q 289.35 389.6 289.75 389.3 L 290.6 388.65 Q 291 388.3 291.25 387.8 L 291.9 386.6 Q 292 386.3 292.1 385.95 L 295.2 369.35 296 369.35 Q 296.05 369.35 296.2 369.35 296.8 369.2 297.3 369.55 L 297.35 369.55 Q 297.65 370 297.85 370.8 L 297.85 370.85 Q 298.2 372.6 297.5 376.65 297.45 376.7 297.45 376.75 L 297.15 379.15 Q 297.15 379.3 297.15 379.45 L 297.15 382.9 Q 297.15 383.1 297.25 383.35 297.55 385.85 299.65 387.85 301.5 390.1 306.3 390.1 L 324.5 390.25 Q 325.05 390.25 325.55 390 326.05 389.75 326.45 389.3 L 328.15 387.2 Q 328.55 386.7 328.65 386.05 L 330.85 373.95 Q 331 373.2 330.7 372.6 330.4 371.9 329.75 371.45 329.1 371.05 328.35 371.05 L 327.4 371.05 327.55 370.05 330.35 361.9 Q 330.4 361.75 330.4 361.6 L 331 358.85 Q 331.1 358.5 331.05 358.15 L 330.7 354.4 Q 330.7 354.35 330.7 354.3 330.3 351.8 328.7 350.2 L 328.65 350.15 Q 327.25 348.7 324.5 347.65 324.3 347.6 324.1 347.6 L 321.5 347.05 Q 322.9 346.35 324.3 345.35 327.85 342.75 330.55 337.8 333.1 333.15 334.55 324.6 L 334.55 324.55 Q 335.65 317 334.95 312.2 334.2 306.85 331.9 303.65 329.45 300.2 325.85 298.65 M 302 322.2 L 302.3 322.15 Q 303.25 322.1 304.2 322.55 305 323 305.55 324 306.1 325.3 305.55 327.85 L 305.55 327.9 Q 305 330.95 303.9 332.3 L 303.85 332.3 Q 302.9 333.4 301.9 333.8 L 299.95 333.9 302 322.2 M 481.05 296.2 L 455.25 296.2 Q 454.85 296.2 454.45 296.35 L 452.5 297 Q 452.15 297.1 451.8 297.35 451.15 297.8 450.65 298.45 450.45 298.7 450.35 298.95 L 410.35 383.5 Q 410.15 383.8 410.1 384.1 L 409.85 385.4 Q 409.75 385.95 409.9 386.55 410.05 387.2 410.65 388.1 410.75 388.35 411 388.6 411.6 389.15 412.1 389.45 412.75 390 413.55 390 L 443.75 390.05 Q 444.5 390.05 445.15 389.65 L 446.1 389.05 Q 446.45 388.8 446.7 388.45 L 447.4 387.5 Q 447.65 387.2 447.8 386.85 L 450 380.45 460.4 380.45 460.95 386.35 Q 460.95 386.55 461 386.75 L 461.25 387.55 Q 461.35 387.9 461.6 388.2 462.35 390.3 465.9 390.1 L 494.9 390.1 Q 495.6 390.1 496.15 389.8 L 497.2 389.25 Q 497.65 389 498 388.55 L 498.75 387.65 Q 499.1 387.1 499.2 386.45 L 499.4 385.15 Q 499.4 384.8 499.4 384.45 L 485.8 299.75 Q 485.65 299.15 485.3 298.65 485 298.15 484.65 297.8 483.15 296.2 481.05 296.2 M 460.6 357.5 L 457.4 357.5 459.9 350.95 460.6 357.5 M 426.25 296.8 L 425.3 296.4 Q 424.85 296.2 424.35 296.2 L 356.4 296.45 Q 356.1 296.45 355.85 296.55 L 354.75 296.8 Q 354.55 296.85 354.3 296.95 352 297.9 351.35 300.4 L 351.3 300.4 343.15 332.75 Q 343.05 333.05 343.05 333.35 L 343.05 334.45 Q 343.05 335.1 343.4 335.75 L 343.85 336.55 Q 344.35 337.3 345.3 337.6 L 346.4 338 Q 346.75 338.15 347.2 338.15 L 364.7 338 340.6 352.6 Q 340.4 352.7 340.3 352.8 L 338.7 354.1 Q 338.2 354.5 338 355.05 L 337.05 357.3 Q 336.9 357.45 336.9 357.65 L 329.9 384.85 Q 329.85 385.2 329.85 385.5 L 329.85 386.55 Q 329.85 387.2 330.15 387.75 L 330.55 388.5 Q 331 389.4 331.95 389.7 L 333 390.1 Q 333.35 390.25 333.8 390.25 L 402.45 390.25 Q 402.6 390.25 402.8 390.2 L 403.9 390.1 Q 404.5 390 405.05 389.6 L 405.95 388.95 Q 406.45 388.55 406.75 387.9 L 407.4 386.45 Q 407.5 386.3 407.55 386.1 L 415.55 354.75 Q 415.6 354.45 415.6 354.15 L 415.6 352.9 Q 415.6 352.35 415.4 351.85 L 415 350.95 Q 414.6 350.1 413.65 349.7 L 412.7 349.3 Q 412.15 349.05 411.6 349.15 410.45 349.15 408.85 349.3 L 398.75 349.8 408.8 343.65 Q 408.8 343.6 408.85 343.6 L 415.8 339.05 415.85 339.05 Q 419.8 336.3 420 333.85 L 428.15 301.8 Q 428.2 301.5 428.2 301.2 L 428.2 300 Q 428.2 299.5 428.05 299 L 427.6 298.1 Q 427.2 297.15 426.25 296.8 Z"/></g><g id="l2"><path fill="#F80202" stroke="none" d=" M 241.85 335.9 Q 241.85 335.55 241.75 335.35 L 241.05 334.8 222.15 334.8 224.15 323.65 252.25 323.65 253.45 323.25 254.1 322.45 254.65 321.4 258.5 301.2 Q 258.6 299.9 257.8 299.4 L 256.8 299.1 197.15 298.85 196 299.25 195.4 300 194.8 301.05 179.25 385.35 179.3 386.65 180.05 387.3 181.05 387.6 242 387.85 243 387.7 243.75 387.1 244.4 385.6 248.5 363.7 248.4 362.55 247.95 361.6 246.8 361.2 217.35 361.2 219.3 350.7 238.2 350.55 Q 238.5 350.55 238.65 350.4 238.95 350.25 239.05 350.15 239.25 349.9 239.35 349.65 L 241.85 335.9 M 139.65 299.1 L 138.4 298.75 110.9 298.75 Q 110.6 298.8 109.75 299.05 108.45 299.4 108.2 300.9 L 100.15 350.25 Q 99.1 357.8 99.9 363.4 100.65 368.9 102.7 372.95 104.75 376.95 107.65 379.6 110.65 382.3 113.85 383.95 117.65 385.8 122.1 386.75 126.65 387.65 131.8 387.6 L 141.65 387.15 Q 146.2 386.5 150.1 385.15 154.05 383.8 157.4 381.9 160.7 379.9 163.4 377.3 166.05 374.8 168.25 371.65 170.4 368.65 172.05 365.1 175.35 357.9 176.65 349.35 L 184.85 301.05 184.85 300 184.35 299.25 183.1 298.85 154.55 298.85 153.3 299.15 152.4 299.8 151.9 301.05 143.15 351.8 142.15 353.85 140.1 355.35 136.7 355.95 Q 134.6 355.95 133.55 354.95 L 132.25 352.75 Q 131.8 351.35 132.15 349.65 L 140.1 300.9 140.1 299.9 139.65 299.1 M 80 342.7 L 80 341.65 Q 79.75 340.65 78.45 340.45 L 58.6 340.1 62.4 323.4 90.4 323.65 Q 91.75 323.65 92.45 322.55 L 92.95 321.55 97.05 301.6 Q 97.3 300.1 96.45 299.5 L 95.45 299 35.9 298.55 34.65 299 33.95 299.75 33.45 300.8 15.1 385.35 15.35 386.65 16.05 387.3 17 387.6 46.45 387.6 Q 47.85 387.6 48.65 386.55 L 49 385.35 54.85 357.65 74.7 357.8 75.7 357.5 Q 76.9 356.95 77.2 355.65 L 80 342.7 M 483.35 300.1 Q 483.05 299.75 482.8 299.5 482.1 298.75 481.05 298.75 L 455.25 298.75 453.3 299.4 Q 452.85 299.65 452.55 300 L 412.55 384.6 412.35 385.85 Q 412.45 386.25 412.75 386.75 413.2 387.2 413.55 387.45 L 443.75 387.55 444.65 386.95 445.4 386 448.2 377.95 462.75 377.95 463.45 386.15 463.75 386.95 Q 464.15 387.7 465.9 387.6 L 494.9 387.6 495.95 387.05 496.7 386.15 496.9 384.85 483.35 300.1 M 463.4 360.05 L 453.75 360.05 461.25 340.2 463.4 360.05 M 329.85 305.1 Q 327.8 302.25 324.85 300.95 321.9 299.75 318.2 299.3 L 310.65 298.9 273.65 299 272.4 299.3 271.5 299.9 270.9 301.05 255.75 384.95 255.9 386.3 Q 256.05 387.6 257.25 387.6 L 287.25 387.6 288.15 387.35 288.95 386.7 289.6 385.5 293.05 366.75 296 366.75 Q 297.4 366.65 298.65 367.45 299.85 368.2 300.3 370.3 300.8 372.3 299.95 377.05 L 299.65 379.45 299.65 382.9 Q 299.95 384.7 301.4 386.15 302.85 387.6 306.3 387.6 L 324.5 387.7 326.2 385.6 328.35 373.55 326.55 373.55 325.25 373.2 324.75 371.9 325.05 369.45 327.95 361.05 328.55 358.35 328.2 354.65 Q 327.95 353 326.9 351.95 325.75 350.85 323.6 350 L 317.8 348.9 309.1 348.75 316.2 346.55 Q 319.7 345.55 322.85 343.25 326 341 328.35 336.55 330.75 332.2 332.05 324.2 333.1 317.05 332.45 312.55 331.85 307.9 329.85 305.1 M 299.85 319.8 L 302.05 319.65 Q 303.7 319.55 305.25 320.3 306.8 321.05 307.75 322.8 308.8 324.7 308 328.35 307.25 332.3 305.65 334 304.2 335.75 302.5 336.25 L 299.25 336.55 296.95 336.5 299.85 319.8 M 355.3 299.25 Q 354.1 299.75 353.8 301.05 L 345.6 333.35 345.6 334.45 346 335.25 347.2 335.6 373.1 335.45 364.35 341.35 341.9 354.75 340.3 356.05 339.35 358.3 332.35 385.5 332.35 386.55 332.75 387.35 333.8 387.7 402.45 387.7 403.5 387.6 404.4 386.95 405.05 385.5 413.1 354.15 413.1 352.9 412.7 352 411.7 351.6 Q 410.65 351.7 409.1 351.8 L 389.7 352.75 414.4 336.95 Q 417.25 335 417.6 333.35 L 425.7 301.2 425.7 300 425.35 299.1 424.35 298.75 356.4 299 355.3 299.25 Z"/></g><g id="l1"><path fill="#21315F" stroke="none" d=" M 161.35 217.45 L 161.35 222.6 Q 161.35 222.8 161.3 223.05 L 157.65 229.7 Q 157.55 229.9 157.3 230.05 157.1 230.15 156.85 230.15 L 60.9 230.15 60.9 236.9 Q 61.35 240.05 66.4 239.95 L 152.1 239.95 Q 159.4 238.4 161.05 229.6 163.2 226.45 163.7 222 165.85 218.25 169.05 215.15 L 169.05 207.2 Q 170.75 206.1 171.2 205 170.05 206.95 167.3 207.5 165.1 208.95 166 210.75 166.15 211.05 166.1 211.35 166.1 211.6 165.9 211.8 L 161.35 217.45 M 200.55 166 Q 200.5 166.05 200.4 166.15 L 168.55 193.9 Q 167.65 194.85 168.55 195.8 168.6 195.85 168.65 195.95 L 169.75 197.45 193.6 177.45 Q 195.55 179.95 197.9 184.1 201.3 190.2 205.75 195 209.05 198.15 204.2 200.25 201.25 202.55 201.2 206.25 L 200.4 215.25 Q 199.95 215.95 199.25 216.4 198.6 216.75 197.6 217.1 196.55 217.45 196.35 218.3 196.35 218.55 196.6 218.6 L 203.5 218.6 Q 204.3 218.55 204.2 217.85 203.7 212.2 204.15 207.25 204.25 205.15 207 204.2 210.1 202.95 211.65 204.2 L 221.9 215.25 222.85 217.5 227.7 217.6 Q 227.9 216.9 227.5 216.35 226.25 216.2 225.3 215.75 L 225.2 215.75 Q 225.15 215.65 225.1 215.65 222.85 213.65 221.3 210.85 216.65 203.8 213.2 192.3 211.85 183.4 205.5 169.05 206.05 168.8 206.65 168.65 L 235.6 168.65 Q 235.65 168.8 235.7 168.95 239.75 168.9 247.25 182 251.45 189.55 257 195.5 261 199.4 255.05 202 251.35 204.8 251.3 209.45 L 250.35 220.6 Q 249.75 221.4 248.9 222 248.15 222.45 246.9 222.9 245.55 223.25 245.35 224.35 245.35 224.6 245.65 224.75 L 254.2 224.75 Q 255.15 224.65 255.05 223.8 254.45 216.75 255 210.65 255.1 208.1 258.5 206.9 262.35 205.35 264.3 206.9 L 276.95 220.6 278.15 223.35 284.15 223.45 Q 284.4 222.6 283.9 221.95 282.35 221.75 281.15 221.2 L 281.05 221.15 281 221.05 Q 278.15 218.6 276.2 215.15 270.45 206.4 266.15 192.15 264.45 180.7 258.8 169.75 258.75 169.2 258.9 168.65 L 277.35 168.65 Q 285.35 168.45 285.95 157.95 L 287.5 157.5 Q 289.45 154.35 288.65 150.45 287.7 150.45 286.9 150.45 L 286.35 150.85 286.35 155.55 Q 286.35 155.65 286.35 155.75 285.55 161.05 280.35 161.3 L 209.8 161.3 Q 203.65 162.15 200.55 166 M 201.5 177.95 Q 201.05 178.5 201.05 179.1 200.4 182.05 203.6 183.55 205.65 184.35 203.6 185.75 201.95 186.15 198.35 181 196.25 178.35 194.85 176.4 L 199.95 172.15 Q 201.95 170.65 203.85 169.75 205.7 172.25 206.35 177.8 L 205.4 176.95 Q 204.9 176.45 204.25 176.45 203.45 176.4 202.7 176.95 201.85 177.45 201.5 177.95 M 241.05 168.75 Q 241.2 168.7 241.35 168.7 L 241.3 168.65 256.3 168.65 Q 256.7 169.2 256.8 170.9 256.95 172.3 257.75 174.2 L 256.5 173.1 Q 255.95 172.55 255.1 172.55 254.1 172.45 253.2 173.1 252.15 173.75 251.7 174.35 251.15 175.05 251.15 175.8 250.35 179.5 254.3 181.3 256.85 182.3 254.3 184.1 252.3 184.5 247.8 178.15 242.7 171.8 241.05 168.75 M 343.75 90.8 L 364.2 63.3 Q 361.65 62.55 357.85 62.85 L 239.7 69.75 Q 228.35 69.95 223.2 76.7 L 114.8 187.7 Q 105.9 196.15 94.25 200.15 86.1 203.65 79 210.65 L 60.9 227.3 60.9 228.25 156.25 228.25 159.45 222.3 159.45 217.1 Q 159.45 216.8 159.7 216.5 L 164.05 211.1 Q 162.75 208.1 166.4 205.8 166.6 205.7 166.75 205.7 169.5 205.15 170.05 202.6 169.5 202.25 168.8 201.9 166.6 200.4 168.35 198.7 L 167.2 197.15 Q 165 194.85 167.2 192.6 L 167.25 192.55 189 173.6 189.1 173.55 199.15 164.75 Q 202.6 160.35 209.65 159.45 209.7 159.4 209.75 159.4 L 280.25 159.4 Q 283.85 159.2 284.45 155.5 L 284.45 150.4 Q 284.45 150.25 284.45 150.2 283.1 149.85 285.6 149.05 L 287.2 147.9 Q 287.7 145.65 283.25 146.05 283.2 142.95 283.5 140.15 283.55 137.9 286.55 136.85 289.9 135.45 291.6 136.85 L 302.65 148.85 303.7 151.25 309 151.35 Q 309.2 150.6 308.8 150 307.4 149.85 306.35 149.35 L 306.3 149.3 Q 306.25 149.25 306.2 149.25 303.7 147.1 302 144.05 297 136.4 293.2 123.95 291.75 113.9 286.8 104.35 286.75 103.85 286.9 103.4 L 303.25 102.85 Q 307.9 105.45 315.1 118.1 320.3 127.4 327.1 134.8 332.05 139.55 324.7 142.8 320.15 146.2 320.05 151.9 L 318.85 165.65 Q 318.2 166.7 317.15 167.35 316.2 167.95 314.65 168.4 313 168.9 312.75 170.25 312.75 170.55 313.1 170.75 L 323.65 170.75 Q 324.8 170.6 324.7 169.55 323.9 160.9 324.65 153.35 324.75 150.25 328.95 148.75 333.7 146.85 336.1 148.75 L 351.6 165.6 353.05 169 360.55 169.15 Q 360.8 168.1 360.2 167.25 358.25 167.1 356.85 166.4 L 356.7 166.3 Q 356.6 166.25 356.6 166.2 353.1 163.25 350.65 158.9 343.7 148.1 338.3 130.65 336.3 116.55 329.3 103.05 329.25 102.5 329.4 102 L 339.85 101.55 346.95 100.45 Q 350.4 99.25 352.5 96.8 L 369.2 73.3 Q 370.35 66.4 365.95 64 365.95 64.15 365.9 64.2 L 345 92.35 Q 344.85 92.45 344.7 92.6 344.5 92.65 344.25 92.65 L 267.85 96.4 Q 260.35 97.75 259.65 104 L 259.65 111.35 Q 260.1 117.25 254.75 117.95 254.7 117.95 254.65 117.95 L 241.8 117.95 241.8 120.15 Q 241.9 120.15 241.95 120.1 243.2 119.5 244.25 120.35 245.7 121.6 245.9 122.95 245.9 123 245.95 123.05 L 258.3 123.05 Q 261.9 123.25 262.7 120.05 L 265.25 108.9 Q 266 105.25 268.5 104.3 271.75 106.35 276.7 115.05 280.35 121.7 285.25 126.9 288.75 130.3 283.5 132.6 280.3 135.05 280.25 139.05 L 279.8 144.1 Q 278.85 143.45 278 142.7 L 273.8 138.2 Q 269.6 132.8 263.4 132.1 259.15 132.1 257.55 129.6 256.8 127.5 255.3 128.6 253.9 130.65 252.95 128.9 250 125.7 247.15 125.65 244.05 124.85 243.2 123.05 L 243.95 123.05 Q 243.75 122.45 243 121.8 242.85 121.7 242.8 121.8 242.25 122.1 241.6 123 241.45 123.25 241.15 123.35 240.85 123.45 240.55 123.35 240.3 123.25 240.05 123 239.9 122.75 239.9 122.45 L 239.9 117.95 230.05 117.95 Q 229.7 117.95 229.45 117.65 229.1 117.35 229.1 117 229.1 116.6 229.45 116.3 229.7 116.05 230.05 116.05 L 254.55 116.05 Q 258.05 115.45 257.75 111.45 L 257.75 103.9 Q 257.75 103.85 257.75 103.8 258.5 96.15 267.55 94.55 267.6 94.5 267.65 94.5 L 343.75 90.8 M 326.4 102.1 Q 326.75 102.85 326.85 104.5 326.95 106.2 328 108.6 L 326.45 107.2 Q 325.8 106.55 324.75 106.5 323.5 106.4 322.4 107.2 321.15 108 320.6 108.7 319.9 109.55 319.9 110.55 318.95 115.05 323.8 117.3 326.9 118.55 323.8 120.75 321.3 121.25 315.75 113.4 310.25 106.55 308.05 102.85 L 326.4 102.1 M 285.9 108.25 L 284.75 107.3 Q 284.3 106.8 283.55 106.8 282.7 106.7 281.9 107.3 281 107.85 280.6 108.35 280.1 108.95 280.1 109.65 279.45 112.85 282.85 114.45 285.05 115.35 282.85 116.9 281.1 117.3 277.2 111.7 273.05 106.6 271.55 103.95 L 284.65 103.5 Q 285 104 285.05 105.35 285.15 106.6 285.9 108.25 Z"/></g><g id="l0"><path fill="#21315F" stroke="none" d=" M 158.7 240.45 L 160.8 246.2 Q 171.4 255.85 184.65 261.6 195.3 266.35 211.2 265.25 L 226.05 264.15 Q 234.65 264.7 244.05 267.3 253.75 270 262.55 274.45 273.3 253.5 292.85 256.4 298.6 245.2 311.75 245.1 L 310.8 238.15 Q 309.65 238 308.5 238 308.05 237.95 307.55 238 297.15 238.3 291.1 249.1 290.75 249.65 290.45 250.25 271.5 247.4 260.85 267.05 L 260.85 267.1 Q 260.5 267.65 260.2 268.25 259.45 267.95 258.8 267.6 253.2 265.05 250.55 263.85 245.6 261.75 240.35 260.35 239.85 260.15 239.35 260 238.2 259.65 236.9 259.35 234.85 258.9 232.35 258.55 227.7 258 224.35 258.25 210.25 259.2 202.7 258.8 193.4 258.3 186.05 256.35 171.1 251.6 158.7 240.45 M 358.6 187 L 346 190.85 340.7 199.7 339.1 201.6 341.75 207.45 343.45 205.75 348.3 197.55 361.75 193.2 413.1 163.05 413.1 161.55 422.05 158.55 419.6 151.95 410.85 155.6 410.85 156.75 358.6 187 M 374.15 69.15 L 368.15 69.15 345.95 147.5 349.75 149.85 Q 350.1 149.8 350.5 149.7 362.4 146.4 373.55 150.6 380.5 149.8 384.05 157 380.45 151.4 373.45 152.25 362.8 148.15 350.2 151.45 L 349.3 150.6 349.3 155.5 352.85 158 Q 365.35 153.85 376.3 158.6 383.65 157.85 387 164.4 L 355.9 181.95 341.3 186.45 336.3 196.2 333.15 199.05 332.9 201.15 335.85 208 332.7 212.5 319.4 221.35 303.9 223.45 300.7 232 302.55 233.75 Q 299.25 234.35 296.55 235.45 290.75 237.8 287.35 242.2 268.25 243.55 257.1 260.2 250.8 255.95 241.3 252.85 232.55 249.95 228.05 250.2 214.75 251.4 208.4 251.7 197.35 252.3 190.1 250.2 182.7 248.1 174.7 243.1 168.8 239.45 160.3 232.6 L 157.85 238.15 Q 166.2 244.8 172 248.45 180.05 253.45 187.45 255.55 194.85 257.7 205.7 257.5 212.05 257.4 225.35 256.4 229.75 256.2 237.15 257.85 238.35 258.1 239.7 258.4 250.45 261.05 259.45 266.35 270.2 245.4 289.75 248.3 296.45 236.25 307.55 236.7 308.1 236.7 308.6 236.7 L 307.7 230.95 308.55 231.05 309.35 235.95 309.75 234.75 325.8 233.85 327.6 230.3 340.1 223.1 345.35 217.6 345.5 216.45 342.75 211.75 341.55 212.45 337.9 216.55 325.55 223.95 324.05 227.15 307.7 228.35 306.9 230.75 305.35 230.5 306.65 226.7 323.05 225.75 324.55 222.35 336.7 215.3 342.25 209.25 338.15 200.15 340.45 197.95 345.1 189.7 357.55 185.45 409.7 155.4 409.7 154.15 418.95 150.45 395.05 140.45 393.7 142.1 397.85 145.7 388.15 154.4 Q 384.2 145.35 373.45 146.8 365.9 143.55 356.25 144.6 L 377.85 77.25 375.35 71.75 351.8 145.55 350 146.3 374.35 69.5 374.15 69.15 M 388.65 157.75 L 394.25 153.85 393.25 152.4 401.3 145.95 407.7 151.25 406.6 151.45 401.8 147.65 394.25 153.85 395.1 155.05 389.3 159.2 385.5 159.25 384.4 157.75 388.65 157.75 Z"/></g></defs><g transform="matrix(1,0,0,1,0,0)"><use xlink:href="#l4"/></g><g transform="matrix(1,0,0,1,0,0)"><use xlink:href="#l3"/></g><g transform="matrix(1,0,0,1,0,0)"><use xlink:href="#l2"/></g><g transform="matrix(1,0,0,1,0,0)"><use xlink:href="#l1"/></g><g transform="matrix(1,0,0,1,0,0)"><use xlink:href="#l0"/></g></svg> 