<svg xmlns="http://www.w3.org/2000/svg" xmlns:xlink="http://www.w3.org/1999/xlink" width="100%" height="100%" viewBox="0 0 512 512">
<!-- Vectorization by Rodrigo Polo https://github.com/rodrigopolo/logotipos-politicos -->
<defs>
<g id="l1">
<path fill="#E11320" stroke="none" d=" M 476.3 42.95 Q 471.95 13.9 442.8 10.1 L 67.9 10.1 Q 39.25 13.7 34.4 42.05 L 34.4 469.45 Q 39.25 497.8 67.9 501.4 L 442.55 501.4 Q 471.95 497.7 476.3 468.55 L 476.3 42.95 Z"/>
</g>
<g id="l0">
<path fill="#FFF" stroke="none" d=" M 456.6 34.1 Q 453.8 30.3 449.85 27.9 446 25.6 439.85 25.05 437.2 24.8 427.45 24.8 L 121 24.8 Q 103.85 24.45 95.25 24.3 79.7 24.05 69.7 24.8 L 69.4 25.15 Q 61.8 26.1 56.65 31.1 51.15 36.45 50.1 44.85 49.45 49.85 49.5 57.55 49.6 61.9 49.75 70.95 L 49.75 441.8 Q 49.75 446.4 49.45 455.65 49.25 463.65 50.1 468.25 51 473.15 54.1 477.35 57.05 481.45 61.4 483.9 65.45 486.2 72.25 486.6 73.4 486.7 85.95 486.7 L 413.3 486.7 Q 413.8 486.7 427.5 486.95 435.75 487.1 440.65 486.7 446.25 486.2 450.85 482.95 454.6 480.15 457.25 475.95 460.95 469.95 461.2 453.05 460.6 433.2 460.6 424.95 L 460.6 69.95 Q 460.95 60.6 461 56 461.2 47.8 460.35 42.95 459.45 38.2 456.6 34.1 M 413.65 37.1 Q 417.5 37.1 425.15 36.85 431.8 36.7 435.75 37.45 445.65 39.1 447.7 50.15 448.35 53.7 448.35 74.85 L 448.35 435.95 Q 448.35 457.5 447.9 460.5 445.9 472.15 436.4 474.05 432.6 474.9 425.9 474.7 418 474.4 414 474.4 L 96.7 474.4 Q 89 474.65 85.2 474.7 78.55 474.8 74.65 474.05 65.35 472.35 63.2 463 63.171875 462.8765625 63.15 462.75 62.304296875 458.496484375 62.3 440.8 62.3 440.73984375 62.3 440.65 62.3 440.6005859375 62.3 440.55 L 62.3 73.05 Q 62.05 63.7 62.05 59.3 62.05 51.5 63.3 47.85 66.25 38.9 74.95 37.45 L 75.2 37.1 Q 75.525 37.0763671875 75.85 37.05 L 97.85 36.7 Q 105.448828125 36.85078125 120.35 37.1 L 413.65 37.1 M 242.9 337.15 Q 236 332.95 220.65 333.2 195.45 333.55 194.05 333.45 193.75 333.55 193.75 334.35 L 193.75 453.55 Q 199.15 453.15 217.8 453.7 231.25 454.2 238.3 451.65 252.85 446.4 258.75 426.1 263.45 410.1 262.55 385.65 262.05 369.05 257.25 356.5 252.1 342.65 242.9 337.15 M 212.2 356.75 Q 212.2 355.95 212.55 355.85 216 356 223.45 355.85 229.85 355.95 233.05 357.4 239.15 360.2 241.75 370.3 243.55 377.35 244.15 390.85 244.65 402.25 243.15 411.6 241.25 423.65 236.75 427.7 233.4 430.7 226 431.05 216.95 430.95 212.2 431.15 L 212.2 356.75 M 84.75 333.45 Q 84.3 333.55 84.5 334.35 L 84.5 452.55 142.5 452.55 142.5 430.15 102.55 430.15 102.55 333.45 84.75 333.45 M 159.35 333.45 Q 158.95 333.55 159.1 334.35 L 159.1 453.55 177.15 453.55 177.15 333.45 159.35 333.45 M 222.4 130.35 Q 216 131.2 212.55 131.35 208.1 131.6 200.9 130.35 193 128.95 190.15 128.95 184.7 128.8 179.85 130.95 174.85 133.05 173.8 136.25 172.3 140.8 173.95 146.6 176.15 155.05 176.25 156.2 182.75 155.05 195.4 153.5 209.15 151.7 215.25 150.7 220.35 150 230.5 148 239.55 146.35 245.35 146.45 260.3 146.45 270.25 155.15 278.95 162.8 283.45 176.85 285.9 168.45 283.95 158.1 282.3 149.35 278.2 142.1 277.2 143.1 276.55 147.85 275.9 151.8 273.6 152.3 272.3 149.5 273.95 144.15 275.75 138.15 275.15 134.8 271.8 132.1 269.9 130.85 266.2 128.5 263.2 128 261.55 127.75 258.5 127.9 255.15 128.25 253.65 128.3 239.6 128.7 232.5 129.2 229.45 129.45 222.4 130.35 M 282.25 62.65 Q 280.9201171875 61.4205078125 279.35 60.35 L 276.05 58.55 Q 271.8 56.5 268.1 56.75 261.4 57.2 257.45 65.25 253.9 72.25 254 81.35 254 85.55 254.25 102.95 254.4 116.35 254.25 124.3 266.05 122.8 272.8 128.7 276.9 132.35 282.55 143.65 287.5 153.75 288.45 163.6 289.6 175.6 284.05 183 286 192.4 281.55 199.55 280.75 200.95 278.35 203.25 276.05 205.45 275.15 206.95 274.25 208.45 272.2 212.95 270.55 216.7 269 218.6 268.45 219.35 266.65 220.65 265.15 221.75 264.4 222.9 267.55 237.9 254.65 242.5 247.85 244.95 226.65 245.3 225.75 246.2 224.05 248.15 222.4 249.9 220.85 250.55 220.9 251.3 221.05 252.5 221.05 253.6 220.5 254.25 219.45 255.55 216.3 256.1 212.6 256.55 211 256.95 213.35 257.2 218.2 257.45 222.3 257.75 224.75 258.5 215.55 259.8 206.85 258.35 197.75 256.7 193.75 252.65 194.4 252.6 205.5 253.4 212.7 253.9 215.25 251.45 215.4 250.2 213.25 249.05 210.75 247.65 210.3 246.85 211.95 246.25 216 246.75 219.75 247.25 221.05 246.5 220.75 244.05 215.65 243.4 210.55 242.75 210.05 240.35 212.05 238.15 215.8 238.4 218.05 238.55 222.95 239.45 238 241.1 247.75 238.55 261.55 235 259.5 223.8 258.35 217.55 251.05 214.15 245.05 211.3 236.4 210.9 235.5 210.9 233 211.15 230.7 211.4 229.35 211.2 228.8 211.15 226.55 210.15 224.7 209.25 222.95 209.4 222.4 209.4 220.1 210.5 218.45 211.2 217.15 210.3 218.45 206.15 223.3 203.25 223.3 205.45 223.7 206.15 223.95 206.55 225.1 207.2 227.15 208.35 233.7 207.85 242.35 207.35 244.7 207.55 249.65 207.95 253.35 210.9 254.3 211.7 256.3 214.35 257.7 216.25 259.15 216.45 261.55 216.9 265.75 214.5 269.6 212.2 270.25 210.65 271.45 207.45 269.75 201.2 267.3 192.75 267.2 192.2 267.45 194.7 266.4 197.6 265.95 198.8 264.1 202.6 261.45 208.25 258.6 205.4 258.9 204.75 262.05 198.9 264.25 195.05 265 191.85 L 265.05 191.55 Q 265.225 191.1375 265.9 190.95 266.8 190.6 266.9 190.05 264.9 180.45 247.65 180.1 227 181.65 219.25 181.75 222.8 176.85 223.55 175.9 228.85 178.4 241.2 176.9 254 175.35 259.15 177.15 261.55 177.95 264.1 180.5 271.55 187.8 271.8 200.45 282.9 197.9 281.15 184.55 279.75 173.45 273.05 165.15 272.2 173.95 272.15 174.2 271.05 178.7 267.45 179.3 265.95 177.8 267.2 176 L 268.6 174.25 Q 269.15 173.475 269.35 172.9 269.5556640625 172.3205078125 269.65 171.6 L 269.9 169.1 Q 269.9 169.025 269.9 168.95 269.85 166 269.9 164.25 269.85 163.55 270.55 163.2 271.7 162.8 271.8 162.7 269 157.05 262.2 153.85 255.05 150.4 245.95 151.05 240.45 151.45 227 154.1 213.1 156.8 204.5 157.45 183.55 159.25 181.65 159.5 169.75 161.4 165.25 166.4 161.8 170.2 162.45 175.6 163.05 180.2 166.4 185.75 168.35 188.95 172.55 194.95 172.65 194.95 175.25 194.9 176.85 194.8 176.9 195.85 L 176.9 195.9 Q 176.8974609375 195.9533203125 176.9 196 L 176.3 197.35 Q 175.8099609375 197.8859375 174.85 198.15 173.55 198.275 172.6 198.4 L 171.1 198.65 Q 170.2 199.8 168.2 201.85 166.65 203.75 166.75 205.95 166.7478515625 206 166.75 206.05 166.8453125 207.7482421875 168.45 210.5 168.4734375 210.5546875 168.5 210.6 168.54375 210.7046875 168.6 210.8 169.7 212.45 171.65 215.25 172.65 216.7 174.85 219.75 176.65 222.45 176.9 224.45 177.15 226.55 175.85 232 174.45 237.4 174.8 240.1 175.6 247.4 181.65 253.15 183.15 254.55 193.5 261.85 195.45 263.25 205 270.8 212.3 276.55 217.4 279.6 232.75 288.7 248.75 285.85 250.55 292.8 244.45 293.15 240.35 293.3 234.05 290.75 227.5 288.05 217.4 281.8 205.9 274.65 203 273.3 214.5 289.1 227.05 297 243.75 307.45 265 306.1 265.23828125 306.08515625 265.45 306.05 265.591796875 306.066796875 265.7 306.05 265.93125 306.0330078125 266.15 306 266.2634765625 306.0158203125 266.35 306 L 288.35 298.95 Q 289.7181640625 298.10390625 291 297.15 292.3388671875 296.1634765625 293.6 295.1 L 306.2 276.3 Q 306.353125 275.85625 306.5 275.4 306.5357421875 275.3193359375 306.55 275.2 L 309.95 261.45 Q 310.2685546875 258.2306640625 309.8 256.05 309.57578125 254.891015625 308.6 253.15 L 307.9 251.95 Q 305.95 249.05 305.2 247.75 303.75 244.9 303 243.55 301.7 241.2 300.35 239.8 300.1 246.45 296.25 251.2 293.7 254.25 287.75 258.15 300.3 235.5 300.95 207.85 300.35 207.45 298.8 207.2 297.25 206.95 296.65 206.6 302.6 199.05 303.4 185.6 L 301.2 164.35 Q 300.79375 162.925 300.3 161.5 299.80703125 160.0703125 298.75 157.75 L 293.45 146.8 Q 292.45 144.475 292 142.75 291.498828125 140.7890625 291.35 138.3 L 291.45 132.85 Q 291.540625 131.9345703125 291.65 130.95 292.8 122.9 293 119.1 293.8 100.15 291.75 86.55 L 285.45 66.6 Q 283.9625 64.3125 282.25 62.65 M 264.4 158.1 L 264.4 157.2 266.2 157.2 Q 268.75 158.95 268.1 168.2 267.45 177.65 264.1 177.15 261.8 176.85 263.7 169.45 265.8 160.8 264.4 158.1 M 261.05 184.55 L 261.6 184.55 Q 265.15 186.2 261.95 194.95 259.25 202.2 256.1 202.95 254.5 201.7 255.2 199.5 255.2 199.3 257.05 195.85 259.25 191.6 259.55 190.85 260.8 187.8 261.05 184.55 M 273.6 277.65 Q 276.95 272.05 273.6 265.55 279.6 269.6 277.8 278.2 276.3 285.45 270.8 291.65 267.6 295.35 264.6 297.1 260.45 299.4 257.35 297.5 257.6 294.35 260.4 291.25 264 287.9 265.65 286.15 272.95 278.6 273.6 277.65 M 358.65 333.45 Q 358.25 333.55 358.4 334.35 L 358.4 453.2 Q 361.6 453.6 367.35 453.55 374.9 453.45 376.8 453.55 L 376.75 437.7 Q 376.72265625 433.7046875 376.7 428.75 376.7 425.510546875 376.75 422.55 L 377 407.1 Q 377.0419921875 405.6615234375 377.1 404.35 384.6 403.3 388.7 407.25 390.65 409.15 394.3 416.35 398.15 424 403.3 435.4 406.25 441.8 411.5 453.55 L 433 453.55 Q 431.4 450 424.25 432.35 418.9 419.3 414.9 412.1 413.55 409.8 410.95 406.25 407.9 402.3 406.9 400.7 415.55 398.95 420.8 389.85 425.45 381.55 426.05 370 426.55 358.55 422.75 349.3 418.75 339.3 411.2 335.9 403.3 332.4 386.55 333.1 364.5 334.1 358.65 333.45 M 376.8 356.75 Q 376.8 355.95 377.1 355.85 380.65 356.45 389.85 355.7 397.8 355.05 401.35 356.45 407 358.75 407.4 368.75 407.75 378.75 402.3 381.65 398.3 383.75 390.5 383.35 380.05 382.8 376.8 383.2 L 376.8 356.75 M 340.6 344.3 Q 340.65 337.3 340.25 333.45 L 279.45 333.45 Q 279.1 333.55 279.1 334.35 L 279.1 453.55 342.05 453.55 342.05 431.15 Q 337.45 431.05 319.65 431.15 305.7 431.2 297.6 430.8 L 297.6 401.6 337.45 401.6 337.45 379.5 Q 335.1 379.5 317.3 379.6 305.05 379.6 297.6 379.15 L 297.6 355.85 Q 300.1 355.85 319.25 355.95 332.45 355.95 340.6 355.55 340.5 353.3 340.6 344.3 Z"/>
</g>
</defs>
<g transform="matrix(1,0,0,1,0,0)">
<use xlink:href="#l1"/>
</g>
<g transform="matrix(1,0,0,1,0,0) ">
<use xlink:href="#l0"/>
</g>
</svg>
