<svg xmlns="http://www.w3.org/2000/svg" xmlns:xlink="http://www.w3.org/1999/xlink" width="100%" height="100%" viewBox="0 0 512 512">
<!-- Vectorization by Rodrigo Polo https://github.com/rodrigopolo/logotipos-politicos -->
<defs>
<g id="l0">
<path fill="#000" stroke="none" d=" M 338.95 439.95 L 324.85 439.95 324.85 463.75 339.25 463.75 339.25 458.65 331 458.65 331 453.95 338.45 453.95 338.45 449.05 331 449.05 331 445 338.95 445 338.95 439.95 M 350.55 439.95 L 341.25 439.95 341.25 463.75 347.45 463.75 347.45 454.7 349.6 454.7 Q 353.45 454.7 355.45 452.8 356.45 451.9 356.95 450.5 357.45 449.1 357.45 447.25 357.45 445.7 357.05 444.4 356.6 443.05 355.75 442.05 354.9 441.05 353.6 440.5 352.3 439.95 350.55 439.95 M 347.45 444.4 L 348.6 444.4 Q 351.05 444.4 351.05 447.3 351.05 448.8 350.4 449.5 349.8 450.2 348.6 450.2 L 347.45 450.2 347.45 444.4 M 393.45 443.45 Q 393.05 442.35 392.25 441.55 390.65 439.95 387.3 439.95 L 377.95 439.95 377.95 463.75 387.3 463.75 Q 389.25 463.75 390.65 463.2 392 462.7 392.85 461.75 393.7 460.85 394.1 459.55 394.45 458.25 394.45 456.7 394.45 455.8 394.25 454.85 394 453.95 393.5 453.15 392.95 452.4 392.1 451.9 391.25 451.35 390.1 451.3 L 390.1 451.2 Q 391.1 451 391.75 450.5 392.5 450 392.95 449.3 393.4 448.6 393.6 447.7 393.85 446.8 393.85 445.9 393.85 444.55 393.45 443.45 M 385.65 444.4 Q 386.65 444.4 387.15 445.15 387.65 445.9 387.65 446.85 387.65 447.85 387.15 448.55 386.65 449.25 385.65 449.25 L 384.15 449.25 384.15 444.4 385.65 444.4 M 385.85 453.5 Q 386.75 453.5 387.4 454.2 388.1 454.9 388.1 456.3 388.1 457.85 387.4 458.55 386.75 459.3 385.85 459.3 L 384.15 459.3 384.15 453.5 385.85 453.5 M 375.15 439.95 L 368.95 439.95 368.95 457.1 Q 368.95 458.85 368.45 459.4 367.95 460 367.1 460 366.25 460 365.7 459.4 365.25 458.85 365.25 457.1 L 365.25 439.95 359.05 439.95 359.05 455.55 Q 359.05 458.05 359.55 459.7 360.1 461.4 361.1 462.4 362.1 463.4 363.65 463.75 365.15 464.1 367.1 464.1 369.1 464.1 370.55 463.75 372.05 463.4 373.1 462.4 374.1 461.4 374.6 459.7 375 458.6 375.15 455.55 L 375.15 439.95 M 364.5 438.25 L 368.3 438.25 371.55 433.4 365.95 433.4 364.5 438.25 M 410.6 463.75 L 410.6 458.65 402.95 458.65 402.95 439.95 396.8 439.95 396.8 463.75 410.6 463.75 M 436.8 463.75 L 443.3 463.75 443.9 459.55 448.85 459.55 449.5 463.75 456.05 463.75 450.3 439.95 442.5 439.95 436.8 463.75 M 446.35 444.8 L 446.45 444.8 448.15 454.9 444.65 454.9 446.35 444.8 M 424.55 440.1 Q 422.95 440.8 421.95 442.25 420.95 443.7 420.5 446.1 420.1 449.55 420.1 451.85 420.1 455.2 420.5 457.55 L 420.95 459.65 Q 421.3 460.65 421.75 461.35 422.7 462.85 424.35 463.45 425.2 463.8 426.25 463.95 L 428.6 464.1 Q 430.1 464.1 431.55 463.8 432.95 463.45 434.05 462.55 435.15 461.65 435.8 460.05 436.5 458.45 436.5 455.95 L 436.5 454.15 430.45 454.15 430.4 457 430.1 458.8 Q 429.95 459.45 429.55 459.75 429.15 460 428.6 460 427.9 460 427.5 459.65 427.1 459.3 426.85 458.35 426.65 457.4 426.6 455.8 L 426.6 447.85 Q 426.65 446.3 426.85 445.35 427.1 444.4 427.5 444.05 427.9 443.65 428.6 443.65 429.5 443.65 429.95 444.4 430.35 445.15 430.35 447.2 L 430.35 448.5 436.3 448.5 436.3 447 Q 436.3 445.25 435.9 443.9 435.45 442.5 434.55 441.5 433.65 440.55 432.2 440.05 430.7 439.5 428.6 439.5 L 426.4 439.6 Q 425.45 439.8 424.55 440.1 M 418.2 439.95 L 411.95 439.95 411.95 463.75 418.2 463.75 418.2 439.95 M 34.55 439.95 L 25.65 439.95 25.65 463.75 31.45 463.75 31.45 446 31.55 446 34.85 463.75 39.3 463.75 42.6 446 42.65 446 42.65 463.75 48.45 463.75 48.45 439.95 39.6 439.95 37.1 454 37.05 454 34.55 439.95 M 74.15 439.95 L 67.7 439.95 72.7 463.75 80.7 463.75 85.85 439.95 79.25 439.95 76.75 457.9 76.7 457.9 74.15 439.95 M 52.25 442.3 Q 51.7 443.1 51.35 444.05 L 50.8 446.15 Q 50.35 449.6 50.35 451.85 50.35 455.2 50.8 457.55 L 51.35 459.65 Q 51.7 460.65 52.25 461.35 53.25 462.85 54.85 463.45 55.95 463.9 58.85 464.1 L 61 463.95 Q 62.05 463.8 62.85 463.45 63.65 463.15 64.35 462.6 65 462.1 65.45 461.35 66 460.65 66.35 459.65 L 66.9 457.55 Q 67.25 455.95 67.35 451.85 67.35 449.6 66.9 446.15 66.45 443.8 65.45 442.3 65 441.6 64.35 441 63.65 440.5 62.85 440.15 62.05 439.8 61 439.65 L 58.85 439.5 56.65 439.65 Q 55.65 439.8 54.85 440.15 53.25 440.85 52.25 442.3 M 60 444.05 Q 60.4 444.4 60.6 445.35 60.85 446.3 60.9 447.85 L 60.9 455.8 Q 60.85 457.4 60.6 458.35 60.4 459.3 60 459.65 59.55 460 58.85 460 58.15 460 57.75 459.65 57.35 459.3 57.1 458.35 56.9 457.4 56.85 455.8 L 56.85 447.85 Q 56.9 446.3 57.1 445.35 57.35 444.4 57.75 444.05 58.15 443.65 58.85 443.65 59.55 443.65 60 444.05 M 120.25 439.95 L 120.25 463.75 126.45 463.75 126.45 439.95 120.25 439.95 M 92.7 439.95 L 86.5 439.95 86.5 463.75 92.7 463.75 92.7 439.95 M 104 439.95 L 95.1 439.95 95.1 463.75 100.9 463.75 100.9 446 101 446 104.25 463.75 108.7 463.75 112.05 446 112.1 446 112.1 463.75 117.9 463.75 117.9 439.95 109.05 439.95 106.5 454 106.45 454 104 439.95 M 143.25 439.95 L 129.15 439.95 129.15 463.75 143.55 463.75 143.55 458.65 135.3 458.65 135.3 453.95 142.75 453.95 142.75 449.05 135.3 449.05 135.3 445 143.25 445 143.25 439.95 M 162.6 463.75 L 162.6 439.95 156.8 439.95 156.8 454.6 156.75 454.6 152.75 439.95 145.8 439.95 145.8 463.75 151.55 463.75 151.55 449.05 151.65 449.05 155.8 463.75 162.6 463.75 M 182 442.3 Q 181.45 443.1 181.1 444.05 L 180.55 446.15 Q 180.1 449.6 180.1 451.85 180.1 455.2 180.55 457.55 L 181.1 459.65 Q 181.45 460.65 182 461.35 182.95 462.85 184.6 463.45 185.65 463.9 188.6 464.1 L 190.75 463.95 Q 191.8 463.8 192.6 463.45 193.4 463.15 194.1 462.6 194.7 462.1 195.2 461.35 195.75 460.65 196.1 459.65 L 196.65 457.55 Q 196.95 455.95 197.1 451.85 197.1 449.6 196.65 446.15 196.2 443.8 195.2 442.3 194.7 441.6 194.1 441 193.4 440.5 192.6 440.15 191.8 439.8 190.75 439.65 L 188.6 439.5 186.4 439.65 Q 185.4 439.8 184.6 440.15 182.95 440.85 182 442.3 M 188.6 443.65 Q 189.25 443.65 189.7 444.05 190.1 444.4 190.35 445.35 190.55 446.3 190.6 447.85 L 190.6 455.8 Q 190.55 457.4 190.35 458.35 190.1 459.3 189.7 459.65 189.25 460 188.6 460 187.85 460 187.45 459.65 187.05 459.3 186.85 458.35 186.6 457.4 186.55 455.8 L 186.55 447.85 Q 186.6 446.3 186.85 445.35 187.05 444.4 187.45 444.05 187.85 443.65 188.6 443.65 M 164 445.2 L 168.6 445.2 168.6 463.75 174.8 463.75 174.8 445.2 179.5 445.2 179.5 439.95 164 439.95 164 445.2 M 318.5 440.4 Q 317.3 439.95 315.5 439.95 L 305.8 439.95 305.8 463.75 312 463.75 312 454.2 313.65 454.2 314.6 454.35 Q 314.95 454.5 315.2 454.9 315.45 455.3 315.6 455.95 L 315.75 461.4 316.25 463.75 322.85 463.75 322.85 463.45 322.4 463.05 322.15 462.65 321.95 462.1 321.9 457.35 Q 321.9 456.15 321.65 455.2 321.5 454.25 321.05 453.55 320.2 452.2 317.95 452 L 317.95 451.95 Q 320.15 451.65 321.05 450.15 322 448.65 322 446.3 322 444.9 321.7 443.7 321.35 442.6 320.55 441.75 319.75 440.9 318.5 440.4 M 313.2 444.4 Q 314.6 444.4 315.2 445 315.85 445.65 315.85 447.2 315.85 448.45 315.2 449.2 314.6 450 313.25 450 L 312 450 312 444.4 313.2 444.4 M 65.3 301.6 L 65.75 301.6 88.6 424.3 119.45 424.3 142.3 301.6 142.75 301.6 142.75 424.3 182.9 424.3 182.9 259.7 121.6 259.7 104.2 357.25 103.75 357.25 86.6 259.7 25.2 259.7 25.2 424.3 65.3 424.3 65.3 301.6 M 439.1 272 Q 433.7 266.15 425 262.85 416.45 259.7 404.2 259.7 L 337.1 259.7 337.1 424.3 380 424.3 380 358.35 391.25 358.35 397.9 359.35 Q 400.5 360.45 402.3 363.1 403.95 365.8 404.65 370.4 L 405.3 381.9 405.45 399.55 405.9 408 407.1 416.65 409.5 424.3 455.2 424.3 455.2 422.05 452.15 419.6 450.35 416.9 449.1 413.05 448.4 407.3 448.2 380.1 Q 448.2 371.75 446.75 365.25 445.4 358.65 442.5 353.95 436.7 344.5 421.35 343.15 L 421.35 342.7 Q 436.05 340.45 442.7 330.2 449.3 320.05 449.3 303.55 449.3 294.05 447 285.95 444.5 278 439.1 272 M 388.3 290.6 Q 398 290.6 402.3 294.95 406.55 299.35 406.55 309.7 406.55 318.5 402.15 323.9 397.8 329.3 388.55 329.3 L 380 329.3 380 290.6 388.3 290.6 Z"/>
<path fill="#D00022" stroke="none" d=" M 214.85 439.95 L 207.9 439.95 207.9 463.75 213.65 463.75 213.65 449.05 213.75 449.05 217.9 463.75 224.7 463.75 224.7 439.95 218.9 439.95 218.9 454.6 218.85 454.6 214.85 439.95 M 243.45 455.55 L 243.45 439.95 237.25 439.95 237.25 457.1 Q 237.25 458.85 236.75 459.4 236.25 460 235.4 460 234.55 460 234 459.4 233.55 458.85 233.55 457.1 L 233.55 439.95 227.35 439.95 227.35 455.55 Q 227.35 458.05 227.85 459.7 228.35 461.4 229.4 462.4 230.4 463.4 231.95 463.75 233.45 464.1 235.4 464.1 237.35 464.1 238.85 463.75 240.35 463.4 241.4 462.4 242.35 461.4 242.9 459.7 243.25 458.6 243.45 455.55 M 276.95 463.75 L 283.4 463.75 284.05 459.55 289 459.55 289.6 463.75 296.2 463.75 290.45 439.95 282.6 439.95 276.95 463.75 M 286.45 444.8 L 286.55 444.8 288.25 454.9 284.75 454.9 286.45 444.8 M 260.2 445 L 260.2 439.95 246.1 439.95 246.1 463.75 260.5 463.75 260.5 458.65 252.25 458.65 252.25 453.95 259.7 453.95 259.7 449.05 252.25 449.05 252.25 445 260.2 445 M 267.4 439.95 L 260.9 439.95 265.95 463.75 273.9 463.75 279.1 439.95 272.45 439.95 270 457.9 269.9 457.9 267.4 439.95 M 316.85 259.7 L 276.75 259.7 276.75 361.15 276.3 361.15 248.6 259.7 200.65 259.7 200.65 424.3 240.75 424.3 240.75 322.65 241.3 322.65 269.9 424.3 316.85 424.3 316.85 259.7 M 486.85 74.35 Q 486.85 68.35 486.75 66.15 486.65 61.2 486 57.85 484.3 48.7 478.8 47.9 478.25 48.55 477.35 49.25 476.3 50 475.75 50.4 473.8 51.9 473.3 53.55 472.7 66.95 472.7 67.15 472.15 70.05 471.3 76.35 470.45 82 469.45 85.5 466.55 95.55 460 97.55 454.25 99.25 444.95 95.55 441.85 94.3 437.95 92.25 434 90.15 432.65 89.45 431.75 89 421.4 83.4 414.7 79.8 410 77.8 396.55 72.15 381.5 72.15 L 371.65 72.15 Q 365.95 73.1 352.2 74.25 340.3 75.25 333.4 76.75 327 78.15 314.95 80.4 301.7 82.85 296.25 84 294.45 84.15 275.25 85.9 260.05 88.8 240.6 89.2 219.9 89.6 205.3 86.8 L 191.5 84 Q 189.35 83.2 186.55 81.75 183.35 80.05 181.7 79.15 175.55 75.9 171.4 75.05 167.35 74.15 163.45 74.8 160.95 75.25 156.8 76.8 152.5 78.4 150.4 78.85 146.65 79.6 143 78.95 139.85 78.3 136.95 75.8 135.4 74.3 134.6 73.6 133.2 72.25 132.05 71.5 130.45 70.95 125.5 69.1 L 124.85 69.3 Q 123.4 75.8 120.55 80.15 117 85.7 111.95 86.6 L 111.75 86.15 116.75 82.7 Q 117.5 81.8 118.75 79.7 120.25 77.35 121.3 74.95 124.4 68.3 122.9 65.8 120.95 62.55 113.55 66 111.2 67.1 108.2 68.95 105.35 70.7 104.75 71.05 L 104.55 71.05 104.55 70.85 Q 106.95 69.05 107.8 68.35 109.55 66.85 110.65 65.4 109.3 64.4 105.7 64.75 103.2 64.95 102.9 64.95 101.45 65.05 100.55 64.75 L 100.15 64.75 100.15 64.5 104.3 62.55 104.55 61.45 Q 103.35 60.75 101.45 59.25 99.5 57.55 98.4 56.85 95.95 57.75 94.25 60.1 93.35 61.35 92.85 62 91.95 63.15 91 63.85 L 83.75 66.05 70.2 73.3 Q 66.2 75.75 62.8 79.95 60.8 82.45 56.9 88.15 55.55 89.95 53.3 92 52.8 92.55 49.25 95.6 44.1 100.1 42.25 103.65 L 42.7 106.25 42.7 106.7 Q 43.55 106.6 44.25 106.2 45.05 105.7 45.3 105.65 46.05 105.4 47.5 106.1 49.05 106.75 50.35 106.5 L 54.5 104.95 54.5 105.2 Q 53.05 107.95 50.55 110.4 49.85 110.3 48.75 109.8 46.9 109 46.65 108.9 44.15 107.95 42.7 108.85 37.55 113.1 46.4 123.55 47.9 123.5 50.85 122.8 54.6 121.9 55.6 121.8 58.25 121.35 59.9 121.8 61.9 122.35 62.75 124.15 L 63 125.5 62.55 125.7 Q 58.75 122.2 55.75 122.8 54.35 123.05 52.7 124.15 51.55 124.95 49.25 126.85 49.5 128.5 50.4 130.15 51.35 131.85 52.8 133.15 56.15 136.1 60.4 135.1 62.45 134.65 64.75 132.6 66.35 131.2 66.55 131.05 67.55 130.3 68.45 129.9 L 81.8 128.35 93.35 123.55 100.8 123.55 Q 103.95 122.85 106.35 121.05 108.65 119.35 110 116.75 L 111.05 116.5 Q 110.3 120.25 107.7 122.2 105.6 123.7 101.7 124.4 96.95 125 94.55 125.3 90.15 125.9 87.5 127.05 L 87.25 127.45 87.25 127.7 Q 89.75 128.3 93.75 127.85 95.95 127.55 100.15 126.85 109.35 125.5 113.35 131.1 116.85 136.1 115.85 145.65 L 116.3 145.8 Q 118.05 144.45 119.3 140.6 120.05 138.2 120.35 137.6 121 135.9 121.8 134.9 L 122.2 135.1 Q 122.7 139.65 118.25 146.45 116.4 149.3 114.25 151.6 112.1 153.85 110.45 154.8 L 101.7 157.2 Q 97.15 159.1 89.8 161.9 79.25 165.85 77.65 166.45 63.2 172.1 54.7 177.1 50.6 179.5 48.35 181.35 43.95 185.1 44.85 187.8 45.25 189.05 46.85 190.4 48.95 192.25 49.25 192.6 49.95 193.5 50.45 194.45 50.9 195.25 51.05 195.45 51.4 195.75 52.25 196 52.9 196.15 55.1 196.55 55.65 197.35 56.15 198.6 56.5 199.35 57.1 200.95 57.8 201.15 60.7 201.95 62.7 202.45 64.1 203.35 65.2 203.8 66.5 203.3 67.25 203 68.45 202.25 68.85 202.75 68.85 203.2 68.8 203.5 68.45 204.2 L 68.45 204.85 Q 71.6 204 74.9 201 77.15 198.85 80.6 194.65 84.9 189.3 86.15 187.95 89.3 184.45 92.05 183 93.05 182.5 94.7 181.95 96.65 181.3 98.4 181.15 103.05 180.55 103.4 183.2 101.15 186.3 95.8 189.65 95.15 190.1 91.3 192.35 88.6 193.95 87.05 195 82.05 198.55 74.9 204.25 63.4 213.55 63 213.8 58.25 217.5 56.2 219.35 52.5 222.7 50.35 225.85 49.65 226.9 48.65 229.65 47.6 232.6 46.9 235.85 45.05 244.3 46.85 247.7 47.45 248.85 48.6 249.5 49.3 249.85 51.2 250.55 51.7 250.9 52.4 252.7 53.05 254.2 54.05 254.5 54.9 254.65 55.7 254.65 56 254.6 56.95 254.35 58.4 254 59.55 254.9 L 63.45 252.75 66.9 253.15 Q 68.55 252.8 70.75 249.7 72.9 246.7 73.05 244.85 73.1 244.05 73 242.65 72.75 240.95 72.65 240.1 72.4 236.75 73.05 235.25 73.55 234 78.35 229.35 82.75 224.9 84.4 223.65 88.75 220.45 95.15 217.75 100.05 215.75 107.65 213.5 111.95 212.25 120.6 209.8 128 207.6 132.7 205.55 138.2 203.15 143.3 200.2 148.65 197.2 153.05 193.9 157.2 190.6 159.35 188.95 163.25 185.95 166.35 184.75 168.2 184.05 174.35 185.4 177.55 186.1 182.35 187.35 193.35 189.85 203.5 190.75 216.7 191.85 226.1 190 231.05 188.95 240.9 187.05 249.4 185.35 255.35 183.95 271.2 180.2 282.45 175.55 284.6 174.7 289.7 172.45 294.35 170.4 297.05 169.35 305.75 165.9 313.05 164.85 L 318.35 165.95 Q 321.95 166.7 324.1 167.75 325.95 168.7 327.15 170.15 327.8 171 329.25 173.45 330.75 176 332.1 177.75 334.55 180.95 338.7 183.85 342.65 186.65 346.95 188.25 348.6 188.9 351.85 189.45 356.15 190.25 357.2 190.55 360.15 191.25 361.8 192.4 363.85 193.75 364.45 195.9 365.4 199.35 362 202.45 361.25 203.05 359.05 204.65 357.4 205.9 356.8 206.6 353 211.4 353.9 217.7 354.75 223 358.55 227.8 362.2 232.5 367.9 232 372.95 231.55 378.4 227.2 383.55 223.2 386.9 217.55 390.45 211.65 390.45 206.85 L 391.15 206.85 Q 394.9 209.7 398.55 213.25 403.55 218.2 404.25 221 405.1 224.65 401.6 227.65 401.05 228.2 398.7 229.9 397 231.15 396.35 231.95 394.1 234.85 393.7 238.9 393.35 242.5 394.6 246.35 395.8 250.05 398.15 252.8 400.6 255.65 403.55 256.65 408.25 258.25 413.95 255.35 419.25 252.65 423.65 247.1 428.15 241.55 429.75 235.45 431.5 228.85 429.15 223.9 L 413.2 197.2 Q 412.55 195.75 411.9 193.5 411.15 191 410.8 189.85 409.4 185.6 407.05 183.9 405.05 182.4 400.6 181.35 398.2 180.85 397 180.6 394.9 180.1 393.5 179.5 389.3 177.75 385.1 173.1 381.8 169.45 378.9 164.4 377.4 161.95 377.3 157.35 377.15 154.15 377.75 148.15 378.45 140.6 378.55 138.35 378.8 132.9 378 129.45 375.95 120.6 374.3 115.5 371.95 108.4 368.8 103.45 367.6 101.55 363.7 97.55 360.2 94 359 91.4 361.1 87.5 374.65 87.4 379.85 87.35 385.4 88 390.5 88.5 393.5 89.2 400.85 91 411.1 96.7 412.4 97.4 419.7 101.65 425.05 104.8 428.6 106.55 438.9 111.8 447.55 113.1 458.6 114.8 469.8 110.85 477.9 108 482.6 96.8 486.85 86.8 486.85 74.35 M 70.85 89.9 Q 70.3 90.95 69.85 92 69.6 92.65 69.25 93.55 68.6 95.05 66.9 96.65 L 66.05 96.45 65.6 96.45 Q 65.85 95.8 66.4 95.15 67.15 94.4 67.35 94 66.65 92.75 66.6 92.6 66.3 91.75 66.3 90.5 67.4 89.4 69.5 88.6 70.6 88.15 73.25 87.25 L 74.35 87.25 74.55 87.7 Q 74.2 88.15 72.65 88.75 71.2 89.3 70.85 89.9 Z"/>
</g>
</defs>
<g transform="matrix( 1,0,0,1,0,0)">
<use xlink:href="#l0"/>
</g>
</svg>
