<svg xmlns="http://www.w3.org/2000/svg" xmlns:xlink="http://www.w3.org/1999/xlink" width="100%" height="100%" viewBox="0 0 512 512">
<defs>
<g id="l1">
<path fill="#DA0000" stroke="none" d="M 408.45 103.6 L 408.45 103.55 Q 378.63125 73.712109375 339.9 57.3 299.9109375 40.4005859375 256 40.4 212.15703125 40.401171875 172.05 57.3 L 172.05 57.3 172.05 57.35 Q 133.37109375 73.7251953125 103.55 103.55 L 103.5 103.6 Q 73.6751953125 133.42109375 57.3 172.1 L 57.25 172.1 57.25 172.1 Q 40.351171875 212.20703125 40.35 256.05 40.350390625 299.9072265625 57.25 339.95 L 57.3 339.95 Q 73.68359375 378.629296875 103.55 408.5 133.368359375 438.3154296875 172.05 454.7 L 172.05 454.7 172.05 454.7 Q 212.15703125 471.6486328125 256 471.65 299.9109375 471.6494140625 339.9 454.7 378.633984375 438.328515625 408.45 408.5 438.33203125 378.61796875 454.65 339.9 L 454.65 339.95 Q 471.5994140625 299.9072265625 471.6 256.05 471.5986328125 212.20703125 454.65 172.1 438.340234375 133.432421875 408.45 103.6 M 387.25 124.8 L 387.25 124.8 Q 412.9662109375 150.48359375 427 183.75 441.6015625 218.293359375 441.6 256.05 441.600390625 293.792578125 427 328.25 L 427 328.25 Q 416.7943359375 352.515625 400.35 372.7 L 139.3 111.65 Q 159.505859375 95.226953125 183.75 84.95 L 183.7 84.95 Q 218.243359375 70.3982421875 256 70.4 293.7884765625 70.39921875 328.2 84.95 361.552734375 99.080859375 387.2 124.8 L 387.25 124.8 M 84.9 183.75 L 84.9 183.8 Q 95.2048828125 159.48984375 111.7 139.25 L 372.8 400.35 Q 352.5400390625 416.7865234375 328.2 427.05 293.7884765625 441.65078125 256 441.65 218.243359375 441.6515625 183.7 427.05 L 183.75 427.1 Q 150.4322265625 412.984765625 124.75 387.3 99.0162109375 361.570703125 84.9 328.25 L 84.9 328.25 Q 70.3494140625 293.792578125 70.35 256.05 70.3482421875 218.293359375 84.9 183.75 Z"/>
</g>
</defs>
<g transform="matrix(1,0,0,1,0,0)">
<use xlink:href="#l1"/>
</g>
</svg>
