<svg xmlns="http://www.w3.org/2000/svg" xmlns:xlink="http://www.w3.org/1999/xlink" width="100%" height="100%" viewBox="0 0 1024 1024">
<!-- Vectorization by Rodrigo Polo https://github.com/rodrigopolo/logotipos-politicos -->
<defs>
<g id="rjmhmpp">
<path fill="#FF0100" stroke="none" d="M 820.35 836.6 Q 820.8 831.3 816.4 830.9 812.85 828.8 807.95 833.3 807.9 833.35 807.8 833.45 804.65 836.35 805.85 840.6 807.7 843.25 811.25 845.2 817.85 846.85 820.35 843.4 820.85 839.95 820.35 836.6 M 260.25 832.45 Q 259.1 833.9 259.15 835.05 257.5 847.85 255.7 860.55 250.7 895.2 244.5 928.8 243.25 936.45 249.5 939.65 L 256.45 941.55 Q 260.85 942.95 261.6 936.45 L 274.85 853.7 Q 277.2 839.35 274.85 831.65 269.3 823.7 263.7 828.2 L 260.25 832.45 M 279.9 816.7 Q 281.05 813.65 276.3 810.25 271.15 805.4 267.25 808.35 262.4 812.6 263.4 814.7 L 266.75 819.4 Q 269.95 823.85 274.3 822.2 277.8 820.2 279.9 816.7 M 339.35 784.55 Q 335.7 784.35 332.3 787.05 322.95 795.05 318.45 797.8 317.35 798.5 316.35 798.05 314.55 797.45 312.2 795.5 310 793.65 307.1 793 304.2 792.35 302.6 793.45 300.35 794.95 298.45 800.05 296.9 804.15 294.9 812.5 L 281.3 903.4 Q 280.85 906.75 279.95 913.3 279.15 918.95 278.95 922.8 278.75 925.15 279.85 927.5 280.95 929.75 283.05 931.5 286.45 934.35 292.15 928.2 L 301.55 904.95 Q 303.3 901.6 304.3 904.6 316.15 922.6 326.55 934.4 L 327.65 935.75 Q 327.75 935.95 328.15 936.3 333.65 943.15 338.65 946.5 343.6 949.75 347.9 949.5 353.4 947.95 354.15 943.4 354.9 938.8 350.9 930.65 350.25 929.55 350.2 928.75 350.15 927.85 350.85 927.5 351.4 927.25 352.6 927.9 353.9 928.6 356.5 930.65 368.5 935 377.55 927.15 386.1 919.2 391.65 910.45 393.2 907.1 395.4 910 398.2 915.75 401.95 919 406.5 922.95 412.75 923.6 416.85 924.05 426 922.2 433.75 920.65 442.55 918.05 445.65 917.15 451.05 915.65 455.55 914.3 458.8 912.85 467.1 909.15 477.25 900.1 477.45 899.9 477.6 899.8 478.3 897.6 478.95 897.3 482.2 895.55 481.1 900.65 478.4 918.3 478.35 931.65 L 478.5 932.2 Q 482.1 943.1 495.2 932.05 L 495.25 932.05 Q 500.55 927 502 916.85 502.7 906.8 509.05 901.9 533.9 888.2 547.5 859.25 L 550.1 853.75 Q 550.95 852.15 551.95 852.25 552.95 852.35 552.85 861.5 552.8 870.65 556.55 880.95 560.15 890.8 568.4 893 568.7 893.05 569.1 893.1 589.55 896.45 608.4 852 620.8 814.3 613.75 792.25 610.35 785.3 604.6 782.5 598.5 779.6 590.5 781.8 583.4 783.8 574.65 796.85 573.65 798.4 572.6 800.1 572.45 800.3 572.35 800.5 L 564.4 811.8 Q 562.6 814 561.3 811.5 548.4 791.2 531 800.7 523.65 804.15 519.75 798.7 513.85 792.5 510.15 797.5 510.05 797.55 510.05 797.6 500.25 808.2 498.35 822.15 L 487.45 870.15 Q 486.95 872.45 485.95 872.65 484.95 872.85 484.65 870.5 485.25 866.75 482 862.85 478.8 859 472.2 855.35 L 466.55 853.25 Q 464.8 852.3 464.7 851.05 464.65 849.8 466.45 848.7 492.25 825.7 481.7 814.15 474.25 801.7 448.25 809.85 420.3 819.75 407.9 838 400.25 847.5 404.7 859.25 408.55 864.95 415.6 867.9 422.05 870 413.75 875.3 L 400.15 888.25 Q 396.9 889.9 396.95 886.75 397.05 880.45 393.25 879.15 387.6 875.25 384.4 880.5 381.85 882.75 379.85 885.5 L 373.1 900.4 364.6 908.75 Q 362.35 908.7 361.35 908 360.25 907.2 360.35 905.45 L 360.35 899.75 Q 359 894.45 362.35 890.25 365.35 885.6 370.65 882.7 389.3 870.25 395.45 853.25 399.75 840.25 398.5 831.5 397.2 822.7 390.45 818.55 374.15 811.35 357.4 837 341.65 861.5 339.45 885.5 338.95 891.05 339.15 895.9 339.35 902.85 341 908.35 341.05 910.35 340.85 912.2 341.2 914.1 340 914.1 338.9 914.15 337.4 912.25 332.8 905.5 326.25 897.55 321.7 891.95 321.25 887.05 320.8 881.9 324.65 876.1 330.15 868.95 334.7 860.45 338.7 852.85 342.35 843.6 349.5 827.75 350.15 814.3 350.8 800.5 344.7 789 341.65 785.1 339.35 784.55 M 573.65 834.7 Q 577.25 826.25 582.25 818.2 586.2 812.35 591.4 809.4 L 594.05 805.65 Q 596 804.85 596.8 806.85 601.65 818.35 594.15 840.55 588.95 860.2 582.7 868.25 L 575.5 871.85 Q 573.1 874.55 570.95 870.95 568.85 867.5 568.05 859.9 567.5 855.1 569.6 847.8 572.4 839.25 573.65 834.7 M 537 823.35 Q 538.95 821.65 539.65 822.35 540.35 823.1 539.7 826.35 537.2 839 531.15 850.55 524.7 862.95 515.35 871.85 513 874.05 512.2 873.45 511.35 872.9 511.9 868.95 515.6 855.15 521.25 844.2 528.05 831.05 537 823.35 M 463.85 828.55 L 456.1 836.15 Q 451.2 841.45 452.1 847.05 451.7 849.8 449.05 849.95 444.35 850.25 440.25 851.15 433.65 853.05 428.2 849.75 422.45 847.1 437.8 837.8 L 460.2 825.55 Q 462.35 824.65 463.7 825.5 465.15 826.4 463.85 828.55 M 442.3 881.05 Q 445.55 877.1 441.8 874.05 L 439.85 872.6 Q 437.15 869.55 440.75 869.05 451.95 872.7 463.8 874.55 468.75 874.9 466.15 878.5 465.9 878.85 465.6 879.2 L 457.25 888.4 Q 448.3 895.35 435.6 900.85 423.45 906.1 415.4 907 412.1 907.35 412.2 905.8 412.35 904.4 415.4 902.45 L 435.25 887.7 Q 435.35 887.6 435.4 887.55 439 884.3 442.3 881.05 M 327.6 821.55 Q 329.4 819.7 330.15 820.35 330.9 821 330.5 824.35 327.35 849.65 309.7 869.05 307.55 871.45 306.7 870.9 305.85 870.4 306.05 866.45 311.6 837.55 327.6 821.55 M 363.55 870.55 Q 363.1 871.05 362.65 871.55 361.6 872.8 360.45 871.7 359.3 870.55 360.1 868.85 361.2 866.35 366.95 858.75 372.6 851.35 375.65 848.25 378.05 845.75 379.55 846.9 380.1 847.35 380.2 848.15 380.3 848.95 379.85 849.6 379.7 849.9 379.5 850.15 379.25 850.8 378.85 851.5 376.55 854.85 371.9 860.65 369.35 863.75 364.5 869.55 364 870.1 363.55 870.55 M 851.25 724.5 Q 851.6 719.95 850.8 717.8 849.9 715.5 847.3 715.15 L 837.25 713.4 Q 835.2 713.3 834.8 716.65 L 829.25 736.45 812.95 811.9 812.9 819.85 Q 813.35 822 815.65 823.4 817.55 824.6 820.3 825.05 826.9 823.7 830.6 810.1 L 851.25 724.5 M 683.45 774.2 Q 678.15 769.8 669.05 781.25 L 668 782.6 Q 656.1 794.1 648.95 808.15 645.65 812.4 645.5 806.25 L 645.5 785.3 Q 644.95 781.35 642.05 777.4 640.15 773.75 636.35 777.4 L 631.55 780.45 Q 628.85 783.65 627.95 788 L 609.1 865.85 Q 609.3 870.95 611.9 873.7 611.45 878 616.1 877.3 621.45 875.6 624.25 873.85 627.15 872 629 869 L 632 862.8 653.95 831.45 Q 655.95 826.5 658.55 829.55 L 653.55 860.9 Q 651.6 866.25 653.55 871.65 653.95 873 654.5 874.05 655.35 879.05 659.25 876.5 667.2 873.9 670.9 858.9 L 671.9 851.45 Q 672.8 847.85 674.5 851.45 L 679.15 864.9 Q 683.9 870.6 691.75 869.8 703.5 866.5 715 858.4 717.9 855.95 720.4 859.1 L 729.05 870.8 Q 739.65 857.2 740.15 842.9 740.45 841.6 741.35 841.3 742.25 841 742.55 842.25 745.35 853.8 759.25 858.2 770.5 861.45 785.15 848.7 796 835.65 800.75 818.7 800.75 818.65 800.75 818.55 801.6 812.3 798 810.5 795.3 808.05 792.8 807.75 790.15 807.45 788.3 809.7 787.25 810.45 786.05 812.1 784.45 814.35 784 814.8 L 777.9 826.1 Q 772.7 831.95 767.45 834.1 765.8 834.95 763.45 831.75 761.1 828.05 766.4 819.3 772.75 813.75 781.05 809.95 L 786.95 804.25 Q 787 804.15 787.1 804.1 790.05 801.7 792.7 798.95 798.95 792.35 803.25 783.75 809 771.15 809.15 762.95 809.2 754.3 803.1 749.2 787.75 739.55 768.35 762.55 762.6 769.45 758.2 776.55 L 747.85 791.9 Q 744.65 793.7 746.15 788.35 L 749.25 777.8 756.95 738.7 Q 758.05 733.8 754.4 728.9 753.4 728.15 752.05 728.35 746.45 729.5 742.55 732.65 741.75 733.65 741.3 735.2 L 733.35 759.55 Q 733.1 763.15 729.65 765.4 L 719 769.15 Q 698.4 781 681.95 817.3 680 820.2 680.35 813.65 L 685.15 790.35 Q 687.75 777.55 683.45 774.2 M 787.8 780.2 Q 785.15 783.2 779.85 788.3 777 791 771.55 796 768.9 798.2 767.65 797.65 L 767.55 797.65 767.6 797.6 Q 767.4 795.15 769.45 792 771.5 789.6 775.4 785.65 781.1 779.85 784.35 777.15 787 775.45 789.05 775.85 789.9 777.3 787.8 780.2 M 716.15 821 Q 710.7 831.55 705.7 838.45 701.55 844.1 697.7 848.6 695.85 850.95 694.4 849.6 693 847.85 692.9 842.8 693.9 834.45 697.15 825.65 700.45 816.7 705.35 809.3 L 717 796.7 Q 721.55 792.05 723.25 791.55 724.9 791 724.7 794.05 724.3 800.15 721.5 807.9 721.35 808.25 716.15 821 Z"/>
<path fill="#003399" stroke="none" d="M 682.95 382.15 L 709.45 276.15 891.45 276.15 566.45 74.55 132.6 276.15 314.55 276.15 204.75 712.25 599.9 712.25 624.4 614.7 701.9 614.7 719.25 540.3 719.5 540.1 724.15 513.35 763.8 614.7 837.55 614.7 891.45 382.15 812.35 382.15 795 457.2 795 457.45 790.3 483.95 750.65 382.15 682.95 382.15 M 687.65 395.55 L 741.55 395.55 795 533.15 808.15 459.9 807.9 460.1 823.05 395.55 874.75 395.55 827.05 601.35 772.95 601.35 719.25 464.15 706.35 537.65 706.35 537.2 691.4 601.35 639.75 601.35 687.65 395.55 M 365.8 393.75 L 453.3 393.75 Q 491.4 393.75 506.35 412.9 520.6 430.95 511.9 463.9 502.55 498.65 479.6 517.35 455.1 537.2 417 537.2 L 386.95 537.2 369.6 602 310.1 602 365.8 393.75 M 564.9 393.75 L 625.5 393.75 634.4 595.3 632.85 602 575.6 602 575.8 574.6 516.6 574.6 502.3 602 444.2 602 564.9 393.75 M 577.15 531.15 L 577.85 456.55 539.5 531.15 577.15 531.15 M 429.25 442.3 L 412.35 442.3 399.85 488.65 424.6 488.65 Q 448.4 488.65 455.1 464.35 460.9 442.3 429.25 442.3 Z"/>
<path fill="#FFFF33" stroke="none" d="M 625.5 393.75 L 564.9 393.75 444.2 602 502.3 602 516.6 574.6 575.8 574.6 575.6 602 632.85 602 634.4 595.3 625.5 393.75 M 577.85 456.55 L 577.15 531.15 539.5 531.15 577.85 456.55 M 453.3 393.75 L 365.8 393.75 310.1 602 369.6 602 386.95 537.2 417 537.2 Q 455.1 537.2 479.6 517.35 502.55 498.65 511.9 463.9 520.6 430.95 506.35 412.9 491.4 393.75 453.3 393.75 M 412.35 442.3 L 429.25 442.3 Q 460.9 442.3 455.1 464.35 448.4 488.65 424.6 488.65 L 399.85 488.65 412.35 442.3 M 741.55 395.55 L 687.65 395.55 639.75 601.35 691.4 601.35 706.35 537.2 706.35 537.65 719.25 464.15 772.95 601.35 827.05 601.35 874.75 395.55 823.05 395.55 807.9 460.1 808.15 459.9 795 533.15 741.55 395.55 Z"/>
</g>
</defs>
<g transform="matrix(1,0,0,1,0,0)">
<use xlink:href="#rjmhmpp"/>
</g>
</svg>
