<svg xmlns="http://www.w3.org/2000/svg" xmlns:xlink="http://www.w3.org/1999/xlink" width="100%" height="100%" viewBox="0 0 512 512">
<defs>
<g id="l1">
<path fill="#003395" stroke="none" d=" M 435.8 296.55 L 435.8 296.7 432.85 313.55 407.65 248.85 364.65 248.85 381.45 181.45 497.1 181.45 290.6 53.35 14.85 181.45 130.5 181.45 60.75 458.6 311.85 458.6 327.4 396.6 376.65 396.6 387.7 349.35 387.85 349.2 390.8 332.2 416 396.6 462.85 396.6 497.1 248.85 446.85 248.85 435.8 296.55 Z"/>
</g>
<g id="l0">
<path fill="#FFFF54" stroke="none" d=" M 218.7 256.2 L 163.05 256.2 127.7 388.55 165.45 388.55 176.5 347.35 195.6 347.35 Q 219.85 347.35 235.4 334.75 250 322.85 255.9 300.8 261.45 279.85 252.4 268.4 242.9 256.2 218.7 256.2 M 192.65 287.05 L 203.4 287.05 Q 223.5 287.05 219.85 301.05 215.6 316.5 200.45 316.5 L 184.7 316.5 192.65 287.05 M 333.9 388.55 L 328.1 256.2 289.6 256.2 212.9 388.55 249.85 388.55 258.9 371.15 296.55 371.15 296.4 388.55 333.9 388.55 M 297.4 343.55 L 273.45 343.55 297.8 296.1 297.4 343.55 M 401.85 257.35 L 367.6 257.35 337.15 388.1 370 388.1 379.5 347.35 379.5 347.65 387.7 300.95 421.8 388.1 456.2 388.1 486.5 257.35 453.65 257.35 444.05 298.4 444.15 298.25 435.8 344.8 401.85 257.35 Z"/>
</g>
</defs>
<g transform="matrix(1,0,0,1,0,0)">
<use xlink:href="#l1"/>
</g>
<g transform="matrix(1,0,0,1,0,0)">
<use xlink:href="#l0"/>
</g>
</svg> 