<svg xmlns="http://www.w3.org/2000/svg" xmlns:xlink="http://www.w3.org/1999/xlink" width="100%" height="100%" viewBox="0 0 512 512">
<defs>
<g id="l2">
<path fill="#1564A3" stroke="none" d=" M 402.35 430.5 L 402.35 413.7 353.75 413.7 353.75 430.5 366.9 430.5 366.9 497.55 389.1 497.55 389.1 430.5 402.35 430.5 M 441.65 413.7 L 409.55 413.7 398.25 497.55 421.2 497.55 422.5 482.45 430.45 482.45 431.6 497.55 454.35 497.55 441.65 413.7 M 429.9 467.6 L 422.25 467.6 Q 423.15 455.85 426.55 432.4 428.1 452.75 429.9 467.6 M 128.75 482.45 L 136.6 482.45 137.85 497.55 160.55 497.55 147.85 413.7 115.75 413.7 104.35 497.55 127.35 497.55 128.75 482.45 M 136.05 467.6 L 128.4 467.6 Q 129.3 455.85 132.65 432.4 134.3 452.4 136.05 467.6 M 105.5 444.45 L 105.5 437.15 Q 105.5 429.1 104.7 425.5 103.85 421.8 101.3 419.2 98.95 416.65 94 415.1 88.95 413.7 80.1 413.7 L 57.7 413.7 57.7 497.55 79.9 497.55 79.9 463.8 85.8 463.8 Q 93.1 463.8 97.65 461.85 102.15 459.9 103.85 456.2 105.5 452.4 105.5 444.45 M 86.95 434.95 L 86.95 441.85 Q 86.95 446.5 85.75 448 84.65 449.45 81.55 449.45 L 79.9 449.35 79.9 428.05 Q 84.25 428.05 85.55 429.35 86.95 430.6 86.95 434.95 M 203.3 430.5 L 203.3 413.7 154.75 413.7 154.75 430.5 167.85 430.5 167.85 497.55 190.1 497.55 190.1 430.5 203.3 430.5 M 289.2 413.7 L 266.95 413.7 266.95 497.55 289.2 497.55 289.2 413.7 M 258.2 436.6 Q 258.2 426 254.65 421 251.05 416 245.55 414.9 240.05 413.7 224.3 413.7 L 208.55 413.7 208.55 497.55 230.8 497.55 230.8 459.7 Q 235.3 459.7 236.45 461.35 237.5 462.9 237.5 469.7 L 237.5 497.55 258.2 497.55 258.2 475.45 Q 258.2 465.7 257.6 463 256.95 460.7 254.8 458.05 252.55 455.45 245.9 453.8 253.2 453.05 255.65 449.8 258.2 446.4 258.2 436.6 M 230.8 428.05 Q 234.65 428.05 236.1 429.25 237.5 430.5 237.5 434.5 L 237.5 439.1 Q 237.5 444.7 236.05 445.7 234.55 446.65 230.8 446.65 L 230.8 428.05 M 310.7 414.25 Q 305.3 416.65 302.1 421 298.95 425.25 298.3 430.6 297.65 436.1 297.65 448.45 L 297.65 462.85 Q 297.65 475.3 298.3 480.95 298.95 486.2 302.25 490.5 305.5 494.9 311 497.1 316.6 499.35 323.4 499.35 330.55 499.35 336.05 496.95 341.45 494.65 344.65 490.3 347.75 485.95 348.45 480.7 349.1 475.05 349.1 462.85 L 349.1 448.45 Q 349.1 435.85 348.45 430.35 347.85 425.15 344.5 420.75 341.3 416.5 335.7 414.2 330.2 411.95 323.4 411.95 316 411.95 310.7 414.25 M 320.8 427.45 Q 321.75 426.15 323.5 426.15 325.6 426.15 326.2 427.8 326.85 429.5 326.85 435.25 L 326.85 473.75 Q 326.85 481.45 326.2 483.15 325.6 485.15 323.35 485.15 321.05 485.15 320.55 483.4 319.9 481.6 319.9 474.4 L 319.9 435.25 Q 319.9 428.85 320.8 427.45 M 176.95 326.25 L 148.5 326.25 138.5 403.25 158.85 403.25 160.05 389.4 167.05 389.4 168.1 403.25 188.3 403.25 176.95 326.25 M 163.6 343.4 Q 165.05 362.4 166.55 375.8 L 159.75 375.8 Q 160.7 363.95 163.6 343.4 M 307.55 326.25 L 287.9 326.25 287.9 403.25 307.55 403.25 307.55 326.25 M 240.2 326.25 L 240.2 341.65 251.85 341.65 251.85 403.25 271.55 403.25 271.55 341.65 283.2 341.65 283.2 326.25 240.2 326.25 M 224.65 327.3 Q 219.8 326.25 205.75 326.25 L 191.8 326.25 191.8 403.25 211.5 403.25 211.5 368.55 Q 215.6 368.55 216.5 369.95 217.5 371.45 217.5 377.65 L 217.5 403.25 235.7 403.25 235.7 382.9 Q 235.7 373.65 235.2 371.5 234.9 369.65 232.75 367 230.8 364.55 224.9 363.05 231.35 362.5 233.55 359.4 235.7 356.25 235.7 347.25 235.7 337.4 232.65 332.9 229.4 328.35 224.65 327.3 M 216.2 340.5 Q 217.5 341.8 217.5 345.35 L 217.5 349.6 Q 217.5 354.7 216.1 355.6 214.95 356.5 211.5 356.5 L 211.5 339.45 Q 214.85 339.45 216.2 340.5 M 135.8 331.25 Q 133.55 328.75 129.3 327.55 125.1 326.25 116.9 326.25 L 97.05 326.25 97.05 403.25 116.75 403.25 116.75 372.25 122.1 372.25 Q 128.4 372.25 132.5 370.45 136.6 368.55 138 365.2 139.45 361.9 139.45 354.45 L 139.45 347.8 Q 139.45 340.5 138.75 337.05 138 333.7 135.8 331.25 M 121.85 340.6 Q 123.05 341.8 123.05 345.75 L 123.05 352.05 Q 123.05 356.25 122 357.75 120.95 359.05 118.25 359.05 L 116.75 359.05 116.75 339.45 Q 120.7 339.45 121.85 340.6 M 349.75 327.55 Q 344.8 326.25 330.4 326.25 L 315.7 326.25 315.7 403.25 340.55 403.25 Q 347.75 403.25 351.05 402.45 354.65 401.7 356.95 399.75 359.25 397.85 360.35 394.25 361.3 390.8 361.3 380.4 L 361.3 353.4 Q 361.3 342.8 360.65 338.7 359.9 334.85 357.35 331.95 354.85 328.95 349.75 327.55 M 335.4 339.45 Q 338.75 339.45 339.75 340.1 340.95 340.85 341.3 342.25 341.6 344.2 341.6 348.95 L 341.6 378.9 Q 341.6 386.6 340.65 388.35 339.65 390.05 335.4 390.05 L 335.4 339.45 M 391 324.6 Q 384.75 324.6 379.75 326.7 375 328.95 372.15 332.9 369.45 336.8 368.8 341.75 368.3 346.6 368.3 358.15 L 368.3 371.35 Q 368.3 383.5 368.85 388 369.35 392.75 372.3 396.8 375.25 400.9 380.1 402.85 385.25 404.9 391 404.9 397.5 404.9 402.25 402.7 407 400.65 409.9 396.6 412.75 392.5 413.25 387.75 413.8 383.25 413.8 371.35 L 413.8 358.15 Q 413.8 346 413.25 341.5 412.65 336.75 409.7 332.7 406.7 328.55 401.9 326.65 397.25 324.6 391 324.6 M 393.55 339.1 Q 394.15 340.6 394.15 346 L 394.15 381.45 Q 394.15 388.35 393.55 390.05 393.05 391.85 391 391.85 389.1 391.85 388.45 390.3 387.95 388.75 387.95 382 L 387.95 346 Q 387.95 340 388.8 338.85 389.55 337.65 391.1 337.65 393 337.65 393.55 339.1 Z"/>
</g>
<g id="l1">
<path fill="#FFF" stroke="none" d=" M 407.85 165.1 Q 407.85 134.1 395.85 105.85 384.3 78.45 363.2 57.4 342.1 36.3 314.8 24.8 286.5 12.75 255.5 12.75 224.45 12.75 196.25 24.8 168.85 36.3 147.75 57.4 126.7 78.45 115.2 105.85 103.15 134.1 103.15 165.1 103.15 196.1 115.2 224.4 126.7 251.75 147.75 272.8 168.85 293.9 196.25 305.45 224.45 317.45 255.5 317.45 286.5 317.45 314.8 305.45 342.1 293.9 363.2 272.8 384.3 251.75 395.85 224.4 407.85 196.1 407.85 165.1 M 391.35 107.75 Q 402.9 135.1 402.9 165.1 402.9 195.15 391.35 222.55 380.2 248.95 359.75 269.4 339.3 289.8 312.9 300.95 285.5 312.55 255.5 312.55 225.45 312.55 198.15 300.95 171.65 289.8 151.2 269.4 130.8 248.95 119.7 222.55 108.05 195.15 108.05 165.1 108.05 135.1 119.7 107.75 130.8 81.25 151.2 60.85 171.65 40.4 198.15 29.35 225.45 17.7 255.5 17.7 285.5 17.7 312.9 29.35 339.3 40.4 359.75 60.85 380.2 81.25 391.35 107.75 M 377.7 113.5 L 377.7 113.6 Q 367.65 89.7 349.25 71.35 330.85 52.95 307.1 42.95 282.4 32.35 255.5 32.35 228.5 32.35 203.8 42.95 180 52.95 161.55 71.35 143.25 89.7 133.15 113.6 122.65 138.2 122.65 165.2 122.65 192.1 133.15 216.85 143.25 240.6 161.55 259.05 L 161.55 259.1 Q 180 277.35 203.7 287.5 L 203.8 287.5 Q 228.5 297.95 255.5 297.95 282.4 297.95 307.1 287.5 330.85 277.35 349.25 259.1 L 349.35 259.05 Q 367.65 240.6 377.7 216.85 388.2 192.1 388.2 165.2 388.2 138.2 377.7 113.5 M 373.2 115.45 Q 383.3 139.2 383.3 165.2 383.3 191.1 373.2 215 363.55 237.8 345.8 255.6 328.1 273.25 305.2 283 281.4 293 255.5 293 229.45 293 205.7 283 182.8 273.25 165.05 255.6 L 165 255.6 Q 147.35 237.8 137.65 214.9 L 137.65 215 Q 127.6 191.1 127.6 165.2 127.6 139.2 137.65 115.45 147.35 92.5 165 74.85 L 165.05 74.8 Q 182.8 57.05 205.7 47.45 229.45 37.3 255.5 37.3 281.4 37.3 305.1 47.45 L 305.2 47.45 Q 328.1 57.05 345.8 74.8 363.55 92.5 373.2 115.45 Z"/>
<path fill="#F47D31" stroke="none" d=" M 402.9 165.1 Q 402.9 135.1 391.35 107.75 380.2 81.25 359.75 60.85 339.3 40.4 312.9 29.35 285.5 17.7 255.5 17.7 225.45 17.7 198.15 29.35 171.65 40.4 151.2 60.85 130.8 81.25 119.7 107.75 108.05 135.1 108.05 165.1 108.05 195.15 119.7 222.55 130.8 248.95 151.2 269.4 171.65 289.8 198.15 300.95 225.45 312.55 255.5 312.55 285.5 312.55 312.9 300.95 339.3 289.8 359.75 269.4 380.2 248.95 391.35 222.55 402.9 195.15 402.9 165.1 M 377.7 113.6 L 377.7 113.5 Q 388.2 138.2 388.2 165.2 388.2 192.1 377.7 216.85 367.65 240.6 349.35 259.05 L 349.25 259.1 Q 330.85 277.35 307.1 287.5 282.4 297.95 255.5 297.95 228.5 297.95 203.8 287.5 L 203.7 287.5 Q 180 277.35 161.55 259.1 L 161.55 259.05 Q 143.25 240.6 133.15 216.85 122.65 192.1 122.65 165.2 122.65 138.2 133.15 113.6 143.25 89.7 161.55 71.35 180 52.95 203.8 42.95 228.5 32.35 255.5 32.35 282.4 32.35 307.1 42.95 330.85 52.95 349.25 71.35 367.65 89.7 377.7 113.6 M 383.3 165.2 Q 383.3 139.2 373.2 115.45 363.55 92.5 345.8 74.8 328.1 57.05 305.2 47.45 L 305.1 47.45 Q 281.4 37.3 255.5 37.3 229.45 37.3 205.7 47.45 182.8 57.05 165.05 74.8 L 165 74.85 Q 147.35 92.5 137.65 115.45 127.6 139.2 127.6 165.2 127.6 191.1 137.65 215 L 137.65 214.9 Q 147.35 237.8 165 255.6 L 165.05 255.6 Q 182.8 273.25 205.7 283 229.45 293 255.5 293 281.4 293 305.2 283 328.1 273.25 345.8 255.6 363.55 237.8 373.2 215 383.3 191.1 383.3 165.2 Z"/>
</g>
<g id="l0">
<path fill="#FFF" stroke="none" d=" M 348.2 95.55 Q 347.75 96.25 347.35 96.95 L 345.7 99.45 Q 345 100.55 344.75 100.95 343.65 102.35 342.6 103.5 L 340.45 105.4 Q 340.4 105.4 340.3 105.45 339.1 115.9 344.4 123.1 347.55 127.2 355.15 134.15 349.25 132.45 345.25 127.8 341.85 123.9 339.3 117.35 337.95 124 342.85 130.9 343.1 131.2 352.1 141.05 339.65 137.6 337.35 121.3 332.85 125.4 330.55 127.35 326.45 131 322.5 132.2 321.45 135.15 318.8 141.4 313.3 154.45 312.35 161.5 310.6 173.15 316.5 182.65 312.15 179.65 310.45 171.75 308.7 163.95 310.6 156.9 309.2 157.15 303.45 159.7 299.3 161.6 294.8 160.9 289.45 176.75 288.6 178.5 284.45 187.75 277.95 191.5 278.45 215.5 268.05 225.25 268.1 224.9 268.3 224.65 268.35 224.5 268.45 224.35 271.5 216.45 273.2 211.85 273.35 211.15 273.6 210.45 273.95 209.55 274.25 208.65 276.15 202.35 276.15 195.95 276.15 194.3 276 192.6 274.2 192.1 272.55 191.45 267.6 189.7 264.2 187.35 250.7 178.4 252.2 157.9 250.55 156.9 245.8 156.4 240.95 156 239.3 154.95 236.3 163.95 233.5 167.4 228.9 173 220.55 172.75 228.5 168.7 231.05 166.4 235.95 162 236.35 154.95 235.15 153.85 231.7 152.05 231.6640625 152.0328125 231.6 152 231.0375 151.75 230.45 151.45 229.7890625 151.1703125 229.05 150.85 224.2 148.55 222.5 146.05 216.75 152.55 209.05 155.75 199.3 159.75 190.85 155.9 201.9 155.35 207.5 153.8 216.45 151.25 219.55 145.1 208.3 142.45 203.2 140.55 194.45 137.35 192.9 130.25 196.15 132.45 201.9 137.55 207.5 141.4 214.6 141.05 215.05 138.85 210.85 134.25 206.5 129.35 206.65 125.25 217.75 139.65 224.2 144.85 235.7 154.05 251.2 154.95 252.85 153.85 252.95 150.75 253.1 146.9 254.15 145.1 254.25 162.5 255.3 168.9 257.55 181.85 264.9 186.2 266.65 187.15 268.05 187.6 270.8 182.8 275.4 172.15 280.5 164.1 290.85 164.85 294.35 155.6 294.8 139.1 293.55 139 287.55 142.05 284.7 143.45 282.05 144 279.45 144.5 276.95 144.1 277.05 144.1 277.05 144 L 276.95 144 Q 279.75 141.8 288.8 139.1 291.25 137.95 292.55 136.3 293.8 134.65 293.8 132.55 293.8 130.8 293.05 128.85 L 292.8 128.2 Q 291.8 127.7 288.8 129.4 288.3625 129.6 287.9 129.8 287.5 130.025 287.05 130.3 285.75 131.05 284.5 131.45 L 282.3 131.9 Q 281 131.9 279.95 131.2 280.9 130 285.4 128.75 289.3 127.6 289.85 125.25 287.05 116.3 278.05 119.35 270.4 121.85 266.05 128.2 268.95 118.5 279.95 116.35 255.55 102.2 243.65 97 220.2 86.85 199.75 86.65 177.3 86.45 174.2 103.25 173.05 109.55 174 121.2 174.6 128 176 143.05 176.55 151.05 175 162.7 173.1 177 173.05 178.7 172.55 192.5 181.8 217.2 191.9 244.05 192.9 257.9 194.05 273.65 190 294.3 187.7 305.9 182.95 327.15 183.45 325.5 218.4 324.35 253.5 323.2 303.65 323.2 301.5 299.3 301.4 284.45 301.35 263.3 304.85 249.05 308.8 233.2 317.5 224.25 320.7 220.95 327.85 216.2 335.4 211.2 338.35 208.4 353.1 194.25 362.05 169.3 364.85 161.4 369 146.65 373.85 129.75 376.15 122.85 L 384.85 100.55 Q 376.75 104.95 365 102.9 354.35 101.05 348.2 95.55 M 196.15 193.4 Q 183.95 189.7 181 181.7 188.95 188.15 196.35 190.8 206.6 194.4 217.6 191.5 208.7 197.1 196.15 193.4 M 294.8 220.25 L 296.75 220.25 Q 287.55 233.95 261.2 237.3 236.05 240.5 216.6 232.15 221.1 231.9 234.4 234.5 247.1 236.95 257.2 236.05 268.3 235.1 278.45 230.65 287.8 226.55 294.8 220.25 M 291.4 235.5 Q 291.65 235.9 291.8 237.05 285.35 242.9 275.75 245.6 264.9 248.55 254.15 246 272.15 244.05 274.85 243.35 285.65 241.05 289.85 235.1 290.9 234.85 291.4 235.5 M 276.8 173.55 Q 273.6 178.3 272.05 188.55 280.85 188.8 284.95 181.7 286.25 179.2 289.85 166.85 281.1 167.05 276.8 173.55 M 316.5 88.65 Q 309.7 87.15 304.7 93.05 303.3 94.65 297.75 104.5 297.5 96.7 302.65 92.1 304.8 90.3 313.55 85.7 283.2 75 263.75 69.6 228.25 59.7 206.65 61.9 197.05 62.9 192.15 69.55 187.65 75.7 187.9 85.7 197.3 84.05 205.7 84.7 223.25 86 248.2 95.85 273.35 105.7 285.85 116.35 291.65 121.3 294.35 128.35 299.35 141.05 294.8 158.85 310.7 157.65 317.9 141.15 320.95 134.25 322.6 124.15 323.65 117.45 324.45 106.45 321.6 112.85 313.65 116.45 304.95 120.3 297.75 116.35 311.2 120.55 319.8 109.4 323.25 104.9 323.8 99.8 324.45 94.65 321.7 91.5 319.95 89.4 316.5 88.65 M 315.3 104.95 Q 309.2 109.5 304.7 107.45 307.1 105.95 312.75 103.65 317.25 101.2 317.5 96.5 321.35 100.3 315.3 104.95 M 334.4 80.75 Q 332.6 67.4 332.35 62.9 325.45 68.45 321.6 71.15 314.8 76 308.65 74.8 320.45 72 326.7 63.6 334.05 53.95 324.45 45.1 312.9 43.1 301.65 56.95 303.05 50.4 308.7 46.7 313.15 43.85 321.45 42.15 316.75 40.5 310.35 40.5 307.5 40.5 299.7 41.15 289.85 41.95 273.55 41 247.5 39.5 246.95 39.5 231.3 39 222.4 41.2 211.35 44.1 207.15 51.8 205.35 55.25 204.7 59.95 205.25 59.95 205.95 59.95 206.25 59.95 206.5 59.95 206.85 59.95 207.05 59.95 207.65 59.95 208.2 60 L 241.2 63.15 Q 241.7 63.2 242.25 63.3 242.7 63.35 243.15 63.45 L 276.65 71.5 Q 277.3 71.65 277.95 71.8 297.15 77.3 303.7 79.85 316.1 84.8 321.75 91.45 326.95 97.5 327.65 106.05 328.6 115.3 324.45 128.2 337.05 123 336.3 100.3 336.1 93.4 334.4 80.75 M 314.3 55 Q 318.9 51.65 323.5 53.05 319.65 54.2 315.55 57.45 311.1 61.25 308.65 62.9 310.05 58.1 314.3 55 M 337.35 77.75 Q 337.6 83.4 342.75 89.05 347.7 94.4 355.25 98 372.9 106.35 384.85 98.55 391.9 93.9 393.95 83.65 394.6 80.25 395.7 60.9 388.95 45.5 371 46.45 354.15 47.45 343.6 60.25 336.85 68.3 337.35 77.75 M 351.15 70.85 Q 351.4 71.75 352.05 72.95 355.1 77.65 363.45 81.4 372.3 85.35 377.9 83.7 382.4 82.4 384.3 77 386.85 69.85 388.8 67.9 388.9 86.2 373.1 85.7 366.8 85.5 360.5 82 354.25 78.55 351.15 73.45 348.1 68.45 349.4 63.6 350.95 58.2 358.1 54 359.35 56.4 355.1 61.25 350.4 66.55 351.15 70.85 M 337.35 85.7 Q 337.5 88.5 338.2 93.75 338.65 98.65 338.35 102.5 341.45 102.25 343.2 99.9 344.35 98.25 345.25 94.55 344.1 92.85 341.3 90.1 338.4 87.35 337.35 85.7 M 342.3 50.1 Q 339 52.65 332.35 55 333 56.8 333.9 62.65 335.05 68.8 336.35 70.85 336.6 67.8 338.65 64.75 340 62.7 342.95 59.6 347.95 54.25 349.1 51.65 351.2 46.7 348.2 41.15 346.85 46.65 342.3 50.1 M 345.25 42.55 Q 350 32.6 340.3 28.25 336.95 29.15 334.15 33 330.4 38.35 329.4 39.15 328.25 34.8 333.4 30.4 337.95 26.55 336.35 25.3 L 335.8 25.2 Q 326.05 23.5 308.65 24.3 288.15 25.8 277.95 26.3 258.25 25.9 250.05 26.7 236.3 28.2 232.45 37.2 238 38.85 246.95 39.25 248.75 39.35 287.15 37.95 311.7 37.05 321.7 41.8 329.55 45.5 331.35 53.05 340.7 52.15 345.25 42.55 Z"/>
<path fill="#000" stroke="none" d=" M 291.8 237.05 Q 291.65 235.9 291.4 235.5 290.9 234.85 289.85 235.1 285.65 241.05 274.85 243.35 272.15 244.05 254.15 246 264.9 248.55 275.75 245.6 285.35 242.9 291.8 237.05 M 296.75 220.25 L 294.8 220.25 Q 287.8 226.55 278.45 230.65 268.3 235.1 257.2 236.05 247.1 236.95 234.4 234.5 221.1 231.9 216.6 232.15 236.05 240.5 261.2 237.3 287.55 233.95 296.75 220.25 M 181 181.7 Q 183.95 189.7 196.15 193.4 208.7 197.1 217.6 191.5 206.6 194.4 196.35 190.8 188.95 188.15 181 181.7 M 347.75 31.6 Q 343.9 25.95 336.05 23.75 329.05 21.8 316.45 22.1 300.7 22.95 291.8 23.35 261.95 23.25 251.15 24.4 233.65 26.3 228.5 37.2 212.55 39 206 51.15 204.05 54.9 202.75 59.95 184.85 65.2 184.9 86.65 170.65 90.45 170.05 108.15 169.75 118.2 173.05 139.1 173.6 147.05 171.95 163.45 170.4 179.65 171.05 187.6 172.05 199.5 180.6 221.65 189.05 243.55 189.85 254.85 190.65 266.1 189.85 277.65 189.35 284.7 185.65 302.5 182.55 317.7 182.95 327.15 187.7 305.9 190 294.3 194.05 273.65 192.9 257.9 191.9 244.05 181.8 217.2 172.55 192.5 173.05 178.7 173.1 177 175 162.7 176.55 151.05 176 143.05 174.6 128 174 121.2 173.05 109.55 174.2 103.25 177.3 86.45 199.75 86.65 220.2 86.85 243.65 97 255.55 102.2 279.95 116.35 268.95 118.5 266.05 128.2 270.4 121.85 278.05 119.35 287.05 116.3 289.85 125.25 289.3 127.6 285.4 128.75 280.9 130 279.95 131.2 281 131.9 282.3 131.9 L 284.5 131.45 Q 285.65 131.05 287 130.3 287.4802734375 130.021875 287.9 129.8 288.3625 129.6 288.8 129.4 291.8 127.7 292.8 128.2 L 293.05 128.85 Q 293.8 130.8 293.8 132.55 293.8 134.65 292.55 136.3 291.25 137.95 288.8 139.1 279.75 141.8 276.95 144 L 277.05 144 Q 279.45 144.45 282.05 144 284.7 143.45 287.55 142.05 293.55 139 294.8 139.1 294.35 155.6 290.85 164.85 280.5 164.1 275.4 172.15 270.8 182.8 268.05 187.6 266.65 187.15 264.9 186.2 257.55 181.85 255.3 168.9 254.25 162.5 254.15 145.1 253.1 146.9 252.95 150.75 252.85 153.85 251.2 154.95 235.7 154.05 224.2 144.85 217.75 139.65 206.65 125.25 206.5 129.35 210.85 134.25 215.05 138.85 214.6 141.05 207.5 141.4 201.9 137.55 196.15 132.45 192.9 130.25 194.45 137.35 203.2 140.55 208.3 142.45 219.55 145.1 216.45 151.25 207.5 153.8 201.9 155.35 190.85 155.9 199.3 159.75 209.05 155.75 216.75 152.55 222.5 146.05 224.3 148.55 229.15 150.85 229.828125 151.16484375 230.45 151.45 231.0375 151.75 231.6 152 231.6640625 152.0328125 231.7 152.05 235.15 153.85 236.35 154.95 235.95 162 231.05 166.4 228.5 168.7 220.55 172.75 228.9 173 233.5 167.4 236.3 163.95 239.3 154.95 240.95 156 245.8 156.4 250.55 156.9 252.2 157.9 250.7 178.4 264.2 187.35 267.6 189.7 272.55 191.45 274.2 192 276 192.5 L 276 192.6 Q 276.15 194.3 276.15 195.95 276.15 202.35 274.25 208.65 273.95 209.55 273.6 210.45 273.35 211.15 273.2 211.85 271.5 216.45 268.45 224.35 268.35 224.5 268.3 224.65 268.1 224.9 268.05 225.25 278.45 215.5 277.95 191.5 284.45 187.75 288.6 178.5 289.45 176.75 294.8 160.9 299.3 161.6 303.45 159.7 309.2 157.15 310.6 156.9 308.7 163.95 310.45 171.75 312.15 179.65 316.5 182.65 310.6 173.15 312.35 161.5 313.3 154.45 318.8 141.4 321.45 135.15 322.5 132.2 326.45 131 330.55 127.35 332.85 125.4 337.35 121.3 339.65 137.6 352.1 141.05 343.1 131.2 342.85 130.9 337.95 124 339.3 117.35 341.85 123.9 345.25 127.8 349.25 132.45 355.15 134.15 347.55 127.2 344.4 123.1 339.1 115.9 340.3 105.45 340.4 105.4 340.45 105.4 L 342.6 103.5 Q 343.65 102.35 344.75 100.95 345 100.55 345.7 99.45 L 347.35 96.95 Q 347.75 96.25 348.2 95.55 354.35 101.05 365 102.9 376.75 104.95 384.85 100.55 L 376.15 122.85 Q 373.85 129.75 369 146.65 364.85 161.4 362.05 169.3 353.1 194.25 338.35 208.4 335.4 211.2 327.85 216.2 320.7 220.95 317.5 224.25 308.8 233.2 304.85 249.05 301.35 263.3 301.4 284.45 301.5 299.3 303.65 323.2 305.7 311.65 304.2 285.45 302.8 260.85 305.7 249.2 306.45 246 307.65 243.05 310.75 234.85 318.9 227.7 323.75 223.45 335.3 214.35 351.55 200.4 363.05 173.7 366.8 165 370.35 149.35 374.6 130.3 377 123.1 L 377.9 120.3 Q 379.7 115.15 387.5 101.95 394.85 89.45 396.65 82.75 400.05 70.6 396.65 60.85 392.15 48.2 378.85 44.65 365.5 41.15 352.1 49.1 352.05 37.8 347.75 31.6 M 340.3 28.25 Q 350 32.6 345.25 42.55 340.7 52.15 331.35 53.05 329.55 45.5 321.7 41.8 311.7 37.05 287.15 37.95 248.75 39.35 246.95 39.25 238 38.85 232.45 37.2 236.3 28.2 250.05 26.7 258.25 25.9 277.95 26.3 288.15 25.8 308.65 24.3 326.05 23.5 335.8 25.2 L 336.35 25.3 Q 337.95 26.55 333.4 30.4 328.25 34.8 329.4 39.15 330.4 38.35 334.15 33 336.95 29.15 340.3 28.25 M 332.35 55 Q 339 52.65 342.3 50.1 346.85 46.65 348.2 41.15 351.2 46.7 349.1 51.65 347.95 54.25 342.95 59.6 340 62.7 338.65 64.75 336.6 67.8 336.35 70.85 335.05 68.8 333.9 62.65 333 56.8 332.35 55 M 338.2 93.75 Q 337.5 88.5 337.35 85.7 338.4 87.35 341.3 90.1 344.1 92.85 345.25 94.55 344.35 98.25 343.2 99.9 341.45 102.25 338.35 102.5 338.65 98.65 338.2 93.75 M 342.75 89.05 Q 337.6 83.4 337.35 77.75 336.85 68.3 343.6 60.25 354.15 47.45 371 46.45 388.95 45.5 395.7 60.9 394.6 80.25 393.95 83.65 391.9 93.9 384.85 98.55 372.9 106.35 355.25 98 347.7 94.4 342.75 89.05 M 332.35 62.9 Q 332.6 67.4 334.4 80.75 336.1 93.4 336.3 100.3 337.05 123 324.45 128.2 328.6 115.3 327.65 106.05 326.95 97.5 321.75 91.45 316.1 84.8 303.7 79.85 297.15 77.3 277.95 71.8 277.3 71.65 276.65 71.5 L 243.15 63.45 Q 242.7 63.35 242.25 63.3 241.7 63.2 241.2 63.15 L 208.2 60 Q 207.65 59.95 207.05 59.95 206.85 59.95 206.5 59.95 206.25 59.95 205.95 59.95 205.25 59.95 204.7 59.95 205.35 55.25 207.15 51.8 211.35 44.1 222.4 41.2 231.3 39 246.95 39.5 247.5 39.5 273.55 41 289.85 41.95 299.7 41.15 307.5 40.5 310.35 40.5 316.75 40.5 321.45 42.15 313.15 43.85 308.7 46.7 303.05 50.4 301.65 56.95 312.9 43.1 324.45 45.1 334.05 53.95 326.7 63.6 320.45 72 308.65 74.8 314.8 76 321.6 71.15 325.45 68.45 332.35 62.9 M 304.7 93.05 Q 309.7 87.15 316.5 88.65 319.95 89.4 321.7 91.5 324.45 94.65 323.8 99.8 323.25 104.9 319.8 109.4 311.2 120.55 297.75 116.35 304.95 120.3 313.65 116.45 321.6 112.85 324.45 106.45 323.65 117.45 322.6 124.15 320.95 134.25 317.9 141.15 310.7 157.65 294.8 158.85 299.35 141.05 294.35 128.35 291.65 121.3 285.85 116.35 273.35 105.7 248.2 95.85 223.25 86 205.7 84.7 197.3 84.05 187.9 85.7 187.65 75.7 192.15 69.55 197.05 62.9 206.65 61.9 228.25 59.7 263.75 69.6 283.2 75 313.55 85.7 304.8 90.3 302.65 92.1 297.5 96.7 297.75 104.5 303.3 94.65 304.7 93.05 M 272.05 188.55 Q 273.6 178.3 276.8 173.55 281.1 167.05 289.85 166.85 286.25 179.2 284.95 181.7 280.85 188.8 272.05 188.55 M 304.7 107.45 Q 309.2 109.5 315.3 104.95 321.35 100.3 317.5 96.5 317.25 101.2 312.75 103.65 307.1 105.95 304.7 107.45 M 323.5 53.05 Q 318.9 51.65 314.3 55 310.05 58.1 308.65 62.9 311.1 61.25 315.55 57.45 319.65 54.2 323.5 53.05 M 352.05 72.95 Q 351.4 71.75 351.15 70.85 350.4 66.55 355.1 61.25 359.35 56.4 358.1 54 350.95 58.2 349.4 63.6 348.1 68.45 351.15 73.45 354.25 78.55 360.5 82 366.8 85.5 373.1 85.7 388.9 86.2 388.8 67.9 386.85 69.85 384.3 77 382.4 82.4 377.9 83.7 372.3 85.35 363.45 81.4 355.1 77.65 352.05 72.95 Z"/>
</g>
</defs>
<g transform="matrix(1,0,0,1,0,0)">
<use xlink:href="#l2"/>
</g>
<g transform="matrix(1,0,0,1,0,0)">
<use xlink:href="#l1"/>
</g>
<g transform="matrix(1,0,0,1,0,0)">
<use xlink:href="#l0"/>
</g>
</svg> 