<svg xmlns="http://www.w3.org/2000/svg" version="1.1" xmlns:xlink="http://www.w3.org/1999/xlink" preserveAspectRatio="none" x="0px" y="0px" width="512px" height="512px" viewBox="0 0 512 512">
<defs>
<g id="rjmhmpp">
<path fill="#1B305B" stroke="none" d="M 415.5 437 Q 415.5 418.9 405.45 409.9 397.8 402.15 383.5 402.15 369.2 402.15 361.65 409.9 351.55 418.9 351.55 437 351.55 454.7 361.65 464.05 369.2 471.75 383.5 471.75 397.8 471.75 405.45 464.05 415.5 454.7 415.5 437 M 370.35 419.85 Q 375.25 413.8 383.5 413.8 391.8 413.8 396.7 419.85 401.55 425.9 401.55 437 401.55 448.1 396.7 454.05 391.8 460.15 383.5 460.15 375.25 460.15 370.35 454.05 365.4 448.1 365.4 437 365.4 425.8 370.35 419.85 M 470 423.75 Q 469.65 413.25 462.1 407.8 454.55 402.25 443.9 402.25 431.1 402.25 424.5 408.15 417.9 413.95 417.9 422.8 417.9 432.5 424.6 437 428.55 439.7 439.2 442.05 L 446.5 443.6 Q 452.85 444.95 455.75 446.7 458.7 448.45 458.7 451.75 458.7 457.3 452.75 459.35 449.55 460.4 444.6 460.4 436.1 460.4 432.65 456.3 430.75 454.15 430.1 449.65 L 416.8 449.65 Q 416.8 459.9 424.3 465.75 431.95 471.55 445.1 471.55 458 471.55 465.05 465.7 472.15 459.7 472.15 450.7 472.15 441.95 466.15 437.25 462.25 434.3 454.55 432.5 L 442.95 429.8 Q 436.1 428.25 434 427.05 430.8 425.3 430.8 421.85 430.8 417.95 434.1 415.85 437.4 413.7 442.95 413.7 447.9 413.7 451.2 415.35 456.2 417.85 456.55 423.75 L 470 423.75 M 90.35 425.05 Q 90.35 414.4 84.5 409.25 78.6 404.15 68.7 404.15 L 40.05 404.15 40.05 469.95 53.9 469.95 53.9 446.25 67.75 446.25 Q 78.65 446.25 84.55 441.5 90.35 436.65 90.35 425.05 M 66.45 434.9 L 53.9 434.9 53.9 415.6 66.45 415.6 Q 71.2 415.6 73.8 417.75 76.5 420 76.5 425.15 76.5 430.25 73.8 432.6 71.2 434.9 66.45 434.9 M 158.05 437 Q 158.05 418.9 147.9 409.9 140.35 402.15 126.05 402.15 111.75 402.15 104.25 409.9 94 418.9 94 437 94 454.7 104.25 464.05 111.75 471.75 126.05 471.75 140.35 471.75 147.9 464.05 158.05 454.7 158.05 437 M 126.05 413.8 Q 134.4 413.8 139.25 419.85 144.1 425.9 144.1 437 144.1 448.1 139.25 454.05 134.4 460.15 126.05 460.15 117.75 460.15 112.8 454.05 107.85 448.1 107.85 437 107.85 425.8 112.8 419.85 117.75 413.8 126.05 413.8 M 213.95 413.95 Q 209.5 407.9 202.5 405.65 198.4 404.25 192.2 404.15 L 163.4 404.15 163.4 469.95 192.2 469.95 Q 207.35 469.95 214.55 457.6 219.9 448.55 219.9 435.45 219.9 430.25 218.6 424.5 217.4 418.9 213.95 413.95 M 202.5 420.95 Q 205.7 426.35 205.7 436.4 205.7 443.65 203.6 448.85 199.7 458.5 189.75 458.5 L 176.95 458.5 176.95 415.6 189.75 415.6 Q 199.4 415.6 202.5 420.95 M 306.9 469.95 L 320.5 469.95 333.15 414.75 333 469.95 346.05 469.95 346.05 404.15 325.95 404.15 313.95 455.9 301.7 404.15 281.45 404.15 281.45 469.95 294.45 469.95 294.35 414.75 306.9 469.95 M 274.25 415.85 L 274.25 404.15 225.3 404.15 225.3 469.95 275.9 469.95 275.9 458.05 238.9 458.05 238.9 441.15 271.3 441.15 271.3 429.8 238.9 429.8 238.9 415.85 274.25 415.85 M 220.8 393 Q 229.6 393 235.75 386.75 L 246.25 376.35 Q 252.3 370.2 252.25 361.55 252.3 352.8 246.1 346.55 240 340.45 231.2 340.45 222.5 340.45 216.45 346.55 L 206.05 356.95 Q 199.8 363.2 199.7 371.95 199.8 380.7 205.95 386.75 212.1 393 220.8 393 M 161.85 330.7 Q 155.6 336.9 155.55 345.6 155.55 354.25 161.75 360.5 167.9 366.65 176.6 366.65 185.35 366.55 191.5 360.3 L 210.9 341 Q 216.95 334.85 216.95 326.25 217.05 317.5 210.9 311.25 204.65 305.1 195.9 305.2 187.35 305.2 181.2 311.25 L 161.85 330.7 M 160.55 269 Q 152 269 145.85 275.15 L 122.1 298.9 Q 115.85 305.1 115.75 313.85 115.85 322.55 122.1 328.8 128.15 334.85 136.8 334.85 145.65 334.85 151.8 328.7 L 175.65 304.85 Q 181.7 298.8 181.6 290.05 181.7 281.3 175.65 275.25 169.4 269 160.55 269 M 140.65 239.1 Q 134.4 232.95 125.55 232.95 117.3 232.95 111.15 238.75 L 100.1 249.75 Q 94.25 256 94.2 264.3 94.25 272.95 100.5 279.2 106.55 285.35 115.25 285.35 123.75 285.45 129.9 279.55 L 140.9 268.45 Q 146.8 262.4 146.6 254 146.7 245.25 140.65 239.1 M 435.4 77.05 Q 401.7 43.45 353.95 43.45 308.9 43.45 276.4 73.4 274.5 75.35 272.6 77.25 270.85 78.95 268.95 80.85 L 206.2 143.6 Q 201.9 148.1 201.9 154.45 201.9 160.95 206.55 165.6 L 214 173.05 Q 218.7 177.65 225.2 177.65 231.5 177.65 236.05 173.4 L 282.3 127.05 Q 286.65 123.6 290.2 127.15 L 403.8 240.75 Q 417.65 253.75 435 240.4 L 437.05 238.3 Q 469.1 205.05 469.1 158.5 469.1 110.75 435.4 77.05 Z"/>
<path fill="#D5343A" stroke="none" d="M 409.4 277.55 Q 414.1 272.9 414.1 266.4 414.1 259.9 409.4 255.2 L 400.6 246.35 Q 399.95 245.75 399.45 245.25 399.2 245.25 399.35 245.15 L 286.3 132.1 240.45 178 Q 234.2 184 225.1 184.05 216 184.05 209.5 177.55 L 202.05 170.1 Q 195.65 163.7 195.5 154.5 195.75 145.5 201.7 139.25 L 251.45 89.55 Q 246 82.15 239.3 75.4 238 74.1 236.7 72.9 203.3 41.35 157 41.35 110.3 41.35 76.85 73.35 L 72.6 77.5 Q 40.65 110.95 40.65 157.75 40.65 205.9 74.7 239.95 82.05 247.35 90.3 253.2 92.1 249.15 95.55 245.4 95.5 245.35 95.65 245.35 L 106.75 234.35 Q 106.75 234.05 106.9 234.05 114.7 226.55 125.65 226.55 137 226.55 145.15 234.6 153.1 242.65 153.1 254 153.1 259.45 151.2 264.3 155.6 262.6 160.65 262.6 172.1 262.6 180.15 270.7 188.1 278.7 188.1 290.05 188.1 295.75 186.1 300.45 190.7 298.7 195.9 298.7 207.45 298.8 215.4 306.75 223.4 314.85 223.4 326.2 223.4 331.2 221.8 335.7 226.15 334 231.2 334 242.6 334.05 250.65 342.05 258.75 350.2 258.65 361.35 258.75 368.2 255.85 373.85 L 263.5 381.35 Q 268.1 386.05 274.65 386.05 281.15 386.05 285.75 381.35 L 293.65 373.5 Q 298.35 368.9 298.35 362.3 298.35 355.8 293.65 351.2 L 208.4 265.85 Q 207.5 265 207.6 263.6 207.5 262.3 208.45 261.35 209.45 260.4 210.75 260.5 212.05 260.5 212.9 261.35 L 303.6 352 Q 308.2 356.7 314.8 356.6 321.4 356.6 325.95 351.9 L 333.85 344.05 Q 338.55 339.45 338.55 332.85 338.55 326.35 333.85 321.75 L 242.8 230.6 Q 241.85 229.65 241.85 228.2 241.9 226.8 242.95 225.75 244 224.7 245.4 224.6 246.85 224.6 247.8 225.6 L 341.65 319.4 Q 346.35 324 352.85 324 359.35 324 364 319.4 L 371.9 311.55 Q 376.5 306.85 376.5 300.35 376.5 293.85 371.9 289.2 L 278.9 196.3 Q 277.9 195.25 277.8 193.7 277.9 192.15 279.1 190.9 L 279.2 190.85 Q 280.2 189.8 281.7 189.8 283.35 189.8 284.45 190.85 L 379.1 285.55 Q 383.75 290.15 390.25 290.15 396.75 290.15 401.45 285.55 L 409.4 277.55 Z"/>
</g>
</defs>
<g transform="matrix(1,0,0,1,0,0)">
<use xlink:href="#rjmhmpp"/>
</g>
</svg>