<svg xmlns="http://www.w3.org/2000/svg" xmlns:xlink="http://www.w3.org/1999/xlink" width="100%" height="100%" viewBox="0 0 512 512">
<defs>
<g id="l3">
<path fill="#025EA8" stroke="none" d=" M 429.2 83.55 Q 395.35 49.65 351.45 31 306 11.8 256.35 11.8 206.7 11.8 161.15 31 117.3 49.65 83.45 83.55 49.55 117.4 30.9 161.25 11.7 206.7 11.7 256.35 11.7 306 30.9 351.55 49.55 395.45 83.45 429.3 117.3 463.15 161.15 481.8 206.7 501.05 256.35 501.05 306 501.05 351.45 481.8 395.35 463.15 429.2 429.3 463.05 395.45 481.7 351.55 500.95 306.1 500.95 256.35 500.95 206.7 481.7 161.25 463.05 117.4 429.2 83.55 Z"/>
</g>
<g id="l2">
<path fill="#FFF" stroke="none" d=" M 414.3 98.45 Q 383.35 67.45 343.2 50.45 301.7 32.9 256.35 32.9 210.9 32.9 169.4 50.45 129.35 67.45 98.35 98.45 67.45 129.35 50.35 169.5 32.8 211 32.8 256.35 32.8 301.8 50.35 343.3 67.35 383.35 98.35 414.4 129.35 445.4 169.4 462.35 210.9 479.95 256.35 479.95 301.7 479.95 343.2 462.35 383.35 445.4 414.3 414.4 445.3 383.45 462.25 343.3 479.85 301.8 479.85 256.35 479.85 211 462.25 169.5 445.3 129.35 414.3 98.45 Z"/>
</g>
<g id="l1">
<path fill="#025EA8" stroke="none" d=" M 186.4 59.3 L 186.2 58.7 Q 124.35 80.7 85.9 134.15 46.55 188.85 46.55 256.45 46.55 324.1 85.9 378.75 124.45 432.35 186.4 454.2 L 186.4 59.3 M 326.35 58.6 L 326.25 58.9 326.25 453.85 326.35 454.1 Q 388.15 432.25 426.75 378.75 466.1 324 466.1 256.45 466.1 188.85 426.75 134.05 388.15 80.6 326.35 58.6 Z"/>
</g>
<g id="l0">
<path fill="#FFF" stroke="none" d=" M 416.35 178.55 L 375.6 178.55 375.6 315.85 416.35 315.85 416.35 178.55 M 127.8 178.55 L 68.2 178.55 68.2 315.85 108.25 315.85 108.25 259.6 122.1 259.6 Q 178.45 259.6 178.45 218.85 178.45 178.55 127.8 178.55 M 108.25 191.2 L 117.3 191.2 Q 139.2 191.2 139.2 218.2 139.2 246.95 117.3 246.95 L 108.25 246.95 108.25 191.2 Z"/>
<path fill="#025EA8" stroke="none" d=" M 313.5 184.3 Q 313.5 168.05 299.35 158.3 285.4 148.6 261.75 148.6 L 201.4 148.6 201.4 286 242.15 286 242.15 219.95 249.1 219.95 Q 268.65 219.95 268.65 243.7 L 269 262.15 Q 269 276.2 273.25 286 L 317.5 286 Q 311.5 278.55 309.55 255.4 307.9 235.85 303.35 229.25 298.65 222.5 283.25 216.8 313.5 209.25 313.5 184.3 M 250.35 161.35 Q 273.45 161.35 273.45 184.9 273.45 208.55 250.35 208.55 L 242.15 208.55 242.15 161.35 250.35 161.35 Z"/>
</g>
</defs>
<g transform="matrix(1,0,0,1,0,0)">
<use xlink:href="#l3"/>
</g>
<g transform="matrix(1,0,0,1,0,0)">
<use xlink:href="#l2"/>
</g>
<g transform="matrix(1,0,0,1,0,0)">
<use xlink:href="#l1"/>
</g>
<g transform="matrix(1,0,0,1,0,0)">
<use xlink:href="#l0"/>
</g>
</svg> 