<svg xmlns="http://www.w3.org/2000/svg" xmlns:xlink="http://www.w3.org/1999/xlink" width="100%" height="100%" viewBox="0 0 512 512">
<!-- Vectorization by Rodrigo Polo https://github.com/rodrigopolo/logotipos-politicos -->
<defs>
<g id="l3">
<path fill="#652E8E" stroke="none" d=" M 497.9 497.9 L 497.9 14.1 14.1 14.1 14.1 497.9 497.9 497.9 Z"/>
</g>
<g id="l2">
<path fill="#FFF" stroke="none" d=" M 221.55 386.55 Q 218.95 389.05 218.95 394.85 L 218.95 459.1 Q 218.95 463.2 219.7 466 220.4 468.7 222.9 470.15 225.4 471.6 230.25 471.6 L 253.5 471.6 Q 259.3 471.6 264.4 470.85 269.15 470.15 273.4 468.1 277.75 466.2 281.25 463.1 285.7 458.9 288.6 453.7 291.6 448.4 292.85 442 294.2 435.9 294.2 427.55 294.2 403.6 280.45 391.85 275.15 387.3 268.65 385.6 262.1 383.95 253.2 383.95 L 229.85 383.95 Q 224.15 383.95 221.55 386.55 M 262.5 399.8 Q 268.4 401.55 272.25 407.95 276.1 414.4 276.1 427.4 276.1 445.95 267.2 453.4 265.2 455.15 262.5 456 260.05 457 257.25 457.3 L 236.85 457.45 236.85 397.95 248.55 397.95 Q 256.95 397.95 262.5 399.8 M 151.4 385.6 Q 143.45 388.75 137.95 394.65 132.35 400.6 129.4 409 126.5 417.4 126.5 427.55 126.5 437.35 129.35 445.85 132.05 454.2 137.55 460.45 143.05 466.45 151.2 469.75 159.6 473.15 169.75 473.15 179.95 473.15 188.15 469.85 196.1 466.75 201.8 460.55 207.2 454.55 210.05 446.15 212.85 437.75 212.85 427.65 212.85 414.2 207.8 403.65 202.65 393.5 192.9 388 183.05 382.5 169.4 382.5 159.05 382.5 151.4 385.6 M 191.65 410.85 Q 194.75 418.1 194.75 427.55 194.75 437.85 191.35 445.1 187.85 452.25 182.15 455.55 176.55 459 169.6 459 164.35 459 159.8 457 155.55 455.15 151.85 451.1 148.4 447 146.55 441 144.6 434.95 144.6 427.55 144.6 420.2 146.55 414.1 148.5 408.05 151.7 404.35 155.05 400.6 159.5 398.55 164.05 396.5 169.4 396.5 176.75 396.5 182.65 400.2 188.45 403.75 191.65 410.85 M 65.05 383.95 Q 60.8 383.95 58.4 385.85 56.05 387.9 56.05 391.3 56.05 394.65 58.3 396.6 60.55 398.65 65.05 398.65 L 84.5 398.65 84.5 462.3 Q 84.5 467.65 87.05 470.45 89.55 473.15 93.45 473.15 97.3 473.15 99.8 470.45 102.35 467.85 102.35 462.3 L 102.35 398.65 121.8 398.65 Q 126.35 398.65 128.65 396.6 130.85 394.6 130.85 391.3 130.85 387.9 128.65 385.95 126.35 383.95 121.8 383.95 L 65.05 383.95 M 403 385.5 Q 395.45 388.5 391.45 394.1 387.5 399.8 387.5 406.95 387.5 414.6 391.25 419.65 394.85 424.65 401.45 427.75 408 430.75 417.3 432.9 424 434.45 428.6 436 432.9 437.45 435.6 440.15 438.2 442.75 438.2 447.2 438.2 452.65 433.25 456.4 428.25 460.1 420.4 460.1 414.5 460.1 411.1 458.25 407.55 456.4 405.6 453.6 403.55 450.7 401.9 446.65 400.65 443.25 398.6 441.3 396.8 439.5 393.9 439.5 390.4 439.5 388.1 441.8 385.85 444.2 385.85 447.3 385.85 452.95 389.6 458.85 393.6 464.9 399.4 468.2 407.8 473.15 420.9 473.15 431.7 473.15 439.65 469.45 447.5 466.1 451.75 459.6 455.8 453.2 455.8 445.3 455.8 438.7 453.5 434.05 450.95 429.4 446.9 426.5 442.15 423.3 436.55 421.5 431.15 419.55 423.1 417.6 L 414.6 415.4 Q 411.5 414.3 409.45 413.15 406.85 411.8 405.5 409.85 404.05 408.05 404.05 405.3 404.05 401.15 408.3 398.05 412.45 395.05 419.45 395.05 426.9 395.05 430.25 397.85 433.65 400.65 435.95 405.6 437.9 409.1 439.45 410.55 441 412.1 444.1 412.1 447.5 412.1 449.7 409.55 452.05 406.95 452.05 403.85 452.05 400.6 450.2 396.7 448.45 393.1 444.5 389.75 440.7 386.45 434.6 384.4 428.6 382.5 420.7 382.5 410.45 382.5 403 385.5 M 363 388 Q 353.15 382.5 339.4 382.5 329.15 382.5 321.4 385.6 313.35 388.85 307.95 394.65 302.45 400.65 299.55 409 296.65 417.4 296.65 427.55 296.65 437.75 299.45 445.85 302.25 454.45 307.65 460.45 313.2 466.45 321.3 469.75 329.55 473.15 339.8 473.15 349.85 473.15 358.25 469.85 366.3 466.65 371.8 460.55 377.45 454.4 380.15 446.15 382.85 438 382.85 427.65 382.85 413.95 377.8 403.65 372.8 393.5 363 388 M 314.75 427.55 Q 314.75 419.95 316.55 414.1 318.5 408.2 321.8 404.35 325 400.6 329.55 398.55 334.2 396.5 339.4 396.5 346.85 396.5 352.75 400.2 358.55 403.85 361.65 410.85 364.75 417.7 364.75 427.55 364.75 438.2 361.35 445.1 358 452.25 352.25 455.55 346.45 459 339.7 459 334.35 459 329.8 457 325.45 455.05 321.9 451.1 318.3 446.75 316.55 441 314.75 435.2 314.75 427.55 Z"/>
</g>
<g id="l1">
<path fill="#FFF" stroke="none" d=" M 407.6 135.75 Q 395.15 106.1 372.4 83.4 349.55 60.55 320.05 48.05 289.45 35.1 256 35.1 222.5 35.1 191.95 48.05 162.3 60.55 139.6 83.4 116.75 106.1 104.25 135.75 91.3 166.2 91.3 199.7 91.3 233.15 104.25 263.85 116.75 293.35 139.6 316.2 162.3 338.95 191.95 351.4 222.5 364.4 256 364.4 289.45 364.4 320.05 351.4 349.55 338.95 372.4 316.2 395.15 293.35 407.6 263.85 420.6 233.15 420.6 199.7 420.6 166.2 407.6 135.75 M 366.9 88.9 Q 388.55 110.55 400.45 138.75 412.85 167.75 412.85 199.7 412.85 231.6 400.45 260.85 388.55 288.9 366.9 310.7 345.1 332.35 317.05 344.25 287.9 356.65 256 356.65 224.05 356.65 194.95 344.25 166.75 332.35 145.1 310.7 123.35 288.9 111.4 260.85 99.05 231.6 99.05 199.7 99.05 167.75 111.4 138.75 123.35 110.55 145.1 88.9 166.75 67.1 194.95 55.2 224.05 42.85 256 42.85 287.9 42.85 317.05 55.2 345.1 67.1 366.9 88.9 Z"/>
</g>
<g id="l0">
<path fill="#FFF" stroke="none" d=" M 208.75 85.5 Q 204.3 89.4 204.3 95.85 L 204.3 188.35 Q 204.3 194.85 208.75 198.7 212.75 202.2 218.55 202.2 224.35 202.2 228.3 198.7 232.75 194.85 232.75 188.35 L 232.75 95.85 Q 232.75 89.4 228.3 85.5 224.35 82.1 218.55 82.1 212.75 82.1 208.75 85.5 M 275.85 79.5 Q 271.1 83.55 271.1 90.45 L 271.1 186.65 Q 271.1 193.5 275.85 197.55 280.1 201.25 286.3 201.25 292.4 201.25 296.65 197.55 301.35 193.5 301.35 186.65 L 301.35 90.45 Q 301.35 83.55 296.65 79.5 292.4 75.85 286.3 75.85 280.1 75.85 275.85 79.5 M 262.2 66.85 Q 258.2 63.35 252.4 63.35 246.6 63.35 242.65 66.85 238.2 70.6 238.2 77.1 L 238.2 187.5 Q 238.2 194 242.65 197.85 246.6 201.35 252.4 201.35 258.2 201.35 262.2 197.85 266.65 194 266.65 187.5 L 266.65 77.1 Q 266.65 70.6 262.2 66.85 Z"/>
<path fill="#19D6EC" stroke="none" d=" M 335.9 121.5 Q 330.1 121.5 325.95 125 321.3 128.75 321 135.25 320.05 155.1 316.75 182.55 314.9 198.35 310.85 229.8 309.2 242.65 308.35 247.4 306.4 257.25 302.9 263.75 298.3 272.55 293.85 278.15 287.9 285.7 281.25 289.4 265.75 297.7 244.3 292.4 224.05 287.25 213.4 274.5 201.15 259.7 196.75 245.35 193.1 233.25 192.9 211.8 192.8 202.7 186.7 193.1 181.1 184.2 174.3 180.35 167.05 176.25 164.05 181.1 160.5 186.8 164.35 202.9 164.75 232.2 169.95 251.65 176.15 275.05 191.45 294.6 206.15 313.3 235.3 319.8 262.95 325.95 286.4 317.95 307 310.85 321.1 289.3 333.7 270.05 337.2 246.45 342.1 212.85 344.75 191 348.3 160.4 349.45 135.25 349.85 128.75 345.6 124.9 341.75 121.5 335.9 121.5 Z"/>
</g>
</defs>
<g transform="matrix(1,0,0,1,0,0)">
<use xlink:href="#l3"/>
</g>
<g transform="matrix(1,0,0,1,0,0)">
<use xlink:href="#l2"/>
</g>
<g transform="matrix(1,0,0,1,0,0)">
<use xlink:href="#l1"/>
</g>
<g transform="matrix(1,0,0,1,0,0)">
<use xlink:href="#l0"/>
</g>
</svg>
