<svg xmlns="http://www.w3.org/2000/svg" xmlns:xlink="http://www.w3.org/1999/xlink" width="100%" height="100%" viewBox="0 0 512 512">
<!-- Vectorization by Rodrigo Polo https://github.com/rodrigopolo/logotipos-politicos -->
<defs>
<g id="l0">
<path fill="#52A726" stroke="none" d="M 453.65 29.9 Q 440.7 17.65 422.25 17.55 L 89.8 17.55 Q 71.3 17.65 58.35 29.9 L 58.4 29.9 Q 45.25 42.3 45.3 59.8 L 45.3 452.3 Q 45.25 469.85 58.4 482.25 71.35 494.5 89.8 494.5 L 422.25 494.5 Q 440.65 494.5 453.65 482.25 466.75 469.9 466.75 452.3 L 466.75 59.8 Q 466.75 42.25 453.65 29.9 M 449.6 34.25 Q 460.75 44.95 460.75 59.8 L 460.75 452.3 Q 460.75 467.3 449.6 477.9 438.35 488.5 422.25 488.5 L 89.8 488.5 Q 73.65 488.5 62.45 477.9 51.3 467.35 51.3 452.3 L 51.3 59.8 Q 51.3 44.9 62.45 34.25 L 62.55 34.25 Q 73.8 23.55 89.8 23.55 L 422.25 23.55 Q 438.2 23.55 449.6 34.25 M 390.9 111.35 Q 390.85 109.35 389.9 107.35 388.2 103.9 384.9 101.7 381.7 99.6 377.65 99.35 374.05 99.2 370.75 100.75 368 102.1 365.65 104.6 363 101.35 359.15 100.25 355.2 99.2 351.35 100.45 345.65 102.1 340.35 108.6 L 294.15 166.45 Q 290.3 170.45 287.5 171.85 285.65 172.75 284.65 172.45 280.95 171.7 277.5 159.4 276.5 156.05 276.1 155.15 274.4 150.8 273.65 148.25 271.15 140.25 268.65 137 264.6 131.6 257.4 131.9 250.65 131.25 246.5 136.75 244 139.95 240.75 149 239.5 152.65 238.55 154.75 L 237.2 159 Q 233.6 171.35 230 172.1 226.95 172.7 220.5 166.1 L 174.3 108.1 Q 169.1 101.65 163.4 99.95 159.45 98.7 155.5 99.85 151.65 100.95 149 104 143.95 98.55 137 98.95 133.05 99.1 129.75 101.2 126.35 103.4 124.8 106.85 123.85 109 123.7 110.85 119.65 110.95 116.9 113.1 112.75 116.1 112.45 121.5 111.95 127.6 116.65 135 L 116.65 135.1 Q 114.1 136.65 112.2 139.35 109.85 142.4 108.95 146.4 107.65 152.45 110.65 158.4 L 110.9 158.9 146.3 210.2 Q 148.6 229.25 159.4 243.1 170.1 256.8 191.5 268.05 L 204.7 283.8 160.95 346 167.75 349.9 213 285.55 Q 213.65 284.6 213.65 283.5 213.5 282.5 212.75 281.5 L 197.45 263.25 Q 197.05 262.75 196.25 262.25 175.95 251.65 166 239.15 156.3 226.6 154.25 208.65 154.25 207.9 153.65 207.15 L 117.95 155.35 Q 115.35 149.75 118.05 144.7 118.95 142.95 120.2 141.75 L 121.05 141.1 173.5 211 180.25 207 124.2 132.35 Q 121 127.35 120.45 123.45 120.15 119.95 121.95 118.6 122.9 117.95 124.2 118.2 125.6 118.25 127.05 119.25 L 190.05 200.65 196.75 196.4 133 114.45 Q 131.05 112.5 132.25 109.6 132.9 108.15 134.3 107.2 135.7 106.3 137.4 106.2 141.6 105.9 145.05 111.7 L 203.4 190.4 210.05 186.4 154.25 111.1 Q 154.4 109.95 155.3 108.6 156.55 107.15 158.05 106.7 160 106.05 162.55 107.6 165.1 109.05 167.8 112.45 L 214.15 170.4 214.25 170.65 Q 223.75 180.65 231.8 179.15 237.35 177.95 240.75 171.85 242.85 168 245 160.85 245.75 158.05 246.15 157.4 L 248.5 151.2 Q 250.95 144.3 252.5 141.9 254.3 138.8 256.75 139.1 L 257.4 139.15 Q 260.6 139 262.15 141.25 263.65 143.25 265.9 150.2 267.05 154.1 268.5 157.7 L 268.5 157.75 Q 268.85 158.35 269.65 161.35 271.9 168.8 273.9 172.35 277.55 178.55 282.9 179.5 283.85 179.75 285.15 179.75 292.15 179.75 300.4 171.1 L 300.65 170.85 346.9 112.85 Q 352.5 105.9 356.65 107.2 358.15 107.55 359.4 109.1 360.25 110.3 360.4 111.5 L 304.5 186.85 311.25 190.9 369.65 112.2 Q 373.15 106.3 377.25 106.6 378.8 106.65 380.25 107.6 381.85 108.7 382.4 110.1 383.65 112.55 381.9 114.6 L 381.25 115.25 317.9 196.9 324.6 201 387.65 119.75 Q 390.75 117.55 392.65 119.1 394.5 120.45 394.15 123.85 393.8 127.7 390.5 132.75 L 334.4 207.4 341.15 211.45 393.65 141.5 394.4 142.15 Q 395.6 143.25 396.65 145.15 399.45 150.1 396.75 155.7 L 361 207.5 Q 360.5 208.4 360.4 209.1 358.55 226.9 348.65 239.5 338.9 251.95 318.4 262.65 317.6 263.15 317.15 263.65 L 301.9 282 Q 301.1 282.75 301.1 283.9 301.05 285.05 301.65 286.05 L 346.9 350.3 353.75 346.5 310 284.25 323.15 268.55 Q 344.5 257.35 355.35 243.5 366.1 229.8 368.4 210.65 L 404.1 158.9 Q 406.95 152.95 405.65 146.9 404.85 143.15 402.4 139.7 400.5 137.05 398 135.45 402.65 128.15 402.25 122 401.95 116.55 397.9 113.6 394.95 111.35 390.9 111.35 M 442.35 91.85 Q 442.35 68.25 426.1 51.55 409.7 34.85 386.65 34.85 L 125.3 34.85 Q 102.35 34.85 85.95 51.55 69.7 68.25 69.7 91.85 L 69.7 293.4 Q 69.7 316.95 85.95 333.65 102.4 350.3 125.3 350.3 L 148.75 350.3 148.75 348.5 193.95 284.25 185.5 274.15 182.8 272.75 153.5 249.4 153.25 249.15 152.95 248.65 152.55 248.2 152.25 247.75 152.05 247.6 Q 140.6 232.8 137.75 212.9 L 103.3 163 102.55 161.6 Q 98.35 153.15 100.3 144.85 101.4 139.5 104.8 134.95 105.45 133.95 106.15 133.25 L 105.8 132.9 Q 102.2 124.35 104.15 117.1 105.85 110.75 111.3 106.95 113.75 105.1 116.8 104.1 L 116.65 103.75 Q 119.2 98.3 124.7 94.75 130.2 91.3 136.55 90.95 L 137.65 90.95 Q 143.65 90.95 148.95 93.75 150.95 92.8 152.8 92.2 155.85 91.35 159.25 91.35 171.8 91.35 181.5 103.45 L 227.3 160.9 232.3 146.5 Q 236.1 136.25 239.65 131.9 245.9 123.85 256 123.85 256.85 123.85 257.65 123.95 L 258.1 123.85 Q 269.25 123.85 275.75 132.25 L 276.25 132.85 Q 278.2 135.35 279.85 139.4 280.65 141.3 282.25 146.1 L 284.4 152.4 Q 285.15 154.1 286.1 157.4 L 287.35 161.4 333.15 104 Q 342.9 91.85 355.5 91.85 359.15 91.85 361.85 92.7 L 365.75 94.2 Q 371 91.35 377.1 91.35 L 378.15 91.35 Q 384.7 91.75 390.1 95.2 395.45 98.7 398 104.2 L 398.25 104.6 Q 401.2 105.6 403.4 107.35 408.95 111.35 410.6 117.7 412.55 125.1 408.65 133.85 L 409.9 135.4 Q 413.2 139.65 414.4 145.35 415 147.9 415 150.5 L 413.4 159.15 Q 413 160.4 412.25 161.95 L 411.5 163.25 376.9 213.35 Q 374.1 233.25 362.65 247.95 351.25 262.65 329.25 274.55 L 320.75 284.65 366 349 366 350.3 386.65 350.3 Q 409.75 350.3 426.1 333.65 442.35 316.85 442.35 293.4 L 442.35 91.85 M 425.9 368.3 L 325.7 368.3 325.7 478.15 427.7 478.15 427.7 450 362.95 450 362.95 436.3 420.1 436.3 420.1 410.15 362.95 410.15 362.95 396.45 425.9 396.45 425.9 368.3 M 242.15 368.3 L 204 368.3 204 478.15 239.3 478.15 239.3 418.2 239.65 418.2 276.7 478.15 313 478.15 313 368.3 277.8 368.3 277.8 427.05 277.45 427.05 242.15 368.3 M 118.85 368.3 L 81.5 368.3 81.5 435.65 Q 81.5 458.45 95.3 469.7 108.95 480.8 136.8 480.8 164.6 480.8 178.15 469.7 191.85 458.45 191.85 435.65 L 191.85 368.3 154.55 368.3 154.55 428.1 Q 154.55 440.1 152.3 444.95 148.55 453.4 136.95 453.4 125 453.4 121.15 444.95 118.85 440.15 118.85 428.1 L 118.85 368.3 Z"/>
<path fill="#FFFFFF" stroke="none" d="M 460.75 59.8 Q 460.75 44.95 449.6 34.25 438.2 23.55 422.25 23.55 L 89.8 23.55 Q 73.8 23.55 62.55 34.25 L 62.45 34.25 Q 51.3 44.9 51.3 59.8 L 51.3 452.3 Q 51.3 467.35 62.45 477.9 73.65 488.5 89.8 488.5 L 422.25 488.5 Q 438.35 488.5 449.6 477.9 460.75 467.3 460.75 452.3 L 460.75 59.8 M 81.5 368.3 L 118.85 368.3 118.85 428.1 Q 118.85 440.15 121.15 444.95 125 453.4 136.95 453.4 148.55 453.4 152.3 444.95 154.55 440.1 154.55 428.1 L 154.55 368.3 191.85 368.3 191.85 435.65 Q 191.85 458.45 178.15 469.7 164.6 480.8 136.8 480.8 108.95 480.8 95.3 469.7 81.5 458.45 81.5 435.65 L 81.5 368.3 M 204 368.3 L 242.15 368.3 277.45 427.05 277.8 427.05 277.8 368.3 313 368.3 313 478.15 276.7 478.15 239.65 418.2 239.3 418.2 239.3 478.15 204 478.15 204 368.3 M 325.7 368.3 L 425.9 368.3 425.9 396.45 362.95 396.45 362.95 410.15 420.1 410.15 420.1 436.3 362.95 436.3 362.95 450 427.7 450 427.7 478.15 325.7 478.15 325.7 368.3 M 426.1 51.55 Q 442.35 68.25 442.35 91.85 L 442.35 293.4 Q 442.35 316.85 426.1 333.65 409.75 350.3 386.65 350.3 L 366 350.3 366 349 320.75 284.65 329.25 274.55 Q 351.25 262.65 362.65 247.95 374.1 233.25 376.9 213.35 L 411.5 163.25 412.25 161.95 Q 413 160.4 413.4 159.15 L 415 150.5 Q 415 147.9 414.4 145.35 413.2 139.65 409.9 135.4 L 408.65 133.85 Q 412.55 125.1 410.6 117.7 408.95 111.35 403.4 107.35 401.2 105.6 398.25 104.6 L 398 104.2 Q 395.45 98.7 390.1 95.2 384.7 91.75 378.15 91.35 L 377.1 91.35 Q 371 91.35 365.75 94.2 L 361.85 92.7 Q 359.15 91.85 355.5 91.85 342.9 91.85 333.15 104 L 287.35 161.4 286.1 157.4 Q 285.15 154.1 284.4 152.4 L 282.25 146.1 Q 280.65 141.3 279.85 139.4 278.2 135.35 276.25 132.85 L 275.75 132.25 Q 269.25 123.85 258.1 123.85 L 257.65 123.95 Q 256.85 123.85 256 123.85 245.9 123.85 239.65 131.9 236.1 136.25 232.3 146.5 L 227.3 160.9 181.5 103.45 Q 171.8 91.35 159.25 91.35 155.85 91.35 152.8 92.2 150.95 92.8 148.95 93.75 143.65 90.95 137.65 90.95 L 136.55 90.95 Q 130.2 91.3 124.7 94.75 119.2 98.3 116.65 103.75 L 116.8 104.1 Q 113.75 105.1 111.3 106.95 105.85 110.75 104.15 117.1 102.2 124.35 105.8 132.9 L 106.15 133.25 Q 105.45 133.95 104.8 134.95 101.4 139.5 100.3 144.85 98.35 153.15 102.55 161.6 L 103.3 163 137.75 212.9 Q 140.6 232.8 152.05 247.6 L 152.25 247.75 152.55 248.2 152.95 248.65 153.25 249.15 153.5 249.4 182.8 272.75 185.5 274.15 193.95 284.25 148.75 348.5 148.75 350.3 125.3 350.3 Q 102.4 350.3 85.95 333.65 69.7 316.95 69.7 293.4 L 69.7 91.85 Q 69.7 68.25 85.95 51.55 102.35 34.85 125.3 34.85 L 386.65 34.85 Q 409.7 34.85 426.1 51.55 M 389.9 107.35 Q 390.85 109.35 390.9 111.35 394.95 111.35 397.9 113.6 401.95 116.55 402.25 122 402.65 128.15 398 135.45 400.5 137.05 402.4 139.7 404.85 143.15 405.65 146.9 406.95 152.95 404.1 158.9 L 368.4 210.65 Q 366.1 229.8 355.35 243.5 344.5 257.35 323.15 268.55 L 310 284.25 353.75 346.5 346.9 350.3 301.65 286.05 Q 301.05 285.05 301.1 283.9 301.1 282.75 301.9 282 L 317.15 263.65 Q 317.6 263.15 318.4 262.65 338.9 251.95 348.65 239.5 358.55 226.9 360.4 209.1 360.5 208.4 361 207.5 L 396.75 155.7 Q 399.45 150.1 396.65 145.15 395.6 143.25 394.4 142.15 L 393.65 141.5 341.15 211.45 334.4 207.4 390.5 132.75 Q 393.8 127.7 394.15 123.85 394.5 120.45 392.65 119.1 390.75 117.55 387.65 119.75 L 324.6 201 317.9 196.9 381.25 115.25 381.9 114.6 Q 383.65 112.55 382.4 110.1 381.85 108.7 380.25 107.6 378.8 106.65 377.25 106.6 373.15 106.3 369.65 112.2 L 311.25 190.9 304.5 186.85 360.4 111.5 Q 360.25 110.3 359.4 109.1 358.15 107.55 356.65 107.2 352.5 105.9 346.9 112.85 L 300.65 170.85 300.4 171.1 Q 292.15 179.75 285.15 179.75 283.85 179.75 282.9 179.5 277.55 178.55 273.9 172.35 271.9 168.8 269.65 161.35 268.85 158.35 268.5 157.75 L 268.5 157.7 Q 267.05 154.1 265.9 150.2 263.65 143.25 262.15 141.25 260.6 139 257.4 139.15 L 256.75 139.1 Q 254.3 138.8 252.5 141.9 250.95 144.3 248.5 151.2 L 246.15 157.4 Q 245.75 158.05 245 160.85 242.85 168 240.75 171.85 237.35 177.95 231.8 179.15 223.75 180.65 214.25 170.65 L 214.15 170.4 167.8 112.45 Q 165.1 109.05 162.55 107.6 160 106.05 158.05 106.7 156.55 107.15 155.3 108.6 154.4 109.95 154.25 111.1 L 210.05 186.4 203.4 190.4 145.05 111.7 Q 141.6 105.9 137.4 106.2 135.7 106.3 134.3 107.2 132.9 108.15 132.25 109.6 131.05 112.5 133 114.45 L 196.75 196.4 190.05 200.65 127.05 119.25 Q 125.6 118.25 124.2 118.2 122.9 117.95 121.95 118.6 120.15 119.95 120.45 123.45 121 127.35 124.2 132.35 L 180.25 207 173.5 211 121.05 141.1 120.2 141.75 Q 118.95 142.95 118.05 144.7 115.35 149.75 117.95 155.35 L 153.65 207.15 Q 154.25 207.9 154.25 208.65 156.3 226.6 166 239.15 175.95 251.65 196.25 262.25 197.05 262.75 197.45 263.25 L 212.75 281.5 Q 213.5 282.5 213.65 283.5 213.65 284.6 213 285.55 L 167.75 349.9 160.95 346 204.7 283.8 191.5 268.05 Q 170.1 256.8 159.4 243.1 148.6 229.25 146.3 210.2 L 110.9 158.9 110.65 158.4 Q 107.65 152.45 108.95 146.4 109.85 142.4 112.2 139.35 114.1 136.65 116.65 135.1 L 116.65 135 Q 111.95 127.6 112.45 121.5 112.75 116.1 116.9 113.1 119.65 110.95 123.7 110.85 123.85 109 124.8 106.85 126.35 103.4 129.75 101.2 133.05 99.1 137 98.95 143.95 98.55 149 104 151.65 100.95 155.5 99.85 159.45 98.7 163.4 99.95 169.1 101.65 174.3 108.1 L 220.5 166.1 Q 226.95 172.7 230 172.1 233.6 171.35 237.2 159 L 238.55 154.75 Q 239.5 152.65 240.75 149 244 139.95 246.5 136.75 250.65 131.25 257.4 131.9 264.6 131.6 268.65 137 271.15 140.25 273.65 148.25 274.4 150.8 276.1 155.15 276.5 156.05 277.5 159.4 280.95 171.7 284.65 172.45 285.65 172.75 287.5 171.85 290.3 170.45 294.15 166.45 L 340.35 108.6 Q 345.65 102.1 351.35 100.45 355.2 99.2 359.15 100.25 363 101.35 365.65 104.6 368 102.1 370.75 100.75 374.05 99.2 377.65 99.35 381.7 99.6 384.9 101.7 388.2 103.9 389.9 107.35 Z"/>
</g>
</defs>
<g transform="matrix(1,0,0,1,0,0)">
<use xlink:href="#l0"/>
</g>
</svg>
