<svg xmlns="http://www.w3.org/2000/svg" xmlns:xlink="http://www.w3.org/1999/xlink" width="100%" height="100%" viewBox="0 0 512 512">
<defs>
<g id="l2">
<path fill="#EC212B" stroke="none" d=" M 203 336.45 L 204.6 343.3 221.45 343.3 206.65 304.2 186.75 304.2 171.9 343.3 188.75 343.3 190.35 336.45 203 336.45 M 201.1 328.8 L 192.25 328.8 196.6 312.2 196.8 312.2 201.1 328.8 M 230 308.05 Q 225.15 312.65 225.15 323.75 225.15 334.85 230 339.45 234.85 344.1 246.8 344.1 247.55 344.1 252.5 343.8 L 261.2 349.8 270.75 344.5 263.45 339.65 Q 268.55 335.2 268.55 323.75 268.55 312.65 263.7 308.05 258.85 303.45 246.8 303.45 234.8 303.45 230 308.05 M 241.45 323.75 Q 241.45 315.5 242.3 313.05 243.4 310.35 246.8 310.35 250.3 310.35 251.3 313.05 252.15 315.35 252.15 323.75 252.15 332.15 251.3 334.4 250.3 337.15 246.8 337.15 243.35 337.15 242.3 334.4 241.45 331.95 241.45 323.75 M 98 343.3 L 113.85 343.3 113.85 304.2 98 304.2 98 343.3 M 123.55 343.3 L 138.35 343.3 138.35 319.15 149 343.3 166.45 343.3 166.45 304.2 151.65 304.2 151.65 328.3 141.4 304.2 123.55 304.2 123.55 343.3 M 58.9 317.05 L 59.05 317.05 64.3 343.3 81.65 343.3 92.1 304.2 76.7 304.2 72.45 331.25 72.3 331.25 66.1 304.2 51.8 304.2 46.1 331.25 45.95 331.25 41.15 304.2 25.85 304.2 36.2 343.3 53.6 343.3 58.9 317.05 M 255.9 196.5 Q 254.3 195.7 252.7 197.6 251.5 199.05 250.5 201.85 249.45 204.85 247.4 209.15 245 214.1 244.6 213.2 248.4 204.05 249.45 201.4 251.05 197.55 250.9 196.6 250.75 195.35 249.1 194.6 247.35 193.9 246.45 195.55 246.25 195.95 243.4 201.85 241 206.9 239.7 208.9 237.8 212.05 236.8 213.45 235.3 215.45 234 216.45 232.55 217.6 231.45 217.75 230.3 217.9 229.9 217 229.45 214.95 228.95 213.4 228.05 210.35 225.95 208.4 223.7 206.25 222.15 206.55 220.75 206.75 221.05 208.15 224.25 217.2 224.35 220.75 224.85 223.6 225.15 224.75 225.3 225.45 226.05 227.55 226.95 230.05 228 232.1 L 226.9 235.95 201.1 260.85 154.35 217.6 Q 148.9 218.4 143.1 218.05 L 138.35 217.6 91.55 260.85 65.8 235.95 64.7 232.1 Q 65.75 230.05 66.65 227.55 67.4 225.45 67.55 224.75 67.85 223.65 68.35 220.75 68.4 218.35 69.8 213.75 70.05 212.95 71.6 208.15 71.95 206.8 70.55 206.55 68.95 206.25 66.7 208.4 64.65 210.3 63.75 213.4 63.25 215 62.8 217 62.4 217.9 61.3 217.75 60.15 217.6 58.7 216.45 57.4 215.45 55.9 213.45 54.9 212.05 52.95 208.9 51.7 206.9 49.3 201.85 46.45 195.95 46.2 195.55 45.35 193.9 43.6 194.6 42 195.3 41.8 196.6 41.6 197.55 43.25 201.4 44.3 204.05 48.1 213.2 47.7 214.1 45.3 209.15 43.25 204.85 42.15 201.85 41.2 199.05 40 197.6 38.4 195.7 36.75 196.5 35.15 197.3 35.5 199.35 35.7 200.4 37.05 203.8 37.8 205.5 40.2 210.85 42.2 215.45 41.9 215.75 41.35 216.2 36.95 208.2 35.35 205.35 34.6 204.35 33.45 202.85 32.45 202.75 31.35 202.65 30.6 203.75 29.95 204.8 30.3 205.7 30.5 206.2 32 208.9 34.45 213.4 37.8 219.9 37.4 220.4 34.75 217.45 32.7 215.05 31.25 213.05 30.3 211.75 29.35 211.6 28.4 211.55 27.6 212.45 26.85 213.3 27.75 214.8 28.15 215.65 30.65 218.8 L 36.7 226.4 37.65 228.15 Q 38.9 230.3 40.25 232.35 41.65 234.45 46.4 238.1 48.75 239.95 50.8 241.35 L 83.55 289.55 Q 87.7 295.85 91.1 294.7 93.15 294 97.4 290.05 L 146.35 251.8 195.3 290.05 Q 196.1 290.6 198.55 292.7 200.4 294.3 201.6 294.7 204.95 295.85 209.1 289.55 L 241.85 241.35 246.35 238.1 Q 251.05 234.45 252.4 232.35 254.65 229.05 256 226.4 L 262.05 218.8 Q 264.55 215.55 264.95 214.8 265.85 213.3 265.05 212.45 264.25 211.55 263.35 211.6 262.35 211.75 261.45 213.05 260.05 215.05 257.95 217.45 255.3 220.4 254.9 219.9 258.35 213.25 260.7 208.9 262.2 206.1 262.35 205.7 262.75 204.8 262.1 203.75 261.35 202.65 260.25 202.75 259.25 202.85 258.05 204.35 257.35 205.35 255.75 208.2 251.3 216.2 250.8 215.75 250.5 215.45 252.5 210.85 254.95 205.5 255.65 203.8 257 200.4 257.2 199.35 257.5 197.3 255.9 196.5 M 171.75 187.35 Q 171.75 176.95 164.4 169.6 157.05 162.2 146.6 162.2 136.2 162.2 128.85 169.6 121.5 176.95 121.5 187.35 121.5 197.8 128.85 205.1 136.2 212.5 146.6 212.5 157.05 212.5 164.4 205.1 171.75 197.8 171.75 187.35 Z"/>
</g>
<g id="l1">
<path fill="#EE212C" stroke="none" d=" M 451.05 372.85 L 451.05 381.15 470.5 381.15 448.95 403.55 448.95 411.6 485.75 411.6 485.75 403.3 463.2 403.3 484.95 380.6 484.95 372.85 451.05 372.85 M 436.15 372.85 L 424.15 372.85 424.15 411.6 436.15 411.6 436.15 372.85 M 456.9 329.2 Q 451.9 331.65 449.3 336.35 446.65 341 446.65 347.35 446.65 353.4 449.05 358.05 451.45 362.7 455.8 365.05 460.15 367.4 467 367.4 472.65 367.4 476.7 366.1 480.85 364.75 486.1 361.2 L 486.1 344.65 467.6 344.65 467.6 352.7 475.6 352.7 475.6 356.35 Q 473.15 357.85 471.45 358.35 469.65 358.95 467.6 358.95 463.4 358.95 461 356.25 458.65 353.55 458.65 347.25 458.65 341.35 461 338.6 463.3 335.85 467.25 335.85 469.95 335.85 471.6 337.05 473.35 338.15 474.05 340.35 L 485.55 338.3 Q 484.55 334.55 482.45 332.1 480.35 329.7 477.15 328.5 474.05 327.35 467.55 327.35 460.8 327.35 456.9 329.2 M 403.1 328 L 403.1 366.75 414.4 366.75 414.4 345.45 428.9 366.75 440.15 366.75 440.15 328 428.9 328 428.9 349.45 414.3 328 403.1 328 M 397.95 372.85 L 384.9 372.85 370.35 411.6 382.55 411.6 384.45 405.2 398.05 405.2 400 411.6 412.5 411.6 397.95 372.85 M 395.55 396.8 L 387.05 396.8 391.3 382.9 395.55 396.8 M 359.3 372.85 L 343.55 372.85 337.55 396.4 331.45 372.85 315.7 372.85 315.7 411.6 325.5 411.6 325.5 382.05 333.05 411.6 341.95 411.6 349.45 382.05 349.45 411.6 359.3 411.6 359.3 372.85 M 353 328 L 341.05 328 341.05 351.65 Q 341.05 354.85 339.3 356.6 337.55 358.4 334.4 358.4 331.3 358.4 329.55 356.55 327.8 354.85 327.8 351.65 L 327.8 328 315.85 328 315.85 351.1 Q 315.85 354 317 357.65 317.6 359.85 319.5 362.1 321.35 364.25 323.6 365.45 325.9 366.6 329.2 367 332.6 367.4 335.4 367.4 340.25 367.4 343.75 366.1 346.25 365.2 348.55 362.9 350.85 360.65 351.95 357.55 353 354.45 353 351.1 L 353 328 M 394.25 332.5 Q 392.5 329.9 389.55 328.95 386.55 328 381.05 328 L 361.1 328 361.1 366.75 373.1 366.75 373.1 351.05 374.15 351.05 Q 375.8 351.05 377.1 351.95 378.05 352.6 379.25 354.9 L 385.65 366.75 399.2 366.75 393.4 355.5 Q 392.85 354.55 391.75 353.1 390.55 351.65 389.8 351.05 388.9 350.4 386.7 349.65 389.4 349.05 390.9 348.1 393.3 346.65 394.65 344.35 396.05 342.05 396.05 338.75 396.05 335.05 394.25 332.5 M 378.15 343.7 L 373.1 343.7 373.1 335.8 378.35 335.8 Q 381.65 335.8 382.85 336.85 384.05 337.85 384.05 339.7 384.05 340.95 383.25 341.95 382.45 342.95 381.35 343.15 379.05 343.7 378.15 343.7 Z"/>
<path fill="#FE962A" stroke="none" d=" M 404.2 261.95 Q 403.5 263.8 400.2 269.75 397.65 274.4 397 278.25 400.75 275.55 404.1 271 407.5 266.25 408 262.95 407 262.1 404.2 261.95 M 388.7 272 Q 387.15 270.85 385.5 270.6 386.25 273.9 386.95 275.15 388.25 277.2 390.75 277.3 391.2 276.9 391.25 275.9 L 391.25 273.95 Q 389.55 272.65 388.7 272 M 386.95 264.35 Q 388.35 266.05 390.8 267.95 392.2 269 395.05 271.1 395.55 269.35 398.25 266.25 400.55 263.6 400.35 261.5 400.1 259.1 396.2 256.35 390.9 252.6 390.3 251.95 389.55 255.25 386.95 264.35 M 405.9 248.15 Q 407.8 244.75 408.5 241.4 404.9 237.95 403.05 236.3 399.75 233.5 396.55 232.3 396.15 234.1 393.85 238 391.9 241.15 392.2 243.3 392.55 245.8 396.6 248.95 401.5 252.7 402.3 253.85 405.25 249.35 405.9 248.15 M 419.5 245.2 Q 417.15 244.25 415.95 243.8 413.8 242.9 411.85 242.8 411.5 243.7 408.35 249.4 406.2 253.35 405.6 256.75 408.55 258.1 412.8 258.65 413.75 256.2 416.2 251.95 418.6 247.65 419.5 245.2 M 406.2 229.55 Q 409.75 232.15 412.8 233.25 414.7 229.55 415.1 228.6 416.35 225.95 417.1 223.65 413.2 220.4 411.2 218.85 407.7 216.05 404.7 214.55 402.65 217.95 402 219.35 400.65 222.15 400.35 225.1 402.4 226.5 406.2 229.55 M 420 225.1 Q 419.2 226.85 417.5 230.3 416 233.3 415.2 235.65 417.1 237.1 418.65 237.95 420.7 239 422.85 239.5 423.25 238.5 426 233.65 428.05 230.1 428.15 228 424.65 225.35 420 225.1 M 410.2 202.65 Q 409 206.1 408.5 208.85 410.3 210 413.8 212.4 417 214.35 420 215.05 424.25 209.45 425.75 203.55 421.75 200.85 419.6 199.6 415.95 197.5 412.3 196.85 411.65 198.8 410.2 202.65 M 429.55 204.05 Q 428.6 206.2 426.35 210.15 424.45 213.85 423.85 216.95 427.55 218.9 428.35 219.25 431.25 220.5 432.9 220.35 435.2 216.75 436.25 214.6 437.95 211.25 438.65 207.85 435.75 206.35 434.35 205.75 431.85 204.6 429.55 204.05 M 464.1 172.85 Q 459.8 172.95 459.25 172.95 458.5 175.3 456.9 179.9 455.5 184.1 454.95 187.3 457.6 189.5 459 190.4 461.4 192 464 192.55 464.3 191.35 466.35 183.15 467.85 177.45 468.35 173.4 467.1 172.8 464.1 172.85 M 460.2 153.3 Q 457.55 152.1 456.2 151.5 453.8 150.5 451.6 150.4 451.1 151.75 448.4 156.2 446.3 159.75 446.3 161.95 447.9 162.65 450.9 164.25 453.7 165.65 455.9 166.25 456.9 164.05 458.1 159.85 459.55 155 460.2 153.3 M 471.25 162.15 Q 471.95 158.6 471.7 155.7 469.2 154.7 467.9 154.2 465.65 153.45 463.55 153.3 462.35 155.4 461.55 159.4 461.1 161.7 460.2 166.25 461.7 167.25 464.8 167.65 466.55 167.85 470.25 168.15 470.35 166.85 471.25 162.15 M 442.25 188.95 Q 438.45 188.2 436.75 187.8 433.85 192.35 431.45 198.8 433.1 199.6 436.25 201.2 439.05 202.55 441.55 203.1 442.65 201 445.05 197 447 193.4 447.75 190.15 445.95 189.65 442.25 188.95 M 440.55 176.1 Q 439.35 179.9 439.15 183.45 445.8 185.2 450.65 185.4 452.05 181.2 452.7 178.8 453.65 175 454 171.5 450.25 169.75 442.95 169.1 442.15 171.75 440.55 176.1 M 421.4 173.85 Q 420.7 175.65 417.8 180.35 415.4 184.25 414.7 187.3 417 188.9 421.25 192.5 425.15 195.6 428.6 196.85 428.9 194.9 431.1 191.85 433.05 189.15 432.9 187.3 432.75 185.35 427.85 180.15 424.95 177.05 421.4 173.85 M 411.85 161.45 Q 407.1 166.5 407.5 171.75 407.9 176.35 412.3 182 416.35 176.55 416.75 171.15 417.25 164.7 411.85 161.45 M 430.05 155.7 Q 429.15 157.5 426.35 161.55 423.85 165.1 422.85 167.65 424.85 169.95 428.5 174.7 431.9 178.8 434.85 181.05 437.35 173.35 440.1 167.65 435.55 160.95 430.05 155.7 M 444.4 143.95 Q 442.15 141 440.1 139.9 435.95 143.1 432.9 149.45 437.5 156.5 442.5 160 446.2 154.5 448.25 148.5 447.15 147.55 444.4 143.95 M 434.95 131.45 Q 433.75 128.15 433.4 127.45 430.05 131.15 429.25 132.15 427 134.9 425.75 137.5 426 139.2 427.6 141.4 429.25 143.6 429.55 145.15 431.75 143.5 433.65 140.6 434.9 138.75 436.75 135.1 435.8 133.9 434.95 131.45 M 424.95 147.6 Q 423.25 145.5 420.95 144.2 416.9 151.1 416.2 154.2 414.9 160.1 420.45 162.85 420.6 160.9 423.65 157.3 426.65 153.8 426.7 151.85 426.75 149.85 424.95 147.6 M 445.35 113.55 Q 444.85 114.25 441.85 117.45 439.65 119.8 438.65 121.7 439.15 123.15 440 124.9 440.5 125.9 441.55 127.9 445.65 126.25 447 121.95 448.4 117.35 445.35 113.55 M 464.5 138.45 Q 464.25 145.7 464 147.55 464.7 147.65 468.25 148.4 470.75 148.9 472.65 149 473.3 146.1 473.2 140.45 473.05 132.75 473.15 131.25 471.45 130.55 469.15 130.1 466.6 129.55 465.45 129.85 464.65 132.65 464.5 138.45 M 454.95 129.35 Q 454.4 128.25 453.05 126.45 451.65 124.55 451.1 123.6 448.25 124.85 446 127.35 444.25 129.4 442.5 132.7 443.55 134.2 445.5 137.35 447.35 140 449.2 141.3 451.3 138.15 452.5 135.75 454.1 132.6 454.95 129.35 M 463.55 130.3 Q 458.4 127.9 456.25 133.8 455.65 135.45 454.85 139.2 454.05 142.85 453.5 144.2 454.7 144.3 457.55 145.05 460.1 145.5 461.65 144.7 463.1 137.95 463.55 130.3 M 460.7 115 Q 459.95 118.85 460.7 122.65 464.4 123.25 465 118.7 465.3 116.25 464.5 111.15 461.65 110.3 460.7 115 M 453 116.9 Q 453.75 117.7 455.1 119.35 456.45 120.65 458.3 120.75 460.2 114.05 461.15 110.7 458.9 108.55 456.45 111.5 454 115.5 453 116.9 M 457.35 109.7 Q 456.8 106.45 455.9 104 450.7 106.3 447.75 110.7 447.9 110.85 449.3 113.25 450.15 114.8 451.6 115 452.5 113.8 454.4 112.3 456.7 110.4 457.35 109.7 M 466.9 105.9 Q 468.6 104.4 468.25 102.9 467.95 101.55 466.35 100.85 464.8 100.15 463.3 100.65 461.65 101.2 461.15 103 461.6 106.5 466.9 105.9 M 471.1 111.55 Q 469.85 106.75 465.95 109.7 465.2 112.15 465.45 115.85 465.65 119.05 466.4 121.7 L 469.35 121.75 Q 471.05 121.75 471.7 121.2 471.85 114.3 471.1 111.55 Z"/>
<path fill="#25833C" stroke="none" d=" M 401.25 176.9 Q 395.75 171.05 385.5 174.35 373.1 178.35 361.9 187.2 352.5 194.6 343.35 205.95 333.35 218.4 327.45 227.3 319.35 239.55 315.1 250.5 327.05 236.4 330.3 233.1 341.1 222.15 350.05 218.9 361.35 214.75 366.55 221 371.3 226.65 369.7 239 369.1 243.8 366 252.35 362 263.5 361.1 266.75 359.8 271.6 357 281.55 354.85 290.15 354.35 296.45 353.45 309.9 360.5 317 367.8 324.2 380.25 321.35 388.5 319.45 395.95 314.05 401.8 309.75 408.4 302.4 415.65 293.75 419.15 289.6 425.35 282.35 430.05 278.75 427.95 298.25 431.95 308.25 437.15 321.3 452.55 318 463.35 315.7 473.2 302.7 480.15 293.5 485.55 280.65 481.45 284.2 475.25 285.5 467.95 287 463.55 283.5 457.05 268.25 459.2 242.75 460.9 222.85 466.9 203.1 466.8 203.05 458.95 199.55 454.15 197.45 450.65 196.4 441.1 217.05 432.95 231.9 422.25 251.55 411.85 265.35 404.6 274.9 403.75 275.9 398.55 281.9 394.15 283.5 386.65 286.2 383.15 282.1 379.85 278.2 380.75 269.65 381.55 261.4 385.25 250.15 385.9 248.1 392.2 230.85 393.6 227.05 396.1 221.65 398.95 215.75 400.25 212.8 404.95 202.2 405.6 194 406.55 182.45 401.25 176.9 Z"/>
</g>
</defs>
<g transform="matrix(1,0,0,1,0,0)">
<use xlink:href="#l2"/>
</g>
<g transform="matrix(1,0,0,1,0,0)">
<use xlink:href="#l1"/>
</g>
</svg> 