<svg xmlns="http://www.w3.org/2000/svg" xmlns:xlink="http://www.w3.org/1999/xlink" width="100%" height="100%" viewBox="0 0 1024 892">
<!-- Vectorization by Rodrigo Polo https://github.com/rodrigopolo/logotipos-politicos -->
<defs>
<g id="l1">
<path fill="#343536" stroke="none" d="M 551.75 707.2 Q 530.9 707.2 515.95 715.05 481.4 731.9 481.4 783.45 481.4 809.35 491.25 826.1 509 859.75 551.75 859.75 568.7 859.75 586.35 851.9 622.1 833 622.1 783.45 622.1 758.75 612.1 740.8 592.35 707.2 551.75 707.2 M 509 783.45 Q 509 758.75 521 744.8 533.9 731.9 551.75 731.9 568.6 731.9 581.5 744.8 593.3 758.75 593.3 783.45 593.3 808.05 581.5 821.05 569.45 833.95 551.75 833.95 532.85 833.95 521 821.05 509 808.05 509 783.45 M 293.05 783.45 Q 293.05 757.6 304.9 745.85 316.9 731.9 334.55 731.9 362.35 731.9 372.35 758.75 L 397.15 751.8 Q 386.2 707.2 334.55 707.2 306.95 707.2 285 726.85 264.15 747.9 264.15 783.45 264.15 820.1 285 839 305.95 859.75 334.55 859.75 386.2 859.75 397.15 814.1 L 372.35 808.15 Q 361.4 833.95 334.55 833.95 316.8 833.95 304.9 821.05 293.05 808.3 293.05 783.45 M 72 715.05 Q 36.25 732 36.25 783.45 36.25 809.25 46.3 826.1 66 859.75 106.6 859.75 124.55 859.75 142.45 851.9 176.95 833 176.95 783.45 176.95 756.5 167.15 740.8 149.35 707.2 106.6 707.2 84.8 707.2 72 715.05 M 65.1 783.45 Q 65.1 758.75 76.95 744.8 89.85 731.9 106.6 731.9 124.55 731.9 137.4 744.8 149.25 758.75 149.25 783.45 149.25 808.05 137.4 821.05 125.5 833.95 106.6 833.95 88.85 833.95 76.95 821.05 65.1 808.05 65.1 783.45 M 328.65 210.6 L 328.65 193.75 309.85 193.75 309.85 210.6 328.65 210.6 M 521.85 240.35 L 502.1 240.35 502.1 307.7 521.85 307.7 521.85 240.35 M 598.35 221.55 L 579.35 221.55 579.35 327.45 598.35 327.45 598.35 221.55 M 387.05 296.85 L 387.05 344.35 Q 387.05 396.95 423.9 433.5 460.65 470.35 512 470.35 564.5 470.35 601.15 433.5 637.9 396.95 637.9 344.35 L 637.9 250.25 618 250.25 618 344.35 Q 618 388.05 587.4 419.75 555.5 450.45 512 450.45 468.5 450.45 436.8 419.75 405.95 387.95 405.95 344.35 L 405.95 296.85 387.05 296.85 M 328.65 263 L 328.65 234.45 309.85 234.45 309.85 263 328.65 263 M 367.3 259.25 L 348.5 259.25 348.5 299.75 367.3 299.75 367.3 259.25 M 367.3 231.3 L 367.3 201.7 348.5 201.7 348.5 231.3 367.3 231.3 M 445.6 266.15 L 425.75 266.15 425.75 344.35 Q 425.75 380.1 451.5 405.9 476.2 430.6 512 430.6 547.75 430.6 573.45 405.9 598.35 380.2 598.35 344.35 L 579.35 344.35 Q 579.35 372.15 559.7 390.95 539.8 410.7 512 410.7 484.3 410.7 465.5 390.95 445.6 372.05 445.6 344.35 L 445.6 266.15 M 405.95 279 L 405.95 250.25 387.05 250.25 387.05 279 405.95 279 M 485.35 239.4 L 465.5 239.4 465.5 344.35 Q 465.5 364.2 479.35 377.1 493.1 390.95 512 390.95 531.95 390.95 545.85 377.1 559.7 363.25 559.7 344.35 L 559.7 263 539.8 263 539.8 344.35 Q 539.8 355.3 531.85 364.2 524 372.05 512 372.05 501.05 372.05 493.3 364.2 485.35 355.5 485.35 344.35 L 485.35 239.4 M 405.95 185.8 L 387.05 185.8 387.05 236.25 405.95 236.25 405.95 185.8 M 445.6 161.95 L 445.6 124.35 425.75 124.35 425.75 161.95 445.6 161.95 M 445.6 183.75 L 425.75 183.75 425.75 245.3 445.6 245.3 445.6 183.75 M 485.35 121.35 L 465.5 121.35 465.5 219.5 485.35 219.5 485.35 121.35 M 387.05 131.3 L 387.05 154.1 405.95 154.1 405.95 131.3 387.05 131.3 M 348.5 152.05 L 348.5 170.85 367.3 170.85 367.3 152.05 348.5 152.05 M 445.6 91.55 L 425.75 91.55 425.75 109.5 445.6 109.5 445.6 91.55 M 485.35 69.75 L 465.5 69.75 465.5 104.45 485.35 104.45 485.35 69.75 M 637.9 170.85 L 618 170.85 618 223.35 637.9 223.35 637.9 170.85 M 598.35 148.2 L 579.35 148.2 579.35 204.6 598.35 204.6 598.35 148.2 M 579.35 104.45 L 579.35 133.25 598.35 133.25 598.35 104.45 579.35 104.45 M 637.9 122.4 L 618 122.4 618 152.05 637.9 152.05 637.9 122.4 M 559.7 180.85 L 539.8 180.85 539.8 247.35 559.7 247.35 559.7 180.85 M 521.85 179.75 L 502.1 179.75 502.1 218.45 521.85 218.45 521.85 179.75 M 521.85 129.4 L 502.1 129.4 502.1 158.15 521.85 158.15 521.85 129.4 M 559.7 116.5 L 539.8 116.5 539.8 152.05 559.7 152.05 559.7 116.5 M 539.8 57.95 L 539.8 86.75 559.7 86.75 559.7 57.95 539.8 57.95 M 521.85 90.7 L 502.1 90.7 502.1 114.45 521.85 114.45 521.85 90.7 M 521.85 32.25 L 502.1 32.25 502.1 50 521.85 50 521.85 32.25 M 598.35 71.9 L 579.35 71.9 579.35 89.65 598.35 89.65 598.35 71.9 M 921.25 765.55 L 921.25 733.85 985.7 733.85 985.7 708.05 893.55 708.05 893.55 857.8 987.85 857.8 987.85 832 921.25 832 921.25 791.3 972.85 791.3 972.85 765.55 921.25 765.55 M 695.35 708.05 L 695.35 733.85 735.95 733.85 735.95 857.8 763.8 857.8 763.8 733.85 805.45 733.85 805.45 708.05 695.35 708.05 M 676.55 316.7 L 656.7 316.7 656.7 344.35 Q 656.7 404.05 614.05 446.4 572.45 489.15 512 489.15 452.6 489.15 410.05 446.4 367.3 403.95 367.3 344.35 L 367.3 316.7 348.5 316.7 348.5 344.35 Q 348.5 411.8 396.1 460.35 444.75 509 512 509 580.4 509 629.1 460.35 676.55 411.7 676.55 344.35 L 676.55 316.7 M 715.25 284.95 L 695.35 284.95 695.35 344.35 Q 695.35 420.8 641.95 474.3 588.25 527.8 512 527.8 436.7 527.8 382.25 474.3 328.65 420.5 328.65 344.35 L 328.65 284.95 309.85 284.95 309.85 344.35 Q 309.85 393.85 332.7 437.55 354.4 480.1 393.1 507.95 L 267.3 482.15 263.3 500.95 416.95 533.7 260.3 533.7 260.3 552.5 416.95 552.5 263.3 585.25 267.3 604.05 512 553.6 756.9 604.05 760.9 585.25 607.25 552.5 764.85 552.5 764.85 533.7 607.25 533.7 760.9 500.95 756.9 482.15 630.9 507.95 Q 670.55 480 692.45 437.55 715.25 393.85 715.25 344.35 L 715.25 284.95 M 676.55 234.45 L 656.7 234.45 656.7 299.75 676.55 299.75 676.55 234.45 M 715.25 211.55 L 695.35 211.55 695.35 263 715.25 263 715.25 211.55 M 715.25 170 L 695.35 170 695.35 197.7 715.25 197.7 715.25 170 M 676.55 164.1 L 656.7 164.1 656.7 219.5 676.55 219.5 676.55 164.1 M 676.55 126.25 L 656.7 126.25 656.7 145.3 676.55 145.3 676.55 126.25 Z"/>
</g>
</defs>
<g transform="matrix(1,0,0,1,0,0)">
<use xlink:href="#l1"/>
</g>
</svg>
