<svg xmlns="http://www.w3.org/2000/svg" xmlns:xlink="http://www.w3.org/1999/xlink" width="100%" height="100%" viewBox="0 0 1024 1024">
<!-- Vectorization by Rodrigo Polo https://github.com/rodrigopolo/logotipos-politicos -->
<defs>
<filter id="f1" x="-20%" y="-20%" width="140%" height="140%" color-interpolation-filters="sRGB">
<feColorMatrix in="SourceGraphic" type="matrix" values="0 0 0 0 1 0 0 0 0 0.09803921568627451 0 0 0 0 0.12156862745098039 0 0 0 1 0" result="result1"/>
</filter>
<filter id="f2" x="-20%" y="-20%" width="140%" height="140%" color-interpolation-filters="sRGB">
<feColorMatrix in="SourceGraphic" type="matrix" values="0 0 0 0 0.996078431372549 0 0 0 0 0.4196078431372549 0 0 0 0 0.8509803921568627 0 0 0 1 0" result="result1"/>
</filter>
<filter id="f3" x="-20%" y="-20%" width="140%" height="140%" color-interpolation-filters="sRGB">
<feColorMatrix in="SourceGraphic" type="matrix" values="0 0 0 0 0.6470588235294118 0 0 0 0 0.4549019607843137 0 0 0 0 0.9372549019607843 0 0 0 1 0" result="result1"/>
</filter>
<filter id="f4" x="-20%" y="-20%" width="140%" height="140%" color-interpolation-filters="sRGB">
<feColorMatrix in="SourceGraphic" type="matrix" values="0 0 0 0 0.33725490196078434 0 0 0 0 0.25098039215686274 0 0 0 0 0.788235294117647 0 0 0 1 0" result="result1"/>
</filter>
<filter id="f5" x="-20%" y="-20%" width="140%" height="140%" color-interpolation-filters="sRGB">
<feColorMatrix in="SourceGraphic" type="matrix" values="0 0 0 0 0 0 0 0 0 0.19607843137254902 0 0 0 0 0.8549019607843137 0 0 0 1 0" result="result1"/>
</filter>
<filter id="f6" x="-20%" y="-20%" width="140%" height="140%" color-interpolation-filters="sRGB">
<feColorMatrix in="SourceGraphic" type="matrix" values="0 0 0 0 0 0 0 0 0 0.6352941176470588 0 0 0 0 0.8470588235294118 0 0 0 1 0" result="result1"/>
</filter>
<filter id="f7" x="-20%" y="-20%" width="140%" height="140%" color-interpolation-filters="sRGB">
<feColorMatrix in="SourceGraphic" type="matrix" values="0 0 0 0 0 0 0 0 0 0.9372549019607843 0 0 0 0 0.8274509803921568 0 0 0 1 0" result="result1"/>
</filter>
<filter id="f8" x="-20%" y="-20%" width="140%" height="140%" color-interpolation-filters="sRGB">
<feColorMatrix in="SourceGraphic" type="matrix" values="0 0 0 0 0 0 0 0 0 0.6509803921568628 0 0 0 0 0.4117647058823529 0 0 0 1 0" result="result1"/>
</filter>
<filter id="f9" x="-20%" y="-20%" width="140%" height="140%" color-interpolation-filters="sRGB">
<feColorMatrix in="SourceGraphic" type="matrix" values="0 0 0 0 0.6392156862745098 0 0 0 0 0.8196078431372549 0 0 0 0 0.050980392156862744 0 0 0 1 0" result="result1"/>
</filter>
<filter id="f10" x="-20%" y="-20%" width="140%" height="140%" color-interpolation-filters="sRGB">
<feColorMatrix in="SourceGraphic" type="matrix" values="0 0 0 0 0.996078431372549 0 0 0 0 0.6980392156862745 0 0 0 0 0.00392156862745098 0 0 0 1 0" result="result1"/>
</filter>
<filter id="f11" x="-20%" y="-20%" width="140%" height="140%" color-interpolation-filters="sRGB">
<feColorMatrix in="SourceGraphic" type="matrix" values="0 0 0 0 0.996078431372549 0 0 0 0 0.3333333333333333 0 0 0 0 0.24705882352941178 0 0 0 1 0" result="result1"/>
</filter>
<g id="s2">
<path fill="#00FF00" stroke="none" d="M 62 -66.25 Q 25 -60.85 20.25 -60.1 -61.35 -46.85 -88.35 -40.6 -100.05 -37.85 -110.4 -34.55 -122.8 -30.3 -131.25 -27.55 -149.1 -21.75 -150.6 -14.4 -152.15 -6.8 -136.3 3.1 -112 18.3 -75.45 37.3 -54.5 48.25 -12.55 69.4 3.3 77.6 10.05 77.4 17 77.2 26.2 67.95 45.3 48.8 93.7 4 136.8 -35.95 142.4 -42.3 151.15 -52.25 150.75 -60.5 150.4 -67.45 143.4 -73.8 139.55 -77.3 130.9 -77.35 120.7 -77.4 101.9 -72.9 86.9 -69.9 62 -66.25 Z"/>
</g>
<g id="l1">
<path fill="#00A2D8" stroke="none" d="M 703.4 713.55 Q 784.1 632.85 784.1 518.7 784.1 404.6 703.4 323.9 622.7 243.2 508.6 243.2 503.95 243.2 499.4 243.35 391.2 246.45 313.75 323.9 233.05 404.6 233.05 518.7 233.05 632.85 313.75 713.55 391.2 791 499.4 794.15 503.95 794.25 508.6 794.25 622.7 794.25 703.4 713.55 M 758.95 518.7 Q 758.95 622.4 685.65 695.8 612.3 769.15 508.55 769.15 503.9 769.15 499.4 769 401.5 765.9 331.45 695.8 258.05 622.4 258.05 518.7 258.05 414.9 331.45 341.6 401.5 271.4 499.4 268.35 503.9 268.15 508.55 268.15 612.3 268.15 685.65 341.6 758.95 414.9 758.95 518.7 Z"/>
</g>
<g id="s0">
<path fill="#00A2D8" stroke="none" d="M 66.35 -212.85 Q 57.7 -206.3 48.7 -198.3 28 -179.85 -29.85 -120.85 -33.25 -117.45 -59 -90.3 -76.3 -72.1 -87.4 -61.6 -101.95 -48.8 -107.8 -40.45 -112.75 -33.4 -112.1 -28.2 -110.95 -18.8 -105.5 -14.55 -99 -9.45 -85.85 -10.85 -82.4 -11.2 -65.25 -14.85 -54.35 -17.15 -20.85 -24.35 -23.1 -8.6 -35.15 77.15 -43.35 135.1 -49.15 174.8 -51.95 200 -42.05 215.1 -32.1 230.35 -10.9 232.85 13.05 235.65 37.95 234.2 44.6 233.5 48.45 226.6 52 220.15 53.8 206.85 60.5 155.95 74.05 65.7 93.45 -63.55 94.8 -72.95 101.75 -119.4 104.9 -142.85 110.45 -183.7 112.05 -212.3 113.1 -230.95 106 -234.05 99.15 -237.1 84.1 -225.85 76.95 -220.5 66.35 -212.85 Z"/>
</g>
</defs>
<g transform="matrix(0.375335693359375,0.7367095947265625,-0.7367095947265625,0.375335693359375,469.05,143.5)">
<g transform="matrix(1,0,0,1,0,0)">
<use filter="url(#f1)" xlink:href="#s2"/>
</g>
</g>
<g transform="matrix(-0.0864105224609375,0.822265625,-0.822265625,-0.0864105224609375,679.65,182.5)">
<g transform="matrix(1,0,0,1,0,0)">
<use filter="url(#f2)" xlink:href="#s2"/>
</g>
</g>
<g transform="matrix(-0.5203094482421875,0.6425018310546875,-0.6425018310546875,-0.5203094482421875,835.05,329.9)">
<g transform="matrix(1,0,0,1,0,0)">
<use filter="url(#f3)" xlink:href="#s2"/>
</g>
</g>
<g transform="matrix(-0.7862701416015625,0.255462646484375,-0.255462646484375,-0.7862701416015625,885.1,538.15)">
<g transform="matrix(1,0,0,1,0,0)">
<use filter="url(#f4)" xlink:href="#s2"/>
</g>
</g>
<g transform="matrix(-0.7985076904296875,-0.213958740234375,0.213958740234375,-0.7985076904296875,813.65,740.05)">
<g transform="matrix(1,0,0,1,0,0)">
<use filter="url(#f5)" xlink:href="#s2"/>
</g>
</g>
<g transform="matrix(-0.5531005859375,-0.61431884765625,0.61431884765625,-0.5531005859375,643.75,870.45)">
<g transform="matrix(1,0,0,1,0,0)">
<use filter="url(#f6)" xlink:href="#s2"/>
</g>
</g>
<g transform="matrix(-0.1292877197265625,-0.816436767578125,0.816436767578125,-0.1292877197265625,430.25,887.3)">
<g transform="matrix(1,0,0,1,0,0)">
<use filter="url(#f7)" xlink:href="#s2"/>
</g>
</g>
<g transform="matrix(0.3361968994140625,-0.7551116943359375,0.7551116943359375,0.3361968994140625,242,785.2)">
<g transform="matrix(1,0,0,1,0,0)">
<use filter="url(#f8)" xlink:href="#s2"/>
</g>
</g>
<g transform="matrix(0.693206787109375,-0.4501495361328125,0.4501495361328125,0.693206787109375,139.8,596.95)">
<g transform="matrix(1,0,0,1,0,0)">
<use filter="url(#f9)" xlink:href="#s2"/>
</g>
</g>
<g transform="matrix(0.8264923095703125,0,0,0.8264923095703125, 156.55,383.45)">
<g transform="matrix(1,0,0,1,0,0)">
<use filter="url(#f10)" xlink:href="#s2"/>
</g>
</g>
<g transform="matrix(0.6930999755859375,0.4501190185546875,-0.4501190185546875,0.6930999755859375,286.95,213.45)">
<g transform="matrix(1,0,0,1,0,0)">
<use filter="url(#f11)" xlink:href="#s2"/>
</g>
</g>
<g transform="matrix(1,0,0,1,0,0)">
<use xlink:href="#l1"/>
</g>
<g transform="matrix(0.82684326171875,0,0,0.82684326171875,389.55,522.9)">
<g transform="matrix(1,0,0,1,0,0)">
<use xlink:href="#s0"/>
</g>
</g>
<g transform="matrix(0.82684326171875,0,0,0.82684326171875,565.7,522.9)">
<g transform="matrix(1,0,0,1,0,0)">
<use xlink:href="#s0"/>
</g>
</g>
</svg>
