<svg xmlns="http://www.w3.org/2000/svg" xmlns:xlink="http://www.w3.org/1999/xlink" width="100%" height="100%" viewBox="0 0 1024 582">
<!-- Vectorization by Rodrigo Polo https://github.com/rodrigopolo/logotipos-politicos -->
<defs>
<g id="l1">
<path fill="#FFCA08" stroke="none" d="M 803.55 123.6 Q 737.7 80.5 667.15 60 596 39.3 512.25 39.3 512.15 39.3 512 39.3 L 511.95 39.3 Q 511.8 39.3 511.65 39.3 427.9 39.3 356.75 60 286.25 80.5 220.4 123.6 182.3 148.45 152 175.55 121.4 202.95 94.1 236.9 84.15 247.85 76.65 259.95 69.85 273.3 69.35 289.2 69.35 289.45 69.35 289.7 69.35 289.8 69.35 289.95 L 69.35 291.45 Q 69.35 291.55 69.35 291.65 L 69.35 292.25 Q 69.35 292.35 69.35 292.4 69.35 292.6 69.35 292.8 69.85 308.7 76.65 322.05 84.15 334.15 94.1 345.1 121.4 379.05 152 406.4 182.3 433.55 220.4 458.4 286.25 501.5 356.75 522 427.9 542.7 511.65 542.7 511.8 542.7 511.95 542.7 L 512 542.7 Q 512.15 542.7 512.25 542.7 596 542.7 667.15 522 737.7 501.5 803.55 458.4 841.65 433.55 871.95 406.4 902.55 379.05 929.85 345.1 939.75 334.15 947.25 322.05 954.1 308.7 954.55 292.8 954.6 292.6 954.6 292.4 954.6 292.35 954.6 292.25 L 954.6 291.65 Q 954.6 291.55 954.6 291.45 L 954.6 289.95 Q 954.6 289.8 954.6 289.7 954.6 289.45 954.55 289.2 954.1 273.3 947.25 259.95 939.75 247.85 929.85 236.9 902.55 202.95 871.95 175.55 841.65 148.45 803.55 123.6 M 818.2 290.55 Q 818.2 290.75 818.2 291 818.2 291.2 818.2 291.45 817.7 385.7 728.5 452.55 638.8 519.6 512 519.6 L 511.95 519.6 Q 385.1 519.6 295.4 452.55 206.25 385.7 205.7 291.45 205.7 291.2 205.7 291 205.7 290.75 205.7 290.55 206.25 196.25 295.4 129.45 385.1 62.4 511.95 62.4 L 512 62.4 Q 638.8 62.4 728.5 129.45 817.7 196.25 818.2 290.55 Z"/>
</g>
<g id="l0">
<path fill="#FFCA08" stroke="none" d="M 663 202.55 L 663 139.75 360.35 139.75 360.35 252.15 512.75 252.15 Q 515.1 252.2 516 253.25 516.9 254.3 515.85 255.8 467.65 320.9 436.1 385.3 405.85 447.25 392.6 505.1 477.1 529.45 548.05 521.4 557.4 433.2 586.45 352.6 615.45 272.2 663 202.55 Z"/>
</g>
</defs>
<g transform="matrix(1,0,0,1,0,0)">
<use xlink:href="#l1"/>
</g>
<g transform="matrix(1,0,0,1,0,0)">
<use xlink:href="#l0"/>
</g>
</svg>
