<svg xmlns="http://www.w3.org/2000/svg" xmlns:xlink="http://www.w3.org/1999/xlink" width="100%" height="100%" viewBox="0 0 1024 820">
<!-- Vectorization by Rodrigo Polo https://github.com/rodrigopolo/logotipos-politicos -->
<defs>
<g id="l0">
<path fill="#082799" stroke="none" d="M 192.2 83.3 Q 192.2 59.95 168.8 59.95 L 84.3 59.95 Q 60.95 59.95 60.95 83.3 L 60.95 735.05 Q 60.95 758.4 84.3 758.4 L 168.8 758.4 Q 192.2 758.4 192.2 735.05 L 192.2 83.3 M 669.15 328.55 Q 690.4 288.55 690.15 238.15 689.5 151.8 634.15 103.25 578.75 54.7 478.05 52 397.65 49.85 347 82.85 309.2 107.45 288.35 140.2 266.65 174.15 261.5 219.5 261.5 242.85 284.85 242.85 L 369.35 242.85 Q 388.65 242.85 392.4 226.9 397.8 204.1 415.55 186.35 441.1 160.8 477.1 160.8 513.1 160.8 538.6 186.35 564.15 211.8 564.15 247.85 564.15 283.85 538.6 309.4 514.6 333.4 481.25 334.8 479.2 334.85 477.1 334.85 476.95 334.85 476.8 334.85 L 461.65 335.1 Q 438.25 335.1 438.25 354.55 L 438.25 424.95 Q 438.25 442 456.1 444.15 L 482.2 445.5 Q 486.65 445.55 491 445.95 528.9 449.15 556.65 476.6 588.1 507.7 588.1 551.65 588.1 595.55 556.65 626.75 525.15 657.85 480.7 657.85 436.3 657.85 404.85 626.75 382.95 605.05 376.3 577.2 L 376.4 577 Q 376.4 569.55 374.05 564.55 369 553.6 353.05 553.6 L 270.05 553.6 Q 246.7 553.6 246.7 577 257.2 672.05 313.75 719.55 370.05 766.8 473.65 768.25 545.05 769.15 597.2 742.75 646.4 717.85 679.05 668.15 693.2 646.65 699.9 618.45 705.95 593.3 706.7 560.05 709.45 435.75 608.5 391.3 647.8 368.55 669.15 328.55 Z"/>
</g>
<g id="s1">
<path fill="#FE3FB1" stroke="none" d="M 71.25 -71.25 Q 41.7 -100.8 0 -100.8 -41.7 -100.8 -71.25 -71.25 -100.8 -41.7 -100.8 0 -100.8 41.7 -71.25 71.25 -41.7 100.8 0 100.8 41.7 100.8 71.25 71.25 100.8 41.7 100.8 0 100.8 -41.7 71.25 -71.25 Z"/>
</g>
</defs>
<g transform="matrix(1,0,0,1,0,0)">
<use xlink:href="#l0"/>
</g>
<g transform="matrix(1,0,0,1,862.3,152.95)">
<g transform="matrix(1,0,0,1,0,0)">
<use xlink:href="#s1"/>
</g>
</g>
<g transform="matrix(1,0,0,1,862.3,411.05)">
<g transform="matrix(1,0,0,1,0,0)">
<use xlink:href="#s1"/>
</g>
</g>
<g transform="matrix(1,0,0,1,862.3,667.5)">
<g transform="matrix(1,0,0,1,0,0)">
<use xlink:href="#s1"/>
</g>
</g>
</svg>
