<svg xmlns="http://www.w3.org/2000/svg" xmlns:xlink="http://www.w3.org/1999/xlink" width="100%" height="100%" viewBox="0 0 1024 833">
<!-- Vectorization by Rodrigo Polo https://github.com/rodrigopolo/logotipos-politicos -->
<defs>
<g id="l1">
<path fill="#CF24AC" stroke="none" d="M 696.5 637.6 Q 694.2 637.65 691.85 637.65 647.1 637.65 615.45 614.85 586.95 594.3 582.35 567.5 581.5 562.55 580.55 559.95 579.15 556.15 576.55 553.55 570.75 547.75 562.6 547.75 L 407.7 547.75 Q 399.55 547.75 393.75 553.55 388 559.25 387.95 567.25 L 389.4 591.6 Q 398.8 686.95 479.35 749 523.55 783.05 577.2 799.2 621.8 812.65 675.7 814.6 683.6 813.65 689.45 807.85 696.5 800.9 696.5 791.15 L 696.5 637.6 Z"/>
<path fill="#00AD00" stroke="none" d="M 797.5 559.85 Q 797.5 576.9 790.8 590.95 783.4 606.4 768.25 617.3 753.1 628.25 733.35 633.15 717.25 637.2 696.5 637.6 L 696.5 791.15 Q 696.5 800.9 689.45 807.85 683.6 813.65 675.7 814.6 684.5 814.9 693.65 814.9 759.3 814.9 815.75 798.8 875.65 781.75 919.25 748.2 962.85 714.6 983.75 671.1 1003.35 630.2 1003.35 579.65 1003.35 573 1003.1 566.55 L 1003.65 566.55 Q 1003.6 565.8 1003.6 565.15 1003.05 557.85 996.6 552.6 989.55 546.8 979.6 546.8 L 796.55 546.8 Q 797.5 553 797.5 559.85 Z"/>
<path fill="#FF2C1E" stroke="none" d="M 695.3 37.65 Q 695.3 29.5 689.5 23.7 685.15 19.35 679.4 18.25 621.45 20.1 574.5 34.5 524.4 49.9 485.35 80.05 452.2 105.65 432.15 138.45 413.75 168.6 405 207.5 401.2 224.75 400.05 231 397.8 243.85 397.65 253.8 397.8 261.75 403.45 267.4 409.25 273.2 417.45 273.2 L 567.45 273.2 Q 575.6 273.2 581.4 267.4 584.1 264.75 585.9 261 587.4 257.85 588.5 253.45 590.8 244.35 596.9 235 604.15 224.05 614.35 216.7 629.3 205.9 647.1 200.75 664.65 195.65 686.15 195.65 690.8 195.65 695.3 195.95 L 695.3 37.65 Z"/>
<path fill="#0056A4" stroke="none" d="M 981.25 286.45 Q 978.95 282.2 973.4 278.8 963.9 273 950.55 273 L 789 273 Q 789 273.15 789 273.2 787.4 296.75 758.95 313.65 731.25 330.05 693.05 331.4 691.35 331.45 689.65 331.5 L 686.15 331.5 Q 685.55 331.5 685 331.5 L 639.35 331.5 Q 631.2 331.5 625.4 337.3 619.6 343.1 619.6 351.25 L 619.6 464.8 Q 619.6 473 625.4 478.8 631.2 484.6 639.35 484.6 L 722.9 484.6 Q 728.55 485.55 733.75 486.95 753.75 492.2 769.1 503.2 784.15 514.05 791.2 529.15 795 537.3 796.55 546.8 L 979.6 546.8 Q 989.55 546.8 996.6 552.6 1003.05 557.85 1003.6 565.15 998.75 448.35 893.05 405.75 942.15 378.45 964.8 335.15 976.3 313.15 981.25 286.45 Z"/>
<path fill="#F9DF01" stroke="none" d="M 973.4 278.8 Q 978.95 282.2 981.25 286.45 984.55 268.5 984.85 248.35 984.9 245.85 984.9 243.3 984.9 150 899.5 84 814.1 18.05 693.25 18.05 686.25 18.05 679.4 18.25 685.15 19.35 689.5 23.7 695.3 29.5 695.3 37.65 L 695.3 195.95 Q 732.05 198 758.95 217.35 789.1 239.05 789.1 269.75 789.1 271.4 789 273 L 950.55 273 Q 963.9 273 973.4 278.8 Z"/>
</g>
<g id="l0">
<path fill="#000000" stroke="none" d="M 189.15 376.75 Q 176.8 376.75 166.7 381 156.55 385.2 149.2 392.6 142 399.85 138 409.9 133.95 420.05 133.95 431.7 133.95 443.45 138.1 453.35 142.2 463.3 149.45 470.75 156.75 478.25 166.9 482.5 177 486.6 189.15 486.6 L 189.6 486.6 Q 195.95 486.6 200.45 485.35 L 208.5 481.95 214.4 477.15 218.95 471.5 220.3 478.7 221.95 482.9 Q 223.25 484.5 226.65 484.5 L 241.3 484.5 Q 243.75 484.5 245.75 483.1 247.85 481.65 247.85 479.1 L 247.85 384.15 Q 247.85 381.5 245.75 379.9 243.75 378.2 241.3 378.2 L 228.5 377.8 Q 225.3 377.8 224.15 379.05 L 222.05 383.95 219.85 392.15 Q 214.6 385.85 207.85 381.25 201.15 376.75 189.15 376.75 M 202.5 405.35 Q 207.5 407.7 211.15 411.7 214.85 415.75 216.65 421.05 218.5 426.3 218.5 432.1 218.5 444.3 211.05 452.4 203.7 460.5 190.9 460.5 184.8 460.5 179.8 458.3 174.8 456.2 171.1 452.25 167.45 448.35 165.55 443.2 163.6 438.05 163.6 431.9 163.6 426.05 165.55 420.9 167.45 415.75 171.05 411.7 174.45 407.7 179.7 405.35 184.8 403.2 190.9 403.2 197.5 403.2 202.5 405.35 M 78.6 376.1 Q 66.6 376.1 55.9 380.45 45.35 384.8 37.35 392.35 29.45 399.85 24.85 410 20.35 420.25 20.35 431.7 20.35 443.2 24.85 453.25 29.45 463.3 37.35 470.75 45.35 478.25 55.9 482.65 66.6 486.95 78.6 486.95 88.35 486.95 97.3 483.75 106.2 480.7 113.7 475.95 L 116.2 474.05 Q 117.55 472.85 117.55 471 L 116.65 468.65 106.85 455.35 Q 105.05 452.9 103.4 452.9 L 89.85 458.1 Q 84.75 459.85 77.9 460.1 65.55 460.1 57.35 452.4 49 444.7 49 432.2 49 426.4 51.25 421.1 53.6 415.75 57.6 411.7 61.55 407.7 67.05 405.35 72.5 402.95 78.8 402.95 84.3 402.95 90.05 404.75 95.75 406.6 99.65 409.6 L 103.2 411.2 105.4 410.55 106.85 408.95 115.75 394.45 Q 116.2 393.85 116.3 393.35 116.4 392.75 116.4 392.15 L 115.3 389.1 112.3 386.65 112.5 386.65 Q 104.4 381.7 96.2 378.95 87.95 376.1 78.6 376.1 M 560.6 330.05 Q 555.8 330.05 555.8 334.85 L 555.8 479.7 Q 555.8 484.5 560.6 484.5 L 581.75 484.5 Q 586.7 484.5 586.7 479.7 L 586.7 334.85 Q 586.7 330.05 581.75 330.05 L 560.6 330.05 M 444.25 381 Q 434.1 385.2 426.75 392.6 419.55 399.85 415.5 409.9 411.5 420.05 411.5 431.7 411.5 443.45 415.65 453.35 419.75 463.3 427 470.75 434.3 478.25 444.45 482.5 454.55 486.6 466.65 486.6 L 467.1 486.6 Q 473.5 486.6 478 485.35 L 486.05 481.95 491.95 477.15 496.5 471.5 497.8 478.7 499.5 482.9 Q 500.8 484.5 504.2 484.5 L 518.85 484.5 Q 521.3 484.5 523.3 483.1 525.4 481.65 525.4 479.1 L 525.4 384.15 Q 525.4 381.5 523.3 379.9 521.3 378.2 518.85 378.2 L 506.05 377.8 Q 502.85 377.8 501.7 379.05 L 499.6 383.95 497.35 392.15 Q 492.15 385.85 485.4 381.25 478.7 376.75 466.65 376.75 454.3 376.75 444.25 381 M 494.15 421.05 Q 496.05 426.3 496.05 432.1 496.05 444.3 488.6 452.4 481.25 460.5 468.45 460.5 462.35 460.5 457.35 458.3 452.35 456.2 448.65 452.25 445 448.35 443.1 443.2 441.1 438.05 441.1 431.9 441.1 426.05 443.1 420.9 445 415.75 448.55 411.7 452 407.7 457.25 405.35 462.35 403.2 468.45 403.2 475 403.2 480.05 405.35 485 407.7 488.7 411.7 492.4 415.75 494.15 421.05 M 344.55 376.95 Q 333.4 376.95 324.5 381.7 315.6 386.5 310.4 392.15 L 307.9 382.35 305.3 379.4 Q 303.6 378.2 300.15 378.2 L 287.8 378.2 Q 281.05 378.2 281.05 384.8 L 281.05 479.7 Q 281.05 482.4 282.05 483.5 283 484.5 286.45 484.5 L 306.95 484.5 Q 310.4 484.5 311.5 483.55 312.7 482.65 312.7 479.7 L 312.7 424.2 Q 313.4 420.25 315.75 416.8 318.15 413.3 321.5 410.85 L 328.95 406.85 Q 332.95 405.25 336.65 405.25 345.4 405.25 351.4 410.65 357.35 415.95 357.35 424.8 L 357.35 479.55 358.1 483.55 Q 358.85 484.5 362.55 484.5 L 383.45 484.5 Q 386.25 484.5 387.6 483.5 389 482.4 389 479.3 L 389 419.8 Q 389 410.55 386 402.65 383 394.7 377.35 389.1 371.65 383.55 363.45 380.25 355.3 376.95 344.55 376.95 Z"/>
</g>
</defs>
<g transform="matrix(1,0,0,1,0,0)">
<use xlink:href="#l1"/>
</g>
<g transform="matrix(1,0,0,1,0,0)">
<use xlink:href="#l0"/>
</g>
</svg>
