<svg xmlns="http://www.w3.org/2000/svg" xmlns:xlink="http://www.w3.org/1999/xlink" width="100%" height="100%" viewBox="0 0 1024 502">
<!-- Vectorization by Rodrigo Polo https://github.com/rodrigopolo/logotipos-politicos -->
<defs>
<g id="l1">
<path fill="#FFDC01" stroke="none" d="M 1024 502 L 1024 0 0 0 0 502 1024 502 Z"/>
</g>
<g id="l0">
<path fill="#242021" stroke="none" d="M 376.9 483.15 L 376.9 420.5 358.1 420.5 358.1 483.15 376.9 483.15 M 542.85 444 Q 542.85 439.25 541.35 434.75 539.9 430.25 536.25 426.9 532 422.85 526.65 421.75 521.35 420.6 515.65 420.5 L 479.9 420.5 479.9 433.45 509 433.55 Q 515.95 433.55 520.6 435.5 525.1 437.4 524.75 445.15 L 501.85 445.25 Q 491.4 445.25 483.95 448.55 476.4 451.85 475.6 463.2 475.05 472.65 480.45 477.9 485.8 483.15 496 483.15 L 542.85 483.15 542.85 444 M 493.7 464.25 Q 493.8 460.15 496.8 458.95 499.8 457.85 503.3 457.8 L 503.9 457.8 Q 504.2 457.65 504.3 457.6 L 524.9 457.6 524.9 470.6 503.05 470.6 503.05 470.75 Q 499.3 470.6 496.4 469.8 493.45 468.95 493.7 464.25 M 618.85 433.55 L 618.85 420.5 580.2 420.6 Q 569.25 420.6 562.6 425.15 556.05 429.6 556.15 440.55 556.3 452.25 562.55 455.1 568.85 457.95 579.75 457.85 L 596.75 457.95 Q 599.75 458.2 602.3 459.4 604.9 460.6 604.9 463.95 604.9 467.7 602.2 468.95 599.45 470.15 596.25 470.2 L 595.75 470.2 Q 595.35 470.15 595.25 470.15 L 557.3 470.15 557.3 483.15 603.8 483.15 Q 612.8 483.15 617.65 476.95 622.5 470.75 622.4 463.05 L 622.4 462.75 Q 621.9 453 615.5 449 609.05 445 599.45 444.85 L 583.2 445 Q 579.45 445 576.65 443.45 573.75 441.85 574.8 437.75 575.4 435.5 577.55 434.65 579.75 433.8 582.05 433.75 L 586.35 433.75 Q 586.8 433.6 587.1 433.55 L 618.85 433.55 M 267.85 420.5 L 249.85 420.5 249.85 469.35 235.4 469.5 Q 228.75 469.5 226.2 467.4 223.6 465.25 223.6 458.9 L 223.6 420.5 205.65 420.5 205.65 460.35 Q 205.65 473.65 213.3 478.4 220.85 483.15 233.9 483.15 L 267.85 483.15 267.85 420.5 M 300.7 434.25 L 315.15 434.35 Q 322.4 434.35 324.7 436.65 327 438.9 327 445.45 L 327 483.15 345 483.15 345 443.6 Q 345 430.1 337.5 425.35 330 420.6 316.55 420.5 L 282.7 420.5 282.7 483.15 300.7 483.15 300.7 434.25 M 260.65 384.75 Q 266.95 387.6 277.8 387.5 L 294.85 387.6 Q 297.8 387.85 300.4 389.05 303 390.25 303 393.65 303 397.4 300.25 398.6 297.55 399.8 294.35 399.9 L 293.8 399.9 Q 293.45 399.85 293.35 399.8 L 255.35 399.8 255.35 412.85 301.85 412.85 Q 310.9 412.85 315.75 406.6 320.6 400.4 320.5 392.7 L 320.5 392.4 Q 320 382.65 313.6 378.6 307.15 374.65 297.55 374.55 L 281.3 374.65 Q 277.55 374.65 274.7 373.05 271.85 371.5 272.85 367.35 273.5 365.1 275.65 364.25 277.8 363.4 280.1 363.25 L 284.45 363.25 Q 284.85 363.2 285.2 363.15 L 316.9 363.15 316.9 350.05 278.3 350.15 Q 267.3 350.15 260.7 354.75 254.15 359.2 254.25 370.2 254.4 381.9 260.65 384.75 M 239.8 350.05 L 222.1 350.05 222.1 412.85 239.8 412.85 239.8 350.05 M 222.1 344 L 239.8 344 239.8 328.4 222.1 328.4 222.1 344 M 129 363.85 L 150.05 363.85 150.05 412.85 168.45 412.85 168.45 363.95 173.85 363.85 Q 182 363.65 186.1 365.05 190.15 366.35 190.15 375.2 L 190.15 412.85 208.25 412.85 208.25 373.2 Q 208.1 359.85 200.6 355.05 193.1 350.3 179.95 350.05 L 110.95 350.05 110.95 412.85 129 412.85 129 363.85 M 39.1 378.4 L 38.95 380 38.95 384 Q 39.35 389.65 41.25 395.05 43.05 400.4 47.2 404.6 52.2 409.65 59 411.25 65.65 412.85 72.85 412.85 L 98.7 412.85 98.7 399.8 75.15 399.9 Q 67.35 399.9 63.15 398.1 58.95 396.35 58.65 388.05 L 98.7 388.05 98.7 374.95 58.65 375.1 Q 58.95 367.2 63.4 365.25 67.85 363.25 75.25 363.15 L 98.7 363.15 98.7 350.05 72.85 350.15 Q 65.65 350.15 59 351.75 52.2 353.35 47.2 358.65 43.2 362.7 41.35 367.85 39.5 373.05 39.1 378.4 M 556.15 370.2 Q 556.3 381.9 562.55 384.75 568.85 387.6 579.75 387.5 L 596.75 387.6 Q 599.75 387.85 602.3 389.05 604.9 390.25 604.9 393.65 604.9 397.4 602.2 398.6 599.45 399.8 596.25 399.9 L 595.75 399.9 Q 595.35 399.85 595.25 399.8 L 557.3 399.8 557.3 412.85 603.8 412.85 Q 612.8 412.85 617.65 406.6 622.5 400.4 622.4 392.7 L 622.4 392.4 Q 621.9 382.65 615.5 378.6 609.05 374.65 599.45 374.55 L 583.2 374.65 Q 579.45 374.65 576.65 373.05 573.75 371.5 574.8 367.35 575.4 365.1 577.55 364.25 579.75 363.4 582.05 363.25 L 586.35 363.25 Q 586.8 363.2 587.1 363.15 L 618.85 363.15 618.85 350.05 580.2 350.15 Q 569.25 350.15 562.6 354.75 556.05 359.2 556.15 370.2 M 460.85 394.8 L 442.55 394.8 442.55 420.5 426.85 420.6 Q 418.8 420.6 411.7 422.35 404.65 424.15 399.2 430.25 394.85 435.25 393.2 441.2 391.4 447.35 391.7 453.5 392.5 467.4 401.3 475.25 410.05 483.15 425.6 483.15 L 460.85 483.15 460.85 394.8 M 423.8 434.45 L 442.55 434.05 442.55 469.9 437.1 470 Q 426.55 470.15 419 468.25 411.35 466.3 411 453.65 L 411 450.25 Q 411.25 446.85 412.4 443.6 413.5 440.4 416.25 437.9 L 419.75 435.6 Q 421.65 434.65 423.8 434.45 M 483.95 378.2 Q 476.4 381.5 475.6 392.85 475.05 402.3 480.45 407.6 485.8 412.85 496 412.85 L 542.85 412.85 542.85 373.6 Q 542.85 368.85 541.35 364.35 539.9 359.85 536.25 356.45 532 352.45 526.65 351.25 521.35 350.15 515.65 350.05 L 479.9 350.05 479.9 363.05 509 363.15 Q 515.95 363.15 520.6 365.1 525.1 367 524.75 374.75 L 501.85 374.85 Q 491.4 374.85 483.95 378.2 M 504.3 387.25 L 524.9 387.25 524.9 400.25 503.05 400.25 503.05 400.4 Q 499.3 400.25 496.4 399.5 493.45 398.6 493.7 393.9 493.8 389.8 496.8 388.6 499.8 387.5 503.3 387.45 L 503.9 387.45 Q 504.2 387.35 504.3 387.25 M 434.25 362.2 L 436.1 362.2 Q 445.5 362.2 446.95 363.65 448.45 365.1 448.45 373.8 L 448.45 376.4 465.6 376.5 465.6 372.6 Q 465.75 362.35 463.4 356.25 461.1 350.15 446.5 350.05 L 416.25 350.05 416.25 412.85 434.25 412.85 434.25 362.2 M 356.05 351.15 Q 349.55 353.35 344.9 357.8 340.05 362.35 337.7 368.6 335.25 374.95 335.25 381.6 335.25 388.35 337.7 394.7 340.05 400.95 344.9 405.5 349.55 409.95 356 412.05 362.55 414.2 369.55 414.2 376.55 414.2 383.1 412.05 389.6 409.95 394.3 405.35 L 394.3 405.5 Q 399.1 400.95 401.45 394.7 403.9 388.35 403.9 381.6 403.9 374.95 401.45 368.6 399.1 362.35 394.3 357.8 389.6 353.35 383.1 351.15 376.55 348.95 369.7 348.95 362.65 348.95 356.05 351.15 M 353.25 377.8 L 354.2 373.5 Q 355.9 368.2 360.8 365.2 365.75 362.2 371.35 362.7 L 373.65 363.05 376 363.75 Q 381.2 365.9 383.5 370.65 385.8 375.35 386.1 380.55 L 385.75 385.3 384.85 389.65 Q 383.15 395.4 378 398.3 372.8 401.3 366.95 400.5 L 363.75 399.55 363.75 399.65 Q 358.25 397.6 355.75 392.65 353.2 387.75 353.05 382.15 L 353.25 377.8 M 595.3 129.9 L 595.3 85.55 427.6 85.55 427.6 129.9 595.3 129.9 M 595.3 191.35 L 595.3 147 427.6 147 427.6 191.35 595.3 191.35 M 595.3 69.4 L 595.3 25.1 427.6 25.1 427.6 69.4 595.3 69.4 M 864.1 480.7 L 882.95 480.7 882.95 457.35 864.1 457.35 864.1 480.7 M 806.1 346.65 Q 790.7 347.95 777.7 356.5 764.65 365 763.75 385.5 762.6 408.85 774.2 417.3 785.7 425.8 802.85 425.5 L 842.95 425.8 Q 841.7 444.4 834.05 451.95 826.45 459.55 810.8 459.2 L 769.85 459.2 769.85 482.2 810.15 482.2 Q 836.3 482.2 852.1 469.35 867.9 456.4 869.85 423.5 871.8 395.65 863.35 374.1 855.05 352.65 829.45 347.95 L 818.2 346.55 806.1 346.65 M 792.5 377.2 Q 794.8 372.8 799.2 371.1 L 806.4 369.5 814.65 369.25 824 370.55 Q 828.55 371.75 831.85 373.75 837.7 377.45 839.9 384.35 842.05 391.15 842.6 398.7 L 842.95 402.8 804.15 402.8 804.15 402.95 Q 796.7 402.95 793.35 397.75 789.9 392.65 789.9 386.65 790.1 381.55 792.5 377.2 M 668 352.45 Q 657.85 356.55 654.25 372.05 651 386.05 654.95 396.4 658.95 406.7 668.05 414.9 L 668.05 415.1 Q 662.6 418.65 658.6 422.95 654.7 427.2 653.05 434.75 L 651.95 440.2 651.6 445.95 651.85 451.8 652.75 457.35 Q 656.05 471.55 665.6 476.95 675.25 482.2 686.7 482.2 L 724.05 482.2 Q 735.35 482.2 745 476.95 754.65 471.55 758 457.35 L 758.8 451.8 759.05 445.95 758.7 440.2 757.8 434.75 Q 756.05 427.2 752.05 422.85 748.05 418.45 742.55 415.1 L 749.8 407.2 Q 753.05 403.1 755 397.45 L 756.9 389.75 757.5 381.55 756.3 372.05 Q 752.9 356.55 742.55 352.45 732.2 348.35 720.45 347.95 L 690.05 348.2 Q 678.1 348.35 668 352.45 M 678.55 387.45 Q 678.55 377.15 684.2 374.1 689.85 371.15 696.9 370.9 L 714 371.1 Q 721.05 371.1 726.8 374.1 732.55 377.15 732.4 387.45 732.4 397.45 726.7 400.5 721.05 403.5 714 403.35 L 696.9 403.5 Q 689.85 403.5 684.2 400.5 678.55 397.45 678.55 387.45 M 714 426.55 Q 721.05 426.55 726.7 429.8 732.4 433 732.4 442.95 732.4 453.25 726.7 456.3 721.05 459.4 714 459.2 L 696.75 459.4 Q 689.55 459.4 683.9 456.3 678.25 453.25 678.4 442.95 678.25 433 683.9 429.8 689.55 426.55 696.75 426.3 L 714 426.55 M 701.75 107.65 Q 701.75 58.15 674.05 18.9 L 610.7 18.9 Q 650.05 55.45 650.05 106.85 650.05 159.15 609.4 196.15 568.75 233.1 511.3 233.1 453.8 233.1 413.2 196.15 372.55 159.15 372.55 106.85 372.55 55.45 411.85 18.9 L 348.8 18.9 Q 321.05 58.15 321.05 107.65 321.05 177.85 376.8 227.45 432.6 277.05 511.4 277.05 590.25 277.05 646 227.45 701.75 177.85 701.75 107.65 M 985.05 370.9 L 985.05 347.95 885.3 347.95 885.3 370.9 957.45 370.9 887.35 482.2 917.45 482.2 985.05 370.9 Z"/>
</g>
</defs>
<g transform="matrix(1,0,0,1,0,0)">
<use xlink:href="#l1"/>
</g>
<g transform="matrix(1,0,0,1,0,0)">
<use xlink:href="#l0"/>
</g>
</svg>
