<svg xmlns="http://www.w3.org/2000/svg" xmlns:xlink="http://www.w3.org/1999/xlink" width="100%" height="100%" viewBox="0 0 1024 692">
<!-- Vectorization by Rodrigo Polo https://github.com/rodrigopolo/logotipos-politicos -->
<defs>
<g id="l1">
<path fill="#343536" stroke="none" d="M 577.6 539.6 L 577.6 513.45 461.75 513.45 461.75 539.6 505.25 539.6 505.25 669.8 534.25 669.8 534.25 539.6 577.6 539.6 M 59.4 575.7 L 59.4 539.6 128.9 539.6 128.9 513.45 30.4 513.45 30.4 669.8 59.4 669.8 59.4 602.85 115.5 602.85 115.5 575.7 59.4 575.7 M 316.15 532.4 Q 294.5 554.05 294.5 591.05 294.5 630 316.15 650 338 671.55 368.75 671.55 423 671.55 433.85 623.65 L 407.5 617.3 Q 396.75 644.5 368.75 644.5 349.7 644.5 337.05 630.85 324.35 616.5 324.35 591.05 324.35 566.55 337.05 552.2 348.85 537.75 368.75 537.75 396.65 537.75 407.5 565.75 L 433.85 558.55 Q 421.95 511.6 368.75 511.6 338.8 511.6 316.15 532.4 M 218.65 513.45 L 189.6 513.45 136.3 669.8 167.9 669.8 179.65 632.7 228.6 632.7 240.15 669.8 271.95 669.8 218.65 513.45 M 220.4 605.5 L 187.9 605.5 203.95 551.35 220.4 605.5 M 236.6 467.3 L 199.55 467.3 185 500.6 205.8 500.6 236.6 467.3 M 649.1 669.8 L 649.1 513.45 620.15 513.45 620.15 669.8 649.1 669.8 M 715.85 532.4 Q 695.25 555.05 695.25 591.05 695.25 629.1 715.85 650 737.7 671.55 769.35 671.55 822.7 671.55 833.45 623.65 L 807.3 617.3 Q 798.3 644.5 769.35 644.5 750.3 644.5 736.75 630.85 724.05 616.3 724.05 591.05 724.05 566.75 736.75 552.2 750.4 537.75 769.35 537.75 797.25 537.75 807.3 565.75 L 833.45 558.55 Q 821.75 511.6 769.35 511.6 738.5 511.6 715.85 532.4 M 940.3 513.45 L 911.4 513.45 857.85 669.8 889.65 669.8 900.4 632.7 950.15 632.7 961.95 669.8 993.6 669.8 940.3 513.45 M 941.95 605.5 L 909.55 605.5 925.75 551.35 941.95 605.5 Z"/>
</g>
<g id="l2">
<path fill="#231F20" stroke="none" d="M 707.85 379.4 Q 715.85 379.4 721.4 371.4 727.65 358.7 715 350.6 L 621 297.2 621 192.4 511.5 128.9 402.2 192.4 402.2 319 511.5 382.2 609.2 326.2 699.65 377.8 707.85 379.4 M 432.95 300.75 L 432.95 210.45 511.5 165.2 590.25 210.45 590.25 300.75 511.5 346 432.95 300.75 Z"/>
</g>
<g id="l3">
<path fill="#E6AE8A" stroke="none" d="M 478.2 55.75 L 417.6 20.45 356.05 55.75 356.05 126.4 417.6 160.75 478.2 126.4 478.2 55.75 Z"/>
<path fill="#F1DA98" stroke="none" d="M 668 126.4 L 668 55.75 607.4 20.45 545.85 55.75 545.85 126.4 607.4 160.75 668 126.4 Z"/>
<path fill="#C7D491" stroke="none" d="M 763.05 290.95 L 763.05 220.3 702.45 185 640.9 220.3 640.9 290.95 702.45 325.3 763.05 290.95 Z"/>
<path fill="#A0D3E0" stroke="none" d="M 450.05 220.3 L 450.05 290.95 511.6 325.3 572.2 290.95 572.2 220.3 511.6 185 450.05 220.3 Z"/>
<path fill="#E67381" stroke="none" d="M 382.3 290.95 L 382.3 220.3 321.7 185 260.15 220.3 260.15 290.95 321.7 325.3 382.3 290.95 Z"/>
</g>
</defs>
<g transform="matrix(1,0,0,1,0,0)">
<use xlink:href="#l1"/>
</g>
<g transform="matrix(1,0,0,1,0,0)">
<use xlink:href="#l2"/>
</g>
<g transform="matrix(1,0,0,1,0,0)">
<use xlink:href="#l3"/>
</g>
</svg>
