<svg xmlns="http://www.w3.org/2000/svg" xmlns:xlink="http://www.w3.org/1999/xlink" width="100%" height="100%" viewBox="0 0 1024 192">
<!-- Vectorization by Rodrigo Polo https://github.com/rodrigopolo/logotipos-politicos -->
<defs>
<g id="l2">
<path fill="#0098D9" stroke="none" d="M 514.6 60.6 Q 526.95 71.05 533.4 87.15 537.6 97.5 537.35 108.6 537.1 117.35 534.05 126 530.8 135.35 524.3 144.85 L 523.5 146.1 523.95 146 524.85 145.45 Q 531.45 141 536.55 135.05 546.5 123.15 549.1 107.6 551.65 92.1 546 77.4 538.75 58.35 521.05 47.9 504 37.8 484.85 39.85 471.45 41.25 460.95 48.7 L 459.7 49.7 460.2 49.75 461.3 49.6 Q 476.2 46.95 488.15 48.9 503.5 51.35 514.6 60.6 M 505.8 94.4 L 504.5 92.85 486.15 101.35 Q 483 102.85 480.85 102.3 478.65 101.7 476.75 98.8 L 467.65 85.5 466.95 84.75 465.3 85.65 476.35 116.7 505.8 94.4 Z"/>
</g>
<g id="l1">
<path fill="#0098D9" stroke="none" d="M 486.95 24.45 L 486.75 23.15 486.75 11.9 484 11.9 484 3.9 457.2 3.9 457.2 7.25 460.8 7.25 Q 461.45 7.25 461.7 7.55 461.85 7.75 461.85 8.4 L 461.85 25.9 Q 461.7 26.45 461.3 26.45 L 460.3 26.55 457.35 26.55 457.35 29.85 472.4 29.85 472.4 26.55 468.55 26.45 Q 467.9 26.4 467.65 26.2 467.45 25.95 467.45 25.3 L 467.45 18.85 467.6 18.45 Q 471.25 18.45 472.05 18.5 473.6 18.65 473.75 20.45 L 473.85 21.15 473.85 22.8 476.85 22.8 476.85 10.5 473.75 10.5 473.7 13.05 Q 473.55 14.85 472.2 15 469.05 15.05 467.6 15.15 L 467.6 7.35 475.35 7.35 Q 476.4 7.35 477 7.55 479.4 7.85 480.15 9.6 480.5 10.25 480.85 11.9 L 478.65 11.9 478.65 14.85 481 14.85 Q 481.45 14.85 481.65 15.05 481.7 15.15 481.7 15.65 L 481.7 23.1 Q 481.7 24.65 481.85 25.4 482.5 29.05 485.6 29.9 490.05 31.35 493.75 28.45 L 494.35 28.05 494.35 29.85 502.3 29.85 502.3 26.8 500.05 26.8 Q 499.55 26.7 499.5 26.6 499.4 26.55 499.4 26.05 L 499.4 12.55 499.35 11.9 490.9 11.9 490.9 15 492.3 15 Q 492.75 15.05 493.75 15.05 494.25 15.05 494.25 15.65 L 494.2 22.6 Q 494.2 24.05 493.2 25.3 492.2 26.45 490.75 26.9 487.6 27.6 486.95 24.45 M 526.6 29.85 L 526.6 26.8 524.3 26.8 Q 523.65 26.8 523.65 26.1 L 523.65 20.25 Q 523.65 17.3 523.2 15.85 522.05 11.5 517.7 11.35 513.95 11.2 511.05 13.5 L 510.9 13.55 510.9 11.9 502.45 11.9 502.45 15 504.95 15 Q 505.5 15.05 505.65 15.2 505.85 15.3 505.85 15.85 L 505.95 25.6 Q 505.95 26.4 505.8 26.55 505.5 26.7 504.8 26.8 L 502.55 26.8 502.55 29.85 513.95 29.85 513.95 26.8 511.6 26.8 Q 511.05 26.8 511.05 26.3 L 511.05 19 Q 511.25 16.2 514.05 15.05 515.75 14.35 517.2 15.3 518.55 16.2 518.5 18.1 L 518.5 25.45 518.4 26.3 Q 518.4 26.8 517.75 26.8 L 515.7 26.8 515.7 29.85 526.6 29.85 M 540.4 7.1 Q 541.25 7.1 541.25 7.9 L 541.25 13.35 540.75 13 Q 537.35 10.7 533.55 11.75 529.75 12.7 528.1 16.45 526.85 19.15 527.3 22.75 527.85 27.7 532.45 29.6 537.05 31.5 540.75 28.55 L 541.35 28.05 541.35 29.85 549.6 29.85 549.6 26.8 548.1 26.8 Q 546.8 26.8 546.65 26.55 546.35 26.4 546.35 24.95 L 546.35 4.55 546.3 3.9 537.2 3.9 537.2 7.05 540.4 7.1 M 533.1 24.65 Q 531.25 20.35 533.6 16.35 534.9 14.3 537.1 14.5 539.2 14.7 540.35 16.3 541.35 17.85 541.5 20.1 L 541.5 20.8 Q 541.5 22.75 540.9 24.4 539.85 27.05 536.95 27.1 534.4 27.25 533.1 24.65 M 571.65 22.65 L 568.85 22.65 568.5 26.6 Q 568.5 26.7 568.15 27.1 L 567.65 26.6 567.5 25.8 567.5 17.3 Q 567.35 13.05 563.35 11.9 560.85 11.2 557.55 11.55 554.9 11.85 552.8 13.05 551.5 14 551.1 15 550.45 16.35 551 17.7 551.65 19 553.15 19.3 554.9 19.5 555.8 18.3 556.75 17.2 556.05 15.8 L 555.25 14.55 557.1 14.2 Q 559.2 13.9 561.2 14.7 562.05 15.15 562.4 16.05 563.05 18.65 560.4 19.3 L 555.45 20.45 551.8 21.8 Q 550 22.75 550 24.9 L 550.3 26.95 Q 551.15 29.4 554.1 30.25 L 555.95 30.6 556.2 30.6 556.4 30.5 Q 560.2 30.25 563 27.95 L 563.35 28.45 Q 564.2 30.2 566 30.25 567.2 30.4 568.3 30.25 570.3 30.05 571 28.2 571.6 26.95 571.6 24.9 L 571.65 22.65 M 562.5 21.45 Q 562.25 23.8 562.25 23.95 561.85 26.95 558.4 27.25 557.45 27.25 557.05 27.2 555.55 26.9 555.3 25.1 555.3 23.95 556.05 23.6 557.2 22.9 557.85 22.75 L 562.5 21.45 M 591.45 4.55 L 591.35 3.9 582.25 3.9 582.25 7.05 585.3 7.05 Q 586 7.1 586.15 7.25 586.3 7.55 586.3 8.1 L 586.3 13.05 586.2 13.35 585.9 13.05 Q 582.9 11 579.45 11.55 575.9 12.15 573.9 15.05 571.45 18.65 572.5 23.75 573.4 27.95 577.6 29.6 581.7 31.25 585.15 28.95 L 586.3 28.1 586.3 29.85 594.65 29.85 594.65 26.8 592.15 26.8 Q 591.45 26.7 591.45 25.95 L 591.45 4.55 M 578.6 16.35 Q 579.7 14.65 581.7 14.5 583.65 14.3 585 15.85 586.15 17.2 586.5 19.6 L 586.55 20.75 Q 586.35 23.25 586 24.3 584.9 27.05 582 27.1 579.2 27.1 578.2 24.55 576.3 20.45 578.6 16.35 M 615.6 21.9 Q 615.95 19.15 614.75 16.7 613.5 14.15 611.1 12.85 607.85 11 603.4 11.55 599.7 12.15 597.45 14.7 595.25 17.3 595.25 21.1 L 595.3 21.8 Q 595.75 26.9 599.9 29.1 603.05 30.9 607.5 30.35 610.8 29.85 612.95 27.75 615.15 25.6 615.6 21.9 M 609.3 16.7 Q 610.5 19 610.3 22 610 24.4 608.95 25.75 607.65 27.6 605.35 27.55 603.05 27.45 601.85 25.55 600.75 23.95 600.6 21 600.6 18.65 601.55 16.85 602.85 14.5 605.35 14.5 607.85 14.35 609.3 16.7 M 646.05 21.75 Q 646.05 20 645.9 19.15 645.5 15.5 642.85 13.2 640.3 11.05 636.6 11.25 631.2 11.65 628.55 15.7 626.7 18.45 627.15 22.3 627.65 26.8 631.45 29.05 634.45 30.75 638.3 30.35 643.35 29.75 645.2 25.6 645.85 24.3 645.85 22.95 L 642.6 22.95 Q 642.1 25.45 640.4 26.7 638.75 27.75 636.6 27.4 634.5 26.95 633.35 25.4 632.2 23.8 632.3 21.75 L 646.05 21.75 M 633.85 15.35 Q 635.25 14.05 637.1 14.15 638.75 14.15 639.9 15.5 641.05 16.7 640.95 18.5 L 632.5 18.5 Q 632.45 16.7 633.85 15.35 M 655.6 13.2 L 655.1 13.55 655.1 11.9 646.7 11.9 646.7 15 649.15 15 Q 649.8 15.05 649.85 15.2 650.05 15.3 650.05 15.85 L 650.05 26.05 Q 650.05 26.7 649.4 26.7 649 26.8 648.05 26.8 L 646.75 26.8 646.75 29.85 658.15 29.85 658.15 26.8 655.85 26.8 Q 655.3 26.8 655.3 26.2 L 655.3 19.35 Q 655.45 16.15 658.25 15.05 659.95 14.35 661.4 15.3 662.75 16.2 662.7 18.1 L 662.7 25.1 662.6 26.2 Q 662.6 26.8 661.95 26.8 L 659.9 26.8 659.9 29.85 670.8 29.85 670.8 26.8 668.5 26.8 Q 667.85 26.8 667.85 26.05 668 22.65 667.85 19.3 667.85 17.45 667.5 16.05 666.5 12.05 662.95 11.5 659.1 10.75 655.6 13.2 M 692.15 4.95 Q 691.5 6.7 689.85 7.2 689.4 7.35 687.4 7.55 L 685.6 7.55 685.6 10.75 690.4 10.75 690.4 25.55 Q 690.4 26.4 689.55 26.45 L 685.75 26.55 685.75 29.85 699.5 29.85 699.5 26.55 696.35 26.55 Q 695.85 26.45 695.7 26.4 695.65 26.2 695.5 25.75 L 695.5 4.6 692.5 4.75 692.15 4.95 M 717.2 5.45 Q 714.35 4.1 711 4.3 706.7 4.55 703.95 7.25 701.65 9.7 701.9 13.15 702.25 16.65 704.95 18.6 707.4 20.35 710.85 20.45 714.55 20.5 717.2 18.45 L 717.6 18.2 Q 717.8 20 716.85 22.65 715.45 26.7 711.5 27.05 709 27.25 706.95 26.1 L 707.2 25.95 707.4 25.9 Q 708.9 24.8 708.7 23.15 708.4 21.6 706.7 20.95 705.05 20.25 703.6 21.25 701.75 22.65 702.4 25.05 702.95 27.45 705.45 28.7 709 30.5 713.05 29.75 719.15 28.75 721.75 23.25 724.25 17.65 722.3 11.35 721.1 7.25 717.2 5.45 M 712.05 7.1 Q 714.5 7.1 715.85 8.6 717.35 10.2 717.3 12.5 717.3 14.65 715.85 16.05 714.5 17.35 712.15 17.35 709.9 17.3 708.5 15.85 707.1 14.5 707.1 12.35 707.1 10 708.5 8.55 709.9 7.05 712.05 7.1 M 746.05 10.9 Q 745.4 7.45 742.1 5.9 737.2 3.45 731.5 5.05 728.2 5.95 726.4 8.7 724.6 11.05 725.7 13.65 726.4 15.35 728.25 15.7 730.2 16.15 731.35 14.7 732.55 13.15 731.9 11.65 731.35 10 729.4 9.85 L 729.05 9.85 Q 729.55 9.05 730.5 8.6 734.4 6.95 737.95 8.35 739.6 9.05 740.15 10.5 740.75 12.05 740.1 13.65 739.35 15.35 736.85 16.8 L 733.4 18.45 Q 729.55 20.35 728.2 21.5 725.7 23.65 725.05 26.45 724.6 28.25 724.6 29.85 L 726.6 29.9 Q 727.05 29.9 727.25 29.4 728.1 27.45 730.1 27.45 731.2 27.45 732.25 27.9 L 735.05 28.75 Q 739 30.05 741.5 29.85 745.15 29.4 746.1 26.1 746.7 24.45 746.55 21 L 743.9 21 743.8 22.75 Q 743.65 24.95 741.5 25.4 L 740.35 25.45 737.35 24.8 Q 734.2 23.95 732.7 23.95 731.05 23.9 729.25 24.65 730.5 23.15 732 22.6 L 740.85 19.15 Q 743.1 18.3 744.25 16.95 746.6 14.3 746.05 10.9 M 769.95 16.35 L 769.9 15.95 Q 769.75 13.55 768.9 11.2 767.4 7.55 764.15 5.6 760.85 3.8 757.05 4.45 751.75 5.4 749.35 10.75 747.1 15.65 748.45 21.8 749.35 25.3 751.7 27.45 754.4 30.1 758.45 30.2 762.25 30.2 765.1 28.1 768.75 25.45 769.7 20.15 L 769.95 16.35 M 755.55 8.75 Q 757 7.2 759.15 7.25 761.3 7.45 762.6 9.25 763.75 10.9 764.15 13.55 L 764.45 17.2 Q 764.15 22.25 763.5 24.05 762.3 26.95 759.6 27.2 756.8 27.45 755.15 24.95 754.05 23.25 753.65 20.15 753.05 15.7 754 12.15 754.55 9.9 755.55 8.75 Z"/>
</g>
<g id="l0">
<path fill="#000000" stroke="none" d="M 91.1 26.8 Q 91.25 25.6 91.25 18.6 91.25 11.55 91.05 10.9 L 17.6 10.9 17.6 26.55 25.2 26.6 Q 30.2 26.6 33.2 27.25 37.2 28.25 38 32.05 38.5 34.5 38.5 39.2 L 38.5 119.4 Q 38.5 123.8 38.15 127.15 38 129.65 36.8 131.05 35.65 132.3 33.05 132.9 30.7 133.4 27.05 133.4 L 21.3 133.55 Q 19.65 133.55 18.1 135.1 17.3 135.9 17.15 136.9 L 16.8 138.9 16.8 147.25 17 149.15 145.6 149.15 Q 145.75 148 145.75 119.35 145.65 90.55 145.5 89.9 L 131.1 89.9 129.3 101.2 Q 127.45 112.25 126.3 117.85 124.1 128.3 113.7 131.3 107.65 133.05 102.3 133.05 91.25 133.2 69.35 133.2 L 68.45 133.05 68.45 35.5 Q 68.45 34 68.6 33.2 69.1 28.85 73.4 27.45 75.7 26.9 77.55 26.9 L 91.1 26.8 M 432.75 20.45 L 445.25 20.25 445.25 3.9 Q 443.75 3.6 367.9 3.95 L 367.9 20.45 376.7 20.45 Q 383.9 20.65 384.8 20.75 391.2 21.45 391.7 27.95 L 391.7 64.15 391.55 65.15 329.35 65.15 329.35 62.1 Q 329.15 38.7 329.5 31.4 L 330 26.05 Q 330.7 21.65 335 20.95 337 20.6 339.1 20.45 L 353.5 20.25 353.5 3.8 Q 351.5 3.55 275.8 3.9 L 275.8 20.15 284.7 20.15 Q 289.5 20.5 291.85 20.95 296.8 21.75 297.8 27.05 298.3 29.9 298.3 35.85 L 298.3 110.75 Q 298.3 119.55 298.25 121.3 298.1 124.6 297.4 127.25 296.4 131.4 291.85 132.05 L 290.3 132.25 Q 286.55 132.4 279.1 132.9 L 275.8 133.1 275.8 148.95 353.7 148.95 353.7 132.95 337.15 131.95 Q 333.85 131.6 331.15 128.75 330.2 127.8 330.2 126.65 L 330.05 83.75 391.75 83.75 391.7 123.85 Q 391.7 125.65 391 127.5 389.9 131.05 386.1 131.95 384.55 132.3 382.6 132.3 L 368.05 132.4 368.05 149 445.5 149 445.5 132.6 437.05 132.6 Q 430.7 132.45 428.75 131.95 424.15 130.95 423.45 126.35 423 123.85 422.95 121.3 L 422.95 32.25 Q 422.95 28.45 423.65 25.75 424.6 22 428.05 21.15 431.2 20.5 432.75 20.45 M 597.55 97.2 Q 597.55 87.3 598.75 81.2 600.75 71.2 606.65 64.15 610.15 60.15 613.45 58.15 620.4 54 629.15 57.85 L 625.5 60.15 Q 622.7 61.85 620.95 64.15 616.95 69.55 618.55 76 620.2 82.8 627.35 85.3 632.2 87.15 637.75 85.75 643.2 84.3 646.7 80.35 650.55 75.9 651.05 69.3 651.8 57.5 643.4 50.25 634.45 42.75 622.6 43.95 610.85 45.1 602.5 54.55 L 597.4 60.7 Q 597.4 51.7 597.25 47.4 L 551.9 47.4 Q 551.65 48.7 551.75 54.85 551.8 60.85 551.95 61.65 L 561.55 61.65 Q 563.9 61.85 565.7 62.5 569.65 63.75 570.5 68.1 570.75 69.6 570.75 71.1 L 570.75 124 Q 570.75 126.75 570.6 128 569.95 132.6 565.65 133.9 563.65 134.4 562.5 134.4 L 551.95 134.4 551.95 149.15 620.25 149.15 620.25 134.55 609.5 134.55 Q 605.5 134.55 603.05 133.9 599.1 132.7 598.3 128.95 597.75 126.5 597.75 124.8 597.55 101.85 597.55 97.2 M 787.45 120.2 Q 781.95 120.7 777.65 124.8 773.4 128.8 772.85 134.1 771.9 142.3 777.35 147.5 781.8 151.75 788.45 151.9 L 791.7 151.55 Q 798.05 150.4 801.7 145.45 805.3 140.55 804.45 134.05 803.5 127.8 798.8 124.1 793.25 119.8 787.45 120.2 M 921.75 45.4 Q 918.2 44.15 912.9 44.45 902.25 44.95 894.8 54 L 892.75 56.05 891.1 55.05 Q 880 48.4 868.8 47.7 858.9 47.05 850.6 48.25 840.8 49.6 833.45 53.7 818.9 61.65 815.75 77.05 814.05 85.6 815.55 95.2 817.65 107.95 828.1 114.4 L 829.3 115.25 826.65 117 Q 819.8 121.15 815.85 125.5 813.55 127.95 812.7 130.95 811.1 136.85 812.4 142.85 813.25 147.5 817.5 150.8 819.7 152.6 823.3 154.05 L 824.8 154.6 823.3 155.25 Q 819.05 157.4 817.05 158.7 813.6 160.85 812.2 164.8 810.7 169.1 811.75 173.4 813.1 178.4 817.65 181.4 819.5 182.55 820.5 183 824.8 184.65 827 185.2 833.85 187 846.85 187.85 L 849.95 188.1 875.1 188.1 877.25 187.95 Q 884.7 187.7 891.5 186.35 903 184.35 913.1 178.85 921.5 174.25 923.85 165 925.3 159.55 924.7 152.8 924.35 148.6 922.85 145.1 920.25 139.15 914.45 137 L 911.5 135.85 Q 904.2 133.2 893.75 132.6 L 890.15 132.8 Q 888.1 132.8 886.7 132.4 L 845.85 133.9 Q 840.7 134.45 836.7 132.8 833.85 131.6 833.25 128.9 831.95 123.45 836.35 120.7 L 837.25 120.2 Q 838 119.5 839.5 120 846 121.95 847.65 122.2 860.65 124.35 873.55 122.2 884.05 120.5 892.1 115.2 903.65 107.25 906.45 94.2 907.85 88.15 907.15 80 906.35 69.75 899.9 62.65 L 899.35 61.95 Q 900.1 60 902.85 58.15 905.35 56.2 907.45 55.85 910.5 55.35 912.1 56.2 L 910.95 57.85 Q 908.6 61.3 908.8 64.4 909 71.2 915.15 73.85 918.55 75.25 922.35 74.55 926.65 73.85 929.45 70.6 934.1 65.3 932.75 57.8 931.15 48.7 921.75 45.4 M 845.65 96.85 Q 843.7 89.8 844.35 80.8 844.8 75.35 846.5 70.85 847.8 67.75 850.15 64.8 853.75 60.35 859.9 60.15 865.85 59.85 869.9 63.65 873.25 66.75 875.1 71.85 877.25 77.3 877.4 85.25 877.25 94.2 874.55 100.3 873.05 103.5 871.15 105.75 867.15 110.6 860.85 110.6 854.6 110.6 850.75 106.3 847.25 102.5 845.65 96.85 M 839.15 157.05 Q 839.85 156.7 840.85 156.7 L 862.5 156.7 862.5 156.55 Q 869.3 156.7 883.2 157.05 887.35 157.2 891.65 158.2 896.4 159.35 897.05 163.55 897.95 168.45 893.8 171.3 891.1 173.05 886.35 173.95 880 175.1 872.45 175.4 864.15 175.6 855.7 175.4 848.3 175.2 842.2 173.4 840.2 172.8 837.85 171.45 834.35 169.5 834.05 165.5 833.7 161.85 836.4 159.05 837.9 157.75 839.15 157.05 M 981.2 15.65 Q 978.15 15.8 972 15.85 965.9 15.95 962.85 16.15 L 962.85 18 Q 962.75 25.75 960.25 32.9 956.8 43.4 947.8 48.4 943.7 50.75 938.1 52 L 936.75 52.4 936.75 67.4 951.1 67.4 951.1 124.3 Q 951.1 127.1 951.35 129.9 951.8 133.95 953.15 137.25 956.3 144.65 964.55 147.95 972.5 151.1 982.85 150.65 989 150.45 993.85 148.6 1001.7 145.5 1004.9 138.35 1006.6 134.45 1006.85 130.95 1007 130.4 1007.05 130.1 L 1007.05 106.9 993.7 106.9 993.5 126.25 Q 993.2 129.6 992.15 131.55 990.65 133.95 987.9 134.2 985.1 134.45 983.6 133.4 982.1 132.25 981.7 129.45 981.25 127.1 981.25 123.65 L 981.25 67.4 1005.9 67.4 1005.9 50.7 986.25 50.7 Q 981.9 50.7 981.25 50.6 L 981.2 15.65 Z"/>
</g>
<g id="s1">
<path fill="#000000" stroke="none" d="M 0 -36.65 Q 5.4 -34.15 6.65 -28.15 7.35 -25.1 6.9 -21.95 6.05 -14.9 -0.15 -11.9 -1.45 -11.3 -4 -10.4 L -19.3 -5.2 Q -33.9 -0.1 -41.5 3.25 -47.55 6.05 -50.35 11.8 -53.5 18.1 -53.05 26.35 -52.35 35.95 -45.55 42.35 -39.75 47.8 -30.45 49.4 -24.25 50.45 -16.65 49.15 -2.7 46.85 5.9 36.5 L 6.65 35.5 8.85 39.7 Q 12.45 47 20.3 48.85 28.55 50.95 37.05 48.8 45.3 46.7 48.75 39.5 49.55 37.9 50.55 35 53.85 25.3 52.95 12.65 L 52.7 11.8 Q 51.15 11.65 46.55 11.65 41.85 11.75 41.3 11.95 L 40.2 25.15 Q 39.95 27.65 39.5 29.65 38.9 32.05 36.65 32.35 35.25 32.6 33.3 32.3 31.2 31.85 30.6 29.65 30.2 27.95 30.2 26.6 L 30.05 -23.65 Q 29.9 -27.4 29.3 -30.65 26.7 -43.1 14.6 -46.75 11.85 -47.5 7.85 -48.2 -3.45 -50.2 -16.5 -49.85 -23.8 -49.7 -27.9 -48.7 -39.55 -45.65 -45.55 -36.35 -51.3 -27.2 -46.35 -17.65 -43.75 -12.8 -38.55 -11.2 -32.65 -9.5 -26.95 -11.3 -20.95 -13.15 -19.15 -19 -18.3 -21.7 -18.55 -24.25 -18.9 -29.3 -23.1 -31.6 -24.4 -32.35 -26.2 -33.05 -29.25 -33.95 -31 -34.45 L -30.3 -34.85 Q -23.05 -38.75 -16.05 -39.35 -7.9 -40.1 0 -36.65 M 3.75 -1 Q 4.95 -1.45 7.55 -2.05 L 7.55 -1.1 6.35 9.95 Q 5.7 15.7 4.7 19.15 3.35 24.05 0.35 27.25 -3.9 31.85 -10.8 32.65 -14.05 33.1 -17.55 32.5 -24.45 31.3 -25.95 24.4 -27.3 18.25 -22.45 14 -14.25 6.7 -4.95 2.75
L 3.75 -1 Z"/>
</g>
</defs>
<g transform="matrix(1,0,0,1,0,0)">
<use xlink:href="#l2"/>
</g>
<g transform="matrix(1,0,0,1,0,0)">
<use xlink:href="#l1"/>
</g>
<g transform="matrix(1,0,0,1,0,0)">
<use xlink:href="#l0"/>
</g>
<g transform="matrix(1.1024627685546875,0,0,1.1024627685546875,210.55,98.6)">
<g transform="matrix(1,0,0,1,0,0)">
<use xlink:href="#s1"/>
</g>
</g>
<g transform="matrix(1.1024627685546875,0,0,1.1024627685546875,708.85,97.95)">
<g transform="matrix(1,0,0,1,0,0)">
<use xlink:href="#s1"/>
</g>
</g>
</svg>
