<svg xmlns="http://www.w3.org/2000/svg" xmlns:xlink="http://www.w3.org/1999/xlink" width="100%" height="100%" viewBox="0 0 1024 337">
<!-- Vectorization by Rodrigo Polo https://github.com/rodrigopolo/logotipos-politicos -->
<defs>
<g id="l3">
<path fill="#050505" stroke="none" d="M 482.05 296.45 Q 481.75 296.45 481.5 296.5 465.8 297.5 454.2 302.6 453.95 302.6 453.65 302.65 427.85 307.1 401.9 314.3 401.9 314.55 401.75 314.75 400.45 316.45 400.2 319.3 399.95 319.3 399.65 319.3 403.1 322.6 407.15 321.45 413 319.85 418.05 318.2 418.05 317.9 418.05 317.65 418 316.55 417.45 315.95 419.3 317 419.4 315.45 419.4 315.4 419.7 315.4 426.05 317.05 428.45 313.65 428.6 313.45 428.6 313.2 433.05 312.8 436.95 312.6 437.25 312.6 437.5 312.6 441.65 309.2 448.05 307.9 448.1 307.9 448.1 307.6 456.6 306.75 462.55 305.45 462.85 305.4 463.1 305.4 463.1 305.1 463.1 304.8 466.2 304.8 469.25 304.8 469.5 304.8 469.8 304.8 471.55 304.05 473.6 303.45 473.7 303.45 473.7 303.15 477.15 303 482.6 302.65 482.9 302.6 483.15 302.6 483.85 301.35 485.9 301.2 485.95 301.2 485.95 300.95 490.25 301.75 493.85 299.4 494 299.25 494.3 299.25 494.3 299 494.3 298.7 497.35 298.7 500.4 298.7 500.7 298.7 501 298.7 515.15 296.45 528.95 294.45 536.8 293.35 544.4 292.6 550.95 291.95 556.5 289.95 556.95 289.8 557.2 289.25 558.55 285.85 555.5 284.35 555.25 284.25 555 284.25 554.7 284.25 554.45 284.25 551.95 284.25 549.4 284.25 549.15 284.25 548.9 284.3 544.5 285.45 539.4 285.9 539.4 286.15 539.35 286.15 537.15 286.45 534.95 286.45 534.65 286.45 534.45 286.55 529.75 289.4 525.5 287.55 525.2 287.55 525.05 287.7 521.35 290.55 516 289.25 516 289.5 515.95 289.5 501.25 292.85 486.5 295.9 L 486.5 296.2 Q 484.3 296.45 482.05 296.45 Z"/>
</g>
<g id="l2">
<path fill="#010101" stroke="none" d="M 234.2 291.2 Q 234.25 285.5 231 282.7 227.7 279.95 221.6 280.45 213.6 281.15 208.6 287.6 203.55 294 203.5 302.5 203.4 308.1 206.5 311.25 209.6 314.35 215 313.9 223.85 313.15 228.95 306.9 234.1 300.6 234.2 291.2 M 213.05 290.9 Q 216.3 285.85 221.15 285.4 228.05 284.85 227.95 292.15 227.9 298.6 224.6 303.5 221.35 308.45 215.8 308.9 212.8 309.15 211.25 307.1 209.75 305.05 209.75 301.4 209.8 295.9 213.05 290.9 M 192.5 284.4 L 186.2 284.95 180.1 316.9 201.25 315.1 202.2 310.1 187.35 311.35 192.5 284.4 M 301.05 285.75 Q 301.05 279.5 296.8 276.6 293.25 274.2 287.45 274.2 286.1 274.2 284.7 274.3 281.7 274.55 278.3 275.4 L 271.95 307.2 280.25 306.55 Q 289.65 305.75 295.4 300.1 301.05 294.45 301.05 285.75 M 292.2 280.65 Q 294.7 282.55 294.7 286.05 294.7 292.4 291 296.7 287.3 301.05 281.05 301.55 L 279.2 301.6 283.35 279.5 285.65 279.1 Q 289.6 278.75 292.2 280.65 M 258.15 291.85 Q 260.5 288.85 260.55 285 260.6 281.25 257.45 279.55 254.3 277.8 248.8 278.3 L 240 279.4 233.45 311.65 239.7 311.15 242.45 297.6 246.3 297.45 252.55 310.05 259.35 309.5 251.95 296.05 Q 255.8 294.85 258.15 291.85 M 247.35 283.4 Q 251.25 283.05 252.95 283.85 254.55 284.6 254.55 286.8 254.45 292 245.75 292.75 L 243.35 292.85 245.2 283.8 247.35 283.4 M 155.3 319.5 L 160.15 312.55 171.4 311.5 173.1 317.65 178.95 317.1 172 286.05 170 286.2 149.5 320 155.3 319.5 M 169.15 295.6 L 170.85 308 161.95 308.65 169.15 295.6 M 139.4 289.65 L 133.4 290.2 140.1 321.3 143.15 321 162.4 287.65 156.1 288.2 143.85 309.65 139.4 289.65 M 104.8 293.95 L 82.95 295.8 76.8 327.7 98.3 325.85 99.25 320.85 83.55 322.1 85.4 312.35 97.25 311.4 98.2 306.7 86.35 307.65 87.75 300.1 103.85 298.8 104.8 293.95 M 113.65 292.95 L 107.25 293.45 101.15 325.35 122.2 323.55 123.15 318.5 108.5 319.8 113.65 292.95 M 556.95 259.5 Q 556.95 253.25 552.7 250.35 549.15 247.95 543.35 247.95 542 247.95 540.6 248.05 537.6 248.3 534.2 249.15 L 527.85 280.95 536.15 280.3 Q 545.55 279.5 551.3 273.85 556.95 268.2 556.95 259.5 M 550.6 259.8 Q 550.6 266.15 546.9 270.45 543.2 274.8 536.95 275.3 L 535.1 275.35 539.25 253.25 541.55 252.85 Q 545.5 252.5 548.1 254.4 550.6 256.3 550.6 259.8 M 519.9 249.75 L 517.75 249.95 496.95 283.9 503.2 283.4 507.2 276.6 519.25 275.55 520.25 281.95 526.5 281.4 519.9 249.75 M 509.85 272.15 L 516.85 259.65 518.65 271.4 509.85 272.15 M 379.9 264.45 L 377.75 264.65 357 298.6 363.2 298.1 367.25 291.3 379.3 290.25 380.25 296.65 386.5 296.1 379.9 264.45 M 376.85 274.35 L 378.65 286.1 369.85 286.85 376.85 274.35 M 326.35 275.55 L 327.35 270.55 305.95 272.4 299.45 304.7 320.65 302.9 321.7 297.85 306.65 299.15 308.55 289.1 319.55 288.2 320.55 283.4 309.55 284.35 311 276.9 326.35 275.55 M 341.05 295.5 L 346.45 268.2 340.55 268.75 334.1 301.05 355.1 299.25 356.05 294.2 341.05 295.5 M 485.15 253.5 Q 482.2 253.8 478.8 254.7 L 472.75 287.05 480.9 286.25 Q 490.3 285.35 495.85 279.5 501.5 273.75 501.45 264.9 501.4 258.6 497.15 255.7 492.9 252.75 485.15 253.5 M 481.65 281.2 L 479.75 281.25 483.85 258.8 486.1 258.35 Q 490.05 258 492.6 259.85 495.15 261.75 495.15 265.25 495.15 271.7 491.5 276.1 487.85 280.6 481.65 281.2 M 469.6 269.7 Q 471.9 266.65 471.85 262.8 471.85 259.1 468.65 257.4 465.5 255.7 460 256.25 L 451.1 257.4 444.95 289.8 451.2 289.2 453.75 275.6 457.65 275.45 464.15 288 470.95 287.3 463.3 273.95 Q 467.2 272.75 469.6 269.7 M 457.1 270.75 L 454.65 270.85 456.35 261.8 458.6 261.35 Q 462.45 261 464.15 261.75 465.8 262.5 465.85 264.7 465.85 269.9 457.1 270.75 M 423.1 260.05 L 416.4 260.7 404.6 282.95 400.55 262.25 394.15 262.85 401 294.45 404.3 294.15 423.1 260.05 M 440.35 270.9 L 429.4 271.95 430.85 264.65 446.1 263.2 447.15 258.25 425.8 260.35 419.4 292 440.55 289.95 441.5 285 426.45 286.5 428.45 276.65 439.4 275.6 440.35 270.9 Z"/>
</g>
<g id="l1">
<path fill="#BD0512" stroke="none" d="M 886.65 140.5 Q 886.65 86.15 848.15 47.65 809.7 9.25 755.35 9.25 700.95 9.25 662.5 47.65 624.05 86.15 624.05 140.5 624.05 194.85 662.5 233.3 700.95 271.8 755.35 271.8 809.7 271.8 848.15 233.3 886.65 194.85 886.65 140.5 M 843.7 52.05 Q 880.35 88.7 880.35 140.5 880.35 192.3 843.7 228.9 807.15 265.55 755.3 265.55 703.55 265.55 666.9 228.9 630.3 192.3 630.3 140.5 630.3 88.7 666.9 52.05 703.55 15.45 755.3 15.45 807.15 15.45 843.7 52.05 M 862.3 140.5 Q 862.3 96.2 830.95 64.85 799.65 33.55 755.35 33.55 711.05 33.55 679.7 64.85 648.4 96.2 648.4 140.5 648.4 184.75 679.7 216.1 711.05 247.45 755.35 247.45 799.65 247.45 830.95 216.1 862.3 184.75 862.3 140.5 M 818.55 77 Q 844.8 103.25 844.8 140.3 844.8 177.4 818.55 203.55 792.35 229.8 755.3 229.8 718.25 229.8 692 203.55 665.8 177.4 665.8 140.3 665.8 103.25 692 77 718.25 50.8 755.3 50.8 792.35 50.8 818.55 77 M 812.65 197.65 Q 836.45 173.9 836.45 140.3 836.45 106.65 812.65 82.85 788.9 59.1 755.3 59.1 721.65 59.1 697.85 82.85 674.1 106.65 674.1 140.3 674.1 173.9 697.85 197.65 721.65 221.45 755.3 221.45 788.9 221.45 812.65 197.65 M 755.2 69.4 Q 784.55 69.4 805.3 90.1 826.05 110.9 826.05 140.25 826.05 169.55 805.3 190.3 784.55 211.05 755.2 211.05 725.85 211.05 705.1 190.3 684.4 169.55 684.4 140.25 684.4 110.9 705.1 90.1 725.85 69.4 755.2 69.4 M 777.45 140 Q 777.45 130.7 770.85 124.1 764.3 117.5 755 117.5 745.7 117.5 739.1 124.1 732.55 130.7 732.55 140 732.55 149.25 739.1 155.85 745.7 162.45 755 162.45 764.3 162.45 770.85 155.85 777.45 149.25 777.45 140 Z"/>
</g>
<g id="l0">
<path fill="#010101" stroke="none" d="M 84.75 156.1 Q 97.7 159.45 95.4 177.15 L 79.35 263.4 104.3 261.1 125 152.4 84.75 156.1 M 124.75 129.05 Q 129.5 124.15 129.6 117.6 129.65 110.95 124.95 107 120.3 103 113.7 103.55 107 104.2 102.35 109.1 97.6 113.85 97.55 120.5 97.45 127.15 102.15 131.2 106.8 135.15 113.4 134.5 120 133.95 124.75 129.05 M 77.8 113.6 L 53.4 115.85 33.3 211.45 Q 30.9 222.6 29.55 232.85 28.3 242.4 28.25 248.75 28.15 258.05 33.2 263.45 38.3 268.85 47.1 268 58.9 267 64.8 257.1 59.45 257.6 56 254.65 52.5 251.6 52.55 245.8 52.6 241 53.75 232.65 55 223.5 57.15 213.25 L 77.8 113.6 M 323.9 136.75 Q 313.65 130.5 297 132 268.8 134.6 251.25 154.75 233.55 174.75 233.3 202.45 233.1 224.4 245.05 235.9 257 247.35 276.5 245.55 294.45 243.9 307 237 L 310.15 210.3 Q 305.45 215.05 297.4 219.3 289.3 223.5 283.1 224.05 271.5 225.15 265.05 219.65 258.5 214.25 258.65 203 L 258.85 198.45 Q 269.35 201.2 280.4 200.2 302.85 198.1 318.45 186.3 333.85 174.55 334.05 156.3 334.15 142.95 323.9 136.75 M 277.6 179.6 Q 270.15 180.3 263.8 179 268.2 168.75 275.95 161.45 283.65 154.1 291.05 153.45 309.7 151.7 309.65 160.5 309.55 168.3 300.3 173.4 291 178.4 277.6 179.6 M 201.35 145.65 Q 193.95 143.55 183.75 144.5 170.5 145.7 161.35 152.45 L 169.75 104 145.8 106.2 126.4 213.1 Q 124.4 223.8 121.25 235.25 117.65 248.25 113.1 260.15 L 131.05 258.55 139 249.75 Q 146.3 259.1 161.9 257.7 188.3 255.3 206.55 235.2 215.8 224.95 221.05 212 226.25 199 226.35 185.8 226.5 176 223.3 167.65 220.35 159.9 214.8 153.8 209.3 147.9 201.35 145.65 M 174 166.3 Q 186.7 165.15 193.25 171.4 199.8 177.7 199.65 191.05 199.55 199.75 196.95 207.6 194.35 215.25 189.45 221.7 179.25 234.8 161.55 236.4 150.45 237.4 146.75 230 L 156.8 176.65 Q 164.3 167.15 174 166.3 M 399.9 122.7 Q 384.05 124.15 370.85 136.55 L 372.65 127.15 347.95 129.4 327.25 237.45 351.9 235.2 363.6 174.15 Q 365.8 163.15 373.8 154.1 381.8 144.95 391.3 144.1 398 143.5 406.7 149.2 L 414.3 123.25 399.9 122.7 M 464.65 85.65 L 436.45 98.55 432.1 120.65 419.9 121.7 415.5 142.05 427.7 140.9 415.25 195.3 414.3 203.2 Q 414.2 215.35 421.35 222.2 428.55 229.1 440.55 227.95 458.85 226.3 469.5 221.7 L 469.7 199.4 Q 457.4 205.65 452 206.15 439.8 207.25 439.9 196.35 L 441.25 186.75 452.35 138.7 481.35 136.05 485.8 115.75 456.95 118.35 464.65 85.65 M 539.25 107.7 Q 512.6 110.15 495 131.8 477.45 153.4 477.15 182.45 476.95 202.9 487.95 212.75 498.95 222.55 518.9 220.75 546.15 218.2 563.55 196.55 580.95 174.85 581.25 145.2 581.45 125.35 570.55 115.65 559.6 105.85 539.25 107.7 M 536.4 128.4 Q 555.8 126.6 555.6 148.25 555.4 168.05 546.3 183.4 537.2 198.65 521.85 200.05 502.5 201.85 502.75 178.9 502.9 159.95 512.2 144.9 521.4 129.75 536.4 128.4 M 544.7 67.7 L 528.55 98.2 549.8 96.25 572.6 65.2 544.7 67.7 M 671.3 185.65 Q 688.8 164.7 689.15 134.45 689.5 93.2 647.35 97 633.85 98.25 620.1 109.7 L 617.95 99.8 593.95 106.35 Q 595.6 115 595.55 123.75 595.45 130.2 594.25 136.65 L 572.7 254.75 597.25 252.55 604.75 206.15 Q 614.1 210.15 625.4 209.1 653.85 206.55 671.3 185.65 M 657.3 123.7 Q 663.45 129.2 663.35 139.3 663.15 161.15 652.75 173.95 642.35 186.7 623 188.45 613.55 189.3 608.8 184.7 L 619.1 131.3 Q 622.45 127.15 629.05 123.35 635.55 119.5 640.35 119.1 651.2 118.1 657.3 123.7 M 796.35 98.95 Q 779.3 81.95 755.2 81.95 731.1 81.95 714.05 98.95 697 116.05 697 140.15 697 164.25 714.05 181.3 731.1 198.35 755.2 198.35 779.3 198.35 796.35 181.3 813.4 164.25 813.4 140.15 813.4 116.05 796.35 98.95 M 715.4 140.05 Q 715.4 123.6 727 111.95 738.65 100.3 755.1 100.3 771.55 100.3 783.15 111.95 794.8 123.6 794.8 140.05 794.8 156.45 783.15 168.1 771.55 179.75 755.1 179.75 738.65 179.75 727 168.1 715.4 156.45 715.4 140.05 M 870.1 31.65 L 845.75 33.85 825.05 130.55 Q 822.7 141.55 821.45 151.55 820.3 160.4 820.25 166.95 820.2 176.25 825.25 181.65 830.3 187.05 839.15 186.25 850.95 185.2 856.85 175.35 851.5 175.8 848 172.85 844.55 169.8 844.55 164.05 844.65 159.05 845.65 151.35 846.8 142.45 848.9 132.4 L 870.1 31.65 M 874.1 75.6 Q 887 78.95 884.75 96.65 L 868.65 182.85 893.65 180.6 914.35 71.9 874.1 75.6 M 914.6 47.65 Q 919.35 42.75 919.45 36.2 919.5 29.55 914.85 25.6 910.15 21.6 903.55 22.15 896.85 22.8 892.2 27.7 887.45 32.45 887.4 39.1 887.3 45.75 892 49.8 896.7 53.75 903.25 53.15 909.85 52.55 914.6 47.65 M 984.05 93.55 L 995.65 69.85 Q 976.3 63.25 964.1 64.35 946.3 66 934.05 76.3 921.65 86.55 921.5 102.05 921.4 109.05 925.15 114.55 928.7 120 935.75 123.4 L 951.95 130.75 Q 961.15 134.8 961.1 140.15 961.05 146.6 956.2 150.8 951.25 155 943.8 155.7 931.95 156.75 919.8 146.15 L 906.6 169.85 Q 923 178.2 940.3 176.6 960.55 174.75 973.75 163.5 986.8 152.15 987 134.6 987.05 127.5 983.45 122.35 979.9 117.1 974.2 114.5 L 957.95 107.25 Q 947.3 102.8 947.35 96.9 947.4 92.15 952 88.95 956.45 85.7 962.55 85.15 972.35 84.25 984.05 93.55 Z"/>
</g>
</defs>
<g transform="matrix(1,0,0,1,0,0)">
<use xlink:href="#l3"/>
</g>
<g transform="matrix(1,0,0,1,0,0)">
<use xlink:href="#l2"/>
</g>
<g transform="matrix(1,0,0,1,0,0)">
<use xlink:href="#l1"/>
</g>
<g transform="matrix(1,0,0,1,0,0)">
<use xlink:href="#l0"/>
</g>
</svg>
