<svg xmlns="http://www.w3.org/2000/svg" xmlns:xlink="http://www.w3.org/1999/xlink" width="100%" height="100%" viewBox="0 0 931 1024">
<!-- Vectorization by Rodrigo Polo https://github.com/rodrigopolo/logotipos-politicos -->
<defs>
<g id="l0">
<path fill="#000000" stroke="none" d="M 831.05 884.4 L 810.7 884.4 766.5 988.95 788.85 988.95 798.4 965.65 841.95 965.65 851.4 988.95 876.05 988.95 831.05 884.4 M 820.2 911.25 L 833.95 945.45 806.4 945.45 820.2 911.25 M 122.65 885.15 L 100 885.15 100 949.05 51.55 885.15 30.45 885.15 30.45 988.95 52.9 988.95 52.9 922.8 103.65 988.95 122.65 988.95 122.65 885.15 M 188.6 898.95 Q 172.7 914.9 172.7 936.6 L 172.7 937.3 Q 172.7 955.85 183.45 969.4 185.75 972.35 188.6 975.1 203.8 991.1 227.8 991.1 251.25 991.1 267.1 975.1 269.8 972.35 272.1 969.4 282.45 955.85 283 937.3 L 283 936.6 Q 283 914.15 267.75 898.95 251.85 882.9 227.8 882.9 204.7 882.9 188.6 898.95 M 205.35 913.5 Q 214.1 903.95 227.8 903.95 240.75 903.95 250.25 914.25 259.1 923.7 259.1 936.6 259.1 950.3 250.25 959.95 241.6 969.25 227.8 969.25 214.1 969.25 205.35 959.95 196.55 950.3 196.55 936.6 196.55 922.95 205.35 913.5 M 236.55 850.25 L 219.9 876.4 236.55 876.4 256.1 859 236.55 850.25 M 436.1 885.15 L 411.5 885.15 384.65 929.35 357 885.15 332.3 885.15 332.3 988.95 354.9 988.95 354.9 922.15 383.95 965.65 384.65 965.65 413.7 921.5 413.7 988.95 436.1 988.95 436.1 885.15 M 637.3 885.15 L 637.3 988.95 677.2 988.95 Q 700.85 988.95 717.1 973.7 719.25 971.65 721.15 969.4 732.3 956 732.3 936.6 732.3 914.8 717.1 900.3 701.15 885.15 677.2 885.15 L 637.3 885.15 M 699.6 914.25 Q 708.4 922.8 708.4 936.6 708.4 951.35 699.6 959.95 691.05 968.5 677.2 968.5 L 659.75 968.5 659.75 905.45 677.2 905.45 Q 691.05 905.45 699.6 914.25 M 547.2 884.4 L 526.2 884.4 481.85 988.95 505.2 988.95 514.45 965.65 558.1 965.65 567.5 988.95 591.55 988.95 547.2 884.4 M 522.55 945.45 L 536.3 911.25 550.1 945.45 522.55 945.45 M 852.15 170.1 Q 852.15 115.7 815.05 75.8 770 32.9 702.55 32.9 638 32.9 564.6 96.2 495.65 155.65 400.55 287.65 398.45 289.75 396.2 287.65 394.9 284.75 396.2 281.2 407.35 253.3 436.9 170.1 468.25 82.6 475.3 61.25 477.65 52.55 468.8 52.55 463.05 54 333.85 56.2 200 57.6 136.35 57.6 132.65 57.6 129.9 66.25 127.7 74.4 131.3 74.4 137.75 75 211.1 75 275.95 75.9 277.25 77.2 281.55 81.55 267.1 133.2 248.3 195.2 206.8 300.8 155.1 423.7 31.1 701.45 29.05 710.1 32.55 710.1 219.15 715.25 220.55 707.95 302.8 516.8 326.55 456.85 352.85 395.65 403.45 319.65 460.25 234.05 521 171.6 564.1 130 587.95 115.65 611.15 101.85 635.1 101.85 655.4 101.85 667.65 115 680.1 128 680.1 149 680.1 172.4 664.05 212.2 648.75 250.65 592.25 369.05 546.85 466.7 529.05 520.05 513.1 566.6 513.1 595.55 513.1 651.4 547.2 685.5 588.55 724.7 649.5 724.7 720.05 724.7 788.2 670.3 847.75 623.05 900.7 538.85 901.5 535.3 894.95 530.95 887.6 526.4 886.15 528.75 831.75 604.85 792.5 639.85 752.6 673.95 719.3 673.95 703.25 673.95 693.85 663.05 683.75 651.4 683.75 633.2 683.75 612.15 699.6 570.75 716.95 525.9 770.8 406.75 822.3 295.85 835.35 258 852.15 210.8 852.15 170.1 Z"/>
</g>
</defs>
<g transform="matrix(1,0,0,1,0,0)">
<use xlink:href="#l0"/>
</g>
</svg>
