<svg xmlns="http://www.w3.org/2000/svg" xmlns:xlink="http://www.w3.org/1999/xlink" width="100%" height="100%" viewBox="0 0 1024 1024">
<!-- Vectorization by Rodrigo Polo https://github.com/rodrigopolo/logotipos-politicos -->
<defs>
<g id="l2">
<path fill="#000000" stroke="none" d="M 0 1024.05 L 1024 1024.05 1024 0.05 0 0.05 0 1024.05 Z"/>
</g>
<g id="l1">
<path fill="#FFFFFF" stroke="none" d="M 389.7 560.9 L 395.45 545.35 416.05 545.35 421.7 562.1 Q 422.45 563.9 422.75 566.35 422.8 567.35 422.25 568.15 421.7 568.95 420.75 569.35 417.8 570.5 414.4 570.5 413.75 570.5 413.75 571.9 413.75 573.25 414.55 573.25 417.95 573.25 422.7 572.95 427.7 572.7 430.25 572.7 432.55 572.7 436.65 572.95 441.05 573.25 444.5 573.25 445.3 573.25 445.3 571.85 445.3 570.65 444.4 570.45 439.95 570.15 436.4 567.6 432.95 564.65 431.65 560.4 L 411 502.85 Q 410.65 502.1 409.45 502.1 408.45 501.9 408 502.85 L 384.65 560.45 Q 382 566.35 379.55 568.2 376.55 570.25 372.95 570.5 371.8 570.65 371.8 572 371.8 573.25 372.55 573.25 375.7 573.25 378.4 573 380.95 572.7 383.75 572.7 386.45 572.7 389.95 573 394 573.25 396.55 573.25 397.4 573.25 397.4 571.9 397.4 570.5 396.8 570.5 388.7 570.15 388.7 565.65 388.8 563.25 389.7 560.9 M 406.2 516.6 L 415 542.1 396.7 542.1 406.2 516.6 M 630.45 514.85 Q 630.45 510.2 632.55 508.65 634.8 507.15 641 506.35 641.8 506.35 641.8 504.95 641.8 503.5 640.95 503.5 638.4 503.5 634.8 503.85 631.15 504.2 628.75 504.2 626.3 504.2 622.5 503.85 618.8 503.5 616.5 503.5 615.7 503.5 615.7 504.95 615.7 506.35 616.5 506.35 622.75 507.1 624.95 508.6 627.15 510.2 627.15 514.85 L 627.15 545.25 Q 627.15 570.35 607.4 570.35 596.9 570.35 592.2 564.6 587.55 558.9 587.55 546.45 L 587.55 514.85 Q 587.3 512.35 588.4 509.9 589.5 508.2 591.5 507.65 594.7 506.6 597.95 506.25 598.7 506.25 598.7 504.9 598.7 503.5 597.95 503.5 594.3 503.5 589.95 503.85 585 504.15 582.4 504.15 580.05 504.15 574.95 503.85 570.4 503.5 567 503.5 566.2 503.5 566.2 504.9 566.2 506.25 567 506.25 570.2 506.6 573.45 507.65 575.45 508.2 576.5 509.95 577.5 512.25 577.4 514.85 L 577.4 547.9 Q 577.4 560.25 584.9 567.65 592.3 574.85 605.8 574.85 617.55 574.85 624.05 567.25 630.45 559.6 630.45 546.25 L 630.45 514.85 M 514.65 449.65 Q 508.2 449.65 500.45 450.15 493 450.7 487.15 450.7 481.3 450.7 473.8 450.15 465.9 449.65 459.5 449.65 458.05 449.6 458.05 452.1 458.05 454.5 459.5 454.5 465.5 455.1 471 456.9 474.45 457.9 476.5 460.9 478.05 463.4 478.05 469.7 L 478.05 553.75 Q 478.05 562 474.15 564.85 470.3 567.6 459.5 568.85 458.05 569 458.05 571.2 458.05 573.7 459.5 573.7 464.65 573.7 473.75 573.2 482.15 572.65 487.15 572.65 493.5 572.7 500.45 573.2 509.55 573.7 514.65 573.7 516 573.7 516 571.2 516 569 514.65 568.85 508.8 568.25 503.25 566.45 499.8 565.4 497.8 562.5 496.25 559.95 496.25 553.75 L 496.25 522.15 Q 505.95 523.1 517.3 523.1 535.15 523.1 547.2 512.4 559.2 501.75 559.2 486 559.2 468.2 547.9 458.95 536.45 449.65 514.65 449.65 M 503.2 456.65 Q 508.55 455.45 513.95 455.6 525.5 455.6 532.55 463.65 539.55 471.75 539.55 486 L 539.5 486 Q 539.5 500.65 531.55 508.9 523.55 517.25 509.05 517.25 501.05 517.25 498.65 515.95 496.25 514.65 496.25 510.85 L 496.25 469.7 Q 496.25 462.65 497.75 460.2 499.8 457.4 503.2 456.65 M 119.2 449.65 Q 112.8 449.65 105.05 450.15 97.5 450.7 91.75 450.7 85.95 450.7 78.4 450.15 70.45 449.65 64.15 449.65 62.7 449.65 62.7 452.1 62.7 454.5 64.15 454.5 69.95 455 75.65 456.9 79.05 457.9 81.05 460.9 82.65 463.45 82.65 469.7 L 82.65 553.75 Q 82.65 562.1 78.75 564.85 74.95 567.6 64.15 568.85 62.7 569 62.7 571.2 62.7 573.7 64.15 573.7 69.15 573.7 78.4 573.2 86.65 572.65 91.75 572.65 98.15 572.7 105.05 573.2 114.2 573.7 119.25 573.7 120.65 573.7 120.65 571.2 120.65 569 119.25 568.85 113.3 568.25 107.8 566.45 104.4 565.35 102.4 562.5 100.9 560.1 100.9 553.75 L 100.9 522.15 Q 110.55 523.1 121.9 523.1 139.7 523.1 151.75 512.4 163.8 501.75 163.8 486 163.8 468.2 152.5 458.95 141.05 449.65 119.2 449.65 M 102.4 460.2 Q 104.45 457.4 107.75 456.65 113.15 455.45 118.55 455.6 130.15 455.6 137.15 463.65 144.15 471.7 144.15 486 144.15 500.65 136.15 508.9 128.25 517.25 113.7 517.25 105.7 517.25 103.25 515.95 100.9 514.65 100.9 510.85 L 100.9 469.7 Q 100.9 462.5 102.4 460.2 M 314.75 503.15 Q 312.5 511.75 309.25 520.35 L 309 521 Q 309 522.1 310.7 522.1 311.45 522.1 311.8 521.1 317.9 507.4 333.15 507.4 L 355.65 507.4 307.45 571 307.25 571.9 Q 307.25 573.7 308.55 573.7 313.05 572.7 338.05 572.7 362.3 572.7 367.15 573.7 368.45 564.25 370.65 556.2 370.75 554.9 368.95 554.9 368.15 554.85 367.75 555.7 366 562.1 360.65 565.85 355 569.65 348.25 569.45 L 321.75 569.45 369.8 505.85 Q 370 505.5 370 505.1 370 503.15 368.75 503.15 364.65 504.2 341.2 504.2 319.15 504.2 314.75 503.15 M 231.95 573.2 Q 234.3 573.25 237.75 572.95 241.05 572.65 243.2 572.65 245.9 572.65 249.3 572.95 252.4 573.2 256 573.2 256.75 573.2 256.75 571.85 256.75 570.45 256.2 570.45 248.05 570.1 248.05 565.65 248.25 563.2 249.15 560.85 L 254.9 545.25 275.45 545.25 281.15 562.1 Q 282 563.95 282.15 566.35 282.2 567.35 281.7 568.15 281.05 568.95 280.2 569.35 277.25 570.5 273.8 570.5 273.2 570.5 273.2 571.9 273.2 573.25 273.95 573.25 277.3 573.25 282.05 572.95 287.05 572.7 289.7 572.7 291.9 572.7 296.15 572.95 300.5 573.25 303.95 573.25 304.7 573.25 304.7 571.85 304.7 570.65 303.75 570.45 299.3 570.15 295.8 567.6 292.4 564.65 291.05 560.4 L 270.3 502.75 Q 270.05 502 268.8 502 267.8 501.9 267.45 502.85 L 244 560.4 Q 241.45 566.25 238.95 568.15 236 570.35 232.4 570.45 231.2 570.5 231.2 572 231.2 573.2 231.95 573.2 M 274.3 542.1 L 256 542.1 265.5 516.6 274.3 542.1 M 204.7 504.9 Q 204.7 503.5 203.95 503.5 200.65 503.5 195.95 503.85 191.65 504.2 188.5 504.2 185.5 504.2 181 503.85 176.3 503.5 172.95 503.5 172.2 503.5 172.2 504.9 172.2 506.35 172.95 506.35 176.05 506.5 179.45 507.65 181.4 508.2 182.45 509.9 183.65 512.25 183.4 514.85 L 183.4 562 Q 183.4 566.7 181.2 568.25 179 569.75 172.95 570.5 172.15 570.6 172.15 571.85 172.15 573.25 172.95 573.25 190.2 572.7 199.95 572.7 209.65 572.7 227.25 573.25 228.5 564.1 231 554.85 230.9 554.2 230.4 553.95 229.8 553.5 229.2 553.5 228.4 553.5 228.25 553.95 223.95 562.9 219.8 566.2 215.15 569.65 209.4 569.45 L 199.45 569.45 Q 193.65 569.45 193.65 563.6 L 193.65 514.85 Q 193.45 512.35 194.5 509.9 195.65 508.2 197.55 507.65 200.5 506.65 203.95 506.35 204.7 506.35 204.7 504.9 M 797.25 514.85 Q 797.05 512.25 798.15 509.9 799.3 508.2 801.2 507.65 804.15 506.65 807.55 506.35 808.4 506.35 808.4 504.9 808.4 503.5 807.55 503.5 804.2 503.5 799.65 503.85 795.2 504.2 792.2 504.2 789.15 504.2 784.7 503.85 780.05 503.5 776.65 503.5 775.8 503.5 775.8 504.9 775.8 506.35 776.65 506.35 779.7 506.5 783.05 507.65 785.05 508.2 786.15 509.9 787.2 512.25 787.05 514.85 L 787.05 562 Q 787.05 566.65 784.8 568.25 782.75 569.75 776.65 570.5 775.8 570.65 775.8 571.85 775.8 573.25 776.65 573.25 780.05 573.25 784.7 572.95 789.55 572.7 792.2 572.7 794.75 572.7 799.65 572.95 804.3 573.25 807.55 573.25 808.4 573.25 808.4 571.85 808.4 570.65 807.5 570.5 804.2 570.2 801.15 569.2 799.3 568.65 798.15 566.95 797.05 564.6 797.25 562 L 797.25 514.85 M 698.65 513.2 Q 697.05 510.1 694.25 508 688.55 503.5 679.2 503.5 675.9 503.5 670.55 503.85 665.65 504.2 662.55 504.2 659.5 504.2 654.8 503.85 650.05 503.5 646.7 503.5 645.8 503.5 645.8 504.9 645.8 506.35 646.7 506.35 649.8 506.5 653.05 507.65 655.15 508.2 656.2 509.9 657.25 512.25 657.15 514.85 L 657.15 562 Q 657.15 566.65 654.9 568.25 652.75 569.75 646.7 570.5 645.9 570.65 645.9 571.85 645.9 573.25 646.7 573.25 650.05 573.25 655.4 572.95 661.2 572.7 663.55 572.7 666 572.7 672.5 572.95 678.7 573.25 682 573.25 692.4 573.25 698.5 567.65 704.75 562.15 704.75 552.75 704.75 549.5 703.4 546.65 702 543.7 699.45 541.6 694.15 536.9 685.25 535.15 691.4 533.9 695.8 529.25 699.95 525.4 700 519.75 700.15 516.35 698.65 513.2 M 673.65 506.9 L 675.65 506.9 Q 682.45 506.95 685.75 510 688.95 513.2 688.95 519.75 688.95 527.35 685.5 530.75 682.15 534.15 674.5 534.15 L 667.25 534.15 667.25 512.25 Q 667.25 506.9 673.65 506.9 M 667.25 537.4 L 678.2 537.4 Q 685.5 537.4 689.55 541.5 693.7 545.65 693.7 552.85 693.7 560.6 689.55 565.25 687.5 567.65 684.75 568.9 681.9 570.1 678.8 570 672.55 570.1 669.9 568.35 667.25 566.6 667.25 562.1 L 667.25 537.4 M 711.7 503.5 Q 710.9 503.5 710.9 504.9 710.9 506.35 711.7 506.35 714.9 506.5 718.15 507.65 720.15 508.2 721.25 509.9 722.3 512.25 722.15 514.85 L 722.15 562 Q 722.15 566.65 719.95 568.25 717.8 569.75 711.7 570.5 710.9 570.65 710.9 571.9 710.9 573.25 711.7 573.25 731.45 572.7 738.65 572.7 745.8 572.7 765.95 573.25 767.2 564.45 769.65 554.85 769.65 554.2 769.15 553.95 768.55 553.5 767.9 553.5 767.2 553.5 766.9 553.95 762.75 562.9 758.45 566.2 753.8 569.65 748.05 569.45 L 738.15 569.45 Q 732.3 569.45 732.3 563.6 L 732.3 514.85 Q 732.15 512.2 733.15 509.9 734.45 508.2 736.2 507.65 739.25 506.65 742.65 506.35 743.45 506.35 743.45 504.9 743.45 503.5 742.65 503.5 739.25 503.5 734.7 503.85 730.25 504.2 727.2 504.2 724.15 504.2 719.7 503.85 715.05 503.5 711.7 503.5 M 887.75 572 Q 887.75 573.2 888.5 573.2 891.65 573.2 894.3 572.95 897.55 572.65 899.7 572.65 902.5 572.65 905.9 572.95 908.95 573.2 912.55 573.2 913.4 573.2 913.4 571.85 913.4 570.45 912.75 570.45 904.65 570.1 904.65 565.65 904.75 563.2 905.7 560.85 L 911.4 545.25 931.95 545.25 937.65 562.1 Q 938.5 564.15 938.7 566.35 938.75 567.35 938.2 568.15 937.7 568.95 936.75 569.35 933.8 570.5 930.3 570.5 929.7 570.5 929.7 571.9 929.7 573.25 930.55 573.25 933.9 573.25 938.7 572.95 943.7 572.7 946.2 572.7 948.45 572.7 952.65 572.95 957 573.25 960.45 573.25 961.3 573.25 961.3 571.85 961.2 570.6 960.3 570.5 955.8 570.1 952.3 567.6 948.95 564.65 947.55 560.4 L 926.95 502.75 Q 926.55 502 925.4 502 924.4 501.9 923.95 502.85 L 900.55 560.4 Q 897.95 566.25 895.5 568.15 892.65 570.35 888.9 570.45 887.75 570.6 887.75 572 M 930.95 542.1 L 912.55 542.1 922.05 516.6 930.95 542.1 M 871.3 509.65 Q 877.25 513.95 879.05 520.9 879.25 521.9 880.3 521.7 881.9 521.7 881.9 520.9 880.3 511.25 879.65 503.85 875.05 503.7 870.65 503.1 864.5 502.2 858 502.1 847.3 501.9 837.95 506.85 829 511.5 823.95 520.15 818.75 528.75 818.8 538.85 818.7 548.85 823.65 557.5 828.5 565.95 837.05 570.35 846.5 575.1 857.05 574.85 864.3 574.65 871.3 573.1 876.8 572 881.7 571.75 883.4 562.6 885.2 554.75 885.2 553.95 883.75 553.95 882.8 553.85 882.4 554.75 875.05 571.7 857.05 571.7 845.55 571.65 837.75 562.1 829.8 552.5 829.8 538.75 829.8 524.75 837.8 514.95 845.8 505.25 857.65 505.25 865.15 505.15 871.3 509.65 Z"/>
<path fill="#2CBEC9" stroke="none" d="M 604.65 496.9 Q 605.3 497.6 605.7 497.6 606.2 497.6 606.55 497.35 L 604.65 496.9 Z"/>
</g>
<g id="l0">
<path fill="#2CBEC9" stroke="none" d="M 623.8 481.6 Q 622.75 480.1 620.9 479.95 620.05 479.95 619.65 480.45 L 604.55 494.65 Q 604.05 495.1 604 495.6 604.15 496.4 604.7 496.9 L 606.65 497.35 624.2 486.4 Q 625.2 485.85 625.05 484.6 625.05 482.9 623.8 481.6 Z"/>
</g>
</defs>
<g transform="matrix(1,0,0,1,0,0)">
<use xlink:href="#l2"/>
</g>
<g transform="matrix(1,0,0,1,0,0)">
<use xlink:href="#l1"/>
</g>
<g transform="matrix(1,0,0,1,0,0)">
<use xlink:href="#l0"/>
</g>
</svg>
