<svg xmlns="http://www.w3.org/2000/svg" xmlns:xlink="http://www.w3.org/1999/xlink" width="100%" height="100%" viewBox="0 0 1024 1024">
<!-- Vectorization by Rodrigo Polo https://github.com/rodrigopolo/logotipos-politicos -->
<defs>
<g id="l4">
<path fill="#000000" stroke="none" d="M 733.15 841.2 Q 734.4 839.5 736.2 838.95 739.25 837.95 742.65 837.65 743.45 837.65 743.45 836.2 743.45 834.85 742.65 834.85 739.25 834.85 734.7 835.15 730.25 835.5 727.2 835.5 724.15 835.5 719.7 835.15 715.05 834.85 711.7 834.85 710.9 834.85 710.9 836.2 710.9 837.65 711.7 837.65 714.85 837.85 718.1 838.95 720.1 839.55 721.25 841.25 722.3 843.6 722.15 846.15 L 722.15 893.35 Q 722.15 897.95 719.9 899.55 717.8 901.1 711.7 901.8 710.9 901.95 710.9 903.2 710.9 904.55 711.7 904.55 731.4 904 738.65 904 745.8 904 765.95 904.55 767.15 895.75 769.65 886.1 769.65 885.55 769.1 885.25 768.55 884.85 767.85 884.85 767.15 884.85 766.9 885.25 762.75 894.2 758.45 897.5 753.8 900.95 748.1 900.75 L 738.1 900.75 Q 732.3 900.75 732.3 894.85 L 732.3 846.15 Q 732.15 843.5 733.15 841.2 M 783.1 838.95 Q 785.05 839.55 786.15 841.25 787.2 843.6 787.05 846.15 L 787.05 893.35 Q 787.05 897.95 784.85 899.55 782.7 901.1 776.6 901.8 775.8 901.95 775.8 903.15 775.8 904.55 776.6 904.55 780.05 904.55 784.7 904.25 789.6 904 792.15 904 794.75 904 799.6 904.25 804.3 904.55 807.55 904.55 808.4 904.55 808.4 903.15 808.4 901.95 807.5 901.8 804.2 901.5 801.15 900.5 799.35 900 798.1 898.25 797.05 895.85 797.25 893.35 L 797.25 846.15 Q 797.05 843.6 798.1 841.2 799.3 839.55 801.2 838.95 804.15 837.95 807.55 837.65 808.35 837.65 808.35 836.2 808.35 834.85 807.55 834.85 804.2 834.85 799.6 835.15 795.15 835.5 792.15 835.5 789.1 835.5 784.7 835.15 780.05 834.85 776.6 834.85 775.8 834.85 775.8 836.2 775.8 837.65 776.6 837.65 779.7 837.85 783.1 838.95 M 857.6 836.6 Q 865.15 836.45 871.3 840.95 877.25 845.25 879.1 852.2 879.25 853.2 880.3 853 881.85 853 881.85 852.2 880.3 842.6 879.6 835.15 875.05 835 870.65 834.35 864.5 833.55 858 833.35 847.35 833.2 837.95 838.1 828.95 842.8 823.9 851.45 818.75 860.05 818.8 870.15 818.7 880.15 823.6 888.8 828.5 897.3 837.05 901.65 846.5 906.4 857.1 906.15 864.3 905.95 871.3 904.4 876.8 903.3 881.7 903.1 883.4 893.9 885.2 886.05 885.2 885.25 883.75 885.25 882.8 885.15 882.4 886.05 875.05 903 857.1 903 845.6 902.95 837.75 893.4 829.8 883.85 829.8 870.1 829.8 856.05 837.85 846.3 845.8 836.6 857.6 836.6 M 926.9 834.05 Q 926.6 833.3 925.4 833.3 924.4 833.2 923.95 834.1 L 900.55 891.7 Q 897.95 897.55 895.5 899.45 892.65 901.6 888.9 901.75 887.8 901.9 887.8 903.3 887.8 904.5 888.5 904.5 891.65 904.5 894.3 904.25 897.6 903.95 899.7 903.95 902.5 903.95 905.85 904.25 908.9 904.5 912.55 904.5 913.35 904.5 913.35 903.15 913.35 901.75 912.7 901.75 904.65 901.4 904.65 896.95 904.75 894.5 905.7 892.1 L 911.4 876.55 931.9 876.55 937.6 893.4 Q 938.5 895.45 938.65 897.6 938.7 898.6 938.2 899.45 937.65 900.25 936.75 900.6 933.8 901.8 930.35 901.8 929.7 901.8 929.7 903.2 929.7 904.55 930.55 904.55 933.85 904.55 938.65 904.25 943.7 904 946.2 904 948.45 904 952.65 904.25 957 904.55 960.45 904.55 961.3 904.55 961.3 903.15 961.2 901.9 960.3 901.8 955.8 901.4 952.35 898.85 948.95 895.95 947.6 891.7 L 926.9 834.05 M 930.9 873.4 L 912.55 873.4 922.05 847.85 930.9 873.4 M 203.95 837.65 Q 204.7 837.65 204.7 836.2 204.7 834.85 203.95 834.85 200.65 834.85 195.95 835.15 191.65 835.5 188.55 835.5 185.55 835.5 181 835.15 176.35 834.85 172.95 834.85 172.2 834.85 172.2 836.2 172.2 837.65 172.95 837.65 176.1 837.85 179.45 838.95 181.35 839.55 182.45 841.25 183.65 843.6 183.35 846.15 L 183.35 893.35 Q 183.35 898.05 181.2 899.55 179.05 901.1 172.95 901.8 172.15 901.9 172.15 903.15 172.15 904.55 172.95 904.55 190.2 904 199.9 904 209.65 904 227.25 904.55 228.5 895.4 231 886.1 230.9 885.55 230.4 885.25 229.8 884.85 229.2 884.85 228.4 884.85 228.25 885.25 223.95 894.2 219.8 897.5 215.15 900.95 209.35 900.75 L 199.45 900.75 Q 193.65 900.75 193.65 894.85 L 193.65 846.15 Q 193.45 843.65 194.5 841.2 195.65 839.55 197.55 838.95 200.5 837.95 203.95 837.65 M 270.35 834.05 Q 270.05 833.3 268.85 833.3 267.85 833.2 267.45 834.1 L 244 891.7 Q 241.45 897.55 238.95 899.45 236 901.6 232.35 901.75 231.2 901.8 231.2 903.3 231.2 904.5 231.95 904.5 234.3 904.55 237.75 904.25 241.05 903.95 243.15 903.95 245.85 903.95 249.35 904.25 252.4 904.5 256 904.5 256.75 904.5 256.75 903.15 256.75 901.75 256.2 901.75 248.05 901.4 248.05 896.95 248.25 894.5 249.15 892.1 L 254.9 876.55 275.45 876.55 281.15 893.4 Q 282 895.3 282.15 897.6 282.2 898.6 281.65 899.45 281.1 900.25 280.2 900.6 277.25 901.8 273.8 901.8 273.2 901.8 273.2 903.2 273.2 904.55 273.95 904.55 277.35 904.55 282.1 904.25 287.1 904 289.7 904 291.9 904 296.1 904.25 300.5 904.55 303.9 904.55 304.7 904.55 304.7 903.15 304.7 901.95 303.75 901.75 299.35 901.45 295.8 898.85 292.35 895.95 291.05 891.7 L 270.35 834.05 M 274.35 873.4 L 256.05 873.4 265.55 847.85 274.35 873.4 M 369.8 837.1 Q 370 836.85 370 836.4 370 834.5 368.75 834.5 364.6 835.55 341.2 835.55 319.1 835.55 314.8 834.5 312.5 843.05 309.25 851.6 L 309.05 852.3 Q 309.05 853.35 310.65 853.35 311.45 853.35 311.85 852.4 317.9 838.7 333.15 838.7 L 355.6 838.7 307.45 902.35 307.25 903.2 Q 307.25 905 308.55 905 313.05 904 338.05 904 362.3 904 367.15 905 368.4 895.6 370.65 887.55 370.75 886.2 368.95 886.2 368.1 886.1 367.8 887 366 893.4 360.6 897.15 355 900.95 348.25 900.75 L 321.75 900.75 369.8 837.1 M 411 834.1 Q 410.65 833.35 409.45 833.35 408.45 833.2 408 834.15 L 384.6 891.75 Q 382.05 897.6 379.55 899.5 376.6 901.55 372.95 901.8 371.8 901.95 371.8 903.3 371.8 904.55 372.6 904.55 375.7 904.55 378.4 904.3 380.95 904 383.75 904 386.45 904 389.95 904.3 394 904.55 396.6 904.55 397.35 904.55 397.35 903.2 397.35 901.8 396.8 901.8 388.65 901.45 388.65 896.95 388.85 894.55 389.7 892.15 L 395.45 876.6 416.05 876.6 421.7 893.4 Q 422.45 895.2 422.75 897.6 422.8 898.6 422.25 899.45 421.7 900.25 420.8 900.6 417.85 901.8 414.35 901.8 413.75 901.8 413.75 903.2 413.75 904.55 414.55 904.55 417.95 904.55 422.7 904.25 427.7 904 430.3 904 432.55 904 436.65 904.25 441.1 904.55 444.5 904.55 445.3 904.55 445.3 903.15 445.3 901.95 444.35 901.75 439.95 901.45 436.4 898.85 432.95 895.95 431.65 891.7 L 411 834.1 M 406.2 847.85 L 415 873.4 396.7 873.4 406.2 847.85 M 645.8 836.2 Q 645.8 837.65 646.65 837.65 649.85 837.85 653.1 838.95 655.1 839.55 656.2 841.25 657.25 843.6 657.1 846.15 L 657.1 893.35 Q 657.1 897.95 654.9 899.55 652.8 901.1 646.65 901.8 645.85 901.95 645.85 903.15 645.85 904.55 646.65 904.55 650.1 904.55 655.35 904.25 661.15 904 663.6 904 666 904 672.5 904.25 678.65 904.55 682 904.55 692.4 904.55 698.5 899 704.75 893.45 704.75 884.1 704.75 880.85 703.35 877.95 702 875 699.45 872.85 694.15 868.2 685.25 866.45 691.4 865.15 695.8 860.6 699.95 856.7 700.05 851.1 700.15 847.6 698.6 844.5 697.1 841.4 694.3 839.35 688.55 834.85 679.2 834.85 675.9 834.85 670.55 835.15 665.65 835.5 662.6 835.5 659.55 835.5 654.85 835.15 650.05 834.85 646.65 834.85 645.8 834.85 645.8 836.2 M 673.6 838.15 L 675.6 838.15 Q 682.4 838.3 685.75 841.35 688.95 844.5 688.95 851.1 688.95 858.65 685.55 862.05 682.15 865.45 674.5 865.45 L 667.3 865.45 667.3 843.6 Q 667.3 838.15 673.6 838.15 M 667.3 868.7 L 678.2 868.7 Q 685.5 868.7 689.6 872.8 693.7 876.95 693.7 884.15 693.7 891.85 689.55 896.55 687.55 898.9 684.75 900.2 681.9 901.4 678.85 901.3 672.55 901.4 669.85 899.65 667.3 897.85 667.3 893.4 L 667.3 868.7 M 616.5 837.65 Q 622.75 838.4 624.95 839.9 627.15 841.5 627.15 846.15 L 627.15 876.55 Q 627.15 901.65 607.35 901.65 596.9 901.65 592.2 895.85 587.55 890.2 587.55 877.8 L 587.55 846.15 Q 587.35 843.65 588.4 841.25 589.5 839.55 591.5 838.95 594.65 837.9 597.95 837.6 598.7 837.6 598.7 836.2 598.7 834.85 597.95 834.85 594.35 834.85 589.9 835.15 585 835.45 582.35 835.45 580.05 835.45 574.95 835.15 570.35 834.85 567 834.85 566.2 834.85 566.2 836.2 566.2 837.6 567 837.6 570.2 837.9 573.45 838.95 575.45 839.55 576.5 841.3 577.5 843.55 577.35 846.15 L 577.35 879.2 Q 577.35 891.6 584.85 898.9 592.3 906.15 605.8 906.15 617.55 906.15 624.05 898.55 630.45 890.9 630.45 877.55 L 630.45 846.15 Q 630.45 841.5 632.6 839.95 634.8 838.45 641 837.65 641.8 837.65 641.8 836.25 641.8 834.85 640.95 834.85 638.4 834.85 634.8 835.15 631.15 835.5 628.8 835.5 626.3 835.5 622.5 835.15 618.8 834.85 616.5 834.85 615.7 834.85 615.7 836.25 615.7 837.65 616.5 837.65 M 473.8 781.5 Q 465.9 780.95 459.5 780.95 458.05 780.9 458.05 783.4 458.05 785.8 459.5 785.8 465.5 786.4 471 788.2 474.4 789.25 476.5 792.2 478.05 794.7 478.05 801 L 478.05 885.05 Q 478.05 893.35 474.15 896.15 470.3 898.85 459.5 900.15 458.05 900.3 458.05 902.5 458.05 905.05 459.5 905.05 464.6 905.05 473.75 904.5 482.1 903.95 487.15 903.95 493.5 904.05 500.4 904.5 509.55 905.05 514.6 905.05 516.05 905.05 516.05 902.5 516.05 900.3 514.6 900.15 508.8 899.55 503.25 897.75 499.85 896.7 497.85 893.8 496.25 891.3 496.25 885.05 L 496.25 853.45 Q 505.95 854.35 517.3 854.35 535.1 854.35 547.2 843.7 559.2 833.05 559.2 817.35 559.2 799.5 547.9 790.25 536.45 780.95 514.6 780.95 508.15 780.95 500.4 781.5 493 782 487.15 782 481.35 782 473.8 781.5 M 497.8 791.5 Q 499.85 788.7 503.15 787.95 508.6 786.75 513.9 786.9 525.5 786.9 532.55 795 539.55 803.1 539.55 817.35 L 539.5 817.35 Q 539.5 831.95 531.6 840.25 523.55 848.55 509.05 848.55 501.05 848.55 498.65 847.25 496.25 846 496.25 842.15 L 496.25 801.05 Q 496.25 793.9 497.8 791.5 M 78.35 781.5 Q 70.45 780.95 64.1 780.95 62.7 780.95 62.7 783.4 62.7 785.85 64.1 785.85 69.95 786.35 75.6 788.2 79.05 789.25 81.1 792.2 82.65 794.75 82.65 801 L 82.65 885.05 Q 82.65 893.4 78.8 896.15 74.95 898.85 64.1 900.15 62.7 900.3 62.7 902.5 62.7 905.05 64.1 905.05 69.15 905.05 78.35 904.5 86.65 903.95 91.75 903.95 98.15 904.05 105.05 904.5 114.15 905.05 119.25 905.05 120.65 905.05 120.65 902.5 120.65 900.3 119.25 900.15 113.35 899.55 107.85 897.75 104.4 896.65 102.4 893.8 100.9 891.4 100.9 885.05 L 100.9 853.45 Q 110.6 854.35 121.85 854.35 139.7 854.35 151.75 843.7 163.85 833.05 163.85 817.35 163.85 799.5 152.5 790.25 141.05 780.95 119.2 780.95 112.8 780.95 105.05 781.5 97.5 782 91.75 782 85.95 782 78.35 781.5 M 102.4 791.5 Q 104.45 788.7 107.8 787.95 113.1 786.75 118.55 786.9 130.15 786.9 137.1 795 144.15 803 144.15 817.35 144.15 831.95 136.15 840.25 128.25 848.55 113.7 848.55 105.7 848.55 103.25 847.25 100.9 846 100.9 842.15 L 100.9 801.05 Q 100.9 793.8 102.4 791.5 Z"/>
</g>
<g id="l3">
<path fill="#35B8C8" stroke="none" d="M 311.5 170.9 L 311.5 117.9 152.5 117.9 152.5 715.25 311.5 715.25 311.5 662.25 216.95 662.25 216.95 170.9 311.5 170.9 M 712.55 117.9 L 712.55 170.9 805.7 170.9 805.7 662.25 712.55 662.25 712.55 715.25 871.55 715.25 871.55 117.9 712.55 117.9 Z"/>
</g>
<g id="l1">
<path fill="#26353E" stroke="none" d="M 575.05 483.2 L 575.05 480.3 Q 575.05 477.45 572.2 477.45 L 459.05 477.45 446.15 511.85 446.15 513.25 Q 446.15 516.1 450.45 516.1 L 451.9 513.25 Q 464.75 486.05 497.7 486.05 L 545 486.05 443.3 616.4 443.3 617.8 Q 443.3 622.1 446.15 622.1 457.6 619.25 507.75 619.25 555 619.25 569.35 622.1 L 576.5 586.3 Q 576.5 583.45 573.65 583.45 L 570.75 584.9 Q 566.45 596.35 555 606.35 543.55 613.55 529.25 613.55 L 473.35 613.55 575.05 483.2 M 580.8 332.8 Q 580.8 272.6 542.1 242.55 503.45 212.45 428.95 212.45 L 241.3 212.45 Q 237 212.45 237 219.6 237 228.2 241.3 228.2 267.1 231.1 280 236.8 294.3 241.1 298.6 249.7 304.35 256.85 304.35 278.35 L 304.35 556.25 Q 304.35 583.45 291.45 592.05 280 602.05 241.3 606.35 237 606.35 237 613.55 237 622.1 241.3 622.1 L 290 620.7 Q 327.25 617.8 335.85 617.8 345.9 617.8 380.25 620.7 L 428.95 622.1 Q 433.25 622.1 433.25 613.55 433.25 606.35 428.95 606.35 L 390.3 597.75 Q 378.8 593.45 371.65 584.9 365.95 573.4 365.95 556.25 L 365.95 451.65 437.55 454.55 Q 499.15 454.55 539.25 418.7 580.8 384.35 580.8 332.8 M 371.65 246.85 Q 377.4 239.65 390.3 235.35 398.9 232.5 426.1 232.5 467.65 232.5 490.55 258.3 513.45 285.5 513.45 332.8 513.45 381.5 486.25 408.7 459.05 435.9 410.35 435.9 383.1 435.9 374.55 431.6 365.95 427.3 365.95 414.4 L 365.95 278.35 Q 365.95 258.3 371.65 246.85 M 785.65 453.1 Q 785.65 420.15 762.7 401.55 739.8 382.9 696.8 382.9 L 615.15 384.35 Q 605.15 382.9 586.5 382.9 583.65 382.9 583.65 387.2 583.65 392.95 586.5 392.95 596.55 392.95 609.45 397.25 618.05 400.1 620.9 404.4 623.75 413 623.75 421.6 L 623.75 583.45 Q 623.75 597.75 616.6 604.95 606.6 610.65 586.5 612.1 L 583.65 617.8 Q 583.65 622.1 586.5 622.1 605.15 622.1 615.15 620.7 L 696.8 622.1 Q 699.7 622.1 699.7 617.8 L 696.8 612.1 673.9 607.8 Q 668.15 606.35 662.45 600.65 659.55 594.9 659.55 583.45 L 659.55 523.3 701.1 524.7 Q 738.35 524.7 761.25 503.25 785.65 483.2 785.65 453.1 M 732.65 410.15 Q 745.5 425.9 745.5 453.1 745.5 481.75 729.75 497.5 714 513.25 685.35 513.25 L 665.3 510.4 Q 659.55 508.95 659.55 500.35 L 659.55 421.6 662.45 402.95 Q 668.15 397.25 673.9 397.25 L 695.4 394.35 Q 716.85 394.35 732.65 410.15 Z"/>
</g>
<g id="l2">
<path fill="#2CBEC9" stroke="none" d="M 605.7 828.9 Q 606.2 828.9 606.6 828.6 L 604.65 828.2 Q 605.3 828.9 605.7 828.9 M 624.2 817.7 Q 625.2 817.15 625.1 815.85 625.05 814.25 623.85 812.85 622.75 811.4 620.85 811.25 620.1 811.25 619.6 811.75 L 604.6 825.95 Q 604.05 826.35 604 826.9 604.1 827.7 604.7 828.2 L 606.65 828.6 624.2 817.7 Z"/>
</g>
</defs>
<g transform="matrix(1,0,0,1,0,0)">
<use xlink:href="#l4"/>
</g>
<g transform="matrix(1,0,0,1,0,0)">
<use xlink:href="#l3"/>
</g>
<g transform="matrix(1,0,0,1,0,0)">
<use xlink:href="#l1"/>
</g>
<g transform="matrix(1,0,0,1,0,0)">
<use xlink:href="#l2"/>
</g>
</svg>
