<svg xmlns="http://www.w3.org/2000/svg" xmlns:xlink="http://www.w3.org/1999/xlink" width="100%" height="100%" viewBox="0 0 1024 1024">
<!-- Vectorization by Rodrigo Polo https://github.com/rodrigopolo/logotipos-politicos -->
<defs>
<g id="l3">
<path fill="#000000" stroke="none" d="M 396.5 559.9 Q 396.5 558.8 396.05 558.8 389.55 558.5 389.55 554.95 389.7 553 390.4 551.1 L 395 538.65 411.45 538.65 416 552.1 Q 416.7 553.6 416.8 555.5 416.85 556.3 416.45 556.95 415.95 557.6 415.25 557.9 412.9 558.85 410.15 558.85 409.65 558.85 409.65 559.95 409.65 561.05 410.25 561.05 412.95 561.05 416.75 560.8 420.75 560.6 422.85 560.6 424.6 560.6 428 560.8 431.5 561.05 434.25 561.05 434.85 561.05 434.85 559.9 434.85 558.95 434.1 558.8 430.55 558.55 427.75 556.5 425 554.15 423.95 550.75 L 407.35 504.65 Q 407.15 504.05 406.15 504.05 405.35 503.95 405.05 504.7 L 386.3 550.75 Q 384.25 555.45 382.25 556.95 379.9 558.7 377 558.8 376.05 558.85 376.05 560.05 376.05 561 376.65 561 378.55 561.05 381.3 560.8 383.95 560.55 385.65 560.55 387.8 560.55 390.55 560.8 393 561 395.9 561 396.5 561 396.5 559.9 M 395.9 536.1 L 403.5 515.7 410.55 536.1 395.9 536.1 M 346 514.3 Q 345.85 512.3 346.7 510.35 347.6 509 349.15 508.55 351.5 507.75 354.25 507.5 354.85 507.5 354.85 506.35 354.85 505.25 354.25 505.25 351.6 505.25 347.85 505.5 344.4 505.8 341.9 505.8 339.5 505.8 335.9 505.5 332.15 505.25 329.45 505.25 328.85 505.25 328.85 506.35 328.85 507.5 329.45 507.5 331.95 507.65 334.65 508.55 336.2 509 337.05 510.35 338 512.25 337.8 514.3 L 337.8 552.05 Q 337.8 555.8 336.05 557.05 334.3 558.25 329.45 558.85 328.8 558.9 328.8 559.9 328.8 561.05 329.45 561.05 343.25 560.6 351.05 560.6 358.8 560.6 372.9 561.05 373.9 553.7 375.9 546.3 375.8 545.8 375.4 545.6 374.95 545.25 374.45 545.25 373.8 545.25 373.7 545.6 370.25 552.75 366.95 555.4 363.2 558.15 358.6 558 L 350.65 558 Q 346 558 346 553.3 L 346 514.3 M 487.1 506.5 Q 487.1 504.95 486.1 504.95 482.8 505.8 464.05 505.8 446.4 505.8 442.9 504.95 441.1 511.85 438.5 518.7 L 438.3 519.25 Q 438.3 520.1 439.65 520.1 440.25 520.1 440.55 519.3 445.4 508.35 457.6 508.35 L 475.6 508.35 437.05 559.25 436.9 559.95 Q 436.9 561.4 437.95 561.4 441.55 560.6 461.55 560.6 480.95 560.6 484.8 561.4 485.85 553.85 487.6 547.4 487.7 546.35 486.25 546.35 485.6 546.3 485.3 547 483.9 552.1 479.6 555.1 475.1 558.15 469.7 558 L 448.5 558 486.95 507.1 Q 487.1 506.85 487.1 506.5 M 518.65 504.1 Q 517.85 503.95 517.5 504.7 L 498.8 550.8 Q 496.7 555.5 494.75 557 492.35 558.65 489.45 558.85 488.55 558.95 488.55 560.05 488.55 561.05 489.15 561.05 491.65 561.05 493.8 560.85 495.85 560.6 498.1 560.6 500.25 560.6 503.05 560.85 506.3 561.05 508.35 561.05 509 561.05 509 559.95 509 558.85 508.55 558.85 502.05 558.55 502.05 554.95 502.15 553.05 502.85 551.15 L 507.45 538.7 523.95 538.7 528.45 552.1 Q 529.05 553.55 529.3 555.5 529.35 556.3 528.9 556.95 528.45 557.6 527.7 557.9 525.35 558.85 522.6 558.85 522.1 558.85 522.1 559.95 522.1 561.05 522.75 561.05 525.45 561.05 529.25 560.8 533.25 560.6 535.3 560.6 537.15 560.6 540.4 560.8 543.95 561.05 546.7 561.05 547.35 561.05 547.35 559.9 547.35 558.95 546.6 558.8 543.05 558.55 540.2 556.5 537.45 554.15 536.4 550.75 L 519.9 504.7 Q 519.6 504.1 518.65 504.1 M 516.05 515.7 L 523.1 536.1 508.45 536.1 516.05 515.7 M 602.8 462.15 Q 597.65 462.15 591.45 462.55 585.5 463 580.8 463 576.15 463 570.15 462.55 563.8 462.15 558.7 462.15 557.55 462.1 557.55 464.1 557.55 466.05 558.7 466.05 563.5 466.5 567.9 467.95 570.65 468.75 572.3 471.15 573.55 473.15 573.55 478.2 L 573.55 545.45 Q 573.55 552.05 570.4 554.3 567.35 556.5 558.7 557.5 557.55 557.65 557.55 559.4 557.55 561.4 558.7 561.4 562.8 561.4 570.1 561 576.8 560.55 580.8 560.55 585.9 560.6 591.45 561 598.75 561.4 602.8 561.4 603.9 561.4 603.9 559.4 603.9 557.65 602.8 557.5 598.15 557.05 593.7 555.6 590.95 554.75 589.35 552.45 588.1 550.4 588.1 545.45 L 588.1 520.15 Q 595.85 520.9 604.95 520.9 619.2 520.9 628.85 512.35 638.45 503.85 638.45 491.25 638.45 477 629.4 469.6 620.25 462.15 602.8 462.15 M 593.65 467.75 Q 597.95 466.8 602.25 466.9 611.5 466.9 617.15 473.35 622.75 479.85 622.75 491.25 L 622.7 491.25 Q 622.7 502.95 616.35 509.55 609.95 516.25 598.35 516.25 591.95 516.25 590 515.2 588.1 514.15 588.1 511.1 L 588.1 478.2 Q 588.1 472.55 589.3 470.6 590.95 468.35 593.65 467.75 M 275.15 462.55 Q 269.1 463 264.5 463 259.85 463 253.8 462.55 247.45 462.15 242.4 462.15 241.25 462.15 241.25 464.1 241.25 466.05 242.4 466.05 247.05 466.45 251.6 467.95 254.35 468.75 255.95 471.15 257.2 473.2 257.2 478.2 L 257.2 545.45 Q 257.2 552.1 254.1 554.3 251.05 556.5 242.4 557.5 241.25 557.65 241.25 559.4 241.25 561.4 242.4 561.4 246.4 561.4 253.8 561 260.4 560.55 264.5 560.55 269.6 560.6 275.15 561 282.45 561.4 286.5 561.4 287.6 561.4 287.6 559.4 287.6 557.65 286.5 557.5 281.75 557.05 277.35 555.6 274.6 554.7 273 552.45 271.8 550.5 271.8 545.45 L 271.8 520.15 Q 279.55 520.9 288.6 520.9 302.85 520.9 312.5 512.35 322.15 503.85 322.15 491.25 322.15 477 313.1 469.6 303.95 462.15 286.45 462.15 281.35 462.15 275.15 462.55 M 271.8 478.2 Q 271.8 472.45 273 470.6 274.65 468.35 277.3 467.75 281.6 466.8 285.95 466.9 295.2 466.9 300.8 473.35 306.4 479.8 306.4 491.25 306.4 502.95 300 509.55 293.7 516.25 282.05 516.25 275.65 516.25 273.7 515.2 271.8 514.15 271.8 511.1 L 271.8 478.2 M 776.95 514.3 Q 776.8 512.2 777.6 510.35 778.65 509 780.05 508.55 782.5 507.75 785.2 507.5 785.85 507.5 785.85 506.35 785.85 505.25 785.2 505.25 782.5 505.25 778.85 505.5 775.3 505.8 772.85 505.8 770.4 505.8 766.85 505.5 763.15 505.25 760.45 505.25 759.8 505.25 759.8 506.35 759.8 507.5 760.45 507.5 763 507.65 765.6 508.55 767.2 509 768.1 510.35 768.95 512.25 768.8 514.3 L 768.8 552.05 Q 768.8 555.75 767.05 557.05 765.35 558.25 760.45 558.85 759.8 558.95 759.8 559.95 759.8 561.05 760.45 561.05 776.25 560.6 782 560.6 787.75 560.6 803.85 561.05 804.85 554 806.8 546.3 806.8 545.8 806.4 545.6 805.95 545.25 805.4 545.25 804.85 545.25 804.6 545.6 801.3 552.75 797.85 555.4 794.15 558.15 789.55 558 L 781.6 558 Q 776.95 558 776.95 553.3 L 776.95 514.3 M 704.55 506.4 Q 704.55 505.25 703.85 505.25 701.8 505.25 698.95 505.5 696 505.8 694.1 505.8 692.15 505.8 689.1 505.5 686.15 505.25 684.3 505.25 683.65 505.25 683.65 506.4 683.65 507.5 684.3 507.5 689.3 508.1 691.05 509.3 692.8 510.6 692.8 514.3 L 692.8 538.65 Q 692.8 558.7 677 558.7 668.6 558.7 664.85 554.1 661.15 549.55 661.15 539.6 L 661.15 514.3 Q 660.95 512.3 661.8 510.35 662.7 509 664.3 508.55 666.85 507.7 669.45 507.45 670.05 507.45 670.05 506.35 670.05 505.25 669.45 505.25 666.55 505.25 663.05 505.5 659.1 505.75 657 505.75 655.15 505.75 651.05 505.5 647.4 505.25 644.7 505.25 644.05 505.25 644.05 506.35 644.05 507.45 644.7 507.45 647.25 507.7 649.85 508.55 651.45 509 652.3 510.4 653.1 512.25 653 514.3 L 653 540.75 Q 653 550.65 659 556.55 664.95 562.3 675.75 562.3 685.15 562.3 690.35 556.25 695.45 550.1 695.45 539.45 L 695.45 514.3 Q 695.45 510.6 697.15 509.35 698.95 508.15 703.9 507.5 704.55 507.5 704.55 506.4 M 727.55 505.5 Q 723.6 505.8 721.15 505.8 718.7 505.8 714.95 505.5 711.15 505.25 708.45 505.25 707.75 505.25 707.75 506.35 707.75 507.5 708.45 507.5 710.95 507.65 713.55 508.55 715.2 509 716.05 510.35 716.9 512.25 716.8 514.3 L 716.8 552.05 Q 716.8 555.75 715 557.05 713.3 558.25 708.45 558.85 707.8 558.95 707.8 559.9 707.8 561.05 708.45 561.05 711.15 561.05 715.4 560.8 720.05 560.6 721.95 560.6 723.9 560.6 729.1 560.8 734.05 561.05 736.7 561.05 745 561.05 749.9 556.55 754.9 552.15 754.9 544.65 754.9 542.05 753.8 539.75 752.7 537.4 750.65 535.7 746.4 531.95 739.3 530.55 744.2 529.55 747.75 525.85 751.05 522.75 751.1 518.25 751.2 515.5 750 513 748.75 510.5 746.5 508.85 741.95 505.25 734.45 505.25 731.8 505.25 727.55 505.5 M 724.9 529.75 L 724.9 512.25 Q 724.9 507.95 730 507.95 L 731.6 507.95 Q 737.05 508 739.7 510.45 742.25 513 742.25 518.25 742.25 524.3 739.5 527.05 736.8 529.75 730.7 529.75 L 724.9 529.75 M 727 557.1 Q 724.9 555.7 724.9 552.1 L 724.9 532.35 733.65 532.35 Q 739.5 532.35 742.75 535.65 746.05 538.95 746.05 544.7 746.05 550.9 742.75 554.65 741.1 556.55 738.9 557.55 736.6 558.5 734.15 558.45 729.15 558.5 727 557.1 M 931.4 504.05 Q 930.6 503.95 930.25 504.7 L 911.55 550.75 Q 909.45 555.45 907.5 556.95 905.2 558.7 902.2 558.8 901.3 558.9 901.3 560.05 901.3 561 901.9 561 904.4 561 906.55 560.8 909.15 560.55 910.85 560.55 913.1 560.55 915.8 560.8 918.25 561 921.15 561 921.8 561 921.8 559.9 921.8 558.8 921.3 558.8 914.8 558.5 914.8 554.95 914.9 553 915.65 551.1 L 920.2 538.65 936.65 538.65 941.2 552.1 Q 941.9 553.75 942.05 555.5 942.1 556.3 941.65 556.95 941.25 557.6 940.5 557.9 938.15 558.85 935.35 558.85 934.85 558.85 934.85 559.95 934.85 561.05 935.55 561.05 938.2 561.05 942.05 560.8 946.05 560.6 948.05 560.6 949.85 560.6 953.2 560.8 956.7 561.05 959.45 561.05 960.15 561.05 960.15 559.9 960.05 558.9 959.35 558.85 955.75 558.5 952.95 556.5 950.25 554.15 949.15 550.75 L 932.65 504.65 Q 932.35 504.05 931.4 504.05 M 921.15 536.1 L 928.75 515.7 935.85 536.1 921.15 536.1 M 832.05 508.55 Q 834.4 507.75 837.15 507.5 837.8 507.5 837.8 506.35 837.8 505.25 837.15 505.25 834.45 505.25 830.8 505.5 827.25 505.8 824.85 505.8 822.4 505.8 818.85 505.5 815.15 505.25 812.4 505.25 811.75 505.25 811.75 506.35 811.75 507.5 812.4 507.5 814.85 507.65 817.55 508.55 819.15 509 820 510.35 820.85 512.25 820.75 514.3 L 820.75 552.05 Q 820.75 555.75 818.95 557.05 817.3 558.25 812.4 558.85 811.75 558.95 811.75 559.9 811.75 561.05 812.4 561.05 815.15 561.05 818.85 560.8 822.75 560.6 824.85 560.6 826.9 560.6 830.8 560.8 834.55 561.05 837.15 561.05 837.8 561.05 837.8 559.9 837.8 558.95 837.1 558.85 834.45 558.6 832 557.8 830.55 557.35 829.6 556 828.75 554.1 828.9 552.05 L 828.9 514.3 Q 828.75 512.25 829.6 510.35 830.55 509 832.05 508.55 M 877.5 504.1 Q 868.95 503.95 861.45 507.9 854.3 511.65 850.25 518.55 846.1 525.45 846.15 533.5 846.05 541.5 850 548.45 853.9 555.2 860.75 558.7 868.3 562.5 876.75 562.3 882.55 562.15 888.15 560.9 892.55 560.05 896.45 559.85 897.8 552.5 899.25 546.25 899.25 545.6 898.1 545.6 897.35 545.5 897 546.25 891.15 559.8 876.75 559.8 867.55 559.75 861.3 552.1 854.95 544.45 854.95 533.45 854.95 522.25 861.35 514.4 867.75 506.65 877.2 506.65 883.2 506.55 888.15 510.15 892.9 513.6 894.35 519.15 894.5 519.95 895.35 519.8 896.6 519.8 896.6 519.15 895.35 511.45 894.8 505.5 891.15 505.4 887.6 504.9 882.7 504.2 877.5 504.1 Z"/>
</g>
<g id="l2">
<path fill="#2CBEC9" stroke="none" d="M 676.35 500.3 L 674.8 499.95 Q 675.35 500.5 675.65 500.5 676.05 500.5 676.35 500.3 M 687.8 486.4 Q 687.15 486.4 686.8 486.8 L 674.75 498.15 Q 674.35 498.5 674.3 498.9 674.4 499.55 674.85 499.95 L 676.4 500.3 690.45 491.55 Q 691.25 491.1 691.15 490.1 691.15 488.75 690.15 487.7 689.3 486.5 687.8 486.4 Z"/>
</g>
<g id="l1">
<path fill="#35B8C8" stroke="none" d="M 97.2 460.5 L 97.2 449.4 63.9 449.4 63.9 574.65 97.2 574.65 97.2 563.55 77.4 563.55 77.4 460.5 97.2 460.5 M 181.35 449.4 L 181.35 460.5 200.85 460.5 200.85 563.55 181.35 563.55 181.35 574.65 214.7 574.65 214.7 449.4 181.35 449.4 Z"/>
</g>
<g id="l0">
<path fill="#26353E" stroke="none" d="M 125.45 532 L 125.45 532.3 Q 125.45 532.9 126.35 532.9 L 126.65 532.3 Q 129.35 526.6 136.25 526.6 L 146.2 526.6 124.85 553.9 124.85 554.2 Q 124.85 555.1 125.45 555.1 127.85 554.5 138.4 554.5 148.3 554.5 151.3 555.1 L 152.8 547.6 Q 152.8 547 152.2 547 L 151.6 547.3 Q 150.7 549.7 148.3 551.8 145.9 553.3 142.9 553.3 L 131.15 553.3 152.5 526 152.5 525.4 Q 152.5 524.8 151.9 524.8 L 128.15 524.8 125.45 532 M 81.6 470.7 Q 81.6 472.5 82.5 472.5 87.9 473.1 90.6 474.3 93.6 475.2 94.5 477 95.7 478.5 95.7 483 L 95.7 541.3 Q 95.7 547 93 548.8 90.6 550.9 82.5 551.8 81.6 551.8 81.6 553.3 81.6 555.1 82.5 555.1 L 92.7 554.8 Q 100.55 554.2 102.35 554.2 104.45 554.2 111.65 554.8 L 121.85 555.1 Q 122.75 555.1 122.75 553.3 122.75 551.8 121.85 551.8 L 113.75 550 Q 111.35 549.1 109.85 547.3 108.65 544.9 108.65 541.3 L 108.65 519.35 123.65 519.95 Q 136.55 519.95 145 512.45 153.7 505.25 153.7 494.45 153.7 481.8 145.6 475.5 137.45 469.2 121.85 469.2 L 82.5 469.2 Q 81.6 469.2 81.6 470.7 M 108.65 483 Q 108.65 478.8 109.85 476.4 111.05 474.9 113.75 474 115.55 473.4 121.25 473.4 129.95 473.4 134.75 478.8 139.6 484.5 139.6 494.45 139.6 504.65 133.85 510.35 128.15 516.05 117.95 516.05 112.25 516.05 110.45 515.15 108.65 514.25 108.65 511.55 L 108.65 483 M 196.65 519.65 Q 196.65 512.75 191.85 508.85 187.05 504.95 178.05 504.95 L 160.9 505.25 Q 158.8 504.95 154.9 504.95 154.3 504.95 154.3 505.85 154.3 507.05 154.9 507.05 157 507.05 159.7 507.95 161.5 508.55 162.1 509.45 162.7 511.25 162.7 513.05 L 162.7 547 Q 162.7 550 161.2 551.5 159.1 552.7 154.9 553 L 154.3 554.2 Q 154.3 555.1 154.9 555.1 158.8 555.1 160.9 554.8 L 178.05 555.1 Q 178.65 555.1 178.65 554.2 L 178.05 553 173.2 552.1 Q 172 551.8 170.8 550.6 170.2 549.4 170.2 547 L 170.2 534.4 178.95 534.7 Q 186.75 534.7 191.55 530.2 196.65 526 196.65 519.65 M 185.55 510.65 Q 188.25 513.95 188.25 519.65 188.25 525.7 184.95 529 181.65 532.3 175.65 532.3 L 171.4 531.7 Q 170.2 531.4 170.2 529.6 L 170.2 513.05 170.8 509.15 Q 172 507.95 173.2 507.95 L 177.75 507.35 Q 182.25 507.35 185.55 510.65 Z"/>
</g>
</defs>
<g transform="matrix(1,0,0,1,0,0)">
<use xlink:href="#l3"/>
</g>
<g transform="matrix(1,0,0,1,0,0)">
<use xlink:href="#l2"/>
</g>
<g transform="matrix(1,0,0,1,0,0)">
<use xlink:href="#l1"/>
</g>
<g transform="matrix(1,0,0,1,0,0)">
<use xlink:href="#l0"/>
</g>
</svg>
