<svg xmlns="http://www.w3.org/2000/svg" xmlns:xlink="http://www.w3.org/1999/xlink" width="100%" height="100%" viewBox="0 0 1024 213">
<!-- Vectorization by Rodrigo Polo https://github.com/rodrigopolo/logotipos-politicos -->
<defs>
<g id="l1">
<path fill="#0F213B" stroke="none" d="M 87.85 46.35 Q 101.05 55.9 101.05 74.9 101.05 93.35 88.35 103.15 79.05 110.35 68.65 110.35 L 68.65 45.85 67.75 45.85 36.45 75.5 36.45 204.6 37.4 204.6 68.3 175.2 68.3 123.7 Q 90.55 123.7 108.65 108.4 128.6 91.5 128.6 66.35 128.6 39 109.6 22.4 93.85 8.7 75.4 8.7 L 43.05 40.1 43.7 41.1 Q 44.75 40.5 47.7 40 53.55 38.8 63.1 38.8 77.55 38.8 87.85 46.35 M 385.05 40.6 L 384.25 40.6 362.95 61.65 362.95 117.75 326.85 42.45 326.2 42.45 300.8 67.3 300.8 180.4 301.65 180.4 323.05 159.35 323.05 106.2 359.05 180.4 359.75 180.4 385.05 155.5 385.05 40.6 M 429.65 83.2 Q 419.7 74.25 419.7 65.7 419.7 58.5 423.05 54.45 426.7 50.05 433.45 50.05 442.95 50.05 450.55 63.6 454.35 70.35 456.2 77.1 L 457.55 77.1 472.7 64.1 Q 464.9 52.1 455.6 46.25 446 40.15 434 40.15 416.9 40.15 405.65 51.3 395.35 61.55 395.35 74.9 395.35 88.5 402.7 99.25 408.55 107.7 421.65 117.75 440.5 131.9 442.6 133.9 450.7 141.6 450.7 150.5 450.7 160.15 445.65 165.05 441.35 169.25 434.05 169.25 424.75 169.25 419.2 159.95 415.3 153.35 410.15 135 L 409.1 135 393.05 150.85 394.65 155.5 Q 397.05 161 400.65 165.65 412.35 180.4 432.45 180.4 450.3 180.4 462.15 169.75 475.05 158.1 475.05 138 475.05 126.75 467.35 116 460.85 107.05 447.35 96.55 435.35 88.2 429.65 83.2 M 531.35 36.85 L 530.7 36.85 505.35 61.9 506 64.75 472.1 180.4 483.1 180.4 494.6 138.9 504.75 152.45 526.15 131.7 539.05 180.4 540.75 180.4 569 158.35 531.35 36.85 M 516.65 114.5 L 495.7 134.85 511.65 77.55 524.25 124.85 516.65 114.5 M 654.55 177.45 L 682.2 148.9 682.3 147.6 633.85 147.6 633.85 7.95 632.85 7.95 599.25 38.2 599.35 177.45 654.55 177.45 M 719.65 39.9 L 718.55 39.9 689.4 68.5 689.45 180.6 690.5 180.6 719.65 152.1 719.65 39.9 M 778.25 41.35 L 774.25 39.9 730.45 82.95 730.55 177.65 784.85 177.65 814.25 148.7 Q 811.3 134.6 800.75 124.7 790.1 114.05 775.1 111.95 L 775.3 111 Q 784.9 106.8 791.2 99.1 799.8 88.7 799.8 74.25 799.8 56.8 787.05 46.65 783.05 43.45 778.25 41.35 M 773.4 69.65 Q 778.15 76.25 777.8 84.4 777.8 96.3 769.35 103.9 766.65 106.35 763.45 108.05 L 760.85 109.25 760.85 60.7 Q 768.6 63 773.4 69.65 M 779.25 129.95 Q 785.45 139.25 785.45 147.6 L 761.15 147.6 761.15 119.8 764.8 119.8 Q 772.5 119.8 779.25 129.95 Z"/>
</g>
<g id="s2">
<path fill="#0F213B" stroke="none" d="M 9.6 -68.3 L 5.65 -70.3 -42.15 -23.3 -42.15 70.35 -41.1 70.35 -11.7 40.35 -11.7 17.2 -10.7 17.2 Q -5.8 30.9 8.15 51.95 15.1 62.5 21.1 70.3 L 22.2 70.3 42.15 41.7 Q 29.4 34 13 20.3 L -0.9 8.05 Q 10.45 4.6 18.15 -2.1 31.15 -13.35 31.15 -31.7 31.15 -49.5 18.4 -61.7 14.4 -65.5 9.6 -68.3 M -11.8 -46.8 L -9.15 -45.8 Q -5.95 -44.3 -3.35 -41.9 5.1 -34.45 5.1 -21.3 5.1 -9.45 -3.35 -1.75 -7.55 2.15 -11.8 3.6 L -11.8 -46.8 Z"/>
</g>
<g id="s3">
<path fill="#0F213B" stroke="none" d="M 42.8 -66.6 L 42.8 -67.6 -15.65 -67.6 -42.75 -40.7 -42.75 -39.7 -24.85 -39.7 -34.15 -30.6 -34.15 67.6 13.7 67.6 42.55 39.15 42.55 38.15 -3.45 38.15 -3.45 10.15 10.85 10.15 32.15 -10.9 32.15 -11.7 3.3 -11.7 -3.2 -5.3 -3.2 -39.35 15.15 -39.35 42.8 -66.6 Z"/>
</g>
</defs>
<g transform="matrix(1,0,0, 1,0,0)">
<use xlink:href="#l1"/>
</g>
<g transform="matrix(1,0,0,1,171.5,109.8)">
<g transform="matrix(1,0,0,1,0,0)">
<use xlink:href="#s2"/>
</g>
</g>
<g transform="matrix(1,0,0,1,861.95,109.8)">
<g transform="matrix(1,0,0,1,0,0)">
<use xlink:href="#s2"/>
</g>
</g>
<g transform="matrix(1,0,0,1,252.7,110.05)">
<g transform="matrix(1,0,0,1,0,0)">
<use xlink:href="#s3"/>
</g>
</g>
<g transform="matrix(1,0,0,1,944.35,110.05)">
<g transform="matrix(1,0,0,1,0,0)">
<use xlink:href="#s3"/>
</g>
</g>
</svg>
