<svg xmlns="http://www.w3.org/2000/svg" xmlns:xlink="http://www.w3.org/1999/xlink" width="100%" height="100%" viewBox="0 0 1024 1024">
<!-- Vectorization by Rodrigo Polo https://github.com/rodrigopolo/logotipos-politicos -->
<defs>
<g id="l1">
<path fill="#18254A" stroke="none" d="M 0 1024 L 1024 1024 1024 0 0 0 0 1024 Z"/>
</g>
<g id="l2">
<path fill="#FFFFFF" stroke="none" d="M 379.75 294.65 L 378 294.65 309.25 360.85 309.25 648.85 311.05 648.85 378.8 583.45 378.8 468.3 Q 427.95 468.3 467.45 434.7 511.3 397 511.3 341.3 511.3 280.05 470.05 243.1 434.9 212.3 394.4 212.3 L 323.85 281.85 324.65 284.4 Q 334.35 279.25 367.7 279.25 399.5 279.25 421.85 296.45 451.1 318 451.1 360.05 451.1 401.35 423.6 422.65 403.1 439.05 379.75 439.05 L 379.75 294.65 M 733.3 526.75 L 733.3 524.4 626.85 524.4 626.85 212.3 624.25 212.3 551.2 279.25 551.2 590.4 672.25 590.4 733.3 526.75 M 589.25 702.8 L 570.75 719.75 570.75 798.5 601.4 798.5 616.85 782.4 616.85 781.8 589.9 781.8 589.9 702.8 589.25 702.8 M 308.85 735.9 Q 308.85 720.4 298.4 711.05 289.5 703.25 279.25 703.25 L 261.4 720.85 261.6 721.5 Q 264.05 720.2 272.5 720.2 280.55 720.2 286.2 724.55 293.6 730 293.6 740.65 293.6 751.1 286.65 756.5 281.45 760.65 275.55 760.65 L 275.55 724.1 275.1 724.1 257.7 740.85 257.7 813.75 258.15 813.75 275.3 797.2 275.3 768.05 Q 287.75 768.05 297.75 759.55 308.85 750 308.85 735.9 M 637.1 720.85 L 620.75 736.95 620.75 800.25 621.45 800.25 637.55 784.15 637.55 720.85 637.1 720.85 M 532.9 719.1 L 532.45 719.1 518.3 733.25 518.75 734.75 499.85 800.25 506.15 800.25 512.45 776.75 518.1 784.4 530.05 772.65 537.25 800.25 538.1 800.25 553.8 787.85 532.9 719.1 M 524.6 763.05 L 513.1 774.35 522 742.2 528.95 768.7 524.6 763.05 M 451.5 721.3 L 451.1 721.3 439.15 733.05 439.15 764.8 419.1 722.4 418.7 722.4 404.8 736.3 404.8 800.25 405.2 800.25 416.95 788.3 416.95 758.25 436.95 800.25 437.4 800.25 451.5 786.1 451.5 721.3 M 463.1 727.4 Q 457.2 733.05 457.2 740.65 457.2 748.25 461.3 754.35 464.6 759.15 471.75 764.8 483.1 773.5 483.5 773.95 488.05 778.25 488.05 783.3 488.05 793.95 478.7 793.95 473.75 793.95 470.45 788.75 468.3 784.8 465.45 774.6 L 464.8 774.6 456.1 783.5 460.25 792 Q 466.75 800.25 477.85 800.25 487.85 800.25 494.4 794.15 501.55 787.65 501.55 776.35 501.55 765 486.15 752.85 479.4 748.05 476.35 745.25 470.65 740.2 470.65 735.45 470.65 726.5 478.5 726.5 483.75 726.5 487.85 734.15 490.05 738.05 491.15 741.75 L 491.8 741.75 500.25 734.55 Q 491.8 721.1 478.7 721.1 469.15 721.1 463.1 727.4 M 342.95 725.4 L 335.8 720.65 309.25 747.15 309.25 800.05 309.95 800.05 326.25 783.1 326.25 770 326.9 770 Q 331.25 782.4 344.5 800.05 L 345.15 800.05 356.25 783.95 Q 349.3 779.6 340.15 771.75 L 332.3 764.8 Q 350.15 759.35 350.15 742.4 350.15 732.4 342.95 725.4 M 326.25 733.9 L 331 736.5 Q 335.6 740.85 335.6 748.25 335.6 755 331 759.35 328.65 761.55 326.25 762.4 L 326.25 733.9 M 386.25 738.25 L 401.7 722.8 401.7 722.4 369.3 722.4 354.05 737.4 354.05 738.05 364.1 738.05 358.85 743.25 358.85 798.5 385.65 798.5 401.5 782.65 401.5 782 376.05 782 376.05 766.1 383.85 766.1 395.85 754.35 395.85 753.9 379.75 753.9 376.3 757.4 376.3 738.25 386.25 738.25 M 786.3 722.8 L 786.3 722.4 753.9 722.4 738.9 737.4 738.9 738.05 748.9 738.05 743.7 743.25 743.7 798.5 770.2 798.5 786.3 782.65 786.3 782 760.65 782 760.65 766.1 768.7 766.1 780.45 754.35 780.45 753.9 764.55 753.9 760.85 757.4 760.85 738.25 771.1 738.25 786.3 722.8 M 675.15 724.8 L 668 720.85 643.6 745.25 643.6 798.7 673.85 798.7 690.15 782.2 Q 689.3 775.25 682.8 768.7 678.65 764.6 673.2 762.65 L 668.4 761.55 668.65 760.9 Q 682.1 754.8 682.1 740.2 682.1 730.45 675.15 724.8 M 660.6 732.6 L 665.35 735.2 Q 669.95 739.1 669.95 745.85 669.95 752.6 665.35 756.95 L 660.6 760 660.6 732.6 M 660.8 765.9 L 662.75 765.9 Q 667.1 765.9 670.8 771.55 674.3 776.95 674.3 781.8 L 660.8 781.8 660.8 765.9 M 727.15 725.4 L 719.95 720.65 693.45 747.15 693.45 800.05 693.85 800.05 710.15 783.1 710.15 770 710.85 770 Q 715.2 782.4 728.45 800.05 L 729.1 800.05 740.2 783.95 Q 733.25 779.6 724.1 771.75 L 716.3 764.8 Q 722.55 763.05 726.95 759.15 734.1 752.85 734.1 742.4 734.1 732.4 727.15 725.4 M 710.15 733.9 L 715 736.5 Q 719.55 740.85 719.55 748.25 719.55 755 715 759.35 L 710.15 762.4 710.15 733.9 Z"/>
</g>
</defs>
<g transform="matrix(1,0,0,1,0,0)">
<use xlink:href="#l1"/>
</g>
<g transform="matrix(1,0,0,1,0,0)">
<use xlink:href="#l2"/>
</g>
</svg>
