<svg xmlns="http://www.w3.org/2000/svg" xmlns:xlink="http://www.w3.org/1999/xlink" width="100%" height="100%" viewBox="0 0 1024 236">
<!-- Vectorization by Rodrigo Polo https://github.com/rodrigopolo/logotipos-politicos -->
<defs>
<filter id="f1" x="-20%" y="-20%" width="140%" height="140%" color-interpolation-filters="sRGB">
<feColorMatrix in="SourceGraphic" type="matrix" values="0 0 0 0 0 0 0 0 0 0 0 0 0 0 0 0 0 0 1 0" result="result1"/>
</filter>
<g id="l4">
<path fill="#18254A" stroke="none" d="M 234.25 234.25 L 234.25 0 -0.05 0 -0.05 234.25 234.25 234.25 Z"/>
</g>
<g id="l1">
<path fill="#FFFFFF" stroke="none" d="M -12.25 -10.5 Q -15 -10.5 -16.55 -8.65 -18.3 -7.1 -18.3 -5 -18.3 -2.85 -17.1 -1.1 -16.2 0.3 -14.2 1.9 L -10.85 4.45 Q -9.55 5.65 -9.55 7.05 -9.55 10.15 -12.25 10.15 -13.55 10.15 -14.55 8.65 -15.15 7.6 -15.95 4.6 L -16.1 4.6 -18.6 7.15 -17.45 9.5 Q -15.6 11.9 -12.45 11.9 -9.7 11.9 -7.75 10.15 -5.75 8.3 -5.75 5.15 -5.75 1.9 -10.05 -1.55 -11.45 -2.45 -12.85 -3.65 -14.55 -5.15 -14.55 -6.45 -14.55 -8.95 -12.25 -8.95 -10.75 -8.95 -9.6 -6.8 -8.85 -5.25 -8.75 -4.6 L -8.45 -4.6 -6.1 -6.75 Q -8.55 -10.5 -12.25 -10.5 M -29.05 -10.15 L -29.15 -10.15 -33.1 -6.2 -33.1 11.9 -33 11.9 -29.65 8.45 -29.65 0.05 -24.05 11.9 -23.85 11.9 -19.9 7.85 -19.9 -10.4 -20 -10.4 -23.4 -7.1 -23.4 1.9 -29.05 -10.15 M 43.3 -9.45 L 41.25 -10.5 34.4 -3.65 34.4 11.35 42.95 11.35 47.5 6.7 Q 47.25 4.8 45.4 2.95 44.45 1.9 42.75 1.25 L 41.35 0.9 41.45 0.75 Q 45.3 -1 45.3 -5.05 45.3 -7.9 43.3 -9.45 M 41.8 -3.5 Q 41.8 -1.7 40.55 -0.3 L 39.15 0.45 39.15 -7.25 40.55 -6.45 Q 41.8 -5.4 41.8 -3.5 M 42.05 3.7 Q 43 5.2 43 6.6 L 39.25 6.6 39.25 2.15 39.75 2.15 Q 41 2.15 42.05 3.7 M 3.15 -11.05 L 2.95 -11.05 -1 -7.1 -0.9 -6.65 -6.3 11.9 -4.45 11.9 -2.65 5.2 -1.1 7.4 2.35 4.1 4.25 11.9 4.55 11.9 9 8.4 3.15 -11.05 M 2 2.95 L 0.75 1.35 -2.5 4.5 0.05 -4.55 2 2.95 M 32.55 -10.5 L 27.9 -6.05 27.9 11.9 28.15 11.9 32.65 7.35 32.65 -10.5 32.55 -10.5 Z"/>
</g>
<g id="l2">
<path fill="#FFFFFF" stroke="none" d="M 2.9 -5.1 Q 2.9 -2.2 1 -0.6 -0.5 0.65 -2.1 0.65 L -2.1 -9.75 -2.25 -9.75 -7.2 -5 -7.2 15.6 -7.1 15.6 -2.25 10.9 -2.25 2.65 Q 1.4 2.65 4.15 0.3 7.2 -2.45 7.2 -6.4 7.2 -10.8 4.3 -13.4 1.85 -15.6 -1.15 -15.6 L -6.15 -10.6 -6.05 -10.5 Q -5.15 -10.9 -3 -10.9 -0.8 -10.9 0.9 -9.65 2.9 -8.15 2.9 -5.1 Z"/>
</g>
<g id="l3">
<path fill="#FFFFFF" stroke="none" d="M -1.15 -13.5 L -1.3 -13.5 -6.5 -8.65 -6.5 13.55 2.1 13.55 6.5 9 6.5 8.8 -1.15 8.8 -1.15 -13.5 Z"/>
</g>
<g id="l5">
<path fill="#FFFFFF" stroke="none" d="M 4.9 -5.05 Q 4.9 -7.95 2.9 -9.9 L 0.85 -11.2 -6.6 -3.75 -6.6 11.2 -6.45 11.2 -1.75 6.4 -1.75 2.7 -1.7 2.7 Q -0.35 6.2 3.3 11.2 L 3.5 11.2 6.65 6.65 Q 4.65 5.5 2.1 3.2 L -0.1 1.3 Q 4.9 -0.3 4.9 -5.05 M -1.75 -7.4 L -0.45 -6.7 Q 0.85 -5.5 0.85 -3.4 0.85 -1.45 -0.45 -0.3 -1.05 0.3 -1.75 0.6 L -1.75 -7.4 Z"/>
</g>
<g id="l6">
<path fill="#FFFFFF" stroke="none" d="M 5.05 -1.9 L 0.6 -1.9 -0.45 -0.85 -0.45 -6.3 2.35 -6.3 6.75 -10.6 6.75 -10.75 -2.4 -10.75 -6.7 -6.45 -6.7 -6.3 -3.9 -6.3 -5.4 -4.85 -5.4 10.75 2.15 10.75 6.75 6.3 6.75 6.1 -0.55 6.1 -0.55 1.65 1.75 1.65 5.05 -1.7 5.05 -1.9 Z"/>
</g>
</defs>
<g transform="matrix(1,0,0,1,0,0)">
<use xlink:href="#l4"/>
</g>
<g transform="matrix(1,0,0,1,119.95,186.7)">
<g transform="matrix(1,0,0,1,0,0)">
<use xlink:href="#l1"/>
</g>
<g transform="matrix(1,0,0,1,-67.45,0.1)">
<g transform="matrix(1,0,0,1,0,0)">
<use xlink:href="#l2"/>
</g>
</g>
<g transform="matrix(1,0,0,1,20.35,-2.2)">
<g transform="matrix(1,0,0,1,0,0)">
<use xlink:href="#l3"/>
</g>
</g>
<g transform="matrix(1,0,0,1,-53.45,0.6)">
<g transform="matrix(1,0,0,1,0,0)">
<use xlink:href="#l5"/>
</g>
</g>
<g transform="matrix(1,0,0,1,55.05,0.6)">
<g transform="matrix(1,0,0,1,0,0)">
<use xlink:href="#l5"/>
</g>
</g>
<g transform="matrix(1,0,0,1,-40.7,0.6)">
<g transform="matrix(1,0,0,1,0,0)">
<use xlink:href="#l6"/>
</g>
</g>
<g transform="matrix(1,0,0,1,67.95,0.6)">
<g transform="matrix(1,0,0,1,0,0)">
<use xlink:href="#l6"/>
</g>
</g>
</g>
<g transform="matrix(3.906829833984375,0,0,3.906829833984375,88.65,93.9)">
<g transform="matrix(1,0,0,1,0,0)">
<use xlink:href="#l2"/>
</g>
</g>
<g transform="matrix(3.906829833984375,0,0,3.906829833984375,153.65,86.35)">
<g transform="matrix(1,0,0,1,0,0)">
<use xlink:href="#l3"/>
</g>
</g>
<g transform="matrix(5.115631103515625,0,0,5.115631103515625,641.4,116.55)">
<g transform="matrix(1,0,0,1,0,0)">
<use filter="url(#f1)" xlink:href="#l1"/>
</g>
<g transform="matrix(1,0,0,1,-67.45,0.1)">
<g transform="matrix(1,0,0,1,0,0)">
<use filter="url(#f1)" xlink:href="#l2"/>
</g>
</g>
<g transform="matrix(1,0,0,1,20.35,-2.2)">
<g transform="matrix(1,0,0,1,0,0)">
<use filter="url(#f1)" xlink:href="#l3"/>
</g>
</g>
<g transform="matrix(1,0,0,1,-53.45,0.6)">
<g transform="matrix(1,0,0,1,0,0)">
<use filter="url(#f1)" xlink:href="#l5"/>
</g>
</g>
<g transform="matrix(1,0,0,1,55.05,0.6)">
<g transform="matrix(1,0,0,1,0,0)">
<use filter="url(#f1)" xlink:href="#l5"/>
</g>
</g>
<g transform="matrix(1,0,0,1,-40.7,0.6)">
<g transform="matrix(1,0,0,1,0,0)">
<use filter="url(#f1)" xlink:href="#l6"/>
</g>
</g>
<g transform="matrix(1,0,0,1,67.95,0.6)">
<g transform="matrix(1,0,0,1,0,0)">
<use filter="url(#f1)" xlink:href="#l6"/>
</g>
</g>
</g>
</svg>
