<svg xmlns="http://www.w3.org/2000/svg" xmlns:xlink="http://www.w3.org/1999/xlink" width="100%" height="100%" viewBox="0 0 1024 216">
<!-- Vectorization by Rodrigo Polo https://github.com/rodrigopolo/logotipos-politicos -->
<defs>
<g id="l0">
<path fill="#279655" stroke="none" d="M 397.45 52.7 L 375.55 52.7 375.55 169.9 397.45 169.9 397.45 52.7 M 358.05 2.65 L 336.3 2.65 336.3 170.4 358.05 170.4 358.05 2.65 M 399.2 17.95 Q 399.2 12.9 395.7 9.1 392.6 5.8 388.25 5.3 383.75 4.75 380.1 7.2 376.25 9.6 374.85 13.95 373.5 18.15 375.2 22.3 376.8 26.3 380.6 28.55 384.6 30.8 388.95 29.95 393.3 29.25 396.25 25.75 399 22.3 399.2 17.95 M 600.25 64.15 Q 588.1 50.1 568.3 50.1 548.35 50.1 533.9 66.2 518.1 83.75 518.1 111.55 518.1 138.3 534.1 155.8 549.55 172.65 572.1 172.65 588.6 173.2 602.15 165.35 L 602.35 165.35 Q 605.3 163.3 606.85 160.35 L 606.85 142.3 Q 593.5 154.1 575.25 153.75 558.95 153.75 549.2 141.4 540.85 130.8 540.35 116.4 L 610.15 116.4 Q 611.7 106.7 611.9 99.75 L 611.9 94.55 Q 611.35 76.65 600.25 64.15 M 590.7 94.9 Q 590.7 97.5 590.35 98.7 L 590.35 98.85 541.55 98.85 Q 543.45 86.2 551.65 77.35 559.8 68.5 569.35 68.5 578.7 68.5 584.95 77 590.7 84.8 590.7 94.9 M 979.15 32 Q 973.4 37.75 973.4 45.75 973.4 54.05 979.15 59.8 985.2 65.55 993.2 65.55 1001.35 65.35 1006.9 59.65 1012.65 53.9 1012.65 45.75 1012.65 37.75 1006.9 32 1001.2 26.3 993 26.3 984.85 26.3 979.15 32 M 979.15 37.55 Q 981.2 33.75 985.05 31.5 988.85 29.25 993.2 29.25 997.55 29.25 1001.2 31.5 1005 33.75 1007.1 37.55 1009.15 41.4 1009 45.75 1009.15 50.25 1007.1 54.05 1005 57.9 1001.2 60.15 997.55 62.4 993.2 62.4 988.85 62.4 985.05 60.15 981.2 57.9 979.15 54.05 977.2 50.25 977.4 45.75 977.2 41.4 979.15 37.55 M 996.3 47.3 Q 999.1 46.95 1000.5 45.4 1002.4 43.5 1002.05 41.05 1002.05 34.6 994.25 34.6 L 985.75 34.6 985.75 57.2 989.2 57.2 989.05 47.3 993 47.3 998.9 57.2 1002.75 57.2 996.3 47.3 M 989.05 44.5 L 989.05 37.25 993.9 37.25 Q 998.6 37.25 998.6 40.7 998.6 43.15 997 44 995.8 44.5 993.2 44.5 L 989.05 44.5 M 986.4 88.8 Q 982.1 77.5 973.55 68.85 965.05 60.3 953.95 55.45 942.85 50.75 930.85 50.6 918.7 50.75 907.6 55.45 896.5 60.15 887.95 68.85 879.45 77.5 875.1 88.8 870.8 99.9 870.95 112.05 870.6 128.4 878.4 142.65 886.4 156.85 900.45 165.2 914.55 173.35 930.85 173.35 947 173.35 961.05 165.2 975.15 156.85 983.1 142.65 990.95 128.4 990.6 112.05 990.95 99.9 986.4 88.8 M 923.9 60.65 L 926.5 60.15 926.5 82.9 Q 919.75 82.2 912.95 79.75 917.5 69.35 923.9 60.65 M 891.95 78.4 Q 897.15 81.7 903.1 84.3 898.75 95.4 897.7 108.05 L 880.35 108.05 Q 881.2 91.4 891.95 78.4 M 905.7 76.8 L 897.7 72.5 Q 903.95 66.9 912.3 63.8 909.15 68.65 905.7 76.8 M 910.2 87.25 Q 918.35 90.2 926.5 91.25 L 926.5 108.05 905.7 108.05 Q 906.55 97.3 910.2 87.25 M 963.35 72.3 L 963.5 72.5 Q 961.95 73.5 955.7 76.8 952.55 69.5 948.75 63.6 956.75 66.4 963.35 72.3 M 934.85 60.3 L 937.45 60.65 Q 944.25 69.85 948.2 79.95 941.3 82.2 934.85 82.9 L 934.85 60.3 M 934.85 91.6 Q 943.7 90.35 950.85 87.25 954.3 96.45 955.5 108.05 L 934.7 108.05 934.85 91.6 M 958.1 84.45 Q 963.35 82.05 969.05 78.4 980 91.25 981.05 108.05 L 963.5 108.05 Q 962.45 96.45 958.1 84.45 M 951.15 137.25 Q 943.35 134.1 934.85 133.1 L 934.85 116.4 955.7 116.4 Q 954.65 126.65 951.15 137.25 M 934.85 141.25 Q 941.1 141.95 948.05 144.2 944.55 153.55 937.65 163.65 L 937.45 163.8 934.85 164.15 934.85 141.25 M 969.6 146.1 Q 963.5 142.3 958.65 140 963 128.05 964 116.4 L 981.4 116.4 Q 980.35 133.1 969.6 145.9 L 969.6 146.1 M 926.5 132.9 Q 918 133.95 910.55 137.05 906.9 127 905.85 116.25 L 926.7 116.25 926.5 132.9 M 913.3 144.35 Q 920.25 142.1 926.7 141.4 L 926.5 164.15 923.9 163.8 Q 917.85 155.3 913.3 144.35 M 897.7 116.4 Q 898.75 128.9 903.1 140 897.85 142.45 892.15 146.1 881.35 132.9 880.5 116.4 L 897.7 116.4 M 912.45 160.85 Q 903.75 157.55 897.85 151.85 902.05 149.2 905.85 147.5 908.45 154.45 912.45 160.85 M 963.65 151.85 Q 957.25 157.55 949.1 160.7 L 948.75 160.7 Q 952.55 154.95 955.7 147.3 959.15 148.9 963.65 151.85 M 812.95 73.35 Q 818.15 68.15 828.05 68.15 840.75 68.15 852.2 72.15 L 854.8 55.3 Q 841.45 51.1 828.4 51.1 808.6 51.1 797.5 60.85 786.55 70.2 786.55 86.55 786.55 99.55 794.75 107.55 801.5 114.15 816.95 119.55 829.1 123.7 833.95 127.5 839.5 131.7 839.5 138.45 839.5 146.8 833.45 151.3 827.7 155.45 817.65 155.45 803.6 155.45 788.3 150.25 L 785.2 168.15 Q 800.65 172.65 816.8 172.65 837.45 172.65 849.6 162.95 861.9 153.05 861.9 136.35 861.9 123.35 853.75 115.55 846.8 108.75 831.2 103.55 818.35 98.85 813.85 95.4 808.45 91.25 808.45 84.45 808.45 77.85 812.95 73.35 M 784.15 53.9 L 763.65 53.9 Q 754.95 94.2 738.45 148 L 737.95 148 710.85 53.9 688.8 53.9 662.4 148 662.05 148 Q 646.8 100.6 636.7 53.9 L 614.65 53.9 Q 628.75 114 649.2 170.05 L 673.55 170.05 698.55 81.35 699.05 81.35 725.1 170.05 748.2 170.05 Q 770.95 107.55 784.15 53.9 M 509.45 97.5 Q 509.45 76.3 500.6 64.5 490.35 51.1 469.5 51.1 457.35 51.1 447.95 55.8 439.3 60.3 429.4 70.75 L 426.6 53.9 410.45 53.9 410.45 170.05 431.65 170.05 431.65 88.45 Q 441.2 78.05 447.6 74.05 455.6 69 465.35 69 488.25 69 488.25 101.8 L 488.25 170.05 509.45 170.05 509.45 97.5 M 270.15 50.1 Q 259.05 50.1 252.8 53.7 L 252.8 2.5 231.1 2.5 231.1 161.2 Q 247.25 173 267.05 172.5 292.55 172.5 308.55 155.45 324.7 138.3 324.7 110.7 324.7 84.1 308.2 66.75 292.55 50.1 270.15 50.1 M 252.65 74.2 Q 260.6 68.15 270 69 283 69 292.9 80.45 303.15 92.6 303.15 110.7 L 303 110.7 Q 303 129.8 293.25 141.75 283.35 153.75 267.05 153.75 259.4 154.1 252.65 150.6 L 252.65 74.2 M 214.95 52.7 L 193.4 52.7 193.4 131 Q 193.75 140.9 186.65 147.65 179.55 154.45 169.8 153.9 158.7 153.9 152.6 146.95 147.4 140.7 147.4 131 L 147.4 52.7 126.05 52.7 126.05 133.6 Q 126.05 151.3 136.8 162.05 147.25 172.65 164.25 172.65 175.35 172.65 182.85 169.2 189.25 166.25 195.15 159.1 L 195.85 170.05 214.95 170.05 214.95 52.7 M 29 52.7 L 11.1 52.7 11.1 213.3 32.45 213.3 32.45 166.4 Q 43.75 173 56.75 172.65 80.05 172.65 94.95 155.45 110.05 138.3 110.05 111.55 L 109.9 111.55 Q 109.9 83.6 93.6 65.9 79 50.1 60.05 50.1 50.15 50.1 42.2 53.05 34.35 56 29.85 61.2 L 29 52.7 M 56.75 69 Q 69.95 69 79 81 88 92.95 88 111.55 88 129.95 79 141.95 69.95 153.75 56.75 153.75 42.7 154.1 32.45 144.35 L 32.45 78.55 Q 42.55 69 56.75 69 Z"/>
</g>
</defs>
<g transform="matrix(1,0,0,1,0,0)">
<use xlink:href="#l0"/>
</g>
</svg>
