<svg xmlns="http://www.w3.org/2000/svg" xmlns:xlink="http://www.w3.org/1999/xlink" width="100%" height="100%" viewBox="0 0 1024 284">
<!-- Vectorization by Rodrigo Polo https://github.com/rodrigopolo/logotipos-politicos -->
<defs>
<g id="l1">
<path fill="#EC3423" stroke="none" d="M 1597.95 382.95 L 1597.95 382.9 Q 1597.95 310 1546.4 258.45 1494.9 206.95 1422 206.95 L 500.95 206.95 Q 428.05 206.95 376.5 258.45 325 310 325 382.9 L 325 382.95 Q 325 455.85 376.5 507.35 428.05 558.9 500.95 558.9 L 1422 558.9 Q 1494.9 558.9 1546.4 507.35 1597.95 455.85 1597.95 382.95 Z"/>
</g>
<g id="l0">
<path fill="#FFFFFF" stroke="none" d="M 409.6 62.25 L 359.2 62.25 274 175.75 204.3 175.75 241.75 62.25 189.35 62.25 137 220.95 295.75 220.95 310.5 200.05 365.65 200.05 368.05 220.95 424.5 220.95 409.6 62.25 M 363.2 125.6 L 365.8 162.45 337.15 162.45 363.2 125.6 M 608.25 77.2 Q 597.4 62.9 570.85 62.3 L 478.4 62.25 427.15 220.95 481.05 220.95 495.55 175.9 506.9 175.9 522.45 220.95 583.75 220.95 563.75 167.5 Q 582.25 160.1 594.15 148.35 606.6 136.15 611.5 119.55 619.65 92.2 608.25 77.2 M 556.9 120.85 Q 550.4 137.6 533.1 137 L 508.15 137 518.1 106.15 543.05 106.15 Q 560.8 107.15 556.9 120.85 M 870.95 76.95 Q 862.95 69.8 852.3 65.95 842.05 62.2 831.45 62.25 L 803.55 62.25 750.3 62.25 736.15 105.6 661.65 105.55 656.4 121.55 730.95 121.6 718.25 160.55 643.7 160.45 638.15 177.4 712.7 177.45 698.5 220.95 769.6 220.95 Q 813.25 220.1 841.2 199.6 850.8 192.55 858.45 183.4 866.3 174.1 872.8 161.75 878.45 151.1 881.7 141.6 885.45 130.8 886.6 120.3 889.55 93.7 870.95 76.95 M 822.4 115.35 Q 832.65 122.5 828.55 136.95 822.85 156.95 807.55 166.7 792.05 176.6 766.85 175.7 L 788.4 108.75 Q 812.25 108.25 822.4 115.35 Z"/>
</g>
</defs>
<g transform="matrix(0.728973388671875,0,0,0.728973388671875,-188.9,-137.15)">
<use xlink:href="#l1"/>
</g>
<g transform="matrix(1,0,0,1,0,0)">
<use xlink:href="#l0"/>
</g>
</svg>
