<svg xmlns="http://www.w3.org/2000/svg" xmlns:xlink="http://www.w3.org/1999/xlink" width="100%" height="100%" viewBox="0 0 1024 557">
<!-- Vectorization by Rodrigo Polo https://github.com/rodrigopolo/logotipos-politicos -->
<defs>
<g id="l1">
<path fill="#222222" stroke="none" d="M 356.45 491.55 L 356.45 464.1 381.1 464.1 381.1 451.6 342.4 451.6 342.4 545.75 381.45 545.75 381.45 533.35 356.45 533.35 356.45 503.75 377.65 503.75 377.65 491.55 356.45 491.55 M 550.7 469.45 Q 550.7 461.25 545.9 456.5 541.05 451.6 532.55 451.6 L 503.85 451.6 503.85 545.75 532.55 545.75 Q 541.15 545.75 545.9 540.95 550.7 536.15 550.7 527.95 L 550.7 469.45 M 528.35 463.7 Q 536.65 463.7 536.65 471.6 L 536.65 525.6 Q 536.65 533.65 527.95 533.65 L 517.9 533.65 517.9 463.7 528.35 463.7 M 175.6 451.6 L 162.35 451.6 162.35 545.75 175.8 545.75 175.8 499.35 Q 175.8 496.15 175 489.1 L 187.25 537.15 194.35 537.15 206.55 489.1 Q 205.7 495.75 205.7 499.35 L 205.7 545.75 219.25 545.75 219.25 451.6 205.9 451.6 191.15 503.65 Q 190.95 504.25 190.75 507.95 L 190.45 503.65 175.6 451.6 M 689 451.6 L 674.9 451.6 674.9 545.75 689 545.75 689 451.6 M 841.9 451.5 L 827.05 451.5 808.9 545.55 808.9 545.75 822.8 545.75 825.6 527.85 843.2 527.85 846 545.75 860 545.75 860 545.55 841.9 451.5 M 841.25 515.75 L 827.45 515.75 834.4 473.3 841.25 515.75 Z"/>
</g>
<g id="l0">
<path fill="#C30000" stroke="none" d="M 227.05 71.5 Q 228.85 71.5 230.6 71.6 251.2 72.8 266.05 87.65 280.9 102.5 282.05 123.1 282.15 124.85 282.15 126.6 282.15 128.35 282.05 130.1 280.9 150.7 266.05 165.55 251.7 179.9 232.05 181.5 229.6 181.7 227.05 181.7 224.55 181.7 222.2 181.5 L 151.2 181.5 151.2 230.9 278.65 412.15 354.7 412.15 235.55 242.7 Q 278.35 240 309.3 208.95 343.3 175.05 343.3 126.8 343.3 78.75 309.3 44.75 277.95 13.3 234.4 11 L 19.95 11 19.95 241.85 81.45 241.85 81.45 71.6 223.55 71.6 Q 225.3 71.5 227.05 71.5 M 659.8 298.4 Q 654.6 304.75 648.55 310.8 608.8 350.55 553.05 351.8 L 545.75 351.8 Q 489.95 350.55 450.1 310.8 410.35 270.95 409.2 215.2 L 409.2 207.95 Q 410.35 152.2 450.1 112.35 489.95 72.6 545.75 71.35 L 553.05 71.35 Q 601.4 72.4 637.6 102.4 L 637.6 30.7 Q 599.85 12.05 554.7 11.05 L 544.35 11.05 Q 464.55 12.85 407.65 69.65 350.8 126.6 349.05 206.4 L 349.05 216.75 Q 350.8 296.5 407.65 353.35 464.55 410.3 544.35 412.15 L 554.7 412.15 Q 634.5 410.3 691.35 353.35 693.85 350.8 696.3 348.3 L 659.8 298.4 M 739.55 16.25 L 736.55 11 678.05 11 678.05 241.75 739.55 241.75 739.55 120.05 944.35 412.15 1004.1 412.15 1004.1 11 942.6 11 942.6 304.75 739.55 16.25 Z"/>
</g>
</defs>
<g transform="matrix(1,0,0,1,0,0)">
<use xlink:href="#l1"/>
</g>
<g transform="matrix(1,0,0,1,0,0)">
<use xlink:href="#l0"/>
</g>
</svg>
