<svg xmlns="http://www.w3.org/2000/svg" xmlns:xlink="http://www.w3.org/1999/xlink" width="100%" height="100%" viewBox="0 0 1024 278">
<!-- Vectorization by Rodrigo Polo https://github.com/rodrigopolo/logotipos-politicos -->
<defs>
<g id="l2">
<path fill="#000000" stroke="none" d="M 1024.05 278.05 L 1024.05 0.05 0.05 0.05 0.05 278.05 1024.05 278.05 Z"/>
</g>
<g id="l1">
<path fill="#325EA9" stroke="none" d="M 968.7 179.95 Q 968.7 171.55 962.7 165.5 957 159.5 948.55 159.5 940.15 159.5 934.45 165.5 928.5 171.55 928.5 179.95 928.5 188.05 934.45 194.1 940.15 199.7 948.55 199.7 957 199.7 962.7 194.1 968.7 188.05 968.7 179.95 Z"/>
</g>
<g id="l0">
<path fill="#FFFFFF" stroke="none" d="M 194.25 100.6 Q 178.95 117.15 178.95 142.05 178.95 168.2 193.7 184.7 209.35 201.55 235.75 201.9 256.5 201.9 270.3 191.05 282.95 181.1 286.2 165.2 L 257.4 165.2 Q 251.4 179 235.75 179 211.45 179 207.55 151.1 L 288.4 151.1 Q 288.4 120.4 274.5 102.7 260.1 84.05 233.65 84.05 209.6 84.05 194.25 100.6 M 208.4 130.9 Q 211.7 106.9 234.25 106.9 244.15 106.9 250.8 113.85 257.4 120.4 257.7 130.9 L 208.4 130.9 M 176 86.15 Q 176 67 162.1 54.9 148.25 42.9 126.1 42.9 L 55.15 42.9 55.15 198 86.15 198 86.15 135.5 111.65 135.5 Q 140.5 135.5 142.3 161.9 143.8 182.9 144.1 185.65 145.3 196.75 147.7 198 L 177.7 198 177.7 196.2 Q 174.45 195 173.25 183.3 172.35 166.35 171.2 155.55 169.95 141.8 164.25 134.55 158.85 127.35 147.7 124.05 L 147.7 123.45 Q 176 115.6 176 86.15 M 86.15 68.7 L 121.3 68.7 Q 133.3 68.7 139.55 74.8 145.6 80.45 145.6 90.4 145.6 99.65 139.3 105.4 132.4 111.4 119.75 111.4 L 86.15 111.4 86.15 68.7 M 403.15 142.95 Q 403.15 116.5 390.2 100.6 376.95 84.05 355.1 84.05 335.25 84.05 322.6 100.9 L 322 100.9 322 87.05 293.2 87.05 293.2 235.2 322.6 235.2 322.6 186.25 323.15 186.25 Q 333.1 201.9 355.1 201.9 376.7 201.9 389.95 185.95 403.15 170 403.15 142.95 M 349.1 177.15 Q 336.2 177.15 328.9 168.2 322 159.2 322 143.55 322 107.5 347.85 107.5 373.7 107.5 373.7 143.55 373.7 159.2 367.05 168.2 360.45 176.9 349.1 177.15 M 446.1 73 L 469.25 73 492.35 42.6 458.1 42.6 446.1 73 M 437.1 87.05 L 407.7 87.05 407.7 160.7 Q 407.7 179.4 417.9 190.2 428.15 201 446.1 201 457.2 201 465 196.75 471.6 193.15 478.3 184.7 L 478.9 184.7 478.9 198 507.45 198 507.45 87.05 478 87.05 478 151.1 Q 478 162.45 472.3 169.4 466.25 176.3 455.75 176.3 437.1 176.3 437.1 155.9 L 437.1 87.05 M 547.4 42.9 L 518 42.9 518 198 546.15 198 546.75 184.1 Q 557.6 201.55 580.1 201.9 601.2 201.9 614.1 185.95 627 169.75 627 142.95 627 116.85 613.45 100.6 600.3 84.05 578.95 84.05 558.2 84.05 547.95 99.95 L 547.4 99.95 547.4 42.9 M 545.85 143.55 Q 545.85 127.35 551.9 118.3 558.75 108.15 572.05 108.15 583.75 108.15 590.05 118 596.35 127.35 596.35 142.95 596.35 158.95 590.35 167.9 584 176.9 572.35 177.15 560.3 177.15 553.15 168.2 545.85 158.95 545.85 143.55 M 661.65 198 L 661.65 42.9 632.1 42.9 632.1 198 661.65 198 M 701.55 87.05 L 672.05 87.05 672.05 198 701.55 198 701.55 87.05 M 701.55 69.65 L 701.55 42.9 672.05 42.9 672.05 69.65 701.55 69.65 M 797.05 95.5 Q 783.55 84.05 762.3 84.05 737.6 84.05 722.3 101.2 707.2 117.7 707.2 142.95 707.2 168.45 722.3 184.7 737.9 201.25 763.45 201 784.85 201 798.9 188.35 811.8 176.6 813.35 158.3 L 785.1 158.3 Q 782.35 176.9 762.85 176.9 749.65 176.9 743.05 167.3 736.4 158.3 736.4 142.05 736.4 126.15 743.3 117.15 750.2 107.5 763.45 107.5 771.25 107.5 777 112.6 782.35 117.4 783.9 124.95 L 812.7 124.95 Q 810.35 106.35 797.05 95.5 M 867.4 83.8 Q 844.3 83.8 831.35 94.85 820 104.8 819.35 120.4 L 845.8 120.4 Q 847.6 104.8 867.4 104.8 886.05 104.8 886.05 118 886.05 124.05 879.5 126.75 874.3 128.55 859.05 130.65 837.95 133.7 827.45 140.85 814.55 149.55 814.55 166.75 814.55 182.9 825.6 192.3 835.85 201 853.6 201 866.85 201 875.25 196.75 881.55 193.15 886.65 185.95 888.45 196.2 890.55 198 L 917.9 198 917.9 196.75 Q 914.3 193.15 914.3 181.1 L 914.3 124.7 Q 914.3 83.8 867.4 83.8 M 844.3 166.1 Q 844.3 158.95 850 155.3 854.8 152.05 867.15 148.95 883.95 144.2 887.6 142.05 L 887.6 158.95 Q 887.6 167.65 880.7 173.65 873.15 179.95 861.4 179.95 844.3 179.95 844.3 166.1 Z"/>
</g>
</defs>
<g transform="matrix(1,0,0,1,0,0)">
<use xlink:href="#l2"/>
</g>
<g transform="matrix(1,0,0,1,0,0)">
<use xlink:href="#l1"/>
</g>
<g transform="matrix(1,0,0,1,0,0)">
<use xlink:href="#l0"/>
</g>
</svg>
