<svg xmlns="http://www.w3.org/2000/svg" viewBox="0 0 425.1 57.4">
<!-- Vectorization by Rodrigo Polo https://github.com/rodrigopolo/logotipos-politicos -->
<defs>
<style>
.cls-1 {fill: #000000;}
.st0 {fill: #727dfe;}
</style>
</defs>
<g>
<path class="cls-1" d="M17.9,53.2H1.8A1.3,1.3,0,0,1,.3,51.7V47.4c0-.9.5-1.4,1.5-1.4H16.5c3.8,0,5.7-1.3,5.7-4V41c0-2.4-1.3-4.1-4.1-5.4L8.5,31.1A19.5,19.5,0,0,1,2,26.4a10.7,10.7,0,0,1-2-6.7C0,12.2,4.2,8.4,12.6,8.4H27.2c.9,0,1.4.5,1.4,1.5v4.3c0,1-.5,1.5-1.4,1.5H14.3a7.4,7.4,0,0,0-4,.9A2.6,2.6,0,0,0,8.9,19v1c0,1.9,1.5,3.5,4.5,4.9L23,29.8q4.7,2.1,6.3,4.8A13,13,0,0,1,31,41.8c0,7.6-4.3,11.4-13.1,11.4" transform="translate(0 0)"/>
<path class="cls-1" d="M51.9,53.2H48.5c-4.3,0-7.7-1.2-10-3.6s-3.6-5.7-3.6-10V22c0-4.3,1.2-7.7,3.6-10.1s5.7-3.5,10-3.5H68.2c1.1,0,1.6.5,1.6,1.5V51.7c0,1-.5,1.5-1.6,1.5H62.7a1.3,1.3,0,0,1-1.5-1.5V48.5h-.4c-1.4,3.2-4.3,4.7-8.9,4.7m9.3-14.9V16.7c0-.6-.3-.9-1-.9H49.7q-6.3,0-6.3,6.6V39.2c0,4.4,2.1,6.5,6.3,6.5H54c4.8,0,7.2-2.5,7.2-7.4" transform="translate(0 0)"/>
<path class="cls-1" d="M83.8,53.2H78.3a1.3,1.3,0,0,1-1.5-1.5V1.5A1.3,1.3,0,0,1,78.3,0h5.5a1.3,1.3,0,0,1,1.5,1.5V51.7a1.3,1.3,0,0,1-1.5,1.5" transform="translate(0 0)"/>
<path class="cls-1" d="M109.1,53.2h-4c-4.2,0-7.4-1.2-9.7-3.6S92,43.9,92,39.6V9.9a1.3,1.3,0,0,1,1.5-1.5h5.6c1,0,1.4.5,1.4,1.5V39.2c0,4.4,2.2,6.5,6.4,6.5h4.2c4.8,0,7.2-2.5,7.2-7.4V9.9a1.3,1.3,0,0,1,1.5-1.5h5.5c1.1,0,1.6.5,1.6,1.5V51.7c0,1-.5,1.5-1.6,1.5h-5.5a1.3,1.3,0,0,1-1.5-1.5V48.5H118c-1.5,3.2-4.4,4.7-8.9,4.7" transform="translate(0 0)"/>
<path class="cls-1" d="M150.2,53.2h-4.5c-4.2,0-7.4-1.2-9.7-3.6s-3.4-5.7-3.4-10V22c0-4.4,1.2-7.8,3.4-10.1s5.5-3.5,9.7-3.5h4.5c4.5,0,7.4,1.5,8.8,4.6h.3V1.5A1.3,1.3,0,0,1,160.8,0h5.7A1.3,1.3,0,0,1,168,1.5V51.7a1.3,1.3,0,0,1-1.5,1.5h-5.7a1.3,1.3,0,0,1-1.5-1.5V48.5H159c-1.4,3.2-4.3,4.7-8.8,4.7m9.1-14.9v-15q0-7.5-7.2-7.5h-4.6q-6.3,0-6.3,6.6V39.2c0,4.4,2.1,6.5,6.3,6.5h4.6c4.8,0,7.2-2.5,7.2-7.4" transform="translate(0 0)"/>
<path class="st0" d="M202.9,47.2v4.6c0,.9-.6,1.4-1.6,1.4H188.4c-4.4,0-7.7-1.2-10.1-3.6s-3.6-5.7-3.6-10V22c0-4.3,1.2-7.7,3.6-10.1s5.7-3.5,10.1-3.5h12.9a1.4,1.4,0,0,1,1.6,1.5v4.5a1.4,1.4,0,0,1-1.6,1.5H189.6c-4.2,0-6.3,2.1-6.3,6.5V39.2c0,4.4,2.1,6.5,6.3,6.5h11.7a1.4,1.4,0,0,1,1.6,1.5" transform="translate(0 0)"/>
<path class="st0" d="M227.3,53.2h-7.7c-4.4,0-7.7-1.2-10.1-3.6s-3.6-5.7-3.6-10V22c0-4.3,1.2-7.7,3.6-10.1s5.7-3.5,10.1-3.5h7.7c4.3,0,7.6,1.2,10.1,3.5S241,17.7,241,22V39.6c0,4.3-1.2,7.6-3.6,10s-5.8,3.6-10.1,3.6m-6.5-7.5h5.4c4.2,0,6.3-2.1,6.3-6.4v-17c0-4.3-2.1-6.4-6.3-6.4h-5.4q-3.3,0-4.8,1.5c-1,1-1.5,2.6-1.5,4.9v17c0,2.2.5,3.9,1.5,4.9s2.6,1.5,4.8,1.5" transform="translate(0 0)"/>
<path class="st0" d="M253.8,53.2h-5.6a1.3,1.3,0,0,1-1.5-1.5V9.9a1.3,1.3,0,0,1,1.5-1.5h5.6c.9,0,1.4.5,1.4,1.5V13h.4c1.4-3.1,4.4-4.6,8.9-4.6h3.8c4.3,0,7.6,1.2,9.9,3.5s3.4,5.7,3.4,10.1V51.7c0,1-.5,1.5-1.6,1.5h-5.5a1.3,1.3,0,0,1-1.5-1.5V22.4c0-4.4-2.1-6.6-6.4-6.6h-4.1c-4.9,0-7.3,2.5-7.3,7.5V51.7c0,1-.5,1.5-1.4,1.5" transform="translate(0 0)"/>
<path class="st0" d="M296.9,53.2h-5.5a1.3,1.3,0,0,1-1.5-1.5V1.5A1.3,1.3,0,0,1,291.4,0h5.5a1.3,1.3,0,0,1,1.5,1.5V51.7a1.3,1.3,0,0,1-1.5,1.5" transform="translate(0 0)"/>
<path class="st0" d="M322.1,53.2h-3.9c-4.2,0-7.5-1.2-9.7-3.6s-3.4-5.7-3.4-10V9.9a1.3,1.3,0,0,1,1.5-1.5h5.5a1.3,1.3,0,0,1,1.5,1.5V39.2c0,4.4,2.1,6.5,6.3,6.5h4.3c4.8,0,7.2-2.5,7.2-7.4V9.9a1.3,1.3,0,0,1,1.5-1.5h5.5c1.1,0,1.6.5,1.6,1.5V51.7c0,1-.5,1.5-1.6,1.5h-5.5a1.3,1.3,0,0,1-1.5-1.5V48.5H331c-1.4,3.2-4.4,4.7-8.9,4.7" transform="translate(0 0)"/>
<path class="st0" d="M353.6,57.4h-5.5a1.3,1.3,0,0,1-1.5-1.5V9.9a1.3,1.3,0,0,1,1.5-1.5h5.5a1.3,1.3,0,0,1,1.5,1.5V13h.4c1.4-3.1,4.3-4.6,8.8-4.6h4.5c4.2,0,7.5,1.1,9.7,3.5s3.4,5.7,3.4,10.1V39.6c0,4.3-1.1,7.7-3.4,10s-5.5,3.6-9.7,3.6h-4.5c-4.5,0-7.4-1.6-8.9-4.7h-.3v7.4a1.3,1.3,0,0,1-1.5,1.5m8.7-11.7H367c4.2,0,6.3-2.1,6.3-6.5V22.3c0-4.3-2.1-6.5-6.3-6.5h-4.7q-7.2,0-7.2,7.5v15c0,4.9,2.4,7.4,7.2,7.4" transform="translate(0 0)"/>
<path class="st0" d="M424.7,50.1,422,46.5h0a12.7,12.7,0,0,1-2.1,2.9,12,12,0,0,1-4.5,2.7l-2.9-3.9a12.9,12.9,0,0,1-3.5.4h-6.3c-3.5,0-6.2-.9-8.2-2.9s-2.9-4.6-2.9-8.1V30.7h0V23.7c0-3.5,1-6.2,2.9-8.1s4.6-2.9,8.1-2.9h6.3a11.4,11.4,0,0,1,8.2,2.9c1.9,1.9,2.9,4.6,2.9,8.1v6.9h0v6.9a13.6,13.6,0,0,1-.9,5.1l2.9,3.7a15.3,15.3,0,0,0,1.4-7.1V9.6a1.4,1.4,0,0,0-1.6-1.5h-20c-4.3,0-7.7,1.2-10.1,3.6s-3.6,5.8-3.6,10.2V39.3c0,4.4,1.2,7.7,3.6,10.1S397.6,53,402,53h7.7a16.2,16.2,0,0,0,5.7-.9l2.4,3.2a2.3,2.3,0,0,0,3.2.5l3.2-2.5a2.3,2.3,0,0,0,.5-3.2" transform="translate(0 0)"/>
<path class="st0" d="M403.6,42.6H408c1.8,0,3.1-.4,3.9-1.3a5.4,5.4,0,0,0,1.2-3.9V23.9c0-3.4-1.7-5.2-5.1-5.2h-4.4a5.4,5.4,0,0,0-3.9,1.3,5.4,5.4,0,0,0-1.2,3.9v6.7h0v6.8c0,3.5,1.7,5.2,5.1,5.2" transform="translate(0 0)"/>
</g>
</svg>