<svg xmlns="http://www.w3.org/2000/svg" xmlns:xlink="http://www.w3.org/1999/xlink" width="100%" height="100%" viewBox="0 0 1024 868">
<!-- Vectorization by Rodrigo Polo https://github.com/rodrigopolo/logotipos-politicos -->
<defs>
<g id="l2">
<path fill="#222222" stroke="none" d="M 40.35 33.25 L 40.35 834.5 983.6 834.5 983.6 33.25 40.35 33.25 Z"/>
</g>
<g id="l1">
<path fill="#00C7EF" stroke="none" d="M 230.15 571 L 210.15 571 214.25 526.3 334.2 526.3 334.2 468.1 158.45 468.1 145.45 616.85 147.85 619.8 226 619.8 Q 274.85 619.8 274.85 649.8 274.85 667.5 259.5 676.8 245.4 685.65 221.3 685.65 182.1 685.65 147.2 669.8 L 130.75 724.45 Q 176.25 741.5 224.9 741.5 280 741.5 310.7 718.6 343.05 694.4 343.05 648.05 343.05 571 230.15 571 M 343.65 334.95 Q 343.65 307.45 325.95 289 309.1 271.5 271.25 260.2 L 223.65 246.05 Q 210.7 242.65 205.4 238.45 199 233.2 199 224.95 199 202.6 239 202.6 282.4 202.6 320.7 226.2 L 339.45 166.75 Q 322.5 158 297.2 152 269.75 145.65 241.9 145.65 188.35 145.65 158.95 170.25 131.35 192.6 131.35 229.7 131.35 285.5 193.7 302.6 L 244.25 316.1 Q 275.35 324.35 275.35 339.6 275.35 350.75 264.85 357.85 253.7 365.45 233.65 365.45 189.65 365.45 150.8 339 L 135.5 399.55 Q 151.7 408.5 175.45 414.9 205.4 422.5 232.5 422.5 283 422.5 313.6 398.4 343.65 374.3 343.65 334.95 M 876.3 549.95 Q 876.3 512.55 850.45 488.25 822.15 461.25 771.65 461.25 721.05 461.25 692.25 488.25 663.5 514.1 662.25 559.45 L 723.45 571.15 Q 723.45 548.2 734.55 535.95 746.95 521.8 770.4 521.8 788.15 521.8 798.1 531.75 807.5 541.3 807.5 555.9 807.5 583.55 772.8 609.4 L 671.1 685.3 671.1 734.65 882.8 734.65 882.8 677.05 769.9 677.05 821 641.75 Q 852.2 620 865.1 597.05 876.3 576.95 876.3 549.95 M 899.95 151.05 L 899.95 146.35 825.4 146.35 762.95 250.35 701.9 146.35 626.6 146.35 626.6 151.05 730.1 312.15 730.1 415.6 796.55 415.6 796.55 311.55 899.95 151.05 Z"/>
</g>
<g id="s2">
<path fill="#FFFFFF" stroke="none" d="M -0.35 -139.05 Q -59.7 -139.05 -99.65 -99.05 -139 -59.2 -139 0.25 -139 59.75 -99.65 99.1 -59.7 139.1 -0.35 139.1 59.6 139.1 99.6 99.1 139 59.65 139 0.25 139 -59.1 99.6 -99.05 59.6 -139.05 -0.35 -139.05 M 0.25 -75.6 Q 32.55 -75.6 53.2 -53.85 73.8 -32.55 73.8 0.25 73.8 32.5 53.2 54.4 32.55 76.15 0.25 76.15 -31.35 76.15 -52.6 54.4 -73.8 32.5 -73.8 0.25 -73.8 -32.65 -52.6 -53.85 -32.05 -75.6 0.25 -75.6 Z"/>
</g>
</defs>
<g transform="matrix(1,0,0,1,0,0)">
<use xlink:href="#l2"/>
</g>
<g transform="matrix(1,0,0,1,0,0)">
<use xlink:href="#l1"/>
</g>
<g transform="matrix(1,0,0,1,503.25,282.3)">
<g transform="matrix(1,0,0,1,0,0)">
<use xlink:href="#s2"/>
</g>
</g>
<g transform="matrix(1,0,0,1,506.5,602.7)">
<g transform="matrix(1,0,0,1,0,0)">
<use xlink:href="#s2"/>
</g>
</g>
</svg>
