<svg xmlns="http://www.w3.org/2000/svg" xmlns:xlink="http://www.w3.org/1999/xlink" width="100%" height="100%" viewBox="0 0 1024 523">
<!-- Vectorization by Rodrigo Polo https://github.com/rodrigopolo/logotipos-politicos -->
<defs>
<g id="l1">
<path fill="#FF0000" stroke="none" d="M 1024 522.45 L 1024 0 0 0 0 522.45 1024 522.45 Z"/>
</g>
<g id="l0">
<path fill="#FFFFFF" stroke="none" d="
M 211.95 291.85 Q 218.1 291.85 221.4 295.1 224.45 298.4 226.5 306.6 227.35 309.85 227.75 310.7 228.35 311.5 229.6 311.1 231.2 310.5 233.7 310.5 235.1 310.5 235.3 309.05 235.75 307.4 235.75 299.65 L 235.75 288.75 228.95 287.15 Q 221.4 285.5 213.4 285.3 205.4 284.9 200.1 286.3 185.75 290 177.95 301.9 170.2 313.55 170.2 331.6 170.2 346.75 175.7 357.4 181.25 368.25 191.5 373.35 198.25 376.65 206.05 377.25 213.8 377.65 220.55 375.4 228.75 372.55 235.5 365.8 L 238.6 362.5 235.5 355.75 232.25 358.8 Q 227.35 363.55 221.2 365.6 215.05 367.6 209.7 366.2 201.1 363.75 196.6 353.5 191.9 343.05 191.9 325.85 191.9 291.85 211.95 291.85 M 98.3 258.65 L 109.35 258.65 Q 120 258.65 124.1 259.9 131.05 261.75 132.3 271.35 L 132.9 276.1 139.65 275.45 139.65 249.05 58.15 249.05 58.15 251.3 Q 58.15 252.95 59 253.35 60 253.95 63.7 254.55 72.1 256.2 73.3 262.55 74.55 268.9 74.55 312.35 74.55 352.05 73.95 359 73.3 366.2 69.45 368.05 67.15 369.25 62.45 370.1 59.8 370.5 59 370.9 58.15 371.5 58.15 372.95 L 58.15 375 126.35 375.8 Q 139.25 375.8 141.1 375.4 L 144.4 375 148.05 347.55 Q 148.5 345.7 147.85 345.5 147.45 345.1 144.4 345.1 141.3 345.1 140.7 345.5 140.1 345.7 140.1 347.55 140.1 351.05 138.25 355.15 136.4 359.25 134.15 361.25 130.85 364.15 127 365.15 122.9 366 113.45 366 101.6 366 100.15 363.3 98.7 360.45 98.3 338.15 L 98.1 313.95 110.2 314.35 Q 122.7 314.8 125.95 316.65 129.25 318.45 130.45 326.25 130.85 328.5 131.5 329.1 131.9 329.55 133.95 329.55 L 136.8 329.55 137 289.6 134.15 289.6 Q 131.9 289.6 131.5 290.2 130.85 291.05 130.25 295.1 129.25 301.05 127.4 302.5 125.15 304.75 118.4 305.55 111.6 306.4 103 305.35 L 98.3 304.75 98.3 258.65 M 554.6 296.15 Q 543.95 286.3 527.75 285.3 505.85 284.05 493.35 297.15 481.5 309.65 481.5 331.8 481.5 355.75 497.25 368.25 513.05 380.95 536.6 375.8 543.75 374.4 550.9 369.05 558.1 363.95 561.95 357.4 566.05 350.4 567.7 341 569.35 331.35 567.9 323 565.25 306.2 554.6 296.15 M 513.45 294.7 Q 516.3 292.65 521 292.45 525.95 292.25 529.4 293.9 537.4 298 541.9 308.65 546.2 319.3 546.4 335.05 546.4 360.45 535.75 368.05 532.7 370.3 527.75 370.5 522.85 370.7 518.95 368.65 503.8 361.05 503.8 325 503.8 312.55 506.05 305.55 508.3 298.6 513.45 294.7 M 329.1 366.6 Q 337.7 358.8 341.4 346.95 345.1 335.05 342.85 322.15 339.75 304.75 328.3 294.9 316.6 284.9 299.4 284.9 279.55 284.9 268.1 297.4 256.6 310.05 256.6 331.35 256.6 347.35 263.35 358.6 270.35 369.65 283.05 374.6 297.35 379.9 312.95 375.4 322.55 372.95 329.1 366.6 M 316.4 307.6 Q 321.35 318.7 321.55 335.45 321.55 362.1 309.85 368.45 305.95 370.7 301.45 370.7 296.95 370.7 293.5 368.45 278.95 359.85 278.95 325.45 278.95 314.35 280.35 308.45 281.6 302.3 285.1 298.2 291.85 290 301.45 292.85 311.3 295.75 316.4 307.6 M 426 285.5 Q 417.8 285.5 413.5 287.35 409 289 403.05 294.7 L 397.7 299.85 397.1 287.55 396.5 284.25 390.75 285.5 Q 387.5 286.3 377.45 287.35 367.4 288.55 364.75 288.55 363.95 288.55 363.95 290.8 363.95 292.25 364.55 292.65 364.95 293.05 366.8 293.05 375 293.05 376.65 299.2 377.65 303.1 377.65 332.4 377.45 361.9 376.4 364.95 374.6 370.5 367.4 370.5 365.15 370.5 364.55 370.9 363.95 371.3 363.95 372.75 L 363.95 375 386.65 375 Q 409.4 375 409.4 373.95 409.4 371.3 404.5 369.45 400.4 368.05 399.55 363.3 398.75 359 398.55 337.95 398.55 318.05 399.35 312.75 400.2 307.4 403.85 303.1 409.4 296.75 417.2 296.75 426.6 296.75 429.65 306 432.55 315.4 432.15 343.45 431.7 361.05 430.7 364.95 429.45 368.85 424.75 370.1 421.3 370.9 421.3 372.95 L 421.3 375 466.95 375 466.75 373.15 Q 466.55 371.1 462.45 370.3 454.45 369.05 453.65 363.75 453.25 362.1 452.8 334.05 452.6 307.2 451.2 302.7 447.9 292.85 439.3 288.15 436 286.3 433.95 285.9 431.95 285.5 426 285.5 M 378.25 130.45 L 381.75 130.05 Q 384.6 129.85 385.05 129.25 385.65 128.6 385.85 125.15 386.25 121.05 387.5 118.8 389.95 114.3 406.1 113.45 L 416.75 112.85 416.75 159.75 Q 416.75 199.5 416.15 205.6 415.35 211.75 410.65 213 L 404.9 214.25 Q 402.65 214.45 402.45 216.7 L 402.25 218.95 453.25 218.95 453.25 216.5 Q 453.25 214.85 452.6 214.45 452 214 449.75 214 443.2 214 440.3 208.5 439.1 206.45 438.9 198.65 438.7 191.9 438.7 159.15 L 438.7 112.85 448.9 113.45 Q 459.55 114.3 462.45 115.5 468.6 117.75 468.6 126.55 468.6 129.25 469 129.85 469.6 130.25 471.85 130.25 L 475.15 130.25 475.15 104.85 379.5 104.85 378.25 130.45 M 542.5 138.65 Q 539.45 137.65 533.1 137.65 522.05 137.65 513.05 146.05 L 509.55 149.3 509.55 101.15 507.5 101.6 Q 498.3 103.65 486.6 104.45 477.8 105.05 477.8 106.1 477.8 108.75 482.7 109.55 488.85 110.4 490.1 117.75 490.7 123.5 490.3 165.3 490.1 202.55 489.25 208.1 488.45 213.6 482.9 214.45 480.25 214.85 478.85 215.85 477.4 217.1 478.2 218.3 478.6 218.95 498.7 218.95 L 518.75 218.95 518.75 216.9 Q 518.75 214.85 515.9 214.25 513.25 213.8 511.4 211.55 510.15 209.9 509.95 206.05 509.55 201.95 509.55 185.55 509.55 162.4 511 158.7 515.5 148.3 526.15 148.3 532.7 148.3 535.15 151.95 537.8 155.45 538.85 165.9 539.65 173.9 539.45 190.9 539.05 207.65 538 210.55 537 213 533.3 214 529.6 215.05 529.6 216.9 L 529.6 218.95 570.6 218.95 570.6 216.9 Q 570.6 214.85 568.95 214.85 L 564.25 214 Q 560.15 212.8 559.3 208.3 558.3 203.8 557.9 181.25 557.65 162.2 557.25 157.5 556.85 153.2 555.2 150.1 553.35 146.25 549.9 142.95 546.2 139.7 542.5 138.65 M 880.65 289.4 Q 879.85 288.15 870.6 286.3 851.35 282.85 840.7 289.4 830.05 296.15 830.05 311.7 830.05 320.5 834.15 326.25 838.25 332 850.75 340.4 861.2 347.55 864.9 352.9 868.55 358.4 866.3 362.9 863.25 369.25 853.6 369.25 849.5 369.25 848.1 368.85 846.65 368.45 845 366.8 842.75 364.55 840.5 359 838.85 354.95 837 353.7 835.2 352.65 831.3 353.7 829.65 354.1 829.45 355.35 829.05 356.55 829.05 362.7 829.05 371.3 830.25 372.15 831.9 373.35 837.25 374.6 846.65 377.25 853.2 377.25 859.75 377.25 866.3 374.8 871.45 372.95 875.95 368.45 880.65 363.95 882.3 359.25 883.5 355.35 883.7 350 883.7 344.5 882.7 341.6 880.85 336.5 875.3 331.35 869.6 326.05 856.25 316.85 849.1 311.9 847.25 309.05 845.85 306.4 845.6 302.7 845.4 299.2 846.85 296.95 849.1 293.9 853.8 292.45 858.3 291.05 862.6 292.25 865.9 293.3 867.55 295.35 869.4 297.4 871 302.5 872.45 307.2 874.1 307.2 L 881.85 306.8 881.85 298.6 Q 881.85 290.6 880.65 289.4 M 915.65 285.3 Q 910.75 289.6 904 289.6 902.55 289.6 902.35 290.4 901.95 291.05 901.95 294.1 L 901.95 298.6 912.6 298.6 913 327.9 Q 913.4 351.45 914.25 358 915.25 364.35 918.75 369.05 920.8 372.15 925.7 374.6 929.2 376.25 931.05 376.65 933.3 377.05 938.8 376.65 947.2 376 952.55 373.95 956.2 372.55 957.05 371.7 958.05 371.1 958.25 368.85 958.45 366.8 958.25 366.4 957.85 366 956.85 366.4 955.6 367 949.65 367.4 939.65 368.25 936.15 361.05 934.7 358.6 934.5 353.5 934.3 349.2 933.9 327.9 L 933.7 298.6 953.55 298.6 955.8 288.55 933.9 288.55 933.9 265 924.9 265 924.25 268.5 Q 923.45 272.6 920.8 277.9 918.1 283.25 915.65 285.3 M 663.75 287.95 Q 660.7 286.3 658.65 285.9 656.6 285.5 650.65 285.5 642.85 285.5 638.35 287.35 634.05 289 627.9 294.7 L 622.6 299.85 622 286.3 Q 621.55 284.9 620.75 284.7 619.75 284.7 615.65 285.5 612.35 286.3 602.3 287.35 592.3 288.55 589.4 288.55 588.8 288.55 588.8 290.8 588.8 292.25 589.2 292.65 589.85 293.05 591.45 293.05 598.85 293.05 601.3 298.2 602.75 301.7 602.75 332 602.55 362.3 601.1 365.6 599.05 370.5 591.9 370.5 589.85 370.5 589.4 370.9 588.8 371.3 588.8 372.75 L 588.8 375 634.45 375 634.05 373.15 Q 633.65 370.9 629.95 369.9 626.1 368.25 625.05 366.6 623.8 364.55 623.6 338.95 623.4 320.95 623.6 316.2 623.8 312.1 625.25 308.85 631 295.35 644.5 297.15 651.45 298 654.15 306.8 655.15 310.05 655.55 315.8 655.75 321.15 655.75 338.15 655.75 364.55 654.55 366.6 653.5 368.25 649.65 369.9 645.75 371.1 645.35 373.15 L 645.1 375 687.1 375 687.1 372.95 Q 687.1 370.7 684.05 370.1 679.1 369.25 678.3 365.35 677.7 361.7 677.3 338.95 L 677.05 311.9 679.55 307 Q 683.85 298 693.85 296.95 698.8 296.75 701.65 298.2 704.5 299.85 706.55 303.95 708 307 708.2 311.7 708.6 316.85 708.6 336.9 708.6 356.95 708.4 361.9 708 366.4 706.75 367.6 704.7 369.65 702.05 370.1 700.2 370.5 699.6 371.1 699 371.5 699 372.95 L 699 375 744.25 375 743.85 372.95 Q 743.45 370.9 739.75 370.3 732.55 369.45 730.95 363.55 729.9 360.05 729.9 334.05 729.9 312.75 729.1 306.8 728.25 300.85 724.6 294.9 722.15 290.8 717 288.15 713.95 286.3 711.7 285.9 709.65 285.5 703.9 285.5 698.35 285.5 696.3 285.9 693.85 286.3 690.6 287.95 684.85 290.8 679.95 295.75 L 674.6 300.85 671.35 295.75 Q 668.45 290.8 663.75 287.95 M 772.9 250.5 Q 768.4 260.3 777.45 265.85 782.95 269.3 789.1 266.25 796.05 262.75 795.45 254.55 794.65 246.6 787.45 244.15 777.45 240.65 772.9 250.5 M 760 289 Q 759.2 289.8 760.45 291.45 761.65 293.05 763.1 293.05 765.95 293.05 768.6 294.5 771.3 295.75 772.1 297.6 773.55 300.05 774.15 319.9 774.75 340 773.75 353.1 773.1 364.35 771.9 367 770.45 369.65 765.35 370.3 762.25 370.7 761.25 371.5 760 372.35 760 373.95 760 375 784.6 375 801.8 375 805.05 374.8 808.95 374.6 808.75 373.55 808.15 372.75 808.15 371.5 808.15 370.7 804.05 370.3 799.15 369.9 797.7 367.6 796.05 365.35 795.45 358 794.65 349.4 794.65 317.25 L 794.65 284.25 787.85 285.5 Q 781.75 286.5 770.85 287.75 760.45 288.55 760 289 M 650.85 174.9 L 650.25 168.35 Q 649.65 162.2 648.2 158.1 646.75 154.2 643.7 149.5 639.2 142.75 632.45 139.9 625.65 137.2 615.45 137.65 602.75 138.45 593.9 146.65 584.9 155.05 582.05 168.95 579.2 181.05 582.05 191.9 584.5 202.15 591.65 210.15 606 224.65 628.35 219.35 636.1 217.3 644.1 210.15 648 206.45 648.8 204.8 649.65 202.95 648.8 200.9 L 647.8 198.45 643.3 202.75 Q 635.1 210.35 625.85 211.15 616.85 211.95 610.3 206.05 606.4 202.35 603.55 194.35 600.7 186.15 600.7 178.8 L 600.7 174.9 650.85 174.9 M 615.45 144 Q 620.55 144 623.4 146.05 626.1 147.65 628.75 152.6 631.4 157.5 632 161.8 L 632.65 165.5 629.15 166.1 Q 627.5 166.5 612.55 167.35 L 599.65 167.95 600.25 164.25 Q 602.3 151.95 607.05 147.25 609.3 145 610.7 144.4 611.95 144 615.45 144 Z"/>
</g>
</defs>
<g transform="matrix(1,0,0,1,0,0)">
<use xlink:href="#l1"/>
</g>
<g transform="matrix(1,0,0,1,0,0)">
<use xlink:href="#l0"/>
</g>
</svg>
