<svg xmlns="http://www.w3.org/2000/svg" xmlns:xlink="http://www.w3.org/1999/xlink" width="100%" height="100%" viewBox="0 0 1024 523">
<!-- Vectorization by Rodrigo Polo https://github.com/rodrigopolo/logotipos-politicos -->
<defs>
<g id="l0">
<path fill="#FF0000" stroke="none" d="M 1024 522.45 L 1024 0 0 0 0 522.45 1024 522.45 M 648.2 158.1 Q 649.65 162.2 650.25 168.35 L 650.85 174.9 600.7 174.9 600.7 178.8 Q 600.7 186.15 603.55 194.35 606.4 202.35 610.3 206.05 616.85 211.95 625.85 211.15 635.1 210.35 643.3 202.75 L 647.8 198.45 648.8 200.9 Q 649.65 202.95 648.8 204.8 648 206.45 644.1 210.15 636.1 217.3 628.35 219.35 606 224.65 591.65 210.15 584.5 202.15 582.05 191.9 579.2 181.05 582.05 168.95 584.9 155.05 593.9 146.65 602.75 138.45 615.45 137.65 625.65 137.2 632.45 139.9 639.2 142.75 643.7 149.5 646.75 154.2 648.2 158.1 M 760.45 291.45 Q 759.2 289.8 760 289 760.45 288.55 770.85 287.75 781.75 286.5 787.85 285.5 L 794.65 284.25 794.65 317.25 Q 794.65 349.4 795.45 358 796.05 365.35 797.7 367.6 799.15 369.9 804.05 370.3 808.15 370.7 808.15 371.5 808.15 372.75 808.75 373.55 808.95 374.6 805.05 374.8 801.8 375 784.6 375 760 375 760 373.95 760 372.35 761.25 371.5 762.25 370.7 765.35 370.3 770.45 369.65 771.9 367 773.1 364.35 773.75 353.1 774.75 340 774.15 319.9 773.55 300.05 772.1 297.6 771.3 295.75 768.6 294.5 765.95 293.05 763.1 293.05 761.65 293.05 760.45 291.45 M 795.45 254.55 Q 796.05 262.75 789.1 266.25 782.95 269.3 777.45 265.85 768.4 260.3 772.9 250.5 777.45 240.65 787.45 244.15 794.65 246.6 795.45 254.55 M 663.75 287.95 Q 668.45 290.8 671.35 295.75 L 674.6 300.85 679.95 295.75 Q 684.85 290.8 690.6 287.95 693.85 286.3 696.3 285.9 698.35 285.5 703.9 285.5 709.65 285.5 711.7 285.9 713.95 286.3 717 288.15 722.15 290.8 724.6 294.9 728.25 300.85 729.1 306.8 729.9 312.75 729.9 334.05 729.9 360.05 730.95 363.55 732.55 369.45 739.75 370.3 743.45 370.9 743.85 372.95 L 744.25 375 699 375 699 372.95 Q 699 371.5 699.6 371.1 700.2 370.5 702.05 370.1 704.7 369.65 706.75 367.6 708 366.4 708.4 361.9 708.6 356.95 708.6 336.9 708.6 316.85 708.2 311.7 708 307 706.55 303.95 704.5 299.85 701.65 298.2 698.8 296.75 693.85 296.95 683.85 298 679.55 307 L 677.05 311.9 677.3 338.95 Q 677.7 361.7 678.3 365.35 679.1 369.25 684.05 370.1 687.1 370.7 687.1 372.95 L 687.1 375 645.1 375 645.35 373.15 Q 645.75 371.1 649.65 369.9 653.5 368.25 654.55 366.6 655.75 364.55 655.75 338.15 655.75 321.15 655.55 315.8 655.15 310.05 654.15 306.8 651.45 298 644.5 297.15 631 295.35 625.25 308.85 623.8 312.1 623.6 316.2 623.4 320.95 623.6 338.95 623.8 364.55 625.05 366.6 626.1 368.25 629.95 369.9 633.65 370.9 634.05 373.15 L 634.45 375 588.8 375 588.8 372.75 Q 588.8 371.3 589.4 370.9 589.85 370.5 591.9 370.5 599.05 370.5 601.1 365.6 602.55 362.3 602.75 332 602.75 301.7 601.3 298.2 598.85 293.05 591.45 293.05 589.85 293.05 589.2 292.65 588.8 292.25 588.8 290.8 588.8 288.55 589.4 288.55 592.3 288.55 602.3 287.35 612.35 286.3 615.65 285.5 619.75 284.7 620.75 284.7 621.55 284.9 622 286.3 L 622.6 299.85 627.9 294.7 Q 634.05 289 638.35 287.35 642.85 285.5 650.65 285.5 656.6 285.5 658.65 285.9 660.7 286.3 663.75 287.95 M 915.65 285.3 Q 918.1 283.25 920.8 277.9 923.45 272.6 924.25 268.5 L 924.9 265 933.9 265 933.9 288.55 955.8 288.55 953.55 298.6 933.7 298.6 933.9 327.9 Q 934.3 349.2 934.5 353.5 934.7 358.6 936.15 361.05 939.65 368.25 949.65 367.4 955.6 367 956.85 366.4 957.85 366 958.25 366.4 958.45 366.8 958.25 368.85 958.05 371.1 957.05 371.7 956.2 372.55 952.55 373.95 947.2 376 938.8 376.65 933.3 377.05 931.05 376.65 929.2 376.25 925.7 374.6 920.8 372.15 918.75 369.05 915.25 364.35 914.25 358 913.4 351.45 913 327.9 L 912.6 298.6 901.95 298.6 901.95 294.1 Q 901.95 291.05 902.35 290.4 902.55 289.6 904 289.6 910.75 289.6 915.65 285.3 M 870.6 286.3 Q 879.85 288.15 880.65 289.4 881.85 290.6 881.85 298.6 L 881.85 306.8 874.1 307.2 Q 872.45 307.2 871 302.5 869.4 297.4 867.55 295.35 865.9 293.3 862.6 292.25 858.3 291.05 853.8 292.45 849.1 293.9 846.85 296.95 845.4 299.2 845.6 302.7 845.85 306.4 847.25 309.05 849.1 311.9 856.25 316.85 869.6 326.05 875.3 331.35 880.85 336.5 882.7 341.6 883.7 344.5 883.7 350 883.5 355.35 882.3 359.25 880.65 363.95 875.95 368.45 871.45 372.95 866.3 374.8 859.75 377.25 853.2 377.25 846.65 377.25 837.25 374.6 831.9 373.35 830.25 372.15 829.05 371.3 829.05 362.7 829.05 356.55 829.45 355.35 829.65 354.1 831.3 353.7 835.2 352.65 837 353.7 838.85 354.95 840.5 359 842.75 364.55 845 366.8 846.65 368.45 848.1 368.85 849.5 369.25 853.6 369.25 863.25 369.25 866.3 362.9 868.55 358.4 864.9 352.9 861.2 347.55 850.75 340.4 838.25 332 834.15 326.25 830.05 320.5 830.05 311.7 830.05 296.15 840.7 289.4 851.35 282.85 870.6 286.3 M 542.5 138.65 Q 546.2 139.7 549.9 142.95 553.35 146.25 555.2 150.1 556.85 153.2 557.25 157.5 557.65 162.2 557.9 181.25 558.3 203.8 559.3 208.3 560.15 212.8 564.25 214 L 568.95 214.85 Q 570.6 214.85 570.6 216.9 L 570.6 218.95 529.6 218.95 529.6 216.9 Q 529.6 215.05 533.3 214 537 213 538 210.55 539.05 207.65 539.45 190.9 539.65 173.9 538.85 165.9 537.8 155.45 535.15 151.95 532.7 148.3 526.15 148.3 515.5 148.3 511 158.7 509.55 162.4 509.55 185.55 509.55 201.95 509.95 206.05 510.15 209.9 511.4 211.55 513.25 213.8 515.9 214.25 518.75 214.85 518.75 216.9 L 518.75 218.95 498.7 218.95 Q 478.6 218.95 478.2 218.3 477.4 217.1 478.85 215.85 480.25 214.85 482.9 214.45 488.45 213.6 489.25 208.1 490.1 202.55 490.3 165.3 490.7 123.5 490.1 117.75 488.85 110.4 482.7 109.55 477.8 108.75 477.8 106.1 477.8 105.05 486.6 104.45 498.3 103.65 507.5 101.6 L 509.55 101.15 509.55 149.3 513.05 146.05 Q 522.05 137.65 533.1 137.65 539.45 137.65 542.5 138.65 M 378.25 130.45 L 379.5 104.85 475.15 104.85 475.15 130.25 471.85 130.25 Q 469.6 130.25 469 129.85 468.6 129.25 468.6 126.55 468.6 117.75 462.45 115.5 459.55 114.3 448.9 113.45 L 438.7 112.85 438.7 159.15 Q 438.7 191.9 438.9 198.65 439.1 206.45 440.3 208.5 443.2 214 449.75 214 452 214 452.6 214.45 453.25 214.85 453.25 216.5 L 453.25 218.95 402.25 218.95 402.45 216.7 Q 402.65 214.45 404.9 214.25 L 410.65 213 Q 415.35 211.75 416.15 205.6 416.75 199.5 416.75 159.75 L 416.75 112.85 406.1 113.45 Q 389.95 114.3 387.5 118.8 386.25 121.05 385.85 125.15 385.65 128.6 385.05 129.25 384.6 129.85 381.75 130.05 L 378.25 130.45 M 426 285.5 Q 431.95 285.5 433.95 285.9 436 286.3 439.3 288.15 447.9 292.85 451.2 302.7 452.6 307.2 452.8 334.05 453.25 362.1 453.65 363.75 454.45 369.05 462.45 370.3 466.55 371.1 466.75 373.15 L 466.95 375 421.3 375 421.3 372.95 Q 421.3 370.9 424.75 370.1 429.45 368.85 430.7 364.95 431.7 361.05 432.15 343.45 432.55 315.4 429.65 306 426.6 296.75 417.2 296.75 409.4 296.75 403.85 303.1 400.2 307.4 399.35 312.75 398.55 318.05 398.55 337.95 398.75 359 399.55 363.3 400.4 368.05 404.5 369.45 409.4 371.3 409.4 373.95 409.4 375 386.65 375 L 363.95 375 363.95 372.75 Q 363.95 371.3 364.55 370.9 365.15 370.5 367.4 370.5 374.6 370.5 376.4 364.95 377.45 361.9 377.65 332.4 377.65 303.1 376.65 299.2 375 293.05 366.8 293.05 364.95 293.05 364.55 292.65 363.95 292.25 363.95 290.8 363.95 288.55 364.75 288.55 367.4 288.55 377.45 287.35 387.5 286.3 390.75 285.5 L 396.5 284.25 397.1 287.55 397.7 299.85 403.05 294.7 Q 409 289 413.5 287.35 417.8 285.5 426 285.5 M 341.4 346.95 Q 337.7 358.8 329.1 366.6 322.55 372.95 312.95 375.4 297.35 379.9 283.05 374.6 270.35 369.65 263.35 358.6 256.6 347.35 256.6 331.35 256.6 310.05 268.1 297.4 279.55 284.9 299.4 284.9 316.6 284.9 328.3 294.9 339.75 304.75 342.85 322.15 345.1 335.05 341.4 346.95 M 527.75 285.3 Q 543.95 286.3 554.6 296.15 565.25 306.2 567.9 323 569.35 331.35 567.7 341 566.05 350.4 561.95 357.4 558.1 363.95 550.9 369.05 543.75 374.4 536.6 375.8 513.05 380.95 497.25 368.25 481.5 355.75 481.5 331.8 481.5 309.65 493.35 297.15 505.85 284.05 527.75 285.3 M 109.35 258.65 L 98.3 258.65 98.3 304.75 103 305.35 Q 111.6 306.4 118.4 305.55 125.15 304.75 127.4 302.5 129.25 301.05 130.25 295.1 130.85 291.05 131.5 290.2 131.9 289.6 134.15 289.6 L 137 289.6 136.8 329.55 133.95 329.55 Q 131.9 329.55 131.5 329.1 130.85 328.5 130.45 326.25 129.25 318.45 125.95 316.65 122.7 314.8 110.2 314.35 L 98.1 313.95 98.3 338.15 Q 98.7 360.45 100.15 363.3 101.6 366 113.45 366 122.9 366 127 365.15 130.85 364.15 134.15 361.25 136.4 359.25 138.25 355.15 140.1 351.05 140.1 347.55 140.1 345.7 140.7 345.5 141.3 345.1 144.4 345.1 147.45 345.1 147.85 345.5 148.5 345.7 148.05 347.55 L 144.4 375 141.1 375.4 Q 139.25 375.8 126.35 375.8 L 58.15 375 58.15 372.95 Q 58.15 371.5 59 370.9 59.8 370.5 62.45 370.1 67.15 369.25 69.45 368.05 73.3 366.2 73.95 359 74.55 352.05 74.55 312.35 74.55 268.9 73.3 262.55 72.1 256.2 63.7 254.55 60 253.95 59 253.35 58.15 252.95 58.15 251.3 L 58.15 249.05 139.65 249.05 139.65 275.45 132.9 276.1 132.3 271.35 Q 131.05 261.75 124.1 259.9 120 258.65 109.35 258.65 M 213.4 285.3 Q 221.4 285.5 228.95 287.15 L 235.75 288.75 235.75 299.65 Q 235.75 307.4 235.3 309.05 235.1 310.5 233.7 310.5 231.2 310.5 229.6 311.1 228.35 311.5 227.75 310.7 227.35 309.85 226.5 306.6 224.45 298.4 221.4 295.1 218.1 291.85 211.95 291.85 191.9 291.85 191.9 325.85 191.9 343.05 196.6 353.5 201.1 363.75 209.7 366.2 215.05 367.6 221.2 365.6 227.35 363.55 232.25 358.8 L 235.5 355.75 238.6 362.5 235.5 365.8 Q 228.75 372.55 220.55 375.4 213.8 377.65 206.05 377.25 198.25 376.65 191.5 373.35 181.25 368.25 175.7 357.4 170.2 346.75 170.2 331.6 170.2 313.55 177.95 301.9 185.75 290 200.1 286.3 205.4 284.9 213.4 285.3 M 521 292.45 Q 516.3 292.65 513.45 294.7 508.3 298.6 506.05 305.55 503.8 312.55 503.8 325 503.8 361.05 518.95 368.65 522.85 370.7 527.75 370.5 532.7 370.3 535.75 368.05 546.4 360.45 546.4 335.05 546.2 319.3 541.9 308.65 537.4 298 529.4 293.9 525.95 292.25 521 292.45 M 321.55 335.45 Q 321.35 318.7 316.4 307.6 311.3 295.75 301.45 292.85 291.85 290 285.1 298.2 281.6 302.3 280.35 308.45 278.95 314.35 278.95 325.45 278.95 359.85 293.5 368.45 296.95 370.7 301.45 370.7 305.95 370.7 309.85 368.45 321.55 362.1 321.55 335.45 M 615.45 144 Q 611.95 144 610.7 144.4 609.3 145 607.05 147.25 602.3 151.95 600.25 164.25 L 599.65 167.95 612.55 167.35 Q 627.5 166.5 629.15 166.1 L 632.65 165.5 632 161.8 Q 631.4 157.5 628.75 152.6 626.1 147.65 623.4 146.05 620.55 144 615.45 144 Z"/>
</g>
</defs>
<g transform="matrix(1,0,0,1,0,0)">
<use xlink:href="#l0"/>
</g>
</svg>
