<svg xmlns="http://www.w3.org/2000/svg" xmlns:xlink="http://www.w3.org/1999/xlink" width="100%" height="100%" viewBox="0 0 1024 1024">
<!-- Vectorization by Rodrigo Polo https://github.com/rodrigopolo/logotipos-politicos -->
<defs>
<g id="l3">
<path fill="#01B3E3" stroke="none" d="M 316.45 736.45 L 264.3 736.45 264.3 866.25 Q 264.3 909.9 286.1 936.25 308.65 963.4 347.7 963.4 L 364.2 963.4 Q 403.25 963.4 425.85 936.25 447.6 909.9 447.6 866.25 L 447.6 736.45 395.45 736.45 395.45 880.5 Q 395.45 897.4 383.85 909.5 372.2 921.5 355.9 921.5 339.6 921.5 328.05 909.5 316.45 897.4 316.45 880.5 L 316.45 736.45 M 147.9 734.4 Q 95.85 736.65 63.4 766.25 27.95 798.45 28.65 853.45 29.15 889.85 46.35 915.75 62.15 939.6 89.7 951.3 120.35 964.3 157.35 962.05 181.3 960.5 225.15 949.85 L 225.45 831.85 142.55 831.85 142.25 871.3 176.5 871.3 176.6 918.6 Q 154.15 924.05 134.7 919.85 115.95 915.75 102.9 903.45 89.7 891.15 84.5 872.7 79.15 853.55 83.15 830.9 86.55 811.55 98.1 798.55 109.05 786.15 126.6 780.3 146.7 773.55 169.5 776.5 178.35 777.65 207.75 785.2 L 218.2 744.45 Q 189.8 737.25 184.8 736.35 168.7 733.5 147.9 734.4 M 991.45 777.45 L 991.45 736.45 853.35 736.45 853.15 959.8 995.35 959.8 995.35 918.9 903.45 918.9 903.45 865.15 985.7 865.15 985.7 824.95 903.45 824.95 903.45 777.45 991.45 777.45 M 655.1 736.45 L 655.1 778.85 714.9 778.85 714.9 959.8 765.55 959.8 765.55 778.85 826.5 778.85 826.5 736.45 655.1 736.45 Z"/>
</g>
<g id="l2">
<path fill="#FAD000" stroke="none" d="M 593.2 866.75 Q 593.264453125 866.88984375 593.3 867 L 593.4 867.3 593.2 866.75 M 553.95 736.45 L 533.45 736.45 543.1 864.7 592.6 864.7 553.95 736.45 Z"/>
<path fill="#FD8103" stroke="none" d="M 592.7 865.1 L 592.6 864.7 543.1 864.7 531.6 902.55 531.65 902.55 604.05 902.55 593.4 867.3 593.3 867 Q 593.264453125 866.88984375 593.2 866.75 L 592.75 865.25 592.7 865.1 Z"/>
<path fill="#D8006D" stroke="none" d="M 602.3 736.45 L 553.95 736.45 592.6 864.7 592.7 865.1 592.75 865.25 593.2 866.75 593.4 867.3 604.05 902.55 603.9 902.1 621.35 959.8 669.65 959.8 602.3 736.45 Z"/>
<path fill="#C3D600" stroke="none" d="M 465.95 959.8 L 543.1 864.7 533.45 736.45 465.95 959.8 Z"/>
<path fill="#813F99" stroke="none" d="M 531.65 902.55 L 531.6 902.55 543.1 864.7 465.95 959.8 514.3 959.8 531.65 902.55 Z"/>
</g>
<g id="l1">
<path fill="#666666" stroke="none" d="M 527.7 560.4 L 527.7 586.55 547.3 586.55 547.3 645.05 Q 547.2 669.85 570.45 677.95 593.5 685.95 620.75 671.5 L 607.25 646.3 Q 594.3 651.1 589.5 649.65 583.55 647.9 583.05 635.95 L 583.05 586.55 615.55 586.55 615.55 560.4 583.05 560.4 583.05 523.25 547.3 529.35 547.3 560.4 527.7 560.4 M 517.15 586.55 L 517.15 560.4 423.3 560.4 423.3 586.55 476.8 586.55 419.1 653.85 419.1 680 520.85 680 520.85 653.85 462.85 653.85 517.15 586.55 M 282.1 619.85 Q 282.1 645.65 300.35 663.9 318.5 682.15 344.4 682.15 359.8 682.15 373.4 674.95 L 373.4 680 406.7 680 406.7 619.85 Q 406.7 593.95 388.4 575.8 370.15 557.55 344.4 557.55 318.5 557.55 300.35 575.8 282.1 593.95 282.1 619.85 M 315.3 619.85 Q 315.3 607.15 323.8 598.25 332.25 589.4 344.4 589.4 356 589.4 364.4 597.8 372.8 606.2 373.4 618.3 L 373.4 659.2 362.95 643.3 Q 354.85 650.3 344.4 650.3 332.25 650.3 323.8 641.45 315.3 632.45 315.3 619.85 M 44.3 560.4 L 44.3 586.55 63.8 586.55 63.8 645.05 Q 63.8 669.85 87.05 677.95 110.1 685.95 137.25 671.5 L 123.8 646.3 Q 110.8 651.1 106 649.65 100.05 647.9 99.65 635.95 L 99.65 586.55 132.1 586.55 132.1 560.4 99.65 560.4 99.65 523.25 63.8 529.35 63.8 560.4 44.3 560.4 M 258.75 560.4 L 227.5 560.4 198.3 636.15 169.1 560.4 137.85 560.4 181.5 680 215 680 258.75 560.4 M 729.55 575.8 Q 711.3 557.55 685.5 557.55 659.6 557.55 641.45 575.8 623.2 593.95 623.2 619.85 623.2 644.15 636.95 660.6 649.45 675.4 669.95 680.4 689.7 685.2 709.3 679.15 729.95 672.9 742.45 656.85 L 721.55 641.25 Q 718.3 646.3 708.35 649.85 698.4 653.45 687.65 653.15 659.9 652.65 658.05 630.1 L 747.7 630.1 Q 748.1 624.45 747.8 619.85 747.8 593.95 729.55 575.8 M 702.4 595.05 Q 709.8 600.6 712.85 609.5 L 658.05 609.5 Q 661.2 600.6 668.6 595.05 676.2 589.4 685.5 589.4 694.85 589.4 702.4 595.05 M 970.45 575.8 Q 952.2 557.55 926.4 557.55 900.55 557.55 882.35 575.8 864.1 593.95 864.1 619.85 864.1 645.65 882.35 663.9 900.55 682.15 926.4 682.15 941.85 682.15 955.5 674.95 L 955.5 680 988.7 680 988.7 619.85 Q 988.7 593.95 970.45 575.8 M 955.4 618.3 L 955.5 618.3 955.5 659.2 944.95 643.3 Q 936.85 650.3 926.4 650.3 914.3 650.3 905.8 641.45 897.3 632.45 897.3 619.85 897.3 607.15 905.8 598.25 914.3 589.4 926.4 589.4 938.05 589.4 946.45 597.8 954.85 606.2 955.4 618.3 M 844.95 564.5 Q 831.5 557.55 816.25 557.55 790.45 557.55 772.2 575.8 753.95 593.95 753.95 619.85 753.95 645.65 772.2 663.9 790.45 682.15 816.25 682.15 831.5 682.15 844.95 675.2 857.95 668.5 866.65 656.55 L 840.2 637.25 Q 836.2 643.3 829.95 646.7 823.6 650.3 816.25 650.3 804.25 650.3 795.75 641.45 787.15 632.45 787.15 619.85 787.15 607.25 795.75 598.25 804.25 589.4 816.25 589.4 823.6 589.4 829.95 593 836.2 596.4 840.2 602.45 L 866.65 583.15 Q 857.95 571.3 844.95 564.5 Z"/>
</g>
<g id="l0">
<path fill="#3BA054" stroke="none" d="M 399.55 147.8 Q 402.3 145.35 403.75 143.7 405.2 142 406.5 138.1 407.85 134.1 407.85 131.2 407.85 116.65 387.65 108.9 377.2 104.8 354.95 101.6 333.15 98.45 314.5 97.5 298.3 96 292.05 95.95 283.45 95.55 278.45 95.55 274.55 95.15 272.3 95.15 L 265.3 95.15 Q 261.35 94.75 258.75 94.75 L 213.7 94.35 Q 207.35 94.75 203.65 94.75 L 182.75 94.75 Q 181.7 94.75 180.5 94.95 179.25 95.15 178.15 95.15 L 167.6 95.15 Q 164.7 95.45 162.65 95.55 155.4 95.25 152.2 95.55 148.2 95.95 147.6 96.1 145.15 96.9 145.15 99.45 145.15 101 145.75 101.7 L 147.4 103.05 Q 149.65 104.8 158.15 111.15 164.9 116.25 169.1 119.65 L 201.5 147.7 Q 202.7 148.95 204.55 150.4 L 231.9 178.15 Q 246.15 193.5 261.65 214.2 274.05 230.8 285.1 249.95 297.1 271.1 303.25 288.3 303.55 289 304.05 290.45 304.55 291.85 305.2 292.3 305.3 288.4 310.7 274.55 315.3 262.8 318.5 256.4 327 239.5 329.75 234.7 L 339.2 219.35 Q 343.6 211.85 354.25 197.8 364.2 184.7 370.95 177.2 371.7 176.3 372.8 175.15 L 374.85 172.9 Q 375.85 171.9 376.8 170.55 379.85 167.1 395.15 151.8 396.25 150.7 399.55 147.8 Z"/>
<path fill="#336FB7" stroke="none" d="M 580.7 64.2 L 572.6 66.15 Q 528.35 78.25 495.05 94.75 L 478.25 103.55 Q 462.45 111.95 444.1 124.75 437.55 129.25 430.9 134.4 423.2 140.55 418.1 144.45 411.2 149.95 391.85 168.95 L 377.5 184.9 Q 363.9 201 355.5 213.6 341.75 233.9 334.6 248.1 L 329.45 258.05 Q 320.75 275.5 314.2 293.5 305.7 316.35 299.05 342.3 290.85 374.25 290.85 392.2 290.85 404.9 291.25 409.3 291.85 416.9 294.2 426.4 297.6 440.35 305.9 449.55 314.6 459.1 327.9 462.45 336.35 464.6 343.5 464.2 351.2 463.7 358.45 460.1 363.7 457.55 369.75 450.9 373.5 447 377.8 438.4 382.15 429.8 384.5 417.9 386.55 407.15 386.55 396 386.55 378.65 390 354.5 392.7 334.4 397.2 314.1 400.35 300.05 405.9 282.25 411.55 264.4 416.95 251.7 423.95 234.9 429.75 223.45 437.85 207.15 448.5 191.15 L 452.7 184.8 Q 457.95 177 465.65 167.2 473.7 157.15 480.05 150.6 L 495.15 135.1 Q 501.9 128.45 517.35 116.25 539.2 99.05 567.9 84.7 583.45 76.8 596.65 72 599.25 71 599.95 70.25 602.3 67.8 601.1 64.5 600.05 61.35 597.2 60.75 595.95 60.6 580.7 64.2 Z"/>
<path fill="#783DBE" stroke="none" d="M 601.2 77.75 Q 586 83.25 567.25 93.5 549.55 102.95 534.9 113.3 530.5 116.55 525.15 120.85 519.2 125.6 515.75 128.25 510.2 132.55 498.1 144.65 L 492.45 150.2 Q 486.75 155.9 476.5 168.4 L 471.65 174.75 Q 448.7 205.5 434.15 239.5 L 430.8 247.4 Q 428.25 253.75 427.6 255.8 426.7 258.45 424.55 264.1 L 419.2 281.1 412.25 308.35 Q 409.15 322.1 405.6 346.9 404.65 353.75 403.35 367.5 402.9 370.95 402.6 378.05 402.4 381.95 402.1 388.7 402.1 389.2 401.8 391.05 401.6 392.3 401.7 393.7 L 401.3 410.75 Q 401.3 422.1 400.9 427.1 400.85 428.35 401 429.8 401.3 431.45 401.3 432.45 401.6 458.9 412.55 477.75 413.15 478.75 414.9 481.2 417.15 484.2 417.45 484.5 424.25 491.55 431.2 494.85 439.2 498.65 448.95 498.65 L 453.15 498.65 Q 462.95 498.65 471.25 494.55 478.85 490.75 483.55 484.5 490.1 475.6 492.35 464 493.9 455.9 493.9 441.35 493.9 434.6 492.45 426.1 490.55 416.55 489.8 411.75 L 485.8 368.95 Q 485.4 367.1 485.3 365.05 L 485.4 356.55 Q 485 351.7 485 348.45 485.4 343.4 485.4 340.25 L 485.9 323.75 Q 486.45 318.5 486.45 315.85 487.05 304.7 488.9 292.8 488.9 292.7 492.7 270.95 493.7 265.35 495.75 256.95 500.55 237.9 507.95 218.1 L 510.4 212.05 Q 516.35 198.15 521.25 189.1 527.4 177.55 530.5 172.8 L 540.85 157.55 560.1 134.2 Q 563.05 130.6 572.5 121.9 581 114.1 586.65 109.6 L 611.55 91.9 Q 624.15 84.5 624.95 84 630.9 80.7 638.9 76.7 640.45 76 644.85 73.95 648.5 71.9 648.5 69.15 648.5 67.8 647.2 66.25 645.95 64.6 644.6 64.6 640.1 64.6 609.4 74.65 604.05 76.8 601.2 77.75 Z"/>
<path fill="#FFC525" stroke="none" d="M 670.95 186.95 Q 664.1 175.7 657.45 169.95 648.5 162.15 637.65 162.15 624.05 162.15 610.6 174.15 599.35 184.1 592.45 197.9 585.4 212.05 581.9 230.7 578.75 247.2 578.75 265.55 578.75 297.2 584.4 329.5 590.45 364 601.6 391.35 606.2 402.65 613.35 414.75 621.05 428.15 628.25 436.45 L 647.8 455.6 Q 656.2 462.45 668.2 468.5 687.85 478.35 712.15 480.4 734.3 482.15 758.15 477.35 769.4 475.2 781.9 471.1 794.85 466.85 804.65 461.85 L 810.4 458.8 Q 816.25 455.5 820.55 450.9 826.3 444.85 826.3 439.1 826.3 434.2 825.45 432.15 823.7 429.35 822 426.6 L 780.1 360.1 Q 741.05 297.4 721.45 267 L 670.95 186.95 Z"/>
<path fill="#F6303F" stroke="none" d="M 658.15 83.15 Q 656.6 83.15 651.5 85.2 645.85 87.65 644.3 88.2 L 635.6 92.3 Q 620.65 99.85 609.6 107.05 599.95 113.6 585.3 125.3 578.75 130.5 568.9 140.85 559.2 150.9 553.95 157.95 L 543.2 172.8 Q 521.8 204.9 511.3 243 509.6 248.95 506.2 263.5 503.25 276.4 501.2 298.45 499.25 318.9 499.25 332.95 L 499.25 344.95 Q 499.25 346.2 499.45 348.35 499.75 350.3 499.65 351.9 499.65 360.2 501.5 378.65 502.95 393.6 504.55 404.35 505.2 408.6 506.5 416.75 512.75 449.05 513.25 451 517.9 469.35 527.3 481.95 533.45 490.05 542.45 495.45 559.3 505.4 582.55 498.65 590.4 496.3 596.15 492 601.8 487.8 605.2 480.8 608.95 473.1 608.95 464.2 608.95 454.6 608.25 449.55 607.55 444.15 604.95 435.3 602 425.2 597.2 415.55 590.95 403.15 583.65 381.45 L 575.9 355.1 Q 561.45 297 568.9 244.05 576.9 186.75 609.8 142.9 L 623.95 125.6 Q 624.95 124.65 626.1 123.1 L 644.1 105.5 658.75 93.4 Q 659.7 92.8 661.35 91.45 662.85 90.25 663.05 89.85 663.25 89.5 663.25 87.45 663.25 85.65 661.65 84.4 660.1 83.15 658.15 83.15 Z"/>
</g>
</defs>
<g transform="matrix(1,0,0,1,0,0)">
<use xlink:href="#l3"/>
</g>
<g transform="matrix(1,0,0,1,0,0)">
<use xlink:href="#l2"/>
</g>
<g transform="matrix(1,0,0,1,0,0)">
<use xlink:href="#l1"/>
</g>
<g transform="matrix(1,0,0,1,0,0)">
<use xlink:href="#l0"/>
</g>
</svg>
