<svg xmlns="http://www.w3.org/2000/svg" xmlns:xlink="http://www.w3.org/1999/xlink" width="100%" height="100%" viewBox="0 0 1024 484">
<!-- Vectorization by Rodrigo Polo https://github.com/rodrigopolo/logotipos-politicos -->
<defs>
<g id="l0">
<path fill="#10177C" stroke="none" d="M 322.85 16.85 L 278.3 16.85 229.7 203.15 Q 226.7 211.35 221.1 216.9 215.5 222.5 209.2 223.15 L 146 223.15 Q 139.75 222.5 134.2 216.9 128.55 211.35 125.5 203.15 L 76.9 16.85 32.35 16.85 82.6 217.75 Q 86.95 236.05 100.15 250.9 115.2 267.05 133.1 267.7 L 222.2 267.7 Q 240.05 267.05 255.1 250.9 268.35 236.05 272.65 217.75 L 322.85 16.85 M 653.4 61.4 L 653.4 16.85 441.15 16.85 Q 373.15 19.25 370.7 87.3 L 370.7 197.45 Q 373.15 265.25 441.15 267.7 L 653.4 267.7 653.4 223.15 443.85 223.15 Q 416 222.3 415.25 194.55 L 415.25 164.5 653.4 164.5 653.4 119.95 415.25 119.95 415.25 90 Q 416 62.25 443.85 61.4 L 653.4 61.4 M 923.95 33.3 Q 908.85 17.2 891 16.55 L 801.9 16.55 Q 784 17.2 768.9 33.3 755.75 48.1 751.35 66.5 L 701.2 267.4 745.75 267.4 794.35 81.15 Q 797.25 73 802.95 67.3 808.65 61.7 814.8 61.1 L 878.05 61.1 Q 884.3 61.75 889.85 67.3 895.6 73.1 898.5 81.15 L 908.75 119.95 802.95 119.95 791.3 164.5 920.4 164.5 947.1 267.4 991.65 267.4 941.5 66.5 Q 937.15 48.1 923.95 33.3 Z"/>
<path fill="#B6151B" stroke="none" d="M 219.75 371.65 Q 224.3 364.9 231.65 360.85 238.95 356.8 249.95 356.8 262.8 356.8 270.2 363.25 277.75 369.65 280.25 381.35 L 301.25 381.35 Q 300.2 370.1 295.6 362.45 291 354.55 284.05 349.2 276.9 344 267.85 341.35 258.65 338.95 248.1 338.95 233.85 338.95 222.7 344.05 211.85 349.3 204.65 358.15 197.3 366.95 193.85 379.15 190.3 391.25 190.3 404.8 190.3 418.45 193.85 430.2 197.7 441.65 204.9 449.95 212.1 458.25 222.95 462.85 233.7 467.5 247.85 467.5 271.25 467.5 285.05 455.05 298.5 442.65 301.85 419.95 L 281.35 419.95 Q 279.45 434 271.05 441.85 262.45 449.95 247.6 449.95 238.1 449.95 231.05 445.9 224.3 442.35 220 435.85 215.75 429.75 213.5 421.6 211.65 413.4 211.65 404.8 211.65 395.75 213.5 387 215.55 378.2 219.75 371.65 M 517 341.95 L 497.85 341.95 497.85 464.8 518.1 464.8 518.1 395.35 Q 518.1 386.75 520.55 380 522.65 372.95 527.3 367.85 531.55 362.5 538.35 359.75 545.25 356.8 554.55 356.8 566.2 356.8 572.95 363.55 579.7 370.3 579.7 381.6 L 579.7 464.8 599.6 464.8 599.6 384.05 Q 599.6 373.85 597.75 365.65 595.65 357.7 590.7 351.65 585.65 345.7 577.5 342.2 569.75 338.95 557.25 338.95 530 338.95 517.6 361.35 L 517 361.35 517 341.95 M 397.7 338.95 Q 387.2 338.95 377.95 341.1 368.85 343.35 361.75 348.1 354.7 353.05 350.45 360.85 346.2 368.65 345.55 380.25 L 365.8 380.25 Q 366.6 366.5 375.25 361.6 383.7 356.8 396.6 356.8 L 406.05 357.55 Q 410.95 358.4 415 360.25 418.6 362.35 421.4 366.5 423.85 370.55 423.85 377.3 423.85 383.05 420.65 385.9 417.05 389 411.45 390.55 L 367.15 398.9 Q 359.6 401.05 353.9 405.1 348.05 409.4 344.45 415.9 341 422.7 341 433.15 341 442.5 343.95 449.1 347.1 455.6 352.9 459.65 358.2 463.65 365.8 465.55 373.1 467.5 381.5 467.5 394.3 467.5 405.55 463.15 416.35 458.75 424.95 448.6 424.95 458.6 429.5 463.15 434.25 467.5 442 467.5 451.15 467.5 456.5 464.2 L 456.5 448.6 450.35 449.65 Q 445.5 449.65 444.7 446.15 L 443.85 435.85 443.85 372.7 Q 443.85 362.2 439.8 355.45 435.75 348.7 429.25 345.15 422.3 341.35 414.4 340.3 L 397.7 338.95 M 423.6 421.85 Q 423.6 426.2 421.4 431.05 419.35 435.85 415 439.9 410.4 443.95 403.1 446.95 396.1 449.65 386.05 449.65 L 377.2 448.6 Q 372.6 447.65 369.6 445.6 366.4 443.45 364.2 439.9 362.35 436.7 362.35 431.55 362.35 424.05 365.8 419.65 369.15 415.1 374.75 412.9 380 410.6 386.9 409.45 L 413.65 405.4 Q 419.85 404.3 423.6 401.35 L 423.6 421.85 M 825.4 294.95 L 805.35 294.95 805.35 464.8 825.4 464.8 825.4 294.95 M 720.3 340.3 L 703.55 338.95 Q 693.1 338.95 683.85 341.1 674.75 343.35 667.65 348.1 660.65 353 656.3 360.85 652 368.8 651.45 380.25 L 671.7 380.25 Q 672.5 366.5 681.15 361.6 689.6 356.8 702.55 356.8 L 712 357.55 Q 716.85 358.4 720.9 360.25 724.65 362.45 727.35 366.5 729.75 370.6 729.75 377.3 729.75 383.1 726.5 385.9 723.05 388.95 717.4 390.55 L 673.05 398.9 Q 665.65 401 659.85 405.1 653.9 409.4 650.4 415.9 646.85 422.75 646.85 433.15 646.85 442.25 649.9 449.1 653.05 455.65 658.8 459.65 664.15 463.7 671.7 465.55 678.9 467.5 687.35 467.5 700.2 467.5 711.45 463.15 722.35 458.7 730.9 448.6 730.9 458.7 735.45 463.15 740.1 467.5 747.9 467.5 757.1 467.5 762.45 464.2 L 762.45 448.6 756.2 449.65 Q 751.4 449.65 750.6 446.15 L 749.8 435.85 749.8 372.7 Q 749.8 362.2 745.75 355.45 741.7 348.7 735.15 345.15 728.2 341.35 720.3 340.3 M 729.55 401.35 L 729.55 421.85 Q 729.55 425.95 727.35 431.05 725.2 435.85 720.9 439.9 716.3 443.95 708.95 446.95 702.05 449.65 691.95 449.65 L 683.1 448.6 Q 678.55 447.7 675.55 445.6 672.3 443.45 670.15 439.9 668.25 436.7 668.25 431.55 668.25 423.95 671.7 419.65 674.9 415.1 680.6 412.9 685.9 410.6 692.75 409.45 L 719.55 405.4 Q 725.65 404.3 729.55 401.35 Z"/>
</g>
</defs>
<g transform="matrix(1,0,0,1,0,0)">
<use xlink:href="#l0"/>
</g>
</svg>
