<svg xmlns="http://www.w3.org/2000/svg" xmlns:xlink="http://www.w3.org/1999/xlink" width="100%" height="100%" viewBox="0 0 1024 230">
<!-- Vectorization by Rodrigo Polo https://github.com/rodrigopolo/logotipos-politicos -->
<defs>
<g id="l2">
<path fill="#212021" stroke="none" d="M 313.45 153.5 L 273.95 5.95 10.35 76.55 49.85 224.15 313.45 153.5 Z"/>
</g>
<g id="l1">
<path fill="#FFFFFF" stroke="none" d="M 116.2 73.6 Q 104.4 67.7 93.45 70.65 L 29.15 87.9 60.35 204.65 128.1 186.6 Q 139.1 183.25 145.6 172.25 152.75 160.55 149.3 148.8 146.25 137.3 139.7 131 132.65 124.2 122.2 123.95 L 119.9 124.6 Q 128.85 119.4 131.65 110.2 134.1 102.1 131.4 91.1 128.45 79.65 116.2 73.6 M 92.8 93.8 Q 97.4 93.05 101.1 95.45 104.95 97.8 106.7 103 107.75 108.15 105.75 112.45 104.15 115.5 101.35 117.05 L 99.35 118 66.85 126.65 60.35 102.6 92.8 93.8 M 79.75 175.35 L 72.9 149.4 106.35 140.45 Q 111.45 139.2 116.05 141.85 120.55 144.7 122.35 150.2 123.45 155.55 120.95 160.5 118.85 164 115.65 165.65 L 114.8 165.9 Q 114 166.3 113.35 166.5 L 79.75 175.35 M 168 175.75 L 191.45 169.5 160.2 52.9 136.8 59.15 168 175.75 M 269.55 46.5 L 263.8 25.05 169.4 50.25 175.15 71.8 210.3 62.45 235.85 157.6 259.25 151.3 233.8 56 269.55 46.5 Z"/>
</g>
<g id="l0">
<path fill="#EF4137" stroke="none" d="M 362.8 144.3 L 359.35 140.35 325.6 149.5 Q 330.65 158.9 339.15 167.45 344.2 172.45 349 175.9 353.95 179.55 359.55 182.35 368.55 186.75 378.35 188.5 380.95 189.05 383.75 189.3 388.1 189.9 393.1 189.9 400.7 189.9 407.9 188.5 430.15 184.45 447.15 167.45 464.75 149.9 468.5 126.9 469.5 120.4 469.5 113.5 L 469.5 110.4 435.4 119.65 Q 433.7 133.85 423.1 144.3 410.8 156.8 393.05 156.8 L 392.65 156.8 Q 387.85 156.8 383.75 155.95 372.2 153.5 362.8 144.3 M 414.8 77.3 L 442.55 55.05 Q 421.55 37.05 393.1 37.05 L 392.65 37.05 Q 367.85 37.3 349 50.95 344.35 54.3 339.15 59.3 317.15 81.5 316.75 112.7 L 316.75 113.5 Q 316.75 133.15 325.45 149.4 L 352.45 127.65 Q 350.4 121.4 350.4 114.1 L 350.4 112.7 Q 350.9 96 362.8 83.85 375.15 71.7 392.65 71.45 L 393.05 71.45 Q 405.05 71.45 414.8 77.3 M 615.7 36.8 L 580.35 36.8 580.35 95.35 514.65 95.35 514.65 36.8 479.35 36.8 479.35 188.5 514.65 188.5 514.65 127.65 580.35 127.65 580.35 188.5 615.7 188.5 615.7 36.8 M 718.9 150.3 Q 709.45 160 694.5 160.5 679.55 160 670.3 150.3 662.3 142.35 661.65 132.4 L 661.65 36.8 626.35 36.8 626.35 136.25 Q 627.1 159.6 644.65 175.1 663.7 191.85 694.5 191.95 725.4 191.85 744.45 175.1 762.1 159.6 762.7 136.25 L 762.7 36.8 727.35 36.8 727.2 134.85 Q 725.9 143.05 718.9 150.3 M 895.25 69.1 L 895.25 36.8 773.1 36.8 773.1 69.1 816.05 69.1 816.05 188.5 851.45 188.5 851.45 69.1 895.25 69.1 M 1013.65 69.1 L 1013.65 36.8 905.65 36.8 905.65 188.5 1013.65 188.5 1013.65 157.05 940.95 157.05 940.95 127.65 1011.75 127.65 1011.75 96.9 940.95 96.9 940.95 69.1 1013.65 69.1 Z"/>
</g>
</defs>
<g transform="matrix(1,0,0,1,0,0)">
<use xlink:href="#l2"/>
</g>
<g transform="matrix(1,0,0,1,0,0)">
<use xlink:href="#l1"/>
</g>
<g transform="matrix(1,0,0,1,0,0)">
<use xlink:href="#l0"/>
</g>
</svg>
