<svg xmlns="http://www.w3.org/2000/svg" xmlns:xlink="http://www.w3.org/1999/xlink" width="100%" height="100%" viewBox="0 0 1024 300">
<!-- Vectorization by Rodrigo Polo https://github.com/rodrigopolo/logotipos-politicos -->
<defs>
<linearGradient id="g1" gradientUnits="userSpaceOnUse" x1="93.025" y1="9.3125" x2="281.275" y2="459.9875" spreadMethod="pad">
<stop offset="0%" stop-color="#EF1970"/>
<stop offset="14.117647058823529%" stop-color="#F23B5C"/>
<stop offset="43.92156862745098%" stop-color="#F77D35"/>
<stop offset="69.80392156862744%" stop-color="#FCAD18"/>
<stop offset="89.01960784313725%" stop-color="#FECB07"/>
<stop offset="100%" stop-color="#FFD600"/>
</linearGradient>
<g id="l2">
<path fill="#FFFFFF" stroke="none" d="M 363.95 100.2 Q 361.35 100.5 360.05 100.7 357.8 101 356.25 101.35 352.25 102.35 348.6 104.4 342.95 107.55 338.4 113.25 336.6 115.5 335.05 118.4 333.8 120.7 332.4 124.05 331.65 125.85 331.25 127.05 330.4 129.9 329.85 132.4 328.65 137.6 328.15 140.25 327.9 141.5 327.65 143.4 327.55 144.45 327.25 146.6 327.05 148.1 327.05 148.5 L 326.75 164.55 326.95 164.55 Q 326.95 166.8 326.95 171.25 326.9 175.2 326.95 177.9 327.1 184.25 328.95 189.4 331.05 195.05 335.7 200 338.4 202.85 344 208.2 348.8 212.75 352.45 216.05 354.7 218.05 357.75 219.85 360.05 221.2 363.45 222.85 365 223.6 366.15 224 368.1 224.6 371.05 225.3 372.3 225.65 374.8 226.35 377.05 226.9 378.65 227.1 381.2 227.35 384.75 227.5 386.85 227.6 390.95 227.7 395.45 227.9 399.5 226.15 403.5 224.45 407.2 221.7 409 220.4 413.15 217.3 416.95 214.45 419.1 212.9 423.65 209.6 427.5 207.3 430.55 205.5 432.45 202.9 434.8 199.65 435.9 196 436.05 195.5 437.3 191.6 438.2 188.95 438.65 187.2 439 185.8 439.3 183.75 439.65 181.4 439.8 180.2 440.05 179.1 440.1 178.55 440.65 173.5 440.9 171 441.35 166.55 441.5 163.45 441.6 160.9 441.4 157.15 441.15 152.95 441.05 150.85 440.9 147.25 440.35 143 439.95 139.9 439.15 135.2 438.7 132.65 438.4 131.25 437.95 129.05 437.45 127.35 435.85 122.05 433.5 118.2 431 114.1 427.55 110.55 423 105.8 417.45 102.6 414.45 100.9 411.85 100.3 405.8 99 399.85 98.95 382.95 98.95 381.85 99 371.65 99.15 363.95 100.2 M 384.45 115.1 Q 386.6 113.95 389.15 114 391 114 392.25 114.75 394.85 116.3 397.3 118.4 402.15 122.55 405.65 126 407.65 127.9 409.6 130.4 411.15 132.45 413 135.3 414.35 137.3 415.55 140.05 416.2 141.45 417.6 145 418.8 147.95 419.3 151.6 419.65 154.15 419.75 158.35 419.95 163.3 418.3 168.95 417.6 171.5 415.95 174.35 414.45 176.95 413.7 178.25 412.35 180.4 411.1 181.95 407.05 187 402.3 189.95 402.05 190.1 399.25 191.9 397.4 193.1 396.15 193.75 394.55 194.6 392.1 195.7 389.4 196.9 388.05 197.55 384.55 199.15 382.85 199.95 L 380.3 201.15 Q 378.75 201.9 377.75 202.35 376.8 202.75 376.25 202.6 375.75 202.5 375 201.7 369.7 196 367 193.1 362.3 188 359.15 184.4 357.75 182.85 356.25 180.45 354.5 177.65 353.65 176.25 352.2 173.9 351.3 171.65 350.85 170.5 350.4 168.85 349.95 166.9 349.7 165.95 349.45 165.15 349.25 163.65 348.7 158.65 350.35 153.25 351.8 148.55 353 146 354.35 143.15 357.3 138.55 361.4 132.1 368.35 125.75 373.2 121.3 378.45 118.2 379.65 117.5 381.45 116.6 384.3 115.2 384.45 115.1 M 537.9 20.3 Q 536.3 20.3 535.6 20.3 531.05 20.5 528.2 24.1 527.25 25.3 526.85 27 526.55 28.1 526.45 30.15 526.1 35 526.1 38.7 526.1 43.25 526.6 47.2 526.9 49.35 527.45 53.65 527.95 57.3 528.6 60 528.7 60.3 529.05 61.4 529.3 62.25 529.4 62.8 530.05 68.8 531.2 72.75 531.6 74.05 531.85 75.75 532 76.85 532.2 78.8 532.35 80.25 532.4 82.3 532.45 83.5 532.55 85.9 532.6 88.85 532.75 94.8 532.75 95.9 531.75 96.15 529.55 96.65 528.45 96.9 526.15 97.45 525 97.75 522.95 98.2 521.55 98.6 519.95 99.05 517.6 99.8 515 100.6 513.7 101 510.15 102.05 508.45 102.6 506.55 103.2 502.7 104.4 501.7 104.7 501.2 104.85 500.35 105.15 499.75 105.4 493.2 107.95 490.25 109.2 486.35 110.8 484.35 112.05 481.75 113.6 477.95 116.5 470.15 122.35 465.65 129.05 463.75 131.85 462.95 134 461.9 136.65 461.25 140.05 460.35 144.7 460 148.9 459.55 153.4 458.85 163.95 458.8 165.05 458.7 167.35 458.6 169.6 458.5 170.75 458.45 171.7 458.1 174.9 457.85 177.45 457.75 179.05 457.65 180.85 457.7 183.55 457.7 185.05 457.75 188.1 L 457.65 188.1 Q 457.65 193.9 457.65 194.65 457.6 198.25 458.5 201.7 459.3 204.5 459.8 205.8 460.7 207.95 462.1 209.4 463.95 211.3 467.75 215.05 471.5 218.75 476.95 221.6 477.7 222 479.15 222.75 480.4 223.45 481.4 223.85 483.2 224.6 486.7 225.7 487.6 225.95 489.35 226.5 490.9 226.9 492.05 227.1 493.85 227.35 497.2 227.7 500.75 228.1 502.4 228.3 508.6 229.2 516.85 229.2 521.25 229.2 543.35 229.2 543.65 229.2 544.1 229.25 544.6 229.3 544.85 229.3 545.1 229.3 545.65 229.35 546.15 229.3 546.5 229.25 550.3 228.15 553.5 227.15 555.15 226.65 558.35 225.55 559.15 225.3 560.8 224.75 562.25 224.3 563.3 224.05 564.55 223.7 564.9 223.35 565.25 222.95 565.2 221.7 565.05 215.55 564.95 212.45 564.75 204.1 564.65 197.45 564.5 185.9 564.4 180.15 564.35 179.35 564.35 168.4 564.35 161.3 563.95 156.6 563.7 153.2 563.55 148.3 563.45 142.7 563.35 139.95 563.25 133.1 563.15 129.65 563 123.6 562.5 119.4 562.35 117.95 562.3 115.8 562.25 113.4 562.2 112.2 562.05 108.75 562 107.05 561.9 104 561.75 101.9 561.55 98.95 561.15 94.35 560.6 87.8 560.5 86.85 560.3 82.55 560 80.4 559.55 76.7 558.1 66.55 557.25 60.55 556.9 58.65 556.65 57.1 556 54 555.35 50.9 555.05 49.35 554.75 47.65 554.4 45.2 554 42.4 553.8 41 553.8 40.9 553.6 40.1 552.15 33.75 551.8 32.3 551.1 29.45 550.45 27.4 549.95 25.9 549.35 25.1 547.45 22.7 545.45 21.55 543.05 20.2 540.25 20.3 539.45 20.35 537.9 20.3 M 534.5 129.1 Q 537.1 132.95 537 137.5 537 138.75 537.2 140.9 537.45 143.35 537.5 144.25 537.55 146.35 537.6 150.5 537.65 154.65 537.7 156.7 537.8 158.95 538 162.25 538.1 164.05 538.3 167.75 L 538.35 168.3 Q 538.55 182.15 538.55 185.6 538.55 186.4 538.4 187.6 538.3 188.2 538.1 189.55 538.05 190.05 537.85 191.1 537.7 192 537.7 192.65 537.6 195 536.55 195.75 535.45 196.6 532.95 197.05 532.35 197.2 531.35 197.15 530.25 197.1 529.7 197.1 L 529.65 197.25 Q 527 197 525.65 196.9 523.25 196.65 521.6 196.45 515 195.7 511.75 195.15 510.3 194.9 508.15 194.35 504.7 193.5 504.6 193.45 501.7 192.9 500.3 192.5 498.8 192.1 496.5 191.4 493 190.35 492.65 190.25 L 489.2 189.2 Q 487.6 188.7 487.6 187.2 487.6 184.5 487.6 183.15 487.6 180.75 487.75 179.1 488 177.05 488.45 174.45 488.75 172.95 489.4 169.9 490.4 165.15 491.7 160.15 491.95 159.2 492.5 157.8 493.15 156.25 493.4 155.5 494.35 152.9 494.8 151.6 495.25 150.45 495.8 149.55 496.6 148.2 498.2 145.4 499.6 143 500.7 141.35 503.15 137.8 507.45 135.05 508 134.65 512.05 132 514.85 130.15 516.7 129.05 517.75 128.45 519.6 127.75 521.8 126.9 522.5 126.55 523.85 125.95 525.5 125.7 526.75 125.5 528.55 125.55 530.5 125.55 532.05 126.55 533.4 127.4 534.5 129.1 M 667.9 82.55 Q 666.85 82.25 665.45 82.1 664.9 82 663 81.85 658.9 81.45 654.65 83.35 650.95 85.05 648.6 88.75 646.25 92.5 645.15 95.85 644.65 97.3 643.85 99.15 643.35 100.2 642.35 102.35 641.8 103.5 640.1 107.15 638.7 110.15 637.9 112 636.45 115.25 635.95 118.3 635.7 119.6 635.4 122.3 635.05 124.65 634.2 126.2 633.55 127.4 633.2 127.55 632.8 127.75 631.7 127.05 631.2 126.75 630.85 126.45 628.1 124.05 626.7 122.85 624.25 120.75 622.65 119.2 621.5 118.15 619.7 116.15 617.65 113.9 616.8 113.05 612.7 109.05 611.25 107.65 608.1 104.6 605.6 102.35 601.9 98.95 596.3 94.75 595.3 93.95 593.6 92.95 591.7 91.85 590.75 91.3 585.8 88.3 580.85 88.9 577.25 89.35 575.4 91.95 573.55 94.5 572.95 98.2 571.85 104.85 575.3 111.2 577.7 115.7 581.95 121.65 584.55 125.3 589.4 131.05 593.75 136.1 595.4 138.05 598.8 141.95 601.55 144.95 605.2 148.9 608.3 151.7 612.05 155.15 615.7 157.7 618.55 159.7 619.95 160.55 622.4 162.05 624.55 162.85 626.2 163.5 626.15 165.35 L 626 168.8 Q 625.95 170.85 625.85 172.2 625.75 173.6 625.35 174.9 624.15 178.75 623.45 180.55 622.1 183.9 619.2 190.6 616.8 196.35 615.65 199.25 615 200.75 614.6 202.2 614.4 202.8 613.8 205.05 613.35 206.8 613 207.85 611.25 213.35 611.2 218.5 611.15 221.15 611.35 223 611.55 225.45 612.15 227.45 612.7 229.1 614.3 230.55 615.95 232 617.6 232.15 621.45 232.55 624.65 231.9 628.25 231.15 631.2 229.15 633.2 227.8 633.8 227.35 635.15 226.2 635.8 224.9 636.3 223.95 638.35 220 639.95 217 640.85 215.1 643.7 209.1 644.05 208.35 645.7 204.5 646.45 201.3 646.65 200.35 647.1 199 647.6 197.45 647.8 196.65 648.35 194.85 648.6 193.95 649.05 192.35 649.35 191.25 649.6 190.05 650 188.05 650.5 185.6 650.65 184.85 651.8 179.7 652.35 177.15 652.45 176.8 652.55 176.05 652.65 175.35 652.75 175 653.95 169.75 654.5 167.6 655.25 164.45 655.85 162.35 656.1 161.45 656.65 159.65 657.25 157.85 657.5 156.95 657.85 155.65 658.5 153.3 659.15 150.7 659.45 149.65 659.65 148.95 660.05 147.75 660.5 146.4 660.7 145.8 662.1 140.75 662.85 138.25 663.2 137.05 663.85 135.15 664.7 132.65 664.9 132.05 665.75 129.1 666.3 127.65 666.7 126.5 667.7 123.9 668.6 121.5 669.1 120.15 669.85 117.95 671.4 113.1 672.65 109.3 673.05 107.95 673.35 106.75 673.8 104.75 674.35 102.35 674.55 101.5 675.4 97.9 675.45 95 675.45 91.6 674.3 88.6 672.45 83.75 667.9 82.55 M 765.45 83.55 Q 761.8 82.95 755.2 82.5 753.75 82.4 751.6 82.45 749.15 82.5 747.95 82.5 744 82.2 739 82.6 736.15 82.8 730.15 83.55 725.3 84.15 719.1 86.3 717.2 86.95 715.1 88.05 713.7 88.8 711.4 90.3 709.25 91.65 707 93.65 705.2 95.2 703 97.5 699.65 100.9 697.15 105.35 696.6 106.35 695.95 107.7 695.9 107.85 694.85 110.1 693.7 112.75 693.3 114.05 692.35 117.1 691.7 120.15 691.4 121.6 690.75 124.45 690.2 126.95 690.05 128.75 689.8 132.2 689.65 137.05 689.55 139.85 689.4 145.35 L 689.05 170.8 Q 689.05 171.45 689.35 171.75 689.6 172.1 690.3 172.25 691.75 172.6 695.35 173.7 696.25 174 703.5 176.35 705.5 177.05 707.35 177.65 709.1 178.25 712.55 179.45 713.3 179.7 715 180.25 716.65 180.75 717.5 181.05 718.2 181.25 719.7 181.8 721.1 182.35 721.85 182.6 722.8 182.9 725.25 183.7 727.35 184.35 728.6 184.8 730.35 185.4 732.15 186.3 732.35 186.45 732.5 186.8 732.7 187.15 732.65 187.4 732.65 187.6 732.35 187.8 732.05 187.95 731.75 188.05 731.3 188.2 729.35 188.55 726.85 189.1 725.6 189.4 723.45 189.85 721.9 190 719.9 190.2 716.9 190.3 712.1 190.5 711.85 190.5 708.1 190.6 706.25 190.7 702.95 190.85 700.7 191.1 697.35 191.5 695.2 192.8 692.6 194.35 691.45 197.25 690.85 198.75 690.85 200.5 690.85 202.45 690.9 203.15 691 204.7 691.35 205.75 693.25 211.6 699.65 214.8 701.5 215.75 702.25 216.05 703.7 216.7 705 216.95 705.5 217.05 708.8 217.85 711.15 218.4 712.7 218.55 716.15 218.9 718.45 219.05 721.65 219.15 724.3 218.95 725.85 218.85 728.95 218.6 731.65 218.35 733.6 217.95 738.1 216.95 739.55 216.6 742.85 215.75 745.35 214.7 748.4 213.4 749.7 212.75 752.1 211.65 753.95 210.5 758.45 207.75 762.1 204.1 765.15 201.05 766.75 197.75 768.55 194.1 768.65 190.05 768.7 189.4 768.7 189.05 768.9 184.6 768.6 181.75 768.15 177.8 766.7 174.6 764.05 168.75 758.05 165.05 756.6 164.15 754.4 163.1 751.95 161.95 750.7 161.3 749.35 160.65 748.1 160.25 747.25 159.95 746 159.55 744.6 159.15 743.9 158.9 L 732.2 155.15 Q 732.15 155.1 728.2 153.9 725.8 153.2 724.25 152.6 721.7 151.65 717.45 149.5 715.9 148.7 715.65 147.1 715.3 144.95 715.8 142.45 716.15 140.75 717.15 138.1 718.45 134.6 720.7 130.7 723.4 125.9 725.9 122.65 727.2 121 729.1 118.95 729.75 118.25 732.5 115.4 737.35 110.35 742.05 107.65 743.1 107.05 743.95 107 747.9 106.8 749.35 106.85 752.35 106.85 754.7 107.4 758.8 108.3 764.7 108.15 767.1 108.05 769.15 106.55 771.45 104.9 771.85 102.45 771.95 101.7 772.1 100.1 772.2 98.6 772.35 97.8 772.85 95 772.3 91.25 771.9 88.4 770.05 86.25 768.1 84 765.45 83.55 M 827.2 78.5 Q 823.4 79.75 820.95 81.05 817.7 82.8 813.6 85.65 808.8 89.05 805.35 92.15 801.15 95.9 798.2 99.85 796.3 102.35 795.05 104.4 793.55 106.95 792.65 109.35 792.45 110.05 791.9 111.3 791.35 112.6 791.15 113.25 790.4 115.25 790.35 115.5 789.9 116.75 789.7 117.75 789.45 119.15 789.05 121.7 788.65 124.5 788.4 125.65 787.45 130.9 787.35 134.8 787.35 136.75 787.15 139.25 787.15 139.9 786.85 143.7 786.75 145 786.55 146.85 786.45 147.85 786.25 149.75 L 786.9 159.35 Q 786.95 160 787 161.25 787.1 162.35 787.2 163.1 788.1 169.65 788.8 173.8 789.15 176.25 789.85 178.65 790.3 180.2 791.55 183.75 791.95 184.8 792.7 186.95 793.35 188.8 794.05 190 795.9 193.45 799.1 198.15 803.25 204.1 810.55 208.6 813 210.1 814.75 211 817.1 212.2 819.25 212.85 820 213.05 822.5 213.9 824.5 214.55 825.75 214.85 826.95 215.2 828.7 215.55 829.7 215.75 831.7 216.15 833.7 216.6 834.8 216.7 836.85 216.85 842.85 217.1 843.85 217.15 845.95 217.3 847.75 217.4 849.05 217.35 850.35 217.3 852.8 217.1 855.4 216.85 856.6 216.8 860.85 216.65 863.85 216.3 867.75 215.8 871 214.9 875.9 213.5 877.65 208.8 878.55 206.4 878.6 203.6 878.65 201.15 878.05 198.25 877.8 197.1 877.35 195.85 876.55 193.65 874.95 192.4 873.75 191.45 872.05 191.1 870.9 190.85 868.95 190.8 865.65 190.65 861.6 191.15 856.2 191.85 850.65 191.15 847.65 190.75 845.95 190.1 845.25 189.85 843.55 189.4 842 189 841.2 188.7 835.35 186.25 830.65 183.1 823.35 178.25 819.2 169.6 818.5 168.05 820.2 167.85 822.1 167.6 825.7 167.15 L 836.6 165.95 Q 840.95 165.4 845.15 164.85 845.45 164.8 845.95 164.65 L 847.95 164.05 Q 853.4 162.55 853.8 162.45 855.25 162.05 855.35 162 856.2 161.75 856.8 161.45 860.6 159.8 862.6 158.75 868.1 155.8 871.15 153.85 874.1 152 877.65 149.2 879 148.1 879.85 147.3 881.05 146.25 881.8 145.2 884 142.35 885.25 139.75 886.75 136.65 887.1 133.55 887.5 130.25 887.65 128.6 887.9 125.15 888.05 123.45 888.25 120.95 888.35 119.65 888.5 117.4 888.5 115.9 888.55 114.65 888.35 112.7 888.1 110.05 888.05 109.5 887.65 102.45 883.65 97.5 880.65 93.8 877 90 872.65 85.55 869.75 83.2 865.5 79.75 861.25 78 859.55 77.3 858.4 76.95 856.8 76.45 855.5 76.35 849.2 75.75 847.75 75.65 843.3 75.4 839.9 75.9 839.45 75.95 837.45 76.15 835.9 76.3 835 76.5 830.65 77.4 827.2 78.5 M 861.35 122.55 Q 861.35 123.15 860.8 123.6 858.4 125.7 857.2 126.75 855.1 128.55 853.5 129.7 852.15 130.7 850.2 131.7 849.4 132.1 846.75 133.4 844.35 134.6 840.85 135.85 837.85 136.9 835.9 137.2 834.7 137.4 832.85 137.55 830.8 137.65 829.75 137.75 827.7 137.85 825.9 137 824.35 136.25 822.75 134.7 821.7 133.6 820.15 132.05 818.45 130.25 817.6 129.35 816.7 128.35 817.75 127.35 L 822.75 122.65 Q 824.6 120.85 828.3 117.2 831.65 113.95 834.05 111.9 835.7 110.45 838.35 108.6 839.85 107.55 842.8 105.55 843.75 104.85 844.85 105.55 850.2 109 853.55 112.85 856 115.7 860.9 121.45 861.4 122 861.35 122.55 M 982.6 88.25 Q 978.5 85.65 974.1 84.85 971 84.25 969.3 84.05 966.65 83.75 964.45 83.85 963.7 83.9 959.15 83.95 955.9 83.95 953.85 84.4 949.75 85.15 947.75 85.6 944.3 86.4 941.9 87.5 938.35 89.15 938.1 89.25 935.95 90.3 934.4 91.25 932.7 92.3 930.6 93.8 929.4 94.7 926.95 96.55 922 100.35 918.35 104.35 914.2 108.75 911.5 113.7 908.7 118.7 907 125.5 906.65 126.7 906.25 129.25 905.85 131.75 905.5 133 904.8 135.65 904.55 139.8 904.2 145.8 904.1 146.65 903.8 148.95 903.85 152.3 903.9 154.2 904 157.95 L 903.85 157.95 Q 903.85 159.25 903.8 161.85 903.8 164.2 903.85 165.75 903.95 167.6 904.2 170 904.35 171.4 904.65 174.2 904.85 175.8 905.3 179 905.55 180.7 905.65 181.15 905.9 182.5 906.2 183.65 907 186.6 907.8 189.3 908 190 908.35 191.4 908.7 192.65 909.1 193.45 911.85 199.35 914 203.1 916.55 207.6 920.8 211.5 927.2 217.35 934.15 220.05 938.85 221.95 941.7 222.75 944.7 223.6 948.75 224.15 953.15 224.75 954.1 224.85 957.15 225.2 959.45 225.2 967.7 225.3 976.55 224.75 983.1 224.3 987.5 223.2 991.5 222.15 993.85 218.85 994.85 217.4 995.2 215.5 995.5 214 995.45 211.9 995.4 210.3 995.15 208.3 995 207.15 994.6 204.65 994.3 202.65 993.05 201.35 991.85 200.1 989.9 199.6 987.45 199 986.8 198.9 985 198.65 983.6 199.15 983.5 199.15 983.3 199.15 983.05 199.15 983 199.15 977.05 199.5 974.1 199.65 968.85 199.95 965 198.75 961.85 197.85 960.3 197.35 958.8 196.95 958.05 196.7 956.8 196.3 955.95 195.85 953.5 194.7 952.65 194.25 950.8 193.3 949.5 192.4 945.7 189.75 942.1 186.45 940.45 184.95 938.8 182.25 937.05 179.15 936.1 177.65 935.5 176.7 936.4 176.2 937.1 175.8 937.65 175.75 940.9 175.4 947.45 174.75 947.9 174.7 948.85 174.55 949.8 174.4 950.25 174.35 950.6 174.35 952.95 174.15 954.6 174.05 955.65 173.9 959.4 173.3 964.35 172.3 968.2 171.45 970.35 170.7 974.15 169.3 979.1 167.2 982.4 165.75 984.2 164.55 986.6 162.9 989.9 160.55 991.8 159.25 995.55 156.5 999 154.1 1001.65 149.2 1002.75 147.2 1003.45 144.65 1004.05 142.6 1004.5 139.85 1004.95 137.15 1005.1 133.8 1005.2 131.75 1005.25 127.7 1005.4 122.5 1005.35 119.9 1005.2 115.4 1004.1 112.1 1002.8 108.2 1000.8 105.65 998.5 102.7 995.15 99.3 991.45 95.45 989.25 93.45 985.8 90.35 982.6 88.25 M 977.7 131.8 Q 974.45 134.65 972.8 136.05 969.9 138.55 967.45 139.7 965.75 140.5 958.6 143.65 955.15 145.15 951.05 145.5 950.35 145.55 949.35 145.55 948.3 145.5 947.85 145.5 945.1 146 942.75 144.9 940.95 144.05 938.85 141.95 937.95 141.05 936.65 139.65 934.75 137.6 934.5 137.35 933.8 136.6 934.6 135.75 934.8 135.5 937.15 133.2 938.4 132 940.8 129.6 942.95 127.5 944.45 126.1 949.75 121.3 955 116.85 956.65 115.5 959.85 113.6 960.2 113.35 960.8 113.35 961.4 113.3 961.7 113.55 967.45 117.25 970.95 121.3 973.3 123.95 977.85 129.35 978.45 130.1 978.4 130.65 978.4 131.2 977.7 131.8 Z"/>
</g>
<g id="l1">
<path fill="url(#g1)" stroke="none" d="M 285.1 149.9 Q 285.1 94.65 246.05 55.6 207 16.55 151.75 16.55 96.55 16.55 57.5 55.6 18.45 94.65 18.45 149.9 18.45 205.1 57.5 244.15 96.55 283.2 151.75 283.2 207 283.2 246.05 244.15 285.1 205.1 285.1 149.9 Z"/>
</g>
<g id="l0">
<path fill="#FFFFFF" stroke="none" d="M 179.65 244.5 Q 180.15 245.25 181.05 245.45 181.95 245.7 182.7 245.2 183.5 244.7 183.7 243.8 183.9 242.9 183.4 242.15 182.95 241.35 182.05 241.15 L 181.95 241.15 Q 181.1 240.95 180.35 241.45 179.55 241.95 179.35 242.8 179.15 243.7 179.65 244.5 M 74.1 195.95 Q 73.45 195.5 72.7 195.65 71.9 195.75 71.45 196.4 71 197.05 71.15 197.85 71.3 198.6 71.95 199.05 72.6 199.45 73.35 199.35 74.1 199.2 74.55 198.55 75 197.9 74.85 197.15 74.7 196.4 74.1 195.95 M 49.2 115.2 Q 48.65 114.35 47.65 114.15 46.7 113.9 45.85 114.45 44.95 115 44.75 116 44.5 116.95 45.05 117.8 45.6 118.7 46.6 118.9 47.55 119.15 48.45 118.6 49.3 118.05 49.55 117.05 49.75 116.1 49.2 115.2 M 69.6 70.15 Q 69.05 70.05 68.55 70.35 68.1 70.65 67.95 71.15 L 67.95 71.2 Q 67.85 71.7 68.15 72.2 68.4 72.65 68.95 72.8 69.5 72.9 70 72.6 70.45 72.3 70.55 71.75 70.7 71.25 70.4 70.75 70.1 70.3 69.6 70.15 M 244.45 108.1 L 243.1 114.7 237.1 117.7 243.7 119.1 246.75 125.05 248.1 118.5 254.05 115.45 247.5 114.1 244.45 108.1 M 227.35 146.4 Q 226.7 145.4 225.55 145.15 224.4 144.85 223.4 145.5 222.4 146.15 222.1 147.3 221.85 148.45 222.5 149.45 223.15 150.45 224.3 150.7 225.45 151 226.45 150.35 227.45 149.7 227.7 148.55 227.95 147.4 227.35 146.4 M 189.15 50.3 Q 188.3 50.85 188.05 51.85 187.8 52.8 188.35 53.7 188.9 54.55 189.9 54.75 190.9 55 191.75 54.45 192.6 53.9 192.85 52.95 193.05 51.95 192.5 51.05 192 50.2 191 50 190 49.75 189.15 50.3 M 247.05 77.5 Q 249.35 68.4 249.45 59.05 238.1 46.9 224.1 37.85 218.15 40.75 214.5 50.65 213.1 54.45 211.55 60.65 210.6 64.25 208.75 72.15 205.3 86.2 197.05 90.1 194.2 91.45 190.55 91.65 186.8 91.6 185.5 91.6 183.65 91.6 182.8 89.85 182.15 88.5 181.05 83.4 179.3 75.65 177.95 70.55 175.35 60.6 171.4 49.45 163.3 26 142.35 25.4 126.1 24.9 104.5 37.8 84.85 49.6 85.75 76 86.1 85.75 89.3 98.6 90.6 103.65 95.25 119.25 93.8 120.6 90.1 122.25 87.75 123.2 81.8 125.35 67.85 130.4 60.65 134.3 47.85 141.15 35.15 151.4 23.4 160.85 19.55 166.6 21.35 181.1 26.3 195 27.95 196.45 29.85 197.45 36.05 200.3 45.05 195.95 53.5 191.9 62.7 182.35 68 177.05 74.5 173.25 88.65 164.1 104.85 158.95 L 112 170.5 Q 120.5 184.65 127.2 197.85 130.9 205.15 129.85 211.1 129.05 216.05 125.1 219.8 122.15 222.65 117.85 224.5 114.6 225.95 113.1 225.95 109.85 225.75 106.3 225.9 99.45 226.2 94.35 228.05 87.3 230.55 84.3 235.75 80.6 242.2 83.3 252.45 86.1 263 94.9 267.7 102.65 271.95 114.4 271.3 124.85 270.75 136.55 266.55 147.4 262.7 156.05 256.95 169.75 247.9 172.55 220.75 173.45 212.25 173.1 202.95 L 172.6 195.35 Q 186.7 193.2 195 205.3 200.45 213.25 202.8 226.35 203.2 228.5 203.6 236.2 203.95 242.95 205 246.65 206.45 252.1 210 255 214.25 258.45 221.8 258.6 226.4 258.65 230.75 257.2 243.3 247.95 253.35 236.1 254.4 234.45 254.5 232.5 249.9 225.25 245.6 216.45 237.1 199.05 235.9 186.3 234.9 176.9 224 165.05 216.4 156.8 204.9 148.25 202.25 146.25 201.8 142.95 201.35 139.65 203.4 137 203.75 136.5 204.3 136 214.25 126.6 224.2 115.55 236.4 102.15 240.55 94.9 244.8 86.55 247.05 77.5 M 166.1 62.5 Q 168.2 68.95 168.3 73.1 168.4 77.6 166.2 80.95 164.05 84.25 159 87.2 154.35 89.9 145.85 93.1 130.05 99.05 121.2 92.45 113.1 86.35 111.95 70.75 110.9 56.8 121.05 48.35 124.2 45.7 128.1 43.9 130.05 43 131.35 42.65 139.8 39.85 145.85 40.2 151.45 40.45 155.45 43.5 158.95 46.15 161.65 51.35 163.8 55.35 166.1 62.5 M 151.3 48.25 Q 150.15 48.25 149.35 49 148.6 49.85 148.6 50.95 148.6 52.1 149.35 52.95 150.35 54.25 151 55.5 151.4 56.2 152.1 56.6 152.8 57 153.6 56.95 154.15 56.9 154.6 56.65 155.65 56.1 156 55 156.35 53.9 155.8 52.85 154.75 50.75 153.2 49 152.4 48.25 151.3 48.25 M 162.2 76.4 Q 162.85 73.65 162.55 70.85 162.25 68.05 161.05 65.5 160.55 64.6 159.65 64.2 158.7 63.85 157.75 64.1 156.65 64.45 156.1 65.5 155.55 66.55 155.9 67.65 156.75 69.45 157 71.45 157.2 73.45 156.7 75.4 156.5 76.55 157.15 77.5 157.8 78.45 158.9 78.65 L 159.45 78.65 Q 160.45 78.65 161.25 78 162 77.4 162.2 76.4 Z"/>
</g>
</defs>
<g transform="matrix(1,0,0,1,0,0)">
<use xlink:href="#l2"/>
</g>
<g transform="matrix(1,0,0,1,0,0)">
<use xlink:href="#l1"/>
</g>
<g transform="matrix(1,0,0,1,0,0)">
<use xlink:href="#l0"/>
</g>
</svg>
