<svg xmlns="http://www.w3.org/2000/svg" xmlns:xlink="http://www.w3.org/1999/xlink" width="100%" height="100%" viewBox="0 0 1024 325">
<!-- Vectorization by Rodrigo Polo https://github.com/rodrigopolo/logotipos-politicos -->
<defs>
<g id="l1">
<path fill="#1B1D21" stroke="none" d="M 374.25 108.85 L 374.25 182.9 Q 374.25 215.4 391.25 226.15 408.3 236.75 428.3 237.45 449.9 237.45 466.9 227.2 475.8 221.75 480 210.85 484.35 199.95 484.35 182.9 L 484.35 108.85 467.4 108.85 Q 460.15 108.85 455.6 113.45 450.95 118.1 450.95 124.8 L 450.95 189.6 Q 450.95 200.75 444.25 206.15 437.6 211.25 428.8 211.25 420.6 211.25 413.9 206.15 407.2 200.85 407.2 189.6 L 407.2 108.85 374.25 108.85 M 354.7 109.4 Q 342.1 109.4 330.05 112.5 318.8 115.25 308.95 122.75 299.35 130.75 293.95 142.8 288.35 155.8 288.35 173.7 L 288.35 235.45 321.8 235.45 321.8 170.65 Q 321.8 156.15 328.5 149.55 335.25 142.8 349.1 142.8 L 359.85 142.8 359.85 109.4 354.7 109.4 M 689.1 160.85 Q 689.1 127.25 671.7 116.55 653.7 105.75 633.1 105.75 622.5 106.65 613 108.85 603.4 111.05 596.05 117.6 587.4 110.6 577 108.35 565.75 105.75 555.9 105.75 536.1 106.55 518.85 117.6 501.85 128.35 501.85 160.85 L 501.85 234.95 534.8 234.95 534.8 154.1 Q 534.8 142.8 541.5 137.65 547.35 132.5 556.4 132.5 565.2 132.5 571.85 137.65 578.55 142.8 578.55 154.1 L 578.55 234.95 612 234.95 612 154.1 Q 612 142.8 618.7 137.65 625.35 132.5 634.1 132.5 642.85 132.5 649.55 137.65 656.25 142.8 656.25 154.1 L 656.25 218.4 Q 656.25 225.65 660.85 230.3 665.5 234.95 672.7 234.95 L 689.1 234.95 689.1 160.85 M 828.1 172.15 Q 828.1 143.7 813.7 124.3 799.8 105.75 777.15 105.75 764.55 105.75 756.05 110.4 745.9 117.2 741.15 125.35 L 741.15 87.25 Q 741.15 80.35 735.95 75.95 731.45 71.3 724.65 71.3 L 708.75 71.3 708.75 179.85 Q 708.75 207.65 725.95 222.75 742.2 237 770.45 237 781.55 237 794.65 232.85 807.1 228.75 813.7 219.95 828.1 201.8 828.1 172.15 M 747.85 143.85 Q 755.55 134.55 768.45 134.55 781.2 134.55 788 144.35 795.15 154.75 795.15 171.1 795.15 189.6 788 199.95 780.3 209.7 767.4 209.7 754 209.7 747.25 199.95 740.6 191.65 740.6 171.1 740.6 154.25 747.85 143.85 M 874.95 76.45 Q 870.3 71.8 863.6 71.8 L 846.6 71.8 846.6 235.45 879.5 235.45 879.5 87.75 Q 879.5 81 874.95 76.45 M 1008.15 195.8 L 984.55 195.8 Q 978.85 195.8 976.25 198.4 973.45 200.5 972.65 201.95 L 970.15 204.6 Q 969.65 205 967.55 206.15 961.25 209.2 953.6 209.2 941.25 209.2 935.1 201.5 928.75 195.15 927.85 179.85 L 1009.7 179.85 Q 1010.3 179.35 1010.3 176.75 L 1010.3 171.6 Q 1010.3 139.85 995.3 122.75 979.15 105.75 951.1 105.75 924.15 105.75 908.9 123.25 893.9 140.6 893.9 170.65 893.9 203.1 908.9 219.5 924.15 237 951.1 237 973.55 237 988.15 226.15 1002.95 215.25 1008.15 195.8 M 934.65 139.7 Q 940.55 133 951.55 133 962.95 133 969.05 139.7 975.1 146.6 975.75 158.75 L 927.4 158.75 Q 928.2 146.1 934.65 139.7 Z"/>
</g>
<g id="l0">
<path fill="#699C39" stroke="none" d="M 256.9 180.4 Q 256.9 170.3 252.85 162.9 256.9 153.7 256.9 145.9 256.9 127.8 238 108.75 220.1 90.75 181.35 68.2 143.4 46.05 118.7 39.3 92.85 32.3 77.35 40.95 70.6 44.75 65.55 51.25 52.75 50.35 43.4 55.85 27.75 64.6 20.6 90.25 13.6 115.25 13.6 159.8 13.6 204.6 20.35 229.35 27.35 255 42.9 263.7 52.35 268.9 61.9 268.9 68.25 279.15 76.85 283.8 92.65 292.75 118.5 285.85 142.85 279.25 181.35 257 219.85 234.8 237.85 216.95 256.9 198.05 256.9 180.4 M 214.25 160.3 Q 214.25 171.5 198.5 188.85 183.45 205.45 161.15 220.2 137.7 235.7 117 241.95 93.7 248.85 80.95 241.6 68.55 234.6 61.55 211.35 55.15 190 55.2 162.4 55.2 134.7 61.8 113.4 68.95 90.1 81.5 83.1 93.7 76.25 116.6 81.55 137.85 86.35 160.8 99.55 183.85 112.8 198.45 128.6 214.4 145.9 214.25 160.3 M 246.65 171.6 Q 248.2 176.15 248.2 180.4 247.85 195.55 230.05 212.55 212.85 229 176.7 249.85 140.85 270.75 118 277.3 94.2 284.2 80.95 276.55 75.25 273.3 71.75 268.35 107.55 263.85 164.95 233.1 225.25 200.85 246.65 171.6 M 247.6 149.55 Q 247.3 152.05 246.65 153.6 226.7 126.6 166.05 91.55 107.9 57.95 75.8 52.25 78.65 50.15 81.5 48.65 94.95 41.15 118.7 48.15 140.85 54.7 177.2 75.45 213.4 96.15 230.7 112.9 248.2 130.1 248.2 145.4 247.95 146.7 247.6 149.55 M 47.55 63.05 Q 52.35 60.3 60.4 59.5 52.6 72.85 48.2 100.95 44.15 127.05 43.9 159.05 43.75 190.65 47.3 217.45 51.2 245.95 58.3 260.1 53.4 259.55 47.55 256.5 33.95 249.05 28 224.95 22.3 202.2 22.3 159.8 22.3 117.45 28.2 94.4 34.2 70.65 47.55 63.05 M 106 130.55 Q 104.65 131.45 104.65 144.35 L 104.65 177.3 Q 104.65 190.35 106.25 191.25 107.8 192.1 119.05 185.55 128.8 179.85 133.45 177.3 143.25 171.6 147.85 169.1 159.05 162.9 159.05 161 159.05 159.15 147.85 152.55 138.1 146.95 133.45 144.35 123.7 138.7 119.05 136.1 107.55 129.65 106 130.55 Z"/>
</g>
</defs>
<g transform="matrix(1,0,0,1,0,0)">
<use xlink:href="#l1"/>
</g>
<g transform="matrix(1,0,0,1,0,0)">
<use xlink:href="#l0"/>
</g>
</svg>
