<svg xmlns="http://www.w3.org/2000/svg" xmlns:xlink="http://www.w3.org/1999/xlink" width="100%" height="100%" viewBox="0 0 1024 275">
<!-- Vectorization by Rodrigo Polo https://github.com/rodrigopolo/logotipos-politicos -->
<defs>
<g id="l2">
<path fill="#FF0000" stroke="none" d="M 335.75 137.45 Q 335.75 87.5 329.25 63.05 323.25 41.35 301.5 35.35 286.85 31.55 232 29.95 L 180.4 28.85 Q 83.7 29.4 59.3 35.35 37.55 41.35 31.55 63.05 25.6 87.5 25.6 137.45 L 26.15 165.7 Q 27.75 197.2 31.55 212.4 37.55 234.1 59.3 240.1 83.7 246.05 180.4 246.05 L 232 245.5 Q 286.85 243.9 301.5 240.1 323.25 234.1 329.25 212.4 335.75 187.95 335.75 137.45 Z"/>
</g>
<g id="l1">
<path fill="#FFFFFF" stroke="none" d="M 149.45 91.3 L 149.45 184.15 229.85 138 149.45 91.3 Z"/>
</g>
<g id="l0">
<path fill="#000000" stroke="none" d="M 998.4 172.75 L 998.4 149.4 Q 998.4 128.25 995.15 115.75 991.9 103.8 983.2 97.8 974.5 91.85 958.75 91.85 936.5 91.85 926.7 105.95 917.45 120.1 917.45 151.05 L 917.45 174.95 Q 917.45 204.8 926.15 218.35 935.95 233.05 958.2 233.05 977.2 233.05 987.55 223.25 997.85 214.05 997.85 195.55 L 997.3 190.7 971.25 189.05 Q 970.15 203.15 968 206.4 965.8 211.85 958.75 211.85 953.85 211.85 951.15 209.15 948.95 205.9 947.9 199.35 L 947.35 172.75 998.4 172.75 M 958.2 112.5 Q 963.65 112.5 965.25 115.75 967.45 117.9 968.5 124.95 969.6 129.85 969.6 145.05 L 969.6 154.85 947.35 154.85 947.9 124.95 Q 948.95 117.9 951.15 115.75 952.75 113.55 958.2 112.5 M 847.4 37.55 L 818.05 37.55 818.05 230.85 843.6 230.85 846.3 217.85 847.4 217.85 Q 851.2 224.9 857.7 228.7 864.8 232.5 873.45 232.5 889.2 232.5 896.3 218.35 903.9 203.15 903.9 173.85 L 903.9 152.1 Q 903.9 130.95 901.15 116.3 897.9 103.25 891.95 97.8 885.95 91.85 875.1 91.85 866.95 91.85 859.35 96.75 852.3 101.6 847.95 109.2 L 847.4 109.2 847.4 37.55 M 852.85 117.35 Q 857.7 113.55 861 113.55 864.8 113.55 868.6 117.35 871.3 121.7 871.85 129.85 L 871.85 195 Q 870.2 204.25 867.5 206.95 865.3 210.75 859.9 210.75 856.1 210.75 852.85 209.15 850.65 208.05 847.4 203.7 L 847.4 126.6 Q 849.05 121.15 852.85 117.35 M 799.6 94.55 L 769.2 94.55 769.2 202.6 Q 766.45 206.95 763.75 209.15 759.95 211.3 756.15 211.3 751.25 211.3 749.1 207.5 747.45 203.7 747.45 194.5 L 747.45 94.55 716.5 94.55 716.5 196.1 Q 716.5 215.65 723 223.8 729.55 233.05 743.1 233.05 762.65 233.05 772.45 214.05 L 773 214.05 775.7 230.85 799.6 230.85 799.6 94.55 M 695.3 69.05 L 725.75 69.05 725.75 44.6 635 44.6 635 69.05 665.45 69.05 665.45 230.85 695.3 230.85 695.3 69.05 M 642.65 94.55 L 611.65 94.55 611.65 202.6 Q 610.05 206.95 606.25 209.15 603.5 211.3 598.65 211.3 593.75 211.3 592.1 207.5 589.95 202.1 589.95 194.5 L 589.95 94.55 559.5 94.55 559.5 196.1 Q 559.5 215.65 566.05 223.8 572.55 233.05 586.15 233.05 605.7 233.05 615.45 214.05 L 616 214.05 618.75 230.85 642.65 230.85 642.65 94.55 M 525.85 98.35 Q 517.15 91.85 501.95 91.85 486.75 91.85 476.95 98.35 467.2 104.35 463.4 117.35 459.05 129.85 459.05 152.65 L 459.05 172.75 Q 459.05 195.55 462.85 207.5 467.2 221.1 475.9 226.5 485.1 233.05 501.4 233.05 516.05 233.05 526.4 227.05 535.65 220.55 539.45 207.5 543.75 193.4 543.75 172.75 L 543.75 152.65 Q 543.75 132.05 539.45 117.9 535.1 103.8 525.85 98.35 M 490 141.25 Q 490 125.5 492.7 120.1 494.9 113 501.4 113 507.9 113 510.1 120.1 512.8 127.15 512.8 141.25 L 512.8 183.6 Q 512.8 198.3 510.1 205.35 507.9 211.85 501.4 211.85 494.9 211.85 492.15 205.35 490 199.35 490 183.6 L 490 141.25 M 466.65 44.6 L 436.25 44.6 416.65 137.45 416.15 137.45 396.6 44.6 366.15 44.6 401.45 170.6 401.45 230.85 431.35 230.85 431.35 170.6 466.65 44.6 Z"/>
</g>
</defs>
<g transform="matrix(1,0,0,1,0,0)">
<use xlink:href="#l2"/>
</g>
<g transform="matrix(1,0,0,1,0,0)">
<use xlink:href="#l1"/>
</g>
<g transform="matrix(1,0,0,1,0,0)">
<use xlink:href="#l0"/>
</g>
</svg>
