<svg xmlns="http://www.w3.org/2000/svg" xmlns:xlink="http://www.w3.org/1999/xlink" width="100%" height="100%" viewBox="0 0 500 200">
<defs>
<g id="l">
<path fill="#000000" stroke="none" d="M 401.8 173.6 Q 401.8 176.25 403.35 178 405.05 179.85 408 179.85 411.15 179.85 413.05 178.2 L 412.2 175.85 Q 410.55 177.35 408.55 177.35 405.8 177.35 405.2 174.4 L 411.1 173.65 412.9 173.1 Q 412.9 170.3 411.45 168.7 410.1 167.25 407.75 167.25 405.15 167.25 403.45 169.1 401.8 170.9 401.8 173.6 M 407.55 169.7 Q 409.3 169.7 409.35 171.95 L 405.1 172.5 Q 405.4 169.7 407.55 169.7 M 373.3 168.7 Q 371.95 167.25 369.6 167.25 367 167.25 365.3 169.1 363.65 170.9 363.65 173.6 363.65 176.25 365.2 178 366.9 179.85 369.85 179.85 373 179.85 374.9 178.2 L 374.05 175.85 Q 372.4 177.35 370.4 177.35 367.65 177.35 367.05 174.4 L 372.95 173.65 374.75 173.1 Q 374.75 170.3 373.3 168.7 M 369.4 169.7 Q 371.15 169.7 371.2 171.95 L 366.95 172.5 Q 367.25 169.7 369.4 169.7 M 388.5 171 Q 388.5 167.25 385.25 167.25 382.8 167.25 380.75 169.5 L 380.75 167.3 377.55 167.8 377.55 179.55 380.85 179.55 380.85 171.95 Q 382.75 170.1 384.05 170.1 385.25 170.1 385.25 172.4 L 385.25 179.55 388.5 179.55 388.5 171 M 392.8 164.65 L 392.8 167.45 390.8 168.1 390.8 169.9 392.65 169.9 392.65 176.15 Q 392.65 177.95 393.7 178.95 394.7 179.85 396.4 179.85 398.7 179.85 400.45 178.55 L 399.55 176.15 Q 398 177.2 397.2 177.2 395.95 177.2 395.95 175.35 L 395.95 169.9 399.65 169.9 399.65 167.55 395.95 167.55 395.95 164.05 392.8 164.65 M 360.9 167.55 L 357.6 167.55 357.6 179.55 360.9 179.55 360.9 167.55 M 360.65 164.4 Q 361.2 163.9 361.2 163.1 361.2 162.25 360.65 161.75 360.1 161.25 359.3 161.25 358.4 161.25 357.85 161.75 357.3 162.25 357.3 163.1 357.3 163.9 357.85 164.4 358.4 164.9 359.3 164.9 360.1 164.9 360.65 164.4 M 349.5 167.25 Q 347.65 167.25 346.55 168.35 L 346.55 160.65 343.25 161.15 343.25 179.2 Q 346 179.85 348.05 179.85 351.3 179.85 353.15 177.8 354.8 175.95 354.8 173.1 354.8 170.55 353.5 168.95 352.05 167.25 349.5 167.25 M 348.9 169.75 Q 350.1 169.75 350.75 170.65 351.45 171.6 351.45 173.3 351.45 175.35 350.5 176.45 349.6 177.55 348.05 177.55 347.25 177.55 346.55 177.3 L 346.55 170.65 Q 347.75 169.75 348.9 169.75 M 289.1 167.25 Q 285.9 167.25 284.1 169.3 282.6 171.05 282.6 173.6 282.6 176.2 284.15 177.95 285.95 179.85 289 179.85 292.25 179.85 294.05 177.65 295.55 175.85 295.55 173.3 295.55 170.8 293.95 169.1 292.15 167.25 289.1 167.25 M 289.05 169.7 Q 290.55 169.7 291.4 170.95 292.15 172.05 292.15 173.65 292.15 175.3 291.3 176.35 290.4 177.4 289.1 177.4 287.6 177.4 286.75 176.15 286 175.05 286 173.35 286 171.75 286.85 170.7 287.75 169.7 289.05 169.7 M 313 161.8 L 309.75 161.8 303.15 179.55 306.5 179.55 307.95 175.6 314.75 175.6 316.15 179.55 319.65 179.55 313 161.8 M 308.95 172.75 L 311.35 166.1 313.7 172.75 308.95 172.75 M 257.7 168.7 Q 256.35 167.25 254 167.25 251.4 167.25 249.7 169.1 248.05 170.9 248.05 173.6 248.05 176.25 249.6 178 251.3 179.85 254.25 179.85 257.4 179.85 259.3 178.2 L 258.45 175.85 Q 256.8 177.35 254.8 177.35 252.05 177.35 251.45 174.4 L 257.35 173.65 259.15 173.1 Q 259.15 170.3 257.7 168.7 M 253.8 169.7 Q 255.55 169.7 255.6 171.95 L 251.35 172.5 Q 251.65 169.7 253.8 169.7 M 279.8 167.55 L 276.5 167.55 276.5 179.55 279.8 179.55 279.8 167.55 M 279.55 164.4 Q 280.1 163.9 280.1 163.1 280.1 162.25 279.55 161.75 279 161.25 278.2 161.25 277.3 161.25 276.75 161.75 276.2 162.25 276.2 163.1 276.2 163.9 276.75 164.4 277.3 164.9 278.2 164.9 279 164.9 279.55 164.4 M 269.65 167.6 Q 268.7 167.25 267.55 167.25 264.6 167.25 262.8 169.3 261.25 171.15 261.25 173.9 261.25 176.45 262.65 178.1 264.1 179.85 266.35 179.85 268.95 179.85 270.05 178 270.15 178.85 270.4 179.75 L 273.45 179.55 Q 272.9 177.35 272.9 175.9 L 272.9 160.65 269.65 161.15 269.65 167.6 M 265.5 170.7 Q 266.3 169.7 267.8 169.7 269.65 169.7 269.65 171.2 L 269.65 175.8 Q 268.6 177.4 267.1 177.4 264.7 177.4 264.7 173.7 264.7 171.75 265.5 170.7 M 216.85 167.55 L 213.55 167.55 210.8 175.4 208 167.55 204.55 167.55 209.2 179.25 208.75 180.25 Q 208.3 181.35 207.15 182.2 206 183.1 204.7 183.3 L 205.7 185.8 Q 207.85 185.6 209.55 183.95 211.05 182.5 211.85 180.45 L 216.85 167.55 M 231.1 161.95 L 226.25 161.95 225.6 179.55 228.85 179.55 229.3 165.8 234.15 179.55 236.35 179.55 241.25 165.75 241.75 179.55 245.05 179.55 244.45 161.95 239.6 161.95 235.35 174.15 231.1 161.95 M 171.9 160.65 L 168.6 161.15 168.6 179.55 171.9 179.55 171.9 160.65 M 189.25 168.35 Q 188.1 169.35 188.1 170.95 188.1 173.05 190.9 174.4 L 192.85 175.3 Q 193.75 175.8 193.75 176.35 193.75 177.35 191.85 177.35 189.9 177.35 188.5 176.1 L 187.8 178.8 Q 189.35 179.85 192 179.85 194.35 179.85 195.7 178.8 197 177.75 197 176.05 197 173.95 194.15 172.6 L 192.25 171.7 Q 191.35 171.2 191.35 170.7 191.35 169.75 193.05 169.75 194.65 169.75 195.95 170.55 L 196.65 167.9 Q 195.3 167.25 193.05 167.25 190.55 167.25 189.25 168.35 M 185.75 173.1 Q 185.75 170.3 184.3 168.7 182.95 167.25 180.6 167.25 178 167.25 176.3 169.1 174.65 170.9 174.65 173.6 174.65 176.25 176.2 178 177.9 179.85 180.85 179.85 184 179.85 185.9 178.2 L 185.05 175.85 Q 183.4 177.35 181.4 177.35 178.65 177.35 178.05 174.4 L 183.95 173.65 185.75 173.1 M 180.4 169.7 Q 182.15 169.7 182.2 171.95 L 177.95 172.5 Q 178.25 169.7 180.4 169.7 M 324.75 169.45 L 324.75 167.3 321.55 167.8 321.55 179.55 324.85 179.55 324.85 171.95 Q 326.7 170.1 327.9 170.1 329.1 170.1 329.1 172.4 L 329.1 179.55 332.4 179.55 332.4 171.9 Q 334.25 170.1 335.4 170.1 336.65 170.1 336.65 172.4 L 336.65 179.55 339.9 179.55 339.9 171 Q 339.9 167.25 336.65 167.25 334.35 167.25 332.2 169.5 331.6 167.25 329.15 167.25 326.8 167.25 324.75 169.45 M 134.5 167.55 L 131.2 167.55 131.2 176.25 Q 131.2 179.85 134.5 179.85 136.95 179.85 139 177.75 139.1 178.6 139.4 179.8 L 142.55 179.5 Q 142 177.35 142 175.9 L 142 167.55 138.75 167.55 138.75 175.35 Q 136.9 177 135.7 177 135 177 134.7 176.4 134.5 175.9 134.5 174.7 L 134.5 167.55 M 148.75 167.3 L 145.55 167.8 145.55 179.55 148.85 179.55 148.85 172.35 Q 150.2 170.35 151.7 170.35 152.25 170.35 152.8 170.6 L 153.35 167.45 Q 152.95 167.25 152.3 167.25 150.25 167.25 148.75 169.75 L 148.75 167.3 M 91.5 161.95 L 88.1 161.95 88.1 179.55 91.4 179.55 91.4 167.25 100 179.55 103.45 179.55 103.45 161.95 100.1 161.95 100.1 174.35 91.5 161.95 M 119.55 168.1 L 119.55 169.9 121.4 169.9 121.4 176.15 Q 121.4 177.95 122.45 178.95 123.45 179.85 125.15 179.85 127.45 179.85 129.2 178.55 L 128.3 176.15 Q 126.75 177.2 125.95 177.2 124.7 177.2 124.7 175.35 L 124.7 169.9 128.4 169.9 128.4 167.55 124.7 167.55 124.7 164.05 121.55 164.65 121.55 167.45 119.55 168.1 M 107.25 168.75 L 108.05 171.1 Q 109.9 169.7 111.85 169.7 112.85 169.7 113.25 170.25 113.5 170.65 113.5 171.65 L 113.5 172.05 Q 106.5 173 106.5 176.75 106.5 178.1 107.5 178.95 108.5 179.85 110.1 179.85 112.6 179.85 113.85 177.95 114.7 179.65 117.2 179.75 L 118.15 177.2 Q 116.8 177.2 116.8 175.75 L 116.8 171.15 Q 116.8 169.1 115.95 168.2 115 167.25 112.75 167.25 109.35 167.25 107.25 168.75 M 113.5 174 L 113.5 175.9 Q 112.2 177.45 111 177.45 109.85 177.45 109.85 176.45 109.85 174.5 113.5 174 M 164.75 171.15 Q 164.75 169.1 163.9 168.2 162.95 167.25 160.7 167.25 157.3 167.25 155.2 168.75 L 156 171.1 Q 157.85 169.7 159.8 169.7 160.8 169.7 161.2 170.25 161.45 170.65 161.45 171.65 L 161.45 172.05 Q 154.45 173 154.45 176.75 154.45 178.1 155.45 178.95 156.45 179.85 158.05 179.85 160.55 179.85 161.8 177.95 162.65 179.65 165.15 179.75 L 166.1 177.2 Q 164.75 177.2 164.75 175.75 L 164.75 171.15 M 158.95 177.45 Q 157.8 177.45 157.8 176.45 157.8 174.5 161.45 174 L 161.45 175.9 Q 160.15 177.45 158.95 177.45 M 435 138.9 Q 433.85 139.9 433.85 141.5 433.85 143.6 436.65 144.95 L 438.6 145.85 Q 439.5 146.35 439.5 146.9 439.5 147.9 437.6 147.9 435.65 147.9 434.25 146.65 L 433.55 149.35 Q 435.1 150.4 437.75 150.4 440.1 150.4 441.45 149.35 442.75 148.3 442.75 146.6 442.75 144.5 439.9 143.15 L 438 142.25 Q 437.1 141.75 437.1 141.25 437.1 140.3 438.8 140.3 440.4 140.3 441.7 141.1 L 442.4 138.45 Q 441.05 137.8 438.8 137.8 436.3 137.8 435 138.9 M 420.25 139.85 Q 418.75 141.6 418.75 144.15 418.75 146.75 420.3 148.5 422.1 150.4 425.15 150.4 428.4 150.4 430.2 148.2 431.7 146.4 431.7 143.85 431.7 141.35 430.1 139.65 428.3 137.8 425.25 137.8 422.05 137.8 420.25 139.85 M 422.9 146.7 Q 422.15 145.6 422.15 143.9 422.15 142.3 423 141.25 423.9 140.25 425.2 140.25 426.7 140.25 427.55 141.5 428.3 142.6 428.3 144.2 428.3 145.85 427.45 146.9 426.55 147.95 425.25 147.95 423.75 147.95 422.9 146.7 M 411.25 141.25 Q 411.25 140.3 412.95 140.3 414.55 140.3 415.85 141.1 L 416.55 138.45 Q 415.2 137.8 412.95 137.8 410.45 137.8 409.15 138.9 408 139.9 408 141.5 408 143.6 410.8 144.95 L 412.75 145.85 Q 413.65 146.35 413.65 146.9 413.65 147.9 411.75 147.9 409.8 147.9 408.4 146.65 L 407.7 149.35 Q 409.25 150.4 411.9 150.4 414.25 150.4 415.6 149.35 416.9 148.3 416.9 146.6 416.9 144.5 414.05 143.15 L 412.15 142.25 Q 411.25 141.75 411.25 141.25 M 401.85 137.85 L 398.65 138.35 398.65 150.1 401.95 150.1 401.95 142.9 Q 403.3 140.9 404.8 140.9 405.35 140.9 405.9 141.15 L 406.45 138 Q 406.05 137.8 405.4 137.8 403.35 137.8 401.85 140.3 L 401.85 137.85 M 384.3 138.1 L 384.3 146.8 Q 384.3 150.4 387.6 150.4 390.05 150.4 392.1 148.3 392.2 149.15 392.5 150.35 L 395.65 150.05 Q 395.1 147.9 395.1 146.45 L 395.1 138.1 391.85 138.1 391.85 145.9 Q 390 147.55 388.8 147.55 388.1 147.55 387.8 146.95 387.6 146.45 387.6 145.25 L 387.6 138.1 384.3 138.1 M 273.45 131.2 L 270.15 131.7 270.15 150.1 273.45 150.1 273.45 131.2 M 262.75 140.8 Q 263 141.2 263 142.2 L 263 142.6 Q 256 143.55 256 147.3 256 148.65 257 149.5 258 150.4 259.6 150.4 262.1 150.4 263.35 148.5 264.2 150.2 266.7 150.3 L 267.65 147.75 Q 266.3 147.75 266.3 146.3 L 266.3 141.7 Q 266.3 139.65 265.45 138.75 264.5 137.8 262.25 137.8 258.85 137.8 256.75 139.3 L 257.55 141.65 Q 259.4 140.25 261.35 140.25 262.35 140.25 262.75 140.8 M 263 146.45 Q 261.7 148 260.5 148 259.35 148 259.35 147 259.35 145.05 263 144.55 L 263 146.45 M 250.3 134.6 L 247.15 135.2 247.15 138 245.15 138.65 245.15 140.45 247 140.45 247 146.7 Q 247 148.5 248.05 149.5 249.05 150.4 250.75 150.4 253.05 150.4 254.8 149.1 L 253.9 146.7 Q 252.35 147.75 251.55 147.75 250.3 147.75 250.3 145.9 L 250.3 140.45 254 140.45 254 138.1 250.3 138.1 250.3 134.6 M 318.55 131.2 L 315.3 131.7 315.3 138.15 Q 314.35 137.8 313.2 137.8 310.25 137.8 308.45 139.85 306.9 141.7 306.9 144.45 306.9 147 308.3 148.65 309.75 150.4 312 150.4 314.6 150.4 315.7 148.55 315.8 149.4 316.05 150.3 L 319.1 150.1 Q 318.55 147.9 318.55 146.45 L 318.55 131.2 M 312.75 147.95 Q 310.35 147.95 310.35 144.25 310.35 142.3 311.15 141.25 311.95 140.25 313.45 140.25 315.3 140.25 315.3 141.75 L 315.3 146.35 Q 314.25 147.95 312.75 147.95 M 287.3 143.65 Q 287.3 140.85 285.85 139.25 284.5 137.8 282.15 137.8 279.55 137.8 277.85 139.65 276.2 141.45 276.2 144.15 276.2 146.8 277.75 148.55 279.45 150.4 282.4 150.4 285.55 150.4 287.45 148.75 L 286.6 146.4 Q 284.95 147.9 282.95 147.9 280.2 147.9 279.6 144.95 L 285.5 144.2 287.3 143.65 M 279.5 143.05 Q 279.8 140.25 281.95 140.25 283.7 140.25 283.75 142.5 L 279.5 143.05 M 293.4 147.9 Q 291.45 147.9 290.05 146.65 L 289.35 149.35 Q 290.9 150.4 293.55 150.4 295.9 150.4 297.25 149.35 298.55 148.3 298.55 146.6 298.55 144.5 295.7 143.15 L 293.8 142.25 Q 292.9 141.75 292.9 141.25 292.9 140.3 294.6 140.3 296.2 140.3 297.5 141.1 L 298.2 138.45 Q 296.85 137.8 294.6 137.8 292.1 137.8 290.8 138.9 289.65 139.9 289.65 141.5 289.65 143.6 292.45 144.95 L 294.4 145.85 Q 295.3 146.35 295.3 146.9 295.3 147.9 293.4 147.9 M 235.2 142.5 Q 237.1 140.65 238.4 140.65 239.6 140.65 239.6 142.95 L 239.6 150.1 242.85 150.1 242.85 141.55 Q 242.85 137.8 239.6 137.8 237.15 137.8 235.1 140.05 L 235.1 137.85 231.9 138.35 231.9 150.1 235.2 150.1 235.2 142.5 M 353.2 134.05 Q 351.5 132.5 348.25 132.5 L 342.4 132.5 342.4 150.1 345.8 150.1 345.8 143.45 348.3 143.45 352.65 150.1 356.65 150.1 351.7 142.6 Q 354.75 141.05 354.75 137.75 354.75 135.45 353.2 134.05 M 345.8 135.35 L 347.7 135.35 Q 351.2 135.35 351.2 137.9 351.2 140.65 347.75 140.65 L 345.8 140.65 345.8 135.35 M 328.15 147.9 Q 325.4 147.9 324.8 144.95 L 330.7 144.2 332.5 143.65 Q 332.5 140.85 331.05 139.25 329.7 137.8 327.35 137.8 324.75 137.8 323.05 139.65 321.4 141.45 321.4 144.15 321.4 146.8 322.95 148.55 324.65 150.4 327.6 150.4 330.75 150.4 332.65 148.75 L 331.8 146.4 Q 330.15 147.9 328.15 147.9 M 328.95 142.5 L 324.7 143.05 Q 325 140.25 327.15 140.25 328.9 140.25 328.95 142.5 M 369.05 143.65 Q 369.05 140.85 367.6 139.25 366.25 137.8 363.9 137.8 361.3 137.8 359.6 139.65 357.95 141.45 357.95 144.15 357.95 146.8 359.5 148.55 361.2 150.4 364.15 150.4 367.3 150.4 369.2 148.75 L 368.35 146.4 Q 366.7 147.9 364.7 147.9 361.95 147.9 361.35 144.95 L 367.25 144.2 369.05 143.65 M 361.25 143.05 Q 361.55 140.25 363.7 140.25 365.45 140.25 365.5 142.5 L 361.25 143.05 M 372.9 139.75 Q 371.1 141.65 371.1 144.3 371.1 146.95 372.85 148.65 374.65 150.4 377.55 150.4 380.6 150.4 381.95 148.9 L 380.95 146.65 Q 379.65 147.9 377.8 147.9 376.3 147.9 375.4 146.85 374.5 145.85 374.5 144.15 374.5 142.35 375.5 141.3 376.45 140.3 377.9 140.3 379.55 140.3 380.8 141.4 L 381.95 139 Q 380.35 137.8 377.65 137.8 374.75 137.8 372.9 139.75 M 101.2 135 Q 98.55 137.65 98.55 141.6 98.55 145.6 101.4 148.05 104.1 150.4 108.35 150.4 110.95 150.4 114.75 149.6 L 114.75 140.5 107.85 140.5 107.85 143.3 111.4 143.3 111.4 147.2 Q 109.95 147.45 108.6 147.45 105.75 147.45 103.95 145.85 102.05 144.15 102.05 141.4 102.05 138.75 103.7 137 105.45 135.15 108.5 135.15 111.25 135.15 113.3 136.35 L 114.6 133.45 Q 112.25 132.15 108.6 132.15 104 132.15 101.2 135 M 151.8 137.8 Q 149.2 137.8 147.5 139.65 145.85 141.45 145.85 144.15 145.85 146.8 147.4 148.55 149.1 150.4 152.05 150.4 155.2 150.4 157.1 148.75 L 156.25 146.4 Q 154.6 147.9 152.6 147.9 149.85 147.9 149.25 144.95 L 155.15 144.2 156.95 143.65 Q 156.95 140.85 155.5 139.25 154.15 137.8 151.8 137.8 M 149.15 143.05 Q 149.45 140.25 151.6 140.25 153.35 140.25 153.4 142.5 L 149.15 143.05 M 125.45 145.9 Q 123.6 147.55 122.4 147.55 121.7 147.55 121.4 146.95 121.2 146.45 121.2 145.25 L 121.2 138.1 117.9 138.1 117.9 146.8 Q 117.9 150.4 121.2 150.4 123.65 150.4 125.7 148.3 125.8 149.15 126.1 150.35 L 129.25 150.05 Q 128.7 147.9 128.7 146.45 L 128.7 138.1 125.45 138.1 125.45 145.9 M 135.55 131.2 L 132.25 131.7 132.25 149.75 Q 135 150.4 137.05 150.4 140.3 150.4 142.15 148.35 143.8 146.5 143.8 143.65 143.8 141.1 142.5 139.5 141.05 137.8 138.5 137.8 136.65 137.8 135.55 138.9 L 135.55 131.2 M 135.55 147.85 L 135.55 141.2 Q 136.75 140.3 137.9 140.3 139.1 140.3 139.75 141.2 140.45 142.15 140.45 143.85 140.45 145.9 139.5 147 138.6 148.1 137.05 148.1 136.25 148.1 135.55 147.85 M 78.6 139.85 Q 77.1 141.6 77.1 144.15 77.1 146.75 78.65 148.5 80.45 150.4 83.5 150.4 86.75 150.4 88.55 148.2 90.05 146.4 90.05 143.85 90.05 141.35 88.45 139.65 86.65 137.8 83.6 137.8 80.4 137.8 78.6 139.85 M 83.55 140.25 Q 85.05 140.25 85.9 141.5 86.65 142.6 86.65 144.2 86.65 145.85 85.8 146.9 84.9 147.95 83.6 147.95 82.1 147.95 81.25 146.7 80.5 145.6 80.5 143.9 80.5 142.3 81.35 141.25 82.25 140.25 83.55 140.25 M 188.3 140.25 Q 189.3 140.25 189.7 140.8 189.95 141.2 189.95 142.2 L 189.95 142.6 Q 182.95 143.55 182.95 147.3 182.95 148.65 183.95 149.5 184.95 150.4 186.55 150.4 189.05 150.4 190.3 148.5 191.15 150.2 193.65 150.3 L 194.6 147.75 Q 193.25 147.75 193.25 146.3 L 193.25 141.7 Q 193.25 139.65 192.4 138.75 191.45 137.8 189.2 137.8 185.8 137.8 183.7 139.3 L 184.5 141.65 Q 186.35 140.25 188.3 140.25 M 189.95 146.45 Q 188.65 148 187.45 148 186.3 148 186.3 147 186.3 145.05 189.95 144.55 L 189.95 146.45 M 172.85 142.5 Q 174.75 140.65 176.05 140.65 177.25 140.65 177.25 142.95 L 177.25 150.1 180.5 150.1 180.5 141.55 Q 180.5 137.8 177.25 137.8 174.8 137.8 172.75 140.05 L 172.75 137.85 169.55 138.35 169.55 150.1 172.85 150.1 172.85 142.5 M 162.95 140.3 L 162.95 137.85 159.75 138.35 159.75 150.1 163.05 150.1 163.05 142.9 Q 164.4 140.9 165.9 140.9 166.45 140.9 167 141.15 L 167.55 138 Q 167.15 137.8 166.5 137.8 164.45 137.8 162.95 140.3 M 207.7 140.05 Q 207.1 137.8 204.65 137.8 202.3 137.8 200.25 140 L 200.25 137.85 197.05 138.35 197.05 150.1 200.35 150.1 200.35 142.5 Q 202.2 140.65 203.4 140.65 204.6 140.65 204.6 142.95 L 204.6 150.1 207.9 150.1 207.9 142.45 Q 209.75 140.65 210.9 140.65 212.15 140.65 212.15 142.95 L 212.15 150.1 215.4 150.1 215.4 141.55 Q 215.4 137.8 212.15 137.8 209.85 137.8 207.7 140.05 M 219.65 139.65 Q 218 141.45 218 144.15 218 146.8 219.55 148.55 221.25 150.4 224.2 150.4 227.35 150.4 229.25 148.75 L 228.4 146.4 Q 226.75 147.9 224.75 147.9 222 147.9 221.4 144.95 L 227.3 144.2 229.1 143.65 Q 229.1 140.85 227.65 139.25 226.3 137.8 223.95 137.8 221.35 137.8 219.65 139.65 M 223.75 140.25 Q 225.5 140.25 225.55 142.5 L 221.3 143.05 Q 221.6 140.25 223.75 140.25 M 73.85 132.5 L 70.5 132.5 70.5 144.9 61.9 132.5 58.5 132.5 58.5 150.1 61.8 150.1 61.8 137.8 70.4 150.1 73.85 150.1 73.85 132.5 M 419.75 108.6 L 416.45 108.6 416.45 120.6 419.75 120.6 419.75 108.6 M 416.7 102.8 Q 416.15 103.3 416.15 104.15 416.15 104.95 416.7 105.45 417.25 105.95 418.15 105.95 418.95 105.95 419.5 105.45 420.05 104.95 420.05 104.15 420.05 103.3 419.5 102.8 418.95 102.3 418.15 102.3 417.25 102.3 416.7 102.8 M 433.85 110.15 Q 432.05 108.3 429 108.3 425.8 108.3 424 110.35 422.5 112.1 422.5 114.65 422.5 117.25 424.05 119 425.85 120.9 428.9 120.9 432.15 120.9 433.95 118.7 435.45 116.9 435.45 114.35 435.45 111.85 433.85 110.15 M 426.65 117.2 Q 425.9 116.1 425.9 114.4 425.9 112.8 426.75 111.75 427.65 110.75 428.95 110.75 430.45 110.75 431.3 112 432.05 113.1 432.05 114.7 432.05 116.35 431.2 117.4 430.3 118.45 429 118.45 427.5 118.45 426.65 117.2 M 449 120.6 L 449 112.05 Q 449 108.3 445.75 108.3 443.3 108.3 441.25 110.55 L 441.25 108.35 438.05 108.85 438.05 120.6 441.35 120.6 441.35 113 Q 443.25 111.15 444.55 111.15 445.75 111.15 445.75 113.45 L 445.75 120.6 449 120.6 M 461.3 109.75 Q 459.95 108.3 457.6 108.3 455 108.3 453.3 110.15 451.65 111.95 451.65 114.65 451.65 117.3 453.2 119.05 454.9 120.9 457.85 120.9 461 120.9 462.9 119.25 L 462.05 116.9 Q 460.4 118.4 458.4 118.4 455.65 118.4 455.05 115.45 L 460.95 114.7 462.75 114.15 Q 462.75 111.35 461.3 109.75 M 457.4 110.75 Q 459.15 110.75 459.2 113 L 454.95 113.55 Q 455.25 110.75 457.4 110.75 M 470.05 108.3 Q 467.55 108.3 466.25 109.4 465.1 110.4 465.1 112 465.1 114.1 467.9 115.45 L 469.85 116.35 Q 470.75 116.85 470.75 117.4 470.75 118.4 468.85 118.4 466.9 118.4 465.5 117.15 L 464.8 119.85 Q 466.35 120.9 469 120.9 471.35 120.9 472.7 119.85 474 118.8 474 117.1 474 115 471.15 113.65 L 469.25 112.75 Q 468.35 112.25 468.35 111.75 468.35 110.8 470.05 110.8 471.65 110.8 472.95 111.6 L 473.65 108.95 Q 472.3 108.3 470.05 108.3 M 371.75 120.6 L 375.05 120.6 375.05 108.6 371.75 108.6 371.75 120.6 M 365.1 113.45 L 365.1 120.6 368.35 120.6 368.35 112.05 Q 368.35 108.3 365.1 108.3 362.65 108.3 360.6 110.55 L 360.6 108.35 357.4 108.85 357.4 120.6 360.7 120.6 360.7 113 Q 362.6 111.15 363.9 111.15 365.1 111.15 365.1 113.45 M 375.35 104.15 Q 375.35 103.3 374.8 102.8 374.25 102.3 373.45 102.3 372.55 102.3 372 102.8 371.45 103.3 371.45 104.15 371.45 104.95 372 105.45 372.55 105.95 373.45 105.95 374.25 105.95 374.8 105.45 375.35 104.95 375.35 104.15 M 403.1 114.8 Q 403.1 117.45 404.85 119.15 406.65 120.9 409.55 120.9 412.6 120.9 413.95 119.4 L 412.95 117.15 Q 411.65 118.4 409.8 118.4 408.3 118.4 407.4 117.35 406.5 116.35 406.5 114.65 406.5 112.85 407.5 111.8 408.45 110.8 409.9 110.8 411.55 110.8 412.8 111.9 L 413.95 109.5 Q 412.35 108.3 409.65 108.3 406.75 108.3 404.9 110.25 403.1 112.15 403.1 114.8 M 387.65 110.6 L 387.65 108.6 378.1 108.6 378.1 111.15 383.4 111.15 377.9 118.6 377.9 120.6 387.9 120.6 387.9 118.05 382.05 118.05 387.65 110.6 M 395.1 110.75 Q 396.1 110.75 396.5 111.3 396.75 111.7 396.75 112.7 L 396.75 113.1 Q 389.75 114.05 389.75 117.8 389.75 119.15 390.75 120 391.75 120.9 393.35 120.9 395.85 120.9 397.1 119 397.95 120.7 400.45 120.8 L 401.4 118.25 Q 400.05 118.25 400.05 116.8 L 400.05 112.2 Q 400.05 110.15 399.2 109.25 398.25 108.3 396 108.3 392.6 108.3 390.5 109.8 L 391.3 112.15 Q 393.15 110.75 395.1 110.75 M 394.25 118.5 Q 393.1 118.5 393.1 117.5 393.1 115.55 396.75 115.05 L 396.75 116.95 Q 395.45 118.5 394.25 118.5 M 352.75 109.25 Q 351.8 108.3 349.55 108.3 346.15 108.3 344.05 109.8 L 344.85 112.15 Q 346.7 110.75 348.65 110.75 349.65 110.75 350.05 111.3 350.3 111.7 350.3 112.7 L 350.3 113.1 Q 343.3 114.05 343.3 117.8 343.3 119.15 344.3 120 345.3 120.9 346.9 120.9 349.4 120.9 350.65 119 351.5 120.7 354 120.8 L 354.95 118.25 Q 353.6 118.25 353.6 116.8 L 353.6 112.2 Q 353.6 110.15 352.75 109.25 M 350.3 115.05 L 350.3 116.95 Q 349 118.5 347.8 118.5 346.65 118.5 346.65 117.5 346.65 115.55 350.3 115.05 M 339.75 110.8 L 342 110.9 341.85 108.5 Q 341.05 108.8 340.25 108.8 L 338.7 108.8 Q 338.1 108.8 337.05 108.5 336.05 108.3 335.2 108.3 333.05 108.3 331.55 109.35 329.95 110.5 329.95 112.45 329.95 115 332.35 116.15 330.45 117.3 330.45 118.5 330.45 119.6 332.35 120.3 329.45 121.95 329.45 123.75 329.45 125.2 331.15 126.05 332.7 126.85 334.9 126.85 337.7 126.85 339.65 125.5 341.55 124.2 341.55 122.35 341.55 120.9 340.1 120 339.2 119.45 337.15 118.9 L 334.25 118.05 Q 333.35 117.8 333.35 117.5 333.35 117.2 334.25 116.65 L 335 116.7 Q 337.25 116.7 338.85 115.65 340.55 114.55 340.55 112.8 340.55 111.6 339.75 110.8 M 335.25 110.45 Q 336.25 110.45 336.9 111.2 337.45 111.8 337.45 112.55 337.45 113.4 336.8 113.95 336.2 114.5 335.2 114.5 334.15 114.5 333.6 113.85 333.05 113.3 333.05 112.5 333.05 111.75 333.6 111.15 334.25 110.45 335.25 110.45 M 332.35 123.15 Q 332.35 122.5 333.1 121.9 333.4 121.65 334.45 120.9 L 335.75 121.3 Q 337.35 121.75 337.85 122 338.5 122.35 338.5 122.85 338.5 123.6 337.5 124.1 336.5 124.55 335.05 124.55 332.35 124.55 332.35 123.15 M 251.85 120.6 L 255.15 120.6 255.15 101.7 251.85 102.2 251.85 120.6 M 270.75 108.3 Q 267.8 108.3 266 110.35 264.45 112.2 264.45 114.95 264.45 117.5 265.85 119.15 267.3 120.9 269.55 120.9 272.15 120.9 273.25 119.05 273.35 119.9 273.6 120.8 L 276.65 120.6 Q 276.1 118.4 276.1 116.95 L 276.1 101.7 272.85 102.2 272.85 108.65 Q 271.9 108.3 270.75 108.3 M 272.85 112.25 L 272.85 116.85 Q 271.8 118.45 270.3 118.45 267.9 118.45 267.9 114.75 267.9 112.8 268.7 111.75 269.5 110.75 271 110.75 272.85 110.75 272.85 112.25 M 288.6 109.75 Q 287.25 108.3 284.9 108.3 282.3 108.3 280.6 110.15 278.95 111.95 278.95 114.65 278.95 117.3 280.5 119.05 282.2 120.9 285.15 120.9 288.3 120.9 290.2 119.25 L 289.35 116.9 Q 287.7 118.4 285.7 118.4 282.95 118.4 282.35 115.45 L 288.25 114.7 290.05 114.15 Q 290.05 111.35 288.6 109.75 M 284.7 110.75 Q 286.45 110.75 286.5 113 L 282.25 113.55 Q 282.55 110.75 284.7 110.75 M 315.25 118 Q 317.85 115.3 317.85 111.45 317.85 107.75 315.3 105.25 312.65 102.65 308.4 102.65 303.95 102.65 301.25 105.55 298.75 108.15 298.75 111.85 298.75 115.6 301.25 118.2 303.95 120.9 308.15 120.9 312.45 120.9 315.25 118 M 308.35 105.55 Q 311.15 105.55 312.8 107.45 314.35 109.15 314.35 111.7 314.35 114.25 312.75 116.05 311 118.05 308.25 118.05 305.45 118.05 303.8 116 302.3 114.2 302.3 111.75 302.3 109.2 303.85 107.45 305.55 105.55 308.35 105.55 M 202.95 105.45 Q 203.5 105.95 204.4 105.95 205.2 105.95 205.75 105.45 206.3 104.95 206.3 104.15 206.3 103.3 205.75 102.8 205.2 102.3 204.4 102.3 203.5 102.3 202.95 102.8 202.4 103.3 202.4 104.15 202.4 104.95 202.95 105.45 M 206 108.6 L 202.7 108.6 202.7 120.6 206 120.6 206 108.6 M 220.1 110.15 Q 218.3 108.3 215.25 108.3 212.05 108.3 210.25 110.35 208.75 112.1 208.75 114.65 208.75 117.25 210.3 119 212.1 120.9 215.15 120.9 218.4 120.9 220.2 118.7 221.7 116.9 221.7 114.35 221.7 111.85 220.1 110.15 M 217.55 112 Q 218.3 113.1 218.3 114.7 218.3 116.35 217.45 117.4 216.55 118.45 215.25 118.45 213.75 118.45 212.9 117.2 212.15 116.1 212.15 114.4 212.15 112.8 213 111.75 213.9 110.75 215.2 110.75 216.7 110.75 217.55 112 M 237.7 117.8 Q 237.7 119.15 238.7 120 239.7 120.9 241.3 120.9 243.8 120.9 245.05 119 245.9 120.7 248.4 120.8 L 249.35 118.25 Q 248 118.25 248 116.8 L 248 112.2 Q 248 110.15 247.15 109.25 246.2 108.3 243.95 108.3 240.55 108.3 238.45 109.8 L 239.25 112.15 Q 241.1 110.75 243.05 110.75 244.05 110.75 244.45 111.3 244.7 111.7 244.7 112.7 L 244.7 113.1 Q 237.7 114.05 237.7 117.8 M 242.2 118.5 Q 241.05 118.5 241.05 117.5 241.05 115.55 244.7 115.05 L 244.7 116.95 Q 243.4 118.5 242.2 118.5 M 227.5 108.35 L 224.3 108.85 224.3 120.6 227.6 120.6 227.6 113 Q 229.5 111.15 230.8 111.15 232 111.15 232 113.45 L 232 120.6 235.25 120.6 235.25 112.05 Q 235.25 108.3 232 108.3 229.55 108.3 227.5 110.55 L 227.5 108.35 M 324 120.6 L 324 113.4 Q 325.35 111.4 326.85 111.4 327.4 111.4 327.95 111.65 L 328.5 108.5 Q 328.1 108.3 327.45 108.3 325.4 108.3 323.9 110.8 L 323.9 108.35 320.7 108.85 320.7 120.6 324 120.6 M 85.35 108.6 L 82.05 108.6 82.05 120.6 85.35 120.6 85.35 108.6 M 82.3 102.8 Q 81.75 103.3 81.75 104.15 81.75 104.95 82.3 105.45 82.85 105.95 83.75 105.95 84.55 105.95 85.1 105.45 85.65 104.95 85.65 104.15 85.65 103.3 85.1 102.8 84.55 102.3 83.75 102.3 82.85 102.3 82.3 102.8 M 93.25 110.75 Q 94.25 110.75 94.65 111.3 94.9 111.7 94.9 112.7 L 94.9 113.1 Q 87.9 114.05 87.9 117.8 87.9 119.15 88.9 120 89.9 120.9 91.5 120.9 94 120.9 95.25 119 96.1 120.7 98.6 120.8 L 99.55 118.25 Q 98.2 118.25 98.2 116.8 L 98.2 112.2 Q 98.2 110.15 97.35 109.25 96.4 108.3 94.15 108.3 90.75 108.3 88.65 109.8 L 89.45 112.15 Q 91.3 110.75 93.25 110.75 M 91.25 117.5 Q 91.25 115.55 94.9 115.05 L 94.9 116.95 Q 93.6 118.5 92.4 118.5 91.25 118.5 91.25 117.5 M 107.8 108.3 Q 104.9 108.3 103.05 110.25 101.25 112.15 101.25 114.8 101.25 117.45 103 119.15 104.8 120.9 107.7 120.9 110.75 120.9 112.1 119.4 L 111.1 117.15 Q 109.8 118.4 107.95 118.4 106.45 118.4 105.55 117.35 104.65 116.35 104.65 114.65 104.65 112.85 105.65 111.8 106.6 110.8 108.05 110.8 109.7 110.8 110.95 111.9 L 112.1 109.5 Q 110.5 108.3 107.8 108.3 M 117.9 108.6 L 114.6 108.6 114.6 120.6 117.9 120.6 117.9 108.6 M 118.2 104.15 Q 118.2 103.3 117.65 102.8 117.1 102.3 116.3 102.3 115.4 102.3 114.85 102.8 114.3 103.3 114.3 104.15 114.3 104.95 114.85 105.45 115.4 105.95 116.3 105.95 117.1 105.95 117.65 105.45 118.2 104.95 118.2 104.15 M 125.5 106.25 L 127.3 107.2 131.35 101.95 128.2 101.95 125.5 106.25 M 127.15 108.3 Q 123.95 108.3 122.15 110.35 120.65 112.1 120.65 114.65 120.65 117.25 122.2 119 124 120.9 127.05 120.9 130.3 120.9 132.1 118.7 133.6 116.9 133.6 114.35 133.6 111.85 132 110.15 130.2 108.3 127.15 108.3 M 124.05 114.4 Q 124.05 112.8 124.9 111.75 125.8 110.75 127.1 110.75 128.6 110.75 129.45 112 130.2 113.1 130.2 114.7 130.2 116.35 129.35 117.4 128.45 118.45 127.15 118.45 125.65 118.45 124.8 117.2 124.05 116.1 124.05 114.4 M 147.15 120.6 L 147.15 112.05 Q 147.15 108.3 143.9 108.3 141.45 108.3 139.4 110.55 L 139.4 108.35 136.2 108.85 136.2 120.6 139.5 120.6 139.5 113 Q 141.4 111.15 142.7 111.15 143.9 111.15 143.9 113.45 L 143.9 120.6 147.15 120.6 M 65.35 118.7 Q 66.85 116.9 66.85 114.35 66.85 111.85 65.25 110.15 63.45 108.3 60.4 108.3 57.2 108.3 55.4 110.35 53.9 112.1 53.9 114.65 53.9 117.25 55.45 119 57.25 120.9 60.3 120.9 63.55 120.9 65.35 118.7 M 62.7 112 Q 63.45 113.1 63.45 114.7 63.45 116.35 62.6 117.4 61.7 118.45 60.4 118.45 58.9 118.45 58.05 117.2 57.3 116.1 57.3 114.4 57.3 112.8 58.15 111.75 59.05 110.75 60.35 110.75 61.85 110.75 62.7 112 M 79.55 109.5 Q 77.95 108.3 75.25 108.3 72.35 108.3 70.5 110.25 68.7 112.15 68.7 114.8 68.7 117.45 70.45 119.15 72.25 120.9 75.15 120.9 78.2 120.9 79.55 119.4 L 78.55 117.15 Q 77.25 118.4 75.4 118.4 73.9 118.4 73 117.35 72.1 116.35 72.1 114.65 72.1 112.85 73.1 111.8 74.05 110.8 75.5 110.8 77.15 110.8 78.4 111.9 L 79.55 109.5 M 169.6 103 L 169.6 115.4 161 103 157.6 103 157.6 120.6 160.9 120.6 160.9 108.3 169.5 120.6 172.95 120.6 172.95 103 169.6 103 M 185.45 109.25 Q 184.5 108.3 182.25 108.3 178.85 108.3 176.75 109.8 L 177.55 112.15 Q 179.4 110.75 181.35 110.75 182.35 110.75 182.75 111.3 183 111.7 183 112.7 L 183 113.1 Q 176 114.05 176 117.8 176 119.15 177 120 178 120.9 179.6 120.9 182.1 120.9 183.35 119 184.2 120.7 186.7 120.8 L 187.65 118.25 Q 186.3 118.25 186.3 116.8 L 186.3 112.2 Q 186.3 110.15 185.45 109.25 M 183 115.05 L 183 116.95 Q 181.7 118.5 180.5 118.5 179.35 118.5 179.35 117.5 179.35 115.55 183 115.05 M 200.2 109.5 Q 198.6 108.3 195.9 108.3 193 108.3 191.15 110.25 189.35 112.15 189.35 114.8 189.35 117.45 191.1 119.15 192.9 120.9 195.8 120.9 198.85 120.9 200.2 119.4 L 199.2 117.15 Q 197.9 118.4 196.05 118.4 194.55 118.4 193.65 117.35 192.75 116.35 192.75 114.65 192.75 112.85 193.75 111.8 194.7 110.8 196.15 110.8 197.8 110.8 199.05 111.9 L 200.2 109.5 M 48.1 108.3 Q 45.6 108.3 44.3 109.4 43.15 110.4 43.15 112 43.15 114.1 45.95 115.45 L 47.9 116.35 Q 48.8 116.85 48.8 117.4 48.8 118.4 46.9 118.4 44.95 118.4 43.55 117.15 L 42.85 119.85 Q 44.4 120.9 47.05 120.9 49.4 120.9 50.75 119.85 52.05 118.8 52.05 117.1 52.05 115 49.2 113.65 L 47.3 112.75 Q 46.4 112.25 46.4 111.75 46.4 110.8 48.1 110.8 49.7 110.8 51 111.6 L 51.7 108.95 Q 50.35 108.3 48.1 108.3 M 35.05 102.85 L 31.8 102.85 25.2 120.6 28.55 120.6 30 116.65 36.8 116.65 38.2 120.6 41.7 120.6 35.05 102.85 M 35.75 113.8 L 31 113.8 33.4 107.15 35.75 113.8 M 81.1 76.15 L 93.7 76.15 67.5 9.55 Q 60.2 10.9 56.15 9.55 L 35.5 62.15 29.95 76.15 42.75 76.15 46.55 65.9 Q 47.6 63.35 51 62.15 L 73.6 62.15 Q 76 62.35 76.95 64.75 L 81.1 76.15 M 53.2 48.1 L 62.05 24.25 71.7 50.55 Q 70.6 52.2 68.85 52.35 L 54.65 52.35 Q 52.2 50.95 53.2 48.1 M 133.35 47.55 Q 130.85 43.15 125.1 40.5 111.25 35 112 27.25 114.6 16.95 133.75 25.3 L 135.75 21.5 Q 135.55 17.95 138.75 15.8 129.15 8.35 115.85 11 110 12.25 106 15.6 101.75 19.2 100.4 24.5 98.65 31.85 102.85 37.6 106.15 42.1 113.65 46.15 118.8 48.9 120.9 51.65 123.5 55 122.75 59.5 121.95 64.15 115.95 65.65 110.25 67.05 100.85 65.4 L 103.05 76.75 Q 112.15 79.55 119.3 76.75 134.45 70.75 135.3 57.85 135.7 51.7 133.35 47.55 M 200.15 19.95 Q 192 10.05 179.5 9.3 164.95 8.45 154.8 17.8 144.5 27.3 143.95 42.8 143.45 58.8 153.25 69.15 162.3 78.85 175.4 79.1 189.5 79.4 199.05 69.95 208.6 60.45 208.6 46 208.6 30.2 200.15 19.95 M 191.55 27.75 Q 197 34.6 197 45.2 197 54.85 190.85 61.2 184.75 67.55 175.65 67.3 167.3 67.15 161.45 60.65 155.2 53.75 155.5 43.05 155.85 32.7 162.45 26.35 169 20.1 178.3 20.65 186.3 21.15 191.55 27.75 M 243.8 54.4 L 254.7 77.55 Q 260.65 76.2 268.2 77.55 L 256.2 51.25 Q 266.45 46.6 266.4 32.75 264.7 10.55 241.45 11.4 L 216.35 11.4 Q 219 44.7 216.35 77 222.55 76.4 228.35 77.85 L 228.35 56.9 Q 228.45 54.15 231 54.4 L 243.8 54.4 M 254.8 32.2 Q 255.55 38.15 252.15 41.55 248.5 45.2 240.9 45 L 228.75 44.45 228.75 23.95 Q 228.9 22.25 229.65 21.45 230.4 20.7 231.8 20.65 242.95 20 248.65 22.7 254.65 25.55 254.8 32.2 M 317.35 22.45 L 316.55 11.55 Q 295.75 12.8 275.35 11.9 274 11.85 273.95 13.35 276.2 42.95 273.8 75.65 273.6 77.1 275.25 77.1 L 314.4 78.35 Q 317.35 79.35 317.2 76.85 317.35 75.4 317.6 73.95 317.85 72.45 318.5 70.9 319.1 69.4 318.75 68.6 318.45 68 317.45 67.75 L 288.2 67.75 Q 286.35 67.8 286.1 65.7 L 286.1 49.95 Q 286.15 48.85 287.1 48.85 292.15 48.4 300 48.65 305.3 48.75 315.55 49.4 L 316.25 43.15 Q 318.55 38.05 313.4 38.2 L 288.5 39.55 Q 285.75 39.65 285.85 37.3 L 285.85 25.75 Q 286.25 20.7 289.45 21 303.35 20.9 317.35 22.45 M 383.5 11.75 Q 381.65 11.6 380.5 14 L 361.4 61.15 Q 360.35 63.15 359.3 61.15 L 337.45 11.45 Q 331.8 10.7 326.2 12.65 328.7 45.8 326.05 77.75 331.85 76.75 337.6 77.75 L 338.25 39.7 Q 338.35 38.45 338.9 39.45 348.1 58.25 355.85 78.85 360.05 78.2 363.45 78.85 L 380.2 39.35 Q 381.3 37.8 381.25 41.2 L 379.85 76.4 Q 381.1 78 384.3 77.45 386.4 76.8 392.7 77.45 L 393.1 13.2 Q 393.25 12.65 392.8 12.25 392.45 11.85 391.8 11.75 L 383.5 11.75 M 435.95 10.15 Q 428.65 11.5 424.6 10.15 L 403.95 62.75 398.4 76.75 411.2 76.75 415.05 66.5 Q 416.05 63.9 419.45 62.75 L 442.1 62.75 Q 444.45 62.95 445.4 65.35 L 449.6 76.75 462.15 76.75 435.95 10.15 M 421.65 48.7 L 430.55 24.85 440.15 51.1 Q 439.05 52.75 437.35 52.95 L 423.1 52.95 Q 420.7 51.55 421.65 48.7 Z"/>
</g>
</defs>
<g transform="matrix(1,0,0,1,0,0)">
<use xlink:href="#l"/>
</g>
</svg>
