<svg xmlns="http://www.w3.org/2000/svg" xmlns:xlink="http://www.w3.org/1999/xlink" width="100%" height="100%" viewBox="0 0 1024 372">
<defs>
<g id="l1">
<path fill="#67C4E6" stroke="none" d="M 44 111.9 Q 44.95 104.45 45.8 102.3 46.55 100.95 42.2 103.25 37.85 105.75 34.5 108.8 24.25 116.25 15.5 132.4 1.05 159 6.95 188 13.05 219.4 39.7 245.65 54.5 260.1 86.4 285.65 107.95 305.35 117.1 318.15 130.3 337.05 129.95 356.55 129.95 359.2 129 362.9 128.5 366.65 130.55 368.2 133.95 370.4 137.9 367.6 140.9 365.45 142.25 362.3 150.55 341.6 150.2 313.55 149.6 282.6 138.5 255.55 128.4 231.1 104.2 211.35 72.65 185.95 67.35 179.1 40.65 144.3 44 111.9 M 99 44.6 Q 100 42.35 87.95 51.35 77.85 60.25 68.95 75.05 53.75 100.5 57.25 126.85 60.5 155.35 83 177.5 95.4 189.3 123.2 210.4 138.75 224.35 148.4 241.1 158.5 258.65 158.5 272.4 L 158.25 279.1 Q 158.5 283.1 160.65 284.4 165 287.2 171.15 276.1 178.1 266.25 182.45 254.35 191.1 231.35 183.65 209.8 175.7 186.8 156.1 163.7 129.35 134.65 114.65 116.5 91.2 87.1 96.5 53.55 97.8 47.65 99 44.6 M 183.4 180.65 Q 186.65 185.6 188.6 185.6 191.45 185.25 193.75 176.9 203.4 147.2 186.4 114.9 177.75 98.3 161.6 77.5 145.6 56.65 140.65 47.4 128.75 24.5 135.15 5.95 136.45 2.6 135.85 2 134.9 1.15 130.9 5.6 123.7 13.45 117.1 28.6 107.95 50.9 110.95 71.95 113.45 89.05 126 107.2 132.25 116.5 148.15 135.15 169.45 159.8 178.1 172.35 179.1 173.55 183.4 180.65 Z"/>
</g>
<g id="l2">
<path fill="#767679" stroke="none" d="M 407.45 312.6 L 463.05 312.6 473.5 279.75 545.85 279.75 556 312.6 611 312.6 541.05 85.2 477.75 85.2 407.45 312.6 M 530.8 229.15 L 488.45 229.15 510 159.45 530.8 229.15 M 399.5 95.9 Q 387.7 89.5 375.9 85.8 366.15 82.65 343.85 82.65 287.15 82.65 255.15 117.35 223.25 152.35 223.25 199.05 223.25 247.1 255.9 281.65 288 316.3 346.05 316.3 365.9 316.3 377.95 312.6 390.8 308.75 399.5 303.7 L 399.5 244.45 Q 388.9 250.45 377.1 253.95 366.85 257.35 345.45 257.35 315.2 257.35 298.5 240.85 282.25 224.25 282.25 199.05 282.25 173.9 298.85 157.3 315.2 140.45 345.45 140.45 366.25 140.45 375.3 143.8 385.5 147.05 399.5 154.9 L 399.5 95.9 M 765.45 85.8 Q 754.95 82.65 733.15 82.65 676.45 82.65 644.45 117.35 612.55 152.1 612.55 199.05 612.55 246.25 645.05 281.65 677.9 316.3 735.6 316.3 755.2 316.3 767.25 312.6 780.1 308.75 788.65 303.7 L 788.65 244.45 Q 778.2 250.45 766.3 253.95 756.05 257.35 735 257.35 704.4 257.35 688.05 240.85 671.4 224.25 671.4 199.05 671.4 173.9 688.05 157.3 704.5 140.45 735 140.45 755.45 140.45 764.45 143.8 774.7 147.05 788.65 154.9 L 788.65 95.9 Q 778.2 89.9 765.45 85.8 M 867.85 85.2 L 813 85.2 813 312.6 867.85 312.6 867.85 85.2 M 1018.95 133.95 L 1018.95 85.2 896.4 85.2 896.4 312.6 951.65 312.6 951.65 223.05 1015.2 223.05 1015.2 174.5 951.65 174.5 951.65 133.95 1018.95 133.95 Z"/>
</g>
<g id="l3">
<path fill="#231F20" stroke="none" d="M 309.8 339.1 L 291.4 339.1 291.4 368.45 310.4 368.45 310.4 361.1 299.1 361.1 299.1 356.55 309.2 356.55 309.2 349.45 299.1 349.45 299.1 346.05 309.8 346.05 309.8 339.1 M 237.7 350.05 Q 235.9 357.15 239.5 362.65 243 367.6 250 368.45 256.5 369.15 262.6 366.65 L 262.6 350.65 250 350.65 250 357.75 254.9 357.75 254.9 361.45 Q 252.5 361.95 250.35 361.1 245.4 359.3 245.4 352.8 245.4 346.05 252.15 345.45 258.05 345.1 259.85 347.6 L 262 340.5 Q 254.8 336.55 246 339.9 239.5 342.45 237.7 350.05 M 606.65 339.1 L 593.8 339.7 593.8 368.2 606.65 368.8 Q 619.3 367 619.3 353.75 619.55 340.9 606.65 339.1 M 601.7 345.8 L 606.4 346.05 Q 611.1 347.75 611.25 353.4 611.25 359.3 606.65 361.1 L 601.7 361.7 601.7 345.8 M 504.2 338.7 L 495.3 338.7 485.8 368.2 494.35 368.2 496.5 360.85 502.65 360.85 504.8 368.2 513.7 368.2 504.2 338.7 M 499.5 348.85 L 501.1 354 498.1 354 499.5 348.85 M 564.3 339.1 L 556.95 339.1 556.95 352.8 548.4 339.1 540.35 339.1 540.35 368.45 548.05 368.45 548.05 353.75 556.95 368.45 564.3 368.45 564.3 339.1 M 459.65 345.45 Q 458.45 339.1 448.6 338.7 L 439.1 339.7 439.1 368.2 447.05 368.2 447.05 357.5 448.6 357.5 Q 450.55 358.1 451 361.1 451.95 366.05 453.15 368.2 L 461.85 368.2 Q 460.05 365.45 459.05 360.85 L 456.55 354.75 Q 459.3 352.3 459.65 348.6 L 459.65 345.45 M 446.8 345.8 L 449.55 345.8 450.75 346.05 Q 451.95 346.8 451.95 347.85 451.95 350.65 448.95 350.65 L 447.05 350.65 446.8 345.8 M 399.5 361.1 L 399.5 356.55 409.6 356.55 409.6 349.45 399.5 349.45 399.5 346.05 410.2 346.05 410.2 339.1 391.8 339.1 391.8 368.45 410.8 368.45 410.8 361.1 399.5 361.1 M 362.3 339.1 L 354.95 339.1 354.95 352.8 346.4 339.1 338.45 339.1 338.45 368.45 346.05 368.45 346.05 353.75 354.95 368.45 362.3 368.45 362.3 339.1 M 946.5 339.1 L 936.95 339.7 936.95 368.45 944.9 368.45 944.9 357.75 946.5 357.75 Q 948.4 358.1 948.9 361.1 950.1 366.5 951.4 368.45 L 959.7 368.45 Q 958.15 365.45 957.2 360.85 956.7 358.2 955.4 356.15 L 954.45 354.75 Q 959 350.65 957.55 345.45 956.25 339.3 946.5 339.1 M 944.9 345.8 L 947.7 345.8 948.9 346.05 Q 949.85 346.65 949.85 347.85 949.85 351 946.85 351 L 944.9 351 944.9 345.8 M 884.5 356.75 L 886.05 362.9 Q 888.7 368.8 896.4 368.8 903.85 368.8 906.9 362.9 908.1 360 908.1 356.75 L 908.1 338.7 900.15 338.7 900.15 356.15 Q 901.35 361.7 896.75 361.7 894.1 361.7 892.8 359.3 L 892.45 356.55 892.45 338.7 884.5 338.7 884.5 356.75 M 857.75 346.05 L 857.75 339.1 834.4 339.1 834.4 346.05 842.1 346.05 842.1 368.2 850.05 368.2 850.05 346.05 857.75 346.05 M 745.1 346.05 L 755.55 346.05 755.55 338.7 737.15 338.7 737.15 368.45 745.1 368.45 745.1 357.15 754.6 357.15 754.6 350.05 745.1 350.05 745.1 346.05 M 792.05 338.7 L 784.1 338.7 784.1 356.75 785.3 362.9 Q 788.3 368.8 795.75 368.8 803.25 368.8 806.25 362.9 L 807.45 356.75 807.45 338.7 799.5 338.7 799.5 356.15 Q 800.6 361.7 796.15 361.7 793.35 361.7 792.4 359.3 L 792.05 356.55 792.05 338.7 M 659.75 338.35 Q 653.95 338.35 650 343.05 645.65 347.6 645.65 353.75 645.65 360.15 650 364.85 653.95 369.4 659.75 369.4 665.65 369.4 669.95 364.85 673.95 360.15 673.95 353.75 673.95 347.6 669.95 343.05 665.65 338.35 659.75 338.35 M 664.1 347.85 Q 665.65 349.9 665.65 353.4 665.65 356.9 664.1 359.3 662.65 361.7 660.1 361.7 657.6 361.7 656.15 359.3 654.2 356.65 654.2 353.4 654.2 350.5 656.15 347.85 657.6 345.45 660.1 345.45 662.25 345.45 664.1 347.85 M 999.35 338.1 Q 993.45 338.1 989.45 342.7 985.1 347.4 985.1 353.4 985.1 360 989.45 364.5 993.3 369.05 999.35 369.05 1005.25 369.05 1009.45 364.5 1013.4 360 1013.4 353.4 1013.4 347.4 1009.45 342.7 1005.1 338.1 999.35 338.1 M 995.35 358.95 Q 993.8 356.65 993.8 353.15 993.8 349.65 995.35 347.6 997.05 345.2 999.35 345.2 1001.85 345.2 1003.55 347.6 1005.1 349.65 1005.1 353.15 1005.1 356.65 1003.55 358.95 1001.75 361.1 999.35 361.1 996.8 361.1 995.35 358.95 Z"/>
</g>
</defs>
<g transform="matrix(1,0,0,1,0,0)">
<use xlink:href="#l1"/>
</g>
<g transform="matrix(1,0,0,1,0,0)">
<use xlink:href="#l2"/>
</g>
<g transform="matrix(1,0,0,1,0,0)">
<use xlink:href="#l3"/>
</g>
</svg>
