<svg xmlns="http://www.w3.org/2000/svg" xmlns:xlink="http://www.w3.org/1999/xlink" width="100%" height="100%" viewBox="0 0 1024 569">
<defs>
<g id="l1">
<path fill="#1C2F55" stroke="none" d="M 924.8 345.9 Q 922.4 343.25 920.05 341.8 915.95 340.45 912.9 340.45 907.85 340.45 903.8 342.85 900.35 345.2 899.65 349.3 L 899.65 349.65 900.35 350.05 906.4 350.7 Q 906.8 351 907.45 350.05 907.45 348.65 909.2 347.7 L 913.25 346.95 Q 916.2 346.95 917.7 348.25 919 350.25 919 352.05 L 919 353.8 918.75 354.1 911.9 354.1 Q 905.1 354.1 902 356.75 898.6 359.25 898.6 364.3 898.6 369.35 901.7 371.85 905.45 374.2 909.55 374.2 915.25 374.2 918.75 370.8 L 918.75 370.4 919 370.8 919 373.2 919.75 373.45 925.5 373.45 926.15 373.2 926.55 372.8 926.55 351.4 Q 926.55 348.3 924.8 345.9 M 919 359.25 L 919 362.25 Q 919 364.7 916.65 366.65 915.05 368 911.6 368 909.15 368 907.45 367 906.15 366 906.15 364 906.15 361.9 908.2 360.2 909.85 359.25 913.25 359.25 L 919 359.25 M 941.1 329.95 L 940.8 329.3 940.45 328.9 934.4 328.9 933.95 329.3 933.7 329.95 933.7 372.8 934.4 373.45 940.45 373.45 941.1 372.8 941.1 329.95 M 826.85 340.45 Q 822.1 340.45 818.35 343.25 814.65 345.85 813.55 350.05 812.6 352.75 812.6 356.15 812.6 361.75 814.25 365.65 816.05 369.85 819.4 371.85 822.1 374.2 827.55 374.2 831 374.2 835 372.45 838.1 371.1 840.15 368.45 840.8 368 840.15 367.4 L 836.05 364 835.75 364 835 364.3 Q 832.7 367.7 828.2 367.7 822.4 367.7 820.7 363.3 L 820.05 360.2 820.35 359.85 840.45 359.85 841.1 359.25 840.8 353.8 Q 839.4 340.45 826.85 340.45 M 830.95 348.25 Q 832.6 349.7 833.3 351.7 L 833.7 354.1 833.3 354.4 820.35 354.4 820.05 354.1 820.7 351.4 Q 821.05 349.7 822.7 348 824.55 346.95 826.85 346.95 829.5 346.95 830.95 348.25 M 863.6 340.45 Q 861.35 340.45 859.15 341.5 857.15 342.25 855.75 343.85 L 855.4 344.3 855.1 343.85 855.1 341.2 847.9 341.2 847.9 373.2 848.65 373.45 854.45 373.45 855.1 373.2 855.1 352.05 Q 855.4 350.1 857.1 348.25 858.55 346.95 860.9 346.95 863.55 346.95 865.25 348.65 866.65 350.05 866.65 353.45 L 866.65 372.8 867.05 373.2 867.7 373.45 873.5 373.45 874.1 372.8 874.1 353.05 Q 874.1 350.35 875.85 348.65 877.65 346.95 879.9 346.95 881.95 346.95 884.35 348.65 885.65 350.05 885.65 353.45 L 885.65 372.8 886.4 373.45 892.15 373.45 892.8 373.2 893.2 372.8 893.2 351.7 Q 893.2 346.65 890.15 343.55 887.75 340.45 882.65 340.45 879.65 340.45 877.2 341.8 874.75 342.95 873.05 345.65 L 872.8 345.65 Q 871.7 342.9 869.05 341.8 867.3 340.45 863.6 340.45 M 879.25 271.8 L 878.9 270.75 875.5 270.05 Q 870.75 270.05 868 274.15 L 867.7 274.5 867.7 271.1 867.05 270.45 860.9 270.45 860.2 271.1 860.2 302.05 860.5 302.7 860.9 303.1 867.05 303.1 867.7 302.05 867.7 284 Q 867.7 281.3 869.4 279.65 871.65 277.9 873.8 277.9 L 875.15 277.55 877.2 277.9 Q 878.25 278.55 878.25 277.55 L 879.25 271.8 M 839.1 262.6 L 839.1 270.05 838.75 270.45 835 270.45 834.35 271.1 834.35 275.55 834.7 276.25 835 276.5 838.75 276.5 839.1 276.85 839.1 294.95 Q 839.1 299.7 841.5 301.35 844.3 303.1 849.35 303.1 L 852.35 303.1 Q 853.05 302.7 853.05 302.05 L 853.05 296.9 852.35 296.6 850.7 296.6 Q 848.2 296.6 847.3 295.55 846.25 294.65 846.25 292.15 L 846.25 276.85 846.55 276.5 853.05 276.5 853.4 276.25 853.7 275.55 853.7 271.1 853.05 270.45 846.55 270.45 846.25 270.05 846.25 262.6 845.9 262.2 845.25 261.9 839.75 261.9 839.1 262.6 M 856.8 207.1 L 858.85 207.45 Q 859.9 207.45 859.9 206.8 L 860.9 201.3 860.5 200.4 Q 859.25 199.35 856.8 199.35 852.25 199.35 849.35 203.35 L 849.35 200.65 848.9 199.95 848.3 199.7 842.5 199.7 841.85 199.95 841.85 232 842.5 232.3 848.3 232.3 848.9 232 849.35 231.6 849.35 213.6 Q 849.35 210.5 851 208.9 852.8 207.1 855.4 207.1 L 856.8 207.1 M 891.85 270.75 L 891.2 270.45 885.4 270.45 884.65 270.75 884.65 302.7 885.4 303.1 891.2 303.1 891.85 302.7 891.85 270.75 M 891.45 264.6 Q 892.8 263.7 892.8 261.55 892.8 259.5 891.45 258.15 890.15 256.8 888.45 256.8 887.05 256.8 885.05 258.15 884.05 259.8 884.05 261.55 884.05 263.65 885.05 264.6 886.4 266 888.45 266 890.5 266 891.45 264.6 M 919.75 271.4 Q 916.9 270.05 912.9 270.05 907.1 270.05 903.8 272.4 899.95 274.85 899.3 278.95 L 899.65 279.25 900 279.25 906.15 280.3 Q 907.15 280.3 907.15 279.65 907.75 277.55 909.2 277.2 910.9 276.25 912.9 276.25 915.25 276.25 917.35 277.55 918.75 279 918.75 281.6 L 918.75 282.95 918.35 283.35 911.6 283.35 Q 905.5 283.35 902 286.05 898.25 289.15 898.25 293.95 898.25 298.35 901.7 301 904.45 303.4 909.55 303.4 915.35 303.4 918.35 299.95 L 918.75 299.95 918.75 302.05 919 302.7 919.75 303.1 925.5 303.1 925.85 302.7 926.15 302.05 926.15 280.6 Q 926.15 277.8 924.5 275.2 922.7 272.4 919.75 271.4 M 905.75 293.2 Q 905.75 290.8 907.75 289.8 909.6 288.4 913.25 288.4 L 918.35 288.4 918.75 288.8 918.75 291.85 Q 918.75 294.55 916.65 296 914 297.6 911.2 297.6 909.15 297.6 907.45 296.6 905.75 294.95 905.75 293.2 M 891.2 231.6 L 891.2 210.2 Q 891.2 207.05 889.4 204.4 887.75 202.35 884.65 200.65 882.05 199.35 877.85 199.35 872.1 199.35 868.65 201.7 864.95 204.05 864.3 208.15 L 864.95 208.9 871.45 209.55 Q 872.05 209.55 872.05 208.9 872.4 207.55 874.1 206.4 876.4 205.75 877.85 205.75 880.9 205.75 882.25 207.1 883.6 208.15 883.6 210.9 L 883.6 212.3 883.3 212.55 876.5 212.55 Q 870.8 212.55 867.05 215.6 863.6 218 863.6 223.1 863.6 228.25 866.65 230.3 869.35 232.65 874.45 232.65 880.2 232.65 883.3 229.25 L 883.6 229.25 883.6 231.6 884.05 232 884.65 232.3 890.45 232.3 891.2 231.6 M 872.8 219 Q 875.45 217.7 878.25 217.7 L 883.3 217.7 883.6 218.05 883.6 221.1 Q 883.6 223.85 881.6 225.15 879.55 226.9 876.2 226.9 874.2 226.9 872.45 225.85 870.7 224.85 870.7 222.8 870.7 220.8 872.8 219 M 807.45 341.2 L 800.35 341.2 800 340.85 800 333.3 799.6 332.6 793.2 332.6 792.8 333.3 792.8 340.85 792.5 341.2 788.45 341.2 788.45 346.95 792.5 346.95 792.8 347.25 792.8 365.35 Q 792.8 370 795.6 371.85 798.2 373.8 803 373.8 L 806.4 373.45 807.15 372.8 807.15 368 806.8 367.4 804.35 367.4 Q 802 367.4 801.05 365.95 800 365.05 800 362.65 L 800 347.25 800.35 346.95 807.45 346.95 807.45 341.2 M 777.2 341.8 Q 773.05 340.45 770.05 340.45 765.05 340.45 760.85 342.85 757.4 345.2 756.8 349.3 L 756.8 349.65 757.45 350.05 763.6 350.7 Q 763.9 351 764.6 350.05 764.6 348.65 766.3 347.7 L 770.4 346.95 Q 773.35 346.95 774.85 348.25 776.2 350.35 776.2 352.05 L 776.2 353.8 775.85 354.1 769.05 354.1 Q 762.25 354.1 759.15 356.75 755.75 359.25 755.75 364.3 755.75 369.35 758.85 371.85 762.55 374.2 766.65 374.2 772.35 374.2 775.85 370.8 L 775.85 370.4 776.2 370.8 776.2 373.2 776.9 373.45 782.65 373.45 783.3 373.2 783.6 372.8 783.6 351.4 Q 783.6 348.2 782 345.9 779.5 343.2 777.2 341.8 M 763.25 364 Q 763.25 361.95 765.25 360.2 767.05 359.25 770.4 359.25 L 776.2 359.25 776.2 362.25 Q 776.2 364.65 773.8 366.65 772.1 368 768.65 368 766.25 368 764.6 367 763.25 366 763.25 364 M 723.15 341.2 L 722.7 341.8 722.7 363.3 Q 722.7 368.45 726.1 371.1 728.8 373.8 734.35 373.8 739.75 373.8 742.15 370.8 L 742.5 370.4 742.5 372.8 743.15 373.45 748.9 373.45 749.65 373.2 749.65 341.2 742.85 341.2 742.5 341.8 742.5 361.25 Q 742.5 363.6 740.75 365.95 739.2 367.7 736.05 367.7 733.65 367.7 731.9 365.95 730.25 363.65 730.25 361.25 L 730.25 341.8 729.9 341.2 723.15 341.2 M 691.4 343.25 Q 691.4 339.45 693.8 337.1 695.85 335.1 699.95 335.1 703.75 335.1 706.1 337.1 708.5 339.15 708.5 342.85 L 708.5 343.25 709.15 343.85 714.95 343.85 715.55 343.55 715.55 342.5 Q 715.55 338.75 713.95 335.4 711.75 332.25 708.15 330.25 704 328.6 699.95 328.6 695.55 328.6 691.4 330.25 688 332.3 685.95 335.7 684 339.45 684 343.55 L 684 358.8 Q 684 363.65 685.95 367 687.95 369.95 691.4 372.15 695.35 374.2 699.95 374.2 707.15 374.2 711.5 370.05 715.55 366 715.55 358.5 L 715.55 350.05 714.95 349.65 700.35 349.65 699.6 350.05 699.6 355.85 708.15 355.85 708.5 356.15 708.5 360.2 Q 708.5 363.6 706.1 365.65 704.1 367.7 700.35 367.7 696.25 367.7 693.8 365.35 691.4 363.3 691.4 359.25 L 691.4 343.25 M 708.5 271.1 L 708.15 270.75 707.45 270.45 701.65 270.45 701 271.1 701 302.05 701.35 302.7 701.65 303.1 707.45 303.1 708.15 302.7 708.5 302.05 708.5 282.65 Q 708.5 279.65 710.1 278.25 711.9 276.25 714.55 276.25 717.35 276.25 718.65 278.25 720.35 279.65 720.35 282.95 L 720.35 302.05 720.7 302.7 721.35 303.1 727.1 303.1 727.55 302.7 727.85 302.05 727.85 281.35 Q 727.85 276.3 724.75 273.1 721.7 270.05 716.6 270.05 711.15 270.05 708.8 273.45 L 708.5 273.45 708.5 271.1 M 685.35 258.5 L 685 259.2 685 302.05 685.35 302.7 685.65 303.1 691.85 303.1 692.15 302.7 692.45 302.05 692.45 259.2 692.15 258.5 685.35 258.5 M 804.35 279.9 Q 804.35 283 805.75 284.75 L 809.55 287.4 821.75 291.85 Q 823.15 293.3 823.15 294.2 823.15 295.55 821.35 296.6 820.05 297.6 817.35 297.6 814.55 297.6 812.9 296.6 811.15 296 811.15 293.95 L 811.15 293.5 810.85 293.2 810.2 292.9 804.75 292.9 804.05 293.2 804.05 294.2 Q 804.05 297.35 805.75 298.95 807.45 301 810.2 302.05 812.85 303.4 817.35 303.4 823.1 303.4 826.85 300.7 830.3 298.35 830.3 293.5 830.3 290.55 828.9 288.8 826.5 286.35 824.75 285.75 L 819.4 283.7 817.7 283.35 812.9 281.6 Q 811.15 280.95 811.15 279.25 811.15 277.6 812.9 276.85 814.6 275.8 816.95 275.8 820 275.8 821.35 276.85 823.15 277.9 823.15 279.65 L 823.15 280.3 823.75 280.6 829.25 280.6 829.55 280.3 829.9 279.65 Q 829.9 277.2 828.2 274.8 826.8 272.4 823.75 271.4 821.05 270.05 816.95 270.05 811.6 270.05 807.75 272.85 804.35 275.2 804.35 279.9 M 790.8 270.45 L 790.1 270.75 790.1 290.5 Q 790.1 293.5 788.45 295.25 786.7 296.9 783.6 296.9 780.55 296.9 779.25 295.25 777.85 293.95 777.85 290.5 L 777.85 271.1 777.2 270.45 771 270.45 770.4 271.1 770.4 292.55 Q 770.4 297.65 773.8 300.7 777.2 303.4 782 303.4 787.4 303.4 789.8 299.95 L 790.1 299.95 790.1 302.7 790.8 303.1 796.55 303.1 797.2 302.7 797.2 270.75 796.55 270.45 790.8 270.45 M 755.75 258.5 L 755.4 259.2 755.4 273.1 755.1 273.1 Q 751.95 270.05 747.9 270.05 743.1 270.05 740.15 272.15 736.7 274.75 735.65 278.95 734.35 281.55 734.35 286.8 734.35 289.95 735.65 294.55 737.4 299.3 740.15 301 742.8 303.4 747.6 303.4 752.05 303.4 755.1 299.95 L 755.4 299.95 755.4 302.05 755.75 302.7 756.05 303.1 762.25 303.1 762.55 302.7 762.85 302.05 762.85 259.2 762.55 258.5 755.75 258.5 M 743.55 293.95 Q 741.8 291.3 741.8 286.8 741.8 281.85 743.85 278.95 745.9 276.25 748.9 276.25 752.05 276.25 753.7 278.95 755.4 282.3 755.4 286.8 755.4 290.4 754.05 293.95 752 296.9 748.9 296.9 745.25 296.9 743.55 293.95 M 746.85 204.4 Q 745.25 202.35 742.15 200.65 739.5 199.35 735 199.35 729.2 199.35 725.8 201.7 722.1 204.4 721.75 208.15 L 722.4 208.9 728.5 209.55 Q 729.2 209.55 729.55 208.9 730.25 207.1 731.25 206.4 L 735.3 205.75 Q 738.35 205.75 739.7 207.1 741.1 208.15 741.1 210.9 L 741.1 212.3 740.75 212.55 733.95 212.55 Q 727.9 212.55 724.1 215.6 720.7 218.35 720.7 223.1 720.7 228.25 723.75 230.3 726.55 232.65 731.6 232.65 737.65 232.65 740.75 229.25 L 741.1 229.25 741.1 231.6 741.8 232.3 747.6 232.3 748.25 232 748.65 231.6 748.65 210.2 Q 748.65 207.05 746.85 204.4 M 730.25 219 Q 732.9 217.7 735.3 217.7 L 740.75 217.7 741.1 218.05 741.1 221.1 Q 741.1 223.85 739.1 225.15 737.05 226.9 733.7 226.9 730.95 226.9 729.9 225.85 728.15 224.85 728.15 222.8 728.15 220.8 730.25 219 M 807.75 208.5 L 808.5 208.9 814.6 209.55 Q 815.3 209.55 815.3 208.9 815.65 207.5 817.35 206.4 L 821.1 205.75 Q 824.1 205.75 825.5 207.1 826.85 208.2 826.85 210.9 L 826.85 212.55 820.05 212.55 Q 814 212.55 810.2 215.6 806.8 218 806.8 223.1 806.8 228.25 809.8 230.3 812.6 232.65 817.7 232.65 823.4 232.65 826.55 229.25 L 826.85 229.25 826.85 231.6 827.2 232 827.9 232.3 833.7 232.3 834.35 232 834.35 210.2 Q 834.35 206.45 832.65 204.4 830.9 202.35 827.9 200.65 825.25 199.35 821.1 199.35 815.3 199.35 811.9 201.7 807.75 204.75 807.75 208.15 L 807.75 208.5 M 826.85 217.7 L 826.85 221.1 Q 826.85 223.85 824.75 225.15 823.15 226.9 819.4 226.9 817.35 226.9 815.6 225.85 814.25 224.85 814.25 222.8 814.25 220.4 816 219 818.6 217.7 821.35 217.7 L 826.85 217.7 M 792.15 207.45 Q 793.85 209.25 793.85 211.95 L 793.85 232 794.6 232.3 800.35 232.3 801.05 232 801.05 210.5 Q 801.05 204.75 798.25 202.35 795.9 199.35 790.8 199.35 787.35 199.35 785 200.65 783 201.75 781.25 204.4 L 780.95 204.4 Q 779.2 201.3 777.2 200.65 774.9 199.35 771.75 199.35 L 767 199.95 Q 765.6 200.7 763.6 202.75 L 763.25 203.1 763.25 200.65 762.85 199.95 762.55 199.7 756.8 199.7 756.05 199.95 755.75 200.65 755.75 231.6 756.05 232 756.8 232.3 762.55 232.3 763.25 231.6 763.25 210.9 Q 763.85 208.55 764.9 207.1 766.4 205.75 769.05 205.75 771.65 205.75 773.05 207.45 774.85 208.95 774.85 211.95 L 774.85 231.6 775.45 232.3 781.25 232.3 782 232 782.25 231.6 782.25 211.95 Q 782.25 208.95 783.6 207.45 785.5 205.75 788 205.75 790.7 205.75 792.15 207.45 M 736.7 195.9 L 737.35 195.25 741.8 188.7 Q 742.2 188.45 741.8 188.05 L 741.5 187.8 736.3 187.8 Q 736.05 187.8 735.3 188.4 L 731.9 194.85 Q 731.6 195.3 731.9 195.55 L 732.3 195.9 736.7 195.9 M 713.95 194.2 Q 711.85 190.8 708.15 189.1 704.95 187.4 699.95 187.4 694.5 187.4 691.4 189.1 688.05 191.15 685.95 194.2 684 197.9 684 202.05 L 684 218.05 Q 684 222.5 685.95 225.85 687.95 228.85 691.4 230.95 694.5 232.65 699.95 232.65 705 232.65 708.15 230.95 711.85 229.3 713.95 225.85 716 222.8 716 218.35 L 714.95 217.7 709.15 217.35 708.5 218.05 Q 708.5 222.05 706.1 224.1 703.7 226.5 699.95 226.5 695.9 226.5 693.8 224.1 691.4 222.05 691.4 218.05 L 691.4 202.05 Q 691.4 198.3 693.8 195.9 696.25 193.55 699.95 193.55 702.95 193.55 706.1 195.9 708.5 198.3 708.5 202.05 L 709.15 202.75 714.95 202.35 715.55 202.05 716 201.7 Q 716 197.3 713.95 194.2 M 938.1 187.8 L 932.35 187.8 931.6 188.05 931.3 188.4 931.3 202.75 930.95 202.35 Q 928.6 199.35 923.8 199.35 918.7 199.35 916 201.7 913.3 203.4 911.6 208.15 910.55 211.1 910.55 215.95 910.55 220.55 911.6 223.85 913.3 228.2 916 230.55 919.05 232.65 923.8 232.65 928.55 232.65 930.95 229.6 L 931.3 229.25 931.3 231.6 931.6 232 932.35 232.3 938.1 232.3 938.75 231.6 938.75 188.4 938.1 187.8 M 919.75 208.15 Q 921.85 205.75 924.8 205.75 928.2 205.75 929.55 208.5 931.3 210.5 931.3 215.95 931.3 221.05 929.9 223.5 927.85 226.5 924.8 226.5 921.35 226.5 919.4 223.5 918 220.75 918 215.95 918 211.6 919.75 208.15 M 973.8 373.45 L 974.45 373.2 974.85 372.8 974.85 351.4 Q 974.85 348.3 973.1 345.9 971.85 343.65 968.35 341.8 964.25 340.45 961.25 340.45 956.15 340.45 952.1 342.85 948.65 345.2 947.95 349.3 L 948.65 350.05 954.75 350.7 Q 955.45 351 955.75 350.05 956.5 348.25 957.5 347.7 L 961.55 346.95 Q 964.5 346.95 966 348.25 967.3 349.7 967.3 352.05 L 967.3 353.8 967.05 354.1 960.2 354.1 Q 953.45 354.1 950.3 356.75 946.9 359.55 946.9 364.3 946.9 369.35 950 371.85 953.75 374.2 957.85 374.2 963.55 374.2 967.05 370.8 L 967.3 370.4 967.3 372.8 968.05 373.45 973.8 373.45 M 956.5 360.2 Q 958.55 359.25 961.55 359.25 L 967.3 359.25 967.3 362.25 Q 967.3 364.7 965.25 366.65 963 368 959.9 368 957.45 368 955.75 367 954.45 365.7 954.45 364 954.45 361.9 956.5 360.2 M 988.45 289.8 L 988.85 289.45 1008.5 289.45 Q 1009.55 289.45 1009.55 288.4 L 1009.2 282.95 Q 1007.8 270.05 995.3 270.05 989.5 270.05 986.75 272.4 983.35 275.15 981.65 279.65 L 980.95 285.35 Q 980.95 291.6 982.7 294.95 984.05 298.7 987.45 301.35 991.05 303.4 995.9 303.4 1000.45 303.4 1003.05 302.05 1006.5 300.65 1008.5 297.6 1008.85 297.3 1008.2 296.6 L 1004.45 293.5 1003.8 293.2 1003.4 293.5 Q 1000.65 297.35 996.25 297.35 990.5 296.65 989.1 292.55 988.45 291.15 988.45 289.8 M 989.1 280.6 Q 989.75 278.55 991.2 277.55 992.5 276.25 995.3 276.25 997.35 276.25 999.35 277.55 L 1001.7 280.95 1002 283.7 988.45 283.7 989.1 280.6 M 973.8 259.2 L 973.5 258.5 966.65 258.5 966.3 259.2 966.3 273.1 966 273.1 Q 963.55 270.05 958.85 270.05 954.05 270.05 951.05 272.15 947.6 274.75 946.55 278.95 945.55 282.1 945.55 286.8 945.55 291 946.55 294.55 948.3 299.3 951.05 301 953.7 303.4 958.85 303.4 963.7 303.4 966 299.95 L 966.3 299.95 966.3 302.05 966.65 302.7 967.05 303.1 973.1 303.1 973.5 302.7 973.8 302.05 973.8 259.2 M 954.75 278.95 Q 956.8 276.25 959.9 276.25 962.9 276.25 964.6 278.95 966.3 282.35 966.3 286.8 966.3 291.55 964.95 293.95 963 296.9 959.9 296.9 956.45 296.9 954.45 293.95 953.05 291.55 953.05 286.8 953.05 281.6 954.75 278.95 M 973.5 226.9 Q 974.15 226.2 973.1 225.85 L 969.4 222.8 969.1 222.45 968.35 222.8 Q 965.75 226.5 961.25 226.5 955.75 226.5 954.1 221.75 953.4 221.1 953.4 219 L 953.7 218.75 973.5 218.75 Q 974.45 218.75 974.45 218.05 L 974.15 212.3 Q 972.5 199.35 960.2 199.35 954.75 199.35 951.7 202.05 948.05 204.7 946.9 208.9 945.95 211.55 945.95 214.9 945.95 220.5 947.6 224.55 949 228.6 952.35 230.55 956.5 233.05 960.9 233.05 964.2 233.05 968.35 231.25 971.7 229.6 973.5 226.9 M 954.1 210.2 Q 954.75 207.85 956.05 206.8 957.9 205.75 960.2 205.75 962.85 205.75 964.3 206.8 L 966.65 210.5 967.05 213 966.65 213.25 953.7 213.25 953.4 213 954.1 210.2 Z"/>
</g>
<g id="l2">
<path fill="#1369B2" stroke="none" d="M 191 517.05 L 180.85 542.25 204.35 550.7 212.45 525.2 191 517.05 M 106.35 85 L 89.3 66.6 Q 73.35 81.7 61.05 96.25 L 96.15 125.15 Q 126.15 88.35 167.9 65.3 L 145.8 25.8 Q 128.05 35.75 113.75 46.2 L 128.75 66.6 Q 116.8 75.85 106.35 85 M 397.15 119.35 L 417.65 88.7 Q 359 48.9 287.7 48.9 191.4 48.9 122.95 117.3 54.65 185.4 54.65 281.6 54.65 378.2 122.95 446.3 191.4 514.7 287.7 514.7 360.1 514.7 420 473.5 L 398.85 443.25 Q 348.45 477.65 287.7 477.65 206.7 477.65 149.2 420.15 91.65 362.95 91.65 281.6 91.65 200.6 149.2 143.15 206.7 85.65 287.7 85.65 347.45 85.65 397.15 119.35 M 358.8 245.65 Q 362.5 244.9 362.5 242.2 362.5 220.8 352.25 204.4 342.05 188.4 324.05 179.2 305.5 170.45 281.85 170.45 257.4 170.45 239.3 179.9 220.9 189.15 211.15 206.15 201.25 222.8 201.25 245.65 L 201.25 317.65 Q 201.25 340.5 211.15 357.2 220.55 373.75 239.3 383.7 258.4 393.2 281.85 393.2 305.7 393.2 324.05 384 342.05 375.2 352.25 358.5 362.5 342.25 362.5 320.75 362.5 319.5 361.45 318.35 360.8 317.65 358.8 317.65 L 322.35 316 Q 318.6 316 318.6 319.4 318.6 335.4 308.45 345.65 298.25 355.45 281.85 355.45 265.5 355.45 255 345.65 244.75 335.4 244.75 319.4 L 244.75 244.6 Q 244.75 228.25 255 218.05 265.55 208.15 281.85 208.15 298.2 208.15 308.45 218.05 318.6 228.25 318.6 244.6 318.6 248 321.65 248 L 358.8 245.65 M 398.2 173.1 Q 396.5 173.1 395.55 174.15 394.5 175.15 394.5 176.85 L 394.5 386.8 Q 394.5 388.5 395.55 389.5 396.5 390.55 398.2 390.55 L 434.65 390.55 Q 435.95 390.55 437.3 389.5 438.35 388.45 438.35 386.8 L 438.35 176.85 Q 438.35 175.2 437.3 174.15 435.95 173.1 434.65 173.1 L 398.2 173.1 M 552.6 170.45 Q 529.5 170.45 510.5 179.9 492.1 189.8 481.95 206.8 472.05 223.35 472.05 246.95 L 472.05 316.7 Q 472.05 339.9 481.95 356.45 492 373.45 510.5 383.4 529.15 393.2 552.6 393.2 576.5 393.2 594.8 384 612.85 375.2 623.1 357.2 632.95 339.5 632.95 316.3 L 632.95 275.2 Q 632.95 274.15 631.9 272.4 630.9 271.4 629.2 271.4 L 553.35 271.4 Q 551.7 271.4 550.6 272.4 549.6 274.2 549.6 275.2 L 549.6 303.75 Q 549.6 305.5 550.6 306.5 551.65 307.55 553.35 307.55 L 588 307.55 Q 589.8 307.55 589.8 309.15 L 589.8 323.1 Q 589.8 338.15 580.15 346.95 570.7 355.45 554.4 355.45 537.65 355.45 526.45 344.9 515.55 334.6 515.55 317.65 L 515.55 245.65 Q 515.55 229.3 525.8 218.35 536.05 208.15 552.6 208.15 569.3 208.15 579.25 218.05 589.05 227.9 589.05 241.85 L 589.05 242.9 Q 589.05 244.5 590.1 245.65 591.15 246.6 592.75 246.6 L 629.2 246.6 Q 630.95 246.6 631.9 245.65 632.95 244.6 632.95 242.9 L 632.95 240.8 Q 632.95 221.45 622.7 205.1 612.15 188.7 594.5 179.9 576.5 170.45 552.6 170.45 Z"/>
</g>
<g id="l3">
<path fill="#58BAE7" fill-opacity="0.8" stroke="none" d="M 101.6 185.7 L 44.8 156.45 Q 14.45 214.3 14.45 281.6 14.45 328.55 29.8 372.45 53.25 438.8 105.95 486.1 L 148.45 438.1 Q 116.3 409.65 98.15 370.8 93.25 360.15 90.05 351 78.1 317.5 78.1 281.6 78.1 230.4 101.6 185.7 Z"/>
</g>
<g id="l4">
<path fill="#ABDDF3" fill-opacity="0.4" stroke="none" d="M 130.5 355.45 L 91 374.2 Q 109.4 413.7 143.1 444.3 183.65 480 235.55 492.6 262.3 499 287.7 499 L 287.7 455.1 Q 266.2 455.1 245.8 450.05 207.65 440.8 177.45 416 147.35 391.05 130.5 355.45 Z"/>
</g>
<g id="l5">
<path fill="#6DC3EA" fill-opacity="0.6980392156862745" stroke="none" d="M 287.7 491.15 L 287.7 555.1 Q 328.05 555.1 368.65 542.5 L 349.9 481.65 Q 318.65 491.15 287.7 491.15 Z"/>
</g>
<g id="l6">
<path fill="#6DC3EA" fill-opacity="0.6980392156862745" stroke="none" d="M 355.7 84 L 376.4 23.45 Q 333.25 8.5 287.7 8.5 251.75 8.5 216.55 18.05 L 232.9 79.5 237.3 78.6 Q 261.7 72.4 287.7 72.4 323.35 72.4 355.7 84 Z"/>
</g>
<g id="l7">
<path fill="#ABDDF3" fill-opacity="0.4" stroke="none" d="M 235.55 71.05 L 230.85 72.1 Q 190.85 82.55 156.3 108.85 L 182.85 143.5 Q 210.85 122.3 245.3 113.4 L 235.55 71.05 Z"/>
</g>
<g id="l8">
<path fill="#2EA9E1" stroke="none" d="M 229.15 529.35 L 222.95 555.5 Q 240.65 559.45 251.2 560.65 L 254.6 534.05 Q 237.6 531.4 229.15 529.35 M 163.1 534.05 L 174.65 509.9 153.3 498 139.3 520.8 Q 149.6 527.5 163.1 534.05 Z"/>
</g>
</defs>
<g transform="matrix(1,0,0,1,0,0)">
<use xlink:href="#l1"/>
</g>
<g transform="matrix(1,0,0,1,0,0)">
<use xlink:href="#l2"/>
</g>
<g transform="matrix(1,0,0,1,0,0)">
<use xlink:href="#l3"/>
</g>
<g transform="matrix(1,0,0,1,0,0)">
<use xlink:href="#l4"/>
</g>
<g transform="matrix(1,0,0,1,0,0)">
<use xlink:href="#l5"/>
</g>
<g transform="matrix(1,0,0,1,0,0)">
<use xlink:href="#l6"/>
</g>
<g transform="matrix(1,0,0,1,0,0)">
<use xlink:href="#l7"/>
</g>
<g transform="matrix(1,0,0,1,0,0)">
<use xlink:href="#l8"/>
</g>
</svg>
