<svg xmlns="http://www.w3.org/2000/svg" xmlns:xlink="http://www.w3.org/1999/xlink" width="100%" height="100%" viewBox="0 0 1024 369">
<defs>
<g id="l1">
<path fill="#000000" stroke="none" d="M 580.5 354.8 L 575.55 354.8 Q 574.3 354.8 573.45 356.05 571.2 357.9 569.1 357.9 564.45 357.9 564 351.7 L 580.95 351.7 Q 581.65 336.3 569.1 336.3 557.05 336.3 557.05 349.75 557.05 363.55 569.1 363.6 578.5 363.6 580.5 354.8 M 569.1 341.65 Q 573.35 341.65 574 346.95 L 564 346.95 Q 564.8 341.65 569.1 341.65 M 589.95 332.35 Q 589.95 329.1 586.75 329.1 L 583.3 329.1 583.3 363 589.95 363 589.95 332.35 M 635.8 336.55 L 632.35 336.55 632.35 363 639.05 363 639.05 339.75 Q 639.05 336.55 635.8 336.55 M 635.8 329.1 L 632.35 329.1 632.35 334.2 639.05 334.2 639.05 332.35 Q 639.05 329.1 635.8 329.1 M 612.75 329.1 L 609.45 329.1 Q 605.9 329.1 605.9 332.8 L 605.9 363 629.3 363 629.3 356.7 612.75 356.7 612.75 329.1 M 548.6 340.2 Q 545.75 336.3 540.95 336.3 530.45 336.85 530.45 350.05 530.45 363.15 542.75 363.45 554.95 363.45 554.95 351.7 L 554.95 332.35 Q 554.95 329.1 551.8 329.1 L 548.6 329.1 548.6 340.2 M 542.75 357.9 Q 537.2 357.9 537.2 349.75 537.65 342.1 543.05 342.1 548.3 342.1 548.6 349.75 548.6 357.9 542.75 357.9 M 587.7 286.55 L 584.15 286.55 Q 580.65 286.55 580.65 290 L 580.65 320.4 587.7 320.4 587.7 286.55 M 598.05 286.55 L 590.5 286.55 602 320.4 608.65 320.4 620.3 286.55 615.2 286.55 Q 612.75 286.55 611.9 289.15 L 605.25 311.75 598.05 286.55 M 572.65 286.55 Q 570.35 286.55 569.55 288.15 L 563.55 298.35 556.6 286.55 548.75 286.55 559.25 302.95 548.75 320.4 556.6 320.4 563.55 308.5 570.55 320.4 578.55 320.4 567.9 302.95 578.55 286.55 572.65 286.55 M 899.05 363.6 Q 908.35 363.6 910.35 354.8 L 905.6 354.8 Q 904.15 354.8 903.4 356.05 901.05 357.9 899.05 357.9 894.5 357.9 893.95 351.7 L 910.8 351.7 Q 911.6 336.3 899.05 336.3 886.95 336.3 886.95 349.75 886.95 363.55 899.05 363.6 M 903.95 346.95 L 893.95 346.95 Q 894.6 341.65 899.05 341.65 903.15 341.65 903.95 346.95 M 916.2 312.2 L 911.35 312.2 Q 910 312.2 909 313.25 907 315.05 905.05 315.05 899.5 315.05 899.5 307.1 899.5 299.3 904.8 299.3 907.9 299.3 909 302.1 L 916.2 302.1 Q 914.25 293.45 904.8 293.45 892.85 294 892.85 307.1 893.3 320.8 905.05 320.8 914.25 321.35 916.2 312.2 M 935.85 346.3 Q 935.85 342.1 940.25 342.1 944.8 342.1 944.9 346.3 L 944.9 359.95 Q 944.9 363.05 948.15 363.15 L 951.65 363.15 951.65 347.6 Q 951.65 336.3 940.25 336.3 935.75 336.3 932.4 338.4 929.55 336.3 924.55 336.3 913.15 336.3 913.15 347.4 L 913.15 363 920.1 363 920.1 346.3 Q 920.1 342.1 924.55 342.1 928.85 342.1 929.1 346.3 L 929.1 363 935.85 363 935.85 346.3 M 939.6 320.8 Q 951.65 320.8 951.65 307.1 951.65 293.45 939.6 293.45 927.5 293.45 927.5 307.1 927.5 320.8 939.6 320.8 M 944.7 307.1 Q 944.7 315.05 939.6 315.05 934.7 315.05 934.2 307.1 934.2 299.3 939.6 299.3 944.7 299.3 944.7 307.1 M 829.8 336.55 L 823.3 336.55 823.3 352.5 Q 823.3 359.35 826.9 361.35 830.35 363.45 834.25 363.45 838 363.45 842.1 361.5 845.55 359.35 845.55 352.5 L 845.55 336.55 842.1 336.55 Q 838.8 336.55 838.8 340 L 838.8 353.95 Q 838.8 358.35 834.45 358.35 829.8 358.35 829.8 353.95 L 829.8 336.55 M 815.5 313.25 Q 813.65 315.05 811.3 315.05 806.4 315.05 806 308.95 L 823.15 308.95 Q 823.85 293.45 811.3 293.45 799.25 294 799.25 307.1 799.25 320.7 811 320.8 820.5 320.8 822.7 312.2 L 817.75 312.2 Q 816.5 312.2 815.5 313.25 M 811 299 Q 815.5 299 815.95 304.4 L 806.3 304.4 Q 806.85 299 811 299 M 881.2 332.35 Q 881.2 329.1 878 329.1 L 874.55 329.1 874.55 357.9 Q 874.55 362.35 878.25 362.8 882.2 363.25 885.1 362.8 L 885.1 357.6 883 357.6 Q 881.2 357.6 881.2 356.05 L 881.2 341.4 881.9 341.4 Q 885.1 341.4 885.1 338.1 L 885.1 336.55 881.2 336.55 881.2 332.35 M 859.5 341.65 Q 863.4 341.65 863.7 343.95 863.7 346.3 859.5 346.6 854.2 347.1 851.3 348.85 848.1 350.95 847.85 355.35 847.85 359.8 850.95 361.8 853.95 363.9 858.75 363.45 870.05 362.8 870.05 352.5 L 870.05 343.5 Q 870.05 336.3 858.95 336.3 849.65 336.3 848.85 343.5 L 855.3 343.5 Q 855.95 341.65 859.5 341.65 M 858.5 351.3 L 863.85 349.75 863.85 352.3 Q 863.85 358.05 857.85 358.05 854.65 358.05 854.4 355.05 854.4 352.15 858.5 351.3 M 866.6 320.4 L 866.6 304.85 Q 866.6 293.45 855.5 293.45 844.2 293.45 844.2 304.85 L 844.2 320.4 850.95 320.4 850.95 303.4 Q 850.95 299.3 855.3 299.3 859.7 299.3 859.95 303.4 L 859.95 317.15 Q 859.95 319.9 863.25 320.4 L 866.6 320.4 M 879.55 303.95 Q 873.9 304.65 871.55 306.2 868.45 308.1 868.25 312.4 868.25 316.7 871.25 318.95 874.1 321.35 878.9 320.8 890.5 320.05 890.5 309.75 L 890.5 300.9 Q 890.2 293.45 879.35 293.45 870.35 293.45 869 300.9 L 875.65 300.9 Q 876.45 299 879.55 299 883.75 299 884 301.1 884 303.3 879.55 303.95 M 878.25 315.5 Q 875.25 315.5 874.7 312.2 874.7 309.5 878.75 308.75 L 884 307.1 884 309.5 Q 884 315.5 878.25 315.5 M 840.9 293.9 L 839.8 293.9 Q 826.9 293.9 826.4 306.65 L 826.4 320.4 833.05 320.4 833.05 306.65 Q 833.05 300.9 838.65 300.9 L 840.9 300.9 840.9 293.9 M 919.8 291.65 L 926.55 291.65 926.55 289.8 Q 926.55 286.55 923.4 286.55 L 919.8 286.55 919.8 291.65 M 923.4 293.9 L 919.8 293.9 919.8 320.4 926.55 320.4 926.55 297.2 Q 926.55 293.9 923.4 293.9 M 736.55 363.6 Q 746.05 363.6 748.05 354.8 L 743.25 354.8 Q 742.15 354.8 740.85 356.05 739.05 357.9 736.75 357.9 731.95 357.9 731.4 351.7 L 748.5 351.7 Q 749.35 336.3 736.75 336.3 724.65 336.3 724.65 349.75 724.65 363.55 736.55 363.6 M 741.7 346.95 L 731.65 346.95 Q 732.3 341.65 736.55 341.65 740.85 341.65 741.7 346.95 M 758.55 346.3 Q 758.55 342.1 762.9 342.1 767.55 342.1 767.55 346.3 L 767.55 359.7 Q 767.55 363 770.75 363 L 774.2 363 774.2 347.4 Q 774.2 336.3 763.1 336.3 751.8 336.3 751.8 347.4 L 751.8 363 758.55 363 758.55 346.3 M 796.25 345.75 Q 796.25 334.65 805 334.65 810.1 334.65 812 338.65 813.4 340.55 814.95 340.55 L 819.4 340.55 Q 819.3 334.65 814.95 331.7 811 328.65 804.85 328.65 797.65 328.55 793.25 333.55 788.8 338.45 789.05 346.1 789.05 353.8 793.25 358.5 797.55 363.45 804.65 363.45 810.95 363.45 814.3 358.7 L 814.75 360.35 Q 814.75 363 818.05 363 L 819.85 363 819.85 344.65 806 344.65 806 346.95 Q 806 348.4 807.1 349.5 808.1 350.5 809.4 350.5 L 813.65 350.5 Q 812.5 357.6 805.45 357.6 796.25 356.85 796.25 345.75 M 784.5 320.4 L 784.5 304.85 Q 784.5 293.45 773.4 293.45 762 293.45 762 304.85 L 762 320.4 768.65 320.4 768.65 303.4 Q 768.65 299.3 773.1 299.3 777.6 299.3 777.65 303.4 L 777.65 317.15 Q 777.65 319.9 780.95 320.4 L 784.5 320.4 M 697.65 363.6 Q 709.6 363.6 709.6 350.05 709.6 336.3 697.65 336.3 685.55 336.3 685.55 350.05 685.55 363.6 697.65 363.6 M 697.65 357.6 Q 692.3 357.6 692.3 350.05 692.3 342.1 697.65 342.1 702.7 342.1 702.7 349.75 702.4 357.6 697.65 357.6 M 653.45 363.45 Q 665.6 363.15 665.6 350.05 665.6 336.85 655.3 336.3 650.35 336.3 647.9 340.2 L 647.9 332.35 Q 647.9 329.1 644.35 329.1 L 641.15 329.1 641.15 351.7 Q 641.15 363.45 653.45 363.45 M 659.05 349.75 Q 659.05 357.9 653.45 357.9 647.65 357.9 647.9 349.75 647.9 342.1 653.45 342.1 658.75 342.1 659.05 349.75 M 682.1 343.5 L 684.2 343.5 684.2 336.55 683.25 336.55 Q 670.35 336.55 669.85 349.5 L 669.85 363 676.5 363 676.5 349.2 Q 676.5 343.5 682.1 343.5 M 685.8 312.2 L 681 312.2 Q 679.6 312.2 678.9 313.25 676.5 315.05 674.45 315.05 669.85 315.05 669.35 308.95 L 686.35 308.95 Q 686.9 293.45 674.45 293.45 662.5 294 662.5 307.1 662.5 320.7 674.45 320.8 683.65 320.8 685.8 312.2 M 669.35 304.4 Q 670.15 299 674.45 299 678.6 299 679.35 304.4 L 669.35 304.4 M 722.2 300.9 Q 722.9 299 726.1 299 730.1 299 730.55 301.1 730.55 303.3 726.1 303.95 720.55 304.65 718 306.2 715 308.1 714.8 312.4 714.8 316.7 717.8 318.95 720.65 321.35 725.45 320.8 736.95 320.15 736.95 309.75 L 736.95 300.9 Q 736.85 293.45 725.8 293.45 716.8 293.45 715.45 300.9 L 722.2 300.9 M 724.65 315.5 Q 721.7 315.5 721.25 312.2 721.25 309.5 725.2 308.75 L 730.55 307.1 730.55 309.5 Q 730.55 315.5 724.65 315.5 M 714.05 291.65 L 714.05 289.8 Q 714.05 286.55 710.9 286.55 L 707.6 286.55 707.6 291.65 714.05 291.65 M 710.9 293.9 L 707.6 293.9 707.6 320.4 714.05 320.4 714.05 297.2 Q 714.05 293.9 710.9 293.9 M 704.05 293.9 L 703.2 293.9 Q 690 293.9 689.45 306.65 L 689.45 320.4 696.2 320.4 696.2 306.65 Q 696.2 300.9 701.75 300.9 L 704.05 300.9 704.05 293.9 M 660.1 292.25 L 660.1 286.55 639.25 286.55 Q 635.6 286.55 635.6 290 L 635.6 320.4 642.55 320.4 642.55 305.2 652 305.2 Q 653.65 305.2 654.55 304.4 655.75 303 655.75 301.85 L 655.75 299.45 642.55 299.45 642.55 292.25 660.1 292.25 M 790.25 286.55 L 786.8 286.55 786.8 315.25 Q 786.8 319.6 790.25 319.9 L 797.45 320.05 797.45 315.05 795.35 315.05 Q 793.25 315.05 793.25 313.4 L 793.25 298.65 794 298.65 Q 797.45 298.65 797.45 295.35 L 797.45 293.9 793.25 293.9 793.25 289.8 Q 793.25 286.55 790.25 286.55 M 759.15 286.55 L 755.7 286.55 Q 752.25 286.55 752.25 290 L 752.25 320.4 759.15 320.4 759.15 286.55 M 977.25 352.5 L 977.25 343.5 Q 977.15 336.3 966.1 336.3 956.65 336.3 955.8 343.5 L 962.45 343.5 Q 963 341.65 966.5 341.65 970.6 341.65 970.6 343.95 970.6 346.3 966.5 346.6 961 347.1 958.3 348.85 955 350.95 955 355.35 955 359.7 958.1 361.8 961 363.9 965.75 363.45 977.25 362.8 977.25 352.5 M 965.5 351.3 L 970.85 349.75 970.85 352.3 Q 970.85 358.05 964.85 358.05 961.55 358.05 961.55 355.05 961.55 352.15 965.5 351.3 M 1000.2 341.65 Q 1004.5 341.65 1004.55 343.95 1004.55 346.05 1000.2 346.6 994.8 347.1 992.2 348.85 989.15 350.7 988.9 355.35 988.9 359.7 991.8 361.8 994.65 363.8 999.55 363.45 1011.15 362.8 1011.15 352.5 L 1011.15 343.5 Q 1010.85 336.3 1000 336.3 991 336.3 989.55 343.5 L 996.3 343.5 Q 996.8 341.65 1000.2 341.65 M 995.35 355.05 Q 995.35 352.15 999.3 351.3 L 1004.55 349.75 1004.55 352.3 Q 1004.55 358.05 998.65 358.05 995.55 358.05 995.35 355.05 M 983.35 329.1 L 979.85 329.1 979.85 363 986.25 363 986.25 332.35 Q 986.25 329.1 983.35 329.1 M 974.15 320.4 L 977.25 320.4 977.25 304.85 Q 977.8 293.45 966.1 293.45 954.8 293.45 954.8 304.85 L 954.8 320.4 961.55 320.4 961.55 303.4 Q 962 299.3 966.1 299.3 970.6 299.3 970.85 303.4 L 970.85 317.15 Q 970.85 320.05 974.15 320.4 M 1001.45 309.75 L 1001.45 300.9 Q 1001.1 293.45 990.35 293.45 981.25 293.45 979.85 300.9 L 986.6 300.9 Q 986.9 299 990.55 299 994.75 299 994.75 301.1 994.75 303.2 990.55 303.95 985 304.55 982.35 306.2 979.25 308.1 979.25 312.4 979.25 316.6 982.15 318.95 985.05 321.35 989.8 320.8 1001.45 320.15 1001.45 309.75 M 994.9 307.1 L 994.9 309.5 Q 994.9 315.5 988.9 315.5 986.05 315.5 985.6 312.2 985.6 309.5 989.55 308.75 L 994.9 307.1 M 1010.4 289.8 Q 1010.4 286.55 1007.4 286.55 L 1003.95 286.55 1003.95 320.4 1010.4 320.4 1010.4 289.8 Z"/>
</g>
<g id="l2">
<path fill="#0C9AB7" stroke="none" d="M 281.15 161.5 Q 281.15 136.55 255.9 136.55 L 228.95 136.55 228.95 269.85 281.15 269.85 281.15 161.5 M 191.3 72.4 Q 178.55 73.75 169.05 79.6 159.95 85.7 153.5 94.15 150.65 98.55 149.1 101.55 L 149.1 269.85 202.4 269.85 202.4 123.6 271.1 123.6 271.1 71.95 202.4 71.95 Q 197.95 71.55 191.3 72.4 M 278.75 55.25 L 278.75 5.7 192.95 5.7 Q 177.9 5.7 163.5 17.45 149.1 28.85 149.1 40.5 L 149.1 85.95 Q 149.45 83.3 151.95 78.6 156.6 70 166.25 63.55 176.15 56.9 190.3 55.55 197.2 54.7 202.4 55.25 L 278.75 55.25 M 442.9 61.75 Q 346.55 63.55 346.55 166.35 346.55 273.75 429.3 273.75 468.3 273.75 488.55 243.25 L 488.55 264.3 Q 488.55 312.4 446.9 312.4 415.2 312.4 409.55 290.8 L 352.15 290.8 Q 370.35 356.4 441.05 356.4 540.1 354.8 540.1 276.85 L 540.1 154.4 Q 540.1 61.45 442.9 61.75 M 400.35 168 Q 400.35 105.3 444.55 105.3 489 105.3 488.55 168 486.25 227.95 443.9 227.95 402.15 227.95 400.35 168 M 340.85 30.65 Q 340.85 20.55 333.45 12.9 326.15 5.3 315.85 5.3 L 288.8 5.3 288.8 269.85 340.85 269.85 340.85 30.65 M 723.55 62.75 L 696.95 62.75 Q 671.15 62.75 671.95 88.45 L 671.95 197.85 Q 671.95 232.4 636.5 232.4 601.25 232.4 601.25 197.85 L 601.25 62.75 549.25 62.75 549.25 187.2 Q 549.25 239.35 576.3 256.25 603.1 273.75 635.15 273.75 667.8 273.75 696.2 257.9 723.55 240.4 723.55 187.2 L 723.55 62.75 M 852.55 119.85 Q 852.55 136.55 818.7 140.65 774.85 144.9 754.8 158.15 730.1 174 729.1 208.7 729.1 242.5 752.45 259.9 775.3 276.8 813.5 273.75 903.95 267.65 903.95 187.2 L 903.95 116.6 Q 902.35 59.45 816.4 59.45 744.6 59.45 735.3 116.6 L 787.4 116.6 Q 791.7 102.2 818.7 102.2 850.95 102.2 852.55 119.85 M 853.2 165.7 L 853.2 184.9 Q 853.2 206.9 840.65 219.2 828.45 231.4 806.65 231.4 782.15 231.4 780.6 207.15 780.6 184.2 811.85 178.2 835.65 173.15 853.2 165.7 Z"/>
</g>
<g id="l3">
<path fill="#2C798B" stroke="none" d="M 202.4 123.6 Q 197.95 122.4 191.3 122.4 176.35 122.4 166.25 130.25 152 141.3 149.55 167.05 154.5 146.85 169.7 138.35 180.1 132.45 194.05 132.45 199.5 132.45 202.4 132.8 L 202.4 123.6 Z"/>
</g>
<g id="l4">
<path fill="#ECB71D" stroke="none" d="M 139.25 36.95 Q 138.1 33.1 134.8 28.2 128.8 19.35 120.65 14.25 112.95 9.4 102.65 6.4 L 12.8 5.3 12.8 131 Q 87.95 131.25 90.95 131 109.2 128.45 122.6 138.8 127.4 142.9 132.05 149.3 L 137.1 158.15 Q 138.15 159.95 139.25 158.75 139.65 158.15 139.65 153.85 L 139.65 42.3 Q 139.65 37.6 139.25 36.95 Z"/>
</g>
</defs>
<g transform="matrix(1,0,0,1,0,0)">
<use xlink:href="#l1"/>
</g>
<g transform="matrix(1,0,0,1,0,0)">
<use xlink:href="#l2"/>
</g>
<g transform="matrix(1,0,0,1,0,0)">
<use xlink:href="#l3"/>
</g>
<g transform="matrix(1,0,0,1,0,0)">
<use xlink:href="#l4"/>
</g>
</svg>
