<svg xmlns="http://www.w3.org/2000/svg" xmlns:xlink="http://www.w3.org/1999/xlink" width="100%" height="100%" viewBox="0 0 1024 372">
<defs>
<g id="l1">
<path fill="#82D2F4" stroke="none" d="M 134.9 182 L 134.9 103.45 112.65 103.45 112.65 182 134.9 182 M 40.4 121.85 L 40.4 99.9 96 99.9 96 79.45 17.9 79.45 17.9 182 40.4 182 40.4 142.25 89.3 142.25 89.3 121.85 40.4 121.85 M 112.05 75 L 112.05 94.85 135.45 94.85 135.45 75 112.05 75 M 203.25 126.75 L 211.7 111.4 Q 205.4 107.15 197.55 104.7 189.9 102.3 182.45 102.3 170.05 102.3 162.15 108.75 153.75 115.65 153.75 127.25 L 153.75 127.45 Q 153.75 137.7 161.3 143.8 166.6 148.05 177.15 151.15 186.9 154.1 188.55 154.8 193.5 156.95 193.5 160.15 L 193.5 160.4 Q 193.5 166.25 184.05 166.25 172.2 166.25 159.25 156.95 L 149.7 171.55 Q 164.75 183.45 183.45 183.45 196.9 183.45 204.8 177.45 213.45 170.65 213.45 158.1 L 213.45 157.8 Q 213.45 148.15 205.75 142.15 200.55 138.15 189.8 134.6 180.6 131.4 178.7 130.45 173.85 128.05 173.85 125.15 L 173.85 124.85 Q 173.85 122.5 175.9 121.05 178.1 119.4 182 119.4 190.7 119.4 203.25 126.75 M 237.2 114 Q 225.6 125.9 225.6 142.85 L 225.6 143.2 Q 225.6 160.15 237.2 171.9 249 183.75 266.5 183.75 277.55 183.75 285.55 179.7 292.2 176.4 298.65 169.35 L 285.55 156.15 Q 281.15 160.4 277.25 162.25 272.8 164.55 267.5 164.55 258.6 164.55 253.05 158.2 247.65 152.15 247.65 142.85 L 247.65 142.65 Q 247.65 133.8 253.05 127.55 258.6 121.15 266.7 121.15 272.35 121.15 276.7 123.55 280.45 125.5 284.5 129.85 L 298.15 115.15 Q 292.35 108.65 285.3 105.55 277.35 102 266.8 102 249 102 237.2 114 M 423.2 182 L 423.2 75 400.9 75 400.9 182 423.2 182 M 380.6 136.45 Q 380.6 119.9 372.15 111.4 363.55 102.55 345.55 102.55 336.3 102.55 328.6 104.25 322.25 105.75 315.15 108.85 L 320.7 125.9 Q 332.3 121.65 342.35 121.65 350.65 121.65 355 125.4 359.25 129.1 359.25 135.95 L 359.25 137.3 Q 350.2 134.1 340.05 134.1 325.5 134.1 317.2 140.2 308.4 146.75 308.4 159.15 L 308.4 159.5 Q 308.4 170.75 316.35 177.3 323.8 183.45 335.4 183.45 350.1 183.45 359.1 173.5 L 359.1 182 380.6 182 380.6 136.45 M 359.6 154.35 Q 359.6 160.4 354.75 164.2 349.8 168.1 342.15 168.1 336.65 168.1 333.3 165.55 330 163.05 330 158.6 L 330 158.2 Q 330 153.05 334.15 150.2 338.1 147.45 345.35 147.45 353.1 147.45 359.6 150.3 L 359.6 154.35 Z"/>
</g>
<g id="l2">
<path fill="#022A4E" stroke="none" d="M 481.65 328.35 L 460.95 312 503.25 293.95 463.15 261.9 403.3 298.75 428.85 319.1 370.7 364.55 481.3 328.75 481.65 328.35 Z"/>
</g>
<g id="l3">
<path fill="#022A4E" stroke="none" d="M 721.45 194.65 Q 735.15 132.4 700.75 78.7 666.4 25.05 604.05 11.4 541.8 -2.25 488.05 32.15 434.45 66.6 420.8 128.8 407.25 191.1 441.6 244.8 476.05 298.45 538.25 312.1 600.45 325.75 654.2 291.3 707.8 256.95 721.45 194.65 M 674.9 95.3 Q 702.3 138.25 691.4 188.1 680.4 238 637.55 265.35 594.75 292.8 544.9 281.9 495 271 467.55 228.15 440.05 185.2 451 135.4 461.9 85.55 504.7 58.1 547.65 30.7 597.5 41.55 647.45 52.5 674.9 95.3 Z"/>
</g>
<g id="l4">
<path fill="#337BAE" stroke="none" d="M 635.05 86.8 L 635.05 62.95 500.7 61.55 500.7 85.45 635.05 86.8 M 837.4 321.6 L 833.2 321.6 833.2 328.85 Q 831.5 326.7 828.6 326.7 825.85 326.7 823.9 328.65 821.85 330.8 821.85 334.35 821.85 337.9 823.9 340.1 825.85 342.05 828.6 342.05 831.35 342.05 833.2 339.65 L 833.2 341.8 837.4 341.8 837.4 321.6 M 827.1 331.35 Q 828.15 330.2 829.75 330.2 831.25 330.2 832.3 331.35 833.35 332.5 833.35 334.35 833.35 336.2 832.3 337.35 831.25 338.5 829.75 338.5 828.15 338.5 827.1 337.35 826.1 336.2 826.1 334.35 826.1 332.5 827.1 331.35 M 854.2 339.75 Q 856.45 337.55 856.45 334.35 856.45 331.15 854.2 328.95 851.85 326.7 848.4 326.7 845 326.7 842.7 328.95 840.4 331.15 840.4 334.35 L 840.4 334.45 Q 840.4 337.7 842.7 339.85 845 342.05 848.4 342.05 851.85 342.05 854.2 339.75 M 852.35 334.45 Q 852.35 336.2 851.3 337.35 850.15 338.5 848.4 338.5 846.7 338.5 845.7 337.25 844.5 336.1 844.5 334.35 844.5 332.6 845.55 331.45 846.7 330.35 848.4 330.35 850.15 330.35 851.3 331.45 852.35 332.6 852.35 334.35 L 852.35 334.45 M 864.35 330 Q 866.2 330 868.4 331.35 L 870 328.55 Q 867.55 326.8 864.45 326.8 862.2 326.8 860.7 327.95 859.1 329.3 859.1 331.45 859.1 334.7 863.5 336 866.55 336.85 866.55 337.7 866.55 338.8 864.85 338.8 862.45 338.8 860.1 337 L 858.3 339.85 Q 861.15 342.05 864.75 342.05 870.35 342.05 870.35 337.25 870.35 334.35 865.9 332.9 862.9 331.85 862.9 331.05 862.9 330 864.35 330 M 803.45 334.45 Q 803.45 337.7 805.8 339.85 808.05 342.05 811.5 342.05 814.95 342.05 817.25 339.75 819.55 337.55 819.55 334.35 819.55 331.15 817.25 328.95 814.95 326.7 811.5 326.7 808.05 326.7 805.8 328.95 803.45 331.15 803.45 334.35 L 803.45 334.45 M 808.75 337.25 Q 807.6 336.1 807.6 334.35 807.6 332.6 808.6 331.45 809.75 330.35 811.5 330.35 813.25 330.35 814.4 331.45 815.4 332.6 815.4 334.35 L 815.4 334.45 Q 815.4 336.2 814.4 337.35 813.25 338.5 811.5 338.5 809.75 338.5 808.75 337.25 M 801.15 330.55 L 801.15 327 797.6 327 797.6 323.2 793.5 323.2 793.5 327 791.65 327 791.65 330.55 793.5 330.55 793.5 337.55 Q 793.5 342.05 797.75 342.05 799.6 342.05 801.05 341.15 L 801.05 337.8 Q 800.15 338.4 799 338.4 797.6 338.4 797.6 336.85 L 797.6 330.55 801.15 330.55 Z"/>
</g>
<g id="l5">
<path fill="#82D2F4" stroke="none" d="M 580.4 334.45 Q 580.4 337.7 582.65 339.85 584.95 342.05 588.45 342.05 591.85 342.05 594.15 339.75 596.45 337.55 596.45 334.35 596.45 331.15 594.15 328.95 591.85 326.7 588.45 326.7 584.95 326.7 582.65 328.95 580.4 331.15 580.4 334.35 L 580.4 334.45 M 585.65 337.25 Q 584.5 336.1 584.5 334.35 584.5 332.6 585.55 331.45 586.7 330.35 588.45 330.35 590.15 330.35 591.15 331.45 592.2 332.6 592.2 334.35 L 592.2 334.45 Q 592.2 336.2 591.15 337.35 590.15 338.5 588.45 338.5 586.7 338.5 585.65 337.25 M 578 330.55 L 578 327 574.5 327 574.5 323.2 570.25 323.2 570.25 327 568.55 327 568.55 330.55 570.25 330.55 570.25 337.55 Q 570.25 342.05 574.65 342.05 576.45 342.05 578 341.15 L 578 337.8 Q 577.05 338.4 575.9 338.4 574.5 338.4 574.5 336.85 L 574.5 330.55 578 330.55 M 624.7 327 L 620.25 327 626.05 341.9 629.85 341.9 635.75 327 631.4 327 628 336.85 624.7 327 M 608.4 331.35 L 610 328.55 Q 607.6 326.8 604.5 326.8 602.1 326.8 600.6 327.95 599 329.3 599 331.45 599 334.7 603.45 336 606.55 336.85 606.55 337.7 606.55 338.8 604.7 338.8 602.3 338.8 600.15 337 L 598.3 339.85 Q 601.2 342.05 604.6 342.05 610.35 342.05 610.35 337.25 610.35 334.35 605.85 332.9 602.75 331.75 602.75 331.05 602.75 330 604.4 330 606.25 330 608.4 331.35 M 564.75 328.15 Q 563.4 326.7 561 326.7 558.55 326.7 556.6 329.1 L 556.6 327 552.45 327 552.45 341.8 556.6 341.8 556.6 333.55 Q 556.6 330.45 559.25 330.45 561.75 330.45 561.75 333.55 L 561.75 341.8 566 341.8 566 332.2 Q 566 329.65 564.75 328.15 M 535.15 336.55 Q 535.15 339.2 536.4 340.55 537.75 342.05 540.1 342.05 542.7 342.05 544.45 339.65 L 544.45 341.8 548.7 341.8 548.7 327 544.45 327 544.45 335.3 Q 544.45 338.25 541.8 338.25 539.3 338.25 539.3 335.3 L 539.3 327 535.15 327 535.15 336.55 M 531.35 322.45 L 527 322.45 527 334.95 Q 527 338.15 524.35 338.15 522.75 338.15 520.8 336.2 L 518.15 339.2 Q 520.8 342.05 524.5 342.05 527.8 342.05 529.55 340.25 531.35 338.4 531.35 335.05 L 531.35 322.45 M 558 99.8 L 501.5 99.8 501.5 244.5 558 244.5 Q 591.75 244.5 613.5 223.6 634.8 203 634.8 172.15 L 634.8 171.65 Q 634.8 140.9 613.5 120.45 591.75 99.8 558 99.8 M 533.4 128.5 L 558 128.5 Q 577.4 128.5 589.45 140.7 601.5 152.85 601.5 172.15 L 601.5 172.5 Q 601.5 191.75 589.45 203.7 577.4 215.65 558 215.65 L 533.4 215.65 533.4 128.5 M 665.9 237.15 L 665.9 167.4 646.2 167.4 646.2 237.15 665.9 237.15 M 909.5 327.95 Q 907.9 329.3 907.9 331.45 907.9 334.7 912.35 336 915.35 336.75 915.35 337.7 915.35 338.8 913.6 338.8 911.2 338.8 908.95 337 L 907.2 339.85 Q 910.1 342.05 913.5 342.05 919.15 342.05 919.15 337.25 919.15 334.35 914.65 332.9 911.65 331.85 911.65 331.05 911.65 330 913.3 330 915.15 330 917.3 331.35 L 918.9 328.55 Q 916.5 326.8 913.3 326.8 911 326.8 909.5 327.95 M 946.35 334.45 Q 946.35 337.7 948.65 339.85 950.85 342.05 954.3 342.05 957.7 342.05 960 339.75 962.35 337.55 962.35 334.35 962.35 331.15 960.15 328.95 957.8 326.7 954.4 326.7 950.95 326.7 948.65 328.95 946.35 331.15 946.35 334.35 L 946.35 334.45 M 951.6 337.25 Q 950.45 336.1 950.45 334.35 950.45 332.6 951.5 331.45 952.55 330.35 954.3 330.35 956 330.35 957.15 331.45 958.2 332.6 958.2 334.35 L 958.2 334.45 Q 958.2 336.2 957.15 337.35 956.15 338.5 954.4 338.5 952.65 338.5 951.6 337.25 M 935 341.9 L 938.75 341.9 944.65 327 940.3 327 936.9 336.85 933.6 327 929.15 327 935 341.9 M 889.3 334.35 L 889.3 334.45 Q 889.3 337.7 891.6 339.85 893.75 342.05 897.25 342.05 900.65 342.05 902.95 339.75 905.25 337.55 905.25 334.35 905.25 331.15 903.05 328.95 900.75 326.7 897.35 326.7 893.85 326.7 891.6 328.95 889.3 331.15 889.3 334.35 M 897.25 330.35 Q 898.9 330.35 900.05 331.45 901.1 332.6 901.1 334.35 L 901.1 334.45 Q 901.1 336.2 900.05 337.35 899.05 338.5 897.35 338.5 895.6 338.5 894.55 337.25 893.45 336.1 893.45 334.35 893.45 332.6 894.45 331.45 895.5 330.35 897.25 330.35 M 886.1 341.8 L 886.1 321.6 881.85 321.6 881.85 341.8 886.1 341.8 M 765.35 328.95 Q 763.05 326.7 759.65 326.7 756.15 326.7 753.85 328.95 751.55 331.15 751.55 334.35 L 751.55 334.45 Q 751.55 337.7 753.85 339.85 756.05 342.05 759.5 342.05 762.95 342.05 765.25 339.75 767.5 337.55 767.5 334.35 767.5 331.15 765.35 328.95 M 759.5 330.35 Q 761.2 330.35 762.35 331.45 763.4 332.6 763.4 334.35 L 763.4 334.45 Q 763.4 336.2 762.35 337.35 761.3 338.5 759.65 338.5 757.9 338.5 756.75 337.25 755.7 336.1 755.7 334.35 755.7 332.6 756.75 331.45 757.8 330.35 759.5 330.35 M 771.75 327.95 Q 770.2 329.3 770.2 331.45 770.2 334.85 774.65 336 777.65 336.75 777.65 337.7 777.65 338.8 775.9 338.8 773.5 338.8 771.2 337 L 769.5 339.85 Q 772.35 342.05 775.8 342.05 781.4 342.05 781.4 337.25 781.4 334.35 776.95 332.9 773.95 331.85 773.95 331.05 773.95 330 775.45 330 777.4 330 779.5 331.35 L 781.05 328.55 Q 778.7 326.8 775.6 326.8 773.3 326.8 771.75 327.95 M 666.7 321.6 L 666.7 325.25 671.2 325.25 671.2 321.6 666.7 321.6 M 681.4 324.95 Q 682.45 324.95 683.25 325.25 L 683.25 321.85 Q 681.65 321.4 680.25 321.4 678.1 321.4 676.95 322.55 675.7 323.8 675.7 326.2 L 675.7 327.1 673.95 327.1 673.95 330.55 675.7 330.55 675.7 341.8 679.95 341.8 679.95 330.55 683.25 330.55 683.25 327.1 679.85 327.1 679.85 326.55 Q 679.85 324.95 681.4 324.95 M 666.8 327 L 666.8 341.8 671.05 341.8 671.05 327 666.8 327 M 651.2 339.3 L 648.8 337.25 Q 647.2 338.7 645.25 338.7 642.25 338.7 641.55 335.9 L 651.9 335.9 652 334.7 Q 652 331.35 650.35 329.2 648.25 326.7 644.8 326.7 641.55 326.7 639.5 328.95 637.45 331.15 637.45 334.35 L 637.45 334.45 Q 637.45 337.8 639.6 339.95 641.8 342.05 645.15 342.05 649 342.05 651.2 339.3 M 641.55 333.2 Q 642.15 330.1 644.8 330.1 647.55 330.1 647.9 333.2 L 641.55 333.2 M 663.85 331.05 L 664 331.05 664 326.7 Q 660.9 326.55 659.25 330 L 659.25 327 655.1 327 655.1 341.8 659.25 341.8 659.25 336.3 Q 659.25 331.05 663.85 331.05 M 690 325.25 L 690 321.6 685.65 321.6 685.65 325.25 690 325.25 M 726 327 L 726 341.8 730.25 341.8 730.25 333.55 Q 730.25 330.45 732.75 330.45 735.15 330.45 735.15 333.55 L 735.15 341.8 739.4 341.8 739.4 333.55 Q 739.4 330.45 741.95 330.45 744.45 330.45 744.45 333.55 L 744.45 341.8 748.6 341.8 748.6 332.2 Q 748.6 326.7 743.65 326.7 740.8 326.7 738.7 329.1 737.6 326.7 734.6 326.7 731.9 326.7 730.25 329.1 L 730.25 327 726 327 M 722.4 333.2 Q 722.4 330.1 720.8 328.55 719.3 326.8 715.75 326.8 712.55 326.8 710 328.05 L 711 331.15 Q 713.45 330.35 715.15 330.35 718.35 330.35 718.35 333.1 L 718.35 333.3 Q 716.7 332.75 714.7 332.75 708.75 332.75 708.75 337.45 L 708.75 337.55 Q 708.75 339.65 710.25 340.9 711.6 342.05 713.8 342.05 716.8 342.05 718.25 340.25 L 718.25 341.8 722.4 341.8 722.4 333.2 M 715.75 335.3 Q 717.25 335.3 718.35 335.9 L 718.35 336.55 Q 718.35 337.7 717.5 338.4 716.7 339.2 715.15 339.2 712.85 339.2 712.85 337.35 712.85 335.3 715.75 335.3 M 689.9 341.8 L 689.9 327 685.75 327 685.75 341.8 689.9 341.8 M 706.8 329.2 Q 704.6 326.7 700.95 326.7 697.65 326.7 695.3 328.95 693.1 331.15 693.1 334.35 L 693.1 334.45 Q 693.1 337.7 695.3 339.85 697.65 342.05 700.85 342.05 704.6 342.05 706.9 339.4 L 704.5 336.85 Q 702.9 338.5 701.05 338.5 699.3 338.5 698.3 337.35 697.25 336.1 697.25 334.35 697.25 332.6 698.3 331.45 699.3 330.35 700.95 330.35 702.9 330.35 704.25 331.95 L 706.8 329.2 M 792.8 167.4 L 773 167.4 773 237.15 792.8 237.15 792.8 167.4 M 793.35 142.25 L 772.6 142.25 772.6 159.85 793.35 159.85 793.35 142.25 M 666.4 159.85 L 666.4 142.25 645.6 142.25 645.6 159.85 666.4 159.85 M 725.6 169.15 Q 719.8 166.15 712.3 166.15 699.7 166.15 690.85 174.65 681.4 183.75 681.4 198.65 L 681.4 198.9 Q 681.4 213.8 690.7 222.9 699.45 231.35 712.3 231.35 719.8 231.35 725.4 228.4 730.35 225.75 735.05 220.1 L 735.05 223.5 Q 735.05 242.4 715.15 242.4 702.8 242.4 691.65 236.1 L 684.85 250.9 Q 698.75 258.15 715.65 258.15 736.3 258.15 745.6 248.75 754.45 240.1 754.45 221.4 L 754.45 167.4 734.7 167.4 734.7 176.6 Q 730.25 171.55 725.6 169.15 M 706 187.05 Q 710.7 182.6 718.05 182.6 725.3 182.6 730.1 187.05 735.05 191.65 735.05 198.65 L 735.05 198.9 Q 735.05 205.9 730.1 210.45 725.3 214.95 718.05 214.95 710.7 214.95 706 210.6 701.05 206 701.05 198.9 L 701.05 198.65 Q 701.05 191.55 706 187.05 M 962.75 142.25 L 943 142.25 943 237.15 962.75 237.15 962.75 142.25 M 878.95 168.25 Q 873.45 169.5 867.05 172.25 L 872 187.3 Q 882.05 183.65 891.15 183.65 906.05 183.65 906.05 196.35 L 906.05 197.5 Q 898 194.65 889.05 194.65 876.2 194.65 868.85 200 861.05 205.8 861.05 216.8 L 861.05 217.1 Q 861.05 227 868.05 232.85 874.7 238.4 884.95 238.4 898 238.4 905.95 229.5 L 905.95 237.15 925.1 237.15 925.1 196.7 Q 925.1 182.1 917.55 174.45 909.6 166.7 894 166.7 885.75 166.7 878.95 168.25 M 906.4 212.55 Q 906.4 217.95 902.15 221.25 897.8 224.75 890.9 224.75 886.1 224.75 883.1 222.55 880.1 220.2 880.1 216.35 L 880.1 215.95 Q 880.1 211.4 883.8 208.9 887.35 206.45 893.75 206.45 900.55 206.45 906.4 209 L 906.4 212.55 M 834.35 149.6 L 814.6 149.6 814.6 167.4 806.35 167.4 806.35 184.3 814.6 184.3 814.6 217.4 Q 814.6 228.75 820.2 233.9 825.05 238.3 834.85 238.3 843.45 238.3 850.35 234.25 L 850.35 218.4 Q 845.8 220.8 840.65 220.8 834.35 220.8 834.35 214.05 L 834.35 184.3 850.7 184.3 850.7 167.4 834.35 167.4 834.35 149.6 M 1004.1 331.35 L 1005.7 328.55 Q 1003.3 326.8 1000.2 326.8 997.95 326.8 996.4 327.95 994.85 329.3 994.85 331.45 994.85 334.7 999.2 336 1002.3 336.75 1002.3 337.7 1002.3 338.8 1000.55 338.8 998.15 338.8 995.85 337 L 994 339.85 Q 996.9 342.05 1000.45 342.05 1006.05 342.05 1006.05 337.25 1006.05 334.35 1001.6 332.9 998.6 331.85 998.6 331.05 998.6 330 1000.1 330 1001.9 330 1004.1 331.35 M 973.8 330.55 L 973.8 327 970.25 327 970.25 323.2 966.1 323.2 966.1 327 964.3 327 964.3 330.55 966.1 330.55 966.1 337.55 Q 966.1 342.05 970.35 342.05 972.4 342.05 973.65 341.15 L 973.65 337.8 Q 972.8 338.4 971.65 338.4 970.25 338.4 970.25 336.85 L 970.25 330.55 973.8 330.55 M 989.9 328.95 Q 987.6 326.7 984.1 326.7 980.7 326.7 978.4 328.95 976.1 331.15 976.1 334.35 L 976.1 334.45 Q 976.1 337.7 978.4 339.85 980.7 342.05 984.1 342.05 987.6 342.05 989.9 339.75 992.15 337.55 992.15 334.35 992.15 331.15 989.9 328.95 M 984.1 330.35 Q 985.85 330.35 987 331.45 988.05 332.6 988.05 334.35 L 988.05 334.45 Q 988.05 336.2 987 337.35 985.85 338.5 984.1 338.5 982.4 338.5 981.4 337.25 980.35 336.1 980.35 334.35 980.35 332.6 981.4 331.45 982.4 330.35 984.1 330.35 Z"/>
</g>
</defs>
<g transform="matrix(1,0,0,1,0,0)">
<use xlink:href="#l1"/>
</g>
<g transform="matrix(1,0,0,1,0,0)">
<use xlink:href="#l2"/>
</g>
<g transform="matrix(1,0,0,1,0,0)">
<use xlink:href="#l3"/>
</g>
<g transform="matrix(1,0,0,1,0,0)">
<use xlink:href="#l4"/>
</g>
<g transform="matrix(1,0,0,1,0,0)">
<use xlink:href="#l5"/>
</g>
</svg>
