<svg xmlns="http://www.w3.org/2000/svg" xmlns:xlink="http://www.w3.org/1999/xlink" width="100%" height="100%" viewBox="0 0 1024 1024">
<defs>
<g id="l1">
<path fill="#FFFFFF" stroke="none" d="M 961.1 512.45 Q 961.1 325.1 829.4 192.3 697.75 59.55 512.1 59.55 325.85 59.55 193.9 192.3 62.55 325.1 62.55 512.45 62.55 700.3 193.9 832.8 325.85 965.6 512.1 965.6 697.75 965.6 829.4 832.8 961.1 700.3 961.1 512.45 Z"/>
</g>
<g id="l2">
<path fill="#000000" stroke="none" d="M 774 285.3 Q 773.2 286.1 772.65 287.25 753.15 309.5 753.15 339.85 753.15 349.6 755.1 358.5 740.05 349.85 721.95 350.15 L 721.7 350.15 Q 690.8 349.85 668.8 373.8 667.95 374.65 667.4 375.75 647.9 398.05 647.9 428.35 647.9 438.1 649.85 447 634.85 438.4 616.75 438.65 L 616.45 438.65 Q 585.55 438.4 563.6 462.35 562.75 463.15 562.2 464.25 542.7 486.55 542.7 516.9 542.7 526.65 544.65 535.55 529.6 526.9 511.55 527.2 L 511.25 527.2 Q 492.9 526.9 477.85 535.25 479.8 526.65 479.8 516.9 479.8 485.45 458.9 462.6 436.95 438.4 406.3 438.65 L 406.05 438.65 Q 387.65 438.4 372.65 446.75 374.55 438.1 374.55 428.35 374.55 396.9 353.7 374.1 331.7 349.85 301.1 350.15 L 300.8 350.15 Q 282.45 349.85 267.4 358.2 269.35 349.6 269.35 339.85 269.35 308.4 248.5 285.55 226.5 261.35 195.85 261.65 L 195.6 261.65 Q 164.7 261.35 142.7 285.3 141.85 286.1 141.3 287.25 121.8 309.5 121.8 339.85 121.8 366.55 136.85 386.9 135.2 387.15 133.8 387.45 L 134.05 387.15 Q 100.65 391.35 84.8 410.55 84.25 411.1 83.95 411.65 78.7 417.5 75.05 425.05 67.25 440.9 66.7 464.85 L 66.7 578.7 66.7 599.85 66.7 610.7 75.05 617.35 91.75 630.45 122.4 654.65 141.3 669.7 171.95 693.9 180.3 700.3 197 713.7 227.6 737.9 246.55 752.65 277.15 776.85 285.5 783.55 302.2 796.65 332.8 820.85 351.75 835.9 382.35 860.1 390.7 866.5 407.4 879.85 438.05 904.1 456.95 918.85 511.25 961.7 565.55 918.85 584.45 904.1 615.1 879.85 631.8 866.5 640.15 860.1 670.75 835.9 689.7 820.85 720.3 796.9 737 783.55 745.35 777.15 775.95 752.95 794.9 737.9 825.5 713.7 842.2 700.3 850.55 693.9 881.2 669.7 900.1 654.65 930.75 630.45 947.45 617.35 955.8 610.7 955.8 599.85 955.8 578.7 955.8 464.85 Q 955.25 440.9 947.45 425.05 943.8 417.5 938.55 411.65 938.25 411.1 937.7 410.55 921.85 391.35 889 387.15 888.45 387.15 887.85 387.15 L 887.6 387.15 Q 886.75 386.9 885.65 386.9 900.7 366.55 900.7 339.85 900.7 308.4 879.8 285.55 857.8 261.35 827.2 261.65 L 826.9 261.65 Q 796 261.35 774 285.3 Z"/>
</g>
<g id="l3">
<path fill="#FFFFFF" stroke="none" d="M 780.15 290.85 L 780.15 291.15 Q 761.5 311.75 761.5 339.85 761.5 353.75 766.25 366 770.4 369.65 774.6 374.1 788.75 389.65 793.25 409.15 828.85 405.8 864.5 409.45 873.95 410.55 885.65 411.95 907.9 414.75 918.75 426.95 930.2 440.05 930.75 465.4 L 930.75 598.45 900.1 622.65 900.1 480.15 Q 900.1 476.5 897.35 473.75 894.55 470.95 890.65 470.95 886.75 470.95 883.95 473.75 881.2 476.5 881.2 480.15 L 881.2 637.7 850.55 661.9 842.2 668.3 842.2 553.65 Q 841.4 521.05 826.05 504.65 L 826.05 504.35 Q 811.9 487.65 782.65 484.05 L 782.35 484.05 Q 777.35 483.5 772.65 482.95 767.9 482.35 763.7 481.8 765.95 479.6 768.2 477.1 768.2 476.8 768.45 476.8 769.55 475.7 770.7 474.55 787.1 454.8 787.1 428.35 787.1 418.6 784.9 410 782.65 401.65 778.75 394.15 774.6 386.35 768.45 379.65 764 374.65 759.25 371 742.85 358.2 721.7 358.5 694.4 358.2 674.9 379.35 L 674.9 379.65 Q 656.25 400.25 656.25 428.35 656.25 442.3 661 454.55 665.2 458.15 669.35 462.6 683.55 478.2 688 497.7 693 497.1 698.05 496.85 702.2 496.55 706.4 496.3 714.75 496 723.1 496 738.4 496 753.7 497.4 756.5 497.7 759.25 497.95 765.4 498.8 772.65 499.65 776.55 499.9 780.4 500.45 802.7 503.25 813.55 515.5 824.95 528.6 825.5 553.9 L 825.5 681.65 794.9 705.9 794.9 568.65 Q 794.9 565.05 792.1 562.25 789.35 559.45 785.45 559.45 781.55 559.45 778.75 562.25 775.95 565.05 775.95 568.65 L 775.95 720.65 745.35 744.85 737 751.55 737 642.15 Q 736.15 612.1 723.1 595.65 721.95 594.25 720.85 593.15 L 720.85 592.9 Q 715 585.9 706.4 581.2 702.5 578.95 698.05 577.55 688.85 573.95 677.45 572.55 L 677.15 572.55 Q 672.15 572 667.4 571.45 662.7 570.9 658.5 570.35 660.75 568.1 662.95 565.6 662.95 565.3 663.25 565.3 664.35 564.2 665.45 563.1 681.9 543.35 681.9 516.9 681.9 507.15 679.65 498.5 677.45 490.15 673.55 482.65 669.35 474.85 663.25 468.15 658.8 463.15 654.05 459.55 637.35 446.75 616.45 447 589.2 446.75 569.7 467.9 L 569.7 468.15 Q 551.05 488.75 551.05 516.9 551.05 530.8 555.8 543.05 559.95 546.65 564.15 551.1 578.35 566.7 582.8 586.2 587.8 585.65 592.8 585.35 597 585.1 601.15 584.8 609.5 584.55 617.85 584.55 633.15 584.55 648.5 585.9 651.25 586.2 654.05 586.5 660.15 587.3 667.4 588.15 671.3 588.4 675.2 589 688.85 590.65 698.05 595.95 702.75 598.45 706.4 602.05 707.5 602.9 708.35 604 719.75 617.1 720.3 642.45 L 720.3 764.65 689.7 788.85 689.7 657.2 Q 689.7 653.55 686.9 650.8 684.1 648 680.2 648 676.3 648 673.55 650.8 670.75 653.55 670.75 657.2 L 670.75 803.85 640.15 828.1 631.8 834.5 631.8 730.65 Q 630.95 698.1 615.65 681.65 L 615.65 681.4 Q 601.45 664.7 572.2 661.1 L 571.95 661.1 Q 566.9 660.5 562.2 659.95 557.45 659.4 553.3 658.85 555.5 656.6 557.75 654.1 557.75 653.85 558 653.85 559.15 652.75 560.25 651.6 576.65 631.85 576.65 605.4 576.65 595.65 574.45 587.05 572.2 578.7 568.3 571.15 564.15 563.35 558 556.7 553.55 551.7 548.85 548.05 532.4 535.25 511.25 535.55 490.35 535.25 473.95 547.8 468.95 551.4 464.5 556.4 L 464.5 556.7 Q 458.35 563.35 454.45 571.15 450.3 578.7 448.05 587.05 445.85 595.65 445.85 605.4 445.85 632.15 462.25 651.6 463.35 653 464.5 654.1 L 464.5 653.85 Q 466.7 656.35 469.2 658.85 465.05 659.15 460.3 659.95 455.6 660.25 450.55 661.1 421.05 664.7 406.85 681.4 L 406.85 681.65 Q 391.55 698.1 390.7 730.65 L 390.7 834.5 382.35 828.1 351.75 803.85 351.75 657.2 Q 351.75 653.55 348.95 650.8 346.2 648 342.3 648 338.4 648 335.6 650.8 332.8 653.55 332.8 657.2 L 332.8 788.85 302.2 764.65 302.2 642.45 Q 302.75 617.1 314.15 604 315 602.9 316.1 602.05 319.75 598.45 324.45 595.95 333.65 590.65 347.3 589 351.2 588.4 355.1 588.15 362.05 587.3 368.15 586.5 370.95 586.2 374 585.9 389.35 584.55 404.65 584.55 413 584.55 421.35 584.8 425.5 585.1 429.7 585.35 434.7 585.65 439.7 586.2 443.9 567.55 456.95 552.8 457.55 551.7 458.35 550.85 462.55 546.4 467 542.75 471.45 530.8 471.45 516.9 471.45 488.75 452.8 468.15 433.3 446.75 406.05 447 385.15 446.75 368.75 459.25 363.7 462.9 359.25 467.9 L 359.25 468.15 Q 353.15 474.85 349.25 482.65 345.05 490.15 342.85 498.5 340.6 507.15 340.6 516.9 340.6 543.6 357.05 563.1 358.15 564.5 359.25 565.6 L 359.25 565.3 Q 361.5 567.85 364 570.35 359.8 570.6 355.1 571.45 350.35 571.7 345.35 572.55 333.65 573.95 324.45 577.55 320 578.95 316.1 581.2 307.5 585.9 301.65 592.9 L 301.65 593.15 Q 300.55 594.25 299.4 595.65 286.35 612.1 285.5 642.15 L 285.5 751.55 277.15 744.85 246.55 720.65 246.55 568.65 Q 246.55 565.05 243.75 562.25 240.95 559.45 237.05 559.45 233.15 559.45 230.4 562.25 227.6 565.05 227.6 568.65 L 227.6 705.9 197 681.65 197 553.9 Q 197.55 528.6 208.95 515.5 219.8 503.25 242.05 500.45 245.95 499.9 249.85 499.65 256.85 498.8 262.95 497.95 266 497.7 268.8 497.4 284.1 496 299.4 496 307.75 496 316.1 496.3 320.3 496.55 324.45 496.85 329.5 497.1 334.5 497.7 338.65 479.05 351.75 464.25 352.3 463.15 353.15 462.35 357.3 457.85 361.75 454.25 366.2 442.3 366.2 428.35 366.2 400.25 347.55 379.65 328.1 358.2 300.8 358.5 279.95 358.2 263.5 370.75 258.5 374.35 254.05 379.35 L 254.05 379.65 Q 247.9 386.35 244 394.15 239.85 401.65 237.6 410 235.4 418.6 235.4 428.35 235.4 455.1 251.8 474.55 252.95 475.95 254.05 477.1 L 254.05 476.8 Q 256.25 479.3 258.8 481.8 254.6 482.1 249.85 482.95 245.15 483.2 240.15 484.05 210.6 487.65 196.4 504.35 L 196.4 504.65 Q 181.1 521.05 180.3 553.65 L 180.3 668.3 171.95 661.9 141.3 637.7 141.3 480.15 Q 141.3 476.5 138.5 473.75 135.75 470.95 131.85 470.95 127.95 470.95 125.15 473.75 122.4 476.5 122.4 480.15 L 122.4 622.65 91.75 598.45 91.75 465.4 Q 92.3 440.05 103.75 426.95 114.6 414.75 136.85 411.95 148.25 410.55 157.75 409.45 193.35 405.8 229.25 409.15 233.45 390.5 246.55 375.75 247.1 374.65 247.9 373.8 252.1 369.35 256.55 365.75 261 353.75 261 339.85 261 311.75 242.35 291.15 222.85 269.7 195.6 270 168.3 269.7 148.8 290.85 L 148.8 291.15 Q 130.15 311.75 130.15 339.85 130.15 368.25 148.8 388.55 L 148.8 388.3 Q 151.05 390.8 153.55 393.3 144.95 394.15 134.9 395.5 105.4 399.15 91.2 415.85 L 91.2 416.1 Q 75.9 432.55 75.05 465.1 L 75.05 585.35 75.05 606.5 91.75 619.6 122.4 643.8 141.3 658.85 171.95 683.05 180.3 689.45 197 702.85 227.6 727.05 246.55 741.8 277.15 766 285.5 772.7 302.2 785.8 332.8 810 351.75 825.05 382.35 849.25 390.7 855.65 407.4 869 438.05 893.25 456.95 908 511.25 950.85 565.55 908 584.45 893.25 615.1 869 631.8 855.65 640.15 849.25 670.75 825.05 689.7 810 720.3 785.8 737 772.7 745.35 766 775.95 741.8 794.9 726.75 825.5 702.55 842.2 689.45 850.55 682.8 881.2 658.55 900.1 643.8 930.75 619.6 947.45 606.5 947.45 585.35 947.45 465.1 Q 946.6 432.55 931.3 416.1 L 931.3 415.85 Q 917.1 399.15 887.85 395.5 L 887.6 395.5 Q 877.3 394.15 868.95 393.3 871.15 391.05 873.4 388.55 873.4 388.3 873.65 388.3 892.3 367.95 892.3 339.85 892.3 311.75 873.65 291.15 854.2 269.7 826.9 270 799.65 269.7 780.15 290.85 M 687.15 390.8 Q 701.65 375.2 721.7 375.2 740.6 375.2 754.25 389.1 755.1 389.95 755.95 390.8 758.45 393.55 760.65 396.35 765.65 403.6 768.2 411.95 770.4 419.75 770.4 428.35 770.4 450.1 755.95 465.65 745.9 476.8 732.8 480.15 728.1 481.25 723.1 481.55 722.5 481.55 721.7 481.55 715.85 481.55 710.55 480.15 708.35 479.6 706.4 479.05 701.95 477.35 698.05 474.85 692.2 471.25 687.15 465.65 673 450.1 673 428.35 673 406.65 687.15 390.8 M 778.2 339.85 Q 778.2 318.15 792.4 302.25 806.85 286.7 826.9 286.7 846.95 286.7 861.15 302.25 875.6 318.15 875.6 339.85 875.6 361.55 861.15 377.15 851.15 388.3 838.05 391.6 832.75 393 826.9 393 821.05 393 815.8 391.6 802.7 388.55 792.4 377.15 778.2 361.55 778.2 339.85 M 649.05 477.65 Q 649.85 478.45 650.7 479.3 653.2 482.1 655.15 484.85 660.45 492.1 662.95 500.45 665.2 508.25 665.2 516.9 665.2 538.6 650.7 554.2 640.7 565.3 627.6 568.65 622.85 569.75 617.85 570.05 617.3 570.05 616.45 570.05 610.6 570.05 605.35 568.65 603.1 568.1 601.15 567.55 596.7 565.9 592.8 563.35 586.95 559.75 581.95 554.2 567.75 538.6 567.75 516.9 567.75 495.15 581.95 479.3 596.45 463.7 616.45 463.7 635.4 463.7 649.05 477.65 M 146.85 339.85 Q 146.85 318.15 161.05 302.25 175.55 286.7 195.6 286.7 215.65 286.7 229.85 302.25 244.3 318.15 244.3 339.85 244.3 361.55 229.85 377.15 219.8 388.3 206.7 391.6 201.45 393 195.6 393 189.75 393 184.45 391.6 171.35 388.55 161.05 377.15 146.85 361.55 146.85 339.85 M 266.3 390.8 Q 267.15 389.95 268.25 389.1 281.9 375.2 300.8 375.2 320.85 375.2 335.05 390.8 349.5 406.65 349.5 428.35 349.5 450.1 335.05 465.65 330.05 471.25 324.45 474.85 320.55 477.35 316.1 479.05 314.15 479.6 311.95 480.15 306.65 481.55 300.8 481.55 299.95 481.55 299.4 481.55 294.4 481.25 289.65 480.15 276.6 477.1 266.3 465.65 252.1 450.1 252.1 428.35 252.1 419.75 254.3 411.95 256.85 403.6 261.85 396.35 263.8 393.55 266.3 390.8 M 543.8 566.15 Q 544.65 567 545.5 567.85 548 570.6 549.95 573.4 555.25 580.65 557.75 589 559.95 596.75 559.95 605.4 559.95 627.1 545.5 642.7 535.45 653.85 522.4 657.2 517.65 658.3 512.65 658.55 512.1 658.55 511.25 658.55 505.4 658.55 500.1 657.2 497.9 656.6 495.95 656.05 491.5 654.4 487.6 651.9 481.75 648.25 476.75 642.7 462.55 627.1 462.55 605.4 462.55 596.75 464.75 589 467.25 580.65 472.3 573.4 474.25 570.6 476.75 567.85 477.55 567 478.7 566.15 492.3 552.25 511.25 552.25 530.2 552.25 543.8 566.15 M 406.05 463.7 Q 426.05 463.7 440.25 479.3 454.75 495.15 454.75 516.9 454.75 538.6 440.25 554.2 435.25 559.75 429.7 563.35 425.8 565.9 421.35 567.55 419.4 568.1 417.15 568.65 411.85 570.05 406.05 570.05 405.2 570.05 404.65 570.05 399.65 569.75 394.9 568.65 381.8 565.6 371.5 554.2 357.3 538.6 357.3 516.9 357.3 508.25 359.55 500.45 362.05 492.1 367.05 484.85 369 482.1 371.5 479.3 372.35 478.45 373.45 477.65 387.1 463.7 406.05 463.7 M 452.5 677.5 Q 456.4 676.95 460.3 676.65 467.25 675.85 473.4 675 476.2 674.7 479.25 674.45 483.4 674.15 487.6 673.9 491.75 673.6 495.95 673.3 504.3 673.05 512.65 673.05 527.95 673.05 543.25 674.45 546.05 674.7 548.85 675 554.95 675.85 562.2 676.65 566.1 676.95 570 677.5 592.25 680.3 603.1 692.55 614.5 705.6 615.1 730.95 L 615.1 847.85 584.45 872.05 584.45 745.7 Q 584.45 742.1 581.65 739.3 578.9 736.5 575 736.5 571.1 736.5 568.3 739.3 565.55 742.1 565.55 745.7 L 565.55 886.85 511.25 929.7 456.95 886.85 456.95 745.7 Q 456.95 742.1 454.2 739.3 451.4 736.5 447.5 736.5 443.6 736.5 440.8 739.3 438.05 742.1 438.05 745.7 L 438.05 872.05 407.4 847.85 407.4 730.95 Q 408 705.6 419.4 692.55 430.25 680.3 452.5 677.5 Z"/>
</g>
<g id="l0">
<path fill="#000000" stroke="none" d="M 983.35 512.15 Q 983.35 315.05 845.3 175.9 707.2 36.45 511.8 36.45 316.1 36.45 178.35 175.9 40.25 315.05 40.25 512.15 40.25 709.25 178.35 848.4 316.1 987.6 511.8 987.6 707.2 987.6 845.3 848.4 983.35 709.25 983.35 512.15 M 823.3 198.45 Q 952.15 328.45 952.15 512.45 952.15 696.45 823.3 826.4 694.4 956.4 512.1 956.4 329.5 956.4 200.3 826.4 71.7 696.45 71.7 512.45 71.7 328.45 200.3 198.45 329.5 68.45 512.1 68.45 694.4 68.45 823.3 198.45 Z"/>
</g>
</defs>
<g transform="matrix(1,0,0,1,0,0)">
<use xlink:href="#l1"/>
</g>
<g transform="matrix(1,0,0,1,0,0)">
<use xlink:href="#l2"/>
</g>
<g transform="matrix(1,0,0,1,0,0)">
<use xlink:href="#l3"/>
</g>
<g transform="matrix(1,0,0,1,0,0)">
<use xlink:href="#l0"/>
</g>
</svg>
