<svg xmlns="http://www.w3.org/2000/svg" xmlns:xlink="http://www.w3.org/1999/xlink" width="100%" height="100%" viewBox="0 0 1024 366">
<defs>
<linearGradient id="g1" gradientUnits="userSpaceOnUse" x1="875.075" y1="-21.025000000000006" x2="875.825" y2="217.32500000000002" spreadMethod="pad">
<stop offset="1.1764705882352942%" stop-color="#00A59B"/>
<stop offset="98.82352941176471%" stop-color="#24A8E0"/>
</linearGradient>
<g id="l1">
<path fill="#1C75BB" stroke="none" d="M 828.5 189.5 Q 822.2 184.2 812.6 184.2 807.6 184.2 803.95 185.5 800.65 186.15 796.65 189.5 793.35 192.8 792.05 196.1 790.05 200.1 790.05 204.4 790.05 208.7 792.05 212.7 793.35 216 796.65 219.35 802.3 224.65 812.6 224.65 822.2 224.65 828.5 219.35 831.85 216 833.15 212.7 834.8 208.4 834.8 204.4 834.8 200.45 833.15 196.1 831.85 192.8 828.5 189.5 M 821.2 190.15 Q 824.85 191.8 827.5 195.8 829.85 199.1 829.85 204.4 829.85 209.7 827.5 213.05 824.85 217 821.2 218.65 817.25 220.65 812.6 220.65 807.95 220.65 803.95 218.65 800 216.7 797.35 213.05 795 209.05 795 204.4 795 199.75 797.35 195.8 800 192.15 803.95 190.15 807.95 188.15 812.6 188.15 817.25 188.15 821.2 190.15 M 758.85 186.85 L 759.55 188.8 759.55 220 758.85 222 757.2 223 757.2 223.95 786.7 223.95 788.7 224.3 789.7 225.95 790.35 225.95 790.35 217.65 789.7 217.65 788.7 219.65 786.7 220 764.15 220 764.15 188.8 764.5 186.85 766.15 185.85 766.15 184.85 757.2 184.85 757.2 185.85 758.85 186.85 M 721.05 186.85 L 721.4 188.8 721.4 220 721.05 222 719.4 223 719.4 223.95 748.9 223.95 750.9 224.3 751.55 225.95 752.55 225.95 752.55 217.65 751.55 217.65 750.9 219.65 748.9 220 726.35 220 726.35 188.8 726.7 186.85 728.35 185.85 728.35 184.85 719.4 184.85 719.4 185.85 721.05 186.85 M 674.3 189.5 Q 671 192.8 669.3 196.1 667.65 200.45 667.65 204.4 667.65 208.4 669.3 212.7 671 216 674.3 219.35 679.95 224.65 690.2 224.65 699.85 224.65 706.15 219.35 708.8 216.7 710.8 212.7 712.45 208.4 712.45 204.4 712.45 200.45 710.8 196.1 708.8 192.15 706.15 189.5 699.85 184.2 690.2 184.2 685.25 184.2 681.6 185.5 678.25 186.15 674.3 189.5 M 674.95 195.8 Q 677.6 192.15 681.6 190.15 685.55 188.15 690.2 188.15 694.85 188.15 698.85 190.15 702.5 191.8 705.15 195.8 707.45 199.1 707.45 204.4 707.45 209.7 705.15 213.05 702.5 217 698.85 218.65 694.85 220.65 690.2 220.65 685.55 220.65 681.6 218.65 677.6 216.7 674.95 213.05 672.65 209.05 672.65 204.4 672.65 199.75 674.95 195.8 M 662.7 190.8 Q 661.7 189.15 659.7 187.5 657.7 185.85 655.4 185.5 L 649.4 184.85 627.55 184.85 627.55 185.85 629.2 186.85 629.5 188.8 629.5 220 629.2 222 627.55 223 627.55 223.95 636.5 223.95 636.5 223 634.85 222 634.5 220 634.5 206.4 647.75 206.4 656.4 220.35 657.05 222 Q 657.05 222.65 655.7 223 L 655.7 223.95 665 223.95 665 223 Q 662.7 222.3 662.35 221.3 L 653.05 206.05 Q 663.7 204.4 663.7 195.45 663.7 193.45 662.7 190.8 M 656.7 190.5 L 658.4 192.8 659.05 195.8 Q 659.05 199.75 656.4 201.4 653.4 202.4 648.45 202.4 L 634.5 202.4 634.5 188.8 649.1 188.8 Q 654.75 188.8 656.7 190.5 M 585.75 186.85 L 586.4 188.8 586.4 220 586.1 222 584.1 223 584.1 223.95 593.35 223.95 593.35 223 591.4 222 591.05 220 591.05 206.4 604.65 206.4 613.25 220.35 613.95 222 612.6 223 612.6 223.95 621.55 223.95 621.55 223 Q 619.55 222.3 618.9 221.3 L 609.6 206.05 Q 620.25 204.75 620.25 195.45 620.25 193.45 619.25 190.8 L 616.6 187.5 Q 614.6 186.15 611.95 185.5 L 606.3 184.85 584.1 184.85 584.1 185.85 585.75 186.85 M 591.05 188.8 L 605.65 188.8 Q 611.6 188.8 613.25 190.5 613.95 191.15 615.25 192.8 L 615.95 195.8 Q 615.95 200.1 612.95 201.4 610.6 202.4 605.3 202.4 L 591.05 202.4 591.05 188.8 M 555.55 187.15 L 554.55 190.5 541.95 220 Q 540.3 222.65 538.65 223 L 538.65 223.95 547.6 223.95 547.6 223 Q 545.95 222.3 545.95 221.3 L 549.25 212.7 568.85 212.7 572.15 220.65 572.15 221.3 572.5 221.65 Q 572.5 222.3 570.8 223 L 570.8 223.95 580.45 223.95 580.45 223 578.1 221.65 576.15 218 563.2 188.5 563.2 187.5 Q 563.2 186.15 564.85 185.85 L 564.85 184.85 553.9 184.85 553.9 185.85 Q 555.55 186.15 555.55 187.15 M 567.15 209.05 L 550.9 209.05 559.2 190.15 567.15 209.05 M 503.5 189.15 Q 500.85 192.45 500.85 196.1 500.85 199.75 502.85 201.75 504.15 204.1 507.15 205.05 L 519.1 206.75 525.4 207.05 528.35 207.7 Q 529.7 208.05 530.7 209.7 531.7 210.7 531.7 212.7 531.7 215.35 529.7 217.35 528.35 219 524.7 220 L 519.1 220.65 Q 512.1 220.65 506.8 217.35 L 505.8 217 504.8 216.35 503.15 214.7 503.5 213.05 502.85 212.7 498.5 220 499.5 220.65 500.85 219.35 506.8 222.3 Q 512.45 224.65 519.1 224.65 523.4 224.65 527.05 223.3 530.7 222.3 533.7 219.35 536.35 216.7 536.35 212.7 536.35 209.4 535 207.7 533.7 205.4 532 204.4 529.35 202.75 527.05 202.4 L 513.45 201.75 Q 510.8 201.75 508.8 200.75 L 506.5 199.1 Q 505.5 197.75 505.5 195.8 505.5 191.8 509.45 189.8 514.45 188.15 518.4 188.15 524.05 188.15 529.35 190.8 L 530.7 191.45 531.35 192.8 531 194.15 532 194.45 535.65 186.85 534.65 186.5 Q 534.35 187.85 533.35 187.85 L 532.35 187.5 Q 525.7 184.2 517.75 184.2 513.8 184.2 510.15 185.5 506.8 186.15 503.5 189.15 M 493.2 190.8 L 493.2 182.85 492.2 182.85 491.55 184.5 489.55 184.85 460.05 184.85 460.05 185.85 461.7 186.85 462.05 188.8 462.05 220 461.7 222 460.05 223 460.05 223.95 489.9 223.95 491.55 224.3 Q 492.55 224.95 492.55 225.95 L 493.55 225.95 493.55 217.65 492.55 217.65 Q 492.55 219.35 491.55 219.65 L 489.9 220 467 220 467 205.75 481.3 205.75 483.25 206.05 484.25 207.7 484.95 207.7 484.95 199.45 484.25 199.45 483.25 201.4 481.3 201.75 467 201.75 467 188.8 489.55 188.8 491.55 189.15 492.2 190.8 493.2 190.8 M 405.35 176.55 L 405.35 177.55 Q 407.3 178.2 407.3 179.85 L 407.3 220.35 Q 407.3 222.3 405.35 222.65 L 405.35 223.95 429.2 223.95 435.5 223.3 Q 439.5 222.65 440.8 221.65 443.8 220.65 445.45 218.35 449.1 215.35 450.45 210.4 452.1 206.4 452.1 200.1 452.1 194.15 450.45 189.8 448.8 184.5 445.45 181.85 442.8 178.55 438.5 177.55 434.5 176.55 429.2 176.55 L 405.35 176.55 M 437.15 182.2 Q 440.5 183.2 442.8 186.5 446.8 191.45 446.8 200.1 446.8 208.7 442.8 213.7 440.5 217 437.15 218.35 433.85 219.35 428.9 219.35 L 412.65 219.35 412.65 180.85 428.9 180.85 Q 434.2 180.85 437.15 182.2 M 348.6 189.5 L 347.6 187.15 Q 347.6 186.5 349.3 185.85 L 349.3 184.85 338.65 184.85 338.65 185.85 Q 340 186.15 341.3 187.5 L 355.6 206.75 355.6 220 355.25 222 353.6 223 353.6 223.95 362.55 223.95 362.55 223 360.9 222 360.25 220 360.25 206.75 373.8 187.5 Q 375.15 186.15 376.5 185.85 L 376.5 184.85 366.55 184.85 366.55 185.85 Q 368.2 186.5 368.2 187.5 L 367.2 189.5 358.25 202.75 348.6 189.5 M 274 186.85 L 274.65 188.8 274.65 220 274 222 272.35 223 272.35 223.95 291.25 223.95 Q 296.2 223.95 299.55 223 303.85 221.65 305.85 219.35 308.5 217 310.15 212.7 311.8 208.4 311.8 204.4 L 311.15 198.75 309.15 193.8 305.85 189.5 Q 304.5 187.85 301.85 186.5 L 296.9 185.15 272.35 184.85 272.35 185.85 274 186.85 M 298.2 189.5 Q 301.55 190.5 303.2 193.15 306.85 197.45 306.85 204.4 306.85 211.05 303.2 215.7 301.85 217.35 299.85 218.35 297.2 219.65 295.9 219.65 L 279.3 220 279.3 188.8 298.2 189.5 M 242.15 184.85 L 242.15 185.85 Q 243.8 186.15 243.8 187.15 L 242.8 190.5 230.2 220 Q 228.55 222.65 226.9 223 L 226.9 223.95 235.85 223.95 235.85 223 Q 234.2 222.3 234.2 221.3 L 237.5 212.7 257.1 212.7 260.4 220.65 260.4 221.3 260.75 221.65 Q 260.75 222.3 259.1 223 L 259.1 223.95 268.7 223.95 268.7 223 266.35 221.65 264.4 218 251.45 188.5 251.45 187.5 Q 251.45 186.15 253.1 185.85 L 253.1 184.85 242.15 184.85 M 255.45 209.05 L 239.2 209.05 247.45 190.15 255.45 209.05 M 198.7 184.85 L 197.05 184.5 Q 196.05 184.2 196.05 182.85 L 195.05 182.85 195.05 190.8 196.05 190.8 Q 196.05 189.8 197.05 189.15 L 198.7 188.8 211 188.8 211 220 210.3 222 208.65 223 208.65 223.95 217.95 223.95 217.95 223 215.95 222 215.65 220 215.65 188.8 227.55 188.8 229.55 189.15 230.55 190.8 231.55 190.8 231.55 182.85 230.55 182.85 229.55 184.5 227.9 184.85 198.7 184.85 M 186.8 187.5 Q 184.8 185.85 182.45 185.5 L 176.5 184.85 154.6 184.85 154.6 185.85 156.25 186.85 156.6 188.8 156.6 220 156.25 222 154.6 223 154.6 223.95 163.55 223.95 163.55 223 161.9 222 161.55 220 161.55 206.4 174.85 206.4 183.45 220.35 184.1 222 182.8 223 182.8 223.95 192.1 223.95 192.1 223 Q 190.1 222.65 189.45 221.3 L 180.15 206.05 Q 190.75 204.4 190.75 195.45 190.75 193.45 189.75 190.8 188.75 189.15 186.8 187.5 M 183.8 190.5 L 185.45 192.8 Q 186.1 193.8 186.1 195.8 186.1 199.75 183.45 201.4 180.5 202.4 175.5 202.4 L 161.55 202.4 161.55 188.8 176.15 188.8 Q 181.8 188.8 183.8 190.5 M 115.8 186.85 L 116.45 188.8 116.45 220 115.8 222 114.15 223 114.15 223.95 144 223.95 146 224.3 146.65 225.95 147.65 225.95 147.65 217.65 146.65 217.65 146 219.65 144 220 121.1 220 121.1 205.75 135.35 205.75 137.35 206.05 138.35 207.7 139.35 207.7 139.35 199.45 138.35 199.45 137.35 201.4 135.35 201.75 121.1 201.75 121.1 188.8 143.65 188.8 145.65 189.15 146.65 190.8 147.3 190.8 147.3 182.85 146.65 182.85 145.65 184.5 143.65 184.85 114.15 184.85 114.15 185.85 115.8 186.85 M 72.05 186.85 L 72.7 188.8 72.7 220 72.05 222 70.35 223 70.35 223.95 93.25 223.95 99.55 223.3 Q 101.55 223 104.2 221 107.5 217 107.5 212.7 107.5 209.7 105.85 207.05 104.2 205.05 100.9 203.4 106.2 200.45 106.2 195.1 106.2 193.15 105.2 190.5 L 102.2 186.85 97.9 185.15 70.35 184.85 70.35 185.85 72.05 186.85 M 100.9 192.15 Q 101.55 193.15 101.55 195.45 101.55 198.45 100.2 199.45 98.55 201.1 96.55 201.1 95.25 201.4 91.25 201.4 L 77.35 201.4 77.35 188.8 95.25 188.8 98.55 190.15 Q 99.9 190.5 100.9 192.15 M 102.2 209.4 L 102.85 212.7 Q 102.85 216.7 100.2 218.65 98.9 219.65 96.9 219.65 L 77.35 220 77.35 205.4 96.25 205.75 Q 98.25 205.75 99.9 207.05 100.9 207.4 102.2 209.4 M 53.45 185.85 L 55.1 186.85 55.45 188.8 55.45 220 55.1 222 53.45 223 53.45 223.95 62.4 223.95 62.4 223 60.75 222 60.4 220 60.4 188.8 60.75 186.85 62.4 185.85 62.4 184.85 53.45 184.85 53.45 185.85 M 10.35 178.55 L 10.65 180.55 10.65 219.65 10.35 221.65 8.7 222.65 8.7 223.95 44.85 223.95 46.8 224.3 47.5 225.95 48.5 225.95 48.5 217 47.5 217 Q 47.5 218.65 46.8 218.65 L 44.85 219.35 16 219.35 16 180.55 16.3 178.55 17.95 177.55 17.95 176.55 8.7 176.55 8.7 177.55 10.35 178.55 M 824.55 96.6 Q 824.55 93.95 825.55 92.3 L 829.15 90.3 829.15 88.35 810.95 88.35 810.95 90.3 814.9 92.3 815.6 96.6 815.6 153.65 767.15 99.6 Q 764.5 96.6 764.5 93.95 764.5 91.3 768.15 90.3 L 768.15 88.35 741.3 88.35 741.3 90.3 745.25 92.3 Q 746.25 93.95 746.25 96.6 L 746.25 162.3 Q 746.25 165.25 745.25 166.6 744.25 168.25 741.3 168.6 L 741.3 170.6 759.55 170.6 759.55 168.6 Q 756.85 167.95 755.9 166.6 754.9 165.25 754.9 162.3 L 754.9 101.25 810.6 163.3 Q 811.6 164.3 811.6 165.95 811.6 167.25 810.6 167.6 L 807.6 168.6 807.6 170.6 829.15 170.6 829.15 168.6 Q 826.5 167.95 825.55 166.6 824.55 165.25 824.55 162.3 L 824.55 96.6 M 676.3 86.65 Q 666.65 86.65 657.05 89.35 648.45 92.3 641.15 97.95 633.85 104.25 630.5 112.2 626.55 120.85 626.55 129.45 626.55 138.75 630.5 147.05 633.85 154.65 641.15 160.95 654.75 172.55 676.3 172.55 697.5 172.55 711.75 160.95 718.4 154.65 722.4 147.05 726.05 138.1 726.05 129.45 726.05 121.15 722.4 112.2 718.75 104.25 711.75 97.95 698.15 86.65 676.3 86.65 M 715.1 129.45 Q 715.1 139.05 709.8 147.7 704.15 155.65 695.5 159.65 686.9 163.95 676.3 163.95 665.65 163.95 657.05 159.65 648.1 155.65 643.1 147.7 637.8 140.05 637.8 129.45 637.8 118.85 643.1 111.2 648.1 103.9 657.05 99.3 666 95.3 676.3 95.3 686.55 95.3 695.5 99.3 704.15 103.6 709.8 111.2 715.1 119.85 715.1 129.45 M 676.6 60.8 L 676.6 62.45 677.95 63.45 678.25 65.1 672.65 77.05 Q 671.65 79.7 669.3 79.7 L 669.3 81.7 681.9 81.7 681.9 79.7 Q 679.95 79.7 679.95 78.4 L 689.9 64.8 Q 691.2 63.15 693.85 62.45 L 693.85 60.8 676.6 60.8 M 606 96.6 Q 606 93.95 606.95 92.3 L 610.95 90.3 610.95 88.35 590.7 88.35 590.7 90.3 594.7 92.3 595.35 96.6 595.35 162.3 594.7 166.6 Q 593.7 168.25 590.7 168.6 L 590.7 170.6 610.95 170.6 610.95 168.6 Q 608.65 168.25 606.95 166.6 606 165.25 606 162.3 L 606 96.6 M 570.8 93.65 Q 568.85 95.95 567.5 95.95 L 565.5 95.3 Q 548.95 86.65 531.35 86.65 521.4 86.65 512.45 89.65 503.15 92.95 497.2 97.95 489.9 104.25 486.6 111.9 482.6 119.85 482.6 130.45 482.6 139.4 486.9 147.7 490.9 156 497.85 161.95 511.15 172.55 531 172.55 540.65 172.55 550.9 168.9 560.55 165.25 568.5 158.95 L 570.5 158 Q 571.15 158 574.15 160.3 L 575.8 158.95 564.2 144.4 562.55 145.35 563.85 149.35 562.85 151.35 559.2 154.65 Q 553.6 158.95 546.3 161.3 539 163.95 532 163.95 516.75 163.95 506.8 156 500.2 150.7 497.2 144.4 493.55 137.1 493.55 130.1 493.55 113.55 505.5 103.9 515.45 95.3 531.7 95.3 544.95 95.3 555.55 100.6 L 560.55 103.6 Q 562.55 104.6 562.55 106.9 L 561.85 109.25 563.55 110.2 572.8 94.3 570.8 93.65 M 423.55 90.3 Q 427.2 90.65 427.2 93.3 L 425.25 100.25 396.7 162.3 Q 394.4 167.6 389.1 168.6 L 389.1 170.6 409.65 170.6 409.65 168.6 Q 406.35 167.6 405.65 165.6 405.65 164.6 407 161.3 L 413.3 147.35 456.4 147.35 464.35 165.25 464.35 165.95 Q 464.35 168.25 461.05 168.6 L 461.05 170.6 482.6 170.6 482.6 168.6 Q 478.6 167.95 477.3 165.6 L 473 158.3 445.45 98.6 443.8 93.3 Q 443.8 91.3 447.45 90.3 L 447.45 88.35 423.55 88.35 423.55 90.3 M 416.6 139.4 L 434.85 99.3 452.75 139.4 416.6 139.4 M 359.9 89 Q 352.6 88.35 347.3 88.35 L 305.85 88.35 305.85 90.3 309.5 92.3 Q 310.5 93.95 310.5 96.6 L 310.5 162.3 Q 310.5 165.25 309.5 166.6 308.5 167.95 305.85 168.6 L 305.85 170.6 347.3 170.6 Q 357.25 170.6 366.2 168.9 373.8 166.95 380.45 161.3 387.1 154.65 389.75 147.05 393.05 139.05 393.05 129.45 393.05 123.15 391.75 117.85 390.4 112.85 387.4 106.9 384.45 101.95 380.45 97.95 375.15 93.3 370.85 91.65 364.85 89.35 359.9 89 M 346.95 96.3 Q 356.6 96.3 362.9 98.3 369.85 99.95 374.15 105.6 382.1 114.2 382.1 129.45 382.1 144.4 374.15 153.35 371.5 157 366.85 159.3 361.9 161.65 357.55 161.95 350.95 162.6 346.95 162.6 L 321.1 162.6 321.1 96.3 346.95 96.3 M 269.7 90.3 Q 273 91.3 273.35 92.3 274.35 93.95 274.35 96.6 L 274.35 153.65 225.9 99.6 Q 222.95 96.3 222.95 93.95 222.95 91.3 226.9 90.3 L 226.9 88.35 200.05 88.35 200.05 90.3 204 92.3 Q 205 93.95 205 96.6 L 205 162.3 Q 205 165.25 204 166.6 203.05 168.25 200.05 168.6 L 200.05 170.6 218.3 170.6 218.3 168.6 Q 215.65 167.95 214.65 166.6 213.65 165.25 213.65 162.3 L 213.65 101.25 269.35 163.3 Q 270.35 164.3 270.35 165.95 270.35 167.25 269.35 167.6 L 266.35 168.6 266.35 170.6 287.95 170.6 287.95 168.6 Q 285.3 167.95 284.3 166.6 283.3 165.25 283.3 162.3 L 283.3 96.6 Q 283.3 93.95 284.3 92.3 L 287.95 90.3 287.95 88.35 269.7 88.35 269.7 90.3 M 169.85 92.3 Q 170.85 93.95 170.85 96.6 L 170.85 143.7 Q 170.85 154 166.9 157.3 160.9 163.95 143 163.95 127.4 163.95 120.45 158.65 115.15 154 115.15 142.7 L 115.15 96.6 Q 115.15 93.95 116.15 92.3 117.15 91 120.1 90.3 L 120.1 88.35 99.9 88.35 99.9 90.3 Q 102.85 91 103.85 92.3 104.85 93.95 104.85 96.6 L 104.85 141.05 Q 104.85 149.35 105.85 154.65 107.5 160.3 111.8 164.6 115.15 167.6 120.45 169.6 124.75 171.25 130.75 171.9 137.35 172.55 142.35 172.55 148.95 172.55 158.25 171.25 165.9 169.6 170.85 165.95 176.15 161.95 177.8 156 179.5 151 179.5 141.05 L 179.5 96.6 Q 179.5 93.95 180.5 92.3 181.45 91 184.1 90.3 L 184.1 88.35 165.9 88.35 165.9 90.3 Q 168.85 91 169.85 92.3 M 98.9 84.7 L 98.9 65.45 96.55 65.45 94.6 69.45 Q 93.25 70.4 90.25 70.4 L 8.7 70.4 8.7 72.75 Q 11.35 73.4 12.35 74.75 13.35 76.4 13.35 79.05 L 13.35 161.95 Q 13.35 164.95 12.35 166.25 10.65 167.95 8.7 168.25 L 8.7 170.6 29.6 170.6 29.6 168.25 Q 27.25 167.95 25.6 166.25 24.95 165.25 24.95 161.95 L 24.95 123.8 68.4 123.8 Q 71.35 123.8 72.7 124.8 74.35 126.45 74.7 128.45 L 77 128.45 77 109.55 74.7 109.55 Q 74.35 111.55 72.7 113.2 71.35 114.2 68.4 114.2 L 24.95 114.2 24.95 80.05 90.25 80.05 Q 93.25 80.05 94.6 81.05 95.55 81.35 96.55 84.7 L 98.9 84.7 Z"/>
</g>
<g id="l2">
<path fill="#00A59B" stroke="none" d="M 937.3 47.2 Q 938.6 44.55 938.3 41.25 937.6 34.6 929 31.6 L 907.75 72.75 905.8 23.65 Q 905.1 21 902.8 18 898.5 12.4 889.85 10.4 L 883.9 67.1 867 12.7 Q 865 10.4 861.35 8.4 853.4 4.75 843.75 6.1 L 860.35 59.8 Q 885.55 87.65 922.35 96.6 L 937.3 47.2 Z"/>
<path fill="url(#g1)" stroke="none" d="M 1003.25 65.6 L 1014.85 54 Q 1001.25 42.7 986 56.95 L 954.5 103.4 Q 939.9 104.4 920 99.1 880.55 88.5 854.65 58.3 L 812.55 16.2 Q 803.25 6.25 795.95 4.55 L 792 4.25 Q 780.05 4.25 777.05 11.85 781.35 14.5 791.65 25.15 812.85 46.7 844.7 87.8 L 895.8 182.65 877.25 207.75 Q 772.828125 312.7439453125 628.85 334.4 583.4 341.4 539.3 339.05 L 504.5 335.1 Q 644.45 399.4 804.95 308.9 885.2 263.75 937.6 205.75 L 937 205.75 Q 973.6509765625 177.7904296875 991.95 119.65 1001.6 89.8 1003.25 65.6 M 762.5 273.05 Q 830.15 245.2 871.95 209.05 759.55 277.35 616.6 288.65 571.8 292.3 529.7 289.65 L 496.2 286.3 Q 626.85 328.75 762.5 273.05 Z"/>
</g>
</defs>
<g transform="matrix(1,0,0,1,0,0)">
<use xlink:href="#l1"/>
</g>
<g transform="matrix(1,0,0,1,0,0)">
<use xlink:href="#l2"/>
</g>
</svg>
