<svg xmlns="http://www.w3.org/2000/svg" xmlns:xlink="http://www.w3.org/1999/xlink" width="100%" height="100%" viewBox="0 0 1024 216">
<defs>
<g id="Layer2_0_FILL">
<path fill="#231F20" stroke="none" d="M 459.75 183.4 Q 459.75 184.45 460.8 185.45 461.35 186.3 463.4 186.75 464.1 187.25 466.75 187.25 L 469.3 187 471.15 186 471.15 187.25 473.2 187 473.2 178.25 Q 473.2 177.2 472.4 176.4 L 470.35 175.65 467.5 175.15 Q 465.25 175.15 462.35 175.9 L 461.55 177.45 467 176.7 Q 468.95 176.7 470.1 177.2 471.15 177.5 471.15 178.25 L 471.15 180.3 469.05 179.25 466.5 179 Q 463.75 179 461.55 180.3 459.75 181.65 459.75 183.4 M 462.6 184.7 Q 461.85 184.5 461.85 183.4 461.85 181.85 463.4 181.05 464.7 180.3 466.75 180.3 468.85 180.3 469.85 181.05 471.15 181.85 471.15 183.15 471.15 184.5 470.1 185.2 468.55 186 466.75 186 L 464.4 185.7 462.6 184.7 M 439.6 178.25 Q 438.3 179.65 438.3 181.35 438.3 183.15 439.6 184.45 440.35 185.45 442.95 186.5 445.3 187.25 447.9 187.25 L 452 186.75 454.85 185.2 455.1 185.2 455.1 187.25 457.2 187 457.2 170.5 455.1 170.75 455.1 177.45 454.85 177.45 451.75 175.9 447.9 175.15 Q 446.15 175.15 442.95 176.15 440.35 177.3 439.6 178.25 M 440.4 181.35 Q 440.4 180.6 441.4 179 441.9 178.35 444 177.2 L 447.6 176.7 Q 450.1 176.7 451.25 177.2 452.85 177.5 454.1 178.75 L 455.1 181.35 Q 455.1 182.15 454.1 183.65 L 451.5 185.45 447.9 186 Q 444.5 186 442.45 184.7 440.4 183.1 440.4 181.35 M 423.1 175.15 L 421 175.65 421 187.25 423.1 187 423.1 179.5 424.1 177.7 426.2 176.7 428.5 176.4 Q 430.9 176.4 431.85 177.2 433.15 177.7 433.15 179 L 433.15 187.25 435.2 187 435.2 179.25 Q 435.2 177.65 434.2 176.95 433.7 176.2 431.85 175.65 L 428.5 175.15 Q 426.95 175.15 425.4 175.9 424.35 176.2 423.35 177.2 L 423.1 177.2 423.1 175.15 M 403.2 183.15 Q 403.2 185.2 404.45 186.25 405.7 187.25 409.4 187.25 L 413 186.75 Q 414.6 186.3 415.05 185.45 L 415.05 187.25 417.15 187 417.15 175.15 415.05 175.4 415.05 180.8 414.55 184.15 Q 413.8 185.25 412.5 185.7 L 409.65 186.25 Q 407 186.25 406.3 185.2 405.25 184.45 405.25 182.9 L 405.25 175.15 403.2 175.4 403.2 183.15 M 392.05 172.8 L 400.85 172.8 400.35 171.25 389.75 171.25 389.75 187.25 392.05 187 392.05 179.8 398.8 179.8 398.8 178.25 392.05 178.25 392.05 172.8 M 332.15 82.65 L 326.7 67.4 259.8 67.4 259.8 152.4 284.6 150.35 284.6 117 319.75 117 319.75 101.75 284.6 101.75 284.6 82.65 332.15 82.65 M 437.05 65.35 L 411.95 67.4 411.95 119.35 Q 412.55 127.1 408.1 132 403.8 136.9 391.05 136.9 381.15 136.9 376.85 134.3 371.95 132 370.9 128.1 369.4 124.3 369.6 120.9 L 369.6 65.35 344.55 67.4 344.55 123.2 Q 345.1 134.15 351.25 140 358.15 146.45 368.3 149.55 379.05 152.4 390 152.4 404.1 152.4 415.35 148.8 425.9 145.45 431.35 138.95 437.05 133.4 437.05 125.25 L 437.05 65.35 M 622.3 181.05 Q 622.3 183.25 623.35 184.45 625 186.1 626.7 186.5 628.7 187.25 631.6 187.25 L 635.25 187 638.35 185.7 638.35 184.15 635.25 185.45 631.35 186 628.5 185.45 626.2 184.45 625.15 183.4 638.85 177.95 Q 638.3 176.95 636 176.15 L 631.6 175.15 626.7 175.9 623.35 177.95 Q 622.3 179.2 622.3 181.05 M 624.4 182.1 L 624.4 181.05 Q 624.4 179.25 626.45 177.95 628.05 176.7 631.6 176.7 L 633.95 176.95 Q 635.2 176.95 635.5 177.7 L 624.4 182.1 M 644.55 170.5 L 642.45 170.75 642.45 187.25 644.55 187 644.55 170.5 M 596.2 176.4 L 597.25 175.15 Q 594.65 175.15 593.1 175.9 591.5 176.2 590.55 177.7 L 590.3 177.7 590.3 175.15 588.2 175.4 588.2 187.25 590.3 187 590.3 181.35 Q 590.3 180.1 591.05 178.75 591.85 177.7 593.1 177.2 594.35 176.4 595.45 176.4 L 596.2 176.4 M 603.95 176.7 Q 606.2 176.7 607.05 177.2 608.35 177.75 608.35 178.25 L 608.35 180.3 606.3 179.25 603.7 179 Q 600.9 179 598.8 180.3 597 181.35 597 183.4 597 184.75 598.05 185.45 598.55 186.3 600.35 186.75 601.35 187.25 603.7 187.25 L 606.55 187 608.35 186 608.35 187.25 610.45 187 610.45 178.25 Q 610.45 177.2 609.65 176.4 L 607.6 175.65 604.75 175.15 Q 601.9 175.15 599.6 175.9 L 598.8 177.45 603.95 176.7 M 599.05 183.4 Q 599.05 181.85 600.35 181.05 601.9 180.3 603.95 180.3 606 180.3 607.05 181.05 608.35 181.9 608.35 183.15 608.35 184.4 607.05 185.2 606 186 603.95 186 L 601.65 185.7 599.85 184.7 Q 599.05 184.5 599.05 183.4 M 584.35 178.25 Q 584.35 177.2 583.55 176.4 L 581.5 175.65 578.65 175.15 Q 576.3 175.15 573.5 175.9 L 572.7 177.45 578.15 176.7 Q 580.35 176.7 581.25 177.2 582.25 177.5 582.25 178.25 L 582.25 180.3 580.2 179.25 577.6 179 Q 574.85 179 572.7 180.3 570.9 181.6 570.9 183.4 570.9 184.75 571.95 185.45 572.45 186.3 574.25 186.75 575.45 187.25 577.9 187.25 L 580.45 187 582.25 186 582.25 187.25 584.35 187 584.35 178.25 M 577.9 180.3 Q 579.9 180.3 581 181.05 582.25 181.9 582.25 183.15 582.25 184.45 581.25 185.2 579.7 186 577.9 186 L 575.55 185.7 573.75 184.7 Q 572.95 184.5 572.95 183.4 572.95 181.85 574.5 181.05 575.75 180.3 577.9 180.3 M 564.45 176.15 L 559.8 175.15 555.65 175.9 Q 553.9 176.65 552.55 177.95 L 552.55 175.15 550.5 175.65 550.5 191.4 552.55 191.15 552.55 185.2 555.65 186.75 Q 556.85 187.25 559.8 187.25 562.6 187.25 564.45 186.5 566.45 186.05 567.8 184.45 569.1 183.15 569.1 181.35 569.1 179.65 567.8 178.25 566.4 176.95 564.45 176.15 M 559.8 176.7 Q 563.3 176.7 565.2 177.95 567.05 179.05 567.05 181.35 L 566.25 183.65 563.65 185.45 559.8 186 556.2 185.45 Q 555.6 185.45 553.6 183.9 552.55 182.95 552.55 181.35 552.55 180.05 553.6 179 554 178.35 556.2 177.2 557.3 176.7 559.8 176.7 M 525.15 175.15 L 523.1 175.65 523.1 187.25 525.15 187 525.15 179.5 526.2 177.7 528.55 176.7 530.6 176.4 Q 532.85 176.4 533.95 177.2 535.25 177.5 535.25 179 L 535.25 187.25 537.3 187 537.3 179.25 Q 537.3 177.7 536.3 176.95 535.75 176.2 533.95 175.65 L 530.6 175.15 Q 529.05 175.15 527.5 175.9 L 525.45 177.2 525.15 177.2 525.15 175.15 M 492.05 176.7 L 489.2 175.65 485.85 175.15 Q 483.3 175.15 481.2 175.9 479 176.65 477.6 177.95 476.05 179.5 476.05 181.05 476.05 182.55 477.35 184.45 478.05 185.45 480.7 186.5 483 187.25 485.35 187.25 L 488.95 187 492.05 186 490.75 184.95 Q 488.55 186 485.35 186 L 481.7 185.45 Q 479.7 184.45 479.15 183.65 478.1 182.05 478.1 181.35 478.6 179.05 480.45 177.95 481.75 177 485.85 176.4 L 488.7 176.95 490.75 177.7 492.05 176.7 M 498.25 175.15 L 496.2 175.65 496.2 187.25 498.25 187 498.25 175.15 M 501.85 181.35 Q 502.45 183.45 503.15 184.15 504.45 185.7 506.5 186.5 508.65 187.25 511.15 187.25 513.8 187.25 516.15 186.5 517.95 185.7 519.5 184.15 520.5 183.15 520.5 181.35 520.5 179.6 519.5 178.25 L 516.15 176.15 511.15 175.15 506.5 176.15 Q 504.8 176.9 503.15 178.25 502.45 179.25 501.85 181.35 M 504.2 181.35 L 504.95 179 507.55 177.2 Q 508.75 176.7 511.15 176.7 513.65 176.7 515.1 177.2 516.85 177.95 517.4 179 518.45 180.15 518.45 181.35 518.45 182.6 517.4 183.65 516.9 184.7 515.1 185.45 L 511.15 186 507.55 185.45 504.95 183.65 504.2 181.35 M 496.95 172.8 L 498.75 171.5 496.95 170.5 495.4 171.5 496.95 172.8 M 515.85 170.75 L 513.05 170.75 508.85 174.1 510.9 174.1 515.85 170.75 M 559.8 65.35 L 535 67.4 535 115.7 457.2 65.35 456.4 65.35 456.4 152.4 481.45 150.35 481.45 102.8 559.3 152.4 559.8 152.4 559.8 65.35 M 783.25 181.35 Q 783.25 183 784.55 184.15 785.8 185.7 787.65 186.5 790 187.25 792.55 187.25 795.35 187.25 797.2 186.5 799.3 185.7 800.55 184.15 801.85 182.9 801.85 181.35 801.85 180.2 800.55 178.25 799.2 176.95 797.2 176.15 L 792.55 175.15 787.65 176.15 Q 785.9 176.9 784.55 178.25 783.25 180.05 783.25 181.35 M 786.35 179 Q 786.8 178.35 788.95 177.2 790.1 176.7 792.55 176.7 795 176.7 796.2 177.2 L 798.75 179 Q 799.8 180.6 799.8 181.35 799.8 182.05 798.75 183.65 L 796.2 185.45 792.55 186 788.95 185.45 Q 786.85 184.45 786.35 183.65 785.35 182.7 785.35 181.35 785.35 180.05 786.35 179 M 779.4 170.5 L 777.3 170.75 777.3 187.25 779.4 187 779.4 170.5 M 771.65 170.5 L 769.55 170.75 769.55 187.25 771.65 187 771.65 170.5 M 747.35 181.35 Q 747.35 183.2 748.4 184.15 749.35 185.45 751.75 186.5 753.75 187.25 756.4 187.25 759.45 187.25 761.3 186.5 763.5 185.5 764.65 184.15 765.7 183.15 765.7 181.35 765.7 179.6 764.65 178.25 L 761.3 176.15 756.4 175.15 751.75 176.15 748.4 178.25 Q 747.35 179.45 747.35 181.35 M 760.25 177.2 Q 762.05 177.95 762.6 179 763.65 180.15 763.65 181.35 763.65 182.6 762.6 183.65 762.1 184.7 760.25 185.45 L 756.4 186 752.8 185.45 750.2 183.65 749.4 181.35 750.2 179 752.8 177.2 Q 753.9 176.7 756.4 176.7 759.1 176.7 760.25 177.2 M 745.55 176.4 L 746.3 176.4 747.35 175.15 Q 744.75 175.15 743.2 175.9 741.65 176.45 740.65 177.7 L 740.4 177.7 740.4 175.15 738.3 175.4 738.3 187.25 740.4 187 740.4 181.35 Q 740.4 180.1 741.15 178.75 741.95 177.7 743.2 177.2 744.45 176.4 745.55 176.4 M 728.25 175.4 L 728.25 187.25 730.55 187 730.55 181.35 Q 730.55 180.1 731.35 178.75 732.1 177.5 733.15 177.2 734.4 176.4 735.45 176.4 L 736.25 176.4 737.3 175.15 Q 734.7 175.15 733.15 175.9 731.6 176.45 730.55 177.7 L 730.55 175.15 728.25 175.4 M 723.6 176.4 L 721.5 175.65 718.95 175.15 713.5 175.9 713 177.45 718.15 176.7 Q 720.4 176.7 721.25 177.2 722.55 177.75 722.55 178.25 L 722.55 180.3 720.25 179.25 717.65 179 Q 714.85 179 712.75 180.3 711.4 181.45 710.95 183.4 710.95 184.5 711.95 185.45 712.85 186.35 714.55 186.75 715.5 187.25 717.9 187.25 L 720.75 187 722.3 186 722.55 186 722.55 187.25 724.6 187 724.6 178.25 Q 724.6 177.2 723.6 176.4 M 721.25 181.05 Q 722.55 181.9 722.55 183.15 722.55 184.4 721.25 185.2 720.15 186 718.15 186 L 715.85 185.7 713.75 184.7 Q 713.25 184.5 713.25 183.4 713.25 181.85 714.55 181.05 715.8 180.3 717.9 180.3 720.15 180.3 721.25 181.05 M 705.75 176.95 L 707.85 177.7 708.85 176.7 706.55 175.65 703.45 175.15 700.6 175.65 698.5 176.7 Q 697.5 177.4 697.5 178.5 697.5 179.6 698.5 180.55 L 700.85 181.35 703.7 181.85 706 182.6 Q 707.05 182.95 707.05 183.9 707.05 185.2 706 185.45 L 703.2 186 700.85 185.7 698.8 184.7 696.95 185.7 699.55 187 702.65 187.25 Q 705.45 187.25 707.3 186.5 709.1 185.7 709.1 183.9 709.1 182.6 708.1 181.85 706.55 181.05 705.75 181.05 L 702.9 180.55 700.6 179.8 Q 699.55 179.3 699.55 178.5 699.55 177.7 700.85 176.95 L 703.45 176.7 705.75 176.95 M 683.8 175.9 L 680.45 177.95 Q 679.15 179.8 679.15 181.05 679.15 182.7 680.45 184.45 682.1 186.1 683.8 186.5 685.8 187.25 688.7 187.25 L 692.3 187 695.4 185.7 695.4 184.15 692.05 185.45 688.45 186 685.6 185.45 683.3 184.45 682 183.4 695.95 177.95 Q 694.8 176.9 693.1 176.15 L 688.7 175.15 683.8 175.9 M 681.45 182.1 L 681.45 181.05 Q 681.45 179.05 683.55 177.95 685.15 176.7 688.7 176.7 L 691.05 176.95 692.6 177.7 681.45 182.1 M 665.2 171.25 L 658.75 171.25 658.75 187 665.2 187 Q 669.2 187 671.4 186 674.65 184.8 675.8 183.15 677.35 181.4 677.35 179 677.35 177.05 675.55 175.15 674.3 173.65 671.4 172.3 669 171.25 665.2 171.25 M 661.05 172.8 L 665.2 172.8 Q 668.05 172.8 670.35 173.6 672.6 174.6 673.7 175.9 674.75 177.05 674.75 179 674.75 181.05 673.45 182.35 672.4 183.9 669.85 184.7 667.85 185.7 664.7 185.7 L 661.05 185.7 661.05 172.8 M 665.95 131.75 Q 675.75 122.2 676.05 108.2 675.55 96.4 667.5 87.55 659.45 78.25 645.8 72.8 632.35 67.4 616.1 67.4 L 576.6 67.4 576.6 150.35 611.2 150.35 Q 626.95 150.35 641.7 145.7 656.15 141.05 665.95 131.75 M 632.4 86.25 Q 641.1 89.85 645.3 95.3 649.65 101.05 649.95 108.2 649.95 115.2 645.8 121.15 642.2 127.1 634.2 130.95 626 135.1 615.1 135.1 L 601.65 135.1 601.65 82.65 613.8 82.65 Q 625.15 83.2 632.4 86.25 M 769.85 82.65 L 765.7 67.4 695.7 67.4 695.7 150.35 768 150.35 775.75 135.1 720.75 135.1 720.75 114.7 760.25 114.7 760.25 99.45 720.75 99.45 720.75 82.65 769.85 82.65 M 930.8 177.95 Q 929.5 179.8 929.5 181.05 929.5 182.7 930.8 184.45 931.95 185.7 933.9 186.5 936.2 187.25 938.8 187.25 L 942.4 187 Q 944 186.75 945.5 185.7 L 945.5 184.15 942.4 185.45 938.8 186 935.7 185.45 933.6 184.45 Q 933.3 184.45 932.35 183.4 L 946 177.95 Q 945.55 177.3 943.45 176.15 L 939.05 175.15 Q 938 175.15 934.15 175.9 932.55 176.6 930.8 177.95 M 933.6 177.95 Q 935.2 176.7 939.05 176.7 L 941.1 176.95 Q 942.15 176.95 942.9 177.7 L 931.8 182.1 931.55 181.05 Q 931.55 179.25 933.6 177.95 M 905.7 175.9 L 905.2 177.45 910.35 176.7 Q 912.6 176.7 913.45 177.2 914.25 177.7 914.75 178.25 L 914.75 180.3 912.45 179.25 909.85 179 Q 907.05 179 904.95 180.3 903.6 181.45 903.15 183.4 903.15 184.5 904.15 185.45 905.05 186.35 906.75 186.75 907.75 187.25 910.1 187.25 L 912.95 187 914.5 186 914.75 186 914.75 187.25 916.85 187 916.85 178.25 Q 916.85 177.55 915.8 176.4 L 913.75 175.65 911.15 175.15 905.7 175.9 M 906 184.7 Q 905.45 184.5 905.45 183.4 905.45 181.85 906.75 181.05 908 180.3 910.1 180.3 912.4 180.3 913.45 181.05 914.25 181.6 914.75 183.15 914.2 184.8 913.45 185.2 912.4 186 910.35 186 L 907.8 185.7 906 184.7 M 923.3 172.05 L 921.2 172.55 921.2 175.4 919.4 175.4 918.9 176.95 921.2 176.95 921.2 183.9 Q 921.2 185.3 922.5 186.5 924.05 187.25 926.4 187.25 L 928.2 187 928.2 186 926.65 186 924.05 185.45 Q 923.3 185.25 923.3 183.9 L 923.3 176.95 928.2 176.95 928.2 175.4 923.3 175.4 923.3 172.05 M 886.6 175.4 L 886.6 183.15 Q 886.6 185 887.9 186.25 889.1 187.25 892.8 187.25 L 896.4 186.75 Q 897.9 186.3 898.5 185.45 L 898.5 187.25 900.8 187 900.8 175.15 898.5 175.4 898.5 180.8 Q 898.5 183.3 897.95 184.15 897.2 185.45 895.9 185.7 L 893.05 186.25 Q 890.7 186.25 889.7 185.2 888.65 184.5 888.65 182.9 L 888.65 175.15 886.6 175.4 M 874.45 172.3 L 878.1 172.8 881.2 174.1 882.45 173.05 Q 881.9 172.55 880.15 172.05 878.6 171.25 877.3 171.25 L 874.45 171 Q 870.35 171 867.5 172.05 864.65 173.3 863.1 175.15 861.55 177.25 861.55 179 861.55 181.65 863.35 183.4 864.9 185.25 867.75 186.5 871.15 187.55 873.95 187.55 878.8 187.55 883 185.2 L 883 178.5 873.45 178.5 872.65 180.05 880.65 180.05 880.65 184.45 877.55 185.7 874.2 186 Q 871.35 186 869.05 185.2 866.45 184 865.4 182.6 863.85 181.05 863.85 179 863.85 177.2 865.4 175.65 866.45 174.1 869.05 173.3 871.1 172.3 874.45 172.3 M 848.1 176.15 Q 846.9 175.65 843.7 175.15 842.95 175.15 839.05 175.9 837.45 176.6 835.7 177.95 834.4 179.25 834.4 181.05 834.4 183.25 835.45 184.45 L 838.8 186.5 Q 841.15 187.25 843.7 187.25 L 847.35 187 850.45 185.7 850.45 184.15 847.35 185.45 843.7 186 840.6 185.45 838.55 184.45 Q 838.25 184.45 837.25 183.4 L 850.95 177.95 Q 850.4 176.95 848.1 176.15 M 843.7 176.7 L 846.05 176.95 Q 847.3 176.95 847.6 177.7 L 836.75 182.1 836.5 181.05 Q 836.5 179.25 838.55 177.95 840.15 176.7 843.7 176.7 M 826.15 175.9 Q 825.85 175.65 822 175.15 820 175.15 817.35 176.15 815.05 176.95 814 178.25 812.7 179.5 812.7 181.35 812.7 183.2 814 184.45 814.8 185.5 817.35 186.5 819.7 187.25 822.25 187.25 L 826.4 186.75 829.25 185.2 829.25 187.25 831.3 187 831.3 170.5 829.25 170.75 829.25 177.45 826.15 175.9 M 829.25 181.35 L 828.45 183.65 825.65 185.45 822 186 Q 818.8 186 816.85 184.7 814.8 183.15 814.8 181.35 814.8 180.05 815.8 179 816.65 177.95 818.15 177.2 L 822 176.7 Q 824.45 176.7 825.65 177.2 827.45 177.75 828.2 178.75 829.25 179.9 829.25 181.35 M 819.7 82.9 Q 823.95 80.85 831.3 80.85 835.75 80.85 842.7 82.9 848.9 85.2 853.55 88.3 L 869.05 76.7 Q 862.4 71.5 852.75 68.45 842.7 65.9 832.6 65.35 812.65 65.9 800.85 72.05 788.9 79 788.45 90.9 788.45 99.7 794.35 104.35 799.45 109.25 808.3 111.6 814.55 113.6 825.1 115.95 832.45 117.25 839.05 120.1 845 123 845 127.35 845 131.25 840.1 134.05 834.95 136.9 828.45 136.9 817.8 136.9 812.95 134.3 807.4 131.3 803.4 128.1 L 786.1 139.5 Q 802.8 152.4 827.2 152.4 839.3 152.4 849.4 149.3 859.2 146.2 865.15 140.75 871.1 135.3 871.1 127.6 871.1 118.4 865.4 112.6 859.65 107.45 851.2 104.6 844.3 102.4 834.4 100.45 824.7 98.7 820.45 97.1 815 94.8 814.5 90.9 815 85.3 819.7 82.9 M 972.1 131.2 L 987.6 152.4 1014.5 149.8 946.55 65.35 946.3 65.35 880.9 149.8 907.25 152.4 922.5 131.2 972.1 131.2 M 961.5 117.25 L 932.35 117.25 946.55 94.8 961.5 117.25 M 1009.55 177.2 Q 1010.6 177.5 1010.6 178.25 L 1010.6 180.3 1008.55 179.25 1005.95 179 Q 1003.15 179 1001.05 180.3 999.25 181.6 999.25 183.4 999.25 184.5 1000.25 185.45 1000.8 186.3 1002.6 186.75 1003.8 187.25 1006.2 187.25 L 1008.8 187 1010.6 186 1010.6 187.25 1012.65 187 1012.65 178.25 Q 1012.65 177.2 1011.9 176.4 L 1009.85 175.65 1007 175.15 Q 1004.6 175.15 1001.8 175.9 L 1001.05 177.45 1006.45 176.7 Q 1008.7 176.7 1009.55 177.2 M 1002.85 181.05 Q 1004.1 180.3 1006.2 180.3 1008.25 180.3 1009.3 181.05 1010.6 181.9 1010.6 183.15 1010.6 184.45 1009.55 185.2 1008 186 1006.2 186 L 1003.9 185.7 1002.1 184.7 Q 1001.3 184.5 1001.3 183.4 1001.3 181.85 1002.85 181.05 M 972.35 187 L 972.35 178.5 Q 972.35 176.95 970.55 176.15 968.4 175.15 966.45 175.15 L 963.6 175.65 Q 961.75 176.75 961.25 177.2 L 959.2 175.65 955.85 175.15 Q 954.5 175.15 953.25 175.9 951.6 176.45 951.2 177.2 L 950.95 177.2 950.95 175.15 948.85 175.65 948.85 187.25 950.95 187 950.95 180.05 Q 950.95 178.25 952.2 177.45 953.25 176.4 955.85 176.4 957.6 176.4 958.7 177.2 959.7 177.75 959.7 179 L 959.7 187.25 961.8 187 961.8 180.05 Q 961.8 178.2 962.8 177.45 963.85 176.4 966.45 176.4 968.2 176.4 969.25 177.2 970.3 177.5 970.3 179 L 970.3 187.25 972.35 187 M 988.9 178.25 L 987.85 176.4 985.8 175.65 983.2 175.15 977.8 175.9 977.3 177.45 982.45 176.7 Q 984.65 176.7 985.55 177.2 986.6 177.5 986.6 178.25 L 986.6 180.3 984.5 179.25 981.95 179 Q 979.15 179 977 180.3 975.2 181.6 975.2 183.4 975.2 184.5 976.25 185.45 977.15 186.35 978.85 186.75 979.8 187.25 982.2 187.25 L 985.05 187 986.6 186 986.6 187.25 988.9 187 988.9 178.25 M 986.6 183.15 Q 986.6 184.45 985.55 185.2 984.45 186 982.45 186 L 979.85 185.7 978.05 184.7 Q 977.3 184.5 977.3 183.4 977.75 181.65 978.85 181.05 980.05 180.3 982.2 180.3 984.45 180.3 985.55 181.05 986.6 181.85 986.6 183.15 M 995.6 170.5 L 993.55 170.75 993.55 187.25 995.6 187 995.6 170.5 Z"/>
</g>
<g id="l0">
<path fill="#2F358F" stroke="none" d="M 190.2 182.85 Q 221.1 151.85 221.1 107.95 221.1 64.1 190.2 33.05 159.2 2.15 115.35 2.15 71.4 2.15 40.35 33.05 9.45 64.1 9.45 107.95 9.45 151.85 40.35 182.85 71.45 213.85 115.35 213.85 159.2 213.85 190.2 182.85 Z"/>
</g>
<g id="l1">
<path fill="#FFFFFF" stroke="none" d="M 205.8 163.4 L 206.35 162.35 124.7 2.45 Q 120.05 2.15 115.35 2.15 L 111.45 2.2 18.85 152.5 Q 22.8 160.8 28.15 168.4 L 28.1 168.4 28.2 168.55 Q 53.45 127.45 118 16.15 L 118 16.05 205.8 163.4 M 187.9 185.15 L 189.85 183.25 122.6 52.95 Q 116.95 42.8 111.05 52.1 L 34.45 176.55 Q 36.95 179.4 40.35 182.85 43.45 185.95 46 188.05 L 45.95 188.05 46 188.15 46.05 188.15 117.2 66.75 187.9 185.15 Z"/>
</g>
</defs>
<g transform="matrix(1,0,0,1,0,0)">
<use xlink:href="#Layer2_0_FILL"/>
</g>
<g transform="matrix(1,0,0,1,0,0)">
<use xlink:href="#l0"/>
</g>
<g transform="matrix(1,0,0,1,0,0)">
<use xlink:href="#l1"/>
</g>
</svg>
