<svg xmlns="http://www.w3.org/2000/svg" xmlns:xlink="http://www.w3.org/1999/xlink" width="100%" height="100%" viewBox="0 0 1024 1004">
<defs>
<g id="l1">
<path fill="#4B90CE" stroke="none" d="M 953 120.6 Q 929.7 90.8 896.65 68.7 864.55 47.25 824.85 34.15 785.9 21.3 741.85 17.25 698 13.25 651.95 18.25 630.65 20.6 602.55 27.9 582.9 33.05 553.6 42.35 491.4 65.35 439 99.45 388.8 132.25 348 174.9 448 100.7 582.3 88.4 600.9 88.4 618.85 90.05 658.15 93.6 693.5 105.25 729.2 117.05 758.15 136.35 788 156.35 808.8 183.05 852.1 238.6 859.1 312.35 866.4 388.8 833.85 476.15 800.35 566.05 734.95 653.3 668.35 742.05 579.95 812.75 494.2 881.3 396.15 918.9 379.5 925.35 362.25 931.15 344.55 936.8 327.35 941.2 314.75 944.45 303.55 946.9 267.85 954.3 231.3 957.75 178.4 962.6 131.6 952.1 89.1 942.5 47.15 919.15 85.4 946.85 127.1 962.05 120.75 961 115.1 959.75 97.15 955.75 78.75 947.95 62.45 941.15 41.1 929.25 89.95 964.55 147.4 978.8 210.3 994.4 285.05 985.15 339 978.35 386.6 965.45 435.25 952.3 481.4 931.65 495.65 925.3 509.9 918.05 608.6 875.4 698.7 803.4 798.65 723.5 868.95 632.7 940.25 540.5 976.8 442.4 1013.3 344.3 1006.9 262.35 1000.55 181.75 953 120.6 M 755.05 377.1 Q 746.05 378.95 737.55 384 730.6 388.05 727.1 395 723.75 401.65 724.65 409.25 725.35 414.45 727.75 418.2 729.95 421.7 733.25 423.3 736.45 424.85 739.85 424.15 743.4 423.45 746.2 420.35 750.35 415.8 750.1 406.4 749.85 397.65 745.9 387.8 L 747.35 387.15 Q 749.1 386.5 751.15 386.1 757.45 384.9 762.5 386.95 770.85 390.3 771.6 409.55 772.35 421.25 770.3 428.35 767.95 436.55 761.2 440.8 758.6 442.4 754.85 442.8 752.1 443.05 747.35 442.7 L 747.35 454.6 Q 751.8 454.55 757.3 455 764.7 455.6 766.45 456.7 772.8 460.65 774.3 473 775.3 481 774.35 495.65 774.1 504.2 768.55 511.05 764.1 516.4 758.8 518.55 753.7 520.65 747.15 519.25 745.3 518.9 743.15 518.15 L 741.6 517.45 Q 745.5 507.6 745.75 498.8 746.05 489.5 741.8 484.85 739.05 481.85 735.55 481.05 732.15 480.4 728.95 481.9 725.6 483.55 723.4 487 721 490.8 720.35 495.95 719.4 503.45 722.8 510.25 726.2 517.1 733.25 521.25 741.8 526.35 751.25 528 760.5 529.6 769.25 527.85 778.15 526 784.9 520.85 788.8 517.85 791.75 514.05 805.45 497.25 802.5 481.6 802.25 452.65 775.35 447.95 773.75 447.8 773.1 447.15 772.6 446.75 772.6 446.2 772.6 445.75 773.3 445.5 L 775.5 444.85 Q 791.95 439.15 797.55 423.85 799.9 417.25 799.65 410.15 799.4 403.3 796.65 397.35 792.9 389.1 786.35 383.85 780.05 378.85 771.9 377.1 763.85 375.45 755.05 377.1 M 682.2 376.4 Q 674.35 392.85 658.5 394.45 L 650.9 394.45 650.9 403.95 669.6 403.95 669.6 472.2 Q 670.25 482 651.15 483 L 651.15 490.6 711.8 490.6 711.8 483 Q 695.85 482.4 695.1 470.2 L 695.1 376.4 682.2 376.4 Z"/>
</g>
<g id="l2">
<path fill="#015FBA" stroke="none" d="M 649.1 394 L 649.1 380.9 566.1 380.9 566.1 394 Q 591.65 398.4 590.6 417.5 L 590.6 463.55 Q 580.1 477 565.25 478.3 547.55 479.9 537.05 467.55 525.45 454.05 520.45 421.55 513.6 376.85 516.05 342.8 518.65 305.8 532.15 283.05 541.25 267.55 555.2 265.05 568.95 262.5 583.25 273.35 603.05 294 612.15 340.4 L 622.55 340.4 621.3 254.9 611.7 255.35 604.55 264.3 Q 593.6 256.65 581 253.1 569.15 249.8 555.85 250 532.25 250.3 514.2 263.45 496.65 276.25 486.4 299.5 473.95 327.7 470.95 357.15 467.4 393.35 478.55 429.2 488.9 461.95 508.9 479.05 528.5 495.65 554.6 495.05 598.9 494.05 628.8 467.25 L 628.8 417.5 Q 628.25 407.3 632.35 402.05 636.95 396.1 649.1 394 M 896.65 68.7 Q 864.55 47.25 824.85 34.15 785.9 21.3 741.85 17.25 698 13.25 651.95 18.25 630.65 20.6 602.55 27.9 582.9 33.05 553.6 42.35 491.4 65.35 439 99.45 388.8 132.25 348 174.9 350.45 172.8 351.7 171.8 354.15 169.65 357.85 166.7 379.9 149.35 407.85 134.4 437.4 118.65 477.65 103.75 504.25 95.3 521.75 90.75 547.3 84.1 566.2 82.05 607.7 77.5 647.1 81.15 686.8 84.8 721.75 96.35 757.55 108.15 786.4 127.45 816.25 147.4 837.15 174.2 880 229.3 886.15 302.85 892.4 378 859.65 466 826.35 555.55 762 640.65 697 726.7 608.2 797.7 519.85 868.3 423.85 908.8 393.4 921.65 362.25 931.15 344.55 936.8 327.35 941.2 314.75 944.45 303.55 946.9 267.85 954.3 231.3 957.75 178.4 962.6 131.6 952.1 89.1 942.5 47.15 919.15 85.4 946.85 127.1 962.05 139.85 966.6 152.2 969.9 214.6 986.6 288.65 977.5 399.75 963.5 497.35 923.35 504.65 920.35 509.9 918.05 608.6 875.4 698.7 803.4 798.65 723.5 868.95 632.7 940.25 540.5 976.8 442.4 1013.3 344.3 1006.9 262.35 1000.55 181.75 953 120.6 929.7 90.8 896.65 68.7 Z"/>
</g>
<g id="l3">
<path fill="#4B8FCE" stroke="none" d="M 673.75 534.25 Q 664.95 528 663.05 526.7 656.45 522.05 652.2 520.25 649.05 518.85 643.7 514.9 L 639 511.25 Q 635.05 508.95 629.1 503.8 L 623.65 499.05 600.85 512.95 607.9 518.9 Q 615.55 525.3 619.2 527.55 620.35 529.65 619.55 532.9 618.95 535 618.35 535.9 617.55 537.4 616.3 537.85 612.95 532.8 612.5 532.25 610.35 529.65 606.5 527.65 602.2 525.5 598.65 525.3 595.25 525.1 592.6 526.75 592.2 526.4 591 525.45 L 591 525.5 Q 587.95 523.05 581.75 520.9 575.05 518.5 567.6 517.45 L 567.7 517.45 Q 551.8 515.05 547.15 514.5 L 547.1 514.5 Q 541.25 513.7 538.2 513.65 L 538.2 508.25 518.85 508.25 518.85 532.15 528.4 531.65 Q 537.85 532.15 544.4 532.75 551.2 533.35 564.9 535.25 L 564.95 535.3 565.05 535.3 568.7 535.85 Q 543.95 553.7 524.15 564.4 504.3 575.15 494.45 587.2 L 494.4 587.2 494.4 587.25 Q 490.15 592.4 488.45 596.4 486.35 601.35 487.65 605.55 488.75 610.9 490.6 614.05 493.1 618.3 497.8 620.45 504.6 624.15 513.65 618.95 L 513.7 618.9 Q 515.05 618.15 517.65 614.9 521 610.85 522.3 609.55 527.55 610 533.95 609.7 541.5 609.35 544.8 608.3 552.1 606.1 553.15 605.6 556.55 604 559.55 600.05 560.05 599.4 561.1 597.25 562.2 595.2 563.05 594.25 L 563.1 594.2 Q 565.9 591.25 567.3 589.25 569.45 586.45 569.05 582.65 568.7 579.75 566.95 576.8 L 566.9 576.7 566.9 576.65 Q 565.85 575.6 565.25 574.2 564.75 573.1 564 571.1 L 564.25 567.8 565.25 567.85 Q 567.65 568.05 571.75 566.9 576.8 565.35 578.45 565.05 582.25 564.75 590.1 554.5 594.15 549.2 597.45 543.9 597.45 543.95 600.1 547.8 603.4 552.3 606.1 555.65 615.25 566.6 618.9 565.65 623.1 566.5 625.95 563.65 628.65 560.9 630.2 554.5 L 631.8 549.7 Q 632.95 546.1 633.45 545.4 635.8 541.8 638.9 539.65 642.05 537.35 645.55 537 649.4 539.3 657 544.7 665 550.4 666.35 551.85 L 529.05 663 Q 523.25 669.2 520.4 676.2 517.65 683.05 517.15 692.55 515.8 713.6 524.25 725.55 L 524.25 733.8 512.3 735.15 493.15 754.05 Q 473.65 757.75 465.3 762.7 450.65 771.05 451.35 781.1 451.55 784.6 453.65 788.3 454.3 789.45 456.9 793.2 L 459.3 796.4 Q 439.15 804.85 428.35 822.8 L 427.15 824.55 Q 425.35 826.3 422.5 826.4 416.1 826.65 406.5 824.35 L 365.95 862.4 365.95 870.4 Q 357.65 865.3 348.7 861.85 317 850.05 290 844.65 275.25 841.75 257.6 840.4 244.1 839.35 225.15 839.05 183.85 839.9 144.2 823.4 116.35 808.85 91.05 789.9 65.45 770.85 42.9 747.85 46.4 740.2 47.95 733.15 49.65 725.3 49.15 717.1 L 51.45 678.3 62.8 668.7 62.8 650.4 39.1 627.25 118.35 499.2 335.25 499.1 330.35 491.5 Q 337.65 481.6 328.9 470.2 326.85 468.05 328.9 465.55 L 328.9 465.45 333 460.95 Q 335.05 458.2 336.75 455.15 337.95 452.8 338.75 450.95 342.55 443.15 338.5 437.85 336.9 433.55 328.9 430.7 L 328.75 430.7 Q 326 429.75 317.85 427.9 313.85 427 309.6 423.65 304.7 419.4 302.2 417.35 L 302.2 417.4 Q 293.2 410.15 289.8 402.75 L 289.8 402.8 289.15 401.35 293.55 391.05 290.25 387.7 Q 276.7 373.15 263.4 364.95 249.6 356.45 231.85 352.1 L 214 329.3 206.35 329.3 193.15 310.5 193.15 303.8 242 303.8 242 210.95 519.75 210.95 519.75 235.7 537.75 235.7 537.75 192.95 224 192.95 224 285.8 153.05 285.8 150.65 295.3 Q 149.95 300.8 153.15 305.7 156.35 310.5 161.95 312.65 165.7 314 174.65 315.8 L 174.65 319.75 196.5 345.9 203.45 345.9 221.2 368.05 224.65 368.85 Q 238.85 372.05 250.4 378.4 261.45 384.45 272.75 395.1 272 396.4 271.55 397.95 L 271.55 398 Q 270.45 400.9 271.4 404.8 272 407.5 274.35 412.7 L 274.4 412.7 Q 277.15 418.5 280.7 422.95 283.85 426.8 289.5 431.4 296.3 436.9 302.35 440.95 308.4 444.85 313.05 445.9 L 316.25 446.7 Q 317.35 446.9 318.3 446.85 319.15 446.75 319.2 447 319.3 447.25 318.8 448 L 317.4 449.9 Q 316.5 450.9 315.15 452.6 308.65 461.1 309.05 469.1 308.9 471.6 310.1 474.55 311.4 477.4 313.3 479.5 314.25 480.55 313.85 480.9 313.5 481.2 311.85 481.2 L 108.35 481.2 16.2 630.05 46.05 659.25 33.95 669.55 31.15 717.75 Q 31.65 724.95 29.65 731.85 27.9 737.75 23.9 744.5 L 20.4 750.55 25.9 756.15 Q 75.3 807.85 136.15 839.5 L 136.9 839.85 Q 181.35 858.5 225.55 857.45 256.95 857.55 286.85 863.3 312.9 868.3 341.3 878.3 L 384.85 897.65 384.85 869.2 412.6 844.05 Q 415.35 844.65 417.65 844.95 419.5 845.25 421.1 845.4 428.95 846.6 435.6 843.55 442.25 840.55 444.1 835.15 L 444.1 835.2 Q 449 824.65 455.35 819.5 461.7 814.3 471.1 814.3 L 486.3 799.65 481.65 794.45 Q 478.95 791.65 474.7 785.9 470.85 780.8 470.8 780.8 471.05 779.65 480.95 776.55 490.55 773.5 499.25 771.9 L 501.9 771.45 520.25 752.35 542.9 749.75 542.9 718.25 Q 540.65 716.85 538.55 713.05 534.35 705.45 535.1 693.6 535.3 690.65 535.95 687.6 536.6 684.45 537.65 682.15 538.65 679.8 564.95 656.45 L 694.45 552.85 Q 679.9 539.1 673.75 534.25 M 536.55 586.4 L 536.55 590.7 527.05 590.7 Q 521.5 590.2 515.95 591.95 L 546.05 573.5 Q 545.85 578.65 549.2 583.1 546.7 583.8 546.35 586.4 L 536.55 586.4 Z"/>
</g>
</defs>
<g transform="matrix(1,0,0,1,0,0)">
<use xlink:href="#l1"/>
</g>
<g transform="matrix(1,0,0,1,0,0)">
<use xlink:href="#l2"/>
</g>
<g transform="matrix(1,0,0,1,0,0)">
<use xlink:href="#l3"/>
</g>
</svg>
