<svg xmlns="http://www.w3.org/2000/svg" xmlns:xlink="http://www.w3.org/1999/xlink" width="100%" height="100%" viewBox="0 0 1024 794">
<defs>
<g id="l1">
<path fill="#6D6E71" stroke="none" d="M 514.2 723.65 L 500.5 723.65 500.5 777.85 514.2 777.85 514.2 723.65 M 507.35 713.15 Q 510.55 713.15 513.75 710.9 516 708.55 516 704.95 516 702.2 513.75 699 510.55 696.75 507.35 696.75 503.65 696.75 500.95 699.45 498.65 701.75 498.65 704.95 498.65 707.65 500.95 710.9 504.1 713.15 507.35 713.15 M 560.2 692.2 L 546.95 692.2 546.95 777.85 559.75 777.85 559.75 769.65 Q 563.35 774.65 567.9 776.9 572 779.2 578.4 779.2 585.65 779.2 589.75 776.9 593.85 775.1 597.95 771 601.15 767.35 603.4 761.85 605.25 756.85 605.25 750.5 605.25 744.1 603.4 739.1 601.15 734.1 597.95 730 593.85 725.9 589.3 724.1 583.85 721.8 578.85 721.8 L 572 722.7 567 725 563.35 727.75 560.65 730.45 560.2 730.45 560.2 692.2 M 564.3 762.3 Q 561.55 759.6 561.1 756.85 559.75 754.1 559.75 750.5 L 561.1 744.1 Q 561.55 742.3 564.3 738.65 566.55 735.45 569.3 734.55 572 733.2 575.65 733.2 579.75 733.2 582.95 734.55 585.2 735.9 587.5 738.65 588.4 739.55 590.65 744.1 L 591.6 750.5 590.65 756.85 Q 588.4 761.4 587.5 762.3 585.2 765.1 582.95 766.45 578.4 768.25 575.65 768.25 571.55 768.25 569.3 766.45 566.55 765.55 564.3 762.3 M 459.1 733.65 Q 461.8 735.45 464.1 738.2 L 472.75 730 Q 470.45 726.35 464.1 724.1 458.15 721.8 452.65 721.8 448.55 721.8 444.45 723.2 441.3 724.1 437.65 725.9 434.45 728.2 432.65 731.35 430.8 734.55 430.8 739.1 430.8 743.65 432.2 745.45 433.1 747.3 435.8 750 437.65 751.85 440.85 752.75 L 446.75 754.55 Q 453.1 755.95 456.35 757.75 459.55 759.6 459.55 762.3 L 458.6 765.55 456.35 767.35 453.55 768.75 450.9 768.75 Q 445.85 768.75 442.65 766.9 438.1 764.2 436.75 761.85 L 427.65 770.55 Q 431.75 774.65 437.65 776.9 442.65 779.2 450 779.2 455.9 779.2 458.6 778.3 462.25 777.85 465.9 775.55 468.65 773.3 470.9 769.65 472.75 766.45 472.75 761.4 472.75 757.3 471.35 754.55 L 467.25 750 461.35 746.85 446.3 742.3 Q 443.55 740.9 443.55 738.2 443.55 735 446.3 733.65 449 732.3 452.25 732.3 L 459.1 733.65 M 402.15 723.65 L 388.45 723.65 388.45 777.85 402.15 777.85 402.15 723.65 M 394.8 713.15 Q 398 713.15 401.25 710.9 403.95 709 403.95 704.95 403.95 701.75 401.25 699 398 696.75 394.8 696.75 391.2 696.75 388.9 699.45 386.2 701.75 386.2 704.95 386.2 708.1 388.9 710.9 391.2 713.15 394.8 713.15 M 306.95 697.65 L 291.05 697.65 322.9 777.85 335.15 777.85 367.5 697.65 352.05 697.65 329.7 759.6 329.25 759.6 306.95 697.65 M 648.05 777.85 L 648.05 692.2 634.4 692.2 634.4 777.85 648.05 777.85 M 716.35 723.65 Q 710 721.8 705.9 721.8 700.45 721.8 694.5 724.1 689.5 725.9 685.4 730 681.3 734.1 679.5 739.1 677.2 745 677.2 750.95 677.2 757.3 679.5 762.75 681.3 767.8 685.4 771.9 689.5 775.55 694.95 777.35 699.05 779.2 706.35 779.2 722.25 779.2 729.6 768.75 L 720.45 761.4 Q 718.65 764.2 715 766.45 711.8 768.25 706.35 768.25 L 700.45 767.35 695.9 764.65 692.25 760.5 Q 690.85 757.75 690.85 755.05 L 732.35 755.05 732.35 751.4 Q 732.35 744.55 730.05 738.65 728.7 733.65 724.6 729.55 721.35 725.9 716.35 723.65 M 705.9 732.3 Q 710 732.3 711.35 733.2 L 715.45 735.9 Q 716.8 737.3 717.7 740.45 L 718.65 745 690.85 745 Q 690.85 739.55 695.4 735.9 699.05 732.3 705.9 732.3 Z"/>
</g>
<g id="l2">
<path fill="#2B85E1" stroke="none" d="M 394.8 531.4 L 382.55 531.4 382.55 556.05 394.8 556.05 394.8 604.25 Q 394.8 612.5 397.1 619.35 398.9 624.35 403.05 628.45 406.7 632.1 412.6 633.45 417.6 635.25 424.45 635.25 429.9 635.25 437.2 633.45 443.55 632.1 447.2 629.35 L 447.2 606.15 Q 440.85 609.8 433.1 609.8 424 609.8 424 599.7 L 424 556.05 447.65 556.05 447.65 531.4 424 531.4 424 505.5 394.8 505.5 394.8 531.4 M 510.55 529.6 Q 499.55 529.6 490 533.7 480.9 537.8 474.55 545.05 467.25 553.3 464.1 561.95 460.45 571.05 460.45 582.45 L 460.45 582.9 Q 460.45 594.25 464.1 604.25 468.2 613.9 475.45 621.15 482.3 628 492.3 631.6 501.85 635.7 513.25 635.7 526.45 635.7 537.4 630.7 547.85 625.25 555.15 616.6 L 538.75 602.05 Q 532.4 607.95 526.9 609.8 521 612.5 513.75 612.5 504.1 612.5 497.75 607.5 490.95 602.05 489.1 592.45 L 559.75 592.45 560.2 584.7 Q 560.2 573.8 557.4 564.25 553.75 552.85 548.3 546.5 542.4 539.15 532.85 534.15 523.75 529.6 510.55 529.6 M 510.55 552.85 Q 519.65 552.85 525.1 558.75 530.55 565.15 531.95 574.25 L 488.65 574.25 Q 490 564.7 495.95 558.75 501.4 552.85 510.55 552.85 M 60.55 537.35 Q 66.45 531.4 72.9 528.25 79.25 525.05 87.9 525.05 L 97.9 525.95 Q 102.9 526.85 107 528.7 111.55 530.05 114.75 532.8 L 122.5 538.7 140.75 516.4 Q 137.55 513.2 130.25 508.65 L 118.4 502.75 Q 110.65 500.05 104.75 499.1 95.65 498.2 88.8 498.2 73.8 498.2 60.55 503.65 47.35 509.6 38.7 518.25 30.05 526.85 24.15 540.05 19.15 551.5 19.15 566.95 L 19.15 567.4 Q 19.15 582.9 24.15 594.7 28.7 606.6 38.25 616.15 47.35 625.25 60.55 630.7 73.35 635.7 88.8 635.7 106.1 635.7 121.1 629.35 135.75 623.45 145.75 614.35 L 145.75 556.95 87.9 556.95 87.9 582 117.5 582 117.5 601.15 Q 106.1 609.35 89.7 609.35 80.15 609.35 73.35 606.15 65.1 602.05 60.55 597 54.65 590.15 52.35 583.8 49.65 576.5 49.65 566.95 L 49.65 566.5 Q 49.65 558.3 52.35 550.6 55.1 542.8 60.55 537.35 M 301.5 532.8 Q 291.5 535.05 284.15 538.7 L 291.5 560.6 304.7 556.5 Q 311.5 555.15 319.7 555.15 330.6 555.15 335.6 559.7 341.55 564.7 341.55 573.8 L 341.55 575.6 330.15 572.4 Q 324.25 571.05 316.5 571.05 307.85 571.05 299.7 573.35 291.95 575.6 286.9 579.25 281.45 583.35 278.25 589.25 275.5 595.65 275.5 603.8 L 275.5 604.25 Q 275.5 611.6 278.25 617.5 281.45 624.35 285.5 627.05 291.05 631.6 296.95 633.45 305.15 635.25 310.15 635.25 320.15 635.25 328.35 631.6 335.15 628.45 341.1 622.5 L 341.1 633.45 368.9 633.45 368.9 574.25 Q 368.9 564.7 366.6 555.6 363.9 546.9 357.95 541.9 352.05 535.95 344.25 533.25 335.6 530.5 323.8 530.5 309.7 530.5 301.5 532.8 M 308.8 592 Q 314.7 588.35 323.35 588.35 L 333.35 589.7 Q 338.35 590.6 341.55 592.45 L 341.55 597.45 Q 341.55 605.7 335.6 610.25 330.15 615.25 319.25 615.25 311.5 615.25 307.85 612.05 303.3 608.85 303.3 602.9 L 303.3 602.5 Q 303.3 596.1 308.8 592 M 194.95 531.4 L 166.2 531.4 166.2 597.45 Q 166.2 615.7 175.3 625.25 184 635.25 200.85 635.25 206.3 635.25 210.4 633.9 L 218.6 630.25 Q 222.25 628 224.95 624.8 228.6 622.05 230.4 618.9 L 230.4 633.45 259.6 633.45 259.6 531.4 230.4 531.4 230.4 588.35 Q 230.4 598.8 225.85 603.8 220.85 608.85 212.65 608.85 204.5 608.85 199.5 603.8 194.95 597.9 194.95 588.35 L 194.95 531.4 M 724.15 539.15 Q 715.45 529.6 699.05 529.6 688.6 529.6 680.4 533.7 672.2 537.8 665.35 546.05 661.25 537.8 653.95 533.7 647.15 529.6 636.7 529.6 L 626.65 530.95 618.95 534.6 Q 617.55 535.5 612.05 539.6 L 606.6 546.05 606.6 531.4 577.95 531.4 577.95 633.45 606.6 633.45 606.6 576.5 Q 606.6 566.95 611.6 561.05 615.75 556.05 624.4 556.05 632.6 556.05 636.7 561.05 641.25 566.05 641.25 576.5 L 641.25 633.45 669.95 633.45 669.95 576.5 Q 669.95 566.95 674.5 561.05 679.5 556.05 687.7 556.05 695.9 556.05 699.95 561.05 704.5 566.05 704.5 576.5 L 704.5 633.45 733.25 633.45 733.25 566.95 Q 733.25 548.25 724.15 539.15 M 893.55 494.5 L 864.35 494.5 864.35 633.45 893.55 633.45 893.55 494.5 M 959.1 530.5 Q 945 530.5 936.75 532.8 926.75 535.05 919.5 538.7 L 926.75 560.6 940 556.5 Q 946.85 555.15 955 555.15 965.5 555.15 971.4 559.7 976.85 564.7 976.85 573.8 L 976.85 575.6 965.5 572.4 Q 959.55 571.05 951.85 571.05 943.2 571.05 934.95 573.35 927.2 575.6 922.2 579.25 916.75 583.35 914 589.25 910.85 595.15 910.85 603.8 L 910.85 604.25 Q 910.85 611.6 913.55 617.5 916.75 624.35 920.85 627.05 926.3 631.6 932.2 633.45 940.45 635.25 945.9 635.25 955.45 635.25 963.65 631.6 970.5 628.45 976.4 622.5 L 976.4 633.45 1004.65 633.45 1004.65 574.25 Q 1004.65 563.8 1001.95 555.6 999.2 546.9 993.3 541.9 987.3 535.95 979.6 533.25 970.95 530.5 959.1 530.5 M 958.65 588.35 L 968.65 589.7 Q 973.65 590.6 976.85 592.45 L 976.85 597.45 Q 976.85 605.7 970.95 610.25 965.5 615.25 954.55 615.25 946.85 615.25 943.2 612.05 938.65 608.85 938.65 602.9 L 938.65 602.5 Q 938.65 596.1 944.1 592 950 588.35 958.65 588.35 M 831.1 541.9 Q 824.75 535.5 817 533.25 808.8 530.5 797 530.5 781.95 530.5 774.65 532.8 764.65 535.05 757.35 538.7 L 764.65 560.6 777.9 556.5 Q 784.25 555.15 792.45 555.15 803.8 555.15 808.8 559.7 814.3 564.7 814.3 573.8 L 814.3 575.6 803.35 572.4 Q 797.45 571.05 789.7 571.05 781.05 571.05 772.8 573.35 765.1 575.6 760.1 579.25 754.6 583.35 751.45 589.25 748.7 595.65 748.7 603.8 L 748.7 604.25 Q 748.7 611.6 751.45 617.5 754.6 624.35 758.7 627.05 764.2 631.6 770.1 633.45 778.35 635.25 783.35 635.25 793.35 635.25 801.55 631.6 808.35 628.45 814.3 622.5 L 814.3 633.45 842.1 633.45 842.1 574.25 Q 842.1 563.8 839.35 555.6 837.55 548.25 831.1 541.9 M 796.55 588.35 L 806.55 589.7 Q 811.55 590.6 814.75 592.45 L 814.75 597.45 Q 814.75 605.7 808.8 610.25 803.35 615.25 792.45 615.25 785.15 615.25 780.6 612.05 776.45 608.85 776.45 602.9 L 776.45 602.5 Q 776.45 596.1 781.95 592 787 588.35 796.55 588.35 Z"/>
</g>
<g id="l3">
<path fill="#51BEF9" stroke="none" d="M 480.45 348.35 Q 469.55 349.25 464.1 349.25 L 457.7 349.75 467.25 356.1 473.65 355.65 Q 487.3 354.3 496.4 360.2 507.8 367.95 522.85 370.65 L 526.45 371.1 526.45 365.65 528.3 358.85 Q 531.45 352.9 539.65 347.9 546.95 344.25 551.05 345.2 553.3 345.65 557.85 347.9 559.75 343.8 559.75 341.55 561.1 333.35 569.3 330.55 572.95 329.65 574.75 326 576.55 321.9 574.3 318.3 L 573.4 316 Q 572.95 314.2 574.75 312.35 576.55 310.55 578.4 311 580.2 311.45 583.4 310.55 L 587.5 306.9 Q 589.75 305.1 593.85 301.45 597.95 298.25 601.6 297.35 597.05 297.8 592.5 301 L 582.5 308.25 Q 581.1 309.65 578.4 308.75 575.65 307.8 573.4 310.1 569.75 313.75 572 319.65 574.3 325.1 568.4 327.4 L 562.9 329.65 558.75 333.35 555.15 341.55 Q 545.1 337.45 533.75 345.65 522.85 353.35 520.55 363.85 517.35 363.4 513.75 361.55 L 495 352 Q 487.75 347.9 480.45 348.35 M 499.1 147.5 Q 500.05 139.3 493.65 135.2 483.65 127.5 478.65 117.5 473.65 107.85 458.6 101.05 448.55 96.5 444 93.3 L 422.65 76 416.25 69.65 421.7 69.65 445.4 66 Q 449 65.55 449.45 65.1 450.45 64.2 450.45 60.5 L 450.45 44.1 450 44.1 448.1 63.75 404.9 66 411.7 72.4 Q 437.2 95.6 442.2 99.7 443.1 100.15 457.7 108.35 470 114.25 474.55 124.3 476.8 129.3 483.2 135.2 L 490.45 141.6 Q 493.2 143.4 492.3 146.15 491.85 152.95 493.2 160.7 494.1 163 491.85 163.9 485 166.15 483.65 166.15 468.65 167.05 452.65 166.15 L 387.55 164.8 Q 384.8 164.35 384.35 166.6 L 369.8 193.05 370.7 192.15 385.7 169.4 Q 387.1 167.05 388.9 167.6 L 394.8 168.05 Q 409.45 168.95 437.65 170.7 467.25 172.6 480.9 173.05 L 490.95 171.6 Q 501.4 168.95 500.05 159.8 L 499.1 147.5 M 655.35 195.8 L 654.9 196.25 Q 651.25 200.35 647.15 196.25 L 642.15 192.15 Q 628.95 180.3 614.4 182.15 608.85 182.15 606.15 181.7 600.25 180.3 600.25 175.3 600.25 168.05 601.6 161.15 605.25 146.15 605.7 130.65 605.7 109.25 607.95 93.75 612.05 66 612.05 46.4 612.05 29.1 609.35 17.75 608.85 15.45 606.6 15.45 L 562.45 15 Q 532.4 13.65 494.55 16.8 L 448.1 19.1 449 35.5 449.45 35.5 449.45 20.45 599.3 22.3 Q 602.5 22.75 602.95 23.2 603.4 23.65 603.85 26.4 606.6 45.95 603.4 74.2 602.5 83.3 600.7 101.05 599.75 111.95 599.75 134.3 599.75 143.4 597.5 155.7 595.7 166.6 595.7 172.6 595.7 184.4 606.6 185.3 610.7 186.25 614.85 185.3 625.75 183.95 633.5 188.5 L 647.15 198.05 Q 652.15 202.15 655.35 195.8 M 683.15 190.35 Q 678.6 187.15 659.9 177.6 L 656.7 177.6 656.7 180.75 658.95 188.05 658.95 179.85 680.4 194.9 Q 682.7 196.7 680.85 199.45 L 677.2 203.05 645.3 229.5 Q 627.1 243.15 614.85 247.25 L 610.25 249.05 Q 601.15 253.6 600.7 262.7 L 601.15 270 606.6 287.35 Q 608.4 293.25 603.4 296.9 609.35 296 608.4 291 L 607.05 278.25 Q 604.8 265.9 605.25 263.2 606.15 257.7 611.15 255 617.55 252.25 618.5 252.25 631.65 248.6 641.25 240.9 L 684.95 204 Q 691.8 195.8 683.15 190.35 Z"/>
</g>
<g id="l4">
<path fill="#1D5095" stroke="none" d="M 399.35 127.95 Q 369.8 133.4 352.5 153.4 326.5 184.85 339.7 234.95 352.95 285.05 397.1 329.2 L 358.9 394.8 Q 351.6 404.4 351.6 415.75 351.6 430.3 362.05 440.85 373 450.85 387.55 450.85 403.95 450.85 414 439.85 L 414.45 439.85 414.9 438.95 Q 420.35 432.6 422.15 426.65 L 454 372 Q 501.4 398.45 545.1 398.45 589.75 398.45 612.95 371.1 629.85 351.1 629.85 321.45 630.3 292.8 615.3 260.45 627.6 291 625.75 317.35 623.95 344.7 607.5 362 579.75 391.2 527.85 380.65 475.45 370.65 429.9 326.95 383.9 283.25 371.15 231.8 357.95 180.75 385.7 151.6 412.15 123.4 463.15 132.05 428.55 122.5 399.35 127.95 M 375.7 384.3 Q 387.1 380.2 397.1 383.4 410.8 387.55 417.6 399.35 424 410.3 421.7 423.5 420.35 399.85 400.8 389.35 381.65 379.75 361.6 394.8 364.8 388 375.7 384.3 Z"/>
</g>
</defs>
<g transform="matrix(1,0,0,1,0,0)">
<use xlink:href="#l1"/>
</g>
<g transform="matrix(1,0,0,1,0,0)">
<use xlink:href="#l2"/>
</g>
<g transform="matrix(1,0,0,1,0,0)">
<use xlink:href="#l3"/>
</g>
<g transform="matrix(1,0,0,1,0,0)">
<use xlink:href="#l4"/>
</g>
</svg>
