<svg xmlns="http://www.w3.org/2000/svg" xmlns:xlink="http://www.w3.org/1999/xlink" width="100%" height="100%" viewBox="0 0 1024 282">
<defs>
<g id="l0">
<path fill="#DA0B27" stroke="none" d="M 180.7 159.05 Q 181.25 160 180.25 160.9 168.55 170.15 153.4 170.3 137.2 170.3 126.15 159.9 115.6 150.1 115.6 137.25 115.85 117.45 115.6 112.95 115.3 107.5 112.75 105.9 102.05 99.7 95.6 97.05 83.15 92 71.85 92.15 52 92.15 36.7 107.9 19.8 125.35 19.95 152.05 20.1 177 37.25 201.4 47.6 216.2 69.05 235.85 78.45 244.45 97.85 263.4 113.4 277.6 121.2 277.45 129 277.45 144.4 263.15 153.65 254.75 172.8 235.3 194.15 215.25 204.3 200.55 221.35 175.75 221.2 150.9 221.05 124.1 204.05 107.05 188.55 91.4 168.6 91.55 153 92.3 140.2 99.3 L 140.05 99.15 Q 135.3 101.85 134.15 100.3 133.3 99 133.3 91.55 L 132.9 11.85 Q 132.9 5.25 128.4 4.65 124 4.1 121.9 9.7 119.15 17.7 112.5 26.3 103.55 38.1 92.4 43.45 87.2 46 78.2 47.7 68.15 49.4 62 50.65 41.3 55 30.35 67.5 21.7 77.05 17.7 89.15 13.65 101.35 14.9 114.05 15.2 117.35 17.7 117.85 20.55 118.6 22.5 115.2 28.05 105.75 32.6 100.85 40.65 91.95 50.6 88.75 61.25 85.25 76.75 85.1 91.2 84.8 98.3 81.85 103.6 79.55 108.25 75.55 110.5 73.7 114.3 69.9 116.45 68.25 117.85 69.05 119.1 69.95 119.1 72.7 L 119.4 136 Q 119.5 147.65 129.95 156.55 140.3 165.25 153.15 165.1 166.8 165.4 179 158.8 180.1 158.05 180.7 159.05 M 326.4 187.35 L 326.4 187.9 Q 326.4 220.6 347.5 241.75 367.8 262.4 397.95 262.4 413.1 262.85 427.2 257.2 441.4 251.55 451.95 240.75 455.5 237.8 455.2 233.45 455.05 229.85 452.4 227.25 449.55 224.6 445.9 224.75 442.4 224.75 439.7 227.15 431.55 235.15 420.75 239.5 410.05 243.85 398.5 243.85 378.65 243.85 364.9 231.2 350.3 217.9 348.05 195.35 L 451.7 195.35 Q 455.75 195.35 458.7 192.4 461.65 189.45 461.65 185.35 461.65 155.4 444.25 134.9 425.65 112.8 395.15 112.8 365.6 112.8 345.95 134.6 326.4 155.95 326.4 187.35 M 363.1 144.7 Q 376.15 130.8 394.6 130.8 415 130.8 427.35 145.4 438.4 158.5 440.3 179.45 L 348.05 179.45 Q 350.15 158.3 363.1 144.7 M 330.9 125.05 Q 330.75 121.1 327.95 118.45 325.1 115.75 321.2 115.6 L 284.05 115.6 284.05 81.85 Q 283.9 77.35 280.8 74.25 277.6 71.2 273.2 71.2 L 273.1 71.2 Q 268.8 71.3 265.65 74.4 262.55 77.45 262.7 81.85 L 262.7 115.75 251.15 115.75 Q 247.2 115.9 244.55 118.55 241.75 121.35 241.75 125.2 241.75 129.15 244.55 131.8 247.2 134.6 251.15 134.6 L 262.8 134.6 262.8 221.1 262.7 221.2 Q 262.7 242.05 274.35 252.3 284.8 261.6 303.2 261.6 314.2 261.85 324.25 257.8 326.9 256.85 328.65 254.55 330.3 252.15 330.3 249.35 330.3 245.5 327.65 242.9 324.95 240.2 321.2 240.2 315.7 241.75 308.25 242.2 284.05 242.2 284.05 218.25 L 284.05 134.45 321.2 134.45 Q 325.25 134.6 328.05 131.8 330.9 129.1 330.9 125.05 M 507.8 187.35 L 507.8 187.9 Q 507.8 220.6 528.9 241.75 549.25 262.4 579.35 262.4 594.5 262.85 608.6 257.2 622.8 251.55 633.35 240.75 636.9 238.25 636.6 233.45 636.45 229.65 633.8 227.15 630.95 224.6 627.3 224.75 623.55 225.05 621.15 227.25 612.8 235.3 602.15 239.65 591.45 244 579.95 243.85 560.05 243.85 546.3 231.35 531.7 218.05 529.45 195.5 L 633.1 195.5 Q 637.15 195.35 640.1 192.55 643.05 189.6 643.05 185.5 643.05 155.55 625.65 134.9 607.05 112.8 576.55 112.8 547.15 112.8 527.35 134.6 507.8 156.1 507.8 187.35 M 529.45 179.45 Q 531.55 158.3 544.5 144.7 557.55 130.8 576 130.8 596.4 130.8 608.75 145.4 619.8 158.5 621.7 179.45 L 529.45 179.45 M 494.85 66.25 Q 494.85 61.9 491.75 58.65 488.65 55.55 484.15 55.55 479.75 55.55 476.55 58.65 473.45 61.9 473.6 66.25 L 473.6 249.65 Q 473.35 249.9 473.6 249.9 473.6 254.25 476.85 257.35 479.95 260.45 484.3 260.45 L 484.85 260.45 Q 489.25 260.3 492.2 257.1 495.15 253.95 494.85 249.65 L 494.85 66.25 M 671.05 71.2 L 670.75 71.2 Q 666.5 71.3 663.45 74.4 660.35 77.5 660.5 81.85 L 660.5 115.75 648.85 115.75 Q 644.95 115.9 642.2 118.55 639.55 121.45 639.4 125.2 639.55 129.05 642.2 131.8 645.1 134.45 648.85 134.6 L 660.5 134.6 660.5 221.2 Q 660.5 242.05 672.05 252.3 682.5 261.6 700.85 261.6 712.05 261.85 721.95 257.8 724.65 256.85 726.3 254.55 728 252.2 728.15 249.35 728 245.55 725.35 242.9 722.65 240.2 719 240.2 713.35 241.75 705.95 242.2 681.9 242.2 681.9 218.25 L 681.9 134.45 719 134.45 719 134.6 Q 722.95 134.6 725.75 131.8 728.55 129 728.55 125.05 728.4 121.05 725.75 118.45 723 115.75 719 115.6 L 681.9 115.6 681.9 81.85 Q 681.75 77.5 678.65 74.4 675.55 71.3 671.05 71.2 M 873.55 187.6 L 873.55 187.05 Q 873.4 156.1 851.45 134.3 829.5 112.5 798.6 112.65 767.65 112.8 745.85 134.75 724.05 156.7 724.2 187.6 L 724.2 188.05 724.35 188.05 724.35 189.85 Q 724.65 220.25 746.45 241.45 768 262.7 798.6 262.4 L 799.6 262.4 Q 830.3 262.35 852.05 240.35 873.7 218.3 873.55 187.6 M 851.6 188.05 L 851.75 188.05 Q 851.75 211.15 837.15 227 821.9 243.15 799.15 243.15 776.65 243.15 761.35 226.85 746.15 210.85 746.15 187.6 L 746.15 187.05 Q 746.15 163.95 760.75 148.1 775.85 131.65 798.6 131.65 820.9 131.65 836.45 148.1 851.6 164.4 851.6 187.6 L 851.6 188.05 M 811.1 90.15 L 831.95 70.45 Q 835.15 68.15 835.85 64 835.85 61.05 830.95 58.4 825.85 55.55 820.8 55.55 815.2 55.55 810.85 62.05 L 794.25 87.35 Q 793 88.95 793 91.45 L 792.85 91.45 Q 792.85 93.15 794.4 94.25 795.85 95.35 798.2 95.35 805.9 96.1 811.1 90.15 M 1009.4 170.05 Q 1009.4 144.2 995.05 128.7 980.3 112.8 954.55 112.8 922.5 112.8 905.6 140.8 L 905.6 125.2 Q 905.6 120.8 902.5 117.6 899.5 114.5 894.95 114.5 890.55 114.5 887.35 117.6 884.25 120.8 884.25 125.2 L 884.25 250.05 Q 884.4 254.65 887.5 257.5 890.75 260.6 895.05 260.45 L 895.65 260.45 Q 900.05 260.3 902.8 257.2 905.75 254.1 905.6 249.75 L 905.6 177.2 Q 905.6 157.15 917.85 144.6 929.8 132.2 948.5 132.2 967.25 132.2 977.75 143.9 988.15 155.2 988.15 175.4 L 988.15 249.65 Q 988.15 254.1 991.25 257.2 994.45 260.3 998.85 260.3 1003.45 260.3 1006.45 257.2 1009.55 253.95 1009.4 249.65 L 1009.4 170.05 Z"/>
</g>
</defs>
<g transform="matrix(1,0,0,1,0,0)">
<use xlink:href="#l0"/>
</g>
</svg>
