<svg xmlns="http://www.w3.org/2000/svg" xmlns:xlink="http://www.w3.org/1999/xlink" width="100%" height="100%" viewBox="0 0 1024 200">
<!-- Vectorization by Rodrigo Polo https://github.com/rodrigopolo/logotipos-politicos -->
<defs>
<g id="l0">
<path fill="#002D72" stroke="none" d="M 152 70.9 L 152 120.4 Q 163 97.5 166.4 73.5 157.5 71.6 152 70.9 M 152 120.4 L 137.6 110.7 137.6 144.6 Q 146.3 132.5 152 120.4 M 108.5 125.5 L 94.1 115.7 94.1 183.8 Q 103.1 178.4 108.5 174.4 L 108.5 125.5 M 137.3 144.9 L 122.9 135.2 122.9 161.6 Q 129.5 155.5 137.3 144.9 M 122.9 135.2 L 122.9 101.3 108.5 91.6 108.5 125.5 122.9 135.2 M 137.3 68.8 Q 126.4 67.4 122.9 67.2 L 122.9 101.3 137.3 111.1 137.3 68.8 M 108.1 66.2 Q 103.5 65.8 93.7 65.8 L 93.7 81.9 108.1 91.6 108.1 66.2 M 169.1 41.4 L 169.1 27.6 Q 169.1 24.5 166.1 24 128.9 15.9 90.4 15.9 51.8 15.9 15 24 13.8 24.2 12.9 25.3 12 26.4 12 27.6 L 12 41.4 Q 12 53.2 13.7 66.8 51.7 58.8 90.7 58.8 129.8 58.8 167.4 66.8 169.1 53.2 169.1 41.4 M 129.6 24.6 L 133.9 28 135.3 28.3 Q 135.6 28.3 136.3 29 L 148.7 56.8 Q 148.9 57.3 148.5 57.7 148.2 58.1 147.7 58.1 123.4 53.4 90.4 53.4 57.4 53.4 33.1 58.1 32.6 58.1 32.2 57.7 31.9 57.3 32.1 56.8 L 44.5 29 Q 44.5 28.3 45.5 28.3 L 46.8 28 51.2 24.6 Q 56.4 23.3 64.9 23.3 78.2 23.3 90.4 27.6 99 24.4 110.5 23.6 121.6 22.8 129.6 24.6 M 87.4 49.8 Q 88.5 49.1 89.4 49.1 78.3 45.5 65.4 44.7 53.5 43.9 43.5 45.7 L 49.9 28 45.8 31 37.1 53.4 Q 45.9 51.9 61.6 50.7 77.8 49.5 87.4 49.8 M 134.6 31 L 130.6 28 137 45.7 Q 127 43.9 115 44.7 102.2 45.5 91.1 49.1 92.4 49.1 93.1 49.8 101.8 49.5 118.7 50.9 133.3 52 143.3 53.4 L 134.6 31 M 247.85 26.3 Q 248.45 25.8 248.35 24.6 248.25 23.4 247.55 23 242.55 23.3 233.15 23.3 223.45 23 216.05 22.6 215.55 22.9 215.35 24.2 215.25 25.5 215.75 26 L 219.05 26.3 Q 224.75 26.8 226.15 29.4 227.75 32.2 227.75 42.7 L 227.75 91 Q 227.75 116.5 224.45 123.1 222.45 126.5 219.45 126.5 216.85 126.5 214.05 125.5 212.35 124.8 209.35 124.8 207.45 124.8 205.95 126.9 204.65 128.9 204.65 130.8 204.65 133.5 210.05 133.5 218.55 133.5 225.35 128.2 231.75 123.3 235.15 115.1 238.15 107.5 238.15 90.3 L 238.15 43.1 Q 238.15 32.8 239.25 30.2 240.55 27.3 245.85 26.6 L 247.85 26.3 M 314.15 45.9 Q 303.75 34.7 286.05 34.7 269.55 34.7 258.65 45.6 247.85 56.4 247.85 72.5 247.85 87.7 258.05 98.1 268.75 109 286.05 109 301.85 109 312.65 98.4 323.55 87.7 323.55 71.5 323.55 56.2 314.15 45.9 M 265.45 93.3 Q 258.95 83.2 258.95 69.2 258.75 53 267.35 44.7 274.25 38 284.45 38 298.65 38 306.35 49.8 312.85 59.9 312.85 74.9 312.85 89.8 305.05 98.2 298.15 105.7 287.75 105.7 273.35 105.7 265.45 93.3 M 461.95 143.6 L 463.25 143.6 Q 465.65 143.8 466.25 145.1 466.65 146.1 466.65 150.6 L 466.65 170.4 Q 466.65 175.1 466.25 176 465.75 177.2 463.25 177.4 L 461.95 177.7 Q 461.75 178 461.75 178.6 461.75 179.1 461.95 179.1 463.35 179.1 465.65 178.9 467.85 178.7 468.95 178.7 473.05 178.7 476.05 179.1 476.55 178.4 476.05 177.7 L 474.65 177.4 Q 472.25 177.2 471.75 176 471.35 175.1 471.35 170.4 L 471.35 150.6 Q 471.35 145.9 471.75 145 472.25 143.8 474.65 143.6 L 476.05 143.6 Q 476.25 143.3 476.25 142.8 476.25 142.2 476.05 142.2 471.35 142.5 468.95 142.5 466.65 142.2 461.95 142.2 461.35 142.8 461.95 143.6 M 335.35 141.9 Q 330.65 142.2 328.65 142.2 L 321.25 142.2 Q 320.65 142.8 321.25 143.6 L 322.55 143.6 Q 324.95 143.8 325.55 145.1 325.95 146.1 325.95 150.6 L 325.95 163.7 Q 325.95 173.4 330.25 176.7 333.65 179.7 340.65 179.7 343.85 179.7 346.65 178.7 349.75 177.6 351.35 175.7 355.45 171.3 355.45 162.3 L 355.45 155.9 Q 355.45 146.6 356.05 144.6 356.85 143.2 358.75 143.2 L 360.15 143.2 Q 360.35 143 360.35 142.6 360.35 142.1 360.15 141.9 356.75 142.2 354.45 142.2 350.05 142.2 348.05 141.9 347.85 142.1 347.85 142.6 347.85 143 348.05 143.2 L 349.35 143.2 Q 351.65 143.2 352.05 144.6 353.05 146.2 353.05 155.9 L 353.05 162.3 Q 353.05 169.1 350.55 172.9 347.75 177.1 342.05 177.1 330.65 177.1 330.65 162.3 L 330.65 150.3 Q 330.65 145.8 331.05 144.8 331.55 143.5 333.95 143.2 L 335.35 143.2 Q 335.55 143 335.55 142.6 335.55 142.1 335.35 141.9 M 390.95 143.6 Q 393.15 143.6 394.25 144.9 395.25 145.8 395.45 146.8 395.65 147.4 395.65 148.9 L 395.65 165 Q 395.65 174.4 394.95 176.4 394.55 177.4 392.65 177.4 L 391.25 177.7 Q 390.75 178.4 391.25 179.1 L 403.35 179.1 Q 403.85 178.4 403.35 177.7 L 401.65 177.4 Q 399.55 177.4 398.95 176.4 397.95 174.7 397.95 165 L 397.95 152.9 Q 397.95 149.9 398.25 149.2 401.45 152.4 404.65 156.6 L 417.35 171.4 Q 423.45 178.3 424.45 179.7 425.45 179.7 425.45 179.1 L 425.45 155.9 Q 425.45 146.6 426.15 144.6 426.95 143.6 429.15 143.6 L 429.75 143.6 Q 430.55 142.8 429.75 142.2 426.45 142.5 424.05 142.5 420.05 142.5 417.35 142.2 416.55 143 417.35 143.6 L 418.35 143.6 Q 421.25 144 421.75 144.6 422.75 146.2 422.75 155.9 L 422.75 167.7 Q 422.75 169.7 422.45 170 418.95 166.5 413.35 160 L 408.05 153.9 Q 405.15 150.6 403.05 148.1 399.25 143.5 398.65 141.5 396.95 141.9 395.95 141.9 395.25 142.2 389.95 142.2 389.15 142.8 389.95 143.6 L 390.95 143.6 M 375.55 35.7 Q 375.05 35.9 374.85 37 374.75 38.1 375.15 38.4 L 377.15 38.7 Q 381.85 39.2 382.95 41.5 383.85 43.6 383.85 52.4 L 383.85 64.8 Q 383.85 67.3 383.05 67.8 382.35 68.2 378.55 68.2 L 347.75 68.2 Q 343.85 68.2 343.15 67.8 342.35 67.3 342.35 64.8 L 342.35 52.4 Q 342.35 43.6 343.25 41.5 344.25 39.2 348.75 38.7 L 350.75 38.4 Q 351.25 38.1 351.05 37 350.85 35.9 350.35 35.7 345.75 36 337.95 36 335.45 36.2 331.65 36.2 325.25 36 324.55 36 324.05 36.3 323.95 37.4 323.75 38.5 324.25 38.7 L 326.95 39 Q 331.15 39.3 332.25 41.8 333.35 44.1 333.35 52.8 L 333.35 91.3 Q 333.35 99.9 332.45 101.9 331.45 104 326.95 104.7 L 325.25 105 Q 324.75 105.5 324.95 106.5 325.15 107.5 325.65 107.7 329.95 107.7 337.95 107.4 345.75 107.4 351.75 107.7 352.25 107.5 352.45 106.4 352.55 105.3 352.05 105 L 349.05 104.7 Q 344.55 104.2 343.45 102 342.35 99.8 342.35 91.3 L 342.35 76.2 Q 342.35 73.8 343.15 73.3 343.85 72.9 347.75 72.9 L 378.55 72.9 Q 382.25 72.9 383.05 73.4 383.85 73.9 383.85 76.2 L 383.85 91.3 Q 383.85 100.1 383.05 101.9 382.05 104 377.15 104.7 L 375.15 105 Q 374.75 105.5 374.85 106.5 375.05 107.5 375.55 107.7 380.25 107.4 388.55 107.4 396.25 107.4 401.65 107.7 402.15 107.5 402.35 106.4 402.45 105.3 401.95 105 L 399.35 104.7 Q 394.75 104.2 393.75 102 392.95 100.2 392.95 91.3 L 392.95 52.4 Q 392.95 43.6 393.85 41.5 394.85 39.2 399.35 38.7 L 401.65 38.4 Q 402.15 38.1 401.95 37 401.85 35.9 401.35 35.7 396.65 36 388.55 36 380.55 36 375.55 35.7 M 460.25 36 Q 459.55 36.3 459.45 37.2 459.45 38.2 459.95 38.7 L 461.65 39 Q 467.05 39.9 468.35 41 470.35 44.4 470.35 63.2 L 470.35 86.3 Q 470.35 90.3 469.95 90.6 L 469.65 90.6 Q 463.65 84.6 451.85 71.2 L 441.55 59.5 Q 425.65 41.9 423.05 35.7 421.75 36 418.05 36 417.35 36.3 413.65 36.3 409.95 36.3 406.65 36 406.15 36.3 406.05 37.2 405.85 38.2 406.35 38.7 L 408.05 39 Q 412.75 39.7 414.75 41.7 416.35 43.3 416.75 45.3 417.05 46.6 417.05 49.4 L 417.05 80.6 Q 417.05 99 415.75 102.7 414.95 104.2 411.05 104.7 L 408.05 105 Q 407.55 105.6 407.55 106.4 407.65 107.2 408.35 107.7 412.05 107.4 419.45 107.4 427.15 107.4 432.15 107.7 433.45 106.4 432.45 105 L 429.15 104.7 Q 424.85 104.2 423.75 102.7 421.75 98.7 421.75 80.6 L 421.75 57.1 Q 421.75 51.4 422.45 50.1 L 422.75 50.1 Q 427.45 54.8 435.15 64.5 L 459.95 93 Q 471.65 106.3 473.65 109.4 475.05 109.4 475.65 108 475.35 105.4 475.35 89.3 L 475.35 63.5 Q 475.35 54.5 475.45 52 475.75 43.8 477.05 41.4 477.45 40.2 483.05 39 L 484.35 38.7 Q 484.95 38.2 484.85 37.4 484.75 36.5 484.05 36 480.35 36.4 473.05 36.4 465.25 36.4 460.25 36 M 575.55 143.6 Q 577.95 143.8 578.45 145.1 578.85 146.1 578.85 150.6 L 578.85 170.7 Q 578.85 175.1 578.35 176.2 577.75 177.5 575.55 177.7 L 573.85 178.1 Q 573.55 178.3 573.55 178.9 573.55 179.4 573.85 179.4 577.15 179.4 581.55 179.1 L 586.55 179.1 Q 596.65 179.1 601.35 179.4 602.15 177.6 603.95 171.7 603.75 171.2 603.35 171.1 602.85 171.1 602.65 171.4 601.05 175 598.65 176.7 597.65 177.2 596.25 177.3 595.15 177.4 591.55 177.4 586.25 177.4 584.85 176 584.15 175.3 583.95 174 583.85 173.1 583.85 170.4 L 583.85 162.6 Q 583.85 161.6 584.05 161.5 584.25 161.3 585.55 161.3 L 588.95 161.3 Q 592.25 161.3 593.25 161.6 594.55 162.1 594.95 163.7 L 595.65 165.7 Q 595.85 165.9 596.45 165.9 596.95 165.9 596.95 165.7 596.65 162.3 596.65 160.3 596.95 155.9 596.95 154.6 596.75 154.4 596.15 154.4 595.65 154.4 595.65 154.6 L 595.25 157 Q 594.95 158.5 593.95 159 593.25 159.3 589.25 159.3 L 585.85 159.3 Q 584.65 159.3 584.45 159.1 584.25 158.9 584.25 157.6 L 584.25 146.6 Q 584.25 145 584.45 144.7 584.75 144.2 585.85 144.2 L 589.95 144.2 Q 594.25 144.2 595.25 144.6 597.25 145 598.25 146.5 598.65 147.1 599.65 149.9 599.85 150.2 600.45 150.2 600.95 150.2 600.95 149.9 600.05 142.7 599.95 142.5 599.25 142.9 592.55 142.9 L 582.25 142.9 Q 578.85 142.2 574.55 142.2 573.75 142.8 574.55 143.6 L 575.55 143.6 M 535.35 143.9 Q 537.65 144.2 537.65 144.9 537.65 145.9 536.95 147.2 532.85 157.1 531.95 159.6 L 526.55 172 518.55 152.9 Q 515.85 146.1 515.85 145.2 515.85 144.7 518.55 144.2 L 519.25 144.2 Q 519.45 144 519.45 143.6 519.45 143.1 519.25 142.9 L 512.55 142.9 Q 509.85 142.2 506.45 142.2 505.65 143 506.45 143.6 L 507.55 143.6 Q 509.25 143.8 510.15 144.8 511.15 145.7 511.85 148.2 L 521.55 172.4 Q 523.15 176.1 524.25 179.7 L 525.55 179.7 Q 529.25 170.4 531.25 165.3 L 534.35 158.6 Q 538.85 148.8 540.65 145.9 541.75 144.3 543.65 143.9 L 545.35 143.9 Q 545.95 143.3 545.35 142.5 L 534.35 142.5 Q 533.35 143.5 534.35 143.9 L 535.35 143.9 M 519.85 35.7 Q 516.15 34.7 510.15 34.7 499.95 34.7 493.85 40.2 488.05 45.3 488.05 53.1 488.05 59 491.95 64.3 494.95 68.5 499.75 71.5 L 509.85 78.2 Q 515.05 81.7 517.05 85.9 518.55 89 518.55 93.3 518.55 98.5 515.25 101.9 511.65 105.7 505.15 105.7 491.55 105.7 486.75 89.6 486.55 89.1 485.55 89.3 484.65 89.5 484.05 90 484.25 93.9 485.15 98.5 486.15 103.3 487.05 105 489.15 106.5 492.75 107.5 497.85 109 503.85 109 514.25 109 520.45 103.5 526.55 98.2 526.55 89.3 526.55 82.2 522.35 76.7 519.25 72.5 513.15 68.5 L 504.45 63.2 Q 500.85 61 498.45 58 495.45 54.1 495.45 49.8 495.45 45 497.95 41.8 501.15 37.7 508.15 37.7 515.05 37.7 518.95 41.8 521.55 44.6 522.95 49.8 523.35 50.2 524.35 50.1 525.35 49.9 525.55 49.4 525.55 46.2 524.95 42.3 524.35 38.4 523.55 36.4 523.15 36.4 519.85 35.7 M 758.1 142.5 Q 755.8 142.2 751.1 142.2 750.5 142.8 751.1 143.6 L 752.4 143.6 Q 754.8 143.8 755.4 145.1 755.8 146.1 755.8 150.6 L 755.8 170.4 Q 755.8 175.1 755.4 176 754.9 177.2 752.4 177.4 L 751.1 177.7 Q 750.9 178 750.9 178.6 750.9 179.1 751.1 179.1 752.5 179.1 754.8 178.9 757 178.7 758.1 178.7 762.1 178.7 765.2 179.1 765.7 178.4 765.2 177.7 L 763.8 177.4 Q 761.4 177.2 760.9 176 760.5 175.1 760.5 170.4 L 760.5 150.6 Q 760.5 145.9 760.9 145 761.4 143.8 763.8 143.6 L 765.2 143.6 Q 765.4 143.3 765.4 142.8 765.4 142.2 765.2 142.2 760.5 142.5 758.1 142.5 M 648.75 162.8 Q 649.35 163.1 650.25 164 651.85 166.3 655.55 172.4 658.45 176.6 660.95 178 663.35 179.4 666.95 179.4 668.95 179.4 669.35 179.1 669.85 178.4 669.35 178.4 666.65 178.4 665.65 176.7 663.15 174.7 660.35 170.9 658.55 168.3 654.55 162 653.85 161 654.25 160.6 656.85 159.6 658.75 157.6 661.25 154.9 661.25 151.3 661.25 145.9 656.55 143.6 653.85 142.2 647.15 142.2 637.85 142.2 634.85 142.5 634.05 143.3 634.85 143.9 L 636.45 144.2 Q 638.15 144.5 638.55 145.7 638.85 146.6 638.85 150.6 L 638.85 170.7 Q 638.85 175.2 638.45 176.2 637.85 177.5 635.45 177.7 L 634.15 178.1 Q 633.85 178.3 633.85 178.9 633.85 179.4 634.15 179.4 636.85 179.4 641.15 179.1 645.15 179.1 647.85 179.4 648.15 179.2 648.15 178.8 648.15 178.3 647.85 178.1 L 646.85 177.7 Q 644.45 177.5 643.95 176.3 643.55 175.4 643.55 170.7 L 643.55 163.7 Q 643.55 162.7 643.85 162.5 644.25 162.3 646.15 162.3 647.75 162.3 648.75 162.8 M 656.25 152.6 Q 656.25 157.1 653.55 159.6 651.85 161 647.85 161 644.15 161 643.85 160.6 L 643.85 145.9 Q 643.65 144.4 644.05 144.2 644.45 143.9 647.15 143.9 651.55 143.9 653.95 146.5 656.25 148.9 656.25 152.6 M 709.2 141.2 Q 703.85 141.2 700.65 144.1 697.75 146.7 697.75 150.9 697.75 156.1 703.85 160.6 L 709.2 164 Q 713.9 167.2 713.9 171.7 713.9 174.4 712.2 176.1 710.2 178.1 706.85 178.1 699.95 178.1 697.15 169.7 696.45 169 695.75 169.7 695.75 171.8 696.15 174.2 696.65 176.7 697.15 177.4 700.05 179.4 705.85 179.4 711.4 179.4 714.5 176.6 717.6 173.8 717.6 169 717.6 162.8 710.6 158.3 L 706.15 155.6 Q 701.45 152.5 701.45 148.9 701.45 146.5 702.85 144.9 704.55 142.9 708.15 142.9 711.7 142.9 713.7 145.1 714.8 146.3 715.9 149.2 716.6 149.9 717.3 149.2 717.3 144.8 716.3 142.5 714.9 142.5 714.2 142.2 712.3 141.2 709.2 141.2 M 651.85 26.3 L 654.55 26 Q 655.15 25.5 655.05 24.3 654.95 23.1 654.25 22.6 648.55 23 639.15 23 629.45 23 623.75 22.6 623.25 22.9 623.05 24.2 622.95 25.5 623.45 26 L 625.75 26.3 Q 631.15 26.8 632.35 29.6 633.45 32 633.45 42.4 L 633.45 57.1 Q 633.45 60.1 632.55 60.6 631.75 61.1 627.05 61.1 L 590.55 61.1 Q 585.95 61.1 585.15 60.6 584.25 60.1 584.25 57.1 L 584.25 42.4 Q 584.25 32 585.35 29.6 586.55 26.8 591.95 26.3 L 594.25 26 Q 594.85 25.5 594.75 24.3 594.65 23.1 593.95 22.6 588.55 23 579.15 23 569.45 23 563.15 22.6 562.65 22.9 562.45 24.2 562.35 25.5 562.75 26 L 566.15 26.3 Q 571.15 26.8 572.35 29.6 573.45 32.2 573.45 42.4 L 573.45 88.3 Q 573.45 98.5 572.45 100.9 571.35 103.4 566.15 104.4 L 564.15 104.7 Q 563.65 105.3 563.65 106.4 563.75 107.6 564.45 108 569.45 108 579.15 107.7 588.55 107.7 595.25 108 595.75 107.8 595.95 106.5 596.15 105.2 595.65 104.7 L 591.95 104.4 Q 586.75 103.9 585.45 101.1 584.25 98.5 584.25 88.3 L 584.25 70.2 Q 584.25 67.4 585.15 66.8 586.05 66.2 590.55 66.2 L 627.05 66.2 Q 631.55 66.2 632.55 66.8 633.45 67.4 633.45 70.2 L 633.45 88.3 Q 633.45 98.7 632.45 100.9 631.35 103.4 625.75 104.4 L 623.45 104.7 Q 622.95 105.3 622.95 106.4 623.05 107.6 623.75 108 629.45 107.7 639.15 107.7 648.55 107.7 654.55 108 655.05 107.8 655.25 106.5 655.45 105.2 654.95 104.7 L 651.85 104.4 Q 646.45 103.7 645.25 101 644.15 98.6 644.15 88.3 L 644.15 42.4 Q 644.15 32.1 645.25 29.6 646.55 26.8 651.85 26.3 M 720.4 45.9 Q 710 34.7 692.05 34.7 675.55 34.7 664.65 45.6 653.85 56.4 653.85 72.5 653.85 87.7 664.05 98.1 674.75 109 692.05 109 707.85 109 718.7 98.4 729.7 87.7 729.7 71.5 729.7 56.1 720.4 45.9 M 671.45 93.3 Q 664.95 83.2 664.95 69.2 664.75 53 673.45 44.7 680.35 38 690.45 38 704.65 38 712.4 49.8 718.9 59.9 718.9 74.9 718.9 89.8 711.1 98.2 704.15 105.7 693.75 105.7 679.35 105.7 671.45 93.3 M 779.4 46.4 Q 777.1 42.4 773.2 40 766.9 36 752.8 36 744.3 36 740.8 36.1 735.2 36.3 731.3 37 730.6 37.3 730.5 38.2 730.5 39.2 731 39.7 L 735 40 Q 738.4 40.5 739.3 42.6 740 44.4 740 51.4 L 740 91.3 Q 740 100 739.1 102 738.1 104.2 733.7 104.7 L 731.3 105 Q 730.9 105.5 731 106.5 731.2 107.5 731.7 107.7 736.4 107.4 744.7 107.4 752.4 107.4 758.8 107.7 759.3 107.5 759.5 106.5 759.6 105.5 759.1 105 L 756.1 104.7 Q 751.2 104.2 750.1 102 749.1 100 749.1 91.3 L 749.1 43.4 Q 749.1 40.7 749.8 40.1 750.7 39.4 754.8 39.4 763 39.4 767.6 44.1 772.2 48.6 772.2 56.5 772.2 71.7 756.5 74.5 756 74.8 756 75.6 756 76.3 756.5 76.6 764.3 76.6 771.2 73.2 775.6 71.1 778.3 67.4 781.9 62.7 781.9 56.1 781.9 50.8 779.4 46.4 M 810.7 144.2 Q 812 144.2 812.2 144.4 812.4 144.6 812.4 145.9 L 812.4 170.7 Q 812.4 175.1 811.9 176.2 811.3 177.5 809 177.7 L 807 178.1 Q 806.8 178.3 806.8 178.9 806.8 179.4 807 179.4 L 822.1 179.4 Q 822.3 179.4 822.3 178.9 822.3 178.3 822.1 178.1 L 820.4 177.7 Q 818 177.5 817.5 176.3 817.1 175.4 817.1 170.7 L 817.1 145.9 Q 817.1 144.6 817.3 144.3 817.6 143.9 818.8 143.9 L 822.8 143.9 Q 827.4 143.9 829.1 145.2 829.6 145.7 830.1 147 830.5 148.2 830.5 149.2 830.7 149.5 831.3 149.5 831.8 149.5 831.8 149.2 831.6 148 832.5 140.9 832.5 140.6 832.1 140.6 831.7 140.6 831.5 140.9 831 141.9 830.2 142.2 829.4 142.5 827.1 142.5 L 804.7 142.5 Q 802.3 142.5 801.5 142.3 800.2 142 800 140.9 800.3 140.5 800 140.5 L 799.3 140.5 Q 799.1 141.8 797.3 148.9 798.3 149.6 798.7 149.2 799.8 146.8 801 145.6 802.3 144.2 807.7 144.2 L 810.7 144.2 M 863.6 143.9 Q 865 144.2 865.8 144.8 866.8 145.7 868 148.2 L 874.7 161 Q 875.9 163.1 876.2 164.4 876.4 165.4 876.4 168 L 876.4 170.7 Q 876.4 175.4 876 176.3 875.5 177.5 873 177.7 L 871.4 178.1 Q 871.1 178.3 871.1 178.9 871.1 179.4 871.4 179.4 874.4 179.4 878.7 179.1 882.7 179.1 886.4 179.4 886.7 179.2 886.7 178.8 886.7 178.3 886.4 178.1 L 884.4 177.7 Q 882.2 177.5 881.6 176.3 881.1 175.2 881.1 170.7 L 881.1 167.7 Q 881.1 164.6 881.5 163.2 881.9 162.1 883.7 158.6 L 887.1 152.6 Q 890 147.5 890.7 146.6 892.5 144.1 894.5 143.9 L 896.1 143.6 Q 896.9 142.8 896.1 142.2 892.8 142.5 891.1 142.5 887.8 142.5 885.8 142.2 885 142.8 885.8 143.6 L 886.8 143.6 Q 887.7 143.6 888.4 144 889.1 144.3 889.1 144.6 889.1 145.4 885.4 151.9 882.5 157.7 880.1 161.3 L 873.7 148.9 Q 872 144.9 872 144.6 872 144 874.4 143.6 L 875 143.6 Q 875.3 143.3 875.3 142.8 875.3 142.2 875 142.2 871.7 142.5 869 142.5 865.7 142.2 862 142.2 861.2 142.8 862 143.6 L 863.6 143.9 M 858.6 36 Q 858.1 36.3 858 37.4 857.8 38.5 858.3 38.7 L 861 39 Q 865.6 39.5 866.7 41.9 867.7 44 867.7 52.8 L 867.7 91 Q 867.7 99.7 866.7 101.8 865.6 104.2 861 104.7 L 858.3 105 Q 857.8 105.5 858 106.5 858.1 107.5 858.6 107.7 864 107.4 872 107.4 880.1 107.4 885.4 107.7 885.9 107.5 886.1 106.4 886.3 105.3 885.8 105 L 883.1 104.7 Q 878.4 104.2 877.4 101.8 876.4 99.7 876.4 91 L 876.4 52.8 Q 876.4 43.9 877.4 41.8 878.5 39.3 883.1 39 L 885.8 38.7 Q 886.3 38.5 886.1 37.4 885.9 36.3 885.4 36 880.1 36.4 872 36.4 864 36 858.6 36 M 851.3 39 Q 851.8 38.5 851.7 37.7 851.6 36.8 850.9 36.4 847.6 36.7 840.2 36.7 832.2 36.7 828.5 36.4 827.8 36.8 827.7 37.7 827.6 38.5 828.1 39 L 831.2 39.7 Q 833.2 40.2 833.2 40.7 833.2 40.8 832.5 42.4 831.6 43.9 824.1 51.4 L 812.4 62.8 Q 808.4 66.8 807 67.8 805.8 69.2 804 69.2 802.7 69.2 802.7 65.2 L 802.7 52.8 Q 802.7 44 803.6 41.9 804.6 39.6 809 39.4 L 811.1 39 Q 811.6 38.8 811.4 37.7 811.2 36.6 810.7 36.4 806 36.7 798.3 36.7 794 36.4 791.9 36.2 788.3 36 784.9 36 784.4 36.3 784.3 37.4 784.1 38.5 784.6 38.7 L 787.3 39 Q 791.8 39.5 792.8 41.8 793.6 43.7 793.6 52.4 L 793.6 91.3 Q 793.6 100 792.7 102 791.8 104.2 787.6 104.7 L 785.6 105 Q 785.1 105.5 785.3 106.5 785.4 107.5 785.9 107.7 790.3 107.4 798.3 107.4 806.4 107.4 811.4 107.7 811.9 107.5 812.1 106.4 812.2 105.3 811.7 105 L 808.7 104.7 Q 804.3 104.2 803.3 102 802.3 100 802.3 91.3 L 802.3 77.6 Q 802.3 72.5 804 72.5 805.9 72.5 808 74.4 809.5 75.8 814.4 81.6 L 823.1 91.3 Q 827.1 96 832.2 101.3 832.4 101.6 833.2 102.6 833.8 103.3 833.8 103.7 833.8 104.7 831.2 104.7 L 828.8 105 Q 828.3 105.5 828.5 106.5 828.6 107.5 829.1 107.7 834.2 107.4 842.2 107.4 851.6 107.4 854.3 107.7 854.8 107.5 854.9 106.5 855.1 105.5 854.6 105 L 851.6 104.7 Q 846.9 104.3 842.9 100.3 833.5 90.6 816.1 70.2 814.1 67.8 814.1 66.8 814.1 66.2 814.8 65.4 815.2 64.9 816.4 63.5 L 826.1 54.4 Q 836.7 44.5 841.2 42.1 845 39.9 851.3 39 M 946.4 36 Q 945.7 36.3 945.6 37.2 945.6 38.2 946.1 38.7 L 947.7 39 Q 953.3 39.9 954.4 41 956.4 44.4 956.4 63.2 L 956.4 86.3 Q 956.4 90.3 956.1 90.6 L 955.8 90.6 Q 950.6 85.5 938 71.2 L 927.6 59.5 Q 911.9 42.1 909.2 35.7 907.9 36 904.2 36 900.4 36.8 892.1 36 891.4 36.3 891.3 37.2 891.3 38.2 891.8 38.7 L 893.5 39 Q 898.2 39.7 900.2 41.7 901.8 43.3 902.2 45.3 902.5 46.6 902.5 49.4 L 902.5 80.6 Q 902.5 99 901.2 102.7 900.4 104.2 896.5 104.7 L 893.5 105 Q 893 105.6 893 106.4 893.1 107.2 893.8 107.7 897.5 107.4 904.9 107.4 912.6 107.4 917.6 107.7 918.9 106.4 917.9 105 L 914.6 104.7 Q 910.3 104.2 909.2 102.7 907.2 98.7 907.2 80.6 L 907.2 57.1 Q 907.2 51.4 907.9 50.1 L 908.2 50.1 Q 912.9 54.8 920.6 64.5 L 945.7 93 Q 957.1 106 959.5 109.4 960.7 109.4 961.5 108 961.1 105.4 961.1 89.3 L 961.1 63.5 Q 961.1 54.5 961.2 52 961.5 43.8 962.8 41.4 963.2 40.2 968.8 39 L 970.5 38.7 Q 971.1 38.2 971 37.4 970.9 36.5 970.2 36 966.5 36.4 959.1 36.4 951.4 36.4 946.4 36 M 1005.3 35.7 Q 1001 34.7 995.3 34.7 985.1 34.7 979 40.2 973.2 45.3 973.2 53.1 973.2 59 977.1 64.3 980.1 68.5 984.9 71.5 L 995.3 78.2 Q 1000.5 81.7 1002.5 85.9 1004 89 1004 93.3 1004 98.5 1000.7 101.9 997.1 105.7 990.6 105.7 977 105.7 972.2 89.6 972 89.1 971 89.3 970.1 89.5 969.5 90 969.7 93.9 970.6 98.5 971.6 103.3 972.5 105 974.6 106.5 978.2 107.5 983.3 109 989.3 109 999.7 109 1005.9 103.5 1012 98.2 1012 89.3 1012 82.2 1007.8 76.7 1004.7 72.5 998.6 68.5 L 989.9 63.2 Q 986.3 61 983.9 58 980.9 54.1 980.9 49.8 980.9 45 983.4 41.8 986.6 37.7 993.6 37.7 1000.5 37.7 1004.3 41.8 1006.6 44.4 1008.4 49.8 1008.8 50.2 1009.8 50.1 1010.8 49.9 1011 49.4 1011 46.2 1010.4 42.3 1009.8 38.4 1009 36.4 1008.6 36.4 1005.3 35.7 M 87 184.1 L 87 65.8 Q 49.2 66.4 14.3 73.9 21.2 117.6 46.8 149.6 64.5 171.7 87 184.1 M 55.9 79.2 Q 66.9 79.2 74.7 86.9 82.4 94.7 82.4 105.7 82.4 116.7 74.7 124.5 66.9 132.2 55.9 132.2 44.8 132.2 37.1 124.5 29.4 116.7 29.4 105.7 29.4 94.7 37.1 86.9 44.8 79.2 55.9 79.2 M 64.6 123.1 Q 62.2 126.5 59.2 129.5 65.2 128.5 70.6 124.8 67.3 123.6 64.6 123.1 M 56.9 128.8 Q 60 125.7 61.9 122.8 60.2 122.4 56.9 122.4 L 56.9 128.8 M 41.1 124.8 Q 46.6 128.5 52.2 129.5 49.4 126.2 47.2 123.1 44.7 123.6 41.1 124.8 M 54.9 122.4 Q 51.5 122.4 49.9 122.8 51.8 125.7 54.9 128.8 L 54.9 122.4 M 45.2 112.7 Q 50.2 111.7 54.5 111.7 L 54.5 106.7 44.2 106.7 45.2 112.7 M 43.2 113.1 L 42.2 106.7 31.8 106.7 Q 31.8 111.1 34.1 115.7 40.1 113.7 43.2 113.1 M 45.8 114.7 Q 47.1 118.7 48.5 120.8 52 120.1 54.9 120.1 L 54.9 114.1 Q 52 114.1 45.8 114.7 M 46.2 121.1 Q 44.2 117.1 43.8 115.1 38.7 116.1 35.1 117.8 36.2 120 39.1 123.1 L 46.2 121.1 M 54.9 104.4 L 54.9 99.3 Q 51.2 99.3 45.2 98.7 44.5 102.2 44.5 104.4 L 54.9 104.4 M 57.2 99.7 L 57.2 104.4 67.3 104.4 Q 67.3 102.4 66.6 98.7 61.6 99.7 57.2 99.7 M 68.6 113.1 Q 71.3 113.7 77.7 115.7 79.5 112 80 106.7 L 69.6 106.7 Q 69.6 110.2 68.6 113.1 M 66.6 112.7 Q 67.3 108 67.3 107 L 56.9 107 56.9 112.1 Q 60.7 111.6 66.6 112.7 M 67.9 115.1 Q 66.9 118.6 65.6 121.1 69 121.6 72.6 123.1 75.5 120.2 76.7 117.8 71.1 115.7 67.9 115.1 M 63.3 120.8 Q 65.5 116.5 65.9 114.7 59.9 114.1 57.2 113.7 L 57.2 119.8 63.3 120.8 M 42.8 98 Q 39.8 97.3 33.8 95.3 32.1 98.6 31.4 104.4 L 41.8 104.4 42.8 98 M 64.6 87.9 Q 65.9 87.7 70.6 86.3 65.3 82.4 59.2 81.6 62.1 84.5 64.6 87.9 M 76.7 93 Q 75.3 90.6 72.6 87.9 69.2 89.4 65.6 90 67.2 93.1 67.9 95.6 72.7 94.7 76.7 93 M 77.7 95.3 Q 71.2 97.4 68.6 98 69.3 101.5 69.3 104.4 L 80 104.4 Q 80 100.1 77.7 95.3 M 47.5 87.9 Q 49.5 84.6 52.5 81.6 46.2 82.5 41.5 86.3 46.2 87.7 47.5 87.9 M 49.9 88.3 Q 51.5 88.6 54.9 88.6 L 54.9 82.2 Q 51.6 85.6 49.9 88.3 M 56.9 82.6 L 56.9 88.9 Q 58.6 88.6 61.9 88.3 59.8 85.1 56.9 82.6 M 56.9 91 L 56.9 97 Q 61.1 97.4 65.9 96.3 64.8 92.6 63.3 90.3 58.4 91 56.9 91 M 48.5 90.6 Q 46.3 95 45.8 96.7 48.9 97.3 54.9 97.7 L 54.9 91.6 Q 50.5 91 48.5 90.6 M 39.1 87.9 Q 36.3 90.8 35.1 93.3 40 95.1 43.8 96 45.2 92 46.2 90 42.8 89.4 39.1 87.9 Z"/>
</g>
</defs>
<g transform="matrix(1,0,0,1,0,0)">
<use xlink:href="#l0"/>
</g>
</svg>
