<svg xmlns="http://www.w3.org/2000/svg" xmlns:xlink="http://www.w3.org/1999/xlink" width="100%" height="100%" viewBox="0 0 1024 424">
<!-- Vectorization by Rodrigo Polo https://github.com/rodrigopolo/logotipos-politicos -->
<defs>
<g id="l4">
<path fill="#0190FF" stroke="none" d="M 171 189.25 Q 186.05 190.35 196.4 191.55 L 215.85 120.25 Q 205.5 119.05 190.5 117.95 160.45 115.75 137.15 116.4 96.65 117.5 71.5 128.05 38.95 141.6 30.9 171.1 L 12 240.55 Q 20.5 212.5 51.95 199.35 77.15 188.8 117.65 187.7 140.95 187.05 171 189.25 Z"/>
</g>
<g id="l3">
<path fill="#2B01BE" stroke="none" d="M 380.85 142.55 Q 372.3 170.65 340.8 183.8 315.7 194.3 275.1 195.45 251.85 196.1 221.85 193.9 L 196.4 191.55 176.9 262.8 202.3 265.2 Q 232.35 267.4 255.6 266.75 296.15 265.6 321.3 255.05 353.8 241.45 361.85 212 L 380.85 142.55 Z"/>
</g>
<g id="l2">
<path fill="#0190FF" stroke="none" d="M 380.2 144.8 Q 382.25 123.75 358.8 100.6 336.5 78.6 295.4 58.7 254.55 38.85 204.05 25.4 151.45 11.4 98.8 7.2 L 79.35 78.5 Q 128.2 81.55 180.45 94.9 230.65 107.75 272.6 127.15 315.2 146.85 338.75 168.5 363.85 191.5 361.85 212 L 380.2 144.8 Z"/>
</g>
<g id="l1">
<path fill="#2B01BE" stroke="none" d="M 12.55 238.25 Q 10.55 259.3 34 282.55 56.35 304.55 97.4 324.45 138.25 344.25 188.7 357.7 241.4 371.75 293.95 375.95 L 313.45 304.65 Q 264.55 301.6 212.3 288.25 162.15 275.4 120.15 255.95 77.6 236.25 54.05 214.65 28.9 191.65 30.9 171.1 L 12.55 238.25 Z"/>
</g>
<g id="l0">
<path fill="#2B01BE" stroke="none" d="M 558.95 172.95 Q 557 162.6 550.9 154.5 536.8 135.9 507.55 135.9 L 446.7 135.9 400.65 304.4 439.35 304.4 456.4 242 490.05 242 Q 517.15 242 535.65 228.2 553.25 215.05 558.45 193.05 560.8 182.9 558.95 172.95 M 494.9 155.75 Q 507.15 155.75 514.3 164.75 522 174.3 519.85 189.95 517.85 204.3 504.1 213.6 491.45 222.15 476.2 222.15 L 461.8 222.15 480 155.75 494.9 155.75 M 806.2 205.9 Q 790 221.9 785.5 244.35 783.4 254.75 785.45 265.55 787.6 276.8 793.8 285.8 808.4 307 838 307 856.85 307 872 300.4 879.55 297.05 883.35 293.75 L 876.4 276.6 Q 873.25 279.2 867.85 281.75 857.1 286.9 846.05 286.9 832.6 286.9 825.3 277.15 817.9 267.2 819.7 250.7 L 891.9 250.7 Q 894.3 244.7 894.55 235.45 894.85 224.1 891.25 214.65 881.35 188.4 847.2 188.4 824 188.4 806.2 205.9 M 862.45 220.3 Q 863.8 226.95 862.65 233.6 L 822.2 233.55 Q 822.6 231.9 823.55 229.4 825.35 224.4 827.8 220.25 835.7 206.95 847.05 206.95 859.7 206.95 862.45 220.3 M 797.2 191.8 L 698.7 191.8 693.6 210.5 740.7 210.5 666.7 304.4 771.2 304.4 776.3 285.7 723.2 285.7 797.2 191.8 M 701.6 124.45 Q 700.35 112.2 690.1 104.35 678.2 95.2 657.4 95.2 618.55 95.2 596.55 127.95 588.45 139.95 582.25 157.05 578.85 166.5 574 184.15 L 510.3 416.8 547.45 416.8 603.9 210.5 642.5 210.5 616.8 304.4 653.95 304.4 684.75 191.8 609 191.8 620.4 150.15 Q 625.35 131.9 632.75 122 641 111 651.6 111.4 662 111.8 661.5 118.35 661.15 122.1 657.4 130.95 655 139.65 660.7 146.55 666.6 153.65 677.3 153.65 688.85 153.65 696 144.5 702.8 135.8 701.6 124.45 M 991.15 189.9 L 991.1 189.9 Q 975.95 189.9 962.75 202.4 958.65 206.3 955.2 211 L 952.6 214.9 958.9 191.8 921.8 191.8 890.95 304.4 928.15 304.4 Q 937.1 271.5 941.65 255.05 946.5 237.25 955.8 224.5 964 213.2 969.85 212.65 972.45 212.4 974.55 215.2 974.9 215.65 978.45 221.55 984 231.05 992.65 231.05 1001.05 231.05 1006.55 224.6 1011.65 218.7 1012 210.5 1012.35 202 1007.4 196.35 1001.75 189.9 991.15 189.9 Z"/>
</g>
</defs>
<g transform="matrix(1,0,0,1,0,0)">
<use xlink:href="#l4"/>
</g>
<g transform="matrix(1,0,0,1,0,0)">
<use xlink:href="#l3"/>
</g>
<g transform="matrix(1,0,0,1,0,0)">
<use xlink:href="#l2"/>
</g>
<g transform="matrix(1,0,0,1,0,0)">
<use xlink:href="#l1"/>
</g>
<g transform="matrix(1,0,0,1,0,0)">
<use xlink:href="#l0"/>
</g>
</svg>
