<svg xmlns="http://www.w3.org/2000/svg" xmlns:xlink="http://www.w3.org/1999/xlink" width="100%" height="100%" viewBox="0 0 1024 200">
<!-- Vectorization by Rodrigo Polo https://github.com/rodrigopolo/logotipos-politicos -->
<defs>
<g id="l2">
<path fill="#86857D" stroke="none" d="M 297.6 163.45 L 298.95 159.8 294.35 159.8 293.3 163.45 297.6 163.45 M 297.05 166.05 L 292.65 166.05 287.55 184.55 291.75 184.55 297.05 166.05 M 310.45 165.55 Q 307.5 165.55 305.3 167.1 302.7 168.9 301.95 171.5 300.95 174.65 305.3 176.2 L 308.55 177.75 Q 309.4 178.3 309.1 179.35 308.65 181.55 305.95 181.55 303.35 181.55 304.05 179.35 L 299.45 179.35 Q 298.85 182.25 301.05 183.8 302.5 185.1 305.1 185.1 308.05 185.1 310.55 183.5 313.05 181.75 313.7 178.9 314.95 174.75 309.1 173.15 306.25 172.25 306.45 170.95 307.1 169.2 309.4 169.2 310.45 169.2 310.95 169.7 L 311.05 171.1 315.35 171.1 Q 316.5 165.55 310.45 165.55 M 275 165.55 Q 271.05 165.55 267.7 168.35 263.85 171.1 262.9 175.45 261.95 179.85 263.6 182.25 265.7 185.1 269.8 185.1 273.85 185.1 276.6 181.75 L 276.05 183.3 Q 274.5 188.85 269.05 188.85 L 266.65 188.2 Q 265.8 187.5 265.5 186.45 L 260.4 186.45 Q 260.05 188.85 261.95 190.6 263.6 192.7 267.7 192.7 272.9 192.7 277.4 188.85 279.3 186.95 280.85 182.25 L 285.45 166.05 280.85 166.05 280.25 168.65 Q 279.3 165.55 275 165.55 M 274.4 169.7 Q 277.4 169.7 278.15 171.5 278.8 173.6 278.45 175.45 277.5 178.3 275.55 179.35 273.45 181 271.25 181 268.65 181 267.7 179.35 266.75 177.65 267.2 175.15 267.9 173.05 269.9 171.1 272.2 169.7 274.4 169.7 M 238 175.45 Q 236.85 179.35 239.05 182.25 240.95 185.1 245.15 185.1 248.45 185.1 251 183.5 253.4 182.15 256.1 178.8 L 251.5 178.8 Q 249.4 181.2 246.3 181.2 L 246.15 181.2 Q 241.35 181.2 242 176.7 L 257.05 176.7 Q 259.15 171.8 256.75 168.35 254.85 165.55 250.45 165.55 246.4 165.55 242.75 168.65 239.05 171.7 238 175.45 M 249.75 169.2 Q 251.7 169.2 253.05 170.55 254 171.9 253.7 173.4 L 243.05 173.4 Q 244.9 169.2 249.75 169.2 M 223.2 163.95 L 226.3 163.95 Q 228.4 163.95 229.65 164.7 231.25 166.05 230.4 168.35 229.75 170.85 227.9 172.1 226.75 172.85 223.1 172.85 L 222.05 172.85 225.5 184.55 230.9 184.55 227.9 175.15 Q 230.4 174.95 233 172.65 234.9 170.45 235.4 168.15 236.65 163.65 234.15 161.15 232.5 159.8 227.05 159.8 L 219.55 159.8 212.65 184.55 217.65 184.55 223.2 163.95 M 473.55 166.05 L 469.35 166.05 464.15 184.55 468.65 184.55 473.55 166.05 M 474.4 163.45 L 475.45 159.8 471.05 159.8 470 163.45 474.4 163.45 M 440.95 175.15 Q 439.9 179.1 441.8 182.05 443.85 185.1 448.25 185.1 456.1 185.1 459.55 177.75 L 455.25 177.75 Q 452.65 181 449.3 181 446.9 181 445.85 179.35 444.7 177.65 445.35 175.15 446.3 172.85 447.95 171.1 450.25 169.7 452.25 169.7 L 452.55 169.7 Q 454.2 169.7 455.25 170.55 456 171.2 456.6 172.85 L 461.1 172.85 Q 461.1 165.55 453.6 165.55 449.5 165.55 445.75 168.35 442.3 170.85 440.95 175.15 M 437.4 166.05 L 432.8 166.05 432.05 168.9 Q 431.45 165.55 426.65 165.55 422.45 165.55 419.1 168.15 415.45 171.1 414.5 175.15 413.15 179.25 415.05 182.05 416.8 185.1 421.3 185.1 425.9 185.1 428.5 181.75 L 427.55 184.55 432.05 184.55 437.4 166.05 M 426.1 169.7 Q 429.85 169.7 430.5 172.85 L 430.2 175.45 Q 430 176.8 428.6 178.1 426.4 181 422.85 181 420.25 181 419.2 178.9 418.25 177.45 418.7 175.45 420.9 169.7 426.1 169.7 M 402.8 177.05 L 396 159.8 391.5 159.8 384.5 184.55 389.35 184.55 394.15 167.3 400.95 184.55 405.2 184.55 412.2 159.8 407.3 159.8 402.8 177.05 M 332.5 166.05 L 329.15 166.05 330.9 159.8 326.65 159.8 324.75 166.05 321.85 166.05 320.8 169.4 323.7 169.4 319.85 184.55 324.15 184.55 328.3 169.4 331.45 169.4 332.5 166.05 M 345.95 169.95 L 346.05 169.95 347.45 165.55 Q 343.55 165.55 341.35 168.65 L 342 166.05 337.7 166.05 332.8 184.55 337.2 184.55 340.1 174.65 Q 341.05 169.95 345.95 169.95 M 360.8 165.55 Q 356.4 165.55 352.75 168.65 349.1 171.6 348.15 175.15 347.2 179.35 349 182.05 350.75 185.1 355.45 185.1 360.3 185.1 363.75 182.05 366.85 179.35 368.35 175.15 369.25 171.5 367.5 168.65 365.5 165.55 360.8 165.55 M 359.95 169.7 Q 362.15 169.7 363.4 171.1 364.45 172.55 363.75 175.15 363.1 177.85 360.8 179.35 359.05 181 356.5 181 354.2 181 353.3 179.35 351.9 177.65 352.75 175.15 353.15 173.05 355.45 171.1 357.55 169.7 359.95 169.7 M 391 48.1 Q 396.1 28.75 384.5 19.05 372.8 9.65 344.6 9.65 L 277.95 9.65 Q 270.5 9.65 263.4 14.05 257.05 17.9 255.6 23.85 L 223.1 144.95 259.15 144.95 273.35 92.4 321.3 92.4 Q 334.05 92.4 337.6 94.9 340 96.9 339.6 100.75 L 327.8 145.15 363.2 145.15 375.35 99.2 Q 379.4 84.15 375.35 80.2 L 369.7 74.95 Q 375.45 71.7 378.05 68.8 387.85 60.55 391 48.1 M 331.75 32.95 Q 344.2 32.95 348.7 37.65 354.3 42.25 351.8 51.05 349.6 59.7 341.7 64.5 333.75 68.8 319.95 68.8 L 277.65 68.8 287.35 32.95 331.75 32.95 M 639.7 184.55 L 644.2 184.55 651.2 159.8 646.8 159.8 639.7 184.55 M 604.15 175.45 Q 602.8 179.1 604.9 182.25 607 185.1 611.25 185.1 614.3 185.1 616.9 183.5 619.95 182.15 621.95 178.8 L 617.45 178.8 Q 615.35 181.2 612.3 181.2 607.2 181.2 608.15 176.7 L 623.2 176.7 Q 625.25 171.6 622.75 168.35 620.55 165.55 616.5 165.55 612.55 165.55 608.85 168.65 605.4 171.5 604.15 175.45 M 611.25 170.55 Q 613.25 169.2 615.45 169.2 620.05 169.2 619.65 173.4 L 609.2 173.4 Q 609.8 171.9 611.25 170.55 M 602.4 159.8 L 597.7 159.8 595.3 168.35 Q 594.55 165.55 589.85 165.55 586.1 165.55 582.55 168.15 579 171.1 578.05 175.15 576.7 179.55 578.55 182.25 580.35 185.1 584.65 185.1 589.2 185.1 591.95 181.75 L 590.9 184.55 595.3 184.55 602.4 159.8 M 589.75 169.7 Q 592.25 169.7 593.2 171.1 594.55 172.85 593.7 175.15 593.2 177.75 590.9 179.35 588.8 181 586.4 181 583.8 181 582.75 179.35 581.8 177.65 582.2 175.15 582.85 172.85 584.85 171.5 586.95 169.7 589.75 169.7 M 539.4 165.55 Q 535.2 165.55 531.85 168.15 528.2 170.95 527.15 175.15 525.9 179.1 527.7 182.05 529.45 185.1 533.85 185.1 538.65 185.1 541.25 181.75 L 540.45 184.55 544.8 184.55 549.85 166.05 545.45 166.05 544.8 168.9 Q 543.65 165.55 539.4 165.55 M 538.85 169.7 Q 542.4 169.7 543.05 172.85 543.35 174.2 543.05 175.45 L 541.45 178.1 Q 539.15 181 535.5 181 533 181 532.05 178.9 530.9 177.45 531.55 175.45 533.1 169.7 538.85 169.7 M 563.2 159.8 L 559.05 159.8 552.15 184.55 556.4 184.55 563.2 159.8 M 496.65 168.65 Q 494.75 165.55 490.15 165.55 485.55 165.55 481.9 168.65 478.45 171.5 477.5 175.15 476.35 179.35 478.25 182.05 480.05 185.1 484.85 185.1 489.55 185.1 493.2 182.05 496.55 178.8 497.6 175.15 498.5 171.5 496.65 168.65 M 488.8 169.7 Q 491.3 169.7 492.35 171.1 493.5 172.75 492.9 175.15 492.25 177.75 490.15 179.35 488.2 181 485.9 181 483.5 181 482.45 179.35 481.3 177.65 481.9 175.15 482.65 172.55 484.5 171.1 486.5 169.7 488.8 169.7 M 509.6 168.65 L 510.45 166.05 506.45 166.05 501.25 184.55 505.55 184.55 508.45 174.4 Q 509.6 169.7 514.1 169.7 517.85 169.7 516.6 174.4 L 514.1 184.55 518.25 184.55 521.4 173.4 Q 523.9 165.55 516.2 165.55 512.3 165.55 509.6 168.65 M 777.85 167.1 Q 775.35 168.8 774.5 171.5 773.55 174.65 777.85 176.2 L 781.05 177.75 Q 781.9 178.3 781.6 179.35 781.2 181.55 778.65 181.55 776.25 181.55 776.6 179.35 L 772.2 179.35 Q 771.45 182.25 773.45 183.8 775 185.1 777.6 185.1 780.55 185.1 783.15 183.5 785.8 181.75 786.5 178.9 787.45 174.75 781.6 173.15 778.75 172.25 779 170.95 779.6 169.2 781.8 169.2 782.95 169.2 783.35 169.7 L 783.7 171.1 787.85 171.1 Q 789 165.55 782.85 165.55 780.05 165.55 777.85 167.1 M 746.3 165.55 Q 742.2 165.55 738.75 168.65 735.2 171.5 733.95 175.45 732.7 179.25 734.55 182.25 736.75 185.1 741.05 185.1 743.85 185.1 746.8 183.5 749.6 181.95 751.8 178.8 L 747.1 178.8 Q 745.15 181.2 742.1 181.2 737.2 181.2 737.9 176.7 L 752.85 176.7 Q 755.05 171.7 752.35 168.35 750.45 165.55 746.3 165.55 M 745.25 169.2 Q 747.55 169.2 748.9 170.55 749.85 172 749.4 173.4 L 738.95 173.4 Q 740.65 169.2 745.25 169.2 M 766.45 166.05 L 762.15 166.05 757.05 184.55 761.65 184.55 764.05 174.65 Q 765.6 169.95 770.1 169.95 L 770.5 169.95 771.65 165.55 Q 768 165.55 765.6 168.65 L 766.45 166.05 M 724.35 159.8 L 716.7 159.8 709.7 184.55 714.95 184.55 717 176 720.15 176 Q 724.85 176 727.8 173.9 731.15 171.8 732.4 167.85 733.3 163.35 731.15 161.55 729.65 159.8 724.35 159.8 M 720.45 163.95 L 723.3 163.95 Q 725.5 163.95 726.4 164.7 728 165.85 727.25 167.85 726.95 170.05 724.65 170.95 723.3 171.6 721.5 171.6 L 718.4 171.6 720.45 163.95 M 685.45 170.95 Q 685.9 169.2 688.05 169.2 689.2 169.2 689.65 169.7 690.35 170.45 689.65 171.1 L 694.05 171.1 Q 695.3 165.55 689.1 165.55 686.5 165.55 684.1 167.1 681.5 168.9 680.75 171.5 679.8 174.65 684.1 176.2 L 687.45 177.75 Q 688.05 178.3 687.95 179.35 687.35 181.55 684.95 181.55 682.1 181.55 682.85 179.35 L 678.35 179.35 Q 677.4 182.25 679.6 183.8 681.05 185.1 683.9 185.1 690.9 185.1 692.45 178.9 693.4 174.75 687.95 173.15 685.05 172.35 685.45 170.95 M 671.35 166.05 L 670.75 168.9 Q 669.6 165.55 665.3 165.55 661.1 165.55 657.75 168.15 654.1 170.95 653.05 175.15 651.8 179.1 653.6 182.05 655.35 185.1 659.75 185.1 664.45 185.1 666.85 181.75 L 666.35 184.55 670.75 184.55 675.75 166.05 671.35 166.05 M 661.45 181 Q 656 181 657.45 175.45 659.05 169.7 664.55 169.7 668.35 169.7 668.95 172.85 669.45 174.2 668.95 175.45 L 667.4 178.1 Q 665.1 181 661.45 181 M 678.9 9.65 Q 672.6 10.3 667.4 13.5 661 17.4 659.25 23.35 L 637.9 102.75 591.65 9.45 572.3 9.45 Q 564.25 9.95 557.65 14.15 551.6 18 550.15 24.05 L 524 120.1 420.05 120.1 429.45 85.4 479.4 85.4 Q 487.25 85.4 493.4 81.45 500.2 77.45 501.75 71.3 L 504.15 62.3 435.85 62.3 443.65 32.95 517.1 32.95 Q 524.95 32.95 531 29 537.8 24.7 539.4 18.85 L 541.7 9.95 432.4 9.95 Q 424.35 9.95 418.15 14.15 411.9 18 410.35 24.05 L 377.75 145.15 553.15 145.15 578.25 51.95 621.4 137.85 Q 622.15 139.4 623.7 141.2 628.5 145.5 635.5 145.5 L 662.35 145.15 698.95 9.45 678.9 9.65 M 878.45 165.55 Q 875.65 165.55 873.25 167.1 870.85 168.9 869.9 171.5 869.05 174.65 873.25 176.2 L 876.6 177.75 Q 877.4 178.3 877.1 179.35 876.5 181.55 874.05 181.55 871.25 181.55 872 179.35 L 867.5 179.35 Q 866.45 185.1 873.05 185.1 880.25 185.1 881.6 178.9 882.95 174.75 877.1 173.15 874.3 172.25 874.6 170.95 875 169.2 877.4 169.2 878.55 169.2 878.75 169.7 879.5 170.45 878.75 171.1 L 883.5 171.1 Q 884.4 165.55 878.45 165.55 M 812.65 175.15 Q 813.55 171.4 811.9 168.65 809.7 165.55 805.3 165.55 800.6 165.55 797.15 168.65 793.5 171.6 792.55 175.15 791.4 179.35 793.3 182.05 795.3 185.1 799.9 185.1 804.6 185.1 807.95 182.05 811.15 179.45 812.65 175.15 M 804.05 169.7 Q 806.25 169.7 807.6 171.1 808.55 172.65 807.95 175.15 807.3 177.65 805.3 179.35 803.25 181 800.95 181 798.65 181 797.7 179.35 796.35 177.65 797.15 175.15 797.7 172.65 799.55 171.1 801.65 169.7 804.05 169.7 M 842.7 182.05 Q 844.5 185.1 849 185.1 853.7 185.1 856.3 181.75 L 855.45 184.55 859.85 184.55 864.9 166.05 860.5 166.05 859.85 168.9 Q 858.7 165.55 854.45 165.55 850.25 165.55 846.9 168.15 843.25 170.95 842.2 175.15 840.95 179.1 842.7 182.05 M 847.1 178.9 Q 846.15 177.45 846.6 175.45 848.15 169.7 853.9 169.7 857.45 169.7 858.1 172.85 858.6 174.2 858.1 175.45 L 856.5 178.1 Q 854.3 181 850.75 181 848.05 181 847.1 178.9 M 824.85 168.65 L 825.5 166.05 821.5 166.05 816.1 184.55 820.8 184.55 823.6 174.4 Q 824.85 169.7 829.15 169.7 832.6 169.7 831.95 174.4 L 829.15 184.55 833.3 184.55 836.45 173.4 Q 839.15 165.55 831.45 165.55 827.35 165.55 824.85 168.65 M 815.95 145.5 L 840.85 145.15 813.35 9.95 784.95 9.95 Q 772 9.95 765.1 19.05 L 672.6 145.15 711.05 145.15 729.85 117.25 798.2 117.25 800.6 133.9 Q 800.6 139 803.75 141.2 808.05 145.5 815.95 145.5 M 785.8 37.15 L 794.65 94.4 745.55 94.4 785.8 37.15 Z"/>
</g>
<g id="l1">
<path fill="#D5AC3E" stroke="none" d="M 1012 40.05 Q 1012 27.6 1003.85 19.6 992.45 7.9 963.4 7.9 L 903.85 7.9 Q 895.8 7.9 888.2 12.45 881.6 16.65 879.7 23.35 L 846.4 147.25 866.45 147.25 Q 874.6 147.25 881.6 142.75 889 138.35 890.8 132.1 L 899.65 98.9 942.5 98.9 Q 969.6 98.9 986.6 87.6 L 986.6 87.4 Q 1003.95 75.7 1009.9 54.05 1012 45.7 1012 40.05 M 968.85 39.55 Q 970.95 42.25 971.25 47.05 971.25 49.55 970.2 52.4 967.9 61.8 960.7 66.05 953.6 70.25 940.1 70.25 L 907.4 70.25 916.9 35.55 952.45 35.55 Q 963.1 35.55 968.85 39.55 Z"/>
</g>
<g id="l0">
<path fill="#D6B138" stroke="none" d="M 154.45 181 L 153.2 180.9 Q 150.75 180.9 149 183.3 L 146.3 187.15 145.55 187.7 148.45 187.7 154.45 181 M 130.2 187.7 Q 133 186.35 135.95 183.5 L 142.75 176.2 Q 141.7 175.45 140.55 175.45 138.25 175.45 135.1 179.1 131.65 183.2 130.1 183.5 128.85 185.2 128.85 185.9 127.45 186.45 125.7 187.7 L 130.2 187.7 M 119.65 155.1 Q 116.7 155.7 114.2 158.45 112.85 160.3 109.7 163.25 109.1 164.1 101.35 170.25 96.35 173.7 93.5 177.55 84.1 183 73.05 187.7 L 84.2 187.7 85.15 187.5 Q 86.2 185.4 87.15 184.55 87.75 184.35 89.25 184.35 90.7 184.35 91.2 183.8 L 93.6 181.4 103.95 173.9 Q 106.35 172.85 107 172.1 109.2 167.85 111.05 166.25 115.25 163.35 116.8 161.65 120.45 158.75 119.65 155.1 M 100.3 108.8 Q 100.6 109.95 99.55 114.75 103 114.15 103.95 109.65 L 100.3 108.8 M 136.45 142.55 L 135.4 145.15 131.25 148.8 Q 130.2 152.35 126.75 155.95 124.75 158.35 120.45 162.2 118.7 163.95 116.6 167.1 115.05 168.35 111.9 169.7 L 111.6 171.5 Q 104.05 179.65 90.15 187.7 L 96.65 187.7 Q 111.8 177.45 119.1 168.9 119.55 167.95 122.85 167.3 124.75 164.4 129.05 159.25 132.8 154.35 134.35 150.1 136.35 148.8 137.9 146.2 140 142.95 138.45 141 L 138.25 141 Q 137.1 141 136.45 142.55 M 128.85 146.75 L 128 146.75 Q 125.8 146.75 123.9 149.35 L 121.2 153.75 122.25 153.85 Q 124 153.85 126 151.95 128.2 149.65 128.85 146.75 M 77.3 177.75 Q 69.05 181.65 65.8 183.5 56.3 186 51.7 187.7 L 64.35 187.7 Q 77.85 181.4 84.75 179.1 L 90.7 174.1 Q 94.35 171.5 97.05 170.95 98.65 167.4 105.1 163.15 111.4 158.85 112.4 153.3 109.6 153.3 106.45 156.15 104.8 157.5 101.65 160.85 100.1 161.9 97.6 163.15 95.3 164.2 95.1 166.6 93.2 167.1 91.2 168.9 L 87.85 171.6 Q 84.5 174.2 77.3 177.75 M 19 144.85 L 14 146.2 13.55 149.35 Q 17.85 148.5 19 144.85 M 24.55 103.15 L 23.2 108.9 Q 27.55 106.3 29.45 102.65 29.75 101.9 32.6 100.75 34.35 99.8 34.45 97.5 29.65 98.05 24.55 103.15 M 120.15 79.05 Q 115.35 79.55 113.35 80.05 109.3 81 107.6 83.3 106.55 85.1 104.9 91.35 103.45 94.6 100.1 99.95 99.55 100.85 99.05 103.8 98.2 105.25 95.2 107.85 93.3 110.25 93 112.55 76.25 126.25 61.65 135.45 L 42.5 145.7 Q 30.7 152.15 22.45 154.35 L 17.45 153.2 Q 15.55 153.75 12.2 155.6 L 12.2 157.7 Q 15.15 157.7 19.3 156.35 25.4 155.4 26.85 155.4 L 29.75 155.6 Q 33.1 153.85 34.35 152.5 38.65 152.5 45.75 148 52.55 143.9 56.95 143.8 58.5 139.4 62.15 139.4 L 63.75 139.65 Q 64.45 137.45 66.95 136.1 L 71.55 134.2 Q 75.85 130.1 83.05 125.5 91.3 120.1 95.1 117.25 94.45 114.35 96.25 112.05 97.15 110.5 100.6 108.3 101.25 106.95 104.5 101.8 107.2 97.1 108.05 94.8 112.2 80.8 116.6 80.6 L 116.8 80.6 Q 122.55 80.6 122.25 89.6 121.6 96.7 118.15 103.8 117.45 105.65 115.25 107.85 113.55 111.4 111.8 119.05 110.95 120.4 107.5 123.2 103.65 131.5 93.5 138.9 81.4 148 77.75 152.15 74.8 152.7 71.45 155.1 66.95 158.35 65.8 158.95 L 64.75 159.25 62.7 159.25 61.65 159.5 Q 58.2 162 51.3 164.8 43.35 168.05 40.75 169.7 34.35 170.95 33.65 172.35 31.85 171.6 30.5 171.6 L 30 171.6 Q 27.8 171.6 26.85 170.55 28.5 168.05 32.8 167.3 39.05 166.7 39.7 166.25 40.85 166.05 43.35 164.3 45.55 162.7 47 162.7 L 48.15 162.7 Q 52.05 159.9 59.15 156.65 L 70.95 151.65 Q 71.35 150.4 74.7 148.8 77.3 147.15 76.9 145.5 79.6 144.65 84.75 141 89.85 137.35 92.8 136.3 94.55 133.9 97.05 131.8 L 101.85 127.95 111.6 109.65 Q 117.65 98.25 118.9 89.5 119.55 85.1 117.65 84.05 L 116.8 83.85 Q 116.6 83.85 115.75 85.1 115.75 86.55 114.7 86.55 L 114.5 86.45 Q 113.8 91.9 109.2 101.6 108.55 104.1 108.05 107.75 107.1 111.3 106.45 112.65 103 118.95 94.65 120.3 92.8 124.25 86.3 127.4 79.7 131.15 77.75 134.4 L 77.4 134.4 Q 75.95 134.4 74.5 135.95 72.2 137.85 71.9 137.85 59.95 145.7 53.7 146.95 52.65 148.6 50.75 149.35 48.6 150.3 48.05 151.45 L 46.8 151.65 44.7 151.45 Q 39.3 155.4 30.3 158.75 24.85 160.95 14.85 164.3 L 12 163.95 12 165.75 13.25 165.75 Q 17.75 165.75 27.15 162.6 L 34.9 160.3 Q 39.5 158.35 41.7 156.15 L 42.2 156.15 Q 45.75 156.15 50.25 153.3 55.35 150.6 58.5 150.4 L 59.65 148 61 147.8 62.7 148.3 Q 64.25 146.3 68.85 143.9 73.05 142.15 74.7 139.1 76.05 139.1 78.25 137.65 80.35 136.1 81.8 136.1 88.6 128.55 95.5 125.3 L 97.05 122.4 Q 97.7 120.8 99.05 120.8 L 99.8 121.15 Q 100.6 123.95 97.7 126.55 94.85 128.75 93 130 84.65 137.75 73.95 144.85 71.9 146.3 68.55 148 65.6 149.85 64.25 151.95 57.55 153.85 46.8 158.95 35.6 164.2 28.95 166.05 L 27.35 168.15 Q 26.95 169 26 169.95 L 13.25 171.6 13.8 173.4 23.4 172.35 Q 24.55 172.35 28.2 173.4 L 31 173.7 Q 39.3 173.7 44.4 169.4 L 48.05 170.45 Q 51.5 168.15 62.15 164.3 71.55 160.95 76.25 157.9 78.05 155.1 79.8 153.85 L 84.65 151.45 Q 86.8 150.2 88.3 147.25 90.8 146.3 98.65 140.45 L 103 137.1 Q 104.05 134.4 104.6 133.9 107.2 133.05 107.6 132.65 111.15 126.25 114 122.2 116.5 119.65 116.8 119.05 117.65 117.6 118.4 114.25 119.4 110.35 119.95 109.1 126.4 100.05 126.75 95.35 126.75 95.1 126 92.9 125.4 91.45 124.95 89.6 L 125.15 87.05 Q 125.5 85.9 124.95 84.55 124 83 122.55 81.75 L 120.15 79.05 M 111.9 73.6 L 111.6 73.6 Q 108.85 73.6 105.1 76.2 102.4 78.2 100.1 80.7 97.25 81.95 94.05 84.9 89.75 88.35 88.2 89.05 88.2 91.35 85.8 93.45 84.95 94.5 81.8 97 L 80.85 100.55 Q 75 102.55 66.95 109.95 58.8 117.9 54.1 120.1 54.1 120.8 53.3 121.35 52.75 122.1 52.75 122.9 46.7 124.8 40.75 130.75 L 34.45 134.5 Q 30.3 137 29.25 139.65 L 25.05 141.2 Q 22.55 142.05 21.95 144.35 33.55 139.4 50.25 127.4 L 52.65 127.4 54.1 127.7 Q 60.7 119.45 74.7 111.75 76.25 110.15 76.25 108.3 80.85 105.35 85.25 100.55 L 93.5 91.15 94.65 91.35 Q 95.2 91.9 95.5 93.45 L 95.5 95.95 Q 95.1 97.2 93.3 98.35 91.2 99.3 90.7 99.95 L 89.85 102.35 85.25 105.35 Q 84.65 108.2 82.35 109.65 80.95 110.7 77.95 111.75 76.25 114.95 70.95 118.5 63.4 123.35 62.7 124.25 50.45 134.7 40.2 137.35 37.9 140.9 31.85 143.9 25.05 147.05 22.85 149.55 43.35 142.95 53.3 135.05 56 134.6 60.2 131.6 63.95 128.95 67.4 128.45 70.4 121.55 78.8 120.8 85.05 110.8 91.95 106.4 L 97.7 97.5 Q 101.25 92.4 101.85 88.1 L 101.35 88.1 Q 100.1 88.1 98.65 90 97.05 91.65 95.7 91.65 93.6 89.05 96.55 87.4 97.9 86.15 101.65 84.35 102.2 84.05 103.55 81.75 L 110 76.5 113.35 76.65 Q 114.6 76.65 115.25 76 115.55 74.55 114 74.1 112.3 74 111.9 73.6 M 87.15 19.35 Q 90.5 18.35 91.2 16.25 86.6 16.55 79.8 18.55 72.4 20.85 68.35 21.15 66.75 22.8 63.75 23.75 L 59.05 24.9 Q 57.65 25.45 54.3 27.95 50.65 31.05 49.75 31.6 L 43.75 34.5 42.2 37.85 Q 48.9 34.4 50.55 32.95 L 52.15 32.95 52.65 32.75 53.7 32.95 55.9 30.05 Q 58.2 27.4 64.75 25.1 71.45 23.35 73.95 21.45 L 75.2 21.45 Q 76.6 21.45 80.45 20.4 L 87.15 19.35 M 107.5 15.2 L 111.05 16.25 Q 112.3 16.25 112.4 14.65 L 102.9 14.25 Q 97.7 14.25 95.5 16.75 L 96.55 16.75 Q 100 16.75 107.5 15.2 M 106.15 22 Q 108.75 22 109.2 20.1 L 108.65 20.1 Q 97.6 20.1 83.6 23.85 69.25 28.25 60.2 30.35 L 59.65 32.75 60.7 32.95 Q 67.9 30.95 80.95 26.7 93.8 23.05 101.85 21.45 L 106.15 22 M 150.05 43.2 Q 151.2 43.2 151.3 42.15 149.75 42.15 149 41.1 148.35 40.15 147.65 39.95 146.7 40.9 147.85 42.15 148.8 43.2 150.05 43.2 M 149.5 30.35 Q 150.15 30.35 149.4 29.8 148.35 28.75 148.45 28.25 144.1 25.45 133.3 23.25 134.45 25.55 140.55 26.9 147.3 28.75 148.9 30.35 L 149.5 30.35 M 129.05 27.75 Q 128.3 25.45 125.5 25.45 L 118.7 26.15 117.85 26.15 Q 114.7 24.9 113.35 24.9 L 112.85 24.9 Q 110.35 24.9 105.1 25.85 100.3 26.9 98.1 26.9 L 95.1 26.7 Q 94.15 27.5 91.4 27.95 89.35 28.65 88.3 30.05 L 85.8 29.8 Q 82.1 29.8 76.35 32.2 70.75 34.5 66.85 34.5 64.35 35.65 55.9 37.35 51.6 38.4 42 43.9 40.65 46.75 38.35 48.3 L 37.1 52.6 42.2 47.8 44.9 47.25 46.3 47.6 47.55 45.7 Q 48.25 44.65 49.2 44.65 L 50.55 44.95 Q 50.65 43.3 52.65 42.35 54.65 41.75 54.85 41 61.85 40.05 66.15 36.8 L 67.5 36.8 Q 71.8 36.8 79.8 34 87.25 31.05 92.25 31.05 L 92.45 31.05 Q 92.8 30.45 93.6 30.05 94.65 29.7 95.1 29 L 97.7 29.3 Q 102.6 29.3 107 26.35 L 118.4 27.4 Q 120.8 27.4 122.85 26.7 123.9 26.7 128 27.95 L 129.05 27.75 M 132.8 32.95 Q 132.7 35.15 136.15 36.1 141.25 37.65 141.7 37.85 142 36.9 138.45 35.25 134.15 33.9 132.8 32.95 M 127.8 17.3 Q 127.45 15.1 121.7 15.1 118.8 15.1 118.15 16.15 L 118.9 16.15 126.75 17.5 127.8 17.3 M 129.35 22.2 Q 125.8 21.05 123.6 20.6 119.1 19.35 116.6 19.35 114.4 19.35 112.95 20.6 119.1 22.2 129.35 22.2 M 137 12.15 Q 129.45 11.3 123.4 9.95 117.35 8.4 111.05 8.4 108.25 8.4 101.65 8.9 L 92.8 9.15 Q 88.9 9.15 87.85 8.9 84.5 11 83.6 11 L 81.3 10.5 Q 75.35 14.25 67.4 14.55 67.4 15.6 66.35 16.15 65.1 16.45 64.75 16.95 L 63.2 16.75 Q 62.35 16.75 60.7 17.5 59.75 18.55 58.5 18.55 L 57.45 18.55 55.45 19.9 52.25 22.7 Q 69.25 15.4 99.05 9.95 101.45 11 104.5 11 L 115.05 9.95 117.15 10.2 Q 129.55 11.65 147.65 17.3 144.4 13.75 137 12.15 M 164.15 185.6 L 164.15 185.4 Q 163.2 185.4 162.6 186.1 L 164.15 185.6 M 202.3 97.95 L 202.2 94.9 Q 201.85 93.55 200.6 92.7 199.25 103.6 201.65 111.2 L 200.4 120.8 Q 200.4 122.2 201.45 124.25 L 201.45 125.5 202.8 119.8 202.7 117.15 Q 201.85 111.1 202.2 108.8 203.1 100.85 202.3 97.95 M 167.8 72.25 Q 168.95 72.45 169.9 73.4 169.9 76.65 172 81.95 173.35 87.2 173.05 91.15 174.3 94.5 174.3 102.1 173.85 109.95 175 113.2 L 173.45 123.2 Q 172.5 129.2 173.25 132.3 172.2 135.25 170.65 144.95 169.35 152.6 167.2 156.35 166.45 157.4 163.3 160.5 L 159.65 169.2 Q 157.45 173.7 153.9 175.15 152.35 173.7 153.4 171.6 154.65 170.25 155.7 168.65 155.8 166.25 156.5 165 L 158.9 162.7 161.75 156.35 Q 164.05 154.45 164.55 153.3 168.1 146.4 168.55 137.35 167.9 132.5 168 130.2 170.1 124.8 170.4 120.8 169.6 118.3 169.6 116.75 L 170.95 107.85 Q 171.55 102.55 169.6 99.95 L 170.65 95.85 169.05 91.35 Q 168.65 89.05 169.9 86.05 L 167.8 84.35 Q 168.1 81 166.25 77.05 164.15 72.05 163.85 70.15 160.6 67.2 157.25 60.75 153.5 58.75 147.85 53.45 141.7 47.7 137.7 45.7 135.1 44.55 127.05 42.65 120.05 41 117.35 38.7 116.7 38.2 115.75 38.2 L 114.5 38.4 113.45 38.9 112.85 38.7 Q 110.95 36.4 111.6 33.8 L 114.2 33.45 Q 117.95 33.45 124.65 36.6 132.05 39.75 135.95 40.05 134.25 37.85 128.3 36.6 121.6 35.05 120.45 33.8 121.1 32.2 122.55 32.2 L 128.3 33.25 Q 129.55 33.25 130.2 32.65 L 121.7 30.35 Q 120.45 30.35 120.45 31.7 L 118.9 31.7 Q 96 31.7 80.95 38.2 73.75 38.7 65.1 42.65 51.5 49.05 50.25 49.35 47.45 51.25 34.9 62.3 L 33.3 67.75 33.45 67.65 Q 39.7 61.8 43.75 59.4 44.9 58.85 44.9 56.65 48.6 53.85 56.2 50.4 63.85 46.95 67.4 44.15 L 67.9 44.15 Q 70.5 44.15 74.5 42.15 79.1 40.5 80.95 40.5 L 83.6 40.6 Q 84.3 39.45 86.6 38.9 88.7 38.2 89.75 37.15 L 91.4 37.35 Q 93.7 37.35 98.2 35.75 103.1 34.3 105.1 34.3 107.6 34.3 110.25 36.1 109.3 39.45 104.9 39.45 L 99.8 39.2 Q 97.05 39.95 96.25 41.5 L 94.15 41.5 Q 88.7 41.5 81.3 44.45 72.9 47.6 68.85 48.3 68 50.6 64.05 52.9 L 62.7 52.9 62.05 52.6 56.75 55.85 Q 53.5 57.9 48.05 61.9 44 65.25 39.4 68.7 39.4 70.45 37.8 71.8 37.7 72.45 34.35 73.6 34.35 75.15 33.3 76.2 32.3 77.15 32.05 78.1 L 30.8 79.05 29.75 82.5 31.55 81.75 Q 33.1 78.8 37.8 75.7 42.85 72.65 44.3 69.85 44.6 69.1 48.6 68.25 52.65 61.7 63.2 56.65 75.75 50.5 79.3 47.25 L 80.95 47.6 Q 83.25 47.6 86.3 45.2 L 88.7 45.7 Q 90.8 43.8 96.25 42.65 L 104.6 41 108.95 41 Q 124.35 41 134.35 46 144.6 51.45 151.1 57.9 152.05 58.85 154.75 62.95 156.5 65.95 158.9 66.8 159.25 70.15 161.2 74.1 164.15 79.45 164.9 81.1 165.5 95.2 168 107.75 167.8 112.25 165.4 120.8 165.4 122.9 165.6 124.5 165.8 126.45 165.6 127.7 164.75 129.8 160.2 135.95 159.95 138.05 159.45 138.9 L 157.9 139.65 155.7 146.95 Q 154 151.85 152.35 154.25 152.05 154.55 150.75 157.7 149.85 159.9 147.95 160.5 146.5 157.7 149.5 152.5 152.65 146.2 152.35 144.45 154.75 142.95 156.75 136.1 158.5 129.5 161.55 127.95 162.45 114.85 164.55 106.7 163.4 104.3 162.25 97 161.45 89.9 159.95 87.4 L 161 83.85 155.45 71.3 Q 151.9 64.1 146.6 60.45 146.3 60.35 145.55 57.7 L 134.35 51.75 Q 127.15 48.3 120.15 46.75 111.6 45.7 109.2 45.7 L 91.95 47.25 Q 90.8 48.75 87.65 49.9 L 82.85 51.25 Q 77.85 55.3 74.5 55.3 L 74.2 55.3 Q 71.15 58.35 66.85 59.3 64.65 62 58.5 64.5 57.05 68.25 53.7 68.25 53.05 71.1 49.1 74.1 L 42.75 78.7 Q 40.1 80.9 35.5 84.05 32.8 86.75 30.8 89.6 L 27.35 92.2 26.1 96.8 Q 38.95 88.75 42 86.05 L 44.9 83.85 Q 45.25 81.75 45.75 81.65 L 51.8 78.5 Q 55.45 76.65 56.4 72.25 58.3 71.7 60.5 68.8 L 63.75 67.65 Q 65.5 66.6 66.15 64.5 66.15 63.65 67.9 63.65 70 63.65 70.95 63.35 71.8 62.5 72.6 60.75 74.7 59.8 78.25 58.85 79.6 58.05 82.55 54.8 86.2 54.15 99.25 48.6 L 114 48.3 Q 126 48.3 131.95 53 141.9 55.65 145.35 63.35 149.85 65.25 151.8 71.2 155.05 79.35 156 80.6 156 82.35 158.4 95.85 160.3 100.75 159.95 101.8 L 160.2 108.4 Q 160.8 112.65 160.2 115.8 159.75 118.95 157.25 125.65 L 156.5 130.75 Q 155.6 133.9 153.2 134.2 151.5 133.05 152.15 130.55 L 155.7 117.8 Q 157.15 113 157.35 109.45 L 155.45 105.25 Q 156.4 99.2 154.45 91.9 151.8 83.3 151.8 79.55 147.3 68.9 137.7 61.5 126.3 52.6 112.85 52.6 L 112.4 52.6 Q 111.15 53.55 109.5 53.55 L 105.1 53.55 Q 102.5 53.55 101.35 55.3 L 99.05 55.1 Q 89.35 55.1 77.4 64.2 L 75.2 63.65 Q 65 73.2 59.15 76.2 59.05 79.05 55.9 80.7 L 50.75 83.5 Q 49.6 84.45 48.05 87.05 45.95 89.25 38.35 95.45 39.15 99.4 36.05 102.65 L 30.8 107.35 Q 29.85 108.2 28.4 111.2 L 21.4 116.75 19.85 122.2 21.1 121.85 21.95 119.55 Q 26.65 117.9 32.8 111 40.2 102.65 42.75 100.25 42.95 95.55 49.1 92.4 55.7 88.65 56.95 85.1 61.55 83 67.9 77.05 75.95 69.1 77.95 67.65 84.65 62.85 94.15 59.4 101.85 57.2 112.4 54.5 116.1 55.65 117.85 55.65 119.65 55.65 120.7 54.6 124.95 54.9 128.3 57.2 L 134.35 60.75 Q 135 61.05 137 63.45 138.25 65.25 140.1 65.75 146.4 75.05 148.45 81.1 151.9 89.8 151.1 99.5 152.35 100.95 152.85 107.35 152.55 108.4 151.3 108.4 L 148.35 108.3 Q 147.3 107.25 147.95 105.9 149 103.5 149 102.85 146.5 88.1 145.55 84.35 142.4 73.6 137 68.15 134.7 67.55 133.55 66.8 129.15 62.4 125.5 60.75 120.8 58.85 115.75 58.85 111.5 58.85 104.05 60.95 95.5 63.35 92.25 63.65 91 66.05 85.65 67.1 80.75 70.15 68.55 81.95 58 92.4 50.75 95.95 50.35 98.45 47.55 100.75 45 103.15 44.4 105.9 41.7 108.05 35.4 115.05 30.1 121.35 25.5 122.9 24.55 126.55 18.5 128.25 L 17.45 131.6 Q 23.5 129.7 31 124.25 40.55 116.45 42.85 114.25 44.3 112.65 44.4 112.25 45 111.3 43.9 109.95 52.65 104.65 56.2 97.95 L 56.75 97.95 Q 60.9 97.95 64.55 92.7 67.2 91.25 72.1 86.05 76.9 81.2 80.35 80.2 81.3 77.15 81.8 77.05 83.35 75.5 84.1 75.5 L 84.75 75.7 Q 85.65 71.1 92.45 68.15 L 94.15 67.75 97.6 67.65 Q 99.45 66.8 104.6 64 108.25 61.9 111.05 61.9 113.35 61.9 114.7 62.4 116.8 63.25 117.85 65.75 118.9 66.8 122.35 67.65 123.3 68.05 125.5 70.75 127.05 72.15 129.35 73.05 131.65 75.6 135.4 81.65 L 137 92.2 Q 137.3 98.25 136.65 104.2 L 137 110.5 Q 137.2 113.6 134.6 114.25 132.8 114.05 132.8 112.05 L 133.55 108.3 130.6 107.35 Q 130.8 106 131.95 104.75 133.3 103.7 133.3 101.8 132.9 100.35 133.55 97.85 134.35 94.5 134.35 93.45 133 90.95 132.3 88.45 131.45 83.95 130.6 81.95 129.15 79.35 125.5 76 L 119.65 71.3 Q 115.15 67.75 110 67.75 107.4 67.75 102.4 69.3 91.2 73.8 86.8 77.55 L 84.1 81.2 Q 82.35 83.3 80.35 83.3 79.7 85.6 80.35 85.9 L 75 89.5 Q 71.8 91.45 70.4 94.3 66.85 96.15 60.5 102.35 54.1 108.2 50.25 110.5 50.15 113.2 47.85 115.6 45.85 116.75 45.75 116.75 L 44.9 116.65 Q 40 123.2 31.55 128.95 28.6 131.15 16.1 138.05 L 15.55 140.65 Q 20.35 137.75 24.55 136.1 28 135.55 30 134.4 L 33.95 130.75 37.1 128.75 Q 38.55 127.3 39.4 125.3 42.5 125 46.5 121.35 50.55 117.5 53.2 116.75 52.85 115.9 53.2 114.25 54 113.1 56.75 113.1 L 58 113.1 59.05 109.45 Q 59.35 108.5 61.55 108.3 63.75 108.3 64.25 107.75 65.1 107.75 66.15 105.9 66.75 104.2 67.9 104.2 L 69.05 104.3 68.85 100.55 Q 68.85 99.95 70 99.95 L 72.1 100.25 Q 72.4 96.25 75.75 96.25 L 76.25 96.25 Q 76.5 93.95 78.45 92.4 78.9 91.65 79.95 91.65 L 80.95 91.65 82 91.35 Q 87.05 85.1 89.25 83 93.4 81.1 95.2 79.05 96.45 78.1 97.15 76.5 99.15 74.85 103 73.4 104.7 72.65 106.55 70.75 108.15 69.65 109.2 69.3 L 109.7 69.3 112.95 69.85 Q 114.1 69.85 114.2 69.3 123 75.35 126.2 80.7 131 88.1 129.85 98.45 129.35 100.55 128.85 101.6 L 127.05 104.2 Q 126.1 105.9 125.5 109.95 124.75 111.95 121.7 114.75 L 117.65 122.9 Q 115.15 127.8 112.4 128.75 L 111.6 132.3 Q 109.9 133.35 106.15 137.85 104.4 138.7 102.2 141.2 99.55 144.55 97.7 145.7 96.1 147.05 90.9 149.85 L 90.7 151.65 Q 86.3 154.25 83.9 155.4 78.45 159.6 74.5 162.1 62.6 168.55 59.05 169.95 57.65 170.55 54.3 171.5 47.55 173.9 32.05 178.3 28.4 177.55 24.45 177.55 20.7 177.55 18.5 178.6 L 16.6 178.1 17.75 179.85 23.2 179.35 Q 26.2 179.35 28.2 180.5 31.25 179.35 34.35 179.35 L 38.15 179.85 Q 40.95 178.1 44.7 178.1 47.75 178.1 48.7 179.95 46.3 181.85 42.2 182.55 L 23.9 184.05 29.75 186.65 Q 31.55 186.35 33.95 185.1 L 38.35 185.9 46.5 184.55 47.55 184.85 Q 49.95 184.45 53.8 183.1 58.1 181.75 60.5 181.75 62.35 181 68.55 177.55 73.15 175.25 77.4 174.65 81.5 170.25 83.9 170.25 L 84.65 170.25 Q 85.55 168.05 89.35 165.55 93.2 163.35 94.15 160 L 92.45 159.8 Q 89.25 159.8 87.35 163.95 74.9 171.1 53.8 180.5 49.6 180.05 48.7 178.1 53.2 175.45 62.6 173.9 64.65 172.1 71.9 168.65 77.95 165.25 80.85 162.2 L 83.35 161.35 Q 84.65 160.5 86.2 160.5 L 86.3 160.5 Q 86.2 157.9 92.8 155.95 93 154.25 95.1 152.7 98 150.9 98.65 150.4 L 100.6 148 Q 101.55 146.95 103.45 146.5 104.05 144.45 108.65 141 110.65 136.4 115.55 133.35 117.75 128.25 119.65 128.25 L 120.15 128.25 Q 121.3 129.6 119.65 132.3 117.65 135.35 117.65 135.95 114.85 138.9 96.25 156.65 L 97.15 157.9 Q 97.8 158.75 98.75 158.75 101.65 158 104.9 153.3 108.15 150.5 112.95 148.5 113.55 145.5 115.25 143.4 116.6 142.45 118.9 140.45 122.45 132.75 126.55 131.05 126.55 133.8 124.45 137.1 122.55 139.65 123.1 141.5 121.6 143.1 118.15 145.5 115.25 148.1 114.5 152.15 117.55 151.85 120.7 148.3 123.8 144.45 125.7 143.4 125.4 141 128 138.05 L 131.65 133.65 133.85 126.65 Q 134.8 122.8 137.4 121.15 139.4 122.9 137.2 127.95 135.3 131.9 133.55 133.65 134.35 135.65 131.75 138.6 128.7 141.7 129.05 143.8 129.55 144.35 130.6 144.35 131.35 144.35 131.95 142.75 133 141 133.55 140.45 136.05 138.25 138.75 129.7 141.35 121.85 144.3 119.05 146.05 121.55 143.45 127.7 140.55 135.35 141.15 137.85 143.9 137.75 145 134.2 L 146.3 127.95 Q 149.95 114.55 151.6 109.65 153.05 110.05 153.4 111.2 L 153.9 113.6 Q 152.65 116.95 151.1 125.3 149.5 132.5 147.95 135.95 147.3 137.85 144.3 141.2 L 141.7 146.75 Q 140.1 149.65 137.9 150.4 137.6 152.15 136.15 154.9 135.85 155.7 134.6 156.35 134.25 156.95 134.6 158.45 132.15 162.3 127.55 166.6 L 126.55 168.15 124.45 168.35 120.8 172.65 Q 119.3 174.75 117.35 176.5 L 113.45 178.8 Q 112.75 179.75 112.3 181 110.95 182.35 108.65 183.3 106.35 184.55 105.95 186.45 104.7 186.85 102.9 187.7 L 109.3 187.7 110.25 186.1 112.3 185.4 Q 112.75 184.05 113.45 183.3 114.95 182.35 117.65 181.4 120.8 179.65 121.7 179.1 122.85 178.2 126.55 173.15 129.45 169.5 132.3 167.85 L 147.1 142.55 Q 149.6 137.65 152.35 136.3 153.9 138.15 152.35 141.5 151 144.65 149.4 145.7 145.55 154.35 135.95 168.65 133.2 170.15 130.2 173.4 L 126.2 178.3 114.95 187.7 121.3 187.7 Q 124.25 184.25 131.15 178.8 137.7 173.05 140.1 166.6 142 166.6 143.25 163.45 144.8 160.3 146.3 160.3 L 147.65 160.5 Q 147.95 163.55 145.55 166.25 142.6 169.5 141.9 171.6 142.5 171.6 143.25 172.35 L 144.8 172.85 Q 146.3 172.85 147.1 171.6 147.55 170.75 147.3 169.95 146.8 169 146.8 168.35 148.45 168.35 149.4 166.25 L 150.75 162.6 Q 153.3 160.5 154.2 158.95 155.35 156.45 157.75 149.35 159.55 143.3 162.05 140.65 164.75 141.95 163.85 145.15 163.1 146.95 160.7 150.6 157.45 159.05 156.2 161.55 152.95 167.75 150.05 169.95 151.4 170.85 149 176 147.2 177.85 142.4 181.4 138.45 184.35 136.65 187.7 L 139.8 187.7 Q 144.7 183.5 146.05 180.9 147.95 180.4 149.5 179.1 151.3 177.15 152.35 176.2 153.6 176.2 154.45 177.55 155.15 178.6 156.75 178.6 L 157.05 178.6 Q 158 174.65 161.75 170.45 165.7 166.05 166.75 162.1 171.45 156.75 173.95 146.5 176.5 136.6 175.1 129.5 178.05 124.6 177.75 116.2 177.5 105.9 178.45 102.1 177.4 100.35 177.4 95.85 177.4 91.15 176.05 89.5 176.7 86.15 176.15 83.3 176.15 81.65 175 79.25 173.65 77.15 173.95 75.15 173.15 73.6 171.45 73.05 170.2 66.05 164.35 59.3 161.35 55.85 152.35 47.6 149 46.95 145.55 44.15 142 41.5 138.95 41 139.05 42.65 141.7 43.9 L 146.6 46 Q 158.2 56.15 159.65 57.7 166.25 64.8 167.8 72.25 M 163.85 133.65 Q 164.45 131.05 165.9 131.05 L 166.65 131.25 Q 167.9 131.6 167.3 133.9 166.75 136.1 165.9 136.6 L 165.6 136.6 164.9 136.8 163.85 136.8 Q 163.2 135.65 163.85 133.65 M 117.85 60.75 L 119.4 60.75 Q 123.3 60.75 128.3 64.7 134.6 69.95 136.45 70.65 136.65 72.55 137.9 74.1 138.95 75.6 140.55 77.15 140.2 79.95 141.35 82.8 L 144 87.6 Q 143.05 88.95 144 90.85 145.35 94.3 145.35 94.9 145.55 102.65 141.9 115.6 L 141.7 115.3 140.55 115.8 140 115.6 Q 139.4 113.3 140 109.95 141.05 104.75 141.15 103.8 141.45 101.3 141.15 96.8 140.95 92.3 141.35 90.65 L 139.05 87.6 Q 138.15 85.6 138.95 83 138.35 82.6 133.55 74.1 125.6 68.8 122.35 65.05 117.25 64.7 117.85 60.75 M 129.85 108.8 L 130.7 108.9 Q 131.15 111.2 129.55 114.75 L 125.7 122.2 123.6 121.65 Q 123.2 119.05 127.55 112.55 127.9 110.7 128.3 109.95 128.85 108.8 129.85 108.8 M 134.35 115.3 Q 134.9 118.2 133 121.85 130.6 126.65 130.2 128.25 L 129.85 127.95 128.3 128.45 127.25 127.95 Q 127.9 127 130.1 120.3 131.85 115.3 133.55 115.3 L 134.35 115.3 M 124.15 122.9 Q 124.75 124.15 123.6 125.65 123 127.1 121.3 127.1 L 119.4 126.15 Q 120.35 122.9 124.15 122.9 M 174.8 55.1 Q 174.9 57.3 176.9 60.2 180.05 63.55 180.55 64.7 L 183.9 72.25 Q 185.8 77.45 187.35 79.75 186.7 81.85 187.15 83.5 L 188.4 86.45 187.65 92.4 Q 187.55 96.05 188.7 97.85 187.65 104.1 187.65 115.8 187.55 119.65 187.65 127.7 187.65 130.35 186.3 135.05 185.45 140.05 185.45 142.25 184.4 153.1 182.65 157.4 179 166.5 172.5 174.95 171.45 176.5 168.85 178.6 166.85 180.4 166.25 184.05 L 167.3 184.35 167.5 184.35 167.5 184.15 168.35 183.8 Q 174.8 176.6 178.45 171.6 184.85 163.65 186.6 156.35 186.95 153 187.35 151.65 L 189.75 144.45 Q 190.7 139.75 189.25 136.8 190.8 133.35 190.5 127.7 L 190.25 118.3 191.75 110.5 Q 190.8 108.5 190.8 107.25 191.5 102.85 191.5 101.6 L 191 93.25 Q 189.85 90.4 189.75 88.45 190.15 83.65 189.75 81.1 189 80.6 188.7 79.55 188.4 75.35 184.5 68.25 181.5 61.9 180.85 61.25 178.35 57.2 174.8 55.1 M 168.35 36.3 Q 174.6 41.85 177.75 43.6 178.35 44.35 186.1 54.8 L 194.35 65.75 Q 194.95 66.8 196 70.75 197.25 74.2 198.85 75.15 199.25 82.8 205.95 93.95 L 207 102.65 208.05 98.45 Q 207.4 96.35 208.55 94.4 205 88.85 203.75 78.7 196.65 67.2 194.35 60.75 187.15 51.85 180.05 43.6 171.25 33.9 161 29.5 151.3 21.65 137.7 18.55 134.25 17.3 132.8 17.3 132.4 17.3 130.7 18 L 145 22.3 Q 147.65 23.45 152.15 26.7 155.15 28.05 158.4 29 162.05 30.85 168.35 36.3 M 163.85 40.5 Q 165 42.45 168.35 44.65 172.5 47.8 173.25 48.6 174.3 49.25 176.6 53 176.9 53.55 179 53.55 L 180.85 56.65 Q 193.8 73.3 193.8 85.1 194.35 86.05 195.2 86.05 194.85 87.6 194.85 90.5 194.65 92.2 193.8 94.4 195.2 96.5 194.85 102.65 193.95 108.8 195.2 110.7 192.05 129.8 194.45 138.35 193.8 145.6 188.4 165 182.75 171.2 179.7 176.7 L 179.5 177.05 181.4 175.15 Q 185.05 171.4 188.4 166.05 189 165.25 190.15 162.95 L 194.35 152.8 Q 196.25 141.4 197.8 135.95 196.75 134.2 197.05 129.5 197.05 124.7 196 122.9 198.75 113.6 196 100.75 197.05 97.95 197.05 93.25 197.4 88.2 198.1 85.5 L 191.5 66.8 Q 189.95 66.8 189.45 65.55 188.7 64.3 187.65 64 185.65 57.3 177.4 50 164.35 38.5 163.85 37.85 160.8 37.55 157.75 34.5 154.65 31.7 152.65 31.7 L 152.15 31.7 Q 151.8 33.35 153.9 34 L 157.05 35.25 159.65 38.4 Q 161.1 39.85 163.85 40.5 M 162.8 46.55 Q 161.75 45.3 162.25 43.6 L 161.75 43.6 Q 161 43.6 160.2 44.45 150.15 32.65 133 28.75 135 29.3 140.1 32.65 144.8 34.95 147.85 35.55 150.35 37.35 155.45 42.65 159.85 47.7 162.8 49.45 166.15 55.4 173.25 64 178.9 79.75 179.8 84.55 182.65 96.7 180.85 108.4 181.8 110.35 181.4 114.75 180.85 120.1 180.85 122.9 181.05 130.95 178.25 143.3 175.65 155.6 171.65 163.25 170.85 164.9 168 166.8 166.75 169.1 165.4 172 163.85 175.15 162.25 176.7 159.85 179.85 156 182.05 155.35 183.2 156.2 183.8 156.75 184.65 156.5 185.4 L 154.2 187.7 156.2 187.7 157.05 187.5 157.35 186.1 Q 159.85 184.25 165.4 177.55 170.1 171.1 173.45 168.9 175.95 160.3 179.8 156.65 177.95 151.85 181.4 150.6 180.45 149.05 181.05 146.75 L 182.1 142.75 Q 181.3 138.9 181.6 136.8 183.7 130.55 184.2 127.1 183.35 124.7 183.35 122.9 184.95 117.5 184.95 114.25 183.8 111.65 184.2 110.5 185.05 106.4 185.05 103.8 184.2 100.35 184.2 97.85 L 184.95 92.9 Q 185.05 90 183.35 88.65 184.3 85.6 183.15 82.25 181.9 78.4 181.9 76.5 180.45 76.2 180.05 74.1 179.5 72.25 177.95 71.7 177.5 66.6 173.25 60.45 167.5 52.5 166.65 49.9 165.9 48.6 163.85 48.6 163.85 48.3 162.8 46.55 M 181.05 35.75 Q 180.25 35.25 179.5 34 178.55 32.35 178.25 32.1 174.4 30.55 173.25 29.5 171.45 26.9 170.65 26.35 167.6 25.85 166.65 25.1 L 160.2 20.6 Q 155.7 17.8 150.75 17.5 155.15 19.6 160.7 23.25 167.3 27.3 170.65 28.75 175.2 32.1 181.9 39.45 L 191.75 50.5 Q 192.8 51.25 193.4 53 194.05 55.2 195.7 55.3 196 57 197.6 59.9 199.15 62.95 199.15 64.5 201.75 65.25 203.25 68.15 203.85 69.4 203.25 71.2 205.65 72.35 207.2 76.65 208.75 81.55 210.35 83 210 85.5 210.55 88.55 L 210.55 88.65 211.7 82.8 Q 208.55 71.8 202.8 64.2 203.45 61.25 202.7 60.2 L 195.7 52.4 Q 190.7 45.4 186.1 40.5 184.75 38.6 181.05 35.75 M 168 18.85 Q 165 15.2 163.1 14.25 161.1 13.4 157.9 12.7 153.9 12.05 152.85 11.65 147.75 9.15 143.25 7.35 L 136.15 7.35 144 9.45 Q 154.3 12.7 157.75 15.6 L 158.4 15.7 159.95 14.65 160.2 14.65 Q 164.45 18.35 173.05 22.3 176.25 24.9 181.05 30.35 185.8 35.55 189.45 37.35 203.55 53.75 212.2 67.75 212.2 68.35 213.8 74.1 L 215.05 69.85 215.05 69.75 214.85 67.75 Q 210.95 60 194.85 38.9 L 193.95 38.9 Q 192.45 38.9 191.5 37.15 L 189.75 34.3 Q 187.55 34 187.35 33.8 185.9 30.75 185.05 30.05 182.65 29.7 182.1 29.3 180.35 25.95 178.8 24.6 177.1 23.35 173.45 21.65 169.15 19.7 168 18.85 M 170.4 13 Q 168.1 11 162.6 7.35 L 158.4 7.35 Q 164.9 10.6 178.8 19.6 179.7 21.65 183.15 24.6 187.05 28.45 187.65 29.5 L 189.45 29.8 Q 190.5 28.35 188.2 26.35 184.75 24.4 183.7 23.35 177.75 15.2 170.4 13 M 220.05 47.6 Q 217.85 42.35 214.85 40.6 214 36.9 213.8 36.6 L 202.3 24.4 Q 201.25 23.05 196.55 16.25 193.3 11.2 189.95 8.4 L 183.7 7.9 Q 189.25 14.45 200.95 24.9 211.4 35.55 214.3 44.45 216.4 46.95 217.95 47.8 L 219.2 52.4 220.25 47.8 220.05 47.6 M 207.2 40.6 Q 206.55 41.1 205.1 41.1 202.7 41.1 199.65 36.8 196.1 32.75 193.4 32.75 L 193.3 32.75 Q 194.95 36.1 200.4 39.75 201.95 42.05 209.3 50.4 214.4 57 216.9 61.8 L 217.65 58.75 Q 216.1 55.85 209.6 46.2 208.95 45.7 206.7 44.95 204.9 44.15 204.6 43.2 205.2 41.6 206.45 41.6 L 209.1 42.15 210 41.85 Q 210.75 40.6 209.8 39.95 207.8 39.2 207.5 38.9 202.7 31.6 197.8 29.5 194.75 24.4 187.85 18 182.55 13.4 176.15 7.55 172.9 7.55 172 7.35 187.15 18.85 193.3 27.75 199.9 30.95 207.2 40.6 M 207.7 12.8 Q 206.9 12.6 204.25 11.55 201.45 10.6 198.3 9.95 L 196.75 9.45 196.95 9.55 197.6 11.1 Q 205.4 12.05 211.05 18 L 220.55 28.45 Q 219.65 24.4 218.7 22.8 213.35 17.8 210.85 14.65 L 210.85 14.55 207.7 12.8 M 209.8 23.25 L 209.1 20.95 Q 203.1 17.8 201.45 15.7 201.45 18.65 204.05 20.6 L 209.1 24.05 Q 215.35 30.85 221.1 40.05 L 221.5 36.8 219.4 34.75 Q 218.05 33.45 214.85 29 212.2 25.35 209.8 23.25 M 1007.8 40.05 Q 1007.8 29.3 1001.05 22.3 991.1 12.05 963.6 12.05 L 903.85 12.05 Q 896.35 12.05 890.5 15.9 885.05 19.35 883.5 24.6 L 851.5 143.3 866.45 143.3 Q 873.15 143.3 879.3 139.4 885.8 135.45 887.05 131.05 L 896.55 94.8 942.5 94.8 Q 968 94.8 984.3 84.05 1000.6 72.55 1005.75 53 1007.8 45.8 1007.8 40.05 M 975.1 47.05 L 974.4 53.45 Q 971.25 64.8 962.6 69.65 954.55 74.45 940.1 74.45 L 902.3 74.45 913.65 31.6 952.45 31.6 Q 965.5 31.6 971.25 36.6 L 971.45 36.8 971.75 36.8 Q 975.65 41.3 975.1 47.05 Z"/>
</g>
</defs>
<g transform="matrix(1,0,0,1,0,0)">
<use xlink:href="#l2"/>
</g>
<g transform="matrix(1,0,0,1,0,0)">
<use xlink:href="#l1"/>
</g>
<g transform="matrix(1,0,0,1,0,0)">
<use xlink:href="#l0"/>
</g>
</svg>
